<?xml version="1.0" encoding="UTF-8" standalone="no"?>
<!-- Created with Inkscape (http://www.inkscape.org/) -->

<svg
   xmlns:dc="http://purl.org/dc/elements/1.1/"
   xmlns:cc="http://creativecommons.org/ns#"
   xmlns:rdf="http://www.w3.org/1999/02/22-rdf-syntax-ns#"
   xmlns:svg="http://www.w3.org/2000/svg"
   xmlns="http://www.w3.org/2000/svg"
   xmlns:inkscape="http://www.inkscape.org/namespaces/inkscape"
   version="1.1"
   width="582.65625"
   height="150.20419"
   id="svg15018">
  <metadata
     id="metadata9">
    <rdf:RDF>
      <cc:Work
         rdf:about="">
        <dc:format>image/svg+xml</dc:format>
        <dc:type
           rdf:resource="http://purl.org/dc/dcmitype/StillImage" />
        <dc:title />
      </cc:Work>
    </rdf:RDF>
  </metadata>
  <defs
     id="defs15020" />
  <g
     transform="translate(-82.957589,-468.68866)"
     id="layer1"
     style="fill:#ffffff">
    <path
       d="m 294.62075,484.59187 0,11.02218 4.19153,0 c 0.88767,-0.123 1.80955,-0.072 2.69086,-0.31049 0.92311,-0.1273 1.83188,-0.45811 2.63911,-0.8797 0.74771,-0.47853 1.42167,-0.98894 1.81115,-1.81116 0.47664,-0.79274 0.71029,-1.77648 0.72447,-2.69085 0.0611,-1.28057 -0.30903,-2.5979 -1.24193,-3.51883 -0.59151,-0.61235 -1.38164,-1.06406 -2.22514,-1.29367 -1.26415,-0.40065 -2.55778,-0.56844 -3.88105,-0.51748 -1.57321,-10e-4 -3.13576,3.1e-4 -4.709,0 z m 72.29095,0 0,11.02218 4.24328,0 c 1.09768,-0.108 2.22785,-0.12488 3.31184,-0.41398 0.99277,-0.24419 1.99609,-0.59084 2.79434,-1.24194 0.70749,-0.52087 1.20781,-1.35352 1.50068,-2.17338 0.36121,-1.09555 0.36677,-2.28025 0.15524,-3.41533 -0.22292,-0.92917 -0.71724,-1.71982 -1.44893,-2.32862 -0.72071,-0.60354 -1.66431,-0.9282 -2.58736,-1.13844 -1.07241,-0.2604 -2.21034,-0.35328 -3.31182,-0.31049 -1.54777,-0.01 -3.10942,0.004 -4.65727,0 z m -72.29095,17.69758 0,11.59138 8.33132,0 c 1.04612,-0.0892 2.08181,-0.2369 3.10483,-0.51747 1.10195,-0.31763 2.14082,-0.84943 3.00134,-1.60416 0.7143,-0.72005 1.1822,-1.66047 1.39719,-2.63912 0.16186,-1.03548 0.10062,-2.1141 -0.25874,-3.10483 -0.47837,-0.9584 -1.23101,-1.80424 -2.17339,-2.32863 -1.03299,-0.57831 -2.13789,-0.99342 -3.31182,-1.13844 -0.97743,-0.23212 -1.99304,-0.28237 -3.00135,-0.25873 -2.36758,0.004 -4.72171,-10e-4 -7.08938,0 z m 72.29095,0 0,11.59138 8.43481,0 c 1.0977,-0.0842 2.19059,-0.27915 3.26008,-0.56922 1.11075,-0.36618 2.20549,-0.88736 3.00135,-1.7594 0.99915,-1.02366 1.38913,-2.53513 1.29367,-3.9328 -0.009,-0.93758 -0.37967,-1.78706 -0.93145,-2.53561 -0.72941,-0.89335 -1.69075,-1.61189 -2.79435,-1.9664 -0.90253,-0.4421 -1.94667,-0.52294 -2.89785,-0.72447 -1.18582,-0.16123 -2.37062,-0.0924 -3.57056,-0.1035 -1.922,-0.004 -3.87367,0.001 -5.7957,0 z m -96.45691,-32.60079 0,59.09539 62.76946,0 0,-59.09539 -62.76946,0 z m 72.39445,0 0,59.09539 62.8212,0 0,-59.09539 -62.8212,0 z m 72.3427,0 0,59.09539 62.8212,0 0,-59.09539 -62.8212,0 z m 33.42875,7.71034 c 2.09331,-0.0312 4.17108,0.15338 6.20968,0.46572 1.84176,0.36581 3.62143,0.84671 5.38171,1.39718 1.58357,0.5063 3.26515,1.14272 4.86424,1.75941 0.0571,2.63137 -0.0165,5.26959 0,7.91734 -0.84851,-0.51489 -1.68506,-0.87502 -2.48387,-1.34544 -1.85009,-0.90315 -3.79978,-1.71059 -5.74395,-2.27688 -2.08156,-0.64465 -4.11205,-1.01797 -6.31316,-1.13843 -2.65889,-0.0924 -5.14027,0.21736 -7.50336,1.03493 -2.00856,0.70305 -4.23226,1.82799 -5.89919,3.46708 -1.12252,1.00097 -1.97101,2.11017 -2.79435,3.51881 -0.6051,1.12656 -1.0667,2.36866 -1.39718,3.62231 -0.5263,2.56183 -0.51006,5.42923 0.20699,7.91734 0.39536,1.29529 0.94778,2.53603 1.65591,3.6223 1.03089,1.6069 2.61117,3.02629 4.08804,3.98455 0.79479,0.6055 1.98399,1.12269 2.89784,1.55241 2.83816,1.06005 6.09037,1.57482 9.15927,1.34543 3.57013,-0.18421 7.19482,-1.29786 10.5047,-2.8461 1.3589,-0.63495 2.89922,-1.51383 4.08804,-2.27688 l 0,8.12433 c -0.68135,0.26161 -1.44437,0.62131 -2.17339,0.9832 -1.25282,0.45775 -2.39498,0.98911 -3.62231,1.34542 -1.78497,0.61745 -3.72069,0.87309 -5.58871,1.24194 -2.51564,0.1631 -5.13636,0.38071 -7.65859,0.15524 -3.0563,-0.20658 -6.08201,-0.90343 -8.79704,-2.12164 -2.25272,-0.97279 -4.27487,-2.2901 -5.95093,-3.8293 -1.71634,-1.62902 -3.24728,-3.43221 -4.34678,-5.48521 -1.19232,-2.08441 -1.95791,-4.30485 -2.38037,-6.52015 -0.7303,-4.57471 0.0166,-9.48673 2.27687,-13.60954 0.84709,-1.65442 1.95826,-3.07166 3.10484,-4.34677 0.98194,-1.12035 2.22886,-2.1632 3.46707,-3.05309 1.98166,-1.34481 4.19807,-2.5089 6.62365,-3.26008 2.0301,-0.71372 3.96183,-0.95141 6.00269,-1.24193 0.69569,-0.0602 1.42388,-0.0931 2.12164,-0.1035 z m -161.71026,0.56922 c 3.64519,0.001 7.27335,-2.9e-4 10.91867,0 3.59713,-0.10975 7.33103,0.0401 10.6082,1.70766 4.0427,1.86389 6.70488,6.4174 5.95094,10.86693 -0.20811,3.20786 -2.52784,5.96192 -5.32997,7.24462 1.56303,0.45239 3.19786,1.145 4.55376,2.12164 4.49036,2.83788 6.14391,9.26535 3.46706,13.86826 -2.34734,4.52293 -7.71829,6.39157 -12.52284,6.6754 -5.88495,0.20742 -11.75482,0.046 -17.64582,0.1035 l 0,-42.58801 z m 72.39445,0 c 2.26465,7.6e-4 4.56576,-2.2e-4 6.83064,0 4.55101,0.1838 9.30753,-0.65179 13.60953,1.24194 4.59533,1.51867 7.83527,6.50474 6.98589,11.33265 -0.16042,3.2329 -2.50767,5.9622 -5.32997,7.24462 1.78596,0.50435 3.63175,1.35449 5.12298,2.53562 4.12838,2.96282 5.49794,9.04245 2.94959,13.45428 -2.37407,4.49213 -7.66429,6.39128 -12.47109,6.6754 -5.88453,0.21114 -11.80668,0.0448 -17.69757,0.1035 l 0,-42.58801 z"
       inkscape:connector-curvature="0"
       id="path10516"
       style="fill:#ffffff;fill-opacity:1;fill-rule:nonzero;stroke:none" />
    <path
       d="m 200.07849,547.36131 0,16.45564 -9.625,0 0,5.27821 9.625,0 0,47.45226 5.27823,0 0,-47.45226 9.57325,0 0,-5.27821 -9.57325,0 0,-16.45564 -5.27823,0 z m 107.01338,0 0,16.45564 -9.62499,0 0,5.27821 9.62499,0 0,47.45226 5.32997,0 0,-47.45226 9.57325,0 0,-5.27821 -9.57325,0 0,-16.45564 -5.32997,0 z m 78.91461,0 0,10.24596 5.17472,0 0,-10.24596 -5.17472,0 z m 263.75589,0 0,16.45564 -9.67674,0 0,5.27821 9.67674,0 0,47.45226 5.27822,0 0,-47.45226 9.57325,0 0,-5.27821 -9.57325,0 0,-16.45564 -5.27822,0 z m -539.05143,14.95496 c -14.784701,0 -26.753351,12.49532 -26.753351,27.89179 0,15.49843 11.924562,27.68479 27.219071,27.68479 11.52187,0 20.53915,-6.40896 25.40792,-17.9563 l 0.56921,-1.34544 -5.53695,0 -0.25874,0.56923 c -3.95107,8.99827 -11.18549,13.97176 -20.33669,13.97176 -12.184609,0 -20.843958,-8.3374 -21.889096,-20.8024 l 49.159926,0 0,-0.9832 c -0.38238,-17.38475 -11.49658,-29.03023 -27.5813,-29.03023 z m 132.00731,0 c -14.7847,0 -26.75335,12.49532 -26.75335,27.89179 0,15.49843 11.92456,27.68479 27.21908,27.68479 11.52186,0 20.53916,-6.40896 25.40791,-17.9563 l 0.56923,-1.34544 -5.53697,0 -0.25874,0.56923 c -3.95107,8.99827 -11.18548,13.97176 -20.33667,13.97176 -12.18463,0 -20.84398,-8.3374 -21.8891,-20.8024 l 49.15991,0 0,-0.9832 c -0.38237,-17.38475 -11.49657,-29.03023 -27.5813,-29.03023 z m 317.21084,0 c -14.7847,0 -26.80509,12.49532 -26.80509,27.89179 0,15.49843 11.9763,27.68479 27.27081,27.68479 11.52187,0 20.56467,-6.40896 25.40792,-17.9563 l 0.56922,-1.34544 -5.53696,0 -0.25874,0.56923 c -3.95107,8.99827 -11.18549,13.97176 -20.33667,13.97176 -12.18463,0 -20.84398,-8.3374 -21.8891,-20.8024 l 49.15991,0 0,-0.9832 c -0.38238,-17.38475 -11.49658,-29.03023 -27.5813,-29.03023 z m -210.61144,0.15524 c -15.44745,0 -27.06382,11.82643 -27.06382,27.47781 0,15.65138 11.87127,27.89179 27.06382,27.89179 8.84533,0 15.84624,-3.66069 21.7856,-11.38441 l 0,10.09072 5.01949,0 0,-52.73047 -5.01949,0 0,10.03896 c -5.3021,-7.54529 -12.6089,-11.3844 -21.7856,-11.3844 z m -183.59936,0.36224 c -6.78056,0 -12.1979,2.50791 -16.40389,7.5551 l 0,-6.5719 -5.17472,0 0,52.73047 5.01948,0 0,-27.16732 c 0,-5.88839 -0.0351,-10.53894 2.79435,-14.54099 3.3648,-4.79227 7.90342,-7.14113 13.86828,-7.14113 11.26696,0 16.76612,6.78244 16.76612,20.80242 l 0,28.04702 5.01948,0 0,-28.5645 c 0,-6.27073 -0.28835,-11.87186 -3.98454,-16.76612 -4.20597,-5.68445 -9.90044,-8.38305 -17.90456,-8.38305 z m 256.14905,0.0517 c -6.78057,0 -12.14616,2.45617 -16.35214,7.50336 l 0,-6.5719 -5.22647,0 0,52.73048 5.01949,0 0,-27.16733 c 0,-5.88839 0.0165,-10.53894 2.8461,-14.54099 3.36478,-4.79227 7.85165,-7.14112 13.81652,-7.14112 11.26695,0 16.76611,6.78244 16.76611,20.80241 l 0,28.04703 5.01949,0 0,-28.5645 c 0,-6.27074 -0.28835,-11.87187 -3.98454,-16.76613 -4.20597,-5.68445 -9.90043,-8.33131 -17.90456,-8.33131 z m 50.40185,0 c -6.11781,0 -10.94829,2.40137 -14.64447,7.24462 l 0,-6.31316 -5.17473,0 0,52.73048 5.01948,0 0,-27.16733 c 0,-5.86289 0.0125,-10.49025 2.58737,-14.69622 3.00793,-4.69032 6.98749,-6.98589 12.2641,-6.98589 9.94143,0 15.00671,6.98636 15.00671,20.80241 l 0,28.04703 5.01949,0 0,-27.16733 c 0,-5.86289 0.0125,-10.49025 2.58736,-14.69622 2.98243,-4.69032 6.9875,-6.98589 12.2641,-6.98589 9.94143,0 14.95498,6.98636 14.95498,20.80241 l 0,28.04703 5.01949,0 0,-30.11693 c 0,-14.52976 -7.6639,-23.54501 -20.07795,-23.54501 -7.54529,0 -13.37965,3.91405 -17.02487,11.28091 -3.23735,-7.26489 -9.44006,-11.28091 -17.80106,-11.28091 z m 142.66726,0 c -6.78057,0 -12.19791,2.45617 -16.40389,7.50336 l 0,-6.5719 -5.17473,0 0,52.73048 5.01949,0 0,-27.16733 c 0,-5.88839 -0.0351,-10.53894 2.79436,-14.54099 3.36479,-4.79227 7.9034,-7.14112 13.86826,-7.14112 11.26696,0 16.76613,6.78244 16.76613,20.80241 l 0,28.04703 5.01948,0 0,-28.5645 c 0,-6.27074 -0.28836,-11.87187 -3.98453,-16.76613 -4.20599,-5.68445 -9.90044,-8.33131 -17.90457,-8.33131 z m -322.17857,0.1035 -1.03495,0.0517 c -4.155,0.15296 -7.34079,1.67788 -10.29772,4.86423 l 0,-4.08802 -5.27822,0 0,52.73048 5.27822,0 0,-34.92942 c 0,-8.76885 2.75472,-12.11882 10.45295,-12.78159 l 0.87972,-0.1035 0,-5.74395 z m 92.78287,0.82796 0,52.73048 5.22648,0 0,-52.73048 -5.22648,0 z m -274.2606,3.00134 c 11.44539,0 19.61506,7.79595 21.52688,20.38842 l -43.571216,0 c 1.937288,-12.41405 10.4715,-20.38842 22.044336,-20.38842 z m 132.00731,0 c 11.44539,0 19.61507,7.79595 21.52688,20.38842 l -43.62296,0 c 1.9373,-12.41387 10.52325,-20.38826 22.09608,-20.38826 z m 317.21085,0 c 11.44538,0 19.61505,7.79595 21.52687,20.38842 l -43.62297,0 c 1.93731,-12.41405 10.52326,-20.38842 22.0961,-20.38842 z m -211.38765,0.20698 c 12.28659,0 21.8891,10.39328 21.8891,23.64852 0,12.05715 -10.02897,22.61356 -21.42337,22.61356 -12.2101,0 -22.14784,-10.33387 -22.14784,-23.07929 0,-13.00032 9.54848,-23.18279 21.68211,-23.18279 z"
       inkscape:connector-curvature="0"
       id="path10544"
       style="fill:#ffffff;fill-opacity:1;fill-rule:nonzero;stroke:none" />
  </g>
</svg>
