<?xml version="1.0" encoding="UTF-8" standalone="no"?>
<svg xmlns:rdf="http://www.w3.org/1999/02/22-rdf-syntax-ns#" xmlns="http://www.w3.org/2000/svg" height="38.924mm" width="169.33mm" version="1.1" xmlns:cc="http://creativecommons.org/ns#" xmlns:dc="http://purl.org/dc/elements/1.1/" viewBox="0 0 599.99998 137.91961">
 <g transform="translate(135.1 676.1)">
  <g fill-rule="evenodd">
   <path d="m-64.587-671.71h18.537c3.926 0 7.11 3.4 7.11 7.22v1.85c0 3.71-3.184 6.89-7.11 6.89h-16.16c-24.207 0-48 13.61-47.19 39.36 0.63 24.1 23.79 38.32 47.19 38.32h16.16c3.926 0 7.11 3.08 7.11 6.78v1.97c0 3.51-3.817 7-7.524 7.22h-17.294c-25.341 0.3-52.532-12.17-63.152-35.66-8.44-18.63-3.71-40.67 12.78-55.72 13.8-12.67 31.421-18.23 49.543-18.23" fill="#fff"/>
   <path d="m-61.599-648.64h15.549c3.926 0 7.11 3.21 7.11 7.22v1.96c0 4.01-3.184 7.42-7.11 7.42h-16.269c-5.365 0.3-10.511 1.22-14.72 4.73-6.804 5.76-7.415 15.74-0.938 22.05 4.013 3.79 10.402 5.97 15.767 5.97h16.16c3.926 0 7.11 3.49 7.11 7.5v1.97c0 4.12-3.184 7.41-7.11 7.41h-16.16c-11.645 0-24.926-4.21-32.755-12.97-10.205-11.54-12.165-28.75 2.464-42.97 11.645-11.31 30.902-10.29 30.902-10.29" fill="#fff"/>
   <path d="m29.035-671.82h18.559c3.904 0 7.11 3.4 7.11 7.22v1.85c0 3.82-3.206 6.8-7.11 6.8h-16.181c-24.208 0-48 13.7-47.171 39.46 0.61 24.2 23.792 38.31 47.171 38.31h16.181c3.904 0 7.11 3.08 7.11 6.89v1.77c0 3.71-3.817 7.09-7.524 7.31h-17.316c-25.341 0.3-52.536-12.15-63.134-35.75-8.44-18.64-3.708-40.58 12.779-55.72 13.805-12.58 31.295-18.14 49.526-18.14m2.988 21.63h15.571c3.904 0 7.11 3.3 7.11 7.33v1.94c0 4.04-3.206 7.33-7.11 7.33-5.474 0-10.817 0.09-16.291 0-5.343 0.41-10.489 1.22-14.611 4.84-6.9131 5.76-7.5238 15.74-1.047 22.03 4.035 3.81 10.425 5.97 15.768 5.97h16.181c3.904 0 7.11 3.4 7.11 7.52v1.97c0 4.12-3.206 7.41-7.11 7.41h-16.181c-11.646 0-24.927-4.23-32.756-13.08-10.185-11.54-12.147-28.75 2.464-42.86 11.646-11.31 30.902-10.4 30.902-10.4" fill="#e43929"/>
   <path d="m151.31-650.3c6.81 0 10.52 3.21 12.87 8.16l21.33 51.29s5.45 13.7 12.67 13.28c7.3-0.5 11.23-10.29 11.23-10.29l32.45-73.86c1.96-4.54 3.9-9.69 10.1-10.1l12.34-0.2-42.22 90.33c-0.83 1.86-6.8 16.49-20.08 18.45-12.06 1.85-22.25-4.84-27-14.94l-23.99-50.88s-2.49-4.53-7.94-4.34h-7.83c-2.68 0.31-4.01 1.77-4.21 4.43v59.34c0 4.21-4.03 7.61-8.35 7.61h-2.46c-4.34 0-7.94-3.4-7.94-7.61v-72.82c0-4.84 2.88-7.85 7.94-7.85h31.09m-84.677 0.53c-3.795 0-7.001 3.4-7.001 7.21v2.36c0 3.82 3.206 6.91 7.001 6.91h16.181c2.683 0.2 4.013 1.66 4.231 4.43v59.23c0 4.21 3.904 7.61 8.331 7.61h2.377c4.427 0 7.937-3.4 7.937-7.61v-72.31c0-4.85-2.9-7.83-7.937-7.83h-31.12zm87.867-22.05h-87.867c-3.795 0-7.001 3.4-7.001 7.22v1.85c0 3.82 3.206 6.8 7.001 6.8h87.667c7.94 0.2 12.37 3.19 15.96 11.85l21.33 51.09c1.25 3.49 3.3 8.44 6.28 8.97 3.1 0.5 5.15-5.17 6.9-7.11 1.65-1.97 9.48-20.81 9.48-20.81l25.45-60.06-11.03 0.2c-7.42 0.52-9.47 7.63-9.47 7.63l-18.14 45.62c-0.09 1.03-1.33 3.21-2.77 2.99-1.55-0.11-2.27-2.99-2.27-2.99l-13.19-38.51c-5.65-16.29-26.26-14.63-28.33-14.74" fill="#fff"/>
  </g>
  <path d="m-132.61-547.78h359.25s33.93 0 44.99-42.04c0 0 2.48-32.39 3.68-38.36 2.23-11.06 11.8-42.77 46.48-45.74 30.27-2.57 66.38-2.94 87.03-0.74 20.66 2.23 56.81 19.19 56.07 60.5-0.74 41.3-14.54 66.86-51.64 73.75 0 0-12.54 2.23-22.11 2.23h-524.47s-4.42-8.86 0.72-9.6" fill="#fff"/>
  <path d="m346.04-597.48 25.99-29.16 0.4 29.16h-26.39zm51.6-0.39v-61.06h-24.43l-51.2 59.1v25.58h50.02v18.51h25.21v-18.9h12.61v-23.23h-12.21z"/>
 </g>
</svg>
