<?xml version="1.0" encoding="UTF-8" standalone="no"?>
<svg xmlns:rdf="http://www.w3.org/1999/02/22-rdf-syntax-ns#" xmlns="http://www.w3.org/2000/svg" height="38.899mm" width="169.33mm" version="1.1" xmlns:cc="http://creativecommons.org/ns#" xmlns:dc="http://purl.org/dc/elements/1.1/" viewBox="0 0 599.99998 137.83285">
 <g transform="translate(47.139 -119.23)">
  <g fill-rule="evenodd">
   <path d="m23.374 123.62h18.541c3.916 0 7.107 3.4 7.107 7.2v1.86c0 3.71-3.191 6.89-7.107 6.89h-16.17c-24.206 0-48 13.6-47.18 39.33 0.619 24.09 23.797 38.3 47.18 38.3h16.17c3.916 0 7.107 3.09 7.107 6.79v1.96c0 3.5-3.811 6.99-7.519 7.21h-17.306c-25.339 0.3-52.528-12.15-63.142-35.63-8.444-18.63-3.705-40.66 12.774-55.69 13.802-12.66 31.418-18.22 49.545-18.22" fill="#fff"/>
   <path d="m26.361 146.68h15.554c3.916 0 7.107 3.19 7.107 7.21v1.95c0 4.02-3.191 7.41-7.107 7.41h-16.272c-5.359 0.32-10.509 1.24-14.731 4.74-6.7975 5.76-7.4167 15.75-0.929 22.03 4.018 3.81 10.404 5.97 15.762 5.97h16.17c3.916 0 7.107 3.5 7.107 7.51v1.97c0 4.11-3.191 7.4-7.107 7.4h-16.17c-11.639 0-24.927-4.22-32.759-12.97-10.196-11.53-12.152-28.72 2.4736-42.92 11.642-11.33 30.901-10.3 30.901-10.3" fill="#fff"/>
   <path d="m117.01 123.52h18.54c3.91 0 7.1 3.39 7.1 7.21v1.84c0 3.82-3.19 6.8-7.1 6.8h-16.17c-24.213 0-48.003 13.69-47.18 39.43 0.616 24.19 23.794 38.29 47.18 38.29h16.17c3.91 0 7.1 3.09 7.1 6.9v1.75c0 3.71-3.81 7.1-7.52 7.31h-17.3c-25.337 0.31-52.533-12.15-63.144-35.72-8.444-18.63-3.705-40.56 12.775-55.69 13.802-12.56 31.312-18.12 49.549-18.12m2.99 21.62h15.55c3.91 0 7.1 3.29 7.1 7.3v1.96c0 4.02-3.19 7.31-7.1 7.31-5.46 0-10.82 0.1-16.28 0-5.35 0.41-10.5 1.23-14.62 4.84-6.904 5.76-7.523 15.75-1.04 22.03 4.02 3.81 10.41 5.97 15.77 5.97h16.17c3.91 0 7.1 3.4 7.1 7.52v1.95c0 4.12-3.19 7.41-7.1 7.41h-16.17c-11.64 0-24.934-4.22-32.759-13.07-10.199-11.53-12.159-28.72 2.47-42.82 11.639-11.33 30.909-10.4 30.909-10.4" fill="#e43929"/>
   <path d="m239.28 145.03c6.79 0 10.5 3.2 12.87 8.14l21.32 51.26s5.46 13.7 12.67 13.29c7.31-0.52 11.23-10.3 11.23-10.3l32.45-73.81c1.95-4.53 3.91-9.68 10.09-10.09l12.36-0.21-42.23 90.29c-0.83 1.84-6.8 16.47-20.09 18.42-12.05 1.86-22.25-4.84-26.98-14.93l-24.01-50.85s-2.47-4.53-7.93-4.32h-7.83c-2.67 0.3-4.01 1.75-4.22 4.42v59.3c0 4.22-4.01 7.62-8.34 7.62h-2.47c-4.33 0-7.93-3.4-7.93-7.62v-72.78c0-4.84 2.88-7.83 7.93-7.83h31.11m-84.68 0.52c-3.81 0-7 3.39-7 7.2v2.37c0 3.81 3.19 6.9 7 6.9h16.17c2.69 0.2 4.02 1.65 4.23 4.43v59.19c0 4.22 3.91 7.62 8.34 7.62h2.37c4.43 0 7.93-3.4 7.93-7.62v-72.27c0-4.84-2.88-7.82-7.93-7.82h-31.11zm87.87-22.03h-87.87c-3.81 0-7 3.39-7 7.21v1.84c0 3.82 3.19 6.8 7 6.8h87.66c7.93 0.2 12.36 3.19 15.96 11.84l21.33 51.06c1.24 3.5 3.3 8.44 6.28 8.96 3.09 0.51 5.15-5.15 6.91-7.11 1.65-1.95 9.47-20.79 9.47-20.79l25.44-60.02-11.02 0.21c-7.42 0.51-9.47 7.62-9.47 7.62l-18.13 45.6c-0.11 1.03-1.34 3.19-2.79 2.98-1.54-0.1-2.27-2.98-2.27-2.98l-13.18-38.5c-5.66-16.27-26.26-14.62-28.32-14.72" fill="#fff"/>
  </g>
  <path d="m-44.634 247.48h359.23s33.93 0 44.99-42.01c0 0 2.5-32.38 3.69-38.34 2.22-11.06 11.8-42.76 46.47-45.71 30.28-2.57 66.39-2.95 87.04-0.73 20.65 2.21 56.8 19.16 56.06 60.45-0.73 41.28-14.54 66.82-51.63 73.72 0 0-12.54 2.21-22.13 2.21h-524.46c-0.002 0-4.431-8.85 0.736-9.59" fill="#fff"/>
  <path d="m452.9 190.72c-7.94 0-14.38-7.92-14.38-17.69 0-9.78 6.44-17.7 14.38-17.7 7.95 0 14.39 7.92 14.39 17.7 0 9.77-6.44 17.69-14.39 17.69m37.99-26.54c-5.9-16.96-18.44-25.8-36.15-26.54 0 0-42.04-2.95-42.04 37.6 0 0 1.48 33.17 33.2 31.7 0 0 10.32 0.73 19.91-7.38 0 0 2.27 8.33-0.68 16.44s-10.11 13.67-17.76 8.63c0 0-3.65-2.69-4.42-8.85l-28.77 2.21s8.11 25.81 37.62 24.34c29.5-1.48 36.66-19.41 39.09-27.28 1.6-5.2 5.9-33.91 0-50.87"/>
 </g>
</svg>
