<?xml version="1.0" encoding="UTF-8" standalone="no"?>
<!-- Created with Inkscape (http://www.inkscape.org/) -->

<svg
   xmlns:dc="http://purl.org/dc/elements/1.1/"
   xmlns:cc="http://creativecommons.org/ns#"
   xmlns:rdf="http://www.w3.org/1999/02/22-rdf-syntax-ns#"
   xmlns:svg="http://www.w3.org/2000/svg"
   xmlns="http://www.w3.org/2000/svg"
   xmlns:inkscape="http://www.inkscape.org/namespaces/inkscape"
   version="1.1"
   width="210"
   height="55.972668"
   id="svg27197">
  <defs
     id="defs27199">
    <clipPath
       id="clipPath10771">
      <path
         d="m 155.875,687.404 27.519,0 0,9.027 -27.519,0 0,-9.027 z"
         inkscape:connector-curvature="0"
         id="path10773" />
    </clipPath>
    <clipPath
       id="clipPath10779">
      <path
         d="m 155.875,694.527 0,-6.324 27.512,0 0,6.324"
         inkscape:connector-curvature="0"
         id="path10781" />
    </clipPath>
    <clipPath
       id="clipPath10793">
      <path
         d="m 155.875,694.527 0,-6.324 27.512,0 0,6.324"
         inkscape:connector-curvature="0"
         id="path10795" />
    </clipPath>
  </defs>
  <metadata
     id="metadata27202">
    <rdf:RDF>
      <cc:Work
         rdf:about="">
        <dc:format>image/svg+xml</dc:format>
        <dc:type
           rdf:resource="http://purl.org/dc/dcmitype/StillImage" />
        <dc:title />
      </cc:Work>
    </rdf:RDF>
  </metadata>
  <g
     transform="translate(16.480699,-362.48491)"
     id="layer1">
    <g
       transform="matrix(7.2695551,0,0,-7.2695551,-1144.6226,5416.3872)"
       id="g10775"
       style="fill:#ffffff">
      <g
         clip-path="url(#clipPath10779)"
         id="g10777"
         style="fill:#ffffff">
        <path
           d="m 159.108,694.326 0.85,0 c 0.18,0 0.326,-0.156 0.326,-0.331 l 0,-0.085 c 0,-0.17 -0.146,-0.316 -0.326,-0.316 l -0.741,0 c -1.11,0 -2.201,-0.624 -2.164,-1.805 0.029,-1.105 1.091,-1.757 2.164,-1.757 l 0.741,0 c 0.18,0 0.326,-0.141 0.326,-0.311 l 0,-0.09 c 0,-0.161 -0.175,-0.321 -0.345,-0.331 l -0.793,0 c -1.162,-0.014 -2.409,0.558 -2.896,1.635 -0.387,0.854 -0.17,1.865 0.586,2.555 0.633,0.581 1.441,0.836 2.272,0.836"
           inkscape:connector-curvature="0"
           id="path10783"
           style="fill:#ffffff;fill-opacity:1;fill-rule:evenodd;stroke:none" />
      </g>
    </g>
    <path
       d="m 13.017702,376.63727 5.183193,0 c 1.30852,0 2.369875,1.06863 2.369875,2.40623 l 0,0.65426 c 0,1.3376 -1.061355,2.47165 -2.369875,2.47165 l -5.423088,0 c -1.788311,0.10177 -3.503926,0.40709 -4.9069501,1.57749 -2.2681012,1.91916 -2.4716487,5.24862 -0.3125909,7.34952 1.3375982,1.2649 3.467578,1.99186 5.255888,1.99186 l 5.386741,0 c 1.30852,0 2.369875,1.16313 2.369875,2.50073 l 0,0.65426 c 0,1.37394 -1.061355,2.47164 -2.369875,2.47164 l -5.386741,0 c -3.8819421,0 -8.3091011,-1.40302 -10.9188714,-4.32538 -3.4021518,-3.8456 -4.0564117,-9.58128 0.8214597,-14.32103 3.8819424,-3.77289 10.3009597,-3.43123 10.3009597,-3.43123"
       inkscape:connector-curvature="0"
       id="path10785"
       style="fill:#ffffff;fill-opacity:1;fill-rule:evenodd;stroke:none" />
    <path
       d="m 43.229973,368.90974 6.186391,0 c 1.301251,0 2.369875,1.13405 2.369875,2.40622 l 0,0.61791 c 0,1.27217 -1.068624,2.2681 -2.369875,2.2681 l -5.39401,0 c -8.069206,0 -16.00029,4.56528 -15.724047,13.15063 0.203547,8.06921 7.931084,12.77261 15.724047,12.77261 l 5.39401,0 c 1.301251,0 2.369875,1.025 2.369875,2.29718 l 0,0.58883 c 0,1.23583 -1.272172,2.36261 -2.507996,2.4353 l -5.772027,0 c -8.447223,0.10178 -17.512358,-4.04914 -21.045362,-11.9148 -2.813318,-6.21547 -1.235824,-13.52864 4.259959,-18.57371 4.601629,-4.19454 10.431812,-6.04827 16.50916,-6.04827 m 0.995929,7.2114 5.190462,0 c 1.301251,0 2.369875,1.0977 2.369875,2.44257 l 0,0.64699 c 0,1.34487 -1.068624,2.44257 -2.369875,2.44257 -1.824658,0 -3.605699,0.0291 -5.430357,0 -1.781041,0.13812 -3.496656,0.40709 -4.870602,1.61384 -2.304449,1.91916 -2.507997,5.24862 -0.348939,7.34225 1.344868,1.27217 3.474847,1.99186 5.255888,1.99186 l 5.39401,0 c 1.301251,0 2.369875,1.13405 2.369875,2.50799 l 0,0.65426 c 0,1.37395 -1.068624,2.47165 -2.369875,2.47165 l -5.39401,0 c -3.881942,0 -8.309101,-1.41029 -10.918871,-4.36173 -3.394883,-3.84559 -4.049143,-9.58127 0.821459,-14.28468 3.881943,-3.77289 10.30096,-3.46757 10.30096,-3.46757"
       inkscape:connector-curvature="0"
       id="path10787"
       style="fill:#e43929;fill-opacity:1;fill-rule:evenodd;stroke:none" />
    <g
       transform="matrix(7.2695551,0,0,-7.2695551,-1144.6226,5416.3872)"
       id="g10789"
       style="fill:#ffffff">
      <g
         clip-path="url(#clipPath10793)"
         id="g10791"
         style="fill:#ffffff">
        <path
           d="m 169.008,693.344 c 0.312,0 0.482,-0.147 0.59,-0.374 l 0.978,-2.352 c 0,0 0.25,-0.628 0.581,-0.609 0.335,0.023 0.515,0.472 0.515,0.472 l 1.488,3.387 c 0.09,0.208 0.179,0.444 0.463,0.463 l 0.566,0.009 -1.936,-4.142 c -0.038,-0.085 -0.312,-0.756 -0.921,-0.846 -0.553,-0.085 -1.02,0.222 -1.238,0.685 l -1.1,2.333 c 0,0 -0.114,0.208 -0.364,0.199 l -0.359,0 c -0.123,-0.014 -0.184,-0.081 -0.193,-0.203 l 0,-2.721 c 0,-0.193 -0.185,-0.349 -0.383,-0.349 l -0.113,0 c -0.199,0 -0.364,0.156 -0.364,0.349 l 0,3.339 c 0,0.222 0.132,0.36 0.364,0.36 l 1.426,0 m -3.883,-0.024 c -0.174,0 -0.321,-0.156 -0.321,-0.331 l 0,-0.108 c 0,-0.175 0.147,-0.317 0.321,-0.317 l 0.742,0 c 0.123,-0.009 0.184,-0.076 0.194,-0.203 l 0,-2.716 c 0,-0.193 0.179,-0.349 0.382,-0.349 l 0.109,0 c 0.203,0 0.364,0.156 0.364,0.349 l 0,3.316 c 0,0.222 -0.133,0.359 -0.364,0.359 l -1.427,0 z m 4.029,1.011 -4.029,0 c -0.174,0 -0.321,-0.156 -0.321,-0.331 l 0,-0.085 c 0,-0.175 0.147,-0.312 0.321,-0.312 l 4.02,0 c 0.364,-0.009 0.567,-0.146 0.732,-0.543 l 0.978,-2.343 c 0.057,-0.16 0.151,-0.387 0.288,-0.411 0.142,-0.023 0.236,0.237 0.316,0.326 0.076,0.09 0.435,0.954 0.435,0.954 l 1.167,2.754 -0.506,-0.009 c -0.34,-0.024 -0.434,-0.35 -0.434,-0.35 l -0.832,-2.092 c -0.004,-0.047 -0.061,-0.147 -0.127,-0.137 -0.071,0.005 -0.104,0.137 -0.104,0.137 l -0.605,1.766 c -0.259,0.747 -1.204,0.671 -1.299,0.676"
           inkscape:connector-curvature="0"
           id="path10797"
           style="fill:#ffffff;fill-opacity:1;fill-rule:evenodd;stroke:none" />
        <path
           d="m 155.989,688.643 16.473,0 c 0,0 1.556,0 2.063,1.928 0,0 0.114,1.485 0.169,1.759 0.102,0.507 0.541,1.961 2.131,2.097 1.388,0.118 3.044,0.135 3.991,0.034 0.947,-0.102 2.605,-0.88 2.571,-2.774 -0.034,-1.894 -0.667,-3.066 -2.368,-3.382 0,0 -0.575,-0.102 -1.014,-0.102 l -24.049,0 c 0,0 -0.203,0.406 0.033,0.44"
           inkscape:connector-curvature="0"
           id="path10799"
           style="fill:#ffffff;fill-opacity:1;fill-rule:nonzero;stroke:none" />
      </g>
    </g>
    <path
       d="m 148.90023,393.69165 8.66531,-9.71939 0.13085,9.71939 -8.79616,0 z m 17.19976,-0.13085 0,-20.35476 -8.1419,0 -17.06891,19.7005 0,8.52719 16.67636,0 0,6.17185 8.4036,0 0,-6.3027 4.2018,0 0,-7.74208 -4.07095,0 z"
       inkscape:connector-curvature="0"
       id="path10801"
       style="fill:#000000;fill-opacity:1;fill-rule:nonzero;stroke:none" />
  </g>
</svg>
