<?xml version="1.0" encoding="UTF-8" standalone="no"?>
<!-- Created with Inkscape (http://www.inkscape.org/) -->
<svg xmlns:rdf="http://www.w3.org/1999/02/22-rdf-syntax-ns#" xmlns="http://www.w3.org/2000/svg" height="140.09" width="600" version="1.1" xmlns:cc="http://creativecommons.org/ns#" xmlns:dc="http://purl.org/dc/elements/1.1/">
 <metadata>
  <rdf:RDF>
   <cc:Work rdf:about="">
    <dc:format>image/svg+xml</dc:format>
    <dc:type rdf:resource="http://purl.org/dc/dcmitype/StillImage"/>
    <dc:title/>
   </cc:Work>
  </rdf:RDF>
 </metadata>
 <g fill-rule="nonzero" transform="translate(30.68412,-89.544682)">
  <path d="m569.32,164.13c0,36.18-23.188,65.504-62.075,65.504h-108.24c-2.2556,0-4.6316-0.12029-6.9774-0.33082h-415.94c-3.7293,0-6.7669-3.0376-6.7669-6.7669,0-3.6692,3.0376-6.7068,6.7669-6.7068h310.44c8.812-0.30074,19.489-1.5338,24.331-5.1128,9.0526-6.5564,12.932-11.008,15.158-19.038,2.1955-8.0902,7.9098-44.301,7.9098-44.301,3.3083-32.511,27.218-57.835,65.083-57.835h108.24c38.346,0,62.075,29.353,62.075,65.564v9.0226z" fill="#FFF"/>
  <path fill="#000" d="m351.18,186.16,0-53.143,10.797,0,16.752,27.759,0-27.759,12.722,0,0,53.143-10.827,0-16.602-27.91,0,27.91-12.842,0z"/>
  <path fill="#000" d="m403.79,133.28,0,52.872,38.256,0,0-11.94-25.353-0.15039,0-8.2406,23.008-0.0902,0-12-22.947,0,0-8.3008,24.692,0,0.03-12.15-37.684,0z"/>
  <path fill="#000" d="m452.51,133.28,8.5414,52.872,13.805,0,5.5038-31.519,5.6541,31.519,13.895,0,8.2105-52.872-12.301,0-3.7895,33.173-4.9023-33.173-13.203,0-5.1429,32.962-3.7895-32.962-12.481,0z"/>
  <path fill="#000" d="m515.04,170.12s0.27068,6.015,2.5865,9.8346c1.4436,2.1654,2.6767,4.2105,5.8947,5.7444,3.0977,1.4436,6.0451,2.3759,11.368,2.1955,5.203-0.18045,10.105-1.0827,13.444-4.3008,4.2406-4.1203,5.2932-6.6466,5.9549-11.188,0.66165-4.9022,0.18045-10.075-2.2256-12.692-2.5564-2.6165-5.8346-4.6917-11.038-6.1654-5.2632-1.4737-9.3534-2.797-10.406-3.9398-1.1429-1.1729-1.5639-2.7068-0.99249-4.0301,0.6015-1.3835,2.5564-3.3684,5.0827-3.0075,2.5865,0.3609,5.0827,1.1729,5.594,2.5865,0.45113,1.3834,0.57142,2.1654,0.57142,2.1654l12.812-0.78196s-0.24061-3.5188-1.6241-7.3684c-1.203-2.797-3.1278-5.1128-6.6466-6.5865-2.4662-1.1429-8.2406-1.7444-11.94-1.594-3.7594,0.2406-5.9248,0.36091-8.421,1.8647-2.5564,1.4436-4.9624,4.2707-5.9248,6.1052-1.3233,2.7368-1.985,5.7444-2.1955,7.5188-0.2406,2.9474,0.42106,6.9474,1.203,8.812,1.2632,2.7068,2.9474,4.5113,4.9624,5.5639,3.2481,1.8346,5.203,2.4962,8.3609,3.3083,3.1579,0.8421,7.6692,2.1955,8.4812,2.7068,0.78196,0.6015,1.6541,1.5338,1.7744,2.4361,0.15037,1.7444,0.39097,2.2256-0.75188,4.0602-0.81203,1.1729-1.594,2.1654-4.421,2.2556-2.7669,0.03-4.0602,0-5.3835-0.90225-1.203-0.84211-2.3158-2.015-2.8572-3.0978-0.6015-0.87218-0.45113-1.6541-0.45113-1.6541l-12.812,0.15037z"/>
  <path fill="#FFF" d="m24.293,161.94c5.8947,2.0752,16.722,2.406,23.008,2.1353,6.1654-0.15038,7.7293,3.6992,8.0902,6.8571,0.4812,3.2782-1.2331,6.4662-3.4286,7.579-2.1053,1.0526-10.767,0.8421-10.767,0.8421s-44.511,3.8496-44.511-30.496c0-31.85,37.414-30.977,44.06-31.218,1.9549-0.03,5.3835,0.2406,8.8722,0.2406,3.3684,0,6.0451,4.7519,6.0451,6.8872s-1.3534,6.2256-3.6992,7.5188c-2.3459,1.2932-7.9699,0.63158-7.9699,0.63158-12.812-0.21053-19.338,2.406-19.338,2.406-16.511,8.782-7.9699,24.09-0.3609,26.617"/>
  <path fill="#FFF" d="m11.331,99.139c13.534-3.2481,37.744-2.2256,37.744-2.2256s6.5865-0.03004,6.5865,6.5564c0,6.6466-6.0451,7.7293-6.0451,7.7293s-4.9624-0.39098-15.699-0.21053c-10.737,0.21053-19.098,3.218-19.098,3.218-18.737,7.3083-24.331,20.481-24.331,33.293,0,12.932,6.0752,21.113,17.414,29.203,11.579,8.4511,39.789,7.4286,39.789,7.4286s7.9699-0.51128,7.9699,6.4361c0,6.8271-7.5789,7.7293-7.5789,7.7293-29.895,1.5038-45.293-5.8346-45.293-5.8346s-31.88-12.06-31.88-44.962c0-29.203,26.286-44.902,40.421-48.361"/>
  <path fill="#FFF" d="m154.07,117,28.541,0c5.7444,0,6.8271,2.9774,6.8271,10.075v63.248c0,4.5414-4.391,8.1504-8.9023,8.1504s-8.1804-3.609-8.1804-8.1504v-54.827c0-3.0075-3.218-3.4286-3.218-3.4286h-15.068c-3.9699,0-7.188-3.218-7.188-7.218,0-3.9699,3.218-7.8496,7.188-7.8496"/>
  <path fill="#FFF" d="m154.07,96.763,83.278,0s4.6316-0.15037,7.579,0.57142c3.0075,0.69173,6.7368,1.7744,9.5338,3.9098,4.1203,3.0978,4.9624,4.9023,5.8947,7.2481,0.81203,2.3759,10.496,31.158,11.759,35.098,1.3835,3.9098,1.7444,4.9323,3.5489,5.0226,1.8947,0.0902,2.3759-3.2782,2.3759-3.2782s14.827-37.113,15.88-40.12c1.0526-3.0677,3.0677-5.5038,4.5414-6.9774,1.4135-1.4436,4.5414-1.8045,5.8045-1.8947,1.3233-0.1203,8.9323,0,8.9323,0s-20.03,47.429-24.692,58.526c-4.6316,11.068-6.6466,15.368-9.8045,19.97-3.0978,4.5714-3.9098,3.1278-5.1429,2.4361-1.0526-0.63158-3.5489-5.0526-3.5489-5.0526s-20.361-49.654-21.684-52.451c-1.0827-2.7669-2.797-4.5113-5.1729-6.6767-2.015-1.7143-7.5188-2.015-9.6842-2.015h-79.398c-4.0301,0-7.188-3.2481-7.188-7.1579,0-3.9699,3.1579-7.1579,7.188-7.1579"/>
  <path fill="#FFF" d="m321.29,97.515c1.3835-0.7218,4.1504-1.2932,5.6241-1.1729,1.4737,0.09022,9.3233,0,9.3233,0s-34.105,73.414-38.195,81.805c-4.0602,8.3308-6.8571,11.759-11.008,15.338-4.3008,3.609-8.812,4.0301-13.263,3.9699-4.5414-0.1203-7.4586-1.6241-12.301-4.6917-4.8722-3.0977-7.9398-10.105-7.9398-10.105s-20.752-44.03-22.256-47.038c-1.4436-3.0677-6.0451-3.5789-6.6767-3.5489h-8.6917c-1.1128,0-3.218,1.2932-3.218,3.4286v54.827c0,4.5414-3.5789,8.1504-8.1203,8.1504-4.5113,0-8.9023-3.609-8.9023-8.1504v-63.248c0-7.0977,0.75188-10.617,6.4962-10.617h28.481c0.2406,0,0.39098,0.03,0.63158,0.0602,0.12031-0.03,0.27068-0.0602,0.39098-0.0602,3.1278,0,5.3835,0.81203,8.3008,2.8571,2.9774,1.985,5.2331,8.6316,5.2331,8.6316s16.15,39.098,18.195,43.82c2.1955,4.782,4.0301,7.7895,7.3985,10.677,3.2782,2.797,6.6767,1.4436,9.2632-0.18045,2.5263-1.7143,3.9699-4.7218,5.1429-7.0977,1.0526-2.3158,29.835-67.699,31.158-70.677,1.2331-3.0376,3.609-6.2556,4.9323-6.9774"/>
  <path fill="#ee3124" d="m136.15,111.19s5.8947-1.0827,5.8947-7.6992-6.5564-6.5865-6.5564-6.5865-24.18-1.0226-37.744,2.2556c-14.226,3.4286-40.361,19.128-40.361,48.361,0,32.872,31.82,44.962,31.82,44.962s15.489,7.3083,45.383,5.8045c0,0,7.4586-0.90226,7.4586-7.6992,0-6.9774-7.9098-6.4662-7.9098-6.4662s-28.211,1.0226-39.82-7.3985c-11.338-8.1203-17.414-16.271-17.414-29.203,0-12.842,5.594-25.985,24.331-33.293,0,0,8.4511-3.0376,19.128-3.2481,10.737-0.18045,15.789,0.21053,15.789,0.21053"/>
  <path fill="#ee3124" d="m130.43,132.93s5.7143,0.63158,8.0602-0.63158c2.2556-1.2932,3.5489-5.4135,3.5489-7.5188,0-2.1353-2.5564-6.8872-5.8947-6.8872-3.579,0-7.0376-0.30076-8.8722-0.2406-6.7368,0.2406-44.09-0.63158-44.09,31.188,0,34.346,44.481,30.526,44.481,30.526s8.6917,0.21053,10.827-0.8421c2.0451-1.1128,3.7895-4.3008,3.3083-7.579-0.36091-3.188-1.8647-7.0376-8.0902-6.8571-6.2256,0.2406-17.083-0.0602-23.038-2.1654-7.4586-2.5263-16.09-17.805,0.45113-26.617,0,0,6.4361-2.6165,19.308-2.3759"/>
 </g>
</svg>
