<?xml version="1.0" encoding="UTF-8" standalone="no"?>
<!-- Created with Inkscape (http://www.inkscape.org/) -->

<svg
   xmlns:dc="http://purl.org/dc/elements/1.1/"
   xmlns:cc="http://creativecommons.org/ns#"
   xmlns:rdf="http://www.w3.org/1999/02/22-rdf-syntax-ns#"
   xmlns:svg="http://www.w3.org/2000/svg"
   xmlns="http://www.w3.org/2000/svg"
   xmlns:xlink="http://www.w3.org/1999/xlink"
   version="1.1"
   width="600"
   height="396.15729"
   viewBox="0 0 600.00001 396.15729"
   id="Layer_1"
   xml:space="preserve"><metadata
     id="metadata3081"><rdf:RDF><cc:Work
         rdf:about=""><dc:format>image/svg+xml</dc:format><dc:type
           rdf:resource="http://purl.org/dc/dcmitype/StillImage" /><dc:title></dc:title></cc:Work></rdf:RDF></metadata><defs
     id="defs3079"><linearGradient
       x1="-20.064899"
       y1="275.49899"
       x2="503.42139"
       y2="144.9792"
       id="linearGradient3095"
       xlink:href="#SVGID_2_"
       gradientUnits="userSpaceOnUse"
       gradientTransform="translate(1.6875,-0.1484)" /><linearGradient
       x1="-20.064899"
       y1="275.49899"
       x2="503.42139"
       y2="144.9792"
       id="linearGradient3128"
       xlink:href="#SVGID_2_"
       gradientUnits="userSpaceOnUse"
       gradientTransform="translate(1.6875,-0.1484)" /></defs><g
     id="g3156"><g
       transform="matrix(1.1285536,0,0,1.1285536,0,-2.1299863e-6)"
       id="g3056"><defs
         id="defs3058"><path
           d="m 270.623,184.46 c 0.67,4.09 8.18,36.151 8.18,36.151 l -15.995,3.988 7.815,-40.139 z M 483.943,69.215 423.31,84.33 c -0.697,0.178 -1.266,0.667 -1.539,1.33 l -13.588,33.814 -13.965,-26.183 c -0.494,-0.884 -1.523,-1.327 -2.506,-1.08 l -60.631,15.118 c -0.729,0.183 -1.318,0.718 -1.574,1.429 -0.252,0.709 -0.133,1.499 0.32,2.101 L 375.47,171.687 343.843,230.6 302.066,116.634 c -0.393,-1.08 -1.539,-1.68 -2.654,-1.406 l -59.456,14.821 c -0.768,0.193 -1.377,0.777 -1.607,1.531 L 199.06,261.482 180.673,147.342 c -0.098,-0.622 -0.455,-1.175 -0.98,-1.52 -0.524,-0.342 -1.17,-0.46 -1.778,-0.305 l -54.745,13.65 c -0.804,0.202 -1.433,0.824 -1.635,1.629 0,0 -18.7,75.542 -19.413,80.415 L 83.697,171.292 c -0.315,-1.187 -1.526,-1.896 -2.718,-1.608 l -55.337,13.798 c -0.881,0.223 -1.545,0.954 -1.677,1.855 L 0.023,348.455 C 0.008,348.554 0.002,348.657 0,348.757 v 0.055 c 0.009,0.618 0.271,1.213 0.739,1.638 0.419,0.378 0.958,0.579 1.51,0.581 0.18,0 0.361,-0.021 0.542,-0.064 L 54.788,338 c 0.929,-0.23 1.607,-1.024 1.697,-1.973 0,0 6.675,-73.288 6.848,-75.605 0.467,2.133 20.754,68.092 20.754,68.092 0.353,1.138 1.535,1.793 2.689,1.514 l 31.393,-7.83 c 0.783,-0.195 1.402,-0.794 1.621,-1.573 0,0 22.225,-78.817 22.585,-80.362 l 6.173,71.679 c 0.059,0.655 0.4,1.251 0.938,1.636 0.533,0.383 1.207,0.509 1.848,0.353 l 51.999,-12.964 c 0,0 0,-0.003 0.004,-0.002 l 43.202,-10.773 c 0.838,-0.207 1.481,-0.879 1.655,-1.721 l 4.031,-19.288 37.105,-9.248 4.334,16.229 c 0.318,1.187 1.523,1.893 2.715,1.604 l 30.484,-7.604 c 0.006,-10e-4 0.008,-0.002 0.01,-0.002 l 61.221,-15.264 c 0.664,-0.168 1.219,-0.627 1.5,-1.252 l 19.365,-43.653 18.834,33.33 c 0.502,0.867 1.518,1.294 2.49,1.058 l 61.219,-15.266 c 0.732,-0.185 1.324,-0.721 1.576,-1.43 0.252,-0.709 0.135,-1.496 -0.32,-2.098 l -51.918,-69.265 45.619,-83.85 c 0.426,-0.786 0.348,-1.744 -0.197,-2.449 -0.432,-0.56 -1.09,-0.873 -1.775,-0.873 -0.183,-0.002 -0.364,0.02 -0.544,0.065"
           id="SVGID_1_" /></defs><linearGradient
         x1="-20.064899"
         y1="275.49899"
         x2="503.42139"
         y2="144.9792"
         id="SVGID_2_"
         gradientUnits="userSpaceOnUse"
         gradientTransform="translate(1.6875,-0.1484)"><stop
           id="stop3062"
           style="stop-color:#00b9e8;stop-opacity:1"
           offset="0.2" /><stop
           id="stop3064"
           style="stop-color:#0054b4;stop-opacity:1"
           offset="1" /></linearGradient><use
         id="use3066"
         style="fill:url(#linearGradient3128);overflow:visible"
         x="0"
         y="0"
         width="531.65399"
         height="351.03"
         xlink:href="#SVGID_1_" /><clipPath
         id="SVGID_3_"><use
           id="use3069"
           style="overflow:visible"
           x="0"
           y="0"
           width="531.65399"
           height="351.03"
           xlink:href="#SVGID_1_" /></clipPath></g><g
       transform="matrix(1.1285536,0,0,1.1285536,0,-2.1299863e-6)"
       id="g3071"
       style="fill:#ffffff"><path
         d="m 224.102,91.424 c 2.844,16.127 -7.138,31.638 -24.762,36.033 l -19.239,4.796 c -0.611,-3.477 3.786,-6.643 5.205,-10.828 l 12.425,-3.098 c 11.774,-2.936 18.05,-12.926 16.066,-24.168 C 211.815,82.91 202.666,76.596 190.889,79.533 l -11.059,2.758 8.207,46.544 c -1.975,-1.642 -7.792,3.383 -7.792,3.383 l -1.811,0.452 -10.057,-57.043 20.902,-5.213 c 17.627,-4.395 31.977,4.863 34.823,21.01 m 10.72,27.55 9.7,-2.419 -7.596,-43.08 -9.701,2.419 7.597,43.08 z M 276.75,86.251 c -1.424,-0.649 -2.971,-1.1 -4.637,-1.36 -1.662,-0.269 -3.32,-0.453 -4.955,-0.562 -1.297,-0.118 -2.567,-0.223 -3.774,-0.329 -1.231,-0.093 -2.324,-0.256 -3.275,-0.499 -0.962,-0.251 -1.761,-0.583 -2.389,-1.014 -0.638,-0.455 -1.031,-1.05 -1.164,-1.808 l -0.031,-0.163 c -0.22,-1.25 0.128,-2.41 1.026,-3.491 0.886,-1.065 2.285,-1.843 4.155,-2.308 1.756,-0.438 3.74,-0.541 5.961,-0.339 2.203,0.206 4.453,0.685 6.691,1.435 l 2.613,-7.978 c -2.512,-0.957 -5.201,-1.531 -8.082,-1.717 -2.889,-0.188 -5.661,0.041 -8.331,0.707 -2.085,0.519 -3.996,1.316 -5.733,2.363 -1.737,1.073 -3.182,2.331 -4.347,3.81 -1.163,1.477 -1.991,3.122 -2.484,4.915 -0.49,1.803 -0.561,3.742 -0.198,5.792 l 0.03,0.172 c 0.365,2.069 1.073,3.697 2.128,4.919 1.046,1.225 2.29,2.132 3.712,2.781 1.415,0.633 2.979,1.061 4.663,1.265 1.688,0.199 3.324,0.327 4.951,0.372 1.301,0.086 2.56,0.145 3.771,0.228 1.215,0.058 2.291,0.211 3.258,0.439 0.963,0.259 1.764,0.629 2.367,1.081 0.607,0.481 0.982,1.126 1.129,1.941 l 0.025,0.156 c 0.252,1.419 -0.119,2.687 -1.117,3.816 -1.004,1.136 -2.549,1.951 -4.631,2.47 -2.186,0.546 -4.551,0.661 -7.094,0.355 -2.528,-0.306 -5.108,-1.031 -7.701,-2.198 l -3.157,7.767 c 3.046,1.454 6.239,2.328 9.553,2.64 3.317,0.331 6.498,0.085 9.535,-0.672 2.195,-0.547 4.211,-1.35 6.037,-2.393 1.805,-1.053 3.338,-2.325 4.553,-3.776 1.221,-1.477 2.092,-3.144 2.586,-5.028 0.506,-1.893 0.561,-3.979 0.158,-6.252 l -0.029,-0.161 c -0.348,-1.975 -1.043,-3.537 -2.086,-4.693 -1.035,-1.158 -2.266,-2.052 -3.687,-2.683 m 92.027,-32.322 c 1.6,2.425 2.652,5.188 3.197,8.277 l 0.031,0.174 c 0.535,3.027 0.471,6.048 -0.188,9.048 -0.674,3.002 -1.83,5.782 -3.477,8.335 -1.639,2.533 -3.746,4.747 -6.309,6.63 -2.576,1.886 -5.488,3.253 -8.746,4.066 -3.207,0.799 -6.295,0.948 -9.242,0.455 -2.957,-0.472 -5.623,-1.47 -7.977,-2.979 -2.375,-1.527 -4.35,-3.497 -5.949,-5.923 -1.6,-2.447 -2.668,-5.193 -3.207,-8.23 l -0.027,-0.153 c -0.549,-3.11 -0.49,-6.157 0.186,-9.168 0.674,-3.005 1.83,-5.773 3.471,-8.316 1.637,-2.549 3.73,-4.745 6.279,-6.634 2.533,-1.866 5.438,-3.222 8.699,-4.035 3.268,-0.813 6.377,-0.984 9.332,-0.494 2.951,0.48 5.611,1.488 7.98,3.037 2.355,1.541 4.343,3.509 5.947,5.91 m -6.444,10.86 c -0.34,-1.915 -0.988,-3.624 -1.936,-5.153 -0.939,-1.52 -2.096,-2.76 -3.451,-3.726 -1.379,-0.974 -2.908,-1.623 -4.617,-1.955 -1.715,-0.346 -3.51,-0.27 -5.445,0.212 -1.92,0.478 -3.615,1.274 -5.051,2.404 -1.453,1.121 -2.617,2.433 -3.533,3.939 -0.896,1.495 -1.514,3.17 -1.809,4.961 -0.303,1.806 -0.264,3.654 0.072,5.563 l 0.027,0.172 c 0.328,1.837 0.949,3.53 1.879,5.053 0.945,1.532 2.111,2.779 3.49,3.778 1.363,0.992 2.904,1.656 4.611,2.004 1.697,0.332 3.49,0.267 5.363,-0.199 1.982,-0.494 3.693,-1.302 5.139,-2.419 1.441,-1.132 2.613,-2.457 3.516,-3.996 0.902,-1.524 1.51,-3.186 1.799,-5.002 0.293,-1.805 0.297,-3.638 -0.029,-5.483 l -0.025,-0.153 z m 33.655,2.081 -16.963,-28.815 -10.414,2.597 25.043,39.055 8.729,-2.176 9.666,-47.709 -10.176,2.539 -5.885,34.509 z m 59.041,-33.766 c 1.342,2.593 2.287,5.44 2.834,8.541 0.076,0.433 0.156,0.886 0.205,1.362 0.053,0.447 0.09,0.946 0.133,1.452 l -31.1,7.752 c 1.156,3.394 3.002,5.76 5.557,7.068 2.541,1.331 5.404,1.614 8.557,0.828 2.395,-0.597 4.4,-1.568 6.021,-2.881 1.604,-1.306 3.111,-3.017 4.527,-5.129 l 6.604,3.733 c -1.607,2.942 -3.682,5.503 -6.227,7.677 -2.543,2.166 -5.768,3.74 -9.668,4.713 -3.047,0.758 -5.988,0.923 -8.826,0.485 -2.838,-0.431 -5.408,-1.363 -7.695,-2.854 -2.293,-1.457 -4.256,-3.426 -5.852,-5.894 -1.619,-2.467 -2.713,-5.359 -3.295,-8.674 l -0.033,-0.168 c -0.545,-3.093 -0.537,-6.133 -0.006,-9.113 0.535,-2.968 1.539,-5.688 3.021,-8.184 1.496,-2.514 3.391,-4.657 5.699,-6.448 2.293,-1.799 4.969,-3.073 8.023,-3.833 3.365,-0.841 6.432,-0.939 9.186,-0.335 2.756,0.621 5.168,1.767 7.225,3.468 2.059,1.713 3.766,3.855 5.11,6.434 m -7.625,6.152 c -0.428,-1.535 -0.857,-1.894 -1.646,-3.156 -0.783,-1.254 -1.717,-2.29 -2.791,-3.08 -1.102,-0.812 -2.324,-1.341 -3.682,-1.591 -1.348,-0.257 -2.828,-0.193 -4.443,0.21 -2.986,0.745 -5.281,2.403 -6.852,4.99 -1.584,2.573 -2.473,4.564 -2.314,8.042 l 21.728,-5.415 z M 310.167,92.23 c -7.457,1.86 -13.758,-3.032 -15.121,-10.771 -1.338,-7.588 2.709,-15.068 9.748,-16.823 4.902,-1.224 8.402,0.195 11.938,2.642 l 4.836,-8.089 c -4.701,-3.422 -10.186,-5.211 -18.203,-3.213 -12.676,3.162 -20.15,15.748 -17.98,28.06 2.166,12.294 13.225,20.021 25.807,16.883 8.252,-2.058 12.562,-6.624 15.895,-12.38 l -6.885,-4.418 c -2.492,3.927 -5.468,6.972 -10.035,8.109 m 161.975,-69.96 -1.258,-7.12 -9.691,2.417 7.596,43.071 9.693,-2.417 -2.895,-16.399 c -0.504,-2.879 -0.686,-5.482 -0.275,-7.763 1.537,-8.562 9.289,-12.822 13.387,-14.502 l -4.773,-7.409 c -3.288,1.442 -8.944,4.579 -11.784,10.122 M 521.546,2.52 516.273,36.789 500.572,7.749 490.236,10.326 513.5,49.153 513.43,49.5 c 0,0 -1.635,9.508 -4.125,12.328 -2.02,1.694 -7.184,2.901 -9.17,3.251 l 1.42,8.067 c 3.416,-0.852 11.48,-2.649 13.781,-4.958 2.871,-2.893 3.439,-3.948 4.854,-9.095 C 521.71,53.504 531.654,0 531.654,0 l -10.108,2.52 z"
         id="path3073"
         style="fill:#ffffff" /></g><path
       d="m 558.7198,243.90074 0.52252,2.09121 4.08649,-1.02021 2.68709,10.77769 2.27742,-0.56879 -2.68934,-10.77656 4.08198,-1.0157 -0.52027,-2.09234 -10.44589,2.6047 z m 22.59929,-5.63486 -2.40495,7.05797 -5.43737,-5.10219 -2.40495,0.59926 3.20735,12.86664 2.22438,-0.55525 -2.29209,-9.19207 5.53217,5.02658 0.0767,-0.0169 2.55279,-7.08393 2.30112,9.23157 2.2571,-0.56428 -3.20734,-12.86664 -2.40495,0.59927 z"
       id="path3075"
       style="fill:#ffffff" /></g></svg>
