<?xml version="1.0" encoding="UTF-8" standalone="no"?>
<!-- Created with Inkscape (http://www.inkscape.org/) -->
<svg xmlns:rdf="http://www.w3.org/1999/02/22-rdf-syntax-ns#" xmlns="http://www.w3.org/2000/svg" height="393.48" width="600" version="1.1" xmlns:cc="http://creativecommons.org/ns#" xmlns:dc="http://purl.org/dc/elements/1.1/">
 <metadata>
  <rdf:RDF>
   <cc:Work rdf:about="">
    <dc:format>image/svg+xml</dc:format>
    <dc:type rdf:resource="http://purl.org/dc/dcmitype/StillImage"/>
    <dc:title/>
   </cc:Work>
  </rdf:RDF>
 </metadata>
 <g transform="matrix(1.0000083,0,0,1.0000083,0,0.00343881)">
  <g fill-rule="nonzero" transform="translate(0,-0.00343878)">
   <path fill="#FFF" d="m393.48,196.74c0,108.67-88.071,196.74-196.74,196.74-108.67-0.01-196.74-88.08-196.74-196.74,0-108.65,88.071-196.74,196.75-196.74,108.66,0,196.73,88.093,196.73,196.74"/>
   <path fill="#000" d="m92.07,131.44c-31.704,0-55.78,26.93-55.78,65.343,0,39.577,22.882,65.061,58.905,65.061,16.69,0,34.791-7.4174,44.811-20.312l-23.34-19.53c-4.7641,5.4931-12.416,8.8436-21.469,8.8436-11.93,0-24.545-6.4616-25.75-23.625h74.874c0.23507-2.3878,0.46875-5.6921,0.46875-10.438,0-35.786-19.309-65.343-52.718-65.343zm-1.656,28.56c14.809,0,21.496,11.213,22.438,22.406h-42.964c1.209-12.63,8.6059-22.41,20.535-22.41z"/>
   <path fill="#000" d="m324.4,259.22,0-67.723c0-22.415-7.6397-29.072-21.215-29.072-13.604,0-21.479,6.6558-21.479,28.354v68.44h-32.888v-125.18h32.909v8.3273c5.7298-5.9395,16.22-10.954,29.324-10.954,31.968,0,46.277,21.937,46.277,57.216v70.588h-32.909z"/>
   <path fill="#000" d="m117.39,91.396-50.921,4.4472,0,24.206,50.921-4.477v-24.173z"/>
   <path fill="#000" d="m197.95,131.44c-31.703,0-55.811,26.93-55.811,65.343,0,39.577,22.914,65.061,58.937,65.061,16.69,0,34.791-7.4174,44.811-20.312l-23.36-19.53c-4.798,5.4931-12.416,8.8436-21.469,8.8436-11.93,0-24.606-6.4616-25.812-23.625h74.905c0.23507-2.3878,0.49999-5.6921,0.49999-10.438,0-35.786-19.309-65.343-52.718-65.343zm-1.66,28.56c14.78,0,21.436,11.213,22.406,22.406h-42.909c1.179-12.63,8.569-22.41,20.499-22.41z"/>
   <path fill="#000" d="m223.23,91.396-50.921,4.4472,0,24.206,50.921-4.477v-24.173z"/>
   <path fill="#FFF" d="m416.62,133.56,0,125.62,35.375,0,0-49.531,38.938,0,0,49.531,35.375,0,0-0.0312,6.125,0c44.309,0,67.562-16.312,67.562-63.5,0-47.218-24.999-62.094-64.312-62.094h-44.75v45.75h-38.938v-45.75h-35.375zm110.31,29.75,8.5312,0c21.627,0,28.969,9.7136,28.969,32.875,0,24.923-8.435,33.219-30.031,33.219h-7.4688v-191.69z"/>
  </g>
 </g>
</svg>
