<?xml version="1.0" encoding="UTF-8" standalone="no"?>
<!-- Created with Inkscape (http://www.inkscape.org/) -->
<svg xmlns:rdf="http://www.w3.org/1999/02/22-rdf-syntax-ns#" xmlns="http://www.w3.org/2000/svg" height="122.49" width="600" version="1.1" xmlns:cc="http://creativecommons.org/ns#" xmlns:dc="http://purl.org/dc/elements/1.1/">
 <defs></defs>
 <metadata>
  <rdf:RDF>
   <cc:Work rdf:about="">
    <dc:format>image/svg+xml</dc:format>
    <dc:type rdf:resource="http://purl.org/dc/dcmitype/StillImage"/>
    <dc:title/>
   </cc:Work>
  </rdf:RDF>
 </metadata>
 <g transform="translate(-100.37081,-597.73806)">
  <path d="m657.79,671.52,0-12.721-19.57,0,0,12.721-5.7044,0,0-29.599,5.7044,0,0,12.217,19.57,0,0-12.217,5.7044,0,0,29.599-5.7044,0z" fill-rule="nonzero" fill="#FFF"/>
  <path d="m682.99,646.57-8.9184,0,0,20.294,9.3391,0c6.9328,0,11.409-2.7428,11.409-10.18,0-7.5722-4.9304-10.113-11.83-10.113m0.80771,24.955-15.229,0,0-29.599,14.421,0c9.7261,0,17.383,4.0554,17.383,14.757,0,10.349-6.8992,14.842-16.575,14.842" fill-rule="nonzero" fill="#FFF"/>
  <path fill-rule="nonzero" fill="#FFF" d="m610.49,688.58-3.7693,0,0-63.725,3.7693,0,0,63.725z"/>
  <path d="m279.84,634.61c2.2717-7.0843,7.4881-10.82,15.229-10.82,9.0867,0,14.959,5.4857,16.171,15.094,0.13462,0.67308-0.13462,1.2116-0.80771,1.4808l-3.8703,0.79088c-0.80771,0.26924-1.464-0.13461-1.6154-0.92549-1.0601-7.2189-4.3919-10.164-9.8776-10.164-4.0049,0-7.3367,1.8678-8.9521,6.5458-0.79088,2.9448-1.1947,4.5434-1.1947,20.176,0,15.632,0.40386,17.231,1.1947,20.176,1.6154,4.678,4.9472,6.5458,8.9521,6.5458,5.4857,0,8.8175-2.9448,9.8776-10.147,0.15144-0.8077,0.8077-1.2116,1.6154-0.94233l3.8703,0.80772c0.67309,0.2524,0.94233,0.79087,0.80771,1.464-1.2116,9.6252-7.0843,15.094-16.171,15.094-7.7405,0-12.957-3.7356-15.229-10.82-1.2116-3.7356-1.464-5.6035-1.464-22.178,0-16.558,0.25242-18.443,1.464-22.178" fill-rule="nonzero" fill="#FFF"/>
  <path d="m349.84,636.75c-1.464-4.5434-4.8126-6.6804-9.4906-6.6804s-8.0098,2.1371-9.4737,6.6804c-0.94232,2.8101-1.0769,4.9472-1.0769,19.907,0,15.094,0.13462,17.231,1.0769,20.041,1.464,4.5434,4.7958,6.6804,9.4737,6.6804,4.678,0,8.0266-2.1371,9.4906-6.6804,0.94233-2.8101,1.077-4.9472,1.077-20.041,0-14.959-0.13462-17.096-1.077-19.907m6.2766,41.95c-2.2717,7.202-8.0098,10.955-15.767,10.955-7.7405,0-13.479-3.7525-15.75-10.955-1.0769-3.601-1.3462-6.1419-1.3462-22.044,0-15.767,0.26925-18.308,1.3462-21.909,2.2717-7.2189,8.0098-10.955,15.75-10.955,7.7574,0,13.495,3.7356,15.767,10.955,1.077,3.601,1.3462,6.1419,1.3462,21.909,0,15.902-0.26923,18.443-1.3462,22.044" fill-rule="nonzero" fill="#FFF"/>
  <path d="m428.92,688.59c-0.80771,0-1.3294-0.53847-1.3294-1.3462v-43.01c0-9.4906-3.3486-14.169-10.416-14.169-6.1588,0-10.029,4.5434-10.164,13.765v43.414c0,0.80771-0.53847,1.3462-1.3294,1.3462h-3.8871c-0.79088,0-1.3294-0.53847-1.3294-1.3462v-43.01c0-9.2213-3.0794-14.169-10.281-14.169-6.2766,0-10.298,4.5434-10.298,14.169v43.01c0,0.80771-0.52165,1.3462-1.3294,1.3462h-3.8703c-0.80771,0-1.3462-0.53847-1.3462-1.3462v-61.049c0-0.79089,0.53847-1.3294,1.3462-1.3294h3.8703c0.8077,0,1.3294,0.53847,1.3294,1.3294v5.2164h0.13462c1.7332-4.1395,5.4857-7.6227,12.166-7.6227,6.5458,0,10.955,2.8102,13.092,8.4136h0.13461c2.1371-4.9304,6.815-8.4136,13.361-8.4136,10.281,0,15.363,6.2766,15.363,19.368v44.087c0,0.80771-0.53847,1.3462-1.3294,1.3462h-3.8871z" fill-rule="nonzero" fill="#FFF"/>
  <path d="m476.61,651.44c0-10.416-0.53847-12.957-1.1947-14.825-1.4808-4.4087-4.678-6.6804-9.0867-6.6804s-7.6227,2.2717-9.0867,6.6804c-0.6731,1.8678-1.2116,4.4087-1.2116,14.825,0,0.53847,0.26924,0.80771,0.80771,0.80771h18.964c0.53847,0,0.80771-0.26924,0.80771-0.80771m5.2164,6.6804-24.988,0c-0.53847,0-0.80771,0.26924-0.80771,0.80771,0,13.092,0.53847,15.632,1.2116,17.904,1.464,4.4087,4.678,6.5458,8.9521,6.5458,5.4688,0,8.5482-2.5409,10.281-8.8175,0.26923-0.94232,0.8077-1.2116,1.6154-0.94232l3.601,0.8077c0.6731,0.13462,1.0601,0.67309,0.80771,1.5986-1.8846,8.9521-7.6227,13.63-16.44,13.63-7.4881,0-12.822-3.7525-15.094-10.82-0.92549-2.6755-1.464-5.8727-1.464-22.044s0.53847-19.368,1.464-22.178c2.2717-7.0843,7.6059-10.82,15.363-10.82,7.7405,0,13.092,3.7356,15.363,10.82,0.9255,2.8102,1.464,6.0073,1.464,22.178,0,0.79088-0.53847,1.3294-1.3293,1.3294" fill-rule="nonzero" fill="#FFF"/>
  <path d="m523.37,676.69c0.94232-2.8101,1.3293-4.8126,1.3293-19.907s-0.38702-17.096-1.3293-20.041c-1.3294-4.1395-4.678-6.6804-9.2213-6.6804-4.678,0-7.8751,2.1371-9.3559,6.6804-0.9255,2.9448-1.1947,4.9472-1.1947,20.041s0.26923,17.096,1.1947,19.907c1.4808,4.5434,4.678,6.6804,9.3559,6.6804,4.5433,0,7.892-2.4063,9.2213-6.6804m-24.854,2.8102c-1.1947-3.6179-1.464-6.2766-1.464-22.717,0-16.558,0.26923-19.099,1.464-22.851,2.2717-7.0674,7.0843-10.147,13.765-10.147,7.0843,0,10.551,3.601,12.284,7.7405h0.13461v-32.46c0-0.79089,0.53847-1.3294,1.3462-1.3294h3.8703c0.80771,0,1.3294,0.53847,1.3294,1.3294v88.175c0,0.80771-0.52164,1.3462-1.3294,1.3462h-3.8703c-0.80772,0-1.3462-0.53847-1.3462-1.3462v-5.1996h-0.13461c-1.7332,4.0049-5.1996,7.6059-12.284,7.6059-6.6804,0-11.493-3.0626-13.765-10.147" fill-rule="nonzero" fill="#FFF"/>
  <path d="m548.21,712.63c-0.80771,0-1.3462-0.53848-1.3462-1.3294v-3.6179c0-0.79088,0.53847-1.3294,1.3462-1.3294l1.464-0.13462c3.6178,0,5.4857-1.5986,6.9496-7.3535l2.9448-11.88-15.094-60.797c-0.13461-0.79089,0.26924-1.3294,1.0601-1.3294h4.4087c0.80772,0,1.2116,0.53847,1.3462,1.3294l11.493,48.361h0.11779l11.493-48.361c0.13461-0.79089,0.53847-1.3294,1.3462-1.3294h4.2741c0.79089,0,1.1947,0.53847,1.0601,1.3294l-18.173,72.155c-2.6587,11.342-6.1419,14.286-13.495,14.286h-1.1947z" fill-rule="nonzero" fill="#FFF"/>
  <path d="m318.5,720.23c-12.267,0-23.878-4.4424-31.231-12.015l4.4592-4.3246c6.3775,6.5794,16.794,10.349,27.714,10.113,10.147-0.20193,19.2-3.9376,24.82-10.231l4.6275,4.1227c-6.7645,7.5891-17.45,12.082-29.313,12.318-0.3702,0.0168-0.72357,0.0168-1.0769,0.0168" fill-rule="nonzero" fill="#FFF"/>
  <path d="m100.37,693.09,0-71.583,43.111,0,1.3294,19.57-24.147,0,0,9.3391,19.671,0,0,19.536-19.806,0,0,23.137-20.159,0z" fill-rule="nonzero" fill="#0daa4c"/>
  <path d="m266.42,692.99-21.556-37.138,19.587-34.243-21.573,0-8.9689,15.414-8.8006-15.414-22.33,0,19.974,34.479-21.152,36.936,21.69,0,10.349-18.089,10.467,18.056,22.313,0z" fill-rule="nonzero" fill="#0daa4c"/>
  <path d="m184.5,671.68,0-28.589c0-3.2645-2.8438-6.1924-6.041-6.1924-3.1803,0-5.7717,2.9279-5.7717,6.1924l-0.0168,28.505c0,3.2645,2.6082,5.9064,5.7886,5.9064,3.1972,0,6.041-2.5577,6.041-5.8222m-40.25-14.3c0-19.217,15.279-34.799,34.126-34.799,18.83,0,34.109,15.582,34.109,34.799s-15.279,34.799-34.109,34.799c-18.846,0-34.126-15.582-34.126-34.799" fill-rule="nonzero" fill="#0daa4c"/>
  <g transform="matrix(16.724087,0,0,-16.724087,321.29515,1587.3298)">
   <path d="m0,0c0.169,0.526,0.556,0.804,1.131,0.804,0.674,0,1.11-0.407,1.2-1.121,0.01-0.05-0.01-0.09-0.06-0.109l-0.287-0.06c-0.06-0.02-0.109,0.01-0.12,0.069-0.079,0.536-0.327,0.755-0.733,0.755-0.298,0-0.546-0.139-0.665-0.487-0.059-0.218-0.089-0.337-0.089-1.498,0-1.16,0.03-1.279,0.089-1.497,0.119-0.347,0.367-0.486,0.665-0.486,0.406,0,0.654,0.218,0.733,0.753,0.011,0.06,0.06,0.09,0.12,0.07l0.287-0.059c0.05-0.02,0.07-0.06,0.06-0.11-0.09-0.714-0.526-1.12-1.2-1.12-0.575,0-0.962,0.277-1.131,0.803-0.089,0.278-0.109,0.416-0.109,1.646s0.02,1.369,0.109,1.647" fill-rule="nonzero" fill="#FFF"/>
  </g>
  <g transform="matrix(16.724087,0,0,-16.724087,408.20855,1589.9856)">
   <path d="m0,0c-0.109,0.337-0.357,0.496-0.704,0.496s-0.595-0.159-0.704-0.496c-0.07-0.208-0.08-0.367-0.08-1.478,0-1.12,0.01-1.279,0.08-1.488,0.109-0.337,0.357-0.496,0.704-0.496s0.595,0.159,0.704,0.496c0.07,0.209,0.08,0.368,0.08,1.488,0,1.111-0.01,1.27-0.08,1.478m0.466-3.115c-0.168-0.535-0.595-0.813-1.17-0.813s-1.002,0.278-1.17,0.813c-0.08,0.268-0.1,0.457-0.1,1.637,0,1.17,0.02,1.359,0.1,1.627,0.168,0.536,0.595,0.813,1.17,0.813s1.002-0.277,1.17-0.813c0.08-0.268,0.1-0.457,0.1-1.627,0-1.18-0.02-1.369-0.1-1.637" fill-rule="nonzero" fill="#FFF"/>
  </g>
  <g transform="matrix(16.724087,0,0,-16.724087,506.4057,1654.3466)">
   <path d="m0,0c-0.059,0-0.099,0.04-0.099,0.099v3.194c0,0.704-0.248,1.052-0.774,1.052-0.456,0-0.744-0.338-0.753-1.022v-3.224c0-0.059-0.04-0.099-0.1-0.099h-0.288c-0.059,0-0.098,0.04-0.098,0.099v3.194c0,0.684-0.229,1.052-0.764,1.052-0.466,0-0.764-0.338-0.764-1.052v-3.194c0-0.059-0.04-0.099-0.099-0.099h-0.288c-0.059,0-0.099,0.04-0.099,0.099v4.533c0,0.06,0.04,0.099,0.099,0.099h0.288c0.059,0,0.099-0.039,0.099-0.099v-0.387h0.01c0.129,0.308,0.407,0.566,0.902,0.566,0.487,0,0.814-0.209,0.972-0.625h0.01c0.159,0.367,0.506,0.625,0.992,0.625,0.764,0,1.141-0.466,1.141-1.439v-3.273c0-0.059-0.04-0.099-0.099-0.099h-0.288z" fill-rule="nonzero" fill="#FFF"/>
  </g>
  <g transform="matrix(16.724087,0,0,-16.724087,565.61399,1608.2283)">
   <path d="m0,0c0,0.774-0.04,0.962-0.089,1.101-0.109,0.327-0.347,0.496-0.675,0.496-0.327,0-0.565-0.169-0.674-0.496-0.05-0.139-0.09-0.327-0.09-1.101,0-0.04,0.02-0.06,0.06-0.06h1.409c0.039,0,0.059,0.02,0.059,0.06m0.387-0.496-1.855,0c-0.04,0-0.06-0.02-0.06-0.06,0-0.972,0.04-1.16,0.09-1.329,0.109-0.327,0.347-0.486,0.664-0.486,0.407,0,0.635,0.189,0.764,0.655,0.02,0.07,0.06,0.089,0.119,0.07l0.268-0.06c0.05-0.01,0.08-0.05,0.06-0.119-0.139-0.665-0.566-1.012-1.221-1.012-0.555,0-0.951,0.278-1.12,0.804-0.069,0.198-0.109,0.436-0.109,1.636s0.04,1.438,0.109,1.647c0.169,0.525,0.565,0.803,1.14,0.803,0.576,0,0.973-0.278,1.141-0.803,0.069-0.209,0.109-0.447,0.109-1.647,0-0.06-0.04-0.099-0.099-0.099" fill-rule="nonzero" fill="#FFF"/>
  </g>
  <g transform="matrix(16.724087,0,0,-16.724087,623.66998,1639.5809)">
   <path d="M0,0c0.07,0.208,0.099,0.357,0.099,1.478s-0.029,1.269-0.099,1.488c-0.099,0.307-0.347,0.496-0.684,0.496-0.347,0-0.585-0.159-0.694-0.496-0.07-0.219-0.09-0.367-0.09-1.488s0.02-1.27,0.09-1.478c0.109-0.337,0.347-0.496,0.694-0.496,0.337,0,0.585,0.179,0.684,0.496m-1.845-0.209c-0.089,0.269-0.109,0.467-0.109,1.687,0,1.23,0.02,1.418,0.109,1.696,0.169,0.525,0.526,0.754,1.022,0.754,0.526,0,0.783-0.268,0.912-0.575h0.01v2.41c0,0.059,0.04,0.099,0.1,0.099h0.287c0.06,0,0.099-0.04,0.099-0.099v-6.547c0-0.059-0.039-0.099-0.099-0.099h-0.287c-0.06,0-0.1,0.04-0.1,0.099v0.387h-0.01c-0.129-0.297-0.386-0.565-0.912-0.565-0.496,0-0.853,0.228-1.022,0.753" fill-rule="nonzero" fill="#FFF"/>
  </g>
  <g transform="matrix(16.724087,0,0,-16.724087,654.52091,1684.2024)">
   <path d="m0,0c-0.059,0-0.099,0.04-0.099,0.099v0.268c0,0.059,0.04,0.099,0.099,0.099l0.109,0.01c0.268,0,0.407,0.119,0.516,0.545l0.218,0.883-1.121,4.513c-0.01,0.06,0.02,0.099,0.08,0.099h0.327c0.059,0,0.089-0.039,0.099-0.099l0.853-3.59h0.01l0.853,3.59c0.01,0.06,0.039,0.099,0.099,0.099h0.318c0.059,0,0.089-0.039,0.079-0.099l-1.349-5.356c-0.198-0.843-0.456-1.061-1.002-1.061h-0.089z" fill-rule="nonzero" fill="#FFF"/>
  </g>
  <g transform="matrix(16.724087,0,0,-16.724087,369.29495,1693.6365)">
   <path d="m0,0c-0.911,0-1.773,0.33-2.318,0.892l0.33,0.321c0.474-0.488,1.247-0.768,2.058-0.751,0.753,0.015,1.425,0.293,1.842,0.76l0.345-0.306c-0.503-0.563-1.297-0.897-2.178-0.915-0.026-0.001-0.053-0.001-0.079-0.001" fill-rule="nonzero" fill="#FFF"/>
  </g>
  <g transform="matrix(16.724087,0,0,-16.724087,98.784514,1659.9391)">
   <path d="m0,0,0,5.315,3.201,0,0.098-1.453-1.792,0,0-0.693,1.46,0,0-1.451-1.47,0v-1.718h-1.497z" fill-rule="nonzero" fill="#000"/>
  </g>
  <g transform="matrix(16.724087,0,0,-16.724087,304.63461,1659.8137)">
   <path d="m0,0-1.601,2.758,1.455,2.542-1.602,0-0.665-1.145-0.654,1.145-1.658,0,1.483-2.56-1.571-2.743,1.611,0.001,0.768,1.343l0.777-1.341h1.657z" fill-rule="nonzero" fill="#000"/>
  </g>
  <g transform="matrix(16.724087,0,0,-16.724087,203.24316,1633.3545)">
   <path d="m0,0,0,2.123c0,0.242-0.211,0.459-0.448,0.459s-0.429-0.217-0.429-0.459l-0.001-2.117c0-0.242,0.193-0.439,0.43-0.439s0.448,0.19,0.448,0.433m-2.988,1.061c0,1.427,1.134,2.584,2.533,2.584s2.532-1.157,2.532-2.584-1.133-2.584-2.532-2.584-2.533,1.157-2.533,2.584" fill-rule="nonzero" fill="#000"/>
  </g>
 </g>
</svg>
