<?xml version="1.0" encoding="UTF-8" standalone="no"?>
<!-- Created with Inkscape (http://www.inkscape.org/) -->

<svg
   xmlns:dc="http://purl.org/dc/elements/1.1/"
   xmlns:cc="http://creativecommons.org/ns#"
   xmlns:rdf="http://www.w3.org/1999/02/22-rdf-syntax-ns#"
   xmlns:svg="http://www.w3.org/2000/svg"
   xmlns="http://www.w3.org/2000/svg"
   version="1.1"
   width="600.0022"
   height="117.32"
   viewBox="0 0 480.00176 93.856"
   id="svg3027">
  <metadata
     id="metadata3067">
    <rdf:RDF>
      <cc:Work
         rdf:about="">
        <dc:format>image/svg+xml</dc:format>
        <dc:type
           rdf:resource="http://purl.org/dc/dcmitype/StillImage" />
        <dc:title></dc:title>
      </cc:Work>
    </rdf:RDF>
  </metadata>
  <defs
     id="defs3065" />
  <g
     transform="matrix(0.68793151,0,0,0.68793151,-17.551609,-21.82656)"
     id="g3974">
    <path
       d="m 481.27,33.89 c 1.89,-0.01 3.79,-0.02 5.69,-0.01 -0.01,44.09 0,88.19 -0.01,132.29 -1.89,-0.01 -3.78,-0.02 -5.66,-0.03 -0.03,-44.08 0.02,-88.17 -0.02,-132.25 z"
       id="path3039"
       style="fill:#ffffff" />
    <path
       d="m 515.77,60.16 c 4.19,-0.21 8.4,-0.17 12.6,-0.18 1.2,10.89 0.25,21.89 0.55,32.83 21.16,0.66 42.36,0.27 63.53,0.05 0.19,-10.28 -0.18,-20.57 0.18,-30.84 -0.32,-2.02 2,-1.91 3.3,-2.01 3.25,-0.1 6.56,-0.26 9.78,0.4 0.49,3.17 0.32,6.39 0.35,9.59 -0.18,23.28 0.27,46.56 -0.23,69.83 -4.34,-0.14 -8.94,0.88 -13.1,-0.56 -0.58,-11.42 -0.03,-22.89 -0.28,-34.32 -21.12,-0.11 -42.23,-0.15 -63.34,0.01 -0.47,10.72 -0.01,21.45 -0.21,32.16 0.09,1.15 -0.24,3.04 -1.84,2.76 -3.61,0.17 -7.26,0.29 -10.85,-0.16 -1.13,-0.91 -0.87,-2.43 -0.95,-3.71 0.06,-20.01 0.01,-40.02 0.03,-60.04 0.02,-5.27 -0.31,-10.58 0.48,-15.81 z"
       id="path3047"
       style="fill:#811e7b;fill-opacity:1" />
    <path
       d="m 803.65625,74.9375 c -7.0114,0.0035 -14.03281,0.107813 -21.03125,0.375 -0.2625,0.25 -0.8,0.75 -1.0625,1 -0.525,16.625 -0.0688,33.3 -0.21875,49.9375 0.225,16.0875 -0.48125,32.21875 0.34375,48.28125 4.3875,0.7 8.8875,0.36875 13.3125,0.40625 23.3375,0.0125 46.6625,-0.025 70,0 10.475,-0.3625 22.075,-2.34375 29.4375,-10.53125 8.0875,-8.9375 9.125,-21.65 9.625,-33.125 -0.025,-12.8375 0.59375,-26.2875 -4.40625,-38.375 -3.3375,-8.5375 -11.56875,-14.2375 -20.34375,-16.0625 C 865.9625,73.98125 852.25625,75.275 838.71875,75 c -11.6875,0.132812 -23.37683,-0.06836 -35.0625,-0.0625 z M 814.25,90.15625 c 15.2291,-0.007 30.45312,0.08437 45.6875,0 5.8875,-0.025 12.10625,-0.26875 17.53125,2.46875 4,1.875 5.9625,6.2125 7.25,10.1875 2.775,10.0625 1.90625,20.6125 1.96875,30.9375 -0.4125,7.4125 -1.16875,15.7375 -6.59375,21.375 -4.6125,4.4875 -11.5125,4.7375 -17.5625,4.9375 -21.1625,0.0625 -42.31875,-0.0312 -63.46875,0.0312 C 798.35,136.8062 798.95,113.5187 799,90.2187 c 5.075,-0.02813 10.17363,-0.06016 15.25,-0.0625 z"
       transform="scale(0.8,0.8)"
       id="path3049"
       style="fill:#811e7b;fill-opacity:1" />
    <g
       transform="matrix(0.58556623,0,0,0.58556623,-78.670104,-227.62878)"
       id="layer1">
      <path
         d="m 237.19995,672.62675 -59.28036,0 0,-222.56405 59.28036,0 0,83.7881 42.23726,0 0,-83.7881 58.53936,0 0,222.56405 -58.53936,0 0,-86.58307 -42.23726,0"
         id="path8035"
         style="fill:#ffffff;fill-rule:evenodd;stroke:none" />
      <path
         d="m 439.8647,535.6736 -30.89989,0 0,-34.32942 31.4927,0 c 7.18774,0.0608 14.07908,8.62793 14.07908,17.13433 0,8.68869 -6.74314,17.19509 -14.67189,17.19509 m 1.18561,84.76027 -31.7891,0 0,-34.32943 29.26968,0 c 9.11436,-0.12152 16.0057,8.20261 16.0057,17.31662 0,8.32412 -4.96473,16.83053 -13.48628,17.01281 m 36.60562,-59.05877 c 21.04453,-4.67852 36.75383,-23.39261 36.75383,-45.81307 0,-39.12947 -22.52654,-65.49933 -59.94727,-65.49933 l -104.55574,0.0608 0,222.56405 103.37013,-0.0608 c 0.51871,0.0608 0.96331,0.0608 1.48201,0.0608 37.42073,0 59.94727,-26.36986 59.94727,-65.43857 0,-22.54198 -15.85749,-41.31683 -37.05023,-45.87384"
         id="path8037"
         style="fill:#ffffff;fill-rule:evenodd;stroke:none" />
      <path
         d="m 614.22308,616.66674 c -31.3445,0 -56.68685,-25.39769 -56.68685,-56.68912 0,-31.35218 25.34235,-56.74988 56.68685,-56.74988 31.34449,0 56.68685,25.3977 56.68685,56.74988 0,31.29143 -25.34236,56.68912 -56.68685,56.68912 m 0,-172.61928 c -64.0228,0 -115.89312,51.88908 -115.89312,115.93016 0,63.98033 51.87032,115.93017 115.89312,115.93017 64.02279,0 115.89311,-51.94984 115.89311,-115.93017 0,-64.04108 -51.87032,-115.93016 -115.89311,-115.93016"
         id="path8039"
         style="fill:#ffffff;fill-rule:evenodd;stroke:none" />
      <path
         d="m 614.22308,515.50127 c -24.60135,0 -44.46028,19.92929 -44.46028,44.47635 0,24.54706 19.85893,44.47636 44.46028,44.47636 24.52725,0 44.46027,-19.9293 44.46027,-44.47636 0,-24.54706 -19.93302,-44.47635 -44.46027,-44.47635"
         id="path8041"
         style="fill:#ffffff;fill-rule:evenodd;stroke:none" />
      <path
         d="m 904.91917,616.36294 c -17.93231,0 -48.7581,0 -60.16957,0 9.48486,-12.09124 39.49554,-50.24855 39.49554,-50.24855 10.81867,-13.79253 16.3021,-29.46862 16.3021,-46.5422 0,-21.14449 -7.92875,-39.43327 -23.41574,-54.25872 -15.487,-14.82545 -34.90132,-23.02805 -56.53865,-22.35969 -16.969,0.54684 -32.7524,5.65068 -46.38689,15.31153 -14.30138,10.0254 -28.82507,29.3471 -31.71499,56.44608 l -0.66691,5.65068 55.50125,-0.18228 0.741,-4.19244 c 0.81511,-5.1646 3.40862,-9.35705 7.70645,-12.82037 4.37193,-3.52408 9.26256,-5.22536 14.96829,-5.22536 6.59494,0 11.93017,2.1266 16.5244,6.44056 4.44603,4.2532 6.59494,9.23553 6.59494,15.25077 0,4.80005 -1.63021,9.11401 -5.03883,13.30645 -0.0741,0.0608 -108.85357,138.41139 -108.85357,138.41139 l 142.86568,0 32.0855,0.18228"
         id="path8043"
         style="fill:#811e7b;fill-rule:nonzero;stroke:none" />
    </g>
  </g>
</svg>
