<?xml version="1.0" encoding="UTF-8" standalone="no"?>
<!-- Created with Inkscape (http://www.inkscape.org/) -->
<svg xmlns:rdf="http://www.w3.org/1999/02/22-rdf-syntax-ns#" xmlns="http://www.w3.org/2000/svg" height="300.02" width="600" version="1.1" xmlns:cc="http://creativecommons.org/ns#" xmlns:xlink="http://www.w3.org/1999/xlink" xmlns:dc="http://purl.org/dc/elements/1.1/">
 <defs></defs>
 <metadata>
  <rdf:RDF>
   <cc:Work rdf:about="">
    <dc:format>image/svg+xml</dc:format>
    <dc:type rdf:resource="http://purl.org/dc/dcmitype/StillImage"/>
    <dc:title/>
   </cc:Work>
  </rdf:RDF>
 </metadata>
 <g fill-rule="nonzero" transform="translate(-122.173,-37.847935)">
  <path fill="#f89f0e" d="m548.29,147.94c1.4117,1.7905,3.0989,3.822,5.8536,8.3327,7.8162,12.74,23.38,40.493,39.15,68.005,10.192,17.767,21.176,37.497,27.099,48.826,18.146-31.058,38.461-80.986,51.821-125.44,1.3429-4.4418,3.4433-6.6111,7.2653-6.6111,2.066,0,5.5437,0.86082,15.047,3.7532,5.7503,1.7561,17.182,5.2682,21.452,6.6111,4.373,1.4117,6.1979,3.6154,6.1979,6.4389,0,2.7546-1.5839,7.162-3.7876,13.188-17.836,48.24-42.524,100.68-71.551,145-11.053,16.906-23.311,21.83-43.73,21.83-21.589,0-31.23-5.7847-41.836-21.417-7.1964-10.64-14.668-22.312-24.826-38.014,15.495-25.962,22.106-57.434,22.106-88.423,0-19.799-5.3371-35.948-10.261-42.077"/>
  <path fill="#b70469" d="m558.56,190.01c0,30.989-6.6111,62.461-22.106,88.423l-51.064-79.918c-6.3012-10.777-8.0228-15.323-8.0228-21.417,0-17.905,31.781-37.153,53.199-37.153,7.6441,0,12.534,1.8594,17.733,7.9884,4.9239,6.129,10.261,22.278,10.261,42.077"/>
  <path fill="#837319" d="m536.44,278.43c-22.829,37.394-61.944,59.396-115.14,59.396-40.286,0-76.75-12.361-96.825-30.645,25.342-21.211,42.628-53.887,42.628-93.691l0.0344,13.67c0,23.104,4.855,36.912,14.84,47.207,10.502,10.743,26.616,16.665,47.483,16.665,43.971,0,66.731-27.581,66.731-58.088,0-12.224-3.6154-22.175-10.812-34.433l51.064,79.918z"/>
  <path fill="#4dc3c7" d="m324.47,307.18c-20.453,18.904-55.058,30.645-88.285,30.645-33.228,0-68.246-9.1247-88.699-29.612-15.77-15.736-24.792-35.707-24.792-70.725v-87.7c0-4.3041,1.5495-6.129,6.1634-6.129h65.939c4.6828,0,6.3012,1.8594,6.3012,6.129v96.997c0,15.495,3.34,25.997,10.468,33.537,6.8521,7.2653,18.387,11.569,31.368,11.569,13.291,0,25.377-4.4762,33.09-12.74,8.7459-9.4001,12.706-22.829,12.706-47.586v-7.6441c0,32.057,11.363,62.048,35.741,83.258m-162.6-190.58c-24.551,0-39.701-17.389-39.701-39.357s15.15-39.391,39.701-39.391,39.701,17.423,39.701,39.391-15.15,39.357-39.701,39.357"/>
  <path fill="#FFF" d="m327.92,58.404c14.668,0,27.133,2.6858,33.193,8.195,4.0975,3.7532,5.9913,8.7459,5.9913,16.046v60.98h62.013c4.6828,0,6.3356,1.8938,6.3356,6.1634v37.256c0,4.2352-1.6528,6.129-6.3356,6.129h-34.811c-10.846,0-19.868-1.5839-27.202-4.7173v24.998c0,39.839-17.285,72.515-42.628,93.726-24.378-21.245-35.741-51.236-35.741-83.327v-141.21c0-7.2653,1.8938-12.292,5.9913-16.046,6.0602-5.5092,18.284-8.195,33.193-8.195"/>
 </g>
</svg>
