<?xml version="1.0" encoding="UTF-8" standalone="no"?>
<!-- Created with Inkscape (http://www.inkscape.org/) -->

<svg
   xmlns:dc="http://purl.org/dc/elements/1.1/"
   xmlns:cc="http://creativecommons.org/ns#"
   xmlns:rdf="http://www.w3.org/1999/02/22-rdf-syntax-ns#"
   xmlns:svg="http://www.w3.org/2000/svg"
   xmlns="http://www.w3.org/2000/svg"
   version="1.1"
   width="599.99951"
   height="600"
   id="svg129990">
  <defs
     id="defs129992" />
  <metadata
     id="metadata129995">
    <rdf:RDF>
      <cc:Work
         rdf:about="">
        <dc:format>image/svg+xml</dc:format>
        <dc:type
           rdf:resource="http://purl.org/dc/dcmitype/StillImage" />
        <dc:title></dc:title>
      </cc:Work>
    </rdf:RDF>
  </metadata>
  <g
     transform="translate(-50.00024,-232.33015)"
     id="layer1">
    <path
       d="m 542.75039,478.07075 c -4.76241,0 -9.20733,0.76202 -13.39827,2.15894 -4.19084,1.46053 -8.00077,3.55595 -11.36626,6.28636 -3.42892,2.73051 -6.4133,5.96887 -8.82632,9.84232 -2.41291,3.80992 -4.31788,8.19132 -5.58785,13.01725 l 78.6749,0 c -5.46092,-20.89109 -18.60511,-31.30487 -39.4962,-31.30487 m 46.79856,132.20436 c -6.47681,4.00038 -13.5252,6.92135 -21.01812,8.76279 -7.55634,1.84155 -15.74767,2.79403 -24.57398,2.79403 -25.27249,0 -45.59211,-8.12791 -60.89524,-24.38352 -11.17581,-11.93784 -18.2242,-26.6695 -21.20858,-44.32213 l 0,59.37129 -39.36926,0 0,-94.54961 c 0,-16.70015 -2.28598,-28.19345 -6.98487,-34.60685 -4.50833,-6.47682 -12.69976,-9.71528 -24.70102,-9.71528 -12.95373,0 -22.22448,4.25446 -27.62188,12.8268 -5.33388,8.50882 -8.06439,23.24049 -8.06439,44.32203 l 0,81.72291 -39.30574,0 0,-11.17581 c -13.01715,10.66786 -29.27287,16.06525 -48.9575,16.06525 -20.31962,0 -37.08328,-5.77841 -50.291,-17.27171 -8.1278,-7.04839 -13.8427,-14.98564 -17.20809,-23.81206 -3.23846,-7.87383 -4.88945,-19.62111 -4.88945,-35.17821 l 0,-98.16908 39.1787,0 0,97.28001 c 0,28.13003 11.04878,42.16319 33.20984,42.16319 22.16106,0 33.27336,-14.03316 33.27336,-42.16319 l 0,-97.28001 54.98988,0 0,15.68414 c 13.71577,-13.58872 29.14594,-20.38303 46.29062,-20.38303 19.74804,0 35.1148,6.22284 46.16357,18.66863 9.52482,10.54082 14.28723,27.74891 14.28723,51.68791 l 0,2.85744 c 2.92097,-17.39865 9.71528,-32.13032 20.51008,-44.19509 14.98573,-16.38265 34.7973,-24.51046 59.49832,-24.51046 24.95499,0 44.70304,7.93735 59.18083,23.81195 14.41417,15.81119 21.58949,37.65476 21.58949,65.59423 l -0.19045,9.27085 -121.47308,0 c 1.07952,13.90622 5.58785,24.95499 13.58872,33.20984 8.00087,8.1278 18.28762,12.19171 30.79692,12.19171 9.7788,0 17.84309,-2.3494 24.19297,-6.98487 6.28636,-4.63537 13.39827,-13.20771 21.39914,-25.71692 l 33.0828,18.41456 c -5.07991,8.69937 -10.47731,16.19219 -16.1922,22.35162 -5.65137,6.22284 -11.74728,11.36626 -18.28762,15.36665 M 179.09318,407.0157 c -4.63548,4.63538 -10.28685,6.98487 -17.01774,6.98487 -6.85783,0 -12.57273,-2.34949 -17.2081,-6.98487 -4.63547,-4.63547 -6.98487,-10.41378 -6.98487,-17.39865 0,-6.47692 2.3494,-12.12829 7.11181,-16.8907 4.76241,-4.76241 10.4773,-7.11181 17.08116,-7.11181 6.60395,0 12.31875,2.3494 17.01774,7.11181 4.76241,4.76241 7.17532,10.4773 7.17532,17.08116 0,6.73089 -2.41291,12.44578 -7.17532,17.20819 M 350.03171,232.39418 c -165.73169,0 -300.03147,134.29978 -300.03147,299.96795 0,48.9576 11.810698,95.12118 32.574849,135.95087 9.651758,6.28636 18.668631,9.52472 27.050411,9.52472 12.06477,0 20.38314,-4.57185 25.01851,-13.71566 4.88945,-9.20733 7.30236,-25.20897 7.30236,-48.00502 l 0,-173.73256 40.76618,0 0,173.8595 c 0,20.76415 -1.46043,36.25784 -4.3814,46.48106 -2.85744,11.55683 -7.81031,21.39914 -14.79518,29.39991 -12.89022,15.11278 -29.90796,22.98661 -50.79905,23.68502 54.86295,70.86459 140.71328,116.52021 237.29479,116.52021 165.66827,0 299.96805,-134.29978 299.96805,-299.96805 0,-165.66817 -134.29978,-299.96795 -299.96805,-299.96795"
       id="path5113"
       style="fill:#ffffff;fill-opacity:1;fill-rule:nonzero;stroke:none" />
  </g>
</svg>
