<?xml version="1.0" encoding="UTF-8" standalone="no"?>
<svg xmlns:rdf="http://www.w3.org/1999/02/22-rdf-syntax-ns#" xmlns="http://www.w3.org/2000/svg" height="224.49" width="600" version="1.1" xmlns:cc="http://creativecommons.org/ns#" xmlns:dc="http://purl.org/dc/elements/1.1/" viewBox="0 0 158.75 59.395137">
 <g transform="translate(-37.536 -92.191)">
  <g fill="#fff">
   <path d="m107.25 137.14c-0.74 0-1.36 0.59-1.36 1.31v7.97c0 1.63 0.37 2.72 1.11 3.58 0.89 1.06 2.33 1.55 3.8 1.55 1.56 0 2.86-0.51 3.71-1.48 0.71-0.82 1.15-2 1.15-3.44 0-1.65-0.45-2.84-1.26-3.67-0.91-0.96-2.3-1.25-3.38-1.25-1.03 0-1.77 0.18-2.41 0.51v-3.77c0-0.72-0.64-1.31-1.36-1.31zm3.38 6.75c0.72 0 1.3 0.23 1.68 0.66 0.4 0.41 0.65 1.07 0.65 2 0 0.74-0.19 1.32-0.5 1.77-0.35 0.53-0.95 0.86-1.69 0.86-0.57 0-1.15-0.16-1.56-0.61-0.41-0.48-0.6-1.05-0.6-2.07v-1.97c0.58-0.39 1.14-0.64 2.02-0.64z"/>
   <path d="m121.69 141.73c-1.56 0-2.84 0.51-3.71 1.5-0.72 0.83-1.15 1.98-1.15 3.42 0 1.63 0.54 2.82 1.32 3.67 0.9 0.94 2.22 1.23 3.29 1.23 0.97 0 1.9-0.25 2.56-0.7 0.22 0.45 0.7 0.7 1.24 0.7 0.73 0 1.35-0.56 1.35-1.32v-3.35c0-1.65-0.37-2.72-1.11-3.61-0.88-1.05-2.33-1.54-3.79-1.54zm0 2.37c0.58 0 1.15 0.16 1.56 0.63 0.4 0.46 0.62 1.2 0.62 2.23v1.77c-0.63 0.39-1.33 0.6-2.03 0.6-0.75 0-1.25-0.19-1.65-0.62-0.4-0.41-0.66-1.05-0.66-2 0-0.72 0.18-1.29 0.5-1.77 0.34-0.53 0.92-0.84 1.66-0.84z"/>
   <path d="m134.71 142.08c-0.48-0.23-1.12-0.37-1.89-0.37-1.74 0-3.1 0.47-3.88 1.48-0.53 0.68-0.82 1.57-0.82 2.78v4.24c0 0.75 0.59 1.32 1.35 1.32s1.36-0.57 1.36-1.32v-4.04c0-0.53 0.09-0.9 0.27-1.27 0.27-0.49 0.81-0.84 1.61-0.84 0.35 0 0.62 0.1 0.87 0.2 0.28 0.15 0.47 0.27 0.84 0.27 0.68 0 1.17-0.54 1.17-1.22 0-0.55-0.36-0.96-0.88-1.23"/>
   <path d="m142.66 142.08c-0.47-0.23-1.11-0.37-1.9-0.37-1.72 0-3.09 0.47-3.87 1.48-0.54 0.68-0.82 1.57-0.82 2.78v4.24c0 0.75 0.59 1.32 1.36 1.32 0.76 0 1.36-0.57 1.36-1.32v-4.04c0-0.53 0.08-0.9 0.26-1.27 0.27-0.49 0.81-0.84 1.61-0.84 0.35 0 0.62 0.1 0.86 0.2 0.29 0.15 0.48 0.27 0.85 0.27 0.68 0 1.17-0.54 1.17-1.22 0-0.55-0.37-0.96-0.88-1.23"/>
   <path d="m148.73 141.73c-1.56 0-2.84 0.51-3.7 1.5-0.72 0.83-1.16 1.98-1.16 3.42 0 1.63 0.54 2.82 1.32 3.67 0.91 0.94 2.23 1.23 3.29 1.23 0.98 0 1.9-0.25 2.56-0.7 0.23 0.45 0.7 0.7 1.24 0.7 0.73 0 1.36-0.56 1.36-1.32v-3.35c0-1.65-0.38-2.72-1.12-3.61-0.88-1.05-2.33-1.54-3.79-1.54zm0 2.37c0.58 0 1.16 0.16 1.57 0.63 0.39 0.46 0.62 1.2 0.62 2.23v1.77c-0.64 0.39-1.34 0.6-2.04 0.6-0.74 0-1.24-0.19-1.65-0.62-0.39-0.41-0.66-1.05-0.66-2 0-0.72 0.19-1.29 0.5-1.77 0.35-0.53 0.92-0.84 1.66-0.84z"/>
   <path d="m159.84 141.71c-1.67 0-3.05 0.49-3.85 1.5-0.54 0.68-0.83 1.56-0.83 2.78v4.24c0 0.73 0.59 1.32 1.36 1.32 0.76 0 1.35-0.59 1.35-1.32v-3.97c0-0.52 0.09-0.93 0.27-1.28 0.29-0.51 0.82-0.86 1.7-0.86 0.86 0 1.42 0.35 1.71 0.86 0.18 0.35 0.24 0.76 0.24 1.28v3.97c0 0.73 0.62 1.32 1.38 1.32 0.75 0 1.37-0.59 1.37-1.32v-4.24c0-1.22-0.29-2.1-0.86-2.78-0.78-1.01-2.15-1.5-3.84-1.5"/>
   <path d="m174.08 137.14c-0.73 0-1.38 0.59-1.38 1.31v3.77c-0.65-0.33-1.4-0.51-2.41-0.51-1.07 0-2.38 0.29-3.3 1.25-0.79 0.83-1.33 2.02-1.33 3.67 0 1.44 0.43 2.62 1.16 3.44 0.84 0.97 2.14 1.48 3.7 1.48 1.46 0 2.91-0.49 3.79-1.55 0.75-0.86 1.11-1.95 1.11-3.58v-7.97c0-0.72-0.62-1.31-1.34-1.31zm-3.39 6.75c0.89 0 1.44 0.25 2.01 0.64v1.97c0 1.02-0.18 1.59-0.6 2.07-0.41 0.45-0.98 0.61-1.55 0.61-0.75 0-1.35-0.33-1.69-0.86-0.31-0.45-0.49-1.03-0.49-1.77 0-0.93 0.23-1.59 0.63-2 0.39-0.43 0.98-0.66 1.69-0.66z"/>
   <path d="m181.64 141.73c-2.84 0-5.08 1.85-5.08 4.92s2.24 4.9 5.08 4.9c2.85 0 5.11-1.83 5.11-4.9s-2.26-4.92-5.11-4.92zm0 2.3c1.49 0 2.42 1.1 2.42 2.62 0 1.53-0.93 2.62-2.42 2.62-1.48 0-2.41-1.09-2.41-2.62 0-1.52 0.93-2.62 2.41-2.62z"/>
   <path d="m195.18 141.73c-0.74 0-1.15 0.47-1.32 1l-1.91 5.9h-0.09l-1.92-5.79c-0.14-0.48-0.42-1.11-1.25-1.11-0.96 0-1.5 0.57-1.5 1.32 0 0.24 0.08 0.59 0.26 1.05l2.19 5.74c0.41 1.12 0.97 1.71 2.13 1.71 1.15 0 1.77-0.61 2.19-1.71l2.06-5.69c0.14-0.39 0.27-0.85 0.27-1.12 0-0.72-0.24-1.3-1.11-1.3"/>
   <path d="m93.568 112.71-18.94 13.89 3.561 11.27-9.655-6.93-9.604 6.92 3.816-11.25-9.761-7.06 11.739-0.01s3.644-10.75 3.837-11.31c0.181 0.55 2.834 8.71 2.834 8.71 0.37 1.14 1.273 2.05 2.423 2.43 0.777 0.24 1.596 0.24 2.356 0 0.965-0.32 1.748-0.99 2.205-1.89 0.461-0.91 0.54-1.93 0.225-2.89l-6.426-19.774c-0.509-1.573-1.965-2.625-3.608-2.625h-0.005c-1.652 0-3.096 1.052-3.602 2.625l-5.592 17.144c-0.147 0-18.042 0.01-18.042 0.01-1.648 0-3.098 1.05-3.607 2.61-0.123 0.39-0.186 0.78-0.186 1.18 0 1.19 0.56 2.34 1.563 3.06 0 0 13.94 10.15 14.586 10.63-0.05 0.14-5.573 17.15-5.573 17.15-0.51 1.58 0.044 3.28 1.375 4.25 1.336 0.97 3.128 0.97 4.459-0.01l14.607-10.59 14.607 10.6c1.335 0.97 3.128 0.98 4.459 0.02 0 0 0.004-0.01 0.008-0.01 1.331-0.97 1.881-2.67 1.369-4.24l-5.563-17.16 14.59-10.61c1.024-0.73 1.564-1.9 1.564-3.07 0-0.77-0.233-1.55-0.72-2.23-1.23-1.69-3.61-2.07-5.299-0.84"/>
  </g>
  <g fill="#f0008c">
   <path d="m117.05 118.29 5.14 6.72c0.32 0.44 0.56 0.91 0.56 1.55 0 1.42-1.27 2.53-2.62 2.53-0.87 0-1.54-0.4-2.05-1.11l-4.67-6.45-2.18 1.9v3.13c0 1.38-1.22 2.53-2.61 2.53-1.46 0-2.61-1.15-2.61-2.53v-22.56c0-1.42 1.15-2.57 2.61-2.57s2.61 1.15 2.61 2.57v13.46l6.93-6.61c0.47-0.44 1.03-0.63 1.62-0.63 1.46 0 2.41 1.22 2.41 2.41 0 0.63-0.23 1.26-0.67 1.66l-4.47 4z"/>
   <path d="m128.44 110.22c1.47 0 2.62 1.14 2.62 2.53v13.81c0 1.38-1.23 2.53-2.62 2.53-1.46 0-2.61-1.15-2.61-2.53v-13.81c0-1.39 1.15-2.53 2.61-2.53"/>
   <path d="m125.44 102.58c0-1.66 1.34-3.009 3-3.009 1.67 0 3.01 1.349 3.01 3.009s-1.34 3.01-3.01 3.01c-1.66 0-3-1.35-3-3.01"/>
   <path d="m135.88 118.41c0-2.34 0.56-4.04 1.59-5.35 1.54-1.94 4.19-2.88 7.4-2.88 3.24 0 5.89 0.94 7.39 2.88 1.07 1.31 1.63 3.01 1.63 5.35v8.15c0 1.38-1.19 2.53-2.61 2.53-1.47 0-2.66-1.15-2.66-2.53v-7.64c0-0.99-0.11-1.78-0.47-2.45-0.55-0.99-1.62-1.66-3.28-1.66-1.67 0-2.7 0.67-3.25 1.66-0.36 0.67-0.51 1.46-0.51 2.45v7.64c0 1.38-1.15 2.53-2.61 2.53-1.47 0-2.62-1.15-2.62-2.53v-8.15z"/>
   <path d="m167.42 110.22c-5.46 0-9.77 3.56-9.77 9.45 0 5.9 4.31 9.42 9.77 9.42s9.81-3.52 9.81-9.42c0-5.89-4.35-9.45-9.81-9.45zm0 4.43c2.85 0 4.63 2.09 4.63 5.02s-1.78 5.03-4.63 5.03-4.63-2.1-4.63-5.03 1.78-5.02 4.63-5.02z"/>
  </g>
 </g>
</svg>
