<?xml version="1.0" encoding="UTF-8" standalone="no"?>
<!-- Created with Inkscape (http://www.inkscape.org/) -->

<svg
   xmlns:dc="http://purl.org/dc/elements/1.1/"
   xmlns:cc="http://creativecommons.org/ns#"
   xmlns:rdf="http://www.w3.org/1999/02/22-rdf-syntax-ns#"
   xmlns:svg="http://www.w3.org/2000/svg"
   xmlns="http://www.w3.org/2000/svg"
   version="1.1"
   width="482.47501"
   height="571.4809"
   viewBox="0 0 385.98 457.18472"
   id="svg3051">
  <metadata
     id="metadata3115">
    <rdf:RDF>
      <cc:Work
         rdf:about="">
        <dc:format>image/svg+xml</dc:format>
        <dc:type
           rdf:resource="http://purl.org/dc/dcmitype/StillImage" />
        <dc:title></dc:title>
      </cc:Work>
    </rdf:RDF>
  </metadata>
  <defs
     id="defs3113" />
  <path
     d="m 101.83,14.520106 c 39.64,-18.9799996 87.79,-19.1299996 127.47,-0.19 l 0.25,0.11 c 16.35,7.73 31.23,18.51 43.84,31.47 14.58,15 25.97,33.15 32.94,52.89 -5.29,28.230004 -10.57,56.460004 -16.04,84.660004 -21.83,-6.54 -43.64,-13.13 -65.43,-19.78 -0.18,6.16 -2.68,12.05 -7.05,16.4 21.84,12.42 43.56,25.08 65.39,37.51 -1.04,10.51 -3.65,20.8 -5.57,31.17 -8.95,9.52 -18.63,18.46 -29.7,25.49 -41.35359,15.3347 -37.95455,-28.07901 -18.09,10.02 -30.55,15.13 -66.58,18.24 -99.61,10.31 -30.31,-7.35 -58.11,-24.54 -78.24,-48.35 -19.05,-22.18 -31.21,-50.16 -34.56,-79.19 -2.93,-25.47 0.55,-51.71 10.59,-75.330004 13.97,-33.65 40.87,-61.64 73.81,-77.19 z"
     id="path3057"
     style="fill:#000000;fill-opacity:1" />
  <path
     d="M 229.55,14.440106 C 267.83,9.9001064 306.02,4.6801064 344.3,0.06010645 c 7.61,-0.5 15.67,2.11999995 20.9,7.83999995 4.12,4.1999996 5.55,10.5499996 3.85,16.1599996 -22.55,82.990004 -45.12,165.980004 -68.47,248.750004 -1.73,5.3 -2.36,11.65 -7.14,15.27 -6.29,4.86 -14.82,3.71 -22.08,2.2 -13.85,-1.88 -27.63,-4.46 -41.52,-6.01 -51.85072,-7.42349 -98.1429,-15.2004 -145.01,-21.1 -0.33,-3.66 -0.1,-7.34 0.34,-10.98 14.81,1.06 29.42,3.96 44.17,5.65 39.51,5.61 79.06,10.9 118.59,16.41 5.92,0.78 12.11,2.39 17.92,0.15 4.39,-1.28 7.79,-5.06 8.71,-9.52 1.06,-5.37 2.09,-10.74 3.07,-16.12 1.92,-10.37 4.53,-20.66 5.57,-31.17 l 0.005,0.0136 c 2.2,-11.36 5.02536,-22.76362 7.08536,-34.14362 5.47,-28.2 10.75,-56.43 16.04,-84.660004 2.05,-10.84 3.88,-21.72 5.9,-32.56 0.74,-4.67 1.77,-10.26 -1.65,-14.17 -4.65,-5.63 -12.41,-6.95 -19.28,-7.54 -5.99,0.1 -11.92,1.18 -17.91,1.38 C 260.78,32.950106 245.9,22.170106 229.55,14.440106 z"
     id="path3055"
     style="fill:#e81f27" />
  <path
     d="m 48.59,78.660106 c 22.01,12.51 43.92,25.230004 66.05,37.540004 -4.26,4.42 -7.09,10.3 -7.09,16.51 -24.21,-7.27 -48.4,-14.58 -72.66,-21.68 C 34.71,98.940106 40,87.090106 48.59,78.660106 z"
     id="path3061"
     style="fill:#fefefe" />
  <path
     d="m 159.4,100.08011 c 14.38,-1.940004 29.53,2.88 40.12,12.8 10.26,9.36 16.45,23.21 16.03,37.13 0.44,23.4 -18.3,45.15 -41.4,48.55 -15.6,2.87 -32.43,-2.56 -43.53,-13.87 -9.19,-9.03 -14.59,-21.8 -14.56,-34.69 -0.31,-13.66 5.52,-27.28 15.51,-36.58 7.54,-7.29 17.46,-11.93 27.83,-13.34 z"
     id="path3063"
     style="fill:#fefefe" />
  <path
     d="m 162.71,145.52011 c 3.46,-3 9.23,0.72 8.13,5.06 -0.81,4.05 -6.84,5.42 -9.1,1.88 -1.81,-2.07 -1.12,-5.34 0.97,-6.94 z"
     id="path3065"
     style="fill:#252021" />
  <path
     d="m 217.81,180.08011 c 4.37,-4.35 6.87,-10.24 7.05,-16.4 21.79,6.65 43.6,13.24 65.43,19.78 -1.98169,11.9394 -4.7002,24.59245 -7.09,34.13 -21.83,-12.43 -43.55,-25.09 -65.39,-37.51 z"
     id="path3067"
     style="fill:#fefefe" />
  <path
     d="m 51.31,329.80011 c 11.15,11.1 21.74,22.74 32.73,34 -0.05,-10.75 0.01,-21.5 -0.05,-32.25 1.56,-0.01 3.13,-0.01 4.71,0 -0.08,14.52 0.08,29.05 -0.08,43.58 -10.95,-11.09 -21.49,-22.58 -32.4,-33.71 -0.03,10.65 -0.01,21.3 -0.01,31.96 -1.66,-0.03 -3.33,-0.06 -5,-0.08 0.29,-14.49 0.1,-29 0.1,-43.5 z"
     id="path3071"
     style="fill:#ffffff" />
  <path
     d="m 206.505,330.16011 c -1.60905,0.0382 -3.21313,0.22437 -4.775,0.575 -8.66,1.5 -15.755,8.74 -17.475,17.3 -2.21,10.03 3.47,21.08 13,25 8.9,3.5 20.165,2.07 26.925,-5.05 7.62,-7.85 8.195,-21.605 0.875,-29.825 -4.485,-5.43563 -11.57745,-8.1658 -18.55,-8 z m 0.725,10.6 c 4.57922,0.11952 9.1025,3.1075 10.775,7.45 3.12,6.76 -2.285,15.585 -9.725,15.925 -6.44,0.94 -12.8,-4.56 -12.8,-11.05 -0.45,-4.89 2.73,-9.665 7.25,-11.425 1.435,-0.65 2.97359,-0.93984 4.5,-0.9 z"
     id="path3073"
     style="fill:#ffffff;fill-opacity:1" />
  <path
     d="m 0,331.63011 c 1.69,-0.04 3.38,-0.08 5.07,-0.11 -0.01,5.88 -0.04,11.76 0.02,17.64 5.78,-5.83 11.63,-11.6 17.33,-17.51 2.19,-0.08 4.38,-0.11 6.57,-0.11 -6.43,6.57 -13.12,12.89 -19.5,19.5 6.63,7.48 13.64,14.63 20.02,22.32 -2.11,-0.01 -4.21,-0.01 -6.32,-0.02 -5.76,-6.36 -11.47,-12.76 -17.16,-19.18 -0.22,0.45 -0.65,1.33 -0.87,1.77 -0.28,5.79 -0.01,11.6 -0.1,17.41 -1.67,-0.01 -3.33,-0.01 -5,-0.01 -0.03,-13.9 0.08,-27.8 -0.06,-41.7 z"
     id="path3075"
     style="fill:#ffffff" />
  <path
     d="m 118.505,330.76011 c -1.32614,0.0342 -2.63875,0.18624 -3.95,0.5 -10.64,2.03 -19.01,12.93 -17.3,23.8 0.84,7.78 6.345,14.65 13.575,17.5 6.9,3.04 15.2,1.62 21.2,-2.75 7.33,-5.23 10.71,-15.445 7.7,-23.975 -2.73875,-8.995 -11.94207,-15.3144 -21.225,-15.075 z m 0,4.4 c 8.64131,-0.1802 16.97875,6.86124 17.425,15.725 1.02,8.62 -5.57,17.155 -14.1,18.475 -9.36,1.89 -19.37,-5.76 -19.7,-15.35 -1.08,-8.16 4.795,-16.315 12.675,-18.325 1.225,-0.33625 2.46553,-0.49926 3.7,-0.525 z"
     id="path3077"
     style="fill:#ffffff;fill-opacity:1" />
  <path
     d="m 272.14,332.87011 c 6.64,-4.33 15.16,-2.24 21.81,0.94 -1.42,2.88 -2.9,5.72 -4.41,8.55 -2.67,-1.73 -5.96,-3.62 -9.21,-2.43 -2.25,0.69 -3.75,3.92 -1.35,5.46 4.16,2.46 9.45,2.53 13.23,5.76 3.71,3.12 3.76,8.6 2.82,12.98 -0.9,4.59 -4.82,7.99 -9.12,9.38 -7.23,2.13 -15.06,0.43 -21.31,-3.61 1.45,-3.06 3.07,-6.02 4.66,-9 3.36,2.51 7.57,5.31 11.95,3.92 2.56,-0.74 4.16,-4.55 1.66,-6.28 -4.97,-3.18 -12.69,-2.64 -15.59,-8.61 -2.22,-5.88 -0.73,-13.57 4.86,-17.06 z"
     id="path3079"
     style="fill:#ffffff" />
  <path
     d="m 302.17,331.65011 c 3.65,-0.15 7.31,-0.12 10.98,-0.12 0.11,5.67 0.05,11.35 0.05,17.02 4.49,-5.57 8.79,-11.29 13.14,-16.97 4.52,-0.03 9.05,-0.06 13.57,-0.01 -5.45,6.61 -10.98,13.15 -16.52,19.69 5.94,7.4 12.17,14.58 18,22.08 -4.71,0.02 -9.41,-0.02 -14.12,0 -4.67,-6 -9.31,-12.03 -14.05,-17.97 -0.08,6.01 0.11,12.02 -0.11,18.03 -3.65,-0.06 -7.3,-0.04 -10.95,-0.13 0.1,-13.87 0.08,-27.75 0.01,-41.62 z"
     id="path3081"
     style="fill:#ffffff" />
  <path
     d="m 35.81,331.51011 c 1.58,0.02 3.17,0.03 4.75,0.06 -0.07,13.91 -0.05,27.82 -0.02,41.73 -1.58,0.03 -3.15,0.06 -4.72,0.09 0,-13.96 0.02,-27.92 -0.01,-41.88 z"
     id="path3083"
     style="fill:#ffffff" />
  <path
     d="m 158.18,331.53511 c -3.3475,0.0113 -6.705,0.055 -10.05,0.05 0.01,13.92 0.03,27.83 0,41.75 3.68,0.02 7.345,0.025 11.025,-0.025 -0.03,-4.62 -0.16,-9.24 0.1,-13.85 5.38,0 11.445,0.775 16.075,-2.575 4.21,-3.24 5.205,-8.985 4.625,-13.975 -0.54,-5.89 -5.72,-11.19 -11.75,-11.25 -3.345,-0.13 -6.6775,-0.13625 -10.025,-0.125 z m 0.95,8.85 c 2.35,0.03 4.76,-0.155 7.05,0.475 3.31,1.84 3.36,7.415 0,9.225 -2.26,0.82 -4.71,0.535 -7.05,0.625 -0.03,-3.44 -0.02,-6.885 0,-10.325 z"
     id="path3085"
     style="fill:#ffffff;fill-opacity:1" />
  <path
     d="m 236.99,331.53011 c 3.65,0.03 7.29,0.03 10.94,-0.04 0.15,10.82 0.01,21.64 0.07,32.47 4.37,0 8.74,-0.1 13.1,0.08 0.02,3.1 0.02,6.2 0.04,9.3 -8.04,0.01 -16.08,-0.01 -24.12,0 -0.02,-13.94 0.03,-27.87 -0.03,-41.81 z"
     id="path3087"
     style="fill:#ffffff" />
  <path
     d="m 364.305,331.53511 c -2.01375,0.005 -4.015,0.03 -6.025,0.075 -5.38,13.89 -10.765,27.785 -16.025,41.725 3.81,-0.02 7.645,-0.025 11.475,0.075 1.05,-2.38 1.985,-4.8 2.875,-7.25 4.86,-0.09 9.715,-0.25 14.575,0 1.72,1.85 1.96,4.875 3.1,7.175 3.9,-0.01 7.8,0.005 11.7,0.025 -5.12,-13.97 -10.505,-27.84 -15.625,-41.8 -2.015,-0.025 -4.03625,-0.03 -6.05,-0.025 z m -0.15,13.25 c 1.71,4.25 2.96,8.665 4.5,12.975 -2.98,-0.02 -5.955,-0.005 -8.925,-0.025 1.46,-4.32 2.925,-8.65 4.425,-12.95 z"
     id="path3089"
     style="fill:#ffffff;fill-opacity:1" />
  <path
     d="m 4.53,388.34011 c 5.6,-7.96 17.07,-10.29 25.77,-6.47 3.84,1.71 6.61,4.98 8.91,8.39 2.88,-4.19 6.71,-8.17 11.84,-9.35 6.21,-1.47 13.35,-1.15 18.73,2.59 5.79,4.21 8.17,11.56 8.21,18.48 0.18,17.76 0.01,35.52 0.08,53.29 -7.28,0.01 -14.56,0.01 -21.84,0 -0.02,-15.75 -0.03,-31.49 0,-47.23 -0.08,-1.71 0.09,-3.51 -0.63,-5.11 -0.98,-1.44 -2.8,-0.72 -4.21,-0.71 -1.66,3.7 -1.21,7.8 -1.23,11.74 0,13.77 0,27.55 0,41.32 -7.34,-0.02 -14.68,0.02 -22.02,-0.02 0.05,-16.09 0,-32.18 0.03,-48.26 -0.04,-1.46 -0.01,-2.96 -0.54,-4.33 -1.24,-0.75 -2.74,-1.14 -4.02,-0.22 -1.48,1.83 -1.28,4.36 -1.42,6.57 0.04,15.42 0,30.83 0.03,46.25 -7.36,0.01 -14.71,0.01 -22.06,-0.01 0,-17.07 0.01,-34.15 -0.02,-51.22 -0.04,-5.49 1,-11.24 4.39,-15.7 z"
     id="path3099"
     style="fill:#ffffff" />
  <path
     d="m 339.78,387.56011 c 6.53,-6.74 16.63,-8.14 25.56,-7.19 5.93,0.54 12,3.05 15.57,8 4.32,5.91 4.96,13.55 4.97,20.64 -0.08,15.44 0.11,30.89 -0.09,46.33 -7.31,-0.14 -14.62,-0.03 -21.93,-0.07 0.03,-15.44 0.04,-30.87 0,-46.3 -0.21,-2.06 0.2,-4.57 -1.5,-6.09 -2.28,-1.83 -6.5,-1.06 -7.37,1.95 -1.17,4.38 -0.49,8.98 -0.61,13.46 2.04,0 4.09,0 6.15,0.02 -0.07,6.5 -0.04,13 -0.02,19.5 -2.05,-0.02 -4.09,-0.04 -6.13,-0.04 -0.06,5.83 -0.05,11.66 -0.01,17.49 -7.39,0.02 -14.79,0.01 -22.18,0 0.07,-15.41 -0.01,-30.83 0.04,-46.25 0.07,-7.68 1.83,-15.93 7.55,-21.45 z"
     id="path3101"
     style="fill:#ffffff" />
  <path
     d="m 84.36,381.88011 c 7.22,0.05 14.45,-0.04 21.67,0.06 -0.02,15 0.02,30.01 -0.02,45.01 0.07,2.54 -0.08,5.54 1.92,7.46 1.82,1.72 4.99,1.37 6.44,-0.66 0.91,-1.74 1.03,-3.76 1.08,-5.68 0.01,-15.4 -0.03,-30.8 0.02,-46.2 7.34,0.04 14.69,0.02 22.03,0.02 0,16.02 0,32.04 0,48.07 -0.11,6.92 -2.16,14.11 -7.07,19.19 -5.33,5.78 -13.43,8.37 -21.16,8 -7.09,0.17 -14.58,-2.3 -19.12,-7.97 -4.89,-5.86 -6.04,-13.79 -5.94,-21.18 0.1,-15.38 -0.18,-30.76 0.15,-46.12 z"
     id="path3103"
     style="fill:#ffffff" />
  <path
     d="m 143.05,381.90011 c 24.79,0.06 49.59,-0.14 74.37,0.07 4.03,4.3 6.49,10.09 9.91,14.97 3.28,-5.06 6.87,-9.93 10.06,-15.06 7.32,0.01 14.64,0.03 21.96,-0.01 -6.11,9.61 -12.19,19.24 -18.33,28.83 -1.17,1.93 -2.87,3.83 -2.54,6.27 0.04,12.76 -0.01,25.53 0.02,38.3 -7.32,-0.04 -14.63,0.12 -21.94,-0.1 0.15,-12.73 0.01,-25.45 0.08,-38.18 0.31,-2.32 -1.22,-4.16 -2.36,-5.99 -5.39,-8.2 -10.49,-16.59 -16.01,-24.7 -6.73,15.96 -13.84,31.76 -20.69,47.67 7.45,0.25 14.9,0.06 22.36,0.08 -0.08,7.11 0.16,14.22 -0.14,21.32 -18.44,-0.22 -36.89,-0.04 -55.34,-0.09 7.49,-17.41 15.15,-34.75 22.63,-52.16 -8,0.13 -16.01,0.01 -24.01,0.06 -0.04,-7.1 0.01,-14.19 -0.03,-21.28 z"
     id="path3105"
     style="fill:#ffffff" />
  <path
     d="m 262.88,381.88011 c 7.26,0.02 14.52,0.01 21.78,0 0.04,24.46 0,48.92 0.03,73.39 -7.27,0.02 -14.54,-0.01 -21.8,0.01 -0.03,-24.46 -0.01,-48.93 -0.01,-73.4 z"
     id="path3107"
     style="fill:#ffffff" />
  <path
     d="m 285.42,414.88011 c 6.05,-11.12 12.52,-22 18.75,-33.01 7.55,0.03 15.1,0.04 22.65,-0.02 -6.6,11.08 -12.89,22.34 -19.53,33.39 6.54,13.3 12.86,26.71 19.32,40.05 -8.2,-0.01 -16.41,-0.06 -24.61,0.04 -5.65,-13.44 -11.14,-26.94 -16.58,-40.45 z"
     id="path3109"
     style="fill:#ffffff" />
</svg>
