<?xml version="1.0" encoding="UTF-8" standalone="no"?>
<!-- Created with Inkscape (http://www.inkscape.org/) -->
<svg xmlns:rdf="http://www.w3.org/1999/02/22-rdf-syntax-ns#" xmlns="http://www.w3.org/2000/svg" height="540.86" width="600" version="1.1" xmlns:cc="http://creativecommons.org/ns#" xmlns:dc="http://purl.org/dc/elements/1.1/">
 <metadata>
  <rdf:RDF>
   <cc:Work rdf:about="">
    <dc:format>image/svg+xml</dc:format>
    <dc:type rdf:resource="http://purl.org/dc/dcmitype/StillImage"/>
    <dc:title/>
   </cc:Work>
  </rdf:RDF>
 </metadata>
 <path d="m403.15,353.11c-1.0204-8.8262-2.2958-21.53-2.2958-32.702,0-6.9384,0.91834-34.845,0.91834-57.344,0-18.979-4.0815-52.702-4.0815-71.017,0-11.019,0.81629-25.969-0.40815-31.223,8.7752-5.714,16.479-9.3363,40.662-24.03,7.8568-4.7447,22.856-12.754,22.856-22.397,0-4.2856-1.1734-7.0915-7.2446-12.091-4.2856-3.4182-8.8262-4.3876-13.979-4.3876-12.346,0-17.958,12.346-28.265,18.673-15.815,9.6424-24.183,14.438-27.397,16.224-1.3264-0.61222-6.6834-3.7753-15.305-3.7753-9.0302,0-19.54,4.0304-19.54,15.764,0,5.3569,1.6836,11.173-5.4589,14.948-4.0304,2.5509-23.673,13.775-44.59,26.377-17.601,10.662-25.816,9.7955-33.264,14.285-6.8364,4.1325-8.6731,9.2853-8.6731,13.775,0,3.9794,2.5509,8.9792,3.4182,10.101,4.7447,6.0712,8.9792,9.3363,16.428,9.3363,12.652,0,23.111-11.019,42.651-24.897,12.142-8.6732,23.316-17.652,29.845-17.652,5.8161,0,9.8975,4.3876,9.8975,22.499,0,60.559-3.7243,70.15-3.7243,112.18,0,7.5507,0.30611,21.53,0.56119,27.346h-32.112v-99.231l-61.834,52.14-61.834-52.14v99.231h-200.4v-353.12h195.09l67.14,70.66,67.14-70.66h196.06v150.96c-6.2242,9.5914-25.152,42.039-37.906,75.201-4.1835,10.815-6.1222,18.622-11.581,18.622-6.0712,0-6.5814-5.9691-7.1425-11.275-1.2244-11.632-3.8264-33.315-4.9997-41.274-2.3469-15.458-5.4079-31.784-22.652-31.784-12.805,0-26.173,6.9896-26.173,26.071,0,10.815,5.4589,29.642,14.846,54.385,3.6733,9.7445,23.316,61.222,26.173,68.671,5.1528,13.673,12.397,17.397,23.571,17.397,14.387,0,19.336-5.2549,25.254-25.407,4.9998-17.142,13.52-45.151,20.611-62.651v114.18h-122.29zm168.21-195.96,0,195.96-32.243,0,0-143.36c6.8875-14.948,23.52-41.121,32.243-52.599m-32.243-26.122,0-131.01,32.243,19.387,0,71.731c-7.9078,8.265-24.489,28.418-32.243,39.896m-259.12-98.88-17.76,18.673-48.11-50.611,61.02,26.836l4.8468,5.1018zm2.1428,274.94,22.244,0,6.0202-4.9998,0-18.775-28.265,23.775zm-68.059,46.019,26.53,0,0-47.447-26.53-22.346,0,69.793z" fill-rule="nonzero" fill="#FFF"/>
 <path d="m575.14,340.44,10.254,0,0,1.9387-4.0304,0,0,10.713-2.1938,0,0-10.713-4.0304,0,0-1.9387z" fill-rule="nonzero" fill="#FFF"/>
 <path d="m586.84,340.44,3.1121,0,3.5202,9.8975,0,0,3.4182-9.8975,3.1121,0,0,12.652-2.1428,0,0-9.7445,0,0-3.5202,9.7445-1.8367,0-3.5202-9.7445-0.051,0,0,9.7445-2.0917,0,0-12.652z" fill-rule="nonzero" fill="#FFF"/>
 <path d="m571.37,524.54c0,8.9792-7.3466,16.326-16.326,16.326h-538.7c-8.9792,0-16.326-7.3466-16.326-16.326v-130.61c0-8.9792,7.3466-16.326,16.326-16.326h538.7c8.9792,0,16.326,7.3466,16.326,16.326v130.6z" fill-rule="nonzero" fill="#f47920"/>
 <path d="m89.348,493.74c1.5815,0,2.959-0.20409,4.1835-0.66326,1.2244-0.40808,2.4489-1.0204,3.6733-1.8366l5.714-3.7754c0.96935-0.61217,2.0918-0.91825,3.4182-0.91825,2.0918,0,3.7753,1.0203,5.1018,3.01l0.35712,0.66327c0.81629,1.2754,1.1734,2.4489,1.1734,3.5202,0,0.96935-0.20407,1.8367-0.71425,2.755-0.45917,0.86736-1.3775,1.7346-2.653,2.602-0.96935,0.61217-1.7856,1.1223-2.4999,1.5815-0.66324,0.40818-1.7346,0.96935-3.1121,1.6836-2.0407,1.0203-4.1835,1.9387-6.5304,2.653-2.3469,0.76526-5.0508,1.1224-8.1119,1.1224s-5.9181-0.45917-8.6731-1.3775c-2.755-0.91835-5.2038-2.1938-7.4486-3.9284-2.1938-1.6836-4.0815-3.6733-5.714-5.9181-1.6836-2.2448-2.9081-4.7958-3.7753-7.6017-0.15305-0.56127-0.35713-1.2754-0.51018-1.9897-0.15305-0.76536-0.3061-1.6326-0.45917-2.704-0.15305-1.0204-0.20407-2.2959-0.25509-3.8264s-0.05102-3.4182-0.05102-5.663v-27.703c0-2.2959,0-4.1835,0.05102-5.7141,0.05102-1.4795,0.10204-2.806,0.25509-3.8263,0.15305-1.0714,0.3061-1.9387,0.45917-2.704,0.15305-0.71426,0.35713-1.3775,0.51018-1.9897,0.86732-2.704,2.0918-5.2038,3.7753-7.4997,1.6326-2.3469,3.5202-4.3366,5.714-6.0202,2.2448-1.6836,4.6937-3.01,7.4486-3.9284,2.755-0.91833,5.612-1.3775,8.6731-1.3775s5.7651,0.35712,8.1119,1.1224c2.3469,0.71426,4.4896,1.6326,6.5304,2.653,1.3775,0.71425,2.4489,1.2754,3.1121,1.7346,0.71425,0.40814,1.5305,0.91832,2.4999,1.5305,1.2754,0.86732,2.1938,1.7856,2.653,2.602,0.51018,0.91833,0.71425,1.7856,0.71425,2.755,0,1.0714-0.35713,2.2448-1.1734,3.5202l-0.35712,0.66324c-1.3264,1.9897-3.01,3.01-5.1018,3.01-1.3264,0-2.4489-0.30611-3.4182-0.91832l-5.714-3.7754c-1.2244-0.76527-2.4489-1.3775-3.6733-1.8367-1.2244-0.40814-2.602-0.66324-4.1835-0.66324-2.806,0-5.2548,0.76527-7.3976,2.2448-2.0918,1.4795-3.6733,3.4182-4.5917,5.8671-0.20407,0.45916-0.35713,0.86731-0.51018,1.3775-0.10203,0.45917-0.20407,1.1734-0.35713,1.9897-0.15305,0.91834-0.20407,1.9897-0.25509,3.3672-0.05102,1.3264-0.10203,3.01-0.10203,4.9998v29.285c0,1.9897,0.05102,3.6733,0.10203,4.9997,0.05102,1.3775,0.10204,2.4489,0.25509,3.3672,0.15305,0.86736,0.25509,1.5305,0.35713,2.0918,0.15305,0.51017,0.3061,0.91825,0.51018,1.2754,0.91833,2.4489,2.4999,4.4386,4.5917,5.8671,2.1428,1.4795,4.5917,2.2448,7.3976,2.2448" fill-rule="nonzero" fill="#040000"/>
 <path d="m175.25,502.74c-1.1224,1.1224-2.5509,1.6836-4.1835,1.6836h-33.621c-1.6326,0-3.01-0.56117-4.1325-1.6836-1.1224-1.1224-1.6836-2.4999-1.6836-4.1835v-78.619c0-1.6326,0.5612-3.061,1.6836-4.1835,1.1224-1.1223,2.4999-1.6836,4.1325-1.6836h2.0918c1.6326,0,3.01,0.56121,4.1325,1.6836,1.1224,1.1224,1.6836,2.5509,1.6836,4.1835v68.416c0,1.0714,0.35713,1.9387,1.1224,2.653,0.71425,0.66327,1.6326,1.0204,2.653,1.0204h21.938c1.6326,0,3.061,0.56127,4.1835,1.7346,1.1224,1.1224,1.6836,2.5,1.6836,4.1325v0.66327c0,1.6836-0.5612,3.061-1.6836,4.1835" fill-rule="nonzero" fill="#040000"/>
 <path d="m222.4,425.25c-0.15305-1.1224-0.76527-1.6836-1.6836-1.6836-0.96934,0-1.5305,0.5612-1.7346,1.6836l-8.8772,44.284c-0.15307,0.86735-0.2551,1.5305-0.2551,1.9387,0,0.51017,0.20408,0.96935,0.51018,1.3775,0.35714,0.40808,0.96935,0.61217,1.8367,0.61217h16.989c0.86732,0,1.4795-0.20409,1.8367-0.61217,0.35713-0.40818,0.51018-0.86736,0.51018-1.3775,0-0.40818-0.10203-1.0714-0.25509-1.9387l-8.8772-44.284zm12.805,63.875c-0.20407-1.0714-0.61222-1.9897-1.3264-2.755-0.66323-0.76526-1.5815-1.1734-2.755-1.1734h-20.867c-1.1224,0-2.0407,0.40818-2.755,1.1734-0.71426,0.76527-1.1224,1.6836-1.2754,2.755l-2.0917,10.56c-0.35713,1.7346-1.0714,3.1121-2.0918,4.0305-1.0713,0.96935-2.3979,1.4795-4.0815,1.4795h-0.35713c-1.5815,0-3.01-0.40818-4.2856-1.2755-1.2244-0.81626-1.8877-2.2448-1.8877-4.2345,0-0.40808,0.051-0.81626,0.10204-1.1734,0-0.35708,0.10203-0.71426,0.15305-1.1733l15.305-75.609c0.51018-2.4999,1.6326-4.7447,3.3672-6.5814,1.7856-1.8877,4.0304-2.806,6.8365-2.806h7.0405c2.755,0,5.0508,0.91832,6.7855,2.806,1.7346,1.8367,2.857,4.0815,3.3672,6.5814l15.305,75.609c0.10204,0.45908,0.15305,0.81626,0.20407,1.1733,0.051,0.35718,0.051,0.76536,0.051,1.1734,0,1.9897-0.61222,3.4182-1.8877,4.2345-1.2754,0.86735-2.704,1.2755-4.2345,1.2755h-0.40814c-1.6326,0-3.01-0.51017-4.0304-1.4795-1.0713-0.91836-1.7346-2.2959-2.0917-4.0305l-2.0918-10.56z" fill-rule="nonzero" fill="#040000"/>
 <path d="m300.23,471.34c-0.61221-0.61227-1.3264-1.1734-2.1428-1.6836-0.81629-0.51017-2.3979-1.4285-4.6427-2.653l-9.6935-5.2038c-2.602-1.4795-4.3876-2.4999-5.4079-3.1121-0.96935-0.61217-1.8877-1.2754-2.653-1.9897-2.806-2.3468-4.9488-5.1528-6.4793-8.469s-2.2958-6.7855-2.2958-10.458c0-3.5713,0.71425-6.8874,2.0917-9.9995,1.3775-3.061,3.2651-5.7651,5.612-8.0609,2.3469-2.3469,5.1018-4.1325,8.1629-5.4589,3.1121-1.2754,6.3263-1.9387,9.7445-1.9387,3.061,0,5.7651,0.35712,8.1119,1.1224,2.3469,0.71426,4.4896,1.6326,6.5304,2.653,1.3775,0.71426,2.3979,1.2754,3.1122,1.6836,0.71425,0.45915,1.5305,0.96934,2.4999,1.5815,1.2754,0.86731,2.1938,1.7346,2.653,2.602,0.51019,0.86732,0.71426,1.7856,0.71426,2.755,0,1.0713-0.35712,2.2448-1.1734,3.5202l-0.35712,0.66323c-1.3264,1.9897-3.01,3.01-5.1018,3.01-1.3264,0-2.4489-0.30611-3.4182-0.91833-0.40815-0.25509-1.1734-0.76527-2.1428-1.4285-1.0204-0.71425-2.1938-1.4795-3.6223-2.3469-1.1734-0.81629-2.3979-1.3775-3.6223-1.8367-1.2244-0.45916-2.602-0.66323-4.1835-0.66323-1.6326,0-3.2141,0.35713-4.6937,1.0713-1.4795,0.66324-2.755,1.5815-3.8774,2.704-1.0714,1.1734-1.9387,2.4999-2.602,4.0815-0.66324,1.5305-0.96935,3.1631-0.96935,4.7958,0,1.7856,0.35713,3.3672,1.1224,4.7957,0.71426,1.4285,1.6836,2.755,2.908,3.9794,0.35713,0.35708,0.86731,0.76526,1.5815,1.2244,0.71426,0.51017,2.1938,1.3264,4.4386,2.5509l8.8772,4.8468c2.602,1.4795,4.5917,2.602,5.8671,3.3672,1.3264,0.81626,2.3469,1.5305,3.1631,2.2448,2.8571,2.4489,5.1018,5.3569,6.7855,8.8262,1.6326,3.4182,2.4489,7.0915,2.4489,11.019,0,3.6733-0.71427,7.0915-2.1428,10.254-1.4285,3.1631-3.3672,5.9181-5.714,8.214-2.3979,2.3468-5.2038,4.1325-8.367,5.4079-3.2141,1.3264-6.5304,1.9897-9.9995,1.9897-3.061,0-5.7651-0.35718-8.1119-1.1224-2.3469-0.71426-4.5407-1.6325-6.5304-2.6529-1.3775-0.71427-2.4489-1.2755-3.1121-1.7347-0.71425-0.40808-1.5305-0.91826-2.4999-1.5305-1.3264-0.86725-2.1938-1.7346-2.653-2.6019-0.51018-0.91836-0.71426-1.7857-0.71426-2.7551,0-1.0713,0.35713-2.2448,1.1734-3.5202l0.35713-0.66326c1.3264-1.9897,3.01-3.01,5.1018-3.01,1.3264,0,2.4489,0.30608,3.4182,0.91835l5.714,3.7753c1.2244,0.76526,2.4489,1.3775,3.6733,1.8367,1.2244,0.40808,2.602,0.66316,4.1835,0.66316,1.7346,0,3.3672-0.35708,4.9488-1.0713,1.5815-0.66327,2.959-1.6326,4.1325-2.8061,1.1734-1.1733,2.0918-2.5509,2.755-4.1835,0.61222-1.5815,0.96935-3.2651,0.96935-4.9997,0-3.5713-1.3264-6.6834-3.9284-9.2853" fill-rule="nonzero" fill="#040000"/>
 <path d="m373.1,471.34c-0.61222-0.61227-1.3264-1.1734-2.1428-1.6836-0.81628-0.51017-2.3979-1.4285-4.6427-2.653l-9.6935-5.2038c-2.602-1.4795-4.3876-2.4999-5.4079-3.1121-0.96935-0.61217-1.8877-1.2754-2.653-1.9897-2.806-2.3468-4.9488-5.1528-6.4793-8.469s-2.2958-6.7855-2.2958-10.458c0-3.5713,0.71426-6.8874,2.0917-9.9995,1.3775-3.061,3.2651-5.7651,5.612-8.0609,2.3469-2.3469,5.1018-4.1325,8.1629-5.4589,3.1121-1.2754,6.3263-1.9387,9.7445-1.9387,3.061,0,5.7651,0.35712,8.1119,1.1224,2.3469,0.71426,4.4896,1.6326,6.5304,2.653,1.3775,0.71426,2.3979,1.2754,3.1121,1.6836,0.71425,0.45915,1.5305,0.96934,2.4999,1.5815,1.2754,0.86731,2.1938,1.7346,2.653,2.602,0.51018,0.86732,0.71425,1.7856,0.71425,2.755,0,1.0713-0.35712,2.2448-1.1734,3.5202l-0.35712,0.66323c-1.3264,1.9897-3.01,3.01-5.1018,3.01-1.3264,0-2.4489-0.30611-3.4182-0.91833-0.40815-0.25509-1.1734-0.76527-2.1428-1.4285-1.0204-0.71425-2.1938-1.4795-3.5713-2.3469-1.2244-0.81629-2.4489-1.3775-3.6733-1.8367-1.2244-0.45916-2.602-0.66323-4.1835-0.66323-1.6326,0-3.2141,0.35713-4.6937,1.0713-1.4795,0.66324-2.755,1.5815-3.8774,2.704-1.0714,1.1734-1.9387,2.4999-2.602,4.0815-0.66323,1.5305-0.96935,3.1631-0.96935,4.7958,0,1.7856,0.35713,3.3672,1.1224,4.7957,0.71426,1.4285,1.6836,2.755,2.9081,3.9794,0.35712,0.35708,0.8673,0.76526,1.5815,1.2244,0.71425,0.51017,2.1938,1.3264,4.4386,2.5509l8.8772,4.8468c2.602,1.4795,4.5917,2.602,5.8671,3.3672,1.3264,0.81626,2.3469,1.5305,3.1631,2.2448,2.857,2.4489,5.1018,5.3569,6.7854,8.8262,1.6326,3.4182,2.4489,7.0915,2.4489,11.019,0,3.6733-0.71427,7.0915-2.1428,10.254-1.4285,3.1631-3.3672,5.9181-5.714,8.214-2.3979,2.3468-5.2038,4.1325-8.367,5.4079-3.2141,1.3264-6.5304,1.9897-9.9995,1.9897-3.061,0-5.7651-0.35718-8.1119-1.1224-2.3469-0.71426-4.5407-1.6325-6.5304-2.6529-1.3775-0.71427-2.4489-1.2755-3.1122-1.7347-0.71425-0.40808-1.5305-0.91826-2.4999-1.5305-1.2754-0.86725-2.1938-1.7346-2.653-2.6019-0.51019-0.91836-0.71427-1.7857-0.71427-2.7551,0-1.0713,0.35713-2.2448,1.1734-3.5202l0.35713-0.66326c1.3264-1.9897,3.01-3.01,5.1018-3.01,1.3264,0,2.4489,0.30608,3.4182,0.91835l5.714,3.7753c1.2244,0.76526,2.4489,1.3775,3.6733,1.8367,1.2244,0.40808,2.602,0.66316,4.1835,0.66316,1.7346,0,3.4182-0.35708,4.9488-1.0713,1.5815-0.66327,2.959-1.6326,4.1325-2.8061,1.1734-1.1733,2.0918-2.5509,2.755-4.1835,0.61222-1.5815,0.96934-3.2651,0.96934-4.9997,0-3.5713-1.3264-6.6834-3.9284-9.2853" fill-rule="nonzero" fill="#040000"/>
 <path d="m428.02,502.74c-1.0714,1.1224-2.4489,1.6836-4.1325,1.6836h-2.0917c-1.6326,0-3.01-0.56117-4.1325-1.6836-1.1734-1.1224-1.7346-2.4999-1.7346-4.1835v-78.619c0-1.6326,0.5612-3.061,1.7346-4.1835,1.1224-1.1223,2.4999-1.6836,4.1325-1.6836h2.0917c1.6836,0,3.061,0.56121,4.1325,1.6836,1.0713,1.1224,1.6326,2.5509,1.6326,4.1835v78.619c0,1.6836-0.5612,3.061-1.6326,4.1835" fill-rule="nonzero" fill="#040000"/>
 <path d="m485.28,493.74c1.5815,0,2.959-0.20409,4.1835-0.66326,1.2244-0.40808,2.4489-1.0204,3.6733-1.8366l5.714-3.7754c0.96935-0.61217,2.0918-0.91825,3.4182-0.91825,2.0917,0,3.7753,1.0203,5.1018,3.01l0.35713,0.66327c0.81629,1.2754,1.1734,2.4489,1.1734,3.5202,0,0.96935-0.20407,1.8367-0.71425,2.755-0.45917,0.86736-1.3775,1.7346-2.653,2.602-0.96934,0.61217-1.7856,1.1223-2.4999,1.5815-0.66324,0.40818-1.7346,0.96935-3.1121,1.6836-2.0407,1.0203-4.1835,1.9387-6.5304,2.653-2.3469,0.76526-5.0508,1.1224-8.1119,1.1224-3.061,0-5.9181-0.45917-8.6731-1.3775-2.755-0.91835-5.2549-2.1938-7.4486-3.9284-2.1938-1.6836-4.0815-3.6733-5.714-5.9181-1.6836-2.2448-2.908-4.7958-3.7753-7.6017-0.15306-0.56127-0.35713-1.2754-0.51018-1.9897-0.15305-0.76536-0.30611-1.6326-0.45917-2.704-0.15305-1.0204-0.20407-2.2959-0.25508-3.8264-0.051-1.5305-0.051-3.4182-0.051-5.663v-27.703c0-2.2959,0-4.1835,0.051-5.7141,0.051-1.4795,0.10203-2.806,0.25508-3.8263,0.15306-1.0714,0.30612-1.9387,0.45917-2.704,0.15305-0.71426,0.35712-1.3775,0.51018-1.9897,0.86731-2.704,2.0917-5.2038,3.7753-7.4997,1.6326-2.3469,3.5202-4.3366,5.714-6.0202s4.6937-3.01,7.4486-3.9284c2.755-0.91833,5.612-1.3775,8.6731-1.3775,3.061,0,5.7651,0.35712,8.1119,1.1224,2.3469,0.71426,4.4896,1.6326,6.5304,2.653,1.3775,0.71425,2.4489,1.2754,3.1121,1.7346,0.71425,0.40814,1.5305,0.91832,2.4999,1.5305,1.2754,0.86732,2.1938,1.7856,2.653,2.602,0.51018,0.91833,0.71425,1.7856,0.71425,2.755,0,1.0714-0.35713,2.2448-1.1734,3.5202l-0.35713,0.66324c-1.3264,1.9897-3.01,3.01-5.1018,3.01-1.3264,0-2.4489-0.30611-3.4182-0.91832l-5.714-3.7754c-1.2244-0.76527-2.4489-1.3775-3.6733-1.8367-1.2244-0.40814-2.602-0.66324-4.1835-0.66324-2.8061,0-5.2549,0.76527-7.3976,2.2448-2.0918,1.4795-3.6733,3.4182-4.5917,5.8671-0.20407,0.45916-0.35713,0.86731-0.51019,1.3775-0.10203,0.45917-0.25509,1.1734-0.35712,1.9897-0.15305,0.91834-0.20408,1.9897-0.2551,3.3672-0.051,1.3264-0.10203,3.01-0.10203,4.9998v29.285c0,1.9897,0.051,3.6733,0.10203,4.9997,0.051,1.3775,0.10205,2.4489,0.2551,3.3672,0.10203,0.86736,0.25509,1.5305,0.35712,2.0918,0.15306,0.51017,0.30612,0.91825,0.51019,1.2754,0.91833,2.4489,2.4999,4.4386,4.5917,5.8671,2.1428,1.4795,4.5917,2.2448,7.3976,2.2448" fill-rule="nonzero" fill="#040000"/>
</svg>
