<?xml version="1.0" encoding="UTF-8" standalone="no"?>
<!-- Created with Inkscape (http://www.inkscape.org/) -->
<svg xmlns:rdf="http://www.w3.org/1999/02/22-rdf-syntax-ns#" xmlns="http://www.w3.org/2000/svg" height="540.85" width="600" version="1.1" xmlns:cc="http://creativecommons.org/ns#" xmlns:dc="http://purl.org/dc/elements/1.1/">
 <metadata>
  <rdf:RDF>
   <cc:Work rdf:about="">
    <dc:format>image/svg+xml</dc:format>
    <dc:type rdf:resource="http://purl.org/dc/dcmitype/StillImage"/>
    <dc:title/>
   </cc:Work>
  </rdf:RDF>
 </metadata>
 <path d="m403.15,353.1c-1.0203-8.8263-2.2959-21.53-2.2959-32.703,0-6.9386,0.91834-34.846,0.91834-57.345,0-18.979-4.0815-52.702-4.0815-71.018,0-11.02,0.81629-25.969-0.40816-31.223,8.7752-5.7141,16.479-9.3365,40.662-24.03,7.8569-4.7447,22.857-12.754,22.857-22.398,0-4.2856-1.1734-7.0916-7.2447-12.091-4.2856-3.4182-8.8263-4.3877-13.979-4.3877-12.346,0-17.959,12.346-28.264,18.673-15.816,9.6426-24.183,14.438-27.397,16.224-1.3265-0.61223-6.6834-3.7754-15.306-3.7754-9.0303,0-19.54,4.0305-19.54,15.765,0,5.357,1.6836,11.173-5.459,14.948-4.0305,2.551-23.673,13.775-44.59,26.377-17.601,10.663-25.816,9.7956-33.264,14.285-6.8365,4.1326-8.6732,9.2855-8.6732,13.775,0,3.9795,2.551,8.9793,3.4183,10.101,4.7447,6.0713,8.9793,9.3365,16.428,9.3365,12.652,0,23.112-11.02,42.652-24.898,12.142-8.6732,23.316-17.653,29.846-17.653,5.8162,0,9.8976,4.3877,9.8976,22.5,0,60.56-3.7244,70.151-3.7244,112.19,0,7.5508,0.30611,21.53,0.5612,27.346h-32.091v-99.231l-61.835,52.141-61.835-52.141v99.231h-200.42v-353.11h195.1l67.141,70.661,67.14-70.661h196.07v150.96c-6.2242,9.5916-25.153,42.04-37.907,75.202-4.1836,10.816-6.1222,18.622-11.581,18.622-6.0712,0-6.5814-5.9182-7.1426-11.275-1.2244-11.632-3.8264-33.315-5.0509-41.275-2.2959-15.459-5.357-31.785-22.602-31.785-12.805,0-26.173,6.9896-26.173,26.071,0,10.816,5.459,29.642,14.846,54.386,3.6734,9.7446,23.316,61.223,26.173,68.671,5.1529,13.724,12.346,17.397,23.571,17.397,14.387,0,19.336-5.2549,25.255-25.408,4.9998-17.142,13.52-45.151,20.612-62.651v114.18h-122.29zm168.21-195.96,0,195.96-32.244,0,0-143.36c6.8875-14.948,23.52-41.121,32.244-52.6m-32.244-26.122,0-131.01,32.244,19.387,0,71.733c-7.908,8.265-24.489,28.417-32.244,39.897m-259.13-98.887-17.76,18.673-48.11-50.561,61.02,26.785l4.8468,5.1019zm2.1428,274.99,22.244,0,6.0203-5.0509,0-18.775-28.264,23.826zm-68.059,45.968,26.53,0,0-47.447-26.53-22.347,0,69.794z" fill-rule="nonzero" fill="#FFF"/>
 <path d="m575.15,340.44,10.254,0,0,1.9387-4.0305,0,0,10.714-2.1938,0,0-10.714-4.0305,0,0-1.9387z" fill-rule="nonzero" fill="#FFF"/>
 <path d="m586.84,340.44,3.1121,0,3.5203,9.8976,0,0,3.4183-9.8976,3.1121,0,0,12.652-2.1428,0,0-9.7446,0,0-3.5203,9.7446-1.8367,0-3.5203-9.7446-0.051,0,0,9.7446-2.0918,0,0-12.652z" fill-rule="nonzero" fill="#FFF"/>
 <path d="m571.38,524.53c0,8.9793-7.3467,16.326-16.326,16.326h-538.71c-8.9793,0-16.326-7.3467-16.326-16.326v-130.62c0-8.9793,7.3467-16.326,16.326-16.326h538.71c8.9793,0,16.326,7.3467,16.326,16.326v130.61z" fill-rule="nonzero" fill="#8f53a1"/>
 <path d="m130.36,492.03c2.806,0,5.2549-0.76526,7.3978-2.2449,2.1428-1.4795,3.7244-3.4182,4.6937-5.8672,0.15305-0.35708,0.30611-0.76526,0.45917-1.2754,0.10203-0.56117,0.25509-1.2244,0.35713-2.0918,0.15306-0.86735,0.25509-1.9897,0.30611-3.3672,0.051-1.3265,0.051-3.0101,0.051-4.9998v-25.867c0-1.9897,0-3.6733-0.051-5.0508-0.051-1.3265-0.15305-2.4489-0.30611-3.3162-0.10204-0.86732-0.2551-1.5305-0.35713-1.9897-0.15306-0.51019-0.30612-0.96935-0.45917-1.3775-0.96936-2.4489-2.551-4.4386-4.6937-5.9182-2.1428-1.4795-4.5917-2.1938-7.3978-2.1938h-9.3365c-1.0203,0-1.9387,0.35713-2.653,1.0203-0.76529,0.71426-1.1224,1.5816-1.1224,2.653v58.213c0,1.0714,0.35713,1.9388,1.1224,2.602,0.71426,0.71426,1.6326,1.0714,2.653,1.0714h9.3365zm-20.969,12.397c-1.6326,0-3.0611-0.56127-4.1836-1.6836-1.1224-1.1224-1.6836-2.551-1.6836-4.1836v-78.62c0-1.6836,0.56121-3.0611,1.6836-4.1836,1.1224-1.1224,2.551-1.6836,4.1836-1.6836h20.969c3.0611,0,5.9182,0.45916,8.6732,1.3775,2.704,0.86732,5.2039,2.1938,7.3978,3.8774,2.2449,1.7346,4.1836,3.7244,5.8162,6.0203s2.908,4.7957,3.7754,7.4998c0.20407,0.61223,0.35713,1.3265,0.51019,2.0408,0.20407,0.71426,0.35713,1.6326,0.45916,2.653,0.15306,1.0714,0.2551,2.3469,0.2551,3.8775,0.051,1.5305,0.10203,3.4182,0.10203,5.6631v24.317c0,2.2449-0.051,4.1326-0.10203,5.6631,0,1.5306-0.10204,2.806-0.2551,3.8265-0.10203,1.0713-0.25509,1.9387-0.45916,2.704-0.15306,0.71426-0.30612,1.4285-0.51019,2.0408-0.86732,2.755-2.1428,5.3059-3.7754,7.5508s-3.5713,4.2346-5.8162,5.9182c-2.1938,1.7347-4.6937,3.0101-7.3978,3.9285-2.755,0.91835-5.6121,1.3775-8.6732,1.3775h-20.969z" fill-rule="nonzero" fill="#040000"/>
 <path d="m213.36,425.25c-0.15306-1.1224-0.76529-1.6836-1.6836-1.6836-0.96936,0-1.5305,0.56121-1.7346,1.6836l-8.8773,44.284c-0.15307,0.86735-0.2551,1.5305-0.2551,1.9387,0,0.56127,0.20408,0.96935,0.51019,1.3775,0.35713,0.40818,0.96936,0.61227,1.8367,0.61227h16.989c0.86732,0,1.4795-0.20409,1.8367-0.61227,0.35712-0.40817,0.51019-0.81625,0.51019-1.3775,0-0.40818-0.10205-1.0713-0.2551-1.9387l-8.8773-44.284zm12.805,63.875c-0.20408-1.0713-0.61223-1.9897-1.3265-2.7549-0.66324-0.76536-1.5816-1.1734-2.755-1.1734h-20.865c-1.1224,0-2.0408,0.40807-2.755,1.1734-0.71426,0.76526-1.1224,1.6836-1.2754,2.7549l-2.0918,10.561c-0.35713,1.7347-1.0714,3.1121-2.0918,4.0816-1.0714,0.91835-2.3979,1.4285-4.0815,1.4285h-0.35713c-1.5816,0-3.0101-0.40818-4.2856-1.2755-1.2244-0.81625-1.8877-2.1938-1.8877-4.2346,0-0.40808,0.051-0.81626,0.10204-1.1734,0-0.35707,0.10204-0.71425,0.15305-1.1734l15.306-75.61c0.51019-2.551,1.6326-4.7447,3.3672-6.5814,1.7857-1.8877,4.0305-2.806,6.8365-2.806h7.0406c2.755,0,5.0509,0.91834,6.7855,2.806,1.7346,1.8367,2.857,4.0305,3.3672,6.5814l15.306,75.61c0.10205,0.45918,0.15306,0.81636,0.20408,1.1734,0.051,0.35718,0.051,0.76536,0.051,1.1734,0,2.0408-0.61223,3.4183-1.8877,4.2346-1.2754,0.86735-2.704,1.2755-4.2346,1.2755h-0.40815c-1.6326,0-3.0101-0.51017-4.0305-1.4285-1.0714-0.96945-1.7346-2.3469-2.0918-4.0816l-2.0918-10.561z" fill-rule="nonzero" fill="#040000"/>
 <path d="m283.85,460.13c-1.2244-2.9591-2.0408-5.2039-2.3979-6.6834-0.40815-1.4796-0.96936-2.1939-1.6326-2.1939-0.81629,0-1.1734,0.66326-1.1734,1.9387,0,0.61227,0,1.4286,0.10203,2.449,0.10204,0.96935,0.15305,2.755,0.15305,5.2549v37.652c0,1.6326-0.5612,3.0101-1.6836,4.1836-1.1734,1.1224-2.551,1.6836-4.1836,1.6836h-1.9897c-1.6326,0-3.0611-0.56117-4.1836-1.6836-1.1224-1.1734-1.6836-2.551-1.6836-4.1836v-78.62c0-1.6836,0.56121-3.0611,1.6836-4.1836,1.1224-1.1734,2.551-1.7346,4.1836-1.7346h1.1734c1.5816,0,3.0611,0.35714,4.4386,1.0714,1.4285,0.71426,2.5,1.9897,3.2652,3.9285l16.836,39.285c1.2244,2.9591,2.0408,5.2039,2.4489,6.6835,0.40815,1.4795,0.91835,2.1938,1.6326,2.1938,0.76528,0,1.1734-0.61226,1.1734-1.9387,0-0.61226-0.051-1.4285-0.15306-2.449-0.051-0.96934-0.10204-2.7549-0.10204-5.2549v-37.601c0-1.6836,0.56121-3.0611,1.6836-4.1836,1.1224-1.1734,2.551-1.7346,4.1836-1.7346h1.9387c1.6836,0,3.0611,0.56121,4.1836,1.7346,1.1224,1.1224,1.6836,2.5,1.6836,4.1836v78.62c0,1.6326-0.56121,3.0101-1.6836,4.1836-1.1224,1.1224-2.5,1.6836-4.1836,1.6836h-1.1734c-1.5305,0-3.0101-0.35708-4.4386-1.0713-1.3775-0.66326-2.4489-1.9898-3.2652-3.9285l-16.836-39.285z" fill-rule="nonzero" fill="#040000"/>
 <path d="m371.09,493.73c1.5816,0,2.9591-0.20409,4.1836-0.66327,1.2244-0.40817,2.4489-1.0203,3.6734-1.8367l5.7141-3.7754c0.96936-0.61217,2.0918-0.91835,3.4183-0.91835,2.0918,0,3.7754,1.0204,5.1019,3.0101l0.35713,0.66326c0.8163,1.2754,1.1734,2.4489,1.1734,3.5203,0,0.96934-0.20408,1.8877-0.71426,2.755-0.45917,0.86725-1.3775,1.7346-2.653,2.602-0.96936,0.61217-1.7857,1.1224-2.5,1.5816-0.66325,0.40808-1.7346,0.96935-3.1121,1.6836-2.0408,1.0203-4.1836,1.9387-6.5304,2.653-2.3469,0.76526-5.0509,1.1224-8.1119,1.1224-3.0611,0-5.9182-0.45918-8.6732-1.3775-2.755-0.91834-5.2039-2.1938-7.4488-3.9285-2.1938-1.6836-4.0815-3.6733-5.7141-5.9182-1.6836-2.2449-2.908-4.7957-3.7754-7.5508-0.15305-0.61226-0.35713-1.3265-0.51019-2.0408-0.15306-0.76526-0.30612-1.6326-0.45917-2.704-0.15306-1.0204-0.20408-2.2959-0.25509-3.8265-0.051-1.5305-0.051-3.4182-0.051-5.6631v-27.703c0-2.2958,0-4.1835,0.051-5.7141,0.051-1.4795,0.10203-2.806,0.25509-3.8264,0.15305-1.0714,0.30611-1.9387,0.45917-2.653,0.15306-0.76528,0.35714-1.4285,0.51019-2.0408,0.86732-2.704,2.0918-5.2039,3.7754-7.5508,1.6326-2.2959,3.5203-4.2856,5.7141-5.9692,2.2449-1.6836,4.6937-3.0101,7.4488-3.9285,2.755-0.91834,5.6121-1.3775,8.6732-1.3775s5.7651,0.35713,8.1119,1.1224c2.3469,0.71426,4.4896,1.6326,6.5304,2.653,1.3775,0.71426,2.4489,1.2754,3.1121,1.7346,0.71426,0.40814,1.5305,0.91833,2.5,1.5305,1.2754,0.86732,2.1938,1.7857,2.653,2.653,0.51018,0.86732,0.71426,1.7857,0.71426,2.704,0,1.0713-0.35713,2.2449-1.1734,3.5203l-0.35713,0.66324c-1.3265,1.9897-3.0101,3.0101-5.1019,3.0101-1.3265,0-2.4489-0.30611-3.4183-0.91834l-5.7141-3.7754c-1.2244-0.76528-2.4489-1.3775-3.6734-1.8367-1.2244-0.40815-2.602-0.66324-4.1836-0.66324-2.806,0-5.2549,0.76527-7.3978,2.2449-2.0918,1.4795-3.6734,3.4183-4.5917,5.8672-0.20408,0.45917-0.35713,0.91834-0.51019,1.3775-0.10204,0.45917-0.2551,1.1224-0.35713,2.0408-0.15306,0.86732-0.20408,1.9387-0.2551,3.3162-0.051,1.3264-0.10203,3.01-0.10203,4.9998v29.284c0,1.9897,0.051,3.6733,0.10203,4.9998,0.051,1.3775,0.10204,2.4999,0.2551,3.3672,0.10203,0.86735,0.25509,1.5306,0.35713,2.0918,0.15306,0.51018,0.30611,0.91835,0.51019,1.2754,0.91834,2.449,2.5,4.3877,4.5917,5.8672,2.1428,1.4796,4.5917,2.2449,7.3978,2.2449" fill-rule="nonzero" fill="#040000"/>
 <path d="m436.51,464.13c-1.0203,0-1.9387,0.35717-2.653,1.0203-0.76528,0.71426-1.1224,1.5816-1.1224,2.653v20.51c0,1.0203,0.35714,1.8877,1.1224,2.602,0.71427,0.66327,1.6326,1.0204,2.653,1.0204h25.612c1.6326,0,3.0101,0.56126,4.0815,1.7347,1.1224,1.1223,1.6326,2.4999,1.6326,4.1325v0.66326c0,1.6836-0.51019,3.0611-1.6326,4.1836-1.0714,1.1224-2.4489,1.6836-4.0815,1.6836h-37.295c-1.6326,0-3.0101-0.56117-4.1326-1.6836-1.1224-1.1224-1.6836-2.5-1.6836-4.1836v-78.62c0-1.6326,0.56121-3.0611,1.6836-4.1836,1.1224-1.1224,2.5-1.6836,4.1326-1.6836h37.295c1.6326,0,3.0101,0.56121,4.0815,1.6836,1.1224,1.1224,1.6326,2.551,1.6326,4.1836v0.66325c0,1.7346-0.51019,3.1631-1.6326,4.2346-1.0714,1.1224-2.4489,1.6326-4.0815,1.6326h-25.612c-1.0203,0-1.9387,0.35714-2.653,1.0714-0.76528,0.66325-1.1224,1.5305-1.1224,2.602v18.52c0,1.0713,0.35714,1.9387,1.1224,2.704,0.71427,0.71426,1.6326,1.1224,2.653,1.1224h14.642c1.6326,0,3.0101,0.56117,4.1836,1.6836,1.1224,1.1224,1.6836,2.5,1.6836,4.1836,0,1.6326-0.5612,3.0611-1.6836,4.1836-1.1734,1.1224-2.551,1.6836-4.1836,1.6836h-14.642z" fill-rule="nonzero" fill="#040000"/>
</svg>
