<?xml version="1.0" encoding="UTF-8" standalone="no"?>
<!-- Created with Inkscape (http://www.inkscape.org/) -->
<svg xmlns:rdf="http://www.w3.org/1999/02/22-rdf-syntax-ns#" xmlns="http://www.w3.org/2000/svg" height="540.85" width="600" version="1.1" xmlns:cc="http://creativecommons.org/ns#" xmlns:dc="http://purl.org/dc/elements/1.1/">
 <metadata>
  <rdf:RDF>
   <cc:Work rdf:about="">
    <dc:format>image/svg+xml</dc:format>
    <dc:type rdf:resource="http://purl.org/dc/dcmitype/StillImage"/>
    <dc:title/>
   </cc:Work>
  </rdf:RDF>
 </metadata>
 <path d="m403.16,353.1c-1.0204-8.8263-2.2958-21.53-2.2958-32.703,0-6.9386,0.91834-34.846,0.91834-57.346,0-18.979-4.0815-52.703-4.0815-71.018,0-11.02,0.8163-25.969-0.40816-31.224,8.7753-5.7142,16.479-9.3365,40.662-24.03,7.8569-4.7448,22.856-12.755,22.856-22.398,0-4.2856-1.1735-7.0916-7.2447-12.092-4.2856-3.4182-8.8263-4.3876-13.979-4.3876-12.347,0-17.959,12.347-28.265,18.673-15.816,9.6426-24.183,14.438-27.397,16.224-1.3264-0.61223-6.6835-3.7754-15.305-3.7754-9.0304,0-19.54,4.0306-19.54,15.765,0,5.357,1.6836,11.173-5.459,14.948-4.0306,2.5509-23.672,13.775-44.591,26.377-17.602,10.663-25.816,9.7957-33.264,14.285-6.8365,4.1325-8.6732,9.2855-8.6732,13.775,0,3.9794,2.5509,8.9794,3.4183,10.102,4.7448,6.0713,8.9794,9.3365,16.428,9.3365,12.653,0,23.111-11.02,42.652-24.897,12.143-8.6732,23.315-17.653,29.846-17.653,5.8162,0,9.8977,4.3876,9.8977,22.5,0,60.559-3.7244,70.151-3.7244,112.19,0,7.5508,0.30611,21.53,0.5612,27.346h-32.091v-99.232l-61.835,52.141-61.835-52.141v99.232h-200.42v-353.11h195.1l67.142,70.661,67.14-70.661h196.07v150.96c-6.2243,9.5915-25.152,42.039-37.907,75.202-4.1835,10.816-6.1223,18.622-11.582,18.622-6.0712,0-6.5305-5.9182-7.1427-11.275-1.2245-11.633-3.8265-33.315-5.0508-41.274-2.2958-15.458-5.357-31.784-22.602-31.784-12.806,0-26.173,6.9896-26.173,26.071,0,10.816,5.459,29.642,14.846,54.386,3.6734,9.7446,23.315,61.223,26.173,68.671,5.1529,13.673,12.398,17.397,23.57,17.397,14.387,0,19.336-5.255,25.254-25.407,4.9998-17.142,13.52-45.152,20.612-62.651v114.18h-122.3zm168.21-195.97,0,195.97-32.244,0,0-143.36c6.8875-14.948,23.519-41.07,32.244-52.601m-32.244-26.122,0-131.02,32.244,19.387,0,71.733c-7.959,8.2651-24.489,28.418-32.244,39.897m-259.13-98.877-17.75,18.673-48.11-50.561,61.02,26.785l4.8469,5.1019zm2.1428,274.99,22.245,0,6.0202-5.0508,0-18.775-28.265,23.826zm-68.059,45.968,26.53,0,0-47.448-26.53-22.347,0,69.794z" fill-rule="nonzero" fill="#FFF"/>
 <path d="m575.15,340.45,10.255,0,0,1.9387-4.0306,0,0,10.714-2.1939,0,0-10.714-4.0305,0,0-1.9387z" fill-rule="nonzero" fill="#FFF"/>
 <path d="m586.84,340.45,3.1122,0,3.5203,9.8977,0.051,0,3.3672-9.8977,3.1122,0,0,12.653-2.0918,0,0-9.7446-0.051,0-3.5203,9.7446-1.8367,0-3.5203-9.7446,0,0,0,9.7446-2.1428,0,0-12.653z" fill-rule="nonzero" fill="#FFF"/>
 <path d="m571.38,524.53c0,8.9794-7.3468,16.326-16.326,16.326h-538.71c-8.9794,0-16.326-7.3467-16.326-16.326v-130.61c0-8.9794,7.3468-16.326,16.326-16.326h538.71c8.9794,0,16.326,7.3468,16.326,16.326v130.61z" fill-rule="nonzero" fill="#ea2587"/>
 <path d="m218.47,502.73c-1.1224,1.1224-2.5509,1.6836-4.1835,1.6836h-1.9387c-1.6836,0-3.0612-0.56123-4.1835-1.6836-1.1224-1.1224-1.6836-2.5509-1.6836-4.1835v-30.714c0-1.0204-0.40815-1.8877-1.1224-2.602-0.76529-0.66322-1.6326-1.0204-2.704-1.0204h-15.152c-0.91835,0-1.7857,0.35717-2.602,1.0204-0.76529,0.71432-1.1735,1.5816-1.1735,2.602v30.714c0,1.6326-0.56121,3.0612-1.6326,4.1835-1.0714,1.1224-2.4489,1.6836-4.1325,1.6836h-2.0918c-1.6326,0-3.0102-0.56123-4.1326-1.6836-1.1735-1.1224-1.7346-2.5509-1.7346-4.1835v-78.62c0-1.6326,0.5612-3.0612,1.7346-4.1835,1.1224-1.1225,2.4999-1.6836,4.1326-1.6836h2.0918c1.6836,0,3.0612,0.56121,4.1325,1.6836,1.0714,1.1224,1.6326,2.5509,1.6326,4.1835v28.724c0,1.0714,0.40815,1.9387,1.1735,2.704,0.8163,0.71423,1.6836,1.0714,2.602,1.0714h15.152c1.0714,0,1.9387-0.35715,2.704-1.0714,0.71427-0.76531,1.1224-1.6326,1.1224-2.704v-28.724c0-1.6326,0.56121-3.0612,1.6836-4.1835,1.1225-1.1225,2.4999-1.6836,4.1835-1.6836h1.9387c1.6326,0,3.0612,0.56121,4.1835,1.6836,1.1224,1.1224,1.6836,2.5509,1.6836,4.1835v78.62c0,1.6326-0.56123,3.0612-1.6836,4.1835" fill-rule="nonzero" fill="#040000"/>
 <path d="m260.98,502.73c-1.0714,1.1224-2.4489,1.6836-4.1325,1.6836h-2.0918c-1.6326,0-3.0102-0.56123-4.1325-1.6836-1.1735-1.1224-1.7346-2.5509-1.7346-4.1835v-78.62c0-1.6326,0.56123-3.0612,1.7346-4.1835,1.1224-1.1225,2.4999-1.6836,4.1325-1.6836h2.0918c1.6836,0,3.0612,0.56121,4.1325,1.6836,1.0714,1.1224,1.6326,2.5509,1.6326,4.1835v78.62c0,1.6326-0.5612,3.0612-1.6326,4.1835" fill-rule="nonzero" fill="#040000"/>
 <path d="m330.39,424.8c-1.1224,1.0714-2.5509,1.6326-4.1835,1.6326h-9.8977c-0.71428,0-1.3265,0.2551-1.8367,0.76529-0.5612,0.56121-0.8163,1.1735-0.8163,1.8367v69.488c0,1.6326-0.56121,3.0612-1.6836,4.1835-1.1225,1.1225-2.4999,1.6836-4.1325,1.6836h-2.0408c-1.6836,0-3.0612-0.56113-4.1325-1.6836-1.1225-1.1224-1.6836-2.5509-1.6836-4.1835v-69.488c0-0.66324-0.30612-1.2755-0.8163-1.8367-0.51019-0.51019-1.1224-0.76529-1.8367-0.76529h-9.8977c-1.6836,0-3.0612-0.56121-4.1835-1.6326-1.1224-1.0714-1.6836-2.4999-1.6836-4.2345v-0.66325c0-1.6326,0.56121-3.0612,1.6836-4.1835,1.1225-1.1225,2.4999-1.6836,4.1835-1.6836h38.775c1.6326,0,3.0612,0.56121,4.1835,1.6836,1.1224,1.1224,1.6836,2.5509,1.6836,4.1835v0.66325c0,1.7346-0.56122,3.1632-1.6836,4.2345" fill-rule="nonzero" fill="#040000"/>
 <path d="m383.99,471.33c-0.61223-0.61224-1.3264-1.1735-2.1428-1.6836-0.81631-0.56123-2.3979-1.4286-4.6427-2.653l-9.6936-5.2039c-2.602-1.4795-4.3876-2.4999-5.408-3.1122-0.96937-0.61224-1.8877-1.2756-2.653-1.9898-2.8061-2.3468-4.9488-5.1529-6.4795-8.4692-1.5305-3.3162-2.2958-6.7855-2.2958-10.459,0-3.5713,0.71428-6.8875,2.0918-9.9999,1.4285-3.0612,3.2652-5.7652,5.6121-8.061,2.3468-2.3468,5.1019-4.1325,8.1631-5.459,3.1122-1.2755,6.3264-1.9387,9.7446-1.9387,3.0612,0,5.7652,0.35712,8.112,1.1224,2.3468,0.71427,4.4897,1.6326,6.5305,2.653,1.3775,0.71428,2.3979,1.2755,3.1122,1.6836,0.71426,0.45916,1.5305,0.96936,2.4999,1.5816,1.2755,0.86733,2.1939,1.7346,2.653,2.602,0.5102,0.86734,0.71428,1.7857,0.71428,2.755,0,1.0714-0.35713,2.2448-1.1735,3.5203l-0.35713,0.66325c-1.3265,1.9898-3.0102,3.0102-5.1019,3.0102-1.3265,0-2.4489-0.30611-3.4182-0.91834-0.40816-0.2551-1.1735-0.71426-2.1428-1.4285-1.0204-0.71426-2.1939-1.4795-3.6224-2.3468-1.1735-0.81631-2.3979-1.4286-3.6224-1.8367-1.2245-0.45916-2.602-0.66324-4.1835-0.66324-1.6326,0-3.2142,0.35713-4.6938,1.0714-1.4795,0.66325-2.755,1.5816-3.8775,2.704-1.0714,1.1735-1.9387,2.4999-2.602,4.0816-0.66324,1.5305-0.96936,3.1632-0.96936,4.7958,0,1.7857,0.35714,3.3674,1.1225,4.7958,0.71427,1.4286,1.6836,2.7551,2.9081,3.9796,0.35712,0.35706,0.86732,0.76521,1.5816,1.2245,0.71426,0.51014,2.1938,1.3265,4.4387,2.5509l8.8773,4.8469c2.602,1.4795,4.5917,2.6019,5.8671,3.3672,1.3264,0.81632,2.3468,1.5305,3.1632,2.2448,2.8571,2.4489,5.1019,5.357,6.7855,8.8263,1.6326,3.4182,2.4489,7.0916,2.4489,11.02,0,3.6734-0.71426,7.0916-2.1428,10.255-1.4285,3.1632-3.3672,5.9182-5.7142,8.2141-2.3979,2.3468-5.2039,4.1326-8.3672,5.408-3.2142,1.3264-6.5305,1.9898-9.9999,1.9898-3.0612,0-5.7652-0.35716-8.112-1.1225-2.3468-0.71422-4.5407-1.6326-6.5305-2.653-1.3776-0.71422-2.4489-1.2755-3.1122-1.7346-0.71426-0.40815-1.5305-0.91839-2.4999-1.5306-1.3265-0.8673-2.1939-1.7346-2.653-2.6019-0.51019-0.9184-0.71426-1.7857-0.71426-2.7551,0-1.0714,0.35712-2.2448,1.1735-3.5203l0.35713-0.66323c1.3265-1.9898,3.0102-3.0102,5.1019-3.0102,1.3264,0,2.4489,0.30617,3.4183,0.9184l5.7142,3.7754c1.2245,0.76531,2.4489,1.3776,3.6734,1.8367,1.2245,0.40816,2.602,0.66324,4.1835,0.66324,1.7346,0,3.3672-0.35707,4.9488-1.0714,1.5816-0.66324,2.9591-1.6326,4.1326-2.806,1.1735-1.1735,2.0918-2.551,2.755-4.1836,0.61223-1.5815,0.96936-3.2652,0.96936-4.9998,0-3.5713-1.3264-6.6835-3.9285-9.2855" fill-rule="nonzero" fill="#040000"/>
</svg>
