<?xml version="1.0" encoding="UTF-8" standalone="no"?>
<!-- Created with Inkscape (http://www.inkscape.org/) -->
<svg xmlns:rdf="http://www.w3.org/1999/02/22-rdf-syntax-ns#" xmlns="http://www.w3.org/2000/svg" height="540.86" width="600" version="1.1" xmlns:cc="http://creativecommons.org/ns#" xmlns:dc="http://purl.org/dc/elements/1.1/">
 <defs></defs>
 <metadata>
  <rdf:RDF>
   <cc:Work rdf:about="">
    <dc:format>image/svg+xml</dc:format>
    <dc:type rdf:resource="http://purl.org/dc/dcmitype/StillImage"/>
    <dc:title/>
   </cc:Work>
  </rdf:RDF>
 </metadata>
 <path d="m403.15,353.11c-1.0204-8.8259-2.2957-21.529-2.2957-32.701,0-6.9382,0.91831-34.844,0.91831-57.342,0-18.978-4.0814-52.7-4.0814-71.014,0-11.019,0.81626-25.968-0.40813-31.222,8.7749-5.7138,16.478-9.336,40.661-24.029,7.8565-4.7445,22.855-12.754,22.855-22.396,0-4.2854-1.1734-7.0912-7.2443-12.091-4.2854-3.4181-8.8259-4.3874-13.978-4.3874-12.346,0-17.957,12.346-28.264,18.672-15.814,9.642-24.182,14.437-27.396,16.223-1.3264-0.6122-6.6832-3.7752-15.304-3.7752-9.0299,0-19.539,4.0302-19.539,15.763,0,5.3567,1.6835,11.173-5.4587,14.947-4.0302,2.5508-23.672,13.774-44.588,26.376-17.6,10.662-25.815,9.7952-33.263,14.284-6.8362,4.1324-8.6728,9.285-8.6728,13.775,0,3.9792,2.5508,8.9789,3.4181,10.101,4.7445,6.071,8.9789,9.336,16.427,9.336,12.652,0,23.11-11.019,42.649-24.896,12.142-8.6729,23.315-17.651,29.844-17.651,5.8159,0,9.8971,4.3874,9.8971,22.498,0,60.557-3.7242,70.147-3.7242,112.18,0,7.5504,0.3061,21.529,0.56117,27.345h-32.111v-99.227l-61.832,52.138-61.832-52.138v99.227h-200.41v-353.1h195.08l67.137,70.657,67.14-70.657h196.05v150.95c-6.224,9.591-25.151,42.037-37.905,75.198-4.1834,10.815-6.122,18.621-11.581,18.621-6.071,0-6.5812-5.9689-7.1422-11.275-1.2244-11.632-3.8263-33.314-4.9995-41.273-2.3468-15.457-5.4077-31.783-22.651-31.783-12.805,0-26.172,6.9894-26.172,26.07,0,10.815,5.4587,29.641,14.845,54.383,3.6732,9.7442,23.315,61.22,26.172,68.669,5.1526,13.673,12.397,17.396,23.57,17.396,14.386,0,19.335-5.2547,25.253-25.406,4.9996-17.141,13.52-45.149,20.61-62.649v114.17h-122.27zm168.2-195.95,0,195.95-32.242,0,0-143.35c6.8872-14.947,23.519-41.12,32.242-52.597m-32.242-26.121,0-131.01,32.242,19.386,0,71.728c-7.9075,8.2647-24.488,28.417-32.242,39.895m-259.1-98.871-17.76,18.673-48.11-50.609,61.02,26.835l4.8466,5.1016zm2.1427,274.93,22.243,0,6.02-4.9996,0-18.774-28.264,23.774zm-68.057,46.017,26.529,0,0-47.445-26.529-22.345,0,69.79z" fill-rule="nonzero" fill="#FFF"/>
 <path d="m575.14,340.45,10.254,0,0,1.9386-4.0303,0,0,10.713-2.1937,0,0-10.713-4.0302,0,0-1.9386z" fill-rule="nonzero" fill="#FFF"/>
 <path d="m586.84,340.45,3.112,0,3.5201,9.8972,0,0,3.4181-9.8972,3.112,0,0,12.652-2.1427,0,0-9.7442,0,0-3.5201,9.7442-1.8366,0-3.5201-9.7442-0.051,0,0,9.7442-2.0916,0,0-12.652z" fill-rule="nonzero" fill="#FFF"/>
 <path fill-rule="nonzero" fill="#d04a41" d="m571.37,524.52c0,8.9762-7.3686,16.345-16.345,16.345h-538.64c-8.9762,0-16.345-7.3686-16.345-16.345v-130.56c0-8.9762,7.3686-16.345,16.345-16.345h538.64c8.9762,0,16.345,7.3686,16.345,16.345v130.56z"/>
 <path fill-rule="nonzero" fill="#000" d="m146.38,443.57c0-2.6795-0.13397-4.6891-0.33494-5.9618-0.20095-1.2728-0.4689-2.2776-0.80384-3.0144-1.0048-2.4785-2.4785-4.4211-4.6891-5.8948-2.1436-1.4737-4.5551-2.2106-7.3686-2.2106h-9.2442c-1.0718,0-1.9426,0.33494-2.6795,1.0048-0.73685,0.73686-1.1388,1.6077-1.1388,2.6125v28.335c0,0.93782,0.40193,1.8086,1.1388,2.6125,0.73685,0.80384,1.6077,1.2058,2.6795,1.2058h9.2442c2.8134,0,5.225-0.80384,7.3686-2.2106,2.2106-1.4737,3.6843-3.4833,4.6891-5.8949,0.33494-0.80384,0.60289-1.8086,0.80384-3.0814,0.20097-1.2728,0.33494-3.2154,0.33494-5.9618v-1.5407zm13.732,0.73686c0,3.2154-0.13397,5.5599-0.33492,7.2346-0.20097,1.6747-0.5359,3.0814-0.93782,4.2872-0.87084,2.8134-2.1436,5.292-3.8183,7.5695-1.6747,2.2776-3.6173,4.2872-5.7609,5.9618-2.2776,1.6747-4.6891,3.0144-7.4355,3.8852-2.7465,0.93781-5.6269,1.4067-8.6413,1.4067h-9.2442c-1.0718,0-1.9426,0.40192-2.6795,1.1388-0.73685,0.80384-1.1388,1.7416-1.1388,2.7465v20.029c0,1.6077-0.53589,3.0144-1.6747,4.1532s-2.4785,1.6747-4.1532,1.6747h-2.0096c-1.6077,0-3.0144-0.53589-4.1532-1.6747s-1.6747-2.5455-1.6747-4.1532v-78.643c0-1.6747,0.53589-3.0144,1.6747-4.1532s2.5455-1.7417,4.1532-1.7417h20.9c3.0144,0,5.8948,0.4689,8.6413,1.4067,2.6795,0.87083,5.158,2.2106,7.3686,3.8852,2.2106,1.7417,4.1532,3.6843,5.8279,6.0288,1.6747,2.2776,2.9474,4.8231,3.8183,7.5025,0.40192,1.2727,0.73685,2.6795,0.93782,4.2872,0.20095,1.6747,0.33492,4.0862,0.33492,7.1676"/>
 <path fill-rule="nonzero" fill="#000" d="m236.83,489.9c-1.4737,3.2154-3.3494,6.0288-5.7609,8.4404-2.4785,2.4115-5.292,4.2872-8.5743,5.6939-3.2824,1.3398-6.6987,2.0766-10.316,2.0766-3.8183,0-7.3016-0.73685-10.517-2.0766-3.2824-1.4067-6.0958-3.2824-8.5743-5.6939-2.4115-2.4115-4.2872-5.225-5.6939-8.4404s-2.0766-6.6317-2.0766-10.316v-59.685c0-1.6077,0.5359-3.0144,1.6747-4.1532s2.4785-1.6747,4.1532-1.6747h2.0766c1.6077,0,3.0144,0.53589,4.1532,1.6747,1.0718,1.1388,1.6747,2.5455,1.6747,4.1532v60.623c0,1.8087,0.26794,3.4833,0.93782,5.091,0.66987,1.5407,1.6077,2.9474,2.7465,4.1532,1.2058,1.2058,2.6125,2.2106,4.2202,2.8804,1.6077,0.66987,3.3493,1.0718,5.225,1.0718,1.8086,0,3.4833-0.40192,5.091-1.0718,1.6077-0.66987,2.9474-1.6747,4.0862-2.8804,1.2058-1.2058,2.1436-2.6125,2.8804-4.1532,0.66987-1.6077,1.0048-3.2824,1.0048-5.091v-60.623c0-1.6077,0.60287-3.0144,1.6747-4.1532,1.1388-1.1388,2.5455-1.6747,4.1532-1.6747h2.0766c1.6747,0,3.0144,0.53589,4.1532,1.6747s1.6747,2.5455,1.6747,4.1532v59.685c0,3.6843-0.73685,7.1006-2.1436,10.316"/>
 <path fill-rule="nonzero" fill="#000" d="m314.19,502.71c-1.1388,1.1388-2.5455,1.6747-4.2202,1.6747h-33.56c-1.6747,0-3.0814-0.53589-4.1532-1.6747-1.1388-1.1388-1.7416-2.5455-1.7416-4.1532v-78.643c0-1.6747,0.60288-3.0144,1.7416-4.1532,1.0718-1.1388,2.4785-1.7417,4.1532-1.7417h2.0096c1.6747,0,3.0814,0.60288,4.1532,1.7417,1.1388,1.1388,1.6747,2.4785,1.6747,4.1532v68.394c0,1.0718,0.40193,1.9426,1.1388,2.6125,0.73685,0.73685,1.6077,1.0718,2.6795,1.0718h21.905c1.6747,0,3.0814,0.60288,4.2202,1.6747,1.0718,1.2058,1.6747,2.5455,1.6747,4.2202v0.66986c0,1.6077-0.60288,3.0144-1.6747,4.1532"/>
 <path fill-rule="nonzero" fill="#000" d="m367.79,471.39c-0.60288-0.60288-1.3398-1.2058-2.1436-1.7417-0.80384-0.46891-2.3445-1.3397-4.6221-2.5455l-9.7131-5.225c-2.5455-1.4737-4.3541-2.5455-5.3589-3.1484-1.0048-0.60288-1.9426-1.2728-2.6795-1.9426-2.8134-2.4115-4.957-5.225-6.4977-8.5073-1.4737-3.3494-2.2776-6.8327-2.2776-10.45,0-3.5503,0.73686-6.8997,2.0766-9.9811,1.4067-3.0814,3.2824-5.8279,5.6269-8.1054,2.3445-2.3446,5.091-4.1532,8.1724-5.426s6.3638-1.9426,9.7131-1.9426c3.0814,0,5.7609,0.33494,8.1054,1.0718s4.5551,1.6747,6.4977,2.6795c1.4067,0.73685,2.4785,1.2728,3.1484,1.7416,0.73686,0.40193,1.5407,0.93783,2.5455,1.5407,1.2728,0.87083,2.1436,1.7416,2.6125,2.6125,0.4689,0.87083,0.73685,1.7417,0.73685,2.7465,0,1.0718-0.40193,2.2106-1.1388,3.5503l-0.40192,0.60288c-1.3397,2.0096-3.0144,3.0144-5.091,3.0144-1.3397,0-2.4785-0.26794-3.4163-0.93781-0.40191-0.20096-1.1388-0.73686-2.1436-1.4067-1.0048-0.66988-2.2106-1.4737-3.6173-2.3446-1.2058-0.80384-2.4115-1.4067-3.6843-1.8086-1.1388-0.46891-2.6125-0.66987-4.1532-0.66987-1.6077,0-3.2154,0.33493-4.6891,1.0718-1.4737,0.66988-2.7465,1.6077-3.8852,2.6795-1.0718,1.1388-1.9426,2.4785-2.5455,4.0862-0.66988,1.5407-1.0048,3.1484-1.0048,4.823,0,1.7417,0.40192,3.3494,1.0718,4.7561,0.73685,1.4737,1.7416,2.7465,2.9474,4.0192,0.40191,0.33494,0.87083,0.73685,1.6077,1.2058,0.66988,0.46891,2.1436,1.3398,4.4211,2.5455l8.9093,4.8231c2.6125,1.4737,4.5551,2.6125,5.8279,3.4163,1.3397,0.80384,2.3445,1.5407,3.1484,2.2106,2.8804,2.4785,5.158,5.359,6.7657,8.8423,1.6747,3.4163,2.5455,7.1006,2.5455,10.986,0,3.6843-0.73687,7.1006-2.2106,10.249-1.4067,3.2154-3.3494,5.9618-5.6939,8.2394-2.4115,2.3445-5.225,4.0862-8.3734,5.4259s-6.4977,1.9426-9.981,1.9426c-3.0814,0-5.7609-0.33493-8.1054-1.0718-2.3446-0.73686-4.5551-1.6747-6.5647-2.6795-1.4067-0.66987-2.4115-1.2728-3.1484-1.6747-0.66987-0.46892-1.4737-1.0048-2.4785-1.6077-1.2728-0.87082-2.1436-1.7416-2.6125-2.6125-0.53591-0.87083-0.73687-1.7417-0.73687-2.7465s0.40193-2.2106,1.1388-3.4833l0.40193-0.66986c1.3397-2.0096,3.0144-3.0144,5.091-3.0144,1.3397,0,2.4785,0.33494,3.4163,0.93781l5.7609,3.7513c1.2058,0.80384,2.4115,1.4067,3.6173,1.8086,1.2058,0.46892,2.6125,0.66988,4.2202,0.66988,1.7416,0,3.3493-0.33494,4.957-1.0048,1.5407-0.73686,2.9474-1.6747,4.0862-2.8134,1.2058-1.2058,2.0766-2.6125,2.7465-4.2202,0.66987-1.6077,1.0048-3.2824,1.0048-5.024,0-3.5503-1.3397-6.6317-3.9522-9.2442"/>
 <path fill-rule="nonzero" fill="#000" d="m433.68,464.19c-1.0718,0-1.9426,0.33493-2.6795,1.0718-0.73687,0.66986-1.0718,1.5407-1.0718,2.6125v20.498c0,1.0048,0.33492,1.8756,1.0718,2.6125,0.73685,0.66987,1.6077,1.0048,2.6795,1.0048h25.589c1.6747,0,3.0144,0.60289,4.0862,1.6747,1.0718,1.2058,1.6747,2.5455,1.6747,4.2202v0.66987c0,1.6077-0.60289,3.0144-1.6747,4.1532s-2.4115,1.6747-4.0862,1.6747h-37.245c-1.6747,0-3.0144-0.5359-4.1532-1.6747s-1.6747-2.5455-1.6747-4.1532v-78.643c0-1.6747,0.5359-3.0144,1.6747-4.1532s2.4785-1.7417,4.1532-1.7417h37.245c1.6747,0,3.0144,0.60289,4.0862,1.7417s1.6747,2.4785,1.6747,4.1532v0.66987c0,1.7417-0.60289,3.1484-1.6747,4.2202-1.0718,1.1388-2.4115,1.6747-4.0862,1.6747h-25.589c-1.0718,0-1.9426,0.33493-2.6795,1.0048-0.73687,0.73686-1.0718,1.6077-1.0718,2.6125v18.555c0,1.0718,0.33492,1.9426,1.0718,2.6795,0.73685,0.73685,1.6077,1.1388,2.6795,1.1388h14.603c1.6747,0,3.0814,0.53589,4.2202,1.6747s1.6747,2.5455,1.6747,4.1532c0,1.6747-0.5359,3.0814-1.6747,4.2202-1.1388,1.0718-2.5455,1.6747-4.2202,1.6747h-14.603z"/>
</svg>
