<?xml version="1.0" encoding="UTF-8" standalone="no"?>
<!-- Created with Inkscape (http://www.inkscape.org/) -->
<svg xmlns:rdf="http://www.w3.org/1999/02/22-rdf-syntax-ns#" xmlns="http://www.w3.org/2000/svg" height="540.86" width="600" version="1.1" xmlns:cc="http://creativecommons.org/ns#" xmlns:dc="http://purl.org/dc/elements/1.1/">
 <metadata>
  <rdf:RDF>
   <cc:Work rdf:about="">
    <dc:format>image/svg+xml</dc:format>
    <dc:type rdf:resource="http://purl.org/dc/dcmitype/StillImage"/>
    <dc:title/>
   </cc:Work>
  </rdf:RDF>
 </metadata>
 <path d="m571.37,524.53c0,8.9794-7.3468,16.326-16.326,16.326h-538.71c-8.9794,0-16.326-7.3468-16.326-16.326v-130.61c0-8.9794,7.3468-16.326,16.326-16.326h538.71c8.9794,0,16.326,7.3468,16.326,16.326v130.61z" fill-rule="nonzero" fill="#62bc47"/>
 <path d="m136.04,462.23c2.806,0,5.255-0.76525,7.3978-2.2449,2.1939-1.4795,3.7244-3.4183,4.6937-5.8672,0.35713-0.76536,0.61223-1.7857,0.86732-3.0611,0.20409-1.2755,0.30613-3.2142,0.30613-5.9183v-1.5816c0-2.704-0.10204-4.6937-0.30613-5.9183-0.25509-1.2755-0.51019-2.2959-0.86732-3.1122-0.96936-2.449-2.5-4.3876-4.6937-5.8673-2.1428-1.4795-4.5917-2.2449-7.3978-2.2449h-9.3365c-1.0203,0-1.9387,0.40816-2.653,1.0714-0.7653,0.71427-1.1224,1.5816-1.1224,2.602v28.366c0,0.96934,0.35713,1.8367,1.1224,2.6019,0.71426,0.76527,1.6326,1.1734,2.653,1.1734h9.3365zm13.01,9.1325c-0.71427,0.45917-1.0714,0.91834-1.0714,1.4285,0,0.20409,0.20408,0.61217,0.56122,1.3265l10.918,20.765c0.66325,1.2244,0.96936,2.2959,0.96936,3.2652,0,1.8367-0.66324,3.3162-1.9898,4.4896s-2.755,1.7857-4.4386,1.7857c-2.857,0-4.8978-1.2754-6.1222-3.7754l-12.857-24.183c-0.35714-0.61226-0.86732-1.0714-1.4795-1.3775-0.61223-0.30619-1.2755-0.45918-1.9387-0.45918h-4.8468c-1.0714,0-1.9898,0.40818-2.704,1.1734-0.7653,0.81625-1.1224,1.7346-1.1224,2.755v20c0,1.6326-0.5612,3.0101-1.6836,4.1326-1.1224,1.1734-2.5,1.7346-4.1326,1.7346h-2.0918c-1.6326,0-3.0101-0.56117-4.1326-1.7346-1.1224-1.1224-1.6836-2.5-1.6836-4.1326v-78.621c0-1.6836,0.56121-3.0611,1.6836-4.1836,1.1224-1.1734,2.551-1.7347,4.1836-1.7347h20.969c3.0611,0,5.9183,0.45917,8.6733,1.3775,2.755,0.91834,5.204,2.2449,7.3978,3.9285,2.2449,1.6836,4.1836,3.7244,5.8162,6.0203s2.9081,4.7958,3.7754,7.4999c0.45917,1.2244,0.76528,2.653,0.96936,4.2857,0.25509,1.6836,0.35713,4.0816,0.35713,7.1937,0,3.1632-0.10204,5.5611-0.35713,7.1937-0.20408,1.6327-0.51019,3.1122-0.96936,4.3366-1.0204,3.3673-2.6531,6.3774-4.8468,8.9794-2.1939,2.602-4.7958,4.7958-7.806,6.5305" fill-rule="nonzero" fill="#040000"/>
 <path d="m214.28,493.73c2.806,0,5.255-0.76527,7.3978-2.2449,2.1428-1.4795,3.7244-3.4183,4.6937-5.8672,0.15305-0.35719,0.30611-0.76537,0.45917-1.2755,0.10203-0.56116,0.25509-1.2244,0.35713-2.0918,0.15306-0.86736,0.25509-1.9897,0.25509-3.3672,0.051-1.3265,0.10205-3.0102,0.10205-4.9999v-29.285c0-1.9898-0.051-3.6734-0.10205-4.9999,0-1.3775-0.10203-2.449-0.25509-3.3162-0.10204-0.91835-0.2551-1.5816-0.35713-2.0408-0.15306-0.45918-0.30612-0.91835-0.45917-1.3775-0.96938-2.449-2.551-4.3876-4.6937-5.8672-2.1428-1.4795-4.5917-2.2449-7.3978-2.2449-2.806,0-5.255,0.7653-7.3978,2.2449-2.1428,1.4795-3.7244,3.4183-4.6937,5.8672-0.15306,0.45918-0.30612,0.91835-0.45918,1.3775-0.10203,0.45917-0.25509,1.1224-0.40815,2.0408-0.10205,0.86731-0.20408,1.9387-0.25511,3.3162,0,1.3265-0.051,3.0101-0.051,4.9999v29.285c0,1.9897,0.051,3.6734,0.051,4.9999,0.051,1.3775,0.15306,2.4998,0.25511,3.3672,0.15306,0.86735,0.30612,1.5306,0.40815,2.0918,0.15306,0.51017,0.30612,0.91835,0.45918,1.2755,0.96936,2.4488,2.5509,4.3876,4.6937,5.8672s4.5917,2.2449,7.3978,2.2449m0,12.397c-3.0611,0-5.9183-0.45919-8.6733-1.3775-2.755-0.91835-5.204-2.1939-7.3978-3.9285-2.2449-1.6837-4.1836-3.6734-5.8162-5.9182-1.6326-2.2959-2.9081-4.7958-3.7754-7.5509-0.15305-0.61217-0.35713-1.3264-0.51019-2.0408-0.20407-0.76526-0.35713-1.6326-0.45917-2.7039-0.15306-1.0204-0.20408-2.2959-0.25509-3.8265-0.051-1.5306-0.10204-3.4183-0.10204-5.7142v-27.652c0-2.2448,0.051-4.1836,0.10204-5.7142,0.051-1.4795,0.10203-2.806,0.25509-3.8264,0.10204-1.0714,0.2551-1.9387,0.45917-2.653,0.15306-0.76529,0.35714-1.4285,0.51019-2.0408,0.86734-2.704,2.1428-5.204,3.7754-7.4998,1.6326-2.3469,3.5714-4.3367,5.8162-6.0203,2.1939-1.6836,4.6427-3.0101,7.3978-3.9285,2.755-0.91836,5.6121-1.3775,8.6733-1.3775,3.0611,0,5.9182,0.45917,8.6733,1.3775,2.704,0.91834,5.204,2.2449,7.3978,3.9285,2.2449,1.6836,4.1836,3.6734,5.8162,6.0203,1.6326,2.2959,2.9081,4.7958,3.7754,7.4998,0.15305,0.61223,0.35713,1.2755,0.51019,2.0408,0.20407,0.71428,0.35713,1.5816,0.45917,2.653,0.15306,1.0203,0.20408,2.3469,0.25509,3.8264,0.051,1.5306,0.10204,3.4694,0.10204,5.7142v27.652c0,2.2959-0.051,4.1836-0.10204,5.7142-0.051,1.5306-0.10203,2.806-0.25509,3.8265-0.10204,1.0713-0.2551,1.9387-0.45917,2.7039-0.15306,0.71436-0.35714,1.4286-0.51019,2.0408-0.86733,2.755-2.1428,5.255-3.7754,7.5509-1.6326,2.2449-3.5714,4.2346-5.8162,5.9182-2.1939,1.7346-4.6937,3.0101-7.3978,3.9285-2.755,0.91834-5.6121,1.3775-8.6733,1.3775" fill-rule="nonzero" fill="#040000"/>
 <path d="m292.43,493.73c1.5816,0,2.9591-0.2041,4.1836-0.66327,1.2244-0.45918,2.449-1.0203,3.6734-1.8367l5.7142-3.7754c0.96938-0.61226,2.0918-0.91835,3.4183-0.91835,2.0918,0,3.7754,1.0203,5.1019,3.0101l0.35713,0.66328c0.81631,1.2754,1.1734,2.4488,1.1734,3.5203,0,0.96934-0.20408,1.8877-0.71427,2.755-0.45917,0.86735-1.3775,1.7346-2.653,2.602-0.96937,0.61226-1.7857,1.1224-2.5,1.5816-0.66327,0.40818-1.7347,0.96934-3.1122,1.6836-1.9898,1.0204-4.1836,1.9388-6.5304,2.653-2.3469,0.76527-5.0509,1.1224-8.112,1.1224s-5.9183-0.45919-8.6733-1.3775c-2.755-0.91835-5.204-2.1939-7.4488-3.9285-2.1939-1.6837-4.0816-3.6734-5.7142-5.9182-1.6836-2.2959-2.9081-4.7958-3.7754-7.5509-0.15305-0.61217-0.35713-1.3264-0.51019-2.0408-0.15305-0.76526-0.30611-1.6326-0.45918-2.7039-0.15306-1.0204-0.20408-2.2959-0.2551-3.8265-0.051-1.5306-0.051-3.4183-0.051-5.7142v-27.652c0-2.2448,0-4.1836,0.051-5.7142,0.051-1.4795,0.10204-2.806,0.2551-3.8264,0.15307-1.0714,0.30613-1.9387,0.45918-2.653,0.15306-0.76529,0.35714-1.4285,0.51019-2.0408,0.86733-2.704,2.0918-5.204,3.7754-7.4998,1.6326-2.3469,3.5203-4.3367,5.7142-6.0203,2.2449-1.6836,4.6937-3.0101,7.4488-3.9285,2.755-0.91836,5.6121-1.3775,8.6733-1.3775,3.0611,0,5.7652,0.35714,8.112,1.1224,2.3469,0.71427,4.5407,1.6326,6.5304,2.653,1.3775,0.71426,2.449,1.2755,3.1122,1.6836,0.71426,0.45917,1.5306,1.0203,2.5,1.5816,1.2755,0.86732,2.1939,1.7857,2.653,2.653,0.51019,0.86732,0.71427,1.7857,0.71427,2.704,0,1.0714-0.35713,2.2449-1.1734,3.5203l-0.35713,0.66325c-1.3265,1.9898-3.0101,3.0101-5.1019,3.0101-1.3265,0-2.449-0.30611-3.4183-0.91833l-5.7142-3.7754c-1.2244-0.76529-2.449-1.3775-3.6734-1.8367-1.2244-0.45918-2.6019-0.66326-4.1836-0.66326-2.806,0-5.255,0.7653-7.3978,2.2449-2.0918,1.4795-3.6734,3.4183-4.5917,5.8672-0.20408,0.45918-0.35714,0.91835-0.5102,1.3775-0.10204,0.45917-0.20407,1.1224-0.35713,2.0408-0.15306,0.86731-0.20408,1.9387-0.2551,3.3162-0.051,1.3265-0.10204,3.0101-0.10204,4.9999v29.285c0,1.9897,0.051,3.6734,0.10204,4.9999,0.051,1.3775,0.10204,2.4998,0.2551,3.3672,0.15306,0.86735,0.25509,1.5306,0.35713,2.0918,0.15306,0.51017,0.30612,0.91835,0.5102,1.2755,0.91833,2.4488,2.5,4.3876,4.5917,5.8672,2.1428,1.4796,4.5917,2.2449,7.3978,2.2449" fill-rule="nonzero" fill="#040000"/>
 <path d="m391.17,499.03c0,1.8367-0.61223,3.3162-1.7857,4.5407-1.1734,1.1734-2.551,1.7346-4.2346,1.7346-2.6019,0-4.5407-1.3775-5.8673-4.1836l-16.173-34.489c-0.71426-1.2754-1.7857-1.9387-3.2652-1.9387h-0.66324c-1.0714,0-1.9387,0.35718-2.704,1.0204-0.71427,0.71426-1.0714,1.5816-1.0714,2.602v30.203c0,1.6326-0.56121,3.0101-1.7347,4.1836-1.1224,1.1224-2.5,1.6836-4.1326,1.6836h-1.9898c-1.6326,0-3.0611-0.56117-4.1836-1.6836-1.1224-1.1734-1.6836-2.551-1.6836-4.1836v-78.621c0-1.6836,0.56122-3.0611,1.6836-4.1836,1.1224-1.1224,2.551-1.6836,4.1836-1.6836h1.9898c1.6326,0,3.0101,0.56121,4.1326,1.6836,1.1734,1.1224,1.7347,2.5,1.7347,4.1836v28.315c0,1.2245,0.30612,2.1939,1.0203,2.8061,0.71427,0.66326,1.6326,0.96934,2.755,0.96934h0.76528c0.8163,0,1.5306-0.15309,2.2449-0.56127,0.66326-0.40807,1.1734-0.91834,1.4285-1.6326l14.897-32.499c1.1224-2.704,3.0611-4.0816,5.8672-4.0816,1.6326,0,3.0611,0.61223,4.2346,1.7857,1.1734,1.1735,1.7857,2.653,1.7857,4.3876,0,0.61223-0.10204,1.1734-0.25509,1.6836-0.20408,0.51021-0.35714,1.0204-0.56122,1.4285l-15.153,33.826c-0.40817,0.86725-0.61224,1.6326-0.61224,2.1938,0,0.61227,0.20407,1.3775,0.61224,2.2449l15.969,34.897c0.5102,1.0204,0.76529,2.1429,0.76529,3.3673" fill-rule="nonzero" fill="#040000"/>
 <path d="m444.79,471.33c-0.61223-0.61226-1.3265-1.1734-2.1428-1.6836-0.8163-0.56128-2.3979-1.4286-4.6427-2.6021l-9.6936-5.2549c-2.602-1.4796-4.3876-2.5-5.4081-3.1122-0.96938-0.61226-1.8877-1.2754-2.6531-1.9898-2.806-2.3469-4.9489-5.1529-6.4794-8.4691-1.5306-3.3163-2.2959-6.7856-2.2959-10.459,0-3.5714,0.71426-6.8876,2.0918-9.9994,1.3775-3.0611,3.2652-5.7652,5.6121-8.061,2.3469-2.3469,5.1019-4.1326,8.1631-5.4591,3.1122-1.2755,6.3263-1.9387,9.7446-1.9387,3.0611,0,5.7652,0.35713,8.112,1.1224,2.3469,0.71426,4.4897,1.6326,6.5304,2.653,1.3775,0.71427,2.3979,1.2755,3.1122,1.6836,0.71428,0.45917,1.5306,0.96936,2.5,1.5816,1.2755,0.86732,2.1939,1.7857,2.653,2.6531,0.51019,0.8163,0.71426,1.7857,0.71426,2.704,0,1.0714-0.35713,2.2449-1.1734,3.5203l-0.35713,0.66325c-1.3265,1.9898-3.0101,3.0101-5.1019,3.0101-1.3265,0-2.449-0.30611-3.4183-0.91835-0.40815-0.25509-1.1734-0.71427-2.1428-1.4285-1.0203-0.71428-2.1939-1.4795-3.6224-2.3469-1.1734-0.81632-2.3979-1.3775-3.6224-1.8367-1.2244-0.45919-2.602-0.66326-4.1836-0.66326-1.6326,0-3.2142,0.35713-4.6937,1.0714-1.4795,0.66324-2.755,1.5816-3.8775,2.704-1.0714,1.1734-1.9387,2.5-2.602,4.0816-0.66325,1.5306-0.96937,3.1632-0.96937,4.8468,0,1.7347,0.35713,3.3162,1.1224,4.7447,0.71427,1.4286,1.6836,2.755,2.9081,3.9796,0.35713,0.35708,0.86732,0.76525,1.5816,1.2244,0.71428,0.51017,2.1939,1.3265,4.4387,2.551l8.8773,4.8468c2.6019,1.4795,4.5917,2.6019,5.8673,3.4183,1.3265,0.76526,2.3469,1.4795,3.1632,2.1938,2.857,2.449,5.1019,5.3571,6.7856,8.8264,1.6326,3.4183,2.449,7.0916,2.449,11.02,0,3.6733-0.71427,7.0916-2.1428,10.254-1.4285,3.1632-3.3673,5.9183-5.7142,8.2141-2.3979,2.3469-5.204,4.1326-8.3671,5.459-3.2142,1.2755-6.5304,1.9388-9.9994,1.9388-3.0611,0-5.7652-0.35718-8.112-1.1224-2.3469-0.71426-4.5407-1.6326-6.5304-2.653-1.3775-0.71427-2.449-1.2754-3.1122-1.6836-0.71427-0.45918-1.5306-0.96935-2.5-1.5816-1.2755-0.86735-2.1939-1.7857-2.6531-2.602-0.51019-0.86734-0.71426-1.7857-0.71426-2.755,0-1.0714,0.35714-2.2449,1.1734-3.5203l0.35714-0.66327c1.3265-1.9898,3.0101-3.0101,5.1019-3.0101,1.3265,0,2.449,0.30608,3.4183,0.91834l5.7142,3.7754c1.2244,0.81635,2.449,1.3775,3.6734,1.8367,1.2244,0.45917,2.6019,0.66327,4.1836,0.66327,1.7347,0,3.3673-0.35719,4.9488-1.0714,1.5816-0.66326,2.9591-1.6326,4.1326-2.806,1.1734-1.1734,2.0918-2.551,2.755-4.1836,0.61223-1.5816,0.96937-3.2652,0.96937-4.9999,0-3.5713-1.3265-6.6835-3.9285-9.2855" fill-rule="nonzero" fill="#040000"/>
 <path d="m403.15,353.1c-1.0204-8.8263-2.2959-21.53-2.2959-32.703,0-6.9386,0.91834-34.846,0.91834-57.346,0-18.979-4.0816-52.703-4.0816-71.019,0-11.02,0.8163-25.969-0.40816-31.224,8.7753-5.7142,16.479-9.3365,40.663-24.03,7.857-4.6937,22.857-12.755,22.857-22.398,0-4.2857-1.1734-7.0917-7.2447-12.091-4.2856-3.4183-8.8263-4.3876-13.979-4.3876-12.346,0-17.959,12.346-28.315,18.673-15.765,9.6426-24.132,14.438-27.346,16.224-1.3265-0.61222-6.6835-3.7754-15.357-3.7754-8.9794,0-19.489,4.0306-19.489,15.765,0,5.408,1.6836,11.173-5.4591,14.948-4.0306,2.551-23.673,13.775-44.59,26.376-17.602,10.663-25.816,9.7956-33.264,14.285-6.8876,4.1326-8.6733,9.2855-8.6733,13.775,0,3.9795,2.551,8.9794,3.4183,10.101,4.6937,6.0712,8.9794,9.3365,16.428,9.3365,12.652,0,23.112-11.02,42.653-24.898,12.142-8.6733,23.316-17.653,29.846-17.653,5.8162,0,9.8977,4.3876,9.8977,22.5,0,60.56-3.7244,70.151-3.7244,112.19,0,7.5509,0.30611,21.53,0.56122,27.346h-32.091v-99.232l-61.835,52.142-61.835-52.142v99.232h-200.4v-353.11h195.1l67.141,70.662,67.14-70.662h196.07v150.96c-6.2243,9.5917-25.153,42.04-37.907,75.203-4.1836,10.816-6.1224,18.622-11.581,18.622-6.0713,0-6.5815-5.9693-7.1427-11.275-1.2244-11.632-3.8265-33.315-5.0509-41.275-2.2959-15.459-5.357-31.785-22.602-31.785-12.806,0-26.172,6.9896-26.172,26.07,0,10.816,5.4591,29.642,14.846,54.387,3.6734,9.7446,23.316,61.224,26.173,68.672,5.1529,13.673,12.346,17.398,23.571,17.398,14.387,0,19.336-5.255,25.255-25.408,4.9999-17.142,13.52-45.152,20.612-62.651v114.19h-122.29zm168.21-195.97,0,195.97-32.244,0,0-143.36c6.8876-14.948,23.52-41.122,32.244-52.601m-32.244-26.122,0-131.01,32.244,19.387,0,71.733c-7.9079,8.2651-24.49,28.417-32.244,39.897m-259.13-98.886-17.76,18.673-48.11-50.561,61.02,26.786l4.8468,5.1019zm2.1428,274.94,22.245,0,6.0203-4.9999,0-18.775-28.264,23.775zm-68.06,46.019,26.53,0,0-47.448-26.53-22.347,0,69.794z" fill-rule="nonzero" fill="#FFF"/>
 <path d="m575.14,340.43,10.254,0,0,1.9387-4.0306,0,0,10.714-2.1939,0,0-10.714-4.0306,0,0-1.9387z" fill-rule="nonzero" fill="#FFF"/>
 <path d="m586.84,340.43,3.1122,0,3.5203,9.8977,0,0,3.4183-9.8977,3.1122,0,0,12.652-2.1428,0,0-9.7446,0,0-3.5203,9.7446-1.8367,0-3.5203-9.7446-0.051,0,0,9.7446-2.0918,0,0-12.652z" fill-rule="nonzero" fill="#FFF"/>
</svg>
