<?xml version="1.0" encoding="UTF-8" standalone="no"?>
<!-- Created with Inkscape (http://www.inkscape.org/) -->

<svg
   xmlns:dc="http://purl.org/dc/elements/1.1/"
   xmlns:cc="http://creativecommons.org/ns#"
   xmlns:rdf="http://www.w3.org/1999/02/22-rdf-syntax-ns#"
   xmlns:svg="http://www.w3.org/2000/svg"
   xmlns="http://www.w3.org/2000/svg"
   xmlns:inkscape="http://www.inkscape.org/namespaces/inkscape"
   version="1.1"
   width="495.15671"
   height="265.17358"
   viewBox="0 0 396.12536 212.13887"
   id="svg2">
  <metadata
     id="metadata23">
    <rdf:RDF>
      <cc:Work
         rdf:about="">
        <dc:format>image/svg+xml</dc:format>
        <dc:type
           rdf:resource="http://purl.org/dc/dcmitype/StillImage" />
        <dc:title />
      </cc:Work>
    </rdf:RDF>
  </metadata>
  <defs
     id="defs21" />
  <g
     transform="translate(-153.4392,-2.6104555)"
     id="#ffffffff" />
  <g
     transform="translate(-8.3459404e-6,0)"
     id="layer2">
    <g
       id="text3041"
       style="font-size:46.00956345px;font-style:normal;font-weight:normal;line-height:125%;letter-spacing:0px;word-spacing:0px;fill:#ffffff;fill-opacity:1;stroke:none;font-family:Sans">
      <path
         d="m 354.13716,60.035798 -12.738,0 -3.07778,14.714973 -6.78462,0 6.89694,-32.934581 6.76215,0 -2.65094,12.715534 12.738,0 2.67341,-12.715534 6.76214,0 -6.87447,32.934581 -6.78462,0 z"
         inkscape:connector-curvature="0"
         id="path2995"
         style="font-style:oblique;font-weight:bold;fill:#ffffff;-inkscape-font-specification:Sans Bold Oblique" />
      <path
         d="m 364.78586,74.750771 6.89694,-32.934581 8.87392,0 c 2.47119,3.3e-5 4.05127,0.03748 4.74024,0.112329 1.36289,0.134826 2.57978,0.411901 3.65066,0.831227 1.07084,0.41939 2.04434,1.007239 2.92053,1.76355 0.87613,0.756372 1.63247,1.666228 2.26903,2.729571 0.63649,1.063399 1.12699,2.287773 1.47149,3.673127 0.34444,1.385402 0.51668,2.901829 0.51671,4.549286 -3e-5,3.549581 -0.67774,6.698507 -2.03313,9.446787 -1.35546,2.7483 -3.0591,4.931206 -5.11093,6.548725 -1.57262,1.258076 -3.60201,2.186653 -6.08818,2.785735 -1.40786,0.329496 -3.57205,0.494244 -6.49256,0.494244 z m 7.88543,-5.301884 3.43724,0 c 2.48618,6e-6 4.28717,-0.153509 5.40298,-0.460545 1.11577,-0.307024 2.13795,-0.879896 3.06655,-1.718619 1.33294,-1.213134 2.45622,-2.830656 3.36984,-4.852571 0.91358,-2.02189 1.37038,-4.403242 1.3704,-7.144063 -2e-5,-2.336401 -0.37819,-4.092461 -1.13451,-5.268185 -0.75637,-1.175674 -1.68869,-1.958225 -2.79697,-2.347656 -0.77883,-0.26956 -2.1642,-0.404353 -4.15613,-0.404381 l -3.93149,0 z"
         inkscape:connector-curvature="0"
         id="path2997"
         style="font-style:oblique;font-weight:bold;fill:#ffffff;-inkscape-font-specification:Sans Bold Oblique" />
    </g>
  </g>
  <g
     transform="translate(-153.4392,-2.6104555)"
     id="layer1">
    <g
       transform="translate(148.63637,-3.2972499)"
       id="#ee7f01ff">
      <path
         d="m 53.5,6.76 c 15.12,-2.32 31.27,0.29 44.28,8.54 11.12,7.02 18.8,18.6 22.65,31.04 5.67,18.43 3.46,39.22 -6.25,55.91 -7.69,13.07 -21.53,21.8 -36.22,24.82 -16.64,3.64 -34.92,0.77 -49.02,-9.01 C 17.18,109.85 9.23,96.8 6.38,82.82 3.6,69.34 4.48,55.03 9.14,42.06 16.06,23.38 33.7,9.24 53.5,6.76 m 5.77,29.43 C 52,37.96 46.13,43.93 43.9,50.99 39.85,62.98 40.23,76.66 45.91,88.07 49.69,94.74 57.3,99.33 65.05,98.88 72.36,98.58 79.09,93.95 82.57,87.6 85.81,81.63 86.78,74.69 87.04,67.99 87.05,59.98 85.69,51.58 81.32,44.73 76.49,37.94 67.47,34.04 59.27,36.19 z"
         inkscape:connector-curvature="0"
         id="path6"
         style="fill:#ee7f01" />
      <path
         d="m 167.83,8.69 c 10.04,-3.16 20.76,-3.03 31.14,-2.06 11.05,1.15 22.37,4.97 30.08,13.31 7.33,7.47 9.85,18.06 11.51,28.05 -11.74,0.06 -23.48,0.12 -35.22,0.06 -3.02,-11.52 -17.75,-15.43 -27.62,-10.42 -6.39,2.84 -9.49,9.61 -11.33,15.94 -3.34,11.54 -2.26,24.32 2.98,35.12 5.3,10.51 20.62,13.55 29.88,6.56 3.69,-3.05 4.79,-7.95 6.17,-12.3 11.86,0.01 23.72,-0.12 35.58,-0.08 0.13,12.03 -4.9,24.09 -13.94,32.09 -10.8,9.72 -25.7,13.81 -40.01,13.53 -10.19,-0.26 -20.62,-1.95 -29.65,-6.92 -12.37,-6.82 -22.05,-18.55 -25.98,-32.15 -5.4,-18.39 -4.45,-39.14 4.94,-56.1 6.48,-12.13 18.39,-20.81 31.47,-24.63 z"
         inkscape:connector-curvature="0"
         id="path8"
         style="fill:#ee7f01" />
      <path
         d="m 275.21,9.19 c 16.85,-5.62 36.2,-4.08 51.54,5.06 11.41,7.08 17.76,20.6 17.87,33.81 -11.42,0.01 -22.84,0.02 -34.26,0 -0.48,-4.68 -0.76,-10.43 -5.16,-13.26 -5.46,-2.96 -12.52,-3.53 -18.14,-0.66 -2.11,1.14 -4.5,3.08 -4.05,5.79 0.71,3.14 3.5,5.39 6.31,6.66 13.24,5.18 27.76,6.29 40.69,12.39 6.04,2.87 11.85,6.88 15.29,12.76 6.92,11.7 5.52,27.29 -2.28,38.22 -5.97,8.38 -15.6,13.31 -25.34,15.89 -13.34,3.27 -27.66,3.84 -40.85,-0.44 -9.77,-3.13 -19.14,-8.63 -25.33,-16.98 -5.3,-7.36 -7.4,-16.5 -8.02,-25.42 12.22,-0.03 24.44,-0.21 36.66,-0.14 0.55,5.84 0.61,13.24 6.32,16.61 6.83,3.26 15.33,3.68 22.15,0.14 4.46,-2.29 6.4,-9.91 1.66,-12.89 -15.81,-8.58 -35.08,-8.64 -50.12,-18.9 -5.27,-3.28 -8.94,-8.7 -10.59,-14.64 -3.33,-11.8 0.25,-25.13 8.59,-34.03 4.59,-4.89 10.8,-7.83 17.06,-9.97 z"
         inkscape:connector-curvature="0"
         id="path10"
         style="fill:#ee7f01" />
    </g>
    <g
       transform="translate(148.63637,-3.2972499)"
       id="#000000ff"
       style="fill:#ffffff">
      <path
         d="m 113.47,147.5 c 5.45,-6 13.73,-8.15 21.57,-8.54 6.67,0.42 13.72,1.7 18.95,6.2 5.29,4.32 7.85,11.17 8.38,17.83 -5.83,0.02 -11.66,0.01 -17.49,0.01 -0.3,-3.91 -2.17,-8.1 -6.04,-9.6 -3.29,-0.76 -7.27,-0.81 -9.9,1.64 -1.74,1.42 -2.56,3.57 -3.58,5.51 -1.9,5.67 -1.44,11.75 -1.11,17.62 0.79,4.91 2.69,10.81 7.89,12.58 3.23,0.53 7.16,0.64 9.54,-2.03 2.53,-2.17 3.37,-5.51 3.42,-8.72 5.98,-0.01 11.96,0.01 17.94,-0.01 -0.69,8.09 -4.22,16.37 -11.48,20.63 -11.33,6.52 -27.16,5.84 -36.99,-3.19 -7.19,-6.8 -9.27,-17.04 -9.61,-26.53 0.49,-8.36 2.29,-17.29 8.51,-23.4 z"
         inkscape:connector-curvature="0"
         id="path13"
         style="fill:#ffffff" />
      <path
         d="m 166,141 c 5.67,0 11.33,0 17,0 0,4.33 0,8.67 0,13 -5.67,0 -11.33,0 -17,0 0,-4.33 0,-8.67 0,-13 z"
         inkscape:connector-curvature="0"
         id="path15"
         style="fill:#ffffff" />
      <path
         d="m 189,144 c 5.67,0 11.33,0 17,0 0,4.67 0,9.33 0,14 7.99,0.06 15.99,-0.1 23.97,0.06 0.22,0.25 0.66,0.75 0.88,1 1.42,10.15 4.86,20.03 5.36,30.29 1.59,-2.44 1.41,-5.41 1.83,-8.17 1.66,-7.73 3.58,-15.41 5.04,-23.18 5.89,0 11.77,0 17.66,0 -3.76,12.95 -7.76,25.82 -11.55,38.76 -1.81,5.84 -3.44,12.07 -7.74,16.65 -3.28,3.26 -7.99,4.11 -12.41,4.58 -4.71,0.34 -9.33,-0.97 -14.04,-0.82 0,-4.39 0,-8.78 0,-13.17 3.52,-0.25 7.05,0.16 10.57,-0.23 0.23,-0.74 0.68,-2.2 0.91,-2.93 -3.13,-10.76 -7.02,-21.28 -10.68,-31.86 -3.27,0.03 -6.53,0.02 -9.8,0.02 0.27,7.23 -0.57,14.54 0.47,21.71 2.17,0.26 4.35,0.32 6.53,0.22 0,4.02 0,8.04 0,12.06 -5.67,0.01 -11.4,2.16 -16.92,-0.12 -5.12,-1.46 -6.73,-7.15 -7.02,-11.87 -0.16,-7.33 -0.01,-14.67 -0.06,-22 -2,0 -4,0 -6,0 0,11.33 0,22.67 0,34 -5.67,0 -11.33,0 -17,0 0,-15 0,-30 0,-45 7.67,0 15.33,0 23,0 0,-4.67 0,-9.33 0,-14 z"
         inkscape:connector-curvature="0"
         id="path17"
         style="fill:#ffffff" />
    </g>
  </g>
</svg>
