<?xml version="1.0" encoding="UTF-8" standalone="no"?>
<!-- Created with Inkscape (http://www.inkscape.org/) -->

<svg
   xmlns:dc="http://purl.org/dc/elements/1.1/"
   xmlns:cc="http://creativecommons.org/ns#"
   xmlns:rdf="http://www.w3.org/1999/02/22-rdf-syntax-ns#"
   xmlns:svg="http://www.w3.org/2000/svg"
   xmlns="http://www.w3.org/2000/svg"
   version="1.1"
   width="600"
   height="367.88849"
   id="svg130352">
  <defs
     id="defs130354">
    <clipPath
       id="clipPath124017">
      <path
         d="m 47.086,195.395 16.313,0 0,8.539 -16.313,0 0,-8.539 z"
         id="path124019" />
    </clipPath>
  </defs>
  <metadata
     id="metadata130357">
    <rdf:RDF>
      <cc:Work
         rdf:about="">
        <dc:format>image/svg+xml</dc:format>
        <dc:type
           rdf:resource="http://purl.org/dc/dcmitype/StillImage" />
        <dc:title></dc:title>
      </cc:Work>
    </rdf:RDF>
  </metadata>
  <g
     transform="matrix(43.404062,0,0,-43.404062,164.56663,307.55686)"
     id="g124021"
     style="fill:#ffffff">
    <path
       d="M 0,0 0,1.261 C 0,1.397 0.053,1.424 0.11,1.425 0.166,1.424 0.219,1.397 0.219,1.261 L 0.219,0 C 0.219,-0.136 0.166,-0.164 0.11,-0.164 0.053,-0.164 0,-0.136 0,0 m -0.42,-0.964 c 0,-0.262 0.203,-0.426 0.53,-0.426 0.326,0 0.529,0.164 0.529,0.426 l 0,2.714 -0.42,0 0,-0.163 -0.011,0.012 C 0.119,1.702 0.012,1.782 -0.102,1.782 -0.311,1.781 -0.419,1.655 -0.42,1.446 l 0,-1.631 c 0.001,-0.209 0.109,-0.335 0.318,-0.336 0.147,0 0.229,0.057 0.292,0.172 l 0.001,0.004 0.004,0 0.015,0 0,-0.578 c 0,-0.137 -0.053,-0.164 -0.109,-0.164 -0.057,0 -0.11,0.027 -0.11,0.164 l 0,0.273 -0.411,0 0,-0.314 z"
       id="path124023"
       style="fill:#ffffff;fill-opacity:1;fill-rule:nonzero;stroke:none" />
  </g>
  <g
     transform="matrix(43.404062,0,0,-43.404062,222.8279,276.94832)"
     id="g124025"
     style="fill:#ffffff">
    <path
       d="m 0,0 0,0.641 c 0,0.06 0.01,0.093 0.03,0.111 0.02,0.02 0.048,0.021 0.08,0.021 0.031,0 0.059,-0.001 0.079,-0.021 0.02,-0.018 0.03,-0.051 0.03,-0.111 L 0.219,0 0,0 z m -0.42,0.65 0,-1.774 c 0,-0.262 0.203,-0.426 0.53,-0.427 0.326,10e-4 0.528,0.165 0.529,0.427 l 0,0.606 -0.42,0 0,-0.597 c 0,-0.059 -0.01,-0.093 -0.03,-0.112 -0.02,-0.018 -0.048,-0.021 -0.079,-0.021 -0.032,0 -0.06,0.003 -0.08,0.021 C 0.01,-1.208 0,-1.174 0,-1.115 l 0,0.826 0.639,0 0,0.939 C 0.638,0.912 0.436,1.076 0.11,1.076 -0.217,1.076 -0.42,0.912 -0.42,0.65"
       id="path124027"
       style="fill:#ffffff;fill-opacity:1;fill-rule:nonzero;stroke:none" />
  </g>
  <g
     transform="matrix(43.404062,0,0,-43.404062,281.0541,324.77525)"
     id="g124029"
     style="fill:#ffffff">
    <path
       d="m 0,0 0,0.649 c 0,0.138 0.089,0.195 0.21,0.266 l 0.01,0.006 0,-0.903 c 0,-0.062 -0.049,-0.1 -0.11,-0.11 -0.003,0 -0.007,0 -0.01,0 l 0,0 C 0.044,-0.092 0.009,-0.054 0,0 m 0.646,-0.423 0,0.006 0,-0.006 z M 0.207,1.688 C 0.207,1.659 0.206,1.632 0.206,1.612 0.203,0.949 -0.424,1.221 -0.42,0.707 l 0,-0.865 c 0.001,-0.191 0.1,-0.29 0.287,-0.291 0.178,0.001 0.242,0.057 0.332,0.205 l 0.002,0.003 0.003,0 0.016,0 0,-0.007 c 0,-0.057 0,-0.117 0.024,-0.169 l 0.396,0 0,2.169 c 0,0.262 -0.203,0.426 -0.53,0.426 -0.327,0 -0.53,-0.164 -0.53,-0.426 l 0,-0.512 0.425,0 0,0.332 c 0,0.024 -0.002,0.056 -0.002,0.09 0,0.095 0.011,0.212 0.111,0.213 C 0.198,1.874 0.207,1.769 0.207,1.688"
       id="path124031"
       style="fill:#ffffff;fill-opacity:1;fill-rule:nonzero;stroke:none" />
  </g>
  <g
     transform="matrix(43.404062,0,0,-43.404062,348.84712,252.81957)"
     id="g124033"
     style="fill:#ffffff">
    <path
       d="m 0,0 0,-2.075 0.42,0 0,2.138 C 0.418,0.335 0.417,0.52 0.093,0.521 c -0.115,0 -0.23,-0.058 -0.292,-0.177 l -0.002,-0.003 -0.004,0 -0.015,0 0,0.148 -0.419,0 0,-2.564 0.419,0 0,2.075 c 0.001,0.071 0.006,0.163 0.119,0.164 C -0.005,0.163 0,0.071 0,0"
       id="path124035"
       style="fill:#ffffff;fill-opacity:1;fill-rule:nonzero;stroke:none" />
  </g>
  <g
     transform="matrix(43.404062,0,0,-43.404062,376.59525,245.91875)"
     id="g124037"
     style="fill:#ffffff">
    <path
       d="m 0,0 0.127,0 0,-1.898 c 0,-0.097 0.057,-0.336 0.317,-0.336 l 0.242,0 0,0.33 -0.039,0 c -0.048,10e-4 -0.1,0.02 -0.101,0.213 l 0,1.691 0.14,0 0,0.33 -0.134,0 -0.006,0 0,0.464 -0.419,0 0,-0.464 L 0,0.33 0,0 z"
       id="path124039"
       style="fill:#ffffff;fill-opacity:1;fill-rule:nonzero;stroke:none" />
  </g>
  <g
     transform="matrix(43.404062,0,0,-43.404062,415.89772,325.7436)"
     id="g124041"
     style="fill:#ffffff">
    <path
       d="m 0,0 c 0,-0.262 0.203,-0.426 0.53,-0.426 0.327,0 0.529,0.164 0.529,0.426 l 0,0.523 C 1.061,0.9 0.422,1.254 0.42,1.522 l 0,0.212 c 0,0.136 0.053,0.164 0.11,0.164 0.056,0 0.109,-0.028 0.11,-0.164 l 0,-0.485 0.419,0 0,0.526 C 1.059,2.037 0.857,2.2 0.53,2.201 0.203,2.2 0,2.037 0,1.775 L 0,1.428 C -0.002,1.024 0.637,0.726 0.64,0.306 l 0,-0.265 C 0.639,-0.096 0.586,-0.123 0.53,-0.123 c -0.057,0 -0.11,0.027 -0.11,0.164 l 0,0.556 L 0,0.597 0,0 z"
       id="path124043"
       style="fill:#ffffff;fill-opacity:1;fill-rule:nonzero;stroke:none" />
  </g>
  <g
     transform="matrix(43.404062,0,0,-43.404062,348.63848,72.718752)"
     id="g124045">
    <path
       d="m 0,0 c -0.026,0.17 -0.148,0.51 -0.744,0.51 -0.675,0 -0.891,-0.655 -0.891,-1.284 0,-0.629 0.216,-1.284 0.891,-1.284 0.485,0 0.674,0.193 0.76,0.632 l 1.415,0 c 0,-0.943 -0.766,-1.798 -2.136,-1.798 -1.513,0 -2.372,1.068 -2.372,2.45 0,1.474 0.93,2.45 2.372,2.45 C 0.579,1.67 1.278,1.173 1.402,0 L 0,0 z"
       id="path124047"
       style="fill:#f47216;fill-opacity:1;fill-rule:nonzero;stroke:none" />
  </g>
  <g
     transform="matrix(43.404062,0,0,-43.404062,102.91107,162.04431)"
     id="g124049">
    <path
       d="M 0,0 C 0.367,0 0.93,0.243 0.93,1.284 0.93,2.326 0.367,2.568 0,2.568 -0.367,2.568 -0.931,2.326 -0.931,1.284 -0.931,0.243 -0.367,0 0,0 m 0,3.734 c 1.422,0 2.372,-1.022 2.372,-2.45 0,-1.428 -0.95,-2.45 -2.372,-2.45 -1.422,0 -2.371,1.022 -2.371,2.45 0,1.428 0.949,2.45 2.371,2.45"
       id="path124051"
       style="fill:#f47216;fill-opacity:1;fill-rule:nonzero;stroke:none" />
  </g>
  <g
     transform="matrix(43.404062,0,0,-43.404062,479.42356,134.60036)"
     id="g124053">
    <path
       d="m 0,0 c 0,-0.118 0.019,-0.337 0.052,-0.423 0.105,-0.282 0.419,-0.34 0.688,-0.34 0.236,0 0.596,0.078 0.596,0.426 0,0.242 -0.203,0.307 -1.009,0.537 -0.74,0.209 -1.585,0.412 -1.585,1.356 0,1.081 0.923,1.546 1.887,1.546 1.015,0 1.913,-0.537 1.952,-1.676 l -1.363,0 C 1.245,1.602 1.166,1.87 1.048,1.949 0.93,2.034 0.766,2.067 0.622,2.067 0.426,2.067 0.105,2.014 0.105,1.752 0.131,1.418 0.799,1.346 1.461,1.163 2.122,0.979 2.778,0.672 2.778,-0.187 c 0,-1.218 -1.121,-1.612 -2.162,-1.612 -0.531,0 -2.045,0.305 -2.058,1.799 L 0,0 z"
       id="path124055"
       style="fill:#f47216;fill-opacity:1;fill-rule:nonzero;stroke:none" />
  </g>
</svg>
