<?xml version="1.0" encoding="UTF-8" standalone="no"?>
<svg xmlns:rdf="http://www.w3.org/1999/02/22-rdf-syntax-ns#" xmlns="http://www.w3.org/2000/svg" height="272.49" width="600" version="1.1" xmlns:cc="http://creativecommons.org/ns#" xmlns:xlink="http://www.w3.org/1999/xlink" viewBox="0 0 158.75 72.095918" xmlns:dc="http://purl.org/dc/elements/1.1/">
 <g transform="translate(-33.344 -124.18)" fill="#fff">
  <path d="m116.33 157.92c-1.44-1.53-3.25-3.61-4.84-5.46-0.85-0.99-1.65-1.92-2.35-2.69-0.25-0.27-0.44-0.59-0.5-0.88-0.11-0.65 0.33-1.27 1-1.42 0.27-0.08 0.58-0.18 0.93-0.27 0.65-0.19 1.36-0.39 2-0.56 3.26-0.96 5.51-2.48 6.84-4.65 0.83-1.35 1.09-2.96 0.79-4.56-0.2-0.96-0.81-1.9-1.5-2.29l-0.02-0.01c-0.85-0.52-2.04-0.81-3.23-0.79-0.44 0.02-1.12 0.09-1.6 0.19-0.77 0.13-1.27 0.42-1.55 0.88-1.64 2.81-3.5 8.04-5.29 13.27-0.44 1.34-0.92 2.71-1.38 4.03-0.87 2.52-2.06 5.94-3.08 8.92 2.88 2.48 5.84 4.83 8.5 7.12 0.48 0.42 1 0.88 1 0.88 0.25 0.21 0.63 0.21 0.86 0 0 0 0.52-0.46 1.02-0.88 2.31-2 4.86-4.06 7.4-6.19-1.61-1.29-3.25-2.83-5-4.64z"/>
  <path d="m87.805 141.39c-3.172-15.22 12.865-22.32 23.295-13.09 0.48 0.42 0.95 0.87 1.39 1.37 0.44-0.5 0.9-0.95 1.36-1.37 10.46-9.23 26.49-2.13 23.3 13.09-1.46 7.08-6.42 12.81-12.03 17.9-0.58-0.48-1.17-0.98-1.75-1.52-3.29-2.96-6.88-6.79-9.06-9.36 1.68-0.54 3.35-1.31 4.7-2.14 1.69-1.03 3.4-2.59 4.57-4.13 1.56-2.07 2.19-4.17 1.83-6.03-0.31-1.56-1.27-2.85-2.64-3.52-2.8-1.41-6.82-0.89-10.01-0.27-2.79 0.54-5.62 1.36-7.96 2.34-2.69 1.14-5.48 2.91-7.594 4.56-0.654 0.54-0.75 0.61-0.846 1.5-0.019 0.15-0.288 2.52-0.288 2.61 0 0.16 0.019 0.27 0.019 0.33 0.115 0.58 0.692 0.96 1.288 0.85 0.461-0.08 0.807-0.48 0.903-1.02 0.385-1.37 1.327-2.75 2.598-3.85 1.92-1.59 4.03-2.78 6-3.4-0.81 2.96-2.25 7.25-3.7 10.9-1.4 3.58-2.94 7.67-4.283 11.27-5.209-4.89-9.708-10.37-11.092-17.02z"/>
  <path d="m184.33 195.49-5.67-13.07c-0.06-0.14-0.08-0.24-0.08-0.39 0-0.42 0.37-0.81 0.83-0.81 0.42 0 0.71 0.27 0.86 0.64l5.08 12.17 5.09-12.23c0.15-0.29 0.44-0.58 0.83-0.58 0.46 0 0.82 0.39 0.82 0.79 0 0.14-0.03 0.23-0.07 0.35l-5.69 13.13c-0.18 0.42-0.48 0.69-0.96 0.69h-0.08c-0.48 0-0.81-0.27-0.96-0.69z"/>
  <path d="m168.14 182.86h-4.27c-0.42 0-0.77-0.33-0.77-0.75 0-0.43 0.35-0.79 0.77-0.79h10.21c0.42 0 0.77 0.36 0.77 0.79 0 0.42-0.35 0.75-0.77 0.75h-4.27v12.42c0 0.46-0.36 0.84-0.82 0.84s-0.85-0.38-0.85-0.84z"/>
  <path d="m140.75 195.18v-13.01c0-0.47 0.38-0.85 0.82-0.85h9.1c0.4 0 0.77 0.31 0.79 0.73 0.01 0.42-0.33 0.79-0.75 0.79h-8.29v5.02h7.34c0.56 0 0.96 0.61 0.64 1.13-0.16 0.25-0.43 0.37-0.69 0.37h-7.29v5.15h8.34c0.41 0 0.77 0.3 0.79 0.71 0.04 0.44-0.31 0.79-0.75 0.79h-9.23c-0.44 0-0.82-0.37-0.82-0.83z"/>
  <path d="m123.14 188.72v-0.06c0-4.15 3.11-7.59 7.44-7.59 2.36 0 3.88 0.79 5.25 1.92 0.17 0.14 0.32 0.37 0.32 0.66 0 0.44-0.38 0.82-0.84 0.82-0.21 0-0.41-0.09-0.54-0.19-1.14-1-2.4-1.67-4.21-1.67-3.25 0-5.69 2.63-5.69 6.01v0.04c0 3.41 2.46 6.08 5.69 6.08 1.83 0 3.09-0.64 4.36-1.79 0.12-0.13 0.31-0.23 0.52-0.23 0.42 0 0.81 0.38 0.81 0.81 0 0.25-0.14 0.46-0.29 0.57-1.44 1.33-3.04 2.18-5.44 2.18-4.25 0-7.38-3.35-7.38-7.56z"/>
  <path d="m105.8 182.07c0-0.42 0.36-0.81 0.81-0.81h0.23c0.38 0 0.61 0.19 0.84 0.48l8.92 11.38v-11.09c0-0.42 0.37-0.81 0.83-0.81 0.42 0 0.79 0.39 0.79 0.81v13.27c0 0.44-0.31 0.78-0.75 0.78h-0.1c-0.34 0-0.59-0.21-0.84-0.52l-9.12-11.63v11.37c0 0.44-0.36 0.82-0.82 0.82-0.45 0-0.79-0.38-0.79-0.82z"/>
  <path d="m94.322 181.15c-0.519 0-0.826 0.29-1.038 0.75l-5.959 13.03c-0.096 0.15-0.116 0.31-0.116 0.44 0 0.41 0.346 0.75 0.75 0.75 0.385 0 0.654-0.21 0.808-0.57l1.538-3.41h8.054l1.538 3.37c0.133 0.34 0.403 0.61 0.803 0.61 0.45 0 0.81-0.36 0.81-0.81 0-0.11-0.06-0.26-0.11-0.4l-5.963-13.01c-0.192-0.46-0.519-0.75-1.019-0.75zm0 1.96 3.384 7.51h-6.767z"/>
  <path d="m68.87 182.07c0-0.42 0.384-0.81 0.826-0.81h0.173c0.366 0 0.616 0.19 0.789 0.44l5.248 7.89 5.248-7.89c0.173-0.26 0.442-0.44 0.769-0.44h0.192c0.442 0 0.827 0.39 0.827 0.81v13.21c0 0.46-0.385 0.84-0.827 0.84-0.461 0-0.846-0.4-0.846-0.84v-10.96l-4.69 6.9c-0.193 0.29-0.404 0.42-0.692 0.42-0.289 0-0.539-0.13-0.712-0.42l-4.69-6.88v10.96c0 0.46-0.346 0.82-0.808 0.82-0.442 0-0.807-0.36-0.807-0.82z"/>
  <path d="m56.509 181.07c-4.46 0-7.517 3.56-7.517 7.59v0.06c0 4.04 2.999 7.56 7.478 7.56 4.46 0 7.517-3.56 7.517-7.62v-0.04c0-4.05-2.999-7.55-7.478-7.55zm-0.039 1.54c3.345 0 5.787 2.73 5.787 6.05v0.06c0 3.33-2.384 6.02-5.748 6.02s-5.787-2.73-5.787-6.08v-0.04c0-3.32 2.384-6.01 5.748-6.01z"/>
  <path d="m34.171 181.32c-0.442 0-0.827 0.38-0.827 0.85v13.11c0 0.46 0.385 0.84 0.827 0.84 0.461 0 0.846-0.38 0.846-0.84v-4.98h4.21l4.133 5.38c0.192 0.25 0.442 0.44 0.769 0.44 0.423 0 0.845-0.38 0.845-0.82 0-0.24-0.095-0.41-0.268-0.6l-3.653-4.71c2.288-0.44 3.921-1.85 3.921-4.25v-0.06c0-1.15-0.422-2.17-1.133-2.88-0.923-0.92-2.365-1.48-4.172-1.48zm0.846 1.54h4.518c2.383 0 3.767 1.09 3.767 2.9v0.04c0 1.88-1.576 3.02-3.787 3.02h-4.498z"/>
 </g>
</svg>
