<?xml version="1.0" encoding="UTF-8" standalone="no"?>
<!-- Created with Inkscape (http://www.inkscape.org/) -->
<svg xmlns:rdf="http://www.w3.org/1999/02/22-rdf-syntax-ns#" xmlns="http://www.w3.org/2000/svg" height="130.99" width="600" version="1.1" xmlns:cc="http://creativecommons.org/ns#" xmlns:dc="http://purl.org/dc/elements/1.1/">
 <metadata>
  <rdf:RDF>
   <cc:Work rdf:about="">
    <dc:format>image/svg+xml</dc:format>
    <dc:type rdf:resource="http://purl.org/dc/dcmitype/StillImage"/>
    <dc:title/>
   </cc:Work>
  </rdf:RDF>
 </metadata>
 <g fill-rule="nonzero" transform="translate(79.605815,-322.08257)">
  <path fill="#FFF" d="m-38.175,358.47-14.975,0,0,21.771,14.975,0c7.2569,0,11.491-5.2922,11.491-10.884,0-5.5945-4.2343-10.887-11.491-10.887m13.005,83.917-19.05-40.063-8.9295,0,0,40.063-26.456,0,0-107.66,42.642,0c23.884,0,36.741,16.932,36.741,34.627,0,14.665-9.0706,23.889-17.537,28.124l23.285,44.907h-30.695z"/>
  <path fill="#FFF" d="m64.114,358.32,0,84.068-26.461,0,0-84.068-26.471,0,0-23.592,79.388,0,0,23.592-26.456,0z"/>
  <path fill="#FFF" d="m185.59,418.81-53.134,0,0-84.078-26.461,0,0,107.66,71.784,0,7.8111-23.579z"/>
  <path fill="#FD0" d="m520.39,322.08-39.509,0-43.393,130.99,39.506,0,43.396-130.99z"/>
  <path fill="#FD0" d="m441.39,322.08-26.345,0-43.391,130.99,26.338,0,43.398-130.99z"/>
  <path fill="#FD0" d="m362.37,322.08-13.171,0-43.393,130.98,13.166,0,43.398-130.98z"/>
  <path fill="#FFF" d="m226.8,453.07,26.34,0,39.209-118.34-79.131,0-8.2393,25.224,52.675,0-30.854,93.111z"/>
 </g>
</svg>
