<?xml version="1.0" encoding="UTF-8" standalone="no"?>
<!-- Created with Inkscape (http://www.inkscape.org/) -->

<svg
   xmlns:dc="http://purl.org/dc/elements/1.1/"
   xmlns:cc="http://creativecommons.org/ns#"
   xmlns:rdf="http://www.w3.org/1999/02/22-rdf-syntax-ns#"
   xmlns:svg="http://www.w3.org/2000/svg"
   xmlns="http://www.w3.org/2000/svg"
   version="1.1"
   width="600"
   height="285.3349"
   id="svg125692">
  <defs
     id="defs125694">
    <clipPath
       id="clipPath123601">
      <path
         d="m 45.257,258.58 19.97,0 0,9.956 -19.97,0 0,-9.956 z"
         id="path123603" />
    </clipPath>
  </defs>
  <metadata
     id="metadata125697">
    <rdf:RDF>
      <cc:Work
         rdf:about="">
        <dc:format>image/svg+xml</dc:format>
        <dc:type
           rdf:resource="http://purl.org/dc/dcmitype/StillImage" />
        <dc:title></dc:title>
      </cc:Work>
    </rdf:RDF>
  </metadata>
  <g
     transform="matrix(1.0319131,0,0,1.0319131,4.7470066e-5,-11.555434)"
     id="g126079"
     style="fill:#ffffff">
    <g
       transform="matrix(30.045701,0,0,-30.045701,260.93152,127.33672)"
       id="g123607"
       style="fill:#ffffff">
      <path
         d="m 0,0 c 0.003,0.001 0.006,0.001 0.009,0.001 0.015,0 0.027,-0.009 0.034,-0.023 0.006,-0.015 0.003,-0.033 -0.008,-0.044 -0.194,-0.189 -0.209,-0.382 -0.209,-0.597 0,-0.191 0.015,-0.411 0.204,-0.597 0.012,-0.011 0.015,-0.029 0.008,-0.045 -0.006,-0.014 -0.018,-0.023 -0.033,-0.023 -0.003,0 -0.006,0.001 -0.011,0.002 -0.078,0.006 -0.477,0.265 -0.476,0.683 0.002,0.4 0.4,0.636 0.482,0.643 m -1.305,-0.735 c -0.001,-0.345 0.149,-0.6 0.502,-0.849 0.451,-0.308 1.039,-0.464 1.748,-0.464 l 0,0 c 0.586,0 1.24,0.113 1.841,0.317 l 0.012,0.004 -0.124,0.458 c -0.016,0.048 -0.052,0.066 -0.098,0.048 l -0.002,0 C 2.157,-1.462 1.682,-1.594 1.236,-1.594 c -0.17,0 -0.335,0.019 -0.49,0.056 -0.089,0.029 -0.148,0.114 -0.175,0.252 -0.038,0.175 -0.031,1.026 0.022,1.141 0.09,0.207 0.308,0.223 0.52,0.239 0.044,0.003 0.089,0.006 0.13,0.011 0.569,-0.013 1.054,-0.276 1.209,-0.655 0.005,-0.023 0.025,-0.038 0.051,-0.038 0.01,0 0.022,0.002 0.035,0.007 0.168,0.053 0.236,0.077 0.243,0.08 L 2.789,-0.496 2.612,0.574 2.351,0.594 2.348,0.583 C 2.348,0.582 2.309,0.433 2.201,0.433 2.194,0.433 2.186,0.434 2.178,0.435 1.68,0.523 1.275,0.564 0.904,0.564 0.229,0.564 -0.317,0.425 -0.766,0.138 -1.123,-0.11 -1.305,-0.403 -1.305,-0.735"
         id="path123609"
         style="fill:#ffffff;fill-opacity:1;fill-rule:nonzero;stroke:none" />
    </g>
    <g
       transform="matrix(30.045701,0,0,-30.045701,415.90421,127.39952)"
       id="g123611"
       style="fill:#ffffff">
      <path
         d="m 0,0 0,0 c -0.006,0.006 -0.009,0.014 -0.009,0.023 10e-4,0.02 0.016,0.036 0.035,0.036 l 0,0.013 0.001,-0.013 0.209,0 0.003,0.002 C 0.25,0.06 0.262,0.055 0.271,0.046 l 0.615,-0.658 c 0.019,-0.02 0.019,-0.055 0.001,-0.076 L 0.801,-0.786 C 0.782,-0.806 0.752,-0.806 0.734,-0.787 L 0.005,-0.006 0,0 z m 2.656,-1.34 0.004,1.201 c 0,0.026 0.02,0.056 0.041,0.065 l 0.175,0.069 c 0.004,0.001 0.008,0.002 0.012,0.002 0.018,0 0.021,-0.016 0.021,-0.026 L 2.904,-1.232 c 0,-0.025 -0.019,-0.054 -0.042,-0.063 L 2.688,-1.363 C 2.67,-1.371 2.656,-1.361 2.656,-1.34 M 3.637,0.006 3.65,0.011 c 0.07,0.028 0.156,0.063 0.223,0.08 0.077,0.021 0.11,0.053 0.101,0.1 l 10e-4,0.261 -2.056,0 -0.605,-0.706 C 1.311,-0.258 1.307,-0.26 1.301,-0.262 1.295,-0.261 1.289,-0.26 1.287,-0.257 L 0.634,0.45 0.63,0.454 l -2.033,0.002 -0.013,0 0,-0.261 c -0.008,-0.048 0.023,-0.079 0.1,-0.1 0.063,-0.017 0.14,-0.047 0.208,-0.074 L -1.08,0.01 c 0.06,-0.025 0.072,-0.058 0.071,-0.101 l -0.003,-1.358 c 0.003,-0.042 -0.008,-0.075 -0.068,-0.099 -0.018,-0.006 -0.037,-0.014 -0.056,-0.021 -0.059,-0.023 -0.127,-0.05 -0.181,-0.065 -0.077,-0.02 -0.108,-0.051 -0.1,-0.098 l 0,-0.26 1.292,-0.003 -0.001,0.262 c 0.009,0.048 -0.023,0.079 -0.1,0.098 -0.067,0.019 -0.155,0.054 -0.226,0.083 l -0.009,0.003 c -0.061,0.025 -0.073,0.057 -0.071,0.102 l -0.001,1.075 c 0,0.017 0.013,0.03 0.028,0.03 0.007,0 0.011,-0.002 0.015,-0.005 l 1.179,-1.373 1.192,1.403 10e-4,0.002 c 0.004,0.007 0.015,0.01 0.024,0.01 0.016,0 0.024,-0.016 0.024,-0.032 L 1.932,-1.451 C 1.933,-1.493 1.922,-1.526 1.861,-1.55 1.796,-1.576 1.698,-1.617 1.625,-1.635 1.549,-1.656 1.518,-1.686 1.525,-1.734 l -10e-4,-0.262 2.435,-0.002 0.013,0 0,0.261 c 0.007,0.049 -0.023,0.079 -0.099,0.099 -0.065,0.019 -0.147,0.051 -0.213,0.077 l -0.024,0.01 c -0.06,0.023 -0.071,0.056 -0.07,0.1 l 0.001,1.357 c -0.001,0.044 0.01,0.076 0.07,0.1"
         id="path123613"
         style="fill:#ffffff;fill-opacity:1;fill-rule:nonzero;stroke:none" />
    </g>
    <g
       transform="matrix(30.045701,0,0,-30.045701,134.26518,168.30403)"
       id="g123615"
       style="fill:#ffffff">
      <path
         d="m 0,0 0.004,1.203 c 0.001,0.026 0.02,0.055 0.043,0.064 l 0.174,0.068 c 0.004,0.002 0.009,0.003 0.013,0.003 0.018,0 0.019,-0.019 0.019,-0.025 L 0.248,0.109 C 0.248,0.083 0.229,0.054 0.207,0.046 L 0.032,-0.023 C 0.022,-0.028 0.012,-0.027 0.007,-0.021 0.002,-0.016 0,-0.009 0,0 m 2.093,1.811 -0.003,0.01 -3.91,0.003 -0.011,0 -0.002,-0.011 C -1.835,1.807 -1.982,1.182 -2.063,0.893 L -2.066,0.882 -1.831,0.786 c 0.016,-0.007 0.029,-0.01 0.041,-0.01 0.031,0 0.046,0.021 0.062,0.043 0.006,0.008 0.012,0.017 0.019,0.025 l 0.002,0.003 c 0.167,0.34 0.486,0.568 0.795,0.568 0.067,0 0.134,-0.01 0.199,-0.031 l 0,-1.465 c 0.001,-0.042 -0.011,-0.075 -0.071,-0.099 -0.015,-0.006 -0.03,-0.012 -0.047,-0.018 -0.062,-0.024 -0.132,-0.052 -0.19,-0.068 -0.076,-0.019 -0.108,-0.051 -0.1,-0.099 l 0,-0.26 2.486,-0.002 0.013,0 -10e-4,0.26 c 0.01,0.047 -0.021,0.078 -0.099,0.099 -0.074,0.021 -0.169,0.059 -0.236,0.087 -0.061,0.024 -0.072,0.057 -0.07,0.1 l 0,1.464 c 0.065,0.021 0.131,0.031 0.198,0.031 0.31,0 0.629,-0.229 0.794,-0.569 L 1.967,0.842 C 1.974,0.833 1.98,0.825 1.986,0.816 2.002,0.794 2.018,0.773 2.048,0.773 c 0.012,0 0.026,0.003 0.041,0.01 L 2.326,0.88 2.323,0.891 C 2.24,1.18 2.094,1.805 2.093,1.811"
         id="path123617"
         style="fill:#ffffff;fill-opacity:1;fill-rule:nonzero;stroke:none" />
    </g>
    <g
       transform="matrix(30.045701,0,0,-30.045701,138.27027,11.198069)"
       id="g123619"
       style="fill:#ffffff">
      <path
         d="m 0,0 c -2.537,0 -4.602,-2.064 -4.602,-4.602 0,-2.537 2.065,-4.601 4.602,-4.601 0.714,0 1.425,0.166 2.058,0.482 l 0.01,0.005 -0.022,0.405 C 1.982,-8.346 1.917,-8.379 1.853,-8.41 1.272,-8.692 0.649,-8.834 0,-8.834 c -1.137,0 -2.205,0.442 -3.009,1.246 -0.804,0.804 -1.246,1.872 -1.246,3.009 0,1.136 0.442,2.205 1.246,3.009 0.804,0.803 1.872,1.246 3.009,1.246 0.76,0 1.506,-0.203 2.156,-0.587 0.617,-0.364 1.136,-0.881 1.503,-1.497 l 0.386,0 C 3.238,-0.921 1.693,0 0,0"
         id="path123621"
         style="fill:#ffffff;fill-opacity:1;fill-rule:nonzero;stroke:none" />
    </g>
    <g
       transform="matrix(30.045701,0,0,-30.045701,245.92976,236.14693)"
       id="g123623"
       style="fill:#ffffff">
      <path
         d="m 0,0 c 0.216,0 0.356,-0.067 0.499,-0.238 0.022,-0.027 0.048,-0.051 0.091,-0.051 0.071,0 0.125,0.047 0.125,0.109 0,0.028 -0.007,0.05 -0.025,0.077 -0.106,0.159 -0.344,0.33 -0.69,0.33 -0.511,0 -0.896,-0.385 -0.896,-0.896 0,-0.511 0.385,-0.897 0.896,-0.897 0.346,0 0.583,0.171 0.69,0.33 0.018,0.027 0.025,0.049 0.025,0.077 0,0.063 -0.052,0.109 -0.125,0.109 -0.043,0 -0.069,-0.024 -0.091,-0.051 C 0.356,-1.272 0.216,-1.339 0,-1.339 c -0.364,0 -0.639,0.288 -0.639,0.67 C -0.639,-0.288 -0.364,0 0,0"
         id="path123625"
         style="fill:#ffffff;fill-opacity:1;fill-rule:nonzero;stroke:none" />
    </g>
    <g
       transform="matrix(30.045701,0,0,-30.045701,284.74905,229.79857)"
       id="g123627"
       style="fill:#ffffff">
      <path
         d="m 0,0 c -0.073,0 -0.129,-0.055 -0.129,-0.129 l 0,-1.504 c 0,-0.072 0.057,-0.129 0.129,-0.129 0.072,0 0.129,0.057 0.129,0.129 l 0,1.504 C 0.129,-0.055 0.073,0 0,0"
         id="path123629"
         style="fill:#ffffff;fill-opacity:1;fill-rule:nonzero;stroke:none" />
    </g>
    <g
       transform="matrix(30.045701,0,0,-30.045701,284.74905,208.81435)"
       id="g123631"
       style="fill:#ffffff">
      <path
         d="m 0,0 c -0.088,0 -0.159,-0.072 -0.159,-0.16 0,-0.088 0.071,-0.159 0.159,-0.159 0.088,0 0.16,0.071 0.16,0.159 C 0.16,-0.072 0.088,0 0,0"
         id="path123633"
         style="fill:#ffffff;fill-opacity:1;fill-rule:nonzero;stroke:none" />
    </g>
    <g
       transform="matrix(30.045701,0,0,-30.045701,332.60274,229.33286)"
       id="g123635"
       style="fill:#ffffff">
      <path
         d="m 0,0 c -0.268,0 -0.485,-0.106 -0.615,-0.299 l 0,0.155 c 0,0.073 -0.056,0.129 -0.129,0.129 -0.074,0 -0.129,-0.056 -0.129,-0.129 l 0,-1.504 c 0,-0.072 0.056,-0.129 0.129,-0.129 0.072,0 0.129,0.057 0.129,0.129 l 0,0.806 c 0,0.356 0.232,0.604 0.565,0.604 0.339,0 0.526,-0.197 0.526,-0.554 l 0,-0.856 c 0,-0.072 0.057,-0.129 0.129,-0.129 0.073,0 0.129,0.057 0.129,0.129 l 0,0.86 C 0.734,-0.317 0.439,0 0,0"
         id="path123637"
         style="fill:#ffffff;fill-opacity:1;fill-rule:nonzero;stroke:none" />
    </g>
    <g
       transform="matrix(30.045701,0,0,-30.045701,384.48539,219.65514)"
       id="g123639"
       style="fill:#ffffff">
      <path
         d="m 0,0 c 0.02,-0.015 0.041,-0.022 0.064,-0.022 0.021,0 0.042,0.006 0.061,0.012 L 0.66,0.163 C 0.68,0.169 0.704,0.178 0.725,0.206 0.764,0.26 0.741,0.321 0.698,0.353 0.679,0.368 0.655,0.376 0.631,0.376 0.618,0.376 0.606,0.374 0.596,0.37 L 0.039,0.188 C 0.015,0.179 -0.005,0.17 -0.022,0.148 -0.038,0.126 -0.045,0.097 -0.041,0.069 -0.037,0.041 -0.022,0.017 0,0"
         id="path123641"
         style="fill:#ffffff;fill-opacity:1;fill-rule:nonzero;stroke:none" />
    </g>
    <g
       transform="matrix(30.045701,0,0,-30.045701,412.35891,252.39294)"
       id="g123643"
       style="fill:#ffffff">
      <path
         d="m 0,0 -1.186,0 c 0.038,0.319 0.289,0.548 0.603,0.548 C -0.275,0.548 -0.037,0.324 0,0 m -0.583,0.767 c -0.49,0 -0.874,-0.393 -0.874,-0.896 0,-0.445 0.308,-0.896 0.897,-0.896 0.283,0 0.55,0.126 0.697,0.33 0.018,0.027 0.025,0.048 0.025,0.076 0,0.055 -0.037,0.11 -0.109,0.11 -0.047,0 -0.077,-0.029 -0.099,-0.055 -0.136,-0.163 -0.299,-0.238 -0.514,-0.238 -0.397,0 -0.618,0.291 -0.634,0.583 l 1.324,0 c 0.059,0 0.11,0.05 0.11,0.11 0,0.508 -0.347,0.876 -0.823,0.876"
         id="path123645"
         style="fill:#ffffff;fill-opacity:1;fill-rule:nonzero;stroke:none" />
    </g>
    <g
       transform="matrix(30.045701,0,0,-30.045701,499.80395,229.33286)"
       id="g123647"
       style="fill:#ffffff">
      <path
         d="M 0,0 C -0.312,0 -0.531,-0.119 -0.685,-0.375 -0.805,-0.14 -1.043,0 -1.327,0 -1.589,0 -1.796,-0.103 -1.926,-0.299 l 0,0.155 c 0,0.073 -0.056,0.129 -0.13,0.129 -0.072,0 -0.128,-0.057 -0.128,-0.129 l 0,-1.504 c 0,-0.072 0.056,-0.129 0.128,-0.129 0.073,0 0.13,0.057 0.13,0.129 l 0,0.806 c 0,0.361 0.221,0.604 0.55,0.604 0.334,0 0.519,-0.197 0.519,-0.554 l 0,-0.856 c 0,-0.072 0.056,-0.129 0.128,-0.129 0.073,0 0.129,0.057 0.129,0.129 l 0,0.806 c 0,0.361 0.221,0.604 0.55,0.604 0.335,0 0.519,-0.197 0.519,-0.554 l 0,-0.856 c 0,-0.072 0.057,-0.129 0.129,-0.129 0.072,0 0.129,0.057 0.129,0.129 l 0,0.86 C 0.727,-0.317 0.435,0 0,0"
         id="path123649"
         style="fill:#ffffff;fill-opacity:1;fill-rule:nonzero;stroke:none" />
    </g>
    <g
       transform="matrix(30.045701,0,0,-30.045701,557.8584,277.30413)"
       id="g123651"
       style="fill:#ffffff">
      <path
         d="m 0,0 c -0.282,0 -0.465,0.126 -0.465,0.322 0,0.199 0.189,0.327 0.481,0.327 0.251,0 0.511,-0.122 0.511,-0.327 C 0.527,0.121 0.259,0 0,0 m 0,1.597 c -0.236,0 -0.425,-0.041 -0.595,-0.129 -0.04,-0.02 -0.065,-0.058 -0.065,-0.097 0,-0.067 0.043,-0.109 0.113,-0.109 0.021,0 0.04,0.006 0.052,0.01 l 0.007,0.002 c 0.125,0.052 0.269,0.1 0.469,0.1 0.372,0 0.546,-0.165 0.546,-0.519 l 0,-0.195 C 0.428,0.757 0.235,0.848 0,0.848 c -0.432,0 -0.722,-0.211 -0.722,-0.526 0,-0.305 0.282,-0.518 0.687,-0.518 0.236,0 0.434,0.07 0.562,0.196 l 0,-0.052 c 0,-0.064 0.044,-0.128 0.129,-0.128 0.084,0 0.129,0.064 0.129,0.128 l 0,0.911 C 0.785,1.328 0.499,1.597 0,1.597"
         id="path123653"
         style="fill:#ffffff;fill-opacity:1;fill-rule:nonzero;stroke:none" />
    </g>
  </g>
</svg>
