<?xml version="1.0" encoding="UTF-8" standalone="no"?>
<!-- Created with Inkscape (http://www.inkscape.org/) -->

<svg
   xmlns:dc="http://purl.org/dc/elements/1.1/"
   xmlns:cc="http://creativecommons.org/ns#"
   xmlns:rdf="http://www.w3.org/1999/02/22-rdf-syntax-ns#"
   xmlns:svg="http://www.w3.org/2000/svg"
   xmlns="http://www.w3.org/2000/svg"
   xmlns:inkscape="http://www.inkscape.org/namespaces/inkscape"
   version="1.0"
   width="581.98816"
   height="248.03149"
   id="svg3581">
  <metadata
     id="metadata11">
    <rdf:RDF>
      <cc:Work
         rdf:about="">
        <dc:format>image/svg+xml</dc:format>
        <dc:type
           rdf:resource="http://purl.org/dc/dcmitype/StillImage" />
        <dc:title />
      </cc:Work>
    </rdf:RDF>
  </metadata>
  <defs
     id="defs3583" />
  <path
     d="m 283.30605,62.807793 -23.96769,36.440364 16.64999,0 0,90.360253 68.46641,0 c 0,0 14.64117,-22.38746 21.80497,-33.3296 5.15835,7.90293 14.20602,21.7646 18.84233,28.85603 8.36264,-11.86986 14.33354,-25.51264 17.27214,-40.26216 -6.46086,-9.88253 -13.39107,-20.53102 -13.39109,-20.53104 0,0 13.48375,-20.47419 13.5096,-20.53103 -2.8548,-14.775387 -8.74547,-28.493498 -17.03513,-40.410291 -2.15535,3.302789 -13.14531,20.030582 -19.19785,29.241171 C 359.50425,82.39198 346.6471,62.807802 346.64711,62.807793 l -63.34106,0 z"
     inkscape:connector-curvature="0"
     id="path3503"
     style="fill:#000000;fill-opacity:1;fill-rule:nonzero;stroke:none;marker:none;visibility:visible;display:inline;overflow:visible" />
  <path
     d="m 298.17846,17.716545 c -58.67496,10e-6 -106.23996,47.588078 -106.23996,106.299205 1e-5,58.71633 47.565,106.29921 106.23996,106.29921 35.93273,0 67.70125,-17.8636 86.9236,-45.18012 -4.63631,-7.09143 -13.68398,-20.9531 -18.84233,-28.85603 -7.1638,10.94214 -21.80497,33.3296 -21.80497,33.3296 l -68.46641,0 0,-90.360253 -16.64999,0 23.96769,-36.440364 63.34106,0 c -10e-6,9e-6 12.85714,19.584187 19.61262,29.833697 6.05254,-9.210589 17.0425,-25.938382 19.19785,-29.241171 C 366.28173,35.804684 334.3386,17.716545 298.17846,17.716545 z m -280.4723,6.547415 0,40.588049 43.106284,0 0,-40.588049 -43.106284,0 z m 49.712952,0 0,40.588049 43.106288,0 0,-40.588049 -43.106288,0 z m 49.683328,0 0,40.588049 43.13591,0 0,-40.588049 -43.13591,0 z m 23.01964,5.30311 c 0.16024,10e-6 0.28278,10e-6 0.47402,0 0.37732,10e-6 0.76639,-9.48e-4 1.18506,0.02958 0.22225,0.01555 0.43848,0.02825 0.6814,0.05925 0.33597,0.02067 0.68165,0.07717 1.0073,0.118505 l 0.20738,0.02958 c 0.20158,0.03622 0.40645,0.05783 0.59253,0.08883 0.23259,0.04133 0.47326,0.09262 0.71103,0.118505 0.22743,0.04133 0.43468,0.09645 0.65178,0.148131 0.12406,0.031 0.25593,0.06817 0.38514,0.08883 0.19642,0.04134 0.3858,0.131237 0.59253,0.177758 0.15506,0.05167 0.31895,0.07196 0.47402,0.118505 l 0.14813,0.02958 c 0.17574,0.05167 0.33306,0.131228 0.50365,0.177758 0.21708,0.062 0.43988,0.145363 0.65177,0.207384 0.19125,0.05167 0.35754,0.09644 0.53328,0.148132 0.21708,0.07233 0.42057,0.15947 0.62215,0.23701 0.3463,0.118875 0.65482,0.227682 0.91842,0.325889 0.57888,0.227426 0.91841,0.355516 0.91841,0.355516 l 0,5.451242 -0.59252,-0.32589 c -0.19125,-0.118884 -0.43571,-0.259716 -0.74066,-0.414768 -0.17056,-0.08267 -0.37165,-0.168439 -0.5629,-0.266637 -0.24811,-0.113718 -0.49635,-0.255924 -0.77029,-0.385142 -0.3153,-0.144728 -0.63653,-0.264873 -0.97766,-0.414768 -0.26877,-0.09821 -0.56077,-0.222515 -0.82954,-0.32589 0,0 -0.1639,-0.06921 -0.47402,-0.177758 -0.19123,-0.062 -0.4178,-0.114343 -0.68141,-0.207384 -0.17056,-0.05167 -0.36648,-0.106778 -0.5629,-0.148131 -0.34112,-0.08267 -0.70335,-0.178773 -1.09617,-0.266637 -0.25327,-0.04134 -0.54008,-0.101621 -0.82954,-0.148132 -0.31529,-0.04655 -0.63652,-0.07717 -0.97767,-0.118505 -0.18607,-0.02067 -0.37166,-0.0085 -0.5629,-0.02958 -0.28428,-0.01033 -0.53493,-0.02958 -0.82953,-0.02958 -0.13438,-0.01545 -0.27005,0 -0.41477,0 -0.38765,1e-5 -0.76638,0.02825 -1.18505,0.05925 -0.20673,0.02588 -0.40506,0.03858 -0.62216,0.05925 -0.21708,0.031 -0.43985,0.05783 -0.65178,0.08883 -0.1809,0.03621 -0.39095,0.07717 -0.59252,0.118505 -0.1809,0.04655 -0.37682,0.115747 -0.5629,0.177758 -0.21192,0.05167 -0.43092,0.115737 -0.62215,0.177758 -0.20159,0.07234 -0.3665,0.129853 -0.5629,0.207384 -0.19124,0.07755 -0.37683,0.129844 -0.5629,0.207384 -1.16812,0.53755 -2.29993,1.308137 -3.31815,2.310853 -0.062,0.08267 -0.12985,0.140177 -0.20739,0.207384 -0.12921,0.149895 -0.27144,0.320343 -0.38514,0.444395 -0.093,0.113708 -0.15432,0.207005 -0.23701,0.325889 -0.23259,0.315281 -0.45158,0.627594 -0.62215,0.948042 -0.093,0.129228 -0.16464,0.299676 -0.23701,0.444395 -0.10337,0.186091 -0.18394,0.347211 -0.26664,0.533273 -0.0569,0.144719 -0.14157,0.280384 -0.17776,0.414769 -0.0879,0.217092 -0.14018,0.42058 -0.20738,0.622152 -0.0776,0.211916 -0.1364,0.410228 -0.17776,0.622153 -0.0776,0.320448 -0.1364,0.604519 -0.17776,0.888789 -0.0517,0.449675 -0.0889,0.869772 -0.0888,1.185053 l 0,0.355515 c 1e-5,0.149886 -1e-5,0.316172 0,0.533274 0.0207,0.144709 0.009,0.322733 0.0296,0.503647 0.0413,0.46 0.13224,0.972009 0.26664,1.540569 0.0672,0.196415 0.11575,0.42057 0.17776,0.622152 0.0879,0.273937 0.17738,0.555591 0.29626,0.829537 0.0672,0.160229 0.14537,0.308607 0.20738,0.474021 0.11372,0.201582 0.21219,0.401278 0.32589,0.592526 0.0723,0.134376 0.14397,0.250748 0.23701,0.385142 0.0827,0.144719 0.2084,0.299657 0.29627,0.444395 0.11371,0.134375 0.22767,0.280393 0.32589,0.414768 0.21708,0.253251 0.43331,0.492565 0.6814,0.740658 l 0.0888,0.05925 0.0296,0.05925 0.0888,0.08883 0.20739,0.177758 c 0.12922,0.093 0.25454,0.207014 0.41477,0.325889 0.14989,0.124061 0.31896,0.252132 0.47402,0.355516 0.13438,0.10856 0.28039,0.178791 0.41477,0.266637 0.12921,0.07234 0.2611,0.154322 0.38514,0.23701 0.25844,0.155062 0.52597,0.295884 0.79991,0.414769 0.12923,0.06722 0.23663,0.11056 0.35551,0.177758 0.0827,0.03621 0.16983,0.06304 0.23701,0.08883 0.11373,0.03621 0.22631,0.0875 0.35552,0.118505 0.78048,0.294614 1.56896,0.492935 2.3701,0.622153 0.50137,0.08267 1.00064,0.141571 1.48132,0.177758 0.41867,0.031 0.82187,0.05925 1.21468,0.05925 0.18608,-9e-6 0.37027,-0.01925 0.59253,-0.02958 0.31529,-0.01033 0.68922,-0.04238 1.06654,-0.08883 0.26361,-0.02067 0.49633,-0.05271 0.77029,-0.08883 0.11371,-0.02067 0.23147,-0.04892 0.35551,-0.05925 0.97172,-0.186072 2.07388,-0.449438 3.28852,-0.88879 0.62025,-0.217092 1.27825,-0.484639 1.95534,-0.79991 0.37731,-0.196406 0.78706,-0.410227 1.18505,-0.622153 0.36179,-0.196405 0.73816,-0.419186 1.1258,-0.651778 l 0.35552,-0.207385 c 0.0723,-0.031 0.14019,-0.08608 0.20738,-0.148131 l 0,5.569747 c -0.093,0.03622 -0.17875,0.07717 -0.26663,0.118505 -0.22743,0.103384 -0.47983,0.222505 -0.68141,0.325889 -0.24294,0.108551 -0.46431,0.208389 -0.6814,0.296263 -0.35148,0.170572 -0.65998,0.281758 -0.91842,0.385142 -0.18607,0.07234 -0.33964,0.136424 -0.47402,0.177758 l -0.26664,0.08883 c -0.26359,0.08267 -0.51046,0.164637 -0.79991,0.23701 -0.23259,0.07755 -0.45777,0.140197 -0.71103,0.207385 -0.33597,0.07755 -0.69956,0.189115 -1.06655,0.266636 -0.24809,0.04134 -0.48739,0.111964 -0.74066,0.148132 -0.40315,0.07755 -0.81908,0.131228 -1.27393,0.177758 -0.28428,0.04655 -0.58385,0.0875 -0.88879,0.118505 l -0.14813,0 c -0.79082,0.06722 -1.63817,0.118515 -2.54786,0.118505 l -0.32589,0 c -0.25326,-0.01033 -0.52219,-0.03859 -0.77028,-0.05925 -0.49103,-0.01545 -0.98133,-0.0565 -1.45169,-0.118506 -0.47035,-0.05688 -0.95309,-0.119519 -1.39244,-0.207384 -0.54272,-0.108541 -1.03921,-0.226297 -1.54057,-0.355516 -0.2946,-0.08267 -0.59039,-0.198074 -0.85916,-0.296263 -0.27393,-0.08788 -0.54664,-0.168438 -0.79991,-0.266636 -0.70295,-0.284271 -1.32753,-0.603116 -1.89609,-0.918416 -0.27911,-0.165396 -0.54147,-0.353753 -0.79991,-0.503647 -0.25326,-0.155053 -0.48361,-0.308607 -0.71103,-0.474021 -0.18089,-0.129228 -0.34342,-0.261101 -0.50365,-0.385143 -0.17572,-0.134394 -0.33824,-0.26109 -0.50364,-0.385142 -0.22742,-0.196424 -0.42575,-0.416797 -0.62215,-0.592526 l -0.11837,-0.118315 c -0.22742,-0.232593 -0.46432,-0.482232 -0.6814,-0.740658 -0.18608,-0.217092 -0.39235,-0.414029 -0.5629,-0.651779 -0.1809,-0.22225 -0.33826,-0.457772 -0.50365,-0.711032 -0.11371,-0.186062 -0.25592,-0.361327 -0.38514,-0.5629 -0.15506,-0.25326 -0.29968,-0.511838 -0.4444,-0.770284 -0.23259,-0.449666 -0.47465,-0.931024 -0.6814,-1.422063 -0.12404,-0.325643 -0.25215,-0.646877 -0.35552,-0.977668 -0.093,-0.26877 -0.1736,-0.525964 -0.26663,-0.79991 -0.0413,-0.222259 -0.0772,-0.434716 -0.11851,-0.651779 -0.0259,-0.108532 -0.0682,-0.217339 -0.0888,-0.32589 -0.0517,-0.248093 -0.0823,-0.545257 -0.11851,-0.829537 l 0,-0.148131 c -0.0259,-0.227426 -0.0682,-0.453989 -0.0888,-0.681405 -0.0103,-0.232602 0,-0.478439 0,-0.711032 1e-5,-0.304966 0.009,-0.589009 0.0296,-0.888789 0.031,-0.403165 0.072,-0.802565 0.11851,-1.185053 0.1654,-1.193964 0.42121,-2.293361 0.82953,-3.347773 0.32563,-0.83732 0.73537,-1.646474 1.18505,-2.370105 0.0723,-0.129218 0.14914,-0.236641 0.23702,-0.355516 0.11887,-0.186072 0.23147,-0.387152 0.35551,-0.5629 0.17056,-0.227416 0.3472,-0.434696 0.53327,-0.651779 0.16023,-0.206749 0.32792,-0.41163 0.50365,-0.592526 0.17057,-0.206739 0.34204,-0.387161 0.53328,-0.5629 0.20674,-0.196406 0.42437,-0.415403 0.65177,-0.622152 0.25328,-0.22224 0.52081,-0.439863 0.79992,-0.651779 0.12406,-0.0982 0.25592,-0.192889 0.38514,-0.296263 0.1654,-0.113718 0.32414,-0.217339 0.47402,-0.32589 0.28945,-0.196406 0.57866,-0.362702 0.88879,-0.533273 0.32045,-0.175729 0.65582,-0.367879 1.00729,-0.533274 0.40317,-0.196406 0.82941,-0.392328 1.27393,-0.5629 0.86833,-0.346301 1.82073,-0.636914 2.84413,-0.859163 0.16023,-0.031 0.31757,-0.06305 0.50365,-0.08883 0.12404,-0.02588 0.2611,-0.03859 0.38514,-0.05925 l 0.26664,-0.05925 0.23701,-0.02958 0.20738,-0.02958 c 0.25327,-0.03621 0.50668,-0.06304 0.77028,-0.08883 0.17574,-0.02067 0.33308,-0.01924 0.50365,-0.02958 0.31012,-0.02067 0.63653,-0.05925 0.97767,-0.05925 z m -111.098669,0.385142 9.510046,0 c 5.091157,0 7.347326,2.666369 7.347326,2.666369 0,0 2.073842,1.781958 2.073842,4.888341 0,3.070196 -1.419551,4.347389 -1.807205,4.74021 -0.847654,0.85283 -1.925708,1.36281 -1.925711,1.36281 -2e-6,0 2.423366,0.50798 4.325442,2.399732 2.232876,2.232876 2.044215,5.154988 2.044215,5.154978 0,-9e-6 0.181475,2.795274 -2.221973,5.214231 -2.956479,2.956479 -8.354622,2.81449 -8.35462,2.8145 l -10.991362,0 0,-29.241171 z m 49.683326,0 9.510046,0 c 5.101509,0 7.347326,2.666369 7.347326,2.666369 0,0 2.073842,1.781968 2.073842,4.888341 0,3.070206 -1.400277,4.347398 -1.777579,4.74021 -0.85284,0.85284 -1.955337,1.36281 -1.955337,1.36281 1e-5,0 2.413023,0.50799 4.325442,2.399732 2.222523,2.232876 2.073843,5.154978 2.073843,5.154978 0,-9e-6 0.16219,2.80044 -2.251601,5.214231 -2.951321,2.956479 -8.324984,2.81449 -8.324994,2.8145 l -11.020988,0 0,-29.241171 z m -44.439469,4.621705 0,7.55471 2.518237,0 c 2e-6,-1e-5 0.148767,0.01033 0.355516,0 0.17573,0 0.397501,-0.03337 0.562899,-0.05925 0.522044,-0.031 1.247227,-0.07025 1.955337,-0.266637 0.139554,-0.04655 0.270045,-0.09644 0.414768,-0.148131 0.547878,-0.196416 1.092279,-0.480458 1.510942,-0.88879 0.330793,-0.325633 0.545634,-0.709912 0.711032,-1.066547 0.165397,-0.428989 0.226673,-0.831196 0.23701,-1.1258 0.03618,-0.263603 0.05925,-0.414768 0.05925,-0.414768 l 0,-0.325889 c -0.03619,-0.325615 -0.09708,-0.880741 -0.355516,-1.392437 -0.129219,-0.25326 -0.311021,-0.488773 -0.533273,-0.711032 -0.299786,-0.28428 -0.63515,-0.49155 -1.007295,-0.651779 -0.702943,-0.304947 -1.515248,-0.437834 -2.192347,-0.474021 -0.299783,-0.02067 -0.582826,-0.02958 -0.799911,-0.02958 l -3.436652,0 z m 49.683326,0 0,7.55471 2.488611,0 c 0,-1e-5 0.197685,0.01033 0.414768,0 0.191229,0 0.376818,-0.03337 0.5629,-0.05925 0.522049,-0.031 1.212441,-0.07025 1.92571,-0.266637 0.144728,-0.04655 0.280374,-0.09644 0.414769,-0.148131 0.558216,-0.196416 1.111569,-0.480458 1.540568,-0.88879 0.325624,-0.325633 0.536677,-0.709912 0.681405,-1.066547 0.170562,-0.428989 0.230459,-0.831196 0.266637,-1.1258 0.01033,-0.263603 0.02958,-0.414768 0.02958,-0.414768 -1e-5,9e-6 -0.01925,-0.124307 -0.02958,-0.325889 -1e-5,-0.325634 -0.06741,-0.880741 -0.32589,-1.392437 -0.118875,-0.25327 -0.290347,-0.488782 -0.533273,-0.711032 -0.273947,-0.28427 -0.610701,-0.49155 -0.977669,-0.651779 -0.702935,-0.304947 -1.525589,-0.437843 -2.192347,-0.474021 -0.304937,-0.02067 -0.572494,-0.02958 -0.79991,-0.02958 l -3.466279,0 z m -49.683326,12.117162 0,7.969478 5.184605,0 c 2e-6,9e-6 0.09607,0 0.266637,0 0.175734,0 0.421584,-0.01934 0.711031,-0.02958 0.568558,-0.06722 1.296142,-0.171842 2.014589,-0.414768 0.646088,-0.211926 1.286553,-0.526609 1.777579,-1.007295 0.186071,-0.191248 0.320344,-0.396111 0.444395,-0.592526 0.408322,-0.646072 0.512597,-1.302449 0.533274,-1.659074 0.02067,-0.165414 0.02958,-0.23701 0.02958,-0.23701 l 0,-0.207384 c -0.02067,-0.155072 -0.04095,-0.439484 -0.118505,-0.770284 -0.103374,-0.377321 -0.272069,-0.796014 -0.592526,-1.214679 -0.05169,-0.06722 -0.135022,-0.145364 -0.207384,-0.207384 -0.149895,-0.144738 -0.278997,-0.31001 -0.444395,-0.444395 -0.294614,-0.196416 -0.636535,-0.373045 -0.977668,-0.533274 -0.465182,-0.196406 -0.99647,-0.34102 -1.570195,-0.444394 -0.273938,-0.05688 -0.592789,-0.09783 -0.918416,-0.118506 -0.196403,-0.03622 -0.401284,-0.04892 -0.592526,-0.05925 -0.175739,-0.01033 -0.352369,-0.02958 -0.533273,-0.02958 l -5.006847,0 z m 49.683326,0 0,7.969478 5.184605,0 c -1e-5,9e-6 0.116751,0 0.266637,0 0.175738,0 0.435701,-0.01934 0.740658,-0.02958 0.547873,-0.06722 1.290967,-0.171842 2.014589,-0.414768 0.656424,-0.211926 1.267267,-0.526609 1.747952,-1.007295 0.191258,-0.191248 0.360313,-0.396111 0.474021,-0.592526 0.397998,-0.646072 0.512607,-1.302449 0.533274,-1.659074 0.01033,-0.165414 0,-0.23701 0,-0.23701 0,-10e-6 0,-0.08845 0,-0.207384 0,-0.155072 -0.01138,-0.439484 -0.08883,-0.770284 -0.09821,-0.377321 -0.286195,-0.796014 -0.622152,-1.214679 -0.07234,-0.06722 -0.129854,-0.145364 -0.207384,-0.207384 -0.134376,-0.144738 -0.303459,-0.31001 -0.474021,-0.444395 -0.28428,-0.196416 -0.596575,-0.373045 -0.948042,-0.533274 -0.465167,-0.196406 -0.975792,-0.34102 -1.570195,-0.444394 -0.273956,-0.05688 -0.597959,-0.09783 -0.918416,-0.118506 -0.201572,-0.03622 -0.38061,-0.04892 -0.592526,-0.05925 -0.186072,-0.01033 -0.376828,-0.02958 -0.5629,-0.02958 l -4.97722,0 z m 61.059826,27.759855 c -10.8749,-2.9e-5 -18.01279,7.949209 -18.01279,17.242514 0,9.102082 6.92117,17.212892 17.89429,17.212892 11.36597,0 18.16093,-8.16252 18.16093,-17.212892 0,-9.33463 -6.97109,-17.242514 -18.04243,-17.242514 z M 57.760934,74.717571 43.451425,108.22493 c -2.14176,-2.95125 -3.01492,-4.15524 -4.41432,-6.39928 -2.548157,-4.176299 -4.405967,-7.302392 -7.465831,-9.302666 3.592234,-1.436899 5.599373,-4.31963 5.599373,-8.206488 10e-7,-5.804444 -4.204874,-9.421168 -10.991362,-9.421168 l -8.473125,0 0,33.566612 4.829088,0 0,-14.576145 2.01459,0 c 2.475804,-1e-5 4.482785,0.818141 8.91752,7.702845 l 4.41432,6.8733 5.747505,0 4.651331,0 4.236563,-9.895188 14.250256,0 4.473573,9.895188 4.917968,0 -14.990914,-33.744369 -3.407026,0 z m 22.397492,0.177757 0,33.566612 13.09483,0 c 11.081674,2e-5 17.805414,-8.18709 17.805414,-16.798119 -1e-5,-7.913259 -5.47015,-16.768493 -17.864666,-16.768493 l -13.035578,0 z m 36.469994,0 0,33.566612 4.79946,0 0,-33.566612 -4.79946,0 z m 196.65946,3.555158 0,91.960074 30.21884,-46.03929 -30.21884,-45.920784 z m -168.27746,0.444395 c 7.5308,-1.9e-5 13.09483,5.422847 13.09483,12.798567 0,7.32406 -5.56404,12.798562 -13.09483,12.798562 -7.47907,0 -13.03557,-5.47453 -13.03557,-12.798562 1e-5,-7.375691 5.55648,-12.798567 13.03557,-12.798567 z m -122.504798,0.148131 3.110763,0 c 4.667326,-1.9e-5 6.535692,1.913196 6.577041,5.0661 0.05685,2.801435 -1.41869,5.451241 -6.577041,5.451241 l -3.110763,0 0,-10.517341 z m 62.481893,0.207384 7.406578,0 c 9.401847,-9e-6 13.687357,5.70308 13.687357,12.443052 0,4.124646 -2.50444,12.443052 -13.42072,12.443052 l -7.673215,0 0,-24.886104 z m -25.597134,2.844126 5.421615,12.146789 -10.428462,0 5.006847,-12.146789 z m 363.840749,1.066548 0,26.18966 -9.09528,0 0,15.22792 9.09528,0 0,55.7271 17.74616,0 0,-55.7271 10.57659,0 0,-15.22792 -10.57659,0 0,-26.18966 -17.74616,0 z m -20.73842,20.64954 c -0.0259,0.0569 -13.5096,20.53103 -13.5096,20.53103 2e-5,2e-5 6.93023,10.64851 13.39109,20.53104 1.3542,-6.73997 2.07384,-13.7138 2.07384,-20.85693 0,-6.90536 -0.70451,-13.65641 -1.95533,-20.20514 z m 85.47191,3.67366 c -5.88196,2e-5 -11.59786,3.45339 -14.93166,10.81361 l 0,-8.94715 -15.37606,0 0,70.95502 17.77579,0 0,-28.7079 c 0,-3.87651 -0.0159,-8.2999 0.1185,-12.17641 0.39283,-10.42008 4.40994,-16.29447 9.48042,-16.29447 1.86593,-2e-5 3.87037,0.77976 5.21423,1.45168 l 5.48087,-15.22792 c -1.73145,-0.81148 -4.01996,-1.86646 -7.76209,-1.86646 z m 36.23298,0 c -18.43673,2e-5 -33.38886,15.2392 -33.38886,37.41803 10e-6,21.79121 15.78041,37.26991 33.80363,37.26991 8.96248,0 15.60872,-3.22151 21.89384,-9.36192 l 0,7.49546 17.77579,0 0,-70.95502 -17.77579,0 0,7.76209 c -6.41437,-6.41435 -13.75444,-9.62855 -22.30861,-9.62855 z m 3.61441,16.29447 c 11.22636,1e-5 19.52374,8.43141 19.52374,20.85693 0.005,12.96306 -8.56612,21.24206 -19.52374,21.24206 -11.09203,0 -19.10897,-8.94235 -19.10897,-21.09393 3e-5,-11.62956 7.34503,-21.00506 19.10897,-21.00506 z"
     inkscape:connector-curvature="0"
     id="path3430"
     style="fill:#ffffff;fill-opacity:1;fill-rule:evenodd" />
</svg>
