<?xml version="1.0" encoding="UTF-8" standalone="no"?>
<!-- Created with Inkscape (http://www.inkscape.org/) -->

<svg
   xmlns:dc="http://purl.org/dc/elements/1.1/"
   xmlns:cc="http://creativecommons.org/ns#"
   xmlns:rdf="http://www.w3.org/1999/02/22-rdf-syntax-ns#"
   xmlns:svg="http://www.w3.org/2000/svg"
   xmlns="http://www.w3.org/2000/svg"
   xmlns:inkscape="http://www.inkscape.org/namespaces/inkscape"
   version="1.0"
   width="200"
   height="110"
   id="svg2">
  <metadata
     id="metadata35">
    <rdf:RDF>
      <cc:Work
         rdf:about="">
        <dc:format>image/svg+xml</dc:format>
        <dc:type
           rdf:resource="http://purl.org/dc/dcmitype/StillImage" />
        <dc:title />
      </cc:Work>
    </rdf:RDF>
  </metadata>
  <defs
     id="defs33" />
  <g
     transform="translate(-226.64509,-428.96261)"
     id="layer1">
    <g
       transform="matrix(1,0,0,-1,207.74489,417.97292)"
       id="g2822" />
    <g
       transform="matrix(3.3064623,0,0,-3.3064623,371.67846,428.96451)"
       id="g3372">
      <path
         d="m 0,0 c -9.181,0 -16.625,-7.447 -16.625,-16.633 0,-9.187 7.444,-16.634 16.625,-16.634 9.182,0 16.624,7.447 16.624,16.634 C 16.624,-7.447 9.182,0 0,0"
         inkscape:connector-curvature="0"
         id="path3374"
         style="fill:#ffffff;fill-rule:nonzero;stroke:none" />
    </g>
    <path
       d="m 278.02421,432.35694 22.29547,0 0,20.9795 -22.29547,0 0,-20.9795 z m 14.04916,2.91961 c -0.0959,-0.0198 -0.2017,-0.0331 -0.30089,-0.0529 l -0.11903,-0.0132 c -0.17194,-0.0265 -0.34057,-0.0463 -0.51912,-0.0595 -0.11903,-0.0165 -0.23806,-0.0198 -0.35379,-0.0264 -0.21492,-0.0165 -0.41992,-0.0232 -0.61831,-0.0232 -0.0926,0 -0.14879,0.003 -0.23806,0.003 -0.17194,0.003 -0.33396,0.0165 -0.49267,0.0265 -0.0926,0.003 -0.18516,0.01 -0.27113,0.0198 -0.13556,0.01 -0.26451,0.0232 -0.39677,0.043 l -0.10581,0.01 -0.12564,0.0198 -0.14549,0.0265 c -0.0628,0.007 -0.12564,0.0198 -0.18847,0.0331 -0.0926,0.01 -0.17855,0.0331 -0.26121,0.0496 -0.52903,0.11572 -1.02169,0.26121 -1.46807,0.43314 -0.23475,0.0959 -0.45959,0.19178 -0.6679,0.29758 -0.18186,0.086 -0.34718,0.17855 -0.51581,0.27113 -0.1554,0.0926 -0.3075,0.18517 -0.45629,0.28105 -0.0827,0.0628 -0.16532,0.10912 -0.25129,0.17525 -0.0694,0.0496 -0.13557,0.0959 -0.2017,0.14548 -0.14217,0.10911 -0.28105,0.22484 -0.41,0.33726 -0.11572,0.10581 -0.23145,0.21161 -0.34056,0.31742 -0.0926,0.0893 -0.19178,0.18516 -0.27444,0.29097 -0.0926,0.0992 -0.18186,0.20169 -0.26782,0.3075 -0.0959,0.11242 -0.17525,0.22815 -0.26452,0.34718 -0.0727,0.0926 -0.12895,0.18185 -0.19178,0.27774 -0.043,0.0628 -0.0793,0.12565 -0.11572,0.19178 -0.23807,0.37363 -0.43976,0.78363 -0.6117,1.21347 -0.205,0.54556 -0.35709,1.13081 -0.43976,1.74581 -0.0198,0.19508 -0.0397,0.39347 -0.0562,0.59847 -0.01,0.1554 -0.0132,0.31411 -0.0132,0.46952 0,0.12234 0,0.23806 0.003,0.35709 0.01,0.11904 0.0265,0.23807 0.0397,0.3571 l 0.007,0.086 c 0.0165,0.14549 0.0397,0.28436 0.0661,0.41992 0.0132,0.0562 0.0232,0.10581 0.0331,0.16202 0.0231,0.11242 0.0529,0.22814 0.0761,0.34056 0.0397,0.14218 0.0827,0.28436 0.13226,0.42323 0.0562,0.17194 0.11903,0.33726 0.18516,0.49928 0.10911,0.25459 0.22814,0.49927 0.35048,0.73403 0.076,0.13557 0.1521,0.26782 0.23146,0.40008 0.0628,0.0992 0.12895,0.19508 0.19177,0.29097 0.086,0.12895 0.17855,0.24799 0.26782,0.36371 0.0926,0.12234 0.19508,0.23146 0.29428,0.34388 0.11242,0.13556 0.23145,0.26451 0.34718,0.37693 l 0.0595,0.0595 c 0.1025,0.0926 0.2017,0.19839 0.32073,0.30089 0.0827,0.0628 0.16863,0.13887 0.2579,0.2083 0.086,0.0661 0.17525,0.13887 0.26783,0.205 0.11903,0.086 0.22814,0.16202 0.35379,0.24468 0.14218,0.0761 0.28105,0.16863 0.42653,0.25129 0.29428,0.16533 0.61831,0.32734 0.97872,0.46952 0.13225,0.0562 0.27113,0.1025 0.41661,0.14879 0.13887,0.0529 0.28436,0.0959 0.43315,0.14218 0.26121,0.0661 0.53234,0.13556 0.81008,0.19177 0.22815,0.0463 0.47282,0.0827 0.7175,0.10581 0.23807,0.0331 0.49266,0.0562 0.74726,0.0694 0.13557,0.01 0.26452,0.01 0.39016,0.0198 l 0.18517,0 c 0.46951,0 0.90266,-0.0198 1.30274,-0.0562 l 0.0794,-0.003 c 0.16201,-0.0165 0.31081,-0.0331 0.4629,-0.0529 0.23476,-0.0265 0.44638,-0.0595 0.65468,-0.0992 0.13226,-0.0198 0.25791,-0.0496 0.38355,-0.0727 0.19508,-0.043 0.37694,-0.0893 0.54887,-0.13226 0.12896,-0.0331 0.2546,-0.0694 0.37694,-0.10911 0.14218,-0.0397 0.27774,-0.086 0.4067,-0.13557 l 0.12895,-0.0397 c 0.0661,-0.0231 0.1521,-0.0562 0.24798,-0.0926 0.13887,-0.0529 0.29758,-0.11572 0.48275,-0.19838 0.11242,-0.0463 0.23145,-0.0992 0.35709,-0.15541 0.0992,-0.0496 0.22154,-0.10911 0.34057,-0.15871 0.0397,-0.0264 0.0926,-0.0529 0.14548,-0.0727 l 0,-2.8667 c -0.0364,0.0231 -0.0727,0.0496 -0.1058,0.0661 l -0.19508,0.11572 c -0.19839,0.12234 -0.38686,0.23146 -0.57533,0.34057 -0.205,0.10581 -0.41331,0.21161 -0.615,0.31081 -0.35049,0.16863 -0.69105,0.30419 -1.01839,0.42322 -0.62492,0.22154 -1.19694,0.36041 -1.70283,0.45299 -0.0595,0.01 -0.11903,0.0231 -0.17524,0.0298 -0.14218,0.0198 -0.27444,0.0397 -0.40339,0.0529 -0.19839,0.0198 -0.38686,0.0331 -0.54557,0.0397 -0.11242,0.003 -0.2083,0.01 -0.3075,0.01 -0.20169,0 -0.4133,-0.007 -0.62822,-0.0231 -0.24799,-0.0165 -0.49597,-0.0463 -0.75718,-0.086 -0.41331,-0.0727 -0.82993,-0.17854 -1.23001,-0.32403 -0.0661,-0.0198 -0.12234,-0.0463 -0.18185,-0.0727 -0.0397,-0.01 -0.0794,-0.0265 -0.12234,-0.0463 -0.0628,-0.0265 -0.12565,-0.0562 -0.19508,-0.0827 -0.14218,-0.0694 -0.28105,-0.13887 -0.41662,-0.21823 -0.0628,-0.0397 -0.12895,-0.0793 -0.20169,-0.11903 -0.0628,-0.043 -0.13226,-0.0893 -0.2017,-0.13887 -0.076,-0.0529 -0.16532,-0.11242 -0.23806,-0.17525 -0.0827,-0.0661 -0.16202,-0.12895 -0.23145,-0.18516 l -0.0926,-0.086 -0.0496,-0.043 -0.0265,-0.0265 -0.0364,-0.0331 c -0.12895,-0.12564 -0.24467,-0.2579 -0.35709,-0.38685 -0.0529,-0.0694 -0.11242,-0.14879 -0.16863,-0.21823 -0.0496,-0.0694 -0.0959,-0.13887 -0.14218,-0.21492 -0.0463,-0.0628 -0.0893,-0.13226 -0.12565,-0.20169 -0.0595,-0.0992 -0.11572,-0.19839 -0.16863,-0.30089 -0.0364,-0.0827 -0.076,-0.17194 -0.10911,-0.2546 -0.0661,-0.14218 -0.11573,-0.28766 -0.15871,-0.42984 -0.0364,-0.0992 -0.0661,-0.21492 -0.0959,-0.31742 -0.0694,-0.29427 -0.1058,-0.56871 -0.13226,-0.80347 -0.0132,-0.0893 -0.0132,-0.17194 -0.0198,-0.25129 -0.003,-0.10911 -0.003,-0.20831 -0.003,-0.28766 l 0,-0.17855 c 0.003,-0.16533 0.0231,-0.37363 0.0529,-0.60839 0.0198,-0.14549 0.0529,-0.29758 0.0893,-0.4596 0.0265,-0.10911 0.0529,-0.21161 0.0893,-0.32734 0.0331,-0.1025 0.0694,-0.20169 0.11242,-0.31411 0.0232,-0.0694 0.0496,-0.13557 0.086,-0.20831 0.0397,-0.0959 0.0893,-0.19178 0.13887,-0.28766 0.0364,-0.0794 0.0794,-0.15541 0.12234,-0.22484 0.0926,-0.16202 0.20169,-0.32404 0.32073,-0.48605 0.043,-0.0595 0.0893,-0.11573 0.13226,-0.17194 0.0628,-0.0727 0.12895,-0.14879 0.19177,-0.22153 0.0397,-0.0331 0.0727,-0.0727 0.10911,-0.10911 0.52573,-0.52243 1.11428,-0.91589 1.71936,-1.19033 0.0992,-0.043 0.19509,-0.086 0.29097,-0.12234 0.0992,-0.0364 0.19178,-0.0727 0.29097,-0.10911 0.1025,-0.0364 0.20831,-0.0661 0.31742,-0.0959 0.0992,-0.0298 0.205,-0.0529 0.3042,-0.0794 0.0992,-0.0231 0.205,-0.0397 0.30088,-0.0595 0.10912,-0.0198 0.21823,-0.0364 0.33065,-0.0529 0.10911,-0.0132 0.21823,-0.0231 0.33065,-0.0298 0.2083,-0.0198 0.41,-0.0298 0.60839,-0.0298 0.0727,0 0.13887,0 0.205,0.003 0.14879,0.003 0.28766,0.007 0.42984,0.0132 0.1025,0.0132 0.19838,0.0132 0.29427,0.0231 0.17194,0.0198 0.35049,0.0364 0.51581,0.0628 0.14548,0.0231 0.29097,0.0463 0.41992,0.0694 0.205,0.0463 0.39347,0.0926 0.56541,0.13888 0.1058,0.0231 0.205,0.0562 0.29758,0.0827 0.13556,0.0463 0.2579,0.0793 0.35048,0.10911 0.15541,0.0562 0.24799,0.086 0.24799,0.086 0.13887,0.0529 0.28105,0.11242 0.4133,0.16202 0.18517,0.076 0.3538,0.14879 0.52243,0.22814 0.13887,0.0628 0.26782,0.12895 0.39346,0.18186 0.10251,0.0529 0.19839,0.1058 0.28767,0.14879 0.1554,0.0827 0.28766,0.1554 0.39677,0.21492 l 0.29428,0.16201 0,-2.8138 c 0,0 -0.17855,-0.0694 -0.47944,-0.18516 -0.13556,-0.0529 -0.29427,-0.10911 -0.47944,-0.17193 -0.0959,-0.0364 -0.20169,-0.0728 -0.31411,-0.11573 -0.086,-0.0231 -0.17855,-0.0595 -0.27444,-0.086 -0.1058,-0.0364 -0.21492,-0.0761 -0.32734,-0.11242 -0.086,-0.0198 -0.16863,-0.0496 -0.26121,-0.0761 l -0.0727,-0.0198 c -0.0827,-0.0231 -0.16863,-0.043 -0.24798,-0.0694 -0.10912,-0.0231 -0.21162,-0.0562 -0.31412,-0.0827 -0.0661,-0.0132 -0.13887,-0.0264 -0.205,-0.043 -0.11242,-0.0298 -0.22153,-0.0529 -0.34056,-0.076 -0.11242,-0.0231 -0.22815,-0.0496 -0.34718,-0.0661"
       inkscape:connector-curvature="0"
       id="path3376"
       style="fill:#ffffff;fill-rule:evenodd;stroke:none" />
    <g
       transform="matrix(3.3064623,0,0,-3.3064623,260.89409,443.95796)"
       id="g3378"
       style="fill:#ffffff">
      <path
         d="m 0,0 0,-1.247 0.809,0 c 0,0 0.017,0.002 0.041,0.002 0.028,0.001 0.067,0.003 0.115,0.007 0.086,0.008 0.203,0.024 0.316,0.063 0.101,0.033 0.199,0.084 0.275,0.16 0.029,0.03 0.054,0.06 0.074,0.091 0.062,0.101 0.078,0.201 0.081,0.258 0.003,0.027 0.003,0.04 0.003,0.04 l 0,0.031 c 0,0.024 -0.004,0.07 -0.016,0.121 C 1.682,-0.415 1.654,-0.347 1.603,-0.283 1.592,-0.272 1.582,-0.26 1.571,-0.25 1.549,-0.227 1.524,-0.205 1.498,-0.185 1.453,-0.154 1.403,-0.125 1.348,-0.102 1.275,-0.069 1.194,-0.046 1.102,-0.029 1.06,-0.021 1.009,-0.013 0.96,-0.01 0.929,-0.005 0.9,-0.004 0.867,-0.001 0.839,0 0.81,0 0.781,0 L 0,0 z"
         inkscape:connector-curvature="0"
         id="path3380"
         style="fill:#ffffff;fill-rule:evenodd;stroke:none" />
    </g>
    <g
       transform="matrix(3.3064623,0,0,-3.3064623,260.89409,437.68398)"
       id="g3382"
       style="fill:#ffffff">
      <path
         d="m 0,0 0,-1.182 0.391,0 c 0,0 0.026,0 0.06,0 0.029,10e-4 0.059,0.002 0.089,0.005 0.08,0.006 0.193,0.017 0.303,0.047 0.024,0.007 0.046,0.014 0.065,0.022 0.088,0.031 0.171,0.075 0.239,0.14 0.051,0.051 0.085,0.108 0.107,0.164 0.028,0.067 0.038,0.131 0.042,0.177 0.003,0.042 0.003,0.067 0.003,0.067 0,0 0,0.02 -10e-4,0.051 C 1.296,-0.458 1.286,-0.374 1.244,-0.294 1.225,-0.255 1.198,-0.218 1.161,-0.182 1.117,-0.139 1.065,-0.105 1.007,-0.079 0.896,-0.03 0.769,-0.011 0.664,-0.005 0.616,-0.002 0.575,0 0.539,0 L 0,0 z"
         inkscape:connector-curvature="0"
         id="path3384"
         style="fill:#ffffff;fill-rule:evenodd;stroke:none" />
    </g>
    <path
       d="m 252.3363,432.35694 22.29548,0 0,20.9795 -22.29548,0 0,-20.9795 z m 5.84914,2.93614 0,15.11714 5.68711,0 c 0,0 2.78074,0.0728 4.30832,-1.45815 1.24654,-1.24653 1.15726,-2.68815 1.15726,-2.68815 0,0 0.0893,-1.50444 -1.06468,-2.6617 -0.98863,-0.98202 -2.24178,-1.24654 -2.24178,-1.24654 0,0 0.56871,-0.26121 1.00516,-0.70097 0.2017,-0.20169 0.92912,-0.85637 0.92912,-2.45009 0,-1.60363 -1.06468,-2.52613 -1.06468,-2.52613 0,0 -1.17379,-1.38541 -3.80904,-1.38541 l -4.90679,0 z"
       inkscape:connector-curvature="0"
       id="path3386"
       style="fill:#ffffff;fill-rule:evenodd;stroke:none" />
    <g
       transform="matrix(3.3064623,0,0,-3.3064623,235.20122,443.95796)"
       id="g3388"
       style="fill:#ffffff">
      <path
         d="m 0,0 0,-1.247 0.811,0 c 0,0 0.015,0.002 0.041,0.002 0.027,0.001 0.067,0.003 0.114,0.007 0.088,0.008 0.203,0.024 0.316,0.063 0.101,0.033 0.199,0.084 0.276,0.16 0.029,0.03 0.052,0.06 0.073,0.091 0.063,0.101 0.078,0.201 0.081,0.258 0.004,0.027 0.004,0.04 0.004,0.04 l 0,0.031 C 1.712,-0.571 1.71,-0.525 1.698,-0.474 1.683,-0.415 1.654,-0.347 1.603,-0.283 1.595,-0.272 1.584,-0.26 1.573,-0.25 1.549,-0.227 1.527,-0.205 1.501,-0.185 1.455,-0.154 1.404,-0.125 1.35,-0.102 1.276,-0.069 1.195,-0.046 1.105,-0.029 1.061,-0.021 1.011,-0.013 0.963,-0.01 0.932,-0.005 0.901,-0.004 0.869,-0.001 0.842,0 0.812,0 0.783,0 L 0,0 z"
         inkscape:connector-curvature="0"
         id="path3390"
         style="fill:#ffffff;fill-rule:evenodd;stroke:none" />
    </g>
    <g
       transform="matrix(3.3064623,0,0,-3.3064623,235.20122,437.68398)"
       id="g3392"
       style="fill:#ffffff">
      <path
         d="m 0,0 0,-1.182 0.393,0 c 0,0 0.026,0 0.06,0 0.027,10e-4 0.06,0.002 0.088,0.005 0.081,0.006 0.194,0.017 0.304,0.047 0.023,0.007 0.043,0.014 0.066,0.022 0.086,0.031 0.171,0.075 0.236,0.14 0.051,0.051 0.084,0.108 0.109,0.164 0.027,0.067 0.037,0.131 0.041,0.177 0.004,0.042 0.004,0.067 0.004,0.067 l 0,0.051 C 1.296,-0.458 1.286,-0.374 1.246,-0.294 1.226,-0.255 1.198,-0.218 1.164,-0.182 1.118,-0.139 1.065,-0.105 1.007,-0.079 0.896,-0.03 0.771,-0.011 0.663,-0.005 0.618,-0.002 0.576,0 0.541,0 L 0,0 z"
         inkscape:connector-curvature="0"
         id="path3394"
         style="fill:#ffffff;fill-rule:evenodd;stroke:none" />
    </g>
    <path
       d="m 226.64509,432.35694 22.29548,0 0,20.9795 -22.29548,0 0,-20.9795 z m 5.84913,2.93614 0,15.11714 5.69042,0 c 0,0 2.77413,0.0728 4.30502,-1.45815 1.24323,-1.24653 1.16057,-2.68815 1.16057,-2.68815 0,0 0.0827,-1.50444 -1.06799,-2.6617 -0.98863,-0.98202 -2.24178,-1.24654 -2.24178,-1.24654 0,0 0.56871,-0.26121 1.00516,-0.70097 0.2017,-0.20169 0.93243,-0.85637 0.93243,-2.45009 0,-1.60363 -1.0713,-2.52613 -1.0713,-2.52613 0,0 -1.16387,-1.38541 -3.80243,-1.38541 l -4.9101,0 z"
       inkscape:connector-curvature="0"
       id="path3396"
       style="fill:#ffffff;fill-rule:evenodd;stroke:none" />
    <g
       transform="matrix(3.3064623,0,0,-3.3064623,229.13453,460.67381)"
       id="g3398"
       style="fill:#ffffff">
      <path
         d="M 0,0 0.486,0 C 1.215,0 1.508,-0.299 1.516,-0.792 1.523,-1.231 1.292,-1.646 0.486,-1.646 L 0,-1.646 0,0 z m -0.753,0.648 0,-5.246 0.753,0 0,2.276 0.315,0 c 0.387,0 0.7,-0.124 1.394,-1.201 l 0.692,-1.075 0.898,0 c -0.361,0.497 -0.491,0.675 -0.715,1.037 -0.4,0.653 -0.692,1.138 -1.169,1.452 0.562,0.225 0.877,0.678 0.877,1.287 0,0.907 -0.661,1.47 -1.722,1.47 l -1.323,0 z"
         inkscape:connector-curvature="0"
         id="path3400"
         style="fill:#ffffff;fill-rule:evenodd;stroke:none" />
    </g>
    <g
       transform="matrix(3.3064623,0,0,-3.3064623,248.19595,462.25265)"
       id="g3402"
       style="fill:#ffffff">
      <path
         d="m 0,0 0.846,-1.898 -1.632,0 L 0,0 z m 0.276,1.154 -0.531,0 -2.253,-5.275 0.768,0 0.663,1.544 2.23,0 0.7,-1.544 0.769,0 -2.346,5.275 z"
         inkscape:connector-curvature="0"
         id="path3404"
         style="fill:#ffffff;fill-rule:evenodd;stroke:none" />
    </g>
    <g
       transform="matrix(3.3064623,0,0,-3.3064623,261.42977,460.77433)"
       id="g3406"
       style="fill:#ffffff">
      <path
         d="m 0,0 1.159,0 c 1.471,0 2.14,-0.892 2.14,-1.946 0,-0.647 -0.393,-1.947 -2.099,-1.947 L 0,-3.893 0,0 z m -0.755,-4.568 2.046,0 c 1.731,0 2.784,1.276 2.784,2.622 0,1.238 -0.854,2.624 -2.791,2.624 l -2.039,0 0,-5.246 z"
         inkscape:connector-curvature="0"
         id="path3408"
         style="fill:#ffffff;fill-rule:evenodd;stroke:none" />
    </g>
    <path
       d="m 277.77622,458.5342 2.48977,0 0,17.3457 -2.48977,0 0,-17.3457 z"
       inkscape:connector-curvature="0"
       id="path3410"
       style="fill:#ffffff;fill-rule:evenodd;stroke:none" />
    <g
       transform="matrix(3.3064623,0,0,-3.3064623,285.70942,467.2097)"
       id="g3412"
       style="fill:#ffffff">
      <path
         d="M 0,0 C 0,1.155 0.87,1.999 2.038,1.999 3.216,1.999 4.086,1.155 4.086,0 4.086,-1.146 3.216,-2 2.038,-2 0.87,-2 0,-1.146 0,0 m -0.777,0 c 0,-1.423 1.086,-2.692 2.8,-2.692 1.777,0 2.838,1.277 2.838,2.692 0,1.461 -1.091,2.691 -2.823,2.691 -1.7,0 -2.815,-1.238 -2.815,-2.691"
         inkscape:connector-curvature="0"
         id="path3414"
         style="fill:#ffffff;fill-rule:evenodd;stroke:none" />
    </g>
    <g
       transform="matrix(3.3064623,0,0,-3.3064623,401.18166,518.31537)"
       id="g3416">
      <path
         d="m 0,0 -18.357,0 9.475,11.126 c 1.35,1.524 2.081,2.56 2.081,3.669 0,0.996 -0.682,2.072 -1.786,2.072 -1.322,0 -1.989,-1.306 -2.039,-2.234 l -0.048,-0.875 -6.081,0 0.052,0.975 c 0.09,1.713 0.377,2.655 1.182,3.877 1.63,2.48 3.913,3.685 6.981,3.685 5.167,0 8.377,-2.726 8.377,-7.114 0,-1.851 -0.636,-3.346 -2.105,-4.973 L -6.037,5.902 0,5.902 0,0 z m -8.923,27.023 c -9.181,0 -16.624,-7.447 -16.624,-16.633 0,-9.187 7.443,-16.634 16.624,-16.634 9.183,0 16.624,7.447 16.624,16.634 0,9.186 -7.441,16.633 -16.624,16.633"
         inkscape:connector-curvature="0"
         id="path3418"
         style="fill:#ed781a;fill-rule:nonzero;stroke:none" />
    </g>
    <g
       transform="matrix(1,0,0,-1,119.88179,344.28221)"
       id="g3612" />
  </g>
</svg>
