<?xml version="1.0" encoding="UTF-8" standalone="no"?>
<!-- Created with Inkscape (http://www.inkscape.org/) -->

<svg
   xmlns:dc="http://purl.org/dc/elements/1.1/"
   xmlns:cc="http://creativecommons.org/ns#"
   xmlns:rdf="http://www.w3.org/1999/02/22-rdf-syntax-ns#"
   xmlns:svg="http://www.w3.org/2000/svg"
   xmlns="http://www.w3.org/2000/svg"
   xmlns:inkscape="http://www.inkscape.org/namespaces/inkscape"
   version="1.0"
   width="386.56393"
   height="212.59842"
   id="svg3907">
  <metadata
     id="metadata11">
    <rdf:RDF>
      <cc:Work
         rdf:about="">
        <dc:format>image/svg+xml</dc:format>
        <dc:type
           rdf:resource="http://purl.org/dc/dcmitype/StillImage" />
        <dc:title />
      </cc:Work>
    </rdf:RDF>
  </metadata>
  <defs
     id="defs3909" />
  <rect
     width="119.82086"
     height="158.01988"
     x="220.76488"
     y="28.609337"
     id="rect3959"
     style="fill:#ffffff;fill-opacity:1;fill-rule:nonzero;stroke:none;marker:none;visibility:visible;display:inline;overflow:visible" />
  <path
     d="m 0,6.545665 0,40.55353 43.104318,0 0,-40.55353 -43.104318,0 z m 49.660639,0 0,40.55353 43.104322,0 0,-40.55353 -43.104322,0 z m 49.640712,0 0,40.55353 43.104319,0 0,-40.55353 -43.104319,0 z m 22.996939,5.320782 c 0.17394,0 0.28441,0 0.45834,0 0.39139,0 0.7753,-0.0091 1.19568,0.0199 0.2271,0.0097 0.4704,0.0308 0.69749,0.05975 0.34789,0.02902 0.66782,0.07125 0.9964,0.119568 l 0.23913,0.0199 c 0.17879,0.04349 0.3943,0.08091 0.57792,0.119568 0.23676,0.0338 0.44562,0.08091 0.67755,0.119568 0.23193,0.03865 0.44502,0.09118 0.65762,0.139496 0.13046,0.04349 0.2681,0.06039 0.39856,0.07971 0.19328,0.06764 0.39491,0.11594 0.59784,0.159425 0.15945,0.04834 0.32909,0.09601 0.49821,0.139496 l 0.13949,0.03986 c 0.16912,0.04834 0.32909,0.115933 0.4982,0.159424 0.2271,0.05797 0.43476,0.1268 0.6377,0.19928 0.18361,0.05312 0.34418,0.111106 0.51813,0.159424 0.2126,0.08698 0.42933,0.166663 0.61777,0.239137 0.35273,0.120799 0.65093,0.227039 0.91669,0.318848 0.57499,0.227097 0.91668,0.358705 0.91668,0.358705 l 0,5.44035 -0.55798,-0.29892 c -0.20294,-0.115965 -0.46795,-0.263866 -0.77719,-0.418488 -0.16429,-0.08698 -0.35987,-0.177516 -0.55799,-0.278993 -0.24642,-0.115965 -0.49152,-0.237918 -0.75726,-0.358704 -0.30925,-0.154623 -0.63885,-0.288628 -0.9964,-0.438417 -0.2561,-0.106304 -0.53136,-0.217372 -0.79712,-0.318848 0,0 -0.18897,-0.04827 -0.49821,-0.159424 -0.16911,-0.06281 -0.4118,-0.122572 -0.67755,-0.219209 -0.17395,-0.04834 -0.35505,-0.115939 -0.55798,-0.159424 -0.33824,-0.09181 -0.70466,-0.162428 -1.09604,-0.259064 -0.2561,-0.04834 -0.54164,-0.100846 -0.81705,-0.139496 -0.31891,-0.05312 -0.65816,-0.09601 -0.9964,-0.139497 -0.18362,-0.0097 -0.38465,-0.0057 -0.57792,-0.03986 -0.27541,-0.0097 -0.52714,-0.0199 -0.81705,-0.0199 -0.13046,-0.0097 -0.27354,-6e-6 -0.41848,0 -0.37689,0 -0.76505,0.01626 -1.17576,0.05975 -0.2126,0.0097 -0.40516,0.02596 -0.61777,0.05975 -0.21743,0.02902 -0.44501,0.07066 -0.65762,0.09964 -0.18361,0.03864 -0.37497,0.07125 -0.57791,0.119568 -0.18362,0.05312 -0.38464,0.101445 -0.57792,0.159424 -0.20777,0.07247 -0.41967,0.106872 -0.61777,0.179352 -0.19327,0.06281 -0.35987,0.131627 -0.55798,0.199281 -0.18361,0.07731 -0.38464,0.156994 -0.57791,0.239136 -1.16449,0.536341 -2.31812,1.306615 -3.32798,2.311651 -0.0677,0.06765 -0.1268,0.156389 -0.19928,0.219208 -0.12563,0.13046 -0.23307,0.263267 -0.35871,0.398561 -0.0918,0.106297 -0.17691,0.222811 -0.25906,0.338776 -0.23193,0.318906 -0.43416,0.632806 -0.61777,0.956545 -0.0821,0.13046 -0.16666,0.273534 -0.23914,0.418489 -0.1063,0.183612 -0.18175,0.359878 -0.25906,0.557984 -0.0773,0.130467 -0.13587,0.272928 -0.17935,0.398561 -0.0918,0.222269 -0.14674,0.414828 -0.21921,0.617769 -0.0628,0.212601 -0.11594,0.409994 -0.15943,0.617768 -0.0773,0.318906 -0.1407,0.621347 -0.17935,0.896762 -0.058,0.459026 -0.09,0.856847 -0.0996,1.175753 l 0,0.358705 c 0,0.144954 -0.01,0.325461 0,0.538056 0.0193,0.154623 0.0205,0.329084 0.0399,0.498201 0.0531,0.454193 0.12377,0.993895 0.25906,1.554386 0.0628,0.207768 0.10688,0.414834 0.17935,0.617769 0.0773,0.26576 0.19805,0.541621 0.31885,0.817049 0.0628,0.169117 0.1413,0.343584 0.19928,0.4982 0.11597,0.202941 0.20288,0.394301 0.31885,0.577913 0.0677,0.135294 0.16726,0.263273 0.25906,0.39856 0.0918,0.13046 0.15759,0.268101 0.25907,0.398561 0.11596,0.130466 0.23248,0.292869 0.33878,0.418488 0.2126,0.251259 0.43596,0.51084 0.67755,0.757265 l 0.0797,0.05975 0.0598,0.05975 0.0797,0.07971 0.17936,0.179352 c 0.13046,0.09664 0.28863,0.20831 0.43841,0.338777 0.15945,0.115965 0.32365,0.237306 0.47828,0.338776 0.14012,0.10147 0.253,0.196851 0.37863,0.278992 0.14495,0.07731 0.27293,0.157001 0.39856,0.239137 0.26092,0.140127 0.53197,0.282595 0.81705,0.39856 0.1208,0.06281 0.24274,0.116539 0.3587,0.179352 0.087,0.02902 0.16666,0.06039 0.23914,0.07971 0.12563,0.04834 0.24274,0.100846 0.3587,0.139497 0.78277,0.275414 1.57417,0.492735 2.37144,0.637696 0.51701,0.06765 0.9764,0.130435 1.45474,0.159425 0.41555,0.02902 0.82424,0.03986 1.21561,0.03986 0.18362,0 0.37558,-0.0199 0.59784,-0.0199 0.30925,-0.01932 0.67447,-0.04107 1.05619,-0.07971 0.25126,-0.01932 0.50178,-0.06096 0.77719,-0.09964 0.11597,-0.0097 0.23307,-0.03565 0.35871,-0.05975 0.96638,-0.183612 2.06506,-0.446789 3.26819,-0.876833 0.62815,-0.222263 1.29158,-0.493316 1.97288,-0.817049 0.38172,-0.198107 0.79463,-0.3949 1.19568,-0.597841 0.36239,-0.20294 0.73426,-0.420861 1.11597,-0.657625 l 0.37863,-0.219208 c 0.0628,-0.0338 0.1268,-0.08091 0.19928,-0.119568 l 0,5.539991 c -0.10147,0.0338 -0.20167,0.09117 -0.27899,0.139496 -0.23676,0.09181 -0.45951,0.19745 -0.65763,0.29892 -0.25125,0.101471 -0.47038,0.202291 -0.69748,0.298921 -0.33823,0.169117 -0.66544,0.277168 -0.91669,0.378632 -0.19811,0.07248 -0.3774,0.140695 -0.4982,0.179353 l -0.23913,0.07971 c -0.27542,0.08698 -0.5217,0.186577 -0.79712,0.259064 -0.23193,0.07731 -0.47642,0.156395 -0.73734,0.219208 -0.32374,0.07731 -0.67447,0.176916 -1.05619,0.259065 -0.23676,0.03864 -0.48607,0.100839 -0.73733,0.139496 -0.40105,0.06765 -0.8061,0.135861 -1.25547,0.179352 -0.28508,0.04349 -0.59236,0.08031 -0.89676,0.09964 l -0.15942,0.0199 c -0.7731,0.06765 -1.60738,0.09964 -2.51093,0.09964 l -0.35871,0 c -0.24643,-0.0097 -0.50117,-6.12e-4 -0.75726,-0.0199 -0.49769,-0.01932 -0.98606,-0.08151 -1.45475,-0.139496 -0.47353,-0.04834 -0.93533,-0.121972 -1.37503,-0.19928 -0.54118,-0.115965 -1.07181,-0.243339 -1.57432,-0.378633 -0.28991,-0.08214 -0.57122,-0.177528 -0.83697,-0.278992 -0.28025,-0.09664 -0.54104,-0.177522 -0.79713,-0.278992 -0.69096,-0.28991 -1.31816,-0.597784 -1.89316,-0.91669 -0.27541,-0.164283 -0.54163,-0.343578 -0.81705,-0.4982 -0.24642,-0.15945 -0.47038,-0.294061 -0.69748,-0.458345 -0.16911,-0.13046 -0.33874,-0.277761 -0.4982,-0.39856 -0.17878,-0.144955 -0.34358,-0.272941 -0.4982,-0.398561 -0.23193,-0.193279 -0.44442,-0.399134 -0.6377,-0.577912 l -0.0996,-0.119569 c -0.2271,-0.217435 -0.45045,-0.476417 -0.67755,-0.737337 -0.17878,-0.212601 -0.38403,-0.420867 -0.55798,-0.657624 -0.17395,-0.227103 -0.35928,-0.446222 -0.53806,-0.697481 -0.11597,-0.183612 -0.2379,-0.379806 -0.35871,-0.577913 -0.14978,-0.256093 -0.30855,-0.501172 -0.45834,-0.757265 -0.2416,-0.444532 -0.46978,-0.941961 -0.67755,-1.434818 -0.1208,-0.314072 -0.24758,-0.623151 -0.35871,-0.956545 -0.0918,-0.275415 -0.16182,-0.54164 -0.23913,-0.817049 -0.0483,-0.227097 -0.11594,-0.440183 -0.15943,-0.657625 -0.0193,-0.115965 -0.0259,-0.207717 -0.0597,-0.318848 -0.0386,-0.251259 -0.0906,-0.516873 -0.11957,-0.797121 l -0.0199,-0.159424 c -0.0242,-0.241598 -0.0604,-0.465557 -0.0797,-0.697481 -0.0145,-0.227103 -0.02,-0.460717 -0.0199,-0.697481 0,-0.304411 0.0205,-0.602011 0.0399,-0.896761 0.029,-0.401048 0.061,-0.798869 0.0996,-1.175754 0.16429,-1.183814 0.45587,-2.309055 0.85691,-3.347908 0.33823,-0.840752 0.71189,-1.646641 1.17575,-2.371435 0.0677,-0.135287 0.13706,-0.242739 0.21921,-0.358704 0.1208,-0.183612 0.23851,-0.384034 0.37863,-0.557985 0.15945,-0.227097 0.32486,-0.445023 0.51813,-0.657625 0.16912,-0.20294 0.32968,-0.414229 0.51813,-0.597841 0.15946,-0.207774 0.32969,-0.388873 0.51813,-0.557984 0.20294,-0.207775 0.43535,-0.414835 0.65762,-0.617769 0.26092,-0.212608 0.52653,-0.440189 0.79713,-0.657625 0.13046,-0.09664 0.25784,-0.177522 0.37863,-0.278992 0.16428,-0.111132 0.33391,-0.222812 0.4982,-0.338777 0.28508,-0.193279 0.57242,-0.359272 0.87683,-0.538056 0.32857,-0.173945 0.65877,-0.344178 1.01633,-0.518129 0.39621,-0.202941 0.82119,-0.389473 1.27539,-0.577913 0.86009,-0.338234 1.81025,-0.60988 2.82978,-0.836977 0.16912,-0.02902 0.32969,-0.07548 0.51813,-0.09964 0.11597,-0.02902 0.23307,-0.04528 0.35871,-0.05975 l 0.27899,-0.05975 0.23914,-0.03986 0.19928,-0.0199 c 0.26092,-0.03865 0.51626,-0.06039 0.77719,-0.07971 0.17878,-0.01932 0.349,-0.02538 0.51813,-0.03986 0.30924,-0.01932 0.62798,-0.03016 0.95654,-0.03986 z m -110.979171,0.358705 9.465811,0 c 5.10248,0 7.353442,2.670355 7.353442,2.670355 0,0 2.072514,1.794779 2.072514,4.882366 0,3.082748 -1.392474,4.361151 -1.793522,4.74287 -0.831085,0.850413 -1.933018,1.335178 -1.933018,1.335178 0,0 2.415786,0.537113 4.324381,2.431219 2.227507,2.237161 2.052587,5.121496 2.052587,5.121502 0,0 0.169512,2.80519 -2.231939,5.221143 -2.961949,2.952287 -8.329915,2.809845 -8.329915,2.809851 l -10.980341,0 0,-29.214484 z m 49.64071,0 9.48574,0 c 5.097646,0 7.353441,2.670355 7.353441,2.670355 0,0 2.072508,1.794779 2.072515,4.882366 0,3.082748 -1.402149,4.361151 -1.793523,4.74287 -0.850413,0.850413 -1.952946,1.335178 -1.952946,1.335178 0,0 2.420614,0.537113 4.324381,2.431219 2.227504,2.237161 2.072514,5.121496 2.072514,5.121502 0,0 0.17435,2.80519 -2.231938,5.221143 -2.957121,2.952287 -8.329914,2.809845 -8.329914,2.809851 l -11.00027,0 0,-29.214484 z m -44.419568,4.623301 0,7.552722 2.510931,0 c -1e-6,6e-6 0.161198,0 0.378633,0 0.173946,-0.0097 0.3943,-0.02053 0.577912,-0.03986 0.507346,-0.03864 1.227567,-0.100814 1.933019,-0.298921 0.144955,-0.04349 0.2687,-0.08634 0.418488,-0.139496 0.550837,-0.207774 1.094154,-0.476385 1.51453,-0.896761 0.323734,-0.314078 0.547693,-0.673867 0.697481,-1.036257 0.173951,-0.430037 0.225241,-0.841154 0.259065,-1.135898 0.02417,-0.265753 0.0199,-0.438416 0.0199,-0.438416 l 0,-0.318848 c -0.0338,-0.323746 -0.102618,-0.853188 -0.358705,-1.375034 -0.125632,-0.246425 -0.290432,-0.490306 -0.4982,-0.717409 -0.304411,-0.280249 -0.649106,-0.507836 -1.01633,-0.657625 -0.705458,-0.318893 -1.505953,-0.434788 -2.192082,-0.478273 -0.285083,-0.01932 -0.56459,-0.0199 -0.777193,-0.0199 l -3.467477,0 z m 49.660638,0 0,7.552722 2.491004,0 c -7e-6,6e-6 0.181125,0 0.39856,0 0.188446,-0.0097 0.374373,-0.02053 0.557985,-0.03986 0.517006,-0.03864 1.242654,-0.100814 1.952946,-0.298921 0.140121,-0.04349 0.277762,-0.08634 0.398561,-0.139496 0.560497,-0.207774 1.10442,-0.476385 1.534458,-0.896761 0.323739,-0.314078 0.532598,-0.673867 0.677552,-1.036257 0.183613,-0.430037 0.249997,-0.841154 0.278993,-1.135898 0.0097,-0.265753 0.0199,-0.438416 0.0199,-0.438416 0,6e-6 0,-0.11108 0,-0.318848 -0.0097,-0.323746 -0.09778,-0.853188 -0.358704,-1.375034 C 74.026517,18.475263 73.865951,18.231382 73.634021,18.004279 73.3586,17.72403 73.004844,17.496443 72.63762,17.346654 71.932155,17.022927 71.117172,16.9167 70.445537,16.868381 c -0.304405,-0.01932 -0.55493,-0.0199 -0.777193,-0.0199 l -3.467476,0 z m -49.660638,12.11624 0,7.97121 5.181287,0 c 0,0 0.09478,-0.0199 0.259064,-0.0199 0.178778,0 0.43776,-0.02053 0.737337,-0.03986 0.560497,-0.05312 1.297611,-0.152128 2.01273,-0.39856 0.657141,-0.217442 1.285572,-0.53314 1.773595,-1.016329 0.183612,-0.193286 0.342379,-0.389474 0.458344,-0.577913 0.401048,-0.652306 0.493967,-1.291636 0.518129,-1.654026 0.01932,-0.173951 0.0199,-0.259064 0.0199,-0.259064 l 0,-0.199281 c -0.01932,-0.149788 -0.03743,-0.443792 -0.119568,-0.777193 -0.0918,-0.381719 -0.269274,-0.804901 -0.597841,-1.215609 -0.05312,-0.07247 -0.131633,-0.1419 -0.19928,-0.219208 -0.154622,-0.140122 -0.303729,-0.277762 -0.458345,-0.398561 -0.304411,-0.207774 -0.603816,-0.397936 -0.956545,-0.538057 -0.468694,-0.212601 -1.004156,-0.35204 -1.574314,-0.458344 -0.289916,-0.05312 -0.577855,-0.10024 -0.896761,-0.119568 -0.188439,-0.0338 -0.404568,-0.04043 -0.597841,-0.05975 -0.188446,-0.0097 -0.374372,-0.0199 -0.557984,-0.0199 l -5.001935,0 z m 49.660638,0 0,7.97121 5.161359,0 c 0,0 0.119543,-0.0199 0.278992,-0.0199 0.178785,0 0.432926,-0.02053 0.737337,-0.03986 0.541169,-0.05312 1.28795,-0.152128 2.012731,-0.39856 0.647479,-0.217442 1.265643,-0.53314 1.753666,-1.016329 0.183612,-0.193286 0.327884,-0.389474 0.458344,-0.577913 0.401048,-0.652306 0.518729,-1.291636 0.538057,-1.654026 0.0097,-0.173951 0,-0.259064 0,-0.259064 0,0 0,-0.08332 0,-0.199281 0,-0.149788 -0.01269,-0.443792 -0.09964,-0.777193 -0.10147,-0.381719 -0.274108,-0.804901 -0.597841,-1.215609 -0.07731,-0.07247 -0.131633,-0.1419 -0.19928,-0.219208 -0.149789,-0.140122 -0.313989,-0.277762 -0.478273,-0.398561 -0.285082,-0.207774 -0.608649,-0.397936 -0.956545,-0.538057 -0.473528,-0.212601 -0.994488,-0.35204 -1.574314,-0.458344 -0.285088,-0.05312 -0.607451,-0.10024 -0.916689,-0.119568 -0.202941,-0.0338 -0.379806,-0.04043 -0.577913,-0.05975 -0.183618,-0.0097 -0.374372,-0.0199 -0.557984,-0.0199 l -4.982007,0 z m 60.999681,27.73981 c -10.86692,7e-6 -17.995,7.91642 -17.995,17.217814 0,9.098456 6.92637,17.197886 17.87543,17.197886 11.36944,-1e-5 18.15444,-8.16225 18.15444,-17.197886 0,-9.340045 -6.96983,-17.217814 -18.03487,-17.217814 z M 40.035403,56.94364 25.727081,90.422723 c -2.135137,-2.93737 -3.010101,-4.15439 -4.404094,-6.3969 -2.551242,-4.165088 -4.399325,-7.261291 -7.453081,-9.266529 3.580429,-1.4399 5.599775,-4.330337 5.599775,-8.210346 -2e-6,-5.807939 -4.236221,-9.406028 -11.020198,-9.406028 l -8.449483,0 0,33.538863 4.822582,0 0,-14.567383 2.012731,0 c 2.469095,0 4.47215,0.786841 8.907827,7.672293 l 4.424022,6.89509 5.739271,0 c -0.0072,-0.01 -0.01275,-0.0101 -0.0199,-0.0199 l 4.663158,0 4.224741,-9.864375 14.248538,0 4.483805,9.864375 4.902295,0 -15.005803,-33.718221 -3.367836,0 z m 22.379172,0.19928 0,33.518943 13.072784,0 c 11.065032,0 17.795722,-8.13394 17.795722,-16.739546 0,-7.909806 -5.45144,-16.779397 -17.835578,-16.779397 l -13.032928,0 z m 36.408506,0 0,33.538863 4.822579,0 0,-33.538863 -4.822579,0 z m 28.377499,4.005533 c 7.51844,6e-6 13.07279,5.390732 13.07279,12.773864 -1e-5,7.315486 -5.54953,12.773866 -13.07279,12.773866 -7.47009,0 -13.03293,-5.463214 -13.03293,-12.773866 0,-7.383132 5.56283,-12.773864 13.03293,-12.773864 z m -122.377998,0.139496 3.108772,0 c 4.657942,-6e-6 6.517666,1.911324 6.556321,5.061719 0.05315,2.807326 -1.405524,5.44035 -6.556321,5.44035 l -3.108772,0 0,-10.502069 z m 62.414575,0.179352 7.413225,0 c 9.393199,0 13.670629,5.704262 13.670629,12.435088 -1e-5,4.136095 -2.50115,12.435084 -13.411565,12.435084 l -7.672289,0 0,-24.870172 z m -25.587584,2.869636 5.420422,12.136167 -10.422357,0 5.001935,-12.136167 z"
     inkscape:connector-curvature="0"
     id="path326"
     style="fill:#ffffff;fill-opacity:1;fill-rule:evenodd" />
  <path
     d="M 280.32514,0 C 221.6563,0 174.08149,47.589304 174.08149,106.29196 c 0,58.71232 47.57481,106.30646 106.24365,106.30646 58.68332,0 106.2388,-47.59897 106.2388,-106.30646 C 386.56394,47.584476 339.00363,0 280.32514,0 M 257.1997,35.345289 c 20.9849,-11.87679 60.39382,-4.049119 61.79024,24.647485 1.24179,25.265959 -29.96256,42.317706 -48.75379,52.614466 -0.50735,-0.51218 -4.13127,-4.10711 -4.89954,-4.86088 16.83914,-12.732027 35.68352,-35.466087 27.35334,-58.040687 -5.74029,-15.549025 -31.51843,-15.230119 -38.27825,-0.710286 6.44574,-2.237168 15.64084,-2.58023 20.60319,3.0151 5.17495,5.861084 2.11637,15.01269 -4.34871,18.351524 -10.09865,5.194289 -27.85585,0.753777 -28.68694,-12.39863 -0.25609,-9.915044 6.65835,-18.35153 15.22046,-22.618092 m 63.26396,136.003261 c -19.5305,15.07067 -57.26275,18.00847 -77.47456,3.29053 -8.47513,-6.17033 -15.70364,-13.47615 -15.44755,-23.49267 0.72961,-26.67204 45.35697,-15.34125 34.63983,4.6966 -4.40668,7.03041 -15.04168,7.01108 -21.95612,4.39219 11.97343,17.41414 44.38577,16.9841 58.06968,1.72982 6.86612,-7.65372 7.67305,-17.82485 6.82264,-27.83653 -1.01953,-12.01691 -6.81297,-19.56916 -14.11396,-28.34871 4.50332,-3.2277 7.15603,-5.01551 11.47574,-8.508957 31.58608,7.648877 49.02921,50.150207 17.9843,74.077727 m 11.41776,-91.57884 c -9.10811,0 -9.13227,-13.925513 0,-13.925513 8.91968,0 8.90035,13.925513 0,13.925513 m 0,-23.565142 c -9.10811,0 -9.13227,-13.906184 0,-13.906184 8.91968,0 8.90035,13.906184 0,13.906184"
     inkscape:connector-curvature="0"
     id="path350"
     style="fill:#d3021d" />
</svg>
