<?xml version="1.0" encoding="UTF-8" standalone="no"?>
<!-- Created with Inkscape (http://www.inkscape.org/) -->

<svg
   xmlns:dc="http://purl.org/dc/elements/1.1/"
   xmlns:cc="http://creativecommons.org/ns#"
   xmlns:rdf="http://www.w3.org/1999/02/22-rdf-syntax-ns#"
   xmlns:svg="http://www.w3.org/2000/svg"
   xmlns="http://www.w3.org/2000/svg"
   xmlns:inkscape="http://www.inkscape.org/namespaces/inkscape"
   version="1.0"
   width="386.58984"
   height="212.59842"
   id="svg4069">
  <metadata
     id="metadata11">
    <rdf:RDF>
      <cc:Work
         rdf:about="">
        <dc:format>image/svg+xml</dc:format>
        <dc:type
           rdf:resource="http://purl.org/dc/dcmitype/StillImage" />
        <dc:title />
      </cc:Work>
    </rdf:RDF>
  </metadata>
  <defs
     id="defs4071" />
  <rect
     width="124.40331"
     height="153.13689"
     x="215.66939"
     y="28.040689"
     id="rect4125"
     style="fill:#ffffff;fill-opacity:1;fill-rule:nonzero;stroke:none;marker:none;visibility:visible;display:inline;overflow:visible" />
  <path
     d="m 0,6.550021 0,40.547746 43.094977,0 0,-40.547746 -43.094977,0 z m 49.679654,0 0,40.547746 43.09498,0 0,-40.547746 -43.09498,0 z m 49.645,0 0,40.547746 43.094966,0 0,-40.547746 -43.094966,0 z m 22.994376,5.319726 c 0.17481,0 0.27849,0 0.46786,0 0.3836,0 0.7732,0.02285 1.19564,0.05198 0.22336,0.0097 0.45519,0.02285 0.69312,0.05198 0.33991,0.02428 0.65751,0.05541 0.9877,0.103969 l 0.2426,0.01733 c 0.18451,0.03885 0.38245,0.08245 0.57183,0.121296 0.22822,0.02913 0.44758,0.06303 0.67579,0.121297 0.24279,0.03885 0.46214,0.08521 0.6758,0.138625 0.1311,0.03399 0.26468,0.06722 0.38121,0.08664 0.20395,0.05341 0.41016,0.119869 0.62382,0.173281 0.14567,0.03885 0.31733,0.06788 0.46786,0.121297 l 0.13862,0.05198 c 0.17481,0.0437 0.35475,0.09492 0.51984,0.138625 0.2088,0.06312 0.41017,0.1351 0.62381,0.207937 0.18452,0.05827 0.36723,0.124725 0.53718,0.173281 0.21365,0.0874 0.4074,0.152429 0.60648,0.225266 0.34476,0.126248 0.66103,0.236974 0.91839,0.329233 0.58754,0.228219 0.91839,0.363889 0.91839,0.36389 l 0,5.441023 -0.5545,-0.311906 c -0.2088,-0.111682 -0.469,-0.265347 -0.77977,-0.415874 -0.16509,-0.0874 -0.35541,-0.192608 -0.5545,-0.294578 -0.24278,-0.10197 -0.48774,-0.230024 -0.7451,-0.346562 -0.33019,-0.155383 -0.65818,-0.300003 -1.02236,-0.45053 -0.25736,-0.09711 -0.5446,-0.209935 -0.79709,-0.311906 0,0 -0.17928,-0.03941 -0.48519,-0.155953 -0.18452,-0.04856 -0.40873,-0.120533 -0.6758,-0.207937 -0.1748,-0.06312 -0.3776,-0.12958 -0.57182,-0.173281 -0.34476,-0.0874 -0.70598,-0.162807 -1.109,-0.259922 -0.24765,-0.03885 -0.52032,-0.09007 -0.79709,-0.138624 -0.32534,-0.05342 -0.67485,-0.08245 -1.00503,-0.121297 -0.18452,-0.01942 -0.37275,-0.02771 -0.57183,-0.05198 -0.27678,-0.0097 -0.5404,-0.0076 -0.83175,-0.01733 -0.13111,0 -0.26259,0 -0.39855,0 -0.3836,0 -0.76557,0.01799 -1.17831,0.05198 -0.2185,0.0097 -0.42748,0.03256 -0.64114,0.05198 -0.2185,0.03399 -0.41015,0.06027 -0.62381,0.103969 -0.18451,0.02913 -0.39492,0.08245 -0.58915,0.121296 -0.18452,0.05342 -0.39008,0.107396 -0.58916,0.155953 -0.20394,0.06312 -0.41226,0.127485 -0.60648,0.190609 -0.19423,0.07284 -0.38245,0.12263 -0.57183,0.190609 -0.18937,0.06798 -0.36512,0.15519 -0.5545,0.242594 -1.17508,0.53413 -2.31701,1.294645 -3.32699,2.304637 -0.068,0.06798 -0.1351,0.15243 -0.20794,0.225265 -0.13596,0.131105 -0.25497,0.279915 -0.38122,0.415874 -0.0923,0.111682 -0.17252,0.222408 -0.25992,0.329234 -0.23308,0.310766 -0.43167,0.624952 -0.60648,0.935717 -0.0923,0.140816 -0.17461,0.28753 -0.2426,0.433203 -0.0874,0.184517 -0.1947,0.365126 -0.27725,0.554499 -0.0583,0.140816 -0.1171,0.279914 -0.15595,0.415874 -0.0825,0.213652 -0.15243,0.4074 -0.22526,0.606484 -0.068,0.218508 -0.12958,0.41987 -0.17328,0.623811 -0.0777,0.315623 -0.13929,0.606957 -0.17329,0.883733 -0.0583,0.461294 -0.0943,0.8724 -0.10396,1.178311 l 0,0.346562 c 0,0.160239 0.008,0.358174 0.0173,0.571827 0.01,0.145672 0.006,0.293051 0.0346,0.467858 0.0437,0.451583 0.12882,0.986552 0.25992,1.559529 0.0583,0.199085 0.11777,0.419868 0.19061,0.623812 0.0874,0.267065 0.16834,0.537644 0.29458,0.81442 0.068,0.165095 0.1351,0.320093 0.20794,0.485187 0.0971,0.194229 0.20784,0.39978 0.32923,0.589155 0.0728,0.150527 0.15033,0.262587 0.24259,0.398546 0.0923,0.131105 0.18014,0.270201 0.27725,0.415875 0.10683,0.131104 0.22727,0.2702 0.32924,0.415874 0.21851,0.247642 0.44548,0.50232 0.69312,0.745108 l 0.0693,0.06931 0.052,0.05198 0.0866,0.08664 0.17328,0.155953 c 0.14567,0.10197 0.30762,0.237644 0.46786,0.36389 0.14567,0.111682 0.30001,0.236973 0.45053,0.329234 0.13596,0.10197 0.27715,0.197461 0.39855,0.294578 0.13596,0.06798 0.25497,0.139957 0.38122,0.207937 0.26706,0.155383 0.53764,0.289626 0.81442,0.415874 0.14081,0.05342 0.25982,0.110157 0.38121,0.173281 0.0825,0.02913 0.14758,0.06236 0.22527,0.08664 0.11168,0.0437 0.23279,0.09978 0.36389,0.138624 0.77206,0.281633 1.57276,0.478139 2.37395,0.623812 0.50986,0.07284 0.97485,0.144145 1.45556,0.173281 0.42245,0.03399 0.81966,0.05198 1.21297,0.05198 0.19423,0 0.39283,-0.02495 0.60648,-0.03466 0.30591,-0.0097 0.65608,-0.03047 1.03969,-0.06931 0.25735,-0.01942 0.5127,-0.06027 0.77976,-0.103969 0.11654,-0.0097 0.23764,-0.03256 0.36389,-0.05198 0.96629,-0.184518 2.07079,-0.451573 3.27501,-0.883733 0.62639,-0.223364 1.29284,-0.493944 1.95807,-0.814421 0.39817,-0.199084 0.80994,-0.402543 1.21297,-0.606483 0.36418,-0.208796 0.70807,-0.43025 1.09167,-0.658468 l 0.38128,-0.207911 c 0.0583,-0.03884 0.13509,-0.08521 0.20794,-0.138625 l 0,5.544991 c -0.10683,0.03399 -0.19471,0.08245 -0.27725,0.121297 -0.23308,0.106826 -0.47672,0.222409 -0.6758,0.329234 -0.23793,0.10197 -0.45243,0.197461 -0.67579,0.294577 -0.34476,0.155383 -0.67837,0.274393 -0.93572,0.381218 -0.19908,0.06798 -0.36379,0.132342 -0.48519,0.19061 l -0.24259,0.06931 c -0.25736,0.09226 -0.52033,0.187087 -0.79709,0.259921 -0.23793,0.0874 -0.45796,0.135102 -0.71046,0.207938 -0.3399,0.07769 -0.69074,0.177375 -1.07434,0.259921 -0.23307,0.0437 -0.48775,0.104637 -0.74511,0.138625 -0.40302,0.08255 -0.81337,0.137196 -1.26495,0.190609 -0.28648,0.03885 -0.58544,0.07483 -0.90106,0.103968 l -0.15595,0.01733 c -0.76721,0.06312 -1.60455,0.103968 -2.51257,0.103968 l -0.34657,0 c -0.24764,-0.01942 -0.50508,-0.03256 -0.76243,-0.05198 -0.49529,-0.02428 -0.97694,-0.05817 -1.43824,-0.121297 -0.47586,-0.0437 -0.94438,-0.125392 -1.38624,-0.207937 -0.53414,-0.111682 -1.07186,-0.245258 -1.57686,-0.381218 -0.29134,-0.08255 -0.55498,-0.157949 -0.83175,-0.259922 -0.27677,-0.0874 -0.55707,-0.192608 -0.81442,-0.294577 -0.68466,-0.281633 -1.32064,-0.585438 -1.88876,-0.901061 -0.27678,-0.169951 -0.55012,-0.347133 -0.83175,-0.502515 -0.23793,-0.155383 -0.45243,-0.302765 -0.6758,-0.467859 -0.1748,-0.131104 -0.34712,-0.272299 -0.50251,-0.398546 -0.17966,-0.131105 -0.34713,-0.282009 -0.50252,-0.398546 -0.22336,-0.20394 -0.41501,-0.399783 -0.62381,-0.589155 l -0.10397,-0.103969 c -0.22822,-0.223363 -0.45729,-0.470428 -0.67579,-0.72778 -0.19423,-0.213652 -0.39702,-0.425392 -0.57183,-0.658468 -0.17966,-0.223363 -0.33256,-0.457953 -0.50251,-0.710452 -0.12625,-0.184518 -0.26258,-0.382452 -0.39855,-0.571827 -0.14081,-0.252498 -0.28268,-0.490518 -0.4332,-0.762436 -0.23308,-0.451583 -0.47185,-0.925619 -0.6758,-1.420904 -0.12625,-0.305911 -0.2522,-0.627711 -0.36389,-0.953045 -0.0874,-0.276777 -0.17738,-0.554972 -0.25992,-0.831749 -0.0437,-0.218508 -0.0998,-0.444814 -0.13862,-0.658468 -0.0194,-0.111681 -0.0326,-0.200223 -0.052,-0.311906 -0.0486,-0.257353 -0.0949,-0.537644 -0.13863,-0.81442 l -0.0173,-0.155953 c -0.0194,-0.233075 -0.0499,-0.477378 -0.0693,-0.710452 -0.01,-0.228219 -0.0173,-0.437866 -0.0173,-0.675796 0,-0.30591 0.0153,-0.612478 0.0347,-0.918389 0.034,-0.393314 0.0603,-0.77738 0.10397,-1.160982 0.16024,-1.184797 0.46337,-2.312813 0.8664,-3.361651 0.33505,-0.840041 0.71701,-1.628262 1.17831,-2.356621 0.0583,-0.121393 0.13301,-0.242497 0.22527,-0.36389 0.11653,-0.184518 0.21822,-0.362366 0.36389,-0.537171 0.16509,-0.228219 0.32075,-0.444816 0.51984,-0.658468 0.15053,-0.203941 0.33047,-0.407399 0.51984,-0.606483 0.14568,-0.208797 0.34504,-0.397022 0.51985,-0.571828 0.21851,-0.189373 0.43025,-0.407398 0.65846,-0.606483 0.25736,-0.20394 0.50299,-0.437198 0.77977,-0.64114 0.13596,-0.106826 0.26258,-0.180134 0.39854,-0.277249 0.16024,-0.121393 0.32981,-0.239736 0.48519,-0.346562 0.28649,-0.189373 0.58267,-0.362365 0.88373,-0.537171 0.3302,-0.189374 0.65056,-0.362365 1.00503,-0.537171 0.39817,-0.194229 0.84804,-0.382454 1.29961,-0.571827 0.86432,-0.33019 1.79506,-0.618097 2.82448,-0.831749 0.15538,-0.03399 0.32286,-0.07969 0.50252,-0.103969 0.11168,-0.02913 0.24248,-0.04504 0.36389,-0.06931 l 0.27724,-0.05198 0.2426,-0.01733 0.20794,-0.01733 c 0.25735,-0.0437 0.50508,-0.06236 0.76243,-0.08664 0.16995,-0.01942 0.34018,-0.03742 0.51984,-0.05198 0.30106,-0.01942 0.62286,-0.04227 0.95305,-0.05198 z m -111.003783,0.36389 9.495797,0 c 5.093658,0 7.347114,2.668526 7.347114,2.668526 0,0 2.062041,1.79133 2.062043,4.903852 0,3.068819 -1.399099,4.337257 -1.802122,4.73057 -0.835185,0.840041 -1.923418,1.351592 -1.923419,1.351592 0,0 2.41125,0.514873 4.314696,2.408605 2.228779,2.233635 2.062046,5.129118 2.062044,5.129117 0,0 0.168259,2.80246 -2.235325,5.215757 -2.957137,2.952282 -8.317485,2.807153 -8.317486,2.807152 l -11.003342,0 0,-29.215171 z m 49.662326,0 9.478469,0 c 5.098514,0 7.364441,2.668526 7.364441,2.668526 0,0 2.062044,1.79133 2.062044,4.903852 0,3.068819 -1.413662,4.337257 -1.802122,4.73057 -0.849754,0.840041 -1.940747,1.351592 -1.940747,1.351592 0,0 2.418863,0.514873 4.332024,2.408605 2.228782,2.233635 2.062042,5.129118 2.062042,5.129117 0,0 0.18283,2.80246 -2.235323,5.215757 -2.952281,2.952282 -8.317486,2.807153 -8.317486,2.807152 l -11.003342,0 0,-29.215171 z m -44.42924,4.64393 0,7.537722 2.512574,0 c 0,-1e-6 0.167566,0.0097 0.381218,0 0.174806,-1e-6 0.397021,-0.01523 0.571827,-0.03466 0.509851,-0.02913 1.23181,-0.100348 1.940747,-0.294577 0.145672,-0.0437 0.270203,-0.09978 0.415874,-0.138625 0.553553,-0.203941 1.094808,-0.488325 1.507545,-0.901061 0.344756,-0.330189 0.555068,-0.694929 0.710452,-1.039686 0.174804,-0.432159 0.240499,-0.844694 0.259921,-1.126326 0.02428,-0.286487 0.03466,-0.433203 0.03466,-0.433203 l 0,-0.329233 c -0.03399,-0.320477 -0.106536,-0.868781 -0.36389,-1.36892 -0.126249,-0.252497 -0.291624,-0.504416 -0.519843,-0.72778 -0.291344,-0.267065 -0.631138,-0.476045 -1.005029,-0.64114 -0.708936,-0.30591 -1.511155,-0.44634 -2.200669,-0.485186 -0.291343,-0.01942 -0.566112,-0.01733 -0.779764,-0.01733 l -3.465619,0 z m 49.662325,0 0,7.537722 2.495246,0 c -5e-6,-1e-6 0.170326,0.0097 0.398546,0 0.189373,-1e-6 0.377598,-0.01523 0.571828,-0.03466 0.50985,-0.02913 1.219338,-0.100348 1.923418,-0.294577 0.145667,-0.0437 0.294484,-0.09978 0.415875,-0.138625 0.563265,-0.203941 1.092712,-0.488325 1.524872,-0.901061 0.325336,-0.330189 0.530124,-0.694929 0.675796,-1.039686 0.184515,-0.432159 0.248116,-0.844694 0.27725,-1.126326 0.0097,-0.286487 0.0173,-0.433203 0.0173,-0.433203 -6e-6,2e-6 0,-0.125292 0,-0.329233 -0.0097,-0.320477 -0.08435,-0.868781 -0.346562,-1.36892 -0.126254,-0.252497 -0.289526,-0.504416 -0.537171,-0.72778 -0.276778,-0.267065 -0.606195,-0.476045 -0.970373,-0.64114 -0.71379,-0.30591 -1.535431,-0.44634 -2.200669,-0.485186 -0.305911,-0.01942 -0.573729,-0.01733 -0.797092,-0.01733 l -3.448291,0 z m -49.662325,12.112339 0,7.970925 5.181101,0 c 0,-10e-7 0.107299,-0.01733 0.277249,-0.01733 0.165095,-0.0097 0.426725,-0.02495 0.72778,-0.03466 0.563265,-0.06312 1.291412,-0.173088 2.010059,-0.415875 0.645812,-0.208794 1.277038,-0.541641 1.767466,-1.022358 0.189371,-0.199084 0.34161,-0.394925 0.467859,-0.589155 0.398171,-0.6361 0.495564,-1.274372 0.519843,-1.628841 0.01942,-0.174805 0.01733,-0.277249 0.01733,-0.277249 l 0,-0.173281 c -0.01942,-0.155386 -0.03599,-0.459287 -0.103969,-0.779765 -0.09226,-0.378747 -0.276294,-0.817558 -0.606483,-1.230295 -0.05342,-0.07283 -0.135101,-0.135101 -0.207937,-0.207937 -0.14567,-0.14567 -0.290292,-0.294481 -0.450531,-0.415874 -0.291343,-0.203941 -0.615905,-0.381788 -0.970373,-0.537171 -0.471004,-0.203942 -0.996264,-0.356177 -1.559529,-0.467859 -0.286488,-0.05342 -0.59515,-0.101873 -0.901061,-0.121296 -0.199086,-0.02913 -0.412254,-0.03256 -0.606483,-0.05198 -0.179662,-0.0097 -0.379693,0 -0.554499,0 l -5.00782,0 z m 49.662325,0 0,7.970925 5.181101,0 c 0,-10e-7 0.10454,-0.01733 0.259922,-0.01733 0.189367,-0.0097 0.421868,-0.02495 0.72778,-0.03466 0.548699,-0.06312 1.303882,-0.173088 2.027387,-0.415875 0.645809,-0.208794 1.264563,-0.541641 1.750138,-1.022358 0.184521,-0.199084 0.331901,-0.394925 0.467859,-0.589155 0.393311,-0.6361 0.512895,-1.274372 0.537171,-1.628841 0.0097,-0.174805 0,-0.277249 0,-0.277249 0,-2e-6 0,-0.06646 0,-0.173281 0,-0.155386 -0.01658,-0.459287 -0.103969,-0.779765 -0.101967,-0.378747 -0.268677,-0.817558 -0.589155,-1.230295 -0.07284,-0.07283 -0.152432,-0.135101 -0.225266,-0.207937 -0.131105,-0.14567 -0.285434,-0.294481 -0.45053,-0.415874 -0.286488,-0.203941 -0.608286,-0.381788 -0.953045,-0.537171 -0.461294,-0.203942 -0.989316,-0.356177 -1.576857,-0.467859 -0.276773,-0.05342 -0.590298,-0.101873 -0.901061,-0.121296 -0.208803,-0.02913 -0.397687,-0.03256 -0.606484,-0.05198 -0.179657,-0.0097 -0.355411,0 -0.554499,0 l -4.990492,0 z m 60.994902,27.724955 c -10.87198,-0.005 -17.98657,7.917793 -17.98657,17.2068 0,9.09477 6.92807,17.2068 17.8826,17.2068 11.35268,0 18.14251,-8.16544 18.14251,-17.2068 0,-9.337565 -6.9772,-17.2068 -18.03854,-17.2068 z m -87.160328,0.259922 -14.29568,33.460558 c -2.146218,-2.95162 -3.029063,-4.15944 -4.418665,-6.39407 -2.554112,-4.18078 -4.411397,-7.267876 -7.451081,-9.287861 3.578671,-1.422728 5.596975,-4.328936 5.596975,-8.213518 0,-5.802594 -4.219891,-9.391828 -11.003342,-9.391828 l -8.456111,0 0,33.529867 4.817211,0 0,-14.555601 2.010059,0 c 2.471565,0 4.458796,0.795778 8.906642,7.676351 l 4.418665,6.87925 5.752928,0 4.626602,0 4.245384,-9.877015 14.243695,0 4.487977,9.877015 4.903852,0 -14.988804,-33.703148 -3.396307,0 z m 22.370573,0.173281 0,33.547197 13.082713,0 c 11.066206,0 17.795956,-8.15954 17.795956,-16.7736 0,-7.900264 -5.44851,-16.773597 -17.830612,-16.773597 l -13.048057,0 z m 36.423659,0 0,33.529867 4.817206,0 0,-33.529867 -4.817206,0 z m 28.383416,4.00279 c 7.51666,0 13.06539,5.399812 13.06539,12.770807 0,7.322433 -5.54872,12.78814 -13.06539,12.78814 -7.48268,0 -13.04805,-5.470559 -13.04805,-12.78814 0,-7.370995 5.57023,-12.770807 13.04805,-12.770807 z m -122.388341,0.138625 3.101729,0 c 4.661498,0 6.545831,1.913293 6.584677,5.059804 0.03885,2.811466 -1.432751,5.458351 -6.584677,5.458351 l -3.101729,0 0,-10.518155 z m 62.415805,0.190609 7.399097,0 c 9.400693,0 13.671873,5.716392 13.671873,12.441573 0,4.141937 -2.50323,12.44157 -13.394623,12.44157 l -7.676347,0 0,-24.883143 z m -25.576271,2.859136 5.406366,12.129668 -10.431514,0 5.025148,-12.129668 z"
     inkscape:connector-curvature="0"
     id="path352"
     style="fill:#ffffff;fill-opacity:1;fill-rule:evenodd" />
  <path
     d="M 280.35128,0 C 221.6601,0 174.09539,47.597282 174.09539,106.30787 c -1e-5,58.71059 47.56472,106.29055 106.25589,106.29055 58.6766,0 106.23856,-47.57995 106.23856,-106.29055 C 386.58984,47.597278 339.02788,0 280.35128,0 z m 11.12463,30.792028 24.98712,0 -0.052,85.878052 21.60814,-0.052 -0.0173,31.91835 -21.60814,0 0.0693,27.3784 -38.72829,0.0346 -0.052,-24.62325 c 0,0 -0.039,-2.7128 -3.29234,-2.82448 l -55.36327,0.0347 0.0173,-22.71714 c 0.01,-3.31161 1.64529,-8.18369 3.62157,-10.83006 l 59.19278,-79.397339 c 1.986,-2.651228 6.30549,-4.809594 9.61709,-4.799883 z m -10.48349,61.878633 c -8.40527,0.17966 -15.0964,7.15537 -14.90217,15.560629 0.18452,7.2933 5.6426,13.27855 12.77081,14.5556 l 5.47568,0.97038 c -1.4276,9.68717 -5.03877,16.95043 -13.18668,22.9424 10.9788,-4.87516 19.39952,-15.39028 23.28896,-26.52932 3.8943,-11.1536 1.67898,-27.805599 -13.4466,-27.499689 z"
     inkscape:connector-curvature="0"
     id="path376"
     style="fill:#002c5a" />
</svg>
