<?xml version="1.0" encoding="UTF-8" standalone="no"?>
<!-- Created with Inkscape (http://www.inkscape.org/) -->

<svg
   xmlns:dc="http://purl.org/dc/elements/1.1/"
   xmlns:cc="http://creativecommons.org/ns#"
   xmlns:rdf="http://www.w3.org/1999/02/22-rdf-syntax-ns#"
   xmlns:svg="http://www.w3.org/2000/svg"
   xmlns="http://www.w3.org/2000/svg"
   xmlns:inkscape="http://www.inkscape.org/namespaces/inkscape"
   version="1.0"
   width="386.59375"
   height="212.59375"
   id="svg4085">
  <metadata
     id="metadata10">
    <rdf:RDF>
      <cc:Work
         rdf:about="">
        <dc:format>image/svg+xml</dc:format>
        <dc:type
           rdf:resource="http://purl.org/dc/dcmitype/StillImage" />
      </cc:Work>
    </rdf:RDF>
  </metadata>
  <defs
     id="defs4087" />
  <g
     transform="translate(-17.71875,-17.71875)"
     id="layer1">
    <g
       id="g3711">
      <path
         d="m 262.78664,47.016206 0,161.947284 72.15178,0 0,-161.947284 -72.15178,0 z"
         inkscape:connector-curvature="0"
         id="rect4115"
         style="fill:#ffffff;fill-opacity:1;fill-rule:nonzero;stroke:none;marker:none;visibility:visible;display:inline;overflow:visible" />
      <path
         d="m 298.0625,17.71875 c -58.68649,-6e-6 -106.25,47.579562 -106.25,106.28125 1e-5,58.71691 47.56351,106.3125 106.25,106.3125 58.67127,2e-5 106.25,-47.5956 106.25,-106.3125 10e-6,-58.701673 -47.57873,-106.28125 -106.25,-106.28125 z M 67.375,24.25 l 0,40.59375 43.09375,0 0,-40.59375 -43.09375,0 z m 49.625,0 0,40.59375 43.09375,0 0,-40.59375 -43.09375,0 z m -99.28125,0.03125 0,40.53125 43.09375,0 0,-40.53125 -43.09375,0 z m 122.75,5.28125 c 0.38019,0 0.7769,8.31e-4 1.1875,0.03125 0.22813,0.01014 0.46444,0.02701 0.6875,0.0625 0.34977,0.02027 0.68064,0.07939 1,0.125 l 0.25,0.03125 c 0.18756,0.04055 0.40619,0.05321 0.59375,0.09375 0.22813,0.03041 0.43322,0.07937 0.65625,0.125 0.22813,0.04055 0.4332,0.100492 0.65625,0.15625 0.13179,0.03041 0.2432,0.0684 0.375,0.09375 0.19263,0.0507 0.41715,0.100485 0.625,0.15625 0.14701,0.04056 0.30146,0.07937 0.46875,0.125 l 0.15625,0.03125 c 0.18249,0.04562 0.32765,0.115684 0.5,0.15625 0.22811,0.06083 0.4273,0.126663 0.625,0.1875 0.19263,0.06083 0.3589,0.146942 0.53125,0.1875 0.21797,0.08111 0.43742,0.14272 0.625,0.21875 0.34977,0.111522 0.64265,0.257581 0.90625,0.34375 0.57788,0.228117 0.9375,0.343743 0.9375,0.34375 l 0,5.4375 -0.5625,-0.3125 c -0.21798,-0.121662 -0.48216,-0.249103 -0.78125,-0.40625 -0.17235,-0.09124 -0.35973,-0.174794 -0.5625,-0.28125 -0.23317,-0.09632 -0.48133,-0.253332 -0.75,-0.375 -0.3295,-0.152072 -0.64007,-0.25417 -1,-0.40625 -0.26359,-0.09632 -0.54383,-0.216177 -0.8125,-0.3125 0,-10e-7 -0.16966,-0.08104 -0.46875,-0.1875 -0.18249,-0.06591 -0.42897,-0.13258 -0.6875,-0.21875 -0.17742,-0.05577 -0.35973,-0.115706 -0.5625,-0.15625 -0.32951,-0.08618 -0.69327,-0.15369 -1.09375,-0.25 -0.24839,-0.04562 -0.55479,-0.07937 -0.84375,-0.125 -0.3143,-0.05069 -0.62404,-0.110632 -0.96875,-0.15625 -0.18756,-0.02027 -0.36987,-0.0059 -0.5625,-0.03125 -0.28388,-0.01014 -0.5548,-0.03125 -0.84375,-0.03125 -0.1318,-0.01014 -0.24909,-7e-6 -0.40625,0 -0.37004,2e-6 -0.74565,0.02701 -1.15625,0.0625 -0.21292,0.01014 -0.41715,0.04223 -0.625,0.0625 -0.22304,0.03042 -0.43827,0.05826 -0.65625,0.09375 -0.19264,0.04563 -0.40111,0.07938 -0.59375,0.125 -0.19262,0.05069 -0.3648,0.09035 -0.5625,0.15625 -0.21291,0.05577 -0.43237,0.111456 -0.625,0.1875 -0.19263,0.0659 -0.36988,0.111449 -0.5625,0.1875 -0.17742,0.07604 -0.36986,0.16383 -0.5625,0.25 -1.17099,0.537337 -2.28851,1.267406 -3.3125,2.28125 -0.0608,0.06591 -0.13764,0.147779 -0.21875,0.21875 -0.12165,0.136869 -0.25334,0.300632 -0.375,0.4375 -0.0862,0.111523 -0.17904,0.206037 -0.25,0.3125 -0.23825,0.30922 -0.44251,0.65447 -0.625,0.96875 -0.0913,0.136876 -0.14271,0.259243 -0.21875,0.40625 -0.10138,0.182493 -0.20521,0.364809 -0.28125,0.5625 -0.0659,0.136867 -0.14696,0.26939 -0.1875,0.40625 -0.0913,0.217976 -0.12667,0.401125 -0.1875,0.59375 -0.0659,0.212906 -0.13174,0.443332 -0.1875,0.65625 -0.071,0.30922 -0.11063,0.586038 -0.15625,0.875 -0.0507,0.451163 -0.11485,0.868133 -0.125,1.1875 l 0,0.34375 c 0,0.167289 -0.0101,0.349582 0,0.5625 0.0101,0.152075 0.027,0.301464 0.0625,0.46875 0.0406,0.466374 0.12833,0.994744 0.25,1.5625 0.0659,0.192632 0.11146,0.427295 0.1875,0.625 0.076,0.278808 0.15959,0.533699 0.28125,0.8125 0.071,0.157148 0.14778,0.337773 0.21875,0.5 0.10138,0.202765 0.19591,0.374934 0.3125,0.5625 0.071,0.136873 0.17986,0.284589 0.28125,0.40625 0.0811,0.147015 0.15369,0.274449 0.25,0.40625 0.12166,0.131802 0.2373,0.305699 0.34375,0.4375 0.20785,0.258529 0.43404,0.506677 0.6875,0.75 l 0.0625,0.0625 0.0625,0.03125 0.0625,0.09375 0.21875,0.15625 c 0.13686,0.10645 0.24911,0.253346 0.40625,0.375 0.14701,0.126728 0.31667,0.247427 0.46875,0.34375 0.13688,0.101382 0.26348,0.163817 0.375,0.25 0.14195,0.07604 0.28966,0.168897 0.40625,0.25 0.27374,0.147006 0.53876,0.279528 0.8125,0.40625 0.12674,0.05576 0.26347,0.131728 0.375,0.1875 0.0913,0.03041 0.14272,0.03715 0.21875,0.0625 0.11658,0.05576 0.24827,0.125838 0.375,0.15625 0.77559,0.278809 1.58421,0.451823 2.375,0.59375 0.512,0.07604 0.98717,0.152022 1.46875,0.1875 0.42075,0.03041 0.83348,0.0625 1.21875,0.0625 0.18249,-10e-7 0.38084,-0.02112 0.59375,-0.03125 0.30922,-0.01013 0.68232,-0.0532 1.0625,-0.09375 0.25345,-0.02535 0.47118,-0.03207 0.75,-0.0625 0.11151,-0.02535 0.25334,-0.05237 0.375,-0.0625 0.97329,-0.182492 2.06464,-0.449191 3.28125,-0.875 0.63366,-0.223043 1.29454,-0.519324 1.96875,-0.84375 0.40048,-0.192626 0.79718,-0.412096 1.1875,-0.625 0.36499,-0.202771 0.70849,-0.386743 1.09375,-0.625 l 0.40625,-0.21875 c 0.0507,-0.04563 0.11146,-0.08444 0.1875,-0.125 l 0,5.53125 c -0.10139,0.03042 -0.19508,0.08443 -0.28125,0.125 -0.22811,0.111521 -0.46362,0.237302 -0.65625,0.34375 -0.23825,0.09125 -0.47459,0.195081 -0.6875,0.28125 -0.35486,0.167287 -0.66883,0.273611 -0.9375,0.375 -0.1825,0.07604 -0.35722,0.126676 -0.46875,0.1875 l -0.25,0.09375 c -0.25853,0.08111 -0.50244,0.173957 -0.78125,0.25 -0.23825,0.07097 -0.49654,0.157919 -0.75,0.21875 -0.33963,0.07096 -0.67218,0.163817 -1.0625,0.25 -0.23319,0.04055 -0.49148,0.115705 -0.75,0.15625 -0.39539,0.07097 -0.79377,0.115691 -1.25,0.15625 -0.28895,0.04563 -0.59703,0.07347 -0.90625,0.09375 L 142.625,59.4375 c -0.78066,0.0659 -1.58755,0.09376 -2.5,0.09375 l -0.34375,0 c -0.24334,-0.02028 -0.49654,-0.0059 -0.75,-0.03125 -0.49679,-0.01521 -1.01253,-0.06416 -1.46875,-0.125 -0.4765,-0.0659 -0.96524,-0.132581 -1.40625,-0.21875 -0.53226,-0.111521 -1.01925,-0.201816 -1.53125,-0.34375 -0.29401,-0.08617 -0.57508,-0.179874 -0.84375,-0.28125 -0.28388,-0.09124 -0.55398,-0.206037 -0.8125,-0.3125 -0.68434,-0.278809 -1.33848,-0.565772 -1.90625,-0.875 -0.27879,-0.172351 -0.51258,-0.353 -0.78125,-0.5 -0.24839,-0.162214 -0.46445,-0.306537 -0.6875,-0.46875 -0.18756,-0.126735 -0.3741,-0.279522 -0.53125,-0.40625 -0.18249,-0.131794 -0.33779,-0.279516 -0.5,-0.40625 -0.22812,-0.19263 -0.42224,-0.390154 -0.625,-0.5625 l -0.125,-0.125 c -0.22304,-0.223045 -0.44334,-0.48639 -0.65625,-0.75 -0.19263,-0.212904 -0.38508,-0.418007 -0.5625,-0.65625 -0.17742,-0.21798 -0.35889,-0.439097 -0.53125,-0.6875 -0.12673,-0.192632 -0.25333,-0.369861 -0.375,-0.5625 -0.15207,-0.253462 -0.2905,-0.527787 -0.4375,-0.78125 -0.22812,-0.456229 -0.47458,-0.914544 -0.6875,-1.40625 -0.11658,-0.309229 -0.2373,-0.63925 -0.34375,-0.96875 -0.10139,-0.273742 -0.16382,-0.575074 -0.25,-0.84375 -0.0405,-0.228108 -0.11569,-0.443353 -0.15625,-0.65625 -0.0203,-0.106456 -0.0422,-0.195912 -0.0625,-0.3125 -0.0507,-0.258529 -0.0946,-0.502448 -0.125,-0.78125 l -0.0312,-0.1875 c -0.0203,-0.238258 -0.0735,-0.454323 -0.0937,-0.6875 0,-0.228117 0,-0.454309 0,-0.6875 0,-0.29908 0.011,-0.607155 0.0312,-0.90625 0.0304,-0.400464 0.0844,-0.770992 0.125,-1.15625 0.16222,-1.181129 0.44328,-2.340877 0.84375,-3.375 0.33456,-0.841494 0.71607,-1.65517 1.1875,-2.375 0.0608,-0.121663 0.13258,-0.217022 0.21875,-0.34375 0.12166,-0.182492 0.23812,-0.348758 0.375,-0.53125 0.17235,-0.223043 0.31244,-0.443346 0.5,-0.65625 0.16728,-0.207839 0.34369,-0.416324 0.53125,-0.59375 0.15714,-0.212912 0.35889,-0.416324 0.53125,-0.59375 0.21798,-0.20277 0.43321,-0.422228 0.65625,-0.625 0.2484,-0.212906 0.50751,-0.412095 0.78125,-0.625 0.12673,-0.101382 0.2432,-0.184934 0.375,-0.28125 0.16729,-0.116595 0.33779,-0.237295 0.5,-0.34375 0.28895,-0.19263 0.5759,-0.39014 0.875,-0.5625 0.3295,-0.182492 0.64515,-0.32764 1,-0.5 0.40554,-0.207838 0.86134,-0.374928 1.3125,-0.5625 0.87191,-0.344707 1.78345,-0.662096 2.8125,-0.875 0.15209,-0.0507 0.34875,-0.04223 0.53125,-0.0625 0.11153,-0.03041 0.22717,-0.05235 0.34375,-0.0625 l 0.28125,-0.0625 0.25,-0.03125 0.21875,-0.03125 c 0.24333,-0.03549 0.48133,-0.07348 0.75,-0.09375 0.16223,-0.02535 0.32765,-0.0211 0.5,-0.03125 0.3143,-0.02028 0.63418,-0.03124 0.96875,-0.03125 0.16727,0 0.29638,-0.03124 0.46875,-0.03125 z M 29,29.9375 l 9.5,0 c 5.089509,0 7.343751,2.6875 7.34375,2.6875 0,0 2.062501,1.777702 2.0625,4.875 0,3.082092 -1.380786,4.354602 -1.78125,4.75 -0.836426,0.846565 -1.937501,1.343751 -1.9375,1.34375 0,0 2.411533,0.515426 4.3125,2.40625 2.230461,2.23046 2.0625,5.15625 2.0625,5.15625 0,0 0.178998,2.769473 -2.21875,5.1875 -2.960431,2.95029 -8.343751,2.8125 -8.34375,2.8125 l -11,0 0,-29.21875 z m 49.65625,0 9.5,0 c 5.089511,-1e-6 7.343757,2.687513 7.34375,2.6875 2e-6,10e-7 2.09375,1.777702 2.09375,4.875 -3e-6,3.08209 -1.41203,4.349537 -1.8125,4.75 -0.846564,0.846564 -1.9375,1.34375 -1.9375,1.34375 -3e-6,0 2.411545,0.515435 4.3125,2.40625 2.23046,2.230459 2.09375,5.15625 2.09375,5.15625 0,-10e-7 0.14774,2.769481 -2.25,5.1875 -2.960434,2.950291 -8.3125,2.812507 -8.3125,2.8125 l -11.03125,0 0,-29.21875 z m -44.40625,4.625 0,7.5625 2.5,0 c -10e-7,-8e-6 0.162096,0.01014 0.375,0 0.182494,-8e-6 0.390147,-0.03715 0.5625,-0.0625 0.522132,-0.02534 1.227803,-0.07341 1.9375,-0.28125 0.141934,-0.03041 0.290493,-0.07938 0.4375,-0.125 0.547476,-0.202778 1.089397,-0.485508 1.5,-0.90625 0.334572,-0.319355 0.535419,-0.671332 0.6875,-1.03125 0.172351,-0.420742 0.260971,-0.862236 0.28125,-1.15625 0.02027,-0.268662 0.03125,-0.4375 0.03125,-0.4375 l 0,-0.3125 c -0.03041,-0.319359 -0.09029,-0.863008 -0.34375,-1.375 -0.131799,-0.24333 -0.318339,-0.490632 -0.53125,-0.71875 -0.288942,-0.273726 -0.629942,-0.499103 -1,-0.65625 C 39.987951,34.748199 39.189418,34.624162 38.5,34.59375 38.211058,34.573479 37.905478,34.5625 37.6875,34.5625 l -3.4375,0 z m 49.65625,0 0,7.5625 2.5,0 c -8e-6,-8e-6 0.151956,0.01014 0.375,0 0.187563,-8e-6 0.385081,-0.03715 0.5625,-0.0625 0.522134,-0.03041 1.232876,-0.07341 1.9375,-0.28125 0.147014,-0.03042 0.305698,-0.07938 0.4375,-0.125 0.557609,-0.202764 1.069111,-0.516751 1.5,-0.9375 0.319363,-0.319368 0.566677,-0.671338 0.71875,-1.03125 0.172354,-0.420755 0.219588,-0.836052 0.25,-1.125 0.01014,-0.268676 0.03125,-0.4375 0.03125,-0.4375 10e-7,10e-7 0,-0.109735 0,-0.3125 -0.01014,-0.319366 -0.08522,-0.863008 -0.34375,-1.375 -0.126719,-0.243323 -0.32425,-0.490632 -0.5625,-0.71875 -0.278806,-0.278806 -0.593625,-0.50417 -0.96875,-0.65625 -0.694487,-0.319367 -1.518361,-0.438338 -2.1875,-0.46875 -0.309225,-0.02028 -0.584383,-0.03125 -0.8125,-0.03125 l -3.4375,0 z M 34.25,46.6875 l 0,7.96875 5.1875,0 c 0,0 0.09792,0 0.25,0 0.177419,-0.01015 0.419662,-0.03715 0.71875,-0.0625 0.557615,-0.05069 1.311419,-0.162927 2.03125,-0.40625 0.638722,-0.207845 1.258281,-0.51842 1.75,-1 0.1977,-0.192619 0.352155,-0.401125 0.46875,-0.59375 0.410603,-0.643786 0.516044,-1.296331 0.53125,-1.65625 0.02028,-0.162221 0,-0.25 0,-0.25 l 0,-0.1875 C 45.16722,50.347927 45.17486,50.043183 45.09375,49.71875 44.99744,49.348698 44.814294,48.91061 44.5,48.5 44.43917,48.418891 44.388536,48.342081 44.3125,48.28125 44.155361,48.124094 44.016103,48.006801 43.84375,47.875 43.549733,47.667154 43.214639,47.475551 42.875,47.34375 42.398494,47.125766 41.880257,46.971316 41.3125,46.875 41.023552,46.819244 40.689293,46.765213 40.375,46.75 c -0.192634,-0.03041 -0.390979,-0.05236 -0.59375,-0.0625 -0.172353,-0.01015 -0.348758,0 -0.53125,0 l -5,0 z m 49.65625,0 0,7.96875 5.15625,0 c 0,0 0.134243,0 0.28125,0 0.182492,-0.01015 0.414596,-0.03715 0.71875,-0.0625 0.557608,-0.05069 1.31142,-0.162927 2.03125,-0.40625 0.653934,-0.212911 1.258287,-0.51842 1.75,-1 0.187563,-0.192633 0.336949,-0.401118 0.46875,-0.59375 0.395394,-0.6438 0.510971,-1.296338 0.53125,-1.65625 0.01014,-0.162214 0,-0.25 0,-0.25 3e-6,7e-6 0,-0.07091 0,-0.1875 3e-6,-0.152087 0.01354,-0.488074 -0.0625,-0.8125 C 94.669731,49.317448 94.47561,48.91061 94.15625,48.5 94.080204,48.418905 94.00847,48.342081 93.9375,48.28125 93.795557,48.124101 93.662213,48.001734 93.5,47.875 93.211051,47.667161 92.881029,47.475545 92.53125,47.34375 92.069949,47.130839 91.530602,46.966243 90.9375,46.875 c -0.268658,-0.05576 -0.565779,-0.104721 -0.875,-0.125 -0.202773,-0.03041 -0.412096,-0.05236 -0.625,-0.0625 -0.182493,-0.01015 -0.348757,0 -0.53125,0 l -5,0 z m 202.34375,5.90625 31.34375,0 0,142.6875 -37.40625,0 0,-101.71875 -16.03125,0 L 286.25,52.59375 z M 144.90625,74.4375 c -10.86336,-0.0051 -18,7.900672 -18,17.1875 -1e-5,9.09419 6.95671,17.21875 17.90625,17.21875 11.36014,0 18.125,-8.17017 18.125,-17.21875 1e-5,-9.33753 -6.96005,-17.1875 -18.03125,-17.1875 z m -87.1875,0.25 -14.28125,33.46875 c -2.141653,-2.94711 -3.013067,-4.16441 -4.40625,-6.40625 -2.559959,-4.166917 -4.44832,-7.268767 -7.5,-9.28125 3.59915,-1.434585 5.625,-4.335725 5.625,-8.21875 10e-7,-5.799202 -4.207229,-9.375 -11,-9.375 l -8.4375,0 0,33.5 4.78125,0 0,-14.53125 2.03125,0 c 2.468718,-10e-7 4.47574,0.772239 8.90625,7.65625 l 4.40625,6.875 5.75,0 4.625,0 4.25,-9.84375 14.25,0 4.46875,9.84375 4.9375,0 -15,-33.6875 -3.40625,0 z m 22.375,0.1875 0,33.5 13.09375,0 c 11.06613,1e-5 17.78125,-8.15258 17.78125,-16.75 0,-7.913076 -5.41824,-16.75 -17.8125,-16.75 l -13.0625,0 z m 36.4375,0 0,33.5 4.8125,0 0,-33.5 -4.8125,0 z m 28.375,3.96875 C 152.42899,78.843758 158,84.2442 158,91.625 c -1e-5,7.325025 -5.56594,12.8125 -13.09375,12.8125 -7.46697,-0.005 -13.03125,-5.492531 -13.03125,-12.8125 1e-5,-7.380811 5.56935,-12.78125 13.03125,-12.78125 z M 22.5,79 l 3.125,0 c 4.658628,-6e-6 6.553198,1.909438 6.59375,5.0625 C 32.274515,86.860714 30.77534,89.5 25.625,89.5 l -3.125,0 0,-10.5 z m 62.4375,0.1875 7.40625,0 c 9.39835,1.3e-5 13.6875,5.700493 13.6875,12.4375 1e-5,4.126345 -2.52851,12.46875 -13.4375,12.46875 l -7.65625,0 0,-24.90625 z m -25.5625,2.875 5.375,12.125 -10.40625,0 5.03125,-12.125 z"
         inkscape:connector-curvature="0"
         id="path238"
         style="fill:#000000;fill-opacity:1;fill-rule:evenodd" />
    </g>
  </g>
</svg>
