<?xml version="1.0" encoding="UTF-8" standalone="no"?>
<!-- Created with Inkscape (http://www.inkscape.org/) -->

<svg
   xmlns:dc="http://purl.org/dc/elements/1.1/"
   xmlns:cc="http://creativecommons.org/ns#"
   xmlns:rdf="http://www.w3.org/1999/02/22-rdf-syntax-ns#"
   xmlns:svg="http://www.w3.org/2000/svg"
   xmlns="http://www.w3.org/2000/svg"
   xmlns:inkscape="http://www.inkscape.org/namespaces/inkscape"
   version="1.0"
   width="200"
   height="110"
   id="svg2">
  <metadata
     id="metadata35">
    <rdf:RDF>
      <cc:Work
         rdf:about="">
        <dc:format>image/svg+xml</dc:format>
        <dc:type
           rdf:resource="http://purl.org/dc/dcmitype/StillImage" />
      </cc:Work>
    </rdf:RDF>
  </metadata>
  <defs
     id="defs33" />
  <g
     transform="translate(-226.64509,-428.96261)"
     id="layer1">
    <g
       transform="matrix(1,0,0,-1,207.74489,417.97292)"
       id="g2822" />
    <g
       transform="matrix(3.3064623,0,0,-3.3064623,-266.95352,1597.5774)"
       id="g3370">
      <g
         transform="translate(193.14661,353.433)"
         id="g3372">
        <path
           d="m 0,0 c -9.181,0 -16.625,-7.447 -16.625,-16.633 0,-9.187 7.444,-16.634 16.625,-16.634 9.182,0 16.624,7.447 16.624,16.634 C 16.624,-7.447 9.182,0 0,0"
           inkscape:connector-curvature="0"
           id="path3374"
           style="fill:#ffffff;fill-rule:nonzero;stroke:none" />
      </g>
      <path
         d="m 164.822,352.407 6.743,0 0,-6.345 -6.743,0 0,6.345 z m 4.249,-0.883 c -0.029,0.006 -0.061,0.01 -0.091,0.016 l -0.036,0.004 c -0.052,0.008 -0.103,0.014 -0.157,0.018 -0.036,0.005 -0.072,0.006 -0.107,0.008 -0.065,0.005 -0.127,0.007 -0.187,0.007 -0.028,0 -0.045,-10e-4 -0.072,-10e-4 -0.052,-0.001 -0.101,-0.005 -0.149,-0.008 -0.028,-10e-4 -0.056,-0.003 -0.082,-0.006 -0.041,-0.003 -0.08,-0.007 -0.12,-0.013 l -0.032,-0.003 -0.038,-0.006 -0.044,-0.008 c -0.019,-0.002 -0.038,-0.006 -0.057,-0.01 -0.028,-0.003 -0.054,-0.01 -0.079,-0.015 -0.16,-0.035 -0.309,-0.079 -0.444,-0.131 -0.071,-0.029 -0.139,-0.058 -0.202,-0.09 -0.055,-0.026 -0.105,-0.054 -0.156,-0.082 -0.047,-0.028 -0.093,-0.056 -0.138,-0.085 -0.025,-0.019 -0.05,-0.033 -0.076,-0.053 -0.021,-0.015 -0.041,-0.029 -0.061,-0.044 -0.043,-0.033 -0.085,-0.068 -0.124,-0.102 -0.035,-0.032 -0.07,-0.064 -0.103,-0.096 -0.028,-0.027 -0.058,-0.056 -0.083,-0.088 -0.028,-0.03 -0.055,-0.061 -0.081,-0.093 -0.029,-0.034 -0.053,-0.069 -0.08,-0.105 -0.022,-0.028 -0.039,-0.055 -0.058,-0.084 -0.013,-0.019 -0.024,-0.038 -0.035,-0.058 -0.072,-0.113 -0.133,-0.237 -0.185,-0.367 -0.062,-0.165 -0.108,-0.342 -0.133,-0.528 -0.006,-0.059 -0.012,-0.119 -0.017,-0.181 -0.003,-0.047 -0.004,-0.095 -0.004,-0.142 0,-0.037 0,-0.072 0.001,-0.108 0.003,-0.036 0.008,-0.072 0.012,-0.108 l 0.002,-0.026 c 0.005,-0.044 0.012,-0.086 0.02,-0.127 0.004,-0.017 0.007,-0.032 0.01,-0.049 0.007,-0.034 0.016,-0.069 0.023,-0.103 0.012,-0.043 0.025,-0.086 0.04,-0.128 0.017,-0.052 0.036,-0.102 0.056,-0.151 0.033,-0.077 0.069,-0.151 0.106,-0.222 0.023,-0.041 0.046,-0.081 0.07,-0.121 0.019,-0.03 0.039,-0.059 0.058,-0.088 0.026,-0.039 0.054,-0.075 0.081,-0.11 0.028,-0.037 0.059,-0.07 0.089,-0.104 0.034,-0.041 0.07,-0.08 0.105,-0.114 l 0.018,-0.018 c 0.031,-0.028 0.061,-0.06 0.097,-0.091 0.025,-0.019 0.051,-0.042 0.078,-0.063 0.026,-0.02 0.053,-0.042 0.081,-0.062 0.036,-0.026 0.069,-0.049 0.107,-0.074 0.043,-0.023 0.085,-0.051 0.129,-0.076 0.089,-0.05 0.187,-0.099 0.296,-0.142 0.04,-0.017 0.082,-0.031 0.126,-0.045 0.042,-0.016 0.086,-0.029 0.131,-0.043 0.079,-0.02 0.161,-0.041 0.245,-0.058 0.069,-0.014 0.143,-0.025 0.217,-0.032 0.072,-0.01 0.149,-0.017 0.226,-0.021 0.041,-0.003 0.08,-0.003 0.118,-0.006 l 0.056,0 c 0.142,0 0.273,0.006 0.394,0.017 l 0.024,0.001 c 0.049,0.005 0.094,0.01 0.14,0.016 0.071,0.008 0.135,0.018 0.198,0.03 0.04,0.006 0.078,0.015 0.116,0.022 0.059,0.013 0.114,0.027 0.166,0.04 0.039,0.01 0.077,0.021 0.114,0.033 0.043,0.012 0.084,0.026 0.123,0.041 l 0.039,0.012 c 0.02,0.007 0.046,0.017 0.075,0.028 0.042,0.016 0.09,0.035 0.146,0.06 0.034,0.014 0.07,0.03 0.108,0.047 0.03,0.015 0.067,0.033 0.103,0.048 0.012,0.008 0.028,0.016 0.044,0.022 l 0,0.867 c -0.011,-0.007 -0.022,-0.015 -0.032,-0.02 l -0.059,-0.035 c -0.06,-0.037 -0.117,-0.07 -0.174,-0.103 -0.062,-0.032 -0.125,-0.064 -0.186,-0.094 -0.106,-0.051 -0.209,-0.092 -0.308,-0.128 -0.189,-0.067 -0.362,-0.109 -0.515,-0.137 -0.018,-0.003 -0.036,-0.007 -0.053,-0.009 -0.043,-0.006 -0.083,-0.012 -0.122,-0.016 -0.06,-0.006 -0.117,-0.01 -0.165,-0.012 -0.034,-10e-4 -0.063,-0.003 -0.093,-0.003 -0.061,0 -0.125,0.002 -0.19,0.007 -0.075,0.005 -0.15,0.014 -0.229,0.026 -0.125,0.022 -0.251,0.054 -0.372,0.098 -0.02,0.006 -0.037,0.014 -0.055,0.022 -0.012,0.003 -0.024,0.008 -0.037,0.014 -0.019,0.008 -0.038,0.017 -0.059,0.025 -0.043,0.021 -0.085,0.042 -0.126,0.066 -0.019,0.012 -0.039,0.024 -0.061,0.036 -0.019,0.013 -0.04,0.027 -0.061,0.042 -0.023,0.016 -0.05,0.034 -0.072,0.053 -0.025,0.02 -0.049,0.039 -0.07,0.056 l -0.028,0.026 -0.015,0.013 -0.008,0.008 -0.011,0.01 c -0.039,0.038 -0.074,0.078 -0.108,0.117 -0.016,0.021 -0.034,0.045 -0.051,0.066 -0.015,0.021 -0.029,0.042 -0.043,0.065 -0.014,0.019 -0.027,0.04 -0.038,0.061 -0.018,0.03 -0.035,0.06 -0.051,0.091 -0.011,0.025 -0.023,0.052 -0.033,0.077 -0.02,0.043 -0.035,0.087 -0.048,0.13 -0.011,0.03 -0.02,0.065 -0.029,0.096 -0.021,0.089 -0.032,0.172 -0.04,0.243 -0.004,0.027 -0.004,0.052 -0.006,0.076 -0.001,0.033 -0.001,0.063 -0.001,0.087 l 0,0.054 c 0.001,0.05 0.007,0.113 0.016,0.184 0.006,0.044 0.016,0.09 0.027,0.139 0.008,0.033 0.016,0.064 0.027,0.099 0.01,0.031 0.021,0.061 0.034,0.095 0.007,0.021 0.015,0.041 0.026,0.063 0.012,0.029 0.027,0.058 0.042,0.087 0.011,0.024 0.024,0.047 0.037,0.068 0.028,0.049 0.061,0.098 0.097,0.147 0.013,0.018 0.027,0.035 0.04,0.052 0.019,0.022 0.039,0.045 0.058,0.067 0.012,0.01 0.022,0.022 0.033,0.033 0.159,0.158 0.337,0.277 0.52,0.36 0.03,0.013 0.059,0.026 0.088,0.037 0.03,0.011 0.058,0.022 0.088,0.033 0.031,0.011 0.063,0.02 0.096,0.029 0.03,0.009 0.062,0.016 0.092,0.024 0.03,0.007 0.062,0.012 0.091,0.018 0.033,0.006 0.066,0.011 0.1,0.016 0.033,0.004 0.066,0.007 0.1,0.009 0.063,0.006 0.124,0.009 0.184,0.009 0.022,0 0.042,0 0.062,-10e-4 0.045,-0.001 0.087,-0.002 0.13,-0.004 0.031,-0.004 0.06,-0.004 0.089,-0.007 0.052,-0.006 0.106,-0.011 0.156,-0.019 0.044,-0.007 0.088,-0.014 0.127,-0.021 0.062,-0.014 0.119,-0.028 0.171,-0.042 0.032,-0.007 0.062,-0.017 0.09,-0.025 0.041,-0.014 0.078,-0.024 0.106,-0.033 0.047,-0.017 0.075,-0.026 0.075,-0.026 0.042,-0.016 0.085,-0.034 0.125,-0.049 0.056,-0.023 0.107,-0.045 0.158,-0.069 0.042,-0.019 0.081,-0.039 0.119,-0.055 0.031,-0.016 0.06,-0.032 0.087,-0.045 0.047,-0.025 0.087,-0.047 0.12,-0.065 l 0.089,-0.049 0,0.851 c 0,0 -0.054,0.021 -0.145,0.056 -0.041,0.016 -0.089,0.033 -0.145,0.052 -0.029,0.011 -0.061,0.022 -0.095,0.035 -0.026,0.007 -0.054,0.018 -0.083,0.026 -0.032,0.011 -0.065,0.023 -0.099,0.034 -0.026,0.006 -0.051,0.015 -0.079,0.023 l -0.022,0.006 c -0.025,0.007 -0.051,0.013 -0.075,0.021 -0.033,0.007 -0.064,0.017 -0.095,0.025 -0.02,0.004 -0.042,0.008 -0.062,0.013 -0.034,0.009 -0.067,0.016 -0.103,0.023 -0.034,0.007 -0.069,0.015 -0.105,0.02"
         inkscape:connector-curvature="0"
         id="path3376"
         style="fill:#000000;fill-rule:evenodd;stroke:none" />
      <g
         transform="translate(159.6412,348.89841)"
         id="g3378">
        <path
           d="m 0,0 0,-1.247 0.809,0 c 0,0 0.017,0.002 0.041,0.002 0.028,0.001 0.067,0.003 0.115,0.007 0.086,0.008 0.203,0.024 0.316,0.063 0.101,0.033 0.199,0.084 0.275,0.16 0.029,0.03 0.054,0.06 0.074,0.091 0.062,0.101 0.078,0.201 0.081,0.258 0.003,0.027 0.003,0.04 0.003,0.04 l 0,0.031 c 0,0.024 -0.004,0.07 -0.016,0.121 C 1.682,-0.415 1.654,-0.347 1.603,-0.283 1.592,-0.272 1.582,-0.26 1.571,-0.25 1.549,-0.227 1.524,-0.205 1.498,-0.185 1.453,-0.154 1.403,-0.125 1.348,-0.102 1.275,-0.069 1.194,-0.046 1.102,-0.029 1.06,-0.021 1.009,-0.013 0.96,-0.01 0.929,-0.005 0.9,-0.004 0.867,-0.001 0.839,0 0.81,0 0.781,0 L 0,0 z"
           inkscape:connector-curvature="0"
           id="path3380"
           style="fill:#000000;fill-rule:evenodd;stroke:none" />
      </g>
      <g
         transform="translate(159.6412,350.7959)"
         id="g3382">
        <path
           d="m 0,0 0,-1.182 0.391,0 c 0,0 0.026,0 0.06,0 0.029,10e-4 0.059,0.002 0.089,0.005 0.08,0.006 0.193,0.017 0.303,0.047 0.024,0.007 0.046,0.014 0.065,0.022 0.088,0.031 0.171,0.075 0.239,0.14 0.051,0.051 0.085,0.108 0.107,0.164 0.028,0.067 0.038,0.131 0.042,0.177 0.003,0.042 0.003,0.067 0.003,0.067 0,0 0,0.02 -10e-4,0.051 C 1.296,-0.458 1.286,-0.374 1.244,-0.294 1.225,-0.255 1.198,-0.218 1.161,-0.182 1.117,-0.139 1.065,-0.105 1.007,-0.079 0.896,-0.03 0.769,-0.011 0.664,-0.005 0.616,-0.002 0.575,0 0.539,0 L 0,0 z"
           inkscape:connector-curvature="0"
           id="path3384"
           style="fill:#000000;fill-rule:evenodd;stroke:none" />
      </g>
      <path
         d="m 157.053,352.407 6.743,0 0,-6.345 -6.743,0 0,6.345 z m 1.769,-0.888 0,-4.572 1.72,0 c 0,0 0.841,-0.022 1.303,0.441 0.377,0.377 0.35,0.813 0.35,0.813 0,0 0.027,0.455 -0.322,0.805 -0.299,0.297 -0.678,0.377 -0.678,0.377 0,0 0.172,0.079 0.304,0.212 0.061,0.061 0.281,0.259 0.281,0.741 0,0.485 -0.322,0.764 -0.322,0.764 0,0 -0.355,0.419 -1.152,0.419 l -1.484,0 z"
         inkscape:connector-curvature="0"
         id="path3386"
         style="fill:#000000;fill-rule:evenodd;stroke:none" />
      <g
         transform="translate(151.8707,348.89841)"
         id="g3388">
        <path
           d="m 0,0 0,-1.247 0.811,0 c 0,0 0.015,0.002 0.041,0.002 0.027,0.001 0.067,0.003 0.114,0.007 0.088,0.008 0.203,0.024 0.316,0.063 0.101,0.033 0.199,0.084 0.276,0.16 0.029,0.03 0.052,0.06 0.073,0.091 0.063,0.101 0.078,0.201 0.081,0.258 0.004,0.027 0.004,0.04 0.004,0.04 l 0,0.031 C 1.712,-0.571 1.71,-0.525 1.698,-0.474 1.683,-0.415 1.654,-0.347 1.603,-0.283 1.595,-0.272 1.584,-0.26 1.573,-0.25 1.549,-0.227 1.527,-0.205 1.501,-0.185 1.455,-0.154 1.404,-0.125 1.35,-0.102 1.276,-0.069 1.195,-0.046 1.105,-0.029 1.061,-0.021 1.011,-0.013 0.963,-0.01 0.932,-0.005 0.901,-0.004 0.869,-0.001 0.842,0 0.812,0 0.783,0 L 0,0 z"
           inkscape:connector-curvature="0"
           id="path3390"
           style="fill:#000000;fill-rule:evenodd;stroke:none" />
      </g>
      <g
         transform="translate(151.8707,350.7959)"
         id="g3392">
        <path
           d="m 0,0 0,-1.182 0.393,0 c 0,0 0.026,0 0.06,0 0.027,10e-4 0.06,0.002 0.088,0.005 0.081,0.006 0.194,0.017 0.304,0.047 0.023,0.007 0.043,0.014 0.066,0.022 0.086,0.031 0.171,0.075 0.236,0.14 0.051,0.051 0.084,0.108 0.109,0.164 0.027,0.067 0.037,0.131 0.041,0.177 0.004,0.042 0.004,0.067 0.004,0.067 l 0,0.051 C 1.296,-0.458 1.286,-0.374 1.246,-0.294 1.226,-0.255 1.198,-0.218 1.164,-0.182 1.118,-0.139 1.065,-0.105 1.007,-0.079 0.896,-0.03 0.771,-0.011 0.663,-0.005 0.618,-0.002 0.576,0 0.541,0 L 0,0 z"
           inkscape:connector-curvature="0"
           id="path3394"
           style="fill:#000000;fill-rule:evenodd;stroke:none" />
      </g>
      <path
         d="m 149.283,352.407 6.743,0 0,-6.345 -6.743,0 0,6.345 z m 1.769,-0.888 0,-4.572 1.721,0 c 0,0 0.839,-0.022 1.302,0.441 0.376,0.377 0.351,0.813 0.351,0.813 0,0 0.025,0.455 -0.323,0.805 -0.299,0.297 -0.678,0.377 -0.678,0.377 0,0 0.172,0.079 0.304,0.212 0.061,0.061 0.282,0.259 0.282,0.741 0,0.485 -0.324,0.764 -0.324,0.764 0,0 -0.352,0.419 -1.15,0.419 l -1.485,0 z"
         inkscape:connector-curvature="0"
         id="path3396"
         style="fill:#000000;fill-rule:evenodd;stroke:none" />
      <g
         transform="translate(150.0359,343.8429)"
         id="g3398">
        <path
           d="M 0,0 0.486,0 C 1.215,0 1.508,-0.299 1.516,-0.792 1.523,-1.231 1.292,-1.646 0.486,-1.646 L 0,-1.646 0,0 z m -0.753,0.648 0,-5.246 0.753,0 0,2.276 0.315,0 c 0.387,0 0.7,-0.124 1.394,-1.201 l 0.692,-1.075 0.898,0 c -0.361,0.497 -0.491,0.675 -0.715,1.037 -0.4,0.653 -0.692,1.138 -1.169,1.452 0.562,0.225 0.877,0.678 0.877,1.287 0,0.907 -0.661,1.47 -1.722,1.47 l -1.323,0 z"
           inkscape:connector-curvature="0"
           id="path3400"
           style="fill:#000000;fill-rule:evenodd;stroke:none" />
      </g>
      <g
         transform="translate(155.8008,343.3654)"
         id="g3402">
        <path
           d="m 0,0 0.846,-1.898 -1.632,0 L 0,0 z m 0.276,1.154 -0.531,0 -2.253,-5.275 0.768,0 0.663,1.544 2.23,0 0.7,-1.544 0.769,0 -2.346,5.275 z"
           inkscape:connector-curvature="0"
           id="path3404"
           style="fill:#000000;fill-rule:evenodd;stroke:none" />
      </g>
      <g
         transform="translate(159.80321,343.8125)"
         id="g3406">
        <path
           d="m 0,0 1.159,0 c 1.471,0 2.14,-0.892 2.14,-1.946 0,-0.647 -0.393,-1.947 -2.099,-1.947 L 0,-3.893 0,0 z m -0.755,-4.568 2.046,0 c 1.731,0 2.784,1.276 2.784,2.622 0,1.238 -0.854,2.624 -2.791,2.624 l -2.039,0 0,-5.246 z"
           inkscape:connector-curvature="0"
           id="path3408"
           style="fill:#000000;fill-rule:evenodd;stroke:none" />
      </g>
      <path
         d="m 164.747,344.49 0.753,0 0,-5.246 -0.753,0 0,5.246 z"
         inkscape:connector-curvature="0"
         id="path3410"
         style="fill:#000000;fill-rule:evenodd;stroke:none" />
      <g
         transform="translate(167.1463,341.8662)"
         id="g3412">
        <path
           d="M 0,0 C 0,1.155 0.87,1.999 2.038,1.999 3.216,1.999 4.086,1.155 4.086,0 4.086,-1.146 3.216,-2 2.038,-2 0.87,-2 0,-1.146 0,0 m -0.777,0 c 0,-1.423 1.086,-2.692 2.8,-2.692 1.777,0 2.838,1.277 2.838,2.692 0,1.461 -1.091,2.691 -2.823,2.691 -1.7,0 -2.815,-1.238 -2.815,-2.691"
           inkscape:connector-curvature="0"
           id="path3414"
           style="fill:#000000;fill-rule:evenodd;stroke:none" />
      </g>
      <g
         transform="translate(202.0695,326.4099)"
         id="g3416">
        <path
           d="m 0,0 -18.357,0 9.475,11.126 c 1.35,1.524 2.081,2.56 2.081,3.669 0,0.996 -0.682,2.072 -1.786,2.072 -1.322,0 -1.989,-1.306 -2.039,-2.234 l -0.048,-0.875 -6.081,0 0.052,0.975 c 0.09,1.713 0.377,2.655 1.182,3.877 1.63,2.48 3.913,3.685 6.981,3.685 5.167,0 8.377,-2.726 8.377,-7.114 0,-1.851 -0.636,-3.346 -2.105,-4.973 L -6.037,5.902 0,5.902 0,0 z m -8.923,27.023 c -9.181,0 -16.624,-7.447 -16.624,-16.633 0,-9.187 7.443,-16.634 16.624,-16.634 9.183,0 16.624,7.447 16.624,16.634 0,9.186 -7.441,16.633 -16.624,16.633"
           inkscape:connector-curvature="0"
           id="path3418"
           style="fill:#ed781a;fill-rule:nonzero;stroke:none" />
      </g>
    </g>
    <g
       transform="matrix(1,0,0,-1,119.88179,344.28221)"
       id="g3612" />
  </g>
</svg>
