<?xml version="1.0" encoding="UTF-8" standalone="no"?>
<!-- Created with Inkscape (http://www.inkscape.org/) -->

<svg
   xmlns:dc="http://purl.org/dc/elements/1.1/"
   xmlns:cc="http://creativecommons.org/ns#"
   xmlns:rdf="http://www.w3.org/1999/02/22-rdf-syntax-ns#"
   xmlns:svg="http://www.w3.org/2000/svg"
   xmlns="http://www.w3.org/2000/svg"
   xmlns:inkscape="http://www.inkscape.org/namespaces/inkscape"
   version="1.0"
   width="581.98816"
   height="248.03149"
   id="svg3581">
  <metadata
     id="metadata11">
    <rdf:RDF>
      <cc:Work
         rdf:about="">
        <dc:format>image/svg+xml</dc:format>
        <dc:type
           rdf:resource="http://purl.org/dc/dcmitype/StillImage" />
      </cc:Work>
    </rdf:RDF>
  </metadata>
  <defs
     id="defs3583" />
  <g
     id="layer1">
    <g
       transform="translate(-8.0983306,-18.607014)"
       id="g3594">
      <g
         transform="matrix(0.948042,0,0,0.948042,-42.217523,-176.5415)"
         id="g3517">
        <path
           d="m 351.90625,272.09375 -25.28125,38.4375 17.5625,0 0,95.3125 72.21875,0 c 0,0 15.44359,-23.61442 23,-35.15625 5.44106,8.33606 14.98459,22.95742 19.875,30.4375 8.82096,-12.52039 15.1191,-26.91087 18.21875,-42.46875 C 470.68505,348.2321 463.37502,337.00002 463.375,337 c 0,0 14.22274,-21.59629 14.25,-21.65625 -3.01126,-15.58516 -9.22477,-30.0551 -17.96875,-42.625 -2.27347,3.4838 -13.86574,21.12837 -20.25,30.84375 -7.12571,-10.81124 -20.68751,-31.46874 -20.6875,-31.46875 l -66.8125,0 z"
           inkscape:connector-curvature="0"
           id="path3503"
           style="fill:#ffffff;fill-opacity:1;fill-rule:nonzero;stroke:none;marker:none;visibility:visible;display:inline;overflow:visible" />
        <path
           d="m 367.59375,224.53125 c -61.89068,1e-5 -112.0625,50.19617 -112.0625,112.125 1e-5,61.93431 50.17182,112.125 112.0625,112.125 37.90204,0 71.41166,-18.84263 91.6875,-47.65625 -4.89041,-7.48008 -14.43394,-22.10144 -19.875,-30.4375 -7.55641,11.54183 -23,35.15625 -23,35.15625 l -72.21875,0 0,-95.3125 -17.5625,0 25.28125,-38.4375 66.8125,0 c -10e-6,10e-6 13.56179,20.65751 20.6875,31.46875 6.38426,-9.71538 17.97653,-27.35995 20.25,-30.84375 -20.22679,-29.10803 -53.92058,-48.1875 -92.0625,-48.1875 z M 71.75,231.4375 l 0,42.8125 45.46875,0 0,-42.8125 -45.46875,0 z m 52.4375,0 0,42.8125 45.46875,0 0,-42.8125 -45.46875,0 z m 52.40625,0 0,42.8125 45.5,0 0,-42.8125 -45.5,0 z m 24.28125,5.59375 c 0.16902,1e-5 0.29827,1e-5 0.5,0 0.398,1e-5 0.80839,-0.001 1.25,0.0313 0.23443,0.0164 0.46251,0.0298 0.71875,0.0625 0.35438,0.0218 0.71901,0.0814 1.0625,0.125 l 0.21875,0.0313 c 0.21263,0.0382 0.42873,0.061 0.625,0.0937 0.24534,0.0436 0.4992,0.0977 0.75,0.125 0.2399,0.0436 0.45851,0.10174 0.6875,0.15625 0.13086,0.0327 0.26996,0.0719 0.40625,0.0937 0.20719,0.0436 0.40694,0.13843 0.625,0.1875 0.16356,0.0545 0.33644,0.0759 0.5,0.125 l 0.15625,0.0313 c 0.18537,0.0545 0.35132,0.13842 0.53125,0.1875 0.22898,0.0654 0.46399,0.15333 0.6875,0.21875 0.20173,0.0545 0.37713,0.10173 0.5625,0.15625 0.22898,0.0763 0.44362,0.16821 0.65625,0.25 0.36528,0.12539 0.69071,0.24016 0.96875,0.34375 0.61061,0.23989 0.96875,0.375 0.96875,0.375 l 0,5.75 -0.625,-0.34375 c -0.20173,-0.1254 -0.45958,-0.27395 -0.78125,-0.4375 -0.17991,-0.0872 -0.39202,-0.17767 -0.59375,-0.28125 -0.2617,-0.11995 -0.52355,-0.26995 -0.8125,-0.40625 -0.33258,-0.15266 -0.67142,-0.27939 -1.03125,-0.4375 -0.2835,-0.10359 -0.5915,-0.23471 -0.875,-0.34375 0,0 -0.17288,-0.073 -0.5,-0.1875 -0.20171,-0.0654 -0.4407,-0.12061 -0.71875,-0.21875 -0.17991,-0.0545 -0.38657,-0.11263 -0.59375,-0.15625 -0.35982,-0.0872 -0.7419,-0.18857 -1.15625,-0.28125 -0.26715,-0.0436 -0.56968,-0.10719 -0.875,-0.15625 -0.33257,-0.0491 -0.67141,-0.0814 -1.03125,-0.125 -0.19627,-0.0218 -0.39203,-0.009 -0.59375,-0.0313 -0.29986,-0.0109 -0.56425,-0.0313 -0.875,-0.0313 -0.14174,-0.0163 -0.28485,0 -0.4375,0 -0.40889,10e-6 -0.80838,0.0298 -1.25,0.0625 -0.21806,0.0273 -0.42726,0.0407 -0.65625,0.0625 -0.22898,0.0327 -0.46396,0.061 -0.6875,0.0937 -0.19082,0.0382 -0.41238,0.0814 -0.625,0.125 -0.19081,0.0491 -0.39747,0.12209 -0.59375,0.1875 -0.22353,0.0545 -0.45454,0.12208 -0.65625,0.1875 -0.21263,0.0763 -0.38658,0.13697 -0.59375,0.21875 -0.20172,0.0818 -0.39748,0.13696 -0.59375,0.21875 -1.23214,0.56701 -2.42597,1.37983 -3.5,2.4375 -0.0654,0.0872 -0.13697,0.14786 -0.21875,0.21875 -0.1363,0.15811 -0.28632,0.3379 -0.40625,0.46875 -0.0981,0.11994 -0.16278,0.21835 -0.25,0.34375 -0.24534,0.33256 -0.47633,0.66199 -0.65625,1 -0.0981,0.13631 -0.17366,0.3161 -0.25,0.46875 -0.10903,0.19629 -0.19402,0.36624 -0.28125,0.5625 -0.06,0.15265 -0.14933,0.29575 -0.1875,0.4375 -0.0927,0.22899 -0.14787,0.44363 -0.21875,0.65625 -0.0818,0.22353 -0.14388,0.43271 -0.1875,0.65625 -0.0818,0.33801 -0.14388,0.63765 -0.1875,0.9375 -0.0545,0.47432 -0.0938,0.91744 -0.0937,1.25 l 0,0.375 c 1e-5,0.1581 -10e-6,0.3335 0,0.5625 0.0218,0.15264 0.009,0.34042 0.0313,0.53125 0.0436,0.48521 0.13949,1.02528 0.28125,1.625 0.0709,0.20718 0.12209,0.44362 0.1875,0.65625 0.0927,0.28895 0.18711,0.58604 0.3125,0.875 0.0709,0.16901 0.15334,0.32552 0.21875,0.5 0.11995,0.21263 0.22381,0.42327 0.34375,0.625 0.0763,0.14174 0.15186,0.26449 0.25,0.40625 0.0872,0.15265 0.21982,0.31608 0.3125,0.46875 0.11995,0.14174 0.24015,0.29576 0.34375,0.4375 0.22898,0.26713 0.45706,0.51956 0.71875,0.78125 l 0.0937,0.0625 0.0313,0.0625 0.0937,0.0937 0.21875,0.1875 c 0.1363,0.0981 0.26849,0.21836 0.4375,0.34375 0.15811,0.13086 0.33644,0.26595 0.5,0.375 0.14175,0.11451 0.29576,0.18859 0.4375,0.28125 0.1363,0.0763 0.27541,0.16278 0.40625,0.25 0.27261,0.16356 0.5548,0.3121 0.84375,0.4375 0.13631,0.0709 0.2496,0.11662 0.375,0.1875 0.0872,0.0382 0.17913,0.0665 0.25,0.0937 0.11996,0.0382 0.23871,0.0923 0.375,0.125 0.82325,0.31076 1.65495,0.51995 2.5,0.65625 0.52884,0.0872 1.05548,0.14933 1.5625,0.1875 0.44162,0.0327 0.86691,0.0625 1.28125,0.0625 0.19628,-10e-6 0.39056,-0.0203 0.625,-0.0313 0.33257,-0.0109 0.727,-0.0447 1.125,-0.0937 0.27805,-0.0218 0.52353,-0.0556 0.8125,-0.0937 0.11994,-0.0218 0.24416,-0.0516 0.375,-0.0625 1.02497,-0.19627 2.18754,-0.47407 3.46875,-0.9375 0.65424,-0.22899 1.3483,-0.5112 2.0625,-0.84375 0.39799,-0.20717 0.83019,-0.43271 1.25,-0.65625 0.38162,-0.20717 0.77861,-0.44216 1.1875,-0.6875 l 0.375,-0.21875 c 0.0763,-0.0327 0.14788,-0.0908 0.21875,-0.15625 l 0,5.875 c -0.0981,0.0382 -0.18855,0.0814 -0.28125,0.125 -0.23989,0.10905 -0.50612,0.2347 -0.71875,0.34375 -0.25625,0.1145 -0.48976,0.21981 -0.71875,0.3125 -0.37074,0.17992 -0.69615,0.2972 -0.96875,0.40625 -0.19627,0.0763 -0.35825,0.1439 -0.5,0.1875 l -0.28125,0.0937 c -0.27804,0.0872 -0.53844,0.17366 -0.84375,0.25 -0.24534,0.0818 -0.48286,0.14788 -0.75,0.21875 -0.35438,0.0818 -0.7379,0.19948 -1.125,0.28125 -0.26169,0.0436 -0.5141,0.1181 -0.78125,0.15625 -0.42525,0.0818 -0.86397,0.13842 -1.34375,0.1875 -0.29986,0.0491 -0.61585,0.0923 -0.9375,0.125 l -0.15625,0 c -0.83416,0.0709 -1.72795,0.12501 -2.6875,0.125 l -0.34375,0 c -0.26714,-0.0109 -0.55081,-0.0407 -0.8125,-0.0625 -0.51794,-0.0163 -1.03511,-0.0596 -1.53125,-0.125 -0.49612,-0.06 -1.00532,-0.12607 -1.46875,-0.21875 -0.57246,-0.11449 -1.09616,-0.2387 -1.625,-0.375 -0.31075,-0.0872 -0.62275,-0.20893 -0.90625,-0.3125 -0.28894,-0.0927 -0.5766,-0.17767 -0.84375,-0.28125 -0.74147,-0.29985 -1.40028,-0.63617 -2,-0.96875 -0.29441,-0.17446 -0.57115,-0.37314 -0.84375,-0.53125 -0.26714,-0.16355 -0.51012,-0.32552 -0.75,-0.5 -0.19081,-0.13631 -0.36224,-0.27541 -0.53125,-0.40625 -0.18536,-0.14176 -0.35678,-0.2754 -0.53125,-0.40625 -0.23988,-0.20719 -0.44908,-0.43964 -0.65625,-0.625 L 188,263.75 c -0.23989,-0.24534 -0.48977,-0.50866 -0.71875,-0.78125 -0.19627,-0.22899 -0.41385,-0.43672 -0.59375,-0.6875 -0.19081,-0.23443 -0.35679,-0.48286 -0.53125,-0.75 -0.11994,-0.19626 -0.26995,-0.38113 -0.40625,-0.59375 -0.16356,-0.26714 -0.3161,-0.53989 -0.46875,-0.8125 -0.24534,-0.47431 -0.50067,-0.98205 -0.71875,-1.5 -0.13084,-0.34349 -0.26597,-0.68233 -0.375,-1.03125 -0.0981,-0.2835 -0.18312,-0.55479 -0.28125,-0.84375 -0.0436,-0.23444 -0.0814,-0.45854 -0.125,-0.6875 -0.0273,-0.11448 -0.0719,-0.22925 -0.0937,-0.34375 -0.0545,-0.26169 -0.0868,-0.57514 -0.125,-0.875 l 0,-0.15625 c -0.0273,-0.23989 -0.0719,-0.47887 -0.0937,-0.71875 -0.0109,-0.24535 0,-0.50466 0,-0.75 1e-5,-0.32168 0.009,-0.62129 0.0313,-0.9375 0.0327,-0.42526 0.0759,-0.84655 0.125,-1.25 0.17447,-1.2594 0.4443,-2.41905 0.875,-3.53125 0.34347,-0.88321 0.77567,-1.73671 1.25,-2.5 0.0763,-0.1363 0.15731,-0.24961 0.25,-0.375 0.12539,-0.19627 0.24416,-0.40837 0.375,-0.59375 0.17991,-0.23988 0.36623,-0.45852 0.5625,-0.6875 0.16901,-0.21808 0.34589,-0.43419 0.53125,-0.625 0.17992,-0.21807 0.36078,-0.40838 0.5625,-0.59375 0.21808,-0.20717 0.44763,-0.43817 0.6875,-0.65625 0.26716,-0.23442 0.54935,-0.46397 0.84375,-0.6875 0.13086,-0.10358 0.26995,-0.20346 0.40625,-0.3125 0.17447,-0.11995 0.34191,-0.22925 0.5,-0.34375 0.30532,-0.20717 0.61038,-0.38258 0.9375,-0.5625 0.33802,-0.18536 0.69177,-0.38804 1.0625,-0.5625 0.42526,-0.20717 0.87486,-0.41383 1.34375,-0.59375 0.91592,-0.36528 1.92051,-0.67182 3,-0.90625 0.16901,-0.0327 0.33497,-0.0665 0.53125,-0.0937 0.13084,-0.0273 0.27541,-0.0407 0.40625,-0.0625 l 0.28125,-0.0625 0.25,-0.0313 0.21875,-0.0313 c 0.26715,-0.0382 0.53445,-0.0665 0.8125,-0.0937 0.18537,-0.0218 0.35133,-0.0203 0.53125,-0.0313 0.32711,-0.0218 0.67141,-0.0625 1.03125,-0.0625 z m -117.1875,0.40625 10.03125,0 c 5.370181,0 7.75,2.8125 7.75,2.8125 0,0 2.1875,1.87962 2.1875,5.15625 0,3.23846 -1.49735,4.58565 -1.90625,5 -0.89411,0.89957 -2.031247,1.4375 -2.03125,1.4375 -2e-6,0 2.55618,0.53582 4.5625,2.53125 2.35525,2.35525 2.15625,5.43751 2.15625,5.4375 0,-10e-6 0.19142,2.94847 -2.34375,5.5 -3.11851,3.11851 -8.812502,2.96874 -8.8125,2.96875 l -11.59375,0 0,-30.84375 z m 52.40625,0 10.03125,0 c 5.3811,0 7.75,2.8125 7.75,2.8125 0,0 2.1875,1.87963 2.1875,5.15625 0,3.23847 -1.47702,4.58566 -1.875,5 -0.89958,0.89958 -2.0625,1.4375 -2.0625,1.4375 1e-5,0 2.54527,0.53583 4.5625,2.53125 2.34433,2.35525 2.1875,5.4375 2.1875,5.4375 0,-10e-6 0.17108,2.95392 -2.375,5.5 -3.11307,3.11851 -8.78124,2.96874 -8.78125,2.96875 l -11.625,0 0,-30.84375 z m -46.875,4.875 0,7.96875 2.65625,0 c 2e-6,-1e-5 0.156921,0.0109 0.375,0 0.185362,0 0.419287,-0.0352 0.59375,-0.0625 0.550654,-0.0327 1.315582,-0.0741 2.0625,-0.28125 0.147202,-0.0491 0.284845,-0.10173 0.4375,-0.15625 0.577904,-0.20718 1.152142,-0.50679 1.59375,-0.9375 0.348922,-0.34348 0.575537,-0.74882 0.75,-1.125 0.174462,-0.4525 0.239096,-0.87675 0.25,-1.1875 C 97.975667,246.2532 98,246.09375 98,246.09375 L 98,245.75 c -0.03817,-0.34346 -0.102403,-0.92901 -0.375,-1.46875 -0.136301,-0.26714 -0.328067,-0.51556 -0.5625,-0.75 -0.316216,-0.29986 -0.669959,-0.51849 -1.0625,-0.6875 -0.741468,-0.32166 -1.598292,-0.46183 -2.3125,-0.5 -0.316213,-0.0218 -0.614768,-0.0313 -0.84375,-0.0313 l -3.625,0 z m 52.40625,0 0,7.96875 2.625,0 c 0,-1e-5 0.20852,0.0109 0.4375,0 0.20171,0 0.39747,-0.0352 0.59375,-0.0625 0.55066,-0.0327 1.27889,-0.0741 2.03125,-0.28125 0.15266,-0.0491 0.29574,-0.10173 0.4375,-0.15625 0.58881,-0.20718 1.17249,-0.50679 1.625,-0.9375 0.34347,-0.34348 0.56609,-0.74882 0.71875,-1.125 0.17991,-0.4525 0.24309,-0.87675 0.28125,-1.1875 0.0109,-0.27805 0.0313,-0.4375 0.0313,-0.4375 -10e-6,1e-5 -0.0203,-0.13112 -0.0313,-0.34375 -1e-5,-0.34348 -0.0711,-0.92901 -0.34375,-1.46875 -0.12539,-0.26715 -0.30626,-0.51557 -0.5625,-0.75 -0.28896,-0.29985 -0.64417,-0.51849 -1.03125,-0.6875 -0.74146,-0.32166 -1.6092,-0.46184 -2.3125,-0.5 -0.32165,-0.0218 -0.60387,-0.0313 -0.84375,-0.0313 l -3.65625,0 z m -52.40625,12.78125 0,8.40625 5.46875,0 c 2e-6,10e-6 0.101336,0 0.28125,0 0.185366,0 0.44469,-0.0204 0.75,-0.0313 0.599718,-0.0709 1.367178,-0.18126 2.125,-0.4375 0.681497,-0.22354 1.357063,-0.55547 1.875,-1.0625 0.196269,-0.20173 0.3379,-0.41782 0.46875,-0.625 0.4307,-0.68148 0.54069,-1.37383 0.5625,-1.75 0.0218,-0.17448 0.0313,-0.25 0.0313,-0.25 l 0,-0.21875 c -0.0218,-0.16357 -0.0432,-0.46357 -0.125,-0.8125 -0.10904,-0.398 -0.28698,-0.83964 -0.625,-1.28125 -0.05452,-0.0709 -0.142422,-0.15333 -0.21875,-0.21875 -0.15811,-0.15267 -0.294287,-0.327 -0.46875,-0.46875 -0.310761,-0.20718 -0.671421,-0.39349 -1.03125,-0.5625 -0.490676,-0.20717 -1.051082,-0.35971 -1.65625,-0.46875 -0.288951,-0.06 -0.625277,-0.10319 -0.96875,-0.125 -0.207168,-0.0382 -0.423277,-0.0516 -0.625,-0.0625 -0.185371,-0.0109 -0.371681,-0.0313 -0.5625,-0.0313 l -5.28125,0 z m 52.40625,0 0,8.40625 5.46875,0 c -1e-5,10e-6 0.12315,0 0.28125,0 0.18537,0 0.45958,-0.0204 0.78125,-0.0313 0.5779,-0.0709 1.36172,-0.18126 2.125,-0.4375 0.6924,-0.22354 1.33672,-0.55547 1.84375,-1.0625 0.20174,-0.20173 0.38006,-0.41782 0.5,-0.625 0.41981,-0.68148 0.5407,-1.37383 0.5625,-1.75 0.0109,-0.17448 0,-0.25 0,-0.25 0,-1e-5 0,-0.0933 0,-0.21875 0,-0.16357 -0.012,-0.46357 -0.0937,-0.8125 -0.10359,-0.398 -0.30188,-0.83964 -0.65625,-1.28125 -0.0763,-0.0709 -0.13697,-0.15333 -0.21875,-0.21875 -0.14174,-0.15267 -0.32009,-0.327 -0.5,-0.46875 -0.29986,-0.20718 -0.62927,-0.39349 -1,-0.5625 -0.49066,-0.20717 -1.02927,-0.35971 -1.65625,-0.46875 -0.28897,-0.06 -0.63073,-0.10319 -0.96875,-0.125 -0.21262,-0.0382 -0.40147,-0.0516 -0.625,-0.0625 -0.19627,-0.0109 -0.39748,-0.0313 -0.59375,-0.0313 l -5.25,0 z m 64.40625,29.28125 c -11.47091,-3e-5 -19,8.38487 -19,18.1875 0,9.60093 7.30049,18.15625 18.875,18.15625 11.98889,10e-6 19.15625,-8.60987 19.15625,-18.15625 0,-9.84622 -7.35314,-18.1875 -19.03125,-18.1875 z M 114,284.65625 98.90625,320 c -2.259141,-3.113 -3.180155,-4.38297 -4.65625,-6.75 -2.68781,-4.40518 -4.647438,-7.7026 -7.875,-9.8125 3.789109,-1.51565 5.90625,-4.55637 5.90625,-8.65625 10e-7,-6.12256 -4.435324,-9.9375 -11.59375,-9.9375 l -8.9375,0 0,35.40625 5.09375,0 0,-15.375 2.125,0 c 2.611492,-10e-6 4.728467,0.86298 9.40625,8.125 l 4.65625,7.25 6.0625,0 4.90625,0 4.46875,-10.4375 15.03125,0 4.71875,10.4375 5.1875,0 -15.8125,-35.59375 -3.59375,0 z m 23.625,0.1875 0,35.40625 13.8125,0 c 11.68901,2e-5 18.78125,-8.63579 18.78125,-17.71875 -1e-5,-8.34695 -5.76995,-17.6875 -18.84375,-17.6875 l -13.75,0 z m 38.46875,0 0,35.40625 5.0625,0 0,-35.40625 -5.0625,0 z m 207.4375,3.75 0,97 31.875,-48.5625 -31.875,-48.4375 z m -177.5,0.46875 c 7.94353,-2e-5 13.8125,5.72005 13.8125,13.5 0,7.72546 -5.86899,13.5 -13.8125,13.5 -7.88897,0 -13.75,-5.77457 -13.75,-13.5 1e-5,-7.77992 5.86101,-13.5 13.75,-13.5 z m -129.21875,0.15625 3.28125,0 c 4.923122,-2e-5 6.893884,2.01805 6.9375,5.34375 0.05997,2.95497 -1.496442,5.75 -6.9375,5.75 l -3.28125,0 0,-11.09375 z m 65.90625,0.21875 7.8125,0 c 9.91712,-10e-6 14.4375,6.01564 14.4375,13.125 0,4.3507 -2.6417,13.125 -14.15625,13.125 l -8.09375,0 0,-26.25 z m -27,3 5.71875,12.8125 -11,0 5.28125,-12.8125 z m 383.78125,1.125 0,27.625 -9.59375,0 0,16.0625 9.59375,0 0,58.78125 18.71875,0 0,-58.78125 11.15625,0 0,-16.0625 -11.15625,0 0,-27.625 -18.71875,0 z m -21.875,21.78125 c -0.0273,0.06 -14.25,21.65625 -14.25,21.65625 2e-5,2e-5 7.31005,11.2321 14.125,21.65625 1.42842,-7.10936 2.1875,-14.46539 2.1875,-22 0,-7.28382 -0.74312,-14.40486 -2.0625,-21.3125 z m 90.15625,3.875 c -6.20432,2e-5 -12.23348,3.64265 -15.75,11.40625 l 0,-9.4375 -16.21875,0 0,74.84375 18.75,0 0,-30.28125 c 0,-4.08897 -0.0168,-8.75478 0.125,-12.84375 0.41436,-10.99116 4.65163,-17.1875 10,-17.1875 1.96819,-2e-5 4.08249,0.8225 5.5,1.53125 l 5.78125,-16.0625 c -1.82635,-0.85595 -4.24028,-1.96875 -8.1875,-1.96875 z m 38.21875,0 c -19.44716,2e-5 -35.21875,16.07439 -35.21875,39.46875 10e-6,22.98549 16.64526,39.3125 35.65625,39.3125 9.45368,0 16.46417,-3.39806 23.09375,-9.875 l 0,7.90625 18.75,0 0,-74.84375 -18.75,0 0,8.1875 C 622.76534,322.6091 615.02299,319.21875 606,319.21875 z m 3.8125,17.1875 c 11.84163,10e-6 20.59375,8.89349 20.59375,22 0.005,13.67351 -9.03559,22.40625 -20.59375,22.40625 -11.69993,0 -20.15625,-9.43244 -20.15625,-22.25 4e-5,-12.26692 7.74758,-22.15625 20.15625,-22.15625 z"
           inkscape:connector-curvature="0"
           id="path3430"
           style="fill:#000000;fill-opacity:1;fill-rule:evenodd" />
      </g>
    </g>
  </g>
</svg>
