<?xml version="1.0" encoding="UTF-8" standalone="no"?>
<!-- Created with Inkscape (http://www.inkscape.org/) -->
<svg
   xmlns:svg="http://www.w3.org/2000/svg"
   xmlns="http://www.w3.org/2000/svg"
   version="1.0"
   width="581.98816"
   height="248.03149"
   id="svg4337">
  <defs
     id="defs4339" />
  <g
     transform="translate(-143.50001,-106.05784)"
     id="layer1">
    <g
       transform="matrix(1.000022,0,0,1.000022,17.719842,17.70954)"
       id="g4401">
      <rect
         width="119.99451"
         height="156.26151"
         x="364.90866"
         y="135.83694"
         id="rect4399"
         style="opacity:1;fill:#ffffff;fill-opacity:1;fill-rule:nonzero;stroke:none;marker:none;marker-start:none;marker-mid:none;marker-end:none;visibility:visible;display:inline;overflow:visible" />
      <path
         d="M 143.5,112.625 L 143.5,153.1875 L 186.625,153.1875 L 186.625,112.625 L 143.5,112.625 z M 193.1875,112.625 L 193.1875,153.1875 L 236.28125,153.1875 L 236.28125,112.625 L 193.1875,112.625 z M 242.84375,112.625 L 242.84375,153.1875 L 285.9375,153.1875 L 285.9375,112.625 L 242.84375,112.625 z M 266.28125,117.90625 C 266.6669,117.90625 267.05343,117.94923 267.46875,117.96875 C 267.69618,117.99315 267.96008,117.99221 268.1875,118.03125 C 268.5336,118.05078 268.85625,118.08596 269.1875,118.125 L 269.40625,118.15625 C 269.60402,118.20017 269.81708,118.21096 270,118.25 C 270.23238,118.28416 270.43376,118.35745 270.65625,118.40625 C 270.88369,118.4453 271.09496,118.48733 271.3125,118.53125 C 271.45093,118.57029 271.60009,118.59083 271.71875,118.625 C 271.92146,118.67868 272.10485,118.72757 272.3125,118.78125 C 272.46577,118.83006 272.6543,118.89358 272.8125,118.9375 L 272.9375,118.96875 C 273.1155,119.01268 273.26939,119.05471 273.4375,119.09375 C 273.65999,119.15719 273.8861,119.2393 274.09375,119.3125 C 274.27668,119.37595 274.45197,119.44632 274.625,119.5 C 274.84255,119.5732 275.03086,119.64555 275.21875,119.71875 C 275.57473,119.83588 275.8942,119.93852 276.15625,120.03125 C 276.73966,120.2655 277.06249,120.40625 277.0625,120.40625 L 277.0625,125.84375 L 276.5,125.53125 C 276.2874,125.42389 276.05159,125.28605 275.75,125.125 C 275.57695,125.04204 275.3902,124.91498 275.1875,124.8125 C 274.94524,124.70513 274.70449,124.58587 274.4375,124.46875 C 274.11119,124.3321 273.76222,124.1923 273.40625,124.03125 C 273.14421,123.93853 272.88705,123.82123 272.625,123.71875 C 272.625,123.71875 272.42659,123.6435 272.125,123.53125 C 271.94701,123.48245 271.73575,123.43647 271.46875,123.34375 C 271.29076,123.29495 271.08266,123.23142 270.875,123.1875 C 270.53879,123.10454 270.17678,122.99897 269.78125,122.90625 C 269.52415,122.86721 269.25057,122.83493 268.96875,122.78125 C 268.65232,122.73733 268.30495,122.6953 267.96875,122.65625 C 267.78087,122.63673 267.60401,122.61815 267.40625,122.59375 C 267.12938,122.58399 266.87556,122.59375 266.59375,122.59375 C 266.45532,122.58399 266.33088,122.5625 266.1875,122.5625 C 265.81174,122.5625 265.41038,122.59084 265,122.625 C 264.78246,122.64452 264.58265,122.66797 264.375,122.6875 C 264.15251,122.73142 263.92642,122.74221 263.71875,122.78125 C 263.53087,122.82029 263.34908,122.86233 263.15625,122.90625 C 262.95848,122.95505 262.75038,123.00881 262.5625,123.0625 C 262.3499,123.12594 262.13031,123.17679 261.9375,123.25 C 261.73973,123.31344 261.56784,123.40042 261.375,123.46875 C 261.19207,123.55171 261.00038,123.59477 260.8125,123.6875 C 259.64073,124.21945 258.48725,124.99467 257.46875,126 C 257.39953,126.0732 257.35542,126.16018 257.28125,126.21875 C 257.1527,126.36027 257.0249,126.49323 256.90625,126.625 C 256.81726,126.74213 256.7403,126.86138 256.65625,126.96875 C 256.42882,127.2762 256.20923,127.59391 256.03125,127.90625 C 255.9472,128.03313 255.85542,128.19246 255.78125,128.34375 C 255.68237,128.52432 255.61531,128.71592 255.53125,128.90625 C 255.46203,129.03313 255.38331,129.18073 255.34375,129.3125 C 255.25475,129.52723 255.19423,129.70616 255.125,129.90625 C 255.06073,130.1161 255.01325,130.34777 254.96875,130.5625 C 254.88964,130.87484 254.82081,131.15443 254.78125,131.4375 C 254.71698,131.89136 254.6974,132.27652 254.6875,132.59375 L 254.6875,132.9375 C 254.6875,133.09854 254.6776,133.27551 254.6875,133.5 C 254.69739,133.64641 254.69403,133.8292 254.71875,134 C 254.76819,134.44898 254.8665,135.00127 255,135.5625 C 255.06427,135.76747 255.08702,135.96592 255.15625,136.15625 C 255.25019,136.42955 255.35009,136.71009 255.46875,136.96875 C 255.53797,137.1298 255.62323,137.33896 255.6875,137.5 C 255.79627,137.69033 255.89121,137.87217 256,138.0625 C 256.0791,138.19427 256.15606,138.34186 256.25,138.46875 C 256.33406,138.61028 256.4373,138.73347 256.53125,138.875 C 256.64497,139.00189 256.73991,139.1495 256.84375,139.28125 C 257.06129,139.52527 257.3153,139.78724 257.5625,140.03125 L 257.625,140.09375 L 257.6875,140.15625 L 257.78125,140.25 L 257.9375,140.40625 C 258.07594,140.51362 258.24803,140.62799 258.40625,140.75 C 258.55458,140.86713 258.69048,140.99127 258.84375,141.09375 C 258.97724,141.19623 259.12144,141.29204 259.25,141.375 C 259.38844,141.45797 259.50138,141.52543 259.625,141.59375 C 259.89198,141.74504 260.16063,141.87799 260.4375,142 C 260.56605,142.05857 260.69385,142.12406 260.8125,142.1875 C 260.89655,142.21678 260.98339,142.26173 261.0625,142.28125 C 261.18116,142.33005 261.28265,142.37209 261.40625,142.40625 C 262.17754,142.70395 262.98522,142.89948 263.78125,143.03125 C 264.29051,143.09469 264.76547,143.14846 265.25,143.1875 C 265.66531,143.21678 266.07815,143.25 266.46875,143.25 C 266.66157,143.25 266.84001,143.22851 267.0625,143.21875 C 267.37399,143.20899 267.71305,143.18552 268.09375,143.15625 C 268.35085,143.12697 268.59812,143.07028 268.875,143.03125 C 268.98872,143.02149 269.10011,143.00976 269.21875,143 C 270.1977,142.80967 271.31992,142.52808 272.53125,142.09375 C 273.15916,141.86926 273.82265,141.6131 274.5,141.28125 C 274.89059,141.09092 275.2969,140.89248 275.6875,140.6875 C 276.05337,140.47277 276.40055,140.27526 276.78125,140.03125 L 277.15625,139.8125 C 277.22053,139.78322 277.3058,139.73143 277.375,139.6875 L 277.375,145.21875 C 277.27612,145.24803 277.1778,145.29983 277.09375,145.34375 C 276.86137,145.44135 276.63528,145.55865 276.4375,145.65625 C 276.20018,145.77338 275.96754,145.87114 275.75,145.96875 C 275.39402,146.12004 275.07454,146.24126 274.8125,146.34375 C 274.62463,146.42671 274.46734,146.48732 274.34375,146.53125 L 274.09375,146.59375 C 273.83171,146.68648 273.58939,146.79203 273.3125,146.875 C 273.08013,146.95796 272.81465,146.99905 272.5625,147.0625 C 272.23124,147.15522 271.88069,147.26079 271.5,147.34375 C 271.25773,147.38279 271.03341,147.42482 270.78125,147.46875 C 270.37583,147.54683 269.95487,147.60743 269.5,147.65625 C 269.2083,147.69529 268.91018,147.74709 268.59375,147.78125 L 268.46875,147.78125 C 267.69252,147.8447 266.8423,147.875 265.9375,147.875 L 265.59375,147.875 C 265.35149,147.85548 265.0959,147.85351 264.84375,147.84375 C 264.34439,147.81446 263.84469,147.78218 263.375,147.71875 C 262.90531,147.66507 262.44003,147.6142 262,147.53125 C 261.46109,147.41412 260.94182,147.26164 260.4375,147.125 C 260.1458,147.04204 259.87559,146.97748 259.59375,146.875 C 259.32182,146.77251 259.06465,146.70112 258.8125,146.59375 C 258.11537,146.3107 257.47482,145.96859 256.90625,145.65625 C 256.61454,145.4952 256.36567,145.32217 256.09375,145.15625 C 255.84654,145.00008 255.62874,144.8798 255.40625,144.71875 C 255.2332,144.59187 255.03816,144.44426 254.875,144.3125 C 254.69701,144.17586 254.52828,144.03314 254.375,143.90625 C 254.14262,143.71592 253.94283,143.51456 253.75,143.34375 L 253.65625,143.21875 C 253.42882,143.00402 253.19618,142.76352 252.96875,142.5 C 252.78087,142.27551 252.57931,142.04676 252.40625,141.8125 C 252.2332,141.59289 252.03816,141.37877 251.875,141.125 C 251.74645,140.94443 251.62361,140.76747 251.5,140.5625 C 251.35662,140.31361 251.21577,140.04965 251.0625,139.78125 C 250.83012,139.33227 250.58265,138.8679 250.375,138.375 C 250.25139,138.06266 250.13508,137.72345 250.03125,137.40625 C 249.93237,137.11831 249.8653,136.84555 249.78125,136.5625 C 249.73676,136.34777 249.66948,136.15223 249.625,135.9375 C 249.60522,135.83013 249.58227,135.70112 249.5625,135.59375 C 249.51306,135.3351 249.47211,135.09556 249.4375,134.8125 L 249.40625,134.625 C 249.38648,134.39075 249.36847,134.17174 249.34375,133.9375 C 249.34375,133.70325 249.34375,133.48425 249.34375,133.25 C 249.34375,132.94743 249.35028,132.64145 249.375,132.34375 C 249.39972,131.95333 249.42424,131.56816 249.46875,131.1875 C 249.62697,129.99672 249.91203,128.86175 250.3125,127.8125 C 250.64376,126.98774 251.04514,126.19103 251.5,125.46875 C 251.56428,125.33698 251.62975,125.21088 251.71875,125.09375 C 251.83741,124.90342 251.95531,124.73331 252.09375,124.5625 C 252.25691,124.33313 252.42723,124.1161 252.625,123.90625 C 252.77826,123.69152 252.94206,123.48134 253.125,123.28125 C 253.27827,123.07628 253.47332,122.92081 253.65625,122.75 C 253.86391,122.54991 254.09495,122.32509 254.3125,122.125 C 254.57455,121.9005 254.82181,121.66884 255.09375,121.46875 C 255.2223,121.36139 255.37639,121.28022 255.5,121.1875 C 255.66315,121.06549 255.80559,120.96088 255.96875,120.84375 C 256.25551,120.66318 256.56845,120.49795 256.875,120.3125 C 257.19637,120.13193 257.49765,119.94717 257.84375,119.78125 C 258.24918,119.57628 258.70632,119.4042 259.15625,119.21875 C 260.02642,118.88201 260.97655,118.59461 262,118.375 C 262.15821,118.34084 262.32201,118.30077 262.5,118.28125 C 262.61866,118.24709 262.75138,118.23828 262.875,118.21875 L 263.15625,118.15625 L 263.375,118.125 L 263.59375,118.09375 C 263.8459,118.05471 264.07676,118.05078 264.34375,118.03125 C 264.51186,118.01173 264.69207,117.96875 264.875,117.96875 C 265.18154,117.94435 265.51249,117.94726 265.84375,117.9375 C 266.0168,117.9375 266.10326,117.90625 266.28125,117.90625 z M 154.8125,118.3125 L 164.3125,118.3125 C 169.40995,118.3125 171.65625,120.96875 171.65625,120.96875 C 171.65625,120.96875 173.71875,122.7614 173.71875,125.875 C 173.71875,128.9398 172.32809,130.19845 171.9375,130.59375 C 171.09699,131.43316 170,131.93749 170,131.9375 C 170,131.9375 172.40406,132.44533 174.3125,134.34375 C 176.54727,136.57402 176.37501,139.5 176.375,139.5 C 176.375,139.5 176.56407,142.28155 174.15625,144.6875 C 171.19963,147.64006 165.81251,147.53124 165.8125,147.53125 L 154.8125,147.53125 L 154.8125,118.3125 z M 204.46875,118.3125 L 213.96875,118.3125 C 219.06619,118.3125 221.34375,120.96875 221.34375,120.96875 C 221.34375,120.96875 223.40624,122.7614 223.40625,125.875 C 223.40625,128.9398 221.98434,130.19845 221.59375,130.59375 C 220.74335,131.43316 219.65625,131.93749 219.65625,131.9375 C 219.65625,131.9375 222.09155,132.44533 224,134.34375 C 226.22982,136.57402 226.0625,139.5 226.0625,139.5 C 226.0625,139.5 226.22031,142.28155 223.8125,144.6875 C 220.85094,147.64006 215.46875,147.53124 215.46875,147.53125 L 204.46875,147.53125 L 204.46875,118.3125 z M 160.0625,122.90625 L 160.0625,130.46875 L 162.5625,130.46875 C 162.56251,130.46874 162.71996,130.46875 162.9375,130.46875 C 163.11054,130.45898 163.31706,130.4619 163.5,130.4375 C 164.0142,130.39845 164.76173,130.35146 165.46875,130.15625 C 165.60719,130.11233 165.73657,130.04393 165.875,130 C 166.42876,129.79502 166.95969,129.50369 167.375,129.09375 C 167.70132,128.76677 167.90923,128.41388 168.0625,128.0625 C 168.24048,127.63793 168.31903,127.21567 168.34375,126.9375 C 168.36848,126.6642 168.375,126.5 168.375,126.5 L 168.375,126.1875 C 168.3404,125.85564 168.28834,125.30344 168.03125,124.78125 C 167.90764,124.53724 167.7126,124.31336 167.5,124.09375 C 167.20829,123.80581 166.87576,123.58879 166.5,123.4375 C 165.79299,123.12517 164.97343,122.98142 164.28125,122.9375 C 163.99449,122.91798 163.71754,122.90625 163.5,122.90625 L 160.0625,122.90625 z M 209.71875,122.90625 L 209.71875,130.46875 L 212.21875,130.46875 C 212.21876,130.46874 212.37621,130.46875 212.59375,130.46875 C 212.78163,130.45898 212.97826,130.4619 213.15625,130.4375 C 213.67046,130.39845 214.41304,130.35146 215.125,130.15625 C 215.27333,130.11233 215.41259,130.04393 215.53125,130 C 216.09488,129.79502 216.63235,129.50369 217.0625,129.09375 C 217.38881,128.76677 217.57536,128.41388 217.71875,128.0625 C 217.90168,127.63793 217.97528,127.21567 218,126.9375 C 218.01483,126.6642 218.03125,126.5 218.03125,126.5 C 218.03125,126.5 218.00495,126.37783 218,126.1875 C 217.99011,125.85564 217.92324,125.30344 217.65625,124.78125 C 217.53759,124.53724 217.36232,124.31336 217.125,124.09375 C 216.84813,123.80581 216.51717,123.58879 216.15625,123.4375 C 215.44923,123.12517 214.63621,122.98142 213.96875,122.9375 C 213.65725,122.91798 213.38368,122.90625 213.15625,122.90625 L 209.71875,122.90625 z M 160.0625,135.03125 L 160.0625,143 L 165.21875,143 C 165.21874,143 165.3319,143 165.5,143 C 165.67304,142.99024 165.9221,142.98827 166.21875,142.96875 C 166.78238,142.90531 167.52815,142.80652 168.25,142.5625 C 168.89768,142.34777 169.51053,142.01927 170,141.53125 C 170.18788,141.35067 170.3402,141.14247 170.46875,140.9375 C 170.87417,140.31283 170.98022,139.6834 171,139.3125 C 171.02472,139.1417 171.03125,139.03125 171.03125,139.03125 L 171.03125,138.84375 C 171.00653,138.69733 170.98041,138.3846 170.90625,138.0625 C 170.80736,137.68184 170.60756,137.25857 170.28125,136.84375 C 170.22686,136.77055 170.16297,136.72945 170.09375,136.65625 C 169.94048,136.51472 169.78321,136.34563 169.625,136.21875 C 169.3333,136.01377 169.0237,135.83879 168.6875,135.6875 C 168.20791,135.48253 167.66727,135.331 167.09375,135.21875 C 166.81193,135.16507 166.49898,135.13964 166.1875,135.125 C 165.98973,135.09084 165.79151,135.07227 165.59375,135.0625 C 165.41081,135.05274 165.24543,135.03125 165.0625,135.03125 L 160.0625,135.03125 z M 209.71875,135.03125 L 209.71875,143 L 214.875,143 C 214.875,143 214.99309,143 215.15625,143 C 215.32928,142.99024 215.56352,142.98827 215.875,142.96875 C 216.42382,142.90531 217.18934,142.80652 217.90625,142.5625 C 218.55392,142.34777 219.16678,142.01927 219.65625,141.53125 C 219.83918,141.35067 219.99645,141.14247 220.125,140.9375 C 220.52546,140.31283 220.63648,139.6834 220.65625,139.3125 C 220.66614,139.1417 220.65625,139.03125 220.65625,139.03125 C 220.65626,139.03125 220.6612,138.956 220.65625,138.84375 C 220.65626,138.69733 220.63667,138.3846 220.5625,138.0625 C 220.45868,137.68184 220.30001,137.25857 219.96875,136.84375 C 219.89952,136.77055 219.81922,136.72945 219.75,136.65625 C 219.61157,136.51472 219.44935,136.34563 219.28125,136.21875 C 218.99448,136.01377 218.69479,135.83879 218.34375,135.6875 C 217.879,135.48253 217.32846,135.331 216.75,135.21875 C 216.47312,135.16507 216.15524,135.13964 215.84375,135.125 C 215.64599,135.09084 215.45271,135.07227 215.25,135.0625 C 215.06212,135.05274 214.90168,135.03125 214.71875,135.03125 L 209.71875,135.03125 z M 270.71875,162.78125 C 259.85639,162.77637 252.71875,170.71288 252.71875,180 C 252.71875,189.09192 259.6687,197.1875 270.625,197.1875 C 281.98177,197.1875 288.75,189.0431 288.75,180 C 288.75001,170.66408 281.78382,162.78125 270.71875,162.78125 z M 183.5625,163.03125 L 169.21875,196.5 C 167.08694,193.55831 166.2276,192.3311 164.84375,190.09375 C 162.29256,185.926 160.42556,182.82316 157.375,180.8125 C 160.96448,179.3826 162.96875,176.48331 162.96875,172.59375 C 162.96875,166.79601 158.75217,163.21875 151.96875,163.21875 L 143.5,163.21875 L 143.5,196.75 L 148.3125,196.75 L 148.3125,182.1875 L 150.34375,182.1875 C 152.81585,182.18751 154.81508,182.97235 159.25,189.84375 L 163.6875,196.75 L 169.40625,196.75 L 174.0625,196.75 L 178.28125,186.875 L 192.53125,186.875 L 197.03125,196.75 L 201.9375,196.75 L 186.9375,163.03125 L 183.5625,163.03125 z M 205.9375,163.21875 L 205.9375,196.75 L 219,196.75 C 230.06507,196.75 236.8125,188.56775 236.8125,179.96875 C 236.8125,172.05297 231.35391,163.21875 218.96875,163.21875 L 205.9375,163.21875 z M 242.34375,163.21875 L 242.34375,196.75 L 247.15625,196.75 L 247.15625,163.21875 L 242.34375,163.21875 z M 270.71875,167.21875 C 278.24379,167.21875 283.78125,172.61618 283.78125,180 C 283.78126,187.32039 278.24379,192.78125 270.71875,192.78125 C 263.2481,192.78125 257.6875,187.32038 257.6875,180 C 257.68751,172.61619 263.2481,167.21875 270.71875,167.21875 z M 148.3125,167.34375 L 151.4375,167.34375 C 156.09985,167.34376 157.95056,169.25848 158,172.40625 C 158.0445,175.21239 156.59428,177.875 151.4375,177.875 L 148.3125,177.875 L 148.3125,167.34375 z M 210.75,167.5625 L 218.15625,167.5625 C 227.55513,167.56249 231.84375,173.25549 231.84375,180 C 231.84375,184.1287 229.34436,192.4375 218.4375,192.4375 L 210.75,192.4375 L 210.75,167.5625 z M 185.15625,170.40625 L 190.5625,182.53125 L 180.15625,182.53125 L 185.15625,170.40625 z"
         id="path476"
         style="fill:#000000;fill-opacity:1;fill-rule:evenodd" />
      <path
         d="M 423.875,106.0625 C 365.19256,106.0625 317.625,153.67533 317.625,212.375 C 317.62499,271.09419 365.19256,318.65625 423.875,318.65625 C 482.56734,318.65625 530.125,271.09419 530.125,212.375 C 530.12502,153.67533 482.56734,106.0625 423.875,106.0625 z M 387.03125,140.84375 L 477.5625,140.84375 L 471.3125,172.40625 L 414.21875,172.40625 C 414.21875,172.40625 411.50088,184.75565 410.25,191.8125 C 415.93582,188.83066 422.41722,187.40625 430.03125,187.40625 C 456.93746,187.40625 475.71875,207.91677 475.71875,237.28125 C 475.71875,251.49743 470.1684,264.75422 460.0625,274.65625 C 449.75387,284.73395 436.09978,290.1346 421.6875,289.8125 C 397.37204,289.8125 372.71777,277.71741 368.3125,250.96875 L 407.03125,250.96875 C 410.04226,255.48298 414.99758,258.15625 421.09375,258.15625 C 432.94,258.15624 439.3125,247.39313 439.3125,237.28125 C 439.3125,227.27674 433.68657,217.1875 421.09375,217.1875 C 413.56871,217.18749 409.40602,219.3745 404.625,225.875 L 403.5,227.40625 L 369.59375,227.40625 L 387.03125,140.84375 z M 544.40625,172.5625 L 534.96875,244.15625 L 548.375,244.15625 L 557.8125,172.5625 L 544.40625,172.5625 z M 566.5625,172.5625 L 565.125,182.28125 L 578.5625,182.28125 L 580,172.5625 L 566.5625,172.5625 z M 653.5625,189.21875 C 642.69029,189.21875 630.10736,196.49609 627.4375,216.96875 C 626.18662,226.4462 627.68728,233.69586 631.875,238.46875 C 635.51391,242.6316 641.18635,244.8125 648.28125,244.8125 C 656.14248,244.8125 663.30925,241.7968 669,236.0625 L 670.09375,234.9375 L 661.3125,226.5 L 660.21875,227.4375 C 657.11874,230.25342 652.9793,232.03125 649.375,232.03125 C 646.18106,232.03124 643.66599,231.06255 642.09375,229.28125 C 640.81815,227.82206 640.15625,225.76333 640.15625,223.25 C 640.15624,222.97671 640.19898,222.71568 640.21875,222.4375 L 672.125,222.4375 L 673.40625,212.59375 C 673.56448,211.42738 673.625,210.28359 673.625,209.15625 C 673.62002,203.94903 671.99142,199.27354 668.90625,195.75 C 665.20308,191.54323 659.76745,189.21875 653.5625,189.21875 z M 564.34375,189.8125 L 557.25,244.1875 L 570.65625,244.1875 L 577.78125,189.8125 L 564.34375,189.8125 z M 582.21875,189.8125 L 595.03125,244.1875 L 605.71875,244.1875 L 632.78125,189.8125 L 618.40625,189.8125 C 618.40626,189.8125 605.96473,216.50131 603.0625,222.71875 C 601.72265,216.09625 596.34375,189.8125 596.34375,189.8125 L 582.21875,189.8125 z M 652.28125,202 C 654.72368,202 656.73251,202.7908 658.0625,204.25 C 659.41229,205.72385 660.09375,207.90182 660.09375,210.625 C 660.09373,210.69333 660.09375,210.79204 660.09375,210.875 L 641.8125,210.875 C 643.27596,205.3652 647.14425,202 652.28125,202 z"
         id="path500"
         style="fill:#00afd8" />
    </g>
  </g>
</svg>
