<?xml version="1.0" encoding="UTF-8" standalone="no"?>
<!-- Created with Inkscape (http://www.inkscape.org/) -->

<svg
   xmlns:dc="http://purl.org/dc/elements/1.1/"
   xmlns:cc="http://creativecommons.org/ns#"
   xmlns:rdf="http://www.w3.org/1999/02/22-rdf-syntax-ns#"
   xmlns:svg="http://www.w3.org/2000/svg"
   xmlns="http://www.w3.org/2000/svg"
   xmlns:inkscape="http://www.inkscape.org/namespaces/inkscape"
   version="1.0"
   width="581.98816"
   height="248.03149"
   id="svg4069">
  <metadata
     id="metadata11">
    <rdf:RDF>
      <cc:Work
         rdf:about="">
        <dc:format>image/svg+xml</dc:format>
        <dc:type
           rdf:resource="http://purl.org/dc/dcmitype/StillImage" />
      </cc:Work>
    </rdf:RDF>
  </metadata>
  <defs
     id="defs4071" />
  <g
     transform="translate(-19.71875,-182.15158)"
     id="layer1">
    <g
       transform="matrix(0.5544991,0,0,0.5544991,26.493737,193.57802)"
       id="g4127">
      <rect
         width="224.3526"
         height="276.17157"
         x="408.66327"
         y="61.913158"
         id="rect4125"
         style="fill:#ffffff;fill-opacity:1;fill-rule:nonzero;stroke:none;marker:none;visibility:visible;display:inline;overflow:visible" />
      <path
         d="m 19.71875,23.15625 0,73.125 77.71875,0 0,-73.125 -77.71875,0 z m 89.59375,0 0,73.125 77.71875,0 0,-73.125 -77.71875,0 z m 89.53125,0 0,73.125 77.71875,0 0,-73.125 -77.71875,0 z M 240.3125,32.75 c 0.31525,0 0.50223,10e-7 0.84375,0 0.6918,0 1.39441,0.04121 2.15625,0.09375 0.40282,0.01751 0.82091,0.04121 1.25,0.09375 0.61299,0.04378 1.18577,0.09993 1.78125,0.1875 l 0.4375,0.03125 c 0.33276,0.07006 0.68973,0.148693 1.03125,0.21875 0.41158,0.05254 0.80719,0.113666 1.21875,0.21875 0.43785,0.07006 0.83343,0.153675 1.21875,0.25 0.23644,0.0613 0.47734,0.121224 0.6875,0.15625 0.3678,0.09633 0.73969,0.216175 1.125,0.3125 0.26271,0.07006 0.57229,0.122421 0.84375,0.21875 l 0.25,0.09375 c 0.31525,0.07881 0.63976,0.171187 0.9375,0.25 0.37655,0.11384 0.73971,0.243643 1.125,0.375 0.33277,0.105083 0.66226,0.224932 0.96875,0.3125 0.38531,0.157626 0.73473,0.274895 1.09375,0.40625 0.62175,0.227681 1.19212,0.427367 1.65625,0.59375 1.0596,0.411577 1.65625,0.656248 1.65625,0.65625 l 0,9.8125 -1,-0.5625 c -0.37655,-0.20141 -0.8458,-0.478535 -1.40625,-0.75 -0.29774,-0.157625 -0.64097,-0.347355 -1,-0.53125 -0.43785,-0.183896 -0.87962,-0.414833 -1.34375,-0.625 C 255.24828,44.282277 254.65677,44.021465 254,43.75 c -0.46412,-0.175139 -0.98214,-0.378603 -1.4375,-0.5625 0,0 -0.32332,-0.07108 -0.875,-0.28125 -0.33277,-0.08757 -0.73712,-0.217373 -1.21875,-0.375 -0.31525,-0.11384 -0.68098,-0.233688 -1.03125,-0.3125 -0.62174,-0.157626 -1.27317,-0.29361 -2,-0.46875 -0.44661,-0.07006 -0.93836,-0.162429 -1.4375,-0.25 -0.58672,-0.09633 -1.21703,-0.148693 -1.8125,-0.21875 -0.33276,-0.03503 -0.67222,-0.04997 -1.03125,-0.09375 -0.49915,-0.01751 -0.97457,-0.01373 -1.5,-0.03125 -0.23644,0 -0.47356,10e-7 -0.71875,0 -0.6918,0 -1.38065,0.03245 -2.125,0.09375 -0.39406,0.01751 -0.77093,0.05872 -1.15625,0.09375 -0.39406,0.0613 -0.73969,0.108687 -1.125,0.1875 -0.33276,0.05254 -0.71222,0.148695 -1.0625,0.21875 -0.33277,0.09633 -0.70348,0.19368 -1.0625,0.28125 -0.3678,0.11384 -0.74349,0.229909 -1.09375,0.34375 -0.35028,0.131354 -0.68972,0.221154 -1.03125,0.34375 -0.34152,0.122598 -0.65847,0.279874 -1,0.4375 -2.11918,0.963266 -4.17856,2.334801 -6,4.15625 -0.1226,0.122597 -0.24364,0.274898 -0.375,0.40625 -0.24519,0.236438 -0.45982,0.504807 -0.6875,0.75 -0.16638,0.20141 -0.31114,0.401096 -0.46875,0.59375 -0.42034,0.560445 -0.77848,1.127057 -1.09375,1.6875 -0.16638,0.253952 -0.3149,0.518539 -0.4375,0.78125 -0.15763,0.332764 -0.35113,0.658479 -0.5,1 -0.10509,0.253952 -0.21119,0.504806 -0.28125,0.75 -0.14887,0.385306 -0.2749,0.734716 -0.40625,1.09375 -0.1226,0.394064 -0.23368,0.757207 -0.3125,1.125 -0.14011,0.569203 -0.2512,1.094604 -0.3125,1.59375 -0.10508,0.831911 -0.17,1.573312 -0.1875,2.125 l 0,0.625 c 0,0.28898 0.0137,0.645943 0.0313,1.03125 0.0175,0.262709 0.01,0.528498 0.0625,0.84375 0.0788,0.814398 0.23231,1.779177 0.46875,2.8125 0.10509,0.359035 0.21239,0.757203 0.34375,1.125 0.15762,0.481633 0.30358,0.969604 0.53125,1.46875 0.1226,0.297737 0.24364,0.577265 0.375,0.875 0.17514,0.350279 0.37483,0.720975 0.59375,1.0625 0.13136,0.271465 0.27111,0.473557 0.4375,0.71875 0.16639,0.236438 0.32486,0.487288 0.5,0.75 0.19265,0.236438 0.40985,0.487288 0.59375,0.75 0.39407,0.446605 0.8034,0.905898 1.25,1.34375 l 0.125,0.125 0.0937,0.09375 0.15625,0.15625 0.3125,0.28125 c 0.26271,0.183896 0.55477,0.428573 0.84375,0.65625 0.26271,0.20141 0.54104,0.427364 0.8125,0.59375 0.2452,0.183896 0.49982,0.356107 0.71875,0.53125 0.24519,0.122597 0.45982,0.252404 0.6875,0.375 0.48163,0.280223 0.9696,0.52232 1.46875,0.75 0.25395,0.09633 0.46857,0.19866 0.6875,0.3125 0.14887,0.05254 0.26614,0.112468 0.40625,0.15625 0.20141,0.07881 0.41982,0.179948 0.65625,0.25 1.39236,0.507904 2.83636,0.862289 4.28125,1.125 0.91949,0.131355 1.75807,0.259955 2.625,0.3125 0.76186,0.0613 1.4782,0.09375 2.1875,0.09375 0.35028,0 0.70844,-0.04499 1.09375,-0.0625 0.55169,-0.01751 1.1832,-0.05495 1.875,-0.125 0.46412,-0.03503 0.92463,-0.108685 1.40625,-0.1875 0.21017,-0.01751 0.42857,-0.05872 0.65625,-0.09375 1.74264,-0.332765 3.73452,-0.81438 5.90625,-1.59375 1.12965,-0.40282 2.33155,-0.890792 3.53125,-1.46875 0.71807,-0.359035 1.46066,-0.725959 2.1875,-1.09375 0.65677,-0.376549 1.27695,-0.775926 1.96875,-1.1875 l 0.6875,-0.375 c 0.10508,-0.07005 0.24363,-0.153675 0.375,-0.25 l 0,10 c -0.19265,0.0613 -0.35114,0.148696 -0.5,0.21875 -0.42034,0.192653 -0.85972,0.401099 -1.21875,0.59375 -0.42909,0.183896 -0.81592,0.356108 -1.21875,0.53125 -0.62175,0.280222 -1.22338,0.494848 -1.6875,0.6875 -0.35903,0.122598 -0.65607,0.238669 -0.875,0.34375 l -0.4375,0.125 c -0.46412,0.166383 -0.93837,0.337399 -1.4375,0.46875 -0.42909,0.157626 -0.82589,0.243646 -1.28125,0.375 -0.61299,0.140111 -1.2457,0.319884 -1.9375,0.46875 -0.42033,0.07881 -0.87962,0.188705 -1.34375,0.25 -0.72682,0.148869 -1.46686,0.247423 -2.28125,0.34375 -0.51666,0.07006 -1.0558,0.134955 -1.625,0.1875 l -0.28125,0.03125 c -1.3836,0.11384 -2.8937,0.187499 -4.53125,0.1875 l -0.625,0 c -0.44661,-0.03503 -0.91089,-0.05872 -1.375,-0.09375 -0.89321,-0.04378 -1.76184,-0.10491 -2.59375,-0.21875 -0.85819,-0.07881 -1.70313,-0.226135 -2.5,-0.375 -0.96327,-0.20141 -1.93301,-0.442305 -2.84375,-0.6875 -0.52541,-0.148868 -1.00086,-0.28485 -1.5,-0.46875 -0.49914,-0.157625 -1.00464,-0.347356 -1.46875,-0.53125 -1.23473,-0.507904 -2.38168,-1.055796 -3.40625,-1.625 -0.49915,-0.306494 -0.9921,-0.626029 -1.5,-0.90625 -0.42909,-0.280223 -0.81592,-0.546015 -1.21875,-0.84375 -0.31525,-0.236438 -0.62602,-0.491072 -0.90625,-0.71875 -0.32401,-0.236438 -0.62602,-0.508584 -0.90625,-0.71875 -0.40282,-0.367792 -0.74845,-0.72098 -1.125,-1.0625 l -0.1875,-0.1875 c -0.41158,-0.40282 -0.8247,-0.848383 -1.21875,-1.3125 -0.35028,-0.385307 -0.71599,-0.767165 -1.03125,-1.1875 -0.32401,-0.40282 -0.59976,-0.825886 -0.90625,-1.28125 -0.22768,-0.332765 -0.47354,-0.689725 -0.71875,-1.03125 -0.25395,-0.455362 -0.50979,-0.884614 -0.78125,-1.375 -0.42034,-0.814398 -0.85095,-1.669288 -1.21875,-2.5625 -0.22768,-0.551689 -0.45483,-1.132033 -0.65625,-1.71875 -0.15763,-0.499147 -0.31989,-1.000852 -0.46875,-1.5 -0.0788,-0.394063 -0.17995,-0.80219 -0.25,-1.1875 -0.035,-0.20141 -0.0587,-0.361089 -0.0937,-0.5625 -0.0876,-0.464119 -0.17119,-0.969603 -0.25,-1.46875 l -0.0313,-0.28125 c -0.035,-0.420334 -0.09,-0.860917 -0.125,-1.28125 -0.0175,-0.411577 -0.0313,-0.78966 -0.0313,-1.21875 0,-0.551688 0.0275,-1.104562 0.0625,-1.65625 0.0613,-0.709314 0.10869,-1.401951 0.1875,-2.09375 0.28898,-2.136698 0.83567,-4.170995 1.5625,-6.0625 0.60423,-1.514954 1.29308,-2.936455 2.125,-4.25 0.10508,-0.218924 0.23987,-0.437326 0.40625,-0.65625 0.21016,-0.332764 0.39355,-0.653501 0.65625,-0.96875 0.29774,-0.411577 0.57846,-0.802194 0.9375,-1.1875 0.27147,-0.367793 0.59598,-0.734715 0.9375,-1.09375 0.26271,-0.37655 0.62225,-0.716001 0.9375,-1.03125 0.39407,-0.341521 0.77593,-0.734714 1.1875,-1.09375 0.46412,-0.367792 0.9071,-0.788456 1.40625,-1.15625 0.24519,-0.192653 0.47355,-0.32486 0.71875,-0.5 0.28898,-0.218924 0.59478,-0.432347 0.875,-0.625 0.51666,-0.341521 1.05081,-0.6535 1.59375,-0.96875 0.59548,-0.341522 1.17324,-0.6535 1.8125,-0.96875 0.71807,-0.350278 1.52937,-0.689728 2.34375,-1.03125 1.55874,-0.595474 3.23727,-1.114693 5.09375,-1.5 0.28022,-0.0613 0.58225,-0.143714 0.90625,-0.1875 0.20141,-0.05254 0.43731,-0.08122 0.65625,-0.125 l 0.5,-0.09375 0.4375,-0.03125 0.375,-0.03125 c 0.46412,-0.07881 0.91088,-0.112464 1.375,-0.15625 0.30649,-0.03503 0.61348,-0.06748 0.9375,-0.09375 0.54293,-0.03503 1.12328,-0.07623 1.71875,-0.09375 z m -200.1875,0.65625 17.125,0 c 9.186052,0 13.250001,4.8125 13.25,4.8125 0,0 3.718747,3.230536 3.71875,8.84375 0,5.534399 -2.523176,7.821937 -3.25,8.53125 -1.506198,1.514954 -3.468749,2.4375 -3.46875,2.4375 0,0 4.348518,0.928537 7.78125,4.34375 4.019445,4.028202 3.718753,9.250002 3.71875,9.25 0,0 0.303444,5.054038 -4.03125,9.40625 -5.332989,5.324232 -14.999998,5.062502 -15,5.0625 l -19.84375,0 0,-52.6875 z m 89.5625,0 17.09375,0 c 9.19481,0 13.28125,4.8125 13.28125,4.8125 0,0 3.71875,3.230536 3.71875,8.84375 0,5.534399 -2.54944,7.821937 -3.25,8.53125 -1.53247,1.514954 -3.5,2.4375 -3.5,2.4375 0,0 4.36225,0.928537 7.8125,4.34375 4.01945,4.028202 3.71875,9.250002 3.71875,9.25 0,0 0.32972,5.054038 -4.03125,9.40625 -5.32423,5.324232 -15,5.062502 -15,5.0625 l -19.84375,0 0,-52.6875 z m -80.125,8.375 0,13.59375 4.53125,0 c 10e-7,-10e-7 0.302194,0.01751 0.6875,0 0.31525,-2e-6 0.716,-0.02747 1.03125,-0.0625 0.919481,-0.05254 2.221483,-0.180971 3.5,-0.53125 0.26271,-0.07881 0.487292,-0.179945 0.75,-0.25 0.998294,-0.367793 1.974409,-0.880659 2.71875,-1.625 0.621743,-0.595472 1.001027,-1.253256 1.28125,-1.875 0.315248,-0.779369 0.433723,-1.523346 0.46875,-2.03125 0.04379,-0.516659 0.0625,-0.78125 0.0625,-0.78125 l 0,-0.59375 C 64.532453,47.047043 64.401619,46.058216 63.9375,45.15625 63.709818,44.70089 63.411577,44.246571 63,43.84375 62.474582,43.362118 61.861786,42.985236 61.1875,42.6875 59.908985,42.135812 58.462239,41.882556 57.21875,41.8125 56.693333,41.777474 56.197807,41.78125 55.8125,41.78125 l -6.25,0 z m 89.5625,0 0,13.59375 4.5,0 c -1e-5,-10e-7 0.30717,0.01751 0.71875,0 0.34152,-2e-6 0.68097,-0.02747 1.03125,-0.0625 0.91948,-0.05254 2.19899,-0.180971 3.46875,-0.53125 0.2627,-0.07881 0.53108,-0.179945 0.75,-0.25 1.01581,-0.367793 1.97063,-0.880659 2.75,-1.625 0.58672,-0.595472 0.95604,-1.253256 1.21875,-1.875 0.33276,-0.779369 0.44746,-1.523346 0.5,-2.03125 0.0175,-0.516659 0.0313,-0.78125 0.0313,-0.78125 -10e-6,2e-6 0,-0.225957 0,-0.59375 -0.0175,-0.577957 -0.15212,-1.566784 -0.625,-2.46875 -0.22769,-0.45536 -0.52214,-0.909679 -0.96875,-1.3125 -0.49915,-0.481632 -1.09323,-0.858514 -1.75,-1.15625 -1.28727,-0.551688 -2.76904,-0.804944 -3.96875,-0.875 -0.55169,-0.03503 -1.03468,-0.03125 -1.4375,-0.03125 l -6.21875,0 z M 49.5625,63.625 l 0,14.375 9.34375,0 c 0,-2e-6 0.193507,-0.03125 0.5,-0.03125 0.297737,-0.01751 0.769568,-0.04499 1.3125,-0.0625 1.015808,-0.113841 2.32897,-0.312152 3.625,-0.75 1.164675,-0.376546 2.303047,-0.976811 3.1875,-1.84375 0.341517,-0.359035 0.616069,-0.712221 0.84375,-1.0625 0.718074,-1.147161 0.893715,-2.298241 0.9375,-2.9375 0.03503,-0.315248 0.03125,-0.5 0.03125,-0.5 l 0,-0.3125 C 69.30872,70.219774 69.27885,69.67171 69.15625,69.09375 68.989866,68.410706 68.657973,67.619342 68.0625,66.875 67.96617,66.743647 67.818855,66.631354 67.6875,66.5 67.424794,66.237294 67.16398,65.968924 66.875,65.75 66.349583,65.382208 65.764258,65.061472 65.125,64.78125 64.275577,64.413456 63.328308,64.13891 62.3125,63.9375 61.795839,63.84117 61.239188,63.753778 60.6875,63.71875 60.328463,63.66621 59.944028,63.66003 59.59375,63.625 c -0.324008,-0.01751 -0.684749,0 -1,0 l -9.03125,0 z m 89.5625,0 0,14.375 9.34375,0 c 0,-2e-6 0.18853,-0.03125 0.46875,-0.03125 0.34151,-0.01751 0.76081,-0.04499 1.3125,-0.0625 0.98954,-0.113841 2.35146,-0.312152 3.65625,-0.75 1.16467,-0.376546 2.28055,-0.976811 3.15625,-1.84375 0.33277,-0.359035 0.59856,-0.712221 0.84375,-1.0625 0.70931,-1.147161 0.92497,-2.298241 0.96875,-2.9375 0.0175,-0.315248 0,-0.5 0,-0.5 0,-3e-6 0,-0.119847 0,-0.3125 0,-0.280226 -0.0299,-0.82829 -0.1875,-1.40625 -0.18389,-0.683044 -0.48454,-1.474408 -1.0625,-2.21875 -0.13136,-0.131353 -0.2749,-0.243646 -0.40625,-0.375 -0.23644,-0.262706 -0.51476,-0.531076 -0.8125,-0.75 -0.51666,-0.367792 -1.097,-0.688528 -1.71875,-0.96875 -0.83191,-0.367794 -1.78416,-0.64234 -2.84375,-0.84375 -0.49914,-0.09633 -1.06456,-0.183722 -1.625,-0.21875 -0.37656,-0.05254 -0.7172,-0.05872 -1.09375,-0.09375 -0.324,-0.01751 -0.64096,0 -1,0 l -9,0 z m 110,50 c -19.60684,-0.009 -32.4375,14.27918 -32.4375,31.03125 -1e-5,16.40178 12.49429,31.03125 32.25,31.03125 20.47377,0 32.71875,-14.72579 32.71875,-31.03125 0,-16.83964 -12.58289,-31.03125 -32.53125,-31.03125 z M 91.9375,114.09375 66.15625,174.4375 c -3.870552,-5.32303 -5.462701,-7.50125 -7.96875,-11.53125 -4.606161,-7.53974 -7.955643,-13.1071 -13.4375,-16.75 6.453881,-2.56579 10.09375,-7.80693 10.09375,-14.8125 0,-10.46457 -7.610276,-16.9375 -19.84375,-16.9375 l -15.25,0 0,60.46875 8.6875,0 0,-26.25 3.625,0 c 4.457293,0 8.041124,1.43513 16.0625,13.84375 l 7.96875,12.40625 10.375,0 8.34375,0 7.65625,-17.8125 25.6875,0 8.09375,17.8125 8.84375,0 -27.03125,-60.78125 -6.125,0 z m 40.34375,0.3125 0,60.5 23.59375,0 c 19.95712,0 32.09375,-14.71515 32.09375,-30.25 0,-14.24757 -9.826,-30.25 -32.15625,-30.25 l -23.53125,0 z m 65.6875,0 0,60.46875 8.6875,0 0,-60.46875 -8.6875,0 z m 51.1875,7.21875 c 13.55576,0 23.5625,9.73818 23.5625,23.03125 0,13.20549 -10.00673,23.0625 -23.5625,23.0625 -13.49449,0 -23.53125,-9.86576 -23.53125,-23.0625 1e-5,-13.29307 10.04553,-23.03125 23.53125,-23.03125 z m -220.71875,0.25 5.59375,0 c 8.406681,0 11.804944,3.45049 11.875,9.125 0.07006,5.07028 -2.583865,9.84375 -11.875,9.84375 l -5.59375,0 0,-18.96875 z M 141,122.21875 l 13.34375,0 c 16.95349,0 24.65625,10.30911 24.65625,22.4375 0,7.46969 -4.51439,22.4375 -24.15625,22.4375 l -13.84375,0 0,-44.875 z m -46.125,5.15625 9.75,21.875 -18.8125,0 9.0625,-21.875 z"
         inkscape:connector-curvature="0"
         id="path352"
         style="fill:#000000;fill-opacity:1;fill-rule:evenodd" />
      <path
         d="m 525.3125,11.34375 c -105.84539,0 -191.625,85.838339 -191.625,191.71875 -10e-6,105.8804 85.77962,191.6875 191.625,191.6875 105.81911,0 191.59375,-85.80709 191.59375,-191.6875 0,-105.880418 -85.77463,-191.71875 -191.59375,-191.71875 z m 20.0625,55.53125 45.0625,0 -0.0937,154.875 38.96875,-0.0937 -0.0313,57.5625 -38.96875,0 0.125,49.375 -69.84375,0.0625 L 520.5,284.25 c 10e-6,0 -0.0703,-4.89234 -5.9375,-5.09375 l -99.84375,0.0625 L 414.75,238.25 c 0.0175,-5.97226 2.96717,-14.75871 6.53125,-19.53125 l 106.75,-143.1875 c 3.58161,-4.781303 11.37151,-8.673764 17.34375,-8.65625 z m -18.90625,111.59375 c -15.1583,0.32401 -27.22528,12.9042 -26.875,28.0625 0.33277,13.15294 10.17603,23.94692 23.03125,26.25 l 9.875,1.75 c -2.57457,17.47014 -9.08707,30.56891 -23.78125,41.375 19.79949,-8.792 34.98568,-27.75528 42,-47.84375 7.02309,-20.11473 3.02793,-50.14544 -24.25,-49.59375 z"
         inkscape:connector-curvature="0"
         id="path376"
         style="fill:#002c5a" />
    </g>
  </g>
</svg>
