<?xml version="1.0" encoding="UTF-8" standalone="no"?>
<!-- Created with Inkscape (http://www.inkscape.org/) -->

<svg
   xmlns:dc="http://purl.org/dc/elements/1.1/"
   xmlns:cc="http://creativecommons.org/ns#"
   xmlns:rdf="http://www.w3.org/1999/02/22-rdf-syntax-ns#"
   xmlns:svg="http://www.w3.org/2000/svg"
   xmlns="http://www.w3.org/2000/svg"
   xmlns:inkscape="http://www.inkscape.org/namespaces/inkscape"
   version="1.0"
   width="581.98816"
   height="248.03149"
   id="svg3907">
  <metadata
     id="metadata11">
    <rdf:RDF>
      <cc:Work
         rdf:about="">
        <dc:format>image/svg+xml</dc:format>
        <dc:type
           rdf:resource="http://purl.org/dc/dcmitype/StillImage" />
      </cc:Work>
    </rdf:RDF>
  </metadata>
  <defs
     id="defs3909" />
  <g
     id="layer1">
    <g
       transform="matrix(0.6376968,0,0,0.6376968,-25.659133,-49.491419)"
       id="g4044">
      <rect
         width="187.89629"
         height="247.79782"
         x="414.19098"
         y="150.25525"
         id="rect3959"
         style="fill:#ffffff;fill-opacity:1;fill-rule:nonzero;stroke:none;marker:none;visibility:visible;display:inline;overflow:visible" />
      <path
         d="m 68,115.65625 0,63.59375 67.59375,0 0,-63.59375 -67.59375,0 z m 77.875,0 0,63.59375 67.59375,0 0,-63.59375 -67.59375,0 z m 77.84375,0 0,63.59375 67.59375,0 0,-63.59375 -67.59375,0 z M 259.78125,124 c 0.27277,0 0.44599,0 0.71875,0 0.61375,0 1.21578,-0.0142 1.875,0.0313 0.35612,0.0152 0.73764,0.0483 1.09375,0.0937 0.54555,0.0455 1.04725,0.11173 1.5625,0.1875 l 0.375,0.0313 c 0.28036,0.0682 0.61831,0.12688 0.90625,0.1875 0.37128,0.053 0.6988,0.12688 1.0625,0.1875 0.3637,0.0606 0.69786,0.14298 1.03125,0.21875 0.20458,0.0682 0.42041,0.0947 0.625,0.125 0.30308,0.10607 0.61927,0.18181 0.9375,0.25 0.25004,0.0758 0.51606,0.15056 0.78125,0.21875 l 0.21875,0.0625 c 0.2652,0.0758 0.51606,0.1818 0.78125,0.25 0.35612,0.0909 0.68176,0.19884 1,0.3125 0.28793,0.0833 0.53973,0.17423 0.8125,0.25 0.33339,0.13639 0.67325,0.26135 0.96875,0.375 0.55313,0.18943 1.02076,0.35603 1.4375,0.5 0.90168,0.35612 1.4375,0.5625 1.4375,0.5625 l 0,8.53125 -0.875,-0.46875 c -0.31824,-0.18185 -0.73381,-0.41378 -1.21875,-0.65625 -0.25762,-0.13639 -0.56433,-0.27837 -0.875,-0.4375 -0.38643,-0.18185 -0.77077,-0.37309 -1.1875,-0.5625 -0.48494,-0.24247 -1.0018,-0.45261 -1.5625,-0.6875 -0.40159,-0.1667 -0.83325,-0.34087 -1.25,-0.5 0,0 -0.29633,-0.0757 -0.78125,-0.25 -0.2652,-0.0985 -0.64577,-0.19221 -1.0625,-0.34375 -0.27278,-0.0758 -0.55677,-0.18181 -0.875,-0.25 -0.5304,-0.14397 -1.105,-0.25471 -1.71875,-0.40625 -0.40159,-0.0758 -0.84936,-0.15814 -1.28125,-0.21875 -0.50009,-0.0833 -1.03209,-0.15055 -1.5625,-0.21875 -0.28793,-0.0152 -0.60318,-0.009 -0.90625,-0.0625 -0.43189,-0.0152 -0.82663,-0.0313 -1.28125,-0.0313 -0.20458,-0.0152 -0.42895,-1e-5 -0.65625,0 -0.59101,0 -1.1997,0.0255 -1.84375,0.0937 -0.33339,0.0152 -0.63535,0.0407 -0.96875,0.0937 -0.34097,0.0455 -0.69785,0.1108 -1.03125,0.15625 -0.28793,0.0606 -0.58801,0.11173 -0.90625,0.1875 -0.28793,0.0833 -0.60317,0.15908 -0.90625,0.25 -0.32582,0.11365 -0.6581,0.16759 -0.96875,0.28125 -0.30308,0.0985 -0.56434,0.20641 -0.875,0.3125 -0.28793,0.12124 -0.60317,0.24619 -0.90625,0.375 -1.82608,0.84106 -3.63514,2.04896 -5.21875,3.625 -0.10608,0.10608 -0.19884,0.24524 -0.3125,0.34375 -0.197,0.20458 -0.36548,0.41284 -0.5625,0.625 -0.14396,0.16669 -0.27743,0.3494 -0.40625,0.53125 -0.3637,0.50009 -0.68082,0.99233 -0.96875,1.5 -0.12881,0.20458 -0.26135,0.42894 -0.375,0.65625 -0.1667,0.28793 -0.28501,0.56434 -0.40625,0.875 -0.12124,0.20459 -0.21306,0.42799 -0.28125,0.625 -0.14397,0.34855 -0.2301,0.65051 -0.34375,0.96875 -0.0985,0.33339 -0.18181,0.64293 -0.25,0.96875 -0.12123,0.50009 -0.22064,0.97436 -0.28125,1.40625 -0.0909,0.71982 -0.1411,1.34366 -0.15625,1.84375 l 0,0.5625 c 0,0.22731 -0.0152,0.51037 0,0.84375 0.0303,0.24247 0.0322,0.51605 0.0625,0.78125 0.0833,0.71224 0.1941,1.55857 0.40625,2.4375 0.0985,0.32581 0.1676,0.65052 0.28125,0.96875 0.12124,0.41675 0.31056,0.84934 0.5,1.28125 0.0985,0.2652 0.22157,0.53879 0.3125,0.78125 0.18185,0.31824 0.31814,0.61832 0.5,0.90625 0.10608,0.21216 0.26228,0.41285 0.40625,0.625 0.14397,0.20458 0.24712,0.42042 0.40625,0.625 0.18185,0.20459 0.36456,0.45926 0.53125,0.65625 0.33339,0.39401 0.68365,0.80107 1.0625,1.1875 l 0.125,0.0937 0.0937,0.0937 0.125,0.125 0.28125,0.28125 c 0.20458,0.15154 0.45261,0.32666 0.6875,0.53125 0.25004,0.18185 0.50753,0.37213 0.75,0.53125 0.21973,0.15912 0.39675,0.30869 0.59375,0.4375 0.22731,0.12124 0.428,0.2462 0.625,0.375 0.40916,0.21974 0.8342,0.44315 1.28125,0.625 0.18943,0.0985 0.38065,0.18275 0.5625,0.28125 0.13639,0.0455 0.26135,0.0947 0.375,0.125 0.19701,0.0758 0.38066,0.15814 0.5625,0.21875 1.22749,0.43189 2.46852,0.77268 3.71875,1 0.81075,0.10608 1.53113,0.20454 2.28125,0.25 0.65163,0.0455 1.29252,0.0625 1.90625,0.0625 0.28793,0 0.58895,-0.0313 0.9375,-0.0313 0.48494,-0.0303 1.05766,-0.0644 1.65625,-0.125 0.39401,-0.0303 0.78686,-0.0956 1.21875,-0.15625 0.18185,-0.0152 0.36549,-0.0559 0.5625,-0.0937 1.51542,-0.28793 3.23831,-0.70063 5.125,-1.375 0.98502,-0.34854 2.02538,-0.77359 3.09375,-1.28125 0.59859,-0.31066 1.2461,-0.61926 1.875,-0.9375 0.56828,-0.31824 1.15142,-0.65997 1.75,-1.03125 l 0.59375,-0.34375 c 0.0985,-0.053 0.19884,-0.12688 0.3125,-0.1875 l 0,8.6875 c -0.15912,0.053 -0.31625,0.14297 -0.4375,0.21875 -0.37128,0.14397 -0.72058,0.30963 -1.03125,0.46875 -0.39401,0.15912 -0.73763,0.31722 -1.09375,0.46875 -0.5304,0.2652 -1.04351,0.43464 -1.4375,0.59375 -0.31067,0.11365 -0.59182,0.22063 -0.78125,0.28125 l -0.375,0.125 c -0.43189,0.13639 -0.8181,0.29258 -1.25,0.40625 -0.3637,0.12123 -0.74709,0.24525 -1.15625,0.34375 -0.50767,0.12123 -1.05766,0.27743 -1.65625,0.40625 -0.37128,0.0606 -0.76223,0.15813 -1.15625,0.21875 -0.6289,0.10608 -1.26408,0.21305 -1.96875,0.28125 -0.44705,0.0682 -0.92891,0.12594 -1.40625,0.15625 l -0.25,0.0313 c -1.21233,0.10608 -2.52059,0.15625 -3.9375,0.15625 l -0.5625,0 c -0.38644,-0.0152 -0.78591,-9.6e-4 -1.1875,-0.0313 -0.78044,-0.0303 -1.54627,-0.12782 -2.28125,-0.21875 -0.74256,-0.0758 -1.46673,-0.19127 -2.15625,-0.3125 -0.84864,-0.18185 -1.68074,-0.38159 -2.46875,-0.59375 -0.45463,-0.12881 -0.89576,-0.27839 -1.3125,-0.4375 -0.43947,-0.15154 -0.84842,-0.27838 -1.25,-0.4375 -1.08353,-0.45462 -2.06707,-0.93741 -2.96875,-1.4375 -0.43189,-0.25762 -0.84935,-0.53878 -1.28125,-0.78125 -0.38643,-0.25004 -0.73762,-0.46113 -1.09375,-0.71875 -0.26519,-0.20458 -0.5312,-0.43557 -0.78125,-0.625 -0.28035,-0.22731 -0.53878,-0.42801 -0.78125,-0.625 -0.3637,-0.30309 -0.69691,-0.6259 -1,-0.90625 l -0.15625,-0.1875 c -0.35613,-0.34097 -0.70638,-0.74709 -1.0625,-1.15625 -0.28036,-0.33339 -0.60221,-0.65998 -0.875,-1.03125 -0.27277,-0.35613 -0.5634,-0.69974 -0.84375,-1.09375 -0.18185,-0.28793 -0.37306,-0.59559 -0.5625,-0.90625 -0.23489,-0.40159 -0.48386,-0.78591 -0.71875,-1.1875 -0.37886,-0.69709 -0.73668,-1.47713 -1.0625,-2.25 -0.18943,-0.49251 -0.38823,-0.97719 -0.5625,-1.5 -0.14396,-0.43189 -0.25376,-0.84937 -0.375,-1.28125 -0.0758,-0.35612 -0.1818,-0.69027 -0.25,-1.03125 -0.0303,-0.18185 -0.0407,-0.32573 -0.0937,-0.5 -0.0606,-0.39401 -0.14203,-0.81053 -0.1875,-1.25 l -0.0313,-0.25 c -0.0379,-0.37886 -0.0947,-0.73006 -0.125,-1.09375 -0.0227,-0.35613 -0.0313,-0.72247 -0.0313,-1.09375 0,-0.47736 0.0322,-0.94404 0.0625,-1.40625 0.0455,-0.6289 0.0956,-1.25274 0.15625,-1.84375 0.25763,-1.85639 0.71486,-3.62093 1.34375,-5.25 0.5304,-1.31842 1.11634,-2.58217 1.84375,-3.71875 0.10608,-0.21215 0.21493,-0.38065 0.34375,-0.5625 0.18943,-0.28793 0.37401,-0.60222 0.59375,-0.875 0.25004,-0.35612 0.50942,-0.69786 0.8125,-1.03125 0.2652,-0.31824 0.51699,-0.64957 0.8125,-0.9375 0.25005,-0.32582 0.517,-0.60981 0.8125,-0.875 0.31824,-0.32582 0.6827,-0.65052 1.03125,-0.96875 0.40916,-0.3334 0.82567,-0.69028 1.25,-1.03125 0.20458,-0.15154 0.40433,-0.27838 0.59375,-0.4375 0.25762,-0.17427 0.52362,-0.3494 0.78125,-0.53125 0.44705,-0.30309 0.89764,-0.56339 1.375,-0.84375 0.51524,-0.27277 1.03304,-0.53972 1.59375,-0.8125 0.62132,-0.31824 1.28775,-0.61075 2,-0.90625 1.34873,-0.5304 2.83873,-0.95638 4.4375,-1.3125 0.2652,-0.0455 0.517,-0.11837 0.8125,-0.15625 0.18186,-0.0455 0.36549,-0.071 0.5625,-0.0937 l 0.4375,-0.0937 0.375,-0.0625 0.3125,-0.0313 c 0.40917,-0.0606 0.80958,-0.0947 1.21875,-0.125 0.28036,-0.0303 0.54729,-0.0398 0.8125,-0.0625 0.48493,-0.0303 0.98476,-0.0473 1.5,-0.0625 z M 85.75,124.5625 l 14.84375,0 c 8.00142,0 11.53125,4.1875 11.53125,4.1875 0,0 3.25,2.81447 3.25,7.65625 0,4.83419 -2.1836,6.83891 -2.8125,7.4375 -1.30326,1.33357 -3.03125,2.09375 -3.03125,2.09375 0,0 3.7883,0.84227 6.78125,3.8125 3.49305,3.50819 3.21875,8.03124 3.21875,8.03125 0,0 0.26582,4.39894 -3.5,8.1875 -4.64476,4.62961 -13.0625,4.40624 -13.0625,4.40625 l -17.21875,0 0,-45.8125 z m 77.84375,0 14.875,0 c 7.99384,0 11.53125,4.1875 11.53125,4.1875 0,0 3.24999,2.81447 3.25,7.65625 0,4.83419 -2.19877,6.83891 -2.8125,7.4375 -1.33357,1.33357 -3.0625,2.09375 -3.0625,2.09375 0,0 3.79587,0.84227 6.78125,3.8125 3.49304,3.50819 3.25,8.03124 3.25,8.03125 0,0 0.2734,4.39894 -3.5,8.1875 -4.63719,4.62961 -13.0625,4.40624 -13.0625,4.40625 l -17.25,0 0,-45.8125 z m -69.65625,7.25 0,11.84375 3.9375,0 c -2e-6,1e-5 0.252781,0 0.59375,0 0.272772,-0.0152 0.61832,-0.0322 0.90625,-0.0625 0.79559,-0.0606 1.925,-0.15809 3.03125,-0.46875 0.22731,-0.0682 0.42136,-0.1354 0.65625,-0.21875 0.86379,-0.32582 1.71579,-0.74704 2.375,-1.40625 0.50766,-0.49252 0.85886,-1.05672 1.09375,-1.625 0.27278,-0.67436 0.35321,-1.31905 0.40625,-1.78125 0.0379,-0.41674 0.0313,-0.6875 0.0313,-0.6875 l 0,-0.5 c -0.053,-0.50768 -0.16092,-1.33792 -0.5625,-2.15625 -0.19701,-0.38643 -0.45544,-0.76887 -0.78125,-1.125 -0.47736,-0.43947 -1.01789,-0.79636 -1.59375,-1.03125 -1.10626,-0.50007 -2.36155,-0.68181 -3.4375,-0.75 -0.44705,-0.0303 -0.885358,-0.0313 -1.21875,-0.0313 l -5.4375,0 z m 77.875,0 0,11.84375 3.90625,0 c -1e-5,1e-5 0.28403,0 0.625,0 0.29551,-0.0152 0.58707,-0.0322 0.875,-0.0625 0.81074,-0.0606 1.94866,-0.15809 3.0625,-0.46875 0.21973,-0.0682 0.43557,-0.1354 0.625,-0.21875 0.87894,-0.32582 1.73189,-0.74704 2.40625,-1.40625 0.50767,-0.49252 0.83519,-1.05672 1.0625,-1.625 0.28793,-0.67436 0.39203,-1.31905 0.4375,-1.78125 0.0152,-0.41674 0.0313,-0.6875 0.0313,-0.6875 0,1e-5 0,-0.17419 0,-0.5 -0.0152,-0.50768 -0.15334,-1.33792 -0.5625,-2.15625 -0.19701,-0.38643 -0.4488,-0.76887 -0.8125,-1.125 -0.4319,-0.43947 -0.98664,-0.79636 -1.5625,-1.03125 -1.10627,-0.50765 -2.38428,-0.67423 -3.4375,-0.75 -0.47735,-0.0303 -0.87021,-0.0313 -1.21875,-0.0313 l -5.4375,0 z m -77.875,19 0,12.5 8.125,0 c 0,0 0.14863,-0.0313 0.40625,-0.0313 0.28035,0 0.68647,-0.0322 1.15625,-0.0625 0.87894,-0.0833 2.03484,-0.23856 3.15625,-0.625 1.03049,-0.34098 2.01596,-0.83604 2.78125,-1.59375 0.28793,-0.3031 0.5369,-0.61075 0.71875,-0.90625 0.6289,-1.02291 0.77461,-2.02547 0.8125,-2.59375 0.0303,-0.27278 0.0313,-0.40625 0.0313,-0.40625 l 0,-0.3125 c -0.0303,-0.23489 -0.0587,-0.69593 -0.1875,-1.21875 -0.14396,-0.59859 -0.42226,-1.2622 -0.9375,-1.90625 -0.0833,-0.11365 -0.20642,-0.22252 -0.3125,-0.34375 -0.24247,-0.21973 -0.47629,-0.43557 -0.71875,-0.625 -0.47736,-0.32582 -0.94687,-0.62402 -1.5,-0.84375 -0.73498,-0.33339 -1.57466,-0.55205 -2.46875,-0.71875 -0.45463,-0.0833 -0.90616,-0.15719 -1.40625,-0.1875 -0.2955,-0.053 -0.63442,-0.0634 -0.9375,-0.0937 -0.29551,-0.0152 -0.58707,-0.0313 -0.875,-0.0313 l -7.84375,0 z m 77.875,0 0,12.5 8.09375,0 c 0,0 0.18746,-0.0313 0.4375,-0.0313 0.28036,0 0.67889,-0.0322 1.15625,-0.0625 0.84863,-0.0833 2.01969,-0.23856 3.15625,-0.625 1.01534,-0.34098 1.98471,-0.83604 2.75,-1.59375 0.28793,-0.3031 0.51417,-0.61075 0.71875,-0.90625 0.6289,-1.02291 0.81344,-2.02547 0.84375,-2.59375 0.0152,-0.27278 0,-0.40625 0,-0.40625 0,0 0,-0.13065 0,-0.3125 0,-0.23489 -0.0199,-0.69593 -0.15625,-1.21875 -0.15912,-0.59859 -0.42984,-1.2622 -0.9375,-1.90625 -0.12123,-0.11365 -0.20642,-0.22252 -0.3125,-0.34375 -0.23489,-0.21973 -0.49238,-0.43557 -0.75,-0.625 -0.44705,-0.32582 -0.95445,-0.62402 -1.5,-0.84375 -0.74256,-0.33339 -1.5595,-0.55205 -2.46875,-0.71875 -0.44706,-0.0833 -0.95257,-0.15719 -1.4375,-0.1875 -0.31824,-0.053 -0.59559,-0.0634 -0.90625,-0.0937 -0.28794,-0.0152 -0.58707,-0.0313 -0.875,-0.0313 l -7.8125,0 z m 95.65625,43.5 c -17.04089,1e-5 -28.21875,12.41408 -28.21875,27 0,14.26768 10.86155,26.96875 28.03125,26.96875 17.82891,-1e-5 28.46875,-12.79957 28.46875,-26.96875 10e-6,-14.64653 -10.92969,-27 -28.28125,-27 z m -136.6875,0.375 -22.4375,52.5 c -3.3482,-4.60621 -4.72027,-6.51468 -6.90625,-10.03125 C 97.436786,230.62479 94.538727,225.7695 89.75,222.625 95.364627,220.36703 98.53125,215.83441 98.53125,209.75 98.531247,200.64232 91.888248,195 81.25,195 l -13.25,0 0,52.59375 7.5625,0 0,-22.84375 3.15625,0 c 3.871895,0 7.012973,1.23388 13.96875,12.03125 l 6.9375,10.8125 9,0 c -0.0113,-0.0155 -0.02,-0.0158 -0.0313,-0.0313 l 7.3125,0 6.625,-15.46875 22.34375,0 7.03125,15.46875 7.6875,0 -23.53125,-52.875 -5.28125,0 z M 165.875,195 l 0,52.5625 20.5,0 c 17.35156,0 27.90625,-12.75518 27.90625,-26.25 0,-12.40371 -8.54864,-26.3125 -27.96875,-26.3125 l -20.4375,0 z m 57.09375,0 0,52.59375 7.5625,0 0,-52.59375 -7.5625,0 z m 44.5,6.28125 c 11.78998,1e-5 20.5,8.45344 20.5,20.03125 -10e-6,11.47173 -8.70246,20.03125 -20.5,20.03125 -11.71418,0 -20.4375,-8.5671 -20.4375,-20.03125 0,-11.57781 8.72331,-20.03125 20.4375,-20.03125 z M 75.5625,201.5 l 4.875,0 c 7.304321,-1e-5 10.220634,2.99723 10.28125,7.9375 0.08334,4.40229 -2.204062,8.53125 -10.28125,8.53125 l -4.875,0 0,-16.46875 z m 97.875,0.28125 11.625,0 c 14.72989,0 21.4375,8.9451 21.4375,19.5 -1e-5,6.48599 -3.92216,19.5 -21.03125,19.5 l -12.03125,0 0,-39 z m -40.125,4.5 8.5,19.03125 -16.34375,0 7.84375,-19.03125 z"
         inkscape:connector-curvature="0"
         id="path326"
         style="fill:#000000;fill-opacity:1;fill-rule:evenodd" />
      <path
         d="m 507.59,105.39171 c -92.00114,0 -166.60526,74.62685 -166.60526,166.68104 0,92.06933 74.60412,166.70376 166.60526,166.70376 92.02387,0 166.59768,-74.64201 166.59768,-166.70376 0,-92.06176 -74.58139,-166.68104 -166.59768,-166.68104 m -36.264,55.42648 c 32.90734,-18.62451 94.70617,-6.3496 96.89595,38.65079 1.94731,39.62065 -46.98559,66.36024 -76.45293,82.50703 -0.7956,-0.80317 -6.47842,-6.44053 -7.68318,-7.62256 26.40619,-19.96565 55.95688,-55.61591 42.89396,-91.01612 -9.0016,-24.3831 -49.42542,-23.88301 -60.02578,-1.11383 10.10785,-3.5082 24.52707,-4.04617 32.30875,4.72811 8.11507,9.19102 3.31877,23.54205 -6.81939,28.77782 -15.83614,8.14539 -43.68198,1.18203 -44.98524,-19.44283 -0.40159,-15.54821 10.44124,-28.77783 23.86786,-35.46841 m 99.20696,213.27262 c -30.62663,23.63297 -89.7962,28.23985 -121.49121,5.16001 -13.29023,-9.67596 -24.62557,-21.13253 -24.22398,-36.83986 1.14414,-41.82559 71.12623,-24.05729 54.32022,7.36494 -6.91031,11.02468 -23.58751,10.99437 -34.43034,6.88758 18.77605,27.30787 69.60324,26.63351 91.06158,2.7126 10.76706,-12.00212 12.03244,-27.95192 10.69887,-43.65167 -1.59877,-18.84424 -10.68371,-30.68725 -22.13271,-44.45484 7.06186,-5.0615 11.22168,-7.86503 17.99561,-13.34327 49.5315,11.99455 76.88483,78.64272 28.20196,116.16451 m 17.90469,-143.60876 c -14.28283,0 -14.32072,-21.8372 0,-21.8372 13.98733,0 13.95702,21.8372 0,21.8372 m 0,-36.95352 c -14.28283,0 -14.32072,-21.80689 0,-21.80689 13.98733,0 13.95702,21.80689 0,21.80689"
         inkscape:connector-curvature="0"
         id="path350"
         style="fill:#d3021d" />
    </g>
  </g>
</svg>
