<?xml version="1.0" encoding="UTF-8" standalone="no"?>
<!-- Created with Inkscape (http://www.inkscape.org/) -->

<svg
   xmlns:dc="http://purl.org/dc/elements/1.1/"
   xmlns:cc="http://creativecommons.org/ns#"
   xmlns:rdf="http://www.w3.org/1999/02/22-rdf-syntax-ns#"
   xmlns:svg="http://www.w3.org/2000/svg"
   xmlns="http://www.w3.org/2000/svg"
   xmlns:inkscape="http://www.inkscape.org/namespaces/inkscape"
   version="1.0"
   width="394"
   height="298"
   id="svg2">
  <metadata
     id="metadata28">
    <rdf:RDF>
      <cc:Work
         rdf:about="">
        <dc:format>image/svg+xml</dc:format>
        <dc:type
           rdf:resource="http://purl.org/dc/dcmitype/StillImage" />
      </cc:Work>
    </rdf:RDF>
  </metadata>
  <defs
     id="defs26" />
  <g
     transform="translate(-295.58445,-204.4031)"
     id="layer1">
    <rect
       width="393.99442"
       height="298"
       x="295.58444"
       y="204.40311"
       id="rect1139"
       style="fill:#003181" />
    <path
       d="m 98.264,498.027 5.534,0 0,5.207 -5.534,0 0,-5.207 z m 3.486,0.724 c -0.025,-0.004 -0.049,-0.008 -0.075,-0.012 l -0.03,-0.004 c -0.042,-0.006 -0.085,-0.011 -0.128,-0.015 -0.03,-0.004 -0.06,-0.006 -0.088,-0.008 -0.053,-0.003 -0.105,-0.004 -0.154,-0.004 -0.024,0 -0.036,0 -0.059,0 -0.041,10e-4 -0.082,0.003 -0.123,0.005 -0.022,0.002 -0.044,0.004 -0.067,0.007 -0.033,0.003 -0.065,0.006 -0.097,0.01 l -0.027,0.004 -0.03,0.004 -0.036,0.006 c -0.017,0.003 -0.032,0.006 -0.048,0.009 -0.022,0.004 -0.043,0.009 -0.065,0.013 -0.131,0.027 -0.253,0.064 -0.364,0.108 -0.058,0.022 -0.114,0.046 -0.166,0.072 -0.045,0.021 -0.087,0.044 -0.128,0.068 -0.039,0.022 -0.077,0.045 -0.113,0.069 -0.021,0.015 -0.042,0.028 -0.062,0.042 -0.017,0.014 -0.034,0.025 -0.051,0.038 -0.035,0.027 -0.069,0.056 -0.1,0.083 -0.03,0.026 -0.059,0.052 -0.086,0.079 -0.023,0.023 -0.046,0.047 -0.068,0.072 -0.022,0.023 -0.044,0.049 -0.065,0.076 -0.023,0.027 -0.046,0.057 -0.068,0.087 -0.015,0.021 -0.031,0.045 -0.046,0.067 -0.01,0.016 -0.02,0.031 -0.031,0.048 -0.057,0.095 -0.108,0.195 -0.149,0.304 -0.052,0.134 -0.089,0.277 -0.11,0.432 -0.006,0.048 -0.012,0.099 -0.014,0.148 -0.003,0.038 -0.004,0.078 -0.004,0.117 0,0.029 0,0.059 0.002,0.088 0.002,0.029 0.004,0.06 0.008,0.09 l 0.002,0.021 c 0.005,0.035 0.01,0.069 0.017,0.104 0.003,0.014 0.005,0.026 0.008,0.041 0.006,0.027 0.012,0.056 0.02,0.084 0.01,0.035 0.02,0.07 0.031,0.104 0.015,0.043 0.03,0.084 0.047,0.124 0.027,0.063 0.056,0.125 0.087,0.183 0.019,0.033 0.038,0.066 0.058,0.099 0.015,0.025 0.032,0.049 0.048,0.073 0.021,0.03 0.044,0.061 0.066,0.09 0.023,0.03 0.048,0.059 0.071,0.086 0.03,0.034 0.059,0.065 0.088,0.093 l 0.016,0.016 c 0.024,0.022 0.049,0.048 0.079,0.072 0.021,0.018 0.041,0.035 0.064,0.054 0.021,0.017 0.043,0.033 0.067,0.051 0.027,0.02 0.057,0.04 0.088,0.06 0.033,0.022 0.068,0.043 0.105,0.063 0.073,0.041 0.153,0.081 0.242,0.116 0.033,0.014 0.067,0.025 0.103,0.037 0.036,0.013 0.071,0.024 0.109,0.034 0.063,0.02 0.13,0.035 0.2,0.049 0.057,0.011 0.116,0.021 0.177,0.027 0.061,0.006 0.123,0.013 0.188,0.017 0.032,0.002 0.064,0.003 0.096,0.004 0.015,0 0.031,0 0.045,0 0.117,0 0.224,-0.004 0.324,-0.014 l 0.019,-10e-4 c 0.04,-0.004 0.079,-0.008 0.116,-0.013 0.057,-0.007 0.111,-0.015 0.163,-0.024 0.033,-0.006 0.064,-0.013 0.095,-0.019 0.047,-0.01 0.093,-0.022 0.136,-0.033 0.032,-0.008 0.063,-0.017 0.092,-0.027 0.036,-0.01 0.07,-0.021 0.103,-0.032 l 0.031,-0.012 c 0.016,-0.005 0.037,-0.013 0.063,-0.022 0.033,-0.013 0.073,-0.029 0.119,-0.048 0.027,-0.013 0.057,-0.025 0.087,-0.039 0.027,-0.013 0.055,-0.026 0.084,-0.04 0.012,-0.006 0.024,-0.012 0.036,-0.019 l 0,-0.71 c -0.008,0.006 -0.016,0.012 -0.025,0.017 l -0.049,0.028 c -0.049,0.03 -0.095,0.058 -0.142,0.083 -0.052,0.028 -0.102,0.055 -0.152,0.077 -0.088,0.041 -0.172,0.076 -0.253,0.106 -0.155,0.055 -0.297,0.091 -0.423,0.112 -0.014,0.003 -0.029,0.006 -0.044,0.008 -0.034,0.005 -0.067,0.009 -0.099,0.013 -0.05,0.005 -0.095,0.008 -0.137,0.01 -0.027,0.001 -0.053,0.002 -0.075,0.002 -0.051,0 -0.103,-0.002 -0.155,-0.005 -0.062,-0.005 -0.125,-0.012 -0.189,-0.021 -0.102,-0.019 -0.206,-0.044 -0.306,-0.08 -0.015,-0.006 -0.031,-0.013 -0.044,-0.018 -0.011,-0.004 -0.02,-0.008 -0.03,-0.012 -0.017,-0.007 -0.033,-0.015 -0.049,-0.021 -0.035,-0.017 -0.07,-0.034 -0.103,-0.054 -0.016,-0.01 -0.033,-0.02 -0.05,-0.03 -0.017,-0.01 -0.034,-0.021 -0.05,-0.032 -0.021,-0.016 -0.041,-0.03 -0.061,-0.045 -0.02,-0.017 -0.04,-0.032 -0.056,-0.046 l -0.024,-0.022 -0.011,-0.01 -0.007,-0.007 -0.009,-0.009 c -0.032,-0.031 -0.061,-0.063 -0.087,-0.096 -0.016,-0.018 -0.029,-0.036 -0.043,-0.054 -0.013,-0.018 -0.025,-0.035 -0.037,-0.053 -0.01,-0.017 -0.02,-0.033 -0.03,-0.051 -0.015,-0.024 -0.028,-0.05 -0.041,-0.074 -0.01,-0.021 -0.02,-0.042 -0.029,-0.063 -0.015,-0.036 -0.028,-0.072 -0.039,-0.106 -0.009,-0.026 -0.016,-0.053 -0.022,-0.078 -0.019,-0.074 -0.029,-0.143 -0.034,-0.2 -0.002,-0.022 -0.003,-0.043 -0.004,-0.062 -0.002,-0.028 -0.002,-0.053 -0.002,-0.072 0,-0.014 0,-0.028 0,-0.046 0.002,-0.039 0.005,-0.092 0.014,-0.15 0.005,-0.035 0.013,-0.073 0.022,-0.113 0.006,-0.026 0.014,-0.054 0.022,-0.081 0.008,-0.025 0.017,-0.051 0.027,-0.077 0.007,-0.018 0.014,-0.036 0.022,-0.053 0.01,-0.024 0.022,-0.048 0.034,-0.073 0.009,-0.018 0.02,-0.036 0.031,-0.054 0.023,-0.041 0.049,-0.081 0.08,-0.121 0.01,-0.015 0.021,-0.029 0.033,-0.043 0.015,-0.018 0.031,-0.037 0.047,-0.054 0.009,-0.009 0.017,-0.019 0.026,-0.028 0.13,-0.13 0.276,-0.227 0.428,-0.296 0.024,-0.011 0.048,-0.02 0.072,-0.03 0.023,-0.009 0.047,-0.018 0.072,-0.025 0.026,-0.01 0.053,-0.018 0.079,-0.025 0.025,-0.006 0.05,-0.013 0.075,-0.018 0.025,-0.007 0.05,-0.012 0.075,-0.017 0.028,-0.005 0.055,-0.009 0.082,-0.013 0.028,-0.003 0.055,-0.006 0.082,-0.008 0.051,-0.005 0.102,-0.007 0.152,-0.007 0.016,0 0.033,0 0.049,0 0.037,0.001 0.073,0.002 0.108,0.005 0.025,0.001 0.048,0.003 0.071,0.005 0.046,0.004 0.089,0.01 0.129,0.016 0.037,0.005 0.072,0.012 0.105,0.019 0.052,0.01 0.098,0.021 0.14,0.032 0.027,0.008 0.052,0.015 0.074,0.021 0.035,0.01 0.065,0.019 0.087,0.027 0.04,0.014 0.061,0.021 0.061,0.021 0.035,0.012 0.069,0.026 0.103,0.039 0.046,0.018 0.088,0.038 0.13,0.057 0.034,0.016 0.067,0.031 0.097,0.048 0.026,0.012 0.049,0.023 0.072,0.035 0.038,0.021 0.071,0.038 0.098,0.054 l 0.072,0.039 0,-0.697 c 0,0 -0.043,-0.019 -0.118,-0.047 -0.033,-0.013 -0.072,-0.027 -0.117,-0.043 -0.025,-0.009 -0.051,-0.019 -0.078,-0.028 -0.023,-0.007 -0.046,-0.015 -0.069,-0.021 -0.027,-0.01 -0.054,-0.019 -0.083,-0.027 -0.02,-0.006 -0.041,-0.012 -0.063,-0.019 l -0.018,-0.006 c -0.021,-0.006 -0.042,-0.012 -0.063,-0.017 -0.026,-0.007 -0.052,-0.014 -0.078,-0.021 -0.016,-0.004 -0.033,-0.008 -0.05,-0.012 -0.027,-0.006 -0.055,-0.013 -0.084,-0.018 -0.028,-0.006 -0.058,-0.012 -0.087,-0.017"
       inkscape:connector-curvature="0"
       transform="matrix(10.782256,0,0,10.782256,-528.00737,-5113.7074)"
       id="path1149"
       style="fill:#ffffff" />
    <path
       d="m 94.011,500.899 0,1.023 0.664,0 c 0,0 0.014,-0.001 0.035,-0.002 0.023,0 0.055,-0.002 0.093,-0.005 0.072,-0.007 0.167,-0.02 0.259,-0.051 0.084,-0.028 0.165,-0.07 0.227,-0.132 0.024,-0.024 0.044,-0.049 0.059,-0.074 0.053,-0.082 0.066,-0.166 0.068,-0.213 0.003,-0.021 0.002,-0.033 0.002,-0.033 0,0 10e-4,-0.009 0,-0.025 -0.001,-0.02 -0.003,-0.058 -0.014,-0.099 -0.012,-0.048 -0.036,-0.104 -0.077,-0.156 -0.008,-0.01 -0.017,-0.02 -0.026,-0.028 -0.018,-0.019 -0.038,-0.036 -0.06,-0.053 -0.036,-0.026 -0.078,-0.049 -0.123,-0.068 -0.059,-0.026 -0.126,-0.045 -0.2,-0.06 -0.037,-0.007 -0.077,-0.013 -0.118,-0.017 -0.025,-0.002 -0.05,-0.004 -0.077,-0.005 -0.022,-0.001 -0.046,-0.003 -0.07,-0.003 -0.236,10e-4 -0.642,10e-4 -0.642,10e-4"
       inkscape:connector-curvature="0"
       transform="matrix(10.782256,0,0,10.782256,-528.00737,-5113.7074)"
       id="path1151"
       style="fill:#ffffff" />
    <path
       d="m 94.011,499.343 0,0.97 0.322,0 c 0,0 0.021,0 0.049,-10e-4 0.023,-0.001 0.049,-0.002 0.073,-0.003 0.066,-0.005 0.158,-0.014 0.249,-0.04 0.018,-0.005 0.036,-0.01 0.054,-0.018 0.072,-0.024 0.14,-0.063 0.194,-0.114 0.043,-0.042 0.071,-0.089 0.089,-0.134 0.023,-0.057 0.031,-0.109 0.034,-0.146 0.003,-0.034 0.003,-0.055 0.003,-0.055 0,0 0,-0.017 -0.001,-0.042 -0.002,-0.042 -0.011,-0.111 -0.044,-0.177 -0.016,-0.031 -0.038,-0.063 -0.068,-0.092 -0.036,-0.036 -0.08,-0.063 -0.127,-0.084 -0.091,-0.04 -0.195,-0.056 -0.282,-0.062 -0.038,-0.003 -0.072,-0.003 -0.102,-0.003 l -0.443,0 0,0.001 z"
       inkscape:connector-curvature="0"
       transform="matrix(10.782256,0,0,10.782256,-528.00737,-5113.7074)"
       id="path1153"
       style="fill:#ffffff" />
    <path
       d="m 91.887,498.027 5.534,0 0,5.207 -5.534,0 0,-5.207 z m 1.452,0.73 0,3.75 1.412,0 c 0,0 0.688,0.019 1.068,-0.361 0.31,-0.309 0.287,-0.667 0.287,-0.667 0,0 0.023,-0.374 -0.264,-0.659 -0.244,-0.245 -0.555,-0.311 -0.555,-0.311 0,0 0.14,-0.066 0.248,-0.174 0.051,-0.051 0.231,-0.213 0.231,-0.608 0,-0.397 -0.265,-0.627 -0.265,-0.627 0,0 -0.29,-0.343 -0.945,-0.343 l -1.217,0 0,0 z"
       inkscape:connector-curvature="0"
       transform="matrix(10.782256,0,0,10.782256,-528.00737,-5113.7074)"
       id="path1155"
       style="fill:#ffffff" />
    <path
       d="m 87.635,500.899 0,1.023 0.664,0 c 0,0 0.014,-0.001 0.035,-0.002 0.023,0 0.054,-0.002 0.093,-0.005 0.072,-0.007 0.167,-0.02 0.259,-0.051 0.084,-0.028 0.164,-0.07 0.227,-0.132 0.023,-0.024 0.043,-0.049 0.059,-0.074 0.053,-0.082 0.065,-0.166 0.068,-0.213 0.002,-0.021 0.002,-0.033 0.002,-0.033 0,0 0,-0.009 0,-0.025 -0.001,-0.02 -0.004,-0.058 -0.014,-0.099 -0.012,-0.048 -0.036,-0.104 -0.077,-0.156 -0.008,-0.01 -0.017,-0.02 -0.026,-0.028 -0.019,-0.019 -0.038,-0.036 -0.06,-0.053 -0.036,-0.026 -0.078,-0.049 -0.123,-0.068 -0.06,-0.026 -0.127,-0.045 -0.2,-0.06 -0.037,-0.007 -0.077,-0.013 -0.118,-0.017 -0.025,-0.002 -0.051,-0.004 -0.076,-0.005 -0.023,-0.001 -0.047,-0.003 -0.071,-0.003 -0.236,10e-4 -0.642,10e-4 -0.642,10e-4"
       inkscape:connector-curvature="0"
       transform="matrix(10.782256,0,0,10.782256,-528.00737,-5113.7074)"
       id="path1157"
       style="fill:#ffffff" />
    <path
       d="m 87.635,499.343 0,0.97 0.321,0 c 0,0 0.022,0 0.05,-10e-4 0.023,-0.001 0.049,-0.002 0.073,-0.003 0.066,-0.005 0.158,-0.014 0.249,-0.04 0.018,-0.005 0.036,-0.01 0.053,-0.018 0.072,-0.024 0.141,-0.063 0.195,-0.114 0.042,-0.042 0.071,-0.089 0.089,-0.134 0.023,-0.057 0.031,-0.109 0.034,-0.146 0.003,-0.034 0.003,-0.055 0.003,-0.055 0,0 0.001,-0.017 -0.001,-0.042 -0.002,-0.042 -0.011,-0.111 -0.044,-0.177 -0.016,-0.031 -0.038,-0.063 -0.068,-0.092 -0.036,-0.036 -0.08,-0.063 -0.127,-0.084 -0.091,-0.04 -0.195,-0.056 -0.282,-0.062 -0.038,-0.003 -0.073,-0.003 -0.102,-0.003 l -0.443,0 0,0.001 z"
       inkscape:connector-curvature="0"
       transform="matrix(10.782256,0,0,10.782256,-528.00737,-5113.7074)"
       id="path1159"
       style="fill:#ffffff" />
    <path
       d="m 85.511,498.027 5.534,0 0,5.207 -5.534,0 0,-5.207 z m 1.452,0.73 0,3.75 1.412,0 c 0,0 0.688,0.019 1.068,-0.361 0.31,-0.309 0.288,-0.667 0.288,-0.667 0,0 0.022,-0.374 -0.265,-0.659 -0.244,-0.245 -0.555,-0.311 -0.555,-0.311 0,0 0.141,-0.066 0.249,-0.174 0.05,-0.051 0.23,-0.213 0.23,-0.608 0,-0.397 -0.265,-0.627 -0.265,-0.627 0,0 -0.29,-0.343 -0.945,-0.343 l -1.217,0 0,0 z"
       inkscape:connector-curvature="0"
       transform="matrix(10.782256,0,0,10.782256,-528.00737,-5113.7074)"
       id="path1161"
       style="fill:#ffffff" />
    <polygon
       points="85.833,505.855 84.288,509.669 84.158,509.669 82.272,504.966 82.942,504.966 84.227,508.179 85.519,504.966 86.154,504.966 87.453,508.179 88.724,504.966 89.387,504.966 87.494,509.669 87.494,509.669 87.364,509.669 "
       transform="matrix(10.782256,0,0,10.782256,-528.00737,-5113.7074)"
       id="polygon1163"
       style="fill:#ffffff" />
    <path
       d="m 91.931,509.074 c 1.046,0 1.818,-0.758 1.818,-1.777 0,-1.024 -0.772,-1.776 -1.818,-1.776 -1.039,0 -1.811,0.752 -1.811,1.776 0,1.019 0.772,1.777 1.811,1.777 m 0,-4.169 c 1.538,0 2.509,1.094 2.509,2.392 0,1.258 -0.944,2.394 -2.523,2.394 -1.524,0 -2.488,-1.128 -2.488,-2.394 0,-1.293 0.991,-2.392 2.502,-2.392"
       inkscape:connector-curvature="0"
       transform="matrix(10.782256,0,0,10.782256,-528.00737,-5113.7074)"
       id="path1173"
       style="fill:#ffffff" />
    <path
       d="m 95.943,507.003 0.431,0 c 0.717,0 0.923,-0.369 0.916,-0.76 -0.007,-0.437 -0.267,-0.703 -0.916,-0.703 l -0.431,0 0,1.463 z m 0.507,-2.037 c 0.943,0 1.531,0.499 1.531,1.306 0,0.54 -0.28,0.943 -0.779,1.142 0.424,0.279 0.683,0.711 1.039,1.292 0.198,0.32 0.314,0.478 0.635,0.923 l -0.799,0 -0.615,-0.957 c -0.616,-0.957 -0.896,-1.067 -1.238,-1.067 l -0.28,0 0,2.024 -0.67,0 0,-4.662 1.176,0 0,-10e-4 z"
       inkscape:connector-curvature="0"
       transform="matrix(10.782256,0,0,10.782256,-528.00737,-5113.7074)"
       id="path1175"
       style="fill:#ffffff" />
    <polygon
       points="102.157,509.628 99.381,509.628 99.381,504.966 100.052,504.966 100.052,509.026 100.052,509.026 102.157,509.026 "
       transform="matrix(10.782256,0,0,10.782256,-528.00737,-5113.7074)"
       id="polygon1177"
       style="fill:#ffffff" />
    <path
       d="m 103.415,509.026 1.066,0 c 1.518,0 1.866,-1.154 1.866,-1.729 0,-0.938 -0.594,-1.73 -1.9,-1.73 l -1.032,0 0,3.459 z m -0.67,-4.06 1.811,0 c 1.723,0 2.482,1.229 2.482,2.331 0,1.195 -0.937,2.331 -2.475,2.331 l -1.818,0 0,-4.662 0,0 z"
       inkscape:connector-curvature="0"
       transform="matrix(10.782256,0,0,10.782256,-528.00737,-5113.7074)"
       id="path1187"
       style="fill:#ffffff" />
    <path
       d="m 85.358,511.912 c -0.396,-0.376 -0.779,-0.485 -1.094,-0.485 -0.43,0 -0.738,0.225 -0.738,0.553 0,0.896 2.017,0.882 2.017,2.365 0,0.732 -0.554,1.265 -1.306,1.265 -0.506,0 -0.916,-0.137 -1.306,-0.431 l 0,-0.847 c 0.342,0.437 0.773,0.677 1.231,0.677 0.519,0 0.758,-0.329 0.758,-0.588 0,-0.964 -2.016,-1.074 -2.016,-2.353 0,-0.759 0.561,-1.243 1.415,-1.243 0.355,0 0.711,0.108 1.039,0.327 l 0,0.76 z"
       inkscape:connector-curvature="0"
       transform="matrix(10.782256,0,0,10.782256,-528.00737,-5113.7074)"
       id="path1189"
       style="fill:#ffffff" />
    <polygon
       points="86.944,512.895 88.851,512.895 88.851,513.498 86.944,513.498 86.944,514.947 88.981,514.947 88.981,515.547 86.274,515.547 86.274,510.885 88.919,510.885 88.919,511.488 88.919,511.488 86.944,511.488 "
       transform="matrix(10.782256,0,0,10.782256,-528.00737,-5113.7074)"
       id="polygon1191"
       style="fill:#ffffff" />
    <path
       d="m 90.375,512.922 0.431,0 c 0.717,0 0.923,-0.368 0.916,-0.759 -0.007,-0.437 -0.267,-0.704 -0.916,-0.704 l -0.431,0 0,1.463 z m 0.505,-2.036 c 0.943,0 1.531,0.498 1.531,1.306 0,0.54 -0.28,0.942 -0.779,1.141 0.424,0.281 0.683,0.711 1.039,1.292 0.198,0.321 0.314,0.479 0.635,0.923 l -0.799,0 -0.615,-0.957 c -0.616,-0.957 -0.896,-1.065 -1.238,-1.065 l -0.28,0 0,2.022 -0.67,0 0,-4.661 1.176,0 0,-10e-4 z"
       inkscape:connector-curvature="0"
       transform="matrix(10.782256,0,0,10.782256,-528.00737,-5113.7074)"
       id="path1201"
       style="fill:#ffffff" />
    <polygon
       points="92.762,510.885 93.432,510.885 94.833,514.16 96.227,510.885 96.89,510.885 94.915,515.588 94.915,515.588 94.777,515.588 "
       transform="matrix(10.782256,0,0,10.782256,-528.00737,-5113.7074)"
       id="polygon1203"
       style="fill:#ffffff" />
    <rect
       width="7.2241116"
       height="50.26688"
       x="522.29218"
       y="394.78522"
       id="rect1205"
       style="fill:#ffffff" />
    <path
       d="m 103.083,511.925 c -0.574,-0.335 -1.066,-0.485 -1.606,-0.485 -1.067,0 -1.859,0.758 -1.859,1.784 0,1.046 0.765,1.77 1.886,1.77 0.526,0 1.101,-0.184 1.627,-0.525 l 0,0.73 c -0.458,0.239 -0.957,0.41 -1.688,0.41 -1.75,0 -2.516,-1.346 -2.516,-2.324 0,-1.422 1.073,-2.46 2.557,-2.46 0.478,0 0.963,0.115 1.599,0.382 l 0,0.718 z"
       inkscape:connector-curvature="0"
       transform="matrix(10.782256,0,0,10.782256,-528.00737,-5113.7074)"
       id="path1215"
       style="fill:#ffffff" />
    <polygon
       points="104.621,512.895 106.528,512.895 106.528,513.498 104.621,513.498 104.621,514.947 106.657,514.947 106.657,515.547 103.951,515.547 103.951,510.885 106.596,510.885 106.596,511.488 106.596,511.488 104.621,511.488 "
       transform="matrix(10.782256,0,0,10.782256,-528.00737,-5113.7074)"
       id="polygon1217"
       style="fill:#ffffff" />
  </g>
</svg>
