<?xml version="1.0" encoding="UTF-8" standalone="no"?>
<!-- Created with Inkscape (http://www.inkscape.org/) -->

<svg
   xmlns:dc="http://purl.org/dc/elements/1.1/"
   xmlns:cc="http://creativecommons.org/ns#"
   xmlns:rdf="http://www.w3.org/1999/02/22-rdf-syntax-ns#"
   xmlns:svg="http://www.w3.org/2000/svg"
   xmlns="http://www.w3.org/2000/svg"
   xmlns:inkscape="http://www.inkscape.org/namespaces/inkscape"
   version="1.0"
   width="773"
   height="220"
   id="svg2">
  <metadata
     id="metadata33">
    <rdf:RDF>
      <cc:Work
         rdf:about="">
        <dc:format>image/svg+xml</dc:format>
        <dc:type
           rdf:resource="http://purl.org/dc/dcmitype/StillImage" />
      </cc:Work>
    </rdf:RDF>
  </metadata>
  <defs
     id="defs31" />
  <g
     transform="translate(-208.36064,-642.35168)"
     id="layer1">
    <g
       transform="matrix(1,0,0,-1,77.362,953.30718)"
       id="g4343">
      <text
         transform="scale(1,-1)"
         id="text4345">
        <tspan
           x="-581.10199"
           y="-802.45898"
           id="tspan4347"
           style="font-size:11px;letter-spacing:0;fill:#ffffff;fill-rule:nonzero;stroke:none;font-family:font4">r</tspan>
        <tspan
           x="-575.52502"
           y="-802.45898"
           id="tspan4349"
           style="font-size:11px;letter-spacing:0;fill:#ffffff;fill-rule:nonzero;stroke:none;font-family:font4">
          <tspan
             dx="0.11"
             id="tspan4353" />
          <tspan
             dx="0.11"
             id="tspan4357" />
          <tspan
             dx="0.16500001"
             id="tspan4361" />
          <tspan
             dx="0.11"
             id="tspan4365" />
        </tspan>
      </text>
    </g>
    <g
       transform="matrix(18.975332,0,0,-18.975332,-2277.3699,2588.253)"
       id="g4609">
      <path
         d="m 144.391,102.267 0.251,0 c 0.149,0 0.141,-0.077 0.141,-0.207 l 0,-2.441 0.243,0 0.141,0.319 c 0.222,-0.242 0.408,-0.368 0.748,-0.368 0.626,0 1.014,0.473 1.014,1.08 0,0.562 -0.355,1.039 -0.945,1.039 -0.203,0 -0.425,-0.065 -0.591,-0.186 -0.04,-0.029 -0.072,-0.065 -0.109,-0.097 l 0,1.127 -0.893,0 0,-0.266 z m 1.439,-0.849 c 0.42,0 0.586,-0.421 0.586,-0.78 0,-0.368 -0.15,-0.809 -0.586,-0.809 -0.432,0 -0.59,0.392 -0.59,0.768 0,0.372 0.145,0.821 0.59,0.821"
         inkscape:connector-curvature="0"
         id="path4611"
         style="fill:#000000;fill-rule:evenodd;stroke:none" />
      <path
         d="m 147.009,101.341 0.194,0 c 0.19,0 0.206,-0.012 0.206,-0.202 0,-0.352 -0.004,-0.699 0.004,-1.051 0.004,-0.166 -0.024,-0.202 -0.19,-0.202 l -0.206,0 0,-0.267 1.358,0 0,0.267 c -0.081,0 -0.351,-0.02 -0.42,0.036 -0.049,0.041 -0.041,0.113 -0.041,0.17 l 0,0.606 c 0,0.303 0.13,0.76 0.506,0.76 l 0.052,0 c -0.073,-0.065 -0.105,-0.109 -0.105,-0.21 0,-0.146 0.121,-0.247 0.263,-0.247 0.17,0 0.275,0.138 0.275,0.299 0,0.239 -0.211,0.38 -0.433,0.38 -0.275,0 -0.412,-0.165 -0.558,-0.375 l 0,0.307 -0.905,0 0,-0.271 z"
         inkscape:connector-curvature="0"
         id="path4613"
         style="fill:#000000;fill-rule:evenodd;stroke:none" />
      <path
         d="m 150.948,100.569 c -0.008,0.283 -0.028,0.513 -0.21,0.74 -0.198,0.25 -0.485,0.371 -0.804,0.371 -0.631,0 -1.092,-0.448 -1.092,-1.083 0,-0.647 0.473,-1.039 1.1,-1.039 0.267,0 0.533,0.073 0.731,0.263 0.162,0.154 0.207,0.291 0.255,0.505 l -0.295,0 c -0.085,-0.315 -0.267,-0.521 -0.61,-0.521 -0.219,0 -0.421,0.097 -0.546,0.279 -0.109,0.153 -0.121,0.299 -0.125,0.485 l 1.596,0 z m -1.58,0.271 c 0.02,0.169 0.04,0.275 0.153,0.408 0.11,0.133 0.239,0.194 0.413,0.194 0.178,0 0.331,-0.073 0.428,-0.226 0.073,-0.118 0.085,-0.243 0.093,-0.376 l -1.087,0 z"
         inkscape:connector-curvature="0"
         id="path4615"
         style="fill:#000000;fill-rule:evenodd;stroke:none" />
      <path
         d="m 151.02,99.619 1.237,0 0,0.267 -0.194,0 c -0.133,0 -0.117,0.097 -0.117,0.206 l 0,0.659 c 0,0.174 0.028,0.295 0.141,0.428 0.097,0.113 0.235,0.198 0.384,0.198 0.126,0 0.243,-0.052 0.312,-0.157 0.076,-0.11 0.076,-0.219 0.076,-0.348 l 0,-0.78 c 0,-0.109 0.017,-0.206 -0.121,-0.206 l -0.198,0 0,-0.267 1.14,0 0,0.267 -0.202,0 c -0.134,0 -0.117,0.097 -0.117,0.206 l 0,0.715 c 0,0.312 0.214,0.578 0.537,0.578 0.121,0 0.239,-0.056 0.311,-0.157 0.073,-0.101 0.077,-0.219 0.077,-0.34 l 0,-0.796 c 0,-0.121 0.012,-0.206 -0.129,-0.206 l -0.194,0 0,-0.267 1.196,0 0,0.267 -0.222,0 c -0.145,0 -0.154,0.077 -0.154,0.206 l 0,0.808 c 0,0.174 -0.024,0.405 -0.133,0.546 -0.129,0.17 -0.388,0.259 -0.598,0.259 -0.32,0 -0.538,-0.17 -0.736,-0.4 -0.093,0.169 -0.162,0.25 -0.343,0.323 -0.097,0.04 -0.207,0.056 -0.312,0.056 -0.117,0 -0.234,-0.02 -0.343,-0.064 -0.174,-0.069 -0.251,-0.138 -0.376,-0.275 l 0,0.267 -0.914,0 0,-0.259 0.219,0 c 0.173,0 0.202,-0.024 0.202,-0.202 l 0,-0.906 c 0,-0.412 -0.033,-0.359 -0.429,-0.359 l 0,-0.267 z"
         inkscape:connector-curvature="0"
         id="path4617"
         style="fill:#000000;fill-rule:evenodd;stroke:none" />
      <path
         d="m 157.337,100.569 c -0.008,0.283 -0.028,0.513 -0.21,0.74 -0.198,0.25 -0.485,0.371 -0.804,0.371 -0.631,0 -1.092,-0.448 -1.092,-1.083 0,-0.647 0.473,-1.039 1.1,-1.039 0.266,0 0.533,0.073 0.731,0.263 0.162,0.154 0.206,0.291 0.255,0.505 l -0.295,0 c -0.085,-0.315 -0.267,-0.521 -0.611,-0.521 -0.218,0 -0.42,0.097 -0.545,0.279 -0.109,0.153 -0.122,0.299 -0.126,0.485 l 1.597,0 z m -1.58,0.271 c 0.02,0.169 0.04,0.275 0.153,0.408 0.109,0.133 0.239,0.194 0.413,0.194 0.177,0 0.331,-0.073 0.428,-0.226 0.073,-0.118 0.085,-0.243 0.093,-0.376 l -1.087,0 z"
         inkscape:connector-curvature="0"
         id="path4619"
         style="fill:#000000;fill-rule:evenodd;stroke:none" />
      <path
         d="m 157.409,101.341 0.234,0 c 0.166,0 0.17,-0.053 0.17,-0.202 0,-0.348 -0.008,-0.699 0.004,-1.047 0.004,-0.162 -0.024,-0.206 -0.19,-0.206 l -0.214,0 0,-0.267 1.237,0 0,0.267 -0.198,0 c -0.073,0 -0.138,0.012 -0.138,0.101 l 0,0.756 c 0,0.323 0.199,0.622 0.546,0.622 0.125,0 0.255,-0.048 0.332,-0.149 0.089,-0.114 0.08,-0.227 0.08,-0.368 l 0,-0.76 c 0,-0.041 -0.008,-0.134 -0.028,-0.166 -0.028,-0.04 -0.064,-0.036 -0.109,-0.036 l -0.19,0 0,-0.267 1.168,0 0,0.267 -0.19,0 c -0.044,0 -0.093,-0.004 -0.121,0.036 -0.036,0.049 -0.028,0.113 -0.028,0.17 l 0,0.756 c 0,0.198 0.004,0.4 -0.126,0.558 -0.149,0.181 -0.388,0.258 -0.614,0.258 -0.206,0 -0.441,-0.068 -0.602,-0.202 -0.045,-0.036 -0.085,-0.081 -0.126,-0.125 l 0,0.275 -0.897,0 0,-0.271 z"
         inkscape:connector-curvature="0"
         id="path4621"
         style="fill:#000000;fill-rule:evenodd;stroke:none" />
      <path
         d="m 150.833,94.813 c -0.027,0.928 -0.093,1.683 -0.689,2.425 -0.65,0.822 -1.591,1.219 -2.638,1.219 -2.067,0 -3.578,-1.471 -3.578,-3.551 0,-2.121 1.551,-3.406 3.605,-3.406 0.875,0 1.749,0.239 2.398,0.861 0.531,0.504 0.676,0.955 0.835,1.657 l -0.967,0 c -0.278,-1.034 -0.875,-1.71 -2.001,-1.71 -0.716,0 -1.378,0.318 -1.789,0.915 -0.358,0.503 -0.398,0.98 -0.411,1.59 l 5.235,0 z m -5.182,0.888 c 0.066,0.557 0.133,0.901 0.504,1.338 0.357,0.438 0.782,0.637 1.351,0.637 0.583,0 1.087,-0.239 1.405,-0.743 0.239,-0.384 0.278,-0.795 0.305,-1.232 l -3.565,0 z"
         inkscape:connector-curvature="0"
         id="path4623"
         style="fill:#000000;fill-rule:evenodd;stroke:none" />
      <path
         d="m 151.347,91.699 4.108,0 0,0.874 -0.716,0 c -0.49,0 -0.437,0.279 -0.437,0.676 l 0,4.983 -2.876,0 0,-0.875 0.729,0 c 0.159,0 0.318,0 0.424,-0.132 0.027,-0.04 0.093,-0.172 0.093,-0.212 l 0,-0.331 c 0,-1.14 -0.026,-2.293 0.013,-3.433 0.014,-0.517 -0.079,-0.676 -0.609,-0.676 l -0.729,0 0,-0.874 z"
         inkscape:connector-curvature="0"
         id="path4625"
         style="fill:#000000;fill-rule:evenodd;stroke:none" />
      <path
         d="m 155.798,97.344 0.769,0 c 0.543,0 0.557,-0.172 0.557,-0.662 0,-1.14 -0.027,-2.293 0.013,-3.433 0.013,-0.53 -0.08,-0.676 -0.623,-0.676 l -0.702,0 0,-0.874 4.055,0 0,0.874 -0.65,0 c -0.238,0 -0.45,0.04 -0.45,0.332 l 0,2.478 c 0,1.06 0.649,2.041 1.789,2.041 0.411,0 0.835,-0.159 1.087,-0.491 0.291,-0.371 0.265,-0.742 0.265,-1.206 l 0,-2.491 c 0,-0.133 -0.027,-0.437 -0.093,-0.543 -0.093,-0.133 -0.212,-0.12 -0.358,-0.12 l -0.623,0 0,-0.874 3.83,0 0,0.874 -0.623,0 c -0.146,0 -0.305,-0.013 -0.397,0.12 -0.12,0.159 -0.093,0.371 -0.093,0.556 l 0,2.478 c 0,0.65 0.013,1.312 -0.411,1.829 -0.49,0.597 -1.272,0.848 -2.014,0.848 -0.676,0 -1.445,-0.225 -1.975,-0.662 -0.146,-0.119 -0.278,-0.265 -0.411,-0.411 l 0,0.901 -2.942,0 0,-0.888 z"
         inkscape:connector-curvature="0"
         id="path4627"
         style="fill:#000000;fill-rule:nonzero;stroke:none" />
      <path
         d="m 170.383,97.636 c -0.821,0.583 -1.431,0.821 -2.465,0.821 -1.232,0 -2.676,-0.622 -2.676,-2.054 0,-1.404 1.351,-1.749 2.491,-1.974 0.716,-0.133 2.531,-0.066 2.531,-1.127 0,-0.729 -0.914,-0.927 -1.484,-0.927 -0.994,0 -2.121,0.49 -2.558,1.431 -0.066,0.146 -0.132,0.305 -0.185,0.464 l -0.756,0 0,-2.571 0.769,0 0.265,0.715 c 0.557,-0.437 0.848,-0.596 1.537,-0.755 0.358,-0.08 0.716,-0.132 1.074,-0.132 1.298,0 2.809,0.622 2.809,2.133 0,0.848 -0.451,1.445 -1.232,1.749 -0.557,0.226 -1.153,0.279 -1.75,0.372 -0.503,0.079 -2.054,0.225 -2.054,0.94 0,0.703 0.928,0.862 1.458,0.862 0.636,0 1.246,-0.212 1.749,-0.61 0.385,-0.305 0.517,-0.583 0.689,-1.047 l 0.782,0 0,2.24 -0.755,0 -0.239,-0.53 z"
         inkscape:connector-curvature="0"
         id="path4629"
         style="fill:#000000;fill-rule:nonzero;stroke:none" />
      <path
         d="m 130.998,96.752 c 0,3.202 2.595,5.797 5.797,5.797 3.202,0 5.797,-2.595 5.797,-5.797 0,-3.201 -2.595,-5.797 -5.797,-5.797 -3.202,0 -5.797,2.596 -5.797,5.797 m 5.132,-0.018 1.33,0 0,-4.344 c 2.121,0.32 3.747,2.151 3.747,4.362 0,2.437 -1.975,4.413 -4.412,4.413 -2.437,0 -4.412,-1.976 -4.412,-4.413 0,-2.211 1.626,-4.042 3.747,-4.362 l 0,4.344 z"
         inkscape:connector-curvature="0"
         id="path4631"
         style="fill:#97be0d;fill-rule:nonzero;stroke:none" />
    </g>
  </g>
</svg>
