<?xml version="1.0" encoding="UTF-8" standalone="no"?>
<!-- Created with Inkscape (http://www.inkscape.org/) -->
<svg xmlns:rdf="http://www.w3.org/1999/02/22-rdf-syntax-ns#" xmlns="http://www.w3.org/2000/svg" xml:space="preserve" height="1210.7" width="600" version="1.1" xmlns:cc="http://creativecommons.org/ns#" xmlns:dc="http://purl.org/dc/elements/1.1/" viewBox="0 0 599.99674 1210.6503"><metadata><rdf:RDF><cc:Work rdf:about=""><dc:format>image/svg+xml</dc:format><dc:type rdf:resource="http://purl.org/dc/dcmitype/StillImage"/><dc:title/></cc:Work></rdf:RDF></metadata><defs><clipPath id="a" clipPathUnits="userSpaceOnUse"><path d="m25.511,38.74h246.61v243.78h-246.61v-243.78z"/></clipPath></defs><path fill="#00397d" d="M600,451.67v-420.88c0-16.914-13.85-30.786-30.79-30.786h-538.16c-16.913,0-30.787,13.873-30.787,30.786v420.89c0,16.943,13.873,30.786,30.787,30.786h538.16c16.943,0,30.786-13.844,30.786-30.786"/><path fill="#FFF" d="m261.73,234.13c23.938-14.168,39.287-34.948,39.287-65.971,0-33.207-19.659-77.04-102.16-77.04-39.907,0-84.242,1.5054-84.242,1.5054v307.19h70.34c89.526,0,136.84-33,136.84-95.4,0-37.192-23.348-61.75-60.068-70.281m-62.34,122.85h-34.889v-226.31c0.47228,0,15.644-0.17711,25.09-0.17711,38.963,0,60.54,20.131,61.189,47.759,0.35421,16.795-4.6342,32.912-21.725,44.748-13.962,9.6817-33.473,12.574-33.473,12.574v7.2612s27.008,4.0439,40.704,10.449c25.503,11.925,33.089,30.403,33.295,54.341,0.29517,37.841-36.277,49.353-70.192,49.353"/><path fill="#FFF" d="m444.44,399.72s-75.417-111.01-88.375-128.19c-15.083-19.954-30.167-27.156-30.167-27.156v-6.4938s25.208-1.8596,46.047-10.361c25.739-10.479,34.21-28.956,34.27-46.785,0.0592-13.076-5.6673-27.481-16.323-35.834-10.656-8.3829-20.898-12.781-44.542-14.05-8.3534-0.44276-16.825,0-22.433,0.17711-5.4017-15.231-16.589-28.396-27.008-36.365v-2.1252s36.897-1.2988,48.999-1.0331c58.739,1.4464,76.951,14.109,89.526,24.824,19.068,16.264,24.322,41.472,24.322,51.862,0,41.442-25.001,69.395-60.009,81.497,7.3498,9.7407,108,150.04,108,150.04h-62.311z"/><path fill="#00397d" d="m599.7,1179.9c0,16.943-13.844,30.786-30.816,30.786h-538.09c-16.943,0-30.787-13.844-30.787-30.786v-616.56c0-16.913,13.844-30.787,30.787-30.787h538.1c16.972,0,30.816,13.873,30.816,30.787v616.53z"/><path fill="#FFF" d="m553.66,1122.6c-10.508-6.6709-16.264-16.264-20.337-27.54-6.9956-19.629-5.9034-40.203-7.1432-60.51-0.38372-5.7854,0.0589-17.858,0.41325-22.876,0,0,1.2397-0.089,4.8113-0.5608,3.2764-0.4428,6.5823-1.0036,9.7997-1.8006,10.626-2.5975,23.968-7.9696,31.79-13.873,4.6047-3.483,5.5198-8.56,4.9884-13.814-1.0922-9.7702-6.5528-13.607-16.294-11.571-8.0877,1.7415-16.175,3.5716-24.234,5.4607-2.2138,0.50181-6.3167,0.76745-6.3167,0.76745s10.42-94.603,12.014-105.73c1.2397-8.7961-5.6673-14.818-11.246-19.57-9.1504-7.7926-18.921-4.4276-21.695,6.9956-4.4866,18.655-7.2022,41.442-8.6781,54.046-1.5644,13.047-5.6673,66.886-5.6673,66.886s-7.704,1.0331-24.765,0.0294c-5.136,0.0295-7.5859,2.2138-8.3239,7.1432-1.5644,10.272,1.5939,15.969,11.01,21.43,4.9294,2.8336,17.061,4.1619,19.275,4.5456,0.29517,9.8883-2.0662,37.103-6.1396,57.027-4.8999,26.831-13.017,47.08-29.871,60.156-6.7595,5.2245-13.312,5.5787-19.57-6.3463-2.1252-3.9848-3.8077-9.6816-4.6342-14.109-0.64936-3.3945-1.5054-12.958-1.1807-24.263,0.88551-26.654,1.8596-45.752,2.627-69.129,0.35422-10.538,2.568-23.584,2.5975-23.732,1.8596-8.2058-5.0474-16.795-9.3865-20.928-3.1288-3.0403-9.7407-3.5421-15.113-2.1252-2.5975,0.70843-6.7004,1.8596-6.7004,1.8596s-5.2541-0.76745-7.5564-1.3283c-13.194-3.0993-22.433,2.2138-31.554,12.663-4.8113,5.4607-8.2353,10.42-12.368,17.12-16.766,32.233-26.743,66.296-24.293,103.02,0.61987,9.0913,2.7451,17.769,6.2282,26.005-0.59034,0.5018-3.0993,2.509-8.2058,4.7523-9.7112,4.339-14.582,0.029-16.707-7.2613-3.7782-13.076-4.0144-28.248-4.3981-42.918-0.3247-11.925-1.5054-32.971-1.9481-53.456-0.29517-14.198-3.9848-34.712-13.46-43.508-13.253-12.25-29.871-9.9473-41.118,4.9589-15.26,20.249-25.857,43.508-35.657,67.27-3.2764,7.3202-13.489,32.764-14.05,32.587-0.50179,0.3837-5.7559-36.572-7.8811-48.231-3.424-18.714-6.6709-36.454-19.186-48.467-13.283-12.751-31.259-12.84-42.269,2.0957-3.3945,4.5752-6.3757,9.4455-8.56,14.936-5.195,13.047-9.475,26.418-13.607,39.907-1.0626,3.483-4.7818,18.33-5.3131,18.006-0.59035,0.029-3.3354-35.539-4.0143-43.272-1.6234-19.186-6.9956-25.975-26.034-26.566-6.0215-0.17722-9.3865,3.2173-10.242,8.8846-0.64938,4.3391-0.23614,9.4161,0.32469,13.755,1.2692,9.7997,10.036,95.282,15.674,127.93,0.79697,4.5751,1.4759,7.9106,3.9553,10.862,7.3793,8.9438,23.968,8.5305,24.293,8.4715,5.1065-0.9446,7.9697-6.2872,9.5046-12.958,1.3873-5.9625,3.0108-13.578,4.339-19.275,6.8185-29.517,22.167-80.7,27.658-97.378,1.0626-3.1879,3.3059-9.2684,4.6342-9.3865,2.0072-0.1475,3.365,7.4384,3.8372,10.213,1.5349,9.6226,10.833,76.686,15.939,101.36,2.1843,10.567,9.0913,21.046,18.921,23.142,8.7666,1.8891,13.283-1.1217,19.393-12.929,14.788-28.661,25.857-59.271,37.9-89.349,10.213-27.658,19.718-47.818,21.577-47.287,2.3319,0.059,3.1879,20.721,3.3354,22.964,0.56084,7.8811,0.76745,15.792,0.79698,23.702,0.0294,7.6745,0.91504,28.75,0.91504,28.75,1.0036,19.511,2.9517,42.564,11.925,55.935,16.057,23.909,43.243,20.544,61.248,5.6969,0.11806-0.1181,0.56084-0.5313,1.1216-1.0627,6.6414,6.6709,14.759,11.276,21.99,11.689,10.538,0.6494,17.15-0.9446,24.676-5.4017,7.2612-4.2505,12.073-11.039,17.504-17.386,3.0993,4.1915,7.4088,11.276,15.821,16.146,13.873,7.4088,30.964,9.6226,50.888-8.1468,2.8337-2.5384,6.9366-7.2022,9.1208-10.302,6.4052-9.0028,18.035-27.746,18.33-27.776,0.20667-0.029,2.7451,5.6378,3.7487,7.8516,17.622,38.402,57.145,50.297,86.869,31.141v-44.542c-15.703,21.961-36.838,24.352-46.076,18.507m-150.46-114.2c-0.14751,8.2058-0.44276,12.604-0.94454,25.473-0.44278,12.161-1.2397,25.178-1.6235,35.155-0.70842,17.888-3.6306,32.233-11.01,48.113-2.8041,6.0216-6.9661,11.187-12.929,14.759-3.5421,2.1252-5.7854,1.5939-8.5305-1.4168-6.9661-7.7041-7.3793-17.268-8.1172-26.772-0.17721-2.0662-0.0294-4.1619-0.0294-6.2577,0.6789-15.792,3.6306-31.17,8.2944-46.342,3.2764-10.656,6.6119-19.039,11.276-29.104,3.1879-6.9365,8.1468-14.7,13.312-19.452,1.5349-1.4168,4.6932-5.1655,8.2058-4.2209,3.8668,1.0331,2.1547,7.3203,2.0957,10.065m-340.2-463.09c0.61987,9.1799,2.0957,24.913,1.7415,37.575-0.73793,28.632-0.47227,158.98-0.47227,195.58,0,0.70843,0.23614,7.5269-0.11806,7.6155,0,0-19.747-6.789-21.843-7.5564-9.2979-3.5716-20.869-5.6083-26.329,4.9884-3.6896,7.2317,0.79697,14.109,8.0582,19.039,7.645,4.7228,17.563,8.4714,28.425,11.453,3.3059,0.91504,10.095,3.1583,10.744,3.9553,0.59034,0.76745,1.0331,6.0806,1.1216,10.774,0.53131,33.797,1.3283,67.595-0.91503,101.36-0.6789,9.7997,9.9768,17.592,24.057,18.124,10.951,0.35423,14.286-5.4017,14.463-17.238,0.41324-25.503-2.0957-107.38-1.0331-108.8,0-0.17722,13.844,2.1252,26.477,3.6897,11.571,1.5939,19.304,2.2728,26.654,2.8041,0,0,1.9481,67.713,1.9186,76.125,0.38373,6.3462,0.61986,13.785,4.4571,15.821,9.2389,4.9589,18.714,6.1396,27.628,3.9258,6.1986-2.3614,4.7228-8.2353,4.4276-13.578-1.2397-24.263-1.8301-58.238-3.1584-82.471,0,0,13.342-1.3873,28.248-2.4499,0.35421-0.0294,0.76745,5.9625,2.1548,11.63,3.5716,14.906,9.1799,32.941,16.353,44.099,32.233,46.755,85.128,53.249,121.32-0.14751,4.1914,11.423,11.158,18.065,19.54,23.909,5.9625,4.162,13.607,6.7004,17.622,3.0698,4.6932-4.1029,5.1655-11.659,1.2692-18.921-17.74-32.735-18.153-67.919-13.962-103.78,1.9776-17.031,7.0251-33.827,4.8408-51.271-0.79695-6.4348-14.847-19.216-21.252-17.917-7.645,1.5644-12.633,6.7299-13.342,15.024-2.3318,26.861-3.8963,53.633-6.907,80.464-2.3614,20.869-7.5859,42.446-21.636,59.448-13.519,16.353-34.978,18.921-49.058,6.5233-11.305-9.9768-17.799-23.673-20.78-37.93-2.0367-9.7997-2.7156-19.127-2.6566-19.983,0.17711-0.17721,19.304-7.3793,27.126-10.892,40.586-20.337,54.194-39.199,45.043-76.656-4.1029-16.943-12.309-31.849-31.524-35.893-17.15-3.6011-29.37,4.0438-40.586,16.854-17.563,20.131-24.086,44.128-30.049,64.672-1.4168,5.6083-3.5126,14.552-3.5126,14.552-7.9106,2.8041-25.621,4.5457-26.831,4.5457-0.20661,0-0.56083-3.5126-0.59034-5.8739-0.17716-21.577-0.4133-41.472,2.3318-66.916,3.1583-29.193,5.7264-55.492,10.006-84.567,1.1217-7.6745-0.94455-10.685-8.0582-15.91-8.0582-4.9294-15.054-11.482-24.499-3.7487-2.4794,1.9777-4.5752,3.1583-5.0474,7.763-2.3023,23.909-4.28,48.851-5.8149,70.399-2.8336,27.481-2.7746,63.403-5.1065,94.485-0.20662,2.7156-0.26566,4.28-0.41324,4.3686,0,0-15.969,0.88553-47.021-4.0144-3.2764-0.38372-5.4607-1.0626-5.7854-1.2397-0.47227-0.23612-0.32469-6.907-0.41324-9.2684-1.8596-33,0.70841-78.368,0.23614-130.55-0.44276-47.67-0.76745-87.814-1.8596-107.68-0.17711-3.6601,0.20661-8.1172-0.61986-12.132h-34.598c-0.76745,3.8077-0.79697,8.0878-0.47228,12.751m200.24,205.89c4.0734-7.1727,7.3793-13.017,13.696-18.33,3.9848-3.365,9.1503-4.5457,12.191-3.7782,3.7782,0.91504,5.2246,5.874,5.9625,9.2684,3.1879,14.493-2.9812,24.411-17.533,34.21-8.8552,6.2281-24.293,13.755-25.444,12.811-0.88552-0.47229,4.4571-22.463,11.128-34.181m130.87-120.82c0.3247,7.6155-3.7782,10.626-10.272,10.951-13.312,0.61987-27.097-9.9473-27.481-21.843,0.29517-6.789,0-16.884,13.283-16.471,11.895,0.32467,23.938,13.726,24.47,27.362"/><g transform="matrix(1.3333,0,0,-1.3333,-153.45351,1059.6096)" clip-path="url(#a)"><text font-size="5.67409992px" transform="matrix(1,0,0,-1,5.0159,8.5062)" font-family="&apos;QZYROP +Helvetica&apos;" fill="#000000"><tspan y="0" x="0 3.1547997 6.3095994 9.4643984 13.561099 17.345724 21.130348 24.285149 28.069773 32.166473 36.263172 39.417973 40.677624 45.404148 48.558949 50.136349 53.291145 56.445946 59.600746 62.755547 65.910347 69.065147 73.161842 76.946472 80.731094 83.885895 87.670517 89.559998 92.71479 95.551842 98.388893 101.54369 104.69849 104.69849 106.58797 109.74277 112.89757 116.05237 119.20717 122.04422 125.19901 128.35382 133.08034 137.80687 139.38426 140.64392 143.79872 146.95352 150.10832 154.84052">01_REA_BRHeimat_2015_DAB_Broschüre_87x87mm.indd 1</tspan></text>
<g transform="translate(248.82,8.5062)"><path d="M0,0h2.724v0.471h-2.167c0.048,0.196,0.165,0.374,0.349,0.534,0.103,0.091,0.246,0.187,0.426,0.286l0.381,0.211c0.333,0.186,0.565,0.345,0.695,0.476,0.223,0.225,0.334,0.497,0.334,0.815,0,0.3-0.104,0.575-0.313,0.82-0.21,0.245-0.542,0.368-0.996,0.368-0.548,0-0.929-0.192-1.145-0.576-0.122-0.218-0.186-0.5-0.191-0.845h0.507c0.007,0.246,0.046,0.439,0.117,0.578,0.13,0.259,0.367,0.388,0.709,0.388,0.231,0,0.415-0.067,0.554-0.203,0.138-0.136,0.207-0.32,0.207-0.551,0-0.198-0.075-0.374-0.227-0.528-0.095-0.097-0.263-0.216-0.501-0.355l-0.532-0.307c-0.357-0.207-0.596-0.437-0.719-0.69s-0.193-0.551-0.212-0.892z" stroke="#FFF" stroke-miterlimit="10" stroke-width="0.37799999" fill="none"/></g><g transform="translate(253.28,11.316)"><path d="M0,0v-2.81h0.531v3.951h-0.393c-0.07-0.306-0.176-0.501-0.318-0.583s-0.393-0.141-0.753-0.176v-0.382h0.933z" stroke="#FFF" stroke-miterlimit="10" stroke-width="0.37799999" fill="none"/></g><g transform="translate(258.07,12.474)"><path d="m0,0c-0.571,0-0.966-0.301-1.183-0.903-0.116-0.324-0.175-0.71-0.175-1.161,0-0.582,0.097-1.045,0.291-1.391,0.233-0.414,0.588-0.621,1.064-0.621,0.529,0,0.909,0.254,1.142,0.759,0.16,0.353,0.241,0.8,0.241,1.339,0,0.569-0.089,1.016-0.266,1.343-0.229,0.423-0.6,0.635-1.114,0.635zm-0.007-3.621c-0.322,0-0.549,0.187-0.682,0.563-0.087,0.245-0.131,0.57-0.131,0.975,0,0.537,0.068,0.943,0.204,1.22,0.136,0.276,0.351,0.414,0.645,0.414,0.32,0,0.536-0.145,0.647-0.436s0.167-0.662,0.167-1.112c0-0.624-0.078-1.052-0.231-1.281s-0.359-0.343-0.619-0.343z" stroke="#FFF" stroke-miterlimit="10" stroke-width="0.37799999" fill="none"/></g><g transform="translate(261.17,11.316)"><path d="M0,0v-2.81h0.531v3.951h-0.393c-0.07-0.306-0.176-0.501-0.318-0.583s-0.393-0.141-0.753-0.176v-0.382h0.933z" stroke="#FFF" stroke-miterlimit="10" stroke-width="0.37799999" fill="none"/></g><g transform="translate(265.9,11.316)"><path d="M0,0v-2.81h0.531v3.951h-0.393c-0.07-0.306-0.176-0.501-0.318-0.583-0.143-0.082-0.393-0.141-0.753-0.176v-0.382h0.933z" stroke="#FFF" stroke-miterlimit="10" stroke-width="0.37799999" fill="none"/></g><g transform="translate(267.76,9.5174)"><path d="m0,0c0.029-0.376,0.168-0.656,0.417-0.838s0.534-0.273,0.858-0.273c0.508,0,0.877,0.144,1.109,0.429,0.232,0.287,0.348,0.618,0.348,0.992,0,0.361-0.127,0.657-0.38,0.892s-0.561,0.353-0.925,0.353c-0.194,0-0.365-0.032-0.513-0.092-0.083-0.035-0.171-0.088-0.263-0.158l0.169,1.103h1.687v0.482h-2.061l-0.302-2.136,0.432-0.025c0.087,0.117,0.192,0.21,0.315,0.276,0.123,0.067,0.27,0.101,0.441,0.101,0.237,0,0.44-0.076,0.609-0.227,0.169-0.152,0.253-0.366,0.253-0.644,0-0.228-0.071-0.437-0.213-0.626-0.143-0.188-0.361-0.282-0.657-0.282-0.155,0-0.291,0.027-0.41,0.083-0.23,0.109-0.363,0.305-0.396,0.59h-0.518z" stroke="#FFF" stroke-miterlimit="10" stroke-width="0.37799999" fill="none"/></g><g transform="translate(276.94,11.316)"><path d="M0,0v-2.81h0.531v3.951h-0.393c-0.07-0.306-0.176-0.501-0.318-0.583s-0.393-0.141-0.753-0.176v-0.382h0.933z" stroke="#FFF" stroke-miterlimit="10" stroke-width="0.37799999" fill="none"/></g><g transform="translate(280.15,12.474)"><path d="m0,0c-0.571,0-0.966-0.301-1.183-0.903-0.116-0.324-0.175-0.71-0.175-1.161,0-0.582,0.097-1.045,0.291-1.391,0.233-0.414,0.588-0.621,1.064-0.621,0.529,0,0.909,0.254,1.142,0.759,0.16,0.353,0.241,0.8,0.241,1.339,0,0.569-0.089,1.016-0.266,1.343-0.229,0.423-0.601,0.635-1.114,0.635zm-0.007-3.621c-0.322,0-0.549,0.187-0.682,0.563-0.087,0.245-0.131,0.57-0.131,0.975,0,0.537,0.068,0.943,0.204,1.22,0.136,0.276,0.351,0.414,0.645,0.414,0.32,0,0.536-0.145,0.647-0.436s0.167-0.662,0.167-1.112c0-0.624-0.078-1.052-0.231-1.281s-0.36-0.343-0.619-0.343z" stroke="#FFF" stroke-miterlimit="10" stroke-width="0.37799999" fill="none"/></g><g transform="translate(284.88,12.474)"><path d="m0,0c-0.571,0-0.966-0.301-1.183-0.903-0.116-0.324-0.175-0.71-0.175-1.161,0-0.582,0.097-1.045,0.291-1.391,0.233-0.414,0.588-0.621,1.064-0.621,0.529,0,0.909,0.254,1.142,0.759,0.16,0.353,0.241,0.8,0.241,1.339,0,0.569-0.089,1.016-0.266,1.343-0.229,0.423-0.601,0.635-1.114,0.635zm-0.007-3.621c-0.322,0-0.549,0.187-0.682,0.563-0.087,0.245-0.131,0.57-0.131,0.975,0,0.537,0.068,0.943,0.204,1.22,0.136,0.276,0.351,0.414,0.645,0.414,0.32,0,0.536-0.145,0.647-0.436s0.167-0.662,0.167-1.112c0-0.624-0.078-1.052-0.231-1.281s-0.359-0.343-0.619-0.343z" stroke="#FFF" stroke-miterlimit="10" stroke-width="0.37799999" fill="none"/></g><g transform="translate(288.05,10.811)"><path d="m0,0c-0.188,0-0.351,0.053-0.49,0.158-0.138,0.106-0.207,0.252-0.207,0.439,0,0.166,0.054,0.312,0.161,0.436s0.28,0.186,0.519,0.186c0.242,0,0.422-0.062,0.54-0.186,0.117-0.124,0.177-0.26,0.177-0.408,0-0.17-0.063-0.318-0.186-0.441s-0.295-0.184-0.514-0.184zm0.032-1.964c-0.288,0-0.501,0.075-0.639,0.226-0.137,0.15-0.206,0.329-0.206,0.536,0,0.239,0.075,0.427,0.226,0.564,0.15,0.135,0.345,0.203,0.583,0.203,0.245,0,0.447-0.066,0.604-0.2,0.157-0.133,0.235-0.328,0.235-0.584,0-0.248-0.076-0.434-0.228-0.558-0.153-0.125-0.344-0.187-0.575-0.187zm-0.709,1.773c-0.226-0.091-0.395-0.221-0.51-0.392-0.114-0.171-0.172-0.374-0.172-0.609,0-0.399,0.133-0.702,0.4-0.912,0.268-0.21,0.594-0.315,0.98-0.315,0.428,0,0.76,0.122,0.995,0.365,0.234,0.242,0.351,0.538,0.351,0.888,0,0.295-0.087,0.535-0.264,0.72-0.095,0.098-0.224,0.185-0.389,0.261,0.148,0.083,0.256,0.167,0.326,0.254,0.126,0.153,0.188,0.354,0.188,0.601,0,0.268-0.107,0.503-0.323,0.703-0.216,0.201-0.514,0.301-0.894,0.301-0.393,0-0.697-0.107-0.91-0.319-0.214-0.213-0.322-0.467-0.322-0.762,0-0.236,0.074-0.428,0.22-0.576,0.077-0.079,0.185-0.149,0.324-0.208z" stroke="#FFF" stroke-miterlimit="10" stroke-width="0.37799999" fill="none"/></g><text font-size="5.67409992px" transform="matrix(1,0,0,-1,248.65,8.5062)" font-family="&apos;QZYROP +Helvetica&apos;" fill="#000000"><tspan y="0" x="0 3.1547997 6.3095994 7.8869991 11.041799 14.196598 15.773998 18.928797 22.083597 26.815796 29.970596 33.125397 34.702797 37.857594">21.01.15 10:08</tspan></text>
</g></svg>
