<?xml version="1.0" encoding="UTF-8" standalone="no"?>
<!-- Created with Inkscape (http://www.inkscape.org/) -->
<svg xmlns:rdf="http://www.w3.org/1999/02/22-rdf-syntax-ns#" xmlns="http://www.w3.org/2000/svg" height="220.39" width="600" version="1.1" xmlns:cc="http://creativecommons.org/ns#" xmlns:dc="http://purl.org/dc/elements/1.1/">
 <metadata>
  <rdf:RDF>
   <cc:Work rdf:about="">
    <dc:format>image/svg+xml</dc:format>
    <dc:type rdf:resource="http://purl.org/dc/dcmitype/StillImage"/>
    <dc:title/>
   </cc:Work>
  </rdf:RDF>
 </metadata>
 <g fill-rule="nonzero" transform="translate(-495.05714,-637.7371)">
  <path d="m1093.7,795.86c0.06,33.106-26.746,60.009-59.843,60.065l-477.26,0.87503c-33.114,0.0598-60.009-26.742-60.069-59.839l-0.17928-96.957c-0.0598-33.106,26.737-60.009,59.851-60.069l477.26-0.87075c33.093-0.064,60.001,26.741,60.065,59.847l0.043,18.179,0.1323,78.769z" fill="#003976"/>
  <path d="m514.82,658.51c-10.607,10.641-17.121,25.303-17.091,41.493l0.175,96.94c0.0256,16.199,6.6032,30.843,17.249,41.442,10.611,10.586,25.286,17.112,41.485,17.091l477.25-0.88356c16.186-0.0299,30.835-6.5989,41.429-17.227,10.594-10.654,17.142-25.312,17.099-41.506l-0.1409-78.777-0.038-18.171c-0.026-16.186-6.6117-30.831-17.261-41.425-10.628-10.598-25.277-17.125-41.455-17.099l-477.27,0.87503c-16.194,0.0256-30.843,6.6288-41.425,17.249m41.817,199.61c-33.848,0.0598-61.341-27.322-61.384-61.17l-0.19208-96.94c-0.0555-33.853,27.331-61.35,61.175-61.409l477.25-0.86649c33.831-0.0598,61.35,27.335,61.409,61.175l0.01,18.175,0.158,78.765c0.077,33.861-27.335,61.35-61.166,61.405l-477.26,0.86648z" fill="#FFF"/>
  <path d="m584.36,719.08-1.5836-0.94758c-5.8605-3.6879-10.184-7.8795-13.159-12.818-2.9153-4.9513-4.5245-10.936-4.7977-17.688l-0.0683-1.7202,6.0526-2.9708,0.18354,4.0166c0.24757,5.4081,1.6818,10.394,4.3111,14.811,2.7744,4.6952,6.5136,8.413,11.141,11.187l3.4361,2.019-5.5148,4.1105zm-7.205,15.763-1.3488-0.83233c-9.4673-5.9459-16.527-12.728-20.983-20.207-4.4818-7.5465-6.7526-16.241-7.188-27.245l-0.0384-1.5665,6.1252-3.6367,0.11525,3.4361,0.0341,0.96466c0.4055,8.9807,2.8214,17.257,7.1666,24.637,4.6141,7.7514,10.842,13.996,18.491,18.55l3.8501,2.2324-6.2233,3.6666zm-9.37-71.62c-25.747,0.0512-46.598,20.971-46.551,46.696,0.0512,25.764,20.975,46.585,46.718,46.547,25.751-0.047,46.59-20.962,46.547-46.713-0.0427-25.738-20.971-46.577-46.713-46.53" fill="#FFF"/>
  <path d="m1033.5,708.32c1.4982-6.9618,7.6703-12.186,15.114-12.203,7.4099-0.0171,13.599,5.1861,15.131,12.144l-30.246,0.0598zm30.758-12.421c-4.2471-4.2769-9.5954-6.4453-15.686-6.4111-6.1081,0-11.444,2.1854-15.686,6.4453-4.23,4.2513-6.3984,9.5825-6.3728,15.691,0.013,6.1251,2.194,11.435,6.4282,15.665,4.2684,4.2342,9.5783,6.4197,15.678,6.4154,0.026-0.004,0.026-0.004,0.038,0.004,3.8671-0.0299,7.5422-0.97746,10.863-2.894,3.3251-1.8482,6.0185-4.5117,8.046-7.8453l0.3884-0.6744-5.6044-3.3635-0.4012,0.6616c-1.4129,2.3177-3.3251,4.1446-5.6557,5.4892-2.3092,1.3019-4.8745,1.9549-7.6447,1.9763-4.2001-0.0128-7.7684-1.4-10.769-4.2428-2.3306-2.2153-3.7391-4.8318-4.3453-7.8538,6.0526-0.0213,37.156-0.064,37.156-0.064l-0.01-3.308c0-6.138-2.1641-11.448-6.4239-15.691" fill="#FFF"/>
  <path d="m770.83,708.77-0.0213-11.998,18.563-0.0341s2.4885-0.0896,4.1745,1.7415c0,0,1.75,1.558,1.7586,4.2385,0,0,0.0427,2.6293-1.7372,4.2428,0,0-1.383,1.7671-4.1958,1.7671l-18.542,0.0427zm16.967,6.5093c0.88783,0,1.5537-0.009,1.5537-0.009,3.4104-0.004,6.4197-1.2805,8.8313-3.7348,2.4458-2.3903,3.6836-5.4422,3.6751-8.8655,0-3.4104-1.2592-6.4239-3.6794-8.8569-2.4415-2.4159-5.4721-3.6751-8.8697-3.658l-25.081,0.047,0.0768,43.644,6.5605-0.009s-0.0256-14.73-0.0299-18.525c2.1-0.009,6.5008-0.0171,7.8069-0.0256,1.0159,1.0116,18.495,18.448,18.495,18.448l9.2325-0.0128s-14.282-14.188-18.572-18.444" fill="#FFF"/>
  <path d="m991.08,708.36-0.0213-12.007,18.559-0.0128s2.4842-0.10671,4.1745,1.733c0,0,1.7671,1.558,1.7671,4.2428,0,0,0.051,2.6165-1.7372,4.2471,0,0-1.3702,1.7628-4.1745,1.7628l-18.568,0.0342zm16.958,6.5178c0.9049-0.004,1.5622-0.004,1.5622-0.004,3.3934-0.009,6.4325-1.3019,8.8527-3.7348,2.4116-2.4031,3.6794-5.4508,3.6623-8.8655-0.01-3.419-1.2592-6.4367-3.6708-8.8569-2.4586-2.4202-5.4892-3.6879-8.8612-3.6751l-25.111,0.0512,0.0854,43.653,6.5691-0.0256s-0.0341-14.722-0.0384-18.508c2.1043-0.009,6.505-0.0171,7.824-0.0256,1.0074,0.9988,18.482,18.452,18.482,18.452l9.2198-0.004s-14.282-14.201-18.576-18.457" fill="#FFF"/>
  <path d="m726.73,708.82-0.0213-11.99,18.563-0.0256s2.4885-0.10671,4.1745,1.7287c0,0,1.7628,1.5494,1.7671,4.2342,0,0,0.0427,2.6251-1.7586,4.2598,0,0-1.3445,1.7671-4.1617,1.7586l-18.563,0.0341zm27.412-14.845-0.0128-0.0171-0.0469-0.0598c-2.4287-2.4244-5.4636-3.6708-8.827-3.658l-25.107,0.0469,0.0854,43.627h6.5434s-0.0341-14.739-0.0384-18.533c3.9013-0.009,18.563-0.0213,18.563-0.0213,3.3806,0.004,6.4154-1.2848,8.8142-3.7348,2.4244-2.4116,3.6538-5.4636,3.6452-8.874,0.009-3.3763-1.2293-6.3514-3.6196-8.7758" fill="#FFF"/>
  <path d="m813.36,708.72c1.4854-6.9618,7.6618-12.186,15.076-12.195,7.4356-0.0213,13.629,5.1776,15.17,12.144l-30.246,0.0512zm30.758-12.404c-4.2641-4.294-9.5954-6.4581-15.716-6.4197-6.0953-0.0171-11.439,2.1769-15.661,6.441-4.2257,4.2556-6.394,9.5825-6.3855,15.686,0.0171,6.1251,2.1854,11.426,6.4367,15.678,4.2599,4.2214,9.5868,6.4069,15.665,6.3983,0.0213,0.004,0.0384,0.004,0.0384-0.004,3.8714-0.009,7.5465-0.95612,10.884-2.8769,3.3165-1.844,6.027-4.516,8.0331-7.8496l0.40122-0.6616-5.6172-3.3848-0.37989,0.67441c-1.4256,2.3007-3.3336,4.1489-5.6642,5.4806-2.3305,1.3061-4.8788,1.9677-7.6788,1.972-4.1788,0.004-7.7343-1.3915-10.735-4.2385-2.3348-2.211-3.7604-4.8361-4.3751-7.8496,6.0867-0.0213,37.178-0.0726,37.178-0.0726l-0.0128-3.2909c0-6.1465-2.1385-11.452-6.4111-15.682" fill="#FFF"/>
  <path d="m677.25,727.49c-8.5069,0.0342-15.413-6.8465-15.43-15.349-0.0256-8.524,6.8678-15.43,15.375-15.439,8.4941-0.0256,15.409,6.8636,15.426,15.375,0.0128,8.5069-6.8678,15.405-15.37,15.413m15.234-37.178s0,3.7733,0.0128,6.3343c-0.92198-0.93478-1.9507-1.8525-3.1031-2.6293-3.6623-2.433-7.7642-3.6794-12.173-3.6751-5.9758,0.009-11.239,2.1854-15.43,6.3898-4.2428,4.2086-6.3898,9.4588-6.3684,15.477,0,6.0184,2.1555,11.29,6.3599,15.464,4.2257,4.1916,9.4716,6.3428,15.481,6.3258h0.0341c4.3964,0,8.4984-1.2506,12.156-3.6879,1.1397-0.77258,2.1513-1.6732,3.0989-2.6293,0.009,2.5696,0.009,6.2959,0.009,6.2959l6.5392-0.0171-0.0768-43.657-6.5392,0.009z" fill="#FFF"/>
  <path d="m629.65,734.1-0.0768-43.661,6.5434-0.004s0.064,31.501,0.0683,37.071c3.7092-0.009,17.735-0.0171,17.735-0.0171l0.004,6.5691-24.274,0.0427z" fill="#FFF"/>
  <path d="m893.01,733.61-0.047-31.001c-0.0384-1.7202-0.5677-2.9879-1.7543-4.2812-1.2464-1.2165-2.5952-1.7927-4.3111-1.7927-1.7927,0.0171-3.0476,0.54209-4.3111,1.7628-1.1866,1.1653-1.6689,2.4586-1.6988,4.2513l0.0683,31.095-6.5605,0.004-0.047-31.082c-0.0213-1.7628-0.54636-3.005-1.7714-4.2342-1.2464-1.208-2.4885-1.7415-4.2385-1.7586-1.7244,0.0128-3.0476,0.5805-4.2385,1.7586-1.2208,1.2421-1.7287,2.497-1.7372,4.2428l0.0512,31.087-6.5733,0.0171-0.0811-43.636,6.5861-0.0171s-0.0128,1.208,0,1.686c1.7244-1.0201,3.6836-1.686,5.9715-1.6946,2.5184-0.004,4.9001,0.72563,6.9916,2.1257,0.86221,0.60185,1.5964,1.2848,2.2153,2.019,0.67014-0.7427,1.4128-1.4555,2.322-2.0446,2.1214-1.4086,4.4989-2.1214,7.0343-2.1342,3.419-0.0171,6.4538,1.2677,8.9039,3.7007,2.4372,2.4543,3.7178,5.4636,3.7263,8.8911l0.0512,31.018-6.552,0.0171z" fill="#FFF"/>
  <path d="m952.64,685.82-14.163-14.615,9.2539-0.0171,12.686,14.606-7.777,0.0256z" fill="#FFF"/>
  <path d="m918.8,733.56-0.0598-33.114c-3.1373,2.3775-7.0727,4.247-11.704,5.5703l-1.7415,0.50367-0.009-6.855,0.55062-0.21342,0.38416-0.11098c2.9495-0.99027,5.4465-2.1982,7.4398-3.5897,1.7031-1.2208,3.7391-3.1245,5.98-5.6812l0.40123-0.43964,5.3782-0.009,0.0982,43.926-6.7184,0.0128z" fill="#FFF"/>
  <path d="m940.63,708.49c1.4897-6.9532,7.6831-12.186,15.085-12.203,7.4227-0.009,13.646,5.1946,15.157,12.156l-30.242,0.047zm30.762-12.412c-4.2641-4.2769-9.5911-6.4367-15.716-6.4197-6.0739,0.009-11.414,2.1854-15.644,6.441-4.2428,4.2599-6.4197,9.5996-6.394,15.699-0.009,6.1294,2.194,11.439,6.4495,15.661,4.23,4.2342,9.5698,6.4325,15.652,6.4111,0.0171,0,0.0171,0,0.0213-0.009,3.88,0,7.5636-0.95185,10.884-2.8769,3.308-1.8439,6.0184-4.4946,8.0374-7.8538l0.41403-0.65306-5.6172-3.3763-0.4055,0.6616c-1.4043,2.3135-3.3123,4.1574-5.6556,5.4806-2.3177,1.3019-4.8574,1.9677-7.6788,1.9805-4.1617,0.004-7.7514-1.4-10.744-4.2385-2.3092-2.2238-3.7434-4.8404-4.341-7.8496,6.0654-0.009,37.161-0.0598,37.161-0.0598l-0.0213-3.3037c0.009-6.1422-2.1427-11.456-6.4026-15.695" fill="#FFF"/>
  <path d="m787.85,713.65,0.0299,0-0.0299-0.0171,0,0.0171z" fill="#FFF"/>
  <path d="m1088.3,796.1c0.051,30.481-25.41,54.422-54.512,54.49l-476.9,0.85795c-30.989,0.0555-54.913-25.064-54.96-54.448l-0.0469-21.397,586.39-1.0628,0.034,21.56z" fill="#FFF"/>
  <path d="m524.78,815.02,14.811-0.96893c0.32013,2.4244,0.986,4.2556,1.972,5.502,1.6049,2.036,3.8928,3.0519,6.8721,3.0434,2.2324,0,3.9397-0.53355,5.1477-1.5665,1.1866-1.05,1.7927-2.2452,1.7927-3.6239-0.004-1.3104-0.58051-2.4757-1.7287-3.5257-1.1525-1.0116-3.8117-1.9805-7.9819-2.8854-6.8294-1.5366-11.704-3.5556-14.615-6.1038-2.9324-2.544-4.4092-5.7709-4.4178-9.7063-0.004-2.5909,0.7427-5.0324,2.2366-7.3416,1.5025-2.3177,3.7519-4.1361,6.7569-5.4465,3.0178-1.3189,7.1453-1.972,12.391-1.9891,6.441-0.0256,11.354,1.161,14.734,3.5428,3.3848,2.4074,5.391,6.202,6.0611,11.435l-14.683,0.87502c-0.39696-2.2665-1.2208-3.9141-2.4671-4.9428-1.2464-1.033-2.9623-1.5452-5.1776-1.5324-1.8013-0.0128-3.1629,0.37562-4.0806,1.1567-0.92197,0.76831-1.3744,1.7074-1.3702,2.8086,0.004,0.80246,0.38415,1.5067,1.1268,2.147,0.73844,0.67441,2.4842,1.272,5.2416,1.8397,6.8038,1.4726,11.678,2.9281,14.624,4.4434,2.9452,1.4854,5.105,3.3464,6.4496,5.566,1.3317,2.2324,2.0104,4.708,2.0104,7.4526,0.0171,3.2397-0.87929,6.2148-2.6507,8.9423-1.7927,2.7318-4.2812,4.8105-7.4868,6.2361-3.2013,1.4043-7.2477,2.1086-12.127,2.1171-8.5752,0.0256-14.508-1.622-17.821-4.9172-3.2995-3.3037-5.1776-7.4782-5.6215-12.558" fill="#003976"/>
  <path d="m590.41,813.39c0.0128,3.2482,0.67014,5.6471,1.9933,7.2008,1.3104,1.575,2.9708,2.3391,4.9684,2.3391,2.0147-0.0128,3.6666-0.78111,4.9556-2.322,1.2933-1.5281,1.9293-3.9782,1.925-7.3886,0-3.1501-0.65306-5.502-1.9592-7.0514-1.3147-1.5494-2.9409-2.3177-4.8617-2.3092-2.0403,0-3.7178,0.78112-5.0452,2.3562-1.3275,1.575-1.9805,3.9611-1.9763,7.1752m-14.03,0.0555c-0.009-5.5745,1.8738-10.155,5.6087-13.774,3.7562-3.6281,8.8185-5.4294,15.213-5.4379,7.316-0.0128,12.835,2.1043,16.587,6.33,3.0007,3.4062,4.5074,7.6063,4.516,12.596,0.009,5.6044-1.8269,10.219-5.5532,13.808-3.7178,3.5897-8.8569,5.4081-15.443,5.4166-5.8648,0.004-10.603-1.4683-14.231-4.4519-4.4562-3.6794-6.6886-8.5069-6.6971-14.487" fill="#003976"/>
  <path d="m620.5,795,14.756-0.0213,7.5807,24.283,6.9361-24.317,13.795-0.0213-14.423,39.022c-1.6305,4.4605-3.308,7.4697-5.0239,9.0191-2.4244,2.211-6.1209,3.3123-11.098,3.3379-2.0061,0-5.1306-0.27745-9.3435-0.8238l-1.114-9.7533c2.0147,0.64026,4.2641,0.96039,6.7227,0.94758,1.6519,0.004,2.9921-0.37562,4.008-1.1354,1.0201-0.75124,1.8824-2.1257,2.5866-4.0678l-15.383-36.469z" fill="#003976"/>
  <path d="m694.33,809.9c-0.27318-2.7062-1.0031-4.6398-2.1897-5.805-1.1823-1.1738-2.7275-1.7543-4.6611-1.7586-2.2153,0.004-3.9952,0.90064-5.327,2.6678-0.83661,1.097-1.3744,2.7446-1.6049,4.9087l13.783-0.0128zm14.239,6.6672-28.035,0.0555c0.26037,2.2409,0.86221,3.9141,1.8226,5.0154,1.3659,1.5793,3.1287,2.3519,5.3014,2.3562,1.3744-0.004,2.6806-0.33293,3.9141-1.033,0.76404-0.44818,1.5665-1.2037,2.4372-2.3007l13.774,1.2421c-2.0958,3.6666-4.6355,6.2959-7.6063,7.8965-2.9793,1.6049-7.252,2.4074-12.805,2.4074-4.8404,0.009-8.6563-0.67014-11.426-2.0275-2.7702-1.3531-5.0751-3.5086-6.8977-6.4752-1.8226-2.9665-2.7446-6.4367-2.7617-10.47,0-5.694,1.8226-10.317,5.4636-13.855,3.658-3.5385,8.6947-5.2928,15.119-5.3099,5.2373-0.0213,9.3648,0.76405,12.387,2.3562,3.0348,1.558,5.3398,3.8586,6.9191,6.8508,1.5921,2.9964,2.3946,6.9105,2.3903,11.721l0.004,1.5708z" fill="#003976"/>
  <path d="m715.41,794.84,33.865-0.0683,0.009,8.1782-18.388,18.794,19.571-0.0171,0.009,9.5484-36.367,0.0811-0.004-9.0917,17.453-17.906-16.135,0.0342-0.0128-9.5527z" fill="#003976"/>
  <path d="m800.56,816.88,13.296,1.4982c-0.73416,2.7616-1.9378,5.1733-3.6025,7.2093-1.669,2.0104-3.7861,3.6111-6.4026,4.7123-2.5866,1.1482-5.8861,1.7116-9.9155,1.7202-3.8586,0.004-7.1197-0.35001-9.6679-1.0714-2.5824-0.71709-4.802-1.8738-6.6544-3.4787-1.8525-1.6092-3.3165-3.5001-4.3836-5.6812-1.0586-2.1683-1.5921-5.0495-1.6006-8.6648-0.004-3.7263,0.63599-6.8636,1.9122-9.352,0.93478-1.8354,2.2196-3.4873,3.8416-4.9343,1.6049-1.4769,3.2909-2.561,5.0154-3.2482,2.7275-1.1397,6.219-1.7159,10.475-1.7159,5.9672-0.009,10.5,1.0415,13.629,3.1714,3.1415,2.1342,5.344,5.233,6.6117,9.3264l-13.159,1.7756c-0.42257-1.5665-1.1824-2.719-2.258-3.5086-1.1012-0.78538-2.561-1.1866-4.3836-1.1866-2.3092,0.009-4.1916,0.84941-5.6172,2.5056-1.4299,1.6647-2.1342,4.1745-2.1385,7.5337,0.004,3.005,0.70856,5.2715,2.1427,6.838,1.4171,1.5409,3.2397,2.3177,5.4294,2.3177,1.8312-0.009,3.3934-0.4866,4.6312-1.4171,1.2293-0.93904,2.1769-2.3946,2.8001-4.3495" fill="#003976"/>
  <path d="m858.76,831.08-13.066,0.0171-0.004-5.9245c-1.925,2.4458-3.9098,4.1745-5.869,5.2245-1.9976,1.0244-4.4221,1.5409-7.3075,1.5494-3.8757,0.009-6.8764-1.1397-9.0703-3.436-2.1854-2.3049-3.3037-5.8349-3.2952-10.637l-0.0469-23.233,14.06-0.0256,0.0384,20.066c0.004,2.2921,0.42257,3.9269,1.272,4.883,0.85794,0.96893,2.0403,1.4342,3.594,1.4427,1.6732-0.009,3.0391-0.6488,4.0976-1.9208,1.0543-1.2933,1.5836-3.6025,1.5708-6.9233l-0.0256-17.564,13.996-0.0341,0.0555,36.516z" fill="#003976"/>
  <path d="m870.28,794.55,13.091-0.0299,0.004,5.9928c1.2592-2.608,2.561-4.3794,3.9013-5.3568,1.3275-0.96892,2.9964-1.4683,4.9641-1.4726,2.0531-0.004,4.3239,0.64452,6.7825,1.9122l-4.3196,9.971c-1.669-0.68295-2.958-1.0159-3.9227-1.0244-1.8354,0.009-3.2525,0.76831-4.2599,2.2921-1.4342,2.1214-2.1513,6.1209-2.1427,11.956l0.0128,12.237-14.052,0.0213-0.0598-36.499z" fill="#003976"/>
  <path d="m905.34,794.48,13.983-0.0128,0.0811,36.503-13.983,0.0213-0.0811-36.512zm-0.0213-13.885,13.992-0.0213,0.0128,9.5356-14,0.0171-0.004-9.5313z" fill="#003976"/>
  <path d="m954.87,809.41c-0.28171-2.6934-0.99027-4.6269-2.194-5.8008-1.1695-1.1695-2.7318-1.7543-4.6483-1.7458-2.2366-0.009-4.0123,0.89209-5.327,2.6549-0.86222,1.1098-1.3872,2.7403-1.6177,4.9172l13.787-0.0256zm14.239,6.6886-28.035,0.047c0.24756,2.2281,0.86648,3.9098,1.8141,5.0026,1.3787,1.5878,3.1287,2.3604,5.3142,2.3604,1.3744-0.009,2.6677-0.33294,3.9098-1.033,0.76404-0.43538,1.5836-1.1952,2.4586-2.2964l13.77,1.2378c-2.1214,3.6751-4.644,6.3044-7.6105,7.9093-2.9964,1.5836-7.2648,2.4031-12.822,2.4074-4.8532,0.009-8.635-0.67014-11.422-2.0318-2.7744-1.3488-5.0837-3.5001-6.902-6.4794-1.8183-2.9665-2.736-6.441-2.7488-10.458-0.009-5.7026,1.8055-10.325,5.4593-13.864,3.6409-3.5385,8.6734-5.3099,15.14-5.3099,5.2117-0.0171,9.3264,0.7555,12.357,2.3562,3.0348,1.558,5.3355,3.8586,6.9191,6.8422,1.5878,3.005,2.3988,6.8935,2.4074,11.712l-0.009,1.5964z" fill="#003976"/>
  <path d="m1014.7,830.79-13.044,0.0299-0.01-5.9245c-1.9592,2.4287-3.9141,4.166-5.8861,5.2117-1.9891,1.0287-4.4178,1.5494-7.299,1.558-3.8629,0-6.8636-1.1397-9.0661-3.4361-2.1897-2.3049-3.2952-5.8434-3.308-10.645l-0.0384-23.224,14.06-0.0256,0.0427,20.057c-0.0128,2.2921,0.42684,3.9355,1.2762,4.8958,0.84087,0.96465,2.036,1.4342,3.5769,1.4256,1.6775,0,3.0519-0.61892,4.1019-1.9208,1.0672-1.2848,1.5836-3.594,1.6006-6.9148l-0.043-17.569,13.962-0.0256,0.073,36.508z" fill="#003976"/>
  <path d="m1022,794.28,16.604-0.0341,5.8007,10.155,6.7398-10.184,15.434-0.0256-12.421,17.415,13.377,19.088-16.31,0.0299-6.7867-11.742-7.9051,11.764-15.157,0.0256,13.232-19.131-12.609-17.36z" fill="#003976"/>
 </g>
</svg>
