<?xml version="1.0" encoding="UTF-8" standalone="no"?>
<!-- Created with Inkscape (http://www.inkscape.org/) -->

<svg
   xmlns:dc="http://purl.org/dc/elements/1.1/"
   xmlns:cc="http://creativecommons.org/ns#"
   xmlns:rdf="http://www.w3.org/1999/02/22-rdf-syntax-ns#"
   xmlns:svg="http://www.w3.org/2000/svg"
   xmlns="http://www.w3.org/2000/svg"
   xmlns:inkscape="http://www.inkscape.org/namespaces/inkscape"
   version="1.0"
   width="423"
   height="74"
   id="svg2">
  <metadata
     id="metadata36">
    <rdf:RDF>
      <cc:Work
         rdf:about="">
        <dc:format>image/svg+xml</dc:format>
        <dc:type
           rdf:resource="http://purl.org/dc/dcmitype/StillImage" />
      </cc:Work>
    </rdf:RDF>
  </metadata>
  <defs
     id="defs34" />
  <g
     transform="translate(-359.74523,-472.28102)"
     id="layer1">
    <g
       transform="matrix(14.922319,0,0,-14.922319,-4383.096,4453.0036)"
       id="g3771">
      <g
         transform="translate(330.2094,264.2836)"
         id="g3773">
        <path
           d="m 0,0 c 0,2.269 -2.215,2.479 -2.215,2.479 l -7.679,0 c -1.369,0 -2.48,-1.11 -2.48,-2.479 0,-1.369 1.111,-2.479 2.48,-2.479 0.089,0 7.592,0.005 7.679,0.014 l 0,0 C -0.97,-2.333 0,-1.28 0,0"
           inkscape:connector-curvature="0"
           id="path3775"
           style="fill:#bdbcbc;fill-rule:nonzero;stroke:none" />
      </g>
      <g
         transform="translate(330.2094,264.2836)"
         id="g3777">
        <path
           d="m 0,0 c 0,-1.369 -1.11,-2.479 -2.479,-2.479 -1.37,0 -2.48,1.11 -2.48,2.479 0,1.369 1.11,2.479 2.48,2.479 C -1.11,2.479 0,1.369 0,0"
           inkscape:connector-curvature="0"
           id="path3779"
           style="fill:#ef2728;fill-rule:nonzero;stroke:none" />
      </g>
      <g
         transform="translate(330.1978,266.6526)"
         id="g3781">
        <path
           d="m 0,0 c -1.306,0 -2.369,-1.063 -2.369,-2.369 0,-1.306 1.063,-2.369 2.369,-2.369 0.134,0 13.559,0.005 13.763,0.014 1.201,0.128 2.111,1.14 2.111,2.355 0,2.116 -1.984,2.356 -2.11,2.369 L 0,0 z"
           inkscape:connector-curvature="0"
           id="path3783"
           style="fill:#ffffff;fill-rule:nonzero;stroke:none" />
      </g>
      <g
         transform="translate(343.9442,262.038)"
         id="g3785">
        <path
           d="M 0,0 C 0,0 0,0 0.001,0 0,0 0,0 0,0 m 0.011,0.001 c 0,0 0.001,0 0.001,0 0,0 -0.001,0 -0.001,0 m -13.757,-0.014 c -0.305,0 -0.601,0.06 -0.88,0.177 -0.268,0.114 -0.51,0.277 -0.717,0.485 -0.208,0.207 -0.371,0.449 -0.485,0.718 -0.117,0.278 -0.177,0.574 -0.177,0.879 0,0.305 0.06,0.6 0.177,0.879 0.114,0.269 0.277,0.51 0.485,0.718 0.207,0.207 0.449,0.37 0.717,0.484 0.279,0.118 0.575,0.177 0.88,0.177 l 13.757,0 C 0.082,4.495 0.561,4.428 1.029,4.14 1.317,3.962 1.546,3.736 1.709,3.467 1.914,3.129 2.017,2.718 2.017,2.246 2.017,1.684 1.81,1.146 1.434,0.731 1.062,0.32 0.555,0.061 0.007,0.001 -0.383,-0.008 -13.614,-0.013 -13.746,-0.013 m 13.769,4.738 -13.769,0 c -1.37,0 -2.48,-1.11 -2.48,-2.479 0,-1.37 1.11,-2.48 2.48,-2.48 0.089,0 13.682,0.005 13.769,0.014 1.245,0.132 2.215,1.186 2.215,2.466 0,2.269 -2.215,2.479 -2.215,2.479"
           inkscape:connector-curvature="0"
           id="path3787"
           style="fill:#221e1f;fill-rule:nonzero;stroke:none" />
      </g>
      <g
         transform="translate(344.6177,263.0402)"
         id="g3789">
        <path
           d="m 0,0 -1.027,1.32 0.959,1.183 -0.851,0 -0.782,-1.056 0,1.056 -0.734,0 0,-2.503 0.734,0 0,1.104 L -0.9,0 0,0 z"
           inkscape:connector-curvature="0"
           id="path3791"
           style="fill:#221e1f;fill-rule:nonzero;stroke:none" />
      </g>
      <path
         d="m 341.759,265.056 -0.701,0 0,0.488 0.701,0 0,-0.488 z"
         inkscape:connector-curvature="0"
         id="path3793"
         style="fill:#221e1f;fill-rule:nonzero;stroke:none" />
      <path
         d="m 341.745,264.832 -0.68,0 0,-1.791 0.68,0 0,1.791 z"
         inkscape:connector-curvature="0"
         id="path3795"
         style="fill:#221e1f;fill-rule:nonzero;stroke:none" />
      <g
         transform="translate(338.1302,265.0272)"
         id="g3797">
        <path
           d="m 0,0 0,0.516 -1.843,0 0,-0.516 0.527,0 0,-1.381 c 0.028,-0.672 0.473,-0.658 0.629,-0.658 0.157,0 0.491,0.078 0.491,0.078 l -0.021,0.509 c -0.066,-0.066 -0.221,-0.053 -0.221,-0.053 -0.138,0 -0.192,0.124 -0.192,0.124 L -0.63,0 0,0 z"
           inkscape:connector-curvature="0"
           id="path3799"
           style="fill:#221e1f;fill-rule:nonzero;stroke:none" />
      </g>
      <g
         transform="translate(339.4326,265.0237)"
         id="g3801">
        <path
           d="m 0,0 c -0.431,0 -0.423,-0.381 -0.423,-0.381 l 0,-1.602 -0.741,0 0,1.702 C -1.039,0.605 0,0.559 0,0.559 c 0,0 1.039,0.046 1.164,-0.84 l 0,-1.702 -0.741,0 0,1.602 C 0.423,-0.381 0.431,0 0,0"
           inkscape:connector-curvature="0"
           id="path3803"
           style="fill:#221e1f;fill-rule:nonzero;stroke:none" />
      </g>
      <g
         transform="translate(334.8619,263.5599)"
         id="g3805">
        <path
           d="m 0,0 c 0.431,0 0.423,0.381 0.423,0.381 l 0,1.602 0.741,0 0,-1.702 C 1.039,-0.605 0,-0.559 0,-0.559 c 0,0 -1.039,-0.046 -1.164,0.84 l 0,1.702 0.741,0 0,-1.602 C -0.423,0.381 -0.431,0 0,0"
           inkscape:connector-curvature="0"
           id="path3807"
           style="fill:#221e1f;fill-rule:nonzero;stroke:none" />
      </g>
      <g
         transform="translate(332.3299,264.3176)"
         id="g3809">
        <path
           d="m 0,0 -0.379,0 0,0.749 0.36,-0.005 c 0,0 0.388,0.019 0.388,-0.336 C 0.369,0.024 0,0 0,0 m 0.269,1.226 -1.354,0 0,-2.503 0.706,0 0,0.831 0.753,0 c 0,0 0.712,0.024 0.712,0.855 0,0.831 -0.817,0.817 -0.817,0.817"
           inkscape:connector-curvature="0"
           id="path3811"
           style="fill:#221e1f;fill-rule:nonzero;stroke:none" />
      </g>
      <g
         transform="translate(330.78,265.4932)"
         id="g3813">
        <path
           d="m 0,0 -0.014,-0.518 c 0,0 -0.259,0.12 -0.648,0.12 -0.389,0 -0.466,-0.168 -0.466,-0.221 0,-0.053 0.015,-0.178 0.322,-0.269 0.307,-0.091 0.984,-0.206 0.95,-0.815 -0.034,-0.61 -0.605,-0.821 -1.113,-0.797 -0.509,0.024 -0.84,0.096 -0.864,0.12 l 0.034,0.518 c 0,0 0.412,-0.201 0.748,-0.173 0.336,0.029 0.466,0.135 0.466,0.279 0,0.144 -0.231,0.254 -0.591,0.36 -0.359,0.105 -0.676,0.278 -0.676,0.724 0,0.446 0.451,0.795 1.094,0.758 C -0.115,0.05 0,0 0,0"
           inkscape:connector-curvature="0"
           id="path3815"
           style="fill:#221e1f;fill-rule:nonzero;stroke:none" />
      </g>
      <text
         transform="scale(1,-1)"
         id="text3817">
        <tspan
           x="319.565"
           y="-264.57101"
           id="tspan3819"
           style="font-size:1.81529999px;letter-spacing:0;fill:#ffffff;fill-rule:nonzero;stroke:none;font-family:font8">MDR</tspan>
      </text>
    </g>
    <g
       transform="matrix(1,0,0,-1,93.610562,886.55976)"
       id="g5433" />
    <g
       transform="matrix(1,0,0,-1,93.610562,886.55976)"
       id="g5987" />
    <g
       transform="matrix(1,0,0,-1,93.610562,886.55976)"
       id="g6535" />
  </g>
</svg>
