<?xml version="1.0" encoding="UTF-8" standalone="no"?>
<!-- Created with Inkscape (http://www.inkscape.org/) -->
<svg xmlns:rdf="http://www.w3.org/1999/02/22-rdf-syntax-ns#" xmlns="http://www.w3.org/2000/svg" height="300.23" width="600" version="1.1" xmlns:cc="http://creativecommons.org/ns#" xmlns:dc="http://purl.org/dc/elements/1.1/">
 <metadata>
  <rdf:RDF>
   <cc:Work rdf:about="">
    <dc:format>image/svg+xml</dc:format>
    <dc:type rdf:resource="http://purl.org/dc/dcmitype/StillImage"/>
    <dc:title/>
   </cc:Work>
  </rdf:RDF>
 </metadata>
 <g transform="translate(-497.74389,-594.69636)">
  <g transform="matrix(4.4396431,0,0,-4.4396431,1097.7439,894.62533)">
   <path fill-rule="nonzero" fill="#d63647" d="M0,0-135.11-0.067-135.15,67.491-0.033,67.557,0,0z"/>
  </g>
  <g transform="matrix(4.4396431,0,0,-4.4396431,619.06377,854.38171)">
   <path fill-rule="nonzero" fill="#FFF" d="M0,0-6.46,13.832-6.508,13.83-7.185,2.152c-0.075-1.324,0.888-1.608,2.024-1.66v-0.494l-5.263-0.004v0.495c1.851,0.002,2.077,0.419,2.198,2.777l0.603,10.097c0.103,1.713,0.055,2.181-1.519,2.284v0.468h3.821l6.106-13.076,6.065,13.081,3.721,0.004-0.001-0.469c-1.24-0.102-1.719-0.131-1.666-1.015l0.81-11.751c0.158-2.389,0.358-2.387,2.204-2.387v-0.495l-6.502-0.003v0.494c1.187-0.002,2.353,0.336,2.249,1.717l-0.74,11.62-0.048,0.002-6.292-13.835-0.585-0.002z"/>
  </g>
  <g transform="matrix(4.4396431,0,0,-4.4396431,766.41953,781.73232)">
   <path fill-rule="nonzero" fill="#FFF" d="m0,0,0-0.495c-1.692-0.03-2.303-0.724-2.302-2.39l0.005-7.003c0.002-3.221-1.997-6.673-7.485-6.676-4.835-0.003-7.313,2.827-7.313,6.54l-0.003,7.575c-0.002,1.66-0.459,1.917-2.181,1.945v0.494l6.499,0.004-0.001-0.494h-0.222c-1.392,0-2.002-0.395-2.002-1.898l0.003-7.212c0.002-3.504,2.004-5.606,5.773-5.604,2.86,0.004,5.771,1.225,5.768,5.633l-0.002,6.048c-0.002,2.494-0.384,2.933-2.483,3.035v0.496l5.946,0.002z"/>
  </g>
  <g transform="matrix(4.4396431,0,0,-4.4396431,787.32624,763.58483)">
   <path fill-rule="nonzero" fill="#FFF" d="m0,0c0.532-2.314,2.303-3.658,4.283-3.658,1.691,0.002,3.484,1.013,3.482,3.064-0.002,3.74-8.121,4.875-8.126,9.417,0,2.153,1.927,3.763,4.507,3.763,2.123,0.001,2.554-0.648,3.437-0.646,0.206-0.002,0.303,0.052,0.458,0.258h0.405l0.431-3.291-0.429-0.001c-0.711,1.864-2.331,3.061-4.077,3.06-1.668-0.002-2.828-0.99-2.83-2.442,0.004-3.685,8.122-4.669,8.124-9.44,0.002-2.543-2.199-4.439-5.155-4.441-1.397,0-3.165,0.699-3.526,0.699-0.222,0-0.397-0.133-0.502-0.285l-0.433,0.002-0.528,3.939,0.479,0.002z"/>
  </g>
  <g transform="matrix(4.4396431,0,0,-4.4396431,874.1257,782.0444)">
   <path fill-rule="nonzero" fill="#FFF" d="m0,0-6.145-0.002,0,0.492c1.565,0.076,1.892,0.493,1.891,2.231l-0.006,11.057c0,1.399-0.482,1.787-1.895,1.867v0.493l6.145,0.004v-0.495c-1.595-0.002-2.152-0.367-2.149-2.103l0.006-11.003c-0.001-1.529,0.405-2.051,2.15-2.051l0.003-0.49z"/>
  </g>
  <g transform="matrix(4.4396431,0,0,-4.4396431,925.00358,638.22838)">
   <path fill-rule="nonzero" fill="#FFF" d="m0,0c-4.457-0.002-6.224-4.256-6.224-7.365,0.004-4.854,3.22-8.252,7.289-8.25,4.123,0.001,6.099,3.714,6.095,7.395-0.003,4.825-2.986,8.223-7.16,8.22m9.926-21.117c-0.403-0.1-0.73-0.154-1.164-0.155-3.969,0-5.742,3.712-8.984,5.002-4.813,0.337-8.375,3.63-8.377,8.2-0.003,4.957,3.966,8.721,9.156,8.722,4.883,0.003,8.981-3.238,8.983-8.092,0.001-4.02-2.605-7.551-6.753-8.594l0.001-0.048c2.934-1.112,4.408-4.41,7.546-4.487l-0.408-0.548z"/>
  </g>
  <g transform="matrix(4.4396431,0,0,-4.4396431,993.18759,670.81625)">
   <path fill-rule="nonzero" fill="#FFF" d="M0,0c2.094,1.792,3.436,3.095,3.436,4.521-0.004,1.321-1.091,2.385-2.457,2.385-1.288-0.003-2.653-1.015-3.362-2.545l-0.453,0.183c0.857,2.255,2.676,3.683,4.674,3.686,1.876,0,3.295-1.244,3.295-2.879,0-1.324-0.934-2.648-2.605-3.659l0.05-0.054c2.325,0.235,4.074-1.838,4.074-4.225,0.001-3.219-3.009-6.076-6.398-6.079-2.049-0.001-3.817,0.859-3.818,1.842-0.002,0.467,0.379,0.881,0.779,0.881,1.139,0,2.078-2.021,3.9-2.022,1.975,0.005,3.647,2.159,3.642,4.702,0,2.021-1.194,3.604-2.759,3.602-0.607,0.002-1.193-0.23-1.777-0.701l-0.221,0.362z"/>
  </g>
 </g>
</svg>
