<?xml version="1.0" encoding="UTF-8" standalone="no"?>
<!-- Created with Inkscape (http://www.inkscape.org/) -->

<svg
   xmlns:dc="http://purl.org/dc/elements/1.1/"
   xmlns:cc="http://creativecommons.org/ns#"
   xmlns:rdf="http://www.w3.org/1999/02/22-rdf-syntax-ns#"
   xmlns:svg="http://www.w3.org/2000/svg"
   xmlns="http://www.w3.org/2000/svg"
   xmlns:xlink="http://www.w3.org/1999/xlink"
   xmlns:sodipodi="http://sodipodi.sourceforge.net/DTD/sodipodi-0.dtd"
   xmlns:inkscape="http://www.inkscape.org/namespaces/inkscape"
   width="478.15549"
   height="323.63937"
   id="svg2"
   version="1.1"
   inkscape:version="0.48.3.1 r9886"
   sodipodi:docname="Neues Dokument 1">
  <defs
     id="defs4">
    <clipPath
       id="clipPath2999"
       clipPathUnits="userSpaceOnUse">
      <path
         id="path3001"
         d="m 0,124.725 187.086,0 L 187.086,0 0,0 0,124.725 z"
         inkscape:connector-curvature="0" />
    </clipPath>
    <clipPath
       id="SVGID_2_">
      <use
         id="use3225"
         overflow="visible"
         xlink:href="#SVGID_1_"
         style="overflow:visible"
         x="0"
         y="0"
         width="1"
         height="1" />
    </clipPath>
    <defs
       id="defs3221">
      <polyline
         points="0,0 226.484,0 226.66,226.719 0.18,226.719"
         id="SVGID_1_" />
    </defs>
    <clipPath
       id="clipPath18">
      <path
         id="path20"
         inkscape:connector-curvature="0"
         d="m 0,0 1870.88,0 0,1247 L 0,1247 0,0 z" />
    </clipPath>
  </defs>
  <sodipodi:namedview
     id="base"
     pagecolor="#ffffff"
     bordercolor="#666666"
     borderopacity="1.0"
     inkscape:pageopacity="0.0"
     inkscape:pageshadow="2"
     inkscape:zoom="1.4"
     inkscape:cx="270.73957"
     inkscape:cy="173.41783"
     inkscape:document-units="px"
     inkscape:current-layer="layer1"
     showgrid="false"
     fit-margin-top="5"
     fit-margin-left="5"
     fit-margin-right="5"
     fit-margin-bottom="5"
     inkscape:window-width="1680"
     inkscape:window-height="1000"
     inkscape:window-x="-8"
     inkscape:window-y="-8"
     inkscape:window-maximized="1" />
  <metadata
     id="metadata7">
    <rdf:RDF>
      <cc:Work
         rdf:about="">
        <dc:format>image/svg+xml</dc:format>
        <dc:type
           rdf:resource="http://purl.org/dc/dcmitype/StillImage" />
        <dc:title></dc:title>
      </cc:Work>
    </rdf:RDF>
  </metadata>
  <g
     inkscape:label="Ebene 1"
     inkscape:groupmode="layer"
     id="layer1"
     transform="translate(-189.45418,-533.75686)">
    <g
       transform="translate(39.7942,344.99857)"
       id="layer1-8"
       inkscape:label="Ebene 1">
      <g
         style="fill:#e5e7e4;fill-opacity:1"
         transform="matrix(0.54674441,0,0,0.54674441,153.18678,187.00033)"
         id="layer1-9">
        <rect
           width="429.96051"
           height="429.96051"
           ry="45.945595"
           x="201.53545"
           y="-209.43587"
           transform="matrix(0.7071068,0.7071068,-0.7071068,0.7071068,0,0)"
           id="rect3273"
           style="fill:#e5e7e4;fill-opacity:1;fill-rule:nonzero;stroke:none" />
      </g>
      <path
         transform="matrix(1.4539851,0,0,1.4539851,302.03691,187.57808)"
         id="path3227"
         d="M 10.078,99.156 99.25,9.98 c 7.035,-7.031 18.465,-7.031 25.531,0 l 89.508,89.176 c 7.059,7.035 7.078,18.438 0.047,25.48 l -89.18,89.168 c -7.027,7.031 -18.457,7.031 -25.516,0 L 10.128,124.636 c -7.066,-7.042 -7.085,-18.445 -0.05,-25.48"
         clip-path="url(#SVGID_2_)"
         inkscape:connector-curvature="0"
         style="fill:#023576;fill-opacity:1" />
      <path
         d="m 500.42393,278.92481 c -3.15718,0 -5.3098,-2.08011 -5.3098,-5.16477 0,-3.08618 2.15262,-5.16629 5.3098,-5.16629 3.15717,0 5.3098,2.08011 5.3098,5.16629 0,3.08466 -2.15263,5.16477 -5.3098,5.16477 z m -89.6929,8.68149 -0.14464,0.71678 c -0.43241,2.00949 -1.00607,2.86941 -2.72477,2.86941 -1.00757,0 -2.79991,-0.28778 -4.80903,-0.28778 -1.72322,0 -4.23386,0.21715 -5.81245,0.71868 l 0,25.46776 c 0,2.22476 -0.93091,3.15869 -3.15415,3.15869 l -2.2984,0 c -2.22286,0 -3.15529,-0.93393 -3.15529,-3.15869 l 0,-28.33868 c 0,-2.15073 0.93243,-3.36942 3.01254,-3.94458 3.80296,-1.07556 7.82119,-1.5801 11.33676,-1.5801 1.64769,0 3.44003,0.0725 5.16326,0.28928 1.79688,0.21526 2.7293,1.21831 2.7293,2.72477 0,0.28739 -0.074,1.00455 -0.14313,1.36446 z m 55.55687,158.4491 c -8.02512,0 -14.55474,-5.16326 -14.55474,-15.60196 l 0,-80.05785 c 0,-10.4387 6.52962,-15.60197 14.55852,-15.60197 8.03645,0 14.57361,5.16025 14.57361,15.60197 l 0.004,80.06238 c 0,10.43681 -6.54094,15.59743 -14.58117,15.59743 z m 38.43749,-128.96425 c 0,2.22476 -0.92902,3.15869 -3.1534,3.15869 l -2.29613,0 c -2.22437,0 -3.15717,-0.93393 -3.15717,-3.15869 l 0,-29.98789 c 0,-2.22475 0.9328,-3.1568 3.15717,-3.1568 l 2.29613,0 c 2.22438,0 3.1534,0.93205 3.1534,3.1568 z m 26.90869,-33.85653 c -10.90283,0 -18,6.60733 -18,18.875 0,12.34018 7.09717,18.84375 18,18.84375 10.90661,0 18,-6.50357 18,-18.84375 0,-12.26767 -7.09339,-18.875 -18,-18.875 z m 0,7.375 c 5.95559,0 9.25,4.17996 9.25,11.5 0,7.38915 -3.29441,11.46875 -9.25,11.46875 -5.9518,0 -9.25,-4.0796 -9.25,-11.46875 0,-7.32004 3.2982,-11.5 9.25,-11.5 z m -50.21875,-21.3125 c -2.22437,0 -3.15625,0.93301 -3.15625,3.15625 l 0,11.5625 c -1.43508,-0.42939 -3.53808,-0.78125 -6.125,-0.78125 -11.47687,0 -18.5,7.23385 -18.5,19 0,11.54937 6.74053,18.71875 19.65625,18.71875 3.37244,0 8.25712,-0.49196 10.625,-1.28125 1.79008,-0.57403 2.9375,-1.50561 2.9375,-3.875 l 0,-43.34375 c 0,-2.22324 -0.93188,-3.15625 -3.15625,-3.15625 z m -8.25,21.40625 c 1.79385,0 3.80217,0.28671 5.09375,0.71875 l 0,21.5 c -1.29158,0.42901 -3.2999,0.71875 -5.09375,0.71875 -7.53417,0 -10.78125,-4.58225 -10.78125,-11.46875 0,-6.88763 3.24708,-11.46875 10.78125,-11.46875 z m -42.1875,-7.46875 c -4.01444,0 -8.90034,0.70456 -11.34375,1.78125 -1.00078,0.42939 -2,1.16793 -2,2.53125 0,0.43053 0.0622,0.92597 0.28125,1.5 l 0.28125,0.71875 c 0.64956,1.57859 1.28944,2.21875 2.4375,2.21875 0.50228,0 1.07296,-0.15974 1.71875,-0.375 2.08086,-0.64617 4.31734,-1.28125 7.1875,-1.28125 5.81208,0 8.03125,2.58363 8.03125,7.03125 l 0,1.09375 c -1.43508,-0.35877 -4.09055,-0.9375 -7.75,-0.9375 -9.25627,0 -15.5,3.6518 -15.5,11.6875 0,7.96318 6.08869,11.75 16.0625,11.75 4.08998,0 10.18914,-0.64623 12.625,-1.21875 1.79763,-0.43203 3.09375,-1.13712 3.09375,-3.71875 l 0,-17.875 c 0,-10.54632 -5.07943,-14.90625 -15.125,-14.90625 z m 0.40625,20.59375 c 2.29613,0 4.53716,0.27935 6.1875,0.78125 l 0,9.25 c -1.65034,0.50303 -3.95039,0.71875 -6.03125,0.71875 -5.88006,0 -8.53125,-1.65078 -8.53125,-5.3125 0,-3.72932 2.70643,-5.4375 8.375,-5.4375 z"
         style="fill:#ffffff;fill-opacity:1;fill-rule:nonzero;stroke:none"
         id="path3823"
         inkscape:connector-curvature="0" />
      <path
         sodipodi:nodetypes="cccccccccccccccccccccccccccccccccccccccccccccccccccccc"
         inkscape:connector-curvature="0"
         id="path3966"
         style="fill:#023576;fill-opacity:1;fill-rule:nonzero;stroke:none"
         d="m 326.49974,258.16411 -8.07232,8.07837 c -4.31204,4.306 -7.89974,4.42534 -11.73971,0.58272 l -9.22304,-9.24381 c -3.84753,-3.8192 -3.72214,-7.43069 0.56799,-11.71894 l 8.07497,-8.07837 c 4.29731,-4.30599 7.8971,-4.42118 11.73971,-0.58838 l 9.2321,9.24494 c 3.82676,3.81807 3.701,7.43938 -0.5797,11.72347 z m 10.68758,-21.48919 -9.60069,-9.57728 c -9.5059,-9.5312 -20.96086,-9.69925 -31.64314,0.9887 l -7.60291,7.61499 c -10.69399,10.68493 -10.51687,22.1161 -1.00758,31.6473 l 9.60031,9.57274 c 9.51836,9.55197 20.96577,9.71851 31.64617,-0.96491 l 7.60479,-7.62367 c 10.69513,-10.68342 10.52103,-22.12365 1.00305,-31.65787 m -48.09143,48.09143 -9.60975,-9.56935 c -9.51799,-9.53006 -20.9552,-9.7068 -31.6356,0.98832 l -7.61347,7.61499 c -10.68946,10.67738 -10.52292,22.1059 -1.00192,31.64768 l 30.79192,30.77114 c 3.55673,3.54049 7.55758,3.02122 10.29103,0.2923 2.73081,-2.73231 3.19268,-6.66519 -0.35235,-10.22645 l -7.08703,-7.06589 c 1.9283,-0.40597 4.30185,-1.87806 7.09006,-4.65872 l 8.12368,-8.13879 c 10.70268,-10.6804 10.51839,-22.11497 1.00343,-31.65523 z m -10.11279,9.77327 c 3.82978,3.82525 3.71006,7.43976 -0.58989,11.72083 l -8.06931,8.0795 c -4.31355,4.30185 -7.88803,4.41967 -11.72951,0.57668 l -9.23928,-9.24192 c -3.83091,-3.82071 -3.72176,-7.4322 0.57252,-11.72045 l 8.06478,-8.07686 c 4.31959,-4.30751 7.91145,-4.41098 11.75444,-0.58423 l 9.23625,9.24645 m -28.05695,49.99782 -20.39023,-20.38003 c -9.52969,-9.52817 -20.95519,-9.7068 -31.65069,0.98266 l -7.61499,7.60026 c -10.68607,10.68795 -10.51952,22.13233 -0.9853,31.6624 l 20.37852,20.40042 c 3.56542,3.5522 7.55305,3.02123 10.29104,0.30401 2.72174,-2.74553 3.19531,-6.70484 -0.36897,-10.23816 l -20.2014,-20.22482 c -3.8294,-3.82071 -3.7161,-7.42767 0.59027,-11.72498 l 8.07648,-8.0693 c 4.28712,-4.30487 7.90276,-4.43025 11.72952,-0.58574 l 20.20895,20.20139 c 3.53747,3.55976 7.49414,3.08316 10.22759,0.3584 2.73798,-2.7395 3.26141,-6.73128 -0.29079,-10.28651" />
    </g>
    <g
       transform="matrix(3.7951917,0,0,-3.7951917,73.519447,932.25372)"
       inkscape:label="NPO_RD2_Logo_CMYK"
       id="g2993">
      <g
         id="g2995">
        <g
           clip-path="url(#clipPath2999)"
           id="g2997">
          <g
             transform="translate(79.707,92.4277)"
             id="g3003">
            <path
               id="path3005"
               style="fill:#deddde;fill-opacity:1;fill-rule:nonzero;stroke:none"
               d="M 0,0 -2.542,2.536 C -5.06,5.06 -8.093,5.104 -10.921,2.274 l -2.014,-2.016 c -2.831,-2.829 -2.784,-5.857 -0.266,-8.38 l 2.542,-2.535 c 2.52,-2.53 5.552,-2.573 8.38,0.256 l 2.013,2.018 C 2.566,-5.554 2.521,-2.524 0,0 m -12.734,-12.734 -2.545,2.534 c -2.52,2.523 -5.549,2.57 -8.377,-0.262 l -2.016,-2.017 c -2.83,-2.827 -2.786,-5.853 -0.265,-8.379 l 8.153,-8.149 c 0.942,-0.937 2.002,-0.8 2.725,-0.077 0.724,0.724 0.846,1.765 -0.093,2.708 l -1.876,1.871 c 0.51,0.108 1.138,0.497 1.877,1.234 l 2.151,2.155 c 2.834,2.828 2.785,5.855 0.266,8.382 m -10.107,-15.828 -5.4,5.397 c -2.523,2.523 -5.549,2.57 -8.381,-0.26 l -2.016,-2.013 c -2.83,-2.83 -2.785,-5.86 -0.261,-8.383 l 5.396,-5.403 c 0.944,-0.94 2,-0.799 2.725,-0.08 0.721,0.727 0.846,1.776 -0.097,2.711 l -5.35,5.356 c -1.014,1.011 -0.983,1.966 0.157,3.104 l 2.138,2.137 c 1.136,1.14 2.093,1.173 3.106,0.155 l 5.351,-5.349 c 0.937,-0.943 1.985,-0.817 2.708,-0.095 0.725,0.725 0.864,1.782 -0.076,2.723 m 55.115,-6.806 -33.491,-33.488 c -3.371,-3.373 -7.239,-3.373 -10.608,0 l -33.487,33.486 c -3.373,3.372 -3.373,7.237 0,10.609 l 33.488,33.485 c 3.373,3.375 7.237,3.375 10.607,0 l 33.488,-33.485 c 3.374,-3.369 3.374,-7.236 0.003,-10.607 m -37.395,35.23 c -1.018,1.015 -1.971,0.985 -3.108,-0.156 l -2.139,-2.139 c -1.136,-1.135 -1.169,-2.091 -0.151,-3.103 l 2.443,-2.447 c 1.016,-1.018 1.967,-0.987 3.108,0.154 l 2.138,2.139 c 1.134,1.134 1.167,2.093 0.153,3.104 l -2.444,2.448 z m -10.291,-15.184 c 1.014,-1.013 0.982,-1.97 -0.156,-3.104 l -2.137,-2.139 c -1.142,-1.139 -2.089,-1.17 -3.106,-0.153 l -2.446,2.447 c -1.015,1.012 -0.986,1.968 0.151,3.104 l 2.136,2.139 c 1.143,1.14 2.095,1.168 3.112,0.154 l 2.446,-2.448 z"
               inkscape:connector-curvature="0" />
          </g>
          <g
             transform="translate(64.2949,77.1055)"
             id="g3007">
            <path
               id="path3009"
               style="fill:#ee2722;fill-opacity:1;fill-rule:nonzero;stroke:none"
               d="M 0,0 -2.446,2.448 C -3.463,3.462 -4.415,3.435 -5.558,2.294 L -7.694,0.155 C -8.831,-0.98 -8.86,-1.937 -7.845,-2.948 l 2.446,-2.448 c 1.017,-1.017 1.964,-0.986 3.106,0.153 l 2.137,2.139 C 0.982,-1.97 1.014,-1.013 0,0 M 2.678,2.588 C 5.197,0.062 5.246,-2.966 2.412,-5.794 L 0.261,-7.949 c -0.739,-0.737 -1.367,-1.126 -1.877,-1.234 l 1.876,-1.871 c 0.939,-0.943 0.817,-1.984 0.094,-2.708 -0.724,-0.722 -1.784,-0.86 -2.726,0.077 l -8.153,8.149 c -2.521,2.526 -2.565,5.553 0.265,8.38 l 2.016,2.016 c 2.828,2.832 5.857,2.786 8.377,0.262 L 2.678,2.588 z m 10.057,10.148 -2.444,2.449 C 9.273,16.199 8.32,16.169 7.183,15.028 L 5.044,12.89 C 3.908,11.754 3.875,10.798 4.894,9.786 L 7.336,7.339 C 8.353,6.321 9.303,6.353 10.444,7.493 l 2.138,2.139 c 1.134,1.135 1.167,2.094 0.153,3.104 m 2.677,2.586 C 17.933,12.798 17.979,9.769 15.146,6.939 L 13.133,4.921 C 10.305,2.092 7.273,2.136 4.753,4.665 L 2.211,7.2 c -2.518,2.524 -2.565,5.551 0.267,8.38 l 2.013,2.017 c 2.828,2.83 5.862,2.785 8.379,0.261 l 2.542,-2.536 z M -7.429,-13.239 c 0.94,-0.942 0.802,-1.998 0.076,-2.724 -0.723,-0.722 -1.771,-0.848 -2.708,0.095 l -5.351,5.349 c -1.013,1.018 -1.97,0.985 -3.106,-0.155 l -2.138,-2.137 c -1.14,-1.137 -1.171,-2.092 -0.157,-3.104 l 5.35,-5.356 c 0.943,-0.935 0.818,-1.984 0.097,-2.71 -0.725,-0.72 -1.78,-0.861 -2.725,0.08 l -5.396,5.402 c -2.524,2.523 -2.569,5.554 0.261,8.384 l 2.017,2.012 c 2.832,2.831 5.857,2.784 8.38,0.26 l 5.4,-5.396 z"
               inkscape:connector-curvature="0" />
          </g>
          <g
             transform="translate(75.1074,67.6675)"
             id="g3011">
            <path
               id="path3013"
               style="fill:#ee2722;fill-opacity:1;fill-rule:nonzero;stroke:none"
               d="m 0,0 c -3.371,-3.371 -3.371,-7.236 0,-10.607 l 33.487,-33.489 c 3.373,-3.373 7.238,-3.373 10.612,0 l 33.487,33.489 c 3.371,3.371 3.367,7.238 0,10.607 L 44.099,33.485 c -3.374,3.374 -7.239,3.374 -10.609,0 L 0,0 z"
               inkscape:connector-curvature="0" />
          </g>
          <g
             transform="translate(123.585,48.8633)"
             id="g3015">
            <path
               id="path3017"
               style="fill:#ffffff;fill-opacity:1;fill-rule:nonzero;stroke:none"
               d="m 0,0 c 2.433,0.001 3.676,1.518 3.676,3.399 l 0,10.782 c 0,1.884 -1.242,3.403 -3.676,3.403 l -19.465,0 c -2.371,0 -3.585,-1.486 -3.584,-3.311 -0.002,-1.821 1.213,-3.311 3.583,-3.312 l 15.093,0 c 0.518,0 0.821,-0.273 0.822,-0.878 L -3.552,7.502 C -3.551,6.895 -3.855,6.623 -4.375,6.623 l -15.001,0 c -2.431,0 -3.675,-1.521 -3.675,-3.404 l 0,-10.782 c 0.002,-1.884 1.246,-3.4 3.676,-3.4 l 19.466,-0.001 c 2.368,0 3.585,1.49 3.585,3.313 0,1.819 -1.217,3.307 -3.584,3.307 l -15.096,0 c -0.516,0 -0.816,0.273 -0.816,0.882 l 0,2.581 c 0,0.604 0.3,0.881 0.817,0.881 L 0,0 z"
               inkscape:connector-curvature="0" />
          </g>
          <g
             transform="translate(93.3291,78.6377)"
             id="g3019">
            <path
               id="path3021"
               style="fill:#ffffff;fill-opacity:1;fill-rule:nonzero;stroke:none"
               d="M 0,0 C 0,0.57 0.247,0.893 0.798,1.045 1.805,1.33 2.869,1.463 3.8,1.463 4.236,1.463 4.711,1.444 5.167,1.387 5.643,1.33 5.89,1.064 5.89,0.665 5.89,0.589 5.87,0.399 5.852,0.304 L 5.813,0.114 c -0.114,-0.532 -0.266,-0.76 -0.721,-0.76 -0.267,0 -0.741,0.076 -1.274,0.076 -0.456,0 -1.121,-0.057 -1.539,-0.19 l 0,-6.744 c 0,-0.589 -0.246,-0.836 -0.835,-0.836 l -0.608,0 C 0.247,-8.34 0,-8.093 0,-7.504 L 0,0 z"
               inkscape:connector-curvature="0" />
          </g>
          <g
             transform="translate(106.2861,74.4395)"
             id="g3023">
            <path
               id="path3025"
               style="fill:#ffffff;fill-opacity:1;fill-rule:nonzero;stroke:none"
               d="m 0,0 c -0.438,0.133 -1.026,0.209 -1.634,0.209 -1.501,0 -2.222,-0.456 -2.222,-1.444 0,-0.969 0.703,-1.406 2.26,-1.406 0.551,0 1.158,0.057 1.596,0.19 L 0,0 z m -5.205,4.122 c -0.058,0.152 -0.076,0.285 -0.076,0.399 0,0.361 0.265,0.551 0.531,0.665 0.646,0.285 1.938,0.475 3.002,0.475 2.66,0 4.009,-1.159 4.009,-3.952 l 0,-4.73 c 0,-0.684 -0.342,-0.874 -0.818,-0.988 -0.645,-0.152 -2.26,-0.323 -3.343,-0.323 -2.641,0 -4.255,1.007 -4.255,3.116 0,2.128 1.652,3.096 4.103,3.096 C -1.083,1.88 -0.38,1.729 0,1.634 L 0,1.918 C 0,3.096 -0.589,3.78 -2.128,3.78 -2.888,3.78 -3.477,3.609 -4.027,3.438 -4.198,3.381 -4.351,3.343 -4.483,3.343 c -0.304,0 -0.475,0.171 -0.647,0.589 l -0.075,0.19 z"
               inkscape:connector-curvature="0" />
          </g>
          <g
             transform="translate(117.0596,77.9346)"
             id="g3027">
            <path
               id="path3029"
               style="fill:#ffffff;fill-opacity:1;fill-rule:nonzero;stroke:none"
               d="m 0,0 c -0.342,0.114 -0.874,0.19 -1.349,0.19 -1.995,0 -2.849,-1.216 -2.849,-3.04 0,-1.823 0.854,-3.039 2.849,-3.039 0.475,0 1.007,0.076 1.349,0.19 L 0,0 z m 0,5.016 c 0,0.588 0.247,0.835 0.836,0.835 l 0.607,0 c 0.589,0 0.836,-0.247 0.836,-0.835 l 0,-11.475 c 0,-0.627 -0.303,-0.874 -0.778,-1.026 -0.627,-0.209 -1.919,-0.342 -2.812,-0.342 -3.419,0 -5.205,1.9 -5.205,4.958 0,3.116 1.862,5.035 4.901,5.035 0.684,0 1.235,-0.095 1.615,-0.209 l 0,3.059 z"
               inkscape:connector-curvature="0" />
          </g>
          <g
             transform="translate(121.791,79.0747)"
             id="g3031">
            <path
               id="path3033"
               style="fill:#ffffff;fill-opacity:1;fill-rule:nonzero;stroke:none"
               d="m 0,0 c 0,0.589 0.247,0.836 0.836,0.836 l 0.608,0 C 2.033,0.836 2.279,0.589 2.279,0 l 0,-7.941 c 0,-0.589 -0.246,-0.836 -0.835,-0.836 l -0.608,0 C 0.247,-8.777 0,-8.53 0,-7.941 L 0,0 z m 1.14,4.901 c 0.836,0 1.406,-0.551 1.406,-1.368 0,-0.817 -0.57,-1.367 -1.406,-1.367 -0.836,0 -1.406,0.55 -1.406,1.367 0,0.817 0.57,1.368 1.406,1.368"
               inkscape:connector-curvature="0" />
          </g>
          <g
             transform="translate(133.6455,75.104)"
             id="g3035">
            <path
               id="path3037"
               style="fill:#ffffff;fill-opacity:1;fill-rule:nonzero;stroke:none"
               d="m 0,0 c 0,1.938 -0.874,3.04 -2.451,3.04 -1.576,0 -2.45,-1.102 -2.45,-3.04 0,-1.957 0.874,-3.04 2.45,-3.04 C -0.874,-3.04 0,-1.957 0,0 m -7.219,0 c 0,3.249 1.88,4.997 4.768,4.997 2.888,0 4.768,-1.748 4.768,-4.997 0,-3.268 -1.88,-4.996 -4.768,-4.996 -2.888,0 -4.768,1.728 -4.768,4.996"
               inkscape:connector-curvature="0" />
          </g>
        </g>
      </g>
    </g>
  </g>
</svg>
