<?xml version="1.0" encoding="UTF-8" standalone="no"?>
<!-- Created with Inkscape (http://www.inkscape.org/) -->
<svg xmlns:rdf="http://www.w3.org/1999/02/22-rdf-syntax-ns#" xmlns="http://www.w3.org/2000/svg" height="203.1" width="600" version="1.1" xmlns:cc="http://creativecommons.org/ns#" xmlns:dc="http://purl.org/dc/elements/1.1/">
 <metadata>
  <rdf:RDF>
   <cc:Work rdf:about="">
    <dc:format>image/svg+xml</dc:format>
    <dc:type rdf:resource="http://purl.org/dc/dcmitype/StillImage"/>
    <dc:title/>
   </cc:Work>
  </rdf:RDF>
 </metadata>
 <g fill-rule="nonzero" transform="translate(-500.82841,-646.12879)">
  <path d="m536.17,846.03c-11.128-0.0586-19.595-3.8084-25.171-11.144-4.8055-6.297-7.2271-14.563-7.1936-24.56l0.27233-96.194c-0.0293-0.0838-0.0419-0.48599-0.0419-0.8882l0.1215-28.695c0.0629-11.45,3.2721-20.341,9.5439-26.432,6.0791-5.899,13.763-9.016,22.213-9.016,7.6838,0.0545,14.056,1.8141,19.1,5.237,1.9607-0.62007,3.7706-1.1354,5.5052-1.5627,5.5848-1.4119,11.815-2.1325,18.497-2.1367,10.181,0.0461,19.859,2.032,28.783,5.899,8.861,3.8419,16.729,9.192,23.391,15.895,1.8392,1.8434,3.5989,3.8209,5.2663,5.9074,1.2695-7.3528,4.2315-13.277,8.8485-17.676,6.0749-5.7817,13.838-8.8359,22.461-8.8359,8.9993,0.0587,16.637,3.0794,22.754,8.97,6.2677,6.0372,9.4476,14.936,9.4518,26.445l-0.12988,45.692c-0.004,0.90077,0.15083,1.1312,0.58655,1.5753,0.46923,0.47342,0.72899,0.60749,1.5669,0.61168,0.75413,0,1.0893-0.12988,1.6591-0.63263,0.39382-0.34355,0.49856-0.53627,0.5656-1.0223l0.10055-46.174c0.0293-11.098,3.2302-19.896,9.523-26.135,6.1671-6.1294,13.868-9.368,22.268-9.368,9.0956,0.0335,16.691,2.8824,22.653,8.4672,1.0097,0.95942,1.9482,2.0068,2.8112,3.1422,1.1773-1.6633,2.5096-3.1632,3.9885-4.4871,6.2551-5.5554,13.893-8.375,22.716-8.3834,5.0317,0.0251,9.6612,1.06,13.784,3.0794,4.1938-1.5041,10.386-3.0877,17.894-3.0877,1.8183,0.008,3.4229,0.0838,5.0275,0.24299,0.48599,0.0251,1.0809,0.0922,1.6717,0.1634l0.66614,0.0754c0.41897,0.0712,0.84212,0.14664,1.2485,0.25138,2.1409,0.38963,4.4117,1.0767,6.5819,1.9984,3.9215,1.7261,7.3947,4.0974,10.353,7.0595,2.6059,2.6394,4.7259,5.6057,6.3431,8.8359,6.4269-5.8571,13.897-10.612,22.222-14.136,9.1711-3.8796,19.1-5.8403,29.507-5.8403,10.193,0.0377,19.524,1.8225,28.062,5.2915,8.4882,3.4439,16.155,8.2158,22.771,14.186,3.0542,2.761,5.8864,5.8194,8.4588,9.125,0.75413-1.2066,1.6507-2.342,2.6814-3.3936,1.2527-1.2694,2.673-2.342,4.2441-3.2009,0.87144-5.1951,2.9495-9.6529,6.2006-13.273,3.247-3.6282,9.2465-7.9561,19.364-7.9561l5.1197,0.0377c5.5429,0.021,10.306,1.6004,14.144,4.6924,4.2189,3.4104,6.6782,8.1698,6.9924,13.52,0.7542-0.0838,1.5041-0.12569,2.2624-0.12569,2.1367,0.0126,4.1142,0.30166,5.966,0.85468,0.3059-0.0628,0.6033-0.12568,0.8882-0.17596,2.0488-0.4022,4.2525-0.61587,6.4646-0.61587,5.0401,0.0251,9.5565,0.8044,13.595,2.3252,4.0053-1.4622,8.4547-2.2037,13.264-2.2037,10.306,0.0461,18.51,3.1338,24.602,9.1794,6.1503,6.1168,9.2506,14.358,9.2004,24.501l-0.084,18.095c-0.029,6.6908-2.1116,12.041-6.1755,15.895-3.8377,3.6324-8.6935,5.5512-14.048,5.5512-5.2454-0.0293-9.8917-1.7596-13.595-5.0192-3.8922,3.2847-8.396,4.8977-13.323,4.8977-5.2202-0.0251-9.8749-1.7638-13.591-5.0485-3.7539,3.3014-8.2745,5.015-13.18,5.015-5.5806-0.0293-10.449-1.9063-14.182-5.4256-1.1647-1.1019-2.1744-2.3504-3.0207-3.7413-0.8924,1.4748-1.9691,2.7987-3.2469,3.9801-3.8084,3.5318-8.6348,5.4088-13.947,5.4088-5.5177-0.0209-10.386-1.9398-14.186-5.5554-0.25557-0.23881-0.50694-0.48599-0.74994-0.74156-1.5837,2.8489-3.6282,5.4381-6.1085,7.7382-1.7261,1.613-3.5947,3.0333-5.5806,4.2273,1.944,3.8922,2.9202,8.3248,2.9076,13.239-0.0251,9.4434-3.7497,17.844-10.78,24.296-7.843,7.202-16.595,11.928-26.013,14.052-7.9645,1.7932-16.411,2.7065-25.1,2.7065l-0.47761,0.004c-10.529-0.0461-20.546-2.1283-29.784-6.1881-9.1082-4.0011-17.198-9.5062-24.032-16.373-6.8794-6.917-12.33-15.125-16.21-24.4-3.888-9.301-5.8487-19.36-5.8319-29.905,0.008-3.3307,0.23043-6.6531,0.66615-9.9252-1.2778,0.27232-2.564,0.46504-3.8461,0.58654-1.5502,0.19691-2.7777,0.69129-3.8963,1.6004-0.22624,0.18015-0.28071,0.22204-0.31422,0.35192l-0.11731,46.697c-0.0251,11.14-3.1841,19.98-9.3806,26.265-6.1085,6.2425-13.842,9.5439-22.377,9.5439l-0.71223-0.004c-8.9783-0.15082-16.511-3.0165-22.398-8.5217-1.2401-1.1689-2.3462-2.4425-3.3391-3.8335-1.0516,1.3742-2.2163,2.6353-3.4983,3.7665-6.1713,5.501-13.654,8.2954-22.226,8.2954-3.7623-0.0126-7.3234-0.51532-10.654-1.4915-1.3072-0.39383-2.5557-0.87982-3.7413-1.4454-2.2163,0.72899-4.5332,1.3072-6.917,1.7177-4.2525,0.73737-8.5552,1.1144-12.783,1.1144-20.663-0.0922-36.898-6.0205-48.641-17.617-5.0401-4.9815-9.0496-10.876-11.966-17.58-3.0249,4.8055-6.5358,9.2088-10.482,13.143-6.7076,6.6699-14.605,11.974-23.479,15.761-8.9071,3.7958-18.518,5.7188-28.565,5.7188h-0.42734c-3.536-0.0168-6.9967-0.23043-10.34-0.64101l-0.0251,12.355c-0.0503,11.459-3.2428,20.357-9.4937,26.449-6.0079,5.8529-13.608,8.9867-21.995,9.0705l-0.0335,0.004h-0.36869z" fill="#FFF"/>
  <path d="m535.91,646.13c-9.2423,0-17.638,3.4062-24.283,9.854-6.871,6.6699-10.382,16.272-10.449,28.548l-0.12569,28.69c0,0.40221,0.0126,0.78765,0.0419,1.1773l-0.26814,95.921c-0.0377,10.667,2.5892,19.54,7.8094,26.374,6.1504,8.1027,15.409,12.246,27.513,12.313l0.73737,0.004,0.0628-0.0168c9.0286-0.17597,17.203-3.5905,23.684-9.9042,6.8458-6.6741,10.344-16.285,10.394-28.565l0.0209-9.0789c2.409,0.2011,4.8683,0.31003,7.357,0.31841h0.0126,0.20948,0.22205c10.449,0,20.45-2.0026,29.73-5.9493,9.2213-3.9424,17.433-9.456,24.409-16.394,2.8824-2.8741,5.547-5.987,7.9645-9.3219,2.7651,5.1197,6.2048,9.7241,10.29,13.767,12.326,12.162,29.256,18.38,50.33,18.476h0.27232c4.5332,0,9.0035-0.38963,13.432-1.1605,2.1241-0.36449,4.2064-0.85887,6.2132-1.4706,0.98875,0.42315,2.0068,0.79602,3.05,1.1102,3.645,1.0684,7.4826,1.613,11.459,1.6256,9.4015,0,17.55-3.05,24.291-9.0621,0.49438-0.43572,0.97618-0.8882,1.4412-1.3616,0.43572,0.47343,0.8882,0.9301,1.3574,1.37,6.2719,5.8696,14.182,8.9951,23.537,9.3219l0.0587,0.0293h1.3951,0.14663,0.0545c9.4182-0.0419,17.831-3.6534,24.48-10.445,6.7453-6.8458,10.189-16.381,10.218-28.334l0.11312-45.248c0.42315-0.20948,0.95523-0.37288,1.7052-0.46505,0.004-0.004,0.0126-0.004,0.0168-0.004-0.17596,2.12-0.26813,4.2525-0.27651,6.385-0.0168,10.956,2.0278,21.405,6.0666,31.07,4.022,9.6277,9.6906,18.158,16.842,25.347,7.0972,7.1307,15.493,12.85,24.949,17.001,9.6068,4.2273,20.022,6.3892,30.965,6.4394h0.11731l0.18016-0.008,0.19272,0.004c8.9071,0,17.571-0.93848,25.754-2.7819,9.9294-2.2372,19.142-7.2061,27.367-14.76,7.6628-7.026,11.718-16.184,11.743-26.483,0.0126-4.3949-0.70805-8.4546-2.1409-12.137,1.3616-0.96361,2.6562-2.0236,3.888-3.1757,1.7722-1.6423,3.3433-3.4229,4.7008-5.3418,4.0053,3.0668,8.8736,4.6924,14.194,4.7133,6.1797,0,11.706-2.1451,16.084-6.209,0.4232-0.39382,0.8337-0.80022,1.2276-1.2234,0.3142,0.33517,0.641,0.66615,0.9761,0.98037,4.286,4.043,9.8456,6.2006,16.084,6.2342,4.927,0,9.4392-1.4412,13.315-4.1938,3.8879,2.7526,8.4839,4.2064,13.49,4.2231,4.9857,0,9.5482-1.4035,13.424-4.0807,3.8753,2.7358,8.463,4.1812,13.457,4.2064,6.2593,0,11.823-2.2037,16.226-6.3682,4.6086-4.374,7.0679-10.612,7.1056-18.036l0.08-18.095c0.054-10.968-3.335-19.93-10.076-26.625-6.6656-6.6196-15.569-9.9964-26.457-10.047h-0.243c-4.751,0-9.192,0.67872-13.248,2.0236-4.0975-1.3993-8.5929-2.1199-13.394-2.1451h-0.013-0.2011c-2.4048,0-4.8097,0.23462-7.1391,0.69548-0.029,0.004-0.067,0.008-0.1047,0.0168-1.8393-0.486-3.7623-0.74576-5.7398-0.77089-0.9636-5.0108-3.624-9.4266-7.7257-12.736-4.3781-3.536-9.766-5.3334-16.013-5.3543l-4.9395-0.0377c-11.4,0-18.108,4.8641-21.761,8.949-3.3391,3.7162-5.5722,8.2075-6.6573,13.377-1.3365,0.85468-2.5724,1.856-3.6869,2.9914-0.22205,0.22623-0.43991,0.45247-0.64939,0.6829-1.9984-2.321-4.131-4.4996-6.3766-6.5316-6.8835-6.2048-14.835-11.161-23.65-14.739-8.8862-3.6114-18.585-5.4674-28.833-5.5094h-0.34774c-10.805,0-21.124,2.0445-30.664,6.0791-7.4533,3.1506-14.245,7.2564-20.269,12.246-1.4286-2.254-3.1003-4.353-4.9982-6.2802-3.2511-3.2595-7.0302-5.8361-11.266-7.6963-2.3797-1.0181-4.8097-1.7554-7.2774-2.2289-0.42734-0.0964-0.85887-0.18015-1.2988-0.25138l-0.15921-0.0251-0.16339-0.0168-0.47343-0.0545c-0.61168-0.0712-1.2192-0.13826-1.8309-0.17596-1.6256-0.15502-3.2972-0.23881-4.9689-0.24719h-0.25138c-7.248,0-13.344,1.3993-17.726,2.8573-4.2315-1.8686-8.8987-2.8238-13.914-2.8489-9.611,0.008-17.919,3.0794-24.719,9.1292-0.73737,0.65777-1.437,1.3532-2.1032,2.0864-0.22205-0.22624-0.45248-0.45248-0.68291-0.67034-6.5442-6.1252-14.819-9.2465-24.614-9.2842-9.2884,0-17.714,3.536-24.451,10.235-4.9479,4.906-8.1488,11.207-9.5607,18.803-1.37-7.9309-4.5834-14.362-9.6026-19.197-6.6866-6.4394-15.011-9.7367-24.744-9.8037-9.4727,0-17.948,3.3391-24.58,9.6529-3.8042,3.6198-6.5819,8.1446-8.3206,13.528-0.54046-0.57817-1.0893-1.148-1.6423-1.7052-6.9212-6.9673-15.104-12.527-24.312-16.524-9.2968-4.0262-19.369-6.0917-29.939-6.142-6.959,0.004-13.432,0.75832-19.272,2.2289-1.37,0.33936-2.8028,0.73319-4.3153,1.194-5.3166-3.2428-11.811-4.906-19.348-4.9605h-0.0209-0.17177zm252.19,141.01-0.004-0.008,0.004,0.008m-252.19-135.06,0.15083,0c7.5455,0.0545,13.717,1.9188,18.434,5.5596,2.2205-0.74156,4.4619-1.4161,6.7285-1.9733,5.4381-1.3742,11.429-2.0445,17.789-2.0487,9.833,0.0461,19.067,1.9566,27.597,5.6518,8.5259,3.6994,16.076,8.8317,22.465,15.263,3.6366,3.6492,6.8458,7.7089,9.6403,12.083,0.10055-10.407,2.9998-18.426,8.639-23.797,5.501-5.237,12.556-8.0106,20.403-8.0106h0.0377c8.1488,0.0545,15.091,2.7777,20.655,8.1404,5.6727,5.4591,8.5384,13.629,8.5426,24.296l-0.12988,45.688c-0.008,1.6088,0.4022,2.6269,1.4538,3.6827,1.0516,1.0684,2.0822,1.4789,3.6575,1.4873h0.0419c1.458,0,2.5012-0.4022,3.6031-1.3826,0.91753-0.80022,1.3742-1.6465,1.5418-2.8406l0.12988-46.572c0.0251-10.294,2.9369-18.376,8.6432-24.032,5.6015-5.568,12.573-8.5049,20.173-8.5049h0.0629c8.2829,0.0293,15.171,2.6227,20.554,7.667,1.9859,1.8728,3.6156,4.1142,4.9228,6.716,1.4706-3.1045,3.4187-5.8026,5.899-8.0189,5.6853-5.0569,12.657-7.6167,20.734-7.6251,5.0275,0.0251,9.6235,1.1689,13.583,3.3559,4.2566-1.6675,10.478-3.3643,18.087-3.3643h0.21786c1.4999,0.008,3.0123,0.0796,4.5248,0.22624,0.53208,0.0335,1.0642,0.0922,1.5962,0.15921,0.18853,0.0126,0.35611,0.0335,0.54465,0.0545,0.34773,0.0587,0.69128,0.12569,1.0264,0.20529,2.1241,0.39383,4.1729,1.0181,6.121,1.8476,3.5905,1.5795,6.7369,3.7413,9.4182,6.4269,2.6772,2.7149,4.7804,5.7859,6.3012,9.1501,0.41059,0.92172,0.77089,1.856,1.0642,2.7861,0.41058-0.4064,0.80021-0.84212,1.2108-1.2359,6.5944-6.4562,14.416-11.626,23.248-15.363,8.7982-3.7162,18.338-5.6057,28.347-5.6057h0.32679c9.5146,0.0377,18.443,1.7471,26.617,5.0694,8.1781,3.3182,15.548,7.9142,21.899,13.641,4.2064,3.8084,7.9016,8.1153,11.082,12.866,0.7248-2.7232,2.1325-5.1826,4.1728-7.2606,1.3784-1.4035,3.0082-2.5096,4.8474-3.3056,0.60749-5.2789,2.5054-9.7199,5.6895-13.264,2.8531-3.1841,8.132-6.9673,17.148-6.9673h0.12988l4.9689,0.0377c4.8725,0.0168,8.9993,1.3742,12.296,4.0346,3.8377,3.0961,5.9409,7.5204,5.9283,12.452-0.013,0.82954-0.088,1.6381-0.1969,2.4258,1.7052-0.52789,3.5067-0.82535,5.392-0.82535h0.1131c2.0236,0.0126,3.9467,0.33936,5.7356,0.97199,0.4818-0.1215,0.9846-0.24719,1.4873-0.32679,1.9692-0.38963,3.9802-0.58236,5.987-0.58236h0.1843c4.948,0.0251,9.4392,0.88401,13.394,2.5431,3.9257-1.6046,8.3625-2.4216,13.277-2.4216h0.2179c9.2758,0.0419,16.775,2.8406,22.289,8.3164,5.5471,5.5135,8.3667,13.034,8.3206,22.377l-0.08,18.095c-0.029,5.8361-1.7931,10.47-5.2496,13.746-3.2763,3.1003-7.4198,4.7384-11.999,4.7384h-0.1048c-4.6882-0.0251-8.8861-1.6968-12.137-4.8432-0.4692-0.46086-0.9091-0.95105-1.3239-1.4454-0.398,0.50275-0.8589,0.95942-1.3155,1.437-3.2847,3.1003-7.4408,4.7301-12.037,4.7301h-0.071c-4.684-0.0209-8.8904-1.7052-12.146-4.8558-0.4944-0.47762-0.9553-0.98037-1.3617-1.5124-0.4105,0.50275-0.8085,0.93428-1.1814,1.3239-3.314,3.2721-7.4617,5.0108-12.016,5.0108h-0.092c-4.6882-0.0251-8.861-1.613-12.045-4.617-2.8573-2.6814-4.5624-6.4562-5.1155-11.211-0.4357,4.7845-2.1786,8.6348-5.2077,11.425-3.272,3.0333-7.3821,4.6211-11.936,4.6211h-0.0838c-4.6337-0.0126-8.8108-1.6507-12.049-4.7301-1.4161-1.3239-2.5263-2.8866-3.3601-4.6547-1.4706,4.3698-4.0011,8.3206-7.5706,11.622-2.321,2.1744-4.8977,3.934-7.6712,5.2496,2.1995,3.2679,4.0597,7.9477,4.043,14.391-0.0209,8.6013-3.4145,16.239-9.8121,22.113-7.4659,6.85-15.77,11.337-24.656,13.34-7.7675,1.7513-16,2.6353-24.446,2.6353h-0.34774c-0.008,0-0.11312,0.004-0.1215,0.004-10.114-0.0461-19.733-2.0403-28.598-5.9367-8.7772-3.8544-16.549-9.1501-23.118-15.749-6.6112-6.6489-11.848-14.542-15.573-23.449-3.7413-8.9406-5.6225-18.614-5.6057-28.753,0.0168-4.7929,0.48181-9.4895,1.3784-14.065-2.4928,0.90076-5.103,1.5041-7.8094,1.7596-2.187,0.27233-3.9466,0.99294-5.4968,2.2582-0.86306,0.67871-1.2527,1.349-1.4119,2.3965l-0.11731,46.949c-0.0251,10.332-2.8908,18.472-8.5217,24.187-5.5387,5.656-12.552,8.6557-20.257,8.6557h-0.10893-0.0628-0.0293c-8.4128-0.0461-15.435-2.6353-20.877-7.7256-2.166-2.0445-3.9089-4.4913-5.2831-7.3821-1.4286,2.807-3.2721,5.237-5.5596,7.2606-5.6141,5.0024-12.431,7.5497-20.257,7.5497h-0.0545c-3.469-0.0126-6.7453-0.49018-9.7618-1.3742-1.5166-0.45667-2.9621-1.0516-4.3446-1.8141-2.4886,0.90077-5.0569,1.5627-7.6544,2.011-4.0974,0.71223-8.2284,1.0725-12.28,1.0725h-0.13407-0.24719c-19.473-0.088-35-5.7314-46.17-16.758-6.2006-6.1336-10.696-13.633-13.482-22.427-3.5025,6.716-7.8932,12.757-13.151,17.999-6.431,6.3934-14.023,11.492-22.548,15.133-8.5007,3.6198-17.714,5.48-27.396,5.48h-0.22205-0.19691c-4.6505-0.0209-9.1334-0.39801-13.315-1.0977l-0.0377,15.778c-0.0419,10.625-2.9285,18.807-8.5929,24.329-5.5387,5.392-12.54,8.2242-20.274,8.2242-0.008,0-0.0168,0-0.0335,0.004-10.143-0.0545-17.823-3.402-22.817-9.9713-4.4033-5.7691-6.6196-13.432-6.5861-22.75l0.26813-96.198c-0.0293-0.30165-0.0419-0.59493-0.0419-0.89239l0.12568-28.682c0.0587-10.625,2.9704-18.803,8.639-24.312,5.5177-5.3501,12.472-8.1739,20.144-8.1739" fill="#000"/>
  <path d="m755.71,765.12c-0.0293,7.6502-1.9482,13.197-5.7942,16.599-3.8251,3.4145-8.4546,5.1113-13.876,5.1113-2.5515-0.0209-4.9102-0.35611-7.0344-0.98455-2.1576-0.63683-4.1058-1.8351-5.8445-3.6156-3.3726,1.7638-6.8794,2.9327-10.541,3.5696-3.6701,0.62844-7.2564,0.93009-10.763,0.9259-17.048-0.0461-30.266-4.7091-39.625-13.964-9.3889-9.2716-14.052-22.435-14.006-39.491l0.13406-46.123c0.0126-7.9645,1.8937-13.742,5.6518-17.332,3.7539-3.5528,8.3415-5.3418,13.767-5.3334,5.568,0.0209,10.231,1.8309,13.972,5.413,3.7413,3.6156,5.5806,9.3847,5.568,17.341l-0.12149,45.667c-0.0168,4.1477,1.391,7.6628,4.2692,10.541,2.8657,2.8741,6.3515,4.3069,10.503,4.3279,3.8335,0.004,7.16-1.2569,10.043-3.8042,2.8741-2.5263,4.4787-5.7188,4.8139-9.5481l0.12988-47.091c0.0168-7.6544,1.9356-13.373,5.79-17.203,3.8251-3.8042,8.2829-5.7021,13.394-5.6853,5.7314,0.0168,10.399,1.701,13.977,5.0569,3.5738,3.3517,5.501,9.3345,5.8068,17.952l-0.21367,77.671z" fill="#f7941e"/>
  <path d="M403.03,15.688c-8.86-0.042-17.15,1.571-24.87,4.843-7.73,3.264-14.49,7.736-20.25,13.375-5.74,5.627-10.29,12.327-13.6,20.032-3.31,7.729-4.96,15.883-5,24.593-0.01,8.874,1.61,17.23,4.88,25.029,3.25,7.82,7.77,14.57,13.5,20.35,5.72,5.75,12.44,10.32,20.15,13.71,7.69,3.39,15.98,5.11,24.85,5.13,7.88,0.03,15.44-0.79,22.65-2.41,7.23-1.62,13.98-5.28,20.25-11.03,4.45-4.08,6.67-9.1,6.69-15,0-4.59-1.28-8.21-3.9-10.84-2.63-2.64-6.42-3.953-11.35-3.97-3.3-0.004-5.9,0.408-7.87,1.25-1.96,0.84-3.97,1.77-5.94,2.78-1.96,1.02-4.34,1.94-7.13,2.78s-6.64,1.23-11.56,1.22c-3.3-0.02-6.35-0.54-9.12-1.53-2.8-1.01-5.16-2.27-7.13-3.78-1.97-1.49-3.52-3.071-4.66-4.751-1.14-1.672-1.71-3.199-1.71-4.531l63.03,0.187c5.41,0,10.12-1.853,14.06-5.531,3.95-3.666,5.94-8.2,5.97-13.625v-1.969c-0.81-7.897-2.94-15.3-6.35-22.188-3.44-6.904-7.93-12.87-13.5-17.906-5.55-5.015-11.92-8.957-19.06-11.844-7.13-2.911-14.83-4.354-23.03-4.374zm-0.84,37.374c0.4-0.015,0.81-0.001,1.22,0,6.74,0.03,12.01,1.48,15.87,4.376,3.86,2.895,5.77,5.685,5.75,8.312l-42.91-0.219c0-0.649,0.51-1.684,1.5-3.062,1-1.412,2.41-2.793,4.22-4.188,1.81-1.378,4.03-2.604,6.66-3.656,2.31-0.92,4.88-1.456,7.69-1.563z" transform="translate(500.82841,646.12879)" fill="#dd4439"/>
  <path d="m840.9,675.56c-1.0725-2.3378-2.5012-4.4368-4.3572-6.3096-1.8518-1.856-3.9718-3.3056-6.3808-4.3782-1.5124-0.63682-3.0584-1.0767-4.6212-1.3155v-0.0251c-0.12988-0.0209-0.26394-0.0335-0.38544-0.0503-0.42734-0.0503-0.84631-0.0964-1.2736-0.11731-13.83-1.3323-23.051,4.7008-23.051,4.7008-3.2092-3.2302-7.3905-4.8641-12.556-4.8851-5.6686,0.004-10.424,1.7177-14.295,5.1784-3.8838,3.4564-5.8445,9.0621-5.8487,16.8l-0.23462,78.924c0.31003,8.551,2.2708,14.53,5.8822,17.927,3.6408,3.402,8.4211,5.1071,14.4,5.1239,5.1532,0.0168,9.6445-1.8979,13.44-5.7733,3.8084-3.8754,5.723-9.6696,5.7398-17.416l0.12988-47.447c0.33517-3.867,2.0152-7.0092,4.994-9.4183,3.004-2.43,6.5107-3.8712,10.537-4.3446,5.0108-0.44829,9.4769-2.4928,13.453-6.121,3.9718-3.6156,5.9618-8.1656,5.9828-13.671,0-2.5808-0.53208-5.0401-1.5544-7.3821" fill="#8ebc4a"/>
  <path d="m580.18,753.56c-22.465-1.1061-24.333-14.199-24.333-14.199l52.513,0.15083s-5.7104,15.154-28.179,14.048m55.248-52.592c-3.247-7.4785-7.6628-14.048-13.214-19.612-5.5722-5.6225-12.054-10.001-19.452-13.218-7.3947-3.2051-15.321-4.8181-23.768-4.8516-5.5806,0-10.721,0.57397-15.422,1.7512-4.1058,1.0348-7.9896,2.3671-11.676,3.9466-0.23881-0.3603-0.46086-0.7248-0.71224-1.0516-3.0961-4.0974-8.1404-6.1378-15.162-6.1922-5.2538-0.0209-9.7576,1.8015-13.52,5.4507-3.7581,3.6492-5.6602,9.456-5.7104,17.42l-0.008,1.923v0.008,0.23881l-0.11312,26.529,0.0419,0.10055-0.26394,96.956c-0.0335,7.181,1.5083,12.808,4.6086,16.867,3.1087,4.0807,8.1404,6.121,15.166,6.142,5.2538,0.0168,9.7618-1.8225,13.512-5.4716,3.7581-3.6534,5.6476-9.4643,5.6727-17.433l0.0754-28.69c3.6617,1.6088,7.3612,2.7442,11.111,3.3894,3.7288,0.63682,7.7675,0.97199,12.066,0.98037,8.4379,0.008,16.373-1.5376,23.784-4.6966,7.4282-3.1757,13.939-7.5455,19.524-13.101,5.5931-5.5722,10.03-12.091,13.327-19.578,3.2972-7.4701,4.9354-15.435,4.9689-23.881,0.0209-8.4546-1.592-16.423-4.8348-23.927" fill="#00aeef"/>
  <path d="m981.98,676.78c0.0209-4.4284,1.1563-7.9142,3.4187-10.432,2.2708-2.5222,5.6141-3.7665,10.047-3.7497l4.9605,0.0377c2.6269,0.004,4.7217,0.63263,6.2761,1.8937,1.5585,1.2527,2.3294,2.8824,2.321,4.8809-0.01,1.9942-0.6661,3.6492-1.9398,4.9605-1.2862,1.303-3.3768,1.9524-6.2425,1.9356l-0.5656-0.008c-0.99711,0-1.7512,0.17597-2.254,0.51533-0.49438,0.33517-0.74575,0.93847-0.75413,1.8141l-0.0126,2.7191,5.9912,0.0209c2.8154,0.0209,4.8683,0.71223,6.1838,2.0487,1.303,1.3491,1.9482,2.9956,1.944,4.927-0.01,2.0026-0.6787,3.6869-1.9942,5.0485-1.324,1.3826-3.3769,2.0529-6.1881,2.0362l-5.9995-0.0251-0.10893,24.74c-0.0168,3.1171-0.7667,5.3753-2.2456,6.7327-1.4747,1.3658-3.2637,2.0362-5.4046,2.0278-2.1744-0.008-3.9969-0.70386-5.4633-2.078-1.4664-1.3784-2.1786-3.6366-2.1618-6.7578l0.11312-24.735-1.127-0.008c-2.8657-0.008-4.9689-0.69548-6.2635-2.0864-1.3155-1.3742-1.9607-3.0668-1.9482-5.0652,0.008-1.9314,0.67452-3.5696,1.9859-4.9144,1.3239-1.3323,3.4187-1.9942,6.2844-1.9859l1.127,0.008,0.021-4.4996z" fill="#00aeef"/>
  <path d="m1016.2,689.21c0.017-2.9914,0.7709-5.1616,2.275-6.5023,1.5082-1.3323,3.3307-1.9901,5.4465-1.9901,1.99,0.008,3.6449,0.6452,4.9437,1.9021,1.3197-0.67453,2.7023-1.1605,4.1352-1.4287,1.4454-0.27233,2.8782-0.41477,4.3111-0.41477,5.4381,0.0209,9.8917,1.3323,13.386,3.9173,3.5109-2.5515,8.0063-3.8042,13.499-3.7874,6.695,0.0293,11.861,1.8644,15.535,5.5052,3.6701,3.6408,5.4926,8.8066,5.4591,15.485l-0.08,18.082c-0.013,3.1296-0.7583,5.3837-2.2373,6.783-1.4747,1.3993-3.2721,2.0864-5.392,2.0864-2.1912-0.0168-4.0137-0.729-5.4758-2.1367-1.4622-1.4161-2.1828-3.6827-2.1661-6.7997l0.08-17.902c0-1.613-0.5572-2.9914-1.6632-4.1268-1.127-1.127-2.497-1.6926-4.1268-1.701-1.5669-0.008-2.8866,0.49018-3.9843,1.525-1.0893,1.0264-1.7136,2.2959-1.8351,3.7874l-0.088,18.359c-0.021,3.1296-0.7541,5.3837-2.2372,6.7956-1.4706,1.391-3.2763,2.0864-5.4046,2.0655-2.1786-0.008-3.9969-0.70805-5.4633-2.1241-1.4622-1.4245-2.1828-3.6827-2.166-6.8039l0.08-17.902c0.01-1.6172-0.5572-2.983-1.68-4.131-1.1103-1.1144-2.4761-1.6926-4.1101-1.6926-1.5543-0.008-2.8908,0.49856-3.9843,1.5208-1.0977,1.0306-1.7135,2.2959-1.835,3.7874l-0.088,18.363c-0.013,2.9956-0.7709,5.237-2.2875,6.7327-1.5041,1.4957-3.2638,2.2372-5.258,2.2289-2.254-0.0168-4.0639-0.67453-5.4675-1.9984-1.3993-1.3155-2.1534-3.624-2.2582-6.9296l0.1383-30.555z" fill="#00aeef"/>
 </g>
</svg>
