<?xml version="1.0" encoding="UTF-8" standalone="no"?>
<!-- Created with Inkscape (http://www.inkscape.org/) -->
<svg xmlns:rdf="http://www.w3.org/1999/02/22-rdf-syntax-ns#" xmlns="http://www.w3.org/2000/svg" height="269.93" width="600.01" version="1.1" xmlns:cc="http://creativecommons.org/ns#" xmlns:dc="http://purl.org/dc/elements/1.1/">
 <metadata>
  <rdf:RDF>
   <cc:Work rdf:about="">
    <dc:format>image/svg+xml</dc:format>
    <dc:type rdf:resource="http://purl.org/dc/dcmitype/StillImage"/>
    <dc:title/>
   </cc:Work>
  </rdf:RDF>
 </metadata>
 <g transform="translate(-499.6587,-608.30913)">
  <g transform="matrix(4.1148412,0,0,-4.1148412,1063.616,863.45614)">
   <path fill-rule="nonzero" fill="#000" d="m0,0c0-1.704-1.383-3.088-3.09-3.086l-129.6,0.027c-1.705,0.001-3.087,1.384-3.088,3.091l0.011,46.518c0,1.707,1.384,3.088,3.089,3.09l129.6-0.027c1.704-0.002,3.09-1.387,3.086-3.092l-0.009-46.521z"/>
  </g>
  <g transform="matrix(4.1148412,0,0,-4.1148412,1063.616,863.45614)">
   <path stroke-linejoin="miter" d="m0,0c0-1.704-1.383-3.088-3.09-3.086l-129.6,0.027c-1.705,0.001-3.087,1.384-3.088,3.091l0.011,46.518c0,1.707,1.384,3.088,3.089,3.09l129.6-0.027c1.704-0.002,3.09-1.387,3.086-3.092l-0.009-46.521z" stroke="#000" stroke-linecap="butt" stroke-miterlimit="4" stroke-dasharray="none" stroke-width="1.02999997" fill="none"/>
  </g>
  <g transform="matrix(4.1148412,0,0,-4.1148412,1060.4344,860.2618)">
   <path fill-rule="nonzero" fill="#f05123" d="m0,0c0-1.705-1.384-3.089-3.089-3.088l-129.6,0.028c-1.706,0-3.089,1.382-3.088,3.089l0.007,46.519c0.002,1.707,1.386,3.088,3.092,3.087l129.6-0.028c1.706,0.001,3.086-1.384,3.086-3.089l-0.01-46.518z"/>
  </g>
  <g transform="matrix(4.1148412,0,0,-4.1148412,1060.4344,860.2618)">
   <path stroke-linejoin="miter" d="m0,0c0-1.705-1.384-3.089-3.089-3.088l-129.6,0.028c-1.706,0-3.089,1.382-3.088,3.089l0.007,46.519c0.002,1.707,1.386,3.088,3.092,3.087l129.6-0.028c1.706,0.001,3.086-1.384,3.086-3.089l-0.01-46.518z" stroke="#FFF" stroke-linecap="butt" stroke-miterlimit="4" stroke-dasharray="none" stroke-width="1.02999997" fill="none"/>
  </g>
  <g transform="matrix(4.1148412,0,0,-4.1148412,1029.6311,688.47827)">
   <path fill-rule="nonzero" fill="#ef4623" d="M0,0c-5.25-7.177,3.203-11.689,7.047-0.943,0.471,1.317,1.878,12.124-9.96,14.381-10.903,0.945-0.849-10.335,2.913-13.438"/>
  </g>
  <g transform="matrix(4.1148412,0,0,-4.1148412,1082.9853,670.70832)">
   <path fill-rule="nonzero" fill="#ef4623" d="m0,0c5.736-5.169,2.256-11.09-5.406-4.156-1.037,0.94-6.98,9.8,2.592,17.125,10.247,6.767,5.637-8.926,2.814-12.969"/>
  </g>
  <g transform="matrix(4.1148412,0,0,-4.1148412,1029.6311,688.47827)">
   <path fill-rule="nonzero" fill="#f05123" d="M0,0c-5.25-7.177,3.203-11.689,7.047-0.943,0.471,1.317,1.878,12.124-9.96,14.381-10.903,0.945-0.849-10.335,2.913-13.438"/>
  </g>
  <g transform="matrix(4.1148412,0,0,-4.1148412,1029.6311,688.47827)">
   <path stroke-linejoin="miter" d="M0,0c-5.25-7.177,3.203-11.689,7.047-0.943,0.471,1.317,1.878,12.124-9.96,14.381-10.903,0.945-0.849-10.335,2.913-13.438z" stroke="#FFF" stroke-linecap="butt" stroke-miterlimit="4" stroke-dasharray="none" stroke-width="0.92299998" fill="none"/>
  </g>
  <g transform="matrix(4.1148412,0,0,-4.1148412,1082.9853,670.70832)">
   <path fill-rule="nonzero" fill="#f05123" d="m0,0c5.736-5.169,2.256-11.09-5.406-4.156-1.037,0.94-6.98,9.8,2.592,17.125,10.247,6.767,5.637-8.926,2.814-12.969"/>
  </g>
  <g transform="matrix(4.1148412,0,0,-4.1148412,1082.9853,670.70832)">
   <path stroke-linejoin="miter" d="m0,0c5.736-5.169,2.256-11.09-5.406-4.156-1.037,0.94-6.98,9.8,2.592,17.125,10.247,6.767,5.637-8.926,2.814-12.969z" stroke="#FFF" stroke-linecap="butt" stroke-miterlimit="4" stroke-dasharray="none" stroke-width="0.79900002" fill="none"/>
  </g>
  <g transform="matrix(4.1148412,0,0,-4.1148412,1029.6311,688.47827)">
   <path stroke-linejoin="miter" d="M0,0c-5.25-7.177,3.203-11.689,7.047-0.943,0.471,1.317,1.878,12.124-9.96,14.381-10.903,0.945-0.849-10.335,2.913-13.438z" stroke="#FFF" stroke-linecap="butt" stroke-miterlimit="4" stroke-dasharray="none" stroke-width="1.05700004" fill="none"/>
  </g>
  <g transform="matrix(4.1148412,0,0,-4.1148412,1082.9853,670.70832)">
   <path stroke-linejoin="miter" d="m0,0c5.736-5.169,2.256-11.09-5.406-4.156-1.037,0.94-6.98,9.8,2.592,17.125,10.247,6.767,5.637-8.926,2.814-12.969z" stroke="#FFF" stroke-linecap="butt" stroke-miterlimit="4" stroke-dasharray="none" stroke-width="1.05700004" fill="none"/>
  </g>
  <g transform="matrix(4.1148412,0,0,-4.1148412,562.42828,751.57607)">
   <path fill-rule="nonzero" fill="#000" d="M0,0,8.939,17.194,14.614,17.19,2.298-5.19c-0.89-1.553-2.203-2.331-3.931-2.33-1.704,0-2.668,0.776-2.892,2.334l-2.777,22.384,5.673-0.002,1.629-17.196z"/>
  </g>
  <g transform="matrix(4.1148412,0,0,-4.1148412,623.1794,782.14648)">
   <path fill-rule="nonzero" fill="#000" d="M0,0-4.369-0.001-0.118,20.005,4.251,20.003,0,0z"/>
  </g>
  <g transform="matrix(4.1148412,0,0,-4.1148412,672.8377,757.3776)">
   <path fill-rule="nonzero" fill="#000" d="M0,0,7.262,13.976,11.613,13.978,1.609-4.221c-0.724-1.266-1.79-1.897-3.193-1.895-1.387-0.002-2.17,0.63-2.35,1.898l-2.256,18.199,4.867-0.001,1.323-13.98z"/>
  </g>
  <g transform="matrix(4.1148412,0,0,-4.1148412,741.57408,726.28873)">
   <path fill-rule="nonzero" fill="#000" d="M0,0-2.742-5.181,0.511-5.183,0,0zm-2.106,4.673c0.299,0.603,0.8,1.097,1.505,1.476,0.621,0.325,1.296,0.483,2.017,0.483,0.743,0,1.336-0.16,1.777-0.484,0.542-0.339,0.842-0.833,0.901-1.472l1.864-18.258h-4.576l-0.452,4.283h-5.844l-2.259-4.283-4.58,0.004,9.647,18.251z"/>
  </g>
  <g transform="matrix(4.1148412,0,0,-4.1148412,558.18795,747.32916)">
   <path fill-rule="nonzero" fill="#FFF" d="M0,0,8.94,17.194,14.612,17.192,2.3-5.189c-0.891-1.557-2.201-2.334-3.932-2.332-1.705-0.002-2.667,0.777-2.892,2.334l-2.775,22.381,5.674,0.001,1.625-17.195z"/>
  </g>
  <g transform="matrix(4.1148412,0,0,-4.1148412,618.94276,777.90734)">
   <path fill-rule="nonzero" fill="#FFF" d="m0,0-4.367,0.004,4.25,20l4.367,0.001-4.25-20.005z"/>
  </g>
  <g transform="matrix(4.1148412,0,0,-4.1148412,668.5953,753.13109)">
   <path fill-rule="nonzero" fill="#FFF" d="M0,0,7.264,13.978,11.873,13.975,1.869-4.221c-0.725-1.267-1.79-1.9-3.197-1.898-1.385,0-2.168,0.633-2.346,1.901l-2.257,18.198h4.609l1.322-13.98z"/>
  </g>
  <g transform="matrix(4.1148412,0,0,-4.1148412,737.34156,722.04593)">
   <path fill-rule="nonzero" fill="#FFF" d="M0,0-2.745-5.18,0.508-5.182,0,0zm-2.11,4.673c0.304,0.605,0.804,1.097,1.508,1.476,0.623,0.325,1.292,0.485,2.019,0.481,0.741,0,1.332-0.156,1.775-0.482,0.542-0.343,0.841-0.832,0.904-1.475l1.862-18.256-4.577,0.001-0.451,4.281h-5.845l-2.258-4.279h-4.58l9.643,18.253z"/>
  </g>
  <g transform="matrix(4.1148412,0,0,-4.1148412,789.82843,777.93206)">
   <path fill-rule="nonzero" fill="#FFF" d="m0,0c-1.407-0.002-2.506,0.504-3.295,1.518-0.818,1.015-1.063,2.237-0.743,3.674l3.046,14.273c0.294,1.384,1.049,2.595,2.26,3.635,1.237,1.013,2.557,1.517,3.966,1.517l11.052-0.002-1.15-5.375-9.605,0.002c-0.321,0-0.631-0.117-0.928-0.35-0.299-0.237-0.484-0.527-0.559-0.872l-2.41-11.385c-0.074-0.349-0.011-0.646,0.188-0.894,0.194-0.248,0.457-0.369,0.776-0.367l9.603-0.004-1.15-5.375-11.051,0.005z"/>
  </g>
  <g transform="matrix(4.1148412,0,0,-4.1148412,861.58014,777.95961)">
   <path fill-rule="nonzero" fill="#FFF" d="M0,0-4.37,0.002-0.114,20.005,4.252,20.004,0,0z"/>
  </g>
  <g transform="matrix(4.1148412,0,0,-4.1148412,903.96998,777.96415)">
   <path fill-rule="nonzero" fill="#FFF" d="m0,0-4.366,0,3.317,15.643-4.249,0,0.936,4.36l12.861-0.003-0.933-4.36-4.251,0.001-3.315-15.641z"/>
  </g>
  <g transform="matrix(4.1148412,0,0,-4.1148412,945.0065,777.97196)">
   <path fill-rule="nonzero" fill="#FFF" d="m0,0c-1.167-0.002-2.068,0.413-2.713,1.236-0.661,0.803-0.852,1.796-0.569,2.981l2.472,11.597c0.239,1.145,0.841,2.13,1.806,2.954,1.006,0.824,2.089,1.235,3.254,1.232l8.948-0.001-0.936-4.361-7.771,0.003c-0.283,0-0.539-0.097-0.767-0.289-0.231-0.191-0.378-0.427-0.44-0.709l-0.511-2.446,8.768-0.005-0.936-4.356-8.767,0.001-0.511-2.448c-0.061-0.286-0.016-0.524,0.132-0.728,0.154-0.2,0.369-0.301,0.648-0.301l7.776-0.004-0.938-4.358-8.945,0.002z"/>
  </g>
  <g transform="matrix(4.1148412,0,0,-4.1148412,969.90004,686.93192)">
   <path fill-rule="nonzero" fill="#FFF" d="M0,0,0.581-1.234,5.407,0.115,4.287,2.24,0,0z"/>
  </g>
  <g transform="matrix(4.1148412,0,0,-4.1148412,1078.6141,669.9047)">
   <path fill-rule="nonzero" fill="#000" d="M0,0c3.71,6.163,4.445,12.018,3.33,13.573,2.069-1.859-0.679-10.971-2.962-13.852l-0.368,0.279z"/>
  </g>
  <g transform="matrix(4.1148412,0,0,-4.1148412,1061.8486,685.92707)">
   <path fill-rule="nonzero" fill="#000" d="M0,0s1.576-1.445,2.751-2.082c0.951-0.638,4.725-2.349,4.711,0.882,0,0-0.672-2.783-4.709-0.382-2.265,1.354-2.708,2.105-2.708,2.105l-0.045-0.523z"/>
  </g>
  <g transform="matrix(4.1148412,0,0,-4.1148412,1057.5252,687.4179)">
   <path fill-rule="nonzero" fill="#000" d="m0,0s-0.659-4.924-4.237-6.668c-3.049-1.486-3.707,1.21-3.674,1.963,0,0,0.702-2.572,3.017-1.544,2.062,0.913,3.763,3.476,4.511,6.783,0.004-0.034,0.383-0.534,0.383-0.534"/>
  </g>
  <g transform="matrix(4.1148412,0,0,-4.1148412,1032.6398,688.16927)">
   <path fill-rule="nonzero" fill="#000" d="M0,0s-5.954,4.796-7.575,9.156c3.176-4.915,8.095-8.611,8.095-8.611l-0.52-0.545z"/>
  </g>
  <g transform="matrix(4.1148412,0,0,-4.1148412,1050.2053,856.72261)">
   <path fill-rule="nonzero" fill="#FFF" d="m0,0c0-0.804-0.659-1.46-1.461-1.46l-127.88,0.027c-0.802,0.001-1.461,0.657-1.458,1.461l-0.001,11.5c0.003,0.803,0.659,1.46,1.464,1.458l127.88-0.026c0.804,0,1.462-0.656,1.464-1.46l-0.004-11.5z"/>
  </g>
  <g transform="matrix(4.1148412,0,0,-4.1148412,555.05617,843.38355)">
   <path fill-rule="nonzero" fill="#133d8d" d="M0,0c0.43,1.652,0.967,3.421,1.602,5.25,0.018,0.058,0.023,0.121,0.015,0.176,0.002,0.006-0.004,0.054,0.019,0.183,0.037,0.194,0.043,0.277,0.042,0.325,0.001,0.152-0.035,0.289-0.107,0.415-0.02,0.038-0.047,0.069-0.077,0.098-0.298,0.264-0.695,0.273-1.039,0.026-0.436-0.314-0.915-0.713-1.422-1.194-0.088-0.076-0.336-0.301-1.311-1.265l-0.375-0.309c-0.168-0.141-0.296-0.268-0.398-0.398l-0.671-0.588c-0.099-0.085-0.193-0.163-0.283-0.238-0.034,0.195-0.056,0.473-0.046,0.872,0.017,0.842,0.054,1.424,0.106,1.741,0.017,0.103-0.008,0.207-0.067,0.292-0.012,0.087-0.033,0.167-0.066,0.235-0.005,0.206-0.04,0.399-0.109,0.563-0.188,0.507-0.551,0.582-0.748,0.586-0.058-0.002-0.12-0.018-0.17-0.042-0.032-0.013-0.144-0.061-0.341-0.141-0.117-0.049-0.201-0.151-0.229-0.267-0.107-0.452-0.307-1.107-0.593-1.954-0.313-0.893-0.53-1.573-0.644-2.015-0.072-0.28-0.199-0.676-0.379-1.186-0.194-0.546-0.316-0.963-0.377-1.275-0.024-0.123-0.096-0.379-0.314-0.912-0.179-0.457-0.286-0.823-0.315-1.122-0.023-0.199,0.116-0.382,0.313-0.418,0.043-0.01,0.074-0.015,0.098-0.021,0.157-0.081,0.309-0.123,0.456-0.123,0.143-0.001,0.275,0.035,0.395,0.107,0.099,0.059,0.164,0.155,0.183,0.267,0.079,0.46,0.2,0.882,0.363,1.262,0.008,0.016,0.019,0.049,0.024,0.068,0.004,0.03,0.04,0.144,0.196,0.596,0.097,0.286,0.141,0.507,0.136,0.694l0.672,2.158c0.015-0.156,0.029-0.309,0.041-0.463,0.002-0.017,0.004-0.041,0.009-0.054,0.161-0.68,0.623-1.067,1.3-1.08,0.083,0.004,0.159,0.024,0.223,0.068,0.246,0.168,0.437,0.288,0.566,0.355,0.044,0.026,0.094,0.073,0.127,0.114,0.008,0.005,0.056,0.063,0.278,0.227,0.214,0.159,0.366,0.314,0.457,0.47,0.39,0.361,0.925,0.841,1.596,1.438,0.292,0.27,0.366,0.331,0.383,0.344,0.015,0.011,0.03,0.028,0.042,0.039l0.081,0.089c-0.761-2.452-1.246-4.299-1.445-5.502-0.011-0.078-0.003-0.152,0.029-0.22l0.11-0.252c0.076-0.165,0.252-0.254,0.422-0.222l0.061-0.061c0.083-0.081,0.197-0.123,0.311-0.112,0.114,0.01,0.221,0.075,0.286,0.171,0.239,0.362,0.393,0.636,0.47,0.843,0.037,0.101,0.031,0.214-0.016,0.312-0.019,0.035-0.028,0.093-0.029,0.159,0,0.07,0.011,0.192,0.061,0.408,0.051,0.25,0.085,0.413,0.098,0.483"/>
  </g>
  <g transform="matrix(4.1148412,0,0,-4.1148412,577.12939,833.37582)">
   <path fill-rule="nonzero" fill="#133d8d" d="M0,0c-0.015-0.003-0.027-0.006-0.031-0.006-0.017-0.002-0.033-0.004-0.049-0.009-0.154-0.028-0.299-0.059-0.439-0.09,0.187,0.275,0.362,0.531,0.522,0.759-0.007-0.25-0.009-0.468-0.003-0.654m1.847-0.89,0.011,0c0.055-0.002,0.11,0.015,0.162,0.037,0.183,0.083,0.352,0.238,0.511,0.458,0.107,0.147,0.094,0.352-0.029,0.487-0.185,0.199-0.436,0.306-0.728,0.306-0.093,0-0.209-0.013-0.361-0.042-0.006,0.031-0.009,0.06-0.014,0.083,0.021,0.198,0.032,0.356,0.037,0.481,0.11,0.286,0.168,0.6,0.168,0.93l0.001,1.121c0.001,0.242-0.012,0.439-0.031,0.606-0.015,0.119-0.083,0.223-0.185,0.283-0.173,0.104-0.371,0.157-0.588,0.159-0.043,0-0.091-0.004-0.129-0.009-0.127-0.007-0.428-0.075-0.568-0.461-0.11-0.059-0.186-0.165-0.201-0.292-0.005-0.024-0.006-0.043-0.007-0.055-0.003-0.008-0.004-0.012-0.007-0.015-0.03-0.102-0.058-0.206-0.066-0.305-0.017-0.037-0.032-0.084-0.052-0.138-0.007-0.016-0.011-0.024-0.015-0.032-0.044-0.041-0.082-0.087-0.106-0.146-0.02-0.046-0.078-0.164-0.236-0.392-0.143-0.205-0.243-0.367-0.302-0.502l-0.467-0.692c-0.184-0.272-0.353-0.486-0.503-0.647-0.014-0.015-0.025-0.028-0.036-0.046-0.196-0.279-0.352-0.51-0.476-0.69-0.251,0.098-0.403,0.077-0.581,0.019-0.036-0.011-0.071-0.032-0.104-0.053-0.228-0.165-0.488-0.389-0.479-0.692-0.01-0.244,0.104-0.455,0.314-0.594-0.13-0.24-0.27-0.484-0.423-0.728-0.406-0.64-0.619-1.249-0.629-1.81,0-0.052,0.009-0.107,0.027-0.152-0.002-0.068,0.011-0.135,0.041-0.195,0.043-0.09,0.124-0.162,0.224-0.194,0.092-0.033,0.2-0.049,0.316-0.051,0.687,0.002,0.911,0.405,0.983,0.626,0.064,0.046,0.116,0.11,0.145,0.184l0.319,0.862c0.062,0.161,0.004,0.348-0.138,0.447-0.009,0.009-0.018,0.013-0.025,0.019,0.138,0.256,0.288,0.471,0.45,0.642,0.034,0.038,0.066,0.096,0.085,0.148,0.325,0.077,0.488,0.101,0.567,0.106,0.032,0.003,0.065,0.007,0.096,0.017,0.532,0.179,0.975,0.315,1.326,0.402,0.042-0.274,0.069-0.496,0.081-0.661,0.004-0.054,0.02-0.103,0.046-0.154,0.031-0.06,0.098-0.214,0.17-0.564,0.006-0.026,0.016-0.05,0.025-0.076,0.218-0.49,0.357-0.812,0.431-0.998,0.255-0.587,0.517-0.914,0.826-1.039,0.047-0.021,0.096-0.029,0.145-0.031,0.069,0.002,0.135,0.02,0.195,0.057,0.215,0.125,0.497,0.33,0.5,0.652,0,0.12-0.042,0.236-0.115,0.332-0.325,0.705-0.458,0.963-0.522,1.081-0.091,0.336-0.175,0.643-0.255,0.916-0.089,0.324-0.136,0.615-0.137,0.869,0.001,0.011-0.002,0.024,0,0.034,0.111-0.02,0.229,0.018,0.313,0.092"/>
  </g>
  <g transform="matrix(4.1148412,0,0,-4.1148412,624.06739,827.96771)">
   <path fill-rule="nonzero" fill="#133d8d" d="M0,0c0.014,0.014,0.028,0.023,0.042,0.038,0.073,0.083,0.105,0.194,0.092,0.305-0.004,0.044-0.005,0.145,0.077,0.337,0.039,0.091,0.073,0.174,0.1,0.246,0.025-0.009,0.056-0.016,0.092-0.031,0.275-0.095,0.454-0.116,0.638-0.083,0.623-0.166,1.136-0.351,1.528-0.548-0.007-0.028-0.018-0.061-0.037-0.106-0.679-0.676-0.856-0.823-0.9-0.853-0.363-0.246-0.843-0.518-1.426-0.805-0.275-0.133-0.522-0.244-0.739-0.331,0,0.003,0.001,0.009,0.001,0.013,0.014,0.222,0.098,0.545,0.243,0.955,0.132,0.37,0.23,0.654,0.289,0.863m1.189-2.61c0.306,0.184,0.521,0.317,0.659,0.407,0.591,0.411,1.087,0.782,1.472,1.101,0.013,0.012,0.027,0.026,0.04,0.038,0.284,0.31,0.415,0.488,0.48,0.617l0.151,0.14c0.078,0.073,0.126,0.178,0.125,0.286-0.014,0.664-0.31,1.203-0.862,1.556-0.103,0.069-0.356,0.198-1.386,0.605-0.016,0.01-0.033,0.012-0.05,0.016-0.57,0.141-1.005,0.233-1.321,0.276-0.183,0.109-0.335,0.179-0.479,0.214-0.193,0.043-0.242,0.087-0.242,0.087-0.125,0.123-0.312,0.15-0.463,0.068-0.073-0.04-0.145-0.076-0.218-0.11-0.019-0.005-0.034-0.017-0.05-0.028-0.224-0.139-0.336-0.362-0.304-0.593,0.005-0.185,0.057-0.343,0.155-0.466-0.295-1.157-0.543-2.041-0.737-2.639l-0.147-0.258c-0.04-0.066-0.056-0.141-0.052-0.221,0.004-0.045,0-0.156-0.067-0.376-0.032-0.108-0.058-0.2-0.08-0.275-0.586-0.013-1.032-0.122-1.366-0.325-0.067-0.041-0.119-0.106-0.151-0.179-0.05-0.113-0.074-0.215-0.074-0.315,0.001-0.138,0.057-0.332,0.324-0.495,0.051-0.159,0.197-0.266,0.37-0.268h0.54c-0.001-0.004-0.001-0.01-0.004-0.01-0.028-0.058-0.037-0.121-0.035-0.186,0.004-0.045-0.001-0.201-0.097-0.57-0.104-0.383-0.152-0.644-0.152-0.821,0-0.515,0.283-0.862,0.779-0.967,0.027-0.003,0.052-0.006,0.077-0.009,0.099,0.004,0.191,0.04,0.263,0.108,0.28,0.255,0.456,0.461,0.553,0.642,0.028,0.057,0.045,0.114,0.045,0.178,0,0.002,0.009,0.103,0.167,0.398,0.14,0.253,0.214,0.493,0.227,0.714,0.131-0.09,0.21-0.14,0.264-0.168,0.547-0.571,1.018-0.975,1.437-1.229,0.653-0.391,1.366-0.565,2.117-0.516,0.032,0.004,0.066,0.009,0.094,0.018,0.35,0.113,0.61,0.258,0.794,0.445,0.103,0.101,0.139,0.255,0.094,0.395-0.047,0.138-0.168,0.238-0.312,0.258-0.269,0.042-0.511,0.061-0.721,0.074-0.236,0.01-0.368,0.037-0.443,0.057-0.536,0.146-0.736,0.238-0.804,0.277-0.251,0.15-0.612,0.457-1.075,0.917-0.277,0.274-0.521,0.5-0.735,0.68,0.553,0.178,0.936,0.319,1.173,0.439,0.009,0.006,0.019,0.01,0.027,0.013"/>
  </g>
  <g transform="matrix(4.1148412,0,0,-4.1148412,659.91302,833.38366)">
   <path fill-rule="nonzero" fill="#133d8d" d="M0,0c-0.014-0.004-0.026-0.006-0.031-0.004-0.017-0.006-0.034-0.008-0.049-0.01-0.155-0.031-0.3-0.064-0.439-0.096,0.188,0.277,0.361,0.534,0.521,0.764-0.006-0.252-0.008-0.469-0.002-0.654m1.847-0.892,0.009,0.001c0.057-0.001,0.113,0.01,0.164,0.034,0.184,0.086,0.35,0.236,0.511,0.457,0.107,0.15,0.097,0.355-0.029,0.49-0.183,0.201-0.436,0.307-0.729,0.308-0.089-0.002-0.21-0.017-0.359-0.041-0.004,0.03-0.011,0.055-0.016,0.082,0.022,0.196,0.035,0.356,0.038,0.478,0.11,0.288,0.167,0.601,0.167,0.929l0.002,1.125c-0.001,0.239-0.012,0.436-0.031,0.602-0.016,0.119-0.084,0.223-0.186,0.283-0.175,0.108-0.37,0.159-0.587,0.161-0.044,0-0.091-0.006-0.128-0.007-0.128-0.011-0.428-0.077-0.57-0.464-0.109-0.056-0.185-0.165-0.201-0.291-0.003-0.024-0.004-0.041-0.007-0.057-0.003-0.007-0.002-0.01-0.003-0.013-0.034-0.102-0.061-0.206-0.068-0.307-0.019-0.038-0.033-0.084-0.055-0.135-0.004-0.017-0.009-0.027-0.012-0.034-0.045-0.039-0.084-0.088-0.106-0.146-0.019-0.049-0.079-0.165-0.239-0.391-0.141-0.206-0.241-0.37-0.301-0.502l-0.467-0.693c-0.183-0.266-0.351-0.488-0.502-0.647-0.014-0.013-0.025-0.028-0.036-0.044-0.196-0.279-0.352-0.51-0.476-0.69-0.251,0.094-0.401,0.075-0.578,0.017-0.039-0.013-0.072-0.031-0.103-0.053-0.231-0.164-0.491-0.389-0.485-0.691-0.009-0.244,0.103-0.459,0.318-0.593-0.131-0.243-0.272-0.484-0.424-0.729-0.407-0.641-0.621-1.251-0.63-1.811-0.001-0.055,0.008-0.106,0.027-0.153-0.002-0.066,0.01-0.133,0.041-0.193,0.046-0.092,0.124-0.162,0.224-0.196,0.093-0.031,0.2-0.045,0.316-0.047,0.686,0,0.914,0.399,0.987,0.625,0.06,0.043,0.112,0.108,0.139,0.182l0.319,0.863c0.061,0.163,0.006,0.345-0.137,0.445-0.007,0.008-0.017,0.015-0.025,0.019,0.139,0.256,0.29,0.471,0.451,0.64,0.035,0.039,0.065,0.098,0.085,0.149,0.326,0.084,0.488,0.104,0.566,0.108,0.033,0,0.066,0.008,0.098,0.019,0.53,0.177,0.973,0.311,1.323,0.401,0.042-0.276,0.07-0.496,0.084-0.662,0.003-0.053,0.02-0.105,0.044-0.153,0.031-0.062,0.098-0.215,0.172-0.567,0.007-0.026,0.014-0.05,0.023-0.072,0.218-0.489,0.358-0.813,0.433-0.999,0.253-0.583,0.515-0.914,0.825-1.041,0.047-0.018,0.096-0.031,0.145-0.027,0.069-0.002,0.135,0.02,0.196,0.052,0.213,0.128,0.497,0.328,0.497,0.649,0,0.123-0.04,0.242-0.112,0.34-0.327,0.703-0.46,0.961-0.525,1.079-0.089,0.335-0.173,0.64-0.252,0.914-0.092,0.327-0.139,0.618-0.138,0.868,0.001,0.015,0.001,0.025,0.002,0.037,0.111-0.019,0.226,0.018,0.311,0.092"/>
  </g>
  <g transform="matrix(4.1148412,0,0,-4.1148412,682.51459,844.4723)">
   <path fill-rule="nonzero" fill="#133d8d" d="M0,0c0.062,0.498,0.119,0.852,0.172,1.048,0.017,0.067,0.015,0.136-0.002,0.199,0.003,0.017,0.013,0.074,0.07,0.185,0.015,0.033,0.026,0.06,0.032,0.093,0.063,0.295,0.197,0.78,0.397,1.443,0.139,0.473,0.248,0.875,0.32,1.201,0.176-0.01,0.371-0.037,0.579-0.08l0.909-0.186c0.92-0.39,1.29-0.697,1.437-0.891,0.039-0.115,0.046-0.159,0.048-0.166,0.015-0.123,0.041-0.227,0.078-0.319-0.121-0.654-0.574-1.304-1.354-1.939-0.026-0.024-0.121-0.097-0.426-0.285-0.2-0.126-0.354-0.242-0.473-0.348l-1.19-0.556c-0.295-0.137-0.555-0.231-0.776-0.282,0.071,0.24,0.128,0.529,0.179,0.883m1.933,5.53c-0.013,0.003-0.028,0.004-0.043,0.005-0.351,0.032-0.439,0.09-0.441,0.093-0.064,0.045-0.139,0.072-0.217,0.074-0.17,0.37-0.408,0.579-0.709,0.621-0.033,0.006-0.066,0.007-0.1,0.006-0.142-0.019-0.271-0.064-0.388-0.143-0.039-0.027-0.085-0.062-0.154-0.132-0.091,0.019-0.173,0.024-0.249,0.027-0.305-0.002-0.487-0.133-0.583-0.244-0.04-0.047-0.07-0.102-0.083-0.16-0.018-0.071-0.027-0.139-0.028-0.207,0.001-0.182,0.084-0.381,0.518-0.858,0.025-0.029,0.057-0.054,0.091-0.068-0.092-0.306-0.133-0.461-0.146-0.568-0.037-0.104-0.091-0.29-0.174-0.674-0.071-0.313-0.142-0.485-0.187-0.572-0.017-0.029-0.027-0.06-0.037-0.091-0.289-1.229-0.5-2.416-0.632-3.521-0.001-0.014-0.004-0.032-0.003-0.046,0-0.052,0.007-0.107,0.047-0.242-0.207-0.043-0.377-0.06-0.506-0.041-0.2,0.028-0.389-0.097-0.436-0.295-0.093-0.395,0.112-0.583,0.204-0.644,0.031-0.022,0.063-0.039,0.099-0.048,0.213-0.066,0.457-0.101,0.726-0.101,0.338-0.002,0.731,0.053,1.206,0.162l1.028,0.25c0.051,0.016,0.098,0.036,0.142,0.071,0.015,0,0.045,0.008,0.093,0.011,0.224,0.02,0.406,0.116,0.53,0.274,0.722,0.287,1.247,0.57,1.601,0.859,0.162,0.051,0.321,0.164,0.471,0.332,0.102,0.121,0.147,0.153,0.143,0.149,0.056,0.021,0.105,0.056,0.145,0.101,0.839,0.9,1.07,1.251,1.167,1.432,0.236,0.375,0.358,0.773,0.358,1.195-0.001,0.556-0.193,1.053-0.571,1.477-0.665,0.757-1.636,1.27-2.882,1.516"/>
  </g>
  <g transform="matrix(4.1148412,0,0,-4.1148412,720.29667,822.37152)">
   <path fill-rule="nonzero" fill="#133d8d" d="M0,0c-0.001,0.259-0.115,0.487-0.332,0.653-0.067,0.053-0.151,0.08-0.235,0.082-0.346-0.002-0.605-0.095-0.772-0.279-0.03-0.034-0.051-0.065-0.067-0.102-0.03-0.059-0.093-0.183-0.248-0.439-0.151-0.24-0.249-0.435-0.308-0.596-0.488-1.434-0.845-2.858-1.062-4.247-0.096-0.747-0.149-1.256-0.17-1.556-0.003-0.048,0.005-0.098,0.018-0.145,0.158-0.471,0.216-0.599,0.261-0.678,0.186-0.3,0.473-0.463,0.813-0.463h0.045c0.186,0.006,0.339,0.147,0.369,0.334,0.039,0.258,0.001,0.467-0.112,0.616-0.035,0.12-0.052,0.244-0.054,0.367,0.003,0.182,0.04,0.331,0.111,0.455,0.037,0.062,0.056,0.127,0.058,0.194,0.01,0.606,0.112,1.28,0.306,2.003,0.235,0.847,0.414,1.495,0.544,1.952,0.107,0.122,0.188,0.288,0.245,0.497,0.05,0.193,0.086,0.249,0.086,0.249,0.02,0.029,0.035,0.057,0.047,0.09,0.047,0.127,0.086,0.223,0.112,0.285,0.019,0.036,0.043,0.06,0.072,0.079,0.066,0.035,0.121,0.095,0.154,0.165,0.079,0.174,0.118,0.332,0.119,0.484"/>
  </g>
  <g transform="matrix(4.1148412,0,0,-4.1148412,734.84056,844.60111)">
   <path fill-rule="nonzero" fill="#133d8d" d="M0,0c-0.563-0.516-1.065-0.774-1.491-0.773-0.314-0.001-0.647,0.062-0.656,0.835,0.222,1.388,1.102,2.886,2.617,4.453,0.177,0.065,0.364,0.171,0.562,0.324,0.136,0.1,0.242,0.157,0.324,0.188,0.048-0.059,0.115-0.102,0.193-0.123,0.132-0.038,0.279,0.001,0.376,0.099l0.051,0.051,0.103-0.092c0.047-0.106,0.121-0.188,0.175-0.238,0.001-0.026,0.005-0.055,0.012-0.079,0.053-0.208,0.083-0.435,0.086-0.681-0.001-0.721-0.228-1.441-0.68-2.144-0.214-0.337-0.515-0.699-0.891-1.079-0.04-0.038-0.066-0.075-0.084-0.127-0.008-0.014-0.097-0.164-0.667-0.587-0.01-0.009-0.02-0.017-0.03-0.027m3.832,3.952c0,0.848-0.333,1.645-0.991,2.361-0.074,0.082-0.176,0.126-0.284,0.128l-0.086-0.001c-0.19,0.1-0.409,0.155-0.653,0.155-0.266,0.002-0.681-0.084-1.312-0.265-0.032-0.009-0.059-0.023-0.088-0.037-0.854-0.491-1.563-1.144-2.118-1.939-0.514-0.755-0.626-0.931-0.661-0.99-0.881-1.311-1.308-2.393-1.308-3.302-0.002-0.849,0.387-1.486,1.124-1.838,0.255-0.173,0.471-0.283,0.649-0.328,0.018-0.005,0.038-0.011,0.056-0.013,0.098-0.01,0.194-0.013,0.293-0.015,0.717-0.001,1.471,0.308,2.244,0.915,0.281,0.229,0.825,0.746,1.658,1.59,0.035,0.034,0.055,0.07,0.078,0.111,0.111,0.241,0.164,0.319,0.179,0.34,0.016,0.013,0.029,0.03,0.042,0.049,0.529,0.697,0.852,1.317,0.992,1.897,0.036,0.045,0.064,0.091,0.087,0.133,0.029,0.055,0.042,0.114,0.043,0.174-0.001,0.041-0.006,0.104-0.02,0.188,0.005,0.013,0.012,0.029,0.014,0.047,0.039,0.217,0.062,0.433,0.062,0.64"/>
  </g>
  <g transform="matrix(4.1148412,0,0,-4.1148412,795.17608,845.62943)">
   <path fill-rule="nonzero" fill="#133d8d" d="M0,0-0.276,0c-0.109-0.002-0.209-0.024-0.295-0.068-0.132-0.012-0.274-0.067-0.433-0.159-0.128-0.079-0.182-0.1-0.173-0.098-0.035-0.005-0.063-0.015-0.095-0.03-0.465-0.213-0.831-0.356-1.077-0.429-0.121-0.011-0.31-0.035-0.563-0.075-0.316-0.049-0.48-0.06-0.563-0.058-0.381-0.003-0.645,0.116-0.837,0.369-0.186,0.236-0.272,0.548-0.265,0.958,0.431,1.811,1.294,3.372,2.572,4.648,0.026,0.027,0.051,0.062,0.068,0.091,0.061,0.115,0.188,0.238,0.375,0.355l0.563,0.36c0.035,0.025,0.062,0.047,0.088,0.078,0,0,0.031,0.026,0.135,0.03,0.435,0.015,0.494,0.025,0.555,0.045,0.05,0.019,0.091,0.044,0.13,0.078,0.147,0.129,0.235,0.289,0.256,0.47v0.043,0.249c0.002,0.114-0.047,0.221-0.131,0.292-0.287,0.249-0.717,0.325-1.269,0.243-0.037-0.004-0.077-0.015-0.112-0.031-0.771-0.374-1.559-1.106-2.403-2.243-0.359-0.349-0.707-0.816-1.021-1.39l-0.778-1.418c-0.016-0.021-0.025-0.044-0.033-0.072l-0.277-0.914c-0.135-0.443-0.2-0.799-0.2-1.101,0-0.189,0.031-0.369,0.084-0.534,0.117-0.525,0.401-0.962,0.852-1.302,0.406-0.302,0.891-0.485,1.436-0.546,0.017-0.001,0.032-0.003,0.044-0.004,0.016,0,0.025,0.003,0.04,0.003,0.451,0.045,0.79,0.078,1.025,0.097,0.399,0.049,0.757,0.172,1.058,0.358,0.206,0.035,0.429,0.125,0.683,0.279,0.01,0.009,0.025,0.018,0.035,0.025,0.152,0.124,0.313,0.243,0.474,0.36,0.073,0.027,0.14,0.07,0.198,0.128,0.018-0.004,0.038-0.005,0.059-0.008,0.106-0.017,0.213,0.011,0.298,0.078,0.081,0.066,0.135,0.163,0.145,0.269l0.012,0.152c0.011,0.108-0.022,0.215-0.096,0.297-0.072,0.08-0.179,0.125-0.288,0.125"/>
  </g>
  <g transform="matrix(4.1148412,0,0,-4.1148412,813.84633,844.61714)">
   <path fill-rule="nonzero" fill="#133d8d" d="m0,0c-0.562-0.515-1.065-0.777-1.49-0.774-0.317-0.003-0.651,0.063-0.656,0.837,0.222,1.386,1.099,2.885,2.615,4.454,0.179,0.06,0.363,0.167,0.565,0.32,0.132,0.1,0.24,0.16,0.321,0.191,0.049-0.06,0.116-0.104,0.196-0.123,0.135-0.039,0.278-0.001,0.377,0.094l0.049,0.054,0.103-0.091c0.045-0.108,0.118-0.188,0.176-0.24,0.001-0.028,0.006-0.051,0.01-0.078,0.056-0.206,0.084-0.434,0.085-0.68-0.001-0.721-0.229-1.443-0.677-2.143-0.214-0.341-0.516-0.701-0.893-1.079-0.039-0.037-0.065-0.076-0.086-0.129-0.008-0.014-0.095-0.164-0.667-0.588-0.01-0.007-0.017-0.017-0.028-0.025m3.735,2.905c0.028,0.051,0.043,0.112,0.043,0.17,0,0.041-0.008,0.103-0.021,0.188,0.008,0.013,0.01,0.033,0.012,0.049,0.04,0.218,0.064,0.433,0.062,0.643,0.002,0.845-0.333,1.639-0.988,2.359-0.074,0.081-0.181,0.126-0.286,0.124l-0.086,0.003c-0.19,0.101-0.408,0.153-0.651,0.155-0.265,0.001-0.683-0.087-1.316-0.265-0.032-0.012-0.059-0.025-0.086-0.039-0.853-0.492-1.564-1.143-2.117-1.938-0.517-0.757-0.627-0.929-0.662-0.992-0.884-1.309-1.308-2.392-1.308-3.3,0.002-0.852,0.389-1.485,1.122-1.839,0.258-0.17,0.471-0.282,0.651-0.327,0.019-0.004,0.037-0.009,0.058-0.011,0.096-0.012,0.193-0.016,0.29-0.02,0.719,0.002,1.472,0.313,2.244,0.921,0.282,0.224,0.825,0.743,1.661,1.588,0.03,0.032,0.059,0.067,0.075,0.111,0.111,0.241,0.165,0.321,0.183,0.34,0.013,0.013,0.028,0.03,0.039,0.046,0.53,0.697,0.855,1.318,0.993,1.899,0.038,0.045,0.065,0.09,0.088,0.135"/>
  </g>
  <g transform="matrix(4.1148412,0,0,-4.1148412,868.38154,816.92716)">
   <path fill-rule="nonzero" fill="#133d8d" d="M0,0c-0.297,0.264-0.695,0.277-1.036,0.029-0.435-0.319-0.917-0.716-1.421-1.199-0.09-0.07-0.333-0.3-1.311-1.264l-0.376-0.308c-0.166-0.138-0.296-0.266-0.402-0.396l-0.668-0.588c-0.097-0.087-0.191-0.168-0.283-0.238-0.033,0.194-0.055,0.474-0.045,0.874,0.019,0.839,0.053,1.424,0.106,1.738,0.017,0.102-0.008,0.207-0.069,0.291-0.01,0.09-0.031,0.167-0.062,0.234-0.008,0.209-0.043,0.399-0.112,0.565-0.187,0.51-0.552,0.582-0.752,0.582-0.054,0.002-0.115-0.014-0.166-0.039-0.029-0.01-0.144-0.06-0.342-0.138-0.115-0.051-0.198-0.149-0.226-0.272-0.109-0.449-0.307-1.106-0.596-1.951-0.31-0.893-0.526-1.571-0.641-2.015-0.073-0.279-0.198-0.677-0.381-1.185-0.192-0.548-0.317-0.962-0.377-1.278-0.02-0.123-0.094-0.38-0.311-0.912-0.179-0.455-0.288-0.817-0.32-1.118-0.02-0.199,0.117-0.387,0.316-0.422,0.043-0.008,0.076-0.01,0.098-0.019,0.156-0.082,0.311-0.12,0.459-0.121,0.141-0.001,0.272,0.033,0.393,0.108,0.097,0.056,0.16,0.153,0.18,0.265,0.079,0.461,0.202,0.882,0.366,1.262,0.007,0.017,0.017,0.047,0.022,0.068,0.005,0.028,0.041,0.141,0.194,0.595,0.098,0.287,0.145,0.507,0.139,0.693l0.67,2.161c0.014-0.157,0.029-0.311,0.041-0.465,0.002-0.02,0.004-0.04,0.011-0.056,0.161-0.68,0.62-1.064,1.299-1.078,0.088,0.001,0.159,0.022,0.223,0.067,0.248,0.172,0.438,0.287,0.565,0.359,0.045,0.021,0.097,0.07,0.129,0.11,0.003,0.004,0.054,0.064,0.281,0.23,0.213,0.158,0.364,0.311,0.456,0.466,0.388,0.362,0.925,0.845,1.594,1.44,0.292,0.268,0.363,0.329,0.38,0.345,0.016,0.011,0.031,0.025,0.046,0.041l0.081,0.086c-0.761-2.452-1.247-4.298-1.446-5.505-0.012-0.074-0.001-0.148,0.027-0.217l0.115-0.251c0.069-0.166,0.247-0.254,0.423-0.22l0.057-0.064c0.081-0.079,0.193-0.122,0.314-0.108,0.114,0.009,0.215,0.073,0.281,0.172,0.242,0.359,0.393,0.635,0.472,0.838,0.037,0.101,0.031,0.213-0.016,0.311-0.018,0.037-0.029,0.096-0.028,0.164-0.003,0.066,0.008,0.188,0.061,0.403,0.05,0.253,0.084,0.413,0.094,0.482,0.433,1.655,0.971,3.421,1.603,5.253,0.02,0.058,0.027,0.117,0.016,0.175,0.003,0.006-0.004,0.055,0.02,0.182,0.037,0.196,0.042,0.279,0.041,0.327,0.001,0.151-0.037,0.29-0.105,0.413-0.02,0.038-0.048,0.07-0.081,0.098"/>
  </g>
  <g transform="matrix(4.1148412,0,0,-4.1148412,882.25886,832.25043)">
   <path fill-rule="nonzero" fill="#133d8d" d="m0,0c0.116,0.316,0.219,0.576,0.311,0.767,0.035,0.074,0.043,0.171,0.028,0.253,0,0.003-0.013,0.085,0.127,0.298,0.05,0.076,0.073,0.161,0.06,0.251,0.001,0.017,0.004,0.178,0.249,0.761,0.26,0.113,0.543,0.156,0.845,0.137,0.401-0.029,0.707-0.048,0.89-0.055,0.186-0.019,0.298-0.069,0.362-0.127-0.032-0.08-0.088-0.158-0.151-0.232l-0.463-0.463c-0.297-0.308-0.456-0.485-0.542-0.592-0.241-0.087-0.515-0.233-0.827-0.441-0.498-0.334-0.69-0.437-0.762-0.467-0.051-0.022-0.09-0.051-0.127-0.09m4.047,1.471c0.014,0.009,0.026,0.022,0.04,0.036,0.23,0.28,0.349,0.585,0.349,0.899,0,0.051-0.007,0.1-0.027,0.149-0.404,0.957-1.443,1.409-3.112,1.348-0.013-0.002-0.029-0.002-0.044-0.006-0.425-0.065-0.991-0.195-1.691-0.386-0.177-0.021-0.398-0.077-0.702-0.184-0.321-0.116-0.473-0.131-0.536-0.134-0.043,0.001-0.083-0.006-0.123-0.017-0.556-0.184-0.58-0.58-0.57-0.733,0.006-0.275,0.164-0.498,0.435-0.614,0.057-0.021,0.149-0.056,0.469-0.12,0.083-0.018,0.169-0.008,0.243,0.027s0.14,0.067,0.203,0.094c-0.022-0.059-0.042-0.127-0.055-0.199-0.113-0.083-0.172-0.221-0.153-0.362,0.007-0.048,0.01-0.094,0.011-0.142-0.002-0.068-0.019-0.192-0.096-0.393-0.176-0.423-0.213-0.558-0.222-0.639-0.007-0.06-0.039-0.204-0.166-0.507-0.089-0.21-0.149-0.396-0.179-0.555-0.236-0.164-0.348-0.207-0.387-0.22-0.298-0.1-0.48-0.356-0.478-0.686-0.002-0.09,0.012-0.188,0.038-0.293,0.024-0.1,0.093-0.189,0.185-0.24,0.079-0.045,0.168-0.06,0.255-0.043-0.088-0.38-0.162-0.68-0.226-0.898-0.018-0.06-0.023-0.123-0.012-0.186,0.006-0.024,0.007-0.052,0.009-0.077,0-0.028-0.009-0.128-0.087-0.425-0.072-0.281-0.102-0.488-0.084-0.654-0.001-0.274,0.162-0.495,0.42-0.568,0.051-0.066,0.117-0.114,0.193-0.139,0.071-0.027,0.141-0.038,0.206-0.037,0.14,0.002,0.269,0.045,0.363,0.137,0.052,0.039,0.088,0.068,0.107,0.084,0.081,0.042,0.145,0.121,0.175,0.211l0.093,0.277c0.147,0.39,0.177,0.541,0.175,0.651,0,0.135-0.031,0.265-0.091,0.373,0.168,0.833,0.332,1.484,0.472,1.945,0.545,0.286,0.862,0.45,0.945,0.496,0.298,0.107,0.649,0.294,1.082,0.578,0.633,0.435,0.838,0.552,0.912,0.585,0.096,0.047,0.2,0.129,0.354,0.278,0.108,0.103,0.154,0.123,0.154,0.123,0.059,0.023,0.119,0.062,0.16,0.115,0.244,0.299,0.398,0.423,0.484,0.481,0.035,0.023,0.069,0.052,0.094,0.087,0.176,0.225,0.311,0.383,0.415,0.483"/>
  </g>
  <g transform="matrix(4.1148412,0,0,-4.1148412,919.01262,847.34943)">
   <path fill-rule="nonzero" fill="#133d8d" d="M0,0-0.295,0.223c-0.079,0.058-0.176,0.084-0.273,0.077-0.472-0.052-1.109-0.195-1.946-0.448-0.411-0.12-0.751-0.201-1.016-0.254-0.017,0.069-0.02,0.159-0.004,0.263,0.041,0.41,0.074,0.703,0.099,0.88,0.108,0.278,0.213,0.665,0.32,1.181,0.089,0.434,0.169,0.765,0.245,0.989h0.001c0.072,0.064,0.123,0.148,0.137,0.241,0.039,0.234,0.072,0.478,0.11,0.72,0.059,0.249,0.122,0.348,0.147,0.383,0.043,0.023,0.079,0.055,0.108,0.094,0.1,0.099,0.144,0.233,0.133,0.373,0.025,0.136,0.083,0.368,0.226,0.753,0.153,0.405,0.247,0.705,0.287,0.912,0.033,0.157-0.037,0.321-0.173,0.401-0.014,0.014-0.028,0.022-0.042,0.029-0.001,0.004-0.001,0.006-0.005,0.009-0.26,0.271-0.448,0.386-0.642,0.386-0.042,0-0.081-0.009-0.118-0.018-0.273-0.087-0.462-0.274-0.53-0.516-0.04-0.131-0.073-0.226-0.092-0.294-0.104-0.144-0.16-0.294-0.16-0.448-0.002-0.067,0.009-0.132,0.032-0.193-0.4-1.24-0.702-2.18-0.907-2.824-0.344-1.094-0.551-2.152-0.625-3.138-0.075-0.859,0.265-1.187,0.558-1.315,0.115-0.146,0.32-0.286,0.67-0.286,0.175,0,0.352,0.005,0.533,0.015,0.08,0.003,0.162,0.034,0.225,0.083,0.004,0.003,0.068,0.053,0.311,0.095,0.256,0.047,0.442,0.107,0.579,0.183,0.542,0.161,0.625,0.19,0.668,0.208,0.041,0.017,0.076,0.039,0.111,0.068l0.005,0.001c0.026,0.001,0.052,0.002,0.077,0.007,0.066,0.014,0.149,0.043,0.232,0.107,0.276,0.045,0.6,0.181,0.979,0.416,0.107,0.063,0.18,0.182,0.187,0.308,0.004,0.125-0.054,0.251-0.152,0.329"/>
  </g>
  <g transform="matrix(4.1148412,0,0,-4.1148412,933.89353,819.73183)">
   <path fill-rule="nonzero" fill="#133d8d" d="M0,0c-0.066,0.055-0.15,0.081-0.238,0.08-0.344,0.001-0.604-0.093-0.772-0.277-0.028-0.032-0.049-0.067-0.064-0.102-0.03-0.058-0.092-0.183-0.247-0.435-0.152-0.243-0.253-0.438-0.309-0.599-0.488-1.435-0.845-2.857-1.063-4.247-0.094-0.751-0.149-1.256-0.169-1.558-0.003-0.048,0.004-0.097,0.02-0.143,0.154-0.47,0.213-0.6,0.26-0.677,0.183-0.3,0.47-0.466,0.812-0.464h0.044c0.187,0.008,0.341,0.147,0.368,0.329,0.04,0.264,0.002,0.47-0.111,0.623-0.032,0.116-0.052,0.241-0.052,0.364,0.003,0.181,0.041,0.33,0.114,0.456,0.034,0.059,0.053,0.127,0.055,0.194,0.01,0.605,0.111,1.279,0.305,2,0.234,0.852,0.415,1.5,0.546,1.952,0.103,0.125,0.185,0.291,0.24,0.498,0.057,0.194,0.085,0.251,0.085,0.251,0.023,0.028,0.04,0.057,0.051,0.09,0.048,0.126,0.083,0.223,0.111,0.286,0.022,0.031,0.045,0.055,0.073,0.076,0.067,0.035,0.121,0.096,0.154,0.166,0.082,0.175,0.116,0.332,0.118,0.485,0,0.257-0.118,0.488-0.331,0.652"/>
  </g>
  <g transform="matrix(4.1148412,0,0,-4.1148412,960.59556,845.66564)">
   <path fill-rule="nonzero" fill="#133d8d" d="M0,0-0.276,0.001c-0.105-0.002-0.207-0.027-0.293-0.07-0.133-0.014-0.275-0.069-0.434-0.157-0.127-0.082-0.178-0.099-0.175-0.099-0.027-0.005-0.062-0.014-0.093-0.029-0.465-0.213-0.833-0.358-1.077-0.428-0.123-0.012-0.308-0.037-0.561-0.078-0.319-0.046-0.481-0.057-0.565-0.059-0.382,0-0.645,0.115-0.837,0.371-0.186,0.236-0.272,0.548-0.266,0.957,0.43,1.811,1.295,3.373,2.573,4.648,0.029,0.027,0.053,0.058,0.07,0.093,0.06,0.116,0.188,0.237,0.373,0.354l0.563,0.362c0.036,0.023,0.062,0.044,0.089,0.077,0,0,0.032,0.024,0.136,0.029,0.435,0.017,0.492,0.026,0.553,0.048,0.05,0.017,0.093,0.043,0.131,0.074,0.146,0.131,0.235,0.292,0.253,0.471,0.003,0.015,0.003,0.029,0.005,0.044l-0.001,0.252c-0.001,0.112-0.05,0.215-0.133,0.287-0.287,0.251-0.716,0.325-1.269,0.243-0.039-0.003-0.075-0.014-0.112-0.03-0.77-0.371-1.555-1.108-2.4-2.243-0.364-0.35-0.71-0.814-1.024-1.393l-0.78-1.415c-0.012-0.02-0.025-0.045-0.031-0.073l-0.277-0.918c-0.135-0.437-0.198-0.799-0.198-1.098,0-0.189,0.029-0.367,0.082-0.533,0.116-0.524,0.401-0.962,0.853-1.302,0.407-0.299,0.89-0.483,1.438-0.547h0.045c0.014,0,0.026,0,0.04-0.002,0.448,0.053,0.785,0.08,1.018,0.1,0.404,0.05,0.761,0.17,1.064,0.361,0.204,0.032,0.426,0.121,0.678,0.276,0.014,0.011,0.025,0.017,0.038,0.027,0.151,0.122,0.312,0.244,0.476,0.355,0.074,0.029,0.137,0.074,0.195,0.132,0.018-0.003,0.038-0.007,0.057-0.009,0.108-0.016,0.215,0.01,0.3,0.078,0.083,0.067,0.137,0.162,0.147,0.269l0.013,0.152c0.007,0.109-0.025,0.216-0.101,0.298-0.07,0.08-0.175,0.122-0.287,0.124"/>
  </g>
  <g transform="matrix(4.1148412,0,0,-4.1148412,977.03557,819.73967)">
   <path fill-rule="nonzero" fill="#133d8d" d="M0,0c-0.063,0.053-0.148,0.081-0.234,0.08-0.341,0.001-0.605-0.092-0.771-0.278-0.028-0.031-0.052-0.062-0.067-0.101-0.026-0.06-0.092-0.183-0.248-0.437-0.148-0.242-0.25-0.434-0.309-0.598-0.486-1.434-0.846-2.858-1.061-4.245-0.092-0.75-0.15-1.259-0.167-1.56-0.005-0.046,0-0.096,0.014-0.144,0.157-0.468,0.216-0.597,0.263-0.675,0.187-0.302,0.473-0.464,0.81-0.466l0.049,0.002c0.186,0.007,0.336,0.149,0.367,0.329,0.038,0.264,0,0.472-0.112,0.619-0.034,0.121-0.054,0.245-0.05,0.37-0.002,0.181,0.037,0.33,0.112,0.454,0.033,0.059,0.054,0.124,0.052,0.194,0.011,0.603,0.112,1.277,0.306,2,0.235,0.851,0.415,1.501,0.548,1.952,0.104,0.125,0.183,0.288,0.242,0.496,0.055,0.197,0.086,0.251,0.084,0.254,0.023,0.027,0.037,0.056,0.051,0.088,0.045,0.127,0.082,0.223,0.109,0.286,0.022,0.033,0.043,0.056,0.074,0.077,0.063,0.037,0.122,0.096,0.153,0.166,0.082,0.174,0.119,0.331,0.118,0.483-0.002,0.261-0.114,0.486-0.333,0.654"/>
  </g>
  <g transform="matrix(4.1148412,0,0,-4.1148412,1012.8006,817.38512)">
   <path fill-rule="nonzero" fill="#133d8d" d="M0,0c0.119,0.037,0.546,0.08,0.769,0.15,0.237,0.096,0.432,0.289,0.445,0.506,0.035,0.815-0.652,0.852-1.091,0.699-0.141-0.048-2.289-0.685-2.502-0.74-0.589-0.146-0.674-0.211-1.042-0.301-0.004,0-0.006-0.002-0.012-0.002-0.019,0.03-0.037,0.059-0.066,0.084-0.008,0.019-0.024,0.063-0.045,0.139-0.104,0.36-0.31,0.522-0.467,0.592-0.058,0.029-0.123,0.041-0.185,0.031-0.626-0.033-0.848-0.442-0.85-0.813l0.002-0.167c-0.002-0.017-0.001-0.034,0.002-0.053,0.006-0.043,0.008-0.075,0.01-0.102-0.002-0.002-0.002-0.003-0.002-0.007-0.288-0.027-0.725-0.027-1.281-0.012-0.33,0.289-0.608,0.422-0.862,0.422-0.188,0.002-0.374-0.09-0.599-0.291-0.078-0.067-0.124-0.155-0.133-0.256-0.013-0.15,0.013-0.375,0.223-0.59,0.027-0.035,0.042-0.055,0.049-0.061,0.027-0.111,0.095-0.2,0.189-0.251,0.006-0.007,0.006-0.01,0.01-0.014,0.044-0.086,0.117-0.156,0.209-0.19,0.485-0.185,1.123-0.255,1.872-0.205-0.011-0.055-0.023-0.114-0.037-0.181-0.046-0.122-0.08-0.285-0.109-0.516-0.025-0.214-0.07-0.273-0.07-0.273-0.043-0.054-0.072-0.119-0.082-0.185-0.111-0.737-0.287-1.65-0.539-2.708l-0.635-2.696c-0.026-0.1-0.008-0.208,0.047-0.294,0.123-0.197,0.211-0.308,0.285-0.368,0.161-0.138,0.318-0.164,0.418-0.164,0.135-0.001,0.329,0.048,0.512,0.266,0.035,0.043,0.059,0.096,0.076,0.151,0.57,2.194,1.115,4.499,1.614,6.849,0.034,0.069,0.075,0.169,0.136,0.34,0.94,0.227,0.811,0.102,1.553,0.361,0.935,0.317,0.807,0.274,1.392,0.543,0.023,0.01,0.434,0.189,0.796,0.307"/>
  </g>
  <g transform="matrix(4.1148412,0,0,-4.1148412,1025.854,818.45376)">
   <path fill-rule="nonzero" fill="#133d8d" d="m0,0c-0.247-0.039-0.498-0.082-0.761-0.133-0.004,0-0.051-0.007-0.23-0.009-0.074,0.001-0.166,0.004-0.274,0.006l-0.068-0.001c-0.926,0-1.064-0.433-1.063-0.691,0-0.061,0.007-0.124,0.028-0.192,0.008-0.037,0.025-0.078,0.049-0.113,0.066-0.105,0.119-0.185,0.154-0.242,0.034-0.053,0.086-0.095,0.139-0.125-0.157-0.238-0.28-0.437-0.371-0.59-0.051-0.071-0.087-0.152-0.113-0.256-0.094-0.066-0.157-0.172-0.162-0.289-0.002-0.019-0.016-0.136-0.177-0.419-0.104-0.191-0.178-0.353-0.221-0.497-0.01-0.005-0.02-0.007-0.03-0.011-0.191-0.061-0.334-0.139-0.433-0.242-0.069-0.068-0.11-0.16-0.115-0.257-0.008-0.253,0.068-0.47,0.207-0.633-0.079-0.276-0.155-0.498-0.219-0.668-0.186-0.465-0.227-1.073-0.123-1.859,0.003-0.014,0.006-0.028,0.007-0.044,0.153-0.617,0.655-1.089,1.496-1.393,0.033-0.011,0.068-0.022,0.105-0.024,0.057-0.004,0.12-0.005,0.176-0.004,0.888,0,1.721,0.447,2.47,1.332,0.31,0.306,0.384,0.389,0.428,0.445,0.185,0.245,0.27,0.512,0.258,0.789-0.008,0.141-0.092,0.267-0.22,0.328-0.133,0.063-0.282,0.047-0.396-0.04-0.726-0.542-1.181-0.884-1.413-1.067-0.399-0.287-0.771-0.432-1.112-0.432-0.03,0-0.064,0.002-0.087,0.002-0.145,0.017-0.235,0.226-0.285,0.408-0.014,0.085-0.02,0.178-0.022,0.279,0.002,0.533,0.15,1.133,0.443,1.782,0.553,0.205,0.81,0.238,0.913,0.238,0.058,0.002,0.114,0.013,0.17,0.039,0.458,0.225,0.693,0.305,0.81,0.332,0.035,0.01,0.078,0.031,0.111,0.048,0.016,0.009,0.136,0.075,0.788,0.333,0.347,0.138,0.619,0.287,0.824,0.455,0.215,0.062,0.458,0.234,0.767,0.547,0.106,0.108,0.141,0.26,0.092,0.403-0.051,0.141-0.179,0.236-0.327,0.251l-0.571,0.06c-0.058,0.004-0.115-0.004-0.174-0.023-1.826-0.686-2.211-0.818-2.277-0.838-0.041-0.012-0.08-0.03-0.114-0.056-0.004,0-0.068-0.043-0.271-0.073-0.039-0.007-0.081-0.011-0.125-0.023,0,0.006,0.003,0.009,0.005,0.012,0.182,0.313,0.323,0.583,0.418,0.807,0.122,0.159,0.227,0.278,0.311,0.355,0.176,0.155,0.307,0.325,0.388,0.497,0.055,0.002,0.146-0.002,0.219,0.027,0.3,0.115,0.665,0.198,1.081,0.241,1.519,0.154,1.944,0.248,2.133,0.306,0.105,0.035,0.192,0.11,0.236,0.206,0.048,0.101,0.048,0.216,0.003,0.317l-0.082,0.192c-0.053,0.122-0.162,0.205-0.29,0.23-0.774,0.134-1.624,0.151-2.569,0.047l-0.534-0.07z"/>
  </g>
  <g transform="matrix(4.1148412,0,0,-4.1148412,1037.0032,809.14106)">
   <path fill-rule="nonzero" fill="#133d8d" d="m0,0c-0.047,0.052-0.082,0.09-0.104,0.111-0.081,0.08-0.192,0.118-0.304,0.11-0.65-0.051-1.217-0.295-1.694-0.727-0.157-0.147-0.228-0.225-0.273-0.279-0.082-0.059-0.139-0.143-0.159-0.238-0.05-0.217,0.017-0.429,0.184-0.58,0.057-0.053,0.091-0.084,0.178-0.124l0.003,0.002s0.007-0.005,0.018-0.008c0.002-0.001,0.005-0.003,0.008-0.005l0.002,0.002c0.329-0.111,0.531,0.068,0.531,0.068,0.012,0.011,0.03,0.023,0.042,0.035,0.054,0.046,0.078,0.076,0.087,0.098,0.102,0.109,0.237,0.217,0.407,0.324,0.038,0.024,0.179,0.104,0.644,0.307,0.023,0.009,0.042,0.019,0.064,0.033,0.009,0.004,0.021,0.007,0.033,0.01,0.146,0.023,0.266,0.096,0.356,0.211,0.006,0.007,0.012,0.015,0.019,0.023,0.133,0.201,0.118,0.447-0.042,0.627"/>
  </g>
 </g>
</svg>
