<?xml version="1.0" encoding="UTF-8" standalone="no"?>
<!-- Created with Inkscape (http://www.inkscape.org/) -->

<svg
   xmlns:dc="http://purl.org/dc/elements/1.1/"
   xmlns:cc="http://creativecommons.org/ns#"
   xmlns:rdf="http://www.w3.org/1999/02/22-rdf-syntax-ns#"
   xmlns:svg="http://www.w3.org/2000/svg"
   xmlns="http://www.w3.org/2000/svg"
   version="1.1"
   width="736.4375"
   height="761.33752"
   viewBox="0 0 589.15 609.07002"
   id="svg3013">
  <metadata
     id="metadata3039">
    <rdf:RDF>
      <cc:Work
         rdf:about="">
        <dc:format>image/svg+xml</dc:format>
        <dc:type
           rdf:resource="http://purl.org/dc/dcmitype/StillImage" />
        <dc:title></dc:title>
      </cc:Work>
    </rdf:RDF>
  </metadata>
  <defs
     id="defs3037" />
  <path
     d="M 328.0625,0 C 218.675,109.325 109.3125,218.68125 0,328.09375 c 17.3875,17.0125 33.85625,34.88125 51.28125,51.84375 92.2,92.2875 184.53125,184.44375 276.65625,276.78125 99.9375,-99.5375 199.4875,-199.475 299.3125,-299.125 9.1625,-10.3 19.2625,-19.71875 28.9375,-29.53125 C 546.8375,218.6875 437.525,109.25 328.0625,0 z m -50.71875,164.59375 c 36.6375,36.6625 73.35,73.25625 109.9375,109.96875 11.0125,-11.175 22.25,-22.08125 33.1875,-33.34375 17.625,17.4875 35.09375,35.1375 52.71875,52.625 -11.025,11.1875 -22.25625,22.14375 -33.21875,33.40625 16.75,16.1125 32.30625,33.39375 49.03125,49.53125 C 469.85,396.05625 450.51875,415.1875 431.40625,434.5 415.21875,418 398.7625,401.7375 382.4375,385.375 347.375,420.25 312.56875,455.35 277.46875,490.1875 c -26.2125,-26.3 -52.325,-52.68125 -78.6875,-78.84375 -1.0375,-0.9625 -1.50625,-2.16875 -1.40625,-3.59375 -0.0875,-52.5375 0.16875,-105.0875 -0.21875,-157.625 0.15,-2.2 -0.40625,-4.75 1.28125,-6.5 26.2625,-26.375 52.71875,-52.58125 78.90625,-79.03125 z"
     transform="scale(0.8,0.8)"
     id="path3017"
     style="fill:#672883" />
  <path
     d="m 226.98,229.03 c 12.45,12.05 24.58,24.42 36.82,36.68 -12.14,11.78 -23.49,24.31 -35.57,36.16 -0.39,-24.28 -0.7,-48.56 -1.25,-72.84 z"
     id="path3021"
     style="fill:#672883" />
  <path
     d="m 551.55,273.75 c 0,-0.37 -0.01,-1.09 -0.01,-1.45 12.11,30.12 25.26,59.8 37.61,89.81 -0.94,0.89 -1.87,1.79 -2.79,2.7 -29.43,-12.35 -58.78,-24.91 -88.21,-37.26 4.7,-4.83 9.59,-9.46 14.29,-14.29 8.09,3.3 16.04,6.95 24.13,10.27 7.21,3.01 14.06,6.82 21.26,9.85 -7.25,-14.89 -13.7,-30.15 -20.24,-45.36 4.94,-4.48 8.85,-9.96 13.96,-14.27 z"
     id="path3023"
     style="fill:#672883" />
  <path
     d="m 495.47,330.34 c 4.16,4.06 8.25,8.2 12.33,12.35 -5.1,5.06 -10.2,10.13 -15.16,15.33 16.32,16.35 32.78,32.57 48.95,49.06 -4.16,4.1 -8.34,8.18 -12.4,12.38 -16.24,-16.5 -32.76,-32.73 -49.03,-49.19 -4.99,5.18 -10.22,10.13 -15.21,15.33 -4.08,-4.15 -8.31,-8.14 -12.3,-12.37 14.3,-14.27 28.67,-28.47 42.82,-42.89 z"
     id="path3025"
     style="fill:#672883" />
  <path
     d="m 410.58,415.27 c 4.2,-4.12 8.43,-8.21 12.41,-12.54 21.09,20.73 41.82,41.83 62.83,62.63 -1.17,1.15 -2.35,2.29 -3.53,3.43 -21.75,-1.33 -43.51,-2.48 -65.27,-3.62 11.07,11.08 22.27,22.02 33.11,33.32 -4.15,4.09 -8.33,8.14 -12.31,12.39 -20.9,-20.9 -41.76,-41.83 -62.7,-62.67 1.01,-1.12 2.03,-2.22 3.04,-3.34 22.35,1.33 44.68,3.23 67.02,4.93 -11.49,-11.55 -22.95,-23.14 -34.6,-34.53 z"
     id="path3027"
     style="fill:#672883" />
  <path
     d="m 491.39,431.83 c 5.7,-2.21 12.48,2.46 13.02,8.43 0.8,5.84 -4.59,11.58 -10.45,11.16 -5.22,-0.2 -9.71,-5.04 -9.54,-10.25 0.04,-4.19 3.17,-7.86 6.97,-9.34 z"
     id="path3029"
     style="fill:#672883" />
  <path
     d="m 350.57,475.08 c 4.19,-4.09 8.35,-8.21 12.4,-12.44 13.2,13.32 26.53,26.51 39.75,39.82 5.28,5.28 9.34,12.17 9.71,19.78 1.39,18.21 -15.34,35.37 -33.57,34.54 -7.69,-0.19 -14.86,-3.97 -20.21,-9.34 -13.39,-13.42 -26.81,-26.8 -40.19,-40.22 4.15,-4.14 8.35,-8.22 12.4,-12.46 12.02,12.13 24.2,24.11 36.18,36.28 3.08,2.79 5.79,6.47 10.04,7.49 9.33,2.47 19.35,-7.09 17.4,-16.51 -0.51,-3.06 -2.43,-5.63 -4.61,-7.73 -13.14,-13.04 -26.13,-26.21 -39.3,-39.21 z"
     id="path3031"
     style="fill:#672883" />
  <path
     d="m 278.08,547.55 c 10.35,-10.17 20.57,-20.46 30.79,-30.75 4.07,4.2 8.23,8.32 12.44,12.39 -6.19,6.11 -12.28,12.33 -18.47,18.44 4.09,4.03 8.14,8.11 12.23,12.14 5.18,-5.21 10.35,-10.44 15.61,-15.58 4.12,4.13 8.31,8.19 12.31,12.45 -5.2,5.14 -10.33,10.35 -15.54,15.48 8.14,8.22 16.28,16.44 24.54,24.54 -4.31,4 -8.27,8.36 -12.53,12.41 -20.39,-20.58 -41.02,-40.91 -61.38,-61.52 z"
     id="path3033"
     style="fill:#672883" />
</svg>
