<?xml version="1.0" encoding="UTF-8" standalone="no"?>
<!-- Created with Inkscape (http://www.inkscape.org/) -->

<svg
   xmlns:dc="http://purl.org/dc/elements/1.1/"
   xmlns:cc="http://creativecommons.org/ns#"
   xmlns:rdf="http://www.w3.org/1999/02/22-rdf-syntax-ns#"
   xmlns:svg="http://www.w3.org/2000/svg"
   xmlns="http://www.w3.org/2000/svg"
   xmlns:inkscape="http://www.inkscape.org/namespaces/inkscape"
   version="1.1"
   width="200"
   height="232.66521"
   id="svg2">
  <defs
     id="defs4" />
  <metadata
     id="metadata7">
    <rdf:RDF>
      <cc:Work
         rdf:about="">
        <dc:format>image/svg+xml</dc:format>
        <dc:type
           rdf:resource="http://purl.org/dc/dcmitype/StillImage" />
        <dc:title />
      </cc:Work>
    </rdf:RDF>
  </metadata>
  <g
     transform="translate(-935.89286,-235.63448)"
     id="layer1">
    <g
       transform="matrix(0.98737431,0,0,0.98737431,11.822605,5.9126062)"
       id="g3026">
      <path
         d="m 982.38583,442.35003 6.12056,0.0893 -0.75893,24.03 -6.56699,0 z"
         inkscape:connector-curvature="0"
         id="path3020"
         style="fill:#000000;stroke:none" />
      <path
         d="m 1014.1607,467.36218 -7.1428,0 2.1428,-76.69643 -18.74999,2.23215 0,9.73214 -54.01785,-8.66072 73.03574,-11.16071 0.4464,-22.85714 -52.41071,10.26785 -15.71429,-3.21428 18.75,-4.10714 28.30357,-47.41072 1.33929,-31.33929 5.17857,3.30358 -3.03572,68.66071 17.94639,-3.75 2.5893,-109.10714 6.0224,3.94196 -0.4867,16.59375 18.5715,-30.625 56.4285,39.55357 -3.0357,4.82143 4.5536,3.57143 2.8571,74.55357 -7.0535,8.03572 -10.7146,-17.58929 -36.339,7.05357 0,24.73215 36.964,-5.98172 8.3039,-4.73257 32.9464,9.82143 -4.0536,5.71428 -28.2678,6.96429 -47.5893,78.03571 -6.5179,-0.35714 1.9643,-225.35714 -19.1964,32.58928 z"
         inkscape:connector-curvature="0"
         id="path3022"
         style="fill:#000000;stroke:none" />
      <path
         d="m 1065.6875,468.29968 30.875,-0.25 41.375,-77.125 0,-21.25 -57.9735,-23.5625 0.625,25.804 34.286,11.5085 z"
         inkscape:connector-curvature="0"
         id="path3024"
         style="fill:#3d91b5;fill-opacity:1;stroke:none" />
    </g>
  </g>
</svg>
