<?xml version="1.0" encoding="UTF-8" standalone="no"?>
<!-- Created with Inkscape (http://www.inkscape.org/) -->

<svg
   xmlns:dc="http://purl.org/dc/elements/1.1/"
   xmlns:cc="http://creativecommons.org/ns#"
   xmlns:rdf="http://www.w3.org/1999/02/22-rdf-syntax-ns#"
   xmlns:svg="http://www.w3.org/2000/svg"
   xmlns="http://www.w3.org/2000/svg"
   xmlns:xlink="http://www.w3.org/1999/xlink"
   xmlns:inkscape="http://www.inkscape.org/namespaces/inkscape"
   version="1.1"
   width="200"
   height="121"
   id="svg2">
  <defs
     id="defs4">
    <radialGradient
       cx="398.77048"
       cy="184.7032"
       r="34"
       fx="398.77048"
       fy="184.7032"
       id="radialGradient2970"
       xlink:href="#linearGradient2933"
       gradientUnits="userSpaceOnUse"
       gradientTransform="matrix(-1,-1.06286e-5,-3.26933e-7,-1,802,364.729)" />
    <radialGradient
       cx="398.77048"
       cy="184.7032"
       r="34"
       fx="398.77048"
       fy="184.7032"
       id="radialGradient2939"
       xlink:href="#linearGradient2933"
       gradientUnits="userSpaceOnUse"
       gradientTransform="matrix(-1,-1.06286e-5,-3.26933e-7,-1,802,364.729)" />
    <linearGradient
       id="linearGradient2933">
      <stop
         id="stop2935"
         style="stop-color:#cc1d3c;stop-opacity:1"
         offset="0" />
      <stop
         id="stop2957"
         style="stop-color:#cd1e3b;stop-opacity:1"
         offset="0.1" />
      <stop
         id="stop2955"
         style="stop-color:#c81e3b;stop-opacity:1"
         offset="0.2" />
      <stop
         id="stop2953"
         style="stop-color:#c61d3a;stop-opacity:1"
         offset="0.30000001" />
      <stop
         id="stop2951"
         style="stop-color:#c41d38;stop-opacity:1"
         offset="0.39746094" />
      <stop
         id="stop2949"
         style="stop-color:#c01d38;stop-opacity:1"
         offset="0.5" />
      <stop
         id="stop2947"
         style="stop-color:#b91b37;stop-opacity:1"
         offset="0.60000002" />
      <stop
         id="stop2945"
         style="stop-color:#b21736;stop-opacity:1"
         offset="0.69999999" />
      <stop
         id="stop2943"
         style="stop-color:#a51731;stop-opacity:1"
         offset="0.80000001" />
      <stop
         id="stop2941"
         style="stop-color:#931129;stop-opacity:1"
         offset="0.89999998" />
      <stop
         id="stop2937"
         style="stop-color:#7f0120;stop-opacity:1"
         offset="1" />
    </linearGradient>
  </defs>
  <metadata
     id="metadata7">
    <rdf:RDF>
      <cc:Work
         rdf:about="">
        <dc:format>image/svg+xml</dc:format>
        <dc:type
           rdf:resource="http://purl.org/dc/dcmitype/StillImage" />
        <dc:title />
      </cc:Work>
    </rdf:RDF>
  </metadata>
  <g
     transform="translate(-169.99999,-384.31151)"
     id="layer1">
    <g
       transform="matrix(0.48410757,0,0,0.48410757,88.701708,259.81138)"
       id="g3183">
      <path
         d="m 354.99999,296.8822 a 37.570671,37.570671 0 1 1 -75.14134,0 37.570671,37.570671 0 1 1 75.14134,0 z"
         inkscape:connector-curvature="0"
         transform="matrix(3.2738302,0,0,3.2738302,-746.20971,-589.6304)"
         id="path3076"
         style="fill:#dc22dd;fill-opacity:1;fill-rule:nonzero;stroke:none" />
      <path
         d="m 354.99999,296.8822 a 37.570671,37.570671 0 1 1 -75.14134,0 37.570671,37.570671 0 1 1 75.14134,0 z"
         inkscape:connector-curvature="0"
         transform="matrix(3.2738302,0,0,3.2738302,-583.2097,-589.6304)"
         id="path3078"
         style="fill:#dc22dd;fill-opacity:1;fill-rule:nonzero;stroke:none" />
      <g
         transform="translate(-1852.1811,-368.83104)"
         id="layer1-1">
        <g
           transform="matrix(0.32459,0,0,0.32459,1024.25,538.222)"
           id="g2959">
          <path
             d="m 3623.574,522.65676 0,-128.37933 -353.4394,0 -52.3027,301.13669 137.8889,0 c 0,0 13.6586,-33.28354 72.9069,-33.28354 42.1348,0 72.9067,25.01041 72.9067,69.73692 0,45.0302 -34.4052,71.32185 -77.6616,71.32185 -72.9988,0 -77.6615,-52.30269 -77.6615,-52.30269 l -145.8136,0 c 0,95.32781 62.4776,171.17244 220.3053,171.17244 151.6234,0 229.8148,-78.79621 229.8148,-183.85187 0,-98.89545 -52.8414,-177.51216 -171.1725,-177.51216 -76.7508,0 -109.3601,31.69861 -109.3601,31.69861 l 14.2643,-69.73692 239.3245,0 z"
             inkscape:connector-curvature="0"
             id="path2922"
             style="fill:#ffffff;stroke:none" />
          <path
             d="m 454,416.36218 -64,47 26,-73 -60,-45 76,-1 26.51571,-73.37101 22.48429,72.37101 76,0 -64,46 24,74 -63,-47 z"
             inkscape:connector-curvature="0"
             transform="matrix(3.0808096,0,0,3.0808096,2550.6981,-521.8613)"
             id="path3171"
             style="fill:#ffffff;stroke:none" />
        </g>
      </g>
    </g>
  </g>
</svg>
