<?xml version="1.0" encoding="UTF-8" standalone="no"?>
<!-- Created with Inkscape (http://www.inkscape.org/) -->

<svg
   xmlns:dc="http://purl.org/dc/elements/1.1/"
   xmlns:cc="http://creativecommons.org/ns#"
   xmlns:rdf="http://www.w3.org/1999/02/22-rdf-syntax-ns#"
   xmlns:svg="http://www.w3.org/2000/svg"
   xmlns="http://www.w3.org/2000/svg"
   xmlns:xlink="http://www.w3.org/1999/xlink"
   xmlns:inkscape="http://www.inkscape.org/namespaces/inkscape"
   version="1.1"
   width="272.37"
   height="76.34388"
   id="svg2">
  <defs
     id="defs4">
    <radialGradient
       cx="398.77048"
       cy="184.7032"
       r="34"
       fx="398.77048"
       fy="184.7032"
       id="radialGradient2970"
       xlink:href="#linearGradient2933"
       gradientUnits="userSpaceOnUse"
       gradientTransform="matrix(-1,-1.06286e-5,-3.26933e-7,-1,802,364.729)" />
    <radialGradient
       cx="398.77048"
       cy="184.7032"
       r="34"
       fx="398.77048"
       fy="184.7032"
       id="radialGradient2939"
       xlink:href="#linearGradient2933"
       gradientUnits="userSpaceOnUse"
       gradientTransform="matrix(-1,-1.06286e-5,-3.26933e-7,-1,802,364.729)" />
    <linearGradient
       id="linearGradient2933">
      <stop
         id="stop2935"
         style="stop-color:#cc1d3c;stop-opacity:1"
         offset="0" />
      <stop
         id="stop2957"
         style="stop-color:#cd1e3b;stop-opacity:1"
         offset="0.1" />
      <stop
         id="stop2955"
         style="stop-color:#c81e3b;stop-opacity:1"
         offset="0.2" />
      <stop
         id="stop2953"
         style="stop-color:#c61d3a;stop-opacity:1"
         offset="0.30000001" />
      <stop
         id="stop2951"
         style="stop-color:#c41d38;stop-opacity:1"
         offset="0.39746094" />
      <stop
         id="stop2949"
         style="stop-color:#c01d38;stop-opacity:1"
         offset="0.5" />
      <stop
         id="stop2947"
         style="stop-color:#b91b37;stop-opacity:1"
         offset="0.60000002" />
      <stop
         id="stop2945"
         style="stop-color:#b21736;stop-opacity:1"
         offset="0.69999999" />
      <stop
         id="stop2943"
         style="stop-color:#a51731;stop-opacity:1"
         offset="0.80000001" />
      <stop
         id="stop2941"
         style="stop-color:#931129;stop-opacity:1"
         offset="0.89999998" />
      <stop
         id="stop2937"
         style="stop-color:#7f0120;stop-opacity:1"
         offset="1" />
    </linearGradient>
  </defs>
  <metadata
     id="metadata7">
    <rdf:RDF>
      <cc:Work
         rdf:about="">
        <dc:format>image/svg+xml</dc:format>
        <dc:type
           rdf:resource="http://purl.org/dc/dcmitype/StillImage" />
        <dc:title />
      </cc:Work>
    </rdf:RDF>
  </metadata>
  <g
     transform="translate(-206.71451,-427.2144)"
     id="layer1">
    <rect
       width="1.0000029"
       height="0"
       x="157.63792"
       y="288.57663"
       id="rect3372"
       style="fill:#ff0000;fill-opacity:1;fill-rule:nonzero;stroke:#ff0000;stroke-width:2.80000806;stroke-linecap:round;stroke-linejoin:miter;stroke-miterlimit:4;stroke-opacity:1;stroke-dasharray:none;stroke-dashoffset:0" />
    <path
       d="m 282,358.89789 a 16.625,16.625 0 1 1 -33.25,0 16.625,16.625 0 1 1 33.25,0 z"
       inkscape:connector-curvature="0"
       transform="matrix(2.2960566,0,0,2.2960566,-364.42957,-358.66352)"
       id="path3067"
       style="fill:#02a16b;fill-opacity:1;stroke:none" />
    <path
       d="m 264.62398,452.15784 0,-12.96272 -35.68749,0 -5.28111,30.40638 13.92293,0 c 0,0 1.37914,-3.3607 7.36155,-3.3607 4.25443,0 7.36154,2.52535 7.36154,7.04148 0,4.54679 -3.47396,7.20151 -7.84165,7.20151 -7.37084,0 -7.84164,-5.28111 -7.84164,-5.28111 l -14.7231,0 c 0,9.62545 6.30849,17.28363 22.24468,17.28363 15.30971,0 23.20486,-7.95621 23.20486,-18.5639 0,-9.98567 -5.3355,-17.92376 -17.28363,-17.92376 -7.74968,0 -11.04231,3.20067 -11.04231,3.20067 l 1.4403,-7.04148 24.16507,0 z"
       inkscape:connector-curvature="0"
       id="path2922"
       style="fill:#ffffff;stroke:none" />
    <path
       d="m 286.96419,461.28265 0,-20.19848 11.81789,0 1.07435,0 0,32.85842 c 0,6.31018 10.74353,6.31018 10.74353,0 l 0,-32.85842 12.89223,0 0,30.75235 c 0,25.13786 -36.528,25.50197 -36.528,-0.0844 l 0,-10.46951 z"
       inkscape:connector-curvature="0"
       id="path3414"
       style="fill:#ffffff;stroke:#000000;stroke-width:3.77882648;stroke-linecap:butt;stroke-linejoin:miter;stroke-miterlimit:4;stroke-opacity:1;stroke-dasharray:none" />
    <g
       transform="matrix(0.14041764,0,0,0.14089317,163.01714,407.91544)"
       id="g3416"
       style="fill:#ffffff;stroke:#000000;stroke-width:26.86588478;stroke-opacity:1">
      <path
         d="M 210,92.883217 199,93 l 14.27342,-45.194638 11.47668,0 L 239.14069,93 l -11.82025,0 -1.8,-6.622842 -13.4689,-0.116783 L 210,92.883217 z"
         inkscape:connector-curvature="0"
         transform="matrix(7.68955,0,0,7.68955,-131.065,-133.772)"
         id="path3418"
         style="fill:#ffffff;stroke:#000000;stroke-width:3.49381757;stroke-linecap:butt;stroke-linejoin:miter;stroke-miterlimit:4;stroke-opacity:1;stroke-dasharray:none" />
      <path
         d="M 218.79693,61.822842 214.57035,77 l 8.53129,0 -4.30471,-15.177158 z"
         inkscape:connector-curvature="0"
         transform="matrix(7.68955,0,0,7.68955,-131.065,-133.772)"
         id="path3420"
         style="fill:#ffffff;stroke:#000000;stroke-width:3.49381757;stroke-linecap:butt;stroke-linejoin:miter;stroke-miterlimit:4;stroke-opacity:1;stroke-dasharray:none" />
    </g>
    <path
       d="m 326.83714,473.43677 c 0,24.95015 32.75814,20.27473 32.75814,1.88171 0,-15.85972 -19.6798,-13.3873 -19.6798,-21.86125 0,-4.27946 8.45714,-5.10683 8.16192,1.65472 l 11.13831,0 c 0.65608,-21.56418 -31.44269,-18.53567 -31.44269,-1.27515 0,17.49766 19.67176,13.41231 19.67176,21.92949 0,5.61292 -9.43015,6.13389 -9.13193,-2.32952 -4.20482,0 -7.2709,0 -11.47571,0 z"
       inkscape:connector-curvature="0"
       id="path3422"
       style="fill:#ffffff;stroke:#000000;stroke-width:3.77882648;stroke-linecap:butt;stroke-linejoin:miter;stroke-miterlimit:4;stroke-opacity:1;stroke-dasharray:none" />
    <g
       id="text3015"
       style="font-size:69.08634186px;font-style:normal;font-weight:normal;line-height:125%;letter-spacing:0px;word-spacing:0px;fill:#ffffff;fill-opacity:1;stroke:#000000;stroke-opacity:1;font-family:Sans">
      <path
         d="m 425.37399,483.06059 0,-12.85249 -12.95369,0 0,-8.87192 12.95369,0 0,-12.85249 8.63579,0 0,12.85249 12.98743,0 0,8.87192 -12.98743,0 0,12.85249 z"
         inkscape:connector-curvature="0"
         id="path3018"
         style="font-weight:bold;fill:#ffffff;fill-opacity:1;stroke:#000000;stroke-width:3.18608451;stroke-miterlimit:4;stroke-opacity:1;-inkscape-font-specification:Sans Bold" />
      <path
         d="m 477.08755,490.17838 -9.47914,0 0,-35.72385 c -3.46332,3.23845 -7.54508,5.63354 -12.24528,7.18525 l 0,-8.60206 c 2.47379,-0.80957 5.16123,-2.34444 8.06232,-4.60463 2.90107,-2.26011 4.89135,-4.89694 5.97084,-7.91052 l 7.69126,0 z"
         inkscape:connector-curvature="0"
         id="path3020"
         style="font-weight:bold;fill:#ffffff;fill-opacity:1;stroke:#000000;stroke-width:3.18608451;stroke-miterlimit:4;stroke-opacity:1;-inkscape-font-specification:Sans Bold" />
    </g>
  </g>
</svg>
