<?xml version="1.0" encoding="UTF-8" standalone="no"?>
<svg xmlns:rdf="http://www.w3.org/1999/02/22-rdf-syntax-ns#" xmlns="http://www.w3.org/2000/svg" xmlns:cc="http://creativecommons.org/ns#" xmlns:dc="http://purl.org/dc/elements/1.1/" height="169.49mm" width="169.33mm" version="1.1" viewBox="0 0 599.99998 600.55056">
  <defs>
    <linearGradient id="a" gradientUnits="userSpaceOnUse" gradientTransform="matrix(600 0 0 600 80.607 526.24)" x1="0" x2="1" y1="0" y2="0">
      <stop stop-color="#26489b" offset="0"/>
      <stop stop-color="#5292d5" offset="0.45"/>
      <stop stop-color="#5292d5" offset="0.55"/>
      <stop stop-color="#26489b" offset="1"/>
    </linearGradient>
  </defs>
  <g transform="translate(-80.607 -225.97)">
    <path d="m124.75 225.97c-24.39 0-44.143 19.75-44.143 44.11v512.33c0 24.35 19.753 44.11 44.143 44.11h511.75c24.35 0 44.11-19.76 44.11-44.11v-512.33c0-24.36-19.76-44.11-44.11-44.11h-511.75z" fill="url(#a)"/>
    <path d="m411.71 532.53c-8.39-5.9-17.78-8.94-27.95-9.43-13.37-0.58-25.65 2.66-36.53 10.63-3.72 1.97-6.67 4.95-9.52 7.93-28.98 30.44-31.48 79.57-5.73 112.86 4.18 5.38 8.74 10.46 14.67 14.09 9.1 6.93 19.5 10.3 30.83 10.72 12.4 0.45 23.93-2.4 34.23-9.59 6.22-3.66 11.47-8.51 15.64-14.31 22.45-30.93 24.52-63.61 7.29-97.48-5.31-10.43-12.89-19.11-22.93-25.42m-35.65 219.44c-26.27-0.65-49.29-8.32-56.29-11.01-13.25-5.09-24.97-11.85-25.2-12.02-8.32-5.18-19.65-14.83-23.9-18.33-7.83-8-14.89-16.61-21.08-25.94-6.22-10.49-11.62-21.37-15.19-33.09-1-3.37-1.94-6.74-2.94-10.11-1.98-8.26-5.41-29.57-4.41-48.9 0.46-8.58 2.88-31.09 10.82-53.44 9.94-27.98 26.07-56.28 30.25-62.98 26.71-43.14 70.11-105.29 82.29-123.39 20.24-29.99 39.99-58.2 44.07-64.38l4.41-0.68c3.62 2.72 59.75 43.46 61.56 44.49l0.49 3.37c-1.17 1.62-19.37 27.2-38.64 54.38-21.4 30.21-44.14 62.43-46.28 65.96l0.2 0.2c7.74-1.75 15.54-3.05 23.51-3.37 9.39-0.42 18.65 0.58 27.92 1.75 9.1 1.85 18 4.37 26.65 7.77 7.35 3.31 14.35 7.22 21.15 11.56 9.87 7.06 18.68 15.32 26.55 24.52 10.59 12.31 33.65 51.23 33.65 98.64 0 46.09-19.07 79.61-27.37 91.95-17.26 25.74-43.55 41.93-56.48 47.99-29.37 13.86-62.43 15.38-75.74 15.06" fill="#fff"/>
  </g>
</svg>
