<?xml version="1.0" encoding="UTF-8" standalone="no"?>
<svg xmlns:rdf="http://www.w3.org/1999/02/22-rdf-syntax-ns#" xmlns="http://www.w3.org/2000/svg" height="57.011mm" width="169.33mm" version="1.1" xmlns:cc="http://creativecommons.org/ns#" xmlns:dc="http://purl.org/dc/elements/1.1/" viewBox="0 0 599.99998 202.00624">
 <g transform="translate(321.21 -349.21)">
  <path d="m236.85 433.81h-8.44c-0.34 0-0.6-0.27-0.56-0.62l1.86-14.66c0.01-0.34-0.21-0.61-0.57-0.61h-12.92c-0.36 0-0.66 0.27-0.7 0.61l-1.81 14.66c-0.06 0.35-0.37 0.62-0.71 0.62h-8.4c-0.35 0-0.57-0.27-0.53-0.62l4.53-36.98c0.04-0.32 0.35-0.61 0.69-0.61h8.45c0.33 0 0.58 0.29 0.55 0.61l-1.59 12.73c-0.03 0.31 0.21 0.6 0.55 0.6h12.92c0.36 0 0.65-0.29 0.71-0.6l1.53-12.73c0.03-0.32 0.34-0.61 0.68-0.61h8.45c0.34 0 0.58 0.29 0.55 0.61l-4.56 36.98c-0.03 0.35-0.32 0.62-0.68 0.62" fill="#c4151c"/>
  <path d="m254.55 425.47h2.65c2.14 0 3.84-0.23 5.09-0.66 1.24-0.43 2.36-1.14 3.31-2.16 2.18-2.29 3.28-5.44 3.28-9.48 0-3.21-0.72-5.56-2.16-7.01-1.38-1.48-3.63-2.21-6.69-2.21h-2.9c-0.32 0-0.64 0.26-0.67 0.62l-2.45 20.26c-0.04 0.36 0.2 0.64 0.54 0.64m9.35-29.7c1.23 0.13 2.39 0.32 3.41 0.56 1.01 0.25 1.96 0.58 2.78 0.98 0.86 0.36 1.62 0.87 2.39 1.43 2 1.54 3.57 3.57 4.66 6.13 1.1 2.55 1.65 5.36 1.65 8.45 0 2.01-0.25 3.94-0.72 5.81-0.47 1.86-1.15 3.61-2.02 5.16-0.85 1.59-1.9 3-3.11 4.25-1.24 1.24-2.59 2.24-4.06 3.03-1.57 0.78-3.4 1.36-5.42 1.71-2.04 0.38-4.62 0.53-7.71 0.53h-11.94c-0.37 0-0.6-0.27-0.56-0.62l4.53-36.98c0.07-0.32 0.35-0.61 0.69-0.61h11.21c1.57 0 2.97 0.06 4.22 0.17" fill="#c4151c"/>
  <path d="m-321.21 507.12h511.14v-114.66h-511.14v114.66z" fill="#4c4449"/>
  <path d="m-207.74 377.66v145.4l283.51 28.16 0.001-202.01-283.51 28.45" fill="#c4151c"/>
  <path d="m-321.21 392.44v114.71h278.92l-0.003-57.43 57.279-57.28h-336.2" fill="#4c4449"/>
  <g fill="#fff">
   <path d="m144.11 435.56c-0.46 0-0.83-0.35-0.83-0.81v-20.4c0-0.43-0.35-0.8-0.81-0.8h-17.96c-0.46 0-0.82 0.37-0.82 0.8v20.4c0 0.46-0.38 0.81-0.82 0.81h-23.48c-0.462 0-0.813 0.37-0.813 0.83v18.14c0 0.44 0.351 0.81 0.813 0.81h23.48c0.44 0 0.82 0.37 0.82 0.81v23.94c0 0.45 0.36 0.8 0.82 0.8h17.96c0.46 0 0.81-0.35 0.81-0.8v-23.94c0-0.44 0.37-0.81 0.83-0.81h21.85c0.46 0 0.81-0.37 0.81-0.81v-18.14c0-0.46-0.35-0.83-0.81-0.83h-21.85"/>
   <path d="m-226.98 481.29h16.22v-67.55h-16.22v67.55z"/>
   <path d="m-170.4 452.11c-1.26-4.86-4.41-7.3-9.45-7.3-5.13 0-8.21 2.44-9.19 7.3h18.64zm-19.09 9.37c0.09 6.83 3.43 10.26 9.91 10.26 3.41 0 6.03-1.43 7.92-4.32h15.67c-0.99 3.43-2.42 6.12-4.13 8.1-4.43 5.05-11 7.57-19.55 7.57-7.92 0-14.32-2.15-19.1-6.58-4.78-4.4-7.12-10.35-7.12-17.65 0-7.47 2.26-13.42 6.85-17.83 4.59-4.42 10.9-6.58 18.73-6.58 7.84 0 13.88 2.26 18.3 6.75 4.41 4.52 6.66 10.73 6.66 18.56v1.72h-34.14"/>
   <path d="m-98.122 481.29-17.928-18.55v18.55h-16.21v-67.56h16.21v38.38l17.02-16.4h22.248l-22.966 21.08 24.321 24.5h-22.695"/>
   <path d="m-56.876 481.29h-16.212v-45.58h16.212v45.58zm-16.208 0zm8.096-50.08c-2.423 0-4.59-0.91-6.391-2.61-1.801-1.8-2.694-3.87-2.694-6.31 0-5.13 4.049-9.18 9.085-9.18 5.052 0 9.196 4.05 9.196 9.1 0 5.03-4.24 9-9.196 9"/>
   <path d="m-18.355 481.29v-26.12c0-3.16-1.164-5.33-3.602-6.67-1.164-0.63-2.518-0.98-3.873-0.98-5.674 0-8.558 3.14-8.558 9.35v24.42h-16.209v-45.58h16.209v5.77c3.968-4.51 8.909-6.76 14.774-6.76 5.498 0 9.9125 1.62 13.244 4.95 2.7885 2.79 4.2229 7.03 4.2229 12.61v29.01h-16.208"/>
   <path d="m37.441 451.02c-2.072-2.07-4.51-3.06-7.379-3.06-2.884 0-5.323 0.99-7.395 3.06s-3.06 4.51-3.06 7.3c0 5.85 4.59 10.54 10.455 10.54 2.869 0 5.307-0.99 7.379-3.06 2.072-2.08 3.06-4.51 3.06-7.4 0-2.96-0.988-5.4-3.06-7.38zm11.89 25.68c-5.228 4.22-11.619 6.29-19.269 6.29-8.016 0-14.598-2.24-19.826-6.75-5.2113-4.59-7.825-10.35-7.825-17.3 0-7.65 2.6934-13.86 8.192-18.45 5.132-4.32 11.522-6.49 19.188-6.49 8.192 0 14.95 2.25 20.081 6.84 5.228 4.6 7.826 10.45 7.826 17.66 0 7.66-2.789 13.69-8.367 18.2"/>
   <path d="m-265.05 434.62-7.4 21.53h14.6l-7.2-21.53zm16.4 46.67-4.42-11.72h-24.24l-4.59 11.72h-18.55l25.95-67.56h19.09l25.49 67.56h-18.73"/>
  </g>
 </g>
</svg>
