<?xml version="1.0" encoding="UTF-8" standalone="no"?>
<svg xmlns:rdf="http://www.w3.org/1999/02/22-rdf-syntax-ns#" xmlns="http://www.w3.org/2000/svg" height="66.921mm" width="169.33mm" version="1.1" xmlns:cc="http://creativecommons.org/ns#" xmlns:dc="http://purl.org/dc/elements/1.1/" viewBox="0 0 599.99998 237.12275">
 <g transform="translate(365.64 -331.66)">
  <path d="m-365.64 517.01h600v-134.6h-600v134.6z" fill="#4c4449"/>
  <path d="m-232.44 365.05v170.67l332.79 33.06v-237.12l-332.79 33.39" fill="#c4151c"/>
  <path d="m-365.64 382.39v134.66h327.4l0.005-67.42 67.237-67.24h-394.64" fill="#4c4449"/>
  <g fill="#fff">
   <path d="m180.57 433.02c-0.54 0-0.97-0.42-0.97-0.96v-23.94c0-0.51-0.41-0.94-0.95-0.94h-21.09c-0.54 0-0.95 0.43-0.95 0.94v23.94c0 0.54-0.45 0.96-0.97 0.96h-27.56c-0.54 0-0.96 0.43-0.96 0.97v21.29c0 0.52 0.42 0.95 0.96 0.95h27.56c0.52 0 0.97 0.43 0.97 0.96v28.1c0 0.52 0.41 0.93 0.95 0.93h21.09c0.54 0 0.95-0.41 0.95-0.93v-28.1c0-0.53 0.43-0.96 0.97-0.96h25.65c0.54 0 0.96-0.43 0.96-0.95v-21.29c0-0.54-0.42-0.97-0.96-0.97h-25.65"/>
   <path d="m-255.02 486.69h19.03v-79.3h-19.03v79.3z"/>
   <path d="m-188.61 452.43c-1.48-5.7-5.18-8.56-11.09-8.56-6.03 0-9.64 2.86-10.8 8.56h21.89zm-22.41 11c0.11 8.03 4.02 12.05 11.64 12.05 4 0 7.07-1.68 9.29-5.07h18.39c-1.16 4.02-2.84 7.19-4.84 9.51-5.2 5.93-12.91 8.88-22.96 8.88-9.29 0-16.8-2.52-22.41-7.72-5.61-5.17-8.36-12.15-8.36-20.71 0-8.78 2.66-15.76 8.04-20.94 5.39-5.18 12.8-7.72 21.98-7.72 9.21 0 16.3 2.65 21.48 7.93 5.18 5.29 7.82 12.59 7.82 21.77v2.02h-40.07"/>
   <path d="m-103.77 486.69-21.04-21.78v21.78h-19.03v-79.3h19.03v45.04l19.98-19.25h26.112l-26.962 24.75 28.552 28.76h-26.642"/>
   <path d="m-55.352 486.69h-19.03v-53.5h19.03v53.5zm-19.026 0zm9.503-58.78c-2.843 0-5.387-1.07-7.501-3.07-2.114-2.11-3.162-4.55-3.162-7.41 0-6.02 4.752-10.77 10.663-10.77 5.931 0 10.795 4.75 10.795 10.68 0 5.91-4.976 10.57-10.795 10.57"/>
   <path d="m-10.135 486.69v-30.66c0-3.71-1.366-6.25-4.228-7.82-1.366-0.75-2.956-1.16-4.546-1.16-6.66 0-10.046 3.68-10.046 10.98v28.66h-19.026v-53.51h19.026v6.78c4.658-5.3 10.457-7.94 17.342-7.94 6.454 0 11.636 1.91 15.546 5.82 3.274 3.28 4.9577 8.25 4.9577 14.8v34.05h-19.026"/>
   <path d="m55.361 451.16c-2.432-2.43-5.294-3.59-8.662-3.59-3.386 0-6.248 1.16-8.68 3.59s-3.592 5.3-3.592 8.57c0 6.87 5.388 12.37 12.272 12.37 3.368 0 6.23-1.16 8.662-3.6 2.432-2.43 3.592-5.29 3.592-8.68 0-3.48-1.16-6.34-3.592-8.66zm13.956 30.14c-6.136 4.96-13.638 7.39-22.618 7.39-9.41 0-17.136-2.64-23.272-7.93-6.118-5.39-9.186-12.14-9.186-20.3 0-8.98 3.162-16.28 9.616-21.66 6.024-5.07 13.526-7.62 22.524-7.62 9.616 0 17.548 2.64 23.572 8.03 6.136 5.4 9.186 12.27 9.186 20.73 0 8.99-3.274 16.07-9.822 21.36"/>
   <path d="m-299.71 431.91-8.69 25.28h17.14l-8.45-25.28zm19.25 54.78-5.19-13.75h-28.45l-5.39 13.75h-21.78l30.46-79.3h22.41l29.92 79.3h-21.98"/>
  </g>
 </g>
</svg>
