<?xml version="1.0" encoding="UTF-8" standalone="no"?>
<!-- Created with Inkscape (http://www.inkscape.org/) -->

<svg
   xmlns:dc="http://purl.org/dc/elements/1.1/"
   xmlns:cc="http://creativecommons.org/ns#"
   xmlns:rdf="http://www.w3.org/1999/02/22-rdf-syntax-ns#"
   xmlns:svg="http://www.w3.org/2000/svg"
   xmlns="http://www.w3.org/2000/svg"
   xmlns:inkscape="http://www.inkscape.org/namespaces/inkscape"
   version="1.1"
   width="532pt"
   height="197pt"
   viewBox="0 0 532 197"
   id="svg2">
  <metadata
     id="metadata47">
    <rdf:RDF>
      <cc:Work
         rdf:about="">
        <dc:format>image/svg+xml</dc:format>
        <dc:type
           rdf:resource="http://purl.org/dc/dcmitype/StillImage" />
      </cc:Work>
    </rdf:RDF>
  </metadata>
  <defs
     id="defs45" />
  <g
     id="#fffffeff">
    <path
       d="m 52.8,74.85 c 6.24,-6.27 16.07,-6.84 24.33,-5.48 6.61,1.02 13.63,5.51 14.27,12.72 0.39,21.05 -0.46,42.13 0.51,63.17 -4.8,-0.05 -9.61,-0.1 -14.42,0.05 -0.37,-1.18 -0.74,-2.36 -1.11,-3.54 -4.64,3.4 -10.55,5.85 -16.35,4.26 -5.98,-1.19 -10.1,-7.03 -10.53,-12.92 -0.47,-6.7 -0.08,-13.43 -0.2,-20.14 -0.16,-4.31 1.5,-9.14 5.66,-11.06 6.66,-3.11 14.25,-2.38 21.34,-3.66 -0.17,-4.39 0.33,-8.82 -0.28,-13.18 -1.44,-4.84 -9.34,-4.83 -11.1,-0.23 -0.83,3.48 -0.39,7.1 -0.5,10.64 -5.04,0.01 -10.07,-0.02 -15.1,0 0.4,-6.87 -1.75,-15.06 3.48,-20.63 m 12.05,41 c -0.69,4.69 -0.59,9.55 -0.06,14.26 1.1,5.4 10.35,5.58 11.37,0.05 0.28,-6.39 0.04,-12.79 0.08,-19.18 -3.92,0.82 -9.8,0.29 -11.39,4.87 z"
       inkscape:connector-curvature="0"
       id="path5"
       style="fill:#fffffe" />
    <path
       d="m 143.98,72.91 c 4.92,-3.4 11.13,-4.3 16.99,-4.12 5.55,0.41 11.64,1.48 15.72,5.61 2.84,2.72 4.03,6.72 4,10.57 0.01,9.3 0,18.61 0,27.91 -8.99,0.09 -17.98,-0.02 -26.97,0.06 0.12,5.73 -0.23,11.47 0.13,17.19 1.01,5.48 10.38,5.51 11.31,-0.05 0.34,-3.97 0.05,-7.96 0.12,-11.93 5.14,-0.14 10.28,-0.09 15.42,-0.06 -0.15,5.63 0.35,11.29 -0.3,16.9 -0.66,5.84 -6.18,9.68 -11.54,10.85 -7.33,1.59 -15.3,1.6 -22.32,-1.25 -4.68,-1.83 -8.16,-6.39 -8.17,-11.49 -0.21,-16.04 -0.02,-32.09 -0.09,-48.14 -0.16,-4.63 1.84,-9.36 5.7,-12.05 m 9.89,11.93 c -0.37,5.13 -0.04,10.28 -0.17,15.42 3.87,0.01 7.73,0.02 11.6,0.04 -0.16,-5.08 0.3,-10.2 -0.23,-15.26 -1.69,-4.58 -9.44,-4.89 -11.2,-0.2 z"
       inkscape:connector-curvature="0"
       id="path7"
       style="fill:#fffffe" />
    <path
       d="m 303.13,74.38 c 5.26,-4.92 13.34,-6.96 19.95,-3.5 1.36,1.2 2.68,2.46 3.94,3.76 2.4,2.89 3.32,6.63 3.21,10.33 -0.05,20.08 0.02,40.17 -0.04,60.25 -5.03,-0.01 -10.05,-0.01 -15.07,0.02 -0.15,-19.45 0.11,-38.9 -0.12,-58.35 0.29,-4.58 -5.4,-6.75 -8.97,-4.73 -2.64,1.14 -2.8,4.39 -2.81,6.86 0.04,18.73 0.04,37.47 0.01,56.21 -5.05,-0.01 -10.09,-0.01 -15.14,-0.01 -0.08,-24.99 -0.05,-49.98 -0.02,-74.97 5.11,0 10.23,-0.01 15.34,0.17 -0.07,0.99 -0.21,2.97 -0.28,3.96 z"
       inkscape:connector-curvature="0"
       id="path9"
       style="fill:#fffffe" />
    <path
       d="m 456.73,69.37 c 7.32,-0.23 14.64,-0.14 21.96,-0.05 0.14,8.16 -0.01,16.31 0.09,24.47 9.31,0.51 18.65,-0.01 27.97,0.29 0.01,7.39 -0.03,14.78 0.01,22.17 -9.3,0.6 -18.64,0.11 -27.95,0.26 -0.16,9.48 0.02,18.96 -0.1,28.44 -7.31,0.13 -14.61,-0.03 -21.91,0.09 -0.23,-9.5 0.22,-19.02 -0.25,-28.52 -9.33,-0.1 -18.66,0.17 -27.98,-0.15 -0.14,-7.44 -0.05,-14.88 -0.06,-22.32 9.28,-0.12 18.56,0 27.84,-0.08 0.88,-8.15 0.18,-16.41 0.38,-24.6 z"
       inkscape:connector-curvature="0"
       id="path11"
       style="fill:#fffffe" />
    <path
       d="m 102.1,70.29 c 5.03,-0.03 10.07,-0.04 15.1,0.01 0.1,20.82 -0.06,41.65 0.08,62.47 5.04,0.01 10.08,-0.01 15.13,0.02 0.09,4.15 0.1,8.3 -0.05,12.44 -10.08,0.01 -20.16,-0.05 -30.24,0.03 -0.14,-24.99 -0.09,-49.98 -0.02,-74.97 z"
       inkscape:connector-curvature="0"
       id="path13"
       style="fill:#fffffe" />
    <path
       d="m 208.27,70.27 c 5.08,0.03 10.16,-0.01 15.25,0.04 -0.04,10.08 -0.07,20.16 0.02,30.23 3.42,-0.28 7.53,0.87 10.33,-1.69 1.61,-1.47 1.42,-3.83 1.47,-5.81 -0.06,-7.56 -0.02,-15.13 -0.04,-22.69 5.06,-0.12 10.11,-0.1 15.17,-0.03 -0.03,8.19 0.06,16.39 -0.03,24.58 -0.23,5.88 -5.25,10.09 -10.52,11.72 5.33,1.31 10.14,5.69 10.51,11.39 0.17,9.08 -0.26,18.17 0.49,27.24 -4.9,-0.06 -9.79,-0.04 -14.68,0 -1.65,-9.4 -0.45,-18.99 -1.15,-28.44 -1.57,-4.87 -7.66,-3.97 -11.65,-3.71 0.09,10.71 0.07,21.41 0.01,32.11 -5.06,0.01 -10.12,0.04 -15.18,-0.05 0.01,-24.96 0,-49.92 0,-74.89 z"
       inkscape:connector-curvature="0"
       id="path15"
       style="fill:#fffffe" />
    <path
       d="m 262.3,70.31 c 5.13,-0.05 10.25,-0.07 15.38,0 0.08,24.96 0.03,49.92 0.02,74.88 -5.1,0.07 -10.2,-0.02 -15.3,0.07 -0.26,-24.98 -0.07,-49.97 -0.1,-74.95 z"
       inkscape:connector-curvature="0"
       id="path17"
       style="fill:#fffffe" />
    <path
       d="m 347.06,71.76 c 7.11,-0.9 14.2,-2.07 21.36,-2.38 6.63,1.4 13.57,6.2 13.71,13.6 0.23,15.34 -0.03,30.69 0.12,46.03 -0.02,3.72 0.11,7.84 -2.22,10.98 -3.42,4.69 -9.49,6.32 -15,6.74 -6.26,0.38 -12.92,0.13 -18.53,-2.96 -3.91,-2.06 -6.53,-6.31 -6.43,-10.75 -0.04,-16.36 -0.02,-32.72 -0.01,-49.07 -0.26,-5.06 2.9,-9.53 7,-12.19 m 12.4,9.8 c -2.53,0.43 -4.33,2.78 -4.21,5.32 -0.04,13.73 -0.03,27.46 0,41.19 -0.64,4.15 4.12,7.26 7.82,5.91 2.71,-0.52 4.13,-3.37 4,-5.93 -0.02,-13.73 0.11,-27.47 -0.08,-41.19 0.12,-3.87 -4.09,-6.15 -7.53,-5.3 z"
       inkscape:connector-curvature="0"
       id="path19"
       style="fill:#fffffe" />
  </g>
  <g
     id="#ce533bff">
    <path
       d="m 315.38,0 1.49,0 c 1.93,16.04 4.08,32.06 5.88,48.11 -0.23,-1.03 -0.46,-2.06 -0.7,-3.09 -94.35,-0.06 -188.69,0 -283.04,-0.02 -4.54,-0.2 -9.1,-0.35 -13.63,0.16 l -0.44,0.02 C 24.57,42.08 24.19,38.97 23.79,35.87 120.98,23.86 218.19,12.01 315.38,0 z"
       inkscape:connector-curvature="0"
       id="path22"
       style="fill:#ce533b" />
    <path
       d="m 41.77,175.74 0.09,0.02 c 6.37,0.5 12.76,0.15 19.14,0.24 39.8,0.11 79.63,-0.34 119.41,0.45 9.35,-0.62 18.74,-0.66 28.09,-0.21 -2.96,0.53 -5.92,1.1 -8.88,1.66 -22.64,3.05 -45.34,5.64 -68,8.49 -28.16,3.62 -56.41,6.58 -84.51,10.61 l -3.65,0 c -0.43,-5.93 -1.53,-11.78 -1.94,-17.71 0.06,-0.89 0.18,-2.66 0.25,-3.55 z"
       inkscape:connector-curvature="0"
       id="path24"
       style="fill:#ce533b" />
  </g>
  <g
     id="#d87c62ff">
    <path
       d="m 316.87,0 0.57,0 c 19.1,15.27 38.53,30.14 57.72,45.31 8.24,6.73 17.01,12.84 25.04,19.84 -10.6,1.32 -21.3,2.06 -31.78,4.23 -7.16,0.31 -14.25,1.48 -21.36,2.38 -6.7,0.82 -13.58,0.74 -20.04,2.88 -1.26,-1.3 -2.58,-2.56 -3.94,-3.76 0.63,0.25 1.89,0.76 2.52,1.01 C 325,63.92 323.59,56.05 322.75,48.11 320.95,32.06 318.8,16.04 316.87,0 z"
       inkscape:connector-curvature="0"
       id="path27"
       style="fill:#d87c62" />
  </g>
  <g
     id="#c41e1dff">
    <path
       d="m 25.38,45.16 c 4.53,-0.51 9.09,-0.36 13.63,-0.16 94.35,0.02 188.69,-0.04 283.04,0.02 0.24,1.03 0.47,2.06 0.7,3.09 0.84,7.94 2.25,15.81 2.85,23.78 -0.63,-0.25 -1.89,-0.76 -2.52,-1.01 -6.61,-3.46 -14.69,-1.42 -19.95,3.5 0.07,-0.99 0.21,-2.97 0.28,-3.96 -5.11,-0.18 -10.23,-0.17 -15.34,-0.17 -0.03,24.99 -0.06,49.98 0.02,74.97 5.05,0 10.09,0 15.14,0.01 0.03,-18.74 0.03,-37.48 -0.01,-56.21 0.01,-2.47 0.17,-5.72 2.81,-6.86 3.57,-2.02 9.26,0.15 8.97,4.73 0.23,19.45 -0.03,38.9 0.12,58.35 5.02,-0.03 10.04,-0.03 15.07,-0.02 0.06,-20.08 -0.01,-40.17 0.04,-60.25 0.11,-3.7 -0.81,-7.44 -3.21,-10.33 6.46,-2.14 13.34,-2.06 20.04,-2.88 -4.1,2.66 -7.26,7.13 -7,12.19 -0.01,16.35 -0.03,32.71 0.01,49.07 -0.1,4.44 2.52,8.69 6.43,10.75 5.61,3.09 12.27,3.34 18.53,2.96 5.51,-0.42 11.58,-2.05 15,-6.74 2.33,-3.14 2.2,-7.26 2.22,-10.98 -0.15,-15.34 0.11,-30.69 -0.12,-46.03 -0.14,-7.4 -7.08,-12.2 -13.71,-13.6 10.48,-2.17 21.18,-2.91 31.78,-4.23 2.44,21.64 5.33,43.22 7.92,64.85 0.65,7.39 2.24,14.67 2.5,22.09 -51.51,6.28 -103.03,12.57 -154.54,18.9 -11.35,1.53 -22.72,2.92 -34.17,3.56 3.21,0 6.41,0.19 9.6,0.64 -10.71,-0.23 -21.3,1.45 -31.89,2.71 2.96,-0.56 5.92,-1.13 8.88,-1.66 -9.35,-0.45 -18.74,-0.41 -28.09,0.21 C 140.63,175.66 100.8,176.11 61,176 c -6.38,-0.09 -12.77,0.26 -19.14,-0.24 l -0.09,-0.02 C 40.98,173.4 40.31,171.01 40.06,168.56 37.04,141.33 33.25,114.21 30.14,87 28.65,73.04 26.2,59.18 25.38,45.16 M 52.8,74.85 c -5.23,5.57 -3.08,13.76 -3.48,20.63 5.03,-0.02 10.06,0.01 15.1,0 0.11,-3.54 -0.33,-7.16 0.5,-10.64 1.76,-4.6 9.66,-4.61 11.1,0.23 0.61,4.36 0.11,8.79 0.28,13.18 -7.09,1.28 -14.68,0.55 -21.34,3.66 -4.16,1.92 -5.82,6.75 -5.66,11.06 0.12,6.71 -0.27,13.44 0.2,20.14 0.43,5.89 4.55,11.73 10.53,12.92 5.8,1.59 11.71,-0.86 16.35,-4.26 0.37,1.18 0.74,2.36 1.11,3.54 4.81,-0.15 9.62,-0.1 14.42,-0.05 C 90.94,124.22 91.79,103.14 91.4,82.09 90.76,74.88 83.74,70.39 77.13,69.37 68.87,68.01 59.04,68.58 52.8,74.85 m 91.18,-1.94 c -3.86,2.69 -5.86,7.42 -5.7,12.05 0.07,16.05 -0.12,32.1 0.09,48.14 0.01,5.1 3.49,9.66 8.17,11.49 7.02,2.85 14.99,2.84 22.32,1.25 5.36,-1.17 10.88,-5.01 11.54,-10.85 0.65,-5.61 0.15,-11.27 0.3,-16.9 -5.14,-0.03 -10.28,-0.08 -15.42,0.06 -0.07,3.97 0.22,7.96 -0.12,11.93 -0.93,5.56 -10.3,5.53 -11.31,0.05 -0.36,-5.72 -0.01,-11.46 -0.13,-17.19 8.99,-0.08 17.98,0.03 26.97,-0.06 0,-9.3 0.01,-18.61 0,-27.91 0.03,-3.85 -1.16,-7.85 -4,-10.57 -4.08,-4.13 -10.17,-5.2 -15.72,-5.61 -5.86,-0.18 -12.07,0.72 -16.99,4.12 M 102.1,70.29 c -0.07,24.99 -0.12,49.98 0.02,74.97 10.08,-0.08 20.16,-0.02 30.24,-0.03 0.15,-4.14 0.14,-8.29 0.05,-12.44 -5.05,-0.03 -10.09,-0.01 -15.13,-0.02 -0.14,-20.82 0.02,-41.65 -0.08,-62.47 -5.03,-0.05 -10.07,-0.04 -15.1,-0.01 m 106.17,-0.02 c 0,24.97 0.01,49.93 0,74.89 5.06,0.09 10.12,0.06 15.18,0.05 0.06,-10.7 0.08,-21.4 -0.01,-32.11 3.99,-0.26 10.08,-1.16 11.65,3.71 0.7,9.45 -0.5,19.04 1.15,28.44 4.89,-0.04 9.78,-0.06 14.68,0 -0.75,-9.07 -0.32,-18.16 -0.49,-27.24 -0.37,-5.7 -5.18,-10.08 -10.51,-11.39 5.27,-1.63 10.29,-5.84 10.52,-11.72 0.09,-8.19 0,-16.39 0.03,-24.58 -5.06,-0.07 -10.11,-0.09 -15.17,0.03 0.02,7.56 -0.02,15.13 0.04,22.69 -0.05,1.98 0.14,4.34 -1.47,5.81 -2.8,2.56 -6.91,1.41 -10.33,1.69 -0.09,-10.07 -0.06,-20.15 -0.02,-30.23 -5.09,-0.05 -10.17,-0.01 -15.25,-0.04 m 54.03,0.04 c 0.03,24.98 -0.16,49.97 0.1,74.95 5.1,-0.09 10.2,0 15.3,-0.07 0.01,-24.96 0.06,-49.92 -0.02,-74.88 -5.13,-0.07 -10.25,-0.05 -15.38,0 z"
       inkscape:connector-curvature="0"
       id="path30"
       style="fill:#c41e1d" />
    <path
       d="m 153.87,84.84 c 1.76,-4.69 9.51,-4.38 11.2,0.2 0.53,5.06 0.07,10.18 0.23,15.26 -3.87,-0.02 -7.73,-0.03 -11.6,-0.04 0.13,-5.14 -0.2,-10.29 0.17,-15.42 z"
       inkscape:connector-curvature="0"
       id="path32"
       style="fill:#c41e1d" />
    <path
       d="m 359.46,81.56 c 3.44,-0.85 7.65,1.43 7.53,5.3 0.19,13.72 0.06,27.46 0.08,41.19 0.13,2.56 -1.29,5.41 -4,5.93 -3.7,1.35 -8.46,-1.76 -7.82,-5.91 -0.03,-13.73 -0.04,-27.46 0,-41.19 -0.12,-2.54 1.68,-4.89 4.21,-5.32 z"
       inkscape:connector-curvature="0"
       id="path34"
       style="fill:#c41e1d" />
    <path
       d="m 64.85,115.85 c 1.59,-4.58 7.47,-4.05 11.39,-4.87 -0.04,6.39 0.2,12.79 -0.08,19.18 -1.02,5.53 -10.27,5.35 -11.37,-0.05 -0.53,-4.71 -0.63,-9.57 0.06,-14.26 z"
       inkscape:connector-curvature="0"
       id="path36"
       style="fill:#c41e1d" />
  </g>
  <g
     id="#000000ff">
    <path
       d="m 0,45.25 c 8.31,-0.06 16.63,0.11 24.94,-0.07 l 0.44,-0.02 c 0.82,14.02 3.27,27.88 4.76,41.84 3.11,27.21 6.9,54.33 9.92,81.56 0.25,2.45 0.92,4.84 1.71,7.18 -0.07,0.89 -0.19,2.66 -0.25,3.55 -0.18,-1.52 -0.43,-3.02 -0.66,-4.53 -2.28,0.4 -4.59,0.54 -6.9,0.52 C 22.64,175.22 11.32,175.27 0,175.25 l 0,-130 z"
       inkscape:connector-curvature="0"
       id="path39"
       style="fill:#000000" />
    <path
       d="M 375.16,45.31 C 427.44,45.17 479.72,45.29 532,45.25 l 0,130 c -100.16,-0.04 -200.33,0.08 -300.49,-0.06 -3.19,-0.45 -6.39,-0.64 -9.6,-0.64 11.45,-0.64 22.82,-2.03 34.17,-3.56 51.51,-6.33 103.03,-12.62 154.54,-18.9 -0.26,-7.42 -1.85,-14.7 -2.5,-22.09 -2.59,-21.63 -5.48,-43.21 -7.92,-64.85 -8.03,-7 -16.8,-13.11 -25.04,-19.84 m 81.57,24.06 c -0.2,8.19 0.5,16.45 -0.38,24.6 -9.28,0.08 -18.56,-0.04 -27.84,0.08 0.01,7.44 -0.08,14.88 0.06,22.32 9.32,0.32 18.65,0.05 27.98,0.15 0.47,9.5 0.02,19.02 0.25,28.52 7.3,-0.12 14.6,0.04 21.91,-0.09 0.12,-9.48 -0.06,-18.96 0.1,-28.44 9.31,-0.15 18.65,0.34 27.95,-0.26 -0.04,-7.39 0,-14.78 -0.01,-22.17 -9.32,-0.3 -18.66,0.22 -27.97,-0.29 -0.1,-8.16 0.05,-16.31 -0.09,-24.47 -7.32,-0.09 -14.64,-0.18 -21.96,0.05 z"
       inkscape:connector-curvature="0"
       id="path41"
       style="fill:#000000" />
  </g>
</svg>
