<?xml version="1.0" encoding="UTF-8" standalone="no"?>
<!-- Created with Inkscape (http://www.inkscape.org/) -->

<svg
   xmlns:dc="http://purl.org/dc/elements/1.1/"
   xmlns:cc="http://creativecommons.org/ns#"
   xmlns:rdf="http://www.w3.org/1999/02/22-rdf-syntax-ns#"
   xmlns:svg="http://www.w3.org/2000/svg"
   xmlns="http://www.w3.org/2000/svg"
   version="1.1"
   width="999"
   height="1233.3854"
   id="svg2985"
   xml:space="preserve"><metadata
     id="metadata2991"><rdf:RDF><cc:Work
         rdf:about=""><dc:format>image/svg+xml</dc:format><dc:type
           rdf:resource="http://purl.org/dc/dcmitype/StillImage" /><dc:title></dc:title></cc:Work></rdf:RDF></metadata><defs
     id="defs2989"><clipPath
       id="clipPath3003"><path
         d="M 0,0 468,0 468,468 0,468 0,0 z"
         id="path3005" /></clipPath><clipPath
       id="clipPath3035"><path
         d="M 0,0 468,0 468,468 0,468 0,0 z"
         id="path3037" /></clipPath><clipPath
       id="clipPath3063"><path
         d="M 0,0 468,0 468,468 0,468 0,0 z"
         id="path3065" /></clipPath><clipPath
       id="clipPath3095"><path
         d="M 0,0 468,0 468,468 0,468 0,0 z"
         id="path3097" /></clipPath><clipPath
       id="clipPath3267"><path
         d="m 0,0 266.9,0 0,196.99 L 0,196.99 0,0 z"
         id="path3269" /></clipPath><clipPath
       id="clipPath3255"><path
         d="m 268.34,323.64 199.788,0 0,144.36 -199.788,0 0,-144.36 z"
         id="path3257" /></clipPath><clipPath
       id="clipPath3243"><path
         d="M 268.211,0 468,0 l 0,145.119 -199.789,0 0,-145.119 z"
         id="path3245" /></clipPath><clipPath
       id="clipPath3231"><path
         d="m 61.92,196.99 206.42,0 0,126.65 -206.42,0 0,-126.65 z"
         id="path3233" /></clipPath><clipPath
       id="clipPath3161"><path
         d="m 468,-0.967 468.728,0 0,470.375 -468.728,0 0,-470.375 z"
         id="path3163" /></clipPath><clipPath
       id="clipPath3157"><path
         d="m 467,479.8 479,0 0,-490.16 -479,0 0,490.16 z"
         id="path3159" /></clipPath><clipPath
       id="clipPath3149"><path
         d="M 0,0 936,0 936,468 0,468 0,0 z"
         id="path3151" /></clipPath><clipPath
       id="clipPath3135"><path
         d="m 0,323.64 268.34,0 0,144.36 L 0,468 0,323.64 z"
         id="path3137" /></clipPath><clipPath
       id="clipPath3121"><path
         d="m 268.34,145.119 199.788,0 0,133.762 -199.788,0 0,-133.762 z"
         id="path3123" /></clipPath></defs><g
     transform="matrix(1.25,0,0,-1.25,239.31606,1460.5517)"
     id="g2993"><g
       id="g4497"><g
         transform="matrix(3.5766343,0,0,3.5766343,153.56503,469.55999)"
         id="g2995"
         style="fill:#fb9d04;fill-opacity:1"><path
           d="M 0,0 7.16,-5.955 14.134,2.483 6.975,8.424 0,0 z"
           id="path2997"
           style="fill:#fb9d04;fill-opacity:1;fill-rule:nonzero;stroke:none" /></g><g
         transform="matrix(3.5766343,0,0,3.5766343,-632.36101,-193.8277)"
         id="g2999"
         style="fill:#fb9d04;fill-opacity:1"><g
           clip-path="url(#clipPath3003)"
           id="g3001"
           style="fill:#fb9d04;fill-opacity:1"><g
             transform="translate(262.7665,185.8564)"
             id="g3007"
             style="fill:#fb9d04;fill-opacity:1"><path
               d="M 0,0 C -0.425,0.854 -0.993,1.367 -1.32,1.251 -1.524,1.186 -1.353,0.42 -1.358,-0.042 -1.376,-0.872 -1.676,-1.509 -2.386,-1.833 -3.005,-2.105 -4.556,-2.654 -5.748,-0.554 -6.717,1.14 -7.557,3.375 -7.922,4.266 -8.259,5.078 -8.762,6.043 -9.27,5.812 -9.616,5.66 -9.727,5.124 -9.505,4.367 c 0.222,-0.748 1.468,-3.924 1.468,-3.924 0.882,-2.391 2.382,-5.188 4.376,-6.596 2.156,-1.524 3.268,-0.979 3.702,-0.808 0.31,0.139 1.699,1.006 1.205,3.18 C 0.72,-1.459 0.42,-0.835 0,0"
               id="path3009"
               style="fill:#fb9d04;fill-opacity:1;fill-rule:nonzero;stroke:none" /></g><g
             transform="translate(211.9327,308.6702)"
             id="g3011"
             style="fill:#fb9d04;fill-opacity:1"><path
               d="M 0,0 C 3.615,0.111 6.449,3.13 6.339,6.717 6.232,10.335 3.218,13.184 -0.383,13.073 -3.988,12.967 -6.832,9.957 -6.725,6.333 -6.615,2.742 -3.61,-0.102 0,0"
               id="path3013"
               style="fill:#fb9d04;fill-opacity:1;fill-rule:nonzero;stroke:none" /></g><g
             transform="translate(253.1927,282.4549)"
             id="g3015"
             style="fill:#fb9d04;fill-opacity:1"><path
               d="M 0,0 -0.762,3.679 C -0.946,2.991 -1.718,1.759 -2.59,0.794 -3.213,0.129 -6.204,-3.153 -9.094,-6.301 c -2.571,-2.802 -5.018,-5.475 -5.558,-6.062 -1.242,-1.361 -1.874,-2.714 -1.722,-3.415 l 0.753,-3.679 c 0.198,0.697 0.978,1.929 1.841,2.889 0.624,0.665 3.619,3.952 6.5,7.091 2.562,2.802 5.017,5.484 5.562,6.07 C -0.48,-2.059 0.161,-0.706 0,0"
               id="path3017"
               style="fill:#fb9d04;fill-opacity:1;fill-rule:nonzero;stroke:none" /></g></g></g><g
         transform="matrix(3.5766343,0,0,3.5766343,224.3291,658.9181)"
         id="g3019"
         style="fill:#fb9d04;fill-opacity:1"><path
           d="M 0,0 8.415,-3.965 13.082,5.909 4.657,9.874 0,0 z"
           id="path3021"
           style="fill:#fb9d04;fill-opacity:1;fill-rule:nonzero;stroke:none" /></g><g
         transform="matrix(3.5766343,0,0,3.5766343,339.70274,631.4449)"
         id="g3023"
         style="fill:#fb9d04;fill-opacity:1"><path
           d="m 0,0 -4.662,-9.856 8.42,-3.988 4.653,9.883 L 0,0 z"
           id="path3025"
           style="fill:#fb9d04;fill-opacity:1;fill-rule:nonzero;stroke:none" /></g><g
         transform="matrix(3.5766343,0,0,3.5766343,184.2243,552.17774)"
         id="g3027"
         style="fill:#fb9d04;fill-opacity:1"><path
           d="m 0,0 -6.97,-8.406 7.159,-5.932 6.98,8.392 L 0,0 z"
           id="path3029"
           style="fill:#fb9d04;fill-opacity:1;fill-rule:nonzero;stroke:none" /></g><g
         transform="matrix(3.5766343,0,0,3.5766343,-632.36101,-193.8277)"
         id="g3031"
         style="fill:#fb9d04;fill-opacity:1"><g
           clip-path="url(#clipPath3035)"
           id="g3033"
           style="fill:#fb9d04;fill-opacity:1"><g
             transform="translate(199.6628,276.5135)"
             id="g3039"
             style="fill:#fb9d04;fill-opacity:1"><path
               d="M 0,0 C 0,0 1.856,1.51 1.238,2.253 0.914,2.659 -0.817,1.27 -0.817,1.27 c 0,0 -5.239,-3.721 -7.353,-8.651 -1.288,-2.996 -1.214,-6.269 -0.48,-7.847 0.738,-1.579 2.497,-3.093 4.768,-1.279 1.607,1.279 2.304,3.055 2.654,4.565 0.213,0.9 0.287,1.482 0.282,1.907 -0.005,0.567 -0.18,1.033 -0.715,0.895 -1.51,-0.475 -0.605,-2.53 -1.704,-3.522 -0.826,-0.503 -2.95,-0.226 -3.365,1.865 -0.429,2.114 1.186,4.842 2.668,6.629 C -2.589,-2.373 0,0 0,0"
               id="path3041"
               style="fill:#fb9d04;fill-opacity:1;fill-rule:nonzero;stroke:none" /></g><g
             transform="translate(220.9853,225.8465)"
             id="g3043"
             style="fill:#fb9d04;fill-opacity:1"><path
               d="m 0,0 c 0.369,2.433 0.753,2.881 1.51,3.508 2.022,1.718 6.947,6.338 9.306,8.393 1.472,1.292 2.719,2.543 3.545,4.2 1.062,1.985 0.494,4.64 0.494,4.64 l -1.427,9.864 C 13.068,29.207 11.356,27.226 8.95,24.807 6.421,22.255 -0.295,16.512 -0.9,15.893 -1.51,15.27 -3.684,13.682 -4.64,6.144 c -2.427,-20.523 -6.481,-30.194 -13.728,-33.476 -1.93,-0.887 -4.067,-1.307 -6.472,-1.376 -13.317,0.129 -16.816,16.346 -16.743,25.204 0.01,0.513 0.024,1.044 0.047,1.556 3.092,-4.173 7.663,-8.291 13.28,-7.441 9.002,1.366 6.2,16.507 4.898,20.015 -1.283,3.532 -4.768,14.071 -12.297,13.544 -5.35,-0.36 -7.839,-6.615 -8.96,-11.891 -1.03,4.187 -1.579,9.076 -1.247,12.907 0.785,9.154 3.924,20.607 17.292,31.87 9.505,8.005 20.279,13.738 26.294,18.469 3.813,2.987 6.177,6.352 7.515,9.5 C 4.852,81.965 4.104,78.641 2.631,74.796 -2.904,60.259 -19.688,36.274 -19.928,2.345 c 0,-10.428 0.983,-19.443 2.636,-27.175 0.923,0.651 1.772,1.449 2.58,2.409 -1.154,5.526 -1.828,11.637 -1.828,18.142 0,33.855 16.665,57.822 22.102,72.331 2.872,7.626 2.936,13.211 2.936,18.7 0,6.753 -1.519,13.793 -2.917,16.535 -1.575,2.728 -3.559,3.891 -6.546,3.808 -3.619,-0.101 -6.449,-3.12 -6.347,-6.739 0.11,-3.601 3.121,-6.444 6.73,-6.338 1.962,0.055 3.689,0.978 4.847,2.372 l 0.139,0.148 C 5.179,91.345 2.668,87.186 -3.125,82.353 -9.071,77.367 -22.984,70.831 -32.872,63.025 -46.78,52.052 -50.072,40.082 -50.917,30.384 c -0.369,-4.307 0.273,-9.994 1.45,-14.698 1.482,-5.904 3.623,-10.433 3.623,-10.433 0,0 0.111,-0.189 0.273,-0.512 -0.342,-6.421 0.291,-17.615 3.915,-26.045 4.856,-10.912 13.613,-19.854 26.136,-17.223 C -2.853,-35.559 -1.445,-15.007 0,0 m -34.377,12.094 c 5.3,2.493 7.386,-3.863 7.386,-3.863 -0.582,-6.828 -8.549,-8.49 -13.521,-4.127 1.029,3.259 2.904,6.167 6.135,7.99"
               id="path3045"
               style="fill:#fb9d04;fill-opacity:1;fill-rule:nonzero;stroke:none" /></g><g
             transform="translate(226.9213,230.8874)"
             id="g3047"
             style="fill:#fb9d04;fill-opacity:1"><path
               d="m 0,0 -3.393,-3.065 c 3.569,-8.323 8.961,-15.543 15.165,-20.833 0.646,4.353 1.347,7.423 1.989,9.606 C 7.464,-9.773 2.913,-4.893 0,0"
               id="path3049"
               style="fill:#fb9d04;fill-opacity:1;fill-rule:nonzero;stroke:none" /></g><g
             transform="translate(275.7147,282.7366)"
             id="g3051"
             style="fill:#fb9d04;fill-opacity:1"><path
               d="m 0,0 c 1.233,-4.002 7.621,-26.354 2.465,-35.752 -1.569,-3.791 -4.533,-8.471 -9.998,-14.112 -8.845,-9.085 -14.782,-14.421 -17.496,-19.96 -2.169,-4.912 -3.374,-18.511 -3.642,-20.93 -0.517,-4.986 -1.103,-10.147 -1.92,-14.791 -1.588,-9.223 -6.551,-12.38 -12.847,-12.38 -8.3,0 -17.796,6.822 -24.106,21.668 1.149,0.494 2.188,1.141 3.153,1.87 4.653,-9.394 11.056,-14.597 17.315,-13.239 l -0.005,0.027 c 0.352,0.061 0.711,0.162 1.067,0.286 6.55,2.438 8.161,10.885 8.743,16.176 0.263,2.349 1.052,7.602 1.768,11.997 0.928,7.455 2.026,11.688 2.904,14.181 0.627,1.998 1.855,4.584 2.622,5.729 2.972,5.202 8.581,10.806 17.13,18.963 1.33,1.278 2.516,2.479 3.587,3.623 4.524,5.148 10.608,12.806 9.445,20.879 -5.041,-6.55 -16.18,-10.986 -20.21,-18.87 -1.053,2.968 -2.539,7.505 -2.816,8.687 -0.152,0.697 -1.422,4.362 2.234,8.521 4.298,4.903 6.505,9.925 6.255,16.9 -0.258,2.876 -1.352,5.697 -3.148,8.679 -5.322,8.849 -14.458,17.472 -19.863,23.243 1.486,-7.936 0.544,-22.431 -7.183,-36.709 -5.295,-9.744 -9.611,-20.615 -8.928,-31.422 -1.389,-1.274 -2.534,-2.336 -3.061,-2.852 -0.461,3.009 -0.715,6.093 -0.738,9.269 0,13.77 5.978,25.107 10.58,35.936 5.664,13.272 7.779,21.877 5.872,29.059 -0.757,2.844 -1.597,4.058 -3.273,8.776 -2.197,6.199 -1.246,12.699 3.928,19.738 -3.849,6.694 -5.253,12.649 -5.271,17.635 -0.028,8.124 2.769,13.433 6.112,15.782 2.368,1.662 3.226,1.579 3.577,1.505 0.333,-0.055 0.522,-0.623 0.046,-0.868 -0.802,-0.415 -1.67,-1.048 -2.396,-1.648 -3.231,-2.691 -4.86,-8.784 -2.321,-16.674 1.288,-4.034 3.804,-8.719 8.12,-14.129 C -18.7,47.74 3.425,21.354 15.414,-5.314 c 7.473,-15.178 8.803,-29.585 8.803,-29.585 3.194,-34.644 -14.126,-51.161 -36.256,-50.916 -0.309,0.004 -0.628,0.019 -0.932,0.032 l -0.019,0.005 c -4.302,0.18 -8.706,1.219 -12.787,2.936 0.665,4.985 1.357,8.623 2.082,10.889 0.176,-0.046 0.347,-0.088 0.526,-0.133 l 0.01,-0.005 c 26.926,-7.326 44.91,18.746 40.179,44.389 -1.283,5.867 -3.619,12.021 -6.638,18.262 -11.975,24.765 -34.811,50.745 -46.938,67.137 -0.715,0.97 -1.357,1.902 -1.975,2.835 -3.296,-4.04 -6.311,-10.396 2.58,-20.238 6.869,-7.612 22.089,-20.791 25.911,-35.623 l 0.014,0.01 C -9.975,4.477 -9.92,4.265 -9.878,4.043 l 0,-0.027 c 0.858,-3.716 1.426,-8.162 -0.688,-13.973 3.771,2.76 7.847,6.148 10.114,9.846 0.013,0.028 0.032,0.055 0.046,0.097 0.106,0.148 0.143,0.198 0.259,0.198 C -0.065,0.184 -0.046,0.134 0,0"
               id="path3053"
               style="fill:#fb9d04;fill-opacity:1;fill-rule:nonzero;stroke:none" /></g></g></g></g><g
       id="g4525"
       style="fill:#0e3e86;fill-opacity:1"><g
         transform="matrix(3.5766343,0,0,3.5766343,-20.966851,241.08924)"
         id="g3055"
         style="fill:#0e3e86;fill-opacity:1"><path
           d="m 0,0 -8.785,0 0,21.668 -7.196,0 0,-27.905 L 0,-6.237 0,0 z"
           id="path3057"
           style="fill:#0e3e86;fill-opacity:1;fill-rule:nonzero;stroke:none" /></g><g
         transform="matrix(3.5766343,0,0,3.5766343,-632.36101,-193.8277)"
         id="g3059"
         style="fill:#0e3e86;fill-opacity:1"><g
           clip-path="url(#clipPath3063)"
           id="g3061"
           style="fill:#0e3e86;fill-opacity:1"><g
             transform="translate(184.4805,115.132)"
             id="g3067"
             style="fill:#0e3e86;fill-opacity:1"><path
               d="m 0,0 0,28.136 -7.169,0 0,-26.128 c 0,-4.256 -1.541,-5.802 -4.971,-4.847 -0.204,0.042 -0.374,0.125 -0.578,0.199 l -1.684,-6.048 c 0.378,-0.193 0.752,-0.337 1.167,-0.503 C -5.244,-12.173 0,-7.75 0,0"
               id="path3069"
               style="fill:#0e3e86;fill-opacity:1;fill-rule:nonzero;stroke:none" /></g></g></g><g
         transform="matrix(3.5766343,0,0,3.5766343,316.14238,239.98299)"
         id="g3071"
         style="fill:#0e3e86;fill-opacity:1"><path
           d="m 0,0 -11.808,0 0,4.842 9.339,0 0,5.964 -9.339,0 0,5.06 10.848,0 0,6.112 -17.98,0 0,-27.906 18.94,0 L 0,0 z"
           id="path3073"
           style="fill:#0e3e86;fill-opacity:1;fill-rule:nonzero;stroke:none" /></g><g
         transform="matrix(3.5766343,0,0,3.5766343,404.42337,239.98299)"
         id="g3075"
         style="fill:#0e3e86;fill-opacity:1"><path
           d="m 0,0 -11.804,0 0,4.842 9.339,0 0,5.964 -9.339,0 0,5.06 10.849,0 0,6.112 -17.981,0 0,-27.906 L 0,-5.928 0,0 z"
           id="path3077"
           style="fill:#0e3e86;fill-opacity:1;fill-rule:nonzero;stroke:none" /></g><g
         transform="matrix(3.5766343,0,0,3.5766343,-157.48197,318.58883)"
         id="g3079"
         style="fill:#0e3e86;fill-opacity:1"><path
           d="m 0,0 -9.498,-27.905 7.169,0 1.615,5.124 9.178,0 1.551,-5.124 7.612,0 L 7.921,0 0,0 z m 1.306,-16.429 2.643,8.849 2.636,-8.849 -5.279,0 z"
           id="path3081"
           style="fill:#0e3e86;fill-opacity:1;fill-rule:nonzero;stroke:none" /></g><g
         transform="matrix(3.5766343,0,0,3.5766343,112.40334,218.78213)"
         id="g3083"
         style="fill:#0e3e86;fill-opacity:1"><path
           d="m 0,0 7.617,0 -9.708,27.905 -7.921,0 L -19.508,0 l 7.165,0 1.615,5.124 9.182,0 L 0,0 z m -8.706,11.476 2.636,8.85 2.641,-8.85 -5.277,0 z"
           id="path3085"
           style="fill:#0e3e86;fill-opacity:1;fill-rule:nonzero;stroke:none" /></g><g
         transform="matrix(3.5766343,0,0,3.5766343,573.04308,318.58883)"
         id="g3087"
         style="fill:#0e3e86;fill-opacity:1"><path
           d="m 0,0 -7.917,0 -9.518,-27.905 7.183,0 1.615,5.124 9.177,0 1.551,-5.124 7.612,0 L 0,0 z m -6.615,-16.429 2.641,8.849 2.64,-8.849 -5.281,0 z"
           id="path3089"
           style="fill:#0e3e86;fill-opacity:1;fill-rule:nonzero;stroke:none" /></g><g
         transform="matrix(3.5766343,0,0,3.5766343,-632.36101,-193.8277)"
         id="g3091"
         style="fill:#0e3e86;fill-opacity:1"><g
           clip-path="url(#clipPath3095)"
           id="g3093"
           style="fill:#0e3e86;fill-opacity:1"><g
             transform="translate(313.701,125.4769)"
             id="g3099"
             style="fill:#0e3e86;fill-opacity:1"><path
               d="m 0,0 c -1.057,2.484 -1.436,2.991 -2.432,3.457 0.175,0.038 0.341,0.116 0.484,0.195 3.121,1.435 4.63,5.031 3.43,9.024 -0.965,3.291 -3.499,5.115 -8.305,5.115 l -11.314,0 0,-27.905 7.169,0 0,10.423 1.644,0 c 1.163,0 1.851,-0.494 2.469,-1.971 l 0.379,-0.891 0.203,-0.508 2.709,-7.053 7.428,0 -3.485,9.149 C 0.245,-0.614 0.138,-0.305 0,0 M -6.001,7.289 C -6.407,6.786 -6.993,6.56 -8.364,6.44 l -0.619,0 -2.124,0 0,5.239 2.124,0 c 0.176,0 0.342,-0.046 0.517,-0.046 1.09,-0.037 1.542,-0.157 2.017,-0.466 1.206,-0.698 1.483,-2.599 0.448,-3.878"
               id="path3101"
               style="fill:#0e3e86;fill-opacity:1;fill-rule:nonzero;stroke:none" /></g></g></g><g
         transform="matrix(3.5766343,0,0,3.5766343,226.68897,240.84067)"
         id="g3103"
         style="fill:#0e3e86;fill-opacity:1"><path
           d="m 0,0 -10.387,0 10.18,14.62 0,7.118 -19.241,0 0,-6.112 9.883,0 -10.197,-14.647 0,-7.146 L 0,-6.167 0,0 z"
           id="path3105"
           style="fill:#0e3e86;fill-opacity:1;fill-rule:nonzero;stroke:none" /></g></g></g></svg>