<?xml version="1.0" encoding="UTF-8" standalone="no"?>
<!-- Created with Inkscape (http://www.inkscape.org/) -->
<svg xmlns:rdf="http://www.w3.org/1999/02/22-rdf-syntax-ns#" xmlns="http://www.w3.org/2000/svg" height="913.18" width="600" version="1.1" xmlns:cc="http://creativecommons.org/ns#" xmlns:dc="http://purl.org/dc/elements/1.1/">
 <defs></defs>
 <metadata>
  <rdf:RDF>
   <cc:Work rdf:about="">
    <dc:format>image/svg+xml</dc:format>
    <dc:type rdf:resource="http://purl.org/dc/dcmitype/StillImage"/>
    <dc:title/>
   </cc:Work>
  </rdf:RDF>
 </metadata>
 <g fill-rule="nonzero" transform="matrix(0.99991837,0,0,0.99991837,-18.058632,628.35168)">
  <path d="m414.36,42.48c-1.4695-2.9391-3.4289-4.7148-4.5311-4.2862-0.73477,0.24492-0.12247,2.8166-0.1837,4.4698-0.0612,2.8166-1.0409,5.0209-3.4902,6.1231-2.1431,0.97969-7.4702,2.8166-11.573-4.4086-3.3677-5.8169-6.2455-13.471-7.4702-16.532-1.1634-2.8166-2.8778-6.1231-4.6535-5.3271-1.1634,0.48985-1.592,2.3268-0.796,4.9597,0.73476,2.5717,5.0209,13.471,5.0209,13.471,3.0615,8.2661,8.2049,17.879,15.063,22.717,7.4089,5.2046,11.266,3.3677,12.736,2.7554,1.1022-0.48985,5.8782-3.4289,4.1637-10.899-1.8369-8.0212-2.8166-10.164-4.2862-13.042" fill="#cd890a"/>
  <path d="m239.48-379.99c12.43-0.36738,22.166-10.777,21.798-23.084-0.36738-12.491-10.715-22.288-23.084-21.859-12.43,0.30615-22.227,10.715-21.859,23.145,0.36739,12.369,10.715,22.166,23.145,21.798" fill="#cd890a"/>
  <path d="m381.43-289.83-2.6329-12.614c-0.61231,2.3268-3.2452,6.6129-6.3068,9.9194-2.1431,2.2655-12.43,13.593-22.349,24.37-8.8172,9.6745-17.267,18.859-19.104,20.88-4.2862,4.6535-6.4905,9.3071-5.9394,11.756l2.5717,12.614c0.67354-2.388,3.3677-6.6129,6.368-9.9194,2.1431-2.2655,12.43-13.593,22.349-24.37,8.8172-9.6744,17.267-18.859,19.165-20.941,4.2249-4.5923,6.4292-9.2458,5.8782-11.695" fill="#cd890a"/>
  <path d="m334.4-138.32,28.962,13.654,16.042-33.983-28.962-13.654-16.042,33.983z" fill="#cd890a"/>
  <path d="m445.38-111.92-16.042,33.922,28.962,13.716,15.981-33.983-28.901-13.654z" fill="#cd890a"/>
  <path d="M295.83-35.663,271.83-6.7619,296.51,13.628,320.51-15.212,295.83-35.663z" fill="#cd890a"/>
  <path d="m197.28-269.37s6.368-5.2046,4.2249-7.7763c-1.1022-1.3471-7.0415,3.4289-7.0415,3.4289s-18.002,12.736-25.288,29.758c-4.4086,10.287-4.1637,21.553-1.6532,26.942,2.5105,5.4495,8.5723,10.654,16.41,4.4086,5.5108-4.4086,7.8988-10.47,9.1234-15.675,0.73477-3.1228,0.97969-5.0822,0.97969-6.5517-0.0612-1.9594-0.61231-3.5514-2.4492-3.0615-5.2046,1.592-2.1431,8.6948-5.8782,12.062-2.8166,1.7757-10.164,0.796-11.573-6.368-1.5308-7.2865,4.0412-16.655,9.1846-22.839,5.0209-6.1843,13.961-14.328,13.961-14.328" fill="#cd890a"/>
  <path d="m152.36-136.68c18.247-8.5723,25.411,13.287,25.411,13.287-2.0206,23.513-29.391,29.207-46.535,14.206,3.5514-11.205,9.9806-21.247,21.125-27.493m118.3,41.576c1.2246-8.3274,2.5717-9.8582,5.1434-12.062,6.9803-5.8782,23.941-21.798,32.024-28.84,5.0822-4.4698,9.3683-8.756,12.185-14.45,3.6738-6.8578,1.7145-15.981,1.7145-15.981l-4.8985-33.922c-1.2246,4.8372-7.164,11.634-15.43,19.961-8.6948,8.756-31.779,28.534-33.861,30.677-2.0818,2.1431-9.6132,7.5926-12.858,33.493-8.3886,70.599-22.288,103.91-47.27,115.18-6.6129,3.0615-13.961,4.4698-22.227,4.7148-45.801-0.42862-57.863-56.21-57.618-86.703,0.0612-1.7757,0.0612-3.5514,0.18369-5.3271,10.593,14.328,26.329,28.534,45.678,25.594,30.983-4.7148,21.308-56.761,16.838-68.823-4.4086-12.185-16.41-48.434-42.31-46.597-18.369,1.2246-26.942,22.778-30.799,40.902-3.5514-14.45-5.4495-31.228-4.3474-44.454,2.7554-31.473,13.532-70.844,59.516-109.6,32.697-27.554,69.803-47.27,90.499-63.558,13.103-10.287,21.247-21.859,25.839-32.697-1.3471,10.532-3.9188,21.982-9.0009,35.208-19.043,50.026-76.783,132.56-77.579,249.27,0,35.881,3.3677,66.864,9.0622,93.438,3.184-2.2043,6.0618-4.9597,8.8785-8.2661-3.98-18.982-6.3068-40.045-6.3068-62.394,0-116.46,57.312-198.94,76.049-248.84,9.8581-26.207,10.103-45.433,10.103-64.354,0-23.206-5.2046-47.393-10.042-56.822-5.3883-9.4295-12.246-13.41-22.533-13.103-12.43,0.30615-22.166,10.715-21.798,23.145,0.36739,12.43,10.715,22.166,23.145,21.798,6.7354-0.18369,12.675-3.3065,16.655-8.1437l0.48985-0.48984c2.6329,17.879-6.0006,32.146-25.901,48.801-20.451,17.145-68.334,39.616-102.32,66.497-47.882,37.718-59.21,78.926-62.088,112.24-1.2858,14.879,0.91846,34.412,4.9597,50.577,5.1434,20.329,12.491,35.881,12.491,35.881s0.36739,0.67354,0.91847,1.7757c-1.1634,22.104,1.0409,60.618,13.471,89.581,16.716,37.596,46.842,68.334,89.887,59.271,43.596-10.226,48.434-80.886,53.454-132.56" fill="#cd890a"/>
  <path d="m291.05-112.43-11.695,10.532c12.307,28.656,30.86,53.454,52.169,71.701,2.2655-15.002,4.6535-25.533,6.8578-33.065-21.676-15.553-37.29-32.33-47.331-49.168" fill="#cd890a"/>
  <path d="m458.9-290.79c4.2249,13.777,26.207,90.683,8.5111,123.01-5.4495,13.042-15.614,29.146-34.412,48.556-30.432,31.228-50.883,49.597-60.19,68.64-7.4702,16.9-11.634,63.68-12.552,72.007-1.7757,17.145-3.7963,34.902-6.6129,50.883-5.4495,31.718-22.533,42.617-44.209,42.617-28.534,0-61.17-23.513-82.906-74.579,3.98-1.7145,7.5314-3.9188,10.838-6.4292,16.042,32.33,38.086,50.209,59.578,45.556v-0.12246c1.2246-0.18369,2.4492-0.55108,3.6738-0.97969,22.533-8.3886,28.044-37.412,30.064-55.659,0.91847-8.0212,3.6126-26.084,6.0618-41.208,3.2452-25.656,6.9803-40.229,9.9806-48.801,2.2043-6.8578,6.4292-15.798,9.0622-19.716,10.226-17.879,29.513-37.167,58.904-65.211,4.5923-4.4086,8.6948-8.5723,12.369-12.491,15.553-17.696,36.494-44.086,32.452-71.824-17.328,22.533-55.659,37.779-69.497,64.905-3.6126-10.164-8.756-25.839-9.6745-29.881-0.55107-2.388-4.8985-15.002,7.6538-29.33,14.818-16.838,22.41-34.106,21.553-58.108-0.91847-9.9194-4.6535-19.594-10.838-29.881-18.308-30.432-49.719-60.067-68.334-79.967,5.0822,27.309,1.8982,77.151-24.737,126.32-18.186,33.493-33.065,70.905-30.677,108.07-4.776,4.4086-8.756,8.0212-10.532,9.7969-1.592-10.348-2.5105-20.941-2.5717-31.84,0-47.393,20.574-86.397,36.432-123.69,19.471-45.617,26.758-75.191,20.206-99.929-2.6329-9.7969-5.5108-13.961-11.266-30.187-7.5926-21.308-4.2862-43.719,13.532-67.905-13.287-23.023-18.124-43.535-18.186-60.68-0.0612-27.921,9.552-46.229,21.063-54.312,8.1437-5.6944,11.083-5.3883,12.246-5.1434,1.1634,0.18369,1.8369,2.1431,0.18369,3.0003-2.7554,1.4083-5.7557,3.6126-8.2049,5.6332-11.144,9.2458-16.716,30.248-8.0212,57.373,4.4086,13.899,13.103,30.003,27.982,48.617,46.719,58.659,122.89,149.4,164.1,241.19,25.717,52.169,30.309,101.7,30.309,101.7,10.96,119.22-48.617,176.04-124.73,175.18-1.1022,0-2.2043-0.061231-3.2452-0.061231l-0.0612-0.061231c-14.79-0.6119-29.91-4.1632-43.94-10.041,2.2655-17.206,4.6535-29.697,7.164-37.473,0.55107,0.12246,1.1634,0.30615,1.7757,0.42862l0.0612,0.06123c92.642,25.166,154.49-64.537,138.2-152.77-4.4086-20.145-12.43-41.331-22.839-62.762-41.147-85.233-119.77-174.63-161.47-231.02-2.4492-3.3065-4.6535-6.4905-6.7966-9.7357-11.328,13.899-21.676,35.759,8.8785,69.619,23.635,26.207,75.987,71.579,89.152,122.58l0.0612-0.0612c0.1837,0.73476,0.36739,1.4695,0.48985,2.2043v0.0612c2.9391,12.797,4.8985,28.105-2.388,48.066,12.981-9.4295,27.003-21.125,34.779-33.861,0.12246-0.0612,0.12246-0.18369,0.18369-0.30615,0.36739-0.48985,0.48985-0.67354,0.91846-0.67354,0.24493,0,0.30616,0.18369,0.48985,0.61231" fill="#cd890a"/>
  <path d="m146.06,240.26-23.574,0,0-58.169-19.349,0,0,74.885,42.923,0,0-16.716z" fill="#1d4e9e"/>
  <path d="m182.42,257.66,0-75.559-19.226,0,0,70.109c0,11.45-4.1637,15.614-13.348,13.042-0.55108-0.12246-1.0409-0.30615-1.592-0.55108l-4.5311,16.287c1.0409,0.48985,2.0818,0.91846,3.184,1.3471,21.431,8.0212,35.514-3.8575,35.514-24.676" fill="#1d4e9e"/>
  <path d="m399.16,241.08-31.718,0,0-12.981,25.105,0,0-16.042-25.105,0,0-13.532,29.146,0,0-16.471-48.311,0,0,74.946,50.883,0,0-15.92z" fill="#1d4e9e"/>
  <path d="m465.44,241.08-31.718,0,0-12.981,25.105,0,0-16.042-25.105,0,0-13.532,29.146,0,0-16.471-48.25,0,0,74.946,50.822,0,0-15.92z" fill="#1d4e9e"/>
  <path d="m47.083,226.19,7.1028-23.758,7.1028,23.758-14.206,0zm-3.4902-44.086-25.533,74.885,19.288,0,4.2862-13.716,24.676,0,4.1637,13.716,20.451,0-26.084-74.885-21.247,0z" fill="#1d4e9e"/>
  <path d="m222.82,226.19,7.1028-23.758,7.0415,23.758-14.144,0zm23.39,30.799,20.451,0-26.084-74.885-21.247,0-25.533,74.885,19.226,0,4.3474-13.716,24.676,0,4.1637,13.716z" fill="#1d4e9e"/>
  <path d="m574.27,226.19,7.1028-23.758,7.0415,23.758-14.144,0zm17.757-44.086-21.247,0-25.594,74.885,19.288,0,4.3474-13.716,24.676,0,4.1637,13.716,20.451,0-26.084-74.885z" fill="#1d4e9e"/>
  <path d="m513.29,210.28c-1.1022,1.3471-2.6942,1.9594-6.368,2.2655h-1.6532-5.6945v-14.022h5.6945c0.48985,0,0.91846,0.12246,1.4083,0.12246,2.9391,0.0612,4.1637,0.36738,5.3883,1.2246,3.2452,1.8369,3.98,6.9803,1.2246,10.409m16.104,19.533c-2.8166-6.6129-3.8575-7.96-6.4904-9.2458,0.42861-0.12246,0.91846-0.30615,1.2858-0.48984,8.3274-3.8575,12.43-13.532,9.1846-24.247-2.5717-8.8785-9.3683-13.716-22.288-13.716h-30.37v74.885h19.226v-27.982h4.4086c3.1228,0,4.9597,1.3471,6.6742,5.3271l0.97969,2.388,0.55108,1.3471,7.2865,18.92h19.961l-9.3683-24.554c-0.36739-0.91846-0.67354-1.7757-1.0409-2.6329" fill="#1d4e9e"/>
  <path d="m331.99,240.47-27.86,0,27.309-39.249,0-19.165-51.679,0,0,16.471,26.574,0-27.37,39.31,0,19.165,53.026,0,0-16.532z" fill="#1d4e9e"/>
  <path d="m146.06,240.26-23.574,0,0-58.169-19.349,0,0,74.885,42.923,0,0-16.716z" fill="#1d4e9e"/>
  <path d="m182.42,257.66,0-75.559-19.226,0,0,70.109c0,11.45-4.1637,15.614-13.348,13.042-0.55108-0.12246-1.0409-0.30615-1.592-0.55108l-4.5311,16.287c1.0409,0.48985,2.0818,0.91846,3.184,1.3471,21.431,8.0212,35.514-3.8575,35.514-24.676" fill="#1d4e9e"/>
  <path d="m399.16,241.08-31.718,0,0-12.981,25.105,0,0-16.042-25.105,0,0-13.532,29.146,0,0-16.471-48.311,0,0,74.946,50.883,0,0-15.92z" fill="#1d4e9e"/>
  <path d="m465.44,241.08-31.718,0,0-12.981,25.105,0,0-16.042-25.105,0,0-13.532,29.146,0,0-16.471-48.25,0,0,74.946,50.822,0,0-15.92z" fill="#1d4e9e"/>
  <path d="m47.083,226.19,7.1028-23.758,7.1028,23.758-14.206,0zm-3.4902-44.086-25.533,74.885,19.288,0,4.2862-13.716,24.676,0,4.1637,13.716,20.451,0-26.084-74.885-21.247,0z" fill="#1d4e9e"/>
  <path d="m222.82,226.19,7.1028-23.758,7.0415,23.758-14.144,0zm23.39,30.799,20.451,0-26.084-74.885-21.247,0-25.533,74.885,19.226,0,4.3474-13.716,24.676,0,4.1637,13.716z" fill="#1d4e9e"/>
  <path d="m574.27,226.19,7.1028-23.758,7.0415,23.758-14.144,0zm17.757-44.086-21.247,0-25.594,74.885,19.288,0,4.3474-13.716,24.676,0,4.1637,13.716,20.451,0-26.084-74.885z" fill="#1d4e9e"/>
  <path d="m513.29,210.28c-1.1022,1.3471-2.6942,1.9594-6.368,2.2655h-1.6532-5.6945v-14.022h5.6945c0.48985,0,0.91846,0.12246,1.4083,0.12246,2.9391,0.0612,4.1637,0.36738,5.3883,1.2246,3.2452,1.8369,3.98,6.9803,1.2246,10.409m16.104,19.533c-2.8166-6.6129-3.8575-7.96-6.4904-9.2458,0.42861-0.12246,0.91846-0.30615,1.2858-0.48984,8.3274-3.8575,12.43-13.532,9.1846-24.247-2.5717-8.8785-9.3683-13.716-22.288-13.716h-30.37v74.885h19.226v-27.982h4.4086c3.1228,0,4.9597,1.3471,6.6742,5.3271l0.97969,2.388,0.55108,1.3471,7.2865,18.92h19.961l-9.3683-24.554c-0.36739-0.91846-0.67354-1.7757-1.0409-2.6329" fill="#1d4e9e"/>
  <path d="m331.99,240.47-27.86,0,27.309-39.249,0-19.165-51.679,0,0,16.471,26.574,0-27.37,39.31,0,19.165,53.026,0,0-16.532z" fill="#1d4e9e"/>
 </g>
</svg>
