<?xml version="1.0" encoding="UTF-8" standalone="no"?>
<!-- Created with Inkscape (http://www.inkscape.org/) -->

<svg
   xmlns:dc="http://purl.org/dc/elements/1.1/"
   xmlns:cc="http://creativecommons.org/ns#"
   xmlns:rdf="http://www.w3.org/1999/02/22-rdf-syntax-ns#"
   xmlns:svg="http://www.w3.org/2000/svg"
   xmlns="http://www.w3.org/2000/svg"
   version="1.0"
   width="630.20825"
   height="170.0318"
   id="svg2">
  <metadata
     id="metadata17">
    <rdf:RDF>
      <cc:Work
         rdf:about="">
        <dc:format>image/svg+xml</dc:format>
        <dc:type
           rdf:resource="http://purl.org/dc/dcmitype/StillImage" />
        <dc:title></dc:title>
      </cc:Work>
    </rdf:RDF>
  </metadata>
  <defs
     id="defs4" />
  <g
     id="g3845">
    <path
       d="M 351.99355,0 C 330.77789,0 310.1066,0.8954 289.81324,2.68122 159.38215,14.02466 50.91771,60.45071 0,123.15555 77.48364,51.99539 222.1162,4.18752 387.78338,4.18752 c 19.37108,4e-5 38.57288,0.63751 57.39025,1.89797 C 434.84266,4.72016 424.50851,3.57379 413.99308,2.68122 393.69974,0.94798 373.02509,0 351.99355,0 z"
       id="path2452"
       style="fill:#f5b02f;fill-opacity:1" />
    <path
       d="m 630.20822,46.87622 -0.57239,0.48202 c -77.66812,70.8449 -221.91273,118.5463 -387.21098,118.5463 -19.37107,0 -38.57288,-0.69776 -57.39025,-1.95822 20.84675,2.78329 42.24493,4.67278 64.19876,5.51308 9.4087,0.36755 19.20338,0.5724 28.98132,0.5724 9.77761,-3e-5 19.53477,-0.20485 29.31271,-0.5724 144.45186,-5.82949 266.76306,-54.30137 322.10844,-121.89027 l 0.57239,-0.69291 z"
       id="path2450"
       style="fill:#f5b02f;fill-opacity:1" />
    <path
       d="m 237.07362,55.744392 -8.25191,64.190338 23.08948,0 3.41184,-33.404362 16.02776,33.404362 22.81176,0 8.01388,-64.190338 -22.81177,0 -3.64988,33.126634 C 271.34152,77.252331 266.23672,66.187689 260.1631,55.744392 l -23.08948,0 z"
       id="path2444"
       style="fill:#f5b02f;fill-opacity:1" />
    <path
       d="m 309.71423,55.744392 -8.25191,64.190338 23.80359,0 7.77584,-64.190338 -23.32752,0 z"
       id="path2442"
       style="fill:#f5b02f;fill-opacity:1" />
    <path
       d="m 335.22374,55.744392 17.01957,29.675117 -25.74755,34.515221 26.46166,0 10.71161,-15.90874 8.96601,15.90874 24.08129,0 -18.72548,-33.364684 23.56555,-30.825654 -26.46165,0 -8.01387,12.457183 -6.58567,-12.457183 -25.27147,0 z"
       id="path2440"
       style="fill:#f5b02f;fill-opacity:1" />
    <path
       d="m 406.43613,55.744392 -8.01387,64.190338 42.25135,0 2.42005,-17.45598 -19.67766,0 0.99184,-7.101401 17.25761,0 1.94395,-15.9087 -17.25762,0 0.95217,-7.141074 18.9635,0 2.182,-16.583183 -42.01332,0 z"
       id="path2438"
       style="fill:#f5b02f;fill-opacity:1" />
    <path
       d="m 187.28446,55.744392 -29.63546,64.190338 24.75572,0 3.41185,-8.52961 15.78971,0 0.75378,8.52961 22.81176,0 -8.96601,-64.190338 -28.92135,0 z m 11.66375,18.685827 1.70593,22.454687 -9.24373,0 c 0.48626,-1.936019 1.96437,-6.644371 4.87973,-14.044095 1.21456,-3.250482 1.92934,-6.059319 2.65807,-8.410592 z"
       id="path2446"
       style="fill:#f5b02f;fill-opacity:1" />
  </g>
</svg>
