<?xml version="1.0" encoding="UTF-8" standalone="no"?>
<!-- Created with Inkscape (http://www.inkscape.org/) -->

<svg
   xmlns:dc="http://purl.org/dc/elements/1.1/"
   xmlns:cc="http://creativecommons.org/ns#"
   xmlns:rdf="http://www.w3.org/1999/02/22-rdf-syntax-ns#"
   xmlns:svg="http://www.w3.org/2000/svg"
   xmlns="http://www.w3.org/2000/svg"
   version="1.0"
   width="600"
   height="570.0152"
   id="svg2">
  <metadata
     id="metadata3079">
    <rdf:RDF>
      <cc:Work
         rdf:about="">
        <dc:format>image/svg+xml</dc:format>
        <dc:type
           rdf:resource="http://purl.org/dc/dcmitype/StillImage" />
        <dc:title></dc:title>
      </cc:Work>
    </rdf:RDF>
  </metadata>
  <defs
     id="defs3077" />
  <g
     transform="translate(155.99115,-228.872)"
     id="layer1">
    <g
       transform="matrix(8.9070857,0,0,-8.9070857,-907.03216,3720.1806)"
       id="g3974">
      <g
         transform="translate(134.5416,355.9379)"
         id="g3976">
        <path
           d="M 0,0 -16.9,-11.252 -33.8,0.015 -33.81,0.02 c 0.575,8.837 7.925,15.827 16.907,15.827 8.989,0 16.342,-7 16.907,-15.847 L 0,0 z"
           id="path3978"
           style="fill:#f68a00;fill-rule:nonzero;stroke:none" />
      </g>
      <g
         transform="translate(137.8229,358.3333)"
         id="g3980">
        <path
           d="m 0,0 -19.569,32.612 c -0.06,0.101 -0.094,0.22 -0.094,0.346 0,0.375 0.347,0.677 0.722,0.677 C -4.7,33.148 6.649,24.261 6.649,13.37 6.649,8.248 4.14,3.57 0,0"
           id="path3982"
           style="fill:#f68a00;fill-rule:nonzero;stroke:none" />
      </g>
      <g
         transform="translate(97.4501,358.3538)"
         id="g3984">
        <path
           d="m 0,0 c -4.125,3.568 -6.625,8.238 -6.625,13.349 0,10.886 11.359,19.771 25.591,20.267 0.374,0 0.678,-0.304 0.678,-0.678 0,-0.127 -0.035,-0.246 -0.096,-0.348 L 0,0 z"
           id="path3986"
           style="fill:#f68a00;fill-rule:nonzero;stroke:none" />
      </g>
      <g
         transform="translate(89.0295,336.5896)"
         id="g3988">
        <path
           d="m 0,0 -1.748,-4.949 3.337,0 L 0,0 z m 2.803,-8.467 -0.776,2.384 -4.182,0 -0.829,-2.384 -1.726,0 4.57,11.426 0.411,0 4.242,-11.426 -1.71,0 z"
           id="path3990"
           style="fill:#9ea0a2;fill-rule:nonzero;stroke:none" />
      </g>
      <g
         transform="translate(102.0141,327.9745)"
         id="g3992">
        <path
           d="m 0,0 -5.82,8.22 0,-8.072 -1.463,0 0,11.262 0.608,0 5.672,-7.776 0,7.776 1.463,0 L 0.46,0 0,0 z"
           id="path3994"
           style="fill:#9ea0a2;fill-rule:nonzero;stroke:none" />
      </g>
      <g
         transform="translate(108.8962,338.0035)"
         id="g3996">
        <path
           d="m 0,0 0,-9.881 -1.545,0 0,9.881 -3.585,0 0,1.381 8.879,0 L 3.749,0 0,0 z"
           id="path3998"
           style="fill:#9ea0a2;fill-rule:nonzero;stroke:none" />
      </g>
      <g
         transform="translate(115.4787,338.0035)"
         id="g4000">
        <path
           d="m 0,0 0,-3.124 3.634,0 0,-1.315 -3.634,0 0,-4.061 5.097,0 0,-1.381 -6.642,0 0,11.262 6.642,0 L 5.097,0 0,0 z"
           id="path4002"
           style="fill:#9ea0a2;fill-rule:nonzero;stroke:none" />
      </g>
      <g
         transform="translate(129.6564,327.9745)"
         id="g4004">
        <path
           d="m 0,0 -5.82,8.22 0,-8.072 -1.463,0 0,11.262 0.608,0 5.672,-7.776 0,7.776 1.463,0 L 0.46,0 0,0 z"
           id="path4006"
           style="fill:#9ea0a2;fill-rule:nonzero;stroke:none" />
      </g>
      <g
         transform="translate(136.0202,336.5896)"
         id="g4008">
        <path
           d="m 0,0 -1.748,-4.949 3.337,0 L 0,0 z m 2.803,-8.467 -0.776,2.384 -4.182,0 -0.829,-2.384 -1.726,0 4.57,11.426 0.411,0 4.242,-11.426 -1.71,0 z"
           id="path4010"
           style="fill:#9ea0a2;fill-rule:nonzero;stroke:none" />
      </g>
      <g
         transform="translate(145.2866,328.9281)"
         id="g4012">
        <path
           d="M 0,0 0.74,1.184 C 1.242,0.636 1.877,0.362 2.647,0.362 c 1.425,0 2.137,0.695 2.137,2.086 0,0.633 -0.208,1.148 -0.623,1.545 C 3.745,4.389 3.194,4.587 2.507,4.587 l -0.123,0 0,1.25 0.069,0 c 1.302,0 1.953,0.571 1.953,1.712 0,1.193 -0.611,1.79 -1.833,1.79 -0.664,0 -1.193,-0.225 -1.587,-0.674 l -0.69,1.052 c 0.476,0.625 1.272,0.937 2.388,0.937 0.983,0 1.784,-0.263 2.404,-0.788 C 5.708,9.341 6.017,8.668 6.017,7.849 6.017,7.223 5.844,6.67 5.497,6.188 5.15,5.706 4.742,5.384 4.275,5.22 4.923,5.01 5.438,4.653 5.821,4.149 6.204,3.645 6.395,3.034 6.395,2.318 6.395,1.273 6.065,0.467 5.404,-0.101 4.743,-0.669 3.815,-0.954 2.621,-0.954 2.119,-0.954 1.627,-0.86 1.145,-0.673 0.663,-0.486 0.282,-0.261 0,0"
           id="path4014"
           style="fill:#9ea0a2;fill-rule:nonzero;stroke:none" />
      </g>
    </g>
  </g>
</svg>
