<?xml version="1.0" encoding="UTF-8" standalone="no"?>
<svg
   xmlns:dc="http://purl.org/dc/elements/1.1/"
   xmlns:cc="http://creativecommons.org/ns#"
   xmlns:rdf="http://www.w3.org/1999/02/22-rdf-syntax-ns#"
   xmlns:svg="http://www.w3.org/2000/svg"
   xmlns="http://www.w3.org/2000/svg"
   version="1.1"
   id="svg126178"
   viewBox="0 0 640 232.65912"
   height="65.661575mm"
   width="180.62222mm">
  <defs
     id="defs126180">
    <clipPath
       id="clipPath114796"
       clipPathUnits="userSpaceOnUse">
      <path
         id="path114798"
         d="M 0,792 612,792 612,0 0,0 0,792 Z" />
    </clipPath>
  </defs>
  <metadata
     id="metadata126183">
    <rdf:RDF>
      <cc:Work
         rdf:about="">
        <dc:format>image/svg+xml</dc:format>
        <dc:type
           rdf:resource="http://purl.org/dc/dcmitype/StillImage" />
        <dc:title></dc:title>
      </cc:Work>
    </rdf:RDF>
  </metadata>
  <g
     transform="translate(-40.000242,-278.88954)"
     id="layer1">
    <g
       id="g114792"
       transform="matrix(19.48569,0,0,-19.48569,-6665.5253,9106.1877)">
      <g
         clip-path="url(#clipPath114796)"
         id="g114794">
        <g
           transform="translate(364.1377,447.5981)"
           id="g114800">
          <path
             id="path114802"
             style="fill:#c70032;fill-opacity:1;fill-rule:nonzero;stroke:none"
             d="m 0,0 c -1.785,0 -2.854,-1.349 -3.181,-2.105 -0.505,-1.168 0.07,-1.918 0.748,-2.107 0.777,-0.215 1.802,0.189 2.593,1.172 l -0.85,0.783 c -0.508,-0.635 -1.295,-1.025 -1.651,-0.777 -0.351,0.247 -0.069,0.969 0.269,1.4 0.405,0.516 1.08,0.947 1.628,1.009 1.014,0.112 1.355,-0.493 1.045,-1.646 l -0.53,-1.979 1.157,0 0.531,1.979 C 2.195,-0.64 1.15,0 0,0" />
        </g>
        <g
           transform="translate(370.4482,447.5464)"
           id="g114804">
          <path
             id="path114806"
             style="fill:#c70032;fill-opacity:1;fill-rule:nonzero;stroke:none"
             d="m 0,0 0,0 -2.955,0 -1.125,-4.198 1.158,0 c 0,0 0.946,3.535 0.971,3.622 l 1.318,0 c 0.437,0 0.653,-0.198 0.566,-0.517 l -0.83,-3.105 1.157,0 0.815,3.041 C 1.258,-0.477 0.815,0 0,0" />
        </g>
        <g
           transform="translate(347.8379,448.0239)"
           id="g114808">
          <path
             id="path114810"
             style="fill:#c70032;fill-opacity:1;fill-rule:nonzero;stroke:none"
             d="m 0,0 c -1.965,0 -3.142,-1.485 -3.501,-2.317 -0.555,-1.284 0.076,-2.109 0.824,-2.317 0.854,-0.237 1.981,0.208 2.852,1.289 l -0.935,0.862 c -0.558,-0.698 -1.426,-1.127 -1.817,-0.854 -0.387,0.27 -0.075,1.065 0.297,1.539 0.444,0.57 1.185,1.043 1.79,1.109 1.116,0.125 1.489,-0.541 1.151,-1.811 l -0.584,-2.176 1.272,0 0.584,2.176 C 2.414,-0.705 1.265,0 0,0" />
        </g>
        <g
           transform="translate(355.5664,447.5464)"
           id="g114812">
          <path
             id="path114814"
             style="fill:#c70032;fill-opacity:1;fill-rule:nonzero;stroke:none"
             d="m 0,0 -1.125,-4.198 1.156,0 L 1.156,0 1.113,0 0,0 Z" />
        </g>
        <g
           transform="translate(356.6689,449.5327)"
           id="g114816">
          <path
             id="path114818"
             style="fill:#c70032;fill-opacity:1;fill-rule:nonzero;stroke:none"
             d="m 0,0 c -0.362,0 -0.735,-0.294 -0.833,-0.657 -0.097,-0.362 0.119,-0.657 0.481,-0.657 0.363,0 0.735,0.295 0.832,0.657 C 0.578,-0.294 0.363,0 0,0" />
        </g>
        <g
           transform="translate(352.6992,447.5464)"
           id="g114820">
          <path
             id="path114822"
             style="fill:#c70032;fill-opacity:1;fill-rule:nonzero;stroke:none"
             d="m 0,0 c -0.816,0 -1.513,-0.477 -1.694,-1.157 l -0.816,-3.041 1.157,0 0.834,3.105 c 0.084,0.319 0.409,0.517 0.844,0.517 l 1.507,0 L 2.44,0 0,0 Z" />
        </g>
        <g
           transform="translate(359.2051,447.5464)"
           id="g114824">
          <path
             id="path114826"
             style="fill:#c70032;fill-opacity:1;fill-rule:nonzero;stroke:none"
             d="m 0,0 c -0.816,0 -1.513,-0.477 -1.695,-1.157 l -0.815,-3.041 1.157,0 0.832,3.105 c 0.085,0.319 0.41,0.517 0.845,0.517 l 1.508,0 L 2.44,0 0,0 Z" />
        </g>
        <g
           transform="translate(373.7998,444.1494)"
           id="g114828">
          <path
             id="path114830"
             style="fill:#c70032;fill-opacity:1;fill-rule:nonzero;stroke:none"
             d="M 0,0 C -0.658,0.079 -1.16,0.615 -0.682,1.593 -0.324,2.32 0.417,2.834 1.026,2.881 1.888,2.949 2.251,2.509 1.97,1.454 1.74,0.602 0.889,-0.105 0,0 m 1.503,3.478 c -0.792,0 -2.307,-0.386 -3.082,-2.012 -0.652,-1.369 0.039,-2.2 0.987,-2.328 0.748,-0.101 1.7,0.225 2.14,0.745 C 1.522,-0.213 1.366,-0.794 1.366,-0.794 1.083,-1.848 0.399,-2.478 -0.466,-2.478 l -0.38,0 -0.161,-0.597 0.641,0 c 1.061,0.029 2.455,0.642 2.893,2.281 L 3.061,1.199 C 3.5,2.837 2.545,3.478 1.503,3.478" />
        </g>
        <g
           transform="translate(346,451.7344)"
           id="g114832">
          <path
             id="path114834"
             style="fill:#c70032;fill-opacity:1;fill-rule:nonzero;stroke:none"
             d="M 0,0 -0.029,0.499 C -0.035,0.623 -0.033,0.76 -0.031,0.877 l -0.007,0 C -0.098,0.76 -0.169,0.619 -0.233,0.499 L -0.52,0 0,0 Z m -0.653,-0.279 -0.326,-0.574 -0.38,0 1.179,2.025 0.472,0 0.126,-2.025 -0.399,0 -0.033,0.574 -0.639,0 z" />
        </g>
        <g
           transform="translate(346.748,451.2236)"
           id="g114836">
          <path
             id="path114838"
             style="fill:#c70032;fill-opacity:1;fill-rule:nonzero;stroke:none"
             d="m 0,0 c 0.068,-0.051 0.212,-0.107 0.345,-0.107 0.162,0 0.252,0.068 0.277,0.164 C 0.648,0.157 0.601,0.205 0.437,0.27 0.178,0.367 0.102,0.523 0.146,0.697 0.215,0.956 0.48,1.154 0.819,1.154 0.981,1.154 1.113,1.116 1.187,1.067 L 1.045,0.808 C 0.994,0.844 0.887,0.893 0.757,0.893 0.625,0.893 0.535,0.826 0.512,0.736 0.487,0.644 0.546,0.602 0.714,0.533 0.957,0.439 1.041,0.304 0.987,0.087 0.917,-0.18 0.66,-0.372 0.271,-0.372 c -0.176,0 -0.325,0.042 -0.417,0.102 L 0,0 Z" />
        </g>
        <g
           transform="translate(347.9258,450.8818)"
           id="g114840">
          <path
             id="path114842"
             style="fill:#c70032;fill-opacity:1;fill-rule:nonzero;stroke:none"
             d="m 0,0 0.385,1.463 0.369,0 L 0.369,0 0,0 Z M 0.885,1.871 C 0.856,1.763 0.752,1.673 0.623,1.673 0.5,1.673 0.441,1.763 0.47,1.871 c 0.031,0.114 0.137,0.202 0.26,0.202 0.127,0 0.181,-0.088 0.155,-0.202" />
        </g>
        <g
           transform="translate(349.6582,451.5967)"
           id="g114844">
          <path
             id="path114846"
             style="fill:#c70032;fill-opacity:1;fill-rule:nonzero;stroke:none"
             d="m 0,0 c -0.261,0.003 -0.524,-0.052 -0.583,-0.273 -0.038,-0.145 0.038,-0.211 0.156,-0.211 0.15,0 0.28,0.096 0.344,0.202 0.016,0.027 0.023,0.054 0.029,0.08 L 0,0 Z M 0.265,-0.363 C 0.23,-0.496 0.202,-0.625 0.195,-0.715 l -0.332,0 0.016,0.162 -0.01,0 c -0.117,-0.115 -0.291,-0.196 -0.483,-0.196 -0.295,0 -0.404,0.214 -0.346,0.437 0.096,0.366 0.474,0.556 1.013,0.552 L 0.06,0.264 C 0.085,0.36 0.088,0.52 -0.171,0.52 -0.314,0.52 -0.477,0.475 -0.592,0.412 l -0.01,0.239 c 0.126,0.067 0.332,0.13 0.563,0.13 0.469,0 0.526,-0.297 0.441,-0.619 L 0.265,-0.363 Z" />
        </g>
        <g
           transform="translate(351.1221,452.9629)"
           id="g114848">
          <path
             id="path114850"
             style="fill:#c70032;fill-opacity:1;fill-rule:nonzero;stroke:none"
             d="m 0,0 c -0.154,-0.276 -0.367,-0.582 -0.526,-0.769 l -0.236,-0.024 c 0.137,0.224 0.296,0.52 0.396,0.763 L 0,0 Z" />
        </g>
        <g
           transform="translate(350.6689,451.2236)"
           id="g114852">
          <path
             id="path114854"
             style="fill:#c70032;fill-opacity:1;fill-rule:nonzero;stroke:none"
             d="m 0,0 c 0.066,-0.051 0.211,-0.107 0.343,-0.107 0.163,0 0.253,0.068 0.277,0.164 C 0.647,0.157 0.6,0.205 0.437,0.27 0.177,0.367 0.101,0.523 0.146,0.697 0.215,0.956 0.479,1.154 0.819,1.154 0.981,1.154 1.111,1.116 1.187,1.067 L 1.044,0.808 C 0.992,0.844 0.886,0.893 0.756,0.893 0.624,0.893 0.534,0.826 0.511,0.736 0.487,0.644 0.545,0.602 0.713,0.533 0.956,0.439 1.041,0.304 0.986,0.087 0.917,-0.18 0.658,-0.372 0.271,-0.372 c -0.177,0 -0.326,0.042 -0.418,0.102 L 0,0 Z" />
        </g>
        <g
           transform="translate(353.3838,452.9062)"
           id="g114856">
          <path
             id="path114858"
             style="fill:#c70032;fill-opacity:1;fill-rule:nonzero;stroke:none"
             d="m 0,0 -0.214,-0.811 0.857,0 L 0.855,0 1.226,0 0.694,-2.024 l -0.37,0 0.235,0.892 -0.857,0 -0.234,-0.892 -0.369,0 L -0.37,0 0,0 Z" />
        </g>
        <g
           transform="translate(355.623,451.7676)"
           id="g114860">
          <path
             id="path114862"
             style="fill:#c70032;fill-opacity:1;fill-rule:nonzero;stroke:none"
             d="M 0,0 C 0.038,0.135 0.036,0.357 -0.21,0.357 -0.438,0.357 -0.589,0.15 -0.644,0 L 0,0 Z m -0.711,-0.258 c -0.06,-0.265 0.114,-0.379 0.352,-0.379 0.17,0 0.298,0.028 0.421,0.067 L 0.051,-0.823 c -0.141,-0.053 -0.324,-0.093 -0.534,-0.093 -0.475,0 -0.678,0.291 -0.561,0.739 0.107,0.405 0.452,0.787 0.921,0.787 0.475,0 0.528,-0.391 0.444,-0.712 C 0.304,-0.171 0.283,-0.225 0.269,-0.258 l -0.98,0 z" />
        </g>
        <g
           transform="translate(356.998,451.5967)"
           id="g114864">
          <path
             id="path114866"
             style="fill:#c70032;fill-opacity:1;fill-rule:nonzero;stroke:none"
             d="m 0,0 c -0.26,0.003 -0.523,-0.052 -0.581,-0.273 -0.038,-0.145 0.038,-0.211 0.154,-0.211 0.151,0 0.281,0.096 0.344,0.202 0.017,0.027 0.023,0.054 0.03,0.08 L 0,0 Z M 0.266,-0.363 C 0.23,-0.496 0.203,-0.625 0.198,-0.715 l -0.335,0 0.016,0.162 -0.008,0 c -0.117,-0.115 -0.292,-0.196 -0.484,-0.196 -0.295,0 -0.404,0.214 -0.346,0.437 0.098,0.366 0.474,0.556 1.014,0.552 L 0.062,0.264 C 0.086,0.36 0.088,0.52 -0.169,0.52 -0.314,0.52 -0.476,0.475 -0.592,0.412 l -0.009,0.239 c 0.125,0.067 0.331,0.13 0.563,0.13 0.469,0 0.526,-0.297 0.441,-0.619 L 0.266,-0.363 Z" />
        </g>
        <g
           transform="translate(357.8223,451.8726)"
           id="g114868">
          <path
             id="path114870"
             style="fill:#c70032;fill-opacity:1;fill-rule:nonzero;stroke:none"
             d="m 0,0 c 0.052,0.199 0.087,0.343 0.111,0.472 l 0.319,0 -0.057,-0.277 0.009,0 C 0.507,0.4 0.705,0.505 0.865,0.505 0.9,0.505 0.922,0.503 0.949,0.496 L 0.859,0.15 C 0.828,0.157 0.795,0.159 0.75,0.159 0.577,0.159 0.424,0.048 0.347,-0.12 0.333,-0.153 0.319,-0.192 0.309,-0.23 l -0.201,-0.761 -0.368,0 L 0,0 Z" />
        </g>
        <g
           transform="translate(359.6064,452.7202)"
           id="g114872">
          <path
             id="path114874"
             style="fill:#c70032;fill-opacity:1;fill-rule:nonzero;stroke:none"
             d="m 0,0 -0.099,-0.376 0.352,0 -0.072,-0.276 -0.352,0 -0.17,-0.646 c -0.047,-0.181 -0.023,-0.271 0.118,-0.271 0.067,0 0.104,0.004 0.149,0.016 l -0.068,-0.28 c -0.059,-0.02 -0.164,-0.039 -0.277,-0.039 -0.139,0 -0.238,0.045 -0.287,0.12 -0.059,0.085 -0.061,0.22 -0.01,0.412 l 0.181,0.688 -0.206,0 0.071,0.276 0.208,0 0.071,0.274 L 0,0 Z" />
        </g>
        <g
           transform="translate(360.2822,451.4854)"
           id="g114876">
          <path
             id="path114878"
             style="fill:#c70032;fill-opacity:1;fill-rule:nonzero;stroke:none"
             d="m 0,0 c -0.008,-0.03 -0.012,-0.06 -0.014,-0.087 0,-0.15 0.1,-0.258 0.26,-0.258 0.232,0 0.421,0.183 0.499,0.48 C 0.812,0.393 0.744,0.603 0.498,0.603 0.349,0.603 0.182,0.496 0.101,0.333 0.086,0.307 0.072,0.273 0.062,0.237 L 0,0 Z m 0.032,1.529 0.369,0 -0.228,-0.871 0.006,0 c 0.128,0.141 0.31,0.234 0.53,0.234 0.358,0 0.535,-0.297 0.415,-0.742 -0.139,-0.526 -0.54,-0.787 -0.87,-0.787 -0.189,0 -0.34,0.072 -0.397,0.252 l -0.006,0 -0.076,-0.219 -0.315,0 c 0.032,0.099 0.08,0.261 0.12,0.412 l 0.452,1.721 z" />
        </g>
        <g
           transform="translate(362.6484,451.7676)"
           id="g114880">
          <path
             id="path114882"
             style="fill:#c70032;fill-opacity:1;fill-rule:nonzero;stroke:none"
             d="M 0,0 C 0.038,0.135 0.036,0.357 -0.21,0.357 -0.438,0.357 -0.588,0.15 -0.642,0 L 0,0 Z m -0.711,-0.258 c -0.06,-0.265 0.115,-0.379 0.352,-0.379 0.171,0 0.298,0.028 0.423,0.067 L 0.052,-0.823 c -0.141,-0.053 -0.325,-0.093 -0.535,-0.093 -0.476,0 -0.679,0.291 -0.56,0.739 0.107,0.405 0.451,0.787 0.92,0.787 0.475,0 0.529,-0.391 0.444,-0.712 C 0.304,-0.171 0.283,-0.225 0.268,-0.258 l -0.979,0 z" />
        </g>
        <g
           transform="translate(364.0234,451.5967)"
           id="g114884">
          <path
             id="path114886"
             style="fill:#c70032;fill-opacity:1;fill-rule:nonzero;stroke:none"
             d="m 0,0 c -0.26,0.003 -0.522,-0.052 -0.581,-0.273 -0.038,-0.145 0.037,-0.211 0.154,-0.211 0.151,0 0.281,0.096 0.344,0.202 0.017,0.027 0.023,0.054 0.03,0.08 L 0,0 Z M 0.266,-0.363 C 0.23,-0.496 0.203,-0.625 0.198,-0.715 l -0.334,0 0.016,0.162 -0.009,0 c -0.117,-0.115 -0.292,-0.196 -0.484,-0.196 -0.293,0 -0.404,0.214 -0.345,0.437 0.096,0.366 0.473,0.556 1.014,0.552 L 0.062,0.264 C 0.086,0.36 0.089,0.52 -0.169,0.52 -0.314,0.52 -0.475,0.475 -0.592,0.412 L -0.6,0.651 c 0.125,0.067 0.332,0.13 0.562,0.13 0.469,0 0.526,-0.297 0.441,-0.619 L 0.266,-0.363 Z" />
        </g>
        <g
           transform="translate(365.4756,452.7202)"
           id="g114888">
          <path
             id="path114890"
             style="fill:#c70032;fill-opacity:1;fill-rule:nonzero;stroke:none"
             d="m 0,0 -0.099,-0.376 0.352,0 -0.073,-0.276 -0.351,0 -0.17,-0.646 c -0.047,-0.181 -0.023,-0.271 0.118,-0.271 0.066,0 0.104,0.004 0.149,0.016 l -0.067,-0.28 c -0.061,-0.02 -0.164,-0.039 -0.278,-0.039 -0.139,0 -0.238,0.045 -0.287,0.12 -0.059,0.085 -0.061,0.22 -0.009,0.412 l 0.18,0.688 -0.207,0 0.072,0.276 0.208,0 0.071,0.274 L 0,0 Z" />
        </g>
      </g>
    </g>
  </g>
</svg>
