<?xml version="1.0" encoding="UTF-8" standalone="no"?>
<!-- Created with Inkscape (http://www.inkscape.org/) -->

<svg
   xmlns:dc="http://purl.org/dc/elements/1.1/"
   xmlns:cc="http://creativecommons.org/ns#"
   xmlns:rdf="http://www.w3.org/1999/02/22-rdf-syntax-ns#"
   xmlns:svg="http://www.w3.org/2000/svg"
   xmlns="http://www.w3.org/2000/svg"
   xmlns:xlink="http://www.w3.org/1999/xlink"
   xmlns:inkscape="http://www.inkscape.org/namespaces/inkscape"
   version="1.0"
   width="670"
   height="120"
   id="svg3433">
  <defs
     id="defs3435">
    <linearGradient
       id="linearGradient3629">
      <stop
         id="stop3631"
         style="stop-color:#535353;stop-opacity:1"
         offset="0" />
      <stop
         id="stop3633"
         style="stop-color:#bbbcbe;stop-opacity:1"
         offset="1" />
    </linearGradient>
    <linearGradient
       x1="450.46924"
       y1="646.98505"
       x2="611.82611"
       y2="518.33569"
       id="linearGradient3635"
       xlink:href="#linearGradient3629"
       gradientUnits="userSpaceOnUse" />
  </defs>
  <metadata
     id="metadata3438">
    <rdf:RDF>
      <cc:Work
         rdf:about="">
        <dc:format>image/svg+xml</dc:format>
        <dc:type
           rdf:resource="http://purl.org/dc/dcmitype/StillImage" />
        <dc:title />
      </cc:Work>
    </rdf:RDF>
  </metadata>
  <g
     transform="translate(10.554359,-478.79703)"
     id="layer1">
    <rect
       width="177.1127"
       height="110.64267"
       ry="13.015025"
       x="478.22961"
       y="483.07254"
       id="rect3271"
       style="fill:url(#linearGradient3635);fill-opacity:1;stroke:none" />
    <g
       transform="matrix(0.5851582,0,0,0.5851582,213.69088,418.08493)"
       id="g3267"
       style="fill:#ffffff">
      <path
         d="m 490.48028,140.99172 0,130.71875 33.34375,0 0,-48.96875 41.375,0 0,48.96875 33.34375,0 0,-130.71875 -33.34375,0 0,48.09375 -41.375,0 0,-48.09375 -33.34375,0 z"
         inkscape:connector-curvature="0"
         id="path2477"
         style="fill:#ffffff;fill-rule:evenodd;stroke:none" />
      <path
         d="m 617.375,141 0,130.71875 c 3e-5,0 28.74923,0 38.875,0 41.87026,0 73.5,-17.20363 73.5,-67.5 C 729.75001,154.34963 697.9378,141 656.25,141 c -10.12518,0.11058 -38.875,0 -38.875,0 z m 33.14578,30.75 c 0,0 8.08736,-1e-5 11.29172,0 30.00211,0 32.95818,18.86233 33.3125,32.90625 0.36381,14.42001 -3.32113,35.16664 -32.46875,35.46875 -3.46051,0.0362 -12.13545,0 -12.13547,0 l 0,-68.375 z"
         inkscape:connector-curvature="0"
         id="path3262"
         style="fill:#ffffff;fill-rule:evenodd;stroke:none" />
    </g>
    <path
       d="m -2.4886587,541.61165 c 0,0 0.4296051,-39.66751 61.8640397,-39.81069 25.490253,0.14318 57.281559,7.01699 57.138369,32.65047 l 0,61.43444 -45.109245,0 0,-26.92231 c -0.143238,0.28642 -11.169907,4.15288 -19.618899,6.73056 -5.58498,1.57525 -10.024275,4.86896 -10.59707,10.59707 -0.143232,4.86896 5.441695,9.45144 5.298511,9.59468 l -44.6795943,0 c 0.2864214,-0.14324 -9.5946228,-3.72327 -9.1650177,-14.46358 0.8592163,-20.19174 16.468371,-27.63833 55.276617,-32.07768 20.907816,-2.57769 23.342215,-4.58248 23.485453,-9.59462 -0.143238,-4.58258 -2.72082,-9.45143 -14.320387,-9.59467 -17.327635,0 -16.182004,11.59952 -15.895582,11.45633 l -43.6771947,0 z"
       inkscape:connector-curvature="0"
       id="path8509"
       style="font-size:10px;letter-spacing:0;word-spacing:0;fill:#eb741b;fill-rule:nonzero;stroke:none" />
    <path
       d="m 141.00161,504.66507 0,91.2208 46.1116,0 0,-43.67715 c 0.14318,-7.8762 2.29126,-11.45633 5.29851,-13.89078 3.00729,-3.4369 8.59227,-5.87136 14.89318,-5.87136 l 12.88833,0 0,-27.78151 c -0.14318,-0.28642 -6.87375,-3.29371 -16.32518,-1.86166 -15.17961,2.14803 -20.47817,14.60676 -20.6214,14.75 l 0,-12.88834 -42.24504,0 z"
       inkscape:connector-curvature="0"
       id="path8511"
       style="font-size:10px;letter-spacing:0;word-spacing:0;fill:#eb741b;fill-rule:nonzero;stroke:none" />
    <path
       d="m 231.21996,504.66507 0,27.78151 18.75973,0 0,36.94658 c 0.14319,8.44904 -0.14323,14.89319 5.72812,21.19419 5.29856,5.29852 12.02912,5.01209 20.19174,5.29852 l 19.76214,0 0,-63.43929 27.35191,0 0,-27.78151 -27.35191,0 0,-21.6238 -45.682,0 0,21.6238 -18.75973,0 z"
       inkscape:connector-curvature="0"
       id="path8513"
       style="font-size:10px;letter-spacing:0;word-spacing:0;fill:#eb741b;fill-rule:nonzero;stroke:none" />
    <path
       d="m 393.61309,549.34461 21.48052,0 c 0,0.14319 2.00489,-18.47326 -19.61885,-18.33003 -21.19419,-0.28642 -18.90287,18.47322 -18.75969,18.33003 l 16.89802,0 0,22.91261 -15.89567,0 0,23.62865 -33.22326,0 c 0,-0.14324 -13.89079,-12.60197 -13.31794,-37.51943 0.28641,-56.8519 61.72085,-55.84945 63.72569,-55.56303 76.90046,0.57279 64.44173,69.74023 64.44173,69.45381 l -65.73055,0 0,-22.91261 z"
       inkscape:connector-curvature="0"
       id="path8515"
       style="font-size:10px;letter-spacing:0;word-spacing:0;fill:#eb741b;fill-rule:nonzero;stroke:none" />
  </g>
</svg>
