<?xml version="1.0" encoding="UTF-8" standalone="no"?>
<!-- Created with Inkscape (http://www.inkscape.org/) -->

<svg
   xmlns:dc="http://purl.org/dc/elements/1.1/"
   xmlns:cc="http://creativecommons.org/ns#"
   xmlns:rdf="http://www.w3.org/1999/02/22-rdf-syntax-ns#"
   xmlns:svg="http://www.w3.org/2000/svg"
   xmlns="http://www.w3.org/2000/svg"
   xmlns:inkscape="http://www.inkscape.org/namespaces/inkscape"
   version="1.0"
   width="275.21985"
   height="61.638"
   viewBox="0 0 275.21985 61.638"
   id="Layer_1"
   xml:space="preserve"><metadata
   id="metadata9"><rdf:RDF><cc:Work
       rdf:about=""><dc:format>image/svg+xml</dc:format><dc:type
         rdf:resource="http://purl.org/dc/dcmitype/StillImage" /><dc:title /></cc:Work></rdf:RDF></metadata><defs
   id="defs7" />
<path
   d="m 195.306,23.928 -24.7,0 L 163.02,0.03299972 155.435,23.928 l -24.7,0 20.017,14.316 -7.688,23.285 19.957,-14.446 19.951,14.446 -7.688,-23.285 z M 153.847,-2.8266566e-7 l -74.028,0 C 73.077,-2.8266566e-7 69.008,0.91799972 65.678,2.9499997 c -2.771,1.756 -5.354,4.165 -7.391,7.1150003 -1.399,1.978 -2.523,4.009 -3.396,6.165 l 0,-0.06 C 54.891,8.1199997 49.718,1.6589997 42.417,0.55099972 40.48,0.26999972 37.244,-2.8266566e-7 34.842,-2.8266566e-7 l -34.842,0 L 0,61.637 l 34.101,0 c 8.868,0 12.752,-1.026 16.078,-4.074 3.047,-2.771 4.619,-7.12 4.619,-12.198 0,-0.141 -0.005,-0.271 -0.011,-0.411 2.545,7.224 7.059,12.453 12.928,14.55 4.155,1.475 9.522,2.134 17.183,2.134 l 14.174,0 0,-15.846 -10.23,0 C 76.541,45.765 72.508,46.883 70.36,37.909 l 28.712,0 0,-13.916 -28.739,-0.021 c 0,0 1.432,-8.142 9.957,-8.142 l 8.636,0 19.67,0 0,45.808 17.866,0 0,-45.808 22.458,0 z M 15.127,15.878 l 19.312,0 c 4.781,0 4.543,4.008 4.543,4.008 0,4.192 -4.56,4.014 -4.56,4.014 l -19.295,0 z m 23.887,25.943 c 0,4.192 -4.552,4.024 -4.552,4.024 l -19.297,0 0,-8.033 19.314,0 c 4.773,0 4.535,4.009 4.535,4.009 m 6.915,-10.962 c 2.861,-1.172 5.294,-3.598 6.905,-6.597 -0.243,1.891 -0.365,3.89 -0.365,6.04 0,2.398 0.159,4.695 0.464,6.894 -1.466,-2.744 -3.794,-4.884 -7.004,-6.337"
   inkscape:connector-curvature="0"
   id="path3"
   style="fill:#000000;stroke:none" />
<g
   id="text2982"
   style="font-size:77.59114075px;font-style:normal;font-variant:normal;font-weight:bold;font-stretch:normal;line-height:125%;letter-spacing:0px;word-spacing:0px;fill:#000000;fill-opacity:1;stroke:none;font-family:Arial;-inkscape-font-specification:Sans Bold"><path
     d="m 217.14016,50.538401 0,-14.43468 -14.54833,0 0,-9.964097 14.54833,0 0,-14.43468 9.6989,0 0,14.43468 14.58622,0 0,9.964097 -14.58622,0 0,14.43468 z"
     inkscape:connector-curvature="0"
     id="path2985" /><path
     d="m 275.21986,58.53241 -10.64605,0 0,-40.121591 c -3.88967,3.637121 -8.47391,6.327046 -13.75272,8.069782 l 0,-9.661007 c 2.77832,-0.909228 5.79659,-2.633053 9.05482,-5.17148 3.25821,-2.5383322 5.49349,-5.499775 6.70588,-8.8843367 l 8.63807,0 z"
     inkscape:connector-curvature="0"
     id="path2987" /></g>
</svg>