<?xml version="1.0" encoding="UTF-8" standalone="no"?>
<!-- Created with Inkscape (http://www.inkscape.org/) -->

<svg
   xmlns:dc="http://purl.org/dc/elements/1.1/"
   xmlns:cc="http://creativecommons.org/ns#"
   xmlns:rdf="http://www.w3.org/1999/02/22-rdf-syntax-ns#"
   xmlns:svg="http://www.w3.org/2000/svg"
   xmlns="http://www.w3.org/2000/svg"
   xmlns:inkscape="http://www.inkscape.org/namespaces/inkscape"
   version="1.0"
   width="794.79919"
   height="290.48032"
   id="svg1883">
  <metadata
     id="metadata12">
    <rdf:RDF>
      <cc:Work
         rdf:about="">
        <dc:format>image/svg+xml</dc:format>
        <dc:type
           rdf:resource="http://purl.org/dc/dcmitype/StillImage" />
        <dc:title />
      </cc:Work>
    </rdf:RDF>
  </metadata>
  <defs
     id="defs1885">
    <clipPath
       id="clp4">
      <path
         d="M 0,216.95 0,0 l 362.68,0 0,216.95 -362.68,0 z"
         inkscape:connector-curvature="0"
         id="path5311" />
    </clipPath>
    <clipPath
       id="clp3">
      <path
         d="m 225,-404.5 0,809 450,0 0,-809 -450,0 z"
         inkscape:connector-curvature="0"
         id="path5292" />
    </clipPath>
  </defs>
  <g
     transform="translate(546.5054,-272.8066)"
     id="layer1">
    <path
       d="m 146.80955,478.13892 c -3.01685,19.39401 -9.48153,37.49518 -19.82519,51.71757 -8.6194,11.6365 -19.82494,14.22219 -24.56583,6.03372 -3.447792,-5.60276 -3.878752,-13.36051 -0.86189,-20.68707 3.01686,-8.61964 8.61964,-16.80809 13.36051,-21.97991 0,0 13.3603,-13.79147 34.04737,-28.87578 0,0 -1.72401,10.34365 -2.15497,13.79147 z M 5.0173522,351.43079 c -5.17183299,9.05057 -21.9801522,39.65012 -27.1517412,46.97692 -5.602793,7.32656 -22.411113,28.01363 -29.306712,25.85868 0,0 -0.43096,-22.41087 22.842043,-49.13167 10.343406,-11.6365 22.8417989,-21.11803 33.6164102,-25.85866 l 0,2.15473 z M 236.88417,415.2158 c -22.8418,0 -50.85543,10.77461 -71.11156,21.98015 0,-1.72402 2.5859,-31.89261 2.5859,-38.35728 0,-2.58593 -1.29282,-5.17183 -3.44779,-6.03374 -5.60278,-3.01686 -11.20557,0 -12.49838,1.72404 -6.03374,9.48152 -13.36055,20.2559 -15.94621,23.70368 -6.03374,7.3268 -24.13488,26.72081 -31.03075,24.13489 0,0 1.29308,-22.41085 25.85892,-47.40764 11.63651,-11.20554 23.70394,-18.10115 35.34019,-21.54896 6.03372,-1.72401 12.49863,0 15.08431,1.72378 1.29306,0.86191 3.44782,3.01685 4.30994,4.30993 1.72378,3.87875 1.72378,8.61941 -0.43095,15.51525 -0.86213,2.58592 -0.43117,8.18847 3.01686,9.05059 4.74065,1.29285 8.6194,-3.01685 9.91248,-6.03374 0.43093,-2.15494 1.29284,-4.74087 1.72377,-6.89584 1.72402,-7.75751 1.29309,-15.51524 -1.29284,-21.97991 -4.3097,-10.77437 -12.92932,-13.36027 -21.97991,-13.79123 -4.30994,0 -12.92934,1.29285 -14.2224,1.7238 -19.82494,4.74087 -32.75453,15.51525 -32.75453,15.51525 -13.79123,9.91269 -29.30647,28.87575 -36.633275,48.26976 -4.740643,1.72401 -8.619396,3.44781 -9.912476,3.87874 0,0 15.084309,-43.95982 15.946199,-48.26952 0.43119,-3.44782 4.309942,-9.05057 -2.585687,-18.5321 -6.033708,-8.18871 -19.394221,2.15473 -19.394221,2.15473 -7.75752,6.03371 -18.10117,16.37737 -30.599563,32.7545 l 1.724026,-9.05057 c 1.292836,-5.60279 0.861906,-12.06743 -4.309927,-15.51525 -6.464669,-4.3097 -12.498377,7.32656 -12.498377,7.32656 -3.878768,6.89584 -20.686858,43.96007 -20.686858,43.96007 -0.86212,-6.03372 2.585687,-22.84204 2.585687,-22.84204 1.293065,-6.03372 6.464669,-30.59956 7.326804,-35.77114 0.861875,-5.17183 -1.724041,-11.20557 -5.602794,-14.22243 3.878753,-1.29305 8.188695,-3.87874 8.188695,-8.61961 0,-9.48153 -11.636502,-7.32659 -11.636502,-7.32659 -25.427944,3.87877 -43.52887,22.41087 -43.52887,22.41087 -15.946445,12.92934 -34.478545,40.94297 -35.771381,64.21597 -1.724011,23.27299 24.565809,35.34042 40.512008,18.53209 9.481531,-9.48152 16.808335,-22.8418 21.5489779,-30.59952 -6.8956139,31.03048 -2.585916,49.99354 12.0674322,46.97668 6.0337389,-1.29284 12.4983929,-10.77437 17.6702099,-21.11779 1.292852,2.15473 -0.43093,3.01686 6.464669,7.75752 5.602794,3.44779 11.205572,-7.32659 11.205572,-7.32659 2.585901,-6.89584 14.653119,-32.75449 33.185449,-43.96006 0,0 -12.929582,40.94321 -13.360512,43.09794 0,0 -5.171818,14.65335 -1.292836,18.96329 4.740658,6.03372 13.360268,0.43096 13.360268,0.43096 0,0 7.757749,-5.17183 15.9462,-9.0506 2.154971,18.96306 24.134882,28.87554 39.650122,14.65336 10.77461,-9.9127 21.54899,-26.72079 21.54899,-26.72079 -0.43095,4.74066 -1.29284,15.9462 -1.7238,17.67021 -22.84204,14.65312 -35.77136,27.5827 -35.77136,27.5827 -12.49841,11.63626 -26.289854,29.30647 -28.01365,51.71758 -0.861891,10.34341 2.154971,20.25587 7.326559,26.28961 4.740888,5.60276 12.929581,6.46467 19.394251,5.17183 14.22216,-2.58593 27.15174,-15.9462 35.34019,-34.04737 4.30994,-9.48152 7.75775,-20.25613 9.91248,-31.03048 2.15497,-8.61964 3.87899,-17.67024 4.74087,-26.28985 0.86189,-3.87877 1.29285,-8.61964 1.72402,-12.49839 19.82496,-12.06745 42.23581,-22.84206 71.54252,-25.85892 6.03374,-0.86189 7.32658,-3.87874 7.32658,-6.46467 0.43117,-3.01686 -1.29284,-6.03371 -6.03374,-6.03371 z m -534.41451,-14.65312 c -1.29309,33.61641 -18.9633,45.25267 -18.9633,45.25267 -3.01685,-4.3097 -13.79123,-28.01363 0.43117,-74.99034 3.44781,-10.77458 7.32656,-20.25611 10.77437,-28.01362 5.60279,9.91248 9.0506,31.03048 7.75776,57.75129 z m -37.92635,-29.30671 c -2.15497,-7.32656 -6.03372,-14.2224 -13.79123,-18.96305 12.06744,-15.51525 21.11802,-19.82519 28.44458,-19.39423 -6.03371,11.63647 -11.20554,24.99701 -14.65335,38.35728 z m -9.91249,32.75452 c -0.43093,13.36028 -9.48153,27.58267 -14.2224,33.61641 -5.17158,6.46467 -9.48152,5.17159 -9.48152,5.17159 -5.60279,-13.79123 -5.60279,-48.70072 11.63649,-78.43815 12.06743,5.17162 12.06743,28.01366 12.06743,39.65015 z m 200.40541,-20.68709 c 16.80832,-43.95983 32.32356,-40.08106 33.61641,-36.20231 1.29305,2.5859 -6.03351,29.30671 -36.63306,45.68384 0.86191,-3.01686 1.7238,-6.03372 3.01665,-9.48153 z M 23.980398,298.42037 c 2.585902,0 4.309698,0.43095 5.171589,0.86191 1.29308,0.86213 14.653363,3.01686 15.084309,-9.48153 0.431174,-12.92934 -17.239036,-11.63649 -17.239036,-11.63649 -7.757749,0 -60.337221,3.01685 -98.263328,80.59333 1.723796,-9.0506 2.585687,-20.25614 3.447807,-30.59956 0,0 0.861891,-12.92934 -6.464669,-13.79146 -9.481531,-0.86189 -9.481531,12.49838 -9.481531,12.49838 -1.29305,17.23928 -3.878981,33.18548 -8.188679,56.02752 -9.48153,21.54895 -26.72078,51.71758 -47.83881,49.13165 0,0 -10.34341,-2.15497 -11.63649,-17.67021 9.48152,-4.3097 19.39422,-9.48153 26.72078,-15.9462 0,0 29.737659,-22.41108 34.478316,-56.8894 0,0 0.431175,-7.32656 -6.033737,-14.22216 -6.895599,-6.89587 -38.357039,-2.58593 -56.027249,28.44458 -5.17183,9.91246 -12.06746,27.58267 -14.65336,44.82195 -2.58592,0.86189 -5.17161,1.29284 -8.18847,2.15473 0,-2.5859 1.7238,-9.48153 1.7238,-10.77437 0.43093,-1.29306 6.46467,-16.37737 7.3268,-18.5321 0.86189,-1.72401 2.15473,-7.3268 -3.87898,-15.51524 -6.46467,-7.75775 -15.9462,-3.01688 -15.9462,-3.01688 -9.48153,3.44781 -18.96306,12.92934 -27.15177,23.70371 4.30994,-18.5321 7.75776,-34.4783 7.75776,-39.21896 0.86188,-9.91269 -2.5859,-10.34365 -5.17183,-12.49862 -2.58593,-2.15473 -9.05057,-5.60254 -12.49839,-3.44779 -2.58592,1.72402 -15.08431,11.20554 -29.3067,31.89261 -1.29285,-23.70392 -10.34342,-56.02749 -21.97992,-62.49216 -11.63649,-6.46467 -16.37715,-6.89563 -22.84182,1.29306 -2.5859,3.01685 -9.48153,12.06745 -16.37737,24.56584 -17.23904,-6.46468 -38.788,1.72377 -59.04414,30.59955 -15.9462,3.44781 -32.32356,19.39398 -39.65012,43.09794 0,0 -2.15497,9.05057 3.44781,12.06742 5.17183,3.01686 9.05057,-4.30991 9.05057,-4.30991 2.58593,-6.89563 6.46467,-14.22218 11.20554,-20.2559 -14.22239,41.3739 3.01686,73.26654 23.70396,75.42127 0,0 11.63626,2.58592 18.96305,-6.46467 2.5859,-3.01686 6.46467,-9.05057 9.05057,-17.23905 3.01686,12.92935 9.05057,24.56584 21.11803,26.72057 5.17159,0.86213 14.65311,1.72402 21.97991,-10.34341 6.03371,-10.34342 21.97991,-40.51204 10.34342,-87.91989 -3.01686,-12.49838 -8.18845,-22.84183 -15.08429,-30.16862 9.9127,-16.80809 18.10114,-23.70369 18.10114,-23.70369 16.3774,30.59955 8.18871,99.55615 4.7409,126.27696 -1.29308,9.48152 -2.58593,31.89237 6.8956,34.47829 5.60278,1.72402 9.91248,-6.46467 12.49839,-18.10116 l 0,0 c 0,-0.43093 0,-0.43093 0,-0.86189 1.72403,-7.32656 3.01688,-15.9462 3.87877,-23.70393 9.48152,-64.21596 31.8926,-77.57626 31.8926,-77.57626 0,9.48153 -15.94618,64.21597 -16.80832,66.80189 -0.43093,2.5859 -1.72377,12.06743 2.58593,15.51524 5.17182,4.74066 10.77461,-0.43095 15.08431,-8.61964 4.30991,-8.18868 24.13488,-37.49515 32.32356,-40.08108 0,0 -8.18868,22.41087 -9.91272,26.72081 -1.29282,4.3097 0.4312,9.05057 1.29308,9.91246 0.86189,1.29284 4.30971,8.18871 13.36028,7.75751 3.44781,-0.43093 9.48152,-2.15473 15.08431,-4.3097 0.86188,5.17183 2.15497,9.48153 4.74087,13.3603 10.34344,16.8083 37.92611,25.42794 64.215959,-9.0506 -1.29306,9.91273 -2.585899,17.23928 -3.878979,25.42797 -1.29285,8.18844 -2.58569,25.85866 4.740889,25.85866 12.92932,0 11.636484,-12.92932 16.377127,-35.34019 C -52.733952,306.17812 19.670456,298.85132 23.980398,298.42037 z M -444.92556,506.5835 c -6.89561,-7.32656 -9.91246,-23.70393 -11.63625,-42.66698 3.01684,2.5859 6.89561,5.17182 9.05057,6.89584 3.4478,2.15473 5.60253,0.43095 5.60253,0.43095 17.67021,-38.3573 28.44482,-42.23605 28.44482,-42.23605 -4.74087,66.80187 -31.46167,77.57624 -31.46167,77.57624 z m 42.23605,-93.52244 c -10.34342,-6.03371 -15.51525,-7.75772 -19.39402,-4.74087 0,0 7.32656,-37.92611 8.1887,-49.99356 0.8619,-12.49839 4.30969,-48.7007 -15.51549,-65.07809 -19.82494,-15.9462 -44.8217,-6.46467 -65.93974,13.79147 -18.96306,18.5321 -41.37414,61.1991 -45.25291,104.29704 -2.5859,24.99677 3.87877,48.26977 8.61964,61.63004 0,0 3.44782,8.18868 9.48153,6.46467 4.74087,-0.86189 1.72401,-10.77437 1.72401,-10.77437 -14.22239,-54.73444 9.0506,-98.26331 21.97993,-122.82915 12.06744,-22.84203 50.42448,-47.8388 62.06098,-38.35728 12.06745,9.48153 0.43096,72.40465 -2.5859,82.31711 -2.15497,6.89563 -12.49839,41.80509 -18.10117,60.33722 -0.86189,-29.30671 1.29308,-59.47531 1.72401,-68.09495 0,0 2.15497,-15.51524 -8.61961,-18.10093 -16.8081,-3.87898 -15.9462,5.17159 -12.92934,6.46467 1.29284,0.86189 0.86189,5.17159 0.86189,5.17159 -0.43096,12.49839 -2.5859,75.42151 2.15498,96.97049 5.17157,24.56581 16.37711,47.40785 30.59954,52.14851 14.22216,4.30994 30.59955,-6.89563 41.80485,-43.95983 11.20554,-37.49539 9.0506,-61.63006 -0.86188,-67.66378"
       inkscape:connector-curvature="0"
       id="path6161"
       style="fill:#005aaa;fill-rule:nonzero;stroke:none" />
  </g>
  <g
     id="text2989"
     style="font-size:83.07324219px;font-style:normal;font-weight:normal;line-height:125%;letter-spacing:0px;word-spacing:0px;fill:#005baa;fill-opacity:1;stroke:none;font-family:Sans">
    <path
       d="m 495.90184,265.52843 0,-24.72727 -24.92197,0 0,-17.06896 24.92197,0 0,-24.72727 16.61465,0 0,24.72727 24.98688,0 0,17.06896 -24.98688,0 0,24.72727 z"
       inkscape:connector-curvature="0"
       id="path2990"
       style="font-size:132.91719055px;font-weight:bold;fill:#005baa;-inkscape-font-specification:Sans Bold" />
    <path
       d="m 595.39503,279.22253 -18.23717,0 0,-68.73013 c -6.6632,6.23056 -14.51621,10.83853 -23.55906,13.82391 l 0,-16.54975 c 4.75939,-1.55755 9.92983,-4.51054 15.51134,-8.85898 5.58145,-4.34828 9.4106,-9.42137 11.48747,-15.21928 l 14.79742,0 z"
       inkscape:connector-curvature="0"
       id="path2992"
       style="font-size:132.91719055px;font-weight:bold;fill:#005baa;-inkscape-font-specification:Sans Bold" />
  </g>
</svg>
