<?xml version="1.0" encoding="UTF-8" standalone="no"?>
<!-- Created with Inkscape (http://www.inkscape.org/) -->
<svg xmlns:rdf="http://www.w3.org/1999/02/22-rdf-syntax-ns#" xmlns="http://www.w3.org/2000/svg" height="455.62" width="600" version="1.1" xmlns:cc="http://creativecommons.org/ns#" xmlns:dc="http://purl.org/dc/elements/1.1/">
 <defs></defs>
 <metadata>
  <rdf:RDF>
   <cc:Work rdf:about="">
    <dc:format>image/svg+xml</dc:format>
    <dc:type rdf:resource="http://purl.org/dc/dcmitype/StillImage"/>
    <dc:title/>
   </cc:Work>
  </rdf:RDF>
 </metadata>
 <g transform="translate(4.826e-6,5.8375127e-7)">
  <g fill-rule="nonzero" transform="translate(-5.174e-6,-3.9289513e-6)">
   <path d="M301.15,347.35,0.3249,173.67,3.48E-7,281.93,300.8,455.62,599.66,281.93,600,173.67,301.15,347.35z" fill="#FFF"/>
   <path d="m562.4,207.64c10.689-6.8066,25.374-12.915,24.562,2.0793-0.17869,3.2652-1.722,6.1405-3.6876,8.4635-2.1118,2.4854-4.7922,3.8987-7.7325,5.0196-5.4907,2.0793-9.8768,6.0268-12.866,11.095-3.184,5.4582-3.7525,11.81-3.7688,14.003-0.0163,3.0378,0.9097,13.743,9.3895,8.561,1.0072-0.6173,1.9169-1.2996,2.8428-2.1118,2.1606-2.0306,3.8662-4.711,4.2236-8.2198l-3.6226,2.2418c-4.2236,2.6154-4.1586-4.5485-4.1424-4.9059,0.065-7.9762,3.8987-10.348,4.1099-10.478l14.685-9.2108c0.22743-0.1462,4.4511-2.8103,4.3049,5.0359-0.51983,26.593-7.2939,45.696-25.147,56.516-13.483,8.0736-27.486,0.065-27.567-24.546-0.065-24.725,10.445-44.738,24.416-53.543" fill="#050708"/>
   <path d="m180.97,342.16c5.7344,2.8428,8.2686-1.4783,7.7163-8.3173-0.56857-6.9365-3.7688-14.214-9.7793-17.171-5.8968-2.924-8.2523,1.592-7.6838,8.5285,0.53607,6.839,4.0124,14.117,9.7468,16.96m-1.4458-53.364c18.665,11.274,33.432,35.349,33.286,60.804-0.1462,24.676-15.075,31.807-33.74,20.517-17.366-10.478-32.587-34.033-32.441-59.976,0.1462-25.456,14.75-32.311,32.896-21.346" fill="#050708"/>
   <path d="m279.84,346.77c-3.8825-2.2418-7.9274-2.193-10.673,0.0162l-13.548,10.608-14.929-27.779c-1.5432-2.989-4.8734-8.4148-9.7793-11.274-2.4205-1.4133-4.6135-2.1281-6.4979-2.1281-7.4076,0-7.6675,10.056-7.6675,11.209l-0.27617,48.231c-0.21118,3.6388,0.0325,16.05,11.501,22.759,1.1696,0.68228,2.3068,1.0234,3.3789,1.0234,6.303,0,7.9924-10.916,7.9924-17.349l0.0487-7.8137,11.891,19.575c0.64979,1.3321,1.7869,2.5179,3.184,3.3302,1.6245,0.95844,3.4601,0.64979,5.2308-0.77975l9.1296-6.3192-0.0812,13.353c0,8.7072,0.99093,20.826,9.5032,25.602,2.4205,1.3646,4.6135,2.0468,6.4817,2.0468h0.0162c5.6207,0,7.635-6.043,7.6675-11.241l0.29241-49.579c0-1.6407-0.30866-16.18-12.866-23.49" fill="#050708"/>
   <path d="m44.457,243.18c3.249,1.8844,4.8897,0.0812,4.9059-3.2165,0.01624-2.5342-1.4133-6.3192-5.1171-8.4798l-6.7741-3.9312-0.06498,11.534,7.0502,4.0937m-0.43861,27.356c3.7038,2.1606,5.1658,0.0325,5.1821-2.4854,0.01625-3.3139-1.592-7.0015-4.8409-8.8859l-7.034-4.0937-0.08122,11.534,6.7741,3.9312m19.737-8.0249c9.9093,8.8696,10.673,17.658,10.64,23.262-0.06498,12.915-7.1639,17.739-24.481,7.6513l-23.424-13.68c-14.701-8.56-14.539-23.25-14.522-23.82l0.27616-47.061c0-0.56856,0-15.351,14.702-6.8066l23.425,13.711c17.317,10.072,24.302,23.068,24.221,35.982-0.03249,5.6044-0.87722,13.451-10.835,10.77" fill="#050708"/>
   <path d="m111.62,303.38c5.8806,2.5017,8.1711-1.9494,7.2127-8.7559-0.97468-6.8878-4.5973-13.97-10.77-16.586-6.0755-2.5667-8.1386,2.0793-7.1802,8.9671,0.95844,6.8066,4.8409,13.873,10.738,16.375m-0.24367-52.747c18.649,11.258,32.701,35.397,32.554,60.869-0.14621,24.676-14.36,31.726-33.009,20.452-17.349-10.494-33.805-34.618-33.659-60.56,0.1462-25.456,15.985-31.726,34.114-20.761" fill="#050708"/>
   <path d="m494.99,248.38c3.0215-1.7382,5.6532-0.86097,7.3101,1.1534l13.158,16.358-0.0325-13.727c0-0.55232-1.3808-15.303,8.2361-20.858,9.7468-5.6207,9.7144,9.162,9.7306,9.7306l0.12996,48.149c0,0.68228,0.0487,15.416-9.6331,21.004-1.9981,1.1534-3.6876,0.73101-5.7506-1.6245l-13.321-16.992,0.0487,14.62c0,0.68228,0.0325,15.433-9.6494,21.021-9.6006,5.5395-9.6494-9.1945-9.6494-9.8768l-0.12996-48.117c0-0.55232-0.0487-15.303,9.5519-20.842" fill="#050708"/>
   <path d="m348.79,333.91c0.77975-0.45485,9.6819-5.4745,9.7306,6.2867,0.0325,12.102-9.227,17.447-9.6656,17.691l-16.391,9.4707,0.0162,6.8715,16.992-9.8118c2.9728-1.722,6.3842-1.8519,6.4004,4.1911,0.0163,6.5142-3.3789,10.185-6.3517,11.907l-16.992,9.8118,0.0163,6.7416,16.391-9.4707c0.77975-0.43861,9.6981-5.4745,9.7306,6.2867,0.0325,12.119-9.227,17.463-9.6656,17.723l-27.177,15.692c-13.158,7.6026-13.126-7.1964-13.126-7.8787l-0.12996-46.964c0-0.55232-0.12996-15.254,13.711-23.246l26.511-15.303z" fill="#050708"/>
   <path d="m447.68,325.12,12.005-6.5791-5.6369-18.064-6.3679,24.643m33.78-12.18c1.3158,2.5667,1.8844,5.2146,1.9006,7.83,0.0162,8.2361-5.4907,16.115-10.868,19.201-3.3302,1.9331-6.4329,0.86097-8.0736-2.4367l-1.8844-4.8572-19.77,11.42-2.5504,9.1133c-1.6245,5.1821-4.6947,9.8281-8.0412,11.745-4.8734,2.8266-11.924,1.2508-11.956-7.1964,0-2.5179,0.43861-5.1496,1.6732-8.9346l20.257-62.835c0.89346-2.6966,3.054-8.8859,9.0808-12.362,6.0918-3.5251,9.5032-0.3249,10.413,1.3321l19.819,37.98z" fill="#050708"/>
   <path d="M299.19,0.0000033452,600,173.67,301.14,347.35,0.33637,173.67,299.19,0.0000033452z" fill="#050708"/>
   <path d="m459.64,130.17-136.55-77.325-12.768-7.2452c-8.1061-3.0053-19.819-4.3049-34,2.6966l-188.32,109.55s-17.398,9.1458-4.7272,19.721l154.39,89.021c45.469,27.145,95.454,30.378,137.69,7.7163,27.762-14.88,27.762-40.271,13.922-56.678,22.808,6.2217,52.942,5.6532,79.193-8.4473,44.072-23.669,39.117-51.853-8.8209-79.014" fill="#FFF"/>
   <path d="m360.79,142.5-22.613-12.98c-0.2924-0.1462-0.60105-0.2924-0.95844-0.51983-4.1749-2.6479-7.5863-2.1281-9.6494-1.2671l-1.8682,1.0234c-0.17869,0.1462-0.2924,0.24367-0.2924,0.24367l-0.0487-0.0487-18.746,10.413,0.0325,0.0812s-4.4348,3.4764,0,6.3192c0.0325,0.0162,0.0325,0.0487,0.065,0.065l23.457,13.548c11.583,6.7091,23.555,7.5051,33.659,1.9494,10.137-5.5557,8.626-12.135-3.0378-18.828" fill="#050708"/>
   <path d="m281.43,191.54-26.544-15.53c-0.50359-0.12996-1.0884-0.35739-1.8032-0.81224-3.0378-1.9494-5.6857-2.1768-7.6838-1.8519l-25.049,13.906c-0.89346,1.2833-1.527,3.2652,1.2021,5.0196l0.0325,0.0325,28.25,16.635c11.014,6.4979,23.912,6.7253,33.074,1.6895,9.958-5.442,9.6331-12.59-1.4783-19.088" fill="#050708"/>
   <path d="m394.12,338.15c3.0215-1.7382,4.5323-5.3608,4.5323-8.6747-0.0163-2.5179-1.3646-6.3842-4.8247-4.3861l-8.8859,5.6207,0.0325,13.207,6.368-3.8825m18.178-2.7616c8.0087-0.84472,7.9274,4.7272,7.9599,14.344l0.0162,5.5882c0,0.68228-0.0487,14.685-11.907,21.524-11.761,6.7903-9.8281-9.1296-9.8281-9.8118l-0.0325-10.397c-0.0162-5.9293-1.4458-6.3679-2.7941-5.5882l-6.0106,4.3049,0.0487,17.934c0.0162,0.68228-0.21118,14.425-11.729,21.086-11.339,6.5466-11.794-6.8066-11.794-7.5051l-0.12995-48.101c-0.0163-0.56856-0.14621-15.254,13.564-23.165l21.687-12.801c16.147-9.3245,20.631-2.989,20.663,9.9255,0.0162,5.377-0.73101,13.808-9.7144,22.661" fill="#050708"/>
  </g>
 </g>
</svg>
