<?xml version="1.0" encoding="UTF-8" standalone="no"?>
<!-- Created with Inkscape (http://www.inkscape.org/) -->

<svg
   xmlns:dc="http://purl.org/dc/elements/1.1/"
   xmlns:cc="http://creativecommons.org/ns#"
   xmlns:rdf="http://www.w3.org/1999/02/22-rdf-syntax-ns#"
   xmlns:svg="http://www.w3.org/2000/svg"
   xmlns="http://www.w3.org/2000/svg"
   xmlns:inkscape="http://www.inkscape.org/namespaces/inkscape"
   version="1.0"
   width="144.55151"
   height="113.80717"
   id="svg12241">
  <metadata
     id="metadata10">
    <rdf:RDF>
      <cc:Work
         rdf:about="">
        <dc:format>image/svg+xml</dc:format>
        <dc:type
           rdf:resource="http://purl.org/dc/dcmitype/StillImage" />
      </cc:Work>
    </rdf:RDF>
  </metadata>
  <defs
     id="defs12243" />
  <path
     d="M 104.71477,58.47272 C 117.62339,54.00816 126.86753,43.71768 126.86753,28.47083 126.86953,24.6143 124.92721,15.34749 117.8693,9.33804 113.24812,5.39434 106.53462,0.71079 84.87792,0.18993 80.4091,0.09603 66.82548,0.56091 66.82548,0.56091 c 0,-0.002 -0.0315,0.76465 0.0245,0.79583 3.85654,3.02067 7.91858,7.79138 9.92162,13.40043 2.06574,-0.0648 5.20476,-0.2459 8.28779,-0.0648 8.69421,0.4337 12.47705,2.06823 16.38921,5.1509 3.94583,3.10749 6.07217,8.40827 6.04063,13.21937 -0.0312,6.59304 -3.14539,13.39831 -12.6333,17.24811 -7.69748,3.1454 -16.97315,3.81615 -16.97315,3.81615 l 0,2.40555 c 0,0 5.54456,2.65145 11.08878,10.01763 4.8111,6.30922 32.59559,47.25709 32.59559,47.25709 l 22.98436,0 c 0,0 -37.12464,-51.73051 -39.83669,-55.33441 z m -73.47401,39.52843 -12.84803,0 0,-83.39599 c 0.18106,0 5.75681,-0.0939 9.24413,-0.0939 14.355,0 22.33417,7.42252 22.54854,17.61909 0.15662,6.19937 -1.69653,12.11492 -8.00574,16.48346 -5.15091,3.57237 -12.32717,4.62331 -12.32717,4.62331 l 0.002,2.71169 c 0,0 10.04492,1.29437 14.99882,3.81863 9.3072,4.80862 12.26267,11.21385 12.26267,20.05582 0.002,13.40681 -13.36677,18.17788 -25.87535,18.17788 M 54.22287,52.71626 C 63.06484,47.51149 68.73449,39.83669 68.73449,28.40811 68.73649,16.17484 61.46185,0 31.05071,0 16.35803,0 0,0.5609 0,0.5609 l 0.002,113.24622 25.93807,0 c 32.99988,0 50.43578,-12.16878 50.43578,-35.1822 0.002,-13.70906 -8.59606,-22.77 -22.15311,-25.90866 z"
     inkscape:connector-curvature="0"
     id="_92567304"
     style="fill:#0086cb;fill-opacity:1;fill-rule:evenodd" />
</svg>
