<?xml version="1.0" encoding="UTF-8" standalone="no"?>
<!-- Created with Inkscape (http://www.inkscape.org/) -->

<svg
   xmlns:dc="http://purl.org/dc/elements/1.1/"
   xmlns:cc="http://creativecommons.org/ns#"
   xmlns:rdf="http://www.w3.org/1999/02/22-rdf-syntax-ns#"
   xmlns:svg="http://www.w3.org/2000/svg"
   xmlns="http://www.w3.org/2000/svg"
   xmlns:xlink="http://www.w3.org/1999/xlink"
   version="1.1"
   width="384.242"
   height="265.65546"
   id="svg9627">
  <defs
     id="defs9629">
    <clipPath
       id="clipPath4507">
      <path
         d="m 260.818,35.036 22.295,0 0,6.776 -22.295,0 0,-6.776 z"
         id="path4509" />
    </clipPath>
    <linearGradient
       x1="0"
       y1="0"
       x2="1"
       y2="0"
       id="linearGradient4493"
       gradientUnits="userSpaceOnUse"
       gradientTransform="matrix(-1.9177159,-4.4671505,4.4671505,-1.9177159,282.49259,41.302295)"
       spreadMethod="pad">
      <stop
         id="stop4495"
         style="stop-color:#d79631;stop-opacity:1"
         offset="0" />
      <stop
         id="stop4497"
         style="stop-color:#ffef2e;stop-opacity:1"
         offset="0.5" />
      <stop
         id="stop4499"
         style="stop-color:#d79631;stop-opacity:1"
         offset="1" />
    </linearGradient>
    <radialGradient
       cx="0"
       cy="0"
       r="1"
       fx="0"
       fy="0"
       id="radialGradient4471"
       gradientUnits="userSpaceOnUse"
       gradientTransform="matrix(-0.5425229,6.0828907,-6.0774184,-0.5420353,279.88198,34.635923)"
       spreadMethod="pad">
      <stop
         id="stop4473"
         style="stop-color:#d79631;stop-opacity:1"
         offset="0" />
      <stop
         id="stop4475"
         style="stop-color:#ffef2e;stop-opacity:1"
         offset="0.5" />
      <stop
         id="stop4477"
         style="stop-color:#d79631;stop-opacity:1"
         offset="1" />
    </radialGradient>
    <radialGradient
       cx="0"
       cy="0"
       r="1"
       fx="0"
       fy="0"
       id="radialGradient4449"
       gradientUnits="userSpaceOnUse"
       gradientTransform="matrix(-1.2370873,3.5873429,-3.5841085,-1.2359752,281.65774,34.684676)"
       spreadMethod="pad">
      <stop
         id="stop4451"
         style="stop-color:#d79631;stop-opacity:1"
         offset="0" />
      <stop
         id="stop4453"
         style="stop-color:#ffef2e;stop-opacity:1"
         offset="0.5" />
      <stop
         id="stop4455"
         style="stop-color:#d79631;stop-opacity:1"
         offset="1" />
    </radialGradient>
    <radialGradient
       cx="0"
       cy="0"
       r="1"
       fx="0"
       fy="0"
       id="radialGradient4427"
       gradientUnits="userSpaceOnUse"
       gradientTransform="matrix(-0.2112257,2.5023624,-2.500111,-0.2110358,282.53924,35.621261)"
       spreadMethod="pad">
      <stop
         id="stop4429"
         style="stop-color:#d79631;stop-opacity:1"
         offset="0" />
      <stop
         id="stop4431"
         style="stop-color:#ffef2e;stop-opacity:1"
         offset="0.5" />
      <stop
         id="stop4433"
         style="stop-color:#d79631;stop-opacity:1"
         offset="1" />
    </radialGradient>
    <linearGradient
       x1="0"
       y1="0"
       x2="1"
       y2="0"
       id="linearGradient4405"
       gradientUnits="userSpaceOnUse"
       gradientTransform="matrix(-0.5121178,6.4466122,-6.4466122,-0.5121178,278.39021,35.52591)"
       spreadMethod="pad">
      <stop
         id="stop4407"
         style="stop-color:#d79631;stop-opacity:1"
         offset="0" />
      <stop
         id="stop4409"
         style="stop-color:#ffef2e;stop-opacity:1"
         offset="0.5" />
      <stop
         id="stop4411"
         style="stop-color:#d79631;stop-opacity:1"
         offset="1" />
    </linearGradient>
    <linearGradient
       x1="0"
       y1="0"
       x2="1"
       y2="0"
       id="linearGradient9793"
       xlink:href="#linearGradient4405"
       gradientUnits="userSpaceOnUse"
       gradientTransform="matrix(-0.5121178,6.4466122,-6.4466122,-0.5121178,278.39021,35.52591)"
       spreadMethod="pad" />
    <radialGradient
       cx="0"
       cy="0"
       r="1"
       fx="0"
       fy="0"
       id="radialGradient9795"
       xlink:href="#radialGradient4427"
       gradientUnits="userSpaceOnUse"
       gradientTransform="matrix(-0.2112257,2.5023624,-2.500111,-0.2110358,282.53924,35.621261)"
       spreadMethod="pad" />
    <radialGradient
       cx="0"
       cy="0"
       r="1"
       fx="0"
       fy="0"
       id="radialGradient9797"
       xlink:href="#radialGradient4449"
       gradientUnits="userSpaceOnUse"
       gradientTransform="matrix(-1.2370873,3.5873429,-3.5841085,-1.2359752,281.65774,34.684676)"
       spreadMethod="pad" />
    <radialGradient
       cx="0"
       cy="0"
       r="1"
       fx="0"
       fy="0"
       id="radialGradient9799"
       xlink:href="#radialGradient4471"
       gradientUnits="userSpaceOnUse"
       gradientTransform="matrix(-0.5425229,6.0828907,-6.0774184,-0.5420353,279.88198,34.635923)"
       spreadMethod="pad" />
    <linearGradient
       x1="0"
       y1="0"
       x2="1"
       y2="0"
       id="linearGradient9801"
       xlink:href="#linearGradient4493"
       gradientUnits="userSpaceOnUse"
       gradientTransform="matrix(-1.9177159,-4.4671505,4.4671505,-1.9177159,282.49259,41.302295)"
       spreadMethod="pad" />
  </defs>
  <metadata
     id="metadata9632">
    <rdf:RDF>
      <cc:Work
         rdf:about="">
        <dc:format>image/svg+xml</dc:format>
        <dc:type
           rdf:resource="http://purl.org/dc/dcmitype/StillImage" />
        <dc:title></dc:title>
      </cc:Work>
    </rdf:RDF>
  </metadata>
  <g
     transform="translate(-179.92623,-452.61211)"
     id="layer1">
    <g
       transform="translate(-342.40774,0)"
       id="g9766">
      <g
         transform="matrix(26.912226,0,0,-26.912226,-6813.4867,1577.8661)"
         id="g4393">
        <g
           id="g4395">
          <g
             id="g4401">
            <g
               id="g4403">
              <path
                 d="m 279.722,41.812 c -1.872,0 -3.391,-1.514 -3.391,-3.387 l 0,0 c 0,-1.384 0.828,-2.571 2.015,-3.099 l 0,0 c -0.304,0.365 -0.548,0.823 -0.702,1.39 l 0,0 c -0.161,0.591 -0.122,1.094 -0.032,1.552 l 0,0 c 0.221,1.121 0.861,2.01 1.509,2.869 l 0,0 c 0.098,0.129 0.189,0.25 0.306,0.377 l 0,0 c 0.12,0.133 0.297,0.298 0.298,0.298 l 0,0 -0.003,0 z"
                 id="path4413"
                 style="fill:url(#linearGradient9793);stroke:none" />
            </g>
          </g>
        </g>
      </g>
      <g
         transform="matrix(26.912226,0,0,-26.912226,-6813.4867,1577.8661)"
         id="g4415">
        <g
           id="g4417">
          <g
             id="g4423">
            <g
               id="g4425">
              <path
                 d="m 281.221,37.823 0.003,-0.013 c 0,0 0.472,-1.302 0.709,-1.953 l 0,0 c 0.387,0.333 0.698,0.752 0.903,1.228 l 0,0 c -0.132,0.229 -0.309,0.408 -0.524,0.535 l 0,0 c -0.222,0.131 -0.497,0.227 -0.816,0.227 l 0,0 c -0.088,0 -0.18,-0.007 -0.275,-0.024"
                 id="path4435"
                 style="fill:url(#radialGradient9795);stroke:none" />
            </g>
          </g>
        </g>
      </g>
      <g
         transform="matrix(26.912226,0,0,-26.912226,-6813.4867,1577.8661)"
         id="g4437">
        <g
           id="g4439">
          <g
             id="g4445">
            <g
               id="g4447">
              <path
                 d="m 280.315,37.228 c -0.137,-0.212 -0.224,-0.472 -0.215,-0.769 l 0,0 c 0.01,-0.357 0.173,-0.634 0.351,-0.815 l 0,0 c 0.134,-0.139 0.302,-0.234 0.496,-0.287 l 0,0 c 0.04,-0.011 0.089,-0.027 0.127,-0.04 l 0,0 c 0.214,0.094 0.417,0.209 0.606,0.342 l 0,0 c -0.25,0.695 -0.5,1.39 -0.752,2.082 l 0,0 c -0.294,-0.119 -0.473,-0.296 -0.613,-0.513"
                 id="path4457"
                 style="fill:url(#radialGradient9797);stroke:none" />
            </g>
          </g>
        </g>
      </g>
      <g
         transform="matrix(26.912226,0,0,-26.912226,-6813.4867,1577.8661)"
         id="g4459">
        <g
           id="g4461">
          <g
             id="g4467">
            <g
               id="g4469">
              <path
                 d="m 279.693,39.829 c -0.5,-0.696 -1.048,-1.382 -1.265,-2.261 l 0,0 c -0.087,-0.354 -0.139,-0.757 -0.061,-1.194 l 0,0 c 0.087,-0.483 0.268,-0.838 0.51,-1.124 l 0,0 c 0.041,-0.047 0.083,-0.092 0.127,-0.137 l 0,0 c 0.231,-0.05 0.472,-0.077 0.719,-0.077 l 0,0 c 0.355,0 0.698,0.055 1.02,0.158 l 0,0 c -0.251,0.043 -0.461,0.164 -0.629,0.306 l 0,0 c -0.26,0.22 -0.507,0.573 -0.603,1.011 l 0,0 c -0.116,0.534 0,0.996 0.175,1.357 l 0,0 c 0.184,0.38 0.456,0.683 0.867,0.913 l 0,0 c -0.179,0.49 -0.352,0.989 -0.535,1.474 l 0,0 c -0.097,-0.126 -0.222,-0.282 -0.325,-0.426"
                 id="path4479"
                 style="fill:url(#radialGradient9799);stroke:none" />
            </g>
          </g>
        </g>
      </g>
      <g
         transform="matrix(26.912226,0,0,-26.912226,-6813.4867,1577.8661)"
         id="g4481">
        <g
           id="g4483">
          <g
             id="g4489">
            <g
               id="g4491">
              <path
                 d="m 280.337,40.711 c -0.031,-0.044 -0.107,-0.166 -0.107,-0.166 l 0,0 c 0,0 0.053,-0.144 0.077,-0.208 l 0,0 c 0.178,-0.497 0.335,-0.932 0.521,-1.436 l 0,0 c 0.701,0.21 1.266,0.083 1.714,-0.183 l 0,0 c 0.207,-0.122 0.405,-0.293 0.565,-0.49 l 0,0 c 0.003,0.067 0.006,0.134 0.006,0.2 l 0,0 c 0,1.447 -0.906,2.683 -2.182,3.17 l 0,0 c 0,0 -10e-4,0 -10e-4,10e-4 l 0,0 c -0.168,-0.298 -0.389,-0.604 -0.593,-0.888"
                 id="path4501"
                 style="fill:url(#linearGradient9801);stroke:none" />
            </g>
          </g>
        </g>
      </g>
    </g>
    <g
       transform="matrix(26.912226,0,0,-26.912226,-6839.2748,1715.8661)"
       id="g4503">
      <g
         clip-path="url(#clipPath4507)"
         id="g4505">
        <g
           transform="translate(262.4253,38.0159)"
           id="g4511">
          <path
             d="M 0,0 C 0,0.25 -0.05,0.445 -0.149,0.587 -0.248,0.728 -0.387,0.798 -0.567,0.798 -0.663,0.798 -0.757,0.762 -0.849,0.69 -0.941,0.617 -0.987,0.545 -0.987,0.473 l 0,-0.941 c 0,-0.072 0.055,-0.145 0.164,-0.219 0.11,-0.074 0.211,-0.111 0.305,-0.111 0.163,0 0.29,0.072 0.381,0.218 C -0.046,-0.435 0,-0.242 0,0 m 0.411,0.017 c 0,-0.249 -0.088,-0.47 -0.265,-0.661 -0.176,-0.191 -0.381,-0.287 -0.613,-0.287 -0.129,0 -0.254,0.028 -0.375,0.082 -0.082,0.038 -0.156,0.057 -0.22,0.057 -0.101,0 -0.169,-0.044 -0.201,-0.131 -0.007,-0.016 -0.024,-0.024 -0.051,-0.024 -0.035,0 -0.053,0.011 -0.053,0.033 0.011,0.113 0.016,0.25 0.016,0.41 l 0,1.982 c 0,0.11 -0.014,0.182 -0.041,0.216 -0.028,0.033 -0.089,0.055 -0.183,0.065 -0.021,0 -0.032,0.016 -0.032,0.049 0,0.039 0.011,0.058 0.032,0.058 0.241,0.063 0.412,0.135 0.513,0.216 0.021,0.016 0.038,0.024 0.051,0.024 0.038,0 0.057,-0.01 0.057,-0.032 C -0.976,1.778 -0.987,1.541 -0.987,1.362 l 0,-0.608 c 0.128,0.127 0.285,0.191 0.47,0.191 0.276,0 0.499,-0.083 0.671,-0.25 C 0.325,0.528 0.411,0.302 0.411,0.017"
             id="path4513"
             style="fill:#000000;fill-opacity:1;fill-rule:nonzero;stroke:none" />
        </g>
        <g
           transform="translate(264.3801,38.7615)"
           id="g4515">
          <path
             d="m 0,0 c 0,-0.054 -0.017,-0.1 -0.05,-0.138 -0.033,-0.038 -0.073,-0.057 -0.121,-0.057 -0.059,0 -0.118,0.019 -0.177,0.059 -0.046,0.031 -0.086,0.047 -0.12,0.047 -0.088,0 -0.179,-0.052 -0.272,-0.155 l 0,-0.916 c 0,-0.117 0.02,-0.2 0.061,-0.247 0.04,-0.046 0.127,-0.079 0.26,-0.096 0.022,-0.003 0.033,-0.021 0.033,-0.055 0,-0.038 -0.011,-0.057 -0.033,-0.057 -0.056,0 -0.134,0.004 -0.236,0.012 -0.112,0.008 -0.201,0.012 -0.267,0.012 -0.068,0 -0.15,-0.004 -0.246,-0.012 -0.086,-0.008 -0.158,-0.012 -0.213,-0.012 -0.022,0 -0.033,0.019 -0.033,0.057 0,0.034 0.011,0.052 0.033,0.055 0.118,0.015 0.193,0.042 0.227,0.083 0.033,0.041 0.049,0.127 0.049,0.26 l 0,0.752 c 0,0.108 -0.013,0.179 -0.041,0.213 -0.028,0.034 -0.09,0.056 -0.186,0.067 -0.022,0 -0.033,0.018 -0.033,0.054 0,0.033 0.011,0.05 0.033,0.05 0.134,0.033 0.245,0.071 0.332,0.113 0.087,0.041 0.144,0.076 0.171,0.106 0.016,0.017 0.032,0.025 0.048,0.025 0.038,0 0.057,-0.011 0.057,-0.033 L -0.74,-0.069 c 0.108,0.1 0.201,0.171 0.279,0.211 0.078,0.041 0.156,0.061 0.233,0.061 0.063,0 0.116,-0.02 0.161,-0.061 C -0.022,0.102 0,0.054 0,0"
             id="path4517"
             style="fill:#000000;fill-opacity:1;fill-rule:nonzero;stroke:none" />
        </g>
        <g
           transform="translate(265.4745,38.0189)"
           id="g4519">
          <path
             d="m 0,0 c -0.395,-0.09 -0.592,-0.238 -0.592,-0.445 0,-0.193 0.074,-0.289 0.223,-0.289 0.072,0 0.142,0.018 0.212,0.054 0.07,0.036 0.116,0.08 0.141,0.133 L 0,0 z m 0.311,-0.917 c -0.075,0 -0.141,0.018 -0.197,0.056 C 0.058,-0.824 0.02,-0.774 0,-0.71 c -0.145,-0.149 -0.335,-0.224 -0.57,-0.224 -0.122,0 -0.221,0.038 -0.299,0.113 -0.077,0.076 -0.116,0.169 -0.116,0.282 0,0.278 0.33,0.503 0.989,0.675 l 0.012,0.318 0,0.01 c 0,0.098 -0.024,0.175 -0.072,0.233 -0.048,0.057 -0.112,0.086 -0.192,0.086 -0.08,0 -0.148,-0.019 -0.204,-0.058 C -0.507,0.687 -0.536,0.638 -0.537,0.58 -0.538,0.493 -0.561,0.425 -0.605,0.376 -0.649,0.328 -0.708,0.303 -0.781,0.303 c -0.044,0 -0.079,0.013 -0.106,0.039 -0.027,0.026 -0.041,0.06 -0.041,0.104 0,0.104 0.095,0.213 0.285,0.328 0.19,0.115 0.366,0.172 0.529,0.172 0.147,0 0.265,-0.043 0.356,-0.13 0.091,-0.087 0.136,-0.204 0.136,-0.35 l 0,-0.025 -0.03,-0.919 0,-0.014 c 0,-0.143 0.046,-0.214 0.138,-0.214 0.045,0 0.097,0.027 0.157,0.082 l 0.014,0.004 c 0.011,0 0.021,-0.007 0.031,-0.022 0.009,-0.014 0.014,-0.029 0.014,-0.045 0,-0.04 -0.041,-0.088 -0.123,-0.145 C 0.497,-0.889 0.408,-0.917 0.311,-0.917"
             id="path4521"
             style="fill:#000000;fill-opacity:1;fill-rule:nonzero;stroke:none" />
        </g>
        <g
           transform="translate(268.0397,38.8438)"
           id="g4523">
          <path
             d="M 0,0 C 0,-0.035 -0.011,-0.053 -0.033,-0.056 -0.147,-0.068 -0.223,-0.095 -0.261,-0.138 -0.3,-0.18 -0.349,-0.267 -0.407,-0.4 L -0.991,-1.73 C -1,-1.752 -1.016,-1.763 -1.04,-1.763 c -0.024,0 -0.041,0.011 -0.05,0.033 l -0.548,1.33 c -0.05,0.125 -0.101,0.21 -0.152,0.257 -0.052,0.046 -0.122,0.075 -0.21,0.087 -0.021,0.003 -0.032,0.021 -0.032,0.055 0,0.038 0.01,0.057 0.031,0.057 0.054,0 0.121,-0.004 0.202,-0.012 0.086,-0.008 0.161,-0.012 0.225,-0.012 0.064,0 0.142,0.004 0.234,0.012 0.083,0.008 0.153,0.012 0.208,0.012 0.022,0 0.033,-0.019 0.033,-0.057 0,-0.034 -0.011,-0.052 -0.033,-0.055 -0.081,-0.011 -0.137,-0.025 -0.168,-0.044 -0.03,-0.018 -0.046,-0.045 -0.046,-0.08 0,-0.042 0.02,-0.115 0.06,-0.218 l 0.329,-0.8 0.337,0.798 c 0.043,0.102 0.064,0.175 0.064,0.22 0,0.035 -0.015,0.062 -0.047,0.08 -0.031,0.019 -0.086,0.033 -0.163,0.044 -0.022,0.003 -0.033,0.021 -0.033,0.055 0,0.038 0.011,0.057 0.033,0.057 0.057,0 0.121,-0.004 0.193,-0.012 0.07,-0.008 0.132,-0.012 0.188,-0.012 0.028,0 0.074,0.003 0.138,0.01 0.088,0.009 0.159,0.014 0.213,0.014 C -0.011,0.056 0,0.037 0,0"
             id="path4525"
             style="fill:#000000;fill-opacity:1;fill-rule:nonzero;stroke:none" />
        </g>
        <g
           transform="translate(269.0385,38.0189)"
           id="g4527">
          <path
             d="m 0,0 c -0.395,-0.09 -0.592,-0.238 -0.592,-0.445 0,-0.193 0.074,-0.289 0.223,-0.289 0.072,0 0.142,0.018 0.212,0.054 0.069,0.036 0.116,0.08 0.141,0.133 L 0,0 z m 0.311,-0.917 c -0.075,0 -0.141,0.018 -0.197,0.056 C 0.058,-0.824 0.02,-0.774 0,-0.71 c -0.145,-0.149 -0.335,-0.224 -0.57,-0.224 -0.122,0 -0.221,0.038 -0.299,0.113 -0.077,0.076 -0.116,0.169 -0.116,0.282 0,0.278 0.33,0.503 0.989,0.675 l 0.012,0.318 0,0.01 c 0,0.098 -0.024,0.175 -0.072,0.233 -0.048,0.057 -0.112,0.086 -0.192,0.086 -0.08,0 -0.148,-0.019 -0.204,-0.058 C -0.507,0.687 -0.536,0.638 -0.537,0.58 -0.538,0.493 -0.561,0.425 -0.605,0.376 -0.649,0.328 -0.708,0.303 -0.781,0.303 c -0.044,0 -0.079,0.013 -0.106,0.039 -0.027,0.026 -0.041,0.06 -0.041,0.104 0,0.104 0.095,0.213 0.285,0.328 0.19,0.115 0.366,0.172 0.529,0.172 0.147,0 0.265,-0.043 0.356,-0.13 0.091,-0.087 0.136,-0.204 0.136,-0.35 l 0,-0.025 -0.03,-0.919 0,-0.014 c 0,-0.143 0.046,-0.214 0.138,-0.214 0.045,0 0.097,0.027 0.157,0.082 l 0.014,0.004 c 0.011,0 0.021,-0.007 0.031,-0.022 0.009,-0.014 0.014,-0.029 0.014,-0.045 0,-0.04 -0.041,-0.088 -0.123,-0.145 C 0.497,-0.889 0.408,-0.917 0.311,-0.917"
             id="path4529"
             style="fill:#000000;fill-opacity:1;fill-rule:nonzero;stroke:none" />
        </g>
        <g
           transform="translate(272.8486,37.2032)"
           id="g4531">
          <path
             d="m 0,0 c 0,-0.038 -0.011,-0.057 -0.033,-0.057 -0.054,0 -0.121,0.004 -0.201,0.012 -0.087,0.008 -0.163,0.012 -0.228,0.012 -0.069,0 -0.147,-0.004 -0.235,-0.012 -0.081,-0.008 -0.148,-0.012 -0.203,-0.012 -0.021,0 -0.032,0.019 -0.032,0.057 0,0.034 0.011,0.052 0.032,0.055 0.094,0.011 0.156,0.037 0.185,0.079 0.029,0.042 0.044,0.13 0.044,0.265 l 0,0.679 c 0,0.293 -0.134,0.44 -0.4,0.44 -0.169,0 -0.314,-0.068 -0.436,-0.204 l 0,-0.915 c 0,-0.122 0.017,-0.207 0.053,-0.255 C -1.419,0.097 -1.35,0.067 -1.246,0.055 -1.225,0.052 -1.214,0.034 -1.214,0 c 0,-0.038 -0.01,-0.057 -0.032,-0.057 -0.056,0 -0.128,0.004 -0.217,0.012 -0.101,0.008 -0.184,0.012 -0.25,0.012 -0.068,0 -0.145,-0.004 -0.232,-0.012 -0.077,-0.008 -0.143,-0.012 -0.199,-0.012 -0.022,0 -0.033,0.019 -0.033,0.057 0,0.034 0.011,0.052 0.033,0.055 0.114,0.012 0.188,0.039 0.222,0.08 0.034,0.042 0.051,0.129 0.051,0.263 l 0,1.889 c 0,0.109 -0.014,0.181 -0.04,0.215 -0.027,0.034 -0.088,0.056 -0.184,0.067 -0.022,0.003 -0.033,0.02 -0.033,0.052 0,0.036 0.011,0.054 0.033,0.054 0.231,0.054 0.402,0.126 0.513,0.216 0.02,0.016 0.037,0.024 0.05,0.024 0.038,0 0.057,-0.011 0.057,-0.032 C -1.497,2.66 -1.507,2.424 -1.507,2.175 l 0,-0.69 c 0.194,0.184 0.386,0.277 0.575,0.277 0.193,0 0.346,-0.053 0.456,-0.159 0.111,-0.106 0.167,-0.248 0.167,-0.427 l 0,-0.777 c 0,-0.133 0.017,-0.22 0.052,-0.262 C -0.223,0.096 -0.148,0.068 -0.033,0.055 -0.011,0.052 0,0.034 0,0"
             id="path4533"
             style="fill:#000000;fill-opacity:1;fill-rule:nonzero;stroke:none" />
        </g>
        <g
           transform="translate(274.4739,37.4986)"
           id="g4535">
          <path
             d="m 0,0 0,1.043 c 0,0.071 -0.041,0.137 -0.123,0.2 -0.082,0.062 -0.171,0.093 -0.268,0.093 -0.396,0 -0.594,-0.278 -0.594,-0.835 0,-0.22 0.048,-0.403 0.143,-0.548 0.095,-0.145 0.22,-0.218 0.374,-0.218 0.088,0 0.168,0.02 0.24,0.06 C -0.156,-0.165 -0.08,-0.096 0,0 M 0.622,-0.217 C 0.622,-0.246 0.612,-0.262 0.59,-0.265 0.513,-0.274 0.423,-0.293 0.321,-0.322 0.219,-0.35 0.139,-0.379 0.082,-0.407 0.052,-0.422 0.03,-0.43 0.016,-0.43 c -0.021,0 -0.032,0.011 -0.032,0.033 L 0,-0.177 c -0.144,-0.158 -0.327,-0.236 -0.549,-0.236 -0.235,0 -0.435,0.09 -0.599,0.27 -0.165,0.181 -0.248,0.397 -0.248,0.649 0,0.286 0.092,0.518 0.274,0.695 0.183,0.177 0.411,0.265 0.687,0.265 0.157,0 0.302,-0.048 0.435,-0.146 L 0,1.996 C 0,2.105 -0.014,2.177 -0.041,2.211 -0.068,2.245 -0.13,2.267 -0.228,2.278 -0.249,2.281 -0.26,2.298 -0.26,2.33 c 0,0.036 0.011,0.054 0.032,0.054 0.128,0.03 0.239,0.066 0.333,0.108 0.094,0.042 0.157,0.079 0.19,0.111 0.013,0.014 0.027,0.021 0.042,0.021 0.039,0 0.058,-0.011 0.058,-0.033 C 0.373,2.296 0.362,2.06 0.362,1.884 l 0,-1.791 c 0,-0.094 0.014,-0.156 0.041,-0.188 0.027,-0.032 0.089,-0.055 0.187,-0.068 0.022,0 0.032,-0.018 0.032,-0.054"
             id="path4537"
             style="fill:#000000;fill-opacity:1;fill-rule:nonzero;stroke:none" />
        </g>
      </g>
    </g>
  </g>
</svg>
