<?xml version="1.0" encoding="UTF-8" standalone="no"?>
<!-- Created with Inkscape (http://www.inkscape.org/) -->

<svg
   xmlns:dc="http://purl.org/dc/elements/1.1/"
   xmlns:cc="http://creativecommons.org/ns#"
   xmlns:rdf="http://www.w3.org/1999/02/22-rdf-syntax-ns#"
   xmlns:svg="http://www.w3.org/2000/svg"
   xmlns="http://www.w3.org/2000/svg"
   xmlns:inkscape="http://www.inkscape.org/namespaces/inkscape"
   version="1.0"
   width="859.28125"
   height="366.125"
   id="svg1879">
  <metadata
     id="metadata8">
    <rdf:RDF>
      <cc:Work
         rdf:about="">
        <dc:format>image/svg+xml</dc:format>
        <dc:type
           rdf:resource="http://purl.org/dc/dcmitype/StillImage" />
      </cc:Work>
    </rdf:RDF>
  </metadata>
  <defs
     id="defs1881" />
  <path
     d="m 333.64771,187.76234 c 41.43614,-14.3274 71.08511,-47.3641 71.08511,-96.431101 0,-12.2882 -6.22382,-42.127109 -28.81417,-61.373289 C 361.03109,17.27185 339.5016,2.25886 270.00176,0.58146 255.63046,0.22961 211.93688,1.78618 211.93688,1.78618 l 0,2.51185 c 12.33922,9.42413 25.60571,25.04339 31.98614,43.04905 6.63981,-0.21826 16.6904,-0.75259 26.62052,-0.21826 27.90992,1.48712 40.06169,6.70641 52.63759,16.592949 12.64996,9.93012 19.45418,26.98507 19.37197,42.460871 -0.0797,21.1135 -10.10232,42.9332 -40.58327,55.355 -24.66566,10.0583 -54.49429,12.2697 -54.49429,12.2697 l -0.0206,7.6929 c 0,0 17.86146,8.5532 35.71051,32.1583 15.37796,20.3149 104.6328,151.7042 104.6328,151.7042 l 73.74043,0 c 0,0 -119.16563,-166.0032 -127.89102,-177.6004 z m -235.865186,126.9021 -41.292294,0 0,-267.84141 c 0.57792,0 18.52973,-0.22854 29.710634,-0.22854 46.103026,0 71.665156,23.841489 72.381966,56.56215 0.44433,19.8627 -5.44535,38.919 -25.70634,52.9356 -16.53874,11.4633 -39.581216,14.8794 -39.581216,14.8794 l 0,8.6255 c 0,0 31.942556,4.7569 48.160276,12.3417 30.20385,14.0988 39.17303,36.0088 39.38137,64.3347 0.33626,44.7906 -42.90519,58.3909 -83.054396,58.3909 z M 0,1.67315 l 0,363.68859 80.70165,0 c 105.94523,0 161.95252,-39.037 161.95252,-112.9139 0,-43.9813 -27.61973,-73.0778 -71.09504,-83.1724 28.3259,-16.7623 46.51901,-41.4025 46.51901,-78.117501 C 218.07814,51.89492 194.77381,0 97.173784,0 56.08452,0 11.05264,1.32768 0,1.67209 z"
     inkscape:connector-curvature="0"
     id="path10"
     style="fill:#0086cb;fill-rule:evenodd;stroke:none" />
  <path
     d="m 755.96875,158.625 c -11.13975,2e-4 -22.56527,0.18887 -34.3125,0.59375 -11.5448,0.20274 -22.70293,0.50138 -33.4375,0.90625 l 0,204.46875 c 5.06347,0.20254 8.8195,0.3125 11.25,0.3125 20.05137,0.81016 35.86143,1.21875 47.40625,1.21875 34.22908,0 61.46465,-9.33509 81.71875,-27.96875 20.45632,-18.6336 30.6873,-45.16195 30.6875,-79.59375 -2e-4,-17.82337 -2.42049,-33.11486 -7.28125,-45.875 -4.65859,-12.75983 -11.54214,-23.06953 -20.65625,-30.96875 -8.9119,-7.89885 -19.7714,-13.69784 -32.53125,-17.34375 -12.55757,-3.84805 -26.84322,-5.7498 -42.84375,-5.75 z m -269.78125,1.21875 0,205.0625 42.53125,0 0,-87.5 82.3125,0 0,87.5 42.53125,0 0,-205.0625 -42.53125,0 0,80.8125 -82.3125,0 0,-80.8125 -42.53125,0 z m 266.75,34.625 c 21.67163,1.7e-4 37.18306,5.7679 46.5,17.3125 9.31668,11.34236 13.96861,28.04831 13.96875,50.125 -1.4e-4,22.48198 -5.68918,39.40785 -17.03125,50.75 -11.34234,11.34226 -26.52387,17.00003 -45.5625,17 -6.88642,3e-5 -13.55005,-0.40855 -20.03125,-1.21875 l 0,-133.375 c 4.05073,-0.40491 11.42158,-0.59358 22.15625,-0.59375 z"
     inkscape:connector-curvature="0"
     id="path3763"
     style="font-size:303.80941772px;font-style:normal;font-variant:normal;font-weight:bold;font-stretch:normal;text-align:start;line-height:125%;letter-spacing:-11.5556469px;word-spacing:0px;writing-mode:lr-tb;text-anchor:start;fill:#0086cb;fill-opacity:1;stroke:none;font-family:TheSansCorrespondence;-inkscape-font-specification:TheSansCorrespondence Bold Italic" />
</svg>
