<?xml version="1.0" encoding="UTF-8" standalone="no"?>
<!-- Created with Inkscape (http://www.inkscape.org/) -->

<svg
   xmlns:dc="http://purl.org/dc/elements/1.1/"
   xmlns:cc="http://creativecommons.org/ns#"
   xmlns:rdf="http://www.w3.org/1999/02/22-rdf-syntax-ns#"
   xmlns:svg="http://www.w3.org/2000/svg"
   xmlns="http://www.w3.org/2000/svg"
   version="1.0"
   width="260"
   height="383"
   id="svg2">
  <metadata
     id="metadata3049">
    <rdf:RDF>
      <cc:Work
         rdf:about="">
        <dc:format>image/svg+xml</dc:format>
        <dc:type
           rdf:resource="http://purl.org/dc/dcmitype/StillImage" />
        <dc:title></dc:title>
      </cc:Work>
    </rdf:RDF>
  </metadata>
  <defs
     id="defs3047" />
  <g
     transform="translate(-13.778116,-657.93681)"
     id="layer1">
    <g
       transform="matrix(1,0,0,-1,539.50507,530.44852)"
       id="g3663">
      <text
         transform="scale(1,-1)"
         id="text3665">
        <tspan
           x="510.19601"
           y="-69.729797"
           id="tspan3667"
           style="font-size:10px;letter-spacing:0;fill:#221e1f;fill-rule:nonzero;stroke:none;font-family:font2" />
      </text>
    </g>
    <text
       x="539.50507"
       y="530.44855"
       id="text3669">
      <tspan
         x="1058.42"
         y="460.71872"
         id="tspan3671"
         style="font-size:7px;letter-spacing:0;fill:#f78712;fill-rule:nonzero;stroke:none;font-family:font3"></tspan>
    </text>
    <g
       transform="matrix(15.629255,0,0,-15.629255,-2582.3035,5031.5808)"
       id="g4313">
      <path
         d="m 182.73946,259.71277 -16.63585,0 0,20.12454 16.63585,0 0,-20.12454 z"
         id="path4315"
         style="fill:#f57116;fill-rule:nonzero;stroke:none" />
      <path
         d="m 177.38141,272.38635 c 0,1.59494 -1.27672,2.88513 -2.85495,2.88513 -1.60169,0 -2.87837,-1.29019 -2.87837,-2.88513 0,-1.59527 1.27668,-2.88522 2.85504,-2.88522 1.60156,0 2.87828,1.26651 2.87828,2.88522 z m -7.21892,-11.77572 4.17809,5.13736 -0.18557,0 -0.16243,0 -0.60354,0.0234 c -0.48741,0.0235 -1.55536,0.25794 -2.20517,0.51603 -2.59961,0.98516 -4.15488,3.19024 -4.15488,5.95819 0,3.9407 3.06389,6.66177 7.47414,6.66177 4.24774,0 7.2885,-2.65073 7.2885,-6.35699 0,-2.04065 -0.99826,-4.59763 -2.64611,-6.779 l -3.87635,-5.16079 -5.10668,0 z"
         id="path4317"
         style="fill:#ffffff;fill-rule:nonzero;stroke:none" />
      <path
         d="m 168.29369,255.47734 c -0.14165,-0.0718 -0.46434,-0.13136 -0.69269,-0.13136 -0.85401,0 -1.46807,0.62056 -1.46807,1.48364 0,0.90674 0.70847,1.61914 1.61763,1.61914 0.23224,0 0.46067,-0.0481 0.70456,-0.15137 0.12989,-0.0558 0.17705,-0.0914 0.17705,-0.13513 l 0,-0.012 -0.0708,-0.58441 -0.0275,-0.0758 -0.0274,0.0121 -0.0434,0.0358 c -0.14169,0.11914 -0.40941,0.19467 -0.64158,0.19467 -0.5353,0 -0.92092,-0.36587 -0.92092,-0.86697 0,-0.46951 0.33458,-0.80356 0.8069,-0.80356 0.24002,0 0.55489,0.0796 0.64922,0.16312 l 0.0237,0.0159 0.0158,-0.02 -0.004,-0.0436 -0.055,-0.64836 -0.0434,-0.0518 z"
         id="path4319"
         style="fill:#0e0b0c;fill-rule:nonzero;stroke:none" />
      <path
         d="m 170.43538,256.54733 -0.11011,0.52106 c -0.0236,0.11136 -0.0394,0.17502 -0.0435,0.19891 -0.0157,0.0912 -0.0236,0.13501 -0.0392,0.25058 l -0.0354,-0.1036 -0.0985,-0.25022 -0.27551,-0.61673 0.60217,0 z m -1.12569,-1.14183 -0.8264,0 1.46018,2.98354 0.84224,0 0.71646,-2.98354 -0.78727,0 -0.12976,0.54523 -1.02726,0 -0.24819,-0.54523 z"
         id="path4321"
         style="fill:#0e0b0c;fill-rule:nonzero;stroke:none" />
      <path
         d="m 174.62048,255.4055 -0.81852,0 -0.78701,1.3366 c -0.0355,0.0634 -0.0788,0.13928 -0.12588,0.23495 -0.0986,0.18701 -0.13782,0.27005 -0.23647,0.50479 l 0,-0.13492 c 0,-0.21899 -0.008,-0.38186 -0.0314,-0.56503 l -0.16528,-1.37639 -0.74774,0 0.36203,2.98354 0.80693,0 0.84213,-1.43997 0.12608,-0.23871 0.11397,-0.23072 0.059,-0.11123 0.004,0.12335 c 0.004,0.11523 0.0158,0.26233 0.0314,0.38962 l 0.18511,1.50766 0.74392,0 -0.36235,-2.98354 z"
         id="path4323"
         style="fill:#0e0b0c;fill-rule:nonzero;stroke:none" />
      <path
         d="m 176.77144,256.54733 -0.11019,0.52106 c -0.0237,0.11136 -0.0394,0.17502 -0.0433,0.19891 -0.0156,0.0912 -0.0235,0.13501 -0.0392,0.25058 l -0.0354,-0.1036 -0.0984,-0.25022 -0.27569,-0.61673 0.6022,0 z m -1.12538,-1.14183 -0.82674,0 1.46036,2.98354 0.84213,0 0.71642,-2.98354 -0.78719,0 -0.12981,0.54523 -1.02723,0 -0.24794,-0.54523 z"
         id="path4325"
         style="fill:#0e0b0c;fill-rule:nonzero;stroke:none" />
      <path
         d="m 178.87079,256.06201 0.94058,0 -0.0788,-0.65651 -1.68842,0 0.36216,2.98354 0.74777,0 -0.28325,-2.32703 z"
         id="path4327"
         style="fill:#0e0b0c;fill-rule:nonzero;stroke:none" />
      <path
         d="m 181.98776,257.40231 c 0,0.27051 -0.21632,0.48944 -0.48399,0.48944 -0.27159,0 -0.48799,-0.21893 -0.48799,-0.48944 0,-0.27044 0.2164,-0.48913 0.48407,-0.48913 0.27159,0 0.48791,0.21475 0.48791,0.48913 z m -1.22401,-1.99681 0.70842,0.87126 -0.0313,0 -0.0277,0 -0.10231,0.004 c -0.0828,0.004 -0.26362,0.0437 -0.37388,0.0876 -0.44092,0.16693 -0.7045,0.54074 -0.7045,1.01013 0,0.66843 0.51945,1.12964 1.26735,1.12964 0.72021,0 1.23594,-0.44937 1.23594,-1.07782 0,-0.34604 -0.1694,-0.77951 -0.44888,-1.14954 l -0.65707,-0.87532 -0.86609,0 z"
         id="path4329"
         style="fill:#0e0b0c;fill-rule:nonzero;stroke:none" />
    </g>
  </g>
</svg>
