<?xml version="1.0" encoding="UTF-8" standalone="no"?>
<!-- Created with Inkscape (http://www.inkscape.org/) -->

<svg
   xmlns:dc="http://purl.org/dc/elements/1.1/"
   xmlns:cc="http://creativecommons.org/ns#"
   xmlns:rdf="http://www.w3.org/1999/02/22-rdf-syntax-ns#"
   xmlns:svg="http://www.w3.org/2000/svg"
   xmlns="http://www.w3.org/2000/svg"
   version="1.1"
   width="600"
   height="302.75122"
   viewBox="0 0 480 242.20098"
   id="svg3031">
  <metadata
     id="metadata3075">
    <rdf:RDF>
      <cc:Work
         rdf:about="">
        <dc:format>image/svg+xml</dc:format>
        <dc:type
           rdf:resource="http://purl.org/dc/dcmitype/StillImage" />
        <dc:title></dc:title>
      </cc:Work>
    </rdf:RDF>
  </metadata>
  <defs
     id="defs3073" />
  <g
     id="g7648">
    <path
       d="m 0.02466381,62.290578 c 164.33284619,0 332.06611619,-1.7e-4 479.86839619,-1.7e-4 0.21833,60.045142 0.0416,119.854942 0,179.900072 -150.52735,0 -348.12272,0.0105 -479.86840658,0.0105 0,-60.22826 0.03119029,-119.93857 0,-179.910027 z"
       id="path3053"
       style="fill:#3d961f;fill-opacity:1" />
    <path
       d="M 0.02640825,0.01811529 C 89.286543,-0.04715186 245.48031,0.09051752 334.74045,0.01799846 c 0.008,20.71869654 -0.0235,41.55371354 -1.8e-4,62.27240954 -104.30163,0 -237.30009,1.17e-4 -334.71386175,1.17e-4 -0.08542383,-20.754956 0.06989222,-41.517454 0,-62.27240971 z"
       id="path3035"
       style="fill:#000000" />
    <path
       d="m 25.580378,11.226662 c 6.940074,-1.9362592 15.054957,-1.5374043 21.146559,2.62519 -0.239313,3.08206 -0.971756,6.106105 -1.762213,9.09389 -4.126335,-2.62519 -9.188166,-4.010304 -14.017935,-2.762976 -3.437404,0.891985 -6.432441,3.437404 -7.658013,6.787784 -0.746947,2.559923 -0.746947,5.301144 0,7.861067 1.240076,3.625953 4.720991,6.367174 8.549997,6.65725 3.473663,0.30458 6.802288,-0.957252 10.138165,-1.71145 -0.493129,3.154579 -0.442366,6.454197 -1.595419,9.456486 C 37.34297,51.43123 33.252895,51.3152 29.655949,51.148406 22.570837,50.909093 15.674274,46.565201 12.824275,40.009478 10.895268,35.904899 11.062062,31.198412 11.533435,26.796505 12.817023,19.522843 18.582288,13.402234 25.580378,11.226662 z"
       id="path3037"
       style="fill:#ffffff" />
    <path
       d="m 212.58529,22.807956 c 0.13778,-4.322136 -0.14504,-8.644272 0.16679,-12.9519045 3.83626,0.079771 7.67252,-0.014504 11.51603,0.072519 0.11603,4.3076325 -0.1668,8.6225165 0.15954,12.9228975 4.5687,-0.05076 9.14465,-0.07252 13.71335,0.0073 0.1668,3.923281 0.0943,7.853814 0.0435,11.777095 -4.64122,0.224809 -9.28969,-0.07977 -13.92366,0.18855 0.029,4.931296 0.058,9.862592 -0.0145,14.801141 -3.82901,0.05801 -7.65801,-0.02176 -11.47977,0.05801 -0.34809,-4.974808 -0.0435,-9.971371 -0.16679,-14.953431 -4.9313,-0.03626 -9.86259,0.02176 -14.79389,-0.03626 -0.0145,-3.966793 -0.18855,-7.933586 0.11603,-11.893127 4.88779,0.02176 9.77557,0.02176 14.66336,0.0073 z"
       id="path3039"
       style="fill:#ffffff" />
    <path
       d="m 62.398306,11.669028 c 4.52519,-0.130534 9.050379,-0.07977 13.575572,-0.03626 2.530915,12.66908 5.43893,25.265641 7.75954,37.970981 -3.321374,0.07252 -6.635495,0.07252 -9.956868,-0.0073 -0.60916,-2.037786 -1.167557,-4.097327 -1.479392,-6.207632 -4.409159,-0.594656 -8.912592,-0.195801 -13.350759,-0.239313 -2.117557,1.377863 -2.175572,4.554197 -3.923281,6.381678 -3.756488,0.253817 -7.534731,0.09428 -11.29847,0.06527 1.762213,-4.532441 4.30038,-8.716791 6.31641,-13.133202 4.119083,-8.267173 8.223662,-16.534347 12.357248,-24.794268 z"
       id="path3041"
       style="fill:#ffffff" />
    <path
       d="m 93.625018,11.611013 c 3.785495,-0.0145 7.570982,-0.02901 11.356482,0.0145 4.13359,7.041601 8.10038,14.184728 12.24122,21.226329 1.05878,-7.070608 1.86374,-14.170225 3.05305,-21.211826 3.54618,-0.07252 7.09962,-0.02901 10.6458,-0.03626 -1.45038,12.640073 -3.6042,25.200374 -5.04733,37.833195 -3.29962,0.355344 -6.64274,0.261069 -9.94961,0.137786 -1.12405,0.03626 -1.31985,-1.363358 -1.91451,-2.045037 -4.09007,-6.911067 -7.74503,-14.11221 -12.14694,-20.827475 -1.09504,7.621753 -1.965263,15.29427 -3.28511,22.872512 -3.401144,0.101527 -6.802288,0.159542 -10.196181,-0.05076 1.762214,-12.632821 3.30687,-25.301901 5.243129,-37.912966 z"
       id="path3043"
       style="fill:#ffffff" />
    <path
       d="m 148.62347,11.611013 c 4.33664,-0.02176 8.68053,-0.0145 13.01717,0 2.75573,12.647324 5.34466,25.330909 8.08588,37.985485 -3.46641,0.07977 -6.93282,0.101527 -10.39198,-0.02176 -0.5584,-2.139312 -0.84122,-4.343892 -1.50115,-6.461448 -4.38015,0.09427 -8.78206,-0.203054 -13.1477,0.137786 -1.34161,1.965267 -2.10306,4.264121 -3.47367,6.207632 -3.68396,0.427862 -7.42595,0.11603 -11.13167,0.137786 5.9103,-12.785111 12.43702,-25.287397 18.54312,-37.985485 z"
       id="path3045"
       style="fill:#ffffff" />
    <path
       d="m 179.19026,11.618265 c 3.57519,-0.02901 7.14312,-0.02176 10.71831,-0.0145 -1.08778,9.768318 -2.6687,19.471368 -3.83625,29.21793 3.829,0.123283 7.67251,-0.0073 11.50877,0.101527 -0.36259,2.879007 -0.85572,5.74351 -1.18931,8.629769 -7.57824,0.210305 -15.15649,0.05076 -22.73473,0.07977 1.74771,-12.683585 3.53893,-25.367169 5.53321,-38.014493 z"
       id="path3047"
       style="fill:#ffffff" />
    <path
       d="m 153.38797,22.336582 c 1.24733,3.974045 2.03054,8.093128 2.80649,12.183203 -2.72671,0.05802 -5.45343,0.05802 -8.1729,0 1.6897,-4.104579 3.61871,-8.107631 5.36641,-12.183203 z"
       id="path3049"
       style="fill:#000000" />
    <path
       d="m 65.79945,26.013299 c 0.507634,-1.008015 0.76145,-2.291603 1.834733,-2.879007 0.775954,3.84351 1.798472,7.629005 2.668701,11.45076 -2.712213,-0.04351 -5.424426,-0.02901 -8.143891,-0.02176 1.015267,-2.92977 2.458397,-5.685494 3.640457,-8.549997 z"
       id="path3051"
       style="fill:#000000" />
    <path
       d="m 93.625018,11.611013 c 3.785495,-0.0145 7.570982,-0.02901 11.356482,0.0145 4.13359,7.041601 8.10038,14.184728 12.24122,21.226329 1.05878,-7.070608 1.86374,-14.170225 3.05305,-21.211826 3.54618,-0.07252 7.09962,-0.02901 10.6458,-0.03626 -1.45038,12.640073 -3.6042,25.200374 -5.04733,37.833195 -2.68629,-0.174035 -10.40745,-0.32221 -11.86412,-1.907251 -4.09007,-6.911067 -7.74503,-14.11221 -12.14694,-20.827475 -1.09504,7.621753 -1.965263,15.29427 -3.28511,22.872512 -3.401144,0.101527 -6.802288,0.159542 -10.196181,-0.05076 1.762214,-12.632821 3.30687,-25.301901 5.243129,-37.912966 z"
       id="path3077"
       style="fill:#ffffff" />
    <path
       d="m 93.625018,11.611013 c 3.785495,-0.0145 7.570982,-0.02901 11.356482,0.0145 4.13359,7.041601 8.10038,14.184728 12.24122,21.226329 1.05878,-7.070608 1.86374,-14.170225 3.05305,-21.211826 3.54618,-0.07252 7.09962,-0.02901 10.6458,-0.03626 -1.45038,12.640073 -3.6042,25.200374 -5.04733,37.833195 -2.76308,0.286651 -10.40745,-0.32221 -11.86412,-1.907251 -4.09007,-6.911067 -7.74503,-14.11221 -12.14694,-20.827475 -1.09504,7.621753 -1.965263,15.29427 -3.28511,22.872512 -3.401144,0.101527 -6.802288,0.159542 -10.196181,-0.05076 1.762214,-12.632821 3.30687,-25.301901 5.243129,-37.912966 z"
       id="path3079"
       style="fill:#ffffff" />
    <g
       transform="matrix(0.59215963,0,0,0.59215963,11.522579,1.6067356)"
       id="g3189">
      <path
         d="m 399.95216,11.763127 c 45.57322,0 91.1345,0.01195 136.70773,0 -0.10752,25.528173 0.14335,51.068291 -0.13141,76.60841 -45.52544,-0.167242 -91.05088,0.03584 -136.57632,-0.107513 0.0239,-25.504281 0.012,-50.996616 0,-76.500897 z"
         id="path3091"
         style="fill:#ff0000" />
      <path
         d="m 410.02247,22.012623 c 5.37561,-0.01195 10.73927,-0.01195 16.10294,0.01195 -0.012,6.629918 0.0239,13.259837 -0.0358,19.889755 6.18792,0.01195 12.3639,0 18.55183,0.01195 -0.0478,-6.641864 -0.0239,-13.283729 -0.0239,-19.925593 5.19643,0.01195 10.40479,0.02389 15.61316,-0.03584 0.11946,18.695175 0.0717,37.402297 0.0239,56.097472 -5.22031,-0.08362 -10.42868,-0.05973 -15.64899,-0.04778 0,-7.908119 0.0478,-15.816238 -0.0239,-23.724357 -6.15209,0.03584 -12.29223,0.02389 -18.44432,0.01195 -0.0239,7.884227 -0.0119,15.7804 0,23.664628 -5.37561,0.05973 -10.75122,0.04778 -16.11488,0.03584 0.0119,-18.671284 0,-37.330622 0,-55.98996 z"
         id="path3097"
         style="fill:#ffffff" />
      <path
         d="m 474.52978,22.012623 c 13.2479,0.776477 27.53507,-2.401106 39.86314,3.846547 13.73766,7.406396 17.23778,27.033343 8.816,39.636161 -4.41995,7.143588 -12.45947,11.372401 -20.70207,12.101095 -9.31773,0.645073 -18.65934,0.358374 -27.98901,0.394211 0.0358,-18.659338 0.0119,-37.318676 0.0119,-55.978014 z"
         id="path3099"
         style="fill:#ffffff" />
      <path
         d="m 490.66856,34.030097 c 6.60603,-0.406157 14.65749,0.322536 18.3368,6.713539 3.30899,6.450731 3.22537,15.493701 -1.87549,21.036552 -4.31243,4.372162 -10.83484,4.109355 -16.50909,4.18103 0.0717,-10.643707 0,-21.287414 0.0478,-31.931121 z"
         id="path3109"
         style="fill:#ff0000" />
    </g>
    <g
       transform="matrix(0.72519063,0,0,0.72519063,-4.5313266e-7,8.9484828e-7)"
       id="text3069"
       style="font-size:104.4274292px;font-style:normal;font-weight:normal;line-height:125%;letter-spacing:-3.84000015px;word-spacing:0px;fill:#ffffff;fill-opacity:1;stroke:none;font-family:Sans">
      <path
         d="m 27.049294,183.20694 0,-78.32057 20.344992,0 0,61.08596 24.424189,0 0,17.23461 z"
         id="path3141"
         style="font-variant:normal;font-stretch:normal;fill:#ffffff;font-family:Canal Bold Plain PL;-inkscape-font-specification:Canal Bold Plain PL" />
      <path
         d="m 75.42301,114.82941 c -5e-6,-2.99134 1.028291,-5.51534 3.084892,-7.57201 2.056585,-2.05652 4.546592,-3.08481 7.470029,-3.08489 2.923405,8e-5 5.430409,1.02837 7.521018,3.08489 2.090563,2.05667 3.135856,4.54668 3.135882,7.47003 -2.6e-5,2.8895 -1.045319,5.34551 -3.135882,7.36805 -2.090609,2.02266 -4.597613,3.03396 -7.521018,3.0339 -2.821457,6e-5 -5.285969,-1.02824 -7.393544,-3.08489 -2.107591,-2.05653 -3.161382,-4.46156 -3.161377,-7.21508 z m 1.172769,68.37753 0,-52.82559 18.815294,0 0,52.82559 z"
         id="path3143"
         style="font-variant:normal;font-stretch:normal;fill:#ffffff;font-family:Canal Bold Plain PL;-inkscape-font-specification:Canal Bold Plain PL" />
      <path
         d="m 102.27896,157.60998 c 0,-5.30292 1.14727,-10.13847 3.44183,-14.50664 2.29453,-4.3681 5.52389,-7.82691 9.68809,-10.37646 4.16416,-2.54944 8.82973,-3.82419 13.99674,-3.82424 4.96299,5e-5 8.9402,1.08784 11.93165,3.26335 0.8158,0.61193 2.10754,1.85269 3.87524,3.72227 l 0,-5.50691 18.7643,0 0,50.12312 c -7e-5,5.37094 -0.34,9.29716 -1.0198,11.77868 -1.01986,3.70526 -3.04246,7.0196 -6.0678,9.94304 -5.81291,5.71085 -13.68235,8.56629 -23.60835,8.56632 -10.40198,-3e-5 -18.61135,-3.11042 -24.62815,-9.33117 -2.0736,-2.17558 -3.44183,-3.84975 -4.10469,-5.02251 -0.66288,-1.17278 -1.21527,-3.15289 -1.65718,-5.94033 l 21.21182,0 c 1.35971,3.56929 4.31712,5.35394 8.87226,5.35395 3.90919,-1e-5 6.92609,-1.1048 9.05071,-3.31435 2.12454,-2.20957 3.18683,-5.31995 3.18688,-9.33116 l 0,-5.86385 c -4.89508,4.5891 -10.46998,6.88365 -16.72471,6.88365 -7.78449,0 -14.12423,-2.49851 -19.01925,-7.49552 -4.79306,-5.09899 -7.18959,-11.47273 -7.18959,-19.12124 z m 19.63114,-1.12178 c -3e-5,3.39936 1.17274,6.28029 3.5183,8.6428 2.34551,2.36255 5.21794,3.54382 8.61731,3.5438 3.29731,2e-5 6.13575,-1.18975 8.51532,-3.56929 2.37948,-2.37952 3.56925,-5.21795 3.5693,-8.51533 -5e-5,-3.33131 -1.18132,-6.16975 -3.54381,-8.51532 -2.36257,-2.3455 -5.20951,-3.51827 -8.54081,-3.51831 -3.26339,4e-5 -6.10183,1.18131 -8.51533,3.54381 -2.41355,2.36256 -3.62031,5.15851 -3.62028,8.38784 z"
         id="path3145"
         style="font-variant:normal;font-stretch:normal;fill:#ffffff;font-family:Canal Bold Plain PL;-inkscape-font-specification:Canal Bold Plain PL" />
      <path
         d="m 170.84471,156.4882 c -1e-5,-3.60326 0.62037,-7.08757 1.86113,-10.45294 1.24075,-3.36529 2.9744,-6.3652 5.20098,-8.99973 2.22654,-2.63443 5.04798,-4.75051 8.46433,-6.34824 3.4163,-1.59764 7.14706,-2.39648 11.19229,-2.39653 5.06497,5e-5 9.24614,1.07084 12.54353,3.21236 0.98576,0.61194 2.34549,1.83569 4.0792,3.67128 l 0,-5.20097 18.81529,0 0,53.23351 -18.81529,0 0,-5.86385 c -3.97726,5.099 -9.45018,7.6485 -16.41877,7.6485 -7.88647,0 -14.36218,-2.85544 -19.42717,-8.56631 -4.99702,-5.5409 -7.49553,-12.18658 -7.49552,-19.93708 z m 19.63113,0 c -2e-5,3.39936 1.17274,6.28029 3.51831,8.6428 2.3455,2.36255 5.21794,3.54382 8.6173,3.5438 3.29731,2e-5 6.13575,-1.18975 8.51532,-3.56929 2.37949,-2.37952 3.56925,-5.21795 3.5693,-8.51533 -5e-5,-3.29732 -1.18981,-6.14425 -3.5693,-8.54081 -2.37957,-2.3965 -5.21801,-3.59476 -8.51532,-3.5948 -3.26339,4e-5 -6.10183,1.18981 -8.51532,3.5693 -2.41355,2.37956 -3.62031,5.20101 -3.62029,8.46433 z"
         id="path3147"
         style="font-variant:normal;font-stretch:normal;fill:#ffffff;font-family:Canal Bold Plain PL;-inkscape-font-specification:Canal Bold Plain PL" />
      <path
         d="m 272.94609,176.62924 c -5.06501,-5.50691 -7.59751,-12.15259 -7.59751,-19.93708 0,-7.78443 2.5325,-14.36213 7.59751,-19.73311 5.06498,-5.50686 11.43872,-8.26032 19.12123,-8.26037 5.06497,5e-5 9.24614,1.07084 12.54353,3.21236 0.98576,0.61193 2.34549,1.83569 4.07919,3.67128 l 0,-30.69595 18.8153,0 0,78.32057 -18.8153,0 0,-5.86385 c -3.94326,5.03101 -9.41618,7.54652 -16.41876,7.54652 -7.81848,0 -14.26021,-2.75346 -19.32519,-8.26037 z m 12.03363,-19.93708 c -3e-5,3.39936 1.17274,6.26329 3.5183,8.59181 2.34551,2.32856 5.21794,3.49283 8.6173,3.49281 3.33131,2e-5 6.17825,-1.16425 8.54082,-3.49281 2.36249,-2.32852 3.54376,-5.15846 3.5438,-8.48983 -4e-5,-3.33131 -1.18131,-6.16975 -3.5438,-8.51532 -2.36257,-2.3455 -5.20951,-3.51827 -8.54082,-3.51831 -3.26339,4e-5 -6.10182,1.18131 -8.51532,3.54381 -2.41355,2.36256 -3.62031,5.15851 -3.62028,8.38784 z"
         id="path3149"
         style="font-variant:normal;font-stretch:normal;fill:#ffffff;font-family:Canal Bold Plain PL;-inkscape-font-specification:Canal Bold Plain PL" />
      <path
         d="m 334.32223,157.20206 c 0,-8.77024 2.69396,-15.67937 8.08191,-20.72741 5.38792,-5.04796 12.58599,-7.57196 21.59424,-7.57201 8.97419,5e-5 16.0363,2.63453 21.18633,7.90344 5.14993,5.269 7.72492,12.42459 7.72498,21.46677 l 0,1.93762 -39.56821,0 c 0.10196,7.95445 3.9262,11.93166 11.47274,11.93165 3.94319,1e-5 7.00258,-1.66566 9.1782,-4.99702 l 18.20341,0 c -1.76771,5.98284 -4.97158,10.50394 -9.61161,13.56333 -4.64013,3.0594 -10.59745,4.5891 -17.87198,4.5891 -9.04224,0 -16.36779,-2.524 -21.97667,-7.57201 -5.6089,-5.048 -8.41334,-11.88914 -8.41334,-20.52346 z m 19.52915,-7.85245 21.61974,0 c -1.46175,-5.60886 -5.11603,-8.4133 -10.96284,-8.41334 -5.94885,4e-5 -9.50115,2.80448 -10.6569,8.41334 z"
         id="path3151"
         style="font-variant:normal;font-stretch:normal;fill:#ffffff;font-family:Canal Bold Plain PL;-inkscape-font-specification:Canal Bold Plain PL" />
    </g>
    <g
       transform="matrix(0.72519063,0,0,0.72519063,-4.5313266e-7,8.9484828e-7)"
       id="text3069-1"
       style="font-size:104.4274292px;font-style:normal;font-weight:normal;line-height:125%;letter-spacing:-3.84000015px;word-spacing:0px;fill:#ffffff;fill-opacity:1;stroke:none;font-family:Sans">
      <path
         d="m 27.049596,257.58682 c -4e-6,-4.52107 0.662864,-8.84671 1.988609,-12.97695 1.325731,-4.13013 3.152869,-7.7929 5.48142,-10.98833 2.328527,-3.19531 5.005497,-5.99975 8.030918,-8.41334 3.025381,-2.41346 6.288735,-4.35107 9.790071,-5.81286 4.962988,-2.17549 10.316928,-3.26328 16.061836,-3.26336 2.44747,8e-5 5.200925,0.27203 8.260373,0.81584 3.05934,0.54397 5.591839,1.25783 7.597504,2.14158 l 1.172769,0.5099 c 0.985741,0.44199 1.478644,1.13885 1.478708,2.09059 l 0,20.14103 c -6.4e-5,0.47596 -0.187027,0.71391 -0.560889,0.71386 -0.03406,5e-5 -0.339997,-0.16991 -0.917819,-0.5099 -1.427781,-1.42766 -3.713828,-2.70241 -6.858149,-3.82425 -3.144434,-1.12172 -6.04236,-1.68261 -8.693788,-1.68266 -5.982863,5e-5 -11.115847,1.95467 -15.398966,5.86384 -4.283185,3.90928 -6.424761,9.04226 -6.424735,15.39897 -2.6e-5,5.7449 2.082062,10.46996 6.24627,14.1752 4.164143,3.70529 9.288629,5.55793 15.373471,5.55791 6.764614,2e-5 12.050567,-1.9036 15.857877,-5.71088 0.305876,-0.40789 0.577822,-0.61185 0.815839,-0.61187 0.441848,2e-5 0.662805,0.64589 0.662869,1.93761 l 0,19.42718 c -6.4e-5,1.18976 -0.985869,2.14158 -2.957417,2.85543 -5.506972,1.86963 -10.656952,2.80445 -15.449957,2.80445 -7.206619,0 -14.12425,-1.81864 -20.752912,-5.45592 -6.696699,-3.70527 -11.838181,-8.5833 -15.424461,-14.63412 -3.5863,-6.05078 -5.379445,-12.90043 -5.379441,-20.54895 z"
         id="path3122"
         style="font-variant:normal;font-stretch:normal;fill:#ffffff;font-family:Canal Bold Plain PL;-inkscape-font-specification:Canal Bold Plain PL" />
      <path
         d="m 92.148009,269.41649 c -4e-6,-3.60326 0.620373,-7.08757 1.861134,-10.45294 1.240748,-3.3653 2.974405,-6.36521 5.200975,-8.99973 2.226552,-2.63443 5.047992,-4.75051 8.464332,-6.34825 3.4163,-1.59763 7.14707,-2.39647 11.1923,-2.39653 5.06496,6e-5 9.24613,1.07084 12.54353,3.21237 0.98576,0.61193 2.34549,1.83569 4.07919,3.67128 l 0,-5.20098 18.8153,0 0,53.23351 -18.8153,0 0,-5.86384 c -3.97726,5.09899 -9.45018,7.64849 -16.41876,7.64849 -7.88647,0 -14.36219,-2.85543 -19.427177,-8.56631 -4.997023,-5.5409 -7.495528,-12.18658 -7.495524,-19.93707 z m 19.631131,0 c -2e-5,3.39935 1.17275,6.28028 3.51831,8.64279 2.34551,2.36255 5.21794,3.54382 8.6173,3.54381 3.29731,10e-6 6.13575,-1.18975 8.51532,-3.5693 2.37949,-2.37951 3.56925,-5.21795 3.5693,-8.51532 -5e-5,-3.29732 -1.18981,-6.14426 -3.5693,-8.54082 -2.37957,-2.39649 -5.21801,-3.59475 -8.51532,-3.59479 -3.26339,4e-5 -6.10183,1.1898 -8.51532,3.56929 -2.41355,2.37957 -3.62031,5.20101 -3.62029,8.46434 z"
         id="path3124"
         style="font-variant:normal;font-stretch:normal;fill:#ffffff;font-family:Canal Bold Plain PL;-inkscape-font-specification:Canal Bold Plain PL" />
      <path
         d="m 163.21226,296.13522 0,-52.82559 18.81529,0 0,6.47572 c 0.13595,-0.10193 0.32292,-0.2634 0.56089,-0.4844 0.23793,-0.22091 0.51838,-0.48436 0.84134,-0.79035 0.32291,-0.30589 0.62035,-0.57783 0.89232,-0.81583 4.21514,-3.50126 9.22915,-5.25192 15.04204,-5.25197 7.8524,5e-5 13.86921,3.2804 18.05044,9.84106 4.21511,-6.62864 10.19792,-9.94299 17.94847,-9.94304 5.91475,5e-5 10.40186,1.65723 13.46135,4.97152 3.0593,3.31439 4.589,8.13294 4.58909,14.45565 l 0,34.36723 -18.7643,0 0,-26.10685 c -8e-5,-3.53528 -0.17005,-5.86382 -0.5099,-6.98563 -1.4278,-4.04516 -3.9093,-6.06776 -7.44453,-6.0678 -2.24363,4e-5 -4.18125,0.79038 -5.81286,2.37103 -1.63174,1.58072 -2.58355,3.50984 -2.85544,5.78736 -0.20402,1.29178 -0.306,2.92345 -0.30594,4.89504 l 0,26.10685 -18.81529,0 0,-26.10685 c -4e-5,-3.80722 -0.10202,-6.16976 -0.30594,-7.08761 -0.61192,-1.90359 -1.62322,-3.44178 -3.0339,-4.61459 -1.41076,-1.17273 -3.03394,-1.75911 -4.86954,-1.75915 -1.39376,4e-5 -2.80448,0.43345 -4.23217,1.30024 -1.42775,0.86687 -2.46454,1.92916 -3.11039,3.18687 -0.88385,1.7337 -1.32576,4.7251 -1.32574,8.97424 l 0,26.10685 z"
         id="path3126"
         style="font-variant:normal;font-stretch:normal;fill:#ffffff;font-family:Canal Bold Plain PL;-inkscape-font-specification:Canal Bold Plain PL" />
      <path
         d="m 262.37197,323.51683 0,-80.2072 18.8153,0 0,5.81285 c 0.13595,-0.16992 0.45888,-0.55234 0.96881,-1.14727 0.50987,-0.59483 0.83281,-0.97726 0.96881,-1.14727 3.67124,-3.46727 8.48129,-5.20092 14.43015,-5.20098 7.81841,6e-5 14.26014,2.75351 19.3252,8.26037 5.06493,5.50696 7.59743,12.15264 7.5975,19.93708 -7e-5,5.74489 -1.43628,10.95435 -4.30865,15.62842 -2.8725,4.67408 -6.82421,8.06491 -11.85517,10.17249 -3.16142,1.46171 -6.67973,2.19257 -10.55492,2.19257 -2.7195,0 -5.38797,-0.42492 -8.00542,-1.27475 -1.83567,-0.64587 -3.30588,-1.32573 -4.41063,-2.0396 -1.10481,-0.71385 -2.49004,-1.90362 -4.15568,-3.56929 l 0,32.58258 z m 18.25441,-53.7944 c -3e-5,3.26338 1.21523,6.07632 3.64578,8.43883 2.43049,2.36255 5.29442,3.54382 8.59181,3.54381 3.26331,1e-5 6.10175,-1.18126 8.51532,-3.54381 2.41348,-2.36251 3.62024,-5.14146 3.62029,-8.33685 -5e-5,-3.3993 -1.18982,-6.27174 -3.5693,-8.61731 -2.37957,-2.3455 -5.269,-3.51826 -8.66829,-3.5183 -3.33138,4e-5 -6.18681,1.1728 -8.56631,3.5183 -2.37956,2.34557 -3.56933,5.18401 -3.5693,8.51533 z"
         id="path3128"
         style="font-variant:normal;font-stretch:normal;fill:#ffffff;font-family:Canal Bold Plain PL;-inkscape-font-specification:Canal Bold Plain PL" />
      <path
         d="m 329.25505,270.13035 c 0,-8.77024 2.69396,-15.67937 8.08191,-20.72742 5.38792,-5.04795 12.58599,-7.57196 21.59424,-7.57201 8.97419,5e-5 16.03629,2.63453 21.18633,7.90344 5.14993,5.26901 7.72492,12.42459 7.72498,21.46678 l 0,1.93761 -39.56821,0 c 0.10196,7.95445 3.9262,11.93166 11.47274,11.93165 3.94319,10e-6 7.00258,-1.66566 9.1782,-4.99701 l 18.20341,0 c -1.76771,5.98283 -4.97158,10.50393 -9.61161,13.56333 -4.64013,3.05939 -10.59745,4.58909 -17.87198,4.58909 -9.04224,0 -16.36779,-2.524 -21.97667,-7.57201 -5.6089,-5.04799 -8.41334,-11.88914 -8.41334,-20.52345 z m 19.52915,-7.85246 21.61974,0 c -1.46175,-5.60885 -5.11603,-8.4133 -10.96284,-8.41334 -5.94885,4e-5 -9.50115,2.80449 -10.6569,8.41334 z"
         id="path3130"
         style="font-variant:normal;font-stretch:normal;fill:#ffffff;font-family:Canal Bold Plain PL;-inkscape-font-specification:Canal Bold Plain PL" />
      <path
         d="m 392.51784,270.23233 c -10e-6,-9.00819 3.16137,-16.14678 9.48413,-21.41579 5.9828,-4.99696 13.41033,-7.49546 22.28261,-7.49552 9.58606,6e-5 17.33653,2.63453 23.25142,7.90344 6.05074,5.303 9.07614,12.13565 9.07621,20.49797 -7e-5,8.87227 -3.22943,15.90887 -9.68809,21.10984 -6.01687,4.86104 -13.46139,7.29156 -22.3336,7.29156 -9.21221,0 -16.8777,-2.61748 -22.99647,-7.85245 -6.05082,-5.30295 -9.07622,-11.98262 -9.07621,-20.03905 z m 19.93707,-0.71386 c -3e-5,3.39935 1.17274,6.28028 3.51831,8.64279 2.3455,2.36255 5.21794,3.54382 8.6173,3.54381 3.3313,1e-5 6.17824,-1.18126 8.54082,-3.54381 2.36248,-2.36251 3.54375,-5.20945 3.5438,-8.54081 -5e-5,-3.36531 -1.18132,-6.22924 -3.5438,-8.59181 -2.36258,-2.3625 -5.20952,-3.54376 -8.54082,-3.5438 -3.26339,4e-5 -6.10183,1.1898 -8.51532,3.56929 -2.41355,2.37957 -3.62032,5.20101 -3.62029,8.46434 z"
         id="path3132"
         style="font-variant:normal;font-stretch:normal;fill:#ffffff;font-family:Canal Bold Plain PL;-inkscape-font-specification:Canal Bold Plain PL" />
      <path
         d="m 463.37811,296.13522 0,-52.82559 18.81529,0 0,6.67968 c 4.62306,-5.23491 10.31693,-7.8524 17.08164,-7.85245 6.3227,5e-5 11.28572,1.7677 14.88906,5.30296 3.60323,3.53534 5.40488,8.56635 5.40494,15.09302 l 0,33.60238 -18.81529,0 0,-30.28803 c -5e-5,-2.58346 -0.79039,-4.70804 -2.37104,-6.37374 -1.58073,-1.66564 -3.67981,-2.49847 -6.29726,-2.49851 -6.59473,4e-5 -9.89207,3.62032 -9.89205,10.86086 l 0,28.29942 z"
         id="path3134"
         style="font-variant:normal;font-stretch:normal;fill:#ffffff;font-family:Canal Bold Plain PL;-inkscape-font-specification:Canal Bold Plain PL" />
      <path
         d="m 526.38594,270.13035 c 0,-8.77024 2.69396,-15.67937 8.08191,-20.72742 5.38792,-5.04795 12.58599,-7.57196 21.59424,-7.57201 8.97419,5e-5 16.03629,2.63453 21.18633,7.90344 5.14993,5.26901 7.72492,12.42459 7.72498,21.46678 l 0,1.93761 -39.56821,0 c 0.10196,7.95445 3.9262,11.93166 11.47274,11.93165 3.94319,10e-6 7.00258,-1.66566 9.17819,-4.99701 l 18.20342,0 c -1.76771,5.98283 -4.97158,10.50393 -9.61161,13.56333 -4.64013,3.05939 -10.59745,4.58909 -17.87198,4.58909 -9.04224,0 -16.36779,-2.524 -21.97667,-7.57201 -5.6089,-5.04799 -8.41334,-11.88914 -8.41334,-20.52345 z m 19.52915,-7.85246 21.61974,0 c -1.46175,-5.60885 -5.11603,-8.4133 -10.96284,-8.41334 -5.94885,4e-5 -9.50115,2.80449 -10.6569,8.41334 z"
         id="path3136"
         style="font-variant:normal;font-stretch:normal;fill:#ffffff;font-family:Canal Bold Plain PL;-inkscape-font-specification:Canal Bold Plain PL" />
      <path
         d="m 588.47599,291.95405 6.83265,-13.15541 c 5.5069,3.6373 10.50391,5.45594 14.99105,5.45592 1.52967,2e-5 2.9064,-0.36541 4.13019,-1.09628 1.22372,-0.73084 1.8356,-1.72515 1.83563,-2.98291 -3e-5,-1.08777 -0.37395,-1.9631 -1.12178,-2.62599 -0.74788,-0.66285 -2.03962,-1.21524 -3.87523,-1.65717 -0.136,-0.034 -0.53542,-0.12745 -1.19827,-0.28044 -0.66289,-0.15295 -1.26627,-0.28043 -1.81014,-0.38243 -2.51552,-0.50988 -4.6486,-1.08776 -6.39924,-1.73366 -1.75067,-0.64585 -3.37385,-1.52117 -4.86954,-2.62598 -1.49572,-1.10476 -2.60899,-2.50698 -3.33984,-4.20667 -0.73087,-1.69964 -1.09629,-3.73923 -1.09629,-6.1188 0,-4.07915 1.06229,-7.58896 3.18688,-10.52942 2.12457,-2.94037 4.94601,-5.10744 8.46433,-6.50122 3.51828,-1.39367 7.53799,-2.09053 12.05912,-2.09059 6.25473,6e-5 11.9996,1.13883 17.23461,3.41633 l -6.37375,12.13561 c -3.29738,-1.73362 -6.71371,-2.60045 -10.24898,-2.60049 -3.80727,4e-5 -5.7109,1.25779 -5.71087,3.77326 -3e-5,0.57792 0.15294,1.07082 0.45891,1.47871 0.30591,0.40795 0.79881,0.77338 1.47871,1.09628 0.67983,0.32297 1.29171,0.56942 1.83563,0.73935 0.54387,0.17 1.30872,0.37396 2.29455,0.61188 l 2.39653,0.56089 c 4.58906,0.95185 7.9204,2.26059 9.99403,3.92623 3.63724,2.78748 5.45588,6.6967 5.45593,11.72769 -5e-5,9.31417 -4.94607,15.46695 -14.83808,18.45836 -3.12742,0.91782 -6.61173,1.37673 -10.45294,1.37673 -7.1726,0 -14.2772,-2.05659 -21.3138,-6.16978 z"
         id="path3138"
         style="font-variant:normal;font-stretch:normal;fill:#ffffff;font-family:Canal Bold Plain PL;-inkscape-font-specification:Canal Bold Plain PL" />
    </g>
  </g>
</svg>
