<?xml version="1.0" encoding="UTF-8" standalone="no"?>
<!-- Created with Inkscape (http://www.inkscape.org/) -->

<svg
   xmlns:dc="http://purl.org/dc/elements/1.1/"
   xmlns:cc="http://creativecommons.org/ns#"
   xmlns:rdf="http://www.w3.org/1999/02/22-rdf-syntax-ns#"
   xmlns:svg="http://www.w3.org/2000/svg"
   xmlns="http://www.w3.org/2000/svg"
   version="1.1"
   width="600"
   height="299.97147"
   id="svg5051">
  <defs
     id="defs5053">
    <clipPath
       id="clipPath3711">
      <path
         d="m 729.696,202.973 21.014,0 0,10.507 -21.014,0 0,-10.507 z"
         id="path3713" />
    </clipPath>
  </defs>
  <metadata
     id="metadata5056">
    <rdf:RDF>
      <cc:Work
         rdf:about="">
        <dc:format>image/svg+xml</dc:format>
        <dc:type
           rdf:resource="http://purl.org/dc/dcmitype/StillImage" />
        <dc:title></dc:title>
      </cc:Work>
    </rdf:RDF>
  </metadata>
  <g
     transform="translate(-50.000692,-382.37638)"
     id="layer1">
    <g
       id="g5097">
      <path
         d="m 650.0007,382.37638 -600.000008,0 0,149.98573 600.000008,0 0,-149.98573 z"
         id="path3715"
         style="fill:#0d0906;fill-opacity:1;fill-rule:nonzero;stroke:none" />
      <g
         transform="matrix(28.552394,0,0,-28.552394,625.26005,463.99625)"
         id="g3717">
        <path
           d="m 0,0 c 0,0 -0.005,-0.009 -0.018,-0.009 l -1.134,0 c -0.017,0 -0.026,-0.009 -0.026,-0.009 0,0 -0.014,-0.005 -0.014,-0.026 l 0,-1.208 c 0,-0.018 -0.009,-0.023 -0.009,-0.023 0,0 -0.004,-0.009 -0.017,-0.009 l -0.899,0 c -0.014,0 -0.022,0.009 -0.022,0.009 0,0 -0.005,0.005 -0.005,0.027 l 0,1.208 c 0,0.013 -0.013,0.022 -0.013,0.022 0,0 -0.005,0.009 -0.018,0.009 l -1.16,0 c -0.022,0 -0.027,0.004 -0.027,0.004 0,0 -0.009,0.009 -0.009,0.036 l 0,0.885 c 0,0.008 0.009,0.022 0.009,0.022 0,0 0.005,0.005 0.013,0.005 l 1.187,0 c 0.009,0 0.009,0.004 0.009,0.004 0,0 0.009,0.004 0.009,0.013 l 0,1.058 c 0,0.013 0.005,0.022 0.005,0.022 0,0 0.008,0.004 0.035,0.004 l 0.881,0 c 0.018,0 0.022,-0.004 0.022,-0.004 0,0 0.009,-0.009 0.009,-0.027 l 0,-1.062 1.152,0 C -0.009,0.951 0,0.947 0,0.947 c 0,0 0.013,-0.004 0.013,-0.031 l 0,-0.894 C 0.013,0.013 0,0 0,0 m -3.512,-1.244 c -0.005,-0.026 -0.01,-0.035 -0.01,-0.035 0,0 -0.003,-0.009 -0.026,-0.009 l -1.824,0 c -0.054,0 -0.067,0.013 -0.067,0.013 0,0 -0.009,0.018 -0.004,0.058 l 0.451,3.142 c 0.004,0.04 0.013,0.053 0.013,0.053 l 0.05,0 0.828,0 c 0.022,0 0.031,-0.004 0.031,-0.004 0,0 0.004,-0.014 0,-0.031 l -0.341,-2.457 c -0.005,-0.026 0.008,-0.031 0.008,-0.031 0,0 0.009,-0.004 0.044,-0.004 l 0.904,0 c 0.018,0 0.026,-0.009 0.026,-0.009 0,0 0.005,-0.004 0.005,-0.027 l -0.088,-0.659 z m -2.326,-0.049 -0.81,0 c -0.018,-0.008 -0.031,0.009 -0.031,0.009 0,0 -0.005,0.005 -0.009,0.032 l -0.106,0.499 c -0.009,0.027 -0.018,0.04 -0.018,0.04 0,0 -0.022,0.013 -0.049,0.013 l -1.054,0 c -0.022,0 -0.035,-0.013 -0.035,-0.013 0,0 -0.018,-0.017 -0.027,-0.044 l -0.239,-0.509 c -0.004,-0.013 -0.013,-0.018 -0.013,-0.018 0,0 -0.018,-0.004 -0.027,-0.004 l -0.912,0 c -0.023,-0.005 -0.031,0.009 -0.031,0.009 0,0 -0.004,0.009 0.008,0.027 l 1.608,3.208 c 0.009,0.004 0.018,0.018 0.018,0.018 0,0 0.009,0.004 0.035,0.004 l 0.997,0 c 0.022,0 0.035,-0.013 0.035,-0.013 0,0 0.005,-0.005 0.009,-0.018 l 0.669,-3.222 c 0,-0.009 -0.004,-0.013 -0.004,-0.013 0,0 0,-0.005 -0.014,-0.005 m -3.795,0.005 -0.811,0 -0.026,0 c 0,0 -0.005,0.004 -0.009,0.009 l -1.125,1.996 c -0.009,0.009 -0.013,0.009 -0.013,0.009 0,0 -0.009,0 -0.009,-0.014 l -0.279,-1.96 c -0.004,-0.022 -0.009,-0.027 -0.009,-0.027 0,0 -0.009,-0.004 -0.022,-0.004 l -0.806,0 c -0.013,0 -0.022,0.009 -0.022,0.009 0,0 -0.018,0.018 -0.014,0.035 l 0.443,3.173 c 0.005,0.018 0.013,0.022 0.013,0.022 0,0 0.014,0.014 0.027,0.014 l 0.899,0 c 0.013,0 0.022,-0.009 0.022,-0.009 0,0 0.009,-0.005 0.014,-0.018 l 1.014,-1.779 c 0.018,-0.035 0.03,-0.031 0.03,-0.031 0,0 0.014,0 0.023,0.04 l 0.257,1.77 c 0,0.013 0.009,0.018 0.009,0.018 0,0 0.004,0.009 0.018,0.009 l 0.845,-0.009 c 0.018,0 0.022,-0.005 0.022,-0.005 0,0 0.005,-0.004 0.005,-0.013 l -0.456,-3.199 c -0.005,-0.018 -0.013,-0.032 -0.013,-0.032 0,0 -0.005,-0.004 -0.027,-0.004 m -3.543,0.009 -0.789,-0.005 c -0.017,0 -0.03,0.009 -0.03,0.009 0,0 -0.005,0.005 -0.01,0.036 l -0.123,0.509 c 0,0.013 -0.009,0.017 -0.009,0.017 l -0.014,0 -1.112,0 c -0.022,0 -0.035,-0.017 -0.035,-0.017 0,0 -0.018,-0.014 -0.031,-0.045 l -0.221,-0.473 c -0.009,-0.018 -0.014,-0.022 -0.014,-0.022 0,0 -0.013,-0.009 -0.026,-0.009 l -0.917,0 c -0.026,-0.005 -0.031,0.009 -0.031,0.009 0,0 -0.004,0.013 0.005,0.031 l 1.59,3.195 c 0.008,0.018 0.022,0.022 0.022,0.022 l 0.031,0 1.014,0 c 0.017,0 0.031,-0.013 0.031,-0.013 0,0 0.004,-0.005 0.009,-0.018 l 0.682,-3.204 c 0,-0.013 -0.009,-0.018 -0.009,-0.018 0,0 -0.004,-0.004 -0.013,-0.004 m 6.005,2.331 c 0,0 -0.004,0 -0.009,-0.017 l -0.442,-1 C -7.631,0.004 -7.627,0 -7.627,0 c 0,0 0.013,-0.009 0.023,-0.009 l 0.655,0.004 0.008,0 c 0,0 0.005,0.005 0,0.018 l -0.22,1.027 c -0.005,0.012 -0.01,0.012 -0.01,0.012 M -14.523,1.04 c 0,0 -0.004,0 -0.009,-0.009 l -0.443,-1.005 c -0.008,-0.013 -0.004,-0.022 -0.004,-0.022 0,0 0.004,-0.004 0.027,-0.004 l 0.651,-0.005 c 0.004,0 0.008,0.005 0.008,0.005 0,0 0.005,0.004 0,0.017 l -0.225,1.014 c 0,0.009 -0.005,0.009 -0.005,0.009 m -2.267,-2.209 c -0.005,-0.035 -0.022,-0.061 -0.022,-0.061 0,0 -0.018,-0.018 -0.049,-0.027 -0.426,-0.173 -0.899,-0.116 -0.899,-0.116 -0.766,0.085 -1.254,0.554 -1.409,1.16 -0.23,0.907 0.226,1.554 0.337,1.691 0.27,0.323 0.691,0.553 1.102,0.606 0.528,0.076 0.918,-0.048 1.077,-0.102 0,0 0.177,-0.057 0.31,-0.145 0.066,-0.045 0.075,-0.062 0.075,-0.062 0,0 0.005,-0.009 -0.013,-0.08 l -0.124,-0.65 c -0.005,-0.027 -0.022,-0.041 -0.022,-0.041 0,0 -0.009,-0.004 -0.071,0.036 -0.399,0.283 -0.864,0.248 -0.864,0.248 -0.354,-0.023 -0.766,-0.208 -0.89,-0.677 -0.11,-0.417 0.004,-0.766 0.252,-0.974 0.169,-0.146 0.43,-0.222 0.705,-0.208 0.301,0.022 0.54,0.141 0.522,0.132 0,0 0.014,0.005 0.027,0.009 0.062,0.031 0.075,0.027 0.075,0.027 0,0 0.014,-0.013 0.004,-0.053 l -0.123,-0.713 z"
           id="path3719"
           style="fill:#ffffff;fill-opacity:1;fill-rule:nonzero;stroke:none" />
      </g>
      <path
         d="m 50.000692,682.34783 600.000008,0 0,-149.98572 -600.000008,0 0,149.98572 z"
         id="path3721"
         style="fill:#ee242d;fill-opacity:1;fill-rule:nonzero;stroke:none" />
      <g
         transform="matrix(28.552394,0,0,-28.552394,451.46734,606.61261)"
         id="g3723">
        <path
           d="m -2.76,-0.235 -0.442,0.842 -0.679,0 0.799,-1.42 -0.578,-1.076 0.656,0 1.346,2.496 -0.67,0 z m -1.929,-0.803 0.585,0 0,2.437 -0.585,0 z M -5.4,1.423 c -0.182,0 -0.329,-0.147 -0.329,-0.332 0,-0.088 0.033,-0.163 0.098,-0.228 0.065,-0.061 0.143,-0.094 0.231,-0.094 0.178,0 0.331,0.143 0.331,0.325 0,0.182 -0.149,0.329 -0.331,0.329 m -0.293,-2.461 0.585,0 0,1.645 -0.585,0 z m -0.979,1.674 c -0.244,0 -0.429,-0.104 -0.559,-0.309 -0.13,0.205 -0.319,0.306 -0.562,0.306 -0.182,0 -0.338,-0.056 -0.468,-0.163 C -8.294,0.441 -8.317,0.418 -8.333,0.405 l 0,0.202 -0.585,0 0,-1.645 0.585,0 0,0.813 c 0,0.13 0.013,0.224 0.042,0.279 0.04,0.078 0.14,0.14 0.228,0.14 0.117,0 0.211,-0.084 0.247,-0.198 0.006,-0.03 0.01,-0.101 0.01,-0.221 l 0,-0.813 0.585,0 0,0.813 c 0,0.062 0.003,0.114 0.01,0.153 0.016,0.139 0.126,0.253 0.269,0.253 0.101,0 0.182,-0.049 0.231,-0.188 0.01,-0.033 0.016,-0.104 0.016,-0.218 l 0,-0.813 0.585,0 0,1.07 c 0,0.165 -0.029,0.292 -0.091,0.383 -0.097,0.146 -0.253,0.221 -0.471,0.221 m -3.345,-1.111 c -0.075,-0.075 -0.162,-0.111 -0.266,-0.111 -0.212,0 -0.377,0.169 -0.377,0.38 0,0.101 0.035,0.189 0.11,0.264 0.075,0.074 0.163,0.11 0.267,0.11 0.104,0 0.191,-0.036 0.266,-0.11 0.075,-0.075 0.111,-0.163 0.111,-0.267 0,-0.104 -0.036,-0.192 -0.111,-0.266 m 0.094,0.932 c -0.048,0.052 -0.091,0.091 -0.126,0.114 -0.104,0.068 -0.234,0.101 -0.39,0.101 -0.117,0 -0.225,-0.023 -0.325,-0.065 -0.316,-0.14 -0.507,-0.462 -0.507,-0.813 0,-0.244 0.078,-0.448 0.234,-0.62 0.159,-0.179 0.36,-0.267 0.604,-0.267 0.185,0 0.335,0.055 0.449,0.169 0.013,0.01 0.032,0.033 0.061,0.068 l 0,-0.182 0.585,0 0,1.658 -0.585,0 z m -2.966,-1.495 0.634,0 0,0.959 0.692,0 0,0.536 -0.692,0 0,0.406 0.76,0 0,0.537 -1.394,0 z"
           id="path3725"
           style="fill:#ffffff;fill-opacity:1;fill-rule:nonzero;stroke:none" />
      </g>
    </g>
  </g>
</svg>
