<?xml version="1.0" encoding="UTF-8" standalone="no"?>
<!-- Created with Inkscape (http://www.inkscape.org/) -->

<svg
   xmlns:dc="http://purl.org/dc/elements/1.1/"
   xmlns:cc="http://creativecommons.org/ns#"
   xmlns:rdf="http://www.w3.org/1999/02/22-rdf-syntax-ns#"
   xmlns:svg="http://www.w3.org/2000/svg"
   xmlns="http://www.w3.org/2000/svg"
   version="1.1"
   width="600"
   height="450.00885"
   viewBox="0 0 599.99999 450.00885"
   id="Layer_1"
   xml:space="preserve"><metadata
     id="metadata19"><rdf:RDF><cc:Work
         rdf:about=""><dc:format>image/svg+xml</dc:format><dc:type
           rdf:resource="http://purl.org/dc/dcmitype/StillImage" /><dc:title></dc:title></cc:Work></rdf:RDF></metadata><defs
     id="defs17" /><g
     transform="matrix(1.5000295,0,0,1.5000295,-6.0791456e-4,1.2747481e-5)"
     id="g8794"><rect
       width="399.9686"
       height="200.00783"
       x="0.00040193513"
       y="99.992165"
       id="rect35"
       style="fill:#3d961f;fill-opacity:1" /><rect
       width="399.99213"
       height="99.992149"
       x="0.00040193513"
       y="-8.4981539e-06"
       id="rect37" /><path
       d="m 74.218047,24.503702 0.235387,-1.482934 -0.729698,-1.224009 c -5.672813,-3.695567 -12.593173,-5.55512 -20.761081,-5.55512 -10.239309,0 -18.71322,3.224794 -25.374655,9.650843 -6.684975,6.426049 -10.027462,14.570419 -10.027462,24.43311 0,9.533149 3.060024,17.253823 9.203609,23.185561 6.143585,5.908199 14.170262,8.850529 24.08003,8.850529 5.484503,0 9.815613,-0.941546 12.99333,-2.848176 l 1.129854,-2.377402 1.765398,-12.31071 c 0.117694,-0.941545 -0.376618,-0.800313 -2.824636,-0.02354 -4.68419,1.365241 -8.49745,2.024323 -11.533935,2.024323 -4.754805,0 -8.709297,-1.600628 -11.839936,-4.801883 C 37.427151,58.7995 35.89714,54.703777 35.89714,49.760662 c 0,-5.343271 1.741859,-9.69792 5.319733,-13.087484 3.530796,-3.366026 8.144369,-5.060808 13.817182,-5.060808 5.437426,0 10.145154,1.247548 14.052569,3.766183 l 2.23617,1.129854 0.894469,-1.788936 2.000784,-10.215771"
       id="path39"
       style="fill:#ffffff" /><path
       d="m 121.36595,19.70182 -1.41232,-1.318164 h -18.87799 l -1.883095,1.153393 -29.070221,58.846603 -0.188309,0.729698 0.659082,0.564927 h 15.865044 l 1.953707,-0.965084 4.095723,-8.426834 1.624167,-0.988623 h 19.937232 l 1.3417,1.059239 2.11848,8.520988 1.15339,0.800314 h 14.17026 l 0.70616,-0.729698 V 78.619038 L 121.36595,19.70182 M 111.4091,55.574709 H 99.545625 l -0.564927,-0.258926 0.16477,-0.470772 7.932522,-17.983522 0.4237,-0.588466 0.42369,0.823852 4.16634,17.418595 0.16477,0.729698 -0.84739,0.329541"
       id="path41"
       style="fill:#ffffff" /><polyline
       transform="matrix(23.538641,0,0,23.538641,-12120.022,-3218.5561)"
       points="520.903,140.085 520.962,140.121 521.542,140.121 521.597,140.071 521.806,138.585    521.816,138.541 521.844,138.575 522.694,140.071 522.778,140.121 523.372,140.121 523.438,140.079 523.785,137.553    523.74,137.517 523.125,137.517 523.056,137.567 522.868,138.916 522.851,138.967 522.819,138.929 522.042,137.564    521.958,137.517 521.299,137.517 521.243,137.561 520.903,140.085  "
       id="polyline43"
       style="fill:#ffffff" /><path
       d="m 270.88339,78.383652 -12.33424,-58.775987 -1.48294,-1.224009 h -17.98352 l -1.81248,1.059239 -28.92899,59.105527 -0.25892,0.729698 0.65908,0.423696 h 15.67674 l 1.71832,-0.918007 4.42526,-8.568066 1.71832,-0.894468 h 18.87799 l 1.71832,1.294625 1.55355,7.932522 1.53001,1.153394 h 13.98196 l 0.96508,-0.494312 -0.0235,-0.823852 m -21.18477,-23.373871 -0.89447,0.564928 h -11.03963 l -1.08277,-0.494312 0.18831,-0.729698 8.00313,-18.054137 0.49432,-0.729698 0.35308,0.729698 3.93095,17.889367 0.0706,0.400157 v 0.423695 z"
       id="path45"
       style="fill:#ffffff" /><polyline
       transform="matrix(23.538641,0,0,23.538641,-12120.022,-3218.5561)"
       points="527.105,137.517 527.059,137.571 526.698,140.093 526.73,140.121 528.188,140.121 528.24,140.079    528.31,139.568 528.275,139.534 527.577,139.534 527.535,139.496 527.535,139.488 527.796,137.547 527.761,137.517    527.105,137.517  "
       id="polyline47"
       style="fill:#ffffff" /><polyline
       transform="matrix(23.538641,0,0,23.538641,-12120.022,-3218.5561)"
       points="530.133,139.137 530.178,139.092 531.039,139.092 531.077,139.051 531.077,138.342    531.039,138.297 530.168,138.297 530.133,138.249 530.133,137.446 530.088,137.411 529.379,137.411 529.345,137.446    529.345,138.249 529.303,138.297 528.372,138.297 528.334,138.335 528.334,139.047 528.375,139.092 529.299,139.092    529.345,139.145 529.345,140.079 529.383,140.121 530.095,140.121 530.133,140.071 530.133,139.137  "
       id="polyline49"
       style="fill:#ffffff" /><path
       d="m 90.506787,191.18082 h 58.775983 c -0.0471,8.2856 -0.49431,15.01765 -1.41231,20.17261 -2.1891,12.59318 -7.20283,22.9031 -15.0412,30.95332 -10.663,10.89839 -24.71557,16.35935 -42.110625,16.35935 -18.030599,0 -32.695173,-5.60219 -43.970182,-16.80659 -11.275009,-11.27501 -16.900744,-25.8925 -16.900744,-43.89956 0,-18.12476 5.602197,-32.76579 16.900744,-43.99372 11.43978,-11.46332 26.528049,-17.18321 45.241268,-17.18321 16.665359,0 29.941149,5.10789 39.850919,15.32366 3.24833,3.36602 7.03805,8.99176 11.3927,16.83012 l -28.19929,11.74579 c -2.3774,-5.01374 -4.5665,-8.56807 -6.61436,-10.71009 -4.80188,-5.0608 -10.663002,-7.60298 -17.559823,-7.60298 -9.509611,0 -17.15967,3.97803 -22.856021,11.91056 -4.684189,6.56728 -7.085131,14.59395 -7.085131,24.10356 0,11.58101 3.389564,20.71401 10.051,27.4696 5.555119,5.60219 12.47548,8.40329 20.78462,8.40329 8.379755,0 14.617495,-2.8011 18.689685,-8.40329 2.02432,-2.73048 3.48371,-6.61436 4.42526,-11.67517 H 90.483248 v -22.99725"
       id="path51"
       style="fill:#ffffff" /><path
       d="m 204.52796,198.1718 c -4.7548,0 -8.87406,1.74186 -12.33424,5.22557 -3.46018,3.41311 -5.22558,7.53237 -5.22558,12.33425 0,5.01373 1.74186,9.25069 5.22558,12.73441 3.43664,3.4131 7.5559,5.13142 12.40486,5.13142 4.91958,0 9.08592,-1.74186 12.49902,-5.20204 3.46018,-3.43664 5.22558,-7.60298 5.22558,-12.52256 0,-4.89603 -1.71832,-9.06237 -5.15497,-12.47548 -3.4131,-3.46018 -7.62652,-5.22557 -12.64025,-5.22557 m 0.30601,-23.58572 c 9.86269,0 18.71322,2.23617 26.57512,6.68497 6.40251,3.67203 11.32209,8.54453 14.80581,14.59396 3.46018,6.00235 5.20204,12.7344 5.20204,20.17261 0,11.2044 -3.71911,20.57278 -11.22793,28.12868 -4.28404,4.21342 -9.439,7.46175 -15.48843,9.745 -6.23774,2.3774 -12.96979,3.57787 -20.14908,3.57787 -14.68811,0 -26.48097,-4.47234 -35.40211,-13.39349 -7.50883,-7.43821 -11.27501,-16.59474 -11.27501,-27.46959 0,-11.5104 3.88387,-21.16124 11.60455,-28.95253 8.63868,-8.73283 20.408,-13.08748 35.35504,-13.08748 z"
       id="path53"
       style="fill:#ffffff" /><rect
       width="27.446056"
       height="114.28011"
       x="263.16223"
       y="140.29045"
       id="rect55"
       style="fill:#ffffff" /><path
       d="m 340.58131,200.17258 v 54.3978 h -27.44606 v -54.3978 h -9.90976 v -22.69125 h 9.90976 v 1.17693 l 0.44724,-9.88623 c 0.25892,-5.41388 2.47155,-10.54531 6.70851,-15.41781 3.64849,-4.30757 8.21499,-7.65006 13.5818,-10.02746 4.61357,-2.04786 9.34484,-3.06002 14.17026,-3.06002 2.28325,0 4.16634,0.18831 5.64927,0.51785 1.48294,0.35308 3.50726,1.15339 6.09651,2.40094 v 23.65633 c -3.95449,-1.83601 -7.08513,-2.75402 -9.36838,-2.75402 -3.1071,0 -5.53158,0.96509 -7.29698,2.89526 -1.67124,1.88309 -2.51863,4.51942 -2.51863,7.88544 v 5.81405 -3.20126 h 19.18399 v 22.69125 h -19.20753"
       id="path57"
       style="fill:#ffffff" /></g></svg>