<?xml version="1.0" encoding="UTF-8" standalone="no"?>
<!-- Created with Inkscape (http://www.inkscape.org/) -->

<svg
   xmlns:dc="http://purl.org/dc/elements/1.1/"
   xmlns:cc="http://creativecommons.org/ns#"
   xmlns:rdf="http://www.w3.org/1999/02/22-rdf-syntax-ns#"
   xmlns:svg="http://www.w3.org/2000/svg"
   xmlns="http://www.w3.org/2000/svg"
   version="1.1"
   width="600"
   height="199.36682"
   id="svg2">
  <metadata
     id="metadata24">
    <rdf:RDF>
      <cc:Work
         rdf:about="">
        <dc:format>image/svg+xml</dc:format>
        <dc:type
           rdf:resource="http://purl.org/dc/dcmitype/StillImage" />
        <dc:title></dc:title>
      </cc:Work>
    </rdf:RDF>
  </metadata>
  <defs
     id="defs22" />
  <g
     transform="matrix(1.0000015,0,0,1.0000015,4.4610442e-6,0.0165308)"
     id="g8336">
    <rect
       width="599.99908"
       height="132.91115"
       x="1.5184541e-05"
       y="66.43885"
       id="rect7781"
       style="fill:#3d961f;fill-opacity:1" />
    <path
       d="m 43.036878,152.46272 h 4.450372 c 6.600555,0 11.850995,-1.96683 15.784659,-5.88382 3.850326,-3.867 5.783818,-8.9841 5.783818,-15.38463 0,-6.38387 -1.916827,-11.51763 -5.783818,-15.36795 -3.933664,-3.93367 -9.184104,-5.88383 -15.784659,-5.88383 h -4.450372 v 42.52023 z m -19.718319,16.7014 V 93.207754 h 29.00243 c 6.30053,0 12.284366,1.65014 17.951504,4.950415 6.033843,3.483621 10.800906,8.284031 14.334537,14.384541 3.40029,5.86716 5.100426,12.10101 5.100426,18.70156 0,6.55055 -1.683471,12.76774 -5.050419,18.6349 -3.516966,6.08385 -8.300695,10.88425 -14.334537,14.38454 -5.633807,3.26694 -11.617643,4.90041 -18.001511,4.90041 h -29.00243 z"
       id="path7797"
       style="fill:#ffffff" />
    <path
       d="m 134.27786,136.3447 c -1.68347,-5.46712 -5.2171,-8.21735 -10.68423,-8.21735 -5.56713,0 -9.00075,2.75023 -10.2842,8.21735 h 20.96843 z m 16.91809,10.53422 H 112.8094 c 0.20001,4.31703 1.30011,7.36728 3.30027,9.15077 1.85016,1.60013 4.46705,2.41687 7.81733,2.41687 2.56687,0 4.60038,-0.55005 6.08384,-1.63347 0.8834,-0.66673 1.83349,-1.73348 2.8169,-3.21694 h 17.66815 c -1.18343,3.73365 -2.50021,6.48387 -3.95033,8.26736 -5.15043,6.23385 -12.73441,9.35078 -22.75191,9.35078 -9.26744,0 -16.58472,-2.68355 -21.93517,-8.01733 -5.000421,-4.88375 -7.467299,-11.33429 -7.467299,-19.33496 0,-8.70073 2.7669,-15.53463 8.300699,-20.46838 5.15043,-4.58372 11.93433,-6.88391 20.38505,-6.88391 9.21743,0 16.35137,2.80023 21.35179,8.36736 4.51704,5.00042 6.7839,11.70099 6.7839,20.06836 v 1.93349 z"
       id="path7799"
       style="fill:#ffffff" />
    <path
       d="m 188.21572,131.89433 c -3.23361,0 -6.0005,1.15009 -8.31736,3.46695 -2.23353,2.26687 -3.35029,4.98376 -3.35029,8.15069 0,3.20027 1.13343,5.93383 3.40029,8.20068 2.35019,2.3502 5.15043,3.51697 8.41737,3.51697 3.26694,0 6.06718,-1.1501 8.40071,-3.45029 2.26685,-2.28352 3.36695,-5.00041 3.36695,-8.16735 0,-3.20027 -1.13343,-5.9505 -3.41696,-8.2507 -2.26685,-2.33352 -5.10042,-3.46695 -8.50071,-3.46695 m -11.18427,59.85502 h -18.23486 v -73.80619 h 18.23486 v 5.68381 c 0.70006,-0.81674 1.35011,-1.55013 1.93349,-2.21685 3.76699,-3.40029 8.45071,-5.10043 14.10119,-5.10043 7.11726,0 13.16776,2.50021 18.15152,7.53397 5.23377,5.2671 7.85066,11.86766 7.85066,19.81832 0,7.91733 -2.60022,14.48455 -7.85066,19.73499 -4.91708,4.95042 -10.90091,7.41729 -17.96818,7.41729 -3.35028,0 -6.55055,-0.61672 -9.58413,-1.83349 -2.06684,-0.81673 -4.28369,-2.4502 -6.61722,-4.8504 v 27.61898 z"
       id="path7801"
       style="fill:#ffffff" />
    <path
       d="m 255.30468,131.69431 c -3.1836,0 -5.91717,1.1501 -8.21736,3.46696 -2.31686,2.26686 -3.46695,5.00042 -3.46695,8.20069 0,3.33361 1.15009,6.15051 3.46695,8.45071 2.28353,2.28352 5.03376,3.41695 8.25069,3.41695 3.25028,0 6.01718,-1.1501 8.31737,-3.45029 2.30019,-2.28352 3.46695,-5.05042 3.46695,-8.31737 0,-3.26693 -1.15009,-6.03383 -3.41695,-8.30069 -2.28352,-2.31686 -5.08376,-3.46696 -8.4007,-3.46696 m 0.18335,-15.70132 c 6.56721,0 12.45104,1.48346 17.65147,4.45038 4.26703,2.4502 7.53397,5.68381 9.85083,9.70081 2.31686,3.98367 3.46696,8.45071 3.46696,13.40112 0,7.45064 -2.48354,13.68449 -7.45063,18.68491 -2.85024,2.80023 -6.26719,4.96708 -10.30086,6.48387 -4.15035,1.58347 -8.63406,2.38354 -13.38446,2.38354 -9.76748,0 -17.63481,-2.98359 -23.55197,-8.90075 -5.00042,-4.95042 -7.4673,-11.03426 -7.4673,-18.25153 0,-7.65065 2.58356,-14.06785 7.71732,-19.23494 5.71715,-5.78383 13.55113,-8.71741 23.46864,-8.71741"
       id="path7803"
       style="fill:#ffffff" />
    <path
       d="m 294.25794,117.94316 h 18.23487 v 8.41738 c 2.73356,-4.61706 6.86724,-7.50064 12.3677,-8.6674 2.73356,-0.48337 5.45045,-0.56671 8.15068,-0.23335 v 17.20144 c -2.70023,-1.21677 -5.2171,-1.83349 -7.55063,-1.83349 -3.967,0 -7.11727,1.15009 -9.40079,3.46695 -1.31677,1.28345 -2.25018,2.75024 -2.7669,4.40038 -0.53337,1.6168 -0.80006,3.78365 -0.80006,6.53387 v 21.95184 h -18.23487 v -51.23762 z"
       id="path7805"
       style="fill:#ffffff" />
    <polygon
       points="410.423,79.898 410.423,77.729 410.064,77.729 410.064,76.825 410.423,76.825 410.423,75.9 411.518,75.9 411.518,76.825 412.141,76.825 412.141,77.729 411.518,77.729 411.518,79.898 "
       transform="matrix(16.668064,0,0,16.668064,-6497.3949,-1162.5809)"
       id="polygon7807"
       style="fill:#ffffff" />
    <path
       d="m 413.93465,136.3447 c -1.68348,-5.46712 -5.23378,-8.21735 -10.68423,-8.21735 -5.56714,0 -8.98409,2.75023 -10.2842,8.21735 h 20.96843 z m 16.91808,10.53422 h -38.36989 c 0.20002,4.31703 1.30011,7.36728 3.30028,9.15077 1.85015,1.60013 4.45038,2.41687 7.81732,2.41687 2.56689,0 4.60039,-0.55005 6.08384,-1.63347 0.90008,-0.66673 1.81683,-1.73348 2.81691,-3.21694 h 17.65148 c -1.16676,3.73365 -2.48354,6.48387 -3.93366,8.26736 -5.1671,6.23385 -12.7344,9.35078 -22.75191,9.35078 -9.25077,0 -16.56805,-2.68355 -21.95184,-8.01733 -4.98375,-4.88375 -7.45062,-11.33429 -7.45062,-19.33496 0,-8.70073 2.76689,-15.53463 8.30069,-20.46838 5.15043,-4.58372 11.93433,-6.88391 20.38504,-6.88391 9.23411,0 16.33471,2.80023 21.35179,8.36736 4.51705,5.00042 6.76724,11.70099 6.76724,20.06836 v 1.93349 z"
       id="path7809"
       style="fill:#ffffff" />
    <path
       d="m 478.84007,119.47662 -6.15051,11.71765 c -3.50029,-1.6668 -6.81724,-2.51688 -9.9675,-2.51688 -1.78347,0 -3.2336,0.43337 -4.30035,1.28344 -0.81674,0.66672 -1.23344,1.45012 -1.23344,2.36687 0,1.65013 1.60013,2.85024 4.75041,3.56696 l 0.73338,0.15002 c 1.21676,0.30002 2.65022,0.63338 4.30038,0.98342 3.30027,0.70005 6.01714,1.86682 8.11733,3.51695 3.50028,2.75024 5.23377,6.51722 5.23377,11.31762 0,6.93392 -3.01693,12.11768 -9.03408,15.58464 -4.25037,2.43354 -9.36746,3.66698 -15.4013,3.66698 -6.80057,0 -13.71782,-2.00017 -20.70174,-5.98384 l 6.56722,-12.76774 c 5.41712,3.53363 10.26753,5.28378 14.60123,5.28378 1.73348,0 3.20027,-0.43337 4.35036,-1.33345 0.93343,-0.71673 1.38346,-1.58346 1.38346,-2.61688 0,-1.01675 -0.50003,-1.95017 -1.53347,-2.8169 -0.70006,-0.56672 -2.7669,-1.2001 -6.23386,-1.91683 -4.98375,-1.10009 -8.60072,-2.51688 -10.88424,-4.26703 -2.86691,-2.23352 -4.30036,-5.53379 -4.30036,-9.88416 0,-6.98392 2.86691,-12.11768 8.61739,-15.38462 3.88366,-2.20019 8.63405,-3.31695 14.20118,-3.31695 2.60022,0 5.53379,0.28336 8.80074,0.85007 2.15018,0.33336 4.86709,1.16677 8.084,2.51688"
       id="path7811"
       style="fill:#ffffff" />
    <g
       transform="matrix(0.66450221,0,0,0.66450221,-4.6271631e-6,-0.01653118)"
       id="g3524">
      <path
         d="m 74.23348,24.51347 c 0.148417,-0.8163 0.247361,-1.31102 0.247361,-1.48417 0,-0.46999 -0.247361,-0.8905 -0.742084,-1.21207 -5.664578,-3.71043 -12.590699,-5.56564 -20.753627,-5.56564 -10.240765,0 -18.700528,3.2157 -25.379287,9.6471 -6.67876,6.4314 -10.01814,14.56959 -10.01814,24.43931 0,9.54816 3.067282,17.26583 9.177111,23.17777 6.134564,5.91194 14.173812,8.85554 24.093007,8.85554 5.491425,0 9.82025,-0.93997 12.986477,-2.84465 0.593668,-0.32157 0.989446,-1.11313 1.162599,-2.37467 0,0 1.682058,-11.84862 1.73153,-12.3186 0.148417,-0.93998 -0.371042,-0.79156 -2.81992,-0.0247 -4.675132,1.36049 -8.509235,2.0531 -11.502309,2.0531 -4.823549,0 -8.756596,-1.60785 -11.848614,-4.82355 -3.116755,-3.2157 -4.675132,-7.29716 -4.675132,-12.26913 0,-5.34301 1.781003,-9.69657 5.318272,-13.08542 3.537269,-3.36412 8.138192,-5.07091 13.80277,-5.07091 5.466688,0 10.14182,1.26154 14.074867,3.78463 1.187335,0.74209 1.92942,1.13786 2.201517,1.13786 0.371043,0 0.667876,-0.59366 0.890502,-1.80574 l 2.0531,-10.21602 z"
         id="path7701"
         style="fill:#ffffff" />
      <path
         d="m 121.40532,19.68992 c -0.17316,-0.86577 -0.64314,-1.31102 -1.40996,-1.31102 h -18.87368 c -0.86577,0 -1.484174,0.37104 -1.879954,1.13786 l -29.08971,58.87203 c -0.123681,0.32157 -0.173153,0.56894 -0.173153,0.71735 0,0.39578 0.222625,0.59367 0.643139,0.59367 h 15.880607 c 0.964709,0 1.632585,-0.34631 1.954155,-0.98945 l 4.081465,-8.43502 c 0.321569,-0.64314 0.865765,-0.96471 1.632585,-0.96471 h 19.962076 c 0.74208,0 1.18733,0.3463 1.28628,1.06365 l 2.12731,8.4845 c 0.12368,0.56893 0.49472,0.84103 1.1626,0.84103 h 14.12434 c 0.49472,0 0.74208,-0.24736 0.74208,-0.74208 V 78.63616 L 121.40532,19.68992 z m -9.99341,35.89215 H 99.563296 c -0.37104,0 -0.56893,-0.0989 -0.56893,-0.24736 l 0.17315,-0.49473 7.915574,-17.98318 c 0.17315,-0.32157 0.29683,-0.51946 0.42051,-0.56893 0.14842,0.099 0.29684,0.37104 0.39578,0.81629 l 4.18041,17.41425 c 0.0989,0.42052 0.17315,0.66788 0.17315,0.71735 0,0.22263 -0.29683,0.34631 -0.84103,0.34631"
         id="path7703"
         style="fill:#ffffff" />
      <path
         d="m 141.34265,78.85878 c 0,0.5442 0.46999,0.84103 1.38522,0.84103 h 13.65436 c 0.76682,0 1.18733,-0.39578 1.31101,-1.1626 L 162.591,43.5603 c 0.099,-0.71735 0.19789,-1.06366 0.24736,-1.06366 0.17316,0.099 0.37104,0.37105 0.64314,0.8163 l 20.03628,35.22427 c 0.44525,0.76682 1.08839,1.1626 1.95416,1.1626 h 13.97592 c 0.93997,0 1.45943,-0.34631 1.55838,-0.98945 L 209.1939,19.2694 c 0,-0.59366 -0.37104,-0.8905 -1.06365,-0.8905 H 193.6596 c -0.98944,0 -1.53364,0.42052 -1.63258,1.23681 l -4.42777,31.71174 c -0.0989,0.81629 -0.24737,1.21207 -0.39578,1.21207 -0.17316,0 -0.42052,-0.29683 -0.74209,-0.8905 L 168.15663,19.51676 c -0.44525,-0.76682 -1.08839,-1.13786 -1.95415,-1.13786 h -15.5343 c -0.76682,0 -1.21207,0.37104 -1.31102,1.06366 l -8.01451,59.41622 z"
         id="path7705"
         style="fill:#ffffff" />
      <path
         d="M 270.91059,78.38879 258.54252,19.61571 C 258.3941,18.79942 257.89938,18.3789 257.08308,18.3789 H 239.0999 c -0.86576,0 -1.45943,0.37104 -1.80574,1.06366 l -28.91655,59.09465 c -0.17315,0.32157 -0.24736,0.56893 -0.24736,0.74209 0,0.27209 0.19789,0.42051 0.64314,0.42051 h 15.70745 c 0.81629,0 1.38522,-0.32157 1.70679,-0.91524 l 4.40304,-8.58344 c 0.32157,-0.59367 0.91524,-0.8905 1.73153,-0.8905 h 18.87368 c 0.98945,0 1.55838,0.42051 1.73153,1.31101 l 1.53364,7.91557 c 0.17315,0.76682 0.69261,1.1626 1.55838,1.1626 h 13.97592 c 0.66788,0 0.98945,-0.17315 0.98945,-0.49472 0,-0.39578 -0.0247,-0.66788 -0.0742,-0.8163 M 249.73646,54.9884 c 0,0.37104 -0.32157,0.56893 -0.91524,0.56893 H 237.7889 c -0.69261,0 -1.06366,-0.17315 -1.06366,-0.49472 0,-0.17316 0.0742,-0.42052 0.17316,-0.74209 l 8.01451,-18.05738 c 0.22262,-0.44525 0.37104,-0.69262 0.46998,-0.74209 0.12369,0.099 0.22263,0.34631 0.34631,0.74209 l 3.90831,17.88423 c 0,0.0742 0.0247,0.19789 0.099,0.42051 v 0.42052 z"
         id="path7707"
         style="fill:#ffffff" />
      <path
         d="m 287.33539,18.3789 c -0.6184,0 -0.96471,0.44525 -1.06365,1.31102 l -8.50924,59.34201 c 0,0.44525 0.24736,0.66788 0.74209,0.66788 h 34.33377 c 0.71735,0 1.11312,-0.34631 1.21207,-0.98945 l 1.63258,-12.02176 c 0,-0.5442 -0.27209,-0.8163 -0.81629,-0.8163 h -16.4248 c -0.64314,0 -0.98945,-0.29683 -0.98945,-0.8905 v -0.17315 l 6.13457,-45.68766 c 0,-0.49473 -0.2721,-0.74209 -0.81629,-0.74209 h -15.43536 z"
         id="path7709"
         style="fill:#ffffff" />
      <path
         d="m 358.60023,56.54678 c 0,-0.69262 0.37104,-1.06366 1.06365,-1.06366 h 20.28364 c 0.59367,0 0.89051,-0.32157 0.89051,-0.96471 V 37.84625 c 0,-0.71735 -0.29684,-1.06365 -0.89051,-1.06365 h -20.531 c -0.54419,0 -0.81629,-0.39578 -0.81629,-1.1626 V 16.74632 c 0,-0.5442 -0.34631,-0.8163 -1.06365,-0.8163 h -16.67217 c -0.54419,0 -0.81629,0.2721 -0.81629,0.8163 V 35.62 c 0,0.76682 -0.32157,1.1626 -0.96471,1.1626 h -21.91623 c -0.59366,0 -0.8905,0.29683 -0.8905,0.8905 v 16.74637 c 0,0.71735 0.32157,1.06365 0.96471,1.06365 h 21.74308 c 0.71734,0 1.06365,0.42052 1.06365,1.23681 v 21.99043 c 0,0.64314 0.29683,0.98945 0.91524,0.98945 h 16.74637 c 0.59367,0 0.8905,-0.39578 0.8905,-1.1626 V 56.54678 z"
         id="path7711"
         style="fill:#ffffff" />
      <g
         transform="matrix(0.91665843,0,0,0.91665843,-68.749382,-87.494764)"
         id="g3382">
        <rect
           width="600"
           height="109.10062"
           x="75"
           y="95.449692"
           id="rect8117" />
        <path
           d="m 155.97067,122.16385 c 0.187,-0.90829 0.26714,-1.44256 0.26714,-1.60285 0,-0.561 -0.26714,-0.98843 -0.80142,-1.36243 -6.17097,-4.03383 -13.73108,-6.06411 -22.6536,-6.06411 -11.16652,0 -20.38291,3.52627 -27.67587,10.55209 -7.292969,6.99912 -10.926093,15.86821 -10.926093,26.63402 0,10.41852 3.339275,18.83348 10.017813,25.2983 6.70525,6.43812 15.46749,9.67053 26.28673,9.67053 5.98396,0 10.71237,-1.04185 14.1585,-3.12556 0.66785,-0.34728 1.06856,-1.20213 1.25556,-2.59127 0,0 1.84328,-12.90294 1.92343,-13.43722 0.13357,-1.01513 -0.42744,-0.85486 -3.07214,-0.0267 -5.12912,1.49599 -9.32323,2.24399 -12.58236,2.24399 -5.23598,0 -9.53696,-1.76314 -12.92966,-5.26269 -3.3927,-3.52627 -5.07569,-7.98753 -5.07569,-13.38379 0,-5.82368 1.92342,-10.57881 5.79697,-14.26536 3.84685,-3.68655 8.8691,-5.52983 15.06679,-5.52983 5.93054,0 11.05966,1.36242 15.33393,4.11398 1.30899,0.82814 2.11041,1.25557 2.40427,1.25557 0.42742,0 0.748,-0.66786 0.98843,-1.97685 l 2.21727,-11.1398 z"
           id="path8119"
           style="fill:#ffffff" />
        <path
           d="m 207.42213,116.92787 c -0.16028,-0.96171 -0.66786,-1.44256 -1.52271,-1.44256 h -20.59661 c -0.93499,0 -1.62956,0.42743 -2.03027,1.25557 l -31.76314,64.22083 c -0.1068,0.34728 -0.16027,0.61442 -0.16027,0.7747 0,0.42743 0.24042,0.64114 0.69456,0.64114 h 17.31077 c 1.06857,0 1.78985,-0.34728 2.13713,-1.06856 l 4.46127,-9.18967 c 0.34729,-0.72128 0.96171,-1.06856 1.78985,-1.06856 h 21.74532 c 0.82814,0 1.309,0.374 1.44256,1.1487 l 2.29743,9.26982 c 0.13356,0.61442 0.56099,0.90827 1.25555,0.90827 h 15.44079 c 0.53428,0 0.80142,-0.26714 0.80142,-0.80142 v -0.34728 l -13.30365,-64.30098 z m -10.87265,39.13624 h -12.92966 c -0.42742,0 -0.61443,-0.0802 -0.61443,-0.26714 l 0.16029,-0.53428 8.65539,-19.63491 c 0.18699,-0.32056 0.32057,-0.56099 0.45414,-0.61442 0.18699,0.13357 0.32056,0.42742 0.45414,0.90827 l 4.54141,18.99378 c 0.1068,0.45413 0.16028,0.72128 0.16028,0.80142 0,0.24042 -0.29385,0.34728 -0.88156,0.34728"
           id="path8121"
           style="fill:#ffffff" />
        <path
           d="m 229.19417,181.46928 c 0,0.61442 0.50757,0.90827 1.52271,0.90827 h 14.87978 c 0.82814,0 1.30899,-0.42742 1.44257,-1.25556 l 5.34283,-38.14782 c 0.1068,-0.80142 0.21371,-1.17542 0.26714,-1.17542 0.16028,0.13358 0.40071,0.40072 0.69457,0.88157 l 21.85218,38.44167 c 0.48085,0.82814 1.20213,1.25556 2.13713,1.25556 h 15.25378 c 1.01514,0 1.57613,-0.34728 1.7097,-1.06856 l 8.89582,-64.83526 c 0,-0.64114 -0.374,-0.98842 -1.14871,-0.98842 h -15.78806 c -1.06857,0 -1.65628,0.45414 -1.78986,1.33571 l -4.80854,34.59483 c -0.1068,0.90828 -0.26714,1.33571 -0.45414,1.33571 -0.16029,0 -0.42743,-0.29386 -0.80143,-0.96171 l -19.95547,-35.04897 c -0.48085,-0.82814 -1.20214,-1.25557 -2.16384,-1.25557 h -16.93678 c -0.82814,0 -1.309,0.40072 -1.41585,1.17542 l -8.73553,64.80855 z"
           id="path8123"
           style="fill:#ffffff" />
        <path
           d="m 370.53876,180.96171 -13.46393,-64.14069 c -0.18699,-0.88157 -0.72128,-1.33571 -1.60285,-1.33571 h -19.63491 c -0.93499,0 -1.60284,0.40072 -1.95012,1.17542 l -31.57614,64.46126 c -0.18699,0.34729 -0.26714,0.61442 -0.26714,0.80143 0,0.29384 0.24043,0.48085 0.72128,0.48085 h 17.12378 c 0.88157,0 1.49599,-0.32057 1.86999,-0.98843 l 4.80855,-9.34995 c 0.34728,-0.66785 0.98842,-0.98843 1.86998,-0.98843 h 20.59663 c 1.06856,0 1.68299,0.48086 1.86998,1.41586 l 1.70971,8.65538 c 0.16029,0.82814 0.748,1.25557 1.68299,1.25557 h 15.25378 c 0.72128,0 1.06856,-0.18701 1.06856,-0.56099 0,-0.42744 -0.0267,-0.72129 -0.0802,-0.88157 m -23.10772,-25.51203 c 0,0.40072 -0.32058,0.61443 -0.98843,0.61443 h -12.02137 c -0.7747,0 -1.17542,-0.18699 -1.17542,-0.53428 0,-0.187 0.0802,-0.45415 0.187,-0.80143 l 8.73553,-19.71504 c 0.24042,-0.48086 0.42743,-0.748 0.53428,-0.80142 0.13358,0.10691 0.24043,0.4007 0.34729,0.80142 l 4.30097,19.52805 c 0,0.0802 0.0267,0.21371 0.0802,0.45414 v 0.45413 z"
           id="path8125"
           style="fill:#ffffff" />
        <path
           d="m 388.46396,115.48531 c -0.66785,0 -1.04185,0.48085 -1.17542,1.44256 l -9.26982,64.7284 c 0,0.48086 0.26715,0.72128 0.80144,0.72128 h 37.45324 c 0.77471,0 1.22885,-0.34728 1.33571,-1.06856 l 1.78985,-13.11665 c 0,-0.58771 -0.29386,-0.88157 -0.88157,-0.88157 h -17.9252 c -0.72128,0 -1.06857,-0.34729 -1.06857,-0.98842 v -0.187 l 6.67854,-49.84862 c 0,-0.53428 -0.29386,-0.80142 -0.90828,-0.80142 h -16.82992 z"
           id="path8127"
           style="fill:#ffffff" />
        <path
           d="m 466.20216,157.13267 c 0,-0.7747 0.40071,-1.1487 1.17542,-1.1487 h 22.11932 c 0.64114,0 0.96171,-0.374 0.96171,-1.06856 v -18.19234 c 0,-0.77472 -0.32057,-1.14872 -0.96171,-1.14872 h -22.38647 c -0.58771,0 -0.90827,-0.42742 -0.90827,-1.28227 v -20.59662 c 0,-0.58771 -0.374,-0.88157 -1.14872,-0.88157 H 446.8611 c -0.58771,0 -0.88156,0.29386 -0.88156,0.88157 v 20.59662 c 0,0.85485 -0.374,1.28227 -1.06856,1.28227 h -23.90917 c -0.64115,0 -0.98843,0.29386 -0.98843,0.96171 v 18.2992 c 0,0.74799 0.374,1.14871 1.06857,1.14871 h 23.72216 c 0.77472,0 1.17543,0.42742 1.17543,1.33571 v 23.98931 c 0,0.72128 0.32057,1.06856 0.96171,1.06856 h 18.2992 c 0.64113,0 0.96171,-0.42742 0.96171,-1.25556 v -23.98932 z"
           id="path8129"
           style="fill:#ffffff" />
        <g
           transform="matrix(1.1295417,0,0,1.1295417,57.795833,94.469163)"
           id="g3189">
          <path
             d="m 399.95216,11.763127 c 45.57322,0 91.1345,0.01195 136.70773,0 -0.10752,25.528173 0.14335,51.068291 -0.13141,76.60841 -45.52544,-0.167242 -91.05088,0.03584 -136.57632,-0.107513 0.0239,-25.504281 0.012,-50.996616 0,-76.500897 z"
             id="path3091"
             style="fill:#ff0000" />
          <path
             d="m 410.02247,22.012623 c 5.37561,-0.01195 10.73927,-0.01195 16.10294,0.01195 -0.012,6.629918 0.0239,13.259837 -0.0358,19.889755 6.18792,0.01195 12.3639,0 18.55183,0.01195 -0.0478,-6.641864 -0.0239,-13.283729 -0.0239,-19.925593 5.19643,0.01195 10.40479,0.02389 15.61316,-0.03584 0.11946,18.695175 0.0717,37.402297 0.0239,56.097472 -5.22031,-0.08362 -10.42868,-0.05973 -15.64899,-0.04778 0,-7.908119 0.0478,-15.816238 -0.0239,-23.724357 -6.15209,0.03584 -12.29223,0.02389 -18.44432,0.01195 -0.0239,7.884227 -0.0119,15.7804 0,23.664628 -5.37561,0.05973 -10.75122,0.04778 -16.11488,0.03584 0.0119,-18.671284 0,-37.330622 0,-55.98996 z"
             id="path3097"
             style="fill:#ffffff" />
          <path
             d="m 474.52978,22.012623 c 13.2479,0.776477 27.53507,-2.401106 39.86314,3.846547 13.73766,7.406396 17.23778,27.033343 8.816,39.636161 -4.41995,7.143588 -12.45947,11.372401 -20.70207,12.101095 -9.31773,0.645073 -18.65934,0.358374 -27.98901,0.394211 0.0358,-18.659338 0.0119,-37.318676 0.0119,-55.978014 z"
             id="path3099"
             style="fill:#ffffff" />
          <path
             d="m 490.66856,34.030097 c 6.60603,-0.406157 14.65749,0.322536 18.3368,6.713539 3.30899,6.450731 3.22537,15.493701 -1.87549,21.036552 -4.31243,4.372162 -10.83484,4.109355 -16.50909,4.18103 0.0717,-10.643707 0,-21.287414 0.0478,-31.931121 z"
             id="path3109"
             style="fill:#ff0000" />
        </g>
      </g>
    </g>
    <path
       d="m 519.27423,102.57633 c 5.26258,-6.884805 13.90157,-10.641572 22.4707,-10.711427 7.73086,-0.326001 15.78772,1.738667 21.65572,6.970192 9.1901,7.482475 11.54197,21.477195 6.48898,31.963535 -5.00644,8.98053 -13.00121,15.66352 -19.52122,23.472 7.60667,-0.0466 15.20559,0.008 22.81225,-0.0155 0.23284,5.48767 0.008,10.99086 0.13194,16.4863 -1.44369,0.20957 -2.89519,0.38033 -4.3544,0.37256 -15.53159,-0.0466 -31.07092,-0.008 -46.60252,-0.0233 -3.38416,-0.0311 -6.78388,0.16298 -10.16033,-0.24064 9.15907,-10.71919 19.97141,-19.97139 28.64144,-31.12525 4.28456,-5.379 8.91068,-10.88995 10.53292,-17.75148 1.69209,-4.86671 -0.652,-11.20819 -5.76709,-12.88476 -4.16814,-1.75419 -9.44627,0.88486 -10.63383,5.22376 -0.59765,2.21991 -0.82275,4.51743 -1.21085,6.77615 -6.83824,-0.1242 -13.68425,0.15524 -20.52248,-0.15524 0.40361,-6.49671 1.78524,-13.21853 6.03877,-18.35691 z"
       id="path3055"
       style="fill:#ffffff" />
  </g>
</svg>
