<?xml version="1.0" encoding="UTF-8" standalone="no"?>
<!-- Created with Inkscape (http://www.inkscape.org/) -->

<svg
   xmlns:dc="http://purl.org/dc/elements/1.1/"
   xmlns:cc="http://creativecommons.org/ns#"
   xmlns:rdf="http://www.w3.org/1999/02/22-rdf-syntax-ns#"
   xmlns:svg="http://www.w3.org/2000/svg"
   xmlns="http://www.w3.org/2000/svg"
   version="1.1"
   width="600"
   height="126.28065"
   id="svg7900">
  <defs
     id="defs7902" />
  <metadata
     id="metadata7905">
    <rdf:RDF>
      <cc:Work
         rdf:about="">
        <dc:format>image/svg+xml</dc:format>
        <dc:type
           rdf:resource="http://purl.org/dc/dcmitype/StillImage" />
        <dc:title></dc:title>
      </cc:Work>
    </rdf:RDF>
  </metadata>
  <g
     transform="translate(-194.28571,-294.93614)"
     id="layer1">
    <g
       id="g7929">
      <path
         d="m 194.28571,421.21679 600,0 0,-126.28065 -600,0 0,126.28065 z"
         id="path4522"
         style="fill:#000408;fill-opacity:1;fill-rule:nonzero;stroke:none" />
      <path
         d="m 719.51704,335.19179 -0.95392,-0.95392 0,-15.14834 0.95392,-0.97224 29.32367,0 0.93408,0.97224 0,75.53182 -0.93408,0.95392 -18.23905,0 -0.91577,-0.95392 0,-58.51379 -0.97377,-0.91577 -9.19584,0"
         id="path4526"
         style="fill:#ffffff;fill-opacity:1;fill-rule:nonzero;stroke:none" />
      <path
         d="m 288.05658,325.88148 0.28694,-1.86969 -0.91577,-1.52628 c -7.17351,-4.69331 -15.93055,-7.03997 -26.23294,-7.03997 -12.93523,0 -23.6192,4.06372 -32.07098,12.17209 -8.41362,8.12744 -12.62997,18.42984 -12.62997,30.8881 0,12.03854 3.87294,21.80674 11.59973,29.26643 7.74588,7.47878 17.89564,11.19909 30.43022,11.19909 6.94458,0 12.42011,-1.20119 16.40752,-3.60584 l 1.44997,-2.99533 2.21311,-15.56806 c 0.13736,-1.16455 -0.4762,-0.99208 -3.54861,-0.0153 -5.91433,1.71706 -10.79843,2.5756 -14.5569,2.5756 -6.06696,0 -11.06553,-2.0414 -14.97663,-6.08605 -3.93017,-4.0828 -5.89526,-9.234 -5.89526,-15.49175 0,-6.75379 2.23219,-12.2484 6.71564,-16.52198 4.48345,-4.25451 10.26424,-6.41038 17.45683,-6.41038 6.86827,0 12.80168,1.60259 17.72394,4.76962 l 2.82362,1.44997 1.10655,-2.28942 2.61376,-12.89707"
         id="path4530"
         style="fill:#ffffff;fill-opacity:1;fill-rule:nonzero;stroke:none" />
      <path
         d="m 347.61968,319.79544 -1.75522,-1.67891 -23.84813,0 -2.38482,1.46828 -36.7452,74.34895 -0.21063,0.91577 0.83945,0.72498 20.01336,0 2.46113,-1.24087 5.18935,-10.6458 2.06048,-1.24087 25.18363,0 1.67891,1.35534 2.67099,10.7412 1.43013,1.03024 17.87656,0 0.93561,-0.93561 0,-0.40142 -15.39636,-74.44433 z m -12.59181,45.31146 -14.99571,0 -0.68682,-0.30526 0.19078,-0.62883 10.01622,-22.68434 0.5342,-0.74483 0.51435,1.03024 5.24659,21.99752 0.21063,0.91577 -1.03024,0.41973"
         id="path4534"
         style="fill:#ffffff;fill-opacity:1;fill-rule:nonzero;stroke:none" />
      <path
         d="m 372.82239,394.54503 1.73615,1.03024 17.24697,0 1.65983,-1.44996 6.20051,-44.18583 0.30526,-1.35534 0.8013,1.05009 25.31718,44.49108 2.4802,1.44996 17.64762,0 1.96509,-1.24086 10.34055,-75.07393 -1.37365,-1.14471 -18.25813,0 -2.07956,1.56443 -5.55185,40.04579 -0.51435,1.56444 -0.93561,-1.14471 -23.16131,-40.56091 -2.42297,-1.46828 -19.65087,0 -1.65983,1.35534 -10.09253,75.07393"
         id="path4538"
         style="fill:#ffffff;fill-opacity:1;fill-rule:nonzero;stroke:none" />
      <path
         d="m 536.45876,393.93452 -15.58714,-74.25355 -1.85062,-1.56444 -22.7225,0 -2.27034,1.35534 -36.53535,74.6542 -0.3251,0.93561 0.83946,0.51436 19.80349,0 2.15587,-1.16456 5.59,-10.81751 2.17495,-1.14471 23.82906,0 2.17495,1.64075 1.94601,10.0353 2.00324,1.44996 17.64762,0 1.23934,-0.62883 -0.10684,-1.01192 m -26.74807,-29.55261 -1.10655,0.72499 -13.94639,0 -1.33549,-0.61052 0.19078,-0.93561 10.11161,-22.81789 0.61051,-0.93409 0.41973,0.93409 4.94133,22.60803 0.10684,0.51436 0,0.51435"
         id="path4542"
         style="fill:#ffffff;fill-opacity:1;fill-rule:nonzero;stroke:none" />
      <path
         d="m 557.21617,318.11653 -1.33549,1.67891 -10.7412,74.95946 0.93408,0.82114 43.36545,0 1.52628,-1.24087 2.06048,-15.18649 -1.03024,-1.03024 -20.73834,0 -1.25918,-1.1264 0,-0.2091 7.76495,-57.73156 -1.05008,-0.93409 -19.49823,0"
         id="path4546"
         style="fill:#ffffff;fill-opacity:1;fill-rule:nonzero;stroke:none" />
      <path
         d="m 647.24765,366.36608 1.3355,-1.35534 25.60336,0 1.12639,-1.24087 0,-21.06267 -1.12639,-1.35534 -25.88954,0 -1.05008,-1.44996 0,-23.82906 -1.3355,-1.05008 -21.08175,0 -1.01192,1.05008 0,23.82906 -1.23934,1.44996 -27.68292,0 -1.14471,1.14471 0,21.17715 1.24087,1.33549 27.47305,0 1.35534,1.54536 0,27.77831 1.12639,1.24087 21.13899,0 1.16455,-1.44997 0,-27.75923"
         id="path4550"
         style="fill:#ffffff;fill-opacity:1;fill-rule:nonzero;stroke:none" />
    </g>
  </g>
</svg>
