<?xml version="1.0" encoding="UTF-8" standalone="no"?>
<!-- Created with Inkscape (http://www.inkscape.org/) -->

<svg
   xmlns:dc="http://purl.org/dc/elements/1.1/"
   xmlns:cc="http://creativecommons.org/ns#"
   xmlns:rdf="http://www.w3.org/1999/02/22-rdf-syntax-ns#"
   xmlns:svg="http://www.w3.org/2000/svg"
   xmlns="http://www.w3.org/2000/svg"
   version="1.1"
   width="600"
   height="240.01923"
   id="svg2">
  <metadata
     id="metadata23">
    <rdf:RDF>
      <cc:Work
         rdf:about="">
        <dc:format>image/svg+xml</dc:format>
        <dc:type
           rdf:resource="http://purl.org/dc/dcmitype/StillImage" />
        <dc:title></dc:title>
      </cc:Work>
    </rdf:RDF>
  </metadata>
  <defs
     id="defs21" />
  <g
     id="g5039">
    <rect
       width="600"
       height="160.0132"
       x="1.8388755e-13"
       y="80.006035"
       id="rect7697"
       style="fill:#d7002d;fill-opacity:1" />
    <path
       d="m 59.386803,19.629976 c 0.118733,-0.65304 0.197888,-1.048816 0.197888,-1.187336 0,-0.375992 -0.197888,-0.7124 -0.593667,-0.969656 -4.531662,-2.968344 -10.072559,-4.452512 -16.602901,-4.452512 -8.192612,0 -14.960423,2.57256 -20.30343,7.71768 -5.343008,5.14512 -8.014512,11.655672 -8.014512,19.551448 0,7.638528 2.453826,13.812664 7.341689,18.542216 4.907651,4.729552 11.339049,7.084432 19.274405,7.084432 4.39314,0 7.8562,-0.751976 10.389182,-2.27572 0.474934,-0.257256 0.791557,-0.890504 0.930079,-1.899736 0,0 1.345647,-9.478896 1.385224,-9.85488 0.118734,-0.751984 -0.296833,-0.633248 -2.255936,-0.01976 -3.740105,1.088392 -6.807388,1.64248 -9.201847,1.64248 -3.858839,0 -7.005277,-1.28628 -9.478891,-3.85884 -2.493404,-2.57256 -3.740106,-5.837728 -3.740106,-9.815304 0,-4.274408 1.424803,-7.757256 4.254618,-10.468336 2.829815,-2.691296 6.510553,-4.056728 11.042216,-4.056728 4.37335,0 8.113456,1.009232 11.259893,3.027704 0.949868,0.593672 1.543536,0.910288 1.761214,0.910288 0.296834,0 0.534301,-0.474928 0.712402,-1.444592 l 1.64248,-8.172816 z"
       id="path7701"
       style="fill:#ffffff" />
    <path
       d="M 97.124275,15.771136 C 96.985747,15.07852 96.609763,14.72232 95.996307,14.72232 H 80.897363 c -0.692616,0 -1.18734,0.296832 -1.503964,0.910288 L 56.121631,62.730232 c -0.09894,0.257256 -0.138522,0.455152 -0.138522,0.57388 0,0.316624 0.1781,0.474936 0.514511,0.474936 h 12.704486 c 0.771767,0 1.306068,-0.277048 1.563324,-0.79156 l 3.265172,-6.748016 c 0.257255,-0.514512 0.692612,-0.771768 1.306068,-0.771768 h 15.969661 c 0.593664,0 0.949864,0.27704 1.029024,0.85092 l 1.701848,6.7876 c 0.09894,0.455144 0.395776,0.672824 0.93008,0.672824 h 11.299467 c 0.39578,0 0.59367,-0.197888 0.59367,-0.593664 V 62.928128 L 97.124275,15.771136 z m -7.994728,28.71372 h -9.478892 c -0.296832,0 -0.455144,-0.07912 -0.455144,-0.197888 l 0.13852,-0.395784 6.33246,-14.386544 c 0.13852,-0.257256 0.237464,-0.415568 0.336408,-0.455144 0.118736,0.0792 0.237472,0.296832 0.316624,0.653032 l 3.344328,13.9314 c 0.07912,0.336416 0.13852,0.534304 0.13852,0.57388 0,0.178104 -0.237464,0.277048 -0.672824,0.277048"
       id="path7703"
       style="fill:#ffffff" />
    <path
       d="m 113.07414,63.106224 c 0,0.43536 0.37599,0.672824 1.10817,0.672824 h 10.92349 c 0.61346,0 0.94987,-0.316624 1.04881,-0.93008 l 3.91821,-27.981528 c 0.0792,-0.57388 0.15831,-0.850928 0.19789,-0.850928 0.13852,0.0792 0.29683,0.29684 0.51451,0.65304 l 16.02902,28.179416 c 0.3562,0.613456 0.87071,0.93008 1.56333,0.93008 h 11.18074 c 0.75197,0 1.16754,-0.277048 1.2467,-0.79156 l 6.55013,-47.552768 c 0,-0.474928 -0.29683,-0.7124 -0.85092,-0.7124 H 154.9277 c -0.79155,0 -1.22691,0.336416 -1.30607,0.989448 l -3.54221,25.369392 c -0.0791,0.653032 -0.1979,0.969656 -0.31663,0.969656 -0.13852,0 -0.33641,-0.237464 -0.59367,-0.7124 l -14.6438,-25.705808 c -0.3562,-0.613456 -0.87071,-0.910288 -1.56332,-0.910288 h -12.42744 c -0.61345,0 -0.96965,0.296832 -1.04881,0.850928 l -6.41161,47.532976 z"
       id="path7705"
       style="fill:#ffffff" />
    <path
       d="m 216.72849,62.730232 -9.89446,-47.018464 c -0.11873,-0.653032 -0.51451,-0.989448 -1.16755,-0.989448 h -14.38654 c -0.69261,0 -1.16755,0.296832 -1.44459,0.850928 l -23.13324,47.27572 c -0.13852,0.257256 -0.19789,0.455144 -0.19789,0.593672 0,0.217672 0.15831,0.336408 0.51451,0.336408 h 12.56596 c 0.65303,0 1.10818,-0.257256 1.36543,-0.732192 l 3.52243,-6.866752 c 0.25726,-0.474936 0.7322,-0.7124 1.38523,-0.7124 h 15.09894 c 0.79156,0 1.24671,0.336408 1.38523,1.048808 l 1.22691,6.332456 c 0.13852,0.613456 0.55409,0.93008 1.2467,0.93008 h 11.18074 c 0.5343,0 0.79156,-0.13852 0.79156,-0.395776 0,-0.316624 -0.0198,-0.534304 -0.0594,-0.65304 M 199.78919,44.00992 c 0,0.296832 -0.25726,0.455144 -0.7322,0.455144 h -8.82585 c -0.55409,0 -0.85093,-0.13852 -0.85093,-0.395776 0,-0.138528 0.0594,-0.336416 0.13853,-0.593672 l 6.41161,-14.445904 c 0.17809,-0.3562 0.29683,-0.554096 0.37598,-0.593672 0.099,0.0792 0.1781,0.277048 0.27705,0.593672 l 3.12665,14.307384 c 0,0.05936 0.0198,0.158312 0.0792,0.336408 v 0.336416 z"
       id="path7707"
       style="fill:#ffffff" />
    <path
       d="m 229.86833,14.72232 c -0.49472,0 -0.77177,0.3562 -0.85092,1.048816 l -6.80739,47.473608 c 0,0.3562 0.19789,0.534304 0.59367,0.534304 h 27.46702 c 0.57388,0 0.89049,-0.277048 0.96965,-0.79156 l 1.30607,-9.617408 c 0,-0.43536 -0.21768,-0.65304 -0.65304,-0.65304 h -13.13984 c -0.51451,0 -0.79156,-0.237464 -0.79156,-0.7124 v -0.13852 l 4.90766,-36.550128 c 0,-0.395784 -0.21768,-0.593672 -0.65303,-0.593672 h -12.34829 z"
       id="path7709"
       style="fill:#ffffff" />
    <path
       d="m 286.8802,45.256624 c 0,-0.554096 0.29683,-0.850928 0.85092,-0.850928 h 16.22691 c 0.47494,0 0.71241,-0.257256 0.71241,-0.771768 V 30.2962 c 0,-0.57388 -0.23747,-0.85092 -0.71241,-0.85092 h -16.4248 c -0.43535,0 -0.65303,-0.316624 -0.65303,-0.93008 V 13.416256 c 0,-0.43536 -0.27705,-0.65304 -0.85092,-0.65304 h -13.33773 c -0.43536,0 -0.65304,0.21768 -0.65304,0.65304 V 28.5152 c 0,0.613456 -0.25725,0.93008 -0.77176,0.93008 h -17.53299 c -0.47493,0 -0.7124,0.237464 -0.7124,0.7124 v 13.397096 c 0,0.57388 0.25726,0.85092 0.77177,0.85092 h 17.39446 c 0.57388,0 0.85092,0.336416 0.85092,0.989448 v 17.592344 c 0,0.514512 0.23747,0.79156 0.7322,0.79156 h 13.39709 c 0.47494,0 0.7124,-0.316624 0.7124,-0.93008 V 45.256624 z"
       id="path7711"
       style="fill:#ffffff" />
    <path
       d="m 93.384163,139.45187 v 0.83113 c 0,0.59367 -0.217672,0.8905 -0.653032,0.8905 -0.197888,0 -0.554088,-0.19788 -1.0686,-0.59366 -1.899736,-1.54354 -4.07652,-2.82982 -6.490768,-3.85884 -4.096304,-1.74142 -8.073876,-2.63193 -11.972296,-2.63193 -7.044855,0 -13.040896,2.45383 -17.968337,7.3219 -4.808707,4.80871 -7.203167,10.64644 -7.203167,17.51319 0,6.27309 2.117415,11.51715 6.372032,15.77177 4.848285,4.88786 11.101583,7.3219 18.799472,7.3219 5.32322,0 10.07256,-1.16754 14.248024,-3.50264 2.255936,-1.28628 3.759896,-2.41425 4.511872,-3.40369 0.277048,-0.3562 0.554088,-0.5343 0.831136,-0.5343 0.474936,0 0.7124,0.77177 0.7124,2.3153 v 22.63852 c 0,0.98945 -0.336408,1.72164 -1.009232,2.19657 -1.266496,0.91029 -4.373352,1.93931 -9.281008,3.08707 -3.89842,0.87072 -7.638522,1.30608 -11.259894,1.30608 -8.291556,0 -16.26649,-2.11742 -23.924802,-6.35225 -7.935356,-4.33377 -14.010553,-10.05277 -18.225592,-17.15699 -4.195251,-7.02507 -6.312665,-14.94064 -6.312665,-23.7467 0,-13.5752 4.709762,-25.07256 14.129287,-34.4723 4.788918,-4.84828 10.389182,-8.46965 16.781002,-10.8839 5.540897,-2.15699 11.240105,-3.22559 17.077836,-3.22559 3.858839,0 7.915568,0.45514 12.209764,1.36543 2.810032,0.63325 5.046176,1.32586 6.668864,2.09762 l 1.306072,0.59368 c 1.14776,0.47492 1.721632,1.28628 1.721632,2.43403 v 22.6781 z"
       id="path7713"
       style="fill:#ffffff" />
    <path
       d="m 139.23509,158.56796 c -3.79947,0 -7.10422,1.38522 -9.87467,4.15568 -2.77045,2.75066 -4.17547,6.03562 -4.17547,9.89446 0,3.99736 1.40502,7.40105 4.17547,10.1715 2.73087,2.75066 6.05541,4.1161 9.93404,4.1161 3.93799,0 7.26253,-1.38523 10.01319,-4.17547 2.77045,-2.73087 4.15567,-6.0752 4.15567,-9.9934 0,-3.938 -1.36544,-7.26253 -4.09631,-10.01319 -2.75066,-2.77046 -6.11478,-4.15568 -10.13192,-4.15568 m 0.23746,-18.89842 c 7.89578,0 14.98021,1.78101 21.2533,5.3628 5.12533,2.92876 9.06333,6.82718 11.85356,11.65568 2.77046,4.8087 4.17546,10.19129 4.17546,16.14776 0,8.96437 -3.00791,16.46437 -9.00396,22.5 -3.40368,3.3839 -7.53957,5.97624 -12.38785,7.79683 -4.98681,1.89973 -10.36939,2.8496 -16.12797,2.8496 -11.73483,0 -21.19394,-3.562 -28.33774,-10.7058 -5.99604,-5.95647 -8.98416,-13.27837 -8.98416,-21.96571 0,-9.22163 3.10686,-16.93931 9.281,-23.17281 6.90633,-6.94591 16.32586,-10.46835 28.27836,-10.46835"
       id="path7715"
       style="fill:#ffffff" />
    <path
       d="m 186.13483,142.02443 h 21.96569 v 7.53958 c 0.79155,-0.7124 1.68206,-1.52375 2.69129,-2.43404 5.14512,-4.03694 11.02243,-6.0752 17.61214,-6.0752 5.75857,0 10.52771,1.36544 14.2876,4.05673 2.21636,1.62269 4.47229,4.07652 6.72823,7.38127 5.20449,-7.69789 12.13061,-11.55673 20.77837,-11.55673 5.04617,0 9.41952,1.2467 13.15963,3.7599 3.16622,2.09762 5.38258,4.92744 6.60949,8.50923 0.98945,2.81002 1.48417,6.27309 1.48417,10.3496 v 40.13193 h -21.96569 v -30.47494 c 0,-4.57124 -0.29684,-7.59894 -0.89051,-9.1029 -1.58311,-4.09631 -4.37335,-6.13456 -8.33113,-6.13456 -2.47362,0 -4.68997,0.87071 -6.66887,2.61213 -1.64248,1.46439 -2.71108,3.36412 -3.22559,5.719 -0.39578,1.58311 -0.59367,3.87863 -0.59367,6.90633 v 30.47494 h -21.9657 v -30.47494 c 0,-4.65039 -0.23746,-7.65831 -0.7124,-9.06332 -0.63325,-1.89974 -1.70185,-3.44327 -3.22559,-4.63061 -1.74142,-1.34565 -3.62138,-2.01847 -5.63984,-2.01847 -2.3153,0 -4.45251,0.85093 -6.4314,2.55278 -1.50396,1.30606 -2.53298,3.06728 -3.0475,5.30342 -0.43535,1.82058 -0.65303,4.43272 -0.65303,7.8562 v 30.47494 h -21.96569 v -61.66227 z"
       id="path7717"
       style="fill:#ffffff" />
    <path
       d="m 348.87888,164.14844 c -2.01847,-6.56992 -6.31266,-9.87467 -12.8628,-9.87467 -6.70844,0 -10.82453,3.30475 -12.36807,9.87467 h 25.23087 z m 20.36279,12.6649 h -46.18732 c 0.23746,5.20449 1.56332,8.88523 3.97756,11.02244 2.21636,1.93931 5.3628,2.90896 9.39974,2.90896 3.10686,0 5.5409,-0.65303 7.34169,-1.9591 1.0686,-0.79156 2.19657,-2.07783 3.3839,-3.85884 h 21.25331 c -1.42481,4.4723 -3.00792,7.77705 -4.76914,9.93404 -6.19393,7.5 -15.31662,11.2401 -27.38786,11.2401 -11.14116,0 -19.94723,-3.2058 -26.4182,-9.6372 -5.99604,-5.87731 -8.98417,-13.63456 -8.98417,-23.27176 0,-10.48813 3.32453,-18.70053 9.9934,-24.657 6.19393,-5.50132 14.36676,-8.27176 24.51847,-8.27176 11.12137,0 19.68998,3.36411 25.72559,10.07256 5.44195,6.01583 8.15303,14.0897 8.15303,24.16226 v 2.3153 z"
       id="path7719"
       style="fill:#ffffff" />
    <path
       d="m 412.73771,158.80543 c -3.83904,0 -7.16358,1.38523 -9.93403,4.15567 -2.71108,2.71108 -4.05673,5.95647 -4.05673,9.77573 0,3.95778 1.36544,7.3219 4.1161,10.05277 2.73087,2.75066 6.07519,4.1161 9.9934,4.1161 3.97758,0 7.3219,-1.38523 10.07256,-4.17547 2.73087,-2.69129 4.0963,-5.99604 4.0963,-9.87467 0,-3.85884 -1.36543,-7.1438 -4.0963,-9.89446 -2.75066,-2.77044 -6.13457,-4.15567 -10.1913,-4.15567 m 13.69394,-46.56333 h 21.9657 v 91.4446 h -21.9657 v -6.84697 c -0.19789,0.27705 -0.47494,0.63325 -0.83114,1.0686 -4.33377,5.16491 -10.46833,7.73747 -18.40369,7.73747 -8.64775,0 -15.94987,-3.00792 -21.90633,-9.04354 -6.31266,-6.35224 -9.4591,-14.30739 -9.4591,-23.86543 0,-9.49869 3.12664,-17.39446 9.39973,-23.70713 5.95647,-5.97625 13.19921,-8.98416 21.72823,-8.98416 4.21504,0 8.05409,0.73219 11.55673,2.21636 2.41425,0.98944 5.06596,2.92876 7.91557,5.81794 V 112.2421 z"
       id="path7721"
       style="fill:#ffffff" />
    <path
       d="m 482.86964,203.6867 h -21.96569 v -61.68206 h 21.96569 v 61.68206 z m -10.94327,-92.45383 c 3.32454,0 6.23351,1.22691 8.68734,3.70053 2.37467,2.37467 3.58179,5.26386 3.58179,8.68734 0,3.28496 -1.20712,6.15435 -3.58179,8.5686 -2.43404,2.45382 -5.3628,3.68073 -8.80608,3.68073 -3.3839,0 -6.25329,-1.22691 -8.68733,-3.68073 -2.37467,-2.37468 -3.58179,-5.20449 -3.58179,-8.44987 0,-3.48285 1.22691,-6.47097 3.64116,-8.92481 2.33509,-2.39445 5.24406,-3.58179 8.7467,-3.58179"
       id="path7723"
       style="fill:#ffffff" />
    <path
       d="m 529.84853,158.44923 c -3.81926,0 -7.10422,1.38523 -9.89446,4.15567 -2.79024,2.75066 -4.15567,6.03562 -4.15567,9.89446 0,3.99736 1.36543,7.40106 4.15567,10.1715 2.75066,2.73088 6.05541,4.1161 9.95383,4.1161 3.89841,0 7.26253,-1.40502 9.99341,-4.17546 2.77044,-2.77045 4.17545,-6.11478 4.17545,-9.9934 0,-3.89842 -1.40501,-7.22296 -4.17545,-10.0132 -2.73088,-2.77044 -6.095,-4.15567 -10.05278,-4.15567 M 543.4831,141.5297 h 21.96569 v 62.157 H 543.4831 v -6.84697 c -4.67019,5.95646 -11.14116,8.9248 -19.35356,8.9248 -8.50924,0 -15.7124,-3.00791 -21.68866,-9.04353 -6.37203,-6.47098 -9.55805,-14.54486 -9.55805,-24.22164 0,-9.61742 3.14644,-17.59234 9.45911,-23.94459 5.97625,-5.97625 13.25857,-8.98417 21.90633,-8.98417 3.9182,0 7.69788,0.73219 11.31926,2.21636 2.37467,0.93008 5.00659,2.88918 7.89578,5.81794 v -6.0752 z"
       id="path7725"
       style="fill:#ffffff" />
    <g
       transform="matrix(0.73332674,0,0,0.73332674,-54.999487,-69.995812)"
       id="g3382">
      <rect
         width="600"
         height="109.10062"
         x="75"
         y="95.449692"
         id="rect8117" />
      <path
         d="m 155.97067,122.16385 c 0.187,-0.90829 0.26714,-1.44256 0.26714,-1.60285 0,-0.561 -0.26714,-0.98843 -0.80142,-1.36243 -6.17097,-4.03383 -13.73108,-6.06411 -22.6536,-6.06411 -11.16652,0 -20.38291,3.52627 -27.67587,10.55209 -7.292969,6.99912 -10.926093,15.86821 -10.926093,26.63402 0,10.41852 3.339275,18.83348 10.017813,25.2983 6.70525,6.43812 15.46749,9.67053 26.28673,9.67053 5.98396,0 10.71237,-1.04185 14.1585,-3.12556 0.66785,-0.34728 1.06856,-1.20213 1.25556,-2.59127 0,0 1.84328,-12.90294 1.92343,-13.43722 0.13357,-1.01513 -0.42744,-0.85486 -3.07214,-0.0267 -5.12912,1.49599 -9.32323,2.24399 -12.58236,2.24399 -5.23598,0 -9.53696,-1.76314 -12.92966,-5.26269 -3.3927,-3.52627 -5.07569,-7.98753 -5.07569,-13.38379 0,-5.82368 1.92342,-10.57881 5.79697,-14.26536 3.84685,-3.68655 8.8691,-5.52983 15.06679,-5.52983 5.93054,0 11.05966,1.36242 15.33393,4.11398 1.30899,0.82814 2.11041,1.25557 2.40427,1.25557 0.42742,0 0.748,-0.66786 0.98843,-1.97685 l 2.21727,-11.1398 z"
         id="path8119"
         style="fill:#ffffff" />
      <path
         d="m 207.42213,116.92787 c -0.16028,-0.96171 -0.66786,-1.44256 -1.52271,-1.44256 h -20.59661 c -0.93499,0 -1.62956,0.42743 -2.03027,1.25557 l -31.76314,64.22083 c -0.1068,0.34728 -0.16027,0.61442 -0.16027,0.7747 0,0.42743 0.24042,0.64114 0.69456,0.64114 h 17.31077 c 1.06857,0 1.78985,-0.34728 2.13713,-1.06856 l 4.46127,-9.18967 c 0.34729,-0.72128 0.96171,-1.06856 1.78985,-1.06856 h 21.74532 c 0.82814,0 1.309,0.374 1.44256,1.1487 l 2.29743,9.26982 c 0.13356,0.61442 0.56099,0.90827 1.25555,0.90827 h 15.44079 c 0.53428,0 0.80142,-0.26714 0.80142,-0.80142 v -0.34728 l -13.30365,-64.30098 z m -10.87265,39.13624 h -12.92966 c -0.42742,0 -0.61443,-0.0802 -0.61443,-0.26714 l 0.16029,-0.53428 8.65539,-19.63491 c 0.18699,-0.32056 0.32057,-0.56099 0.45414,-0.61442 0.18699,0.13357 0.32056,0.42742 0.45414,0.90827 l 4.54141,18.99378 c 0.1068,0.45413 0.16028,0.72128 0.16028,0.80142 0,0.24042 -0.29385,0.34728 -0.88156,0.34728"
         id="path8121"
         style="fill:#ffffff" />
      <path
         d="m 229.19417,181.46928 c 0,0.61442 0.50757,0.90827 1.52271,0.90827 h 14.87978 c 0.82814,0 1.30899,-0.42742 1.44257,-1.25556 l 5.34283,-38.14782 c 0.1068,-0.80142 0.21371,-1.17542 0.26714,-1.17542 0.16028,0.13358 0.40071,0.40072 0.69457,0.88157 l 21.85218,38.44167 c 0.48085,0.82814 1.20213,1.25556 2.13713,1.25556 h 15.25378 c 1.01514,0 1.57613,-0.34728 1.7097,-1.06856 l 8.89582,-64.83526 c 0,-0.64114 -0.374,-0.98842 -1.14871,-0.98842 h -15.78806 c -1.06857,0 -1.65628,0.45414 -1.78986,1.33571 l -4.80854,34.59483 c -0.1068,0.90828 -0.26714,1.33571 -0.45414,1.33571 -0.16029,0 -0.42743,-0.29386 -0.80143,-0.96171 l -19.95547,-35.04897 c -0.48085,-0.82814 -1.20214,-1.25557 -2.16384,-1.25557 h -16.93678 c -0.82814,0 -1.309,0.40072 -1.41585,1.17542 l -8.73553,64.80855 z"
         id="path8123"
         style="fill:#ffffff" />
      <path
         d="m 370.53876,180.96171 -13.46393,-64.14069 c -0.18699,-0.88157 -0.72128,-1.33571 -1.60285,-1.33571 h -19.63491 c -0.93499,0 -1.60284,0.40072 -1.95012,1.17542 l -31.57614,64.46126 c -0.18699,0.34729 -0.26714,0.61442 -0.26714,0.80143 0,0.29384 0.24043,0.48085 0.72128,0.48085 h 17.12378 c 0.88157,0 1.49599,-0.32057 1.86999,-0.98843 l 4.80855,-9.34995 c 0.34728,-0.66785 0.98842,-0.98843 1.86998,-0.98843 h 20.59663 c 1.06856,0 1.68299,0.48086 1.86998,1.41586 l 1.70971,8.65538 c 0.16029,0.82814 0.748,1.25557 1.68299,1.25557 h 15.25378 c 0.72128,0 1.06856,-0.18701 1.06856,-0.56099 0,-0.42744 -0.0267,-0.72129 -0.0802,-0.88157 m -23.10772,-25.51203 c 0,0.40072 -0.32058,0.61443 -0.98843,0.61443 h -12.02137 c -0.7747,0 -1.17542,-0.18699 -1.17542,-0.53428 0,-0.187 0.0802,-0.45415 0.187,-0.80143 l 8.73553,-19.71504 c 0.24042,-0.48086 0.42743,-0.748 0.53428,-0.80142 0.13358,0.10691 0.24043,0.4007 0.34729,0.80142 l 4.30097,19.52805 c 0,0.0802 0.0267,0.21371 0.0802,0.45414 v 0.45413 z"
         id="path8125"
         style="fill:#ffffff" />
      <path
         d="m 388.46396,115.48531 c -0.66785,0 -1.04185,0.48085 -1.17542,1.44256 l -9.26982,64.7284 c 0,0.48086 0.26715,0.72128 0.80144,0.72128 h 37.45324 c 0.77471,0 1.22885,-0.34728 1.33571,-1.06856 l 1.78985,-13.11665 c 0,-0.58771 -0.29386,-0.88157 -0.88157,-0.88157 h -17.9252 c -0.72128,0 -1.06857,-0.34729 -1.06857,-0.98842 v -0.187 l 6.67854,-49.84862 c 0,-0.53428 -0.29386,-0.80142 -0.90828,-0.80142 h -16.82992 z"
         id="path8127"
         style="fill:#ffffff" />
      <path
         d="m 466.20216,157.13267 c 0,-0.7747 0.40071,-1.1487 1.17542,-1.1487 h 22.11932 c 0.64114,0 0.96171,-0.374 0.96171,-1.06856 v -18.19234 c 0,-0.77472 -0.32057,-1.14872 -0.96171,-1.14872 h -22.38647 c -0.58771,0 -0.90827,-0.42742 -0.90827,-1.28227 v -20.59662 c 0,-0.58771 -0.374,-0.88157 -1.14872,-0.88157 H 446.8611 c -0.58771,0 -0.88156,0.29386 -0.88156,0.88157 v 20.59662 c 0,0.85485 -0.374,1.28227 -1.06856,1.28227 h -23.90917 c -0.64115,0 -0.98843,0.29386 -0.98843,0.96171 v 18.2992 c 0,0.74799 0.374,1.14871 1.06857,1.14871 h 23.72216 c 0.77472,0 1.17543,0.42742 1.17543,1.33571 v 23.98931 c 0,0.72128 0.32057,1.06856 0.96171,1.06856 h 18.2992 c 0.64113,0 0.96171,-0.42742 0.96171,-1.25556 v -23.98932 z"
         id="path8129"
         style="fill:#ffffff" />
      <g
         transform="matrix(1.1295417,0,0,1.1295417,57.795833,94.469163)"
         id="g3189">
        <path
           d="m 399.95216,11.763127 c 45.57322,0 91.1345,0.01195 136.70773,0 -0.10752,25.528173 0.14335,51.068291 -0.13141,76.60841 -45.52544,-0.167242 -91.05088,0.03584 -136.57632,-0.107513 0.0239,-25.504281 0.012,-50.996616 0,-76.500897 z"
           id="path3091"
           style="fill:#ff0000" />
        <path
           d="m 410.02247,22.012623 c 5.37561,-0.01195 10.73927,-0.01195 16.10294,0.01195 -0.012,6.629918 0.0239,13.259837 -0.0358,19.889755 6.18792,0.01195 12.3639,0 18.55183,0.01195 -0.0478,-6.641864 -0.0239,-13.283729 -0.0239,-19.925593 5.19643,0.01195 10.40479,0.02389 15.61316,-0.03584 0.11946,18.695175 0.0717,37.402297 0.0239,56.097472 -5.22031,-0.08362 -10.42868,-0.05973 -15.64899,-0.04778 0,-7.908119 0.0478,-15.816238 -0.0239,-23.724357 -6.15209,0.03584 -12.29223,0.02389 -18.44432,0.01195 -0.0239,7.884227 -0.0119,15.7804 0,23.664628 -5.37561,0.05973 -10.75122,0.04778 -16.11488,0.03584 0.0119,-18.671284 0,-37.330622 0,-55.98996 z"
           id="path3097"
           style="fill:#ffffff" />
        <path
           d="m 474.52978,22.012623 c 13.2479,0.776477 27.53507,-2.401106 39.86314,3.846547 13.73766,7.406396 17.23778,27.033343 8.816,39.636161 -4.41995,7.143588 -12.45947,11.372401 -20.70207,12.101095 -9.31773,0.645073 -18.65934,0.358374 -27.98901,0.394211 0.0358,-18.659338 0.0119,-37.318676 0.0119,-55.978014 z"
           id="path3099"
           style="fill:#ffffff" />
        <path
           d="m 490.66856,34.030097 c 6.60603,-0.406157 14.65749,0.322536 18.3368,6.713539 3.30899,6.450731 3.22537,15.493701 -1.87549,21.036552 -4.31243,4.372162 -10.83484,4.109355 -16.50909,4.18103 0.0717,-10.643707 0,-21.287414 0.0478,-31.931121 z"
           id="path3109"
           style="fill:#ff0000" />
      </g>
    </g>
  </g>
</svg>
