<?xml version="1.0" encoding="UTF-8" standalone="no"?>
<!-- Created with Inkscape (http://www.inkscape.org/) -->

<svg
   xmlns:dc="http://purl.org/dc/elements/1.1/"
   xmlns:cc="http://creativecommons.org/ns#"
   xmlns:rdf="http://www.w3.org/1999/02/22-rdf-syntax-ns#"
   xmlns:svg="http://www.w3.org/2000/svg"
   xmlns="http://www.w3.org/2000/svg"
   version="1.1"
   width="600"
   height="240.01942"
   id="svg2">
  <metadata
     id="metadata23">
    <rdf:RDF>
      <cc:Work
         rdf:about="">
        <dc:format>image/svg+xml</dc:format>
        <dc:type
           rdf:resource="http://purl.org/dc/dcmitype/StillImage" />
        <dc:title></dc:title>
      </cc:Work>
    </rdf:RDF>
  </metadata>
  <defs
     id="defs21" />
  <g
     id="g4416">
    <rect
       width="600"
       height="160.0132"
       x="1.8388755e-13"
       y="80.006233"
       id="rect7697"
       style="fill:#d7002d;fill-opacity:1" />
    <rect
       width="320.0264"
       height="80.006599"
       x="1.8388755e-13"
       y="-9.9859243e-10"
       id="rect7699" />
    <path
       d="m 59.386803,19.630174 c 0.118733,-0.65304 0.197888,-1.048816 0.197888,-1.187336 0,-0.375992 -0.197888,-0.7124 -0.593667,-0.969656 -4.531662,-2.968344 -10.072559,-4.452512 -16.602901,-4.452512 -8.192612,0 -14.960423,2.57256 -20.30343,7.71768 -5.343008,5.14512 -8.014512,11.655672 -8.014512,19.551448 0,7.638528 2.453826,13.812664 7.341689,18.542216 4.907651,4.729552 11.339049,7.084432 19.274405,7.084432 4.39314,0 7.8562,-0.751976 10.389182,-2.27572 0.474934,-0.257256 0.791557,-0.890504 0.930079,-1.899736 0,0 1.345647,-9.478896 1.385224,-9.85488 0.118734,-0.751984 -0.296833,-0.633248 -2.255936,-0.01976 -3.740105,1.088392 -6.807388,1.64248 -9.201847,1.64248 -3.858839,0 -7.005277,-1.28628 -9.478891,-3.85884 -2.493404,-2.57256 -3.740106,-5.837728 -3.740106,-9.815304 0,-4.274408 1.424803,-7.757256 4.254618,-10.468336 2.829815,-2.691296 6.510553,-4.056728 11.042216,-4.056728 4.37335,0 8.113456,1.009232 11.259893,3.027704 0.949868,0.593672 1.543536,0.910288 1.761214,0.910288 0.296834,0 0.534301,-0.474928 0.712402,-1.444592 l 1.64248,-8.172816 z"
       id="path7701"
       style="fill:#ffffff" />
    <path
       d="M 97.124275,15.771334 C 96.985747,15.078718 96.609763,14.722518 95.996307,14.722518 H 80.897363 c -0.692616,0 -1.18734,0.296832 -1.503964,0.910288 L 56.121631,62.73043 c -0.09894,0.257256 -0.138522,0.455152 -0.138522,0.57388 0,0.316624 0.1781,0.474936 0.514511,0.474936 h 12.704486 c 0.771767,0 1.306068,-0.277048 1.563324,-0.79156 l 3.265172,-6.748016 c 0.257255,-0.514512 0.692612,-0.771768 1.306068,-0.771768 h 15.969661 c 0.593664,0 0.949864,0.27704 1.029024,0.85092 l 1.701848,6.7876 c 0.09894,0.455144 0.395776,0.672824 0.93008,0.672824 h 11.299467 c 0.39578,0 0.59367,-0.197888 0.59367,-0.593664 V 62.928326 L 97.124275,15.771334 z m -7.994728,28.71372 h -9.478892 c -0.296832,0 -0.455144,-0.07912 -0.455144,-0.197888 l 0.13852,-0.395784 6.33246,-14.386544 c 0.13852,-0.257256 0.237464,-0.415568 0.336408,-0.455144 0.118736,0.0792 0.237472,0.296832 0.316624,0.653032 l 3.344328,13.9314 c 0.07912,0.336416 0.13852,0.534304 0.13852,0.57388 0,0.178104 -0.237464,0.277048 -0.672824,0.277048"
       id="path7703"
       style="fill:#ffffff" />
    <path
       d="m 113.07414,63.106422 c 0,0.43536 0.37599,0.672824 1.10817,0.672824 h 10.92349 c 0.61346,0 0.94987,-0.316624 1.04881,-0.93008 l 3.91821,-27.981528 c 0.0792,-0.57388 0.15831,-0.850928 0.19789,-0.850928 0.13852,0.0792 0.29683,0.29684 0.51451,0.65304 l 16.02902,28.179416 c 0.3562,0.613456 0.87071,0.93008 1.56333,0.93008 h 11.18074 c 0.75197,0 1.16754,-0.277048 1.2467,-0.79156 l 6.55013,-47.552768 c 0,-0.474928 -0.29683,-0.7124 -0.85092,-0.7124 H 154.9277 c -0.79155,0 -1.22691,0.336416 -1.30607,0.989448 l -3.54221,25.369392 c -0.0791,0.653032 -0.1979,0.969656 -0.31663,0.969656 -0.13852,0 -0.33641,-0.237464 -0.59367,-0.7124 l -14.6438,-25.705808 c -0.3562,-0.613456 -0.87071,-0.910288 -1.56332,-0.910288 h -12.42744 c -0.61345,0 -0.96965,0.296832 -1.04881,0.850928 l -6.41161,47.532976 z"
       id="path7705"
       style="fill:#ffffff" />
    <path
       d="m 216.72849,62.73043 -9.89446,-47.018464 c -0.11873,-0.653032 -0.51451,-0.989448 -1.16755,-0.989448 h -14.38654 c -0.69261,0 -1.16755,0.296832 -1.44459,0.850928 l -23.13324,47.27572 c -0.13852,0.257256 -0.19789,0.455144 -0.19789,0.593672 0,0.217672 0.15831,0.336408 0.51451,0.336408 h 12.56596 c 0.65303,0 1.10818,-0.257256 1.36543,-0.732192 l 3.52243,-6.866752 c 0.25726,-0.474936 0.7322,-0.7124 1.38523,-0.7124 h 15.09894 c 0.79156,0 1.24671,0.336408 1.38523,1.048808 l 1.22691,6.332456 c 0.13852,0.613456 0.55409,0.93008 1.2467,0.93008 h 11.18074 c 0.5343,0 0.79156,-0.13852 0.79156,-0.395776 0,-0.316624 -0.0198,-0.534304 -0.0594,-0.65304 M 199.78919,44.010118 c 0,0.296832 -0.25726,0.455144 -0.7322,0.455144 h -8.82585 c -0.55409,0 -0.85093,-0.13852 -0.85093,-0.395776 0,-0.138528 0.0594,-0.336416 0.13853,-0.593672 l 6.41161,-14.445904 c 0.17809,-0.3562 0.29683,-0.554096 0.37598,-0.593672 0.099,0.0792 0.1781,0.277048 0.27705,0.593672 l 3.12665,14.307384 c 0,0.05936 0.0198,0.158312 0.0792,0.336408 v 0.336416 z"
       id="path7707"
       style="fill:#ffffff" />
    <path
       d="m 229.86833,14.722518 c -0.49472,0 -0.77177,0.3562 -0.85092,1.048816 l -6.80739,47.473608 c 0,0.3562 0.19789,0.534304 0.59367,0.534304 h 27.46702 c 0.57388,0 0.89049,-0.277048 0.96965,-0.79156 l 1.30607,-9.617408 c 0,-0.43536 -0.21768,-0.65304 -0.65304,-0.65304 h -13.13984 c -0.51451,0 -0.79156,-0.237464 -0.79156,-0.7124 v -0.13852 l 4.90766,-36.550128 c 0,-0.395784 -0.21768,-0.593672 -0.65303,-0.593672 h -12.34829 z"
       id="path7709"
       style="fill:#ffffff" />
    <path
       d="m 286.8802,45.256822 c 0,-0.554096 0.29683,-0.850928 0.85092,-0.850928 h 16.22691 c 0.47494,0 0.71241,-0.257256 0.71241,-0.771768 V 30.296398 c 0,-0.57388 -0.23747,-0.85092 -0.71241,-0.85092 h -16.4248 c -0.43535,0 -0.65303,-0.316624 -0.65303,-0.93008 V 13.416454 c 0,-0.43536 -0.27705,-0.65304 -0.85092,-0.65304 h -13.33773 c -0.43536,0 -0.65304,0.21768 -0.65304,0.65304 v 15.098944 c 0,0.613456 -0.25725,0.93008 -0.77176,0.93008 h -17.53299 c -0.47493,0 -0.7124,0.237464 -0.7124,0.7124 v 13.397096 c 0,0.57388 0.25726,0.85092 0.77177,0.85092 h 17.39446 c 0.57388,0 0.85092,0.336416 0.85092,0.989448 v 17.592344 c 0,0.514512 0.23747,0.79156 0.7322,0.79156 h 13.39709 c 0.47494,0 0.7124,-0.316624 0.7124,-0.93008 V 45.256822 z"
       id="path7711"
       style="fill:#ffffff" />
    <path
       d="m 93.384163,139.45207 v 0.83113 c 0,0.59367 -0.217672,0.8905 -0.653032,0.8905 -0.197888,0 -0.554088,-0.19789 -1.0686,-0.59366 -1.899736,-1.54354 -4.07652,-2.82982 -6.490768,-3.85884 -4.096304,-1.74143 -8.073876,-2.63193 -11.972296,-2.63193 -7.044855,0 -13.040896,2.45382 -17.968337,7.3219 -4.808707,4.80871 -7.203167,10.64644 -7.203167,17.51319 0,6.27309 2.117415,11.51715 6.372032,15.77177 4.848285,4.88786 11.101583,7.3219 18.799472,7.3219 5.32322,0 10.07256,-1.16754 14.248024,-3.50264 2.255936,-1.28628 3.759896,-2.41425 4.511872,-3.4037 0.277048,-0.3562 0.554088,-0.53429 0.831136,-0.53429 0.474936,0 0.7124,0.77177 0.7124,2.3153 v 22.63852 c 0,0.98945 -0.336408,1.72163 -1.009232,2.19657 -1.266496,0.91029 -4.373352,1.93931 -9.281008,3.08707 -3.89842,0.87071 -7.638522,1.30607 -11.259894,1.30607 -8.291556,0 -16.26649,-2.11741 -23.924802,-6.35224 -7.935356,-4.33377 -14.010553,-10.05277 -18.225592,-17.157 -4.195251,-7.02506 -6.312665,-14.94063 -6.312665,-23.74669 0,-13.5752 4.709762,-25.07256 14.129287,-34.4723 4.788918,-4.84829 10.389182,-8.46965 16.781002,-10.8839 5.540897,-2.15699 11.240105,-3.22559 17.077836,-3.22559 3.858839,0 7.915568,0.45514 12.209764,1.36543 2.810032,0.63325 5.046176,1.32585 6.668864,2.09762 l 1.306072,0.59367 c 1.14776,0.47493 1.721632,1.28628 1.721632,2.43404 v 22.6781 z"
       id="path7713"
       style="fill:#ffffff" />
    <path
       d="m 139.23509,158.56816 c -3.79947,0 -7.10422,1.38522 -9.87467,4.15568 -2.77045,2.75065 -4.17547,6.03561 -4.17547,9.89445 0,3.99736 1.40502,7.40106 4.17547,10.17151 2.73087,2.75065 6.05541,4.11609 9.93404,4.11609 3.93799,0 7.26253,-1.38522 10.01319,-4.17546 2.77045,-2.73087 4.15567,-6.0752 4.15567,-9.9934 0,-3.938 -1.36544,-7.26254 -4.09631,-10.01319 -2.75066,-2.77046 -6.11478,-4.15568 -10.13192,-4.15568 m 0.23746,-18.89842 c 7.89578,0 14.98021,1.78101 21.2533,5.3628 5.12533,2.92876 9.06333,6.82718 11.85356,11.65567 2.77046,4.80871 4.17546,10.1913 4.17546,16.14776 0,8.96438 -3.00791,16.46438 -9.00396,22.5 -3.40368,3.38391 -7.53957,5.97625 -12.38785,7.79684 -4.98681,1.89973 -10.36939,2.8496 -16.12797,2.8496 -11.73483,0 -21.19394,-3.562 -28.33774,-10.7058 -5.99604,-5.95647 -8.98416,-13.27837 -8.98416,-21.96571 0,-9.22163 3.10686,-16.93931 9.281,-23.17281 6.90633,-6.94592 16.32586,-10.46835 28.27836,-10.46835"
       id="path7715"
       style="fill:#ffffff" />
    <path
       d="m 186.13483,142.02463 h 21.96569 v 7.53958 c 0.79155,-0.7124 1.68206,-1.52376 2.69129,-2.43404 5.14512,-4.03694 11.02243,-6.0752 17.61214,-6.0752 5.75857,0 10.52771,1.36544 14.2876,4.05672 2.21636,1.6227 4.47229,4.07652 6.72823,7.38128 5.20449,-7.69789 12.13061,-11.55673 20.77837,-11.55673 5.04617,0 9.41952,1.24669 13.15963,3.75989 3.16622,2.09763 5.38258,4.92744 6.60949,8.50924 0.98945,2.81002 1.48417,6.27308 1.48417,10.3496 v 40.13192 h -21.96569 v -30.47493 c 0,-4.57124 -0.29684,-7.59895 -0.89051,-9.1029 -1.58311,-4.09631 -4.37335,-6.13457 -8.33113,-6.13457 -2.47362,0 -4.68997,0.87072 -6.66887,2.61214 -1.64248,1.46438 -2.71108,3.36412 -3.22559,5.719 -0.39578,1.58311 -0.59367,3.87862 -0.59367,6.90633 v 30.47493 h -21.9657 v -30.47493 c 0,-4.65039 -0.23746,-7.65831 -0.7124,-9.06332 -0.63325,-1.89974 -1.70185,-3.44327 -3.22559,-4.63061 -1.74142,-1.34565 -3.62138,-2.01847 -5.63984,-2.01847 -2.3153,0 -4.45251,0.85093 -6.4314,2.55277 -1.50396,1.30607 -2.53298,3.06728 -3.0475,5.30343 -0.43535,1.82058 -0.65303,4.43272 -0.65303,7.8562 v 30.47493 h -21.96569 v -61.66226 z"
       id="path7717"
       style="fill:#ffffff" />
    <path
       d="m 348.87888,164.14864 c -2.01847,-6.56992 -6.31266,-9.87467 -12.8628,-9.87467 -6.70844,0 -10.82453,3.30475 -12.36807,9.87467 h 25.23087 z m 20.36279,12.6649 h -46.18732 c 0.23746,5.20449 1.56332,8.88523 3.97756,11.02243 2.21636,1.93932 5.3628,2.90897 9.39974,2.90897 3.10686,0 5.5409,-0.65303 7.34169,-1.9591 1.0686,-0.79156 2.19657,-2.07783 3.3839,-3.85884 h 21.25331 c -1.42481,4.47229 -3.00792,7.77705 -4.76914,9.93404 -6.19393,7.5 -15.31662,11.2401 -27.38786,11.2401 -11.14116,0 -19.94723,-3.20581 -26.4182,-9.6372 -5.99604,-5.87731 -8.98417,-13.63457 -8.98417,-23.27177 0,-10.48812 3.32453,-18.70052 9.9934,-24.65699 6.19393,-5.50132 14.36676,-8.27177 24.51847,-8.27177 11.12137,0 19.68998,3.36412 25.72559,10.07256 5.44195,6.01584 8.15303,14.08971 8.15303,24.16227 v 2.3153 z"
       id="path7719"
       style="fill:#ffffff" />
    <path
       d="m 412.73771,158.80563 c -3.83904,0 -7.16358,1.38522 -9.93403,4.15567 -2.71108,2.71108 -4.05673,5.95647 -4.05673,9.77573 0,3.95778 1.36544,7.3219 4.1161,10.05277 2.73087,2.75065 6.07519,4.11609 9.9934,4.11609 3.97758,0 7.3219,-1.38522 10.07256,-4.17546 2.73087,-2.6913 4.0963,-5.99604 4.0963,-9.87467 0,-3.85884 -1.36543,-7.1438 -4.0963,-9.89446 -2.75066,-2.77045 -6.13457,-4.15567 -10.1913,-4.15567 m 13.69394,-46.56333 h 21.9657 v 91.44459 h -21.9657 v -6.84696 c -0.19789,0.27704 -0.47494,0.63324 -0.83114,1.0686 -4.33377,5.16491 -10.46833,7.73747 -18.40369,7.73747 -8.64775,0 -15.94987,-3.00792 -21.90633,-9.04354 -6.31266,-6.35224 -9.4591,-14.30739 -9.4591,-23.86543 0,-9.49869 3.12664,-17.39446 9.39973,-23.70713 5.95647,-5.97625 13.19921,-8.98417 21.72823,-8.98417 4.21504,0 8.05409,0.7322 11.55673,2.21636 2.41425,0.98945 5.06596,2.92876 7.91557,5.81795 V 112.2423 z"
       id="path7721"
       style="fill:#ffffff" />
    <path
       d="m 482.86964,203.68689 h -21.96569 v -61.68205 h 21.96569 v 61.68205 z m -10.94327,-92.45382 c 3.32454,0 6.23351,1.22691 8.68734,3.70053 2.37467,2.37467 3.58179,5.26385 3.58179,8.68733 0,3.28496 -1.20712,6.15436 -3.58179,8.5686 -2.43404,2.45383 -5.3628,3.68074 -8.80608,3.68074 -3.3839,0 -6.25329,-1.22691 -8.68733,-3.68074 -2.37467,-2.37467 -3.58179,-5.20448 -3.58179,-8.44986 0,-3.48286 1.22691,-6.47098 3.64116,-8.92481 2.33509,-2.39445 5.24406,-3.58179 8.7467,-3.58179"
       id="path7723"
       style="fill:#ffffff" />
    <path
       d="m 529.84853,158.44943 c -3.81926,0 -7.10422,1.38522 -9.89446,4.15567 -2.79024,2.75066 -4.15567,6.03562 -4.15567,9.89446 0,3.99736 1.36543,7.40105 4.15567,10.1715 2.75066,2.73087 6.05541,4.1161 9.95383,4.1161 3.89841,0 7.26253,-1.40502 9.99341,-4.17547 2.77044,-2.77044 4.17545,-6.11477 4.17545,-9.9934 0,-3.89841 -1.40501,-7.22296 -4.17545,-10.01319 -2.73088,-2.77045 -6.095,-4.15567 -10.05278,-4.15567 M 543.4831,141.5299 h 21.96569 v 62.15699 H 543.4831 v -6.84696 c -4.67019,5.95646 -11.14116,8.9248 -19.35356,8.9248 -8.50924,0 -15.7124,-3.00792 -21.68866,-9.04353 -6.37203,-6.47098 -9.55805,-14.54486 -9.55805,-24.22164 0,-9.61742 3.14644,-17.59235 9.45911,-23.94459 5.97625,-5.97625 13.25857,-8.98417 21.90633,-8.98417 3.9182,0 7.69788,0.73219 11.31926,2.21636 2.37467,0.93008 5.00659,2.88918 7.89578,5.81794 v -6.0752 z"
       id="path7725"
       style="fill:#ffffff" />
  </g>
</svg>
