<?xml version="1.0" encoding="UTF-8" standalone="no"?>
<!-- Created with Inkscape (http://www.inkscape.org/) -->

<svg
   xmlns:dc="http://purl.org/dc/elements/1.1/"
   xmlns:cc="http://creativecommons.org/ns#"
   xmlns:rdf="http://www.w3.org/1999/02/22-rdf-syntax-ns#"
   xmlns:svg="http://www.w3.org/2000/svg"
   xmlns="http://www.w3.org/2000/svg"
   version="1.1"
   width="600"
   height="251.06795"
   id="svg125676">
  <defs
     id="defs125678">
    <clipPath
       id="clipPath108655">
      <path
         d="m 423.531,330.781 20.273,0 0,8.483 -20.273,0 0,-8.483 z"
         id="path108657" />
    </clipPath>
  </defs>
  <metadata
     id="metadata125681">
    <rdf:RDF>
      <cc:Work
         rdf:about="">
        <dc:format>image/svg+xml</dc:format>
        <dc:type
           rdf:resource="http://purl.org/dc/dcmitype/StillImage" />
        <dc:title></dc:title>
      </cc:Work>
    </rdf:RDF>
  </metadata>
  <g
     transform="translate(-49.999586,-406.82878)"
     id="layer1">
    <g
       transform="matrix(29.596598,0,0,-29.596598,-12485.089,10447.889)"
       id="g108651">
      <g
         clip-path="url(#clipPath108655)"
         id="g108653">
        <g
           transform="translate(424.3244,336.0746)"
           id="g108659">
          <path
             d="M 0,0 -0.106,1.216 -0.793,1.095 -0.382,-1.241 1.514,-0.907 1.334,0.117 0,0 z"
             id="path108661"
             style="fill:#66cef5;fill-opacity:1;fill-rule:nonzero;stroke:none" />
        </g>
        <g
           transform="translate(433.2225,336.853)"
           id="g108663">
          <path
             d="m 0,0 0.066,-0.372 -7.45,-1.313 0.072,-0.407 9.345,1.648 L 1.621,1.892 0.412,1.679 0.555,0.049 0,0 z"
             id="path108665"
             style="fill:#fddd04;fill-opacity:1;fill-rule:nonzero;stroke:none" />
        </g>
        <g
           transform="translate(432.87621,338.81779)"
           id="g108667">
          <path
             d="M 0,0 0.072,-0.407 0.759,-0.286 0.695,0.447 -8.759,-0.38 -8.658,-1.527 0,0 z"
             id="path108669"
             style="fill:#cce657;fill-opacity:1;fill-rule:nonzero;stroke:none" />
        </g>
        <g
           transform="translate(425.6588,336.19119)"
           id="g108671">
          <path
             d="M 0,0 -0.16,0.906 7.289,2.22 7.217,2.627 -1.441,1.099 -1.334,-0.117 0,0 z"
             id="path108673"
             style="fill:#0994dc;fill-opacity:1;fill-rule:nonzero;stroke:none" />
        </g>
        <g
           transform="translate(425.6588,336.19119)"
           id="g108675">
          <path
             d="M 0,0 0.18,-1.023 7.629,0.29 7.564,0.662 8.119,0.71 7.976,2.341 -0.16,0.906 0,0 z"
             id="path108677"
             style="fill:#fab20b;fill-opacity:1;fill-rule:nonzero;stroke:none" />
        </g>
        <g
           transform="translate(429.4912,331.3372)"
           id="g108679">
          <path
             d="M 0,0 -0.162,0.479 -0.326,0 0,0 z m 0.619,-0.558 -0.415,0 -0.102,0.256 -0.533,0 -0.104,-0.256 -0.416,0 0.577,1.503 0.133,0 -0.027,0.064 0.366,0 0.19,-0.502 -0.07,0 0.401,-1.065 z"
             id="path108681"
             style="fill:#050301;fill-opacity:1;fill-rule:nonzero;stroke:none" />
        </g>
        <g
           transform="translate(430.66679,330.7813)"
           id="g108683">
          <path
             d="m 0,0 0,1.499 0.389,0 0,-1.169 0.423,0 L 0.812,0 0,0 z"
             id="path108685"
             style="fill:#050301;fill-opacity:1;fill-rule:nonzero;stroke:none" />
        </g>
        <g
           transform="translate(432.3351,331.8163)"
           id="g108687">
          <path
             d="m 0,0 -0.164,-0.477 0.324,0 L 0,0 z m 0.364,-1.035 -0.098,0.26 -0.538,0 -0.102,-0.26 -0.411,0 0.576,1.499 0.423,0 0.565,-1.499 -0.415,0 z"
             id="path108689"
             style="fill:#050301;fill-opacity:1;fill-rule:nonzero;stroke:none" />
        </g>
        <g
           transform="translate(434.573,331.53081)"
           id="g108691">
          <path
             d="m 0,0 c 0,0.256 -0.169,0.419 -0.426,0.419 l -0.087,0 0,-0.839 0.087,0 C -0.169,-0.42 0,-0.256 0,0 m 0.408,0 c 0,-0.202 -0.074,-0.378 -0.22,-0.527 -0.146,-0.148 -0.317,-0.222 -0.518,-0.222 l -0.573,0 0,1.498 0.573,0 c 0.199,0 0.37,-0.076 0.516,-0.225 C 0.334,0.374 0.408,0.199 0.408,0"
             id="path108693"
             style="fill:#050301;fill-opacity:1;fill-rule:nonzero;stroke:none" />
        </g>
        <g
           transform="translate(435.1512,330.7813)"
           id="g108695">
          <path
             d="m 0,0 0,1.499 0.852,0 0,-0.33 -0.462,0 0,-0.25 0.437,0 0,-0.33 -0.437,0 0,-0.259 0.462,0 L 0.852,0 0,0 z"
             id="path108697"
             style="fill:#050301;fill-opacity:1;fill-rule:nonzero;stroke:none" />
        </g>
        <g
           transform="translate(437.6349,330.7813)"
           id="g108699">
          <path
             d="M 0,0 -0.112,0.863 -0.473,0 -0.629,0 -0.973,0.863 -1.101,0 l -0.387,0 0.253,1.499 0.386,0 0.304,-0.8 0.321,0.8 0.386,0 L 0.39,0 0,0 z"
             id="path108701"
             style="fill:#050301;fill-opacity:1;fill-rule:nonzero;stroke:none" />
        </g>
        <g
           transform="translate(438.8347,331.8163)"
           id="g108703">
          <path
             d="m 0,0 -0.164,-0.477 0.324,0 L 0,0 z m 0.363,-1.035 -0.097,0.26 -0.538,0 -0.102,-0.26 -0.411,0 0.575,1.499 0.424,0 0.565,-1.499 -0.416,0 z"
             id="path108705"
             style="fill:#050301;fill-opacity:1;fill-rule:nonzero;stroke:none" />
        </g>
        <g
           transform="translate(440.8181,330.7813)"
           id="g108707">
          <path
             d="m 0,0 -0.715,0.918 0,-0.918 -0.39,0 0,1.499 0.39,0 L 0,0.581 0,1.499 0.39,1.499 0.39,0 0,0 z"
             id="path108709"
             style="fill:#050301;fill-opacity:1;fill-rule:nonzero;stroke:none" />
        </g>
        <g
           transform="translate(442.36909,331.53081)"
           id="g108711">
          <path
             d="m 0,0 c 0,0.256 -0.17,0.419 -0.426,0.419 l -0.088,0 0,-0.839 0.088,0 C -0.17,-0.42 0,-0.256 0,0 M 0.407,0 C 0.407,-0.202 0.333,-0.378 0.188,-0.527 0.041,-0.675 -0.13,-0.749 -0.33,-0.749 l -0.573,0 0,1.498 0.573,0 c 0.198,0 0.37,-0.076 0.516,-0.225 C 0.333,0.374 0.407,0.199 0.407,0"
             id="path108713"
             style="fill:#050301;fill-opacity:1;fill-rule:nonzero;stroke:none" />
        </g>
        <g
           transform="translate(442.929,330.7813)"
           id="g108715">
          <path
             d="m 0,0 0,1.499 0.851,0 0,-0.33 -0.462,0 0,-0.25 0.438,0 0,-0.33 -0.438,0 0,-0.259 0.462,0 L 0.851,0 0,0 z"
             id="path108717"
             style="fill:#050301;fill-opacity:1;fill-rule:nonzero;stroke:none" />
        </g>
        <path
           d="m 427.245,332.758 16.559,0 0,4.139 -16.559,0 0,-4.139 z"
           id="path108719"
           style="fill:#231f20;fill-opacity:1;fill-rule:nonzero;stroke:none" />
        <g
           transform="translate(443.0976,334.6467)"
           id="g108721">
          <path
             d="m 0,0 c 0,0 -0.003,-0.007 -0.014,-0.007 l -0.893,0 c -0.015,0 -0.022,-0.007 -0.022,-0.007 0,0 -0.009,-0.004 -0.009,-0.021 l 0,-0.953 c 0,-0.013 -0.008,-0.017 -0.008,-0.017 0,0 -0.003,-0.006 -0.014,-0.006 l -0.708,0 c -0.011,0 -0.017,0.006 -0.017,0.006 0,0 -0.003,0.004 -0.003,0.021 l 0,0.952 c 0,0.011 -0.011,0.018 -0.011,0.018 0,0 -0.004,0.007 -0.014,0.007 l -0.915,0 c -0.017,0 -0.021,0.003 -0.021,0.003 0,0 -0.007,0.007 -0.007,0.029 l 0,0.697 c 0,0.007 0.007,0.018 0.007,0.018 0,0 0.004,0.002 0.011,0.002 l 0.935,0 c 0.007,0 0.007,0.004 0.007,0.004 0,0 0.008,0.004 0.008,0.011 l 0,0.833 c 0,0.01 0.003,0.017 0.003,0.017 0,0 0.006,0.004 0.027,0.004 l 0.695,0 c 0.014,0 0.017,-0.004 0.017,-0.004 0,0 0.008,-0.007 0.008,-0.02 l 0,-0.837 0.907,0 C -0.007,0.75 0,0.746 0,0.746 c 0,0 0.011,-0.004 0.011,-0.024 l 0,-0.705 C 0.011,0.009 0,0 0,0 m -2.767,-0.98 c -0.004,-0.021 -0.007,-0.028 -0.007,-0.028 0,0 -0.003,-0.007 -0.021,-0.007 l -1.437,0 c -0.043,0 -0.054,0.01 -0.054,0.01 0,0 -0.007,0.015 -0.002,0.046 l 0.355,2.476 c 0.003,0.031 0.011,0.042 0.011,0.042 l 0.037,0 0.654,0 c 0.018,0 0.024,-0.004 0.024,-0.004 0,0 0.004,-0.009 0,-0.024 l -0.268,-1.936 c -0.004,-0.021 0.006,-0.024 0.006,-0.024 0,0 0.008,-0.004 0.035,-0.004 l 0.712,0 c 0.014,0 0.021,-0.007 0.021,-0.007 0,0 0.004,-0.003 0.004,-0.021 l -0.07,-0.519 z m -1.832,-0.038 -0.639,0 c -0.013,-0.008 -0.024,0.007 -0.024,0.007 0,0 -0.003,0.003 -0.007,0.023 l -0.084,0.394 c -0.006,0.022 -0.014,0.032 -0.014,0.032 0,0 -0.017,0.01 -0.038,0.01 l -0.831,0 c -0.017,0 -0.027,-0.01 -0.027,-0.01 0,0 -0.015,-0.014 -0.022,-0.034 l -0.188,-0.401 c -0.004,-0.011 -0.01,-0.014 -0.01,-0.014 0,0 -0.014,-0.004 -0.022,-0.004 l -0.719,0 c -0.017,-0.003 -0.023,0.007 -0.023,0.007 0,0 -0.004,0.007 0.006,0.02 l 1.267,2.529 c 0.006,0.005 0.014,0.014 0.014,0.014 0,0 0.007,0.004 0.028,0.004 l 0.785,0 c 0.017,0 0.028,-0.011 0.028,-0.011 0,0 0.004,-0.002 0.007,-0.013 l 0.527,-2.54 c 0,-0.006 -0.003,-0.01 -0.003,-0.01 0,0 0,-0.003 -0.011,-0.003 m -2.991,0.003 -0.639,0 -0.02,0 c 0,0 -0.004,0.004 -0.007,0.007 l -0.886,1.572 c -0.007,0.008 -0.011,0.008 -0.011,0.008 0,0 -0.006,0 -0.006,-0.01 l -0.22,-1.546 c -0.004,-0.017 -0.008,-0.021 -0.008,-0.021 0,0 -0.007,-0.003 -0.017,-0.003 l -0.635,0 c -0.011,0 -0.017,0.007 -0.017,0.007 0,0 -0.014,0.013 -0.011,0.027 l 0.349,2.501 c 0.003,0.014 0.01,0.019 0.01,0.019 0,0 0.011,0.009 0.021,0.009 l 0.709,0 c 0.01,0 0.017,-0.007 0.017,-0.007 0,0 0.007,-0.002 0.01,-0.013 l 0.799,-1.403 c 0.014,-0.028 0.025,-0.024 0.025,-0.024 0,0 0.011,0 0.018,0.032 l 0.202,1.395 c 0,0.011 0.007,0.013 0.007,0.013 0,0 0.003,0.007 0.013,0.007 l 0.668,-0.007 c 0.013,0 0.017,-0.002 0.017,-0.002 0,0 0.003,-0.005 0.003,-0.011 l -0.359,-2.523 c -0.003,-0.013 -0.011,-0.023 -0.011,-0.023 0,0 -0.003,-0.004 -0.021,-0.004 m -2.791,0.007 -0.621,-0.003 c -0.014,0 -0.025,0.006 -0.025,0.006 0,0 -0.004,0.004 -0.007,0.029 l -0.097,0.4 c 0,0.011 -0.007,0.014 -0.007,0.014 l -0.01,0 -0.876,0 c -0.018,0 -0.028,-0.014 -0.028,-0.014 0,0 -0.014,-0.01 -0.025,-0.035 l -0.174,-0.373 c -0.006,-0.013 -0.011,-0.017 -0.011,-0.017 0,0 -0.01,-0.007 -0.021,-0.007 l -0.722,0 c -0.021,-0.003 -0.024,0.007 -0.024,0.007 0,0 -0.004,0.011 0.003,0.025 l 1.252,2.517 c 0.008,0.014 0.018,0.018 0.018,0.018 l 0.025,0 0.799,0 c 0.013,0 0.024,-0.011 0.024,-0.011 0,0 0.004,-0.002 0.007,-0.013 l 0.537,-2.525 c 0,-0.011 -0.007,-0.015 -0.007,-0.015 0,0 -0.003,-0.003 -0.01,-0.003 M -5.65,0.83 c 0,0 -0.003,0 -0.006,-0.013 L -6.005,0.027 C -6.012,0.003 -6.009,0 -6.009,0 c 0,0 0.011,-0.007 0.018,-0.007 l 0.517,0.003 0.006,0 c 0,0 0.003,0.004 0,0.013 L -5.643,0.82 C -5.645,0.83 -5.65,0.83 -5.65,0.83 m -5.792,-0.01 c 0,0 -0.003,0 -0.007,-0.007 l -0.348,-0.792 c -0.007,-0.012 -0.004,-0.018 -0.004,-0.018 0,0 0.004,-0.003 0.02,-0.003 l 0.514,-0.004 c 0.004,0 0.007,0.004 0.007,0.004 0,0 0.003,0.003 0,0.013 l -0.178,0.8 c 0,0.007 -0.004,0.007 -0.004,0.007 m -1.786,-1.741 c -0.004,-0.028 -0.017,-0.049 -0.017,-0.049 0,0 -0.014,-0.014 -0.039,-0.02 -0.335,-0.137 -0.708,-0.092 -0.708,-0.092 -0.604,0.067 -0.988,0.436 -1.11,0.914 -0.182,0.715 0.178,1.224 0.265,1.332 0.213,0.255 0.545,0.436 0.869,0.479 0.415,0.059 0.723,-0.039 0.848,-0.081 0,0 0.14,-0.045 0.245,-0.115 0.052,-0.035 0.058,-0.049 0.058,-0.049 0,0 0.004,-0.006 -0.01,-0.062 l -0.098,-0.513 c -0.003,-0.021 -0.018,-0.032 -0.018,-0.032 0,0 -0.006,-0.002 -0.055,0.029 -0.314,0.223 -0.68,0.194 -0.68,0.194 -0.28,-0.017 -0.604,-0.164 -0.703,-0.533 -0.086,-0.328 0.005,-0.604 0.199,-0.768 0.134,-0.114 0.34,-0.174 0.556,-0.163 0.238,0.017 0.426,0.112 0.412,0.105 0,0 0.01,0.003 0.021,0.007 0.049,0.024 0.059,0.021 0.059,0.021 0,0 0.011,-0.011 0.004,-0.042 l -0.098,-0.562"
             id="path108723"
             style="fill:#ffffff;fill-opacity:1;fill-rule:nonzero;stroke:none" />
        </g>
      </g>
    </g>
  </g>
</svg>
