<?xml version="1.0" encoding="UTF-8" standalone="no"?>
<!-- Created with Inkscape (http://www.inkscape.org/) -->

<svg
   xmlns:dc="http://purl.org/dc/elements/1.1/"
   xmlns:cc="http://creativecommons.org/ns#"
   xmlns:rdf="http://www.w3.org/1999/02/22-rdf-syntax-ns#"
   xmlns:svg="http://www.w3.org/2000/svg"
   xmlns="http://www.w3.org/2000/svg"
   version="1.1"
   width="600"
   height="299.97147"
   id="svg5051">
  <defs
     id="defs5053">
    <clipPath
       id="clipPath3711">
      <path
         d="m 729.696,202.973 21.014,0 0,10.507 -21.014,0 0,-10.507 z"
         id="path3713" />
    </clipPath>
  </defs>
  <metadata
     id="metadata5056">
    <rdf:RDF>
      <cc:Work
         rdf:about="">
        <dc:format>image/svg+xml</dc:format>
        <dc:type
           rdf:resource="http://purl.org/dc/dcmitype/StillImage" />
        <dc:title></dc:title>
      </cc:Work>
    </rdf:RDF>
  </metadata>
  <g
     id="g221165">
    <path
       d="m 599.9997,-1.8726e-5 -600.000007776,0 0,149.985728726 600.000007776,0 0,-149.985728725999 z"
       id="path3715"
       style="fill:#0d0906;fill-opacity:1;fill-rule:nonzero;stroke:none" />
    <g
       transform="matrix(28.552394,0,0,-28.552394,575.25905,81.619855)"
       id="g3717">
      <path
         d="m 0,0 c 0,0 -0.005,-0.009 -0.018,-0.009 l -1.134,0 c -0.017,0 -0.026,-0.009 -0.026,-0.009 0,0 -0.014,-0.005 -0.014,-0.026 l 0,-1.208 c 0,-0.018 -0.009,-0.023 -0.009,-0.023 0,0 -0.004,-0.009 -0.017,-0.009 l -0.899,0 c -0.014,0 -0.022,0.009 -0.022,0.009 0,0 -0.005,0.005 -0.005,0.027 l 0,1.208 c 0,0.013 -0.013,0.022 -0.013,0.022 0,0 -0.005,0.009 -0.018,0.009 l -1.16,0 c -0.022,0 -0.027,0.004 -0.027,0.004 0,0 -0.009,0.009 -0.009,0.036 l 0,0.885 c 0,0.008 0.009,0.022 0.009,0.022 0,0 0.005,0.005 0.013,0.005 l 1.187,0 c 0.009,0 0.009,0.004 0.009,0.004 0,0 0.009,0.004 0.009,0.013 l 0,1.058 c 0,0.013 0.005,0.022 0.005,0.022 0,0 0.008,0.004 0.035,0.004 l 0.881,0 c 0.018,0 0.022,-0.004 0.022,-0.004 0,0 0.009,-0.009 0.009,-0.027 l 0,-1.062 1.152,0 C -0.009,0.951 0,0.947 0,0.947 c 0,0 0.013,-0.004 0.013,-0.031 l 0,-0.894 C 0.013,0.013 0,0 0,0 m -3.512,-1.244 c -0.005,-0.026 -0.01,-0.035 -0.01,-0.035 0,0 -0.003,-0.009 -0.026,-0.009 l -1.824,0 c -0.054,0 -0.067,0.013 -0.067,0.013 0,0 -0.009,0.018 -0.004,0.058 l 0.451,3.142 c 0.004,0.04 0.013,0.053 0.013,0.053 l 0.05,0 0.828,0 c 0.022,0 0.031,-0.004 0.031,-0.004 0,0 0.004,-0.014 0,-0.031 l -0.341,-2.457 c -0.005,-0.026 0.008,-0.031 0.008,-0.031 0,0 0.009,-0.004 0.044,-0.004 l 0.904,0 c 0.018,0 0.026,-0.009 0.026,-0.009 0,0 0.005,-0.004 0.005,-0.027 l -0.088,-0.659 z m -2.326,-0.049 -0.81,0 c -0.018,-0.008 -0.031,0.009 -0.031,0.009 0,0 -0.005,0.005 -0.009,0.032 l -0.106,0.499 c -0.009,0.027 -0.018,0.04 -0.018,0.04 0,0 -0.022,0.013 -0.049,0.013 l -1.054,0 c -0.022,0 -0.035,-0.013 -0.035,-0.013 0,0 -0.018,-0.017 -0.027,-0.044 l -0.239,-0.509 c -0.004,-0.013 -0.013,-0.018 -0.013,-0.018 0,0 -0.018,-0.004 -0.027,-0.004 l -0.912,0 c -0.023,-0.005 -0.031,0.009 -0.031,0.009 0,0 -0.004,0.009 0.008,0.027 l 1.608,3.208 c 0.009,0.004 0.018,0.018 0.018,0.018 0,0 0.009,0.004 0.035,0.004 l 0.997,0 c 0.022,0 0.035,-0.013 0.035,-0.013 0,0 0.005,-0.005 0.009,-0.018 l 0.669,-3.222 c 0,-0.009 -0.004,-0.013 -0.004,-0.013 0,0 0,-0.005 -0.014,-0.005 m -3.795,0.005 -0.811,0 -0.026,0 c 0,0 -0.005,0.004 -0.009,0.009 l -1.125,1.996 c -0.009,0.009 -0.013,0.009 -0.013,0.009 0,0 -0.009,0 -0.009,-0.014 l -0.279,-1.96 c -0.004,-0.022 -0.009,-0.027 -0.009,-0.027 0,0 -0.009,-0.004 -0.022,-0.004 l -0.806,0 c -0.013,0 -0.022,0.009 -0.022,0.009 0,0 -0.018,0.018 -0.014,0.035 l 0.443,3.173 c 0.005,0.018 0.013,0.022 0.013,0.022 0,0 0.014,0.014 0.027,0.014 l 0.899,0 c 0.013,0 0.022,-0.009 0.022,-0.009 0,0 0.009,-0.005 0.014,-0.018 l 1.014,-1.779 c 0.018,-0.035 0.03,-0.031 0.03,-0.031 0,0 0.014,0 0.023,0.04 l 0.257,1.77 c 0,0.013 0.009,0.018 0.009,0.018 0,0 0.004,0.009 0.018,0.009 l 0.845,-0.009 c 0.018,0 0.022,-0.005 0.022,-0.005 0,0 0.005,-0.004 0.005,-0.013 l -0.456,-3.199 c -0.005,-0.018 -0.013,-0.032 -0.013,-0.032 0,0 -0.005,-0.004 -0.027,-0.004 m -3.543,0.009 -0.789,-0.005 c -0.017,0 -0.03,0.009 -0.03,0.009 0,0 -0.005,0.005 -0.01,0.036 l -0.123,0.509 c 0,0.013 -0.009,0.017 -0.009,0.017 l -0.014,0 -1.112,0 c -0.022,0 -0.035,-0.017 -0.035,-0.017 0,0 -0.018,-0.014 -0.031,-0.045 l -0.221,-0.473 c -0.009,-0.018 -0.014,-0.022 -0.014,-0.022 0,0 -0.013,-0.009 -0.026,-0.009 l -0.917,0 c -0.026,-0.005 -0.031,0.009 -0.031,0.009 0,0 -0.004,0.013 0.005,0.031 l 1.59,3.195 c 0.008,0.018 0.022,0.022 0.022,0.022 l 0.031,0 1.014,0 c 0.017,0 0.031,-0.013 0.031,-0.013 0,0 0.004,-0.005 0.009,-0.018 l 0.682,-3.204 c 0,-0.013 -0.009,-0.018 -0.009,-0.018 0,0 -0.004,-0.004 -0.013,-0.004 m 6.005,2.331 c 0,0 -0.004,0 -0.009,-0.017 l -0.442,-1 C -7.631,0.004 -7.627,0 -7.627,0 c 0,0 0.013,-0.009 0.023,-0.009 l 0.655,0.004 0.008,0 c 0,0 0.005,0.005 0,0.018 l -0.22,1.027 c -0.005,0.012 -0.01,0.012 -0.01,0.012 M -14.523,1.04 c 0,0 -0.004,0 -0.009,-0.009 l -0.443,-1.005 c -0.008,-0.013 -0.004,-0.022 -0.004,-0.022 0,0 0.004,-0.004 0.027,-0.004 l 0.651,-0.005 c 0.004,0 0.008,0.005 0.008,0.005 0,0 0.005,0.004 0,0.017 l -0.225,1.014 c 0,0.009 -0.005,0.009 -0.005,0.009 m -2.267,-2.209 c -0.005,-0.035 -0.022,-0.061 -0.022,-0.061 0,0 -0.018,-0.018 -0.049,-0.027 -0.426,-0.173 -0.899,-0.116 -0.899,-0.116 -0.766,0.085 -1.254,0.554 -1.409,1.16 -0.23,0.907 0.226,1.554 0.337,1.691 0.27,0.323 0.691,0.553 1.102,0.606 0.528,0.076 0.918,-0.048 1.077,-0.102 0,0 0.177,-0.057 0.31,-0.145 0.066,-0.045 0.075,-0.062 0.075,-0.062 0,0 0.005,-0.009 -0.013,-0.08 l -0.124,-0.65 c -0.005,-0.027 -0.022,-0.041 -0.022,-0.041 0,0 -0.009,-0.004 -0.071,0.036 -0.399,0.283 -0.864,0.248 -0.864,0.248 -0.354,-0.023 -0.766,-0.208 -0.89,-0.677 -0.11,-0.417 0.004,-0.766 0.252,-0.974 0.169,-0.146 0.43,-0.222 0.705,-0.208 0.301,0.022 0.54,0.141 0.522,0.132 0,0 0.014,0.005 0.027,0.009 0.062,0.031 0.075,0.027 0.075,0.027 0,0 0.014,-0.013 0.004,-0.053 l -0.123,-0.713 z"
         id="path3719"
         style="fill:#ffffff;fill-opacity:1;fill-rule:nonzero;stroke:none" />
    </g>
    <path
       d="m -3.07776e-4,299.97143 600.000007776,0 0,-149.98572 -600.000007776,0 0,149.98572 z"
       id="path3721"
       style="fill:#ee242d;fill-opacity:1;fill-rule:nonzero;stroke:none" />
    <path
       d="m 322.66173,230.94602 -12.62016,-24.04111 -19.38707,0 22.81336,40.5444 -16.50328,30.72237 18.73037,0 38.43152,-71.26677 -19.1301,0 z m -55.07757,22.92757 16.70316,0 0,-69.58218 -16.70316,0 z m -20.30075,-70.26744 c -5.19653,0 -9.39374,4.19721 -9.39374,9.4794 0,2.51261 0.94223,4.65404 2.79814,6.50994 1.8559,1.7417 4.08299,2.68393 6.5956,2.68393 5.08233,0 9.45084,-4.08299 9.45084,-9.27953 0,-5.19653 -4.2543,-9.39374 -9.45084,-9.39374 m -8.36585,70.26744 16.70315,0 0,-46.96868 -16.70315,0 z m -27.95279,-47.7967 c -6.96679,0 -12.24898,2.96945 -15.96079,8.82269 -3.71181,-5.85324 -9.10821,-8.73704 -16.04645,-8.73704 -5.19653,0 -9.65071,1.59894 -13.36252,4.65404 -0.94223,0.82802 -1.59893,1.48473 -2.05577,1.85591 l 0,-5.76758 -16.70315,0 0,46.96868 16.70315,0 0,-23.21309 c 0,-3.71181 0.37118,-6.39574 1.1992,-7.96612 1.1421,-2.22709 3.99734,-3.99733 6.50995,-3.99733 3.34063,0 6.02455,2.3984 7.05244,5.65337 0.17131,0.85657 0.28552,2.88379 0.28552,6.31008 l 0,23.21309 16.70315,0 0,-23.21309 c 0,-1.77025 0.0857,-3.25497 0.28553,-4.36852 0.45684,-3.96878 3.5976,-7.22375 7.68059,-7.22375 2.88379,0 5.19654,1.39906 6.5956,5.36785 0.28553,0.94223 0.45684,2.96945 0.45684,6.22442 l 0,23.21309 16.70315,0 0,-30.55106 c 0,-4.71114 -0.82802,-8.3373 -2.59827,-10.93556 -2.76958,-4.16865 -7.22375,-6.31008 -13.44817,-6.31008 m -95.50776,31.72171 c -2.14143,2.14143 -4.62549,3.16931 -7.59494,3.16931 -6.05311,0 -10.76425,-4.82535 -10.76425,-10.84991 0,-2.88379 0.999334,-5.3964 3.14076,-7.53783 2.14143,-2.11288 4.65404,-3.14076 7.62349,-3.14076 2.96945,0 5.45351,1.02788 7.59494,3.14076 2.14143,2.14143 3.16932,4.65404 3.16932,7.62349 0,2.96945 -1.02789,5.48206 -3.16932,7.59494 m 2.68392,-26.61083 c -1.37051,-1.48473 -2.59826,-2.59827 -3.5976,-3.25498 -2.96945,-1.94156 -6.68126,-2.88379 -11.13543,-2.88379 -3.34063,0 -6.42429,0.65671 -9.279529,1.85591 -9.022557,3.99733 -14.476064,13.1912 -14.476064,23.21309 0,6.96679 2.227087,12.79148 6.68126,17.70249 4.539831,5.11088 10.278862,7.62349 17.245643,7.62349 5.2822,0 9.56506,-1.57039 12.82003,-4.82536 0.37118,-0.28552 0.91367,-0.94223 1.74169,-1.94156 l 0,5.19653 16.70315,0 0,-47.33986 -16.70315,0 z m -84.686396,42.68582 18.102218,0 0,-27.38174 19.758256,0 0,-15.30408 -19.758256,0 0,-11.59228 21.699819,0 0,-15.33263 -39.802037,0 z"
       id="path3725"
       style="fill:#ffffff;fill-opacity:1;fill-rule:nonzero;stroke:none" />
    <g
       transform="scale(1.015061,0.98516246)"
       id="text3001"
       style="font-size:90.91775513px;font-style:normal;font-weight:normal;line-height:125%;letter-spacing:0px;word-spacing:0px;fill:#ffffff;fill-opacity:1;stroke:none;font-family:Sans">
      <path
         d="m 387.45262,242.60328 10.61003,-9.89973 c 3.58102,-3.10751 6.34821,-6.34823 8.30157,-9.72216 1.86447,-3.34427 2.79673,-7.41367 2.79679,-12.2082 -0.11844,-7.51723 -2.72286,-13.45115 -7.81325,-17.80177 -5.0313,-4.29129 -11.24637,-6.48137 -18.64524,-6.57022 -8.16842,0.0889 -14.56106,2.4861 -19.17797,7.19173 -4.67611,4.73536 -7.19174,11.12801 -7.54688,19.17797 l 19.66629,0 c -0.20719,-1.00621 -0.31078,-1.96807 -0.31075,-2.88558 -3e-5,-2.42679 0.66588,-4.42449 1.9977,-5.99311 1.27259,-1.53892 3.09272,-2.338 5.4604,-2.39725 2.4268,0.0593 4.33572,0.97671 5.72675,2.7524 1.39095,1.80538 2.08645,3.86227 2.08649,6.17068 -0.0592,3.10759 -0.84351,6.14114 -2.35285,9.10066 -1.50941,2.9004 -3.32954,5.47522 -5.46039,7.72446 l -27.96787,30.45389 55.09225,0 0,-15.09377 z"
         id="path221163"
         style="fill:#ffffff;font-family:Futura Book;-inkscape-font-specification:Futura Book" />
    </g>
  </g>
</svg>
