<?xml version="1.0" encoding="UTF-8" standalone="no"?>
<!-- Created with Inkscape (http://www.inkscape.org/) -->

<svg
   xmlns:dc="http://purl.org/dc/elements/1.1/"
   xmlns:cc="http://creativecommons.org/ns#"
   xmlns:rdf="http://www.w3.org/1999/02/22-rdf-syntax-ns#"
   xmlns:svg="http://www.w3.org/2000/svg"
   xmlns="http://www.w3.org/2000/svg"
   version="1.1"
   width="600"
   height="326.71112"
   viewBox="0 0 480 261.3689"
   id="svg3033">
  <metadata
     id="metadata3079">
    <rdf:RDF>
      <cc:Work
         rdf:about="">
        <dc:format>image/svg+xml</dc:format>
        <dc:type
           rdf:resource="http://purl.org/dc/dcmitype/StillImage" />
        <dc:title></dc:title>
      </cc:Work>
    </rdf:RDF>
  </metadata>
  <defs
     id="defs3077" />
  <g
     transform="matrix(0.87423732,0,0,0.87423732,-6.8165946e-7,0.05805854)"
     id="g9783">
    <path
       d="m 0,-0.0589105 c 183.01194,-0.01 366.03766,-0.01 549.0496,0 -0.0963,33.0800005 0.055,66.1600005 -0.0688,99.2300005 -182.98441,-0.04 -365.9551,-0.02 -548.92578363,-0.01 C -0.02750818,66.09109 0.06877046,33.02109 0,-0.0589105 z"
       id="path3037"
       style="fill:#000000;fill-opacity:1" />
    <path
       d="m 42.39,17.2415 c 10.46,-2.44 22.3,-1.48 31.37,4.63 0.25,5 -1.6,9.84 -2.49,14.71 -4.92,-3 -10.4,-5.36 -16.29,-5.18 -6.23,-0.21 -12.68,2.34 -16.31,7.56 -4.49,6.43 -4.29,15.91 0.85,21.92 3.64,4.48 9.92,6.44 15.52,5.36 3.9,-0.43 7.65,-1.65 11.45,-2.59 -0.64,4.57 -1.18,9.16 -2,13.71 -0.14,1.82 -2.2,2.45 -3.61,3.07 -6.3,2.23 -13.26,1.97 -19.72,0.59 -10.28,-2.15 -19.38,-9.95 -22.41,-20.09 -2.09,-6.91 -2.08,-14.44 -0.14,-21.38 3.2,-10.97 12.73,-19.66 23.78,-22.31 z"
       id="path3039"
       style="fill:#ffffff;fill-opacity:1" />
    <path
       d="m 339.54,15.7815 c 6.21,-0.1 12.42,-0.12 18.64,0.03 0.03,6.8 -0.03,13.59 0.03,20.39 7.38,0.58 14.78,-0.19 22.16,0.48 0.01,6.15 -0.01,12.31 -0.01,18.46 -7.37,0.18 -14.73,0.05 -22.1,0.08 -0.16,7.99 -0.03,15.99 -0.09,23.98 -6.21,0.11 -12.42,0.1 -18.62,0.01 -0.08,-8 0.07,-15.99 -0.09,-23.98 -7.9,-0.07 -15.81,0.13 -23.7,-0.12 -0.04,-6.14 0,-12.27 -0.03,-18.4 7.9,-0.55 15.83,-0.19 23.75,-0.43 0.1,-6.84 0.03,-13.67 0.06,-20.5 z"
       id="path3041"
       style="fill:#ffffff;fill-opacity:1" />
    <path
       d="m 69.23,79.1315 c 10.07,-20.36 19.87,-40.87 30.38,-61 6.98,0.04 13.95,0 20.93,0 3.97,17.09 7.19,34.34 10.89,51.49 0.73,3.15 1.32,6.34 1.65,9.56 -5.33,0.09 -10.69,0.28 -16.01,-0.15 -0.62,-3.42 -1.48,-6.79 -2.59,-10.09 -7.22,0.01 -14.45,0 -21.67,0.02 -1.88,3.28 -3.21,6.85 -5.23,10.05 -6.09,0.53 -12.24,0.25 -18.35,0.12 z"
       id="path3043"
       style="fill:#ffffff;fill-opacity:1" />
    <path
       d="m 149,18.1615 c 6.02,-0.02 12.04,-0.05 18.07,0.01 6.71,11.37 12.97,23.02 19.82,34.31 1.71,-11.43 3.1,-22.91 4.92,-34.32 5.65,-0.02 11.31,-0.02 16.97,-0.01 -2.65,20.37 -5.42,40.74 -8.4,61.07 -5.53,-0.04 -11.09,0.32 -16.6,-0.16 -7.47,-12.06 -14.12,-24.63 -21.24,-36.91 -2.15,12.25 -3.57,24.64 -5.33,36.96 -5.38,0.28 -10.77,0.19 -16.15,0.07 2.1,-20.4 5.41,-40.67 7.94,-61.02 z"
       id="path3045"
       style="fill:#ffffff;fill-opacity:1" />
    <path
       d="m 237.53,18.1015 c 6.72,0.11 13.45,0 20.18,0.05 4.65,20.27 8.65,40.7 12.96,61.05 -5.47,0.09 -10.94,0.15 -16.41,-0.04 -0.79,-3.34 -1.42,-6.72 -2.13,-10.08 -7.11,-0.24 -14.23,-0.14 -21.35,-0.07 -1.88,3.34 -3.63,6.75 -5.39,10.15 -5.99,0.17 -11.99,0.16 -17.99,0.02 10.03,-20.37 19.83,-40.86 30.13,-61.08 z"
       id="path3047"
       style="fill:#ffffff;fill-opacity:1" />
    <path
       d="m 277.24,79.1915 c 2.81,-20.36 5.86,-40.68 8.66,-61.03 5.58,-0.11 11.15,-0.01 16.73,-0.08 0.14,0.26 0.43,0.8 0.57,1.07 -2.05,15.49 -4.57,30.95 -6.05,46.51 6.07,0.02 12.14,-0.05 18.22,0.04 -0.68,4.5 -1.22,9.02 -1.93,13.52 -12.07,0.06 -24.14,0.13 -36.2,-0.03 z"
       id="path3049"
       style="fill:#ffffff;fill-opacity:1" />
    <path
       d="m 98.55,55.1715 c 2.86,-6.42 5.51,-12.93 8.61,-19.24 1.68,6.38 3.18,12.81 4.66,19.25 -4.43,0.06 -8.85,0.04 -13.27,-0.01 z"
       id="path3051"
       style="fill:#000000;fill-opacity:1" />
    <path
       d="m 236.17,55.1315 c 2.73,-6.79 5.75,-13.46 8.87,-20.08 1.47,6.69 2.86,13.4 4.38,20.09 -4.42,0.09 -8.83,0.12 -13.25,-0.01 z"
       id="path3053"
       style="fill:#000000;fill-opacity:1" />
    <path
       d="m 0.04,99.1915 c 197.04608,0.09682 369.18846,-0.147757 548.96,0.08 0.02,66.54 -0.08,133.08 0.05,199.62 -183.02,0.01 -366.03,-0.02 -549.05,0.01 0.13,-66.57 0.05,-133.14 0.04,-199.71 z"
       id="path3055"
       style="fill:#004c98;fill-opacity:1" />
    <path
       d="m 41.64,151.2615 c 6.2,-8.29 16.25,-13.17 26.47,-14.02 14.2,-1.11 28.51,2.48 41.08,9.04 -3.89,7.76 -7.9,15.46 -11.92,23.16 -5.7,-4.61 -12.78,-8.12 -20.28,-7.64 -4.01,0.01 -8.02,1.85 -10.46,5.04 -2.3,3.4 -1.53,8.67 2.03,10.92 4.72,3.14 10.4,4.24 15.68,6.07 9.14,2.91 18.88,6.7 24.59,14.86 5.74,8.04 5.55,18.56 4.06,27.9 -1.6,10.6 -8.72,19.97 -18.36,24.61 -20.8,10.42 -46.67,5.65 -65.11,-7.53 4.4,-7.73 8.31,-15.72 12.65,-23.47 7.45,5.88 16.06,11.18 25.84,11.42 4.05,-0.13 8.51,-0.75 11.58,-3.66 3.8,-3.38 4.26,-9.96 0.77,-13.71 -2.05,-2.42 -5.04,-3.68 -7.98,-4.66 -9.42,-3.13 -19.51,-4.97 -27.92,-10.53 -7.58,-5.14 -10.63,-14.81 -10.16,-23.62 -0.42,-8.62 2.2,-17.32 7.44,-24.18 z"
       id="path3057"
       style="fill:#ffffff;fill-opacity:1" />
    <path
       d="m 303.3,139.7315 c 8.04,-3.29 18.12,1.56 20.48,9.94 3.16,8.91 -4.36,19.51 -13.8,19.5 -8.68,1.06 -17.21,-6.94 -16.54,-15.69 0.25,-5.99 4.19,-11.68 9.86,-13.75 z"
       id="path3059"
       style="fill:#ffffff;fill-opacity:1" />
    <path
       d="m 445.58,180.0415 c 9.55,-6.06 21.51,-6.76 32.46,-5.37 5.53,0.49 10.88,2.14 15.92,4.42 -3.06,5.83 -6.18,11.63 -9.07,17.55 -6.58,-2.53 -14.26,-5.49 -21.14,-2.4 -3.32,1.55 -3.09,6.67 0.31,8 7.92,3.47 17.48,3.01 24.47,8.7 6.79,5.18 8.99,14.53 7.2,22.61 -1.23,9.14 -8.46,16.44 -16.85,19.65 -16.52,6.68 -35.63,3.44 -50.68,-5.48 3.35,-6.34 6.62,-12.72 9.8,-19.13 6.71,3.92 13.92,7.92 21.94,7.69 3.24,0.05 7.31,-0.86 8.6,-4.23 1.04,-3.06 -1.24,-6.11 -4.22,-6.81 -8.54,-2.75 -18.65,-2.97 -25.3,-9.79 -5.14,-5.19 -5.32,-13.02 -4.3,-19.79 1.31,-6.4 5.28,-12.2 10.86,-15.62 z"
       id="path3061"
       style="fill:#ffffff;fill-opacity:1" />
    <path
       d="m 141.58,182.0515 c 9.68,-6.74 22.01,-8 33.48,-7.02 11.59,1.12 23.2,6.98 29.28,17.21 5.31,8.29 6.67,18.33 6.47,27.98 -4.92,0.58 -9.87,0.33 -14.8,0.18 -14.32,0.67 -28.65,-0.8 -42.95,0.27 0.25,5.09 1.35,10.82 5.79,13.96 5.4,3.62 12.89,4.23 18.67,1.12 2.46,-1.34 4.11,-3.7 6.3,-5.39 8.66,-0.35 17.35,-0.05 26.02,-0.12 -2.19,8.04 -6.97,15.41 -14.12,19.86 -11.08,7.07 -25.1,8.01 -37.76,5.7 -11.52,-2.07 -22.47,-9.05 -28.03,-19.52 -4.49,-8.51 -5.32,-18.49 -4.15,-27.91 1.36,-10.43 6.88,-20.53 15.8,-26.32 z"
       id="path3063"
       style="fill:#ffffff;fill-opacity:1" />
    <path
       d="m 352.01,182.5015 c 10.01,-7.22 23,-8.58 34.97,-7.37 10.79,1.22 21.46,6.59 27.56,15.78 5.98,8.48 7.64,19.15 7.31,29.31 -19.24,1.02 -38.52,-0.73 -57.75,0.43 0.19,5.52 1.79,11.74 6.89,14.72 5.19,2.73 11.77,3.35 17.09,0.62 2.69,-1.28 4.66,-3.6 6.61,-5.77 8.72,0.01 17.44,-0.03 26.16,0.02 -2.09,8.1 -6.99,15.49 -14.17,19.92 -10.14,6.57 -22.92,7.68 -34.64,6.14 -11.86,-1.42 -23.5,-7.7 -29.85,-18.02 -5.47,-8.8 -6.68,-19.67 -5.34,-29.78 1.31,-10.19 6.53,-20.16 15.16,-26 z"
       id="path3065"
       style="fill:#ffffff;fill-opacity:1" />
    <path
       d="m 224.66,176.9115 c 9.21,-0.05 18.42,-0.06 27.63,0 -0.01,4.12 0,8.24 0,12.36 3.63,-5.77 9.08,-10.48 15.8,-12.15 4.92,-1.54 10.13,-1.48 15.21,-1.14 0.01,8.53 -0.01,17.06 0.02,25.59 -6.9,-2.33 -14.79,-3.74 -21.53,-0.15 -6.38,3 -9.34,10.25 -9.43,16.97 -0.14,11.84 -0.02,23.67 -0.07,35.51 -9.21,-0.03 -18.42,0.01 -27.63,-0.03 0.01,-25.65 0,-51.3 0,-76.96 z"
       id="path3067"
       style="fill:#ffffff;fill-opacity:1" />
    <path
       d="m 295.21,176.8915 c 9.11,-0.04 18.23,0 27.34,-0.02 0.04,25.67 0.06,51.35 -0.01,77.03 -9.11,-0.02 -18.22,-0.04 -27.33,0.02 -0.03,-25.68 -0.02,-51.35 0,-77.03 z"
       id="path3069"
       style="fill:#ffffff;fill-opacity:1" />
    <path
       d="m 160.55,194.2515 c 5.64,-2.91 12.78,-2.78 18.27,0.42 3.55,2.18 5.36,6.08 6.52,9.92 -10.48,0.04 -20.96,0.05 -31.44,0 0.68,-4.19 2.89,-8.18 6.65,-10.34 z"
       id="path3071"
       style="fill:#004c98;fill-opacity:1" />
    <path
       d="m 371.52,194.3015 c 5.63,-2.95 12.79,-2.88 18.29,0.34 3.61,2.18 5.46,6.14 6.74,9.98 -10.48,0 -20.96,-0.03 -31.44,0.03 0.46,-4.2 2.75,-8.17 6.41,-10.35 z"
       id="path3073"
       style="fill:#004c98;fill-opacity:1" />
    <g
       transform="matrix(1.026846,0,0,1.026846,-12.572156,-1.3441051)"
       id="g3189">
      <path
         d="m 399.95216,11.763127 c 45.57322,0 91.1345,0.01195 136.70773,0 -0.10752,25.528173 0.14335,51.068291 -0.13141,76.60841 -45.52544,-0.167242 -91.05088,0.03584 -136.57632,-0.107513 0.0239,-25.504281 0.012,-50.996616 0,-76.500897 z"
         id="path3091"
         style="fill:#ff0000" />
      <path
         d="m 410.02247,22.012623 c 5.37561,-0.01195 10.73927,-0.01195 16.10294,0.01195 -0.012,6.629918 0.0239,13.259837 -0.0358,19.889755 6.18792,0.01195 12.3639,0 18.55183,0.01195 -0.0478,-6.641864 -0.0239,-13.283729 -0.0239,-19.925593 5.19643,0.01195 10.40479,0.02389 15.61316,-0.03584 0.11946,18.695175 0.0717,37.402297 0.0239,56.097472 -5.22031,-0.08362 -10.42868,-0.05973 -15.64899,-0.04778 0,-7.908119 0.0478,-15.816238 -0.0239,-23.724357 -6.15209,0.03584 -12.29223,0.02389 -18.44432,0.01195 -0.0239,7.884227 -0.0119,15.7804 0,23.664628 -5.37561,0.05973 -10.75122,0.04778 -16.11488,0.03584 0.0119,-18.671284 0,-37.330622 0,-55.98996 z"
         id="path3097"
         style="fill:#ffffff" />
      <path
         d="m 474.52978,22.012623 c 13.2479,0.776477 27.53507,-2.401106 39.86314,3.846547 13.73766,7.406396 17.23778,27.033343 8.816,39.636161 -4.41995,7.143588 -12.45947,11.372401 -20.70207,12.101095 -9.31773,0.645073 -18.65934,0.358374 -27.98901,0.394211 0.0358,-18.659338 0.0119,-37.318676 0.0119,-55.978014 z"
         id="path3099"
         style="fill:#ffffff" />
      <path
         d="m 490.66856,34.030097 c 6.60603,-0.406157 14.65749,0.322536 18.3368,6.713539 3.30899,6.450731 3.22537,15.493701 -1.87549,21.036552 -4.31243,4.372162 -10.83484,4.109355 -16.50909,4.18103 0.0717,-10.643707 0,-21.287414 0.0478,-31.931121 z"
         id="path3109"
         style="fill:#ff0000" />
    </g>
  </g>
</svg>
