<?xml version="1.0" encoding="UTF-8" standalone="no"?>
<!-- Created with Inkscape (http://www.inkscape.org/) -->

<svg
   xmlns:dc="http://purl.org/dc/elements/1.1/"
   xmlns:cc="http://creativecommons.org/ns#"
   xmlns:rdf="http://www.w3.org/1999/02/22-rdf-syntax-ns#"
   xmlns:svg="http://www.w3.org/2000/svg"
   xmlns="http://www.w3.org/2000/svg"
   version="1.1"
   width="600"
   height="450.00928"
   id="svg2">
  <metadata
     id="metadata20">
    <rdf:RDF>
      <cc:Work
         rdf:about="">
        <dc:format>image/svg+xml</dc:format>
        <dc:type
           rdf:resource="http://purl.org/dc/dcmitype/StillImage" />
        <dc:title></dc:title>
      </cc:Work>
    </rdf:RDF>
  </metadata>
  <defs
     id="defs18" />
  <g
     transform="matrix(1.5,0,0,1.5,-3.9291393e-4,0.00915372)"
     id="g5519">
    <rect
       width="399.97641"
       height="200.0118"
       x="0.00026194262"
       y="99.988289"
       id="rect11505"
       style="fill:#3d961f;fill-opacity:1" />
    <rect
       width="400"
       height="99.994102"
       x="0.00026194262"
       y="-0.0061024781"
       id="rect11507" />
    <path
       d="m 74.240205,24.544069 0.236058,-1.463559 -0.708174,-1.227501 c -5.665388,-3.706108 -12.581883,-5.570965 -20.77309,-5.570965 -10.268516,0 -18.695781,3.210387 -25.376218,9.654766 -6.680436,6.397167 -10.008852,14.564769 -10.008852,24.431986 0,9.536737 3.068752,17.279434 9.206256,23.18088 6.113898,5.901446 14.139864,8.875775 24.054294,8.875775 5.523753,0 9.843612,-0.967837 13.030392,-2.879906 l 1.133078,-2.360578 1.770434,-12.322219 c 0.118029,-0.920626 -0.401298,-0.802597 -2.832694,-0.02361 -4.673945,1.369135 -8.521688,2.053703 -11.519623,2.053703 -4.791974,0 -8.73414,-1.605193 -11.850103,-4.839186 -3.115964,-3.210386 -4.65034,-7.294187 -4.65034,-12.251402 0,-5.334907 1.770434,-9.701977 5.334907,-13.077604 3.517262,-3.375627 8.143996,-5.075243 13.809384,-5.075243 5.42933,0 10.126881,1.251106 14.045441,3.776925 l 2.218944,1.133078 0.89702,-1.79404 1.982886,-10.221304"
       id="path11509"
       style="fill:#ffffff" />
    <path
       d="m 121.40456,19.704883 -1.39274,-1.298318 h -18.88463 l -1.88846,1.133077 -29.082326,58.84922 -0.16524,0.731779 0.637356,0.590145 h 15.863087 l 1.95928,-0.991443 4.0838,-8.427265 1.6288,-0.967837 h 19.946883 l 1.32193,1.06226 2.12452,8.498082 1.13308,0.826203 h 14.18707 l 0.73178,-0.755385 V 78.648525 L 121.40456,19.704883 m -9.98525,35.880792 H 99.569211 l -0.566539,-0.236058 0.188846,-0.495722 7.931542,-17.987607 0.4013,-0.566539 0.4013,0.826202 4.20183,17.397463 0.16524,0.73178 -0.87342,0.330481"
       id="path11511"
       style="fill:#ffffff" />
    <polyline
       style="fill:#ffffff"
       id="polyline11513"
       points="497.83,141.317 497.889,141.353 498.467,141.353 498.522,141.303    498.73,139.821 498.74,139.776 498.768,139.812 499.616,141.303 499.7,141.353 500.292,141.353 500.357,141.311 500.704,138.792    500.659,138.755 500.046,138.755 499.977,138.808 499.79,140.15 499.772,140.203 499.741,140.165 498.965,138.803 498.882,138.755    498.224,138.755 498.169,138.8 497.83,141.317  "
       clip-path="url(#SVGID_1656_)"
       transform="matrix(23.605784,0,0,23.605784,-11610.316,-3257.0376)" />
    <path
       d="M 270.89999,78.365256 258.57777,19.61046 257.09061,18.382959 H 239.103 l -1.79404,1.06226 -28.94069,59.085278 -0.25966,0.731779 0.63735,0.424904 h 15.69785 l 1.72322,-0.89702 4.41428,-8.592505 1.72322,-0.89702 h 18.88463 l 1.69962,1.298318 1.53437,7.931544 1.55799,1.156683 h 13.97462 L 270.9472,79.191459 270.9,78.365256 m -21.17439,-23.34612 -0.89702,0.566539 h -11.0475 l -1.06226,-0.495722 0.18884,-0.731779 8.00236,-18.058425 0.49572,-0.731779 0.35409,0.731779 3.91856,17.893184 0.0708,0.424904 v 0.401299 z"
       id="path11515"
       style="fill:#ffffff" />
    <polyline
       style="fill:#ffffff"
       id="polyline11517"
       points="504.014,138.755 503.969,138.811 503.609,141.325 503.64,141.353    505.094,141.353 505.147,141.311 505.216,140.801 505.181,140.768 504.485,140.768 504.444,140.729 504.444,140.722    504.703,138.787 504.669,138.755 504.014,138.755  "
       clip-path="url(#SVGID_1656_)"
       transform="matrix(23.605784,0,0,23.605784,-11610.316,-3257.0376)" />
    <polyline
       style="fill:#ffffff"
       id="polyline11519"
       points="507.034,140.373 507.079,140.328 507.938,140.328 507.976,140.287    507.976,139.58 507.938,139.535 507.068,139.535 507.034,139.486 507.034,138.687 506.989,138.651 506.282,138.651    506.248,138.687 506.248,139.486 506.206,139.535 505.278,139.535 505.24,139.572 505.24,140.282 505.282,140.328 506.203,140.328    506.248,140.379 506.248,141.311 506.286,141.353 506.996,141.353 507.034,141.304 507.034,140.373  "
       clip-path="url(#SVGID_1656_)"
       transform="matrix(23.605784,0,0,23.605784,-11610.316,-3257.0376)" />
    <polyline
       style="fill:#ffffff"
       id="polyline11521"
       points="494.586,143.726 494.586,147.501 496.099,147.501 496.099,148.567    493.328,148.567 493.328,143.726 494.586,143.726  "
       clip-path="url(#SVGID_1656_)"
       transform="matrix(23.605784,0,0,23.605784,-11610.316,-3257.0376)" />
    <path
       d="m 112.90648,172.90642 h 27.45353 v 77.09649 h -27.45353 v -77.09649 z m 13.78578,-38.47743 c 4.15461,0 7.7663,1.53438 10.85866,4.60313 2.97433,2.99794 4.43788,6.60962 4.43788,10.85866 0,4.13101 -1.48716,7.69549 -4.43788,10.74063 -3.04515,3.06876 -6.70405,4.60313 -11.04751,4.60313 -4.20183,0 -7.83712,-1.53437 -10.85866,-4.60313 -2.97433,-2.97433 -4.43789,-6.51519 -4.43789,-10.57539 0,-4.36707 1.48717,-8.09678 4.50871,-11.16553 2.95072,-2.97433 6.60962,-4.4615 10.97669,-4.4615 z"
       id="path11523"
       style="fill:#ffffff" />
    <path
       d="m 199.16201,193.58509 c -4.81558,0 -8.94659,1.74683 -12.39303,5.21688 -3.44645,3.37562 -5.16967,7.43582 -5.16967,12.20419 0,5.00442 1.74683,9.22986 5.24048,12.6527 3.42284,3.42284 7.53025,5.12245 12.39304,5.12245 4.93361,0 9.08823,-1.72322 12.51107,-5.21688 3.47005,-3.39923 5.21687,-7.55385 5.21687,-12.41664 0,-4.81558 -1.69961,-8.94659 -5.14606,-12.41664 -3.42283,-3.42284 -7.64827,-5.14606 -12.6527,-5.14606 m 43.90676,-20.67867 v 73.15433 c 0,8.33284 -0.73178,14.68279 -2.14812,19.04986 -2.40779,7.22337 -7.43583,13.24285 -15.13131,18.08203 -7.48304,4.69755 -16.78371,7.05813 -27.83122,7.05813 -13.14842,0 -23.6766,-3.23399 -31.56093,-9.74919 -4.55592,-3.77692 -7.83712,-7.41221 -9.82001,-10.92947 -1.13308,-2.05371 -2.0301,-5.02804 -2.66745,-8.9466 h 30.89997 c 0.99144,2.38419 2.24255,4.15462 3.75332,5.2877 2.21894,1.69962 5.24048,2.52582 9.11183,2.52582 5.90145,0 10.41015,-1.74683 13.52611,-5.26409 2.92712,-3.23399 4.41429,-7.62467 4.41429,-13.17203 v -8.5689 c -3.68251,3.32842 -6.98732,5.7126 -9.96165,7.15255 -3.98937,1.93568 -8.71053,2.90352 -14.25789,2.90352 -11.25996,0 -20.419,-3.58808 -27.59516,-10.71703 -7.24698,-7.24698 -10.85866,-16.64208 -10.85866,-28.20891 0,-12.39304 3.98938,-22.59074 11.96813,-30.5931 7.43582,-7.48303 16.57126,-11.23635 27.38271,-11.23635 5.07524,0 9.67837,0.89702 13.83299,2.69106 2.95072,1.27471 6.09029,3.82414 9.46592,7.60106 v -8.12039 h 27.47713 z"
       id="path11525"
       style="fill:#ffffff" />
    <path
       d="m 302.29568,193.44345 c -4.76836,0 -8.89938,1.74683 -12.36943,5.21688 -3.44644,3.42284 -5.19327,7.53025 -5.19327,12.34583 0,5.02803 1.72322,9.25346 5.19327,12.72351 3.44645,3.42284 7.57746,5.14606 12.44025,5.14606 4.91,0 9.06462,-1.74682 12.48746,-5.21687 3.44645,-3.47005 5.21688,-7.62467 5.21688,-12.48746 0,-4.86279 -1.74683,-9.04102 -5.21688,-12.51107 -3.42284,-3.44644 -7.60106,-5.21688 -12.55828,-5.21688 m 17.01977,-21.12717 h 27.47714 v 77.68663 h -27.47714 v -8.5689 c -5.83062,7.45943 -13.9038,11.16554 -24.14871,11.16554 -10.62261,0 -19.64002,-3.75332 -27.09944,-11.30717 -7.97876,-8.07318 -11.96814,-18.17646 -11.96814,-30.28622 0,-11.99174 3.94217,-21.97699 11.8265,-29.90853 7.45943,-7.48304 16.57126,-11.23636 27.38271,-11.23636 4.91001,0 9.63116,0.92063 14.13987,2.76188 2.97433,1.18029 6.30274,3.61169 9.89082,7.29419 v -7.60106 z"
       id="path11527"
       style="fill:#ffffff" />
  </g>
</svg>
