<?xml version="1.0" encoding="UTF-8" standalone="no"?>
<svg xmlns:rdf="http://www.w3.org/1999/02/22-rdf-syntax-ns#" xmlns="http://www.w3.org/2000/svg" height="346.14" width="600" version="1.1" xmlns:cc="http://creativecommons.org/ns#" xmlns:dc="http://purl.org/dc/elements/1.1/" viewBox="0 0 158.75 91.582849">
 <g transform="translate(27.375 -86.718)">
  <path d="m78.662 120.29v-20.07h5.529v49.36h-5.529v-24.16h-25.206v24.16h-5.534v-49.36h5.534v20.07h25.206z" fill="#b2b5ba"/>
  <path d="m104.92 144.45c12.57 0 20.86-7.77 20.86-19.55 0-11.85-8.22-19.55-20.86-19.55h-4.8v39.1h4.8zm-10.331-44.23h10.131c7.9 0 13.43 1.78 18.1 5.73 5.52 4.67 8.55 11.32 8.55 18.95 0 7.64-3.03 14.21-8.75 18.95-4.87 4.08-10 5.73-17.97 5.73h-10.061v-49.36z" fill="#b2b5ba"/>
  <path fill="#f57116" d="m34.833 161.97h-62.208v-75.252h62.208v75.252z"/>
  <path fill="#fff" d="m14.797 114.58c0-5.96-4.774-10.79-10.676-10.79-5.9892 0-10.763 4.83-10.763 10.79-0.0002 5.97 4.7738 10.79 10.676 10.79 5.989 0 10.763-4.74 10.763-10.79zm-26.994 44.03 15.623-19.21h-0.6938-0.6074l-2.2569-0.08c-1.8226-0.09-5.8161-0.97-8.246-1.93-9.7209-3.69-15.537-11.93-15.537-22.28 0-14.74 11.457-24.914 27.949-24.914 15.884 0 27.255 9.914 27.255 23.774 0 7.63-3.733 17.19-9.895 25.35l-14.496 19.29h-19.095z"/>
  <g fill="#0e0b0c">
   <path d="m-19.186 177.81c-0.529 0.27-1.736 0.49-2.59 0.49-3.193 0-5.49-2.32-5.49-5.55 0-3.39 2.65-6.05 6.049-6.05 0.869 0 1.723 0.18 2.635 0.56 0.486 0.21 0.662 0.35 0.662 0.51v0.04l-0.265 2.19-0.103 0.28-0.102-0.04-0.162-0.14c-0.53-0.44-1.531-0.72-2.399-0.72-2.002 0-3.444 1.36-3.444 3.24 0 1.75 1.251 3 3.017 3 0.898 0 2.075-0.29 2.428-0.61l0.089-0.06 0.059 0.08-0.015 0.16-0.206 2.43-0.162 0.19z"/>
   <path d="m-11.177 173.81-0.412-1.95c-0.088-0.42-0.147-0.65-0.162-0.74-0.059-0.34-0.089-0.51-0.147-0.94l-0.132 0.39-0.369 0.93-1.03 2.31h2.252zm-4.209 4.27h-3.091l5.461-11.16h3.149l2.6792 11.16h-2.9442l-0.485-2.04h-3.841l-0.928 2.04z"/>
   <path d="m4.4728 178.08h-3.0608l-2.943-5c-0.1327-0.24-0.2946-0.52-0.4707-0.88-0.3687-0.7-0.5153-1.01-0.8842-1.89v0.51c0 0.82-0.0299 1.43-0.1175 2.11l-0.618 5.15h-2.7961l1.3538-11.16h3.0174l3.1491 5.39 0.4714 0.89 0.4262 0.86 0.2206 0.42 0.015-0.46c0.015-0.43 0.0591-0.98 0.1174-1.46l0.6922-5.64h2.7818l-1.3549 11.16z"/>
   <path d="m12.516 173.81-0.412-1.95c-0.089-0.42-0.147-0.65-0.162-0.74-0.058-0.34-0.088-0.51-0.146-0.94l-0.133 0.39-0.368 0.93-1.031 2.31h2.252zm-4.2082 4.27h-3.0915l5.4607-11.16h3.149l2.679 11.16h-2.943l-0.486-2.04h-3.841l-0.9272 2.04z"/>
   <path d="m20.366 175.62h3.518l-0.295 2.46h-6.314l1.354-11.16h2.797l-1.059 8.7z"/>
   <path d="m32.022 170.61c0-1.01-0.809-1.83-1.81-1.83-1.015 0-1.825 0.82-1.825 1.83s0.81 1.83 1.81 1.83c1.016 0 1.825-0.8 1.825-1.83zm-4.577 7.47 2.649-3.26h-0.117-0.104l-0.382-0.01c-0.31-0.02-0.986-0.17-1.398-0.33-1.649-0.63-2.635-2.02-2.635-3.78 0-2.5 1.943-4.22 4.739-4.22 2.694 0 4.622 1.68 4.622 4.03 0 1.29-0.633 2.91-1.678 4.3l-2.458 3.27h-3.238z"/>
  </g>
 </g>
</svg>
