<?xml version="1.0" encoding="UTF-8" standalone="no"?>
<!-- Created with Inkscape (http://www.inkscape.org/) -->

<svg
   xmlns:dc="http://purl.org/dc/elements/1.1/"
   xmlns:cc="http://creativecommons.org/ns#"
   xmlns:rdf="http://www.w3.org/1999/02/22-rdf-syntax-ns#"
   xmlns:svg="http://www.w3.org/2000/svg"
   xmlns="http://www.w3.org/2000/svg"
   version="1.1"
   width="600"
   height="94.968155"
   id="svg7900">
  <defs
     id="defs7902" />
  <metadata
     id="metadata7905">
    <rdf:RDF>
      <cc:Work
         rdf:about="">
        <dc:format>image/svg+xml</dc:format>
        <dc:type
           rdf:resource="http://purl.org/dc/dcmitype/StillImage" />
        <dc:title></dc:title>
      </cc:Work>
    </rdf:RDF>
  </metadata>
  <g
     transform="scale(0.75204041,0.75204041)"
     id="g3136">
    <path
       d="m 0,126.28065 797.82947,0 L 797.82947,0 0,0 0,126.28065 z"
       id="path4522"
       style="fill:#000408;fill-opacity:1;fill-rule:nonzero;stroke:none" />
    <path
       d="m 525.23133,40.25565 -0.95392,-0.95392 0,-15.14834 0.95392,-0.97224 29.32367,0 0.93408,0.97224 0,75.53182 -0.93408,0.95392 -18.23905,0 -0.91577,-0.95392 0,-58.51379 -0.97377,-0.91577 -9.19584,0"
       id="path4526"
       style="fill:#ffffff;fill-opacity:1;fill-rule:nonzero;stroke:none" />
    <path
       d="m 93.77087,30.94534 0.28694,-1.86969 -0.91577,-1.52628 C 85.96853,22.85606 77.21149,20.5094 66.9091,20.5094 c -12.93523,0 -23.6192,4.06372 -32.07098,12.17209 -8.41362,8.12744 -12.62997,18.42984 -12.62997,30.8881 0,12.03854 3.87294,21.80674 11.59973,29.26643 7.74588,7.47878 17.89564,11.19909 30.43022,11.19909 6.94458,0 12.42011,-1.20119 16.40752,-3.60584 l 1.44997,-2.99533 2.21311,-15.56806 c 0.13736,-1.16455 -0.4762,-0.99208 -3.54861,-0.0153 -5.91433,1.71706 -10.79843,2.5756 -14.5569,2.5756 -6.06696,0 -11.06553,-2.0414 -14.97663,-6.08605 -3.93017,-4.0828 -5.89526,-9.234 -5.89526,-15.49175 0,-6.75379 2.23219,-12.2484 6.71564,-16.52198 4.48345,-4.25451 10.26424,-6.41038 17.45683,-6.41038 6.86827,0 12.80168,1.60259 17.72394,4.76962 l 2.82362,1.44997 1.10655,-2.28942 2.61376,-12.89707"
       id="path4530"
       style="fill:#ffffff;fill-opacity:1;fill-rule:nonzero;stroke:none" />
    <path
       d="m 153.33397,24.8593 -1.75522,-1.67891 -23.84813,0 -2.38482,1.46828 -36.7452,74.34895 -0.21063,0.91577 0.83945,0.72498 20.01336,0 2.46113,-1.24087 5.18935,-10.6458 2.06048,-1.24087 25.18363,0 1.67891,1.35534 2.67099,10.7412 1.43013,1.03024 17.87656,0 0.93561,-0.93561 0,-0.40142 -15.39636,-74.44433 z m -12.59181,45.31146 -14.99571,0 -0.68682,-0.30526 0.19078,-0.62883 10.01622,-22.68434 0.5342,-0.74483 0.51435,1.03024 5.24659,21.99752 0.21063,0.91577 -1.03024,0.41973"
       id="path4534"
       style="fill:#ffffff;fill-opacity:1;fill-rule:nonzero;stroke:none" />
    <path
       d="m 178.53668,99.60889 1.73615,1.03024 17.24697,0 1.65983,-1.44996 6.20051,-44.18583 0.30526,-1.35534 0.8013,1.05009 25.31718,44.49108 2.4802,1.44996 17.64762,0 1.96509,-1.24086 10.34055,-75.07393 -1.37365,-1.14471 -18.25813,0 -2.07956,1.56443 -5.55185,40.04579 -0.51435,1.56444 -0.93561,-1.14471 -23.16131,-40.56091 -2.42297,-1.46828 -19.65087,0 -1.65983,1.35534 -10.09253,75.07393"
       id="path4538"
       style="fill:#ffffff;fill-opacity:1;fill-rule:nonzero;stroke:none" />
    <path
       d="m 342.17305,98.99838 -15.58714,-74.25355 -1.85062,-1.56444 -22.7225,0 -2.27034,1.35534 -36.53535,74.6542 -0.3251,0.93561 0.83946,0.51436 19.80349,0 2.15587,-1.16456 5.59,-10.81751 2.17495,-1.14471 23.82906,0 2.17495,1.64075 1.94601,10.0353 2.00324,1.44996 17.64762,0 1.23934,-0.62883 -0.10684,-1.01192 m -26.74807,-29.55261 -1.10655,0.72499 -13.94639,0 -1.33549,-0.61052 0.19078,-0.93561 10.11161,-22.81789 0.61051,-0.93409 0.41973,0.93409 4.94133,22.60803 0.10684,0.51436 0,0.51435"
       id="path4542"
       style="fill:#ffffff;fill-opacity:1;fill-rule:nonzero;stroke:none" />
    <path
       d="m 362.93046,23.18039 -1.33549,1.67891 -10.7412,74.95946 0.93408,0.82114 43.36545,0 1.52628,-1.24087 2.06048,-15.18649 -1.03024,-1.03024 -20.73834,0 -1.25918,-1.1264 0,-0.2091 7.76495,-57.73156 -1.05008,-0.93409 -19.49823,0"
       id="path4546"
       style="fill:#ffffff;fill-opacity:1;fill-rule:nonzero;stroke:none" />
    <path
       d="m 452.96194,71.42994 1.3355,-1.35534 25.60336,0 1.12639,-1.24087 0,-21.06267 -1.12639,-1.35534 -25.88954,0 -1.05008,-1.44996 0,-23.82906 -1.3355,-1.05008 -21.08175,0 -1.01192,1.05008 0,23.82906 -1.23934,1.44996 -27.68292,0 -1.14471,1.14471 0,21.17715 1.24087,1.33549 27.47305,0 1.35534,1.54536 0,27.77831 1.12639,1.24087 21.13899,0 1.16455,-1.44997 0,-27.75923"
       id="path4550"
       style="fill:#ffffff;fill-opacity:1;fill-rule:nonzero;stroke:none" />
    <g
       transform="matrix(1.3767951,0,0,1.3767951,48.362826,-5.7921336)"
       id="g3189">
      <path
         d="m 399.95216,11.763127 c 45.57322,0 91.1345,0.01195 136.70773,0 -0.10752,25.528173 0.14335,51.068291 -0.13141,76.60841 -45.52544,-0.167242 -91.05088,0.03584 -136.57632,-0.107513 0.0239,-25.504281 0.012,-50.996616 0,-76.500897 z"
         id="path3091"
         style="fill:#ff0000" />
      <path
         d="m 410.02247,22.012623 c 5.37561,-0.01195 10.73927,-0.01195 16.10294,0.01195 -0.012,6.629918 0.0239,13.259837 -0.0358,19.889755 6.18792,0.01195 12.3639,0 18.55183,0.01195 -0.0478,-6.641864 -0.0239,-13.283729 -0.0239,-19.925593 5.19643,0.01195 10.40479,0.02389 15.61316,-0.03584 0.11946,18.695175 0.0717,37.402297 0.0239,56.097472 -5.22031,-0.08362 -10.42868,-0.05973 -15.64899,-0.04778 0,-7.908119 0.0478,-15.816238 -0.0239,-23.724357 -6.15209,0.03584 -12.29223,0.02389 -18.44432,0.01195 -0.0239,7.884227 -0.0119,15.7804 0,23.664628 -5.37561,0.05973 -10.75122,0.04778 -16.11488,0.03584 0.0119,-18.671284 0,-37.330622 0,-55.98996 z"
         id="path3097"
         style="fill:#ffffff" />
      <path
         d="m 474.52978,22.012623 c 13.2479,0.776477 27.53507,-2.401106 39.86314,3.846547 13.73766,7.406396 17.23778,27.033343 8.816,39.636161 -4.41995,7.143588 -12.45947,11.372401 -20.70207,12.101095 -9.31773,0.645073 -18.65934,0.358374 -27.98901,0.394211 0.0358,-18.659338 0.0119,-37.318676 0.0119,-55.978014 z"
         id="path3099"
         style="fill:#ffffff" />
      <path
         d="m 490.66856,34.030097 c 6.60603,-0.406157 14.65749,0.322536 18.3368,6.713539 3.30899,6.450731 3.22537,15.493701 -1.87549,21.036552 -4.31243,4.372162 -10.83484,4.109355 -16.50909,4.18103 0.0717,-10.643707 0,-21.287414 0.0478,-31.931121 z"
         id="path3109"
         style="fill:#ff0000" />
    </g>
  </g>
</svg>
