<?xml version="1.0" encoding="UTF-8" standalone="no"?>
<!-- Created with Inkscape (http://www.inkscape.org/) -->

<svg
   xmlns:dc="http://purl.org/dc/elements/1.1/"
   xmlns:cc="http://creativecommons.org/ns#"
   xmlns:rdf="http://www.w3.org/1999/02/22-rdf-syntax-ns#"
   xmlns:svg="http://www.w3.org/2000/svg"
   xmlns="http://www.w3.org/2000/svg"
   version="1.1"
   width="600"
   height="126.28065"
   id="svg7900">
  <defs
     id="defs7902" />
  <metadata
     id="metadata7905">
    <rdf:RDF>
      <cc:Work
         rdf:about="">
        <dc:format>image/svg+xml</dc:format>
        <dc:type
           rdf:resource="http://purl.org/dc/dcmitype/StillImage" />
        <dc:title></dc:title>
      </cc:Work>
    </rdf:RDF>
  </metadata>
  <g
     id="g4032">
    <path
       d="m 0,126.28065 600,0 L 600,0 0,0 0,126.28065 z"
       id="path4522"
       style="fill:#000408;fill-opacity:1;fill-rule:nonzero;stroke:none" />
    <path
       d="m 93.77087,30.94534 0.28694,-1.86969 -0.91577,-1.52628 C 85.96853,22.85606 77.21149,20.5094 66.9091,20.5094 c -12.93523,0 -23.6192,4.06372 -32.07098,12.17209 -8.41362,8.12744 -12.62997,18.42984 -12.62997,30.8881 0,12.03854 3.87294,21.80674 11.59973,29.26643 7.74588,7.47878 17.89564,11.19909 30.43022,11.19909 6.94458,0 12.42011,-1.20119 16.40752,-3.60584 l 1.44997,-2.99533 2.21311,-15.56806 c 0.13736,-1.16455 -0.4762,-0.99208 -3.54861,-0.0153 -5.91433,1.71706 -10.79843,2.5756 -14.5569,2.5756 -6.06696,0 -11.06553,-2.0414 -14.97663,-6.08605 -3.93017,-4.0828 -5.89526,-9.234 -5.89526,-15.49175 0,-6.75379 2.23219,-12.2484 6.71564,-16.52198 4.48345,-4.25451 10.26424,-6.41038 17.45683,-6.41038 6.86827,0 12.80168,1.60259 17.72394,4.76962 l 2.82362,1.44997 1.10655,-2.28942 2.61376,-12.89707"
       id="path4530"
       style="fill:#ffffff;fill-opacity:1;fill-rule:nonzero;stroke:none" />
    <path
       d="m 153.33397,24.8593 -1.75522,-1.67891 -23.84813,0 -2.38482,1.46828 -36.7452,74.34895 -0.21063,0.91577 0.83945,0.72498 20.01336,0 2.46113,-1.24087 5.18935,-10.6458 2.06048,-1.24087 25.18363,0 1.67891,1.35534 2.67099,10.7412 1.43013,1.03024 17.87656,0 0.93561,-0.93561 0,-0.40142 -15.39636,-74.44433 z m -12.59181,45.31146 -14.99571,0 -0.68682,-0.30526 0.19078,-0.62883 10.01622,-22.68434 0.5342,-0.74483 0.51435,1.03024 5.24659,21.99752 0.21063,0.91577 -1.03024,0.41973"
       id="path4534"
       style="fill:#ffffff;fill-opacity:1;fill-rule:nonzero;stroke:none" />
    <path
       d="m 178.53668,99.60889 1.73615,1.03024 17.24697,0 1.65983,-1.44996 6.20051,-44.18583 0.30526,-1.35534 0.8013,1.05009 25.31718,44.49108 2.4802,1.44996 17.64762,0 1.96509,-1.24086 10.34055,-75.07393 -1.37365,-1.14471 -18.25813,0 -2.07956,1.56443 -5.55185,40.04579 -0.51435,1.56444 -0.93561,-1.14471 -23.16131,-40.56091 -2.42297,-1.46828 -19.65087,0 -1.65983,1.35534 -10.09253,75.07393"
       id="path4538"
       style="fill:#ffffff;fill-opacity:1;fill-rule:nonzero;stroke:none" />
    <path
       d="m 342.17305,98.99838 -15.58714,-74.25355 -1.85062,-1.56444 -22.7225,0 -2.27034,1.35534 -36.53535,74.6542 -0.3251,0.93561 0.83946,0.51436 19.80349,0 2.15587,-1.16456 5.59,-10.81751 2.17495,-1.14471 23.82906,0 2.17495,1.64075 1.94601,10.0353 2.00324,1.44996 17.64762,0 1.23934,-0.62883 -0.10684,-1.01192 m -26.74807,-29.55261 -1.10655,0.72499 -13.94639,0 -1.33549,-0.61052 0.19078,-0.93561 10.11161,-22.81789 0.61051,-0.93409 0.41973,0.93409 4.94133,22.60803 0.10684,0.51436 0,0.51435"
       id="path4542"
       style="fill:#ffffff;fill-opacity:1;fill-rule:nonzero;stroke:none" />
    <path
       d="m 362.93046,23.18039 -1.33549,1.67891 -10.7412,74.95946 0.93408,0.82114 43.36545,0 1.52628,-1.24087 2.06048,-15.18649 -1.03024,-1.03024 -20.73834,0 -1.25918,-1.1264 0,-0.2091 7.76495,-57.73156 -1.05008,-0.93409 -19.49823,0"
       id="path4546"
       style="fill:#ffffff;fill-opacity:1;fill-rule:nonzero;stroke:none" />
    <path
       d="m 452.96194,71.42994 1.3355,-1.35534 25.60336,0 1.12639,-1.24087 0,-21.06267 -1.12639,-1.35534 -25.88954,0 -1.05008,-1.44996 0,-23.82906 -1.3355,-1.05008 -21.08175,0 -1.01192,1.05008 0,23.82906 -1.23934,1.44996 -27.68292,0 -1.14471,1.14471 0,21.17715 1.24087,1.33549 27.47305,0 1.35534,1.54536 0,27.77831 1.12639,1.24087 21.13899,0 1.16455,-1.44997 0,-27.75923"
       id="path4550"
       style="fill:#ffffff;fill-opacity:1;fill-rule:nonzero;stroke:none" />
    <path
       d="m 516.91071,33.677686 c 5.1415,-6.7264 13.5817,-10.39672 21.9537,-10.46497 7.553,-0.31849 15.4245,1.69866 21.1575,6.80982 8.9786,7.31031 11.2763,20.98301 6.3396,31.22808 -4.8912,8.77388 -12.702,15.30312 -19.072,22.93193 7.4316,-0.0455 14.8557,0.007 22.2873,-0.0151 0.2275,5.36139 0.01,10.737965 0.129,16.106954 -1.4105,0.20475 -2.8286,0.37157 -4.2543,0.364 -15.1742,-0.0455 -30.356,-0.008 -45.5302,-0.0228 -3.3063,-0.0302 -6.6278,0.15924 -9.9266,-0.23509 8.9484,-10.472554 19.5119,-19.511864 27.9825,-30.409074 4.186,-5.25524 8.7056,-10.63939 10.2905,-17.34304 1.6532,-4.75474 -0.637,-10.9503 -5.6344,-12.5883 -4.0722,-1.71383 -9.2289,0.8645 -10.3891,5.10357 -0.5839,2.16883 -0.8038,4.41349 -1.183,6.62023 -6.6809,-0.12138 -13.3694,0.15166 -20.0503,-0.15166 0.3943,-6.34724 1.7442,-12.91439 5.8998,-17.93454 z"
       id="path3055"
       style="fill:#ffffff" />
  </g>
</svg>
