<?xml version="1.0" encoding="UTF-8" standalone="no"?>
<!-- Created with Inkscape (http://www.inkscape.org/) -->

<svg
   xmlns:dc="http://purl.org/dc/elements/1.1/"
   xmlns:cc="http://creativecommons.org/ns#"
   xmlns:rdf="http://www.w3.org/1999/02/22-rdf-syntax-ns#"
   xmlns:svg="http://www.w3.org/2000/svg"
   xmlns="http://www.w3.org/2000/svg"
   version="1.1"
   width="600"
   height="199.36682"
   id="svg2">
  <metadata
     id="metadata24">
    <rdf:RDF>
      <cc:Work
         rdf:about="">
        <dc:format>image/svg+xml</dc:format>
        <dc:type
           rdf:resource="http://purl.org/dc/dcmitype/StillImage" />
        <dc:title></dc:title>
      </cc:Work>
    </rdf:RDF>
  </metadata>
  <defs
     id="defs22" />
  <rect
     width="600"
     height="132.91135"
     x="1.9645608e-05"
     y="66.455482"
     id="rect7781"
     style="fill:#3d961f;fill-opacity:1" />
  <path
     d="m 43.036947,152.47948 h 4.450379 c 6.600565,0 11.851012,-1.96683 15.784682,-5.88383 3.850332,-3.86701 5.783827,-8.98411 5.783827,-15.38465 0,-6.38388 -1.91683,-11.51765 -5.783827,-15.36798 -3.93367,-3.93367 -9.184117,-5.88383 -15.784682,-5.88383 h -4.450379 v 42.52029 z M 23.318598,169.1809 V 93.224425 h 29.002474 c 6.300539,0 12.284384,1.650142 17.951531,4.950422 6.033852,3.483623 10.800922,8.284043 14.334558,14.384563 3.400295,5.86717 5.100434,12.10103 5.100434,18.70159 0,6.55056 -1.683474,12.76776 -5.050427,18.63493 -3.516971,6.08385 -8.300707,10.88426 -14.334558,14.38456 -5.633816,3.26694 -11.61766,4.90041 -18.001538,4.90041 H 23.318598 z"
     id="path7797"
     style="fill:#ffffff" />
  <path
     d="m 134.27807,136.36144 c -1.68348,-5.46713 -5.21711,-8.21737 -10.68425,-8.21737 -5.56714,0 -9.00076,2.75024 -10.28422,8.21737 h 20.96847 z m 16.91811,10.53423 h -38.38661 c 0.20001,4.31704 1.30012,7.36729 3.30028,9.15078 1.85016,1.60014 4.46706,2.41688 7.81734,2.41688 2.56687,0 4.60039,-0.55005 6.08385,-1.63347 0.8834,-0.66673 1.83349,-1.73349 2.8169,-3.21695 h 17.66818 c -1.18343,3.73366 -2.50021,6.48388 -3.95034,8.26737 -5.15043,6.23386 -12.73442,9.3508 -22.75194,9.3508 -9.26745,0 -16.58474,-2.68356 -21.9352,-8.01734 -5.000431,-4.88376 -7.467313,-11.33431 -7.467313,-19.33499 0,-8.70075 2.766904,-15.53466 8.300713,-20.46841 5.15044,-4.58373 11.93435,-6.88392 20.38508,-6.88392 9.21744,0 16.35139,2.80023 21.35182,8.36737 4.51705,5.00043 6.78391,11.70101 6.78391,20.06839 v 1.93349 z"
     id="path7799"
     style="fill:#ffffff" />
  <path
     d="m 188.21601,131.91106 c -3.23362,0 -6.00051,1.15009 -8.31738,3.46695 -2.23353,2.26688 -3.35029,4.98377 -3.35029,8.15071 0,3.20027 1.13343,5.93383 3.40029,8.20069 2.3502,2.3502 5.15044,3.51697 8.41739,3.51697 3.26694,0 6.06719,-1.1501 8.40072,-3.45029 2.26685,-2.28352 3.36695,-5.00042 3.36695,-8.16736 0,-3.20028 -1.13343,-5.95051 -3.41696,-8.25072 -2.26685,-2.33352 -5.10043,-3.46695 -8.50072,-3.46695 m -11.18429,59.85511 h -18.23489 v -73.8063 h 18.23489 v 5.68382 c 0.70006,-0.81674 1.35011,-1.55014 1.93349,-2.21686 3.767,-3.40029 8.45073,-5.10043 14.10121,-5.10043 7.11727,0 13.16778,2.50021 18.15155,7.53398 5.23378,5.2671 7.85067,11.86767 7.85067,19.81835 0,7.91734 -2.60022,14.48457 -7.85067,19.73502 -4.91709,4.95042 -10.90093,7.4173 -17.96821,7.4173 -3.35028,0 -6.55056,-0.61672 -9.58414,-1.8335 -2.06684,-0.81673 -4.2837,-2.4502 -6.61723,-4.8504 v 27.61902 z"
     id="path7801"
     style="fill:#ffffff" />
  <path
     d="m 255.30507,131.71104 c -3.18361,0 -5.91718,1.1501 -8.21737,3.46696 -2.31687,2.26687 -3.46696,5.00043 -3.46696,8.20071 0,3.33361 1.15009,6.15052 3.46696,8.45072 2.28353,2.28352 5.03376,3.41695 8.2507,3.41695 3.25028,0 6.01719,-1.1501 8.31738,-3.45029 2.30019,-2.28352 3.46696,-5.05043 3.46696,-8.31738 0,-3.26694 -1.1501,-6.03384 -3.41696,-8.30071 -2.28352,-2.31686 -5.08377,-3.46696 -8.40071,-3.46696 m 0.18335,-15.70135 c 6.56722,0 12.45106,1.48347 17.65149,4.45039 4.26704,2.45021 7.53399,5.68382 9.85085,9.70083 2.31686,3.98367 3.46696,8.45072 3.46696,13.40114 0,7.45065 -2.48354,13.68451 -7.45064,18.68493 -2.85024,2.80024 -6.2672,4.96709 -10.30087,6.48388 -4.15036,1.58348 -8.63408,2.38355 -13.38448,2.38355 -9.7675,0 -17.63484,-2.9836 -23.55201,-8.90077 -5.00043,-4.95042 -7.46731,-11.03427 -7.46731,-18.25155 0,-7.65066 2.58356,-14.06787 7.71733,-19.23497 5.71716,-5.78384 13.55115,-8.71743 23.46868,-8.71743"
     id="path7803"
     style="fill:#ffffff" />
  <path
     d="m 294.25839,117.95987 h 18.23489 v 8.41739 c 2.73357,-4.61707 6.86725,-7.50065 12.36772,-8.66741 2.73357,-0.48337 5.45046,-0.56671 8.15069,-0.23335 v 17.20146 c -2.70023,-1.21677 -5.2171,-1.83349 -7.55064,-1.83349 -3.967,0 -7.11728,1.15009 -9.4008,3.46696 -1.31677,1.28345 -2.25018,2.75024 -2.76691,4.40038 -0.53337,1.6168 -0.80006,3.78366 -0.80006,6.53388 v 21.95187 h -18.23489 v -51.23769 z"
     id="path7805"
     style="fill:#ffffff" />
  <polygon
     points="410.064,76.825 410.423,76.825 410.423,75.9 411.518,75.9 411.518,76.825 412.141,76.825 412.141,77.729 411.518,77.729 411.518,79.898 410.423,79.898 410.423,77.729 410.064,77.729 "
     transform="matrix(16.668089,0,0,16.668089,-6497.4046,-1162.5661)"
     id="polygon7807"
     style="fill:#ffffff" />
  <path
     d="m 413.93528,136.36144 c -1.68349,-5.46713 -5.23379,-8.21737 -10.68425,-8.21737 -5.56715,0 -8.9841,2.75024 -10.28422,8.21737 h 20.96847 z m 16.9181,10.53423 h -38.36995 c 0.20002,4.31704 1.30012,7.36729 3.30029,9.15078 1.85015,1.60014 4.45038,2.41688 7.81733,2.41688 2.56689,0 4.6004,-0.55005 6.08385,-1.63347 0.90008,-0.66673 1.81683,-1.73349 2.81691,-3.21695 h 17.65151 c -1.16676,3.73366 -2.48354,6.48388 -3.93367,8.26737 -5.1671,6.23386 -12.73442,9.3508 -22.75194,9.3508 -9.25078,0 -16.56808,-2.68356 -21.95187,-8.01734 -4.98376,-4.88376 -7.45063,-11.33431 -7.45063,-19.33499 0,-8.70075 2.76689,-15.53466 8.3007,-20.46841 5.15044,-4.58373 11.93435,-6.88392 20.38507,-6.88392 9.23412,0 16.33473,2.80023 21.35182,8.36737 4.51706,5.00043 6.76725,11.70101 6.76725,20.06839 v 1.93349 z"
     id="path7809"
     style="fill:#ffffff" />
  <path
     d="m 478.84079,119.49333 -6.15052,11.71767 c -3.50029,-1.6668 -6.81725,-2.51689 -9.96751,-2.51689 -1.78347,0 -3.23361,0.43337 -4.30036,1.28345 -0.81674,0.66672 -1.23344,1.45012 -1.23344,2.36687 0,1.65013 1.60013,2.85024 4.75042,3.56696 l 0.73338,0.15002 c 1.21676,0.30003 2.65022,0.63339 4.30038,0.98343 3.30028,0.70005 6.01715,1.86682 8.11735,3.51695 3.50028,2.75025 5.23377,6.51723 5.23377,11.31764 0,6.93393 -3.01693,12.1177 -9.03409,15.58466 -4.25037,2.43355 -9.36747,3.66699 -15.40132,3.66699 -6.80058,0 -13.71784,-2.00018 -20.70177,-5.98385 l 6.56723,-12.76776 c 5.41713,3.53363 10.26754,5.28379 14.60125,5.28379 1.73348,0 3.20027,-0.43337 4.35037,-1.33345 0.93343,-0.71674 1.38346,-1.58347 1.38346,-2.61689 0,-1.01675 -0.50003,-1.95017 -1.53347,-2.8169 -0.70007,-0.56672 -2.76691,-1.2001 -6.23387,-1.91684 -4.98376,-1.10009 -8.60074,-2.51688 -10.88426,-4.26703 -2.86691,-2.23353 -4.30037,-5.5338 -4.30037,-9.88418 0,-6.98393 2.86692,-12.1177 8.61741,-15.38464 3.88366,-2.20019 8.63406,-3.31696 14.2012,-3.31696 2.60022,0 5.5338,0.28337 8.80075,0.85008 2.15018,0.33336 4.8671,1.16677 8.08401,2.51688"
     id="path7811"
     style="fill:#ffffff" />
  <path
     d="m 49.328386,16.28928 c 0.09862,-0.542434 0.164372,-0.871177 0.164372,-0.986236 0,-0.31231 -0.164372,-0.59174 -0.493117,-0.805425 -3.764131,-2.465592 -8.36656,-3.698385 -13.790852,-3.698385 -6.805021,0 -12.426561,2.136843 -16.864618,6.410529 -4.438057,4.273686 -6.657086,9.681539 -6.657086,16.24 0,6.344783 2.038219,11.473199 6.09822,15.401702 4.076437,3.928503 9.418543,5.884535 16.00988,5.884535 3.64907,0 6.525588,-0.624613 8.629556,-1.890279 0.394494,-0.213684 0.65749,-0.739679 0.772551,-1.577976 0,0 1.117733,-7.873446 1.150607,-8.185749 0.09862,-0.62462 -0.246559,-0.525994 -1.873846,-0.01641 -3.10664,0.90405 -5.654414,1.364291 -7.643321,1.364291 -3.205264,0 -5.818786,-1.068421 -7.873442,-3.205264 -2.071094,-2.136843 -3.10664,-4.848987 -3.10664,-8.152877 0,-3.550447 1.183482,-6.443402 3.534008,-8.695303 2.350527,-2.235469 5.407855,-3.369636 9.171985,-3.369636 3.632632,0 6.739272,0.838297 9.352795,2.514899 0.788988,0.493121 1.282105,0.756111 1.462915,0.756111 0.246559,0 0.443806,-0.394489 0.591741,-1.19992 l 1.364292,-6.788578 z"
     id="path7701"
     style="fill:#ffffff" />
  <path
     d="M 80.674225,13.084015 C 80.559159,12.508708 80.246856,12.212838 79.737302,12.212838 H 67.195681 c -0.575307,0 -0.986238,0.246557 -1.249236,0.756112 L 46.61624,52.089603 c -0.08219,0.213684 -0.115061,0.378062 -0.115061,0.476681 0,0.262997 0.147935,0.394496 0.427368,0.394496 h 10.552714 c 0.641053,0 1.084858,-0.230125 1.298543,-0.657493 l 2.712146,-5.605098 c 0.213684,-0.427369 0.575304,-0.641053 1.084858,-0.641053 h 13.264864 c 0.493114,0 0.788984,0.230118 0.854737,0.706799 l 1.413604,5.637977 c 0.08219,0.378056 0.328743,0.558868 0.772552,0.558868 h 9.385669 c 0.328743,0 0.493115,-0.164372 0.493115,-0.493115 V 52.253981 L 80.674225,13.084015 z M 74.033572,36.934464 H 66.16013 c -0.246557,0 -0.378056,-0.06572 -0.378056,-0.164372 l 0.115059,-0.328749 5.259924,-11.949881 c 0.115059,-0.213684 0.197245,-0.345183 0.27943,-0.378056 0.09863,0.06579 0.197251,0.246557 0.262997,0.542427 l 2.777896,11.571825 c 0.06572,0.279437 0.115059,0.443809 0.115059,0.476682 0,0.147938 -0.197245,0.230124 -0.558867,0.230124"
     id="path7703"
     style="fill:#ffffff" />
  <path
     d="m 93.922645,52.401912 c 0,0.361623 0.312309,0.558868 0.920483,0.558868 h 9.073362 c 0.50956,0 0.78899,-0.262997 0.87117,-0.772552 l 3.25458,-23.242269 c 0.0658,-0.476681 0.1315,-0.706805 0.16437,-0.706805 0.11507,0.06579 0.24656,0.246564 0.42737,0.542434 l 13.31417,23.40664 c 0.29587,0.509555 0.72324,0.772552 1.29855,0.772552 h 9.28704 c 0.62462,0 0.9698,-0.230125 1.03555,-0.657493 l 5.44073,-39.498709 c 0,-0.394489 -0.24656,-0.59174 -0.7068,-0.59174 h -9.61579 c -0.65749,0 -1.01911,0.279437 -1.08486,0.821864 l -2.94227,21.072553 c -0.0657,0.542428 -0.16437,0.805425 -0.26299,0.805425 -0.11507,0 -0.27944,-0.197245 -0.49312,-0.59174 L 111.74062,12.96895 c -0.29587,-0.509555 -0.72324,-0.756112 -1.29854,-0.756112 h -10.32259 c -0.509555,0 -0.805425,0.246557 -0.871178,0.706806 l -5.325667,39.482268 z"
     id="path7705"
     style="fill:#ffffff" />
  <path
     d="m 180.02096,52.089603 -8.21863,-39.054901 c -0.0986,-0.542427 -0.42736,-0.821864 -0.9698,-0.821864 h -11.94988 c -0.5753,0 -0.96979,0.246557 -1.19992,0.706806 l -19.21514,39.268584 c -0.11506,0.213684 -0.16437,0.378056 -0.16437,0.493121 0,0.180805 0.1315,0.279431 0.42737,0.279431 h 10.43765 c 0.54243,0 0.92048,-0.213685 1.13417,-0.60818 l 2.92583,-5.703724 c 0.21368,-0.394495 0.60818,-0.59174 1.15061,-0.59174 h 12.54162 c 0.65749,0 1.03555,0.27943 1.15061,0.87117 l 1.0191,5.259922 c 0.11506,0.509555 0.46025,0.772552 1.03555,0.772552 h 9.28705 c 0.44381,0 0.65749,-0.115059 0.65749,-0.328743 0,-0.262998 -0.0164,-0.443809 -0.0493,-0.542434 M 165.95068,36.539968 c 0,0.246558 -0.21368,0.378056 -0.60818,0.378056 h -7.33101 c -0.46024,0 -0.70681,-0.115059 -0.70681,-0.328743 0,-0.115065 0.0493,-0.279437 0.11507,-0.493121 l 5.32566,-11.999187 c 0.14794,-0.29587 0.24656,-0.460248 0.31231,-0.493121 0.0822,0.06579 0.14794,0.230124 0.23012,0.493121 l 2.59709,11.884128 c 0,0.04931 0.0164,0.131499 0.0658,0.27943 v 0.279437 z"
     id="path7707"
     style="fill:#ffffff" />
  <path
     d="m 190.93529,12.212838 c -0.41093,0 -0.64105,0.29587 -0.7068,0.871177 l -5.65442,39.432956 c 0,0.29587 0.16437,0.443809 0.49312,0.443809 h 22.8149 c 0.47669,0 0.73968,-0.230125 0.80543,-0.657493 l 1.08485,-7.988498 c 0,-0.361623 -0.1808,-0.542434 -0.54242,-0.542434 h -10.91434 c -0.42736,0 -0.65749,-0.197245 -0.65749,-0.59174 v -0.115059 l 4.07644,-30.359597 c 0,-0.328749 -0.18081,-0.493121 -0.54242,-0.493121 h -10.25685 z"
     id="path7709"
     style="fill:#ffffff" />
  <path
     d="m 238.291,37.575517 c 0,-0.460248 0.24656,-0.706806 0.7068,-0.706806 h 13.47855 c 0.39449,0 0.59174,-0.213684 0.59174,-0.641053 V 25.148955 c 0,-0.476682 -0.19725,-0.706799 -0.59174,-0.706799 h -13.64292 c -0.36161,0 -0.54243,-0.262997 -0.54243,-0.772552 V 11.127983 c 0,-0.361622 -0.23012,-0.542434 -0.70679,-0.542434 h -11.07872 c -0.36161,0 -0.54242,0.180812 -0.54242,0.542434 v 12.541621 c 0,0.509555 -0.21369,0.772552 -0.64106,0.772552 h -14.5634 c -0.39449,0 -0.59174,0.197244 -0.59174,0.59174 v 11.128017 c 0,0.476681 0.21368,0.706798 0.64105,0.706798 h 14.44835 c 0.47667,0 0.7068,0.279437 0.7068,0.821865 v 14.612711 c 0,0.427368 0.19724,0.657493 0.60818,0.657493 h 11.12801 c 0.3945,0 0.59174,-0.262997 0.59174,-0.772552 V 37.575517 z"
     id="path7711"
     style="fill:#ffffff" />
  <rect
     width="267.30072"
     height="66.455635"
     x="2.5e-07"
     y="1.3180085e-08"
     id="rect8117" />
  <path
     d="m 49.321055,16.272194 c 0.113906,-0.55326 0.162721,-0.878696 0.162721,-0.976332 0,-0.341718 -0.162721,-0.602075 -0.488163,-0.829887 -3.758877,-2.457096 -8.36391,-3.693785 -13.798817,-3.693785 -6.801778,0 -12.415688,2.14793 -16.857994,6.427515 -4.442312,4.263321 -6.655329,9.665683 -6.655329,16.22338 0,6.346155 2.034027,11.471896 6.102075,15.409763 4.084318,3.921603 9.421596,5.890537 16.011838,5.890537 3.644964,0 6.525145,-0.634614 8.62426,-1.903849 0.406803,-0.211536 0.650884,-0.732244 0.76479,-1.578401 0,0 1.122783,-7.85947 1.171605,-8.184912 0.08136,-0.618339 -0.260364,-0.520715 -1.87131,-0.01626 -3.124262,0.911241 -5.678989,1.366865 -7.664198,1.366865 -3.189353,0 -5.809177,-1.073968 -7.875747,-3.205623 -2.066569,-2.14793 -3.091716,-4.865384 -3.091716,-8.152367 0,-3.547334 1.171598,-6.443791 3.531064,-8.689351 2.343203,-2.245561 5.402368,-3.368344 9.177521,-3.368344 3.612425,0 6.736687,0.829881 9.340241,2.505918 0.797335,0.504438 1.285498,0.764795 1.464495,0.764795 0.260351,0 0.455623,-0.406808 0.602075,-1.204143 l 1.350589,-6.785503 z"
     id="path8119"
     style="fill:#ffffff" />
  <path
     d="m 80.661295,13.082841 c -0.09763,-0.585799 -0.406808,-0.878696 -0.927517,-0.878696 H 67.18792 c -0.569523,0 -0.992601,0.260357 -1.236683,0.764796 L 46.603595,52.087292 c -0.06505,0.211536 -0.09762,0.374257 -0.09762,0.471887 0,0.260357 0.146445,0.390533 0.423072,0.390533 h 10.544379 c 0.65089,0 1.090238,-0.211536 1.301774,-0.650884 l 2.71746,-5.597635 c 0.211542,-0.439348 0.585799,-0.650884 1.090238,-0.650884 h 13.245563 c 0.504438,0 0.797341,0.227812 0.878695,0.699699 l 1.399417,5.646456 c 0.08135,0.374257 0.341711,0.553248 0.764783,0.553248 h 9.405332 c 0.325442,0 0.488163,-0.162721 0.488163,-0.488163 V 52.250013 L 80.661295,13.082841 z M 74.03852,36.921604 h -7.875747 c -0.260351,0 -0.374263,-0.04885 -0.374263,-0.162721 l 0.09764,-0.325442 5.272193,-11.960065 c 0.1139,-0.19526 0.195266,-0.341711 0.276627,-0.374257 0.1139,0.08136 0.19526,0.260351 0.276627,0.553248 l 2.766275,11.569538 c 0.06505,0.276621 0.09763,0.439348 0.09763,0.488163 0,0.146445 -0.178991,0.211536 -0.536978,0.211536"
     id="path8121"
     style="fill:#ffffff" />
  <path
     d="m 93.923134,52.396464 c 0,0.374257 0.309172,0.553248 0.927517,0.553248 h 9.063609 c 0.50444,0 0.79733,-0.260351 0.8787,-0.76479 l 3.25444,-23.236694 c 0.065,-0.488163 0.13017,-0.715975 0.16272,-0.715975 0.0976,0.08137 0.24408,0.244087 0.42308,0.536984 l 13.31065,23.415685 c 0.2929,0.504439 0.73225,0.76479 1.30178,0.76479 h 9.29142 c 0.61834,0 0.96005,-0.211536 1.04141,-0.650884 l 5.41865,-39.492614 c 0,-0.390533 -0.22782,-0.602069 -0.69971,-0.602069 h -9.61686 c -0.65089,0 -1.00888,0.276627 -1.09024,0.813611 l -2.92899,21.072489 c -0.0651,0.553253 -0.16273,0.813611 -0.27663,0.813611 -0.0976,0 -0.26036,-0.178997 -0.48817,-0.5858 L 111.74118,12.968941 c -0.29289,-0.504439 -0.73225,-0.764796 -1.31804,-0.764796 h -10.31657 c -0.504441,0 -0.797344,0.244088 -0.862428,0.715975 l -5.321008,39.476344 z"
     id="path8123"
     style="fill:#ffffff" />
  <path
     d="m 180.0193,52.087292 -8.20118,-39.069536 c -0.1139,-0.536984 -0.43935,-0.813611 -0.97633,-0.813611 h -11.96007 c -0.56952,0 -0.97633,0.244088 -1.18786,0.715975 l -19.23374,39.264802 c -0.1139,0.211542 -0.16272,0.374257 -0.16272,0.488169 0,0.178984 0.14645,0.292896 0.43935,0.292896 h 10.43048 c 0.53698,0 0.91124,-0.195266 1.13905,-0.602074 l 2.929,-5.695265 c 0.21153,-0.406803 0.60207,-0.602075 1.13904,-0.602075 h 12.54587 c 0.65089,0 1.02515,0.292903 1.13905,0.862432 l 1.04142,5.272187 c 0.0976,0.504438 0.45563,0.764795 1.02515,0.764795 h 9.29142 c 0.43935,0 0.65088,-0.113912 0.65088,-0.341711 0,-0.260363 -0.0163,-0.439354 -0.0488,-0.536984 M 165.94383,36.547341 c 0,0.244088 -0.19527,0.374263 -0.60207,0.374263 h -7.32249 c -0.47189,0 -0.71597,-0.1139 -0.71597,-0.325442 0,-0.113906 0.0488,-0.276633 0.1139,-0.488169 l 5.32101,-12.008874 c 0.14644,-0.292902 0.26036,-0.455623 0.32544,-0.488163 0.0814,0.06512 0.14645,0.244076 0.21154,0.488163 l 2.61982,11.894974 c 0,0.04885 0.0163,0.130176 0.0488,0.276627 v 0.276621 z"
     id="path8125"
     style="fill:#ffffff" />
  <path
     d="m 190.93794,12.204145 c -0.4068,0 -0.63461,0.292897 -0.71597,0.878696 l -5.64646,39.427523 c 0,0.292903 0.16273,0.439348 0.48818,0.439348 h 22.81361 c 0.47189,0 0.74852,-0.211536 0.81361,-0.650884 l 1.09024,-7.989646 c 0,-0.357988 -0.179,-0.536985 -0.53699,-0.536985 h -10.91864 c -0.43935,0 -0.65089,-0.211542 -0.65089,-0.602068 v -0.113906 l 4.06805,-30.363915 c 0,-0.325442 -0.179,-0.488163 -0.55326,-0.488163 h -10.25148 z"
     id="path8127"
     style="fill:#ffffff" />
  <path
     d="m 238.29003,37.572488 c 0,-0.471887 0.24408,-0.699699 0.71597,-0.699699 h 13.47338 c 0.39053,0 0.58579,-0.227812 0.58579,-0.650884 V 25.140542 c 0,-0.471899 -0.19526,-0.699711 -0.58579,-0.699711 h -13.63611 c -0.35798,0 -0.55324,-0.260351 -0.55324,-0.78106 V 11.113907 c 0,-0.357987 -0.22782,-0.536984 -0.69971,-0.536984 h -11.08137 c -0.35799,0 -0.53698,0.178997 -0.53698,0.536984 v 12.545864 c 0,0.520709 -0.22781,0.78106 -0.65088,0.78106 h -14.56361 c -0.39054,0 -0.60208,0.178997 -0.60208,0.585799 v 11.146454 c 0,0.455618 0.22781,0.699705 0.65089,0.699705 h 14.4497 c 0.4719,0 0.71598,0.260351 0.71598,0.813611 v 14.612428 c 0,0.439348 0.19527,0.650884 0.5858,0.650884 h 11.14646 c 0.39052,0 0.5858,-0.260351 0.5858,-0.76479 V 37.572488 z"
     id="path8129"
     style="fill:#ffffff" />
  <path
     d="m 519.27501,102.59301 c 5.26259,-6.884811 13.90159,-10.641583 22.47074,-10.711438 7.73087,-0.326002 15.78774,1.738669 21.65575,6.970202 9.19011,7.482486 11.54199,21.477226 6.48899,31.963586 -5.00645,8.98054 -13.00123,15.66354 -19.52125,23.47203 7.60668,-0.0466 15.20561,0.008 22.81228,-0.0155 0.23284,5.48768 0.008,10.99088 0.13194,16.48633 -1.44369,0.20957 -2.89519,0.38033 -4.3544,0.37256 -15.53162,-0.0466 -31.07097,-0.008 -46.60259,-0.0233 -3.38417,-0.0311 -6.78389,0.16298 -10.16035,-0.24064 9.15909,-10.71921 19.97144,-19.97142 28.64149,-31.1253 4.28456,-5.37901 8.91069,-10.88997 10.53293,-17.75151 1.69209,-4.86671 -0.652,-11.2082 -5.7671,-12.88478 -4.16814,-1.75419 -9.44628,0.88487 -10.63384,5.22377 -0.59765,2.21992 -0.82275,4.51744 -1.21085,6.77616 -6.83826,-0.1242 -13.68428,0.15524 -20.52252,-0.15524 0.40361,-6.49672 1.78525,-13.21855 6.03878,-18.35694 z"
     id="path3055"
     style="fill:#ffffff" />
</svg>
