<?xml version="1.0" encoding="UTF-8" standalone="no"?>
<svg xmlns:rdf="http://www.w3.org/1999/02/22-rdf-syntax-ns#" xmlns="http://www.w3.org/2000/svg" height="149.98" width="600" version="1.1" xmlns:cc="http://creativecommons.org/ns#" xmlns:dc="http://purl.org/dc/elements/1.1/" viewBox="0 0 158.74999 39.682971">
 <defs>
  <clipPath id="a" clipPathUnits="userSpaceOnUse">
   <path d="m666.14 0h666.16v907.09h-666.16v-907.09z"/>
  </clipPath>
 </defs>
 <g transform="translate(320.86 -48.02)">
  <path d="m-162.11 48.02h-158.75v39.683h158.75v-39.683z"/>
  <g transform="matrix(3.023 0 0 -3.023 -2473.9 874.49)">
   <g clip-path="url(#a)">
    <g transform="translate(720.53 263.34)">
     <path d="m0 0c-0.01-0.09-0.055-0.155-0.055-0.155s-0.043-0.045-0.124-0.065c-1.06-0.434-2.241-0.289-2.241-0.289-1.916 0.209-3.134 1.382-3.524 2.898-0.575 2.266 0.567 3.883 0.843 4.225 0.675 0.805 1.728 1.381 2.756 1.516 1.316 0.189 2.29-0.121 2.689-0.255 0 0 0.444-0.144 0.777-0.366 0.165-0.112 0.185-0.155 0.185-0.155s0.012-0.021-0.031-0.198l-0.312-1.626c-0.011-0.067-0.055-0.101-0.055-0.101s-0.023-0.009-0.175 0.091c-0.997 0.707-2.16 0.618-2.16 0.618-0.885-0.057-1.913-0.52-2.225-1.693-0.275-1.04 0.014-1.913 0.63-2.435 0.423-0.362 1.076-0.552 1.761-0.518 0.755 0.055 1.35 0.355 1.307 0.334 0 0 0.032 0.008 0.068 0.021 0.154 0.077 0.187 0.067 0.187 0.067s0.032-0.034 0.012-0.136l-0.313-1.778zm5.666 5.52s-0.013 0-0.023-0.022l-1.102-2.512c-0.023-0.035-0.015-0.056-0.015-0.056s0.015-0.011 0.067-0.011l1.626-0.013c0.012 0 0.021 0.013 0.021 0.013s0.012 0.011 0 0.042l-0.565 2.537c0 0.022-0.009 0.022-0.009 0.022m18.367 0.031s-0.008 0-0.019-0.042l-1.107-2.504c-0.023-0.075-0.013-0.086-0.013-0.086s0.034-0.022 0.058-0.022l1.638 0.009h0.021s0.01 0.013 0 0.045l-0.555 2.569c-0.009 0.031-0.023 0.031-0.023 0.031m-15.003-5.829-1.969-0.008c-0.045 0-0.079 0.018-0.079 0.018s-0.013 0.011-0.022 0.09l-0.309 1.272c0 0.033-0.022 0.045-0.022 0.045h-0.033-2.774c-0.058 0-0.089-0.045-0.089-0.045s-0.046-0.034-0.079-0.111l-0.553-1.183c-0.022-0.042-0.034-0.057-0.034-0.057s-0.034-0.021-0.065-0.021h-2.294c-0.063-0.008-0.074 0.021-0.074 0.021s-0.012 0.037 0.011 0.079l3.97 7.987c0.023 0.044 0.055 0.054 0.055 0.054h0.077 2.536c0.04 0 0.075-0.033 0.075-0.033s0.013-0.01 0.022-0.044l1.705-8.006c0-0.037-0.022-0.048-0.022-0.048s-0.01-0.01-0.033-0.01m8.852-0.022h-2.026-0.065s-0.012 0.014-0.022 0.022l-2.81 4.989c-0.023 0.023-0.033 0.023-0.033 0.023s-0.022 0-0.022-0.033l-0.696-4.901c-0.013-0.057-0.024-0.068-0.024-0.068s-0.024-0.01-0.056-0.01h-2.016c-0.032 0-0.051 0.021-0.051 0.021s-0.046 0.045-0.037 0.09l1.109 7.932c0.01 0.044 0.032 0.055 0.032 0.055s0.032 0.033 0.067 0.033h2.247c0.033 0 0.054-0.023 0.054-0.023s0.023-0.01 0.033-0.044l2.535-4.445c0.043-0.092 0.077-0.079 0.077-0.079s0.035 0 0.056 0.1l0.641 4.424c0 0.034 0.023 0.044 0.023 0.044s0.011 0.023 0.043 0.023l2.115-0.023c0.044 0 0.056-0.01 0.056-0.01s0.009-0.011 0.009-0.034l-1.137-7.998c-0.011-0.045-0.034-0.074-0.034-0.074s-0.013-0.014-0.068-0.014m9.485-0.01h-2.027c-0.042-0.024-0.078 0.024-0.078 0.024s-0.009 0.008-0.021 0.074l-0.264 1.248c-0.021 0.069-0.045 0.103-0.045 0.103s-0.056 0.032-0.122 0.032h-2.635c-0.053 0-0.087-0.032-0.087-0.032s-0.045-0.045-0.068-0.111l-0.596-1.27c-0.013-0.036-0.034-0.044-0.034-0.044s-0.043-0.014-0.069-0.014h-2.278c-0.054-0.01-0.076 0.022-0.076 0.022s-0.01 0.021 0.022 0.066l4.016 8.021c0.022 0.011 0.045 0.044 0.045 0.044s0.023 0.01 0.088 0.01h2.49c0.056 0 0.09-0.033 0.09-0.033s0.011-0.01 0.021-0.044l1.67-8.054c0-0.018-0.01-0.032-0.01-0.032s0-0.01-0.032-0.01m5.81 0.119c-0.013-0.066-0.023-0.087-0.023-0.087s-0.012-0.022-0.067-0.022h-4.558c-0.134 0-0.167 0.032-0.167 0.032s-0.023 0.048-0.01 0.146l1.129 7.853c0.008 0.099 0.033 0.132 0.033 0.132h0.119 2.071c0.057 0 0.079-0.01 0.079-0.01s0.009-0.033 0-0.077l-0.853-6.141c-0.012-0.066 0.022-0.075 0.022-0.075s0.024-0.013 0.11-0.013h2.257c0.044 0 0.067-0.021 0.067-0.021s0.013-0.012 0.013-0.068l-0.222-1.649zm8.775 3.11s-0.009-0.022-0.044-0.022h-2.834c-0.045 0-0.067-0.022-0.067-0.022s-0.029-0.011-0.029-0.066v-3.021c0-0.045-0.023-0.056-0.023-0.056s-0.014-0.018-0.049-0.018h-2.244c-0.035 0-0.056 0.018-0.056 0.018s-0.009 0.011-0.009 0.068v3.018c0 0.035-0.033 0.057-0.033 0.057s-0.014 0.022-0.044 0.022h-2.901c-0.055 0-0.067 0.009-0.067 0.009s-0.022 0.024-0.022 0.092v2.211c0 0.024 0.022 0.056 0.022 0.056s0.012 0.009 0.034 0.009h2.964c0.025 0 0.025 0.012 0.025 0.012s0.022 0.013 0.022 0.033v2.645c0 0.031 0.009 0.055 0.009 0.055s0.021 0.011 0.089 0.011h2.203c0.043 0 0.057-0.011 0.057-0.011s0.023-0.024 0.023-0.067v-2.653h2.875c0.076 0 0.099-0.013 0.099-0.013s0.035-0.012 0.035-0.077v-2.235c0-0.023-0.035-0.055-0.035-0.055" fill="#fff"/>
    </g>
   </g>
  </g>
 </g>
</svg>
