<?xml version="1.0" encoding="UTF-8" standalone="no"?>
<!-- Created with Inkscape (http://www.inkscape.org/) -->

<svg
   xmlns:dc="http://purl.org/dc/elements/1.1/"
   xmlns:cc="http://creativecommons.org/ns#"
   xmlns:rdf="http://www.w3.org/1999/02/22-rdf-syntax-ns#"
   xmlns:svg="http://www.w3.org/2000/svg"
   xmlns="http://www.w3.org/2000/svg"
   version="1.1"
   width="600"
   height="327.25583"
   id="svg2">
  <metadata
     id="metadata22">
    <rdf:RDF>
      <cc:Work
         rdf:about="">
        <dc:format>image/svg+xml</dc:format>
        <dc:type
           rdf:resource="http://purl.org/dc/dcmitype/StillImage" />
        <dc:title></dc:title>
      </cc:Work>
    </rdf:RDF>
  </metadata>
  <defs
     id="defs20" />
  <g
     transform="matrix(1.0909091,0,0,1.0909091,-1.0928017e-4,-0.01687956)"
     id="g7508">
    <rect
       width="550"
       height="199.99779"
       x="0.00010017349"
       y="100.00219"
       id="rect7753"
       style="fill:#3d961f;fill-opacity:1" />
    <rect
       width="400.01996"
       height="100.01109"
       x="0.00010017349"
       y="0.015472934"
       id="rect7755" />
    <path
       d="m 74.221084,24.535878 c 0.170959,-0.830373 0.26865,-1.318828 0.26865,-1.465364 0,-0.512878 -0.26865,-0.903641 -0.732682,-1.24556 -5.666074,-3.687833 -12.602131,-5.568383 -20.783747,-5.568383 -10.257549,0 -18.707815,3.248224 -25.375222,9.671403 -6.642984,6.423179 -9.988899,14.55595 -9.988899,24.422735 0,9.549289 3.052842,17.266874 9.182949,23.177175 6.130106,5.934725 14.165186,8.865453 24.056394,8.865453 5.519538,0 9.842362,-0.952486 12.992895,-2.85746 0.610568,-0.317495 0.976909,-1.099023 1.147868,-2.369005 0,0 1.685169,-11.845027 1.758437,-12.309059 0.122114,-0.928063 -0.390764,-0.80595 -2.808614,-0.02442 -4.664743,1.367673 -8.547958,2.027087 -11.527531,2.027087 -4.811279,0 -8.743339,-1.587478 -11.86945,-4.811279 -3.101687,-3.223801 -4.615896,-7.302398 -4.615896,-12.260213 0,-5.348579 1.734014,-9.695826 5.299733,-13.066163 3.541297,-3.39476 8.157194,-5.079929 13.798845,-5.079929 5.470693,0 10.135435,1.269982 14.043073,3.761101 1.196714,0.757105 1.953819,1.147869 2.222469,1.147869 0.390764,0 0.683836,-0.610569 0.879218,-1.807283 l 2.05151,-10.208703 z"
       id="path7757"
       style="fill:#ffffff" />
    <path
       d="m 121.38139,19.724599 c -0.14654,-0.879218 -0.61057,-1.318827 -1.41652,-1.318827 h -18.85435 c -0.8548,0 -1.514214,0.366341 -1.880555,1.147868 L 70.142487,78.412431 c -0.122113,0.317496 -0.170959,0.561723 -0.170959,0.732682 0,0.366341 0.219805,0.537301 0.659414,0.537301 h 15.825932 c 1.001332,0 1.636323,-0.317496 1.978242,-0.97691 l 4.078597,-8.425843 c 0.341918,-0.659414 0.879218,-0.97691 1.636323,-0.97691 h 19.904524 c 0.78153,0 1.24556,0.341919 1.34326,1.050178 l 2.12477,8.499112 c 0.0977,0.561723 0.48846,0.830373 1.14787,0.830373 h 14.14077 c 0.48845,0 0.73268,-0.244228 0.73268,-0.732682 V 78.632236 L 121.38139,19.724599 z m -9.96448,35.876998 H 99.571883 c -0.390764,0 -0.561723,-0.09769 -0.561723,-0.244227 l 0.170959,-0.512878 7.937391,-17.975133 c 0.14653,-0.317495 0.29307,-0.512877 0.39076,-0.561723 0.17096,0.09769 0.3175,0.366341 0.41519,0.805951 l 4.20071,17.41341 c 0.0977,0.439609 0.14654,0.683836 0.14654,0.732682 -0.0489,0.219804 -0.3175,0.341918 -0.8548,0.341918"
       id="path7759"
       style="fill:#ffffff" />
    <path
       d="m 141.33476,78.876463 c 0,0.561723 0.48845,0.830373 1.41652,0.830373 h 13.65231 c 0.7571,0 1.19671,-0.390763 1.31882,-1.147868 l 4.88455,-34.973357 c 0.12212,-0.708259 0.19538,-1.050177 0.24423,-1.050177 0.19538,0.122113 0.41519,0.390763 0.65941,0.830373 l 20.02665,35.217584 c 0.43961,0.757104 1.0746,1.147868 1.95381,1.147868 h 13.96981 c 0.90364,0 1.46536,-0.317495 1.53863,-0.976909 l 8.18162,-59.420515 c 0,-0.610568 -0.36634,-0.903641 -1.0746,-0.903641 h -14.45826 c -0.97691,0 -1.53863,0.390764 -1.63633,1.221137 l -4.42051,31.70071 c -0.0977,0.830373 -0.26865,1.24556 -0.41519,1.24556 -0.17096,0 -0.41518,-0.293073 -0.73268,-0.903642 L 168.15092,19.578063 c -0.46403,-0.781528 -1.09902,-1.147869 -1.97824,-1.147869 H 150.6154 c -0.73268,0 -1.19671,0.366341 -1.29441,1.050178 l -7.98623,59.396091 z"
       id="path7761"
       style="fill:#ffffff" />
    <path
       d="M 270.89737,78.412431 258.51504,19.626908 c -0.14653,-0.830373 -0.61057,-1.221136 -1.46536,-1.221136 h -17.97513 c -0.87922,0 -1.46537,0.366341 -1.78286,1.050177 l -28.96537,59.103019 c -0.14653,0.317495 -0.24423,0.586145 -0.24423,0.732682 0,0.293073 0.21981,0.415186 0.65942,0.415186 h 15.70382 c 0.80595,0 1.39209,-0.293072 1.70959,-0.903641 l 4.42051,-8.57238 c 0.3175,-0.610568 0.87922,-0.903641 1.70959,-0.903641 h 18.85436 c 0.97691,0 1.56305,0.439609 1.73401,1.294405 l 1.53863,7.937389 c 0.19538,0.757105 0.68384,1.147868 1.56306,1.147868 h 13.9698 c 0.63499,0 0.97691,-0.170959 0.97691,-0.488454 0.0489,-0.390764 0.0244,-0.659414 -0.0244,-0.805951 m -21.17451,-23.39698 c 0,0.390764 -0.3175,0.586146 -0.90364,0.586146 h -11.03908 c -0.70826,0 -1.05018,-0.170959 -1.05018,-0.488455 0,-0.170959 0.0488,-0.415186 0.14654,-0.732682 l 8.01066,-18.072824 c 0.2198,-0.439609 0.39076,-0.683836 0.51287,-0.757105 0.0977,0.122114 0.21981,0.366342 0.3175,0.757105 l 3.93206,17.901865 c 0,0.04885 0.0244,0.195382 0.0733,0.390764 v 0.415186 z"
       id="path7763"
       style="fill:#ffffff" />
    <path
       d="m 287.30945,18.405772 c -0.58615,0 -0.95249,0.439609 -1.05018,1.318827 l -8.52354,59.322824 c 0,0.439609 0.26865,0.659413 0.73269,0.659413 h 34.33836 c 0.68384,0 1.09903,-0.317495 1.22114,-0.976909 l 1.63632,-12.015986 c 0,-0.5373 -0.29307,-0.830373 -0.83037,-0.830373 h -16.41208 c -0.65941,0 -1.00133,-0.293072 -1.00133,-0.879218 v -0.170959 l 6.13011,-45.694937 c 0,-0.512878 -0.29308,-0.732682 -0.80595,-0.732682 h -15.43517 z"
       id="path7765"
       style="fill:#ffffff" />
    <path
       d="m 358.59941,56.578506 c 0,-0.708259 0.34192,-1.0746 1.05018,-1.0746 h 20.29529 c 0.56172,0 0.87922,-0.317496 0.87922,-0.976909 V 37.870691 c 0,-0.732682 -0.3175,-1.0746 -0.87922,-1.0746 h -20.53952 c -0.5373,0 -0.80595,-0.390764 -0.80595,-1.147869 V 16.769448 c 0,-0.5373 -0.39076,-0.80595 -1.0746,-0.80595 h -16.68073 c -0.5373,0 -0.80595,0.26865 -0.80595,0.80595 v 18.878774 c 0,0.757105 -0.34192,1.147869 -0.97691,1.147869 h -21.90719 c -0.61057,0 -0.90364,0.293073 -0.90364,0.903641 v 16.753996 c 0,0.70826 0.34192,1.050178 0.97691,1.050178 h 21.76065 c 0.70826,0 1.0746,0.415186 1.0746,1.245559 v 21.980462 c 0,0.659414 0.3175,0.976909 0.87922,0.976909 h 16.77842 c 0.56172,0 0.90364,-0.390763 0.90364,-1.147868 V 56.578506 z"
       id="path7767"
       style="fill:#ffffff" />
    <polygon
       points="351.358,75.423 351.358,76.453 349.896,76.453 349.896,77.233 351.227,77.233 351.227,78.263 349.896,78.263 349.896,80.103 348.68,80.103 348.68,75.423 "
       transform="matrix(24.422735,0,0,24.422735,-8480.6478,-1701.7363)"
       id="polygon7769"
       style="fill:#ffffff" />
    <path
       d="m 174.01238,146.11225 -26.15675,17.77975 -10.5262,-9.74467 22.39565,-20.97913 14.2873,12.94405 z m -33.33703,31.40764 v 43.74112 c 0,9.42717 4.64032,14.14076 13.9698,14.14076 9.23179,0 13.84769,-4.71359 13.84769,-14.14076 V 177.51989 H 195.944 v 48.86989 c 0,9.59814 -3.05285,17.04707 -9.15853,22.39565 -6.9849,6.10568 -17.77975,9.15853 -32.28686,9.15853 -15.80151,0 -27.13365,-3.63899 -33.99644,-10.91697 -4.86013,-5.17762 -7.3024,-12.0404 -7.3024,-20.63721 v -48.86989 h 27.47558 z"
       id="path7771"
       style="fill:#ffffff" />
    <polygon
       points="356.08,77.876 355.711,77.876 355.711,76.947 356.08,76.947 356.08,75.996 357.204,75.996 357.204,76.947 357.844,76.947 357.844,77.876 357.204,77.876 357.204,80.103 356.08,80.103 "
       transform="matrix(24.422735,0,0,24.422735,-8480.6478,-1701.7363)"
       id="polygon7773"
       style="fill:#ffffff" />
    <path
       d="m 310.60874,198.49902 c -4.86013,0 -9.03642,1.73401 -12.52887,5.20204 -3.41918,3.41918 -5.12877,7.54663 -5.12877,12.35791 0,4.86012 1.70959,8.98756 5.12877,12.3579 3.49245,3.46803 7.69316,5.20204 12.6754,5.20204 4.90897,0 9.10968,-1.73401 12.65098,-5.20204 3.37034,-3.44361 5.05551,-7.5222 5.05551,-12.28464 0,-4.81127 -1.7096,-8.96314 -5.12878,-12.43117 -3.41918,-3.46803 -7.66874,-5.20204 -12.72424,-5.20204 M 293.7082,140.29964 v 44.7913 c 6.20338,-6.69183 14.31173,-10.03775 24.32505,-10.03775 10.67273,0 19.70914,3.71226 27.06039,11.16119 7.88854,7.88855 11.84502,17.77975 11.84502,29.67363 0,11.91829 -3.95648,21.85834 -11.84502,29.869 -7.42451,7.5222 -16.55862,11.30773 -27.35347,11.30773 -5.27531,0 -10.25754,-1.12345 -15.01998,-3.34592 -2.88188,-1.39209 -5.88588,-3.95648 -9.01199,-7.69316 v 8.57238 h -27.45115 v -114.2984 h 27.45115 z"
       id="path7775"
       style="fill:#ffffff" />
    <path
       d="m 411.47463,198.18152 c -4.76243,0 -8.88987,1.73402 -12.3579,5.22647 -3.49245,3.41918 -5.22647,7.5222 -5.22647,12.3579 0,5.00666 1.73402,9.2318 5.22647,12.72425 3.41918,3.41918 7.57105,5.12877 12.43117,5.12877 4.90897,0 9.06083,-1.73401 12.50444,-5.20204 3.46803,-3.44361 5.20204,-7.59547 5.20204,-12.52886 0,-4.88455 -1.70959,-9.06084 -5.12877,-12.48002 -3.41918,-3.49245 -7.64432,-5.22647 -12.65098,-5.22647 m 0.29307,-23.59236 c 9.86679,0 18.73224,2.24689 26.57194,6.71625 6.39876,3.66341 11.33215,8.52354 14.80018,14.58038 3.46803,6.00799 5.20204,12.72424 5.20204,20.17318 0,11.18561 -3.73668,20.58836 -11.23446,28.11056 -4.24955,4.22514 -9.4516,7.47336 -15.45959,9.7691 -6.27664,2.369 -12.99289,3.56572 -20.17318,3.56572 -14.70248,0 -26.49867,-4.46936 -35.43739,-13.38366 -7.47335,-7.44894 -11.23445,-16.60746 -11.23445,-27.47558 0,-11.50311 3.88321,-21.15009 11.62522,-28.94094 8.62122,-8.74334 20.4174,-13.11501 35.33969,-13.11501"
       id="path7777"
       style="fill:#ffffff" />
    <rect
       width="27.451153"
       height="114.29839"
       x="470.08929"
       y="140.29956"
       id="rect7779"
       style="fill:#ffffff" />
  </g>
</svg>
