<?xml version="1.0" encoding="UTF-8" standalone="no"?>
<!-- Created with Inkscape (http://www.inkscape.org/) -->

<svg
   xmlns:dc="http://purl.org/dc/elements/1.1/"
   xmlns:cc="http://creativecommons.org/ns#"
   xmlns:rdf="http://www.w3.org/1999/02/22-rdf-syntax-ns#"
   xmlns:svg="http://www.w3.org/2000/svg"
   xmlns="http://www.w3.org/2000/svg"
   version="1.1"
   width="600"
   height="232.26732"
   id="svg2">
  <metadata
     id="metadata24">
    <rdf:RDF>
      <cc:Work
         rdf:about="">
        <dc:format>image/svg+xml</dc:format>
        <dc:type
           rdf:resource="http://purl.org/dc/dcmitype/StillImage" />
        <dc:title></dc:title>
      </cc:Work>
    </rdf:RDF>
  </metadata>
  <defs
     id="defs22" />
  <g
     transform="matrix(0.77419352,0,0,0.77419352,0,0.00928139)"
     id="g9657">
    <rect
       width="775"
       height="200.00809"
       x="2.8368622e-05"
       y="99.99189"
       id="rect7781"
       style="fill:#3d961f;fill-opacity:1" />
    <path
       d="m 64.763002,229.44281 h 6.697035 c 9.932682,0 17.833678,-2.95974 23.753155,-8.85413 5.794068,-5.81915 8.703638,-13.51949 8.703638,-23.15118 0,-9.60661 -2.88449,-17.33203 -8.703638,-23.12609 -5.919477,-5.91948 -13.820473,-8.85413 -23.753155,-8.85413 h -6.697035 v 63.98553 z M 35.09037,254.5755 V 140.27442 h 43.643601 c 9.481196,0 18.485823,2.48317 27.013879,7.44951 9.07988,5.24225 16.25348,12.46602 21.57098,21.64622 5.11684,8.82905 7.67525,18.20992 7.67525,28.1426 0,9.85743 -2.53333,19.21322 -7.6,28.04227 -5.29242,9.15512 -12.4911,16.37889 -21.57098,21.64622 -8.477893,4.91617 -17.482521,7.37426 -27.089129,7.37426 H 35.09037 z"
       id="path7797"
       style="fill:#ffffff" />
    <path
       d="m 202.06477,205.188 c -2.53334,-8.22707 -7.85084,-12.36568 -16.07791,-12.36568 -8.37756,0 -13.54456,4.13861 -15.47592,12.36568 h 31.55383 z m 25.45876,15.85216 h -57.76506 c 0.30099,6.49638 1.95644,11.08648 4.96634,13.77031 2.78416,2.40792 6.72212,3.63697 11.76371,3.63697 3.8627,0 6.92277,-0.82773 9.15512,-2.45809 1.32937,-1.0033 2.75908,-2.60858 4.23895,-4.84093 h 26.58748 c -1.78086,5.61849 -3.76238,9.7571 -5.94456,12.44093 -7.7505,9.38087 -19.16306,14.0713 -34.23766,14.0713 -13.94588,0 -24.95711,-4.03828 -33.0086,-12.06469 -7.52476,-7.34918 -11.23698,-17.05612 -11.23698,-29.09574 0,-13.09308 4.1637,-23.37691 12.4911,-30.80134 7.7505,-6.8977 17.95909,-10.35909 30.67594,-10.35909 13.87063,0 24.60596,4.21387 32.13072,12.59143 6.79736,7.52476 10.20859,17.60794 10.20859,30.19937 v 2.90957 z"
       id="path7799"
       style="fill:#ffffff" />
    <path
       d="m 283.23183,198.49097 c -4.86601,0 -9.02971,1.73069 -12.51618,5.21716 -3.36106,3.41123 -5.04159,7.49968 -5.04159,12.26536 0,4.81585 1.70561,8.92938 5.11684,12.3406 3.53663,3.53664 7.7505,5.29242 12.66667,5.29242 4.91618,0 9.13004,-1.7307 12.6416,-5.19209 3.41122,-3.4363 5.06667,-7.52475 5.06667,-12.29043 0,-4.81585 -1.70561,-8.95447 -5.14192,-12.41586 -3.41122,-3.51155 -7.67525,-5.21716 -12.79209,-5.21716 m -16.83038,90.07136 H 238.96117 V 177.49689 h 27.44028 v 8.55314 c 1.05347,-1.22904 2.03169,-2.33267 2.90958,-3.33597 5.66865,-5.11684 12.71684,-7.67526 21.21982,-7.67526 10.71024,0 19.81519,3.76238 27.31487,11.33731 7.87591,7.92607 11.81387,17.85876 11.81387,29.82312 0,11.9142 -3.91287,21.79672 -11.81387,29.69772 -7.39935,7.44951 -16.40397,11.16172 -27.03897,11.16172 -5.04159,0 -9.85743,-0.92805 -14.42245,-2.75908 -3.11023,-1.22904 -6.44621,-3.68713 -9.95776,-7.29901 v 41.56175 z"
       id="path7801"
       style="fill:#ffffff" />
    <path
       d="m 384.18901,198.18998 c -4.79076,0 -8.9043,1.73069 -12.36569,5.21716 -3.48647,3.41123 -5.21716,7.52476 -5.21716,12.34061 0,5.0165 1.73069,9.25545 5.21716,12.71684 3.43631,3.43631 7.57493,5.14192 12.41585,5.14192 4.8911,0 9.0548,-1.7307 12.51619,-5.19209 3.46138,-3.4363 5.21716,-7.6 5.21716,-12.51618 0,-4.91617 -1.73069,-9.07987 -5.14192,-12.4911 -3.4363,-3.48647 -7.65017,-5.21716 -12.64159,-5.21716 m 0.27591,-23.62775 c 9.88251,0 18.73665,2.23235 26.56239,6.69704 6.42113,3.68713 11.33731,8.55314 14.82378,14.59803 3.48647,5.99473 5.21717,12.71684 5.21717,20.16635 0,11.2119 -3.7373,20.59276 -11.2119,28.11752 -4.28911,4.21386 -9.43103,7.47459 -15.501,9.7571 -6.24555,2.38284 -12.99275,3.58681 -20.14127,3.58681 -14.69836,0 -26.53731,-4.48978 -35.44161,-13.39408 -7.52476,-7.44951 -11.23698,-16.60463 -11.23698,-27.46536 0,-11.51289 3.8878,-21.16966 11.61322,-28.94524 8.6033,-8.70364 20.39209,-13.11817 35.3162,-13.11817"
       id="path7803"
       style="fill:#ffffff" />
    <path
       d="m 442.80688,177.49689 h 27.44029 v 12.66668 c 4.11353,-6.94786 10.334,-11.28714 18.61123,-13.04292 4.11354,-0.72739 8.20199,-0.8528 12.26536,-0.35115 v 25.88517 c -4.06337,-1.83103 -7.85083,-2.75908 -11.36239,-2.75908 -5.96964,0 -10.71024,1.73069 -14.14654,5.21716 -1.98152,1.93136 -3.38614,4.13862 -4.1637,6.62179 -0.80264,2.43301 -1.20396,5.69374 -1.20396,9.83235 v 33.03369 h -27.44029 v -77.10369 z"
       id="path7805"
       style="fill:#ffffff" />
    <polygon
       points="410.423,76.825 410.423,75.9 411.518,75.9 411.518,76.825 412.141,76.825 412.141,77.729 411.518,77.729 411.518,79.898 410.423,79.898 410.423,77.729 410.064,77.729 410.064,76.825 "
       transform="matrix(25.082529,0,0,25.082529,-9777.4458,-1749.4684)"
       id="polygon7807"
       style="fill:#ffffff" />
    <path
       d="m 622.89944,205.188 c -2.53334,-8.22707 -7.87592,-12.36568 -16.0779,-12.36568 -8.37757,0 -13.51949,4.13861 -15.47592,12.36568 h 31.55382 z m 25.45876,15.85216 h -57.73998 c 0.30099,6.49638 1.95644,11.08648 4.96634,13.77031 2.78416,2.40792 6.69704,3.63697 11.76371,3.63697 3.86271,0 6.92278,-0.82773 9.15512,-2.45809 1.35446,-1.0033 2.734,-2.60858 4.23895,-4.84093 h 26.5624 c -1.75578,5.61849 -3.7373,9.7571 -5.91948,12.44093 -7.77558,9.38087 -19.16305,14.0713 -34.23765,14.0713 -13.9208,0 -24.93203,-4.03828 -33.03369,-12.06469 -7.49968,-7.34918 -11.21189,-17.05612 -11.21189,-29.09574 0,-13.09308 4.1637,-23.37691 12.4911,-30.80134 7.7505,-6.8977 17.95909,-10.35909 30.67593,-10.35909 13.89572,0 24.58088,4.21387 32.13072,12.59143 6.79737,7.52476 10.18351,17.60794 10.18351,30.19937 v 2.90957 z"
       id="path7809"
       style="fill:#ffffff" />
    <path
       d="m 720.57081,179.80448 -9.25546,17.63302 c -5.26733,-2.50825 -10.25875,-3.78746 -14.99935,-3.78746 -2.68383,0 -4.86601,0.65214 -6.47129,1.93135 -1.22905,1.0033 -1.85611,2.18218 -1.85611,3.56172 0,2.48317 2.40792,4.28912 7.14852,5.36766 l 1.10363,0.22575 c 1.83103,0.45148 3.98812,0.95313 6.47129,1.47987 4.96635,1.05346 9.0548,2.80924 12.2152,5.29241 5.26733,4.13862 7.87591,9.80727 7.87591,17.03104 0,10.43433 -4.53994,18.235 -13.59473,23.45216 -6.39605,3.66205 -14.09638,5.51816 -23.17626,5.51816 -10.23367,0 -20.64292,-3.00991 -31.1525,-9.00463 l 9.88252,-19.21322 c 8.15182,5.3175 15.45084,7.95116 21.97229,7.95116 2.60859,0 4.81585,-0.65214 6.54654,-2.0066 1.40463,-1.07855 2.08185,-2.38284 2.08185,-3.93795 0,-1.53004 -0.75247,-2.93466 -2.30759,-4.23895 -1.05347,-0.85281 -4.1637,-1.80594 -9.38087,-2.88449 -7.49967,-1.65545 -12.94258,-3.78746 -16.37889,-6.42113 -4.31419,-3.36106 -6.47129,-8.3274 -6.47129,-14.87394 0,-10.50958 4.3142,-18.235 12.96767,-23.15117 5.84423,-3.3109 12.99275,-4.99143 21.37031,-4.99143 3.91288,0 8.3274,0.42641 13.24358,1.27921 3.23564,0.50165 7.3241,1.75578 12.16503,3.78746"
       id="path7811"
       style="fill:#ffffff" />
    <g
       transform="matrix(0.99995989,0,0,0.99995989,-2.4998999e-7,-0.01198907)"
       id="g3524">
      <path
         d="m 74.23348,24.51347 c 0.148417,-0.8163 0.247361,-1.31102 0.247361,-1.48417 0,-0.46999 -0.247361,-0.8905 -0.742084,-1.21207 -5.664578,-3.71043 -12.590699,-5.56564 -20.753627,-5.56564 -10.240765,0 -18.700528,3.2157 -25.379287,9.6471 -6.67876,6.4314 -10.01814,14.56959 -10.01814,24.43931 0,9.54816 3.067282,17.26583 9.177111,23.17777 6.134564,5.91194 14.173812,8.85554 24.093007,8.85554 5.491425,0 9.82025,-0.93997 12.986477,-2.84465 0.593668,-0.32157 0.989446,-1.11313 1.162599,-2.37467 0,0 1.682058,-11.84862 1.73153,-12.3186 0.148417,-0.93998 -0.371042,-0.79156 -2.81992,-0.0247 -4.675132,1.36049 -8.509235,2.0531 -11.502309,2.0531 -4.823549,0 -8.756596,-1.60785 -11.848614,-4.82355 -3.116755,-3.2157 -4.675132,-7.29716 -4.675132,-12.26913 0,-5.34301 1.781003,-9.69657 5.318272,-13.08542 3.537269,-3.36412 8.138192,-5.07091 13.80277,-5.07091 5.466688,0 10.14182,1.26154 14.074867,3.78463 1.187335,0.74209 1.92942,1.13786 2.201517,1.13786 0.371043,0 0.667876,-0.59366 0.890502,-1.80574 l 2.0531,-10.21602 z"
         id="path7701"
         style="fill:#ffffff" />
      <path
         d="m 121.40532,19.68992 c -0.17316,-0.86577 -0.64314,-1.31102 -1.40996,-1.31102 h -18.87368 c -0.86577,0 -1.484174,0.37104 -1.879954,1.13786 l -29.08971,58.87203 c -0.123681,0.32157 -0.173153,0.56894 -0.173153,0.71735 0,0.39578 0.222625,0.59367 0.643139,0.59367 h 15.880607 c 0.964709,0 1.632585,-0.34631 1.954155,-0.98945 l 4.081465,-8.43502 c 0.321569,-0.64314 0.865765,-0.96471 1.632585,-0.96471 h 19.962076 c 0.74208,0 1.18733,0.3463 1.28628,1.06365 l 2.12731,8.4845 c 0.12368,0.56893 0.49472,0.84103 1.1626,0.84103 h 14.12434 c 0.49472,0 0.74208,-0.24736 0.74208,-0.74208 V 78.63616 L 121.40532,19.68992 z m -9.99341,35.89215 H 99.563296 c -0.37104,0 -0.56893,-0.0989 -0.56893,-0.24736 l 0.17315,-0.49473 7.915574,-17.98318 c 0.17315,-0.32157 0.29683,-0.51946 0.42051,-0.56893 0.14842,0.099 0.29684,0.37104 0.39578,0.81629 l 4.18041,17.41425 c 0.0989,0.42052 0.17315,0.66788 0.17315,0.71735 0,0.22263 -0.29683,0.34631 -0.84103,0.34631"
         id="path7703"
         style="fill:#ffffff" />
      <path
         d="m 141.34265,78.85878 c 0,0.5442 0.46999,0.84103 1.38522,0.84103 h 13.65436 c 0.76682,0 1.18733,-0.39578 1.31101,-1.1626 L 162.591,43.5603 c 0.099,-0.71735 0.19789,-1.06366 0.24736,-1.06366 0.17316,0.099 0.37104,0.37105 0.64314,0.8163 l 20.03628,35.22427 c 0.44525,0.76682 1.08839,1.1626 1.95416,1.1626 h 13.97592 c 0.93997,0 1.45943,-0.34631 1.55838,-0.98945 L 209.1939,19.2694 c 0,-0.59366 -0.37104,-0.8905 -1.06365,-0.8905 H 193.6596 c -0.98944,0 -1.53364,0.42052 -1.63258,1.23681 l -4.42777,31.71174 c -0.0989,0.81629 -0.24737,1.21207 -0.39578,1.21207 -0.17316,0 -0.42052,-0.29683 -0.74209,-0.8905 L 168.15663,19.51676 c -0.44525,-0.76682 -1.08839,-1.13786 -1.95415,-1.13786 h -15.5343 c -0.76682,0 -1.21207,0.37104 -1.31102,1.06366 l -8.01451,59.41622 z"
         id="path7705"
         style="fill:#ffffff" />
      <path
         d="M 270.91059,78.38879 258.54252,19.61571 C 258.3941,18.79942 257.89938,18.3789 257.08308,18.3789 H 239.0999 c -0.86576,0 -1.45943,0.37104 -1.80574,1.06366 l -28.91655,59.09465 c -0.17315,0.32157 -0.24736,0.56893 -0.24736,0.74209 0,0.27209 0.19789,0.42051 0.64314,0.42051 h 15.70745 c 0.81629,0 1.38522,-0.32157 1.70679,-0.91524 l 4.40304,-8.58344 c 0.32157,-0.59367 0.91524,-0.8905 1.73153,-0.8905 h 18.87368 c 0.98945,0 1.55838,0.42051 1.73153,1.31101 l 1.53364,7.91557 c 0.17315,0.76682 0.69261,1.1626 1.55838,1.1626 h 13.97592 c 0.66788,0 0.98945,-0.17315 0.98945,-0.49472 0,-0.39578 -0.0247,-0.66788 -0.0742,-0.8163 M 249.73646,54.9884 c 0,0.37104 -0.32157,0.56893 -0.91524,0.56893 H 237.7889 c -0.69261,0 -1.06366,-0.17315 -1.06366,-0.49472 0,-0.17316 0.0742,-0.42052 0.17316,-0.74209 l 8.01451,-18.05738 c 0.22262,-0.44525 0.37104,-0.69262 0.46998,-0.74209 0.12369,0.099 0.22263,0.34631 0.34631,0.74209 l 3.90831,17.88423 c 0,0.0742 0.0247,0.19789 0.099,0.42051 v 0.42052 z"
         id="path7707"
         style="fill:#ffffff" />
      <path
         d="m 287.33539,18.3789 c -0.6184,0 -0.96471,0.44525 -1.06365,1.31102 l -8.50924,59.34201 c 0,0.44525 0.24736,0.66788 0.74209,0.66788 h 34.33377 c 0.71735,0 1.11312,-0.34631 1.21207,-0.98945 l 1.63258,-12.02176 c 0,-0.5442 -0.27209,-0.8163 -0.81629,-0.8163 h -16.4248 c -0.64314,0 -0.98945,-0.29683 -0.98945,-0.8905 v -0.17315 l 6.13457,-45.68766 c 0,-0.49473 -0.2721,-0.74209 -0.81629,-0.74209 h -15.43536 z"
         id="path7709"
         style="fill:#ffffff" />
      <path
         d="m 358.60023,56.54678 c 0,-0.69262 0.37104,-1.06366 1.06365,-1.06366 h 20.28364 c 0.59367,0 0.89051,-0.32157 0.89051,-0.96471 V 37.84625 c 0,-0.71735 -0.29684,-1.06365 -0.89051,-1.06365 h -20.531 c -0.54419,0 -0.81629,-0.39578 -0.81629,-1.1626 V 16.74632 c 0,-0.5442 -0.34631,-0.8163 -1.06365,-0.8163 h -16.67217 c -0.54419,0 -0.81629,0.2721 -0.81629,0.8163 V 35.62 c 0,0.76682 -0.32157,1.1626 -0.96471,1.1626 h -21.91623 c -0.59366,0 -0.8905,0.29683 -0.8905,0.8905 v 16.74637 c 0,0.71735 0.32157,1.06365 0.96471,1.06365 h 21.74308 c 0.71734,0 1.06365,0.42052 1.06365,1.23681 v 21.99043 c 0,0.64314 0.29683,0.98945 0.91524,0.98945 h 16.74637 c 0.59367,0 0.8905,-0.39578 0.8905,-1.1626 V 56.54678 z"
         id="path7711"
         style="fill:#ffffff" />
      <g
         transform="matrix(0.91665843,0,0,0.91665843,-68.749382,-87.494764)"
         id="g3382">
        <rect
           width="600"
           height="109.10062"
           x="75"
           y="95.449692"
           id="rect8117" />
        <path
           d="m 155.97067,122.16385 c 0.187,-0.90829 0.26714,-1.44256 0.26714,-1.60285 0,-0.561 -0.26714,-0.98843 -0.80142,-1.36243 -6.17097,-4.03383 -13.73108,-6.06411 -22.6536,-6.06411 -11.16652,0 -20.38291,3.52627 -27.67587,10.55209 -7.292969,6.99912 -10.926093,15.86821 -10.926093,26.63402 0,10.41852 3.339275,18.83348 10.017813,25.2983 6.70525,6.43812 15.46749,9.67053 26.28673,9.67053 5.98396,0 10.71237,-1.04185 14.1585,-3.12556 0.66785,-0.34728 1.06856,-1.20213 1.25556,-2.59127 0,0 1.84328,-12.90294 1.92343,-13.43722 0.13357,-1.01513 -0.42744,-0.85486 -3.07214,-0.0267 -5.12912,1.49599 -9.32323,2.24399 -12.58236,2.24399 -5.23598,0 -9.53696,-1.76314 -12.92966,-5.26269 -3.3927,-3.52627 -5.07569,-7.98753 -5.07569,-13.38379 0,-5.82368 1.92342,-10.57881 5.79697,-14.26536 3.84685,-3.68655 8.8691,-5.52983 15.06679,-5.52983 5.93054,0 11.05966,1.36242 15.33393,4.11398 1.30899,0.82814 2.11041,1.25557 2.40427,1.25557 0.42742,0 0.748,-0.66786 0.98843,-1.97685 l 2.21727,-11.1398 z"
           id="path8119"
           style="fill:#ffffff" />
        <path
           d="m 207.42213,116.92787 c -0.16028,-0.96171 -0.66786,-1.44256 -1.52271,-1.44256 h -20.59661 c -0.93499,0 -1.62956,0.42743 -2.03027,1.25557 l -31.76314,64.22083 c -0.1068,0.34728 -0.16027,0.61442 -0.16027,0.7747 0,0.42743 0.24042,0.64114 0.69456,0.64114 h 17.31077 c 1.06857,0 1.78985,-0.34728 2.13713,-1.06856 l 4.46127,-9.18967 c 0.34729,-0.72128 0.96171,-1.06856 1.78985,-1.06856 h 21.74532 c 0.82814,0 1.309,0.374 1.44256,1.1487 l 2.29743,9.26982 c 0.13356,0.61442 0.56099,0.90827 1.25555,0.90827 h 15.44079 c 0.53428,0 0.80142,-0.26714 0.80142,-0.80142 v -0.34728 l -13.30365,-64.30098 z m -10.87265,39.13624 h -12.92966 c -0.42742,0 -0.61443,-0.0802 -0.61443,-0.26714 l 0.16029,-0.53428 8.65539,-19.63491 c 0.18699,-0.32056 0.32057,-0.56099 0.45414,-0.61442 0.18699,0.13357 0.32056,0.42742 0.45414,0.90827 l 4.54141,18.99378 c 0.1068,0.45413 0.16028,0.72128 0.16028,0.80142 0,0.24042 -0.29385,0.34728 -0.88156,0.34728"
           id="path8121"
           style="fill:#ffffff" />
        <path
           d="m 229.19417,181.46928 c 0,0.61442 0.50757,0.90827 1.52271,0.90827 h 14.87978 c 0.82814,0 1.30899,-0.42742 1.44257,-1.25556 l 5.34283,-38.14782 c 0.1068,-0.80142 0.21371,-1.17542 0.26714,-1.17542 0.16028,0.13358 0.40071,0.40072 0.69457,0.88157 l 21.85218,38.44167 c 0.48085,0.82814 1.20213,1.25556 2.13713,1.25556 h 15.25378 c 1.01514,0 1.57613,-0.34728 1.7097,-1.06856 l 8.89582,-64.83526 c 0,-0.64114 -0.374,-0.98842 -1.14871,-0.98842 h -15.78806 c -1.06857,0 -1.65628,0.45414 -1.78986,1.33571 l -4.80854,34.59483 c -0.1068,0.90828 -0.26714,1.33571 -0.45414,1.33571 -0.16029,0 -0.42743,-0.29386 -0.80143,-0.96171 l -19.95547,-35.04897 c -0.48085,-0.82814 -1.20214,-1.25557 -2.16384,-1.25557 h -16.93678 c -0.82814,0 -1.309,0.40072 -1.41585,1.17542 l -8.73553,64.80855 z"
           id="path8123"
           style="fill:#ffffff" />
        <path
           d="m 370.53876,180.96171 -13.46393,-64.14069 c -0.18699,-0.88157 -0.72128,-1.33571 -1.60285,-1.33571 h -19.63491 c -0.93499,0 -1.60284,0.40072 -1.95012,1.17542 l -31.57614,64.46126 c -0.18699,0.34729 -0.26714,0.61442 -0.26714,0.80143 0,0.29384 0.24043,0.48085 0.72128,0.48085 h 17.12378 c 0.88157,0 1.49599,-0.32057 1.86999,-0.98843 l 4.80855,-9.34995 c 0.34728,-0.66785 0.98842,-0.98843 1.86998,-0.98843 h 20.59663 c 1.06856,0 1.68299,0.48086 1.86998,1.41586 l 1.70971,8.65538 c 0.16029,0.82814 0.748,1.25557 1.68299,1.25557 h 15.25378 c 0.72128,0 1.06856,-0.18701 1.06856,-0.56099 0,-0.42744 -0.0267,-0.72129 -0.0802,-0.88157 m -23.10772,-25.51203 c 0,0.40072 -0.32058,0.61443 -0.98843,0.61443 h -12.02137 c -0.7747,0 -1.17542,-0.18699 -1.17542,-0.53428 0,-0.187 0.0802,-0.45415 0.187,-0.80143 l 8.73553,-19.71504 c 0.24042,-0.48086 0.42743,-0.748 0.53428,-0.80142 0.13358,0.10691 0.24043,0.4007 0.34729,0.80142 l 4.30097,19.52805 c 0,0.0802 0.0267,0.21371 0.0802,0.45414 v 0.45413 z"
           id="path8125"
           style="fill:#ffffff" />
        <path
           d="m 388.46396,115.48531 c -0.66785,0 -1.04185,0.48085 -1.17542,1.44256 l -9.26982,64.7284 c 0,0.48086 0.26715,0.72128 0.80144,0.72128 h 37.45324 c 0.77471,0 1.22885,-0.34728 1.33571,-1.06856 l 1.78985,-13.11665 c 0,-0.58771 -0.29386,-0.88157 -0.88157,-0.88157 h -17.9252 c -0.72128,0 -1.06857,-0.34729 -1.06857,-0.98842 v -0.187 l 6.67854,-49.84862 c 0,-0.53428 -0.29386,-0.80142 -0.90828,-0.80142 h -16.82992 z"
           id="path8127"
           style="fill:#ffffff" />
        <path
           d="m 466.20216,157.13267 c 0,-0.7747 0.40071,-1.1487 1.17542,-1.1487 h 22.11932 c 0.64114,0 0.96171,-0.374 0.96171,-1.06856 v -18.19234 c 0,-0.77472 -0.32057,-1.14872 -0.96171,-1.14872 h -22.38647 c -0.58771,0 -0.90827,-0.42742 -0.90827,-1.28227 v -20.59662 c 0,-0.58771 -0.374,-0.88157 -1.14872,-0.88157 H 446.8611 c -0.58771,0 -0.88156,0.29386 -0.88156,0.88157 v 20.59662 c 0,0.85485 -0.374,1.28227 -1.06856,1.28227 h -23.90917 c -0.64115,0 -0.98843,0.29386 -0.98843,0.96171 v 18.2992 c 0,0.74799 0.374,1.14871 1.06857,1.14871 h 23.72216 c 0.77472,0 1.17543,0.42742 1.17543,1.33571 v 23.98931 c 0,0.72128 0.32057,1.06856 0.96171,1.06856 h 18.2992 c 0.64113,0 0.96171,-0.42742 0.96171,-1.25556 v -23.98932 z"
           id="path8129"
           style="fill:#ffffff" />
        <g
           transform="matrix(1.1295417,0,0,1.1295417,57.795833,94.469163)"
           id="g3189">
          <path
             d="m 399.95216,11.763127 c 45.57322,0 91.1345,0.01195 136.70773,0 -0.10752,25.528173 0.14335,51.068291 -0.13141,76.60841 -45.52544,-0.167242 -91.05088,0.03584 -136.57632,-0.107513 0.0239,-25.504281 0.012,-50.996616 0,-76.500897 z"
             id="path3091"
             style="fill:#ff0000" />
          <path
             d="m 410.02247,22.012623 c 5.37561,-0.01195 10.73927,-0.01195 16.10294,0.01195 -0.012,6.629918 0.0239,13.259837 -0.0358,19.889755 6.18792,0.01195 12.3639,0 18.55183,0.01195 -0.0478,-6.641864 -0.0239,-13.283729 -0.0239,-19.925593 5.19643,0.01195 10.40479,0.02389 15.61316,-0.03584 0.11946,18.695175 0.0717,37.402297 0.0239,56.097472 -5.22031,-0.08362 -10.42868,-0.05973 -15.64899,-0.04778 0,-7.908119 0.0478,-15.816238 -0.0239,-23.724357 -6.15209,0.03584 -12.29223,0.02389 -18.44432,0.01195 -0.0239,7.884227 -0.0119,15.7804 0,23.664628 -5.37561,0.05973 -10.75122,0.04778 -16.11488,0.03584 0.0119,-18.671284 0,-37.330622 0,-55.98996 z"
             id="path3097"
             style="fill:#ffffff" />
          <path
             d="m 474.52978,22.012623 c 13.2479,0.776477 27.53507,-2.401106 39.86314,3.846547 13.73766,7.406396 17.23778,27.033343 8.816,39.636161 -4.41995,7.143588 -12.45947,11.372401 -20.70207,12.101095 -9.31773,0.645073 -18.65934,0.358374 -27.98901,0.394211 0.0358,-18.659338 0.0119,-37.318676 0.0119,-55.978014 z"
             id="path3099"
             style="fill:#ffffff" />
          <path
             d="m 490.66856,34.030097 c 6.60603,-0.406157 14.65749,0.322536 18.3368,6.713539 3.30899,6.450731 3.22537,15.493701 -1.87549,21.036552 -4.31243,4.372162 -10.83484,4.109355 -16.50909,4.18103 0.0717,-10.643707 0,-21.287414 0.0478,-31.931121 z"
             id="path3109"
             style="fill:#ff0000" />
        </g>
      </g>
    </g>
  </g>
</svg>
