<?xml version="1.0" encoding="UTF-8" standalone="no"?>
<!-- Created with Inkscape (http://www.inkscape.org/) -->

<svg
   xmlns:dc="http://purl.org/dc/elements/1.1/"
   xmlns:cc="http://creativecommons.org/ns#"
   xmlns:rdf="http://www.w3.org/1999/02/22-rdf-syntax-ns#"
   xmlns:svg="http://www.w3.org/2000/svg"
   xmlns="http://www.w3.org/2000/svg"
   version="1.1"
   width="600"
   height="333.76974"
   viewBox="0 0 480 267.0158"
   id="svg3031">
  <metadata
     id="metadata3075">
    <rdf:RDF>
      <cc:Work
         rdf:about="">
        <dc:format>image/svg+xml</dc:format>
        <dc:type
           rdf:resource="http://purl.org/dc/dcmitype/StillImage" />
        <dc:title></dc:title>
      </cc:Work>
    </rdf:RDF>
  </metadata>
  <defs
     id="defs3073" />
  <g
     transform="matrix(1.0396531,0,0,1.0396531,-3.6350477e-6,1.2822104e-6)"
     id="g6133">
    <path
       d="m 0.03400641,85.895379 c 158.06155359,0 319.39376359,-1.61e-4 461.55559359,-1.61e-4 0.21,57.050002 0.04,113.876402 0,170.926402 -144.7829,0 -334.83761,0.01 -461.55560359,0.01 0,-57.22399 0.03,-113.95586 0,-170.935851 z"
       id="path3053"
       style="fill:#3d961f;fill-opacity:1" />
    <path
       d="m 106.20401,115.34124 c 7.77,-1.98 16.68,4.38 16.42,12.6 0.6,7.39 -6.45,14.12 -13.76,13.66 -7.02,-0.06 -13.350004,-6.66 -12.890004,-13.71 0.12,-5.84 4.520004,-11.27 10.230004,-12.55 z"
       id="path3057"
       style="fill:#ffffff" />
    <path
       d="m 30.324006,116.40124 c 8.47,-0.42 16.95,-0.07 25.42,-0.2 0.74,25.42 -0.08,50.9 0.38,76.34 10.09,-0.15 20.19,0.12 30.28,-0.15 0.57,7.21 0.17,14.45 0.21,21.67 -16.91,0.32 -33.83,0.01 -50.75,0.16 -1.91,0.1 -3.8,-0.13 -5.6,-0.77 0.25,-32.34 0.12,-64.7 0.06,-97.05 z"
       id="path3059"
       style="fill:#ffffff" />
    <path
       d="m 240.23401,148.40124 c 11.38,-5.27 26.36,-4.05 35.24,5.39 0.29,-2.02 -1.14,-5.05 1.17,-6.21 7.14,-0.06 14.29,-0.05 21.43,0 0.28,0.3 0.85,0.89 1.14,1.19 0.15,21.55 -0.13,43.12 0.13,64.67 -3.35,1.2 -6.95,0.67 -10.43,0.75 -4.52,-0.12 -9.09,0.41 -13.56,-0.53 0.05,-1.92 0.06,-3.83 0.06,-5.74 -2.78,1.33 -4.69,3.88 -7.43,5.27 -6.62,3.24 -14.36,4.15 -21.5,2.22 -10.37,-2.39 -18.93,-10.43 -22.96,-20.15 -3.42,-7.98 -2.8,-16.99 -1.62,-25.39 3.05,-9.14 9.54,-17.3 18.33,-21.47 z"
       id="path3061"
       style="fill:#ffffff" />
    <path
       d="m 145.81401,152.67124 c 8.43,-6.53 20.13,-8.08 30.2,-5.01 3.92,1.04 6.64,4.16 9.76,6.51 0.18,-2 0.28,-4 0.36,-6 7.85,-0.02 15.7,0.04 23.55,-0.04 0.06,21.61 0.01,43.22 0.03,64.84 -0.14,6.88 -0.72,14.25 -4.75,20.09 -5.84,8.66 -15.95,13.59 -26.09,15.04 -10.75,0.99 -22.33,0.53 -31.73,-5.37 -6.85,-4.5 -13.63,-10.93 -14.28,-19.59 8.89,-0.12 17.75,-0.38 26.63,0.06 1.48,2.54 3.37,5.28 6.47,5.9 5.76,1.38 12.81,0.53 16.68,-4.42 3.93,-4.97 3.73,-11.71 3.07,-17.67 -4.34,4.15 -9.78,7.55 -15.9,7.99 -10.5,1.32 -22.07,-1.44 -29.22,-9.66 -8.39,-8.37 -9.87,-21.27 -7.74,-32.43 1.74,-8.02 6.43,-15.29 12.96,-20.24 z"
       id="path3063"
       style="fill:#ffffff" />
    <path
       d="m 97.364006,148.25124 c 7.790004,-0.08 15.590004,-0.23 23.370004,0.04 l 0.43,0.53 c 0.23,21.5 -0.12,43.01 0.17,64.52 -2.66,1.3 -5.67,0.77 -8.52,0.86 -5.16,-0.18 -10.38,0.45 -15.490004,-0.56 0.16,-21.8 0.08,-43.6 0.04,-65.39 z"
       id="path3065"
       style="fill:#ffffff" />
    <path
       d="m 167.85401,166.14124 c 8.27,-2.58 17.56,3.47 18.95,11.89 2.02,8.88 -5.89,18.32 -15.02,17.68 -9,0.45 -16.68,-8.94 -14.77,-17.63 1.05,-5.51 5.48,-10.36 10.84,-11.94 z"
       id="path3067"
       style="fill:#3d961f;fill-opacity:1" />
    <path
       d="m 256.26401,166.37124 c 7.87,-2.88 17.24,2.59 19.23,10.59 0.84,5.1 0.16,11.07 -4.12,14.52 -6.68,7.21 -20.12,5.04 -24.13,-3.95 -4.5,-7.88 0.45,-18.76 9.02,-21.16 z"
       id="path3069"
       style="fill:#3d961f;fill-opacity:1" />
    <path
       d="M 0.03641623,0.02497881 C 123.12148,-0.06502119 338.50453,0.1248177 461.5896,0.0248177 c 0.0107,28.5700003 -0.0324,57.3004003 -2.5e-4,85.8704003 -143.8265,0 -327.22443,1.61e-4 -461.55293377,1.61e-4 -0.117795,-28.62 0.09637772,-57.2504 0,-85.87040019 z"
       id="path3035"
       style="fill:#000000" />
    <path
       d="m 35.274006,15.480979 c 9.57,-2.67 20.76,-2.12 29.16,3.62 -0.33,4.25 -1.34,8.42 -2.43,12.54 -5.69,-3.62 -12.67,-5.53 -19.33,-3.81 -4.74,1.23 -8.87,4.74 -10.56,9.36 -1.03,3.53 -1.03,7.31 0,10.84 1.71,5 6.51,8.78 11.79,9.18 4.79,0.42 9.38,-1.32 13.98,-2.36 -0.68,4.35 -0.61,8.9 -2.2,13.04 -4.19,3.03 -9.83,2.87 -14.79,2.64 -9.77,-0.33 -19.28,-6.32 -23.21,-15.36 -2.66,-5.66 -2.43,-12.15 -1.78,-18.22 1.77,-10.03 9.72,-18.47 19.37,-21.47 z"
       id="path3037"
       style="fill:#ffffff" />
    <path
       d="m 293.14401,31.450979 c 0.19,-5.96 -0.2,-11.92 0.23,-17.86 5.29,0.11 10.58,-0.02 15.88,0.1 0.16,5.94 -0.23,11.89 0.22,17.82 6.3,-0.07 12.61,-0.1 18.91,0.01 0.23,5.41 0.13,10.83 0.06,16.24 -6.4,0.31 -12.81,-0.11 -19.2,0.26 0.04,6.8 0.08,13.6 -0.02,20.41 -5.28,0.08 -10.56,-0.03 -15.83,0.08 -0.48,-6.86 -0.06,-13.75 -0.23,-20.62 -6.8,-0.05 -13.6,0.03 -20.4,-0.05 -0.02,-5.47 -0.26,-10.94 0.16,-16.4 6.74,0.03 13.48,0.03 20.22,0.01 z"
       id="path3039"
       style="fill:#ffffff" />
    <path
       d="m 86.044006,16.090979 c 6.24,-0.18 12.48,-0.11 18.720004,-0.05 3.49,17.47 7.5,34.84 10.7,52.36 -4.58,0.1 -9.15,0.1 -13.73,-0.01 -0.84,-2.81 -1.61,-5.65 -2.040004,-8.56 -6.08,-0.82 -12.29,-0.27 -18.41,-0.33 -2.92,1.9 -3,6.28 -5.41,8.8 -5.18,0.35 -10.39,0.13 -15.58,0.09 2.43,-6.25 5.93,-12.02 8.71,-18.11 5.68,-11.4 11.34,-22.8 17.04,-34.19 z"
       id="path3041"
       style="fill:#ffffff" />
    <path
       d="m 129.10401,16.010979 c 5.22,-0.02 10.44,-0.04 15.66,0.02 5.7,9.71 11.17,19.56 16.88,29.27 1.46,-9.75 2.57,-19.54 4.21,-29.25 4.89,-0.1 9.79,-0.04 14.68,-0.05 -2,17.43 -4.97,34.75 -6.96,52.17 -4.55,0.49 -9.16,0.36 -13.72,0.19 -1.55,0.05 -1.82,-1.88 -2.64,-2.82 -5.64,-9.53 -10.68,-19.46 -16.75,-28.72 -1.51,10.51 -2.71,21.09 -4.53,31.54 -4.69,0.14 -9.38,0.22 -14.06,-0.07 2.43,-17.42 4.56,-34.89 7.23,-52.28 z"
       id="path3043"
       style="fill:#ffffff" />
    <path
       d="m 204.94401,16.010979 c 5.98,-0.03 11.97,-0.02 17.95,0 3.8,17.44 7.37,34.93 11.15,52.38 -4.78,0.11 -9.56,0.14 -14.33,-0.03 -0.77,-2.95 -1.16,-5.99 -2.07,-8.91 -6.04,0.13 -12.11,-0.28 -18.13,0.19 -1.85,2.71 -2.9,5.88 -4.79,8.56 -5.08,0.59 -10.24,0.16 -15.35,0.19 8.15,-17.63 17.15,-34.87 25.57,-52.38 z"
       id="path3045"
       style="fill:#ffffff" />
    <path
       d="m 247.09401,16.020979 c 4.93,-0.04 9.85,-0.03 14.78,-0.02 -1.5,13.47 -3.68,26.85 -5.29,40.29 5.28,0.17 10.58,-0.01 15.87,0.14 -0.5,3.97 -1.18,7.92 -1.64,11.9 -10.45,0.29 -20.9,0.07 -31.35,0.11 2.41,-17.49 4.88,-34.98 7.63,-52.42 z"
       id="path3047"
       style="fill:#ffffff" />
    <path
       d="m 211.51401,30.800979 c 1.72,5.48 2.8,11.16 3.87,16.8 -3.76,0.08 -7.52,0.08 -11.27,0 2.33,-5.66 4.99,-11.18 7.4,-16.8 z"
       id="path3049"
       style="fill:#000000" />
    <path
       d="m 90.734006,35.870979 c 0.7,-1.39 1.05,-3.16 2.53,-3.97 1.07,5.3 2.48,10.52 3.68,15.79 -3.74,-0.06 -7.48,-0.04 -11.23,-0.03 1.4,-4.04 3.39,-7.84 5.02,-11.79 z"
       id="path3051"
       style="fill:#000000" />
    <path
       d="m 129.10401,16.010979 c 5.22,-0.02 10.44,-0.04 15.66,0.02 5.7,9.71 11.17,19.56 16.88,29.27 1.46,-9.75 2.57,-19.54 4.21,-29.25 4.89,-0.1 9.79,-0.04 14.68,-0.05 -2,17.43 -4.97,34.75 -6.96,52.17 -3.70426,-0.239985 -14.35133,-0.444311 -16.36,-2.63 -5.64,-9.53 -10.68,-19.46 -16.75,-28.72 -1.51,10.51 -2.71,21.09 -4.53,31.54 -4.69,0.14 -9.38,0.22 -14.06,-0.07 2.43,-17.42 4.56,-34.89 7.23,-52.28 z"
       id="path3077"
       style="fill:#ffffff" />
    <path
       d="m 129.10401,16.010979 c 5.22,-0.02 10.44,-0.04 15.66,0.02 5.7,9.71 11.17,19.56 16.88,29.27 1.46,-9.75 2.57,-19.54 4.21,-29.25 4.89,-0.1 9.79,-0.04 14.68,-0.05 -2,17.43 -4.97,34.75 -6.96,52.17 -3.81014,0.395277 -14.35133,-0.444311 -16.36,-2.63 -5.64,-9.53 -10.68,-19.46 -16.75,-28.72 -1.51,10.51 -2.71,21.09 -4.53,31.54 -4.69,0.14 -9.38,0.22 -14.06,-0.07 2.43,-17.42 4.56,-34.89 7.23,-52.28 z"
       id="path3079"
       style="fill:#ffffff" />
    <g
       transform="matrix(0.8165572,0,0,0.8165572,15.889036,2.2156033)"
       id="g3189">
      <path
         d="m 399.95216,11.763127 c 45.57322,0 91.1345,0.01195 136.70773,0 -0.10752,25.528173 0.14335,51.068291 -0.13141,76.60841 -45.52544,-0.167242 -91.05088,0.03584 -136.57632,-0.107513 0.0239,-25.504281 0.012,-50.996616 0,-76.500897 z"
         id="path3091"
         style="fill:#ff0000" />
      <path
         d="m 410.02247,22.012623 c 5.37561,-0.01195 10.73927,-0.01195 16.10294,0.01195 -0.012,6.629918 0.0239,13.259837 -0.0358,19.889755 6.18792,0.01195 12.3639,0 18.55183,0.01195 -0.0478,-6.641864 -0.0239,-13.283729 -0.0239,-19.925593 5.19643,0.01195 10.40479,0.02389 15.61316,-0.03584 0.11946,18.695175 0.0717,37.402297 0.0239,56.097472 -5.22031,-0.08362 -10.42868,-0.05973 -15.64899,-0.04778 0,-7.908119 0.0478,-15.816238 -0.0239,-23.724357 -6.15209,0.03584 -12.29223,0.02389 -18.44432,0.01195 -0.0239,7.884227 -0.0119,15.7804 0,23.664628 -5.37561,0.05973 -10.75122,0.04778 -16.11488,0.03584 0.0119,-18.671284 0,-37.330622 0,-55.98996 z"
         id="path3097"
         style="fill:#ffffff" />
      <path
         d="m 474.52978,22.012623 c 13.2479,0.776477 27.53507,-2.401106 39.86314,3.846547 13.73766,7.406396 17.23778,27.033343 8.816,39.636161 -4.41995,7.143588 -12.45947,11.372401 -20.70207,12.101095 -9.31773,0.645073 -18.65934,0.358374 -27.98901,0.394211 0.0358,-18.659338 0.0119,-37.318676 0.0119,-55.978014 z"
         id="path3099"
         style="fill:#ffffff" />
      <path
         d="m 490.66856,34.030097 c 6.60603,-0.406157 14.65749,0.322536 18.3368,6.713539 3.30899,6.450731 3.22537,15.493701 -1.87549,21.036552 -4.31243,4.372162 -10.83484,4.109355 -16.50909,4.18103 0.0717,-10.643707 0,-21.287414 0.0478,-31.931121 z"
         id="path3109"
         style="fill:#ff0000" />
    </g>
  </g>
</svg>
