<?xml version="1.0" encoding="UTF-8" standalone="no"?>
<!-- Created with Inkscape (http://www.inkscape.org/) -->

<svg
   xmlns:dc="http://purl.org/dc/elements/1.1/"
   xmlns:cc="http://creativecommons.org/ns#"
   xmlns:rdf="http://www.w3.org/1999/02/22-rdf-syntax-ns#"
   xmlns:svg="http://www.w3.org/2000/svg"
   xmlns="http://www.w3.org/2000/svg"
   version="1.1"
   width="600"
   height="593.72351"
   id="svg2">
  <metadata
     id="metadata3247">
    <rdf:RDF>
      <cc:Work
         rdf:about="">
        <dc:format>image/svg+xml</dc:format>
        <dc:type
           rdf:resource="http://purl.org/dc/dcmitype/StillImage" />
        <dc:title></dc:title>
      </cc:Work>
    </rdf:RDF>
  </metadata>
  <defs
     id="defs3245" />
  <g
     transform="translate(-388.49409,-3.0053828)"
     id="layer1">
    <g
       transform="matrix(1.570697,0,0,1.570697,-392.92148,-171.13327)"
       id="g3249">
      <path
         d="m 862.07562,110.86712 -4.93346,0 c 0,0 -22.08495,65.7281 -142.37018,65.7281 l -79.86683,0 -6.8349,55.1417 234.00537,0 z"
         id="path53396"
         style="fill:#031f40;fill-rule:nonzero;stroke:none" />
      <path
         d="M 854.56365,351.16715 C 802.93575,307.145 677.41514,330.5147 677.41514,330.5147 l 0,-25.57305 185.71141,0 0,-55.67488 -248.13125,0 -17.45341,132.18206 91.1791,-0.0257 c 10.04679,-7.32311 28.76568,-10.30374 38.41419,-10.03394 29.24103,0.84151 38.36922,9.19242 43.67526,16.36778 4.86923,6.55868 5.22896,18.2885 0,25.32253 -6.95052,9.28879 -20.67171,16.5605 -44.69664,16.5605 -9.16031,0 -36.08236,-1.37469 -48.59588,-22.21342 l -85.13432,-0.0385 c -0.006,53.49079 60.09444,71.7279 86.11716,77.12387 2.34468,0.48178 58.03241,11.672 121.6535,-3.82857 42.27488,-10.31017 70.59731,-33.29444 77.69559,-63.0558 5.54372,-23.46606 -3.12838,-48.34535 -23.2862,-66.4604"
         id="path53400"
         style="fill:#031f40;fill-rule:nonzero;stroke:none" />
      <path
         d="m 603.16077,214.92525 c 0,-8.36376 -6.50086,-15.25005 -14.66548,-15.85388 2.31256,-2.7558 3.76433,-6.36596 3.76433,-10.32943 0,-8.76204 -7.05973,-15.86673 -15.87315,-15.86673 -3.89923,0 -7.45801,1.35541 -10.22666,3.66797 l -0.32118,0.75158 0,0.20557 c -0.54602,-8.02973 -7.28457,-14.37642 -15.507,-14.37642 -8.19674,0 -14.83893,6.28888 -15.50058,14.26721 l -0.34046,-0.83509 c -2.74937,-2.25475 -6.2696,-3.58447 -10.1046,-3.58447 -8.72991,0 -15.86673,7.11112 -15.86673,15.886 0,4.11765 1.56098,7.84986 4.09837,10.6442 -8.42157,0.4304 -15.12157,7.40019 -15.12157,15.886 0,8.47297 6.72569,15.32071 15.11515,15.78965 -2.3768,2.78149 -3.86069,6.4559 -3.86069,10.39367 0,8.76846 7.14324,15.90527 15.87315,15.90527 3.75791,0 7.20748,-1.2976 9.94401,-3.47526 0.88648,7.92052 7.56721,14.10019 15.76395,14.10019 8.44084,0 15.25647,-6.54583 15.82176,-14.79396 2.79434,2.38322 6.40451,3.82215 10.36155,3.82215 8.80058,0 15.86673,-7.14324 15.86673,-15.9117 0,-4.01486 -1.48389,-7.64429 -3.84784,-10.45148 l -0.2441,0.0321 c 8.27382,-0.50748 14.87104,-7.43874 14.87104,-15.87316 m -52.71994,14.57555 c -8.08111,0 -14.54343,-6.55225 -14.54343,-14.5884 0,-8.03614 6.46232,-14.58839 14.54343,-14.58839 8.08111,0 14.62052,6.55225 14.62052,14.58839 0,8.03615 -6.53941,14.5884 -14.62052,14.5884"
         id="path53404"
         style="fill:#f5520f;fill-rule:nonzero;stroke:none" />
    </g>
  </g>
</svg>
