<?xml version="1.0" encoding="UTF-8" standalone="no"?>
<!-- Created with Inkscape (http://www.inkscape.org/) -->

<svg
   xmlns:dc="http://purl.org/dc/elements/1.1/"
   xmlns:cc="http://creativecommons.org/ns#"
   xmlns:rdf="http://www.w3.org/1999/02/22-rdf-syntax-ns#"
   xmlns:svg="http://www.w3.org/2000/svg"
   xmlns="http://www.w3.org/2000/svg"
   version="1.1"
   width="600"
   height="449.91324"
   viewBox="0 0 599.99999 449.91324"
   id="Layer_1"
   xml:space="preserve"><metadata
     id="metadata19"><rdf:RDF><cc:Work
         rdf:about=""><dc:format>image/svg+xml</dc:format><dc:type
           rdf:resource="http://purl.org/dc/dcmitype/StillImage" /><dc:title></dc:title></cc:Work></rdf:RDF></metadata><defs
     id="defs17" /><g
     transform="matrix(1.5,0,0,1.5,-5.5116518e-5,-0.08686579)"
     id="g3338"><rect
       width="399.97269"
       height="199.96585"
       x="3.3411012e-05"
       y="100.03421"
       id="rect5"
       style="fill:#f36c21" /><rect
       width="400"
       height="99.976089"
       x="3.3411012e-05"
       y="0.057910524"
       id="rect7" /><path
       d="m 74.22038,24.515829 c 0.163963,-0.819812 0.245944,-1.311699 0.245944,-1.475661 0,-0.491888 -0.245944,-0.88813 -0.737831,-1.229719 -5.670368,-3.702818 -12.59778,-5.547395 -20.768575,-5.547395 -10.233988,0 -18.705381,3.210931 -25.373186,9.646456 -6.667806,6.421862 -10.015372,14.578993 -10.015372,24.430402 0,9.537149 3.074295,17.257046 9.19556,23.173358 6.134927,5.916311 14.155423,8.867634 24.07515,8.867634 5.506405,0 9.837746,-0.956447 12.994023,-2.855679 0.601195,-0.341588 0.983774,-1.12041 1.147737,-2.377455 0,0 1.680615,-11.846286 1.748932,-12.297182 0.136636,-0.942784 -0.368915,-0.819812 -2.814688,-0.04099 -4.686593,1.366354 -8.526046,2.035867 -11.532024,2.035867 -4.782238,0 -8.731,-1.598634 -11.846286,-4.809565 -3.101623,-3.224594 -4.659266,-7.296328 -4.659266,-12.256191 0,-5.356107 1.77626,-9.714775 5.315116,-13.089668 3.538855,-3.374893 8.143467,-5.069172 13.813835,-5.069172 5.45175,0 10.138343,1.257045 14.059778,3.771136 1.202391,0.751495 1.940222,1.134074 2.199829,1.134074 0.382579,0 0.683177,-0.601196 0.901794,-1.803587 L 74.22038,24.51583"
       id="path9"
       style="fill:#ffffff" /><path
       d="m 121.38691,19.706265 c -0.16397,-0.874467 -0.62853,-1.3117 -1.39368,-1.3117 h -18.86935 c -0.87446,0 -1.502986,0.382579 -1.885565,1.147737 l -29.103332,58.84885 c -0.109308,0.327925 -0.150299,0.560205 -0.150299,0.724167 0,0.396243 0.204953,0.587532 0.65585,0.587532 h 15.849701 c 0.970112,0 1.625961,-0.327925 1.96755,-0.983774 l 4.071733,-8.416738 c 0.327925,-0.65585 0.874467,-0.983775 1.639625,-0.983775 h 19.948767 c 0.76515,0 1.20239,0.355252 1.31169,1.065756 l 2.11785,8.498719 c 0.10931,0.546542 0.49189,0.819812 1.14774,0.819812 h 14.14176 c 0.49189,0 0.72417,-0.245943 0.72417,-0.751494 V 78.637096 L 121.38691,19.706265 M 111.41253,55.58671 H 99.566239 c -0.382579,0 -0.573868,-0.08198 -0.573868,-0.245943 l 0.163962,-0.478224 7.938517,-17.981213 c 0.1503,-0.341589 0.28693,-0.532878 0.39624,-0.587533 0.16396,0.109309 0.3006,0.382579 0.40991,0.819813 l 4.16737,17.407345 c 0.10931,0.450896 0.16397,0.683176 0.16397,0.73783 0,0.204953 -0.27327,0.327925 -0.81981,0.327925"
       id="path11"
       style="fill:#ffffff" /><path
       d="m 141.32201,78.883039 c 0,0.532878 0.46456,0.819812 1.39368,0.819812 h 13.64987 c 0.76516,0 1.20239,-0.396242 1.3117,-1.147737 l 4.90521,-34.992315 c 0.10931,-0.696841 0.19129,-1.052093 0.23228,-1.052093 0.16396,0.109309 0.39624,0.382579 0.65585,0.806149 l 20.03074,35.238259 c 0.43723,0.751495 1.09308,1.147737 1.96755,1.147737 h 13.96413 c 0.92912,0 1.44834,-0.341588 1.55765,-0.983774 l 8.17079,-59.422718 c 0,-0.601196 -0.35525,-0.901794 -1.05209,-0.901794 h -14.46969 c -0.98377,0 -1.53031,0.409906 -1.63962,1.229719 l -4.41332,31.713067 c -0.10931,0.819812 -0.24595,1.216054 -0.40991,1.216054 -0.16396,0 -0.4099,-0.286934 -0.73783,-0.901793 l -18.30914,-32.10931 c -0.43723,-0.765158 -1.09308,-1.147737 -1.95388,-1.147737 h -15.53544 c -0.76516,0 -1.18873,0.355252 -1.3117,1.065756 l -8.00683,59.422718"
       id="path13"
       style="fill:#ffffff" /><path
       d="M 270.87965,78.391152 258.54148,19.624284 c -0.16396,-0.806149 -0.66951,-1.216055 -1.48932,-1.216055 h -17.96755 c -0.88813,0 -1.47567,0.355252 -1.80359,1.052092 l -28.93937,59.094793 c -0.1503,0.341589 -0.23228,0.573869 -0.23228,0.737831 0,0.273271 0.20495,0.409906 0.64219,0.409906 h 15.6994 c 0.80615,0 1.38002,-0.300597 1.7216,-0.888129 l 4.39966,-8.594365 c 0.32793,-0.601195 0.9018,-0.888129 1.72161,-0.888129 h 18.883 c 0.97012,0 1.54398,0.423569 1.72161,1.298035 l 1.54398,7.924851 c 0.16396,0.765158 0.68318,1.147737 1.55764,1.147737 h 13.9778 c 0.64219,0 0.97011,-0.163962 0.97011,-0.491887 0,-0.382579 -0.0137,-0.669513 -0.0683,-0.819812 m -21.1785,-23.364647 c 0,0.368916 -0.30059,0.560205 -0.90179,0.560205 h -11.02647 c -0.71051,0 -1.06576,-0.163962 -1.06576,-0.491887 0,-0.150299 0.0546,-0.396243 0.16396,-0.724167 l 8.00683,-18.063195 c 0.21862,-0.450897 0.38258,-0.683177 0.49189,-0.737831 0.10931,0.109308 0.21862,0.355252 0.32793,0.737831 l 3.92143,17.899232 c 0,0.05465 0.0273,0.19129 0.082,0.409906 v 0.409906 z"
       id="path15"
       style="fill:#ffffff" /><path
       d="m 287.30322,18.380902 c -0.61486,0 -0.95644,0.437233 -1.06575,1.311699 l -8.49872,59.327074 c 0,0.450896 0.24594,0.669513 0.73783,0.669513 h 34.3228 c 0.71051,0 1.12041,-0.341589 1.22972,-0.983775 l 1.63962,-12.010248 c 0,-0.560205 -0.28693,-0.833476 -0.81981,-0.833476 h -16.42357 c -0.66951,0 -0.98377,-0.286934 -0.98377,-0.888129 v -0.177626 l 6.12126,-45.690865 c 0,-0.478224 -0.27327,-0.724167 -0.81981,-0.724167 h -15.4398"
       id="path17"
       style="fill:#ffffff" /><path
       d="m 358.57223,56.543158 c 0,-0.710504 0.35525,-1.065756 1.06575,-1.065756 h 20.27669 c 0.6012,0 0.88813,-0.327925 0.88813,-0.970111 V 37.824114 c 0,-0.710504 -0.28693,-1.052093 -0.88813,-1.052093 h -20.52263 c -0.54654,0 -0.81981,-0.382579 -0.81981,-1.147737 V 16.741277 c 0,-0.546541 -0.35525,-0.819812 -1.06576,-0.819812 h -16.66951 c -0.54654,0 -0.81981,0.273271 -0.81981,0.819812 v 18.883007 c 0,0.765158 -0.31427,1.147737 -0.98378,1.147737 h -21.90265 c -0.60119,0 -0.88813,0.286935 -0.88813,0.88813 V 54.42531 c 0,0.69684 0.31426,1.052092 0.97011,1.052092 h 21.73869 c 0.72417,0 1.06576,0.42357 1.06576,1.229718 v 21.998293 c 0,0.642186 0.30059,0.970111 0.90179,0.970111 h 16.75149 c 0.6012,0 0.9018,-0.382579 0.9018,-1.147737 V 56.543158"
       id="path19"
       style="fill:#ffffff" /><polyline
       transform="matrix(13.663536,0,0,13.663536,-1382.7088,-1624.9599)"
       points="106.236,133.1 103.562,129.195 106.236,129.195 107.483,131.368 108.779,129.195 111.442,129.195    108.725,133.1 111.878,137.56 109.258,137.56 107.461,134.837 105.588,137.56 102.969,137.56 106.236,133.1  "
       id="polyline21"
       style="fill:#ffffff" /><polyline
       transform="matrix(13.663536,0,0,13.663536,-1382.7088,-1624.9599)"
       points="114.585,133.58 114.585,137.56 112.576,137.56 112.576,133.58 111.917,133.58 111.917,131.918    112.576,131.918 112.576,130.219 114.585,130.219 114.585,131.918 115.729,131.918 115.729,133.58 114.585,133.58  "
       id="polyline23"
       style="fill:#ffffff" /><path
       d="m 208.66957,177.50644 h 27.45005 v 12.65244 c 4.11272,-6.94108 10.31597,-11.28608 18.60973,-13.02135 4.11273,-0.7515 8.19813,-0.87447 12.26986,-0.36892 v 25.8924 c -4.07173,-1.84458 -7.85653,-2.76003 -11.38173,-2.76003 -5.94363,0 -10.67122,1.73527 -14.12809,5.2058 -1.99488,1.92656 -3.3749,4.14006 -4.16738,6.62682 -0.80615,2.41845 -1.20239,5.71136 -1.20239,9.81042 v 33.03843 h -27.45005 v -77.07601"
       id="path25"
       style="fill:#ffffff" /><path
       d="m 317.24003,198.02907 c -4.75491,0 -8.8813,1.73527 -12.35184,5.20581 -3.47053,3.41588 -5.2058,7.54227 -5.2058,12.35184 0,5.01451 1.73527,9.26387 5.2058,12.73441 3.41589,3.41589 7.5696,5.12383 12.43382,5.12383 4.90521,0 9.07259,-1.73527 12.48847,-5.20581 3.47054,-3.47054 5.20581,-7.63792 5.20581,-12.50213 0,-4.86422 -1.73527,-9.0316 -5.20581,-12.50214 -3.41588,-3.47054 -7.61058,-5.20581 -12.57045,-5.20581 m 17.03843,-21.12382 h 27.46371 v 77.69086 h -27.46371 v -8.55337 c -5.84799,7.43296 -13.90948,11.14944 -24.18446,11.14944 -10.61657,0 -19.6345,-3.75747 -27.08113,-11.29974 -7.99316,-8.07515 -11.98292,-18.18617 -11.98292,-30.29206 0,-12.01025 3.94876,-21.97097 11.83262,-29.90948 7.43297,-7.48762 16.57387,-11.24509 27.38173,-11.24509 4.91887,0 9.63279,0.92912 14.14176,2.76003 2.97865,1.18873 6.27156,3.6345 9.8924,7.29633 v -7.59692 z"
       id="path27"
       style="fill:#ffffff" /></g></svg>