<?xml version="1.0" encoding="UTF-8" standalone="no"?>
<!-- Created with Inkscape (http://www.inkscape.org/) -->

<svg
   xmlns:dc="http://purl.org/dc/elements/1.1/"
   xmlns:cc="http://creativecommons.org/ns#"
   xmlns:rdf="http://www.w3.org/1999/02/22-rdf-syntax-ns#"
   xmlns:svg="http://www.w3.org/2000/svg"
   xmlns="http://www.w3.org/2000/svg"
   version="1.1"
   width="600.00079"
   height="299.987"
   id="svg5125">
  <defs
     id="defs5127">
    <clipPath
       id="clipPath3965">
      <path
         d="m 630.822,182.475 22.394,0 0,11.196 -22.394,0 0,-11.196 z"
         id="path3967" />
    </clipPath>
  </defs>
  <metadata
     id="metadata5130">
    <rdf:RDF>
      <cc:Work
         rdf:about="">
        <dc:format>image/svg+xml</dc:format>
        <dc:type
           rdf:resource="http://purl.org/dc/dcmitype/StillImage" />
        <dc:title></dc:title>
      </cc:Work>
    </rdf:RDF>
  </metadata>
  <g
     transform="translate(-49.999259,-382.3687)"
     id="layer1">
    <g
       transform="matrix(26.794123,0,0,-26.794123,-16852.323,5571.6133)"
       id="g3961">
      <g
         clip-path="url(#clipPath3965)"
         id="g3963">
        <path
           d="m 653.215,193.671 -22.393,0 0,-5.598 22.393,0 0,5.598 z"
           id="path3969"
           style="fill:#0d0906;fill-opacity:1;fill-rule:nonzero;stroke:none" />
        <g
           transform="translate(652.2922,190.6246)"
           id="g3971">
          <path
             d="m 0,0 c 0,0 -0.005,-0.01 -0.019,-0.01 l -1.208,0 c -0.019,0 -0.029,-0.009 -0.029,-0.009 0,0 -0.014,-0.005 -0.014,-0.028 l 0,-1.288 c 0,-0.019 -0.01,-0.024 -0.01,-0.024 0,0 -0.004,-0.009 -0.018,-0.009 l -0.958,0 c -0.015,0 -0.024,0.009 -0.024,0.009 0,0 -0.005,0.005 -0.005,0.029 l 0,1.287 c 0,0.015 -0.014,0.024 -0.014,0.024 0,0 -0.005,0.009 -0.019,0.009 l -1.236,0 c -0.024,0 -0.029,0.005 -0.029,0.005 0,0 -0.009,0.01 -0.009,0.038 l 0,0.943 c 0,0.009 0.009,0.023 0.009,0.023 0,0 0.005,0.005 0.014,0.005 l 1.265,0 c 0.01,0 0.01,0.005 0.01,0.005 0,0 0.009,0.005 0.009,0.014 l 0,1.127 c 0,0.015 0.005,0.024 0.005,0.024 0,0 0.009,0.004 0.038,0.004 l 0.939,0 c 0.019,0 0.023,-0.004 0.023,-0.004 0,0 0.01,-0.009 0.01,-0.028 l 0,-1.132 1.227,0 C -0.01,1.014 0,1.009 0,1.009 c 0,0 0.014,-0.005 0.014,-0.033 l 0,-0.953 C 0.014,0.014 0,0 0,0 m -3.743,-1.325 c -0.005,-0.029 -0.01,-0.038 -0.01,-0.038 0,0 -0.004,-0.01 -0.028,-0.01 l -1.944,0 c -0.057,0 -0.071,0.014 -0.071,0.014 0,0 -0.01,0.019 -0.005,0.062 l 0.482,3.348 c 0.004,0.043 0.014,0.057 0.014,0.057 l 0.052,0 0.882,0 c 0.024,0 0.033,-0.005 0.033,-0.005 0,0 0.005,-0.014 0,-0.033 l -0.363,-2.617 c -0.005,-0.029 0.009,-0.034 0.009,-0.034 0,0 0.01,-0.004 0.047,-0.004 l 0.963,0 c 0.019,0 0.028,-0.01 0.028,-0.01 0,0 0.005,-0.004 0.005,-0.028 l -0.094,-0.702 z m -2.478,-0.053 -0.864,0 c -0.019,-0.009 -0.032,0.01 -0.032,0.01 0,0 -0.006,0.005 -0.01,0.033 l -0.113,0.533 c -0.01,0.028 -0.019,0.042 -0.019,0.042 0,0 -0.024,0.015 -0.052,0.015 l -1.123,0 c -0.024,0 -0.038,-0.015 -0.038,-0.015 0,0 -0.019,-0.018 -0.028,-0.047 l -0.255,-0.542 c -0.005,-0.014 -0.014,-0.019 -0.014,-0.019 0,0 -0.02,-0.005 -0.029,-0.005 l -0.972,0 c -0.024,-0.005 -0.033,0.01 -0.033,0.01 0,0 -0.005,0.009 0.009,0.028 l 1.713,3.419 c 0.01,0.005 0.019,0.019 0.019,0.019 0,0 0.01,0.005 0.038,0.005 l 1.062,0 c 0.024,0 0.038,-0.014 0.038,-0.014 0,0 0.005,-0.005 0.009,-0.02 l 0.713,-3.433 c 0,-0.009 -0.005,-0.014 -0.005,-0.014 0,0 0,-0.005 -0.014,-0.005 m -4.045,0.005 -0.864,0 -0.028,0 c 0,0 -0.004,0.005 -0.009,0.01 l -1.199,2.127 c -0.009,0.009 -0.014,0.009 -0.014,0.009 0,0 -0.009,0 -0.009,-0.014 l -0.298,-2.089 c -0.005,-0.024 -0.01,-0.029 -0.01,-0.029 0,0 -0.009,-0.004 -0.023,-0.004 l -0.859,0 c -0.014,0 -0.023,0.009 -0.023,0.009 0,0 -0.02,0.019 -0.015,0.038 l 0.472,3.382 c 0.005,0.018 0.014,0.023 0.014,0.023 0,0 0.015,0.014 0.029,0.014 l 0.958,0 c 0.014,0 0.024,-0.009 0.024,-0.009 0,0 0.009,-0.005 0.014,-0.02 l 1.08,-1.895 c 0.019,-0.038 0.033,-0.033 0.033,-0.033 0,0 0.015,0 0.024,0.043 l 0.274,1.885 c 0,0.015 0.009,0.02 0.009,0.02 0,0 0.005,0.009 0.019,0.009 l 0.901,-0.009 c 0.02,0 0.024,-0.005 0.024,-0.005 0,0 0.005,-0.005 0.005,-0.015 l -0.486,-3.409 c -0.005,-0.019 -0.014,-0.033 -0.014,-0.033 0,0 -0.005,-0.005 -0.029,-0.005 m -3.775,0.01 -0.84,-0.005 c -0.019,0 -0.033,0.009 -0.033,0.009 0,0 -0.005,0.005 -0.01,0.038 l -0.132,0.543 c 0,0.013 -0.01,0.018 -0.01,0.018 l -0.014,0 -1.185,0 c -0.023,0 -0.037,-0.018 -0.037,-0.018 0,0 -0.019,-0.015 -0.033,-0.048 l -0.236,-0.504 c -0.01,-0.019 -0.015,-0.024 -0.015,-0.024 0,0 -0.014,-0.009 -0.028,-0.009 l -0.977,0 c -0.028,-0.005 -0.033,0.009 -0.033,0.009 0,0 -0.005,0.014 0.005,0.033 l 1.694,3.405 c 0.01,0.019 0.024,0.024 0.024,0.024 l 0.033,0 1.081,0 c 0.018,0 0.033,-0.014 0.033,-0.014 0,0 0.005,-0.005 0.009,-0.02 l 0.727,-3.414 c 0,-0.014 -0.009,-0.019 -0.009,-0.019 0,0 -0.005,-0.004 -0.014,-0.004 m 6.399,2.485 c 0,0 -0.004,0 -0.009,-0.019 L -8.123,0.038 C -8.133,0.005 -8.128,0 -8.128,0 c 0,0 0.015,-0.01 0.024,-0.01 l 0.698,0.005 0.01,0 c 0,0 0.004,0.005 0,0.019 l -0.236,1.094 c -0.005,0.014 -0.01,0.014 -0.01,0.014 m -7.835,-0.014 c 0,0 -0.004,0 -0.009,-0.009 l -0.472,-1.071 c -0.009,-0.014 -0.004,-0.023 -0.004,-0.023 0,0 0.004,-0.005 0.028,-0.005 l 0.694,-0.005 c 0.005,0 0.009,0.005 0.009,0.005 0,0 0.005,0.005 0,0.019 l -0.241,1.08 c 0,0.009 -0.005,0.009 -0.005,0.009 m -2.416,-2.353 c -0.005,-0.038 -0.023,-0.066 -0.023,-0.066 0,0 -0.019,-0.019 -0.053,-0.029 -0.453,-0.183 -0.957,-0.123 -0.957,-0.123 -0.817,0.09 -1.336,0.59 -1.501,1.236 -0.246,0.967 0.241,1.656 0.358,1.802 0.288,0.344 0.737,0.59 1.175,0.646 0.562,0.081 0.978,-0.052 1.147,-0.108 0,0 0.189,-0.062 0.331,-0.156 0.071,-0.047 0.08,-0.066 0.08,-0.066 0,0 0.005,-0.01 -0.014,-0.085 l -0.132,-0.693 c -0.005,-0.029 -0.023,-0.043 -0.023,-0.043 0,0 -0.01,-0.004 -0.076,0.038 -0.425,0.302 -0.921,0.264 -0.921,0.264 -0.377,-0.024 -0.816,-0.221 -0.948,-0.721 -0.118,-0.444 0.004,-0.817 0.269,-1.038 0.179,-0.156 0.457,-0.236 0.75,-0.222 0.321,0.024 0.576,0.151 0.557,0.142 0,0 0.014,0.005 0.028,0.009 0.066,0.033 0.081,0.029 0.081,0.029 0,0 0.014,-0.015 0.004,-0.057 l -0.132,-0.759 z"
             id="path3973"
             style="fill:#ffffff;fill-opacity:1;fill-rule:nonzero;stroke:none" />
        </g>
        <path
           d="m 630.822,182.475 22.393,0 0,5.598 -22.393,0 0,-5.598 z"
           id="path3975"
           style="fill:#0daa4c;fill-opacity:1;fill-rule:nonzero;stroke:none" />
        <g
           transform="translate(643.6209,185.2767)"
           id="g3977">
          <path
             d="m 0,0 -0.66,0 0,0.682 -0.458,0 0,-1.763 0.458,0 0,0.726 0.66,0 0,-0.726 0.458,0 0,1.763 L 0,0.682 0,0 z m 1.452,-0.693 -0.103,0 0,0.987 0.103,0 c 0.301,0 0.5,-0.193 0.5,-0.494 0,-0.3 -0.199,-0.493 -0.5,-0.493 M 2.171,0.416 C 2,0.593 1.797,0.682 1.565,0.682 l -0.674,0 0,-1.763 0.674,0 c 0.234,0 0.437,0.087 0.608,0.261 0.172,0.176 0.258,0.383 0.258,0.62 0,0.235 -0.086,0.44 -0.26,0.616 m -4.348,0.782 -0.623,0 0,-0.526 -0.205,0 0,-0.516 0.205,0 0,-1.237 0.623,0 0,1.237 0.357,0 0,0.516 -0.357,0 0,0.526 z M -3.33,0.696 C -3.49,0.696 -3.625,0.658 -3.736,0.582 -3.798,0.54 -3.857,0.475 -3.916,0.384 l 0,0.288 -0.623,0 0,-1.753 0.623,0 0,0.752 c 0,0.336 0.174,0.492 0.437,0.492 0.076,0 0.142,-0.011 0.197,-0.032 l 0.069,-0.031 0,0.589 c -0.031,0.004 -0.051,0.007 -0.065,0.007 l -0.052,0 z m -2.35,-1.181 c -0.08,-0.08 -0.174,-0.118 -0.284,-0.118 -0.226,0 -0.402,0.18 -0.402,0.406 0,0.107 0.038,0.2 0.118,0.28 0.079,0.08 0.173,0.118 0.284,0.118 0.11,0 0.204,-0.038 0.284,-0.118 0.079,-0.076 0.117,-0.17 0.117,-0.284 0,-0.111 -0.038,-0.204 -0.117,-0.284 m -0.295,1.223 c -0.294,0 -0.54,-0.084 -0.738,-0.25 -0.211,-0.176 -0.315,-0.415 -0.315,-0.71 0,-0.266 0.101,-0.488 0.302,-0.665 0.2,-0.173 0.453,-0.26 0.762,-0.26 0.294,0 0.54,0.08 0.741,0.243 0.214,0.173 0.322,0.405 0.322,0.7 0,0.277 -0.101,0.502 -0.302,0.679 C -5.4,0.651 -5.66,0.738 -5.975,0.738 m -2.1,-1.226 c -0.079,-0.077 -0.173,-0.115 -0.28,-0.115 -0.108,0 -0.205,0.038 -0.284,0.115 -0.08,0.079 -0.122,0.173 -0.122,0.284 0,0.221 0.18,0.398 0.402,0.398 0.225,0 0.405,-0.177 0.405,-0.402 0,-0.107 -0.041,-0.201 -0.121,-0.28 M -8.2,0.727 C -8.397,0.727 -8.556,0.669 -8.677,0.554 -8.691,0.537 -8.729,0.495 -8.743,0.478 l 0,0.194 -0.624,0 0,-2.66 0.624,0 0,1.081 c 0.111,-0.111 0.162,-0.146 0.284,-0.188 0.083,-0.027 0.173,-0.041 0.266,-0.041 0.125,0 0.243,0.024 0.35,0.073 0.336,0.142 0.537,0.478 0.537,0.855 0,0.26 -0.083,0.478 -0.253,0.662 -0.17,0.183 -0.381,0.273 -0.641,0.273 m -2.19,-0.225 c -0.191,0.059 -0.298,0.097 -0.326,0.111 -0.094,0.045 -0.142,0.107 -0.142,0.18 0,0.073 0.031,0.128 0.097,0.17 0.055,0.038 0.121,0.055 0.194,0.055 0.152,0 0.298,-0.059 0.44,-0.176 l 0.27,0.526 c -0.267,0.142 -0.544,0.211 -0.824,0.211 -0.26,0 -0.475,-0.079 -0.638,-0.242 -0.162,-0.16 -0.246,-0.371 -0.246,-0.634 0,-0.281 0.101,-0.474 0.305,-0.578 0.087,-0.045 0.17,-0.08 0.257,-0.104 l 0.138,-0.042 c 0.069,-0.021 0.114,-0.034 0.139,-0.041 0.072,-0.025 0.124,-0.045 0.159,-0.07 0.073,-0.052 0.107,-0.114 0.107,-0.187 0,-0.086 -0.034,-0.152 -0.1,-0.197 -0.059,-0.038 -0.132,-0.059 -0.225,-0.059 -0.194,0 -0.392,0.087 -0.596,0.263 l -0.287,-0.54 c 0.031,-0.021 0.058,-0.038 0.083,-0.055 0.052,-0.039 0.131,-0.077 0.232,-0.118 0.204,-0.083 0.398,-0.125 0.589,-0.125 0.19,0 0.367,0.035 0.523,0.104 0.183,0.083 0.311,0.201 0.391,0.353 0.066,0.125 0.097,0.281 0.097,0.471 0,0.191 -0.056,0.347 -0.166,0.464 -0.101,0.108 -0.26,0.194 -0.471,0.26"
             id="path3979"
             style="fill:#ffffff;fill-opacity:1;fill-rule:nonzero;stroke:none" />
        </g>
      </g>
    </g>
  </g>
</svg>
