<?xml version="1.0" encoding="UTF-8" standalone="no"?>
<!-- Created with Inkscape (http://www.inkscape.org/) -->

<svg
   xmlns:dc="http://purl.org/dc/elements/1.1/"
   xmlns:cc="http://creativecommons.org/ns#"
   xmlns:rdf="http://www.w3.org/1999/02/22-rdf-syntax-ns#"
   xmlns:svg="http://www.w3.org/2000/svg"
   xmlns="http://www.w3.org/2000/svg"
   version="1.1"
   width="600"
   height="232.26736"
   id="svg2">
  <metadata
     id="metadata24">
    <rdf:RDF>
      <cc:Work
         rdf:about="">
        <dc:format>image/svg+xml</dc:format>
        <dc:type
           rdf:resource="http://purl.org/dc/dcmitype/StillImage" />
        <dc:title></dc:title>
      </cc:Work>
    </rdf:RDF>
  </metadata>
  <defs
     id="defs22" />
  <g
     transform="matrix(0.77419355,0,0,0.77419355,-2.1962804e-5,0.00932406)"
     id="g9007">
    <rect
       width="775"
       height="200.00809"
       x="2.8368622e-05"
       y="99.99189"
       id="rect7781"
       style="fill:#3d961f;fill-opacity:1" />
    <rect
       width="400.01617"
       height="100.00404"
       x="2.8368622e-05"
       y="-0.012043579"
       id="rect7783" />
    <path
       d="m 74.219115,24.518546 c 0.175578,-0.827723 0.250826,-1.304291 0.250826,-1.454787 0,-0.526733 -0.250826,-0.928053 -0.702311,-1.229044 -5.693734,-3.712214 -12.616512,-5.568321 -20.768334,-5.568321 -10.233672,0 -18.711567,3.210564 -25.408602,9.631691 -6.671953,6.44621 -9.982847,14.598032 -9.982847,24.455466 0,9.531361 3.060069,17.25678 9.205289,23.176257 6.095054,5.919477 14.121463,8.854132 24.054145,8.854132 5.518156,0 9.857434,-0.953136 12.99275,-2.834325 0.601981,-0.351156 1.003301,-1.128714 1.153796,-2.382841 0,0 1.705612,-11.838953 1.755777,-12.315521 0.125413,-0.928054 -0.40132,-0.802641 -2.809243,-0.02508 -4.690433,1.354457 -8.52806,2.031685 -11.537963,2.031685 -4.765681,0 -8.72872,-1.580199 -11.838954,-4.815846 -3.110234,-3.210563 -4.690433,-7.299016 -4.690433,-12.265356 0,-5.342579 1.78086,-9.706939 5.317496,-13.067998 3.561719,-3.386141 8.12674,-5.066671 13.820474,-5.066671 5.467991,0 10.133341,1.254127 14.071298,3.737297 1.203962,0.777559 1.931355,1.153796 2.207263,1.153796 0.40132,0 0.677228,-0.60198 0.902971,-1.780859 l 2.006602,-10.233672 z"
       id="path7785"
       style="fill:#ffffff" />
    <path
       d="m 121.39935,19.7027 c -0.17558,-0.877888 -0.60198,-1.304291 -1.40462,-1.304291 h -18.88714 c -0.85281,0 -1.504955,0.376238 -1.881193,1.153796 L 70.130663,78.395818 c -0.10033,0.326073 -0.150495,0.576899 -0.150495,0.727394 0,0.426403 0.225743,0.576898 0.652146,0.576898 h 15.852158 c 0.978219,0 1.605282,-0.326073 1.956437,-0.978219 l 4.06337,-8.42773 c 0.351155,-0.652145 0.877888,-0.978218 1.655447,-0.978218 h 19.940614 c 0.75247,0 1.20396,0.351155 1.30429,1.053466 l 2.13201,8.502977 c 0.12542,0.551816 0.50165,0.827724 1.1538,0.827724 h 14.12146 c 0.52674,0 0.7274,-0.250825 0.7274,-0.727393 V 78.621561 L 121.39935,19.7027 z m -9.98284,35.893099 H 99.55247 c -0.376238,0 -0.551816,-0.10033 -0.551816,-0.250825 l 0.150495,-0.50165 7.901001,-17.984174 c 0.20066,-0.326073 0.32607,-0.50165 0.45148,-0.551815 0.1505,0.10033 0.30099,0.376238 0.40132,0.802641 l 4.1637,17.432357 c 0.12541,0.426403 0.17558,0.652146 0.17558,0.727394 0,0.20066 -0.27591,0.326072 -0.82772,0.326072"
       id="path7787"
       style="fill:#ffffff" />
    <path
       d="m 141.33996,78.872386 c 0,0.551816 0.47657,0.827724 1.40462,0.827724 h 13.66998 c 0.7274,0 1.17888,-0.376238 1.30429,-1.153796 l 4.8911,-34.965046 c 0.10033,-0.727393 0.20066,-1.078549 0.25082,-1.078549 0.17558,0.10033 0.37624,0.376238 0.62707,0.827724 l 20.06602,35.215871 c 0.4264,0.777558 1.07855,1.153796 1.93135,1.153796 h 13.99606 c 0.92805,0 1.45478,-0.326073 1.55511,-0.978219 l 8.17691,-59.420511 c 0,-0.601981 -0.35116,-0.902971 -1.07855,-0.902971 H 193.6872 c -1.0033,0 -1.53003,0.40132 -1.63036,1.229044 l -4.43961,31.704317 c -0.10033,0.827723 -0.22574,1.229043 -0.40132,1.229043 -0.1505,0 -0.40132,-0.30099 -0.72739,-0.902971 L 168.20335,19.552205 c -0.47657,-0.777558 -1.10363,-1.153796 -1.95644,-1.153796 h -15.52608 c -0.77756,0 -1.20396,0.351155 -1.32938,1.053466 l -8.05149,59.420511 z"
       id="path7789"
       style="fill:#ffffff" />
    <path
       d="M 270.89123,78.395818 258.55062,19.627453 c -0.15049,-0.827724 -0.62706,-1.229044 -1.45479,-1.229044 h -17.98417 c -0.87789,0 -1.50495,0.351155 -1.80594,1.053466 l -28.94524,59.094439 c -0.15049,0.326072 -0.25082,0.551815 -0.25082,0.752475 0,0.275908 0.22574,0.401321 0.67722,0.401321 h 15.67658 c 0.82773,0 1.40463,-0.30099 1.70562,-0.902971 l 4.4396,-8.578225 c 0.30099,-0.601981 0.87789,-0.902971 1.68053,-0.902971 h 18.88715 c 0.97822,0 1.5802,0.451485 1.70561,1.304291 l 1.55512,7.92608 c 0.20066,0.777558 0.67722,1.153796 1.5802,1.153796 h 13.97096 c 0.65215,0 1.00331,-0.150495 1.00331,-0.501651 0,-0.376238 -0.0502,-0.652145 -0.10033,-0.802641 M 249.72157,54.993819 c 0,0.376238 -0.30099,0.576898 -0.90297,0.576898 h -11.03631 c -0.67723,0 -1.05347,-0.175578 -1.05347,-0.526733 0,-0.175578 0.0752,-0.401321 0.20066,-0.727393 l 7.97625,-18.059421 c 0.25082,-0.451486 0.40132,-0.702311 0.50165,-0.752476 0.12541,0.10033 0.22574,0.351155 0.35115,0.752476 l 3.91288,17.883843 c 0,0.05016 0.0251,0.20066 0.0752,0.40132 v 0.451486 z"
       id="path7791"
       style="fill:#ffffff" />
    <path
       d="m 287.32028,18.373326 c -0.60198,0 -0.95313,0.426403 -1.05346,1.304292 l -8.50298,59.345264 c 0,0.426403 0.25082,0.652145 0.70231,0.652145 h 34.33798 c 0.70231,0 1.12871,-0.326073 1.22905,-0.978218 l 1.63036,-12.014532 c 0,-0.551815 -0.27591,-0.827723 -0.82772,-0.827723 h -16.3789 c -0.67722,0 -1.0033,-0.300991 -1.0033,-0.902971 v -0.150495 l 6.12014,-45.700368 c 0,-0.501651 -0.27591,-0.727394 -0.80264,-0.727394 h -15.45084 z"
       id="path7793"
       style="fill:#ffffff" />
    <path
       d="m 358.60483,56.574018 c 0,-0.727393 0.35115,-1.078549 1.05347,-1.078549 h 20.31684 c 0.5769,0 0.85281,-0.326073 0.85281,-0.953136 V 37.837369 c 0,-0.702311 -0.27591,-1.053466 -0.85281,-1.053466 h -20.5175 c -0.55182,0 -0.82773,-0.376238 -0.82773,-1.153797 V 16.768045 c 0,-0.551816 -0.35115,-0.827724 -1.05346,-0.827724 h -16.67989 c -0.52673,0 -0.82772,0.275908 -0.82772,0.827724 v 18.862061 c 0,0.777559 -0.32607,1.153797 -0.97822,1.153797 h -21.89705 c -0.57689,0 -0.87788,0.30099 -0.87788,0.902971 v 16.755129 c 0,0.702311 0.32607,1.053466 0.97821,1.053466 h 21.72147 c 0.70231,0 1.05347,0.401321 1.05347,1.229044 v 21.997378 c 0,0.652146 0.32607,0.978219 0.90297,0.978219 h 16.75513 c 0.60198,0 0.90297,-0.376238 0.90297,-1.153796 V 56.574018 z"
       id="path7795"
       style="fill:#ffffff" />
    <path
       d="m 64.763002,229.44281 h 6.697035 c 9.932682,0 17.833678,-2.95974 23.753155,-8.85413 5.794068,-5.81915 8.703638,-13.51949 8.703638,-23.15118 0,-9.60661 -2.88449,-17.33203 -8.703638,-23.12609 -5.919477,-5.91948 -13.820473,-8.85413 -23.753155,-8.85413 h -6.697035 v 63.98553 z M 35.09037,254.5755 V 140.27442 h 43.643601 c 9.481196,0 18.485823,2.48317 27.013879,7.44951 9.07988,5.24225 16.25348,12.46602 21.57098,21.64622 5.11684,8.82905 7.67525,18.20992 7.67525,28.1426 0,9.85743 -2.53333,19.21322 -7.6,28.04227 -5.29242,9.15512 -12.4911,16.37889 -21.57098,21.64622 -8.477893,4.91617 -17.482521,7.37426 -27.089129,7.37426 H 35.09037 z"
       id="path7797"
       style="fill:#ffffff" />
    <path
       d="m 202.06477,205.188 c -2.53334,-8.22707 -7.85084,-12.36568 -16.07791,-12.36568 -8.37756,0 -13.54456,4.13861 -15.47592,12.36568 h 31.55383 z m 25.45876,15.85216 h -57.76506 c 0.30099,6.49638 1.95644,11.08648 4.96634,13.77031 2.78416,2.40792 6.72212,3.63697 11.76371,3.63697 3.8627,0 6.92277,-0.82773 9.15512,-2.45809 1.32937,-1.0033 2.75908,-2.60858 4.23895,-4.84093 h 26.58748 c -1.78086,5.61849 -3.76238,9.7571 -5.94456,12.44093 -7.7505,9.38087 -19.16306,14.0713 -34.23766,14.0713 -13.94588,0 -24.95711,-4.03828 -33.0086,-12.06469 -7.52476,-7.34918 -11.23698,-17.05612 -11.23698,-29.09574 0,-13.09308 4.1637,-23.37691 12.4911,-30.80134 7.7505,-6.8977 17.95909,-10.35909 30.67594,-10.35909 13.87063,0 24.60596,4.21387 32.13072,12.59143 6.79736,7.52476 10.20859,17.60794 10.20859,30.19937 v 2.90957 z"
       id="path7799"
       style="fill:#ffffff" />
    <path
       d="m 283.23183,198.49097 c -4.86601,0 -9.02971,1.73069 -12.51618,5.21716 -3.36106,3.41123 -5.04159,7.49968 -5.04159,12.26536 0,4.81585 1.70561,8.92938 5.11684,12.3406 3.53663,3.53664 7.7505,5.29242 12.66667,5.29242 4.91618,0 9.13004,-1.7307 12.6416,-5.19209 3.41122,-3.4363 5.06667,-7.52475 5.06667,-12.29043 0,-4.81585 -1.70561,-8.95447 -5.14192,-12.41586 -3.41122,-3.51155 -7.67525,-5.21716 -12.79209,-5.21716 m -16.83038,90.07136 H 238.96117 V 177.49689 h 27.44028 v 8.55314 c 1.05347,-1.22904 2.03169,-2.33267 2.90958,-3.33597 5.66865,-5.11684 12.71684,-7.67526 21.21982,-7.67526 10.71024,0 19.81519,3.76238 27.31487,11.33731 7.87591,7.92607 11.81387,17.85876 11.81387,29.82312 0,11.9142 -3.91287,21.79672 -11.81387,29.69772 -7.39935,7.44951 -16.40397,11.16172 -27.03897,11.16172 -5.04159,0 -9.85743,-0.92805 -14.42245,-2.75908 -3.11023,-1.22904 -6.44621,-3.68713 -9.95776,-7.29901 v 41.56175 z"
       id="path7801"
       style="fill:#ffffff" />
    <path
       d="m 384.18901,198.18998 c -4.79076,0 -8.9043,1.73069 -12.36569,5.21716 -3.48647,3.41123 -5.21716,7.52476 -5.21716,12.34061 0,5.0165 1.73069,9.25545 5.21716,12.71684 3.43631,3.43631 7.57493,5.14192 12.41585,5.14192 4.8911,0 9.0548,-1.7307 12.51619,-5.19209 3.46138,-3.4363 5.21716,-7.6 5.21716,-12.51618 0,-4.91617 -1.73069,-9.07987 -5.14192,-12.4911 -3.4363,-3.48647 -7.65017,-5.21716 -12.64159,-5.21716 m 0.27591,-23.62775 c 9.88251,0 18.73665,2.23235 26.56239,6.69704 6.42113,3.68713 11.33731,8.55314 14.82378,14.59803 3.48647,5.99473 5.21717,12.71684 5.21717,20.16635 0,11.2119 -3.7373,20.59276 -11.2119,28.11752 -4.28911,4.21386 -9.43103,7.47459 -15.501,9.7571 -6.24555,2.38284 -12.99275,3.58681 -20.14127,3.58681 -14.69836,0 -26.53731,-4.48978 -35.44161,-13.39408 -7.52476,-7.44951 -11.23698,-16.60463 -11.23698,-27.46536 0,-11.51289 3.8878,-21.16966 11.61322,-28.94524 8.6033,-8.70364 20.39209,-13.11817 35.3162,-13.11817"
       id="path7803"
       style="fill:#ffffff" />
    <path
       d="m 442.80688,177.49689 h 27.44029 v 12.66668 c 4.11353,-6.94786 10.334,-11.28714 18.61123,-13.04292 4.11354,-0.72739 8.20199,-0.8528 12.26536,-0.35115 v 25.88517 c -4.06337,-1.83103 -7.85083,-2.75908 -11.36239,-2.75908 -5.96964,0 -10.71024,1.73069 -14.14654,5.21716 -1.98152,1.93136 -3.38614,4.13862 -4.1637,6.62179 -0.80264,2.43301 -1.20396,5.69374 -1.20396,9.83235 v 33.03369 h -27.44029 v -77.10369 z"
       id="path7805"
       style="fill:#ffffff" />
    <polygon
       points="410.064,77.729 410.064,76.825 410.423,76.825 410.423,75.9 411.518,75.9 411.518,76.825 412.141,76.825 412.141,77.729 411.518,77.729 411.518,79.898 410.423,79.898 410.423,77.729 "
       transform="matrix(25.082529,0,0,25.082529,-9777.4458,-1749.4684)"
       id="polygon7807"
       style="fill:#ffffff" />
    <path
       d="m 622.89944,205.188 c -2.53334,-8.22707 -7.87592,-12.36568 -16.0779,-12.36568 -8.37757,0 -13.51949,4.13861 -15.47592,12.36568 h 31.55382 z m 25.45876,15.85216 h -57.73998 c 0.30099,6.49638 1.95644,11.08648 4.96634,13.77031 2.78416,2.40792 6.69704,3.63697 11.76371,3.63697 3.86271,0 6.92278,-0.82773 9.15512,-2.45809 1.35446,-1.0033 2.734,-2.60858 4.23895,-4.84093 h 26.5624 c -1.75578,5.61849 -3.7373,9.7571 -5.91948,12.44093 -7.77558,9.38087 -19.16305,14.0713 -34.23765,14.0713 -13.9208,0 -24.93203,-4.03828 -33.03369,-12.06469 -7.49968,-7.34918 -11.21189,-17.05612 -11.21189,-29.09574 0,-13.09308 4.1637,-23.37691 12.4911,-30.80134 7.7505,-6.8977 17.95909,-10.35909 30.67593,-10.35909 13.89572,0 24.58088,4.21387 32.13072,12.59143 6.79737,7.52476 10.18351,17.60794 10.18351,30.19937 v 2.90957 z"
       id="path7809"
       style="fill:#ffffff" />
    <path
       d="m 720.57081,179.80448 -9.25546,17.63302 c -5.26733,-2.50825 -10.25875,-3.78746 -14.99935,-3.78746 -2.68383,0 -4.86601,0.65214 -6.47129,1.93135 -1.22905,1.0033 -1.85611,2.18218 -1.85611,3.56172 0,2.48317 2.40792,4.28912 7.14852,5.36766 l 1.10363,0.22575 c 1.83103,0.45148 3.98812,0.95313 6.47129,1.47987 4.96635,1.05346 9.0548,2.80924 12.2152,5.29241 5.26733,4.13862 7.87591,9.80727 7.87591,17.03104 0,10.43433 -4.53994,18.235 -13.59473,23.45216 -6.39605,3.66205 -14.09638,5.51816 -23.17626,5.51816 -10.23367,0 -20.64292,-3.00991 -31.1525,-9.00463 l 9.88252,-19.21322 c 8.15182,5.3175 15.45084,7.95116 21.97229,7.95116 2.60859,0 4.81585,-0.65214 6.54654,-2.0066 1.40463,-1.07855 2.08185,-2.38284 2.08185,-3.93795 0,-1.53004 -0.75247,-2.93466 -2.30759,-4.23895 -1.05347,-0.85281 -4.1637,-1.80594 -9.38087,-2.88449 -7.49967,-1.65545 -12.94258,-3.78746 -16.37889,-6.42113 -4.31419,-3.36106 -6.47129,-8.3274 -6.47129,-14.87394 0,-10.50958 4.3142,-18.235 12.96767,-23.15117 5.84423,-3.3109 12.99275,-4.99143 21.37031,-4.99143 3.91288,0 8.3274,0.42641 13.24358,1.27921 3.23564,0.50165 7.3241,1.75578 12.16503,3.78746"
       id="path7811"
       style="fill:#ffffff" />
  </g>
</svg>
