<?xml version="1.0" encoding="UTF-8" standalone="no"?>
<!-- Created with Inkscape (http://www.inkscape.org/) -->

<svg
   xmlns:dc="http://purl.org/dc/elements/1.1/"
   xmlns:cc="http://creativecommons.org/ns#"
   xmlns:rdf="http://www.w3.org/1999/02/22-rdf-syntax-ns#"
   xmlns:svg="http://www.w3.org/2000/svg"
   xmlns="http://www.w3.org/2000/svg"
   version="1.1"
   width="600"
   height="299.98535"
   id="svg4977">
  <defs
     id="defs4979">
    <clipPath
       id="clipPath3383">
      <path
         d="m 478.653,267.178 20.459,0 0,10.229 -20.459,0 0,-10.229 z"
         id="path3385" />
    </clipPath>
  </defs>
  <metadata
     id="metadata4982">
    <rdf:RDF>
      <cc:Work
         rdf:about="">
        <dc:format>image/svg+xml</dc:format>
        <dc:type
           rdf:resource="http://purl.org/dc/dcmitype/StillImage" />
        <dc:title></dc:title>
      </cc:Work>
    </rdf:RDF>
  </metadata>
  <g
     transform="translate(-50.000162,-382.36941)"
     id="layer1">
    <g
       transform="matrix(29.326947,0,0,-29.326947,-13987.431,8517.8698)"
       id="g3379">
      <g
         clip-path="url(#clipPath3383)"
         id="g3381">
        <path
           d="m 499.112,277.407 -20.459,0 0,-5.115 20.459,0 0,5.115 z"
           id="path3387"
           style="fill:#0d0906;fill-opacity:1;fill-rule:nonzero;stroke:none" />
        <g
           transform="translate(498.2693,274.624)"
           id="g3389">
          <path
             d="m 0,0 c 0,0 -0.005,-0.009 -0.018,-0.009 l -1.103,0 c -0.018,0 -0.027,-0.009 -0.027,-0.009 0,0 -0.012,-0.004 -0.012,-0.025 l 0,-1.176 c 0,-0.018 -0.009,-0.022 -0.009,-0.022 0,0 -0.005,-0.009 -0.017,-0.009 l -0.876,0 c -0.013,0 -0.022,0.009 -0.022,0.009 0,0 -0.004,0.004 -0.004,0.026 l 0,1.176 c 0,0.013 -0.012,0.021 -0.012,0.021 0,0 -0.005,0.009 -0.018,0.009 l -1.129,0 c -0.022,0 -0.026,0.004 -0.026,0.004 0,0 -0.009,0.009 -0.009,0.035 l 0,0.862 c 0,0.008 0.009,0.021 0.009,0.021 0,0 0.004,0.005 0.013,0.005 l 1.155,0 c 0.009,0 0.009,0.004 0.009,0.004 0,0 0.008,0.004 0.008,0.013 l 0,1.029 c 0,0.014 0.004,0.022 0.004,0.022 0,0 0.009,0.004 0.035,0.004 l 0.858,0 c 0.017,0 0.022,-0.004 0.022,-0.004 0,0 0.009,-0.008 0.009,-0.026 l 0,-1.034 1.12,0 C -0.009,0.926 0,0.922 0,0.922 c 0,0 0.012,-0.004 0.012,-0.03 l 0,-0.871 C 0.012,0.013 0,0 0,0 m -3.42,-1.211 c -0.004,-0.026 -0.009,-0.035 -0.009,-0.035 0,0 -0.004,-0.008 -0.025,-0.008 l -1.777,0 c -0.052,0 -0.065,0.013 -0.065,0.013 0,0 -0.008,0.017 -0.004,0.056 l 0.44,3.059 c 0.004,0.039 0.013,0.052 0.013,0.052 l 0.047,0 0.807,0 c 0.021,0 0.03,-0.004 0.03,-0.004 0,0 0.004,-0.013 0,-0.03 L -4.295,-0.5 c -0.005,-0.026 0.008,-0.031 0.008,-0.031 0,0 0.009,-0.003 0.043,-0.003 l 0.88,0 c 0.017,0 0.026,-0.009 0.026,-0.009 0,0 0.004,-0.004 0.004,-0.026 L -3.42,-1.211 z m -2.264,-0.048 -0.789,0 c -0.018,-0.008 -0.03,0.009 -0.03,0.009 0,0 -0.005,0.004 -0.009,0.031 l -0.103,0.486 c -0.009,0.026 -0.017,0.039 -0.017,0.039 0,0 -0.022,0.013 -0.048,0.013 l -1.026,0 c -0.022,0 -0.035,-0.013 -0.035,-0.013 0,0 -0.017,-0.017 -0.026,-0.044 l -0.232,-0.495 c -0.005,-0.013 -0.014,-0.017 -0.014,-0.017 0,0 -0.017,-0.004 -0.025,-0.004 l -0.888,0 c -0.023,-0.005 -0.031,0.008 -0.031,0.008 0,0 -0.004,0.009 0.008,0.027 l 1.566,3.123 c 0.009,0.005 0.017,0.018 0.017,0.018 0,0 0.009,0.004 0.035,0.004 l 0.97,0 c 0.022,0 0.035,-0.013 0.035,-0.013 0,0 0.004,-0.004 0.008,-0.018 l 0.651,-3.136 c 0,-0.009 -0.004,-0.013 -0.004,-0.013 0,0 0,-0.005 -0.013,-0.005 m -3.695,0.005 -0.79,0 -0.026,0 c 0,0 -0.004,0.004 -0.008,0.008 l -1.095,1.944 c -0.009,0.009 -0.013,0.009 -0.013,0.009 0,0 -0.009,0 -0.009,-0.014 l -0.271,-1.908 c -0.005,-0.022 -0.009,-0.026 -0.009,-0.026 0,0 -0.008,-0.005 -0.022,-0.005 l -0.785,0 c -0.012,0 -0.021,0.009 -0.021,0.009 0,0 -0.018,0.018 -0.013,0.035 l 0.431,3.089 c 0.004,0.017 0.013,0.022 0.013,0.022 0,0 0.013,0.013 0.026,0.013 l 0.876,0 c 0.012,0 0.021,-0.009 0.021,-0.009 0,0 0.009,-0.004 0.013,-0.018 l 0.988,-1.732 c 0.017,-0.034 0.029,-0.03 0.029,-0.03 0,0 0.014,0 0.022,0.039 l 0.25,1.723 c 0,0.014 0.009,0.018 0.009,0.018 0,0 0.004,0.009 0.017,0.009 l 0.824,-0.009 c 0.017,0 0.021,-0.004 0.021,-0.004 0,0 0.005,-0.005 0.005,-0.014 l -0.445,-3.114 c -0.004,-0.018 -0.013,-0.031 -0.013,-0.031 0,0 -0.004,-0.004 -0.025,-0.004 m -3.45,0.008 -0.768,-0.004 c -0.017,0 -0.03,0.009 -0.03,0.009 0,0 -0.004,0.004 -0.008,0.034 l -0.121,0.496 c 0,0.013 -0.009,0.017 -0.009,0.017 l -0.013,0 -1.082,0 c -0.022,0 -0.035,-0.017 -0.035,-0.017 0,0 -0.017,-0.013 -0.03,-0.043 l -0.215,-0.461 c -0.009,-0.018 -0.013,-0.022 -0.013,-0.022 0,0 -0.013,-0.009 -0.026,-0.009 l -0.893,0 c -0.026,-0.004 -0.03,0.009 -0.03,0.009 0,0 -0.004,0.013 0.004,0.03 l 1.549,3.111 c 0.008,0.018 0.021,0.022 0.021,0.022 l 0.03,0 0.988,0 c 0.017,0 0.03,-0.013 0.03,-0.013 0,0 0.004,-0.004 0.008,-0.018 l 0.665,-3.119 c 0,-0.013 -0.009,-0.017 -0.009,-0.017 0,0 -0.004,-0.005 -0.013,-0.005 m 5.847,2.271 c 0,0 -0.004,0 -0.008,-0.017 L -7.422,0.034 C -7.43,0.004 -7.426,0 -7.426,0 c 0,0 0.013,-0.009 0.022,-0.009 l 0.638,0.004 0.008,0 c 0,0 0.005,0.005 0,0.018 L -6.973,1.012 C -6.977,1.025 -6.982,1.025 -6.982,1.025 M -14.14,1.012 c 0,0 -0.004,0 -0.009,-0.008 L -14.58,0.025 c -0.008,-0.012 -0.004,-0.021 -0.004,-0.021 0,0 0.004,-0.004 0.026,-0.004 l 0.634,-0.005 c 0.004,0 0.008,0.005 0.008,0.005 0,0 0.004,0.004 0,0.017 l -0.22,0.987 c 0,0.008 -0.004,0.008 -0.004,0.008 m -2.208,-2.15 c -0.004,-0.034 -0.021,-0.06 -0.021,-0.06 0,0 -0.018,-0.017 -0.048,-0.026 -0.414,-0.168 -0.875,-0.112 -0.875,-0.112 -0.746,0.082 -1.221,0.539 -1.371,1.129 -0.225,0.883 0.22,1.512 0.327,1.646 0.263,0.315 0.673,0.539 1.074,0.59 0.513,0.074 0.893,-0.047 1.048,-0.099 0,0 0.172,-0.056 0.302,-0.142 0.064,-0.043 0.073,-0.06 0.073,-0.06 0,0 0.004,-0.009 -0.013,-0.078 l -0.121,-0.633 c -0.004,-0.026 -0.021,-0.039 -0.021,-0.039 0,0 -0.009,-0.004 -0.069,0.034 -0.388,0.276 -0.841,0.242 -0.841,0.242 -0.345,-0.022 -0.746,-0.203 -0.867,-0.659 -0.108,-0.406 0.004,-0.746 0.246,-0.949 0.164,-0.142 0.418,-0.215 0.686,-0.202 0.293,0.022 0.526,0.137 0.509,0.129 0,0 0.012,0.004 0.025,0.008 0.061,0.031 0.074,0.027 0.074,0.027 0,0 0.013,-0.013 0.004,-0.052 l -0.121,-0.694 z"
             id="path3391"
             style="fill:#ffffff;fill-opacity:1;fill-rule:nonzero;stroke:none" />
        </g>
        <path
           d="m 478.653,267.178 20.459,0 0,5.115 -20.459,0 0,-5.115 z"
           id="path3393"
           style="fill:#176fc1;fill-opacity:1;fill-rule:nonzero;stroke:none" />
        <g
           transform="translate(489.2297,269.1065)"
           id="g3395">
          <path
             d="m 0,0 -0.095,0 0,0.907 0.095,0 C 0.276,0.907 0.46,0.73 0.46,0.453 0.46,0.177 0.276,0 0,0 M 0.66,1.019 C 0.503,1.181 0.317,1.263 0.103,1.263 l -0.619,0 0,-1.619 0.619,0 c 0.216,0 0.402,0.08 0.559,0.239 C 0.82,0.045 0.9,0.235 0.9,0.453 0.9,0.669 0.82,0.857 0.66,1.019 m -1.994,-0.382 -0.606,0 0,0.626 -0.421,0 0,-1.619 0.421,0 0,0.667 0.606,0 0,-0.667 0.421,0 0,1.619 -0.421,0 0,-0.626 z m -2.305,0.636 c -0.237,0 -0.418,-0.101 -0.544,-0.3 C -4.31,1.172 -4.493,1.27 -4.731,1.27 -4.908,1.27 -5.06,1.217 -5.186,1.112 -5.218,1.084 -5.24,1.062 -5.256,1.049 l 0,0.196 -0.57,0 0,-1.601 0.57,0 0,0.791 c 0,0.127 0.013,0.218 0.041,0.272 0.038,0.076 0.136,0.136 0.222,0.136 0.114,0 0.205,-0.082 0.24,-0.193 0.006,-0.028 0.01,-0.098 0.01,-0.215 l 0,-0.791 0.569,0 0,0.791 c 0,0.06 0.003,0.111 0.01,0.149 0.016,0.136 0.123,0.246 0.262,0.246 0.098,0 0.177,-0.047 0.225,-0.183 0.009,-0.032 0.016,-0.101 0.016,-0.212 l 0,-0.791 0.569,0 0,1.041 c 0,0.161 -0.028,0.285 -0.088,0.373 -0.095,0.143 -0.247,0.215 -0.459,0.215 m -3.161,-1.629 0.57,0 0,2.373 -0.57,0 0,-2.373 z m -0.977,0 0.57,0 0,1.601 -0.57,0 0,-1.601 z m 0.285,2.395 c -0.177,0 -0.32,-0.142 -0.32,-0.322 0,-0.086 0.032,-0.159 0.095,-0.222 0.063,-0.06 0.139,-0.092 0.225,-0.092 0.174,0 0.323,0.139 0.323,0.317 0,0.177 -0.146,0.319 -0.323,0.319 m -1.944,-2.395 0.617,0 0,0.933 0.674,0 0,0.523 -0.674,0 0,0.395 0.74,0 0,0.522 -1.357,0 0,-2.373 z"
             id="path3397"
             style="fill:#ffffff;fill-opacity:1;fill-rule:nonzero;stroke:none" />
        </g>
      </g>
    </g>
  </g>
</svg>
