<?xml version="1.0" encoding="UTF-8" standalone="no"?>
<!-- Created with Inkscape (http://www.inkscape.org/) -->

<svg
   xmlns:dc="http://purl.org/dc/elements/1.1/"
   xmlns:cc="http://creativecommons.org/ns#"
   xmlns:rdf="http://www.w3.org/1999/02/22-rdf-syntax-ns#"
   xmlns:svg="http://www.w3.org/2000/svg"
   xmlns="http://www.w3.org/2000/svg"
   version="1.1"
   width="600"
   height="299.98535"
   id="svg4977">
  <defs
     id="defs4979">
    <clipPath
       id="clipPath3383">
      <path
         d="m 478.653,267.178 20.459,0 0,10.229 -20.459,0 0,-10.229 z"
         id="path3385" />
    </clipPath>
  </defs>
  <metadata
     id="metadata4982">
    <rdf:RDF>
      <cc:Work
         rdf:about="">
        <dc:format>image/svg+xml</dc:format>
        <dc:type
           rdf:resource="http://purl.org/dc/dcmitype/StillImage" />
        <dc:title></dc:title>
      </cc:Work>
    </rdf:RDF>
  </metadata>
  <g
     id="g221214">
    <path
       d="m 600.00017,1.3571e-5 -600.000007609,0 0,150.007336429 600.000007609,0 0,-150.007336429 z"
       id="path3387"
       style="fill:#0d0906;fill-opacity:1;fill-rule:nonzero;stroke:none" />
    <g
       transform="matrix(29.326947,0,0,-29.326947,575.28635,81.616907)"
       id="g3389">
      <path
         d="m 0,0 c 0,0 -0.005,-0.009 -0.018,-0.009 l -1.103,0 c -0.018,0 -0.027,-0.009 -0.027,-0.009 0,0 -0.012,-0.004 -0.012,-0.025 l 0,-1.176 c 0,-0.018 -0.009,-0.022 -0.009,-0.022 0,0 -0.005,-0.009 -0.017,-0.009 l -0.876,0 c -0.013,0 -0.022,0.009 -0.022,0.009 0,0 -0.004,0.004 -0.004,0.026 l 0,1.176 c 0,0.013 -0.012,0.021 -0.012,0.021 0,0 -0.005,0.009 -0.018,0.009 l -1.129,0 c -0.022,0 -0.026,0.004 -0.026,0.004 0,0 -0.009,0.009 -0.009,0.035 l 0,0.862 c 0,0.008 0.009,0.021 0.009,0.021 0,0 0.004,0.005 0.013,0.005 l 1.155,0 c 0.009,0 0.009,0.004 0.009,0.004 0,0 0.008,0.004 0.008,0.013 l 0,1.029 c 0,0.014 0.004,0.022 0.004,0.022 0,0 0.009,0.004 0.035,0.004 l 0.858,0 c 0.017,0 0.022,-0.004 0.022,-0.004 0,0 0.009,-0.008 0.009,-0.026 l 0,-1.034 1.12,0 C -0.009,0.926 0,0.922 0,0.922 c 0,0 0.012,-0.004 0.012,-0.03 l 0,-0.871 C 0.012,0.013 0,0 0,0 m -3.42,-1.211 c -0.004,-0.026 -0.009,-0.035 -0.009,-0.035 0,0 -0.004,-0.008 -0.025,-0.008 l -1.777,0 c -0.052,0 -0.065,0.013 -0.065,0.013 0,0 -0.008,0.017 -0.004,0.056 l 0.44,3.059 c 0.004,0.039 0.013,0.052 0.013,0.052 l 0.047,0 0.807,0 c 0.021,0 0.03,-0.004 0.03,-0.004 0,0 0.004,-0.013 0,-0.03 L -4.295,-0.5 c -0.005,-0.026 0.008,-0.031 0.008,-0.031 0,0 0.009,-0.003 0.043,-0.003 l 0.88,0 c 0.017,0 0.026,-0.009 0.026,-0.009 0,0 0.004,-0.004 0.004,-0.026 L -3.42,-1.211 z m -2.264,-0.048 -0.789,0 c -0.018,-0.008 -0.03,0.009 -0.03,0.009 0,0 -0.005,0.004 -0.009,0.031 l -0.103,0.486 c -0.009,0.026 -0.017,0.039 -0.017,0.039 0,0 -0.022,0.013 -0.048,0.013 l -1.026,0 c -0.022,0 -0.035,-0.013 -0.035,-0.013 0,0 -0.017,-0.017 -0.026,-0.044 l -0.232,-0.495 c -0.005,-0.013 -0.014,-0.017 -0.014,-0.017 0,0 -0.017,-0.004 -0.025,-0.004 l -0.888,0 c -0.023,-0.005 -0.031,0.008 -0.031,0.008 0,0 -0.004,0.009 0.008,0.027 l 1.566,3.123 c 0.009,0.005 0.017,0.018 0.017,0.018 0,0 0.009,0.004 0.035,0.004 l 0.97,0 c 0.022,0 0.035,-0.013 0.035,-0.013 0,0 0.004,-0.004 0.008,-0.018 l 0.651,-3.136 c 0,-0.009 -0.004,-0.013 -0.004,-0.013 0,0 0,-0.005 -0.013,-0.005 m -3.695,0.005 -0.79,0 -0.026,0 c 0,0 -0.004,0.004 -0.008,0.008 l -1.095,1.944 c -0.009,0.009 -0.013,0.009 -0.013,0.009 0,0 -0.009,0 -0.009,-0.014 l -0.271,-1.908 c -0.005,-0.022 -0.009,-0.026 -0.009,-0.026 0,0 -0.008,-0.005 -0.022,-0.005 l -0.785,0 c -0.012,0 -0.021,0.009 -0.021,0.009 0,0 -0.018,0.018 -0.013,0.035 l 0.431,3.089 c 0.004,0.017 0.013,0.022 0.013,0.022 0,0 0.013,0.013 0.026,0.013 l 0.876,0 c 0.012,0 0.021,-0.009 0.021,-0.009 0,0 0.009,-0.004 0.013,-0.018 l 0.988,-1.732 c 0.017,-0.034 0.029,-0.03 0.029,-0.03 0,0 0.014,0 0.022,0.039 l 0.25,1.723 c 0,0.014 0.009,0.018 0.009,0.018 0,0 0.004,0.009 0.017,0.009 l 0.824,-0.009 c 0.017,0 0.021,-0.004 0.021,-0.004 0,0 0.005,-0.005 0.005,-0.014 l -0.445,-3.114 c -0.004,-0.018 -0.013,-0.031 -0.013,-0.031 0,0 -0.004,-0.004 -0.025,-0.004 m -3.45,0.008 -0.768,-0.004 c -0.017,0 -0.03,0.009 -0.03,0.009 0,0 -0.004,0.004 -0.008,0.034 l -0.121,0.496 c 0,0.013 -0.009,0.017 -0.009,0.017 l -0.013,0 -1.082,0 c -0.022,0 -0.035,-0.017 -0.035,-0.017 0,0 -0.017,-0.013 -0.03,-0.043 l -0.215,-0.461 c -0.009,-0.018 -0.013,-0.022 -0.013,-0.022 0,0 -0.013,-0.009 -0.026,-0.009 l -0.893,0 c -0.026,-0.004 -0.03,0.009 -0.03,0.009 0,0 -0.004,0.013 0.004,0.03 l 1.549,3.111 c 0.008,0.018 0.021,0.022 0.021,0.022 l 0.03,0 0.988,0 c 0.017,0 0.03,-0.013 0.03,-0.013 0,0 0.004,-0.004 0.008,-0.018 l 0.665,-3.119 c 0,-0.013 -0.009,-0.017 -0.009,-0.017 0,0 -0.004,-0.005 -0.013,-0.005 m 5.847,2.271 c 0,0 -0.004,0 -0.008,-0.017 L -7.422,0.034 C -7.43,0.004 -7.426,0 -7.426,0 c 0,0 0.013,-0.009 0.022,-0.009 l 0.638,0.004 0.008,0 c 0,0 0.005,0.005 0,0.018 L -6.973,1.012 C -6.977,1.025 -6.982,1.025 -6.982,1.025 M -14.14,1.012 c 0,0 -0.004,0 -0.009,-0.008 L -14.58,0.025 c -0.008,-0.012 -0.004,-0.021 -0.004,-0.021 0,0 0.004,-0.004 0.026,-0.004 l 0.634,-0.005 c 0.004,0 0.008,0.005 0.008,0.005 0,0 0.004,0.004 0,0.017 l -0.22,0.987 c 0,0.008 -0.004,0.008 -0.004,0.008 m -2.208,-2.15 c -0.004,-0.034 -0.021,-0.06 -0.021,-0.06 0,0 -0.018,-0.017 -0.048,-0.026 -0.414,-0.168 -0.875,-0.112 -0.875,-0.112 -0.746,0.082 -1.221,0.539 -1.371,1.129 -0.225,0.883 0.22,1.512 0.327,1.646 0.263,0.315 0.673,0.539 1.074,0.59 0.513,0.074 0.893,-0.047 1.048,-0.099 0,0 0.172,-0.056 0.302,-0.142 0.064,-0.043 0.073,-0.06 0.073,-0.06 0,0 0.004,-0.009 -0.013,-0.078 l -0.121,-0.633 c -0.004,-0.026 -0.021,-0.039 -0.021,-0.039 0,0 -0.009,-0.004 -0.069,0.034 -0.388,0.276 -0.841,0.242 -0.841,0.242 -0.345,-0.022 -0.746,-0.203 -0.867,-0.659 -0.108,-0.406 0.004,-0.746 0.246,-0.949 0.164,-0.142 0.418,-0.215 0.686,-0.202 0.293,0.022 0.526,0.137 0.509,0.129 0,0 0.012,0.004 0.025,0.008 0.061,0.031 0.074,0.027 0.074,0.027 0,0 0.013,-0.013 0.004,-0.052 l -0.121,-0.694 z"
         id="path3391"
         style="fill:#ffffff;fill-opacity:1;fill-rule:nonzero;stroke:none" />
    </g>
    <path
       d="m 1.62391e-4,299.98535 600.000007609,0 0,-150.00733 -600.000007609,0 0,150.00733 z"
       id="path3393"
       style="fill:#176fc1;fill-opacity:1;fill-rule:nonzero;stroke:none" />
    <path
       d="m 378.18248,243.42834 -2.78606,0 0,-26.59954 2.78606,0 c 8.09424,0 13.4904,5.19087 13.4904,13.31443 0,8.09424 -5.39616,13.28511 -13.4904,13.28511 m 19.35579,-29.88416 c -4.60434,-4.75096 -10.05915,-7.15577 -16.33511,-7.15577 l -18.15338,0 0,47.48032 18.15338,0 c 6.33462,0 11.78943,-2.34615 16.39376,-7.00914 4.63366,-4.75096 6.97981,-10.32308 6.97981,-16.71636 0,-6.33462 -2.34615,-11.84808 -7.03846,-16.59905 m -58.47794,11.20289 -17.77213,0 0,-18.35866 -12.34664,0 0,47.48032 12.34664,0 0,-19.56107 17.77213,0 0,19.56107 12.34665,0 0,-47.48032 -12.34665,0 z M 203.46172,206.09514 c -6.95049,0 -12.25866,2.96202 -15.95386,8.79808 -3.72452,-5.83606 -9.09135,-8.7101 -16.07117,-8.7101 -5.19087,0 -9.64856,1.55433 -13.34376,4.63365 -0.93846,0.82116 -1.58365,1.46635 -2.05288,1.8476 l 0,-5.74808 -16.71636,0 0,46.95244 16.71636,0 0,-23.19761 c 0,-3.72452 0.38125,-6.39328 1.2024,-7.97693 1.11443,-2.22885 3.98847,-3.98847 6.51058,-3.98847 3.34328,0 6.01203,2.40481 7.03847,5.6601 0.17596,0.82116 0.29327,2.87405 0.29327,6.3053 l 0,23.19761 16.68703,0 0,-23.19761 c 0,-1.75962 0.088,-3.25529 0.29327,-4.36972 0.46923,-3.98846 3.60722,-7.21443 7.68366,-7.21443 2.87404,0 5.19087,1.37837 6.59857,5.36684 0.26394,0.93846 0.46923,2.96202 0.46923,6.21731 l 0,23.19761 16.68703,0 0,-30.52935 c 0,-4.72164 -0.82115,-8.35818 -2.58077,-10.93895 -2.78606,-4.19375 -7.24376,-6.30529 -13.46107,-6.30529 m -92.70248,47.77359 16.71636,0 0,-69.59284 -16.71636,0 z m -28.652427,0 16.71636,0 0,-46.95244 -16.71636,0 z m 8.35818,-70.23803 c -5.19087,0 -9.384623,4.16442 -9.384623,9.44327 0,2.52212 0.938462,4.66299 2.78606,6.51058 1.847598,1.75962 4.076446,2.69808 6.598563,2.69808 5.102889,0 9.472604,-4.07644 9.472604,-9.29664 0,-5.19087 -4.281734,-9.35529 -9.472604,-9.35529 m -57.011585,70.23803 18.094726,0 0,-27.36204 19.766363,0 0,-15.33799 -19.766363,0 0,-11.58415 21.701941,0 0,-15.30866 -39.796667,0 z"
       id="path3397"
       style="fill:#ffffff;fill-opacity:1;fill-rule:nonzero;stroke:none" />
    <g
       transform="scale(1.015064,0.98515956)"
       id="text3001"
       style="font-size:90.91802216px;font-style:normal;font-weight:normal;line-height:125%;letter-spacing:0px;word-spacing:0px;fill:#ffffff;fill-opacity:1;stroke:none;font-family:Sans">
      <path
         d="m 258.80318,242.59881 10.61007,-9.89976 c 3.58103,-3.10752 6.34822,-6.34825 8.30159,-9.72219 1.86448,-3.34428 2.79674,-7.41368 2.7968,-12.20823 -0.11844,-7.51726 -2.72286,-13.45119 -7.81327,-17.80182 -5.03131,-4.29131 -11.24641,-6.48139 -18.6453,-6.57025 -8.16844,0.0889 -14.5611,2.48611 -19.17802,7.19176 -4.67613,4.73537 -7.19176,11.12804 -7.5469,19.17802 l 19.66635,0 c -0.2072,-1.00621 -0.31078,-1.96807 -0.31076,-2.88558 -2e-5,-2.4268 0.66588,-4.42451 1.99771,-5.99313 1.27259,-1.53893 3.09272,-2.33801 5.46041,-2.39726 2.42681,0.0592 4.33574,0.97672 5.72677,2.7524 1.39096,1.80539 2.08646,3.86229 2.0865,6.17071 -0.0592,3.10759 -0.84352,6.14115 -2.35286,9.10068 -1.50942,2.90042 -3.32955,5.47524 -5.46041,7.72448 l -27.96795,30.45399 55.09242,0 0,-15.09382 z"
         id="path221212"
         style="fill:#ffffff;font-family:Futura Book;-inkscape-font-specification:Futura Book" />
    </g>
  </g>
</svg>
