<?xml version="1.0" encoding="UTF-8" standalone="no"?>
<!-- Created with Inkscape (http://www.inkscape.org/) -->

<svg
   xmlns:dc="http://purl.org/dc/elements/1.1/"
   xmlns:cc="http://creativecommons.org/ns#"
   xmlns:rdf="http://www.w3.org/1999/02/22-rdf-syntax-ns#"
   xmlns:svg="http://www.w3.org/2000/svg"
   xmlns="http://www.w3.org/2000/svg"
   version="1.1"
   width="600.00031"
   height="327.328"
   viewBox="0 0 600.00029 327.328"
   id="Layer_1"
   xml:space="preserve"><metadata
     id="metadata19"><rdf:RDF><cc:Work
         rdf:about=""><dc:format>image/svg+xml</dc:format><dc:type
           rdf:resource="http://purl.org/dc/dcmitype/StillImage" /><dc:title></dc:title></cc:Work></rdf:RDF></metadata><defs
     id="defs17" /><g
     id="g9427"><rect
       width="599.99988"
       height="218.22722"
       x="0.00043854877"
       y="109.10079"
       id="rect35"
       style="fill:#3d961f;fill-opacity:1" /><path
       d="m 98.751358,208.59613 h 64.130092 c -0.0514,9.04036 -0.53934,16.38566 -1.54097,22.0102 -2.38851,13.74034 -7.85896,24.98942 -16.41135,33.77297 -11.63433,11.89116 -26.967,17.84957 -45.946626,17.84957 -19.673068,0 -35.673488,-6.11251 -47.975575,-18.33755 -12.302088,-12.30209 -18.440291,-28.25114 -18.440291,-47.89853 0,-19.7758 6.11252,-35.75053 18.440291,-48.00125 12.481868,-12.50756 28.944579,-18.74849 49.362451,-18.74849 18.18346,0 32.66859,5.57319 43.48107,16.71954 3.54423,3.67265 7.67917,9.81085 12.4305,18.36324 l -30.76806,12.81575 c -2.59396,-5.47046 -4.98248,-9.34856 -7.21688,-11.68571 -5.2393,-5.5218 -11.63433,-8.29556 -19.159409,-8.29556 -10.375874,0 -18.722802,4.3404 -24.938053,12.99554 -5.110888,7.16551 -7.73054,15.92336 -7.73054,26.29923 0,12.63596 3.698331,22.60092 10.96658,29.9719 6.061153,6.11251 13.611914,9.16877 22.677962,9.16877 9.14309,0 15.94905,-3.05626 20.39219,-9.16877 2.20872,-2.97921 3.80105,-7.21689 4.82837,-12.7387 H 98.725675 v -25.09215"
       id="path51"
       style="fill:#ffffff" /><path
       d="m 223.15911,216.22394 c -5.18793,0 -9.68243,1.90053 -13.45781,5.70159 -3.77538,3.72402 -5.7016,8.21852 -5.7016,13.45782 0,5.47044 1.90054,10.09336 5.7016,13.89443 3.74969,3.72401 8.24419,5.59886 13.53486,5.59886 5.36772,0 9.91359,-1.90054 13.6376,-5.67592 3.77538,-3.74969 5.70159,-8.29556 5.70159,-13.66328 0,-5.34202 -1.87484,-9.88789 -5.62455,-13.61191 -3.72401,-3.77538 -8.32125,-5.70159 -13.79169,-5.70159 m 0.33388,-25.73422 c 10.76112,0 20.41787,2.43987 28.99594,7.29393 6.98574,4.00652 12.35346,9.32288 16.15452,15.92337 3.77538,6.54912 5.67591,13.89442 5.67591,22.0102 0,12.22505 -4.05789,22.44683 -12.25072,30.69102 -4.67428,4.59723 -10.29883,8.14146 -16.89932,10.6327 -6.80596,2.59397 -14.15125,3.90379 -21.98453,3.90379 -16.0261,0 -28.89321,-4.87974 -38.62701,-14.61354 -8.19283,-8.11579 -12.30209,-18.10642 -12.30209,-29.97189 0,-12.55892 4.23767,-23.08889 12.66165,-31.58992 9.42561,-9.52833 22.26704,-14.27966 38.57565,-14.27966 z"
       id="path53"
       style="fill:#ffffff" /><rect
       width="29.946211"
       height="124.69028"
       x="287.13458"
       y="153.06999"
       id="rect55"
       style="fill:#ffffff" /><path
       d="m 371.60602,218.40698 v 59.35308 H 341.6598 v -59.35308 h -10.81247 v -24.75827 h 10.81247 v 1.28414 l 0.48799,-10.7868 c 0.2825,-5.90705 2.69669,-11.50592 7.31961,-16.82227 3.98084,-4.69996 8.96332,-8.34693 14.81901,-10.9409 5.03383,-2.2344 10.19609,-3.33877 15.46108,-3.33877 2.49123,0 4.54586,0.20547 6.16388,0.56503 1.61802,0.38524 3.82675,1.25845 6.65186,2.61965 v 25.81126 c -4.31472,-2.00326 -7.73054,-3.00489 -10.22178,-3.00489 -3.39014,0 -6.03547,1.053 -7.96169,3.159 -1.82347,2.05463 -2.74806,4.93111 -2.74806,8.60375 v 6.34367 -3.49287 h 20.93153 v 24.75827 h -20.95721"
       id="path57"
       style="fill:#ffffff" /><g
       transform="matrix(1.0909188,0,0,1.0909188,-5.7281967e-6,-1.2644542e-7)"
       id="g3524"><path
         d="m 74.23348,24.51347 c 0.148417,-0.8163 0.247361,-1.31102 0.247361,-1.48417 0,-0.46999 -0.247361,-0.8905 -0.742084,-1.21207 -5.664578,-3.71043 -12.590699,-5.56564 -20.753627,-5.56564 -10.240765,0 -18.700528,3.2157 -25.379287,9.6471 -6.67876,6.4314 -10.01814,14.56959 -10.01814,24.43931 0,9.54816 3.067282,17.26583 9.177111,23.17777 6.134564,5.91194 14.173812,8.85554 24.093007,8.85554 5.491425,0 9.82025,-0.93997 12.986477,-2.84465 0.593668,-0.32157 0.989446,-1.11313 1.162599,-2.37467 0,0 1.682058,-11.84862 1.73153,-12.3186 0.148417,-0.93998 -0.371042,-0.79156 -2.81992,-0.0247 -4.675132,1.36049 -8.509235,2.0531 -11.502309,2.0531 -4.823549,0 -8.756596,-1.60785 -11.848614,-4.82355 -3.116755,-3.2157 -4.675132,-7.29716 -4.675132,-12.26913 0,-5.34301 1.781003,-9.69657 5.318272,-13.08542 3.537269,-3.36412 8.138192,-5.07091 13.80277,-5.07091 5.466688,0 10.14182,1.26154 14.074867,3.78463 1.187335,0.74209 1.92942,1.13786 2.201517,1.13786 0.371043,0 0.667876,-0.59366 0.890502,-1.80574 l 2.0531,-10.21602 z"
         id="path7701"
         style="fill:#ffffff" /><path
         d="m 121.40532,19.68992 c -0.17316,-0.86577 -0.64314,-1.31102 -1.40996,-1.31102 h -18.87368 c -0.86577,0 -1.484174,0.37104 -1.879954,1.13786 l -29.08971,58.87203 c -0.123681,0.32157 -0.173153,0.56894 -0.173153,0.71735 0,0.39578 0.222625,0.59367 0.643139,0.59367 h 15.880607 c 0.964709,0 1.632585,-0.34631 1.954155,-0.98945 l 4.081465,-8.43502 c 0.321569,-0.64314 0.865765,-0.96471 1.632585,-0.96471 h 19.962076 c 0.74208,0 1.18733,0.3463 1.28628,1.06365 l 2.12731,8.4845 c 0.12368,0.56893 0.49472,0.84103 1.1626,0.84103 h 14.12434 c 0.49472,0 0.74208,-0.24736 0.74208,-0.74208 V 78.63616 L 121.40532,19.68992 z m -9.99341,35.89215 H 99.563296 c -0.37104,0 -0.56893,-0.0989 -0.56893,-0.24736 l 0.17315,-0.49473 7.915574,-17.98318 c 0.17315,-0.32157 0.29683,-0.51946 0.42051,-0.56893 0.14842,0.099 0.29684,0.37104 0.39578,0.81629 l 4.18041,17.41425 c 0.0989,0.42052 0.17315,0.66788 0.17315,0.71735 0,0.22263 -0.29683,0.34631 -0.84103,0.34631"
         id="path7703"
         style="fill:#ffffff" /><path
         d="m 141.34265,78.85878 c 0,0.5442 0.46999,0.84103 1.38522,0.84103 h 13.65436 c 0.76682,0 1.18733,-0.39578 1.31101,-1.1626 L 162.591,43.5603 c 0.099,-0.71735 0.19789,-1.06366 0.24736,-1.06366 0.17316,0.099 0.37104,0.37105 0.64314,0.8163 l 20.03628,35.22427 c 0.44525,0.76682 1.08839,1.1626 1.95416,1.1626 h 13.97592 c 0.93997,0 1.45943,-0.34631 1.55838,-0.98945 L 209.1939,19.2694 c 0,-0.59366 -0.37104,-0.8905 -1.06365,-0.8905 H 193.6596 c -0.98944,0 -1.53364,0.42052 -1.63258,1.23681 l -4.42777,31.71174 c -0.0989,0.81629 -0.24737,1.21207 -0.39578,1.21207 -0.17316,0 -0.42052,-0.29683 -0.74209,-0.8905 L 168.15663,19.51676 c -0.44525,-0.76682 -1.08839,-1.13786 -1.95415,-1.13786 h -15.5343 c -0.76682,0 -1.21207,0.37104 -1.31102,1.06366 l -8.01451,59.41622 z"
         id="path7705"
         style="fill:#ffffff" /><path
         d="M 270.91059,78.38879 258.54252,19.61571 C 258.3941,18.79942 257.89938,18.3789 257.08308,18.3789 H 239.0999 c -0.86576,0 -1.45943,0.37104 -1.80574,1.06366 l -28.91655,59.09465 c -0.17315,0.32157 -0.24736,0.56893 -0.24736,0.74209 0,0.27209 0.19789,0.42051 0.64314,0.42051 h 15.70745 c 0.81629,0 1.38522,-0.32157 1.70679,-0.91524 l 4.40304,-8.58344 c 0.32157,-0.59367 0.91524,-0.8905 1.73153,-0.8905 h 18.87368 c 0.98945,0 1.55838,0.42051 1.73153,1.31101 l 1.53364,7.91557 c 0.17315,0.76682 0.69261,1.1626 1.55838,1.1626 h 13.97592 c 0.66788,0 0.98945,-0.17315 0.98945,-0.49472 0,-0.39578 -0.0247,-0.66788 -0.0742,-0.8163 M 249.73646,54.9884 c 0,0.37104 -0.32157,0.56893 -0.91524,0.56893 H 237.7889 c -0.69261,0 -1.06366,-0.17315 -1.06366,-0.49472 0,-0.17316 0.0742,-0.42052 0.17316,-0.74209 l 8.01451,-18.05738 c 0.22262,-0.44525 0.37104,-0.69262 0.46998,-0.74209 0.12369,0.099 0.22263,0.34631 0.34631,0.74209 l 3.90831,17.88423 c 0,0.0742 0.0247,0.19789 0.099,0.42051 v 0.42052 z"
         id="path7707"
         style="fill:#ffffff" /><path
         d="m 287.33539,18.3789 c -0.6184,0 -0.96471,0.44525 -1.06365,1.31102 l -8.50924,59.34201 c 0,0.44525 0.24736,0.66788 0.74209,0.66788 h 34.33377 c 0.71735,0 1.11312,-0.34631 1.21207,-0.98945 l 1.63258,-12.02176 c 0,-0.5442 -0.27209,-0.8163 -0.81629,-0.8163 h -16.4248 c -0.64314,0 -0.98945,-0.29683 -0.98945,-0.8905 v -0.17315 l 6.13457,-45.68766 c 0,-0.49473 -0.2721,-0.74209 -0.81629,-0.74209 h -15.43536 z"
         id="path7709"
         style="fill:#ffffff" /><path
         d="m 358.60023,56.54678 c 0,-0.69262 0.37104,-1.06366 1.06365,-1.06366 h 20.28364 c 0.59367,0 0.89051,-0.32157 0.89051,-0.96471 V 37.84625 c 0,-0.71735 -0.29684,-1.06365 -0.89051,-1.06365 h -20.531 c -0.54419,0 -0.81629,-0.39578 -0.81629,-1.1626 V 16.74632 c 0,-0.5442 -0.34631,-0.8163 -1.06365,-0.8163 h -16.67217 c -0.54419,0 -0.81629,0.2721 -0.81629,0.8163 V 35.62 c 0,0.76682 -0.32157,1.1626 -0.96471,1.1626 h -21.91623 c -0.59366,0 -0.8905,0.29683 -0.8905,0.8905 v 16.74637 c 0,0.71735 0.32157,1.06365 0.96471,1.06365 h 21.74308 c 0.71734,0 1.06365,0.42052 1.06365,1.23681 v 21.99043 c 0,0.64314 0.29683,0.98945 0.91524,0.98945 h 16.74637 c 0.59367,0 0.8905,-0.39578 0.8905,-1.1626 V 56.54678 z"
         id="path7711"
         style="fill:#ffffff" /><g
         transform="matrix(0.91665843,0,0,0.91665843,-68.749382,-87.494764)"
         id="g3382"><rect
           width="600"
           height="109.10062"
           x="75"
           y="95.449692"
           id="rect8117" /><path
           d="m 155.97067,122.16385 c 0.187,-0.90829 0.26714,-1.44256 0.26714,-1.60285 0,-0.561 -0.26714,-0.98843 -0.80142,-1.36243 -6.17097,-4.03383 -13.73108,-6.06411 -22.6536,-6.06411 -11.16652,0 -20.38291,3.52627 -27.67587,10.55209 -7.292969,6.99912 -10.926093,15.86821 -10.926093,26.63402 0,10.41852 3.339275,18.83348 10.017813,25.2983 6.70525,6.43812 15.46749,9.67053 26.28673,9.67053 5.98396,0 10.71237,-1.04185 14.1585,-3.12556 0.66785,-0.34728 1.06856,-1.20213 1.25556,-2.59127 0,0 1.84328,-12.90294 1.92343,-13.43722 0.13357,-1.01513 -0.42744,-0.85486 -3.07214,-0.0267 -5.12912,1.49599 -9.32323,2.24399 -12.58236,2.24399 -5.23598,0 -9.53696,-1.76314 -12.92966,-5.26269 -3.3927,-3.52627 -5.07569,-7.98753 -5.07569,-13.38379 0,-5.82368 1.92342,-10.57881 5.79697,-14.26536 3.84685,-3.68655 8.8691,-5.52983 15.06679,-5.52983 5.93054,0 11.05966,1.36242 15.33393,4.11398 1.30899,0.82814 2.11041,1.25557 2.40427,1.25557 0.42742,0 0.748,-0.66786 0.98843,-1.97685 l 2.21727,-11.1398 z"
           id="path8119"
           style="fill:#ffffff" /><path
           d="m 207.42213,116.92787 c -0.16028,-0.96171 -0.66786,-1.44256 -1.52271,-1.44256 h -20.59661 c -0.93499,0 -1.62956,0.42743 -2.03027,1.25557 l -31.76314,64.22083 c -0.1068,0.34728 -0.16027,0.61442 -0.16027,0.7747 0,0.42743 0.24042,0.64114 0.69456,0.64114 h 17.31077 c 1.06857,0 1.78985,-0.34728 2.13713,-1.06856 l 4.46127,-9.18967 c 0.34729,-0.72128 0.96171,-1.06856 1.78985,-1.06856 h 21.74532 c 0.82814,0 1.309,0.374 1.44256,1.1487 l 2.29743,9.26982 c 0.13356,0.61442 0.56099,0.90827 1.25555,0.90827 h 15.44079 c 0.53428,0 0.80142,-0.26714 0.80142,-0.80142 v -0.34728 l -13.30365,-64.30098 z m -10.87265,39.13624 h -12.92966 c -0.42742,0 -0.61443,-0.0802 -0.61443,-0.26714 l 0.16029,-0.53428 8.65539,-19.63491 c 0.18699,-0.32056 0.32057,-0.56099 0.45414,-0.61442 0.18699,0.13357 0.32056,0.42742 0.45414,0.90827 l 4.54141,18.99378 c 0.1068,0.45413 0.16028,0.72128 0.16028,0.80142 0,0.24042 -0.29385,0.34728 -0.88156,0.34728"
           id="path8121"
           style="fill:#ffffff" /><path
           d="m 229.19417,181.46928 c 0,0.61442 0.50757,0.90827 1.52271,0.90827 h 14.87978 c 0.82814,0 1.30899,-0.42742 1.44257,-1.25556 l 5.34283,-38.14782 c 0.1068,-0.80142 0.21371,-1.17542 0.26714,-1.17542 0.16028,0.13358 0.40071,0.40072 0.69457,0.88157 l 21.85218,38.44167 c 0.48085,0.82814 1.20213,1.25556 2.13713,1.25556 h 15.25378 c 1.01514,0 1.57613,-0.34728 1.7097,-1.06856 l 8.89582,-64.83526 c 0,-0.64114 -0.374,-0.98842 -1.14871,-0.98842 h -15.78806 c -1.06857,0 -1.65628,0.45414 -1.78986,1.33571 l -4.80854,34.59483 c -0.1068,0.90828 -0.26714,1.33571 -0.45414,1.33571 -0.16029,0 -0.42743,-0.29386 -0.80143,-0.96171 l -19.95547,-35.04897 c -0.48085,-0.82814 -1.20214,-1.25557 -2.16384,-1.25557 h -16.93678 c -0.82814,0 -1.309,0.40072 -1.41585,1.17542 l -8.73553,64.80855 z"
           id="path8123"
           style="fill:#ffffff" /><path
           d="m 370.53876,180.96171 -13.46393,-64.14069 c -0.18699,-0.88157 -0.72128,-1.33571 -1.60285,-1.33571 h -19.63491 c -0.93499,0 -1.60284,0.40072 -1.95012,1.17542 l -31.57614,64.46126 c -0.18699,0.34729 -0.26714,0.61442 -0.26714,0.80143 0,0.29384 0.24043,0.48085 0.72128,0.48085 h 17.12378 c 0.88157,0 1.49599,-0.32057 1.86999,-0.98843 l 4.80855,-9.34995 c 0.34728,-0.66785 0.98842,-0.98843 1.86998,-0.98843 h 20.59663 c 1.06856,0 1.68299,0.48086 1.86998,1.41586 l 1.70971,8.65538 c 0.16029,0.82814 0.748,1.25557 1.68299,1.25557 h 15.25378 c 0.72128,0 1.06856,-0.18701 1.06856,-0.56099 0,-0.42744 -0.0267,-0.72129 -0.0802,-0.88157 m -23.10772,-25.51203 c 0,0.40072 -0.32058,0.61443 -0.98843,0.61443 h -12.02137 c -0.7747,0 -1.17542,-0.18699 -1.17542,-0.53428 0,-0.187 0.0802,-0.45415 0.187,-0.80143 l 8.73553,-19.71504 c 0.24042,-0.48086 0.42743,-0.748 0.53428,-0.80142 0.13358,0.10691 0.24043,0.4007 0.34729,0.80142 l 4.30097,19.52805 c 0,0.0802 0.0267,0.21371 0.0802,0.45414 v 0.45413 z"
           id="path8125"
           style="fill:#ffffff" /><path
           d="m 388.46396,115.48531 c -0.66785,0 -1.04185,0.48085 -1.17542,1.44256 l -9.26982,64.7284 c 0,0.48086 0.26715,0.72128 0.80144,0.72128 h 37.45324 c 0.77471,0 1.22885,-0.34728 1.33571,-1.06856 l 1.78985,-13.11665 c 0,-0.58771 -0.29386,-0.88157 -0.88157,-0.88157 h -17.9252 c -0.72128,0 -1.06857,-0.34729 -1.06857,-0.98842 v -0.187 l 6.67854,-49.84862 c 0,-0.53428 -0.29386,-0.80142 -0.90828,-0.80142 h -16.82992 z"
           id="path8127"
           style="fill:#ffffff" /><path
           d="m 466.20216,157.13267 c 0,-0.7747 0.40071,-1.1487 1.17542,-1.1487 h 22.11932 c 0.64114,0 0.96171,-0.374 0.96171,-1.06856 v -18.19234 c 0,-0.77472 -0.32057,-1.14872 -0.96171,-1.14872 h -22.38647 c -0.58771,0 -0.90827,-0.42742 -0.90827,-1.28227 v -20.59662 c 0,-0.58771 -0.374,-0.88157 -1.14872,-0.88157 H 446.8611 c -0.58771,0 -0.88156,0.29386 -0.88156,0.88157 v 20.59662 c 0,0.85485 -0.374,1.28227 -1.06856,1.28227 h -23.90917 c -0.64115,0 -0.98843,0.29386 -0.98843,0.96171 v 18.2992 c 0,0.74799 0.374,1.14871 1.06857,1.14871 h 23.72216 c 0.77472,0 1.17543,0.42742 1.17543,1.33571 v 23.98931 c 0,0.72128 0.32057,1.06856 0.96171,1.06856 h 18.2992 c 0.64113,0 0.96171,-0.42742 0.96171,-1.25556 v -23.98932 z"
           id="path8129"
           style="fill:#ffffff" /><g
           transform="matrix(1.1295417,0,0,1.1295417,57.795833,94.469163)"
           id="g3189"><path
             d="m 399.95216,11.763127 c 45.57322,0 91.1345,0.01195 136.70773,0 -0.10752,25.528173 0.14335,51.068291 -0.13141,76.60841 -45.52544,-0.167242 -91.05088,0.03584 -136.57632,-0.107513 0.0239,-25.504281 0.012,-50.996616 0,-76.500897 z"
             id="path3091"
             style="fill:#ff0000" /><path
             d="m 410.02247,22.012623 c 5.37561,-0.01195 10.73927,-0.01195 16.10294,0.01195 -0.012,6.629918 0.0239,13.259837 -0.0358,19.889755 6.18792,0.01195 12.3639,0 18.55183,0.01195 -0.0478,-6.641864 -0.0239,-13.283729 -0.0239,-19.925593 5.19643,0.01195 10.40479,0.02389 15.61316,-0.03584 0.11946,18.695175 0.0717,37.402297 0.0239,56.097472 -5.22031,-0.08362 -10.42868,-0.05973 -15.64899,-0.04778 0,-7.908119 0.0478,-15.816238 -0.0239,-23.724357 -6.15209,0.03584 -12.29223,0.02389 -18.44432,0.01195 -0.0239,7.884227 -0.0119,15.7804 0,23.664628 -5.37561,0.05973 -10.75122,0.04778 -16.11488,0.03584 0.0119,-18.671284 0,-37.330622 0,-55.98996 z"
             id="path3097"
             style="fill:#ffffff" /><path
             d="m 474.52978,22.012623 c 13.2479,0.776477 27.53507,-2.401106 39.86314,3.846547 13.73766,7.406396 17.23778,27.033343 8.816,39.636161 -4.41995,7.143588 -12.45947,11.372401 -20.70207,12.101095 -9.31773,0.645073 -18.65934,0.358374 -27.98901,0.394211 0.0358,-18.659338 0.0119,-37.318676 0.0119,-55.978014 z"
             id="path3099"
             style="fill:#ffffff" /><path
             d="m 490.66856,34.030097 c 6.60603,-0.406157 14.65749,0.322536 18.3368,6.713539 3.30899,6.450731 3.22537,15.493701 -1.87549,21.036552 -4.31243,4.372162 -10.83484,4.109355 -16.50909,4.18103 0.0717,-10.643707 0,-21.287414 0.0478,-31.931121 z"
             id="path3109"
             style="fill:#ff0000" /></g></g></g></g></svg>