<?xml version="1.0" encoding="UTF-8" standalone="no"?>
<svg xmlns:rdf="http://www.w3.org/1999/02/22-rdf-syntax-ns#" xmlns="http://www.w3.org/2000/svg" height="883.32" width="600" version="1.1" xmlns:cc="http://creativecommons.org/ns#" xmlns:dc="http://purl.org/dc/elements/1.1/" viewBox="0 0 158.75 233.71206">
 <g transform="translate(75.646 -15.654)">
  <path fill="#f57116" d="m83.104 207.7h-158.75v-192.05l158.75 0.004v192.05z"/>
  <path fill="#fff" d="m31.974 86.756c0-15.22-12.183-27.532-27.244-27.532-15.284 0-27.467 12.312-27.467 27.532 0 15.224 12.183 27.534 27.244 27.534 15.284 0 27.467-12.09 27.467-27.534zm-68.888 112.37 39.87-49.03h-1.7705-1.55l-5.7594-0.22c-4.6511-0.22-14.842-2.46-21.043-4.92-24.807-9.41-39.649-30.45-39.649-56.861 0-37.605 29.238-63.571 71.324-63.571 40.534 0 69.551 25.295 69.551 60.662 0 19.47-9.526 43.87-25.251 64.69l-36.991 49.25h-48.731z"/>
  <g fill="#0e0b0c">
   <path d="m-54.747 248.11c-1.352 0.69-4.431 1.26-6.61 1.26-8.15 0-14.009-5.93-14.009-14.16 0-8.65 6.76-15.45 15.436-15.45 2.216 0 4.396 0.46 6.723 1.44 1.24 0.53 1.69 0.87 1.69 1.29v0.12l-0.676 5.57-0.262 0.73-0.262-0.12-0.414-0.34c-1.352-1.14-3.907-1.86-6.122-1.86-5.108 0-8.788 3.49-8.788 8.27 0 4.48 3.193 7.67 7.7 7.67 2.29 0 5.295-0.76 6.195-1.55l0.226-0.16 0.151 0.19-0.038 0.42-0.525 6.19-0.414 0.49z"/>
   <path d="m-34.31 237.9-1.05-4.97c-0.226-1.06-0.376-1.67-0.415-1.9-0.15-0.87-0.226-1.29-0.375-2.39l-0.337 0.99-0.94 2.39-2.629 5.88h5.746zm-10.742 10.9h-7.886l13.934-28.47h8.037l6.837 28.47h-7.512l-1.239-5.21h-9.802l-2.369 5.21z"/>
   <path d="m5.6273 248.8h-7.8109l-7.5101-12.76c-0.3383-0.6-0.7523-1.33-1.2013-2.24-0.941-1.78-1.315-2.58-2.256-4.82v1.29c0 2.09-0.077 3.65-0.3 5.39l-1.577 13.14h-7.136l3.455-28.47h7.7l8.0364 13.74 1.2031 2.28 1.0876 2.2 0.56298 1.06 0.038173-1.18c0.03817-1.1 0.15077-2.5 0.29964-3.72l1.7664-14.38h7.099l-3.4578 28.47z"/>
   <path d="m26.153 237.9-1.051-4.97c-0.227-1.06-0.376-1.67-0.414-1.9-0.148-0.87-0.224-1.29-0.374-2.39l-0.337 0.99-0.939 2.39-2.631 5.88h5.746zm-10.739 10.9h-7.8893l13.935-28.47h8.037l6.836 28.47h-7.512l-1.238-5.21h-9.803l-2.366 5.21z"/>
   <path d="m46.186 242.53h8.976l-0.752 6.27h-16.112l3.456-28.47h7.136l-2.703 22.2z"/>
   <path d="m75.931 229.74c0-2.58-2.065-4.67-4.619-4.67-2.592 0-4.657 2.09-4.657 4.67s2.065 4.67 4.62 4.67c2.591 0 4.656-2.05 4.656-4.67zm-11.681 19.06 6.761-8.32h-0.299-0.264l-0.977-0.03c-0.79-0.04-2.515-0.42-3.568-0.84-4.207-1.59-6.722-5.16-6.722-9.64 0-6.38 4.957-10.78 12.093-10.78 6.873 0 11.795 4.29 11.795 10.29 0 3.3-1.617 7.43-4.284 10.97l-6.27 8.35h-8.265z"/>
  </g>
 </g>
</svg>
