<?xml version="1.0" encoding="UTF-8" standalone="no"?>
<!-- Created with Inkscape (http://www.inkscape.org/) -->
<svg xmlns:rdf="http://www.w3.org/1999/02/22-rdf-syntax-ns#" xmlns="http://www.w3.org/2000/svg" height="114.74" width="600" version="1.1" xmlns:cc="http://creativecommons.org/ns#" xmlns:dc="http://purl.org/dc/elements/1.1/">
 <defs>
  <clipPath id="clipPath18" clipPathUnits="userSpaceOnUse">
   <path d="m0,0,680.32,0,0,963.78h-680.32v-963.78z"/>
  </clipPath>
 </defs>
 <metadata>
  <rdf:RDF>
   <cc:Work rdf:about="">
    <dc:format>image/svg+xml</dc:format>
    <dc:type rdf:resource="http://purl.org/dc/dcmitype/StillImage"/>
    <dc:title/>
   </cc:Work>
  </rdf:RDF>
 </metadata>
 <g transform="translate(-123.15062,129.52382)">
  <path d="m123.15-129.52,600,0,0,114.74-600,0,0-114.74z" fill-rule="nonzero" fill="#8a173b"/>
  <g transform="matrix(1.7885835,0,0,-1.7885835,-182.32155,1536.8798)">
   <g clip-path="url(#clipPath18)">
    <g transform="translate(481.3602,877.1436)">
     <path d="m0,0c-6.736,0-13.536,2.35-18.874,7.116l5.784,6.927c4.004-3.305,8.197-5.4,13.28-5.4,4.004,0,6.419,1.587,6.419,4.192v0.128c0,2.479-1.525,3.749-8.96,5.656-8.96,2.288-14.743,4.765-14.743,13.598v0.127c0,8.073,6.482,13.41,15.57,13.41,6.481,0,12.009-2.034,16.522-5.656l-5.084-7.371c-3.94,2.732-7.817,4.385-11.566,4.385-3.75,0-5.72-1.716-5.72-3.878v-0.126c0-2.924,1.906-3.876,9.596-5.846,9.024-2.352,14.108-5.594,14.108-13.346v-0.127c0-8.834-6.737-13.789-16.332-13.789m-49.745,19.254,11.82,0-5.909,14.425-5.911-14.425zm-17.539-18.619,19.065,44.802,9.024,0,19.064-44.802-10.232,0-4.067,9.977-18.81,0-4.067-9.977-9.977,0zm-19.514-0.319-17.984,44.801,10.802,0,11.63-31.328,11.629,31.328,10.549,0-17.985-44.801-8.641,0zm-63.09,0.319,0,44.482,9.024,0,20.843-27.389,0,27.389,9.659,0,0-44.482-8.324,0-21.543,28.279,0-28.279-9.659,0zm-35.192,18.619,11.819,0-5.909,14.425-5.91-14.425zm-17.539-18.619,19.064,44.802,9.024,0,19.064-44.802-10.232,0-4.065,9.977-18.812,0-4.066-9.977-9.977,0zm-19.691-0.763c-13.092,0-22.815,10.104-22.815,22.877v0.128c0,12.646,9.533,23.004,23.195,23.004,8.389,0,13.409-2.798,17.539-6.863l-6.228-7.181c-3.43,3.113-6.926,5.021-11.373,5.021-7.5,0-12.901-6.229-12.901-13.855v-0.126c0-7.627,5.274-13.981,12.901-13.981,5.082,0,8.197,2.034,11.691,5.211l6.228-6.292c-4.576-4.892-9.659-7.943-18.237-7.943m-79.05,45.584,44.81,0,0-44.81-44.81,0,0,44.81z" fill-rule="nonzero" fill="#FFF"/>
    </g>
   </g>
  </g>
 </g>
</svg>
