<?xml version="1.0" encoding="UTF-8" standalone="no"?>
<!-- Created with Inkscape (http://www.inkscape.org/) -->
<svg xmlns:rdf="http://www.w3.org/1999/02/22-rdf-syntax-ns#" xmlns="http://www.w3.org/2000/svg" height="84.113" width="600" version="1.1" xmlns:cc="http://creativecommons.org/ns#" xmlns:dc="http://purl.org/dc/elements/1.1/">
 <metadata>
  <rdf:RDF>
   <cc:Work rdf:about="">
    <dc:format>image/svg+xml</dc:format>
    <dc:type rdf:resource="http://purl.org/dc/dcmitype/StillImage"/>
    <dc:title/>
   </cc:Work>
  </rdf:RDF>
 </metadata>
 <g transform="translate(-87.773524,-580.02047)">
  <g transform="matrix(0.9399866,0,0,0.9399866,23.271608,37.332958)">
   <path fill-rule="nonzero" fill="#8a173b" d="m68.62,666.82,638.31,0,0-89.483-638.31,0,0,89.483z"/>
   <g transform="matrix(33.215745,0,0,-33.215745,510.57878,654.68155)">
    <path fill-rule="nonzero" fill="#FFF" d="m0,0c0.412,0,0.701,0.213,0.701,0.592v0.006c0,0.332-0.218,0.472-0.605,0.573-0.331,0.084-0.412,0.125-0.412,0.251v0.005c0,0.093,0.084,0.167,0.245,0.167s0.328-0.071,0.497-0.189l0.218,0.317c-0.194,0.155-0.431,0.243-0.709,0.243-0.391,0-0.669-0.23-0.669-0.576v-0.006c0-0.379,0.248-0.485,0.633-0.583,0.319-0.082,0.385-0.137,0.385-0.243v-0.006c0-0.112-0.104-0.18-0.276-0.18-0.218,0-0.398,0.09-0.57,0.232l-0.248-0.297c0.229-0.205,0.521-0.306,0.81-0.306m-2.131,0.827,0.254,0.619,0.253-0.619-0.507,0zm-0.753-0.8,0.428,0,0.175,0.429,0.808,0,0.174-0.429,0.44,0-0.819,1.924-0.388,0-0.818-1.924zm-0.832-0.013,0.371,0,0.772,1.923-0.453,0-0.499-1.345-0.5,1.345-0.464,0,0.773-1.923zm-2.71,0.013,0.415,0,0,1.215,0.925-1.215,0.357,0,0,1.91-0.415,0,0-1.176-0.895,1.176-0.387,0,0-1.91zm-1.512,0.8,0.254,0.619,0.254-0.619-0.508,0zm-0.753-0.8,0.429,0,0.174,0.429,0.808,0,0.175-0.429,0.439,0-0.819,1.924-0.387,0-0.819-1.924zm-0.846-0.032c0.369,0,0.587,0.131,0.783,0.341l-0.267,0.27c-0.15-0.137-0.284-0.224-0.502-0.224-0.327,0-0.554,0.273-0.554,0.6v0.006c0,0.327,0.232,0.595,0.554,0.595,0.191,0,0.341-0.082,0.488-0.216l0.268,0.308c-0.178,0.175-0.393,0.295-0.753,0.295-0.587,0-0.996-0.445-0.996-0.988v-0.005c0-0.549,0.417-0.982,0.979-0.982"/>
   </g>
   <g transform="matrix(33.215745,0,0,-33.215745,574.02085,590.25297)">
    <path stroke-linejoin="miter" d="M0,0-0.763-1.916" stroke="#FFF" stroke-linecap="butt" stroke-miterlimit="3.86400008" stroke-dasharray="none" stroke-width="0.12899999" fill="none"/>
   </g>
   <path fill-rule="nonzero" fill="#FFF" d="m81.342,653.9,63.641,0,0-63.641-63.641,0,0,63.641z"/>
   <g transform="matrix(33.215745,0,0,-33.215745,592.63827,653.8877)">
    <path fill-rule="nonzero" fill="#FFF" d="m0,0,0,1.916,0.422,0,0-0.758,0.886,0,0,0.758,0.747,0c0.602,0,1.018-0.413,1.018-0.953v-0.005c0-0.539-0.416-0.958-1.018-0.958h-0.747v0.769h-0.886v-0.769h-0.422zm1.729,0.38,0.326,0c0.345,0,0.578,0.233,0.578,0.572v0.006c0,0.339-0.233,0.577-0.578,0.577h-0.326v-1.155z"/>
   </g>
  </g>
 </g>
</svg>
