<?xml version="1.0" encoding="UTF-8" standalone="no"?>
<svg xmlns:rdf="http://www.w3.org/1999/02/22-rdf-syntax-ns#" xmlns="http://www.w3.org/2000/svg" height="327.26" width="600" version="1.1" xmlns:cc="http://creativecommons.org/ns#" xmlns:dc="http://purl.org/dc/elements/1.1/" viewBox="0 0 158.75 86.587967">
 <g display="none">
  <rect height="328.15" width="493.5" y="-127.96" x="-145.57"/>
 </g>
 <g transform="translate(.0000017357 .00048282)" fill="#49648c">
  <path d="m-0.00088607 24.05h158.75v-24.05h-158.75z"/>
  <path d="m-0.00088607 86.587h158.75v-24.047h-158.75z"/>
  <path d="m13.109 56.4c5.5 0 8.84-2.32 11.15-5.75l-5.88-4.26c-1.39 1.63-2.73 2.6-4.81 2.6-2.96 0-4.9998-2.45-4.9998-5.7v-0.09c0-3.05 2.0798-5.55 4.8998-5.55 2.13 0 3.48 0.97 4.68 2.63l5.97-4.44c-2.13-3.38-5.55-5.6-10.69-5.6-7.9198 0-13.43 5.97-13.43 13.05v0.1c0.00011393 7.08 5.5602 13.01 13.11 13.01m21.661-0.05c3.29 0 5.65-1.25 7.36-3.15v2.59h8.71v-14.39c0-3.52-0.79-6.11-2.69-7.97-1.99-1.99-5.05-3.05-9.53-3.05-4.311 0-7.321 0.78-10.151 1.94l1.81 6.2c2.22-0.87 4.261-1.38 6.901-1.38 3.38 0 5 1.48 5 4.07v0.42c-1.44-0.51-3.71-0.98-6.02-0.98-5.881 0-9.821 2.69-9.821 7.87v0.1c0 5 3.66 7.73 8.431 7.73m3.15-5.51c-1.81 0-3.1-1.02-3.1-2.73v-0.09c0-1.86 1.48-3.11 4.02-3.11 1.3 0 2.55 0.28 3.43 0.65v1.16c0 2.5-1.8 4.12-4.35 4.12m17.64 4.95h8.79v-13.56c0-2.73 1.58-4.21 3.71-4.21 2.08 0 3.52 1.48 3.52 4.21v13.56h8.8v-16.39c0-5.69-3.2-9.21-8.52-9.21-3.57 0-5.88 1.99-7.51 4.08v-3.52h-8.79zm36.06 0.19h8.01l10-25.23h-9.12l-4.81 14.63-4.82-14.63h-9.26zm26.16 0.37c3.29 0 5.65-1.25 7.36-3.15v2.59h8.7v-14.39c0-3.52-0.78-6.11-2.68-7.97-1.99-1.99-5.05-3.05-9.54-3.05-4.3 0-7.31 0.78-10.14 1.94l1.81 6.2c2.22-0.87 4.26-1.38 6.89-1.38 3.38 0 5.01 1.48 5.01 4.07v0.42c-1.44-0.51-3.71-0.98-6.02-0.98-5.88 0-9.82 2.69-9.82 7.87v0.1c0 5 3.66 7.73 8.43 7.73m3.15-5.51c-1.81 0-3.11-1.02-3.11-2.73v-0.09c0-1.86 1.48-3.11 4.03-3.11 1.3 0 2.55 0.28 3.43 0.65v1.16c0 2.5-1.81 4.12-4.35 4.12m27.59 5.51c6.11 0 10.23-2.87 10.23-8.38v-0.09c0-4.86-3.93-6.58-8.89-7.96-2.64-0.79-4.07-1.25-4.07-2.23v-0.09c0-0.7 0.69-1.21 2.04-1.21 1.99 0 4.81 0.88 7.4 2.32l3.01-5.55c-2.87-1.86-6.67-2.92-10.32-2.92-5.79 0-10.05 2.96-10.05 8.28v0.1c0 5.04 3.93 6.71 8.89 8.01 2.64 0.74 4.03 1.16 4.03 2.13v0.09c0 0.88-0.7 1.34-2.22 1.34-2.6 0-5.74-0.97-8.62-2.87l-3.28 5.33c3.47 2.5 7.64 3.7 11.85 3.7"/>
 </g>
</svg>
