<?xml version="1.0" encoding="UTF-8" standalone="no"?>
<!-- Created with Inkscape (http://www.inkscape.org/) -->

<svg
   xmlns:dc="http://purl.org/dc/elements/1.1/"
   xmlns:cc="http://creativecommons.org/ns#"
   xmlns:rdf="http://www.w3.org/1999/02/22-rdf-syntax-ns#"
   xmlns:svg="http://www.w3.org/2000/svg"
   xmlns="http://www.w3.org/2000/svg"
   xmlns:inkscape="http://www.inkscape.org/namespaces/inkscape"
   version="1.1"
   width="542"
   height="111"
   id="svg2">
  <metadata
     id="metadata24">
    <rdf:RDF>
      <cc:Work
         rdf:about="">
        <dc:format>image/svg+xml</dc:format>
        <dc:type
           rdf:resource="http://purl.org/dc/dcmitype/StillImage" />
      </cc:Work>
    </rdf:RDF>
  </metadata>
  <defs
     id="defs22" />
  <g
     transform="translate(100.65358,-120.1403)"
     id="layer1">
    <path
       d="m 391.68677,147.47707 c -5.82896,-1.05004 -11.68233,-1.2161 -17.2622,-0.0415 l 2.12694,-6.83749 -23.41593,1.38948 2.83267,-18.74447 -41.87957,2.14892 c -0.17094,-0.13675 -0.33699,-0.29791 -0.55677,-0.41757 -7.69461,-5.21846 -17.50639,-6.25385 -26.89084,-2.89616 -10.8081,3.89492 -18.52957,12.26595 -21.46236,22.72241 -3.66538,-1.6532 -9.96563,-2.40288 -15.67005,-1.6532 l -37.20566,4.98403 c -6.57131,-4.26854 -14.28302,-6.90829 -22.50753,-7.28924 -11.79221,-0.54456 -23.17418,3.72399 -31.23264,11.68965 -0.1514,0.15629 -0.28571,0.32722 -0.42978,0.48351 -6.88632,-3.96818 -15.0156,-5.83872 -23.20593,-5.19893 -2.35893,0.17094 -4.66902,0.57142 -6.90341,1.14284 l 1.00853,-4.99625 -18.20235,0.01 1.52133,-22.3317 -51.466696,5.42847 -0.0464,12.59317 c -5.147647,-0.45664 -14.053466,1.53355 -14.053466,1.53355 l -33.347375,7.25262 C 9.1882799,146.83239 4.6071673,145.89712 -0.21569916,145.797 -7.4438939,145.65293 -14.457196,147.52347 -20.701282,150.86162 l -0.307687,-0.23931 c -6.847249,-5.27707 -13.391696,-8.8057 -25.799283,-9.85086 -13.491816,-1.11841 -27.144802,2.98408 -37.449863,11.8899 -9.753179,8.40766 -15.533293,20.16324 -16.314715,32.4585 -0.77899,12.23909 4.124462,23.61617 12.722595,32.04825 9.208622,9.04013 22.341471,13.57973 36.021318,12.44666 10.559025,-0.87422 17.259757,-4.04877 23.391513,-7.96567 5.904653,3.82167 12.783648,5.88756 19.8848613,5.74593 21.7407497,-0.41025 76.1964057,-2.01217 76.1964057,-2.01217 0,0 -2.068338,-17.58454 -2.329627,-19.88242 1.987753,3.51397 4.476108,6.71782 7.49681,9.49433 8.158581,7.49192 19.379376,11.12067 30.780874,9.95586 l 19.78719,-1.99996 c 0,0 8.03404,1.59459 12.34409,1.59459 10.25378,0 20.15104,-3.82166 27.72843,-10.51751 7.91683,6.38084 18.04119,10.21715 28.99092,10.10727 6.53468,-0.083 12.71039,-1.59704 18.22189,-4.31983 l 0.0928,3.71666 c 22.63939,0.27106 80.57483,1.4725 106.37167,2.39068 l 0.3492,-5.06218 c 6.92051,4.44925 16.69567,6.96691 23.93363,7.19889 6.42968,0.21978 26.90061,0.10012 31.2766,0.0635 0.52502,0 6.56154,2.53231 13.2061,2.94256 11.20126,0.66177 21.70656,-3.07198 29.56967,-10.53216 7.86066,-7.45041 11.99978,-17.65291 12.20734,-29.22047 0.40537,-24.28038 -14.33429,-39.89914 -35.98468,-43.83558"
       inkscape:connector-curvature="0"
       id="path3104"
       style="fill:#40c2f3;fill-rule:nonzero;stroke:none" />
    <path
       d="m -57.88253,189.85236 c -7.003535,0.20757 -12.441775,-4.71053 -11.941173,-11.00834 0.503043,-6.35886 6.805736,-11.39662 13.8459,-11.20371 3.445602,0.0733 6.400371,1.38704 8.400334,3.44072 l 14.651746,-15.83121 c -5.760578,-4.44925 -8.974194,-6.63968 -18.451432,-7.43576 -20.463605,-1.71425 -39.72821,13.33309 -40.995586,33.34493 -1.242956,19.55764 15.482012,33.63797 35.410829,31.97988 9.272113,-0.76433 13.455187,-3.48467 20.485583,-8.11707 l -12.510149,-18.57597 c -2.334512,2.01706 -5.484637,3.31618 -8.896052,3.40653"
       inkscape:connector-curvature="0"
       id="path3106"
       style="fill:#ffffff;fill-rule:nonzero;stroke:none" />
    <path
       d="m 106.81042,172.50714 4.38332,-21.6968 -15.333055,0.25397 1.413893,-20.93247 -27.098404,2.85954 -0.644677,46.59743 c -0.327223,18.31713 13.799503,30.62215 30.497613,28.91278 3.63607,-0.20268 8.19032,-0.90108 8.19032,-0.90108 l -2.87662,-21.02526 c 0,0 -1.46518,0.22955 -4.41995,0.28571 -4.209932,0.11966 -7.230634,-3.15501 -7.027951,-7.32099 l 0.363851,-7.18912 z"
       inkscape:connector-curvature="0"
       id="path3108"
       style="fill:#ffffff;fill-rule:nonzero;stroke:none" />
    <path
       d="m 308.82137,208.88498 -20.02649,-0.64956 -2.8864,-34.20694 25.50137,-3.35281 z"
       inkscape:connector-curvature="0"
       id="path3110"
       style="fill:#ffffff;fill-rule:nonzero;stroke:none" />
    <path
       d="m 315.9348,143.16213 c 0.42001,11.17196 -8.29778,21.057 -18.51493,22.87138 -9.36979,1.6532 -17.85071,-3.90469 -19.76276,-12.93505 -2.11474,-9.85819 3.98283,-21.36958 14.725,-25.22787 11.95339,-4.30029 23.07895,2.91081 23.55269,15.29154"
       inkscape:connector-curvature="0"
       id="path3112"
       style="fill:#ffffff;fill-rule:nonzero;stroke:none" />
    <path
       d="m 357.17946,173.60358 7.75322,-24.93972 -20.92758,1.24784 2.84488,-18.87389 -25.29624,1.30889 c 0,0 -3.45049,32.94201 -5.0109,49.60593 -1.55552,16.64927 11.77512,29.14721 30.49273,29.63071 3.77527,0.2906 12.11455,0.19292 12.11455,0.19292 l -1.66297,-20.94223 c 0,0 -5.26242,0.12454 -9.83865,0.1807 -5.70197,0.0904 -8.52487,-3.63363 -7.98032,-7.8338 l 1.08179,-9.61398 z"
       inkscape:connector-curvature="0"
       id="path3114"
       style="fill:#ffffff;fill-rule:nonzero;stroke:none" />
    <path
       d="m 393.94314,154.28769 c -16.29519,-3.48712 -31.91151,6.6348 -33.70635,23.8799 -1.92914,18.41725 12.64934,35.27652 31.08612,36.39494 16.85684,1.02562 29.40118,-11.88501 29.26687,-27.87739 -0.11966,-15.09374 -11.59442,-29.17895 -26.64664,-32.39745 m -4.04389,38.66352 c -5.71906,-0.65689 -10.18052,-5.93396 -9.83132,-11.65303 0.35164,-5.58964 5.20381,-9.29165 10.68845,-8.38568 5.35033,0.89864 9.4577,5.86558 9.33316,11.20859 -0.1343,5.46021 -4.64216,9.47479 -10.19029,8.83012"
       inkscape:connector-curvature="0"
       id="path3116"
       style="fill:#ffffff;fill-rule:nonzero;stroke:none" />
    <path
       d="m -5.1777572,152.86891 c -15.8971448,-0.30768 -30.6807568,13.13285 -32.6245548,29.29373 -1.990196,16.73962 10.356343,28.9958 24.302363,28.71986 4.559135,-0.0781 10.0242363,-1.87786 12.62736322,-4.02435 l -0.25884752,3.27955 19.6895053,-0.63246 2.012173,-28.19729 C 21.74971,164.98835 10.399491,153.19613 -5.1777572,152.86891 m -3.6482848,37.14462 c -5.777672,0.24908 -9.838648,-4.32715 -8.949775,-10.00958 0.864453,-5.49685 6.0121,-9.75807 11.3819649,-9.72388 5.2306734,0.0269 8.9839623,4.15621 8.5126645,9.39177 -0.4786237,5.38452 -5.3356776,10.09505 -10.9448544,10.34169"
       inkscape:connector-curvature="0"
       id="path3118"
       style="fill:#ffffff;fill-rule:nonzero;stroke:none" />
    <path
       d="m 44.657716,151.98004 -0.390714,-3.18676 -21.076537,4.45169 c 1.008529,14.77385 2.605569,39.85031 3.316179,56.10398 l 25.535552,-0.31745 c 0,0 -3.333273,-28.40974 -3.47979,-32.48048 -0.134308,-4.09028 3.411415,-7.00354 8.090206,-6.81551 3.311294,0.12943 5.142763,1.17947 5.142763,1.17947 l 4.305171,-22.77126 c -10.632284,-2.39311 -18.192585,0.84736 -21.44283,3.83632"
       inkscape:connector-curvature="0"
       id="path3120"
       style="fill:#ffffff;fill-rule:nonzero;stroke:none" />
    <path
       d="m 254.91516,150.97151 c -5.07439,-0.0635 -10.41251,2.17823 -13.45519,3.84853 l -0.23443,-3.24048 -19.82381,2.79604 c 1.34063,13.25495 3.03047,39.24959 3.28443,52.79024 l 19.44531,0.26373 -1.49203,-28.0239 c -0.37851,-5.76058 3.29664,-9.18665 8.55417,-9.22328 6.03164,-0.0464 8.27091,4.68368 8.06335,9.88016 l -1.04028,27.37191 20.08022,0.76921 1.73135,-25.95801 c 1.57018,-22.23891 -9.75318,-31.42555 -25.11309,-31.27415"
       inkscape:connector-curvature="0"
       id="path3122"
       style="fill:#ffffff;fill-rule:nonzero;stroke:none" />
    <path
       d="m 135.93565,154.67352 c -14.66151,1.12818 -26.51966,12.92528 -27.02026,26.81758 -0.54456,14.42708 11.22568,26.51478 26.92258,26.51478 16.4295,0 29.8627,-13.14262 29.29617,-28.74673 -0.54456,-15.00827 -13.87032,-25.76021 -29.19849,-24.58563"
       inkscape:connector-curvature="0"
       id="path3124"
       style="fill:#ffffff;fill-rule:nonzero;stroke:none" />
    <path
       d="m 188.85532,147.86778 c -17.18894,-0.79608 -31.05194,12.00467 -30.44389,28.83952 0.60316,17.13278 15.85807,31.09101 33.5061,30.9103 17.07905,-0.17093 29.6356,-13.60658 28.56847,-29.76502 -1.05981,-15.89959 -15.01072,-29.22046 -31.63068,-29.9848"
       inkscape:connector-curvature="0"
       id="path3126"
       style="fill:#ffffff;fill-rule:nonzero;stroke:none" />
    <path
       d="m 137.49118,188.57278 c -5.19893,0.14407 -9.29165,-3.74841 -9.22816,-8.61523 0.0781,-4.79845 4.19528,-8.87163 9.2599,-9.14025 5.14521,-0.27106 9.40887,3.46758 9.46259,8.40522 0.0562,5.00357 -4.23435,9.22572 -9.49433,9.35026"
       inkscape:connector-curvature="0"
       id="path3128"
       style="fill:#65329a;fill-rule:nonzero;stroke:none" />
    <path
       d="m 190.06653,186.52886 c -5.75081,-0.0635 -10.67624,-4.61774 -10.9302,-10.19029 -0.25397,-5.54813 4.19528,-9.87772 9.91434,-9.72388 5.64825,0.15629 10.43205,4.65437 10.72752,10.08285 0.32723,5.4651 -3.9926,9.87771 -9.71166,9.83132"
       inkscape:connector-curvature="0"
       id="path3130"
       style="fill:#65329a;fill-rule:nonzero;stroke:none" />
    <path
       d="m 430.06946,221.40978 -2.01706,0 0,-1.13795 5.35277,0 0,1.13795 -1.98043,0 0,7.33564 -1.35528,0 z"
       inkscape:connector-curvature="0"
       id="path3132"
       style="fill:#000000;fill-rule:nonzero;stroke:none" />
    <path
       d="m 434.17683,220.27183 2.11229,0 1.49692,6.27827 0.022,0 1.4725,-6.27827 2.0659,0 0,8.47359 -1.28203,0 0,-7.04993 -0.0244,0 -1.70937,7.04993 -1.13795,0 -1.70937,-7.04993 -0.0244,0 0,7.04993 -1.28203,0 z"
       inkscape:connector-curvature="0"
       id="path3134"
       style="fill:#000000;fill-rule:nonzero;stroke:none" />
  </g>
</svg>
