<?xml version="1.0" encoding="UTF-8" standalone="no"?>
<!-- Created with Inkscape (http://www.inkscape.org/) -->

<svg
   xmlns:dc="http://purl.org/dc/elements/1.1/"
   xmlns:cc="http://creativecommons.org/ns#"
   xmlns:rdf="http://www.w3.org/1999/02/22-rdf-syntax-ns#"
   xmlns:svg="http://www.w3.org/2000/svg"
   xmlns="http://www.w3.org/2000/svg"
   xmlns:inkscape="http://www.inkscape.org/namespaces/inkscape"
   version="1.0"
   width="729"
   height="124"
   id="svg2">
  <metadata
     id="metadata30">
    <rdf:RDF>
      <cc:Work
         rdf:about="">
        <dc:format>image/svg+xml</dc:format>
        <dc:type
           rdf:resource="http://purl.org/dc/dcmitype/StillImage" />
      </cc:Work>
    </rdf:RDF>
  </metadata>
  <defs
     id="defs28" />
  <g
     transform="translate(-338.54992,-378.4546)"
     id="layer1">
    <path
       d="m 330.655,534.396 c -1.546,-0.007 -2.804,-1.025 -3.471,-2.249 0.675,-1.217 1.937,-2.205 3.471,-2.205 1.563,0 2.814,0.981 3.473,2.205 -0.659,1.224 -1.898,2.257 -3.473,2.249 m 0,-6.009 c -2.08,0 -3.767,1.695 -3.767,3.785 0,2.09 1.687,3.784 3.767,3.784 2.082,0 3.771,-1.694 3.771,-3.784 0,-2.09 -1.689,-3.785 -3.771,-3.785"
       inkscape:connector-curvature="0"
       transform="matrix(11.261466,0,0,11.261466,-3130.95,-5535.5042)"
       id="path1089"
       style="fill:#d10000" />
    <path
       d="m 330.655,534.179 c 1.104,0 1.998,-0.9 1.998,-2.007 0,-1.107 -0.894,-2.007 -1.998,-2.007 -1.101,0 -1.997,0.899 -1.997,2.007 0,1.107 0.896,2.007 1.997,2.007"
       inkscape:connector-curvature="0"
       transform="matrix(11.261466,0,0,11.261466,-3130.95,-5535.5042)"
       id="path1091"
       style="fill:#d10000" />
    <path
       d="m 314.437,528.405 3.429,0 c 1.454,0 2.47,0.895 2.47,1.811 0,0.687 -0.26,1.335 -1.696,1.649 0.554,0.075 2.063,0.481 2.063,1.924 0,1.445 -1.584,2.149 -2.672,2.149 l -3.594,0 0,-0.076 3.559,0 c 0.846,0 1.386,-0.35 1.386,-1.963 0,-1.609 -0.592,-1.979 -1.332,-1.996 l -1.105,0 0,-0.077 1.171,0 c 0.48,0 0.986,-0.074 0.986,-1.627 0,-1.555 -0.609,-1.721 -1.254,-1.721 l -0.903,0 0,7.384 -1.362,0 0,-7.384 -1.145,0 0,-0.073 -10e-4,0 z"
       inkscape:connector-curvature="0"
       transform="matrix(11.261466,0,0,11.261466,-3130.95,-5535.5042)"
       id="path1093"
       style="fill:#d10000" />
    <path
       d="m 309.596,532.219 c 0,-2.851 0.828,-3.872 1.809,-3.872 1.383,0 2.136,2.056 2.376,2.853 l 0,-2.76 c -0.24,0.186 -0.35,0.277 -0.61,0.277 -0.258,0 -0.646,-0.13 -0.828,-0.239 -0.185,-0.111 -0.552,-0.204 -0.921,-0.204 -1.216,0 -3.336,1.61 -3.336,3.945 0,2.757 1.881,3.942 3.336,3.942 0.369,0 0.772,-0.148 0.958,-0.26 0.184,-0.111 0.533,-0.261 0.791,-0.261 0.261,0 0.37,0.095 0.61,0.279 l 0,-2.776 c -0.203,1.073 -0.993,2.943 -2.376,2.943 -0.398,0 -0.943,-0.186 -1.191,-0.446 -0.076,-0.077 -0.618,-0.463 -0.618,-3.421"
       inkscape:connector-curvature="0"
       transform="matrix(11.261466,0,0,11.261466,-3130.95,-5535.5042)"
       id="path1095"
       style="fill:#d10000" />
    <path
       d="m 325.617,534.456 c -0.02,0.61 -0.482,1.426 -1.439,1.404 -0.957,-0.017 -2.119,-0.737 -2.561,-2.683 l 0,2.63 c 0.183,-0.168 0.497,-0.464 0.996,-0.243 0.495,0.225 1.233,0.372 1.564,0.372 0.329,0 2.157,-0.353 2.231,-2.463 0.017,-1.056 -0.738,-1.591 -1.197,-1.758 -0.536,-0.203 -1.293,-0.445 -1.734,-0.595 -0.44,-0.146 -1.16,-0.608 -1.144,-1.462 0.021,-0.849 0.537,-1.313 1.236,-1.313 0.7,0 1.642,0.554 2.12,2.519 l 0,-2.611 c -0.275,0.241 -0.494,0.352 -0.664,0.352 -0.146,0 -0.574,-0.168 -0.792,-0.232 -0.24,-0.075 -0.476,-0.106 -0.775,-0.101 -0.525,0.007 -1.759,0.648 -1.842,2.371 -0.063,1.257 0.865,1.74 1.289,1.885 0.368,0.131 1.439,0.522 1.754,0.65 0.312,0.128 0.994,0.572 0.958,1.278"
       inkscape:connector-curvature="0"
       transform="matrix(11.261466,0,0,11.261466,-3130.95,-5535.5042)"
       id="path1097"
       style="fill:#d10000" />
    <path
       d="m 337.246,532.058 c 0,1.02 0.645,1.858 1.671,1.858 0.99,0 1.814,-0.732 1.814,-1.799 0,-1.079 -0.765,-1.824 -1.743,-1.824 -1.063,0 -1.742,0.793 -1.742,1.765 m 1.299,-3.826 c 0.896,0 1.457,0.3 2.114,0.899 l 0,-0.756 2.197,0 0,7.364 -2.233,0 0,-0.72 c 0,0 -0.8,0.899 -2.196,0.899 -2.042,0 -3.438,-1.464 -3.438,-3.826 0.001,-2.05 1.516,-3.86 3.556,-3.86"
       inkscape:connector-curvature="0"
       transform="matrix(11.261466,0,0,11.261466,-3130.95,-5535.5042)"
       id="path1099"
       style="fill:#ff4000" />
    <path
       d="m 348.903,535.499 c 0,0 -1.075,0.42 -1.78,0.42 -2.268,0 -3.784,-1.631 -3.784,-3.79 0,-2.134 1.552,-3.896 3.821,-3.896 0.68,0 1.098,0.083 1.707,0.359 l 0,2.315 c -0.251,-0.265 -0.967,-0.6 -1.624,-0.6 -0.967,0 -1.684,0.898 -1.684,1.882 0,0.996 0.801,1.668 1.778,1.668 0.621,0 1.338,-0.312 1.565,-0.493 l 0,2.135 0.001,0 z"
       inkscape:connector-curvature="0"
       transform="matrix(11.261466,0,0,11.261466,-3130.95,-5535.5042)"
       id="path1101"
       style="fill:#ff4000" />
    <polygon
       points="350.148,526.552 352.38,526.552 352.38,528.375 353.562,528.375 353.562,530.415 352.38,530.415 352.38,535.74 350.148,535.74 350.148,535.74 350.148,530.404 349.419,530.404 349.419,528.375 350.148,528.375 "
       transform="matrix(11.261466,0,0,11.261466,-3130.95,-5535.5042)"
       id="polygon1103"
       style="fill:#ff4000" />
    <path
       d="m 354.401,528.375 2.22,0 0,7.365 -2.22,0 0,-7.365 z m 1.122,-3.225 c 0.74,0 1.351,0.587 1.351,1.332 0,0.755 -0.61,1.366 -1.374,1.366 -0.729,0 -1.313,-0.589 -1.313,-1.345 -0.001,-0.742 0.596,-1.353 1.336,-1.353"
       inkscape:connector-curvature="0"
       transform="matrix(11.261466,0,0,11.261466,-3130.95,-5535.5042)"
       id="path1113"
       style="fill:#ff4000" />
    <path
       d="m 359.56,532.128 c 0,0.983 0.753,1.751 1.768,1.751 1.098,0 1.768,-0.708 1.768,-1.857 0,-0.948 -0.718,-1.692 -1.756,-1.692 -1.075,0 -1.78,0.792 -1.78,1.798 m 1.792,-3.896 c 2.22,0 3.952,1.607 3.952,3.826 0,2.242 -1.612,3.934 -4,3.934 -2.245,0 -3.966,-1.847 -3.966,-3.898 0,-2.207 1.756,-3.862 4.014,-3.862"
       inkscape:connector-curvature="0"
       transform="matrix(11.261466,0,0,11.261466,-3130.95,-5535.5042)"
       id="path1115"
       style="fill:#ff4000" />
    <path
       d="m 365.822,535.74 0,-7.365 2.221,0 0,0.96 c 0,0 0.704,-1.102 2.138,-1.102 1.456,0 2.639,1.055 2.639,2.444 l 0,5.063 -2.293,0 0,-4.317 c 0,-0.611 -0.167,-1.188 -1.146,-1.188 -0.717,0 -1.313,0.587 -1.313,1.295 l 0,4.21 -2.246,0 z"
       inkscape:connector-curvature="0"
       transform="matrix(11.261466,0,0,11.261466,-3130.95,-5535.5042)"
       id="path1117"
       style="fill:#ff4000" />
    <path
       d="m 330.655,534.396 c -1.546,-0.007 -2.804,-1.026 -3.471,-2.249 0.675,-1.217 1.937,-2.205 3.471,-2.205 1.563,0 2.814,0.981 3.473,2.205 -0.659,1.223 -1.898,2.257 -3.473,2.249 m 0,-6.009 c -2.08,0 -3.767,1.694 -3.767,3.785 0,2.09 1.687,3.783 3.767,3.783 2.082,0 3.771,-1.693 3.771,-3.783 -10e-4,-2.09 -1.689,-3.785 -3.771,-3.785"
       inkscape:connector-curvature="0"
       transform="matrix(11.261466,0,0,11.261466,-3130.95,-5535.5042)"
       id="path1119"
       style="fill:#d10000" />
    <path
       d="m 330.655,534.179 c 1.104,0 1.998,-0.9 1.998,-2.008 0,-1.106 -0.894,-2.006 -1.998,-2.006 -1.101,0 -1.997,0.899 -1.997,2.006 0,1.108 0.896,2.008 1.997,2.008"
       inkscape:connector-curvature="0"
       transform="matrix(11.261466,0,0,11.261466,-3130.95,-5535.5042)"
       id="path1121"
       style="fill:#d10000" />
    <path
       d="m 314.437,528.405 3.429,0 c 1.454,0 2.47,0.895 2.47,1.811 0,0.687 -0.26,1.335 -1.696,1.649 0.554,0.075 2.063,0.479 2.063,1.924 0,1.445 -1.584,2.149 -2.672,2.149 l -3.594,0 0,-0.076 3.559,0 c 0.846,0 1.386,-0.351 1.386,-1.963 0,-1.609 -0.592,-1.979 -1.332,-1.996 l -1.105,0 0,-0.076 1.171,0 c 0.48,0 0.986,-0.074 0.986,-1.628 0,-1.555 -0.609,-1.721 -1.254,-1.721 l -0.903,0 0,7.384 -1.362,0 0,-7.384 -1.145,0 0,-0.073 -10e-4,0 z"
       inkscape:connector-curvature="0"
       transform="matrix(11.261466,0,0,11.261466,-3130.95,-5535.5042)"
       id="path1123"
       style="fill:#d10000" />
    <path
       d="m 309.596,532.219 c 0,-2.851 0.828,-3.872 1.809,-3.872 1.383,0 2.136,2.056 2.376,2.853 l 0,-2.76 c -0.24,0.186 -0.35,0.276 -0.61,0.276 -0.258,0 -0.646,-0.129 -0.828,-0.238 -0.185,-0.111 -0.552,-0.204 -0.921,-0.204 -1.216,0 -3.336,1.609 -3.336,3.945 0,2.757 1.881,3.941 3.336,3.941 0.369,0 0.772,-0.148 0.958,-0.259 0.184,-0.112 0.533,-0.261 0.791,-0.261 0.261,0 0.37,0.095 0.61,0.279 l 0,-2.776 c -0.203,1.073 -0.993,2.943 -2.376,2.943 -0.398,0 -0.943,-0.186 -1.191,-0.446 -0.076,-0.077 -0.618,-0.463 -0.618,-3.421"
       inkscape:connector-curvature="0"
       transform="matrix(11.261466,0,0,11.261466,-3130.95,-5535.5042)"
       id="path1125"
       style="fill:#d10000" />
    <path
       d="m 325.617,534.456 c -0.02,0.61 -0.482,1.426 -1.439,1.404 -0.957,-0.017 -2.119,-0.737 -2.561,-2.684 l 0,2.63 c 0.183,-0.167 0.497,-0.464 0.996,-0.242 0.495,0.225 1.233,0.371 1.564,0.371 0.329,0 2.157,-0.352 2.231,-2.462 0.017,-1.056 -0.738,-1.591 -1.197,-1.758 -0.536,-0.203 -1.293,-0.445 -1.734,-0.595 -0.44,-0.146 -1.16,-0.608 -1.144,-1.463 0.021,-0.849 0.537,-1.313 1.236,-1.313 0.7,0 1.642,0.553 2.12,2.518 l 0,-2.61 c -0.275,0.241 -0.494,0.352 -0.664,0.352 -0.146,0 -0.574,-0.168 -0.792,-0.232 -0.24,-0.076 -0.476,-0.106 -0.775,-0.101 -0.525,0.007 -1.759,0.648 -1.842,2.371 -0.063,1.257 0.865,1.74 1.289,1.885 0.368,0.131 1.439,0.522 1.754,0.649 0.312,0.13 0.994,0.574 0.958,1.28"
       inkscape:connector-curvature="0"
       transform="matrix(11.261466,0,0,11.261466,-3130.95,-5535.5042)"
       id="path1127"
       style="fill:#d10000" />
    <path
       d="m 337.246,532.057 c 0,1.021 0.645,1.859 1.671,1.859 0.99,0 1.814,-0.732 1.814,-1.799 0,-1.079 -0.765,-1.824 -1.743,-1.824 -1.063,0 -1.742,0.793 -1.742,1.764 m 1.299,-3.826 c 0.896,0 1.457,0.301 2.114,0.9 l 0,-0.756 2.197,0 0,7.364 -2.233,0 0,-0.721 c 0,0 -0.8,0.9 -2.196,0.9 -2.042,0 -3.438,-1.464 -3.438,-3.827 0.001,-2.049 1.516,-3.86 3.556,-3.86"
       inkscape:connector-curvature="0"
       transform="matrix(11.261466,0,0,11.261466,-3130.95,-5535.5042)"
       id="path1129"
       style="fill:#ff4000" />
    <path
       d="m 348.903,535.499 c 0,0 -1.075,0.42 -1.78,0.42 -2.268,0 -3.784,-1.631 -3.784,-3.789 0,-2.135 1.552,-3.897 3.821,-3.897 0.68,0 1.098,0.084 1.707,0.358 l 0,2.316 c -0.251,-0.266 -0.967,-0.601 -1.624,-0.601 -0.967,0 -1.684,0.9 -1.684,1.882 0,0.996 0.801,1.669 1.778,1.669 0.621,0 1.338,-0.312 1.565,-0.492 l 0,2.134 0.001,0 z"
       inkscape:connector-curvature="0"
       transform="matrix(11.261466,0,0,11.261466,-3130.95,-5535.5042)"
       id="path1131"
       style="fill:#ff4000" />
    <polygon
       points="350.148,526.552 352.38,526.552 352.38,528.375 353.562,528.375 353.562,530.416 352.38,530.416 352.38,535.74 350.148,535.74 350.148,535.74 350.148,530.404 349.419,530.404 349.419,528.375 350.148,528.375 "
       transform="matrix(11.261466,0,0,11.261466,-3130.95,-5535.5042)"
       id="polygon1133"
       style="fill:#ff4000" />
    <path
       d="m 354.401,528.375 2.22,0 0,7.364 -2.22,0 0,-7.364 z m 1.122,-3.225 c 0.74,0 1.351,0.587 1.351,1.332 0,0.755 -0.61,1.365 -1.374,1.365 -0.729,0 -1.313,-0.588 -1.313,-1.344 -0.001,-0.743 0.596,-1.353 1.336,-1.353"
       inkscape:connector-curvature="0"
       transform="matrix(11.261466,0,0,11.261466,-3130.95,-5535.5042)"
       id="path1143"
       style="fill:#ff4000" />
    <path
       d="m 359.56,532.128 c 0,0.983 0.753,1.751 1.768,1.751 1.098,0 1.768,-0.707 1.768,-1.857 0,-0.947 -0.718,-1.692 -1.756,-1.692 -1.075,0 -1.78,0.792 -1.78,1.798 m 1.792,-3.896 c 2.22,0 3.952,1.606 3.952,3.826 0,2.241 -1.612,3.934 -4,3.934 -2.245,0 -3.966,-1.847 -3.966,-3.898 0,-2.207 1.756,-3.862 4.014,-3.862"
       inkscape:connector-curvature="0"
       transform="matrix(11.261466,0,0,11.261466,-3130.95,-5535.5042)"
       id="path1145"
       style="fill:#ff4000" />
    <path
       d="m 365.822,535.74 0,-7.364 2.221,0 0,0.96 c 0,0 0.704,-1.104 2.138,-1.104 1.456,0 2.639,1.057 2.639,2.446 l 0,5.062 -2.293,0 0,-4.317 c 0,-0.612 -0.167,-1.188 -1.146,-1.188 -0.717,0 -1.313,0.589 -1.313,1.296 l 0,4.21 -2.246,0 0,-10e-4 z"
       inkscape:connector-curvature="0"
       transform="matrix(11.261466,0,0,11.261466,-3130.95,-5535.5042)"
       id="path1147"
       style="fill:#ff4000" />
  </g>
</svg>
