<?xml version="1.0" encoding="UTF-8" standalone="no"?>
<!-- Created with Inkscape (http://www.inkscape.org/) -->

<svg
   xmlns:dc="http://purl.org/dc/elements/1.1/"
   xmlns:cc="http://creativecommons.org/ns#"
   xmlns:rdf="http://www.w3.org/1999/02/22-rdf-syntax-ns#"
   xmlns:svg="http://www.w3.org/2000/svg"
   xmlns="http://www.w3.org/2000/svg"
   xmlns:inkscape="http://www.inkscape.org/namespaces/inkscape"
   version="1.0"
   width="843"
   height="119"
   id="svg2">
  <metadata
     id="metadata23">
    <rdf:RDF>
      <cc:Work
         rdf:about="">
        <dc:format>image/svg+xml</dc:format>
        <dc:type
           rdf:resource="http://purl.org/dc/dcmitype/StillImage" />
      </cc:Work>
    </rdf:RDF>
  </metadata>
  <defs
     id="defs21" />
  <g
     transform="translate(411.68655,-924.62412)"
     id="layer1">
    <path
       d="m 330.802,444.635 c -1.596,-0.009 -2.896,-1.06 -3.585,-2.324 0.697,-1.257 2.002,-2.276 3.585,-2.276 1.615,0 2.906,1.013 3.587,2.276 -0.681,1.265 -1.96,2.331 -3.587,2.324 m 0,-6.207 c -2.148,0 -3.891,1.753 -3.891,3.911 0,2.157 1.742,3.906 3.891,3.906 2.15,0 3.893,-1.749 3.893,-3.906 0,-2.158 -1.742,-3.911 -3.893,-3.911"
       inkscape:connector-curvature="0"
       transform="matrix(11.993512,0,0,11.993512,-4099.6075,-4310.9397)"
       id="path1149"
       style="fill:#a80055" />
    <path
       d="m 330.802,444.635 c -1.596,-0.009 -2.896,-1.06 -3.585,-2.324 0.697,-1.257 2.002,-2.276 3.585,-2.276 1.615,0 2.906,1.013 3.587,2.276 -0.681,1.265 -1.96,2.331 -3.587,2.324 m 0,-6.207 c -2.148,0 -3.891,1.753 -3.891,3.911 0,2.157 1.742,3.906 3.891,3.906 2.15,0 3.893,-1.749 3.893,-3.906 0,-2.158 -1.742,-3.911 -3.893,-3.911"
       inkscape:connector-curvature="0"
       transform="matrix(11.993512,0,0,11.993512,-4099.6075,-4310.9397)"
       id="path1151"
       style="fill:#a80055" />
    <path
       d="m 330.802,444.411 c 1.141,0 2.063,-0.93 2.063,-2.072 0,-1.145 -0.923,-2.072 -2.063,-2.072 -1.136,0 -2.063,0.928 -2.063,2.072 0.001,1.142 0.928,2.072 2.063,2.072"
       inkscape:connector-curvature="0"
       transform="matrix(11.993512,0,0,11.993512,-4099.6075,-4310.9397)"
       id="path1153"
       style="fill:#a80055" />
    <path
       d="m 330.802,444.411 c 1.141,0 2.063,-0.93 2.063,-2.072 0,-1.145 -0.923,-2.072 -2.063,-2.072 -1.136,0 -2.063,0.928 -2.063,2.072 0.001,1.142 0.928,2.072 2.063,2.072"
       inkscape:connector-curvature="0"
       transform="matrix(11.993512,0,0,11.993512,-4099.6075,-4310.9397)"
       id="path1155"
       style="fill:#a80055" />
    <path
       d="m 314.053,438.446 3.542,0 c 1.501,0 2.55,0.926 2.55,1.872 0,0.709 -0.268,1.377 -1.752,1.703 0.572,0.076 2.131,0.495 2.131,1.986 0,1.493 -1.637,2.218 -2.759,2.218 l -3.712,0 0,-0.075 3.675,0 c 0.875,0 1.429,-0.363 1.429,-2.028 0,-1.663 -0.608,-2.044 -1.372,-2.063 l -1.142,0 0,-0.077 1.208,0 c 0.496,0 1.02,-0.075 1.02,-1.683 0,-1.604 -0.63,-1.776 -1.297,-1.776 l -0.931,0 0,7.628 -1.41,0 0,-7.628 -1.18,0 0,-0.077 0,0 z"
       inkscape:connector-curvature="0"
       transform="matrix(11.993512,0,0,11.993512,-4099.6075,-4310.9397)"
       id="path1157"
       style="fill:#a80055" />
    <path
       d="m 314.053,438.446 3.542,0 c 1.501,0 2.55,0.926 2.55,1.872 0,0.709 -0.268,1.377 -1.752,1.703 0.572,0.076 2.131,0.495 2.131,1.986 0,1.493 -1.637,2.218 -2.759,2.218 l -3.712,0 0,-0.075 3.675,0 c 0.875,0 1.429,-0.363 1.429,-2.028 0,-1.663 -0.608,-2.044 -1.372,-2.063 l -1.142,0 0,-0.077 1.208,0 c 0.496,0 1.02,-0.075 1.02,-1.683 0,-1.604 -0.63,-1.776 -1.297,-1.776 l -0.931,0 0,7.628 -1.41,0 0,-7.628 -1.18,0 0,-0.077 0,0 z"
       inkscape:connector-curvature="0"
       transform="matrix(11.993512,0,0,11.993512,-4099.6075,-4310.9397)"
       id="path1159"
       style="fill:#a80055" />
    <path
       d="m 309.054,442.386 c 0,-2.945 0.854,-3.999 1.865,-3.999 1.43,0 2.209,2.124 2.455,2.945 l 0,-2.85 c -0.246,0.191 -0.359,0.286 -0.629,0.286 -0.267,0 -0.667,-0.134 -0.855,-0.247 -0.19,-0.114 -0.57,-0.212 -0.952,-0.212 -1.255,0 -3.445,1.664 -3.445,4.076 0,2.848 1.942,4.07 3.445,4.07 0.382,0 0.798,-0.152 0.99,-0.269 0.189,-0.114 0.551,-0.267 0.817,-0.267 0.27,0 0.383,0.097 0.629,0.287 l 0,-2.867 c -0.21,1.108 -1.025,3.04 -2.455,3.04 -0.409,0 -0.972,-0.193 -1.229,-0.46 -0.077,-0.08 -0.636,-0.478 -0.636,-3.533"
       inkscape:connector-curvature="0"
       transform="matrix(11.993512,0,0,11.993512,-4099.6075,-4310.9397)"
       id="path1161"
       style="fill:#a80055" />
    <path
       d="m 309.054,442.386 c 0,-2.945 0.854,-3.999 1.865,-3.999 1.43,0 2.209,2.124 2.455,2.945 l 0,-2.85 c -0.246,0.191 -0.359,0.286 -0.629,0.286 -0.267,0 -0.667,-0.134 -0.855,-0.247 -0.19,-0.114 -0.57,-0.212 -0.952,-0.212 -1.255,0 -3.445,1.664 -3.445,4.076 0,2.848 1.942,4.07 3.445,4.07 0.382,0 0.798,-0.152 0.99,-0.269 0.189,-0.114 0.551,-0.267 0.817,-0.267 0.27,0 0.383,0.097 0.629,0.287 l 0,-2.867 c -0.21,1.108 -1.025,3.04 -2.455,3.04 -0.409,0 -0.972,-0.193 -1.229,-0.46 -0.077,-0.08 -0.636,-0.478 -0.636,-3.533"
       inkscape:connector-curvature="0"
       transform="matrix(11.993512,0,0,11.993512,-4099.6075,-4310.9397)"
       id="path1163"
       style="fill:#a80055" />
    <path
       d="m 325.599,444.697 c -0.018,0.63 -0.498,1.471 -1.485,1.451 -0.99,-0.021 -2.189,-0.764 -2.646,-2.771 l 0,2.716 c 0.188,-0.174 0.514,-0.479 1.028,-0.251 0.513,0.23 1.274,0.383 1.617,0.383 0.341,0 2.226,-0.362 2.304,-2.543 0.017,-1.091 -0.763,-1.644 -1.236,-1.816 -0.554,-0.209 -1.335,-0.457 -1.792,-0.613 -0.456,-0.149 -1.199,-0.628 -1.18,-1.509 0.019,-0.878 0.553,-1.355 1.276,-1.355 0.723,0 1.695,0.571 2.188,2.599 l 0,-2.696 c -0.283,0.25 -0.512,0.363 -0.685,0.363 -0.151,0 -0.596,-0.175 -0.819,-0.242 -0.247,-0.076 -0.489,-0.107 -0.8,-0.103 -0.542,0.009 -1.816,0.67 -1.902,2.448 -0.063,1.301 0.894,1.797 1.332,1.949 0.38,0.135 1.487,0.537 1.81,0.671 0.324,0.132 1.028,0.588 0.99,1.319"
       inkscape:connector-curvature="0"
       transform="matrix(11.993512,0,0,11.993512,-4099.6075,-4310.9397)"
       id="path1165"
       style="fill:#a80055" />
    <path
       d="m 325.599,444.697 c -0.018,0.63 -0.498,1.471 -1.485,1.451 -0.99,-0.021 -2.189,-0.764 -2.646,-2.771 l 0,2.716 c 0.188,-0.174 0.514,-0.479 1.028,-0.251 0.513,0.23 1.274,0.383 1.617,0.383 0.341,0 2.226,-0.362 2.304,-2.543 0.017,-1.091 -0.763,-1.644 -1.236,-1.816 -0.554,-0.209 -1.335,-0.457 -1.792,-0.613 -0.456,-0.149 -1.199,-0.628 -1.18,-1.509 0.019,-0.878 0.553,-1.355 1.276,-1.355 0.723,0 1.695,0.571 2.188,2.599 l 0,-2.696 c -0.283,0.25 -0.512,0.363 -0.685,0.363 -0.151,0 -0.596,-0.175 -0.819,-0.242 -0.247,-0.076 -0.489,-0.107 -0.8,-0.103 -0.542,0.009 -1.816,0.67 -1.902,2.448 -0.063,1.301 0.894,1.797 1.332,1.949 0.38,0.135 1.487,0.537 1.81,0.671 0.324,0.132 1.028,0.588 0.99,1.319"
       inkscape:connector-curvature="0"
       transform="matrix(11.993512,0,0,11.993512,-4099.6075,-4310.9397)"
       id="path1167"
       style="fill:#a80055" />
    <path
       d="m 343.949,438.417 2.293,0 0,7.605 -2.293,0 0,-7.605 z m 3.917,0 c 0.879,0 1.602,0.697 1.602,1.579 0,0.897 -0.723,1.623 -1.63,1.623 -0.865,0 -1.56,-0.697 -1.56,-1.595 0,-0.881 0.71,-1.607 1.588,-1.607"
       inkscape:connector-curvature="0"
       transform="matrix(11.993512,0,0,11.993512,-4099.6075,-4310.9397)"
       id="path1169"
       style="fill:#ff0076" />
    <path
       d="m 339.361,444.152 c 1.196,0 1.862,-0.83 1.862,-1.883 0,-1.065 -0.715,-1.857 -1.788,-1.857 -1.16,0 -1.825,0.867 -1.825,1.832 0,1.052 0.702,1.908 1.751,1.908 m 1.788,1.87 0,-0.793 c -0.703,0.695 -1.431,0.979 -2.429,0.979 -2.134,0 -3.441,-1.81 -3.441,-3.927 0,-2.068 1.406,-4.014 3.637,-4.014 1.32,0 2.195,0.867 2.195,0.867 l 0,-2.601 2.283,0 0,9.487 -2.245,0 0,0.002 z"
       inkscape:connector-curvature="0"
       transform="matrix(11.993512,0,0,11.993512,-4099.6075,-4310.9397)"
       id="path1171"
       style="fill:#ff0076" />
    <path
       d="m 351.561,442.219 c 0,1.054 0.665,1.92 1.725,1.92 1.025,0 1.876,-0.755 1.876,-1.857 0,-1.115 -0.788,-1.883 -1.801,-1.883 -1.098,0 -1.8,0.817 -1.8,1.82 m 1.344,-3.951 c 0.924,0 1.504,0.311 2.183,0.93 l 0,-0.78 2.269,0 0,7.604 -2.305,0 0,-0.742 c 0,0 -0.826,0.929 -2.27,0.929 -2.108,0 -3.553,-1.512 -3.553,-3.951 0,-2.12 1.567,-3.99 3.676,-3.99"
       inkscape:connector-curvature="0"
       transform="matrix(11.993512,0,0,11.993512,-4099.6075,-4310.9397)"
       id="path1173"
       style="fill:#ff0076" />
    <path
       d="m 369.343,440.82 0,5.227 -2.305,0 0,-4.458 c 0,-0.854 -0.298,-1.202 -1.037,-1.202 -0.74,0 -1.232,0.57 -1.232,1.486 l 0,4.15 -2.332,0 0,-4.46 c 0,-0.829 -0.27,-1.177 -0.986,-1.177 -0.739,0 -1.232,0.533 -1.232,1.475 l 0,4.162 -2.306,0 0,-7.606 2.256,0 0,0.991 c 0,0 0.852,-1.139 2.134,-1.139 0.999,0 1.764,0.508 2.134,1.213 0.604,-0.631 1.099,-1.213 2.478,-1.213 1.504,0 2.428,1.113 2.428,2.551"
       inkscape:connector-curvature="0"
       transform="matrix(11.993512,0,0,11.993512,-4099.6075,-4310.9397)"
       id="path1175"
       style="fill:#ff0076" />
    <path
       d="m 371.985,442.219 c 0,1.054 0.665,1.92 1.726,1.92 1.023,0 1.873,-0.755 1.873,-1.857 0,-1.115 -0.789,-1.883 -1.799,-1.883 -1.1,0 -1.8,0.817 -1.8,1.82 m 1.343,-3.951 c 0.925,0 1.504,0.311 2.183,0.93 l 0,-0.78 2.27,0 0,7.604 -2.307,0 0,-0.742 c 0,0 -0.825,0.929 -2.269,0.929 -2.109,0 -3.552,-1.512 -3.552,-3.951 0,-2.12 1.565,-3.99 3.675,-3.99"
       inkscape:connector-curvature="0"
       transform="matrix(11.993512,0,0,11.993512,-4099.6075,-4310.9397)"
       id="path1177"
       style="fill:#ff0076" />
  </g>
</svg>
