<?xml version="1.0" encoding="UTF-8" standalone="no"?>
<!-- Created with Inkscape (http://www.inkscape.org/) -->

<svg
   xmlns:dc="http://purl.org/dc/elements/1.1/"
   xmlns:cc="http://creativecommons.org/ns#"
   xmlns:rdf="http://www.w3.org/1999/02/22-rdf-syntax-ns#"
   xmlns:svg="http://www.w3.org/2000/svg"
   xmlns="http://www.w3.org/2000/svg"
   xmlns:inkscape="http://www.inkscape.org/namespaces/inkscape"
   version="1.0"
   width="950.68311"
   height="170"
   id="svg2">
  <metadata
     id="metadata20">
    <rdf:RDF>
      <cc:Work
         rdf:about="">
        <dc:format>image/svg+xml</dc:format>
        <dc:type
           rdf:resource="http://purl.org/dc/dcmitype/StillImage" />
        <dc:title />
      </cc:Work>
    </rdf:RDF>
  </metadata>
  <defs
     id="defs18" />
  <g
     transform="translate(-328.07793,-334.09633)"
     id="layer1">
    <path
       d="m 329.71,489.527 c -1.691,-0.01 -3.068,-1.122 -3.799,-2.463 0.738,-1.329 2.12,-2.41 3.799,-2.41 1.71,0 3.078,1.072 3.799,2.41 -0.72,1.341 -2.077,2.47 -3.799,2.463 m 0,-6.574 c -2.275,0 -4.121,1.855 -4.121,4.143 0,2.285 1.846,4.138 4.121,4.138 2.277,0 4.123,-1.853 4.123,-4.138 0,-2.288 -1.845,-4.143 -4.123,-4.143"
       inkscape:connector-curvature="0"
       transform="matrix(11.28893,0,0,11.28893,-3115.2715,-5077.9296)"
       id="path1179"
       style="fill:#ff6100" />
    <path
       d="m 329.71,489.289 c 1.207,0 2.186,-0.984 2.186,-2.193 0,-1.213 -0.979,-2.197 -2.186,-2.197 -1.205,0 -2.186,0.984 -2.186,2.197 10e-4,1.208 0.981,2.193 2.186,2.193"
       inkscape:connector-curvature="0"
       transform="matrix(11.28893,0,0,11.28893,-3115.2715,-5077.9296)"
       id="path1181"
       style="fill:#ff6100" />
    <path
       d="m 311.968,482.97 3.75,0 c 1.591,0 2.703,0.98 2.703,1.983 0,0.751 -0.284,1.459 -1.856,1.803 0.606,0.082 2.259,0.526 2.259,2.105 0,1.582 -1.733,2.35 -2.923,2.35 l -3.933,0 0,-0.081 3.893,0 c 0.927,0 1.516,-0.384 1.516,-2.147 0,-1.762 -0.647,-2.165 -1.456,-2.186 l -1.209,0 0,-0.082 1.279,0 c 0.525,0 1.079,-0.08 1.079,-1.782 0,-1.7 -0.667,-1.882 -1.37,-1.882 l -0.988,0 0,8.079 -1.492,0 0,-8.079 -1.251,0 0,-0.081 -10e-4,0 z"
       inkscape:connector-curvature="0"
       transform="matrix(11.28893,0,0,11.28893,-3115.2715,-5077.9296)"
       id="path1183"
       style="fill:#ff6100" />
    <path
       d="m 306.673,487.144 c 0,-3.119 0.905,-4.235 1.977,-4.235 1.513,0 2.339,2.249 2.6,3.12 l 0,-3.019 c -0.261,0.203 -0.381,0.303 -0.666,0.303 -0.282,0 -0.706,-0.142 -0.906,-0.262 -0.202,-0.121 -0.604,-0.224 -1.008,-0.224 -1.329,0 -3.65,1.762 -3.65,4.316 0,3.018 2.056,4.313 3.65,4.313 0.404,0 0.845,-0.162 1.049,-0.284 0.2,-0.121 0.583,-0.283 0.865,-0.283 0.285,0 0.405,0.103 0.666,0.304 l 0,-3.037 c -0.223,1.175 -1.087,3.22 -2.6,3.22 -0.435,0 -1.031,-0.203 -1.303,-0.486 -0.081,-0.089 -0.674,-0.51 -0.674,-3.746"
       inkscape:connector-curvature="0"
       transform="matrix(11.28893,0,0,11.28893,-3115.2715,-5077.9296)"
       id="path1185"
       style="fill:#ff6100" />
    <path
       d="m 324.199,489.591 c -0.021,0.667 -0.529,1.56 -1.574,1.537 -1.049,-0.021 -2.32,-0.808 -2.804,-2.935 l 0,2.876 c 0.201,-0.185 0.546,-0.507 1.09,-0.266 0.543,0.243 1.351,0.405 1.714,0.405 0.361,0 2.359,-0.384 2.44,-2.693 0.018,-1.155 -0.808,-1.741 -1.31,-1.924 -0.587,-0.222 -1.413,-0.483 -1.896,-0.649 -0.483,-0.158 -1.271,-0.666 -1.252,-1.6 0.021,-0.929 0.586,-1.435 1.354,-1.435 0.764,0 1.795,0.604 2.317,2.752 l 0,-2.855 c -0.3,0.265 -0.541,0.385 -0.726,0.385 -0.16,0 -0.629,-0.185 -0.866,-0.257 -0.264,-0.079 -0.521,-0.113 -0.849,-0.107 -0.574,0.008 -1.925,0.709 -2.017,2.592 -0.065,1.379 0.949,1.904 1.411,2.065 0.403,0.143 1.576,0.567 1.919,0.711 0.342,0.142 1.088,0.626 1.049,1.398"
       inkscape:connector-curvature="0"
       transform="matrix(11.28893,0,0,11.28893,-3115.2715,-5077.9296)"
       id="path1187"
       style="fill:#ff6100" />
    <path
       d="m 342.135,485.971 3.044,0 c -0.288,-0.774 -0.705,-1.142 -1.463,-1.142 -0.821,10e-4 -1.28,0.395 -1.581,1.142 m 1.608,-3.188 c 2.312,0 3.944,1.535 3.944,4.408 0,0.197 0.013,0.302 0,0.486 l -5.643,0 c 0.209,0.958 0.967,1.416 1.881,1.416 0.796,0 1.319,-0.563 1.736,-1.115 0,0 1.45,0.84 1.895,1.115 -0.705,1.26 -2.063,2.1 -3.748,2.1 -2.47,0 -4.168,-1.509 -4.168,-4.212 0,-2.44 1.738,-4.198 4.103,-4.198"
       inkscape:connector-curvature="0"
       transform="matrix(11.28893,0,0,11.28893,-3115.2715,-5077.9296)"
       id="path1189"
       style="fill:#ffb900" />
    <path
       d="m 350.353,486.968 c 0,1.115 0.705,2.033 1.829,2.033 1.084,0 1.984,-0.8 1.984,-1.968 0,-1.181 -0.835,-1.994 -1.908,-1.994 -1.16,0.001 -1.905,0.866 -1.905,1.929 m 1.423,-4.185 c 0.979,0 1.594,0.328 2.312,0.984 l 0,-0.827 2.405,0 0,8.056 -2.442,0 0,-0.787 c 0,0 -0.876,0.984 -2.403,0.984 -2.235,0 -3.764,-1.601 -3.764,-4.185 -0.001,-2.244 1.658,-4.225 3.892,-4.225"
       inkscape:connector-curvature="0"
       transform="matrix(11.28893,0,0,11.28893,-3115.2715,-5077.9296)"
       id="path1191"
       style="fill:#ffb900" />
    <rect
       width="27.4321"
       height="113.47633"
       x="917.25812"
       y="351.43613"
       id="rect1193"
       style="fill:#ffb900" />
    <path
       d="m 360.49,482.941 2.429,0 0,8.057 -2.429,0 0,-8.057 z m 1.228,-3.531 c 0.81,0 1.477,0.645 1.477,1.457 0,0.827 -0.667,1.495 -1.503,1.495 -0.797,0 -1.438,-0.642 -1.438,-1.469 -0.001,-0.813 0.655,-1.483 1.464,-1.483"
       inkscape:connector-curvature="0"
       transform="matrix(11.28893,0,0,11.28893,-3115.2715,-5077.9296)"
       id="path1203"
       style="fill:#ffb900" />
    <polygon
       points="367.898,482.94 367.898,485.171 366.605,485.171 366.605,490.997 364.163,490.997 364.163,490.997 364.163,485.158 363.365,485.158 363.365,482.94 364.163,482.94 364.163,480.946 366.605,480.946 366.605,482.94 "
       transform="matrix(11.28893,0,0,11.28893,-3115.2715,-5077.9296)"
       id="polygon1205"
       style="fill:#ffb900" />
    <path
       d="m 373.508,482.914 0,4.684 c 0,0.814 -0.483,1.326 -1.358,1.326 -0.822,0 -1.372,-0.512 -1.372,-1.391 l 0,-4.619 -2.43,0 0,4.684 c 0,2.23 1.477,3.569 3.775,3.569 0.54,0 1.029,-0.07 1.468,-0.202 l -0.001,0.078 c 0,0.88 -0.74,1.273 -1.542,1.273 -0.569,0 -0.891,-0.105 -1.211,-0.656 l -2.58,0 c 0.247,1.81 1.877,2.809 3.741,2.809 2.123,0 3.887,-1.3 3.887,-3.793 l 0,-7.762 -2.377,0 0,0 z"
       inkscape:connector-curvature="0"
       transform="matrix(11.28893,0,0,11.28893,-3115.2715,-5077.9296)"
       id="path1215"
       style="fill:#ffb900" />
    <path
       d="m 337.28,487.283 0,3.715 -2.467,0 0,-8.058 2.375,0 0,1.272 c 0.197,-0.604 0.945,-1.431 1.916,-1.431 l 0.551,0 0,2.52 c 0,0 -0.302,-0.157 -0.853,-0.157 -0.945,0 -1.522,0.577 -1.522,2.139"
       inkscape:connector-curvature="0"
       transform="matrix(11.28893,0,0,11.28893,-3115.2715,-5077.9296)"
       id="path1217"
       style="fill:#ffb900" />
    <g
       id="text2997"
       style="font-size:82.19345093px;font-style:normal;font-weight:normal;line-height:125%;letter-spacing:0px;word-spacing:0px;fill:#ff6100;fill-opacity:1;stroke:none;font-family:Sans">
      <path
         d="m 1180.3215,449.75405 0,-24.46539 -24.658,0 0,-16.88819 24.658,0 0,-24.46539 16.4387,0 0,24.46539 24.7223,0 0,16.88819 -24.7223,0 0,24.46539 z"
         inkscape:connector-curvature="0"
         id="path2997"
         style="font-size:131.50952148px;font-weight:bold;fill:#ff6100;-inkscape-font-specification:Sans Bold" />
      <path
         d="m 1278.761,463.30313 -18.044,0 0,-68.00224 c -6.5926,6.16457 -14.3625,10.72374 -23.3096,13.67751 l 0,-16.37448 c 4.709,-1.54105 9.8247,-4.46277 15.3471,-8.76516 5.5223,-4.30223 9.3109,-9.32159 11.3658,-15.0581 l 14.6407,0 z"
         inkscape:connector-curvature="0"
         id="path2999"
         style="font-size:131.50952148px;font-weight:bold;fill:#ff6100;-inkscape-font-specification:Sans Bold" />
    </g>
  </g>
</svg>
