<?xml version="1.0" encoding="UTF-8" standalone="no"?>
<!-- Created with Inkscape (http://www.inkscape.org/) -->

<svg
   xmlns:dc="http://purl.org/dc/elements/1.1/"
   xmlns:cc="http://creativecommons.org/ns#"
   xmlns:rdf="http://www.w3.org/1999/02/22-rdf-syntax-ns#"
   xmlns:svg="http://www.w3.org/2000/svg"
   xmlns="http://www.w3.org/2000/svg"
   xmlns:inkscape="http://www.inkscape.org/namespaces/inkscape"
   version="1.1"
   width="210"
   height="55.972668"
   id="svg27197">
  <defs
     id="defs27199">
    <clipPath
       id="clipPath10771">
      <path
         d="m 155.875,687.404 27.519,0 0,9.027 -27.519,0 0,-9.027 z"
         inkscape:connector-curvature="0"
         id="path10773" />
    </clipPath>
    <clipPath
       id="clipPath10779">
      <path
         d="m 155.875,694.527 0,-6.324 27.512,0 0,6.324"
         inkscape:connector-curvature="0"
         id="path10781" />
    </clipPath>
    <clipPath
       id="clipPath10793">
      <path
         d="m 155.875,694.527 0,-6.324 27.512,0 0,6.324"
         inkscape:connector-curvature="0"
         id="path10795" />
    </clipPath>
  </defs>
  <metadata
     id="metadata27202">
    <rdf:RDF>
      <cc:Work
         rdf:about="">
        <dc:format>image/svg+xml</dc:format>
        <dc:type
           rdf:resource="http://purl.org/dc/dcmitype/StillImage" />
        <dc:title />
      </cc:Work>
    </rdf:RDF>
  </metadata>
  <g
     transform="translate(16.480699,-362.48491)"
     id="layer1">
    <g
       transform="matrix(7.2695551,0,0,-7.2695551,-1144.6226,5416.3872)"
       id="g10767">
      <g
         clip-path="url(#clipPath10771)"
         id="g10769">
        <g
           id="g10775">
          <g
             clip-path="url(#clipPath10779)"
             id="g10777">
            <path
               d="m 159.108,694.326 0.85,0 c 0.18,0 0.326,-0.156 0.326,-0.331 l 0,-0.085 c 0,-0.17 -0.146,-0.316 -0.326,-0.316 l -0.741,0 c -1.11,0 -2.201,-0.624 -2.164,-1.805 0.029,-1.105 1.091,-1.757 2.164,-1.757 l 0.741,0 c 0.18,0 0.326,-0.141 0.326,-0.311 l 0,-0.09 c 0,-0.161 -0.175,-0.321 -0.345,-0.331 l -0.793,0 c -1.162,-0.014 -2.409,0.558 -2.896,1.635 -0.387,0.854 -0.17,1.865 0.586,2.555 0.633,0.581 1.441,0.836 2.272,0.836"
               inkscape:connector-curvature="0"
               id="path10783"
               style="fill:#0b0c0b;fill-opacity:1;fill-rule:evenodd;stroke:none" />
          </g>
        </g>
        <path
           d="m 159.245,693.268 0.713,0 c 0.18,0 0.326,-0.147 0.326,-0.331 l 0,-0.09 c 0,-0.184 -0.146,-0.34 -0.326,-0.34 l -0.746,0 c -0.246,-0.014 -0.482,-0.056 -0.675,-0.217 -0.312,-0.264 -0.34,-0.722 -0.043,-1.011 0.184,-0.174 0.477,-0.274 0.723,-0.274 l 0.741,0 c 0.18,0 0.326,-0.16 0.326,-0.344 l 0,-0.09 c 0,-0.189 -0.146,-0.34 -0.326,-0.34 l -0.741,0 c -0.534,0 -1.143,0.193 -1.502,0.595 -0.468,0.529 -0.558,1.318 0.113,1.97 0.534,0.519 1.417,0.472 1.417,0.472"
           inkscape:connector-curvature="0"
           id="path10785"
           style="fill:#0b0c0b;fill-opacity:1;fill-rule:evenodd;stroke:none" />
        <path
           d="m 163.401,694.331 0.851,0 c 0.179,0 0.326,-0.156 0.326,-0.331 l 0,-0.085 c 0,-0.175 -0.147,-0.312 -0.326,-0.312 l -0.742,0 c -1.11,0 -2.201,-0.628 -2.163,-1.809 0.028,-1.11 1.091,-1.757 2.163,-1.757 l 0.742,0 c 0.179,0 0.326,-0.141 0.326,-0.316 l 0,-0.081 c 0,-0.17 -0.175,-0.325 -0.345,-0.335 l -0.794,0 c -1.162,-0.014 -2.409,0.557 -2.895,1.639 -0.387,0.855 -0.17,1.861 0.586,2.555 0.633,0.577 1.435,0.832 2.271,0.832 m 0.137,-0.992 0.714,0 c 0.179,0 0.326,-0.151 0.326,-0.336 l 0,-0.089 c 0,-0.185 -0.147,-0.336 -0.326,-0.336 -0.251,0 -0.496,-0.004 -0.747,0 -0.245,-0.019 -0.481,-0.056 -0.67,-0.222 -0.317,-0.264 -0.345,-0.722 -0.048,-1.01 0.185,-0.175 0.478,-0.274 0.723,-0.274 l 0.742,0 c 0.179,0 0.326,-0.156 0.326,-0.345 l 0,-0.09 c 0,-0.189 -0.147,-0.34 -0.326,-0.34 l -0.742,0 c -0.534,0 -1.143,0.194 -1.502,0.6 -0.467,0.529 -0.557,1.318 0.113,1.965 0.534,0.519 1.417,0.477 1.417,0.477"
           inkscape:connector-curvature="0"
           id="path10787"
           style="fill:#e43929;fill-opacity:1;fill-rule:evenodd;stroke:none" />
        <g
           id="g10789">
          <g
             clip-path="url(#clipPath10793)"
             id="g10791">
            <path
               d="m 169.008,693.344 c 0.312,0 0.482,-0.147 0.59,-0.374 l 0.978,-2.352 c 0,0 0.25,-0.628 0.581,-0.609 0.335,0.023 0.515,0.472 0.515,0.472 l 1.488,3.387 c 0.09,0.208 0.179,0.444 0.463,0.463 l 0.566,0.009 -1.936,-4.142 c -0.038,-0.085 -0.312,-0.756 -0.921,-0.846 -0.553,-0.085 -1.02,0.222 -1.238,0.685 l -1.1,2.333 c 0,0 -0.114,0.208 -0.364,0.199 l -0.359,0 c -0.123,-0.014 -0.184,-0.081 -0.193,-0.203 l 0,-2.721 c 0,-0.193 -0.185,-0.349 -0.383,-0.349 l -0.113,0 c -0.199,0 -0.364,0.156 -0.364,0.349 l 0,3.339 c 0,0.222 0.132,0.36 0.364,0.36 l 1.426,0 m -3.883,-0.024 c -0.174,0 -0.321,-0.156 -0.321,-0.331 l 0,-0.108 c 0,-0.175 0.147,-0.317 0.321,-0.317 l 0.742,0 c 0.123,-0.009 0.184,-0.076 0.194,-0.203 l 0,-2.716 c 0,-0.193 0.179,-0.349 0.382,-0.349 l 0.109,0 c 0.203,0 0.364,0.156 0.364,0.349 l 0,3.316 c 0,0.222 -0.133,0.359 -0.364,0.359 l -1.427,0 z m 4.029,1.011 -4.029,0 c -0.174,0 -0.321,-0.156 -0.321,-0.331 l 0,-0.085 c 0,-0.175 0.147,-0.312 0.321,-0.312 l 4.02,0 c 0.364,-0.009 0.567,-0.146 0.732,-0.543 l 0.978,-2.343 c 0.057,-0.16 0.151,-0.387 0.288,-0.411 0.142,-0.023 0.236,0.237 0.316,0.326 0.076,0.09 0.435,0.954 0.435,0.954 l 1.167,2.754 -0.506,-0.009 c -0.34,-0.024 -0.434,-0.35 -0.434,-0.35 l -0.832,-2.092 c -0.004,-0.047 -0.061,-0.147 -0.127,-0.137 -0.071,0.005 -0.104,0.137 -0.104,0.137 l -0.605,1.766 c -0.259,0.747 -1.204,0.671 -1.299,0.676"
               inkscape:connector-curvature="0"
               id="path10797"
               style="fill:#0b0c0b;fill-opacity:1;fill-rule:evenodd;stroke:none" />
            <path
               d="m 155.989,688.643 16.473,0 c 0,0 1.556,0 2.063,1.928 0,0 0.114,1.485 0.169,1.759 0.102,0.507 0.541,1.961 2.131,2.097 1.388,0.118 3.044,0.135 3.991,0.034 0.947,-0.102 2.605,-0.88 2.571,-2.774 -0.034,-1.894 -0.667,-3.066 -2.368,-3.382 0,0 -0.575,-0.102 -1.014,-0.102 l -24.049,0 c 0,0 -0.203,0.406 0.033,0.44"
               inkscape:connector-curvature="0"
               id="path10799"
               style="fill:#231f20;fill-opacity:1;fill-rule:nonzero;stroke:none" />
          </g>
        </g>
        <path
           d="m 177.937,690.922 1.192,1.337 0.018,-1.337 -1.21,0 z m 2.366,0.018 0,2.8 -1.12,0 -2.348,-2.71 0,-1.173 2.294,0 0,-0.849 1.156,0 0,0.867 0.578,0 0,1.065 -0.56,0 z"
           inkscape:connector-curvature="0"
           id="path10801"
           style="fill:#ffffff;fill-opacity:1;fill-rule:nonzero;stroke:none" />
      </g>
    </g>
  </g>
</svg>
