<?xml version="1.0" encoding="UTF-8" standalone="no"?>
<!-- Created with Inkscape (http://www.inkscape.org/) -->

<svg
   xmlns:dc="http://purl.org/dc/elements/1.1/"
   xmlns:cc="http://creativecommons.org/ns#"
   xmlns:rdf="http://www.w3.org/1999/02/22-rdf-syntax-ns#"
   xmlns:svg="http://www.w3.org/2000/svg"
   xmlns="http://www.w3.org/2000/svg"
   xmlns:xlink="http://www.w3.org/1999/xlink"
   xmlns:inkscape="http://www.inkscape.org/namespaces/inkscape"
   version="1.1"
   width="291.5318"
   height="197.99994"
   id="svg2">
  <defs
     id="defs4">
    <linearGradient
       id="linearGradient2933">
      <stop
         id="stop2935"
         style="stop-color:#cc1d3c;stop-opacity:1"
         offset="0" />
      <stop
         id="stop2957"
         style="stop-color:#cd1e3b;stop-opacity:1"
         offset="0.1" />
      <stop
         id="stop2955"
         style="stop-color:#c81e3b;stop-opacity:1"
         offset="0.2" />
      <stop
         id="stop2953"
         style="stop-color:#c61d3a;stop-opacity:1"
         offset="0.30000001" />
      <stop
         id="stop2951"
         style="stop-color:#c41d38;stop-opacity:1"
         offset="0.39746094" />
      <stop
         id="stop2949"
         style="stop-color:#c01d38;stop-opacity:1"
         offset="0.5" />
      <stop
         id="stop2947"
         style="stop-color:#b91b37;stop-opacity:1"
         offset="0.60000002" />
      <stop
         id="stop2945"
         style="stop-color:#b21736;stop-opacity:1"
         offset="0.69999999" />
      <stop
         id="stop2943"
         style="stop-color:#a51731;stop-opacity:1"
         offset="0.80000001" />
      <stop
         id="stop2941"
         style="stop-color:#931129;stop-opacity:1"
         offset="0.89999998" />
      <stop
         id="stop2937"
         style="stop-color:#7f0120;stop-opacity:1"
         offset="1" />
    </linearGradient>
    <radialGradient
       cx="398.77048"
       cy="184.7032"
       r="34"
       fx="398.77048"
       fy="184.7032"
       id="radialGradient2939"
       xlink:href="#linearGradient2933"
       gradientUnits="userSpaceOnUse"
       gradientTransform="matrix(-1,-1.06286e-5,-3.26933e-7,-1,802,364.729)" />
    <radialGradient
       cx="398.77048"
       cy="184.7032"
       r="34"
       fx="398.77048"
       fy="184.7032"
       id="radialGradient2970"
       xlink:href="#linearGradient2933"
       gradientUnits="userSpaceOnUse"
       gradientTransform="matrix(-1,-1.06286e-5,-3.26933e-7,-1,802,364.729)" />
  </defs>
  <metadata
     id="metadata7">
    <rdf:RDF>
      <cc:Work
         rdf:about="">
        <dc:format>image/svg+xml</dc:format>
        <dc:type
           rdf:resource="http://purl.org/dc/dcmitype/StillImage" />
        <dc:title />
      </cc:Work>
    </rdf:RDF>
  </metadata>
  <g
     transform="translate(-1516.0027,-599.36382)"
     id="layer1">
    <path
       d="m 435,182.36218 a 34,34 0 1 1 -68,0 34,34 0 1 1 68,0 z"
       inkscape:connector-curvature="0"
       transform="matrix(2.9117638,0,0,2.9117638,447.38541,167.36819)"
       id="path2924"
       style="fill:#c81e3b;fill-opacity:1;fill-rule:nonzero;stroke:none" />
    <path
       d="m 1666.5846,665.41738 0,-33.63469 -92.5992,0 -13.703,78.8962 36.1262,0 c 0,0 3.5784,-8.72011 19.1011,-8.72011 11.0391,0 19.1012,6.55259 19.1012,18.2707 0,11.79767 -9.014,18.68595 -20.347,18.68595 -19.1253,0 -20.3469,-13.70303 -20.3469,-13.70303 l -38.2024,0 c 0,24.97537 16.3689,44.84626 57.7188,44.84626 39.7246,0 60.2104,-20.64418 60.2104,-48.1682 0,-25.91009 -13.8442,-46.50724 -44.8463,-46.50724 -20.1083,0 -28.6518,8.30487 -28.6518,8.30487 l 3.7372,-18.27071 62.7017,0 z"
       inkscape:connector-curvature="0"
       id="path2922"
       style="fill:#ffffff;stroke:none" />
    <g
       id="text3003"
       style="font-size:93.92905426px;font-style:normal;font-weight:bold;line-height:125%;letter-spacing:0px;word-spacing:0px;fill:#c81e3b;fill-opacity:1;stroke:none;font-family:Sans;-inkscape-font-specification:Sans Bold">
      <path
         d="m 1737.2253,722.3029 0,-17.4741 -17.6117,0 0,-12.06218 17.6117,0 0,-17.47411 11.7412,0 0,17.47411 17.6575,0 0,12.06218 -17.6575,0 0,17.4741 z"
         inkscape:connector-curvature="0"
         id="path3006" />
      <path
         d="m 1807.5345,731.98016 -12.8877,0 0,-48.56976 c -4.7087,4.40297 -10.2582,7.6593 -16.6486,9.76899 l 0,-11.69527 c 3.3634,-1.10068 7.0172,-3.18748 10.9615,-6.2604 3.9443,-3.07282 6.6502,-6.65783 8.1179,-10.75506 l 10.4569,0 z"
         inkscape:connector-curvature="0"
         id="path3008" />
    </g>
  </g>
</svg>
