<?xml version="1.0" encoding="UTF-8" standalone="no"?>
<!-- Created with Inkscape (http://www.inkscape.org/) -->
<svg xmlns:rdf="http://www.w3.org/1999/02/22-rdf-syntax-ns#" xmlns="http://www.w3.org/2000/svg" height="610.05" width="600" version="1.1" xmlns:cc="http://creativecommons.org/ns#" xmlns:dc="http://purl.org/dc/elements/1.1/">
 <metadata>
  <rdf:RDF>
   <cc:Work rdf:about="">
    <dc:format>image/svg+xml</dc:format>
    <dc:type rdf:resource="http://purl.org/dc/dcmitype/StillImage"/>
    <dc:title/>
   </cc:Work>
  </rdf:RDF>
 </metadata>
 <g transform="translate(273.7992,-256.6033)" fill="#000">
  <path fill-rule="evenodd" d="m-224.32,718.36-49.465-38.572,0-52.732,103.68,0,0-103.68,52.732,0,49.465,38.574-52.732,0,0,103.68-103.68,0,0,52.732z"/>
  <path fill-rule="evenodd" d="m-120.62,822.15-49.465-38.574,0-65.113,49.465,0,0,103.68z"/>
  <path fill-rule="evenodd" d="m-67.895,665.68,103.68,0-49.465-38.572-54.22,0,0,38.572z"/>
  <path fill-rule="nonzero" d="m276.68,775.28-15.86,0,0,21.039-52.759,0,0-371.82,52.759-69.097-13.469-10.52-39.291,50.315,0-85.701,11.184-14.319-49.465-38.574-11.158,14.319,0,36.209-17.613-13.735-52.732,67.53,0,36.236-17.586-13.708-106.58,136.71,49.465,38.574,106.58-136.68,0,85.701-31.878,40.805,0,240.44-17.586-13.734-52.759,0,0,52.785,49.439,38.574,0-52.732,52.785,0,0,39.051,17.586,13.681,0-466.99,52.732-67.636,0,520.94,17.586,13.681,0-52.732,118.08,0-49.465-38.627z"/>
  <path fill-rule="evenodd" d="m-224.33,718.36-49.465-38.572,0-52.732,103.68,0,0-103.68,52.732,0,49.465,38.574-52.732,0,0,103.68-103.68,0,0,52.732z"/>
  <path fill-rule="evenodd" d="m-120.63,821.97-49.465-38.574,0-65.113,49.465,0,0,103.68z"/>
  <path fill-rule="evenodd" d="m-67.913,665.5,103.68,0-49.465-38.572-54.22,0,0,38.572z"/>
  <path fill-rule="nonzero" d="m276.73,775.28-15.86,0,0,21.039-52.759,0,0-371.82,52.759-69.097-13.469-10.52-39.291,50.315,0-85.701,11.184-14.319-49.465-38.574-11.158,14.319,0,36.209-17.613-13.735-52.732,67.53,0,36.262-17.586-13.734-106.58,136.71,49.465,38.574,106.58-136.68,0,85.701-31.878,40.805,0,240.44-17.586-13.734-52.759,0,0,52.785,49.439,38.6,0-52.759,52.785,0,0,39.051,17.586,13.708,0-467.02,52.732-67.636,0,520.94,17.586,13.708,0-52.759,118.08,0-49.465-38.627z"/>
 </g>
</svg>
