<?xml version="1.0" encoding="UTF-8" standalone="no"?>
<!-- Created with Inkscape (http://www.inkscape.org/) -->

<svg
   xmlns:dc="http://purl.org/dc/elements/1.1/"
   xmlns:cc="http://creativecommons.org/ns#"
   xmlns:rdf="http://www.w3.org/1999/02/22-rdf-syntax-ns#"
   xmlns:svg="http://www.w3.org/2000/svg"
   xmlns="http://www.w3.org/2000/svg"
   xmlns:inkscape="http://www.inkscape.org/namespaces/inkscape"
   version="1.0"
   width="368"
   height="256"
   id="svg2">
  <metadata
     id="metadata13">
    <rdf:RDF>
      <cc:Work
         rdf:about="">
        <dc:format>image/svg+xml</dc:format>
        <dc:type
           rdf:resource="http://purl.org/dc/dcmitype/StillImage" />
      </cc:Work>
    </rdf:RDF>
  </metadata>
  <defs
     id="defs11" />
  <g
     transform="translate(-554.35216,-189.91514)"
     id="layer1">
    <g
       transform="matrix(17.844695,0,0,17.844695,-7029.9273,-8366.7826)"
       id="g20844"
       style="fill:#01748f;fill-opacity:1">
      <path
         d="m 431.72492,487.97833 -1.24,0 0,-5.107 1.24,-1.588 0,6.695 z m -1.653,-2.563 -0.748,0.959 0,0.695 0.529,0.414 -1.395,0 -0.385,0.495 -1.573,0 3.572,-4.578 0,2.015 z m 3.305,6.292 0,0.494 -1.24,0 0,-8.743 1.24,-1.625 -0.317,-0.247 -0.923,1.183 0,-2.015 0.263,-0.337 -1.162,-0.908 -0.262,0.337 0,0.852 -0.414,-0.323 -1.238,1.588 0,0.852 -0.413,-0.322 -3.572,4.576 0.528,0.414 -0.851,0 0,1.24 1.161,0.908 0,-1.24 5.548,0 0,1.24 -2.401,0 0,2.398 -0.413,-0.322 -1.24,0 0,1.239 1.162,0.909 0,-1.241 1.239,0 0,0.918 0.413,0.323 0,-3.811 1.24,0 0,3.488 0.412,0.323 0,-1.241 2.774,0 -1.162,-0.907 -0.372,0"
         inkscape:connector-curvature="0"
         id="path20846"
         style="fill:#01748f;fill-opacity:1;fill-rule:evenodd;stroke:none" />
      <path
         d="m 433.37692,489.30833 0.413,0.323 0,-1.24 1.946,0 -1.16,-0.908 -1.199,0 0,1.825"
         inkscape:connector-curvature="0"
         id="path20848"
         style="fill:#01748f;fill-opacity:1;fill-rule:evenodd;stroke:none" />
      <path
         d="m 439.86392,482.61633 c -0.315,-0.341 -0.818,-0.544 -1.482,-0.543 -0.006,0 -0.011,0 -0.017,0 l -0.51,0 c -0.106,0 -0.221,0.005 -0.337,0.019 l 0,-1.675 -1.782,0 0,7.066 0.441,0 0,-6.626 0.902,0 0,1.825 0.046,-0.028 c 0.168,-0.099 0.483,-0.142 0.73,-0.141 l 0.511,0 c 0.594,0 0.957,0.168 1.176,0.403 0.219,0.235 0.324,0.591 0.324,1.163 l 0,3.404 0.44,0 0,-3.404 c 0,-0.312 -0.028,-0.583 -0.096,-0.828 -0.069,-0.243 -0.184,-0.461 -0.346,-0.635"
         inkscape:connector-curvature="0"
         id="path20850"
         style="fill:#01748f;fill-opacity:1;fill-rule:nonzero;stroke:none" />
      <path
         d="m 445.20092,480.41733 0,4.385 c -0.002,1.247 -0.22,1.673 -0.463,1.917 -0.322,0.323 -0.783,0.372 -1.145,0.372 l -0.616,0 c -0.363,0 -0.832,-0.049 -1.153,-0.372 -0.244,-0.244 -0.468,-0.67 -0.469,-1.917 0.001,-1.247 0.225,-1.673 0.469,-1.918 0.321,-0.322 0.79,-0.372 1.153,-0.371 l 0.542,0 c 0.249,-10e-4 0.563,0.042 0.731,0.141 l 0.047,0.029 0,-2.266 -0.44,0 0,1.675 c -0.116,-0.014 -0.23,-0.019 -0.338,-0.019 l -0.542,0 c -0.394,0.002 -0.996,0.04 -1.464,0.5 -0.169,0.167 -0.334,0.417 -0.436,0.769 -0.104,0.352 -0.162,0.811 -0.162,1.46 0,0.649 0.058,1.107 0.162,1.46 0.102,0.352 0.267,0.602 0.436,0.768 0.468,0.46 1.07,0.498 1.464,0.501 l 0.616,0 c 0.393,-0.002 0.989,-0.042 1.455,-0.501 0.171,-0.168 0.334,-0.419 0.433,-0.77 0.102,-0.353 0.157,-0.809 0.157,-1.458 l 0,-4.385 -0.437,0"
         inkscape:connector-curvature="0"
         id="path20852"
         style="fill:#01748f;fill-opacity:1;fill-rule:nonzero;stroke:none" />
    </g>
  </g>
</svg>
