<?xml version="1.0" encoding="UTF-8" standalone="no"?>
<!-- Created with Inkscape (http://www.inkscape.org/) -->
<svg xmlns:rdf="http://www.w3.org/1999/02/22-rdf-syntax-ns#" xmlns="http://www.w3.org/2000/svg" height="600" width="600" version="1.1" xmlns:cc="http://creativecommons.org/ns#" xmlns:dc="http://purl.org/dc/elements/1.1/">
 <defs></defs>
 <metadata>
  <rdf:RDF>
   <cc:Work rdf:about="">
    <dc:format>image/svg+xml</dc:format>
    <dc:type rdf:resource="http://purl.org/dc/dcmitype/StillImage"/>
    <dc:title/>
   </cc:Work>
  </rdf:RDF>
 </metadata>
 <g fill-rule="nonzero" transform="translate(-9.9986855,673.15262)">
  <path d="m310.01-673.15c165.68,0,299.99,134.31,299.99,299.99s-134.31,300.01-299.99,300.01c-165.7,0-300.01-134.33-300.01-300.01s134.31-299.99,300.01-299.99" fill="#af1d23"/>
  <path d="m455.69-510.12,39.541,0,0-13.498-23.313,0,0-39.151-16.228,0,0,52.649z" fill="#FFF"/>
  <path d="m448.91-510.12,0-13.498-28.166,0,0-6.5432,24.851,0,0-12.523-24.851,0,0-6.5865,27.364,0,0-13.498-43.614,0,0,52.649,44.416,0z" fill="#FFF"/>
  <path d="m129.51-536.44c0,15.578,9.6631,27.581,26.714,27.581,15.426,0,24.028-11.266,24.028-21.883h-15.925c-1.04,5.0049-3.0982,8.7531-8.5581,8.7531-7.6048,0-10.053-7.3665-10.053-14.451,0-7.0848,2.4483-14.43,10.053-14.43,6.6948,0,8.1248,5.8065,8.4931,7.7348h15.773c-1.4083-13.26-9.2948-20.799-23.811-20.843-16.25,0-26.714,11.05-26.714,27.538" fill="#FFF"/>
  <path d="m233.96-562.76-16.25,0,0,18.308-15.21,0,0-18.308-16.206,0,0,52.649,16.206,0,0-20.843,15.21,0,0,20.843,16.25,0,0-52.649z" fill="#FFF"/>
  <path d="m341.51-562.76-15.318,0,0,28.188-0.15167,0-15.318-28.188-16.618,0,0,52.649,15.34,0,0-28.729,0.15167,0,16.163,28.729,15.751,0,0-52.649z" fill="#FFF"/>
  <path d="m396.76-562.76-15.34,0,0,28.188-0.15166,0-15.34-28.188-16.575,0,0,52.649,15.34,0,0-28.729,0.12998,0,16.141,28.729,15.795,0,0-52.649z" fill="#FFF"/>
  <path d="m256.16-562.78-19.406,52.655,16.312,0,2.3437-7.4998,16.718,0,2.2187,7.4998,16.812,0-19.156-52.655-15.843,0zm7.8436,17.656,0.18749,0,4.6874,16.218-9.9373,0,5.0624-16.218z" fill="#FFF"/>
  <path d="m300.71-154.99c91.258,0,141.65-48.467,141.65-114.18,0-76.46-46.755-110.02-103.07-110.02-23.616,0-49.507,4.2249-69.028,19.131l-0.88831-0.95331,9.0564-42.856h147.16v-79.255h-217.07l-32.694,186.91h84.455c9.5548-14.928,24.526-20.973,45.889-20.973,27.234,0,45.391,16.791,45.391,45.217,0,26.108-21.341,43.332-48.142,43.332-14.083,0-26.801-3.2282-35.857-10.681-6.8248-5.1565-10.898-12.61-12.74-21.471h-89.438c-3.6399,32.153,19.521,105.8,135.33,105.8" fill="#FFF"/>
 </g>
</svg>
