<?xml version="1.0" encoding="UTF-8" standalone="no"?>
<!-- Created with Inkscape (http://www.inkscape.org/) -->
<svg xmlns:rdf="http://www.w3.org/1999/02/22-rdf-syntax-ns#" xmlns="http://www.w3.org/2000/svg" height="416.9" width="600" version="1.1" xmlns:cc="http://creativecommons.org/ns#" xmlns:dc="http://purl.org/dc/elements/1.1/">
 <metadata>
  <rdf:RDF>
   <cc:Work rdf:about="">
    <dc:format>image/svg+xml</dc:format>
    <dc:type rdf:resource="http://purl.org/dc/dcmitype/StillImage"/>
    <dc:title/>
   </cc:Work>
  </rdf:RDF>
 </metadata>
 <g transform="translate(-0.00147872,-125.30768)" fill="#000">
  <path fill-rule="nonzero" d="m181.03,125.31-7.6456,9.7811,0,24.762-12.014-9.3736-36.043,46.15,0,24.762-12.014-9.3735-103.92,132.99,15.372,12.031-24.762,0,0,36.043,33.793,26.392,0-36.059,161.39,0,0,36.059-69.854,0,0,69.691-12.014-9.3736-36.076,0,0,36.059,33.793,26.36,0-36.043,36.076,0,0,26.686,12.014,9.3573,0-110.74,36.059,0,0,101.38,12.014,9.3573,0-36.043,80.694,0-33.81-26.376-10.841,0,0,14.362-36.043,0,0-254.09,36.043-47.226-9.1943-7.1729-26.849,34.364,0-58.557,7.6456-9.7811-33.81-26.376zm-21.909,97.681,36.059-46.134,0,194.54-36.059,0,0-148.41zm-12.014,15.405,0,58.54-21.779,27.876,0,20.198,15.389,12.031-40.575,0-11.216,14.362-45.743,0,103.92-133.01z"/>
  <path fill-rule="evenodd" d="m243.24,410.01,12.014,9.4062,0-36.076,56.649,0-33.793-26.376-34.869,0,0,53.047z"/>
  <path fill-rule="nonzero" d="m431.99,215.51,0,0c-9.1617-9.9115-23.8-15.813-43.151-15.796h-15.292c-3.1136,0-6.4393,0.163-9.8137,0.5705v-48.675h-51.818v205.34h12.797v-192.54h26.229v53.03l1.3856-0.81511c4.8742-2.9017,14.019-4.1243,21.225-4.108h14.851c17.296,0,27.843,4.8906,34.234,11.737,6.3741,6.8142,9.4388,17.149,9.4388,33.793v98.903h12.797v-98.903c-0.0163-9.0801-0.81509-16.954-2.8202-24.061-1.9725-7.075-5.3307-13.416-10.058-18.47"/>
  <path fill-rule="nonzero" d="m587.25,151.61,0,127.45c-0.0163,36.239-6.3904,48.629-13.449,55.704-9.3736,9.3898-22.773,10.824-33.321,10.824h-17.916c-10.547,0-24.192-1.4509-33.549-10.824-7.075-7.0914-13.628-19.464-13.645-55.704,0.0163-36.255,6.5697-48.645,13.645-55.72,9.3573-9.3898,23.002-10.824,33.549-10.824h15.796c7.2054-0.016,16.351,1.2063,21.241,4.1243l1.3693,0.81511v-65.843h-12.797v48.694c-3.3908-0.4075-6.7164-0.5868-9.8137-0.5868h-15.796c-11.46,0.082-28.968,1.19-42.596,14.557-4.9394,4.8416-9.7322,12.096-12.699,22.333-3.0158,10.254-4.695,23.572-4.7112,42.45,0.0163,18.861,1.6954,32.163,4.7112,42.417,2.9669,10.237,7.7597,17.492,12.683,22.35,13.645,13.367,31.153,14.476,42.596,14.557l17.932-0.016c11.46-0.049,28.789-1.2063,42.352-14.541,4.9884-4.9068,9.6996-12.21,12.601-22.415,2.9506-10.238,4.5482-23.507,4.5646-42.352v-127.46h-12.748z"/>
 </g>
</svg>
