<?xml version="1.0" encoding="UTF-8" standalone="no"?>
<!-- Created with Inkscape (http://www.inkscape.org/) -->
<svg xmlns:rdf="http://www.w3.org/1999/02/22-rdf-syntax-ns#" xmlns="http://www.w3.org/2000/svg" height="346.21" width="600" version="1.1" xmlns:cc="http://creativecommons.org/ns#" xmlns:dc="http://purl.org/dc/elements/1.1/">
 <metadata>
  <rdf:RDF>
   <cc:Work rdf:about="">
    <dc:format>image/svg+xml</dc:format>
    <dc:type rdf:resource="http://purl.org/dc/dcmitype/StillImage"/>
    <dc:title/>
   </cc:Work>
  </rdf:RDF>
 </metadata>
 <g transform="translate(144.0512,-388.52388)" fill="#000">
  <path fill-rule="evenodd" d="m-115.97,650.58-28.072-21.89,0-29.926,58.842,0,0-58.842,29.926,0,28.072,21.891-29.926,0,0,58.842-58.842,0,0,29.926z"/>
  <path fill-rule="evenodd" d="m-57.119,709.48-28.072-21.891,0-36.952,28.072,0,0,58.842z"/>
  <path fill-rule="evenodd" d="m-27.199,620.68,58.842,0-28.072-21.89-30.77,0,0,21.89z"/>
  <path fill-rule="nonzero" d="m168.35,682.88-9.0005,0,0,11.94-29.941,0,0-211.01,29.941-39.213-7.6436-5.9702-22.298,28.554,0-48.636,6.3471-8.126-28.072-21.891-6.332,8.126,0,20.549-9.9955-7.7945-29.926,38.324,0,20.564-9.9804-7.7793-60.486,77.582,28.072,21.891,60.486-77.567,0,48.636-18.091,23.157,0,136.45-9.9804-7.7944-29.941,0,0,29.956,28.057,21.891,0-29.926,29.956,0,0,22.162,9.9804,7.7643,0-265.02,29.926-38.384,0,295.64,9.9804,7.7643,0-29.926,67.014,0-28.072-21.921z"/>
  <path fill-rule="evenodd" d="m-115.98,650.58-28.072-21.89,0-29.926,58.842,0,0-58.842,29.926,0,28.072,21.891-29.926,0,0,58.842-58.842,0,0,29.926z"/>
  <path fill-rule="evenodd" d="m-57.129,709.38-28.072-21.891,0-36.952,28.072,0,0,58.842z"/>
  <path fill-rule="evenodd" d="m-27.209,620.58,58.842,0-28.072-21.89-30.77,0,0,21.89z"/>
  <path fill-rule="nonzero" d="m168.38,682.88-9.0005,0,0,11.94-29.941,0,0-211.01,29.941-39.213-7.6436-5.9702-22.298,28.554,0-48.636,6.3471-8.126-28.072-21.891-6.332,8.126,0,20.549-9.9955-7.7945-29.926,38.324,0,20.579-9.9804-7.7944-60.486,77.582,28.072,21.891,60.486-77.567,0,48.636-18.091,23.157,0,136.45-9.9804-7.7944-29.941,0,0,29.956,28.057,21.906,0-29.941,29.956,0,0,22.162,9.9804,7.7794,0-265.04,29.926-38.384,0,295.64,9.9804,7.7794,0-29.941,67.014,0-28.072-21.921z"/>
  <path fill-rule="nonzero" d="m316.43,463.18,0,0c-7.6135-8.2316-19.75-13.131-35.821-13.116h-12.709c-2.578,0-5.337,0.13569-8.1562,0.46729v-40.419h-43.027v170.51h10.629v-159.88h21.785v44.038l1.1458-0.6784c4.0555-2.4121,11.639-3.4223,17.624-3.4072h12.332c14.368,0,23.127,4.0554,28.434,9.7392,5.2917,5.6686,7.8245,14.247,7.8245,28.072v82.12h10.629v-82.12c-0.0151-7.5382-0.67843-14.096-2.3368-19.991-1.6433-5.8797-4.4173-11.141-8.3522-15.332"/>
  <path fill-rule="nonzero" d="m445.35,410.08,0,105.82c-0.0151,30.107-5.3068,40.389-11.171,46.269-7.7793,7.7944-18.906,8.9854-27.665,8.9854h-14.886c-8.7592,0-20.081-1.191-27.861-8.9854-5.8797-5.8797-11.307-16.162-11.322-46.269,0.0151-30.092,5.4425-40.374,11.322-46.269,7.7793-7.7794,19.102-8.9855,27.861-8.9704h13.116c5.9852-0.015,13.584,0.9951,17.639,3.4073l1.1458,0.6784v-54.666h-10.644v40.434c-2.8042-0.3466-5.5631-0.48229-8.1411-0.48229h-13.126c-9.5131,0.06-24.046,0.97989-35.369,12.091-4.1007,4.0103-8.0808,10.041-10.538,18.544-2.5177,8.503-3.9047,19.569-3.9198,35.233,0.0151,15.664,1.4021,26.73,3.9198,35.248,2.4574,8.4879,6.4375,14.518,10.538,18.544,11.322,11.096,25.856,12.016,35.369,12.091l14.88-0.015c9.5131-0.045,23.911-1.0102,35.173-12.076,4.1309-4.0706,8.0507-10.131,10.463-18.604,2.4424-8.503,3.7841-19.539,3.7992-35.188v-105.81h-10.599z"/>
 </g>
</svg>
