<?xml version="1.0" encoding="UTF-8" standalone="no"?>
<!-- Created with Inkscape (http://www.inkscape.org/) -->
<svg xmlns:rdf="http://www.w3.org/1999/02/22-rdf-syntax-ns#" xmlns="http://www.w3.org/2000/svg" height="148.46" width="600" version="1.1" xmlns:cc="http://creativecommons.org/ns#" xmlns:dc="http://purl.org/dc/elements/1.1/">
 <defs></defs>
 <metadata>
  <rdf:RDF>
   <cc:Work rdf:about="">
    <dc:format>image/svg+xml</dc:format>
    <dc:type rdf:resource="http://purl.org/dc/dcmitype/StillImage"/>
    <dc:title/>
   </cc:Work>
  </rdf:RDF>
 </metadata>
 <g fill-rule="nonzero" transform="translate(-109.72146,-561.94513)" fill="#dc7228">
  <path d="m702.72,597.37c-3.8185,0-7.0313,2.9386-7.0313,6.9063,0,4.0124,3.2128,6.9376,7.0313,6.9376,3.8036,0,7.0001-2.9251,7.0001-6.9376,0-3.9677-3.1964-6.9063-7.0001-6.9063zm0,1.1563c3.1324,0,5.625,2.4536,5.625,5.75,0,3.3412-2.4926,5.7813-5.625,5.7813-3.1473,0-5.6563-2.4401-5.6563-5.7813,0-3.2965,2.509-5.75,5.6563-5.75zm-2.6875,1.7813,0,7.9688,1.25,0,0-3.4688,1.375,0,2.125,3.4688,1.3438,0-2.2813-3.5c1.1784-0.14916,2.0625-0.80173,2.0625-2.2188,0-1.596-0.94942-2.25-2.8438-2.25h-3.0313zm1.25,1.0313,1.625,0c0.83531,0,1.75,0.14196,1.75,1.1563,0,1.2231-0.9083,1.3125-1.9375,1.3125h-1.4375v-2.4688z"/>
  <path d="m555.31,578.94c-28.385,0-39.511,5.6857-41.375,27.344-2.312-7.7713-7.2002-10.281-17-10.281-8.7707,0-15.065,3.4083-21.688,13.313-1.5513-9.3375-8.262-13.313-18.375-13.313-7.9951,0-14.093,3.0277-20.313,12.156l-0.53125-9.9063h-28.407v99.501h28.813v-68.469c0-8.1591,0.98114-11.703,5.8438-11.688,4.2511,0,5.3126,3.7075,5.3126,11.688v68.469h29.032v-69.251c0-7.7116,0.9158-10.906,5.7188-10.906,4.2511-0.0149,5.25,3.26,5.25,11.031v69.126h25.688c4.0721,8.9646,11.523,12.656,22.844,12.656,10.456,0,18.361-5.2434,25.625-16.938l1.5625,14.031h33.813v-9.6876h24.344l0.53126-0.87501,13.906-24.875,13.844,24.875,0.46875,0.87501h34.438l-1.4375-2.5313-28.188-49.125,26.219-45.938,1.4375-2.5313h-34.438l-0.5,0.87501-11.844,21.594-11.875-21.594-0.46876-0.87501h-28.719c-4.4301-13.574-16.009-18.75-39.532-18.75zm-1.25,21.906c6.9658,0,7.6876,6.0354,7.6876,16.969v8.6251c-23.553,1.4469-37.475,4.2699-45.157,12.906v-13.75c0-2.8341-0.0859-5.3955-0.25001-7.4688h28.625v-2.3125c0-10.441,1.8744-14.969,9.0938-14.969zm43,10.75,19.625,34.469,0.0312,0.0312-0.0312,0.0312-19.563,34.094,0-64.657c0-1.3872-0.0177-2.686-0.0625-3.9688zm-35.407,36.375,0,24.125c0,10.978-1.3631,16-8.3438,16-6.9957,0-8.4688-5.0219-8.4688-16v-7.7188c0-11.426,4.0892-15.124,16.813-16.406z"/>
  <path d="m181.93,633.93-28.013,0,0-6.1455c0-8.8005-2.0435-12.888-7.9951-12.888-5.9366,0-7.3388,4.7135-7.3388,14.32v43.779c0,9.6209,1.2082,14.29,7.1598,14.29,5.9217,0,7.3537-4.6688,7.3537-14.29v-8.1591h28.833v7.9503c0,22.717-10.411,32.129-35.351,32.129-29.072,0-36.858-12.276-36.858-46.016v-15.572c0-33.755,7.7862-46.016,36.858-46.016,24.94,0,35.351,9.4121,35.351,32.129v4.4898z"/>
  <path d="m219.12,585.68-28.848,0,0-23.732,28.848,0,0,23.732z"/>
  <path d="m219.12,702.43-28.848,0,0-102.65,28.848,0,0,102.65z"/>
  <path d="m299.52,702.43-29.057,0,0-71.777c0-8.189-1.0292-12.485-6.1753-12.485-4.8925,0-6.5034,3.8931-6.5034,12.485v71.777h-28.848v-102.65h28.027l0.82039,11.829c6.5034-9.6209,13.484-14.29,21.882-14.29,16.154,0,19.853,9.6209,19.853,30.25v74.864z"/>
  <path d="m343.97,597.31c-28.236,0-36,12.678-36,46v15.594c0,33.532,7.7562,46,36.813,46,24.955,0,35.407-9.6168,35.407-32.125v-3.4688h-27.844v3.6875c0,9.6209-1.6081,14.281-8.1563,14.281-5.9068,0-7.3751-4.6605-7.3751-14.281v-17.406h43.375v-12.281c0-33.949-7.5801-46-36.219-46zm0.625,16.344c6.3543,0,7.7501,5.1164,7.7501,15.125v10.469h-15.531v-10.469c0-10.232,1.4718-15.125,7.7813-15.125z"/>
 </g>
</svg>
