<?xml version="1.0" encoding="UTF-8" standalone="no"?>
<!-- Created with Inkscape (http://www.inkscape.org/) -->

<svg
   xmlns:dc="http://purl.org/dc/elements/1.1/"
   xmlns:cc="http://creativecommons.org/ns#"
   xmlns:rdf="http://www.w3.org/1999/02/22-rdf-syntax-ns#"
   xmlns:svg="http://www.w3.org/2000/svg"
   xmlns="http://www.w3.org/2000/svg"
   xmlns:inkscape="http://www.inkscape.org/namespaces/inkscape"
   version="1.1"
   width="191.83604"
   height="226.95653"
   viewBox="0 0 153.46884 181.56522"
   id="svg3051">
  <metadata
     id="metadata3115">
    <rdf:RDF>
      <cc:Work
         rdf:about="">
        <dc:format>image/svg+xml</dc:format>
        <dc:type
           rdf:resource="http://purl.org/dc/dcmitype/StillImage" />
        <dc:title />
      </cc:Work>
    </rdf:RDF>
  </metadata>
  <defs
     id="defs3113" />
  <g
     transform="translate(-332.46558,62.382615)"
     id="layer1">
    <path
       d="m 434.07558,-22.062615 c 9.85,-19.81 28.62,-34.61 49.91,-40.32 -0.52,1.66 -1.03,3.33 -1.55,4.99 -19.06,6.24 -35.38,20.29 -44.58,38.08 1.12,0.79 2.24,1.58 3.37,2.36 1.04,0.73 2.08,1.46 3.12,2.19 0.99,0.68 1.97,1.37 2.95,2.06 0.71,0.5 2.12,1.49 2.82,1.98 1.08,0.7499997 2.16,1.4999997 3.25,2.2399997 1.12,0.77 2.25,1.53 3.38,2.29 8.87,6.07999999 17.65,12.29 26.46,18.4500003 3.85,2.41 2.46,7.6 2.58,11.38 -0.25,30.02 0.05,60.05 -0.15,90.069995 0.08,3.5 -3.62,5.68 -6.8,5.46 -46.36,0 -92.73,0.04 -139.1,-0.02 -3.51,0.21 -6.87,-2.88 -6.47,-6.49 -0.02,-14.999995 -0.02,-30.019995 0.01,-45.019995 -0.17,-2.16 0.95,-5.09 3.54,-4.92 25.57,-0.47 51.14,0.29 76.71,-0.23 0.03,2.2 0.05,4.4 0.08,6.59 -24.64,0.01 -49.28,-0.01 -73.92,0.01 -0.03,14.69 -0.04,29.37 0.01,44.059995 46.56,0.03 93.11,-0.03 139.67,0.03 -0.06,-31.769995 0.15,-63.559995 -0.09,-95.319995 -1.74,-1.89 -4.06,-3.1 -6.13,-4.58 -21.15,-14.5200003 -42.29,-29.04 -63.41,-43.58 -24.26,16.61 -48.53,33.1899997 -72.82,49.75 -1.48,-1.58 -2.96,-3.15 -4.45,-4.72 24.69,-17.1400003 49.28,-34.42 73.98,-51.54 2.47,-2.08 5.72,-0.94 7.94,0.89 6.54,4.66 13.16,9.2 19.69,13.86 z"
       inkscape:connector-curvature="0"
       id="path3055"
       style="fill:#ed1b24" />
    <path
       d="m 437.85558,-19.312615 c 9.2,-17.79 25.52,-31.84 44.58,-38.08 l 1.7,-0.59 c -0.42,1.58 -0.84,3.15 -1.25,4.72 -18.1,5.68 -33.32,19.36 -41.66,36.31 -1.13,-0.78 -2.25,-1.57 -3.37,-2.36 z"
       inkscape:connector-curvature="0"
       id="path3057"
       style="fill:#f8981d" />
    <path
       d="m 441.22558,-16.952615 c 8.34,-16.95 23.56,-30.63 41.66,-36.31 l 1.41,-0.47 c -0.47,1.51 -0.94,3.03 -1.41,4.54 -16.63,5.95 -30.59,18.71 -38.54,34.43 -1.04,-0.73 -2.08,-1.46 -3.12,-2.19 z"
       inkscape:connector-curvature="0"
       id="path3059"
       style="fill:#fef200" />
    <path
       d="m 444.34558,-14.762615 c 7.95,-15.72 21.91,-28.48 38.54,-34.43 l 1.57,-0.59 c -0.39,1.54 -0.78,3.07 -1.17,4.6 -15.81,5.34 -28.63,17.66 -35.99,32.48 -0.98,-0.69 -1.96,-1.38 -2.95,-2.06 z"
       inkscape:connector-curvature="0"
       id="path3061"
       style="fill:#73c154" />
    <path
       d="m 447.29558,-12.702615 c 7.36,-14.82 20.18,-27.14 35.99,-32.48 l 1.23,-0.46 c -0.39,1.67 -0.79,3.34 -1.21,5.01 -14.12,5.64 -26.43,16.17 -33.19,29.91 -0.7,-0.49 -2.11,-1.48 -2.82,-1.98 z"
       inkscape:connector-curvature="0"
       id="path3063"
       style="fill:#1a4797" />
    <path
       d="m 450.11558,-10.722615 c 6.76,-13.74 19.07,-24.27 33.19,-29.91 0.46,-0.19 1.39,-0.58 1.85,-0.77 -0.52,1.54 -1.04,3.08 -1.55,4.62 -6.48,2.87 -12.76,6.39 -17.84,11.39 -5.19,4.78 -8.98,10.8 -12.4,16.9099997 -1.09,-0.74 -2.17,-1.49 -3.25,-2.2399997 z"
       inkscape:connector-curvature="0"
       id="path3065"
       style="fill:#981283" />
    <path
       d="m 483.60558,-36.782615 1.29,-0.59 c -0.38,1.61 -0.67,3.26 -1.31,4.79 -3.19,2.29 -7.03,3.48 -10.19,5.83 -7.48,4.99 -13.07,12.37 -16.65,20.5599997 -1.13,-0.76 -2.26,-1.52 -3.38,-2.29 3.42,-6.1099997 7.21,-12.1299997 12.4,-16.9099997 5.08,-5 11.36,-8.52 17.84,-11.39 z"
       inkscape:connector-curvature="0"
       id="path3067"
       style="fill:#cc98c7" />
    <path
       d="m 347.18558,24.937385 c 6.57,-3.26 14.22,-1.89 21.15,-0.8 -0.02,2.65 -0.05,5.3 -0.15,7.95 -4.31,0.06 -3.06,-5.97 -6.82,-6.84 -3.56,-0.9 -8.05,-0.69 -10.56,2.34 -2.34,3.13 -2.49,7.25 -2.53,11.01 0.14,3.45 0.33,7.21 2.41,10.13 2.45,3.19 7.13,3.28 10.66,2.22 3.88,-1.07 2.28,-7.63 6.99,-7.08 0.06,2.72 0.07,5.45 0.07,8.18 -6.36,1.36 -13.17,2.35 -19.51,0.42 -5.05,-1.51 -7.78,-6.81 -7.87,-11.8 -0.45,-5.7 0.55,-12.8 6.16,-15.73 z"
       inkscape:connector-curvature="0"
       id="path3069"
       style="fill:#70bf54" />
    <path
       d="m 443.26558,26.827385 c 2.07,-0.59 4.14,-1.18 6.22,-1.77 -0.12,2.68 -0.2,5.36 -0.26,8.04 1.55,0.01 3.1,0.03 4.65,0.05 l 0,1.61 c -1.5,-0.01 -2.99,-0.02 -4.49,-0.03 0.13,4.94 -0.46,9.94 0.36,14.83 1.13,2.2 4.16,0.88 6.13,1.3 -2.67,2.27 -6.35,3 -9.74,2.23 -1.64,-0.37 -2.68,-1.98 -2.76,-3.59 -0.35,-4.76 -0.03,-9.54 -0.15,-14.31 -1.3,-0.49 -2.61,-0.97 -3.76,-1.76 0.94,-0.1 2.84,-0.31 3.79,-0.41 0,-2.07 0,-4.13 0.01,-6.19 z"
       inkscape:connector-curvature="0"
       id="path3071"
       style="fill:#70bf54" />
    <path
       d="m 370.92558,33.106137 c 0.85375,-0.0072 1.69243,-0.02064 2.66328,-0.02912 0.96703,-0.008 2.07827,-0.02488 3.03939,-0.03264 0.94563,-0.008 1.71962,-0.05672 2.59967,-0.05432 2.97335,0.008 1.96266,-0.277816 2.26766,1.397184 2.05,-1.29 4.59,-2.81 7.02,-1.48 2.77,1.03 2.99,6.700004 -0.67,6.300004 -2.2,0.26 -2.26,-2.840004 -3.28,-4.180004 -1.25,0.74 -3.11,1.21 -3.19,2.960004 -0.6,4.15 -0.28,8.36 -0.09,12.53 1.49,0.56 2.97,1.17 4.25,2.14 -4.9125,0.002 -9.8,-0.0175 -14.7,-0.01 1.18,-0.86 2.44,-1.6 3.7,-2.33 0.17,-4.95 0.14,-9.9 0.02,-14.850004 -0.315,-0.165 -0.6225,-0.351328 -0.92578,-0.548944 -0.30328,-0.197616 -0.60234,-0.406536 -0.90047,-0.61668 -0.0745,-0.05248 -0.22522,-0.103456 -0.4094,-0.15356 -0.18418,-0.05008 -0.40187,-0.0994 -0.61039,-0.14876 -0.20853,-0.04928 -0.4079,-0.0987 -0.55546,-0.14896 -0.14756,-0.05024 -0.24331,-0.101344 -0.24459,-0.154144 -0.006,-0.246592 -0.001,-0.302696 0.0161,-0.5902 z"
       inkscape:connector-curvature="0"
       id="path3073"
       style="fill:#70bf54" />
    <path
       d="m 86.90625,118.5 c -4.455932,0.15344 -8.78125,1.8125 -10.59375,6.09375 -1.7,5.375 -2.1375,12.0875 1.4375,16.8125 4.25,4.15 11.0875,3.78125 16.4375,2.40625 3.425,-0.725 4.63125,-4.05 5.03125,-7.125 -1.4375,-0.0375 -2.90625,-0.0687 -4.34375,-0.0937 -1.4,2.7375 -3.01875,6.6875 -6.90625,5.75 -4.9125,-0.5125 -4.0375,-6.7375 -4.5625,-10.25 C 88.93125,132.06875 94.475,132.1 100,132 99.8,127.5 99.525,121.50625 94.5625,119.59375 92.289063,118.84844 89.579809,118.40793 86.90625,118.5 z m 0.21875,2.3125 c 0.261011,-0.0264 0.540625,-0.0211 0.84375,0 4.65,-0.0875 3.91875,5.775 4.40625,8.875 -2.95,0.0125 -5.925,0.0125 -8.875,0 0.328125,-2.97656 -0.290161,-8.47954 3.625,-8.875 z"
       inkscape:connector-curvature="0"
       transform="matrix(0.80000002,0,0,0.80000002,332.46558,-62.382619)"
       id="path3075"
       style="fill:#70bf54" />
    <path
       d="m 116.65625,118.53125 c -3.875,0.0625 -9.81875,1.36875 -9.59375,6.34375 -0.075,2.95 3.65625,1.56875 5.46875,1.96875 0.675,-2.7125 1.4125,-7.45 5.4375,-6.0625 4.2375,0.6 2.55,6.00625 3.0625,8.96875 -4.3625,0.15 -9.075,-0.55625 -13.125,1.46875 -5.4,2.925 -3.8125,12.75625 2.5625,13.28125 4.2375,1.5625 8.60625,-3.34375 12.40625,-0.46875 3.76427,0.1 7.175,0.0563 10.75,-0.28125 -1.4875,-1.05 -3.075,-1.95625 -4.6875,-2.78125 -0.4625,-5.8625 0.425,-11.825 -0.6875,-17.625 -1.6625,-4.6125 -7.46875,-4.875 -11.59375,-4.8125 z m 4.40625,13.125 c -0.275,3.325 0.75625,10.05625 -4.46875,9.53125 -3.65,0.3625 -4.0375,-4.4625 -2.9375,-6.9375 1.3375,-2.8 4.89375,-2.04375 7.40625,-2.59375 z"
       inkscape:connector-curvature="0"
       transform="matrix(0.80000002,0,0,0.80000002,332.46558,-62.382619)"
       id="path3077"
       style="fill:#70bf54" />
    <path
       d="m 167.9375,118.46875 c -2.5875,0.0156 -5.1875,0.5625 -7.53125,1.53125 -4.65,2.175 -5.46875,8 -5.40625,12.5625 -0.0875,4.4875 1.575,9.89375 6.375,11.28125 4.6875,1.225 10.0875,1.44375 14.5,-0.84375 2.4375,-1.1375 2.5625,-4.0625 3.25,-6.3125 -1.4625,-0.025 -2.9125,-0.05 -4.375,-0.0625 -1.3625,2.7125 -2.96875,6.625 -6.78125,5.75 -4.9875,-0.45 -4.15625,-6.6875 -4.65625,-10.25 5.5,-0.05 10.9875,-0.05 16.5,-0.125 -0.2625,-4.1875 -0.14375,-9.625 -4.40625,-11.9375 -2.31875,-1.10625 -4.88125,-1.60937 -7.46875,-1.59375 z m -0.875,2.34375 c 0.26412,-0.0185 0.5375,-0.0313 0.84375,0 4.65,-0.05 3.80625,5.7875 4.28125,8.875 -2.9375,0.025 -5.875,0.0125 -8.8125,0 0.32812,-2.97656 -0.27435,-8.59695 3.6875,-8.875 z"
       inkscape:connector-curvature="0"
       transform="matrix(0.80000002,0,0,0.80000002,332.46558,-62.382619)"
       id="path3079"
       style="fill:#70bf54" />
    <path
       d="m 125.5,154 c -2.35,0.025 -4.68125,0.0188 -7.03125,0.0313 -2.5875,4.52499 -5.2375,9.03125 -7.75,13.59375 l 4.96875,0 c 0.3875,-0.58749 1.19375,-1.78749 1.59375,-2.375 3.1625,0 6.30625,0.0125 9.46875,0 0.275,0.5125 0.925,1.83125 1.1875,2.34375 1.7404,0.013 2.9596,-0.0111 4.6875,-0.0313 -2.375,-4.65 -4.5375,-9.025 -7.125,-13.5625 z m -3.53125,2.6875 c 1.075,1.8125 2.15625,3.6625 3.21875,5.5 -2.1375,0.0125 -4.28125,0 -6.40625,0 1.05,-1.8375 2.125,-3.675 3.1875,-5.5 z"
       inkscape:connector-curvature="0"
       transform="matrix(0.80000002,0,0,0.80000002,332.46558,-62.382619)"
       id="path3087"
       style="fill:#ed1a23" />
    <path
       d="m 167.125,154.03125 c -2.70937,0.0234 -5.425,0.1 -8.125,0.0625 0,4.4 0.0125,8.7875 0,13.1875 2.64955,-0.0304 5.39878,2.2e-4 8.0625,0 2.69696,-2.2e-4 5.4125,0.075 8.09375,-0.21875 2.8375,-0.1375 3.30625,-3.55625 3.21875,-5.78125 0.075,-2.55 0.2,-6.54375 -3.125,-6.96875 -2.7,-0.28125 -5.41563,-0.30469 -8.125,-0.28125 z m -3.53125,3.21875 c 1.7125,0.025 3.4132,-0.0151 5.125,0 1.64687,0.014 4.26789,-0.18135 5.125,0.5625 0.75991,0.65949 0.45946,5.22789 -0.125,5.90625 -0.56244,0.6528 -6.83125,0.36875 -10.15625,0.40625 0,-2.2875 0.0188,-4.5875 0.0313,-6.875 z"
       inkscape:connector-curvature="0"
       transform="matrix(0.80000002,0,0,0.80000002,332.46558,-62.382619)"
       id="path3089"
       style="fill:#ec121b" />
    <path
       d="m 440.66558,60.887385 c 2.11,-0.03 4.23,-0.05 6.34,-0.08 2.11,2.78 4.19,5.58 6.32,8.34 0.01,-2.78 -0.04,-5.55 -0.08,-8.33 0.93999,6.2e-4 2.83437,-0.004 3.73312,-0.007 0,3.55 -0.003,7.14688 -0.003,10.69688 -2.11,0 -4.22,0 -6.32,0.02 -2.11,-2.75 -4.19,-5.52 -6.3,-8.27 -0.04,2.78 -0.03,5.56 -0.04,8.34 -1.26303,0.0119 -2.45652,-0.004 -3.63116,-8e-4 -0.01,-3.52 -0.0188,-7.1991 -0.0188,-10.7091 z"
       inkscape:connector-curvature="0"
       id="path3091"
       style="fill:#ed1820" />
    <path
       d="m 345.36558,82.147385 c 2.06,-2.35 5.61,-1.82 8.43,-2.08 3.9,0.11 8.01,-0.55 11.74,0.84 2.44,1.09 1.88,4.14 2.32,6.29 -1.88,0.04 -3.76,0.07 -5.65,0.11 -0.21,-0.56 -0.63,-1.68 -0.84,-2.24 -3.18,-0.16 -6.38,-0.43 -9.54,0.01 -1.23,0 -1.64,1.43 -1.67,2.43 -0.21,2.22 -0.01,4.46 0.14,6.68 3.14,0.63 6.36,0.86 9.55,0.57 1.76,0.24 2.21,-1.67 2.89,-2.83 1.82,-0.01 3.65,-0.02 5.47,-0.01 -0.27,2.44 0.17,6.13 -2.86,7.01 -5.72,1.239995 -11.73,1.02 -17.5,0.15 -3.06,-0.44 -3.59,-3.92 -3.52,-6.45 0.09,-3.47 -0.54,-7.27 1.04,-10.48 z"
       inkscape:connector-curvature="0"
       id="path3097"
       style="fill:#1a4798" />
    <path
       d="m 61.5625,178.34375 c -3.804687,0.0203 -7.60625,0.0687 -11.40625,0.0313 -0.0125,7.9375 0.0125,15.875 0,23.8125 2.4125,0.0125 4.80625,0.0188 7.21875,0.0313 0.025,-2.0625 0.0375,-4.10625 0.0625,-6.15625 4.5875,-0.025 9.175,-0.0687 13.75,0.34375 0.3,1.9375 0.6,3.88125 0.875,5.84375 2.275,-0.0375 4.55625,-0.0375 6.84375,-0.0625 -0.175,-3.2375 0.54375,-6.975 -2.21875,-9.375 3.2,-2.825 2.66875,-7.475 1.90625,-11.25 -0.525,-2.4625 -3.45625,-3.075 -5.59375,-3.125 -3.80625,-0.10625 -7.632813,-0.11406 -11.4375,-0.0937 z m 2.8125,6.0625 c 2.321875,-0.0109 4.63125,0.025 6.9375,0.34375 0.8625,1.5625 1.5125,4.675 -0.875,5.1875 -4.3125,0.5 -8.675,0.13125 -13,0.21875 -0.0125,-1.9 -0.03125,-3.81875 -0.03125,-5.71875 2.31875,0.05 4.646875,-0.0203 6.96875,-0.0313 z"
       inkscape:connector-curvature="0"
       transform="matrix(0.80000002,0,0,0.80000002,332.46558,-62.382619)"
       id="path3099"
       style="fill:#1a4797" />
    <path
       d="m 105.84375,178.34375 c -3.65,0.025 -7.2875,0.0437 -10.9375,0.0313 -4.1625,7.9125 -8.2125,15.8875 -12.375,23.8125 2.7375,0.0125 5.48125,0.006 8.21875,0.0313 0.6625,-1.3625 1.325,-2.69375 2,-4.03125 l 15.1875,0 c 0.625,1.3375 1.25,2.6625 1.875,4 2.75,0 5.5,0.0125 8.25,0 -4.1125,-7.925 -8.11875,-15.91875 -12.21875,-23.84375 z M 99.875,183.875 c 3.0875,1.625 3.60625,6.2 5.53125,9 -3.375,0.025 -6.75,0.006 -10.125,0.0313 1.5,-3.025 2.85625,-6.14375 4.59375,-9.03125 z"
       inkscape:connector-curvature="0"
       transform="matrix(0.80000002,0,0,0.80000002,332.46558,-62.382619)"
       id="path3101"
       style="fill:#1a4797" />
    <path
       d="m 430.35558,80.317385 c 6.56,0 13.13,0 19.69,0 -0.01,1.54 -0.03,3.07 -0.04,4.61 -4.64,0 -9.28,0.01 -13.92,-0.02 -0.02,1.14 -0.03,2.29 -0.05,3.43 4.42,-0.01 8.84,-0.01 13.25,-0.02 0,1.51 0,3.02 0,4.54 -4.4,0 -8.81,0 -13.22,-0.03 -0.01,2.18 -0.01,4.37 -0.02,6.55 -1.89,0.01 -3.78,0.01 -5.68,0.03 0,-6.37 0.02,-12.73 -0.01,-19.09 z"
       inkscape:connector-curvature="0"
       id="path3103"
       style="fill:#1a4798" />
    <path
       d="m 452.58558,85.247385 c 0,-1.65 0,-3.29 0.01,-4.93 7.48,-0.01 14.96,0.01 22.44,-0.01 0.01,1.66 0.03,3.32 0.04,4.98 -2.72,-0.02 -5.44,-0.03 -8.17,-0.05 0,4.71 0,9.43 -0.01,14.14 -2.03,-0.01 -4.06,-0.02 -6.09,-0.05 0.14,-4.68 0.09,-9.36 0.09,-14.04 -2.77,-0.02 -5.54,-0.02 -8.31,-0.04 z"
       inkscape:connector-curvature="0"
       id="path3105"
       style="fill:#1a4798" />
  </g>
</svg>
