<?xml version="1.0" encoding="UTF-8" standalone="no"?>
<!-- Created with Inkscape (http://www.inkscape.org/) -->

<svg
   xmlns:dc="http://purl.org/dc/elements/1.1/"
   xmlns:cc="http://creativecommons.org/ns#"
   xmlns:rdf="http://www.w3.org/1999/02/22-rdf-syntax-ns#"
   xmlns:svg="http://www.w3.org/2000/svg"
   xmlns="http://www.w3.org/2000/svg"
   version="1.1"
   width="600"
   height="273.74762"
   id="svg19264">
  <defs
     id="defs19266">
    <clipPath
       id="clipPath7902">
      <path
         d="m 81.933,463.807 57.485,0 0,25.344 -57.485,0 0,-25.344 z"
         id="path7904" />
    </clipPath>
  </defs>
  <metadata
     id="metadata19269">
    <rdf:RDF>
      <cc:Work
         rdf:about="">
        <dc:format>image/svg+xml</dc:format>
        <dc:type
           rdf:resource="http://purl.org/dc/dcmitype/StillImage" />
        <dc:title></dc:title>
      </cc:Work>
    </rdf:RDF>
  </metadata>
  <g
     transform="translate(-50.000043,-395.48815)"
     id="layer1">
    <g
       transform="matrix(10.80145,0,0,-10.80145,-834.99516,5679.0239)"
       id="g7898">
      <g
         clip-path="url(#clipPath7902)"
         id="g7900">
        <g
           transform="translate(119.3651,476.4796)"
           id="g7906">
          <path
             d="m 0,0 c 0,1.487 -0.102,3.675 -0.45,5.733 -0.834,4.94 -2.117,6.056 -8.997,6.607 -2.499,0.199 -5.205,0.296 -7.4,0.331 l 0,-3.251 c 1.04,-0.037 2.202,-0.107 3.291,-0.223 3.836,-0.41 4.551,-1.241 5.015,-4.926 0.193,-1.535 0.252,-3.164 0.252,-4.274 0,-1.105 -0.059,-2.737 -0.252,-4.267 -0.464,-3.683 -1.179,-4.515 -5.015,-4.925 -1.089,-0.117 -2.251,-0.187 -3.291,-0.224 l 0,-3.254 c 2.195,0.035 4.901,0.134 7.4,0.333 6.88,0.55 8.163,1.668 8.997,6.607 C -0.102,-3.675 0,-1.486 0,0 m -28.016,12.34 c -6.879,-0.551 -8.163,-1.667 -8.997,-6.607 -0.348,-2.058 -0.45,-4.246 -0.45,-5.733 0,-1.486 0.102,-3.675 0.45,-5.733 0.834,-4.939 2.118,-6.057 8.997,-6.607 2.5,-0.199 5.206,-0.298 7.401,-0.333 l 0,3.254 c -1.041,0.037 -2.203,0.107 -3.293,0.224 -3.835,0.41 -4.551,1.242 -5.015,4.925 -0.193,1.53 -0.251,3.162 -0.251,4.267 0,1.11 0.058,2.739 0.251,4.274 0.464,3.685 1.18,4.516 5.015,4.926 1.09,0.116 2.252,0.186 3.293,0.223 l 0,3.251 c -2.195,-0.035 -4.901,-0.132 -7.401,-0.331 M 8.404,2.394 6.486,6.92 l 6.444,3.992 5.186,0 0,-20.808 -5.814,0 0,14.647 -3.898,-2.357 z"
             id="path7908"
             style="fill:#ed1c24;fill-opacity:1;fill-rule:nonzero;stroke:none" />
        </g>
      </g>
    </g>
  </g>
</svg>
