<?xml version="1.0" encoding="UTF-8" standalone="no"?>
<!-- Created with Inkscape (http://www.inkscape.org/) -->

<svg
   xmlns:dc="http://purl.org/dc/elements/1.1/"
   xmlns:cc="http://creativecommons.org/ns#"
   xmlns:rdf="http://www.w3.org/1999/02/22-rdf-syntax-ns#"
   xmlns:svg="http://www.w3.org/2000/svg"
   xmlns="http://www.w3.org/2000/svg"
   version="1.1"
   width="600"
   height="170.99884"
   id="svg3596">
  <defs
     id="defs3598">
    <clipPath
       id="clipPath3005">
      <path
         d="m 0,0 595.276,0 0,595.276 L 0,595.276 0,0 z"
         id="path3007" />
    </clipPath>
    <clipPath
       id="clipPath3005-4">
      <path
         d="m 0,0 595.276,0 0,595.276 L 0,595.276 0,0 z"
         id="path3007-0" />
    </clipPath>
  </defs>
  <metadata
     id="metadata3601">
    <rdf:RDF>
      <cc:Work
         rdf:about="">
        <dc:format>image/svg+xml</dc:format>
        <dc:type
           rdf:resource="http://purl.org/dc/dcmitype/StillImage" />
        <dc:title></dc:title>
      </cc:Work>
    </rdf:RDF>
  </metadata>
  <g
     transform="translate(-543.1951,-263.66565)"
     id="layer1">
    <g
       transform="matrix(6.7026824,0,0,-6.7026824,233.85826,3639.7565)"
       id="g3660"
       style="fill:#ed1c24;fill-opacity:1">
      <g
         transform="translate(96.2454,495.7198)"
         id="g2997"
         style="fill:#ed1c24;fill-opacity:1">
        <path
           d="m 0,0 0,-14.744 5.853,0 0,20.945 -5.22,0 -6.486,-4.018 1.93,-4.556 L 0,0 z"
           id="path2999"
           style="fill:#ed1c24;fill-opacity:1;fill-rule:nonzero;stroke:none" />
      </g>
      <g
         id="g3001"
         style="fill:#ed1c24;fill-opacity:1">
        <g
           clip-path="url(#clipPath3005-4)"
           id="g3003"
           style="fill:#ed1c24;fill-opacity:1">
          <g
             transform="translate(55.6612,503.3595)"
             id="g3009"
             style="fill:#ed1c24;fill-opacity:1">
            <path
               d="m 0,0 c 2.516,0.2 5.24,0.298 7.45,0.333 l 0,-3.273 C 6.402,-2.978 5.233,-3.048 4.135,-3.165 c -3.86,-0.412 -4.58,-1.249 -5.048,-4.958 -0.194,-1.546 -0.252,-3.185 -0.252,-4.302 0,-1.113 0.058,-2.755 0.252,-4.296 0.468,-3.707 1.188,-4.545 5.048,-4.957 1.098,-0.118 2.267,-0.188 3.315,-0.226 l 0,-3.275 c -2.21,0.036 -4.934,0.134 -7.45,0.335 -6.925,0.553 -8.217,1.679 -9.057,6.651 -0.35,2.071 -0.453,4.275 -0.453,5.771 0,1.496 0.103,3.699 0.453,5.771 C -8.217,-1.679 -6.925,-0.555 0,0"
               id="path3011"
               style="fill:#ed1c24;fill-opacity:1;fill-rule:nonzero;stroke:none" />
          </g>
          <g
             transform="translate(83.8629,490.9372)"
             id="g3013"
             style="fill:#ed1c24;fill-opacity:1">
            <path
               d="m 0,0 c 0,-1.496 -0.103,-3.7 -0.453,-5.771 -0.839,-4.972 -2.131,-6.097 -9.057,-6.651 -2.515,-0.2 -5.239,-0.299 -7.448,-0.334 l 0,3.275 c 1.047,0.037 2.216,0.107 3.312,0.225 3.862,0.413 4.582,1.25 5.048,4.957 0.195,1.541 0.254,3.183 0.254,4.296 0,1.118 -0.059,2.757 -0.254,4.302 -0.466,3.709 -1.186,4.546 -5.048,4.959 -1.096,0.116 -2.265,0.187 -3.312,0.224 l 0,3.273 c 2.209,-0.035 4.933,-0.133 7.448,-0.333 6.926,-0.555 8.218,-1.679 9.057,-6.651 C -0.103,3.7 0,1.497 0,0"
               id="path3015"
               style="fill:#ed1c24;fill-opacity:1;fill-rule:nonzero;stroke:none" />
          </g>
          <g
             transform="translate(118.5756,494.9995)"
             id="g3017"
             style="fill:#ed1c24;fill-opacity:1">
            <path
               d="m 0,0 0,-5.297 3.175,0 0,12.219 -3.175,0 0,-4.559 -4.836,0 0,4.559 -3.175,0 0,-12.219 3.175,0 0,5.297 L 0,0 z m 5.851,-5.297 4.319,0 c 4.19,0 6.922,2.159 6.922,6.109 0,3.987 -2.713,6.11 -6.922,6.11 l -4.319,0 0,-12.219 z m 3.175,9.856 1.366,0 c 2.159,0 3.433,-1.366 3.433,-3.747 0,-2.381 -1.274,-3.747 -3.433,-3.747 l -1.366,0 0,7.494 z"
               id="path3019"
               style="fill:#ed1c24;fill-opacity:1;fill-rule:nonzero;stroke:none" />
          </g>
        </g>
      </g>
    </g>
  </g>
</svg>
