<?xml version="1.0" encoding="UTF-8" standalone="no"?>
<!-- Created with Inkscape (http://www.inkscape.org/) -->
<svg xmlns:rdf="http://www.w3.org/1999/02/22-rdf-syntax-ns#" xmlns="http://www.w3.org/2000/svg" height="204.39" width="600" version="1.1" xmlns:cc="http://creativecommons.org/ns#" xmlns:dc="http://purl.org/dc/elements/1.1/">
 <metadata>
  <rdf:RDF>
   <cc:Work rdf:about="">
    <dc:format>image/svg+xml</dc:format>
    <dc:type rdf:resource="http://purl.org/dc/dcmitype/StillImage"/>
    <dc:title/>
   </cc:Work>
  </rdf:RDF>
 </metadata>
 <g fill-rule="nonzero" transform="translate(0,40.874922)">
  <g transform="translate(0,-40.878756)" fill="#496dbe">
   <path d="m387.18,24.228c-16.875,0-24.115,5.8084-26.069,16.655h52.165c-1.98-10.847-9.22-16.655-26.1-16.655"/>
   <path d="m504.77,14.208-61.717,0,0,26.675,136.52,0c-16.58-17.563-42.48-26.675-74.8-26.675"/>
   <path d="m6.7768,40.883,69.686,0c5.5594-7.928,14.999-10.956,32.834-12.855,8.807-0.93594,18.165-1.4864,26.558-1.7893v-26.235c-17.7,0.27528-39.527,1.0737-59.701,2.6702-47.668,3.8264-62.007,11.011-69.382,38.208"/>
   <path d="m295.37,40.883-69.686,0c-5.56-7.928-15-10.957-32.83-12.856-8.81-0.936-18.17-1.486-26.56-1.789v-26.234c17.697,0.27528,39.522,1.0736,59.695,2.6702,47.668,3.8263,62.007,11.011,69.383,38.208"/>
  </g>
  <g transform="translate(0,0.003743)">
   <g fill="#4abc39" transform="translate(0,-40.878597)">
    <path d="m387.18,71.737c20.316,0,26.675-8.396,26.675-23.619,0-2.6151-0.19269-5.0376-0.57808-7.2399h-52.165c-0.38539,2.2022-0.57809,4.6247-0.57809,7.2399,0,15.223,6.3314,23.619,26.647,23.619"/>
    <path d="m491.3,81.757,0-32.015,17.013,0c21.692,0,35.786,11.396,40.466,32.015h49.991c-2.5876-16.627-9.1944-30.308-19.187-40.879h-136.54v40.879h48.257z"/>
    <path d="m68.878,67.745c1.5691-12.607,3.5235-21.058,7.5977-26.866h-69.701c-1.2112,4.459-2.2298,9.469-3.1657,15.085-1.4589,8.616-2.3949,17.535-2.9455,25.793h66.893c0.30281-4.5971,0.74325-9.3592,1.3214-14.011"/>
    <path d="M233.27,67.745c-1.57-12.607-3.53-21.058-7.6-26.866h69.701c1.2112,4.4595,2.2298,9.4693,3.1657,15.085,1.459,8.616,2.3949,17.535,2.9455,25.793h-66.893c-0.30281-4.5971-0.74325-9.3592-1.3214-14.011"/>
   </g>
   <g transform="translate(0,-7.1e-5)">
    <g transform="translate(0,-40.878599)" fill="#f7980f">
     <path d="m550.48,98.236c0,9.4081-1.404,17.579-4.1292,24.4h50.842c1.8478-7.49,2.8078-15.6,2.8078-24.404,0-5.7769-0.4129-11.279-1.2388-16.478h-49.991c1.1286,4.9792,1.7068,10.453,1.7068,16.478"/>
     <path d="m491.32,81.757-48.257,0,0,40.879,48.257,0,0-40.879z"/>
     <path d="m66.866,102.22c0-5.5845,0.1927-12.82,0.6882-20.467h-66.866c-0.4955,7.625-0.6882,14.694-0.6882,20.447,0,5.7495,0.1927,12.82,0.6882,20.439h66.866c-0.4955-7.6477-0.6882-14.856-0.6882-20.412"/>
     <path d="m235.28,102.22c0-5.5845-0.1927-12.82-0.6882-20.467h66.866c0.4955,7.6202,0.6882,14.69,0.6882,20.439,0,5.7495-0.1927,12.82-0.6882,20.439h-66.866c0.4955-7.6477,0.6882-14.856,0.6882-20.412"/>
    </g>
    <g transform="translate(0,1.0000001e-6)">
     <g fill="#f1511b" transform="translate(0,-40.8786)">
      <path d="m387.18,124.76c-20.316,0-26.647,8.3685-26.647,23.867,0,6.0836,1.0185,11.066,3.5235,14.893h46.275c2.505-3.8263,3.5235-8.8089,3.5235-14.893,0-15.499-6.3589-23.867-26.675-23.867"/>
      <path d="m508.32,146.75-17.013,0,0-24.115-48.257,0,0,40.879,127.7,0c13.048-9.855,22.133-23.564,26.427-40.879h-50.817c-6.2213,15.609-19.297,24.115-38.043,24.115"/>
      <path d="m67.541,122.64-66.866,0c0.55056,8.2582,1.459,17.177,2.9179,25.793,0.93595,5.6156,1.982,10.625,3.1657,15.085h69.729c-4.0742-5.8083-6.0286-14.286-7.6252-26.866-0.57808-4.6521-1.0185-9.4143-1.3214-14.011"/>
      <path d="m234.6,122.64,66.866,0c-0.55056,8.2582-1.459,17.177-2.9179,25.793-0.93594,5.6156-1.982,10.625-3.1657,15.085h-69.729c4.0742-5.8083,6.0286-14.286,7.6252-26.866,0.57808-4.6521,1.0185-9.4143,1.3214-14.011"/>
     </g>
     <g fill="#ed1e26" transform="translate(0,-40.87853)">
      <path d="m387.18,172.27c12.194,0,19.352-3.0281,23.151-8.754h-46.273c3.7713,5.7258,10.928,8.754,23.124,8.754"/>
      <path d="M109.31,176.34c-17.812-1.9-27.281-4.92-32.814-12.83h-69.729c7.3775,27.198,21.747,34.382,69.398,38.208,20.178,1.5967,42.008,2.3949,59.708,2.6702v-26.234c-8.396-0.30282-17.756-0.8809-26.564-1.8169"/>
      <path d="m443.05,182.29,61.717,0c27.06,0,49.605-6.3864,65.985-18.774h-127.71v18.774z"/>
      <path d="m192.84,176.34c17.811-1.8994,27.28-4.9275,32.813-12.828h69.729c-7.3775,27.198-21.747,34.382-69.398,38.208-20.178,1.5967-42.008,2.3949-59.708,2.6702v-26.234c8.396-0.30282,17.756-0.8809,26.564-1.8169"/>
     </g>
    </g>
   </g>
  </g>
 </g>
</svg>
