<?xml version="1.0" encoding="UTF-8" standalone="no"?>
<!-- Created with Inkscape (http://www.inkscape.org/) -->
<svg xmlns:rdf="http://www.w3.org/1999/02/22-rdf-syntax-ns#" xmlns="http://www.w3.org/2000/svg" height="145.62" width="600" version="1.1" xmlns:cc="http://creativecommons.org/ns#" xmlns:dc="http://purl.org/dc/elements/1.1/">
 <metadata>
  <rdf:RDF>
   <cc:Work rdf:about="">
    <dc:format>image/svg+xml</dc:format>
    <dc:type rdf:resource="http://purl.org/dc/dcmitype/StillImage"/>
    <dc:title/>
   </cc:Work>
  </rdf:RDF>
 </metadata>
 <g fill-rule="nonzero" transform="translate(-972.57419,-903.07258)">
  <path d="m1157.2,1015.1,12.47-40.145,12.674,40.145-25.144,0zm-55.991-48.177c13.518,0,12.339,16.064,12.339,16.064h-25.012s-1.9061-16.064,12.674-16.064m-86.853,58.319c-4.0014,0-10.346-0.2037-10.346-0.2037v-45.02h9.5161c3.3613,0,20.284,2.5318,20.284,22.408,0,19.862-15.438,22.815-19.454,22.815m176.64-67.835s-40.552-0.62567-40.771,0c-0.2183,0.64022-15.627,41.004-15.627,41.004s-13.328,10.564-28.956,8.0319c-15.642-2.5464-16.064-13.75-16.064-13.75h42.692s2.5317-13.314-4.016-23.863c-6.5623-10.564-12.252-11.422-12.252-11.422h-36.988s-13.94,6.3441-15.627,25.58v0.62569s-2.5462-7.8137-15.22-16.908c-12.674-9.0796-29.581-9.0796-43.536-9.0796-5.2673,0-32.099,0.20371-32.099,0.20371v88.962s38.661,0.2183,50.709,0.2183c16.049,0,43.317-9.5161,43.434-40.989,0,0,3.3176,5.1655,9.9235,10.2,9.5598,7.3044,25.987,14.303,49.108,4.8018l-9.0796,25.769h33.379l4.8599-14.158h28.33l5.2673,13.94h35.082l-32.55-89.166z" fill="#65c765"/>
  <path d="m1380.2,926.24c0,12.79-10.375,23.165-23.15,23.165-12.805,0-23.165-10.375-23.165-23.165s10.36-23.165,23.165-23.165c12.775,0,23.15,10.375,23.15,23.165" fill="#65c765"/>
  <path d="m1289.7,1046.5-19.309-36.275,0,36.275-42.837,0,0-124.12,42.837,0,0,63.819,18.13-28.708,43.172,0-27.37,36.275,30.906,52.731-45.529,0z" fill="#ee1d68"/>
  <path d="m1447.4,1001.8c0-8.2356-5.0345-14.943-12.441-14.943-7.3771,0-12.412,6.7078-12.412,14.943,0,8.2357,5.0346,14.944,12.412,14.944,7.4063,0,12.441-6.7078,12.441-14.944m-3.5358-35.605,0-43.841,42.837,0,0,124.12-41.149,0,0-11.408c-6.5478,8.2211-15.962,13.59-27.035,13.59-22.35,0-37.453-21.157-37.453-46.853s15.948-46.518,38.967-46.518c10.244,0,17.795,4.2051,23.834,10.913" fill="#ee1d68"/>
  <path d="m1572.6,1017.6c0,20.996-16.791,31.066-43.172,31.066-14.769,0-28.883-4.0305-40.48-10.244l3.8705-25.522c7.5517,5.0346,18.814,9.0651,30.236,9.0651,4.5252,0,7.0425-1.1786,7.0425-3.3612,0-5.5438-38.283,0-38.283-32.07,0-21.171,17.461-31.24,43.826-31.24,12.426,0,24.023,2.8519,34.267,7.2171l-3.6958,24.358c-6.0531-2.6918-16.952-5.3837-24.008-5.3837-4.2052,0-8.905,0.1746-8.905,3.0265,0,6.2131,39.301,0.16005,39.301,33.088" fill="#ee1d68"/>
  <path fill="#ee1d68" d="m1335.7,957.5,42.822,0,0,89.006-42.822,0,0-89.006z"/>
 </g>
</svg>
