<?xml version="1.0" encoding="UTF-8" standalone="no"?>
<svg xmlns:rdf="http://www.w3.org/1999/02/22-rdf-syntax-ns#" xmlns="http://www.w3.org/2000/svg" xmlns:cc="http://creativecommons.org/ns#" xmlns:xlink="http://www.w3.org/1999/xlink" xmlns:dc="http://purl.org/dc/elements/1.1/" height="111.8mm" width="169.33mm" version="1.1" viewBox="0 0 599.99998 396.13366">
  <defs>
    <linearGradient id="a" gradientUnits="userSpaceOnUse" gradientTransform="matrix(590.76 -147.29 147.29 590.76 -662.99 689.23)" x1="0" x2="1" y1="0" y2="0">
      <stop stop-color="#33bdeb" offset="0"/>
      <stop stop-color="#33bdeb" offset="0.2"/>
      <stop stop-color="#2250a9" offset="1"/>
    </linearGradient>
  </defs>
  <g transform="translate(642.25 -378.51)">
    <path fill="url(#a)" d="m-95.504 456.54-0.602 0.08-68.434 17.06-1.73 1.5-15.34 38.14-15.74-29.53-2.85-1.23-68.43 17.06-1.77 1.64 0.36 2.35 51.51 68.66-35.69 66.47-47.15-128.62-2.99-1.58-67.09 16.74-1.81 1.73-44.36 146.58-20.74-128.81-1.11-1.71-2-0.34-61.76 15.4-1.87 1.84s-21.1 85.25-21.91 90.74l-20.78-78.9-3.07-1.8-62.45 15.57-1.88 2.09-27.04 184.08-0.02 0.33v0.06l0.83 1.85 1.7 0.65 0.64-0.07 58.66-14.63 1.92-2.22s7.53-82.72 7.72-85.32c0.53 2.39 23.42 76.83 23.42 76.83l3.03 1.71 35.43-8.83 1.82-1.77s25.1-88.95 25.51-90.7l6.97 80.88 1.05 1.86 2.08 0.4 107.43-26.79 1.89-1.94 4.53-21.78 41.89-10.41 4.88 18.29 3.06 1.81 34.4-8.56h0.02l69.11-17.25 1.67-1.39 21.86-49.29 21.26 37.62 2.8 1.2 69.092-17.23 1.789-1.6-0.377-2.37-58.584-78.18 51.468-94.62-0.209-2.77-2.013-0.98zm-241.33 130.13c0.73 4.61 9.2 40.81 9.2 40.81l-18.03 4.48 8.83-45.29z"/>
    <g fill="#231f20">
      <path d="m-53.654 381.35-5.949 38.67-17.715-32.77-11.672 2.91 26.262 43.81-0.094 0.4s-1.845 10.73-4.65 13.91c-2.278 1.92-8.095 3.27-10.355 3.67l1.619 9.11c3.841-0.96 12.953-2.99 15.551-5.61 3.238-3.25 3.878-4.44 5.478-10.26 1.713-6.3 12.933-66.68 12.933-66.68l-11.408 2.84z"/>
      <path d="m-109.42 403.64-1.41-8.04-10.94 2.73 8.57 48.61 10.96-2.73-3.28-18.5c-0.56-3.26-0.77-6.2-0.3-8.76 1.73-9.67 10.467-14.47 15.098-16.38l-5.384-8.35c-3.709 1.63-10.094 5.17-13.314 11.42"/>
      <path d="m-292.2 482.6c-8.41 2.09-15.53-3.43-17.05-12.16-1.53-8.57 3.05-17 10.99-18.98 5.54-1.39 9.49 0.21 13.46 2.98l5.46-9.14c-5.29-3.85-11.48-5.87-20.54-3.63-14.31 3.58-22.74 17.77-20.29 31.67 2.45 13.87 14.93 22.61 29.12 19.07 9.32-2.34 14.18-7.5 17.94-13.99l-7.77-4.97c-2.81 4.42-6.16 7.85-11.32 9.15"/>
      <path d="m-146.29 404.27c-2.1-0.05-4.34 0.22-6.71 0.8-3.44 0.87-6.47 2.3-9.05 4.33-2.62 2.02-4.75 4.45-6.44 7.27-1.68 2.82-2.81 5.89-3.41 9.24-0.6 3.37-0.6 6.8 0 10.28l0.04 0.19c0.66 3.75 1.9 7 3.72 9.79 1.79 2.79 4.02 5.01 6.61 6.65 2.58 1.69 5.48 2.75 8.68 3.23 3.2 0.49 6.52 0.31 9.96-0.56 4.41-1.09 8.04-2.86 10.9-5.31 2.88-2.45 5.22-5.34 7.04-8.66l-7.45-4.22c-1.6 2.39-3.3 4.32-5.1 5.78-1.85 1.49-4.11 2.58-6.8 3.26-3.56 0.88-6.8 0.56-9.66-0.94-2.9-1.47-4.97-4.14-6.27-7.96l35.09-8.76-0.15-1.64-0.22-1.54c-0.62-3.48-1.7-6.7-3.2-9.64-1.53-2.9-3.45-5.33-5.78-7.25-2.32-1.92-5.03-3.22-8.15-3.91-1.17-0.26-2.38-0.4-3.65-0.43zm-2.59 9.55c0.83-0.04 1.63 0.02 2.4 0.16l4.16 1.79 3.14 3.48c0.88 1.43 1.37 1.83 1.86 3.56l-24.53 6.12c-0.17-3.94 0.83-6.18 2.62-9.08 1.77-2.92 4.37-4.8 7.74-5.63 0.9-0.23 1.77-0.36 2.61-0.4z"/>
      <path d="m-195.36 453.96-19.12-32.51-11.77 2.94 28.28 44.07 9.84-2.47 10.9-53.82-11.48 2.86-6.65 38.93z"/>
      <path d="m-245.6 428.96c-2.17 0-4.4 0.29-6.7 0.87-3.68 0.92-6.95 2.45-9.81 4.55-2.88 2.13-5.26 4.62-7.1 7.5-1.85 2.86-3.15 5.99-3.92 9.37-0.75 3.41-0.83 6.84-0.2 10.36l0.03 0.17c0.61 3.42 1.81 6.51 3.62 9.28 1.81 2.75 4.03 4.97 6.72 6.68 2.65 1.72 5.65 2.83 9 3.37 3.31 0.55 6.81 0.38 10.43-0.53 3.67-0.9 6.96-2.44 9.86-4.57s5.27-4.63 7.12-7.49c1.86-2.88 3.16-6.01 3.93-9.4 0.74-3.39 0.81-6.79 0.21-10.22l-0.04-0.19c-0.62-3.48-1.8-6.61-3.61-9.33s-4.05-4.94-6.7-6.69c-2.68-1.73-5.69-2.88-9-3.42-1.26-0.21-2.54-0.31-3.84-0.31zm-1.99 10.21c1.02-0.04 2.01 0.03 2.97 0.22 1.94 0.38 3.67 1.11 5.21 2.21 1.53 1.09 2.84 2.5 3.9 4.21 1.07 1.73 1.81 3.66 2.18 5.82l0.04 0.17c0.36 2.09 0.36 4.14 0.02 6.19-0.32 2.06-1 3.92-2.03 5.65-1.02 1.73-2.34 3.22-3.96 4.5-1.64 1.26-3.56 2.17-5.8 2.73-2.12 0.53-4.14 0.6-6.06 0.23-1.92-0.4-3.65-1.15-5.19-2.26-1.57-1.13-2.89-2.54-3.94-4.28-1.05-1.71-1.75-3.61-2.13-5.68l-0.03-0.21c-0.38-2.14-0.42-4.23-0.08-6.27 0.34-2.03 1.04-3.91 2.03-5.61 1.04-1.69 2.36-3.18 4-4.44 1.61-1.28 3.53-2.17 5.7-2.71 1.09-0.27 2.14-0.43 3.17-0.47z"/>
      <path d="m-329.9 475.84c-1.62-0.73-3.36-1.24-5.24-1.52-1.88-0.31-3.74-0.51-5.59-0.64l-4.25-0.38-3.71-0.57-2.7-1.13-1.31-2.05-0.04-0.17 1.17-3.95c0.99-1.21 2.58-2.07 4.68-2.6 1.98-0.49 4.22-0.6 6.73-0.37 2.48 0.22 5.02 0.77 7.54 1.61l2.96-9.01c-2.82-1.08-5.87-1.72-9.11-1.92-3.28-0.23-6.4 0.03-9.41 0.79-2.36 0.58-4.5 1.48-6.46 2.67-1.98 1.21-3.6 2.62-4.92 4.29-1.31 1.66-2.24 3.52-2.8 5.56-0.55 2.03-0.62 4.21-0.23 6.53l0.04 0.19c0.42 2.33 1.21 4.18 2.41 5.55l4.18 3.14c1.6 0.72 3.37 1.19 5.27 1.44 1.9 0.2 3.75 0.35 5.57 0.41l4.26 0.24 3.69 0.51 2.67 1.23 1.26 2.18 0.04 0.17-1.26 4.31c-1.13 1.28-2.88 2.2-5.23 2.79-2.47 0.62-5.14 0.75-8.01 0.39-2.86-0.34-5.76-1.15-8.69-2.46l-3.56 8.75c3.44 1.64 7.04 2.64 10.79 2.99 3.74 0.36 7.32 0.1 10.75-0.77 2.48-0.62 4.76-1.52 6.81-2.69 2.03-1.19 3.77-2.62 5.14-4.27 1.37-1.66 2.37-3.54 2.92-5.67 0.56-2.13 0.64-4.48 0.19-7.06l-0.04-0.17c-0.4-2.24-1.19-3.99-2.35-5.31l-4.16-3.03"/>
      <path d="m-377.23 512.78 10.95-2.73-8.56-48.63-10.96 2.73 8.57 48.63z"/>
      <path d="m-389.32 481.68c3.2 18.2-8.06 35.71-27.96 40.66l-21.7 5.42c-0.7-3.93 4.27-7.49 5.87-12.22l14.03-3.5c13.29-3.31 20.37-14.59 18.13-27.28-2.24-12.68-12.56-19.82-25.85-16.49l-12.48 3.11 9.26 52.52c-2.22-1.84-8.79 3.82-8.79 3.82l-2.05 0.51-11.36-64.38 23.59-5.88c19.9-4.97 36.09 5.48 39.31 23.71"/>
      <path d="m-60.958 616.75-2.41 7.06-5.441-5.1-2.391 0.6 3.201 12.86 2.221-0.55-2.297-9.2 5.535 5.03h0.075l2.561-7.1 2.297 9.24 2.259-0.56-3.201-12.88-2.409 0.6z"/>
      <path d="m-83.549 622.38 0.508 2.09 4.085-1.02 2.692 10.79 2.278-0.58-2.692-10.77 4.085-1.02-0.527-2.09"/>
    </g>
  </g>
</svg>
