<?xml version="1.0" encoding="UTF-8" standalone="no"?>
<!-- Created with Inkscape (http://www.inkscape.org/) -->

<svg
   xmlns:dc="http://purl.org/dc/elements/1.1/"
   xmlns:cc="http://creativecommons.org/ns#"
   xmlns:rdf="http://www.w3.org/1999/02/22-rdf-syntax-ns#"
   xmlns:svg="http://www.w3.org/2000/svg"
   xmlns="http://www.w3.org/2000/svg"
   xmlns:inkscape="http://www.inkscape.org/namespaces/inkscape"
   version="1.1"
   width="746pt"
   height="424pt"
   viewBox="0 0 746 424"
   id="svg2">
  <metadata
     id="metadata47">
    <rdf:RDF>
      <cc:Work
         rdf:about="">
        <dc:format>image/svg+xml</dc:format>
        <dc:type
           rdf:resource="http://purl.org/dc/dcmitype/StillImage" />
        <dc:title />
      </cc:Work>
    </rdf:RDF>
  </metadata>
  <defs
     id="defs45" />
  <g
     id="#ffffffff" />
  <g
     id="#00264cff">
    <path
       d="M 22.04,5.6 C 29.9,3.89 37.97,3.38 45.99,2.98 c 18.5,0.6 36.91,5.04 53.51,13.31 9.44,4.51 18.58,9.83 26.61,16.58 7.01,-13.14 22.08,-21.23 36.91,-20.19 6.52,0 11.77,4.25 17.52,6.66 5.16,2.17 9.25,6.91 10.15,12.5 1.49,6.14 -0.25,12.63 -3.51,17.9 7.75,-0.08 15.92,0.04 22.86,3.97 2.46,-0.25 4.94,-0.36 7.42,-0.28 2.35,-4.83 6.77,-9.11 12.48,-9 6.76,-0.57 12.1,4.23 16.24,8.94 7.75,-1.87 15.71,-2.49 23.64,-3.04 6.18,-1.19 12.44,0.89 17.64,4.18 2.88,-2.67 6.45,-5.11 10.56,-4.9 4.31,-0.23 8.22,2.04 10.99,5.19 3.54,-0.95 7.3,-2.43 10.95,-1.17 4.21,1.02 7.49,4.09 10.48,7.06 14.29,14.37 28.68,28.65 42.99,43.02 95.51,-0.06 191.02,0 286.53,-0.03 4.33,-0.01 8.79,-0.3 12.94,1.22 5.43,1.74 9.17,6.26 13.07,10.14 17.01,16.96 33.95,33.97 50.99,50.89 3.8,4.05 6.17,9.52 6.05,15.12 -0.04,55.01 0.03,110.02 -0.03,165.03 -0.13,7.77 -5.56,13.89 -11.08,18.73 -15.72,15.96 -31.7,31.66 -47.48,47.56 -4.5,4.96 -10.32,9.44 -17.3,9.61 -98.38,0.05 -196.75,0 -295.13,0.02 -3.62,-0.04 -7.28,0.24 -10.86,-0.43 -4.4,-0.72 -8.32,-3.21 -11.47,-6.27 -14.94,-15.01 -30,-29.91 -44.94,-44.91 -14.02,14.08 -28.12,28.07 -42.15,42.14 -4.61,5.53 -11.12,9.83 -18.59,9.48 -27.34,-0.04 -54.68,0.02 -82.01,-0.03 -8.89,0 -16.75,-8.1 -16.51,-16.96 0.01,-27.36 0,-54.71 0,-82.06 -0.02,-5.6 2.48,-11.11 6.56,-14.92 15.05,-15.05 30.09,-30.1 45.15,-45.12 C 142.16,207.94 87.14,152.97 32.11,98 27.16,93.1 22.7,87.09 21.75,80 20.89,73.53 24.3,67.06 29.42,63.25 35.92,58.07 43.8,55.08 51.76,52.98 52.59,47.56 53.61,42.15 56.16,37.23 49.19,35.8 42.07,34.99 34.95,35.3 c -1.84,1.44 -3.29,3.35 -5.31,4.57 -4.2,2.05 -9.06,2.04 -13.6,1.45 C 8.69,40.33 2.87,33.32 3.03,25.94 4.08,15.96 12.36,7.62 22.04,5.6 m -3.78,14.7 c -1.56,1.67 -3.26,3.8 -2.79,6.24 2.25,2.85 6.84,2.49 9.63,0.65 -1.13,-1.05 -2.3,-2.05 -3.52,-3.01 3.77,-2.11 8.25,-1.66 12.41,-2.12 21.14,-0.43 42.09,5.48 60.7,15.33 10.54,5.86 20.74,12.96 28.05,22.69 5.02,6.54 8.47,15.61 5.12,23.67 -2.51,6.93 -9.46,10.86 -15.98,13.34 -11.63,3.87 -24.32,4.25 -36.32,2.06 C 74.97,90.03 75,80.91 74.66,71.78 80.1,71.64 85.57,71.91 90.91,73 c 4.22,0.92 8.75,1.6 12.2,4.43 -0.06,2.69 -4.96,4.26 -3.23,6.72 5.76,2.47 12.37,-2.08 12.51,-8.2 -0.56,-5.45 -5.5,-9.04 -10.18,-11 -8.8,-3.15 -18.28,-3.81 -27.56,-3.73 -0.92,-6.98 0,-15.4 -5.72,-20.56 -1.32,1.43 -2.91,2.79 -3.36,4.78 -1.53,5.39 -1.56,11.05 -2.17,16.58 -8.87,1.8 -18.05,3.84 -25.54,9.21 -1.88,1.38 -4.01,3.15 -3.9,5.74 -0.24,2.72 1.49,5 3,7.07 6.87,8.56 16.17,14.88 26.16,19.27 0.25,2.89 0.95,5.71 2.16,8.34 1.82,0.66 3.64,2.08 5.68,1.43 2.84,-0.16 3.85,-3.18 4.58,-5.43 17.76,4.04 37.96,3 53.2,-7.88 8.82,-5.92 14.89,-16.89 12.77,-27.63 C 139.05,62.16 132.29,53.97 125.09,46.93 113.54,36.52 100.09,28.16 85.56,22.6 69.04,15.67 50.72,13.03 32.93,15.25 27.86,15.99 21.81,16.01 18.26,20.3 m 134.65,4.67 c -7.16,2.04 -13.68,7.21 -16.66,14.1 -1.87,4.05 -0.03,8.35 1.97,11.95 0.34,1.82 0.69,3.63 1.06,5.45 0.94,0.47 1.87,0.94 2.81,1.41 1.23,-0.79 2.46,-1.6 3.67,-2.42 8.39,1.8 17.21,-0.28 23.8,-5.77 4.39,-3.84 9.98,-8.27 9.5,-14.76 0.24,-4.24 -4.24,-6.09 -7.63,-7.03 -5.06,-4.5 -12.3,-4.83 -18.52,-2.93 M 229,57.9 c 0.49,10.23 7.59,19.81 5.26,30.18 -6.53,-7.87 -10.76,-17.83 -19.19,-24 -0.9,0.47 -1.79,0.94 -2.69,1.4 -4.69,9.68 -6.27,20.73 -5.81,31.39 -0.06,3.58 4.66,7.55 7.51,4.15 3.27,-6.88 0.76,-14.84 3.11,-21.98 5.38,6.54 8.67,14.81 15.24,20.36 2.57,2.21 6.26,0.36 8.16,-1.87 4.71,-5.68 5.03,-13.7 3.21,-20.56 -2.26,-8.3 -5.51,-17.17 -13.05,-22.09 -0.89,0.86 -1.48,1.87 -1.75,3.02 m -62.82,7.4 c -4.55,2.37 -8.08,9.2 -3.93,13.49 4.76,3.81 11.27,1.44 16.8,2.44 6.1,1.08 12.73,1.47 17.98,5.13 0.18,3.12 -3.64,4.13 -5.98,5.03 -7.21,1.99 -14.91,3.22 -22.36,1.92 -1.17,-1.63 -1.83,-4.29 0.56,-5.22 3.57,-1.15 6.91,1.26 10.22,2.26 4.42,1.78 9.91,1.18 13.23,-2.46 -1.35,-1.39 -2.72,-3 -4.73,-3.41 -5.95,-1.19 -12.03,-1.95 -18.1,-1.39 -4.57,0.53 -8.27,5.84 -6.16,10.2 2.85,5.76 9.45,8.35 15.48,9.12 6.89,0.62 14.6,0.6 20.35,-3.81 4.43,-3.2 6.42,-9.53 4.11,-14.58 -2.01,-4.4 -6.95,-6.44 -11.44,-7.23 -7.38,-1.12 -14.93,-1.1 -22.21,-2.87 1.94,-3.04 5.94,-2.69 9.06,-3.12 8.15,-0.87 16.54,-0.46 24.4,-3.09 0.55,-1.01 1.11,-2.01 1.67,-3.01 -2.3,-2.58 -5.77,-3.41 -9.1,-3.45 C 186,61 175.38,60.6 166.18,65.3 m 96.77,-3.12 c -5.1,0.56 -10.79,0.14 -15.09,3.4 0.55,1.01 1.11,2.01 1.67,3.02 1.86,0.92 3.73,1.83 5.6,2.73 -0.39,1.77 -0.81,3.53 -1.21,5.29 -2.03,1.04 -3.98,2.26 -5.63,3.85 2.84,5.49 -3.26,10.76 -1.39,16.38 1,4.35 4.14,8.93 9.11,8.75 8.11,-0.47 16.37,-3.75 22.06,-9.63 -0.2,-2.53 -2.45,-4.81 -5.04,-4.75 -5.24,0.23 -10.33,1.73 -15.55,2.13 0.4,-2.83 0.33,-6.21 2.65,-8.27 4.58,-1.01 9.36,0.13 13.93,-0.83 2.67,-1.19 1.67,-4.39 0.46,-6.3 -3.93,0.18 -7.88,0.06 -11.75,-0.73 0.27,-1.74 0.59,-3.46 0.96,-5.18 5.09,-0.68 10.22,-1.02 15.35,-1.27 2.02,0.03 3.47,-1.6 5.08,-2.57 -1.48,-2.2 -2.94,-4.73 -5.58,-5.68 -4.95,-2.45 -10.44,-0.28 -15.63,-0.34 m 34.48,-0.87 c -6.69,5.84 -11.77,14.02 -13.56,22.76 -1.28,4.37 0.92,8.57 1.41,12.84 -2.91,11.54 -7.3,22.97 -7.49,35 0.79,4.51 4.58,9.94 9.72,9.19 1.84,-12.41 6.46,-24.14 9.67,-36.22 7.83,0.2 15.21,-3.66 20.6,-9.14 3.72,-3.77 7.09,-8.26 7.96,-13.61 0.82,-5.38 -0.09,-11.49 -4.07,-15.48 -2.13,-1.59 -5.06,-3.27 -7.62,-1.55 -9.25,5 -15.52,13.78 -22.52,21.35 -1.08,-8.15 6.39,-14 8.39,-21.39 0.43,-1.59 -0.19,-5.32 -2.49,-3.75 m -147.07,0.2 c -3.9,5.34 -3.36,12.27 -3.97,18.53 0.11,6.84 -0.97,13.96 1.26,20.58 1.47,3.01 5.26,3.25 8.08,2.21 1.6,-4.8 1.05,-9.92 1.06,-14.89 -0.15,-7.66 -0.29,-15.45 -2.18,-22.91 -0.4,-2.07 -2.53,-2.83 -4.25,-3.52 m 11.12,55.01 c -2.49,0.49 -3.45,3.22 -3.24,5.48 0.03,26.68 0.01,53.35 0.01,80.03 -0.25,2.88 1.47,5.36 3.47,7.24 16.33,16.32 32.66,32.64 49.03,48.93 1.49,1.61 3.23,3.56 2.53,5.96 -1.61,2.68 -4.12,4.64 -6.28,6.86 -15.28,15.26 -30.55,30.53 -45.83,45.79 -1.66,1.63 -3.04,3.74 -2.89,6.17 -0.08,25.36 0.03,50.74 -0.04,76.1 0.03,2.51 -0.18,5.06 0.27,7.54 1.17,2.43 4.06,2.99 6.51,2.89 26.32,-0.07 52.65,0.03 78.97,-0.05 4.49,0.23 7.27,-3.58 10.12,-6.38 14.8,-14.88 29.7,-29.65 44.51,-44.52 1.72,-1.82 3.65,-3.42 5.67,-4.89 1.78,0.79 3.66,1.55 5.03,3.02 15.64,15.69 31.36,31.3 46.99,47.01 2.65,2.75 5.49,6.06 9.74,5.76 26.65,0.06 53.31,0.03 79.96,0.02 2.23,0.2 3.95,-1.37 5.6,-2.63 0.02,-27.64 0,-55.28 0.01,-82.92 0.25,-2.86 -1.33,-5.37 -3.37,-7.21 -16.73,-16.93 -33.75,-33.59 -50.49,-50.51 -2.09,-1.9 -1.68,-5.3 0.43,-7 16.61,-16.76 33.4,-33.34 50.03,-50.08 1.94,-1.85 3.68,-4.24 3.39,-7.08 0.02,-26.69 -0.01,-53.39 0.02,-80.09 0.57,-3.18 -2.46,-6.13 -5.61,-5.66 -25.68,0.01 -51.36,-0.02 -77.03,0.01 -4.27,-0.36 -7.06,3.23 -9.7,5.99 -16.88,16.76 -33.64,33.66 -50.52,50.44 -1.88,2.39 -5.71,2.4 -7.65,0.08 -17.03,-16.94 -33.99,-33.97 -51.01,-50.93 -2.47,-2.53 -5.06,-5.87 -9.02,-5.57 -24.01,-0.07 -48.03,0.03 -72.05,-0.04 -2.52,0.03 -5.06,-0.18 -7.56,0.24 m 303.78,0.67 c -0.55,1.89 -1.08,3.82 -1.06,5.81 0.04,93.7 -0.02,187.41 0.03,281.11 -0.52,3.31 2.72,5.65 5.78,5.37 62.99,0.04 125.98,-0.03 188.97,0.03 3.51,-0.1 7.25,0.43 10.57,-1.01 2.19,-1.4 3.85,-3.45 5.71,-5.24 16.69,-16.67 33.43,-33.29 50.11,-49.94 3,-2.18 5.23,-5.48 5.1,-9.33 0.06,-53.99 -0.01,-107.98 0.03,-161.98 0.14,-2.8 -1.01,-5.54 -2.95,-7.53 -18.4,-18.29 -36.7,-36.67 -55.06,-54.98 -1.99,-1.94 -4.64,-3.37 -7.48,-3.2 -64.67,0 -129.34,0.02 -194.01,-0.02 -1.96,0 -3.87,0.42 -5.74,0.91 z"
       inkscape:connector-curvature="0"
       id="path6"
       style="fill:#00264c" />
    <path
       d="m 142.05,42.28 c 0.76,-6 6.96,-8.55 12.05,-10.03 -4.3,2.99 -8.35,6.32 -12.05,10.03 z"
       inkscape:connector-curvature="0"
       id="path8"
       style="fill:#00264c" />
    <path
       d="m 165.56,34.49 c 2.22,-1.2 5.93,-1.32 6.87,1.57 0.68,2.8 -1.31,5.28 -3.41,6.87 -5.74,4.08 -13.04,6.6 -20.09,4.79 4.9,-5.09 10.19,-10.14 16.63,-13.23 z"
       inkscape:connector-curvature="0"
       id="path10"
       style="fill:#00264c" />
    <path
       d="m 39.91,75.85 c 7.38,-3.22 15.62,-2.79 23.44,-3.91 -0.08,8.1 -0.17,16.19 -0.14,24.28 -9.27,-4.44 -19.7,-8.13 -26.11,-16.65 -0.69,-1.86 1.55,-2.89 2.81,-3.72 z"
       inkscape:connector-curvature="0"
       id="path12"
       style="fill:#00264c" />
    <path
       d="m 301.91,93.75 c 4.87,-7.4 8.58,-16.14 16.06,-21.36 1.36,2.35 2.73,5 1.61,7.75 -1.9,7.94 -9.96,12.79 -17.67,13.61 z"
       inkscape:connector-curvature="0"
       id="path14"
       style="fill:#00264c" />
    <path
       d="m 590.64,221 c 12.45,-0.01 24.9,0.02 37.35,-0.02 4.78,-0.11 9.98,1.14 13.29,4.81 3.11,4.01 4.4,9.19 4.29,14.21 -0.01,14.68 0.01,29.36 -0.01,44.04 0.05,4.64 -1.29,9.61 -4.91,12.74 -3.01,2.33 -6.88,3.37 -10.65,3.25 -13.12,-0.05 -26.24,-0.02 -39.36,-0.03 0,-26.34 0,-52.67 0,-79 M 602,231 c 0.01,19.89 -0.03,39.77 0.02,59.66 7.99,-0.03 15.98,-0.04 23.97,0.02 2.24,-0.04 4.71,0.2 6.67,-1.15 1.78,-1.2 1.72,-3.63 1.8,-5.54 -0.07,-15.68 0.02,-31.36 -0.04,-47.03 0.16,-2.63 -1.37,-5.88 -4.33,-5.9 -9.36,-0.18 -18.73,0.01 -28.09,-0.06 z"
       inkscape:connector-curvature="0"
       id="path16"
       style="fill:#00264c" />
    <path
       d="m 472,221.62 c 12.35,11.73 24.12,24.07 36.3,35.98 2.15,1.92 4.7,5.03 2.51,7.9 -4.75,5.34 -10.19,10.03 -15.07,15.26 -7.95,7.71 -15.45,15.9 -23.73,23.26 -0.02,-27.47 -0.01,-54.94 -0.01,-82.4 z"
       inkscape:connector-curvature="0"
       id="path18"
       style="fill:#00264c" />
    <path
       d="m 522,221.44 c 3.71,-0.01 7.43,-0.01 11.15,0 0.11,10.92 0.03,21.84 0.05,32.76 11.14,0.39 22.31,0.37 33.46,0.02 -0.06,-10.94 0.03,-21.87 -0.06,-32.8 3.66,0.02 7.33,0.02 10.99,-0.01 -0.06,26.2 0,52.39 -0.03,78.59 -3.64,0 -7.28,0 -10.92,0 0,-11.88 -0.01,-23.77 0.01,-35.65 -11.15,0.01 -22.3,0.02 -33.45,-0.01 0.01,11.89 0,23.77 0,35.66 -3.74,0 -7.47,0 -11.2,0 0,-26.19 0,-52.37 0,-78.56 z"
       inkscape:connector-curvature="0"
       id="path20"
       style="fill:#00264c" />
  </g>
  <g
     id="#c1d82fff">
    <path
       d="m 18.26,20.3 c 3.55,-4.29 9.6,-4.31 14.67,-5.05 17.79,-2.22 36.11,0.42 52.63,7.35 14.53,5.56 27.98,13.92 39.53,24.33 7.2,7.04 13.96,15.23 16.42,25.21 2.12,10.74 -3.95,21.71 -12.77,27.63 -15.24,10.88 -35.44,11.92 -53.2,7.88 -0.73,2.25 -1.74,5.27 -4.58,5.43 -2.04,0.65 -3.86,-0.77 -5.68,-1.43 -1.21,-2.63 -1.91,-5.45 -2.16,-8.34 C 53.13,98.92 43.83,92.6 36.96,84.04 c -1.51,-2.07 -3.24,-4.35 -3,-7.07 -0.11,-2.59 2.02,-4.36 3.9,-5.74 7.49,-5.37 16.67,-7.41 25.54,-9.21 0.61,-5.53 0.64,-11.19 2.17,-16.58 0.45,-1.99 2.04,-3.35 3.36,-4.78 5.72,5.16 4.8,13.58 5.72,20.56 9.28,-0.08 18.76,0.58 27.56,3.73 4.68,1.96 9.62,5.55 10.18,11 -0.14,6.12 -6.75,10.67 -12.51,8.2 -1.73,-2.46 3.17,-4.03 3.23,-6.72 C 99.66,74.6 95.13,73.92 90.91,73 85.57,71.91 80.1,71.64 74.66,71.78 c 0.34,9.13 0.31,18.25 0.9,27.37 12,2.19 24.69,1.81 36.32,-2.06 6.52,-2.48 13.47,-6.41 15.98,-13.34 3.35,-8.06 -0.1,-17.13 -5.12,-23.67 C 115.43,50.35 105.23,43.25 94.69,37.39 76.08,27.54 55.13,21.63 33.99,22.06 c -4.16,0.46 -8.64,0.01 -12.41,2.12 1.22,0.96 2.39,1.96 3.52,3.01 -2.79,1.84 -7.38,2.2 -9.63,-0.65 C 15,24.1 16.7,21.97 18.26,20.3 m 21.65,55.55 c -1.26,0.83 -3.5,1.86 -2.81,3.72 6.41,8.52 16.84,12.21 26.11,16.65 -0.03,-8.09 0.06,-16.18 0.14,-24.28 -7.82,1.12 -16.06,0.69 -23.44,3.91 z"
       inkscape:connector-curvature="0"
       id="path23"
       style="fill:#c1d82f" />
    <path
       d="m 152.91,24.97 c 6.22,-1.9 13.46,-1.57 18.52,2.93 3.39,0.94 7.87,2.79 7.63,7.03 0.48,6.49 -5.11,10.92 -9.5,14.76 -6.59,5.49 -15.41,7.57 -23.8,5.77 -1.21,0.82 -2.44,1.63 -3.67,2.42 -0.94,-0.47 -1.87,-0.94 -2.81,-1.41 -0.37,-1.82 -0.72,-3.63 -1.06,-5.45 -2,-3.6 -3.84,-7.9 -1.97,-11.95 2.98,-6.89 9.5,-12.06 16.66,-14.1 m -10.86,17.31 c 3.7,-3.71 7.75,-7.04 12.05,-10.03 -5.09,1.48 -11.29,4.03 -12.05,10.03 m 23.51,-7.79 c -6.44,3.09 -11.73,8.14 -16.63,13.23 7.05,1.81 14.35,-0.71 20.09,-4.79 2.1,-1.59 4.09,-4.07 3.41,-6.87 -0.94,-2.89 -4.65,-2.77 -6.87,-1.57 z"
       inkscape:connector-curvature="0"
       id="path25"
       style="fill:#c1d82f" />
    <path
       d="m 229,57.9 c 0.27,-1.15 0.86,-2.16 1.75,-3.02 7.54,4.92 10.79,13.79 13.05,22.09 1.82,6.86 1.5,14.88 -3.21,20.56 -1.9,2.23 -5.59,4.08 -8.16,1.87 -6.57,-5.55 -9.86,-13.82 -15.24,-20.36 -2.35,7.14 0.16,15.1 -3.11,21.98 -2.85,3.4 -7.57,-0.57 -7.51,-4.15 -0.46,-10.66 1.12,-21.71 5.81,-31.39 0.9,-0.46 1.79,-0.93 2.69,-1.4 8.43,6.17 12.66,16.13 19.19,24 C 236.59,77.71 229.49,68.13 229,57.9 z"
       inkscape:connector-curvature="0"
       id="path27"
       style="fill:#c1d82f" />
    <path
       d="m 166.18,65.3 c 9.2,-4.7 19.82,-4.3 29.85,-4.05 3.33,0.04 6.8,0.87 9.1,3.45 -0.56,1 -1.12,2 -1.67,3.01 -7.86,2.63 -16.25,2.22 -24.4,3.09 -3.12,0.43 -7.12,0.08 -9.06,3.12 7.28,1.77 14.83,1.75 22.21,2.87 4.49,0.79 9.43,2.83 11.44,7.23 2.31,5.05 0.32,11.38 -4.11,14.58 -5.75,4.41 -13.46,4.43 -20.35,3.81 -6.03,-0.77 -12.63,-3.36 -15.48,-9.12 -2.11,-4.36 1.59,-9.67 6.16,-10.2 6.07,-0.56 12.15,0.2 18.1,1.39 2.01,0.41 3.38,2.02 4.73,3.41 -3.32,3.64 -8.81,4.24 -13.23,2.46 -3.31,-1 -6.65,-3.41 -10.22,-2.26 -2.39,0.93 -1.73,3.59 -0.56,5.22 7.45,1.3 15.15,0.07 22.36,-1.92 2.34,-0.9 6.16,-1.91 5.98,-5.03 -5.25,-3.66 -11.88,-4.05 -17.98,-5.13 -5.53,-1 -12.04,1.37 -16.8,-2.44 -4.15,-4.29 -0.62,-11.12 3.93,-13.49 z"
       inkscape:connector-curvature="0"
       id="path29"
       style="fill:#c1d82f" />
    <path
       d="m 262.95,62.18 c 5.19,0.06 10.68,-2.11 15.63,0.34 2.64,0.95 4.1,3.48 5.58,5.68 -1.61,0.97 -3.06,2.6 -5.08,2.57 -5.13,0.25 -10.26,0.59 -15.35,1.27 -0.37,1.72 -0.69,3.44 -0.96,5.18 3.87,0.79 7.82,0.91 11.75,0.73 1.21,1.91 2.21,5.11 -0.46,6.3 -4.57,0.96 -9.35,-0.18 -13.93,0.83 -2.32,2.06 -2.25,5.44 -2.65,8.27 5.22,-0.4 10.31,-1.9 15.55,-2.13 2.59,-0.06 4.84,2.22 5.04,4.75 -5.69,5.88 -13.95,9.16 -22.06,9.63 -4.97,0.18 -8.11,-4.4 -9.11,-8.75 -1.87,-5.62 4.23,-10.89 1.39,-16.38 1.65,-1.59 3.6,-2.81 5.63,-3.85 0.4,-1.76 0.82,-3.52 1.21,-5.29 -1.87,-0.9 -3.74,-1.81 -5.6,-2.73 -0.56,-1.01 -1.12,-2.01 -1.67,-3.02 4.3,-3.26 9.99,-2.84 15.09,-3.4 z"
       inkscape:connector-curvature="0"
       id="path31"
       style="fill:#c1d82f" />
    <path
       d="m 297.43,61.31 c 2.3,-1.57 2.92,2.16 2.49,3.75 -2,7.39 -9.47,13.24 -8.39,21.39 7,-7.57 13.27,-16.35 22.52,-21.35 2.56,-1.72 5.49,-0.04 7.62,1.55 3.98,3.99 4.89,10.1 4.07,15.48 -0.87,5.35 -4.24,9.84 -7.96,13.61 -5.39,5.48 -12.77,9.34 -20.6,9.14 -3.21,12.08 -7.83,23.81 -9.67,36.22 -5.14,0.75 -8.93,-4.68 -9.72,-9.19 0.19,-12.03 4.58,-23.46 7.49,-35 -0.49,-4.27 -2.69,-8.47 -1.41,-12.84 1.79,-8.74 6.87,-16.92 13.56,-22.76 m 4.48,32.44 c 7.71,-0.82 15.77,-5.67 17.67,-13.61 1.12,-2.75 -0.25,-5.4 -1.61,-7.75 -7.48,5.22 -11.19,13.96 -16.06,21.36 z"
       inkscape:connector-curvature="0"
       id="path33"
       style="fill:#c1d82f" />
    <path
       d="m 150.36,61.51 c 1.72,0.69 3.85,1.45 4.25,3.52 1.89,7.46 2.03,15.25 2.18,22.91 -0.01,4.97 0.54,10.09 -1.06,14.89 -2.82,1.04 -6.61,0.8 -8.08,-2.21 -2.23,-6.62 -1.15,-13.74 -1.26,-20.58 0.61,-6.26 0.07,-13.19 3.97,-18.53 z"
       inkscape:connector-curvature="0"
       id="path35"
       style="fill:#c1d82f" />
    <path
       d="m 161.48,116.52 c 2.5,-0.42 5.04,-0.21 7.56,-0.24 24.02,0.07 48.04,-0.03 72.05,0.04 3.96,-0.3 6.55,3.04 9.02,5.57 17.02,16.96 33.98,33.99 51.01,50.93 1.94,2.32 5.77,2.31 7.65,-0.08 16.88,-16.78 33.64,-33.68 50.52,-50.44 2.64,-2.76 5.43,-6.35 9.7,-5.99 25.67,-0.03 51.35,0 77.03,-0.01 3.15,-0.47 6.18,2.48 5.61,5.66 -0.03,26.7 0,53.4 -0.02,80.09 0.29,2.84 -1.45,5.23 -3.39,7.08 -16.63,16.74 -33.42,33.32 -50.03,50.08 -2.11,1.7 -2.52,5.1 -0.43,7 16.74,16.92 33.76,33.58 50.49,50.51 2.04,1.84 3.62,4.35 3.37,7.21 -0.01,27.64 0.01,55.28 -0.01,82.92 -1.65,1.26 -3.37,2.83 -5.6,2.63 -26.65,0.01 -53.31,0.04 -79.96,-0.02 -4.25,0.3 -7.09,-3.01 -9.74,-5.76 -15.63,-15.71 -31.35,-31.32 -46.99,-47.01 -1.37,-1.47 -3.25,-2.23 -5.03,-3.02 -2.02,1.47 -3.95,3.07 -5.67,4.89 -14.81,14.87 -29.71,29.64 -44.51,44.52 -2.85,2.8 -5.63,6.61 -10.12,6.38 -26.32,0.08 -52.65,-0.02 -78.97,0.05 -2.45,0.1 -5.34,-0.46 -6.51,-2.89 -0.45,-2.48 -0.24,-5.03 -0.27,-7.54 0.07,-25.36 -0.04,-50.74 0.04,-76.1 -0.15,-2.43 1.23,-4.54 2.89,-6.17 15.28,-15.26 30.55,-30.53 45.83,-45.79 2.16,-2.22 4.67,-4.18 6.28,-6.86 0.7,-2.4 -1.04,-4.35 -2.53,-5.96 -16.37,-16.29 -32.7,-32.61 -49.03,-48.93 -2,-1.88 -3.72,-4.36 -3.47,-7.24 0,-26.68 0.02,-53.35 -0.01,-80.03 -0.21,-2.26 0.75,-4.99 3.24,-5.48 z"
       inkscape:connector-curvature="0"
       id="path37"
       style="fill:#c1d82f" />
    <path
       d="m 465.26,117.19 c 1.87,-0.49 3.78,-0.91 5.74,-0.91 64.67,0.04 129.34,0.02 194.01,0.02 2.84,-0.17 5.49,1.26 7.48,3.2 18.36,18.31 36.66,36.69 55.06,54.98 1.94,1.99 3.09,4.73 2.95,7.53 -0.04,54 0.03,107.99 -0.03,161.98 0.13,3.85 -2.1,7.15 -5.1,9.33 -16.68,16.65 -33.42,33.27 -50.11,49.94 -1.86,1.79 -3.52,3.84 -5.71,5.24 -3.32,1.44 -7.06,0.91 -10.57,1.01 -62.99,-0.06 -125.98,0.01 -188.97,-0.03 -3.06,0.28 -6.3,-2.06 -5.78,-5.37 -0.05,-93.7 0.01,-187.41 -0.03,-281.11 -0.02,-1.99 0.51,-3.92 1.06,-5.81 M 590.64,221 c 0,26.33 0,52.66 0,79 13.12,0.01 26.24,-0.02 39.36,0.03 3.77,0.12 7.64,-0.92 10.65,-3.25 3.62,-3.13 4.96,-8.1 4.91,-12.74 0.02,-14.68 0,-29.36 0.01,-44.04 0.11,-5.02 -1.18,-10.2 -4.29,-14.21 -3.31,-3.67 -8.51,-4.92 -13.29,-4.81 -12.45,0.04 -24.9,0.01 -37.35,0.02 M 472,221.62 c 0,27.46 -0.01,54.93 0.01,82.4 8.28,-7.36 15.78,-15.55 23.73,-23.26 4.88,-5.23 10.32,-9.92 15.07,-15.26 2.19,-2.87 -0.36,-5.98 -2.51,-7.9 -12.18,-11.91 -23.95,-24.25 -36.3,-35.98 m 50,-0.18 c 0,26.19 0,52.37 0,78.56 3.73,0 7.46,0 11.2,0 0,-11.89 0.01,-23.77 0,-35.66 11.15,0.03 22.3,0.02 33.45,0.01 -0.02,11.88 -0.01,23.77 -0.01,35.65 3.64,0 7.28,0 10.92,0 0.03,-26.2 -0.03,-52.39 0.03,-78.59 -3.66,0.03 -7.33,0.03 -10.99,0.01 0.09,10.93 0,21.86 0.06,32.8 -11.15,0.35 -22.32,0.37 -33.46,-0.02 -0.02,-10.92 0.06,-21.84 -0.05,-32.76 -3.72,-0.01 -7.44,-0.01 -11.15,0 z"
       inkscape:connector-curvature="0"
       id="path39"
       style="fill:#c1d82f" />
    <path
       d="m 602,231 c 9.36,0.07 18.73,-0.12 28.09,0.06 2.96,0.02 4.49,3.27 4.33,5.9 0.06,15.67 -0.03,31.35 0.04,47.03 -0.08,1.91 -0.02,4.34 -1.8,5.54 -1.96,1.35 -4.43,1.11 -6.67,1.15 -7.99,-0.06 -15.98,-0.05 -23.97,-0.02 C 601.97,270.77 602.01,250.89 602,231 z"
       inkscape:connector-curvature="0"
       id="path41"
       style="fill:#c1d82f" />
  </g>
</svg>
