<?xml version="1.0" encoding="UTF-8" standalone="no"?>
<!-- Created with Inkscape (http://www.inkscape.org/) -->
<svg xmlns:rdf="http://www.w3.org/1999/02/22-rdf-syntax-ns#" xmlns="http://www.w3.org/2000/svg" height="340.15" width="600" version="1.0" xmlns:cc="http://creativecommons.org/ns#" xmlns:dc="http://purl.org/dc/elements/1.1/">
 <metadata>
  <rdf:RDF>
   <cc:Work rdf:about="">
    <dc:format>image/svg+xml</dc:format>
    <dc:type rdf:resource="http://purl.org/dc/dcmitype/StillImage"/>
    <dc:title/>
   </cc:Work>
  </rdf:RDF>
 </metadata>
 <defs></defs>
 <g transform="translate(34.073108,-88.962927)">
  <g transform="matrix(35.488156,0,0,35.488156,-13307.938,-33860.894)">
   <g fill-rule="nonzero" transform="matrix(0.99997489,0,0,0.99997489,0.0096041,0.02414133)">
    <path d="m390.91,960.53c-0.0248-0.0592-0.0592-0.11084-0.1012-0.15421l-0.001-0.001-1.2846-1.2839c-0.0441-0.0448-0.0985-0.0826-0.15972-0.10809-0.0585-0.0234-0.11979-0.0358-0.17831-0.0365h-0.003-6.6855c-0.58999-0.59068-1.0113-1.012-1.0113-1.012h-0.00069c-0.0186-0.0193-0.14182-0.14251-0.27882-0.14182-0.0881,0-0.17693,0.0406-0.17762,0.0406-0.02-0.0255-0.0468-0.0544-0.0874-0.0799-0.0406-0.0248-0.19414-0.0991-0.35524,0.0262-0.0186,0.0152-0.0344,0.0303-0.0509,0.0468-0.0255-0.0186-0.053-0.0358-0.0847-0.051-0.0627-0.031-0.14044-0.0551-0.22994-0.0551-0.0172,0-0.50463,0.031-0.63061,0.0805-0.0262-0.0358-0.0847-0.10877-0.1907-0.16935-0.0392-0.0227-0.19414-0.084-0.33734,0.0131-0.0441,0.0303-0.0757,0.0688-0.095,0.10258-0.0117,0.0193-0.0193,0.0379-0.0255,0.0537-0.0138-0.003-0.0964-0.0179-0.16866,0.009-0.10602-0.0599-0.18726-0.0984-0.52735-0.095,0.0578-0.0895,0.13356-0.25541,0.0695-0.46126-0.0138-0.0434-0.0778-0.20102-0.30085-0.26574-0.0282-0.0207-0.0599-0.042-0.0978-0.0613-0.073-0.0379-0.27331-0.12529-0.61615,0.003-0.15559,0.0578-0.27951,0.17142-0.36212,0.26505-0.0358,0.0406-0.0633,0.0854-0.0874,0.13149-0.20446-0.16316-0.44404-0.30705-0.70427-0.42202-0.34835-0.15352-0.73319-0.25403-1.1201-0.25472-0.0193,0-0.0392,0-0.0592,0.00069-0.14801,0.004-0.29189,0.0145-0.39929,0.0344-0.10189,0.0193-0.30016,0.0413-0.45988,0.27813-0.0165,0.0248-0.0337,0.0551-0.0447,0.0916-0.0399,0.12392-0.0165,0.20103-0.004,0.23821,0.0103,0.0323,0.0269,0.0633,0.0461,0.0902,0.0344,0.0475,0.0764,0.0785,0.11222,0.0984,0.0558,0.0296,0.0991,0.0399,0.13494,0.0448,0.22994,0.0289,0.3332-0.0544,0.37933-0.10533,0.0103-0.011,0.0193-0.0234,0.0282-0.0372,0.14871-0.006,0.34491,0.0158,0.49362,0.0461-0.008,0.0131-0.0551,0.10189-0.0716,0.18794-0.011,0.0578-0.0213,0.11497-0.0275,0.17142-0.0234,0.006-0.27882,0.0695-0.4468,0.18451-0.0544,0.0372-0.10533,0.0805-0.15559,0.13906-0.14526,0.17073-0.0757,0.37314-0.0592,0.411,0.0702,0.16385,0.19276,0.2802,0.23751,0.32288l3.7438,3.7444-1.0396,1.0389c-0.0447,0.0448-0.0819,0.0991-0.10739,0.16041-0.0241,0.0585-0.0365,0.11979-0.0372,0.17899v0.002,1.8657c0,0.10051,0.0399,0.20447,0.11635,0.28088,0.0771,0.0771,0.18037,0.11704,0.28088,0.11704h1.865,0.002c0.0592-0.001,0.12116-0.0131,0.17968-0.0372,0.062-0.0255,0.11635-0.0633,0.16041-0.10739l1.0396-1.0396,1.0402,1.0396h-0.001c0.0448,0.0441,0.0991,0.0819,0.16041,0.10739,0.0585,0.0241,0.12047,0.0358,0.17968,0.0372h0.003,6.8672,0.003c0.0585-0.001,0.11979-0.0131,0.17831-0.0372,0.0613-0.0255,0.11566-0.0633,0.15972-0.10739l1.2846-1.2846,0.001-0.001c0.042-0.0427,0.0764-0.095,0.1012-0.15352,0.0193-0.0475,0.031-0.0978,0.0351-0.14664l0.002-0.007v-3.7789c0-0.0627-0.0124-0.12668-0.0372-0.18726" fill="#243f65"/>
    <path d="m374.81,958.39c0-0.10258,0.31255-0.14182,0.6017-0.15696-0.002,0.16178-0.004,0.39378-0.003,0.54868-0.35593-0.12529-0.59826-0.32494-0.59826-0.39172m0.16178-1.4705c-0.27744,0.008-0.50049,0.042-0.55075,0.0957-0.0434,0.0475-0.0991,0.0874-0.10051,0.15215-0.002,0.0626,0.0723,0.0682,0.11634,0.0675,0.0441,0,0.0854-0.003,0.0847-0.0303,0-0.0365-0.0592-0.0289-0.0592-0.0661,0-0.042,0.22856-0.0516,0.34353-0.0523,0.98103-0.003,2.1114,0.67674,2.1128,1.253,0.001,0.44817-0.58173,0.54937-0.90324,0.54937-0.11428,0-0.22512-0.0117-0.33045-0.0324-0.005-0.14251-0.0131-0.4413-0.0172-0.63062,0.0372-0.00069,0.0723-0.00069,0.10189-0.00069,0.2382-0.001,0.55075,0.0833,0.55075,0.13838,0,0.0475-0.0826,0.0806-0.0826,0.12599,0.00069,0.0344,0.0771,0.0275,0.1432,0.033,0.0117,0.00069,0.14663-0.075,0.14595-0.19276,0-0.15697-0.19621-0.34354-0.83577-0.34078h-0.0275c-0.006-0.17624-0.0324-0.45437-0.13218-0.45437-0.0833,0.00068-0.1074,0.30704-0.11428,0.47571-0.35868,0.0537-0.67743,0.19965-0.67674,0.34353,0,0.11704,0.2561,0.41307,0.67054,0.59344,0.008,0.13287,0.0331,0.22443,0.15077,0.22374,0.0861,0,0.11497-0.0633,0.12392-0.12942,0.13425,0.0344,0.27951,0.0544,0.43441,0.0537,0.60101-0.001,1.085-0.32288,1.0829-0.76349-0.001-0.59137-1.1938-1.4409-2.2312-1.412" fill="#b5dc17"/>
    <path d="m377.42,958c-0.10189,0.00069-0.10464,0.41031-0.1074,0.56039-0.008,0.34147,0.0434,0.38209,0.13425,0.3814,0.0812,0,0.10946-0.01,0.10189-0.29534-0.0124-0.54181-0.0496-0.64645-0.12874-0.64645" fill="#b5dc17"/>
    <path d="m377.51,957.31c-0.1074,0.0633-0.21755,0.15215-0.2919,0.24027-0.004-0.0117-0.006-0.0227-0.006-0.0337,0-0.0675,0.10052-0.17417,0.2981-0.20653m-0.0165,0.37796c-0.0523,0-0.0957-0.007-0.13218-0.0179,0.0998-0.11291,0.34009-0.32426,0.45781-0.32495,0.0778,0,0.0909,0.0613,0.0909,0.0847,0,0.14182-0.29122,0.25748-0.41651,0.25817m-0.0234,0.17142c0.22512-0.00069,0.5838-0.2561,0.58242-0.46883,0-0.0957-0.0489-0.14458-0.17211-0.16179-0.0516-0.0496-0.12805-0.10464-0.24095-0.10464-0.35111,0.00069-0.57829,0.2802-0.57829,0.43234,0.00068,0.0565,0.0186,0.12461,0.0688,0.18244,0.002,0.12117,0.031,0.15283,0.0709,0.15283,0.0441,0,0.0709-0.0255,0.0867-0.0558,0.0503,0.0151,0.11015,0.0241,0.18244,0.0234" fill="#b5dc17"/>
    <path d="m378.64,958.07c-0.00069-0.095-0.24371-0.0936-0.38071-0.0929-0.10327,0.00069-0.62442,0.0124-0.62373,0.30292,0.00069,0.19689,0.29259,0.1487,0.48604,0.16866,0.15766,0.0158,0.34904,0.0675,0.34973,0.1191,0,0.11566-0.41788,0.16179-0.50394,0.16248-0.17693,0-0.18106-0.0516-0.18106-0.0778,0-0.0255,0.0296-0.0702,0.0957-0.0702,0.0668,0,0.20378,0.0847,0.2981,0.084,0.0936-0.00069,0.17211-0.042,0.17211-0.0847,0-0.0771-0.31255-0.11428-0.40893-0.11428-0.10189,0.00069-0.24784,0.0427-0.24715,0.19483,0,0.0792,0.12942,0.26574,0.49292,0.26436,0.35799-0.001,0.44818-0.20446,0.44818-0.30911-0.00069-0.25472-0.24234-0.28432-0.453-0.30222-0.15765-0.0131-0.3277-0.0207-0.32701-0.0558,0.001-0.11635,0.78276-0.0303,0.78276-0.18932" fill="#b5dc17"/>
    <path d="m379.23,957.86c-0.0296,0-0.0351,0.031-0.0351,0.064,0,0.10051,0.13838,0.44748,0.13906,0.58035,0,0.0275-0.003,0.0771-0.0241,0.0826-0.0331,0.0103-0.3215-0.51565-0.44129-0.52529-0.12323-0.009-0.18864,0.51634-0.18795,0.64576,0,0.12943,0.0227,0.21617,0.11841,0.21549,0.14251,0,0.0688-0.52529,0.12599-0.52529,0.0427,0,0.27469,0.47985,0.40412,0.47916,0.14044,0,0.22236-0.20516,0.22236-0.33871-0.00069-0.30498-0.20309-0.67881-0.3215-0.67812" fill="#b5dc17"/>
    <path d="m380.2,958.67c-0.0503,0-0.32908,0.062-0.34766,0.0454-0.0179-0.0172,0.0165-0.17762,0.0516-0.18864,0.0351-0.011,0.25335-0.008,0.28777-0.0103,0.10189-0.006,0.0826-0.14251,0.02-0.14802-0.0317-0.003-0.22856-0.003-0.24026-0.0206-0.0103-0.0186,0.004-0.10946,0.0255-0.1191,0.0454-0.0186,0.3456-0.0269,0.36763-0.0317,0.0372-0.01,0.0647-0.0296,0.0737-0.062,0.009-0.0317-0.10395-0.16178-0.2444-0.14664-0.24026,0.0262-0.55144,0.0248-0.55144,0.10258,0,0.0743,0.14595,0.10327,0.14939,0.12392,0.004,0.02-0.0186,0.0964-0.0268,0.12048-0.009,0.0255-0.1129,0.033-0.11978,0.10533-0.001,0.0165,0.0262,0.042,0.0207,0.0626-0.0165,0.0606-0.0661,0.18519-0.0661,0.23613,0,0.0812,0.0592,0.25817,0.22236,0.25266,0.25817-0.008,0.4888-0.18794,0.49293-0.21961,0.006-0.0468-0.0654-0.10258-0.11497-0.10258" fill="#b5dc17"/>
    <path d="m380.86,958.72c0.11772-0.20516,0.28983-0.4764,0.35317-0.47503,0.0448,0,0.0613,0.0448,0.0613,0.11084,0.00069,0.20034-0.24095,0.36694-0.41444,0.36419m0.33871-0.6671c-0.14113,0.008-0.411,0.30567-0.56865,0.50738-0.0103-0.0206-0.0158-0.0406-0.0158-0.0585,0-0.0854,0.15971-0.34009,0.18932-0.40411,0.0317-0.0654-0.004-0.15352-0.0427-0.12186-0.0757,0.0613-0.31599,0.34147-0.31461,0.60239,0,0.0592,0.0151,0.13218,0.0489,0.19896-0.0537,0.17487-0.1852,0.56384-0.18038,0.79997,0.002,0.12186,0.1253,0.24164,0.19965,0.22581,0.0282-0.006,0.0337-0.16591,0.0709-0.274,0.0523-0.15628,0.13562-0.44129,0.16385-0.56315,0.0138,0.001,0.0275,0.003,0.042,0.002,0.29327-0.00069,0.61959-0.31393,0.61822-0.58311-0.00069-0.26987-0.16041-0.33527-0.21067-0.33183" fill="#b5dc17"/>
    <path d="m384.28,965.84,0-1.8622c-0.00069-0.0241-0.005-0.0475-0.0145-0.0709-0.0103-0.0248-0.0255-0.0461-0.0434-0.064l-1.1745-1.1745c-0.0406-0.0413-0.0406-0.1067,0-0.14732l1.1745-1.1752c0.0179-0.0172,0.0331-0.0386,0.0434-0.0633,0.01-0.0241,0.0145-0.0482,0.0145-0.0723v-1.8616c0-0.0262-0.01-0.053-0.0303-0.073-0.0206-0.0206-0.0468-0.0303-0.0737-0.0303h-1.7893c-0.0241,0-0.0475,0.005-0.0709,0.0145-0.0248,0.0103-0.0468,0.0248-0.064,0.0427l-1.2475,1.2475c-0.0406,0.0406-0.10671,0.0406-0.14733,0l-1.2475-1.2475c-0.0179-0.0179-0.0392-0.0324-0.064-0.0427-0.0234-0.01-0.0475-0.0145-0.0709-0.0145h-1.7893c-0.0269,0-0.053,0.01-0.0737,0.0303-0.02,0.02-0.0303,0.0468-0.0303,0.073v1.8616c0.00069,0.0241,0.005,0.0482,0.0152,0.0723,0.01,0.0248,0.0248,0.0461,0.0427,0.0633l1.1745,1.1752c0.0406,0.0406,0.0406,0.10602,0,0.14732l-1.1745,1.1745c-0.0179,0.0179-0.033,0.0392-0.0427,0.064-0.0103,0.0234-0.0145,0.0475-0.0152,0.0709v1.8622c0,0.0269,0.0103,0.053,0.0303,0.0737,0.0207,0.02,0.0468,0.0303,0.0737,0.0303h1.8616c0.0241,0,0.0482-0.005,0.0716-0.0145,0.0248-0.0103,0.0461-0.0255,0.064-0.0434l1.1745-1.1745c0.0406-0.0406,0.10671-0.0406,0.14733,0l1.1745,1.1745c0.0179,0.0179,0.0392,0.033,0.064,0.0434,0.0234,0.01,0.0482,0.0145,0.0716,0.0145h1.8616c0.0268,0,0.053-0.0103,0.0737-0.0303,0.0206-0.0206,0.0303-0.0468,0.0303-0.0737" fill="#b5dc17"/>
    <path d="m389.18,965.94c0.0241-0.00069,0.0475-0.006,0.0709-0.0145,0.0248-0.0103,0.0461-0.0255,0.064-0.0434l1.2833-1.2833c0.0165-0.0172,0.0303-0.0379,0.0406-0.0613,0.0103-0.0248,0.0145-0.0503,0.0145-0.075v-3.7444c0-0.0248-0.004-0.0503-0.0145-0.075-0.0103-0.0234-0.0241-0.0441-0.0406-0.0606l-1.2833-1.284c-0.0179-0.0179-0.0392-0.0324-0.064-0.0427-0.0234-0.01-0.0468-0.0145-0.0709-0.0152h-4.499c-0.0262,0-0.053,0.0103-0.073,0.031-0.02,0.02-0.0303,0.0461-0.031,0.073v6.4913c0.00069,0.0268,0.011,0.053,0.031,0.0737,0.02,0.02,0.0468,0.0303,0.073,0.0303h4.499z" fill="#b5dc17"/>
    <path d="m390.36,965.92c0,0.003-0.002,0.004-0.005,0.004h-0.0241c-0.003,0-0.004-0.001-0.004-0.004v-0.19552h-0.053c-0.003,0-0.004-0.001-0.004-0.004v-0.0248c0-0.003,0.002-0.004,0.005-0.004h0.13769c0.003,0,0.004,0.002,0.004,0.004v0.0248c0,0.002-0.001,0.004-0.004,0.004h-0.0523v0.19552z" fill="#243f65"/>
    <path d="m390.61,965.7c0.00069-0.001,0.002-0.003,0.003-0.003h0.0248c0.003,0,0.004,0.002,0.004,0.005v0.22374c0,0.003-0.001,0.005-0.004,0.005h-0.0248c-0.003,0-0.004-0.002-0.004-0.005v-0.15628l-0.0585,0.11428c-0.001,0.002-0.003,0.003-0.004,0.003-0.003,0-0.003-0.00069-0.005-0.003l-0.0578-0.11428v0.15628c0,0.003-0.002,0.005-0.005,0.005h-0.0241c-0.002,0-0.004-0.002-0.004-0.005v-0.21617c0-0.001,0.00069-0.003,0.003-0.003l0.0234-0.0117c0.003-0.001,0.005,0,0.006,0.002l0.0633,0.12874,0.0633-0.1253z" fill="#243f65"/>
   </g>
  </g>
 </g>
</svg>
