<?xml version="1.0" encoding="UTF-8" standalone="no"?>
<!-- Created with Inkscape (http://www.inkscape.org/) -->

<svg
   xmlns:dc="http://purl.org/dc/elements/1.1/"
   xmlns:cc="http://creativecommons.org/ns#"
   xmlns:rdf="http://www.w3.org/1999/02/22-rdf-syntax-ns#"
   xmlns:svg="http://www.w3.org/2000/svg"
   xmlns="http://www.w3.org/2000/svg"
   version="1.1"
   width="600.00122"
   height="191.73994"
   id="svg2">
  <metadata
     id="metadata3019">
    <rdf:RDF>
      <cc:Work
         rdf:about="">
        <dc:format>image/svg+xml</dc:format>
        <dc:type
           rdf:resource="http://purl.org/dc/dcmitype/StillImage" />
        <dc:title></dc:title>
      </cc:Work>
    </rdf:RDF>
  </metadata>
  <defs
     id="defs3017" />
  <g
     transform="translate(-121.65392,-656.36433)"
     id="layer1">
    <path
       d="m 532.32647,748.91228 c -0.29158,0.83805 -16.23507,51.82969 -16.23507,51.82969 l -1.37204,3.43021 c -11.21716,28.35468 -28.50668,35.87508 -36.09069,35.88823 -3.55698,-0.31777 -6.61852,-2.42701 -9.0449,-6.26354 -3.51887,-5.61497 -5.38629,-14.11368 -5.38629,-24.60584 0,-13.80937 3.2267,-29.90519 9.05761,-45.30181 15.89209,-41.87116 38.37733,-45.12159 44.89426,-45.12159 3.5697,0 15.24422,1.51065 15.24422,21.09905 0,2.22332 -0.30516,5.06968 -0.90193,8.44894 0,0 -0.13907,0.50844 -0.1661,0.59354 M 712.055,710.92611 c -3.86189,44.35991 -32.63535,72.0924 -46.10105,72.0924 -2.00716,0 -3.67132,-0.78419 -4.77658,-2.27502 -1.58794,-2.1085 -1.88008,-5.46212 -0.78743,-9.1711 l 17.92463,-60.64628 -21.39271,0 0,0.0108 -31.72072,0 c 0.35708,-1.35866 6.31362,-24.31447 6.31362,-24.31447 l -24.23828,1.42287 c 0,0 -6.11035,22.06561 -6.33905,22.8804 -0.61044,0 -7.10125,0 -14.50742,0.0108 l 0.0108,-0.0108 -42.4806,0 c 0,0 -4.70024,15.44649 -5.69116,18.69864 -2.92179,-12.19499 -11.12829,-18.44528 -24.53049,-18.44528 -20.5797,0 -40.23206,11.24199 -55.33655,31.65691 -12.83057,17.35279 -20.79566,39.33019 -20.79566,57.36904 0,28.82456 14.35497,47.44821 36.58613,47.44821 17.49276,0 30.2217,-13.64402 35.78586,-20.97376 0.0118,0.21221 0.0118,0.43518 0.0118,0.43518 0,0 0.0355,-0.0323 0.0474,-0.0431 -0.0119,0.0646 -0.0474,0.15835 -0.0474,0.22298 0,0.0431 0,0.0862 0,0.15835 0.0829,5.00538 0.3182,20.26239 26.15652,20.26239 16.06997,0 31.59364,-12.13207 39.85096,-24.13672 l 0.54539,-0.80575 -5.13225,-4.94128 -0.77375,1.1011 c -2.66775,3.73355 -11.95402,15.92918 -19.41096,15.92918 -3.13784,0.15835 -5.43714,-0.67647 -6.85994,-2.4645 -3.60777,-4.53552 -1.42275,-14.05056 -0.31873,-17.92479 l 28.87513,-95.40411 25.52135,0 c -0.395,1.39787 -9.60382,34.66756 -9.60382,34.66756 -2.0199,7.35656 -4.34462,16.38849 -4.34462,21.05036 0,10.71051 9.71819,15.58695 18.7377,15.58695 16.5781,0 24.50508,-11.3314 28.31616,-16.76658 0.80121,-1.14398 1.41008,-2.03277 1.86741,-2.49058 l 0.87747,-0.88976 -4.35727,-3.76026 -0.97819,1.28272 c -2.71856,3.50572 -7.24095,9.36306 -11.72532,10.37928 -1.46092,0.33823 -5.91989,1.33313 -8.01596,-0.95331 -0.88814,-0.97487 -1.34653,-2.45191 -1.34653,-4.43286 0,-2.04644 0.48225,-4.61178 1.43541,-7.63448 0.0108,-0.0108 12.99574,-45.2389 13.22445,-46.05078 0.65946,0 21.91351,0 31.94936,0 l -13.75793,45.77027 -1.13075,4.62385 c -0.59665,2.71882 -0.92638,4.84121 -0.99187,6.34002 0,0 -0.0108,0.50843 -0.0108,0.50843 0,8.35923 7.58398,14.41842 18.02625,14.41842 5.29739,0 11.00126,-1.51216 16.59083,-4.26955 l 0.0108,0.0108 c 43.25549,-22.40966 48.07009,-70.83393 48.43851,-75.52251 z m -492.84588,35.03542 c -0.55852,1.71511 -0.5722,1.74074 -2.47718,7.82493 0,0 -14.17717,45.56841 -14.13904,45.54288 -0.26703,0.43519 -0.65946,1.40972 -1.52442,3.59481 -11.54745,29.20555 -29.38332,36.96758 -37.20862,36.9804 -3.6713,-0.33825 -6.83451,-2.50286 -9.32434,-6.47888 -3.63326,-5.78042 -5.55151,-14.5326 -5.55151,-25.34383 0,-14.22775 3.30295,-30.80616 9.3244,-46.66004 16.36209,-43.14149 39.54612,-46.48219 46.25354,-46.48219 3.68404,0 15.72697,1.56366 15.72697,21.76088 0,2.28645 -0.30518,5.22136 -0.92639,8.70241 z m 217.56061,-35.0352 c -6.64394,76.2719 -56.11146,123.9348 -79.25728,123.9348 -3.46806,0 -6.30095,-1.34649 -8.21918,-3.89964 -2.71856,-3.63348 -3.21399,-9.38815 -1.34658,-15.76545 l 30.81875,-104.26971 -36.7767,0 -27.83343,92.65878 -1.96903,7.96507 c -1.00349,4.58604 -1.57524,8.2194 -1.68957,10.77278 -5.05601,6.16109 -11.38236,11.9287 -16.59081,11.9287 -3.23939,0.16912 -5.62765,-0.70988 -7.10127,-2.55338 -3.70943,-4.67512 -1.46091,-14.49478 -0.31778,-18.48363 l 31.22526,-102.28832 -32.26696,0 -28.83698,92.17599 0.0108,-0.0108 -1.58792,5.60203 c -1.41011,5.39899 -2.09611,9.50213 -2.09611,12.55112 0,0 0.0108,0.62584 0.0108,0.62584 0.0108,0.79498 0.0646,1.85515 0.2289,3.07398 -4.15406,4.63699 -9.71818,9.59132 -14.5455,9.59132 -3.25213,0.15833 -5.62766,-0.70988 -7.10131,-2.55317 -3.72214,-4.68783 -1.46088,-14.495 -0.31885,-18.49612 l 47.72714,-156.41847 -32.25424,-0.0862 c 0,0 -20.23672,65.6131 -21.39273,69.36217 -2.97265,-12.6527 -11.42047,-19.14579 -25.26733,-19.14579 -21.17675,0 -41.40076,11.5741 -56.94988,32.59688 -13.21161,17.84852 -21.41802,40.48709 -21.41802,59.04698 0,29.64968 14.77406,48.80687 37.65313,48.80687 18.03903,0 31.14904,-14.10108 36.87832,-21.64691 0,0.2553 0.0108,0.55045 0.0108,0.55045 0,0 0.0323,-0.0323 0.0323,-0.0431 0,0.0754 -0.0323,0.16912 -0.0323,0.23375 0,0.0431 0,0.0862 0,0.15835 0.0754,5.14423 0.32962,20.83502 26.89338,20.83502 11.91588,0 23.5396,-6.47877 32.2796,-14.72358 3.15052,7.07584 10.30255,14.4321 26.46146,14.4321 10.7599,0 20.92271,-5.24733 30.31061,-15.61454 4.06513,9.78133 15.1553,16.27377 29.31974,16.27377 9.09572,0 18.90284,-2.59129 28.51941,-7.35624 l 0.0135,0.0323 C 444.3758,802.2492 452.6458,718.98848 453.28097,710.93486 z M 308.9216,694.52458 c 10.51851,0 19.08069,-8.56043 19.08069,-19.08017 0,-10.53041 -8.56218,-19.08008 -19.08069,-19.08008 -10.51852,0 -19.08069,8.54967 -19.08069,19.08008 0,10.51974 8.56217,19.08017 19.08069,19.08017"
       id="path3714"
       style="fill:#ec0b8d;fill-rule:nonzero;stroke:none" />
  </g>
</svg>
