<?xml version="1.0" encoding="UTF-8" standalone="no"?>
<!-- Created with Inkscape (http://www.inkscape.org/) -->

<svg
   xmlns:dc="http://purl.org/dc/elements/1.1/"
   xmlns:cc="http://creativecommons.org/ns#"
   xmlns:rdf="http://www.w3.org/1999/02/22-rdf-syntax-ns#"
   xmlns:svg="http://www.w3.org/2000/svg"
   xmlns="http://www.w3.org/2000/svg"
   version="1.0"
   width="600"
   height="143.68481"
   id="svg1968">
  <metadata
     id="metadata10">
    <rdf:RDF>
      <cc:Work
         rdf:about="">
        <dc:format>image/svg+xml</dc:format>
        <dc:type
           rdf:resource="http://purl.org/dc/dcmitype/StillImage" />
        <dc:title></dc:title>
      </cc:Work>
    </rdf:RDF>
  </metadata>
  <defs
     id="defs1970">
    <style
       type="text/css"
       id="style2032" />
  </defs>
  <path
     d="m 550.42151,68.811186 c 47.77369,-72.2263474 -5.61529,8.273271 45.53137,-68.80298343 l -135.58181,0 C 511.91396,77.531593 456.73123,-5.3481194 505.90242,68.811186 453.30066,148.03138 515.89197,53.640305 456.32393,143.68473 l 143.67607,0 c -52.6078,-79.166922 6.32665,9.52177 -49.57849,-74.873544 l 0,0 z m -243.95532,74.832034 144.79878,0.0416 -52.90539,-143.56733743 -38.09617,-0.08627 -53.79722,143.61197743 0,0 z m -164.81357,0.0416 160.8771,0 0,-143.67653043 -55.58401,0.01993 -25.23314,78.16707343 -24.4104,-78.18817143 -55.64955,0 0,143.67652843 0,0 z m -81.955949,0 c 52.791849,0 71.838019,-27.46226 71.838019,-74.195326 C 132.46661,31.642685 106.1446,-0.59339643 64.755625,0.00828957 L 0,0.00828957 0,143.68482 l 59.696671,0 0,0 z"
     id="path2084"
     style="fill:#000000;fill-rule:evenodd;stroke:none" />
</svg>
