<?xml version="1.0" encoding="UTF-8" standalone="no"?>
<!-- Created with Inkscape (http://www.inkscape.org/) -->

<svg
   xmlns:dc="http://purl.org/dc/elements/1.1/"
   xmlns:cc="http://creativecommons.org/ns#"
   xmlns:rdf="http://www.w3.org/1999/02/22-rdf-syntax-ns#"
   xmlns:svg="http://www.w3.org/2000/svg"
   xmlns="http://www.w3.org/2000/svg"
   version="1.0"
   width="600"
   height="100.92794"
   id="svg1968">
  <metadata
     id="metadata10">
    <rdf:RDF>
      <cc:Work
         rdf:about="">
        <dc:format>image/svg+xml</dc:format>
        <dc:type
           rdf:resource="http://purl.org/dc/dcmitype/StillImage" />
        <dc:title></dc:title>
      </cc:Work>
    </rdf:RDF>
  </metadata>
  <defs
     id="defs1970">
    <style
       type="text/css"
       id="style2032" />
  </defs>
  <g
     id="g3229">
    <path
       d="m 386.63034,48.334782 c 33.55748,-50.7336592 -3.94432,5.81136 31.98242,-48.32899919 l -95.23618,0 C 359.58164,54.460222 320.81986,-3.7566372 355.35898,48.334782 318.41014,103.9811 362.3759,37.678362 320.53376,100.9279 l 100.9218,0 c -36.95308,-55.608898 4.444,6.68834 -34.82522,-52.593118 l 0,0 z M 215.2698,100.89874 316.98022,100.92794 279.8181,0.08252281 253.05836,0.02192281 215.2698,100.8987 l 0,0 z m -115.769326,0.0292 113.004246,0 0,-100.92211719 -39.04365,0.014 -17.72441,54.90657919 -17.1465,-54.92139919 -39.089686,0 0,100.92211719 0,0 z m -57.567984,0 c 37.082366,0 50.46089,-19.290198 50.46089,-52.116718 C 93.047986,22.226642 74.558722,-0.41681719 45.48603,0.00582281 l -45.48603,0 0,100.92211719 41.93249,0 0,0 z"
       id="path2084"
       style="fill:#000000;fill-rule:evenodd;stroke:none" />
    <path
       d="m 428.67578,0.17278281 0,100.59703719 10.06564,0 0,-47.235698 60.70616,0 0,47.235698 10.06562,0 0,-100.59703719 -10.06562,0 0,44.24723919 -60.70616,0 0,-44.24723919 -10.06564,0 z m 89.23784,0 0,100.59703719 30.8958,0 c 15.10956,0 22.88036,-2.305958 31.7283,-7.478618 C 595.78342,84.307122 600,69.598142 600,50.813262 c 0,-18.921 -4.08736,-33.897599 -19.0608,-42.7455592 -9.52856,-5.71714 -17.27926,-7.89491999 -35.51968,-7.89491999 l -27.5059,0 z m 10.08056,9.12895999 17.82674,0 c 15.24574,0 21.91994,1.8989002 29.54274,6.5270602 11.5704,6.942239 14.43686,19.609559 14.43686,34.583019 0,13.20388 -1.37432,24.77688 -10.63066,32.26362 -8.0312,6.39774 -15.51688,8.98028 -33.34894,8.98028 l -17.82674,0 0,-82.3539792 z"
       id="path2897"
       style="font-size:286.10583496px;font-style:normal;font-variant:normal;font-weight:normal;font-stretch:normal;fill:#999999;fill-opacity:1;stroke:none;font-family:URW Gothic L;-inkscape-font-specification:URW Gothic L Book" />
  </g>
</svg>
