<?xml version="1.0" encoding="UTF-8" standalone="no"?>
<svg xmlns:rdf="http://www.w3.org/1999/02/22-rdf-syntax-ns#" xmlns="http://www.w3.org/2000/svg" height="116.71mm" width="169.33mm" version="1.1" xmlns:cc="http://creativecommons.org/ns#" xmlns:dc="http://purl.org/dc/elements/1.1/" viewBox="0 0 599.99998 413.53307">
 <g transform="translate(-75.007 -142.16)">
  <path style="color-rendering:auto;text-decoration-color:#000000;color:#000000;isolation:auto;mix-blend-mode:normal;shape-rendering:auto;solid-color:#000000;block-progression:tb;text-decoration-line:none;text-decoration-style:solid;image-rendering:auto;white-space:normal;text-indent:0;text-transform:none" d="m75.008 368.24v10.65h599.99v-10.65h-599.99z"/>
  <path d="m556.47 149.1-0.21 6.51s19.28 0.47 21.58 2.87c2.33 2.37 0 168.79 0 168.79l-21.76 4.5 0.39 5.65h117.79l0.75-39.03s-0.5-3.14-2.62-2.98c-2.15 0.11-2.63 2.24-2.63 2.24s-1.1 14.78-2.25 19.14c-1.16 4.36-1 8.67-4.12 9.74-3.16 1.06-20.51 1.28-28.42 1.4-7.91 0.11-33.87 0.11-33.87 0.11v-82.16h24.4s23.05-0.95 25.51 1.88c2.44 2.82 3.37 25.51 3.37 25.51l4.88 0.36s-1.45-20.09-1.52-29.63c-0.04-9.53 1.99-32.42 1.99-32.42l-5.35-0.2s-1.49 23.2-3.75 23.99-17 2.06-25.15 2.31c-8.16 0.29-23.93 0.7-23.93 0.7l-0.07-79.9h53.28s5.42-0.5 7.48 1.87c2.08 2.38 5.13 26.12 5.13 26.12s-0.11 2.31 3.05 2.2c2.94-0.07 2.37-3.73 2.37-3.73l-2.21-34.94s-98.18 1.04-102.86 0.59c-4.68-0.4-11.25-1.49-11.25-1.49"/>
  <path d="m495.32 148.94s18.58 1.42 28.84 1.55c10.28 0.16 25.87-1.01 25.87-1.01s0.7 1.6 0.54 2.98c-0.16 1.36-1.35 3.21-1.35 3.21s-14.19 1.54-15.64 2.96c-1.42 1.45-26.28 72.35-29.22 80.17-2.96 7.84-33.73 98.59-33.73 98.59s-0.84 2.64-1.99 2.62c-1.13-0.02-1.67-2.87-2.01-3.93-0.32-1.07-58.07-173.65-58.07-173.65s-1.18-3.64-5.95-7.82c-4.72-4.21-14.39-3.66-14.39-3.66s-3.23-0.05-3.55-1.65c-0.34-1.74 2.42-3.05 2.42-3.05s6.21-3.98 18.35-4.09c23.07-0.18 30.43 24.85 36.85 46.95 2.8 9.63 33.35 104.82 33.35 104.82s0.59 2.76 1.95 2.76c1.33 0.02 1.83-2.48 1.83-2.48l38-131.78s0.79-2.38 0.14-3.57c-0.66-1.2-22.42-2.45-22.42-2.45l0.18-7.47z"/>
  <path d="m326.01 330.2c-35.25 0-52.61-39-52.61-86.72 0-47.75 17.7-87.04 52.61-87.04 31.25 0 52.83 36.37 52.83 87.04 0 47.72-19.93 86.72-52.83 86.72m-0.59-182.78c-46.98 0-77.32 43.45-77.32 96.24 0 52.76 29.64 95.89 77.32 95.89 48.4 0 77.71-43.13 77.71-95.89 0-56.02-31.75-96.24-77.71-96.24"/>
  <path d="m209.44 249.16c-2.35 85.39-66.75 79.54-66.75 79.54s-20.33-0.66-21.65-1.97c-1.31-1.31-1.31-3.52-1.31-3.52s0.14-160.23 0.14-161.93c0-1.69 3.25-1.31 3.25-1.31s25.04-0.79 32.09 0c7.03 0.79 56.51 5.74 54.23 89.19m-32.61-94.93c-22.89-5.71-59.97-2.84-68.17-2.66-8.22 0.18-32.469-1.24-32.469-1.24l-0.135 6.1s21.511 0.67 21.15 3.45c-0.362 2.78-0.159 163.08-0.339 166.49-0.204 3.44-21.851 4.52-21.851 4.52v7.28s22.257-2.29 30.894-1.92c8.65 0.38 38.88 2.26 61.28-0.77 21.12-2.87 67.29-21.99 67.29-87.88s-34.73-87.63-57.65-93.37"/>
  <path d="m99.872 412.97h18.868v93.08h40.11v14.28h-58.978v-107.36z"/>
  <path d="m174.55 515.96c-2.96-3.32-4.43-7.64-4.43-12.92v-61.69h18.08v60.1c0 2.44 0.36 4.07 1.11 4.93 0.72 0.84 1.83 1.26 3.32 1.26h1.35c0.48 0 0.93-0.06 1.34-0.15 0.43 0 0.9-0.07 1.44-0.16l1.9 11.41c-0.74 0.43-1.69 0.79-2.87 1.11-0.95 0.31-2.12 0.58-3.57 0.79-1.42 0.2-3.03 0.31-4.83 0.31-5.61 0-9.88-1.67-12.84-4.99m12.7-106.79c1.79 2.01 2.69 4.59 2.69 7.77 0 3.17-0.93 5.81-2.78 7.94-1.85 2.1-4.56 3.16-8.16 3.16-3.39 0-6.01-1.04-7.86-3.1-1.85-2.05-2.78-4.56-2.78-7.52 0-3.28 0.93-5.99 2.78-8.09 1.85-2.13 4.63-3.19 8.34-3.19 3.36 0 5.96 1.02 7.77 3.03"/>
  <path d="m254 422.8c-0.32-0.32-1.29-0.9-2.94-1.74s-3.19-1.26-4.68-1.26c-0.95 0-2.12 0.13-3.48 0.38-1.38 0.27-2.71 0.86-3.97 1.76-1.27 0.88-2.35 2.19-3.26 3.87-0.88 1.69-1.33 3.91-1.33 6.66 0 1.18 0.07 2.49 0.23 3.98 0.15 1.47 0.49 3.12 1.03 4.9h19.66l-2.21 12.86h-16.5v62.14c0 6.35-0.81 11.66-2.46 15.95-1.63 4.27-3.77 7.87-6.42 10.78-2.64 2.89-5.58 5.33-8.79 7.3-3.23 1.94-6.44 3.7-9.6 5.31l-7.3-12.07c3.91-2.01 6.98-4.13 9.2-6.41 2.21-2.29 3.88-4.55 4.99-6.83 1.11-2.26 1.79-4.45 1.99-6.57 0.2-2.11 0.32-4.03 0.32-5.7v-63.9h-14.26v-12.86h13.78c-0.43-1.58-0.72-3.23-0.88-4.9-0.16-1.7-0.22-3.28-0.22-4.77 0-4.22 0.76-7.98 2.3-11.25 1.51-3.28 3.59-5.99 6.17-8.09 2.6-2.13 5.6-3.73 9.04-4.84 3.43-1.1 7-1.67 10.71-1.67 4.11 0 7.5 0.68 10.14 1.99 2.65 1.31 4.82 2.87 6.51 4.68l-7.77 10.3z"/>
  <path d="m288.33 454.27c-2.29 1.65-4.09 3.76-5.47 6.35-1.38 2.6-2.35 5.5-2.94 8.73s-0.93 6.46-1.02 9.74c5.06-0.21 9.38-0.86 12.91-1.97 3.54-1.13 6.44-2.49 8.65-4.14 2.21-1.62 3.82-3.41 4.84-5.31 0.99-1.89 1.51-3.79 1.51-5.71 0-3.05-0.9-5.52-2.71-7.37-1.79-1.85-4.18-2.78-7.14-2.78-3.48 0-6.35 0.84-8.63 2.46m-25.22 9.77c1.96-5.4 4.65-9.92 8.09-13.56 3.43-3.66 7.48-6.4 12.13-8.25 4.66-1.85 9.67-2.78 15.07-2.78 4.75 0 8.79 0.59 12.12 1.74 3.34 1.18 6.05 2.76 8.18 4.77 2.1 2.01 3.66 4.38 4.67 7.12 1 2.75 1.52 5.71 1.52 8.88 0 3.82-1.07 7.43-3.19 10.87-2.1 3.43-5.15 6.46-9.11 9.03-3.97 2.6-8.74 4.66-14.34 6.2-5.61 1.53-11.91 2.35-18.87 2.46 0.31 2.42 0.81 4.72 1.49 6.89 0.7 2.17 1.69 4.07 3.03 5.7 1.31 1.64 3.03 2.93 5.15 3.88 2.1 0.95 4.74 1.45 7.91 1.45 2.33 0 4.81-0.27 7.45-0.79 2.65-0.55 5.09-1.18 7.3-1.92 2.65-0.84 5.25-1.79 7.78-2.85l4.74 11.25c-2.73 1.38-5.69 2.6-8.88 3.66-2.73 0.95-5.92 1.79-9.51 2.53-3.59 0.75-7.39 1.11-11.41 1.11-6.13 0-11.37-0.93-15.71-2.78-4.31-1.85-7.86-4.45-10.62-7.84-2.73-3.39-4.74-7.46-6.01-12.22-1.29-4.75-1.92-10.04-1.92-15.84 0-7.1 1-13.34 2.94-18.71"/>
  <path d="m364.83 439.45c3.05 0 6.08 0.32 9.04 0.95s5.61 1.38 7.93 2.22c2.74 0.94 5.29 1.96 7.62 3.02l-5.4 12.36c-2.13-0.95-4.23-1.78-6.35-2.53-1.79-0.63-3.77-1.24-5.94-1.83s-4.32-0.86-6.42-0.86c-2.44 0-4.52 0.57-6.26 1.74-1.74 1.16-2.62 2.9-2.62 5.22 0 6.04 4.38 10.74 13.15 14.13 3.28 1.26 6.24 2.62 8.88 4.04s4.9 3.1 6.76 4.99c1.83 1.9 3.25 4.09 4.2 6.58s1.42 5.42 1.42 8.81c0 2.96-0.61 5.85-1.83 8.7-1.22 2.87-3 5.4-5.4 7.62-2.37 2.23-5.26 4-8.7 5.31-3.46 1.33-7.34 1.99-11.66 1.99-3.5 0-6.93-0.41-10.3-1.2-3.39-0.79-6.44-1.65-9.13-2.6s-4.84-1.85-6.42-2.71l-2.37-1.11 5.85-13.31 2.06 1.11c1.38 0.83 3.12 1.74 5.24 2.69s4.38 1.83 6.82 2.62c2.42 0.79 4.66 1.2 6.65 1.2 3.7 0 6.46-0.75 8.25-2.24 1.8-1.47 2.71-3.44 2.71-5.85 0-2.76-1-5.27-2.94-7.55-1.97-2.26-4.88-4.14-8.81-5.63-8.14-3.05-13.97-6.55-17.51-10.46-3.55-3.91-5.31-8.97-5.31-15.21 0-2.96 0.67-5.8 2.05-8.49s3.26-5.09 5.63-7.14c2.39-2.06 5.22-3.66 8.49-4.84 3.28-1.15 6.83-1.74 10.62-1.74"/>
  <path d="m399.72 441.35h14.28l3.16-18.55 14.89-3.32v21.87h19.52l-2.23 12.84h-17.29v46.93c0 2.76 0.75 4.54 2.24 5.33 1.47 0.79 3.12 1.18 4.9 1.18 1.49 0 2.96-0.09 4.45-0.32 1.47-0.2 2.8-0.47 3.96-0.79 1.38-0.31 2.71-0.68 3.97-1.11l3.01 11.89-1.42 0.47c-0.95 0.43-2.35 0.89-4.21 1.36-1.85 0.47-4.02 0.9-6.5 1.27-2.49 0.36-5.2 0.56-8.16 0.56s-5.7-0.32-8.18-0.95c-2.49-0.63-4.61-1.67-6.42-3.09-1.81-1.43-3.19-3.26-4.2-5.47-1-2.24-1.49-4.97-1.49-8.25v-49.01h-14.28v-12.84z"/>
  <path d="m531.8 488.29c0 3.16 0.23 6.08 0.7 8.72 0.48 2.65 1.02 5.27 1.61 7.84 0.56 2.6 1.13 5.22 1.65 7.87 0.54 2.64 0.79 5.53 0.79 8.72 0 11.18-2.85 19.55-8.56 25.04-5.7 5.51-13.43 8.24-23.14 8.24-3.17 0-6.35-0.29-9.52-0.85-3.18-0.59-6.1-1.25-8.81-1.99-2.69-0.75-4.99-1.49-6.89-2.22-1.9-0.74-3.16-1.26-3.8-1.58l4.43-13.81c1.49 0.64 3.14 1.29 5 1.99 1.85 0.68 3.75 1.34 5.71 1.97 1.95 0.63 3.98 1.17 6.1 1.6 2.13 0.41 4.18 0.64 6.2 0.64 5.92 0 10.19-1.79 12.83-5.31 2.64-3.55 3.98-8.14 3.98-13.72 0-5.08-1.07-10.33-3.19-15.7-2.96 5.6-6.89 9.58-11.79 11.97-4.93 2.37-10.08 3.57-15.48 3.57-8.34 0-14.31-2.44-17.83-7.3-3.55-4.86-5.31-11.52-5.31-19.97v-52.65h18.08v52.17c0 4.43 0.79 7.91 2.37 10.47 1.58 2.53 4.27 3.79 8.09 3.79 2.01 0 4.13-0.59 6.41-1.74 2.29-1.17 4.34-2.78 6.2-4.83 1.85-2.06 3.36-4.55 4.58-7.46 1.22-2.92 1.83-6.06 1.83-9.45v-42.95h18.55l-0.79 46.93z"/>
  <path d="m557.65 515.96c-2.85-3.32-4.27-7.59-4.27-12.77v-94.65l18.07-3.35v96.26c0 2.44 0.46 4.12 1.43 5.09 0.95 0.95 2.32 1.42 4.11 1.42 1.06 0 2.08-0.07 3.1-0.16 0.99-0.11 1.92-0.27 2.77-0.47 0.95-0.23 1.79-0.43 2.54-0.63l2.21 11.41c-1.38 0.52-2.89 0.99-4.59 1.42-1.49 0.43-3.23 0.77-5.24 1.04-2.01 0.25-4.27 0.38-6.82 0.38-6.01 0-10.47-1.67-13.31-4.99"/>
  <path d="m622.9 454.27c-2.29 1.65-4.09 3.76-5.47 6.35-1.38 2.6-2.35 5.5-2.94 8.73s-0.93 6.46-1.02 9.74c5.06-0.21 9.38-0.86 12.91-1.97 3.54-1.13 6.41-2.49 8.65-4.14 2.21-1.62 3.82-3.41 4.84-5.31 0.99-1.89 1.51-3.79 1.51-5.71 0-3.05-0.9-5.52-2.71-7.37-1.79-1.85-4.18-2.78-7.14-2.78-3.48 0-6.37 0.84-8.63 2.46m-25.22 9.77c1.96-5.4 4.65-9.92 8.09-13.56 3.43-3.66 7.48-6.4 12.13-8.25 4.66-1.85 9.67-2.78 15.07-2.78 4.75 0 8.79 0.59 12.12 1.74 3.34 1.18 6.05 2.76 8.18 4.77 2.1 2.01 3.66 4.38 4.67 7.12 1 2.75 1.52 5.71 1.52 8.88 0 3.82-1.07 7.43-3.19 10.87-2.12 3.43-5.15 6.46-9.11 9.03-3.97 2.6-8.76 4.66-14.37 6.2-5.58 1.53-11.88 2.35-18.86 2.46 0.33 2.42 0.83 4.72 1.51 6.89 0.7 2.17 1.69 4.07 3.03 5.7 1.31 1.64 3.02 2.93 5.15 3.88 2.1 0.95 4.74 1.45 7.91 1.45 2.32 0 4.81-0.27 7.45-0.79 2.65-0.55 5.09-1.18 7.3-1.92 2.65-0.84 5.25-1.79 7.78-2.85l4.74 11.25c-2.73 1.38-5.69 2.6-8.86 3.66-2.75 0.95-5.92 1.79-9.51 2.53-3.61 0.75-7.41 1.11-11.43 1.11-6.13 0-11.37-0.93-15.68-2.78-4.34-1.85-7.89-4.45-10.65-7.84-2.73-3.39-4.74-7.46-6.01-12.22-1.29-4.75-1.92-10.04-1.92-15.84 0-7.1 1-13.34 2.94-18.71"/>
 </g>
</svg>
