<?xml version="1.0" encoding="UTF-8" standalone="no"?>
<svg xmlns:rdf="http://www.w3.org/1999/02/22-rdf-syntax-ns#" xmlns="http://www.w3.org/2000/svg" enable-background="new 0 0 239.7 104.9" xml:space="preserve" viewBox="0 0 600.00001 262.00012" height="262" width="600" version="1.1" y="0px" x="0px" xmlns:cc="http://creativecommons.org/ns#" xmlns:dc="http://purl.org/dc/elements/1.1/"><g fill="#ffdf00"><path d="m398.13 59.046c18.52-9.759 36.54-20.77 46.8-30.78 9.26-9.008 7.5-15.264 1.25-23.022-4.76-5.7552-11.76-7.5068-20.77-1.5011-11.26 7.7571-29.78 26.275-40.54 41.79-4 6.006-6.51 9.759-2.25 14.514 3 3.253 7.75 3.003 15.51-1.001"/><path d="m250.74 75.312c16.77-7.508 33.03-16.266 42.54-24.524 8.51-7.507 7.26-13.012 2.25-20.019-3.75-5.255-10.01-7.257-18.01-2.252-10.26 6.005-27.53 21.52-37.54 34.533-4 5.005-6.26 8.258-2.75 12.512 2.5 2.752 6.5 2.752 13.51-0.25"/><path d="m583.31 72.403c-2.82-0.219-5.38 1.405-8.76 4.408-9.76 8.258-31.28 27.029-50.8 46.549-6 6.01-13.01 13.51-22.02 24.02-1.25 1.5-4 5-5.25 6.76 0.75-1.76 2.75-5.26 3.5-7.26 6.01-14.02 15.77-36.04 21.52-47.547 3-6.256 4-11.257-5.76-17.263-10.76-6.756-15.51-1.254-19.26 4.501-38.29 56.809-77.08 100.85-121.37 107.85-9.76 1.51-19.02 0.01-26.52-3.5 10.51-7.5 20.01-15.01 29.52-24.02 16.02-15.77 23.28-29.28 24.53-42.79 1.25-15.77-7.01-31.032-22.03-37.539-17.51-7.257-46.29 3.255-62.56 24.779-16.01 20.77-22.52 50.04-12.51 75.32-17.51 13.01-35.78 16.52-49.04 18.02-16.27 1.75-34.54-1.01-48.55-10.27 7.26-4.5 13.26-8.5 20.52-13.76 20.27-15.51 35.03-31.53 33.78-51.55-0.75-12.26-8.51-23.77-19.77-28.53-20.27-8.754-45.54 3.01-61.31 24.03-15.51 20.52-19.26 46.54-13.51 64.81-40.79 21.27-99.595 35.03-167.66 43.29v25.03c72.069-9.01 135.13-24.27 179.92-48.05 22.02 24.53 59.81 25.03 77.83 22.77 19.27-2.25 43.04-6.75 63.56-22.77 15.76 14.02 38.04 16.02 58.56 12.76 50.29-8.25 90.83-61.81 95.09-70.06-1.5 3-7.51 14.51-9.26 18.52-2.76 6.25-5.26 12.51-7.51 19.01-2 6.01-2.25 10.26 5.25 17.27 8.51 8.01 10.26 10.51 18.52 0 15.77-19.52 44.55-50.05 66.82-70.32 2.75-2.5 5-6.01 5.75-6.76-0.25 0.25-2.75 4.01-3.5 7.76-9.26 46.04 3.5 93.09 24.27 117.61 5.76 6.76 12.77 8.26 18.52 4.51 5.76-4 7.25-8.26 2.25-17.77-12.76-21.52-17.26-46.54-17.26-66.81 0-25.28 8.5-58.31 19.76-79.831 2.76-5.255 1.75-9.758-5-16.515-4.38-4.379-7.45-6.442-10.26-6.661zm-218.42 41.147c2.54 0.01 4.54 0.82 5.71 2.3 3.51 4.26 4.26 13.51-10.5 29.53-8.26 9.26-17.52 16.02-28.03 23.27-2.76-10.01-1.75-27.52 11.51-42.54 7.57-8.77 15.73-12.58 21.31-12.56zm-138.32 12.05c2.43 0.12 4.31 0.93 5.4 2.26 3 3.75 3.51 12.26-11.51 26.53-7.76 7.25-17.51 14.51-27.02 20.52-2.25-11.51 0.75-26.53 11.51-37.79 8.26-8.6 16.27-11.76 21.62-11.52z"/></g></svg>
