<?xml version="1.0" encoding="UTF-8" standalone="no"?>
<!-- Created with Inkscape (http://www.inkscape.org/) -->
<svg xmlns:rdf="http://www.w3.org/1999/02/22-rdf-syntax-ns#" xmlns="http://www.w3.org/2000/svg" height="599.98" width="600" version="1.1" xmlns:cc="http://creativecommons.org/ns#" xmlns:dc="http://purl.org/dc/elements/1.1/">
 <metadata>
  <rdf:RDF>
   <cc:Work rdf:about="">
    <dc:format>image/svg+xml</dc:format>
    <dc:type rdf:resource="http://purl.org/dc/dcmitype/StillImage"/>
    <dc:title/>
   </cc:Work>
  </rdf:RDF>
 </metadata>
 <g fill="#08A" transform="matrix(4.7513462,0,0,-4.7513462,599.9762,299.9905)">
  <path fill-rule="nonzero" fill="#08A" d="m0,0c0-34.875-28.264-63.138-63.134-63.138-34.877,0-63.141,28.263-63.141,63.138,0,34.867,28.264,63.138,63.141,63.138,34.885,0,63.149-28.271,63.149-63.138"/>
 </g>
 <g fill="#FFF" transform="matrix(44.803721,0,0,-45.511333,220.0433,315.98166)">
  <path fill-rule="nonzero" fill="#FFF" d="m0,0-2.549,0c0.041-0.575,0.471-0.791,0.877-0.791,0.308,0,0.568,0.112,0.73,0.296l0.796-0.655c-0.341-0.432-0.958-0.679-1.526-0.679-1.226,0-2.005,0.854-2.005,2.18,0,1.287,0.82,2.189,1.899,2.189,1.137,0,1.794-0.99,1.794-2.189,0-0.159-0.008-0.271-0.016-0.351m-1.835,1.582c-0.406,0-0.657-0.328-0.698-0.751h1.461c-0.032,0.375-0.259,0.751-0.763,0.751"/>
 </g>
 <g fill="#FFF" transform="matrix(44.803721,0,0,-45.511333,494.6453,395.24854)">
  <path fill-rule="nonzero" fill="#FFF" d="m0,0,0,2.269c0,0.751-0.26,0.974-0.722,0.974-0.463,0-0.731-0.223-0.731-0.95v-2.293h-1.12v4.194h1.12v-0.279c0.195,0.199,0.552,0.367,0.998,0.367,1.088,0,1.575-0.735,1.575-1.917v-2.365h-1.12z"/>
 </g>
 <g fill="#FFF" transform="matrix(44.803721,0,0,-45.511333,178.9672,139.36126)">
  <path fill-rule="nonzero" fill="#FFF" d="m0,0-1.733-0.149,0-0.811l1.733,0.15v0.81z"/>
 </g>
 <g fill="#FFF" transform="matrix(44.803721,0,0,-45.511333,381.4398,315.98166)">
  <path fill-rule="nonzero" fill="#FFF" d="m0,0-2.549,0c0.041-0.575,0.471-0.791,0.877-0.791,0.308,0,0.568,0.112,0.731,0.296l0.795-0.655c-0.341-0.432-0.958-0.679-1.526-0.679-1.226,0-2.005,0.854-2.005,2.18,0,1.287,0.82,2.189,1.899,2.189,1.137,0,1.794-0.99,1.794-2.189,0-0.159-0.008-0.271-0.016-0.351m-1.834,1.582c-0.406,0-0.658-0.328-0.698-0.751h1.461c-0.033,0.375-0.26,0.751-0.763,0.751"/>
 </g>
 <g fill="#FFF" transform="matrix(44.803721,0,0,-45.511333,340.3727,139.36126)">
  <path fill-rule="nonzero" fill="#FFF" d="m0,0-1.733-0.149,0-0.811l1.733,0.15v0.81z"/>
 </g>
</svg>
