<?xml version="1.0" encoding="UTF-8" standalone="no"?>
<!-- Created with Inkscape (http://www.inkscape.org/) -->
<svg xmlns:rdf="http://www.w3.org/1999/02/22-rdf-syntax-ns#" xmlns="http://www.w3.org/2000/svg" height="393.48" width="600" version="1.1" xmlns:cc="http://creativecommons.org/ns#" xmlns:dc="http://purl.org/dc/elements/1.1/">
 <metadata>
  <rdf:RDF>
   <cc:Work rdf:about="">
    <dc:format>image/svg+xml</dc:format>
    <dc:type rdf:resource="http://purl.org/dc/dcmitype/StillImage"/>
    <dc:title/>
   </cc:Work>
  </rdf:RDF>
 </metadata>
 <path fill-rule="nonzero" fill="#08A" d="m393.48,196.74c0,108.67-88.072,196.74-196.74,196.74-108.67-0.01-196.74-88.08-196.74-196.74,0-108.65,88.072-196.74,196.75-196.74,108.66,0,196.73,88.094,196.73,196.74"/>
 <path d="m92.071,131.44c-31.704,0-55.78,26.93-55.78,65.344,0,39.577,22.882,65.062,58.905,65.062,16.69,0,34.791-7.4175,44.811-20.312l-23.34-19.53c-4.7641,5.4932-12.416,8.8437-21.469,8.8437-11.93,0-24.545-6.4617-25.75-23.625h74.871c0.23507-2.3878,0.46875-5.6922,0.46875-10.438,0-35.786-19.309-65.344-52.718-65.344zm-1.656,28.56c14.809,0,21.496,11.213,22.438,22.406h-42.961c1.209-12.63,8.606-22.41,20.535-22.41z" fill-rule="nonzero" fill="#FFF"/>
 <path d="m324.4,259.22,0-67.724c0-22.415-7.6398-29.072-21.215-29.072-13.604,0-21.479,6.6558-21.479,28.354v68.441h-32.88v-125.18h32.909v8.3274c5.7298-5.9396,16.22-10.954,29.324-10.954,31.968,0,46.277,21.937,46.277,57.216v70.589h-32.909z" fill-rule="nonzero" fill="#FFF"/>
 <path d="m117.39,91.397-50.921,4.4472,0,24.206,50.921-4.477v-24.17z" fill-rule="nonzero" fill="#FFF"/>
 <path d="m197.95,131.44c-31.703,0-55.811,26.93-55.811,65.344,0,39.577,22.914,65.062,58.937,65.062,16.69,0,34.791-7.4175,44.811-20.312l-23.36-19.53c-4.798,5.4932-12.416,8.8437-21.469,8.8437-11.93,0-24.606-6.4617-25.812-23.625h74.906c0.23507-2.3878,0.49999-5.6922,0.49999-10.438,0-35.786-19.309-65.344-52.718-65.344zm-1.66,28.56c14.78,0,21.436,11.213,22.406,22.406h-42.909c1.179-12.63,8.5691-22.41,20.499-22.41z" fill-rule="nonzero" fill="#FFF"/>
 <path d="m223.23,91.397-50.921,4.4472,0,24.206,50.921-4.477v-24.17z" fill-rule="nonzero" fill="#FFF"/>
 <path d="m416.62,133.56,0,125.62,35.375,0,0-49.531,38.938,0,0,49.531,35.375,0,0-0.0312,6.125,0c44.309,0,67.563-16.312,67.563-63.501,0-47.218-24.999-62.095-64.313-62.095h-44.75v45.75h-38.938v-45.75h-35.375zm110.31,29.75,8.5313,0c21.627,0,28.969,9.7137,28.969,32.875,0,24.923-8.4351,33.219-30.031,33.219h-7.4689v-317.29z" fill-rule="nonzero" fill="#08A"/>
</svg>
