<?xml version="1.0" encoding="UTF-8" standalone="no"?>
<!-- Created with Inkscape (http://www.inkscape.org/) -->

<svg
   xmlns:dc="http://purl.org/dc/elements/1.1/"
   xmlns:cc="http://creativecommons.org/ns#"
   xmlns:rdf="http://www.w3.org/1999/02/22-rdf-syntax-ns#"
   xmlns:svg="http://www.w3.org/2000/svg"
   xmlns="http://www.w3.org/2000/svg"
   version="1.0"
   width="800"
   height="197.5"
   id="svg3089">
  <metadata
     id="metadata3097">
    <rdf:RDF>
      <cc:Work
         rdf:about="">
        <dc:format>image/svg+xml</dc:format>
        <dc:type
           rdf:resource="http://purl.org/dc/dcmitype/StillImage" />
        <dc:title></dc:title>
      </cc:Work>
    </rdf:RDF>
  </metadata>
  <defs
     id="defs3095" />
  <path
     d="m 25.1,0.1 h 172.1 l -7.3,56.3 H 18.1 z M 15,77.1 H 187.3 L 182,122.9 H 74.3 l -2.8,21.9 h 107.9 l -6.7,52.3 H 0 z M 200,56.4 c 0,0 1.2,-19.2 6,-29.2 4.5,-9.4 10.5,-16.2 20.6,-21.9 6,-3.2 16.7,-5.2 16.7,-5.2 l 310,0 c 0,0 13,0.2 18.6,2.5 6,2.5 14.7,6.2 19.3,17.4 4.5,10.7 3.6,14.2 3.6,24.9 0,10.5 -0.3,11.5 -0.3,11.5 z m -2.8,21.2 158.6,0 c 0,0 14.1,0 20.6,3.9 6.8,4.5 9.9,10 11.9,18.7 1.9,8.7 -3.4,52.6 -6.5,63.3 -3.4,10.5 -7.4,20.4 -23.8,28.6 -14.7,7.5 -37,5 -37,5 l -137,0 8.1,-52.3 128.3,0 2.6,-22.2 -88.5,0 c 0,0 -14.4,2 -27.9,-9.7 -8.2,-7 -9.1,-17.7 -9.6,-22.4 -0.6,-2.7 0.2,-12.9 0.2,-12.9 z m 206.3,0 187.1,0 c 0,0 -1.7,21.6 -6.8,29.3 -5.1,8 -9.6,12.3 -18.1,14.2 -8.7,2 -21.7,2 -21.7,2 l -81.4,0 -8.5,74 -65.3,0 z m 199.8,-20.7 194.4,0 c 0,0 3.7,-17 1.7,-27.7 -2,-10.7 -6.8,-17.9 -14.7,-23.1 -10.4,-7.3 -29.4,-6 -29.1,-6 -0.3,0 -144.4,0 -144.4,0 z m -2.5,20.7 h 64.4 l -14.7,119.5 h -63.9 z m 129.4,0.5 H 794 l -14.7,119 h -63.5 z"
     id="path3091"
     style="fill:#cc0000" />
</svg>
