<?xml version="1.0" encoding="UTF-8" standalone="no"?>
<!-- Created with Inkscape (http://www.inkscape.org/) -->

<svg
   xmlns:dc="http://purl.org/dc/elements/1.1/"
   xmlns:cc="http://creativecommons.org/ns#"
   xmlns:rdf="http://www.w3.org/1999/02/22-rdf-syntax-ns#"
   xmlns:svg="http://www.w3.org/2000/svg"
   xmlns="http://www.w3.org/2000/svg"
   xmlns:inkscape="http://www.inkscape.org/namespaces/inkscape"
   version="1.1"
   width="237.14067"
   height="75"
   id="svg10841">
  <defs
     id="defs10843">
    <clipPath
       id="clipPath4659">
      <path
         d="m 310.562,83.43 29.981,0 0,-9.482 -29.981,0 0,9.482 z"
         inkscape:connector-curvature="0"
         id="path4661" />
    </clipPath>
    <clipPath
       id="clipPath4643">
      <path
         d="m 310.562,83.43 29.981,0 0,-9.482 -29.981,0 0,9.482 z"
         inkscape:connector-curvature="0"
         id="path4645" />
    </clipPath>
  </defs>
  <metadata
     id="metadata10846">
    <rdf:RDF>
      <cc:Work
         rdf:about="">
        <dc:format>image/svg+xml</dc:format>
        <dc:type
           rdf:resource="http://purl.org/dc/dcmitype/StillImage" />
        <dc:title />
      </cc:Work>
    </rdf:RDF>
  </metadata>
  <g
     transform="translate(-244.11906,-843.28835)"
     id="layer1">
    <g
       transform="matrix(7.9097237,0,0,-7.9097237,-2212.3413,1503.1966)"
       id="g4639">
      <g
         clip-path="url(#clipPath4643)"
         id="g4641">
        <g
           transform="translate(337.963,79.458)"
           id="g4647">
          <path
             d="m 0,0 c -0.587,0 -0.733,0 -0.764,0 l 0.285,2.119 c 0,0 0.229,0.011 0.578,0.011 0.429,0 0.859,-0.213 0.859,-0.875 C 0.958,0.698 0.622,0 0,0 z m 0.529,3.058 c -1.135,0 -2.443,-10e-4 -2.443,-10e-4 l -0.538,-3.928 c 0,0 2.251,0 2.675,0 1.943,0 2.358,1.288 2.358,2.314 0,1.222 -0.754,1.615 -2.052,1.615"
             inkscape:connector-curvature="0"
             id="path4649"
             style="fill:#141111;fill-opacity:1;fill-rule:nonzero;stroke:none" />
        </g>
      </g>
    </g>
    <path
       d="m 429.53016,850.55763 -1.54239,11.39791 -12.27589,0 1.54239,-11.39791 -12.26798,0 -4.20797,31.02984 12.26798,0 1.57403,-11.56401 12.26798,0 -1.56612,11.56401 12.27589,0 4.20797,-31.02984 -12.27589,0"
       inkscape:connector-curvature="0"
       id="path4653"
       style="fill:#141111;fill-opacity:1;fill-rule:nonzero;stroke:none" />
    <g
       transform="matrix(7.9097237,0,0,-7.9097237,-2212.3413,1503.1966)"
       id="g4655">
      <g
         clip-path="url(#clipPath4659)"
         id="g4657">
        <g
           transform="translate(330.022,75.221)"
           id="g4663">
          <path
             d="m 0,0 c 0.258,0.036 0.457,0.277 0.441,0.538 l -1.153,7.198 c -0.016,0.26 -0.242,0.473 -0.504,0.473 l -16.456,0 c -0.261,0 -0.487,-0.213 -0.503,-0.473 L -19.459,0.538 C -19.475,0.277 -19.277,0.036 -19.018,0 l 9.039,-1.246 c 0.258,-0.036 0.681,-0.036 0.939,0 L 0,0"
             inkscape:connector-curvature="0"
             id="path4665"
             style="fill:#141111;fill-opacity:1;fill-rule:nonzero;stroke:none" />
        </g>
      </g>
    </g>
    <path
       d="m 326.55347,911.80262 c -2.04862,0.22906 -5.41025,0.22906 -7.45887,0 l -67.72305,-6.13795 c -2.04862,-0.17401 -2.07235,0.0633 -0.057,0.37967 l 67.77842,9.32556 c 2.04862,0.27716 5.39443,0.27716 7.43514,0 l 67.87334,-9.32556 c 2.05653,-0.36385 2.00907,-0.55368 -0.0791,-0.36385 l -67.77051,6.12213"
       inkscape:connector-curvature="0"
       id="path4669"
       style="fill:#ffffff;fill-opacity:1;fill-rule:nonzero;stroke:none" />
    <path
       d="m 346.11422,850.41525 c 0,0 -12.13352,0 -22.34497,0 -10.46457,0 -21.12687,0 -23.61053,0 -4.71419,-0.006 -7.83062,2.47574 -8.27357,6.1854 -0.15819,1.36048 -0.31639,2.57066 -0.31639,2.57066 l 61.23708,0 c 0,0 0.11074,-0.9017 0.21325,-1.6294 0.45876,-3.7413 -1.12318,-7.12666 -6.90519,-7.12666"
       inkscape:connector-curvature="0"
       id="path4673"
       style="fill:#ef2e31;fill-opacity:1;fill-rule:nonzero;stroke:none" />
    <path
       d="m 262.78528,850.41525 27.77895,0.006 -1.09154,8.75606 -27.77104,0 1.08363,-8.76397"
       inkscape:connector-curvature="0"
       id="path4677"
       style="fill:#ef2e31;fill-opacity:1;fill-rule:nonzero;stroke:none" />
    <path
       d="m 261.29034,862.50922 27.77104,0 -0.8938,7.24531 -17.39348,0 -0.45054,3.56728 17.39348,0 -1.03617,8.28939 -27.77104,0 2.38083,-19.10198"
       inkscape:connector-curvature="0"
       id="path4681"
       style="fill:#ef2e31;fill-opacity:1;fill-rule:nonzero;stroke:none" />
    <path
       d="m 356.00928,850.41525 c 0,0 17.11664,0 22.65345,0 3.5831,0 7.30067,1.66104 6.55716,7.41141 -0.12656,1.02827 -0.16642,1.34465 -0.16642,1.34465 l -30.12023,0 1.07572,-8.75606"
       inkscape:connector-curvature="0"
       id="path4685"
       style="fill:#ef2e31;fill-opacity:1;fill-rule:nonzero;stroke:none" />
    <path
       d="m 308.65377,896.41029 5.18086,0 0.45877,-3.82039 -5.17296,0 0.22147,-1.81924 8.56623,0 0.48218,-3.9865 -13.01941,0 -1.85878,15.43978 13.14596,0 0.4904,-4.01814 -8.7086,0 0.21324,-1.79551 z m 50.55104,-9.61822 -9.05663,0 c -1.25765,-0.006 -2.10399,0.2607 -2.57066,0.68815 -0.48218,0.41953 -0.84634,1.24182 -0.99663,2.50738 l -1.09945,9.0329 c -0.1582,1.28138 0.0127,2.09608 0.37967,2.5153 0.35625,0.42712 1.14691,0.68814 2.41246,0.68814 l 9.05663,0 c 1.26556,0 2.11981,-0.2607 2.57857,-0.68814 0.47459,-0.41954 0.83844,-1.23392 0.98872,-2.5153 l 0.28475,-2.33337 -4.44526,0 -0.17402,1.41584 -6.52552,0 0.87007,-7.18202 6.53343,0 -0.1506,1.19436 4.44526,0 0.26071,-2.12771 c 0.1506,-1.26556 -0.006,-2.08817 -0.37967,-2.50738 -0.35562,-0.42713 -1.14691,-0.69606 -2.41246,-0.68815 z m -89.12677,8.53459 1.9537,-3.3379 1.07573,3.3379 -3.02943,0 z m 0.0127,-8.5425 -8.81934,15.43978 4.88821,0 1.81132,-3.14016 6.35942,0 1.04408,3.14016 4.89612,0 -5.07013,-15.43978 -5.10968,0 z m 22.00485,5.64754 -3.29045,-5.64754 -4.95148,0 -1.88252,15.43978 4.12888,0 1.00453,-8.26566 3.61475,6.81027 0.68814,0 5.34698,-6.80236 -1.00454,8.25775 4.12888,0 1.88251,-15.43978 -4.95939,0 -4.70629,5.64754 z m 78.51983,2.89496 1.61358,-2.75258 0.32398,-0.64069 1.02036,3.1718 0.0709,0.22147 -3.02943,0 z m 5.13341,-8.5425 -5.10968,0 -8.81144,15.43978 4.8803,0 1.81133,-3.14016 6.35942,0 1.04408,3.14016 4.90403,0 -5.07804,-15.43978 z m -45.35436,5.67127 -0.0127,0 -0.0127,0.14238 -5.11759,0 0.21325,-1.81133 5.1255,0 -0.006,0.13478 0.006,0 -0.18984,1.53449 z m 0.43472,4.12888 0.79097,-0.0253 c 1.052,-0.0253 1.75596,-0.29235 2.18309,-0.73561 0.45117,-0.44294 0.78306,-1.24973 0.92543,-2.4441 l 0.41131,-3.39327 c 0.15819,-1.26556 -0.006,-2.08817 -0.37967,-2.50739 -0.35562,-0.42712 -1.139,-0.69605 -2.41246,-0.69605 l -10.8205,0 -1.87461,15.43978 4.44527,0 0.68023,-5.63963 1.02036,0 4.53227,5.63963 5.03849,0 -4.07351,-5.06222 -0.46699,-0.5771 z m 6.51761,5.63963 4.44527,0 1.8746,-15.43978 -4.43735,0 -1.88252,15.43978"
       inkscape:connector-curvature="0"
       id="path4689"
       style="fill:#ffffff;fill-opacity:1;fill-rule:nonzero;stroke:none" />
    <path
       d="m 352.39454,862.50922 c 0,0 -0.13478,1.24183 -0.31639,2.57857 -0.37967,2.67348 -2.36501,4.66674 -6.06676,4.66674 l -13.03522,0 -1.47912,11.85667 -10.38547,0 2.36501,-19.10198 28.91795,0"
       inkscape:connector-curvature="0"
       id="path4693"
       style="fill:#ef2e31;fill-opacity:1;fill-rule:nonzero;stroke:none" />
    <path
       d="m 354.50643,862.50922 10.38547,0 -2.36501,19.10198 -10.38546,0 2.365,-19.10198"
       inkscape:connector-curvature="0"
       id="path4697"
       style="fill:#ef2e31;fill-opacity:1;fill-rule:nonzero;stroke:none" />
    <path
       d="m 313.9691,862.51713 c -1.79551,0 -19.26809,-0.006 -22.81164,-0.006 -0.76725,4.99104 1.72432,7.24531 5.25996,7.24531 1.92998,0 14.05558,-0.006 14.05558,-0.006 l -0.44294,3.5831 -20.21726,0 -1.02826,8.28148 c 0,0 22.00485,0.019 22.89865,0 0.7356,-0.0443 5.88483,-0.18983 7.64079,-4.3978 0.5695,-1.36838 1.07572,-6.27241 1.2181,-7.29277 0.8147,-5.97975 -3.31417,-7.4035 -6.57298,-7.4035"
       inkscape:connector-curvature="0"
       id="path4701"
       style="fill:#ef2e31;fill-opacity:1;fill-rule:nonzero;stroke:none" />
    <path
       d="m 374.24119,862.50922 10.38547,0 -2.37292,19.10198 -10.38546,0 2.37291,-19.10198"
       inkscape:connector-curvature="0"
       id="path4705"
       style="fill:#ef2e31;fill-opacity:1;fill-rule:nonzero;stroke:none" />
  </g>
</svg>
