<?xml version="1.0" encoding="UTF-8" standalone="no"?>
<!-- Created with Inkscape (http://www.inkscape.org/) -->

<svg
   xmlns:dc="http://purl.org/dc/elements/1.1/"
   xmlns:cc="http://creativecommons.org/ns#"
   xmlns:rdf="http://www.w3.org/1999/02/22-rdf-syntax-ns#"
   xmlns:svg="http://www.w3.org/2000/svg"
   xmlns="http://www.w3.org/2000/svg"
   xmlns:inkscape="http://www.inkscape.org/namespaces/inkscape"
   version="1.0"
   width="514.86285"
   height="245.30502"
   id="svg2">
  <metadata
     id="metadata18">
    <rdf:RDF>
      <cc:Work
         rdf:about="">
        <dc:format>image/svg+xml</dc:format>
        <dc:type
           rdf:resource="http://purl.org/dc/dcmitype/StillImage" />
      </cc:Work>
    </rdf:RDF>
  </metadata>
  <defs
     id="defs4" />
  <g
     id="g3186">
    <path
       d="m 503.42308,212.37986 c 6.68522,-0.9255 11.8228,-7.1859 11.41736,-13.91989 L 484.99829,12.25676 C 484.59171,5.51594 478.73675,2.8e-4 471.98566,2.8e-4 L 46.25197,0 C 39.50488,0 33.64793,5.51594 33.24248,12.25676 L 0.0225,198.45997 c -0.40573,6.73399 4.72588,12.99439 11.41167,13.91989 l 233.83064,32.22719 c 3.27233,0.45591 7.56482,0.68857 11.87898,0.69798 l 0.55085,0 c 4.31444,-0.009 8.60808,-0.24207 11.88212,-0.69798 l 233.84632,-32.22719 z"
       inkscape:connector-curvature="0"
       id="path2391"
       style="fill:#1e0103;fill-opacity:1" />
    <path
       d="m 269.60414,224.07265 c -6.70576,0.75928 -17.67778,0.75928 -24.39379,0 L 23.73572,204.01014 c -6.71062,-0.56454 -6.80755,0.17279 -0.19275,1.24511 l 221.66766,30.474 c 6.68978,0.92122 17.63529,0.92122 24.31596,0.004 l 221.98044,-30.47997 c 6.72742,-1.17298 6.60054,-1.8185 -0.23922,-1.20806 l -221.66367,20.02744 0,0 z"
       inkscape:connector-curvature="0"
       id="path2393"
       style="fill:#ffffff" />
    <path
       d="m 333.59948,23.32773 c 0,0 -39.70277,0.01025 -73.10267,0.01025 -34.20166,0 -69.09244,0 -77.21041,-0.01025 -15.40535,-0.02453 -25.59585,8.08858 -27.04911,20.2256 -0.53318,4.45729 -1.04725,8.41305 -1.04725,8.41305 l 200.29074,0 c 0,0 0.37294,-2.95726 0.68087,-5.3289 1.5177,-12.22484 -3.66038,-23.30975 -22.56217,-23.30975 l 0,0 z"
       inkscape:connector-curvature="0"
       id="path2395"
       style="fill:#fd001d;fill-opacity:1" />
    <path
       d="m 354.13958,62.87396 c 0,0 -0.44394,4.04073 -1.05951,8.44157 -1.21376,8.73439 -7.72165,15.24198 -19.81903,15.24198 l -42.64151,0 -4.83223,38.7844 -33.95303,0 7.70368,-62.46795 94.60163,0 0,0 z"
       inkscape:connector-curvature="0"
       id="path2397"
       style="fill:#fd001d;fill-opacity:1" />
    <polygon
       points="52.053,229.179 20.199,229.179 21.4376,219.128 21.4376,219.128 53.3026,219.138 "
       transform="matrix(2.8512071,0,0,2.8512071,-0.06304,-601.47154)"
       id="polygon2399"
       style="fill:#fd001d;fill-opacity:1" />
    <polygon
       points="50.5491,241.312 30.6025,241.312 30.0913,245.407 50.0372,245.407 48.8508,254.914 16.9982,254.914 19.7207,233.005 19.7207,233.005 51.5782,233.005 "
       transform="matrix(2.8512071,0,0,2.8512071,-0.06304,-601.47154)"
       id="polygon2401"
       style="fill:#fd001d;fill-opacity:1" />
    <path
       d="m 365.93787,23.32773 c 0,0 55.96891,0 74.08006,0 11.71646,0 23.90595,5.43153 21.47786,24.22726 -0.4294,3.36728 -0.54914,4.41139 -0.54914,4.41139 l -98.53344,0 3.52466,-28.63865 z"
       inkscape:connector-curvature="0"
       id="path2403"
       style="fill:#fd001d;fill-opacity:1" />
    <polygon
       points="135.847,254.912 123.932,254.914 126.646,233.001 126.646,233.001 138.563,233.005 "
       transform="matrix(2.8512071,0,0,2.8512071,-0.06304,-601.47154)"
       id="polygon2405"
       style="fill:#fd001d;fill-opacity:1" />
    <polygon
       points="158.474,254.912 146.564,254.914 149.283,233.001 149.283,233.001 161.197,233.005 "
       transform="matrix(2.8512071,0,0,2.8512071,-0.06304,-601.47154)"
       id="polygon2407"
       style="fill:#fd001d;fill-opacity:1" />
    <path
       d="m 228.46036,62.88537 c -5.87121,0 -63.00712,-0.01027 -74.60668,-0.01027 -2.51534,16.30406 5.64397,23.68355 17.20219,23.68355 6.3006,0 45.95889,-0.02821 45.95889,-0.02821 l -1.43929,11.70619 -66.11721,0 -3.35245,27.10642 c 0,0 71.96304,0.0354 74.88495,3e-4 2.39787,-0.16224 19.23881,-0.62785 24.982,-14.38464 1.86498,-4.47098 3.52752,-20.50387 3.9934,-23.86374 2.67158,-19.55101 -10.84998,-24.2096 -21.5058,-24.2096 l 0,0 z"
       inkscape:connector-curvature="0"
       id="path2409"
       style="fill:#fd001d;fill-opacity:1" />
    <path
       d="m 211.06115,173.7346 16.93446,0 1.51485,-12.48344 -16.92961,0 0.72135,-5.95361 28.02966,0 1.58327,-13.03572 -42.56825,0 -6.13067,50.48746 43.02615,0 1.59811,-13.1355 -28.4904,0 0.71108,-5.87919 0,0 z m 165.33438,-31.46564 -29.61606,0 c -4.12286,-0.01 -6.89707,0.86505 -8.43188,2.25815 -1.54905,1.37685 -2.74913,4.07267 -3.24295,8.20977 l -3.58568,29.54535 c -0.52206,4.16333 0.0211,6.87511 1.23514,8.22202 1.17184,1.38398 3.74448,2.25588 7.89071,2.25189 l 29.61634,0 c 4.14081,0.004 6.93185,-0.86791 8.43473,-2.25189 1.53195,-1.34691 2.73886,-4.05869 3.23269,-8.22173 l 0.92864,-7.64467 -14.53659,0 -0.55713,4.62695 -21.35211,0 2.85177,-23.47228 21.35184,0 -0.47387,3.89247 14.53375,0 0.84651,-6.94839 c 0.50809,-4.13682 -0.0351,-6.83949 -1.24512,-8.20949 -1.17584,-1.3931 -3.74163,-2.26812 -7.88073,-2.25815 l 0,0 z m -291.49601,27.93613 6.37387,-10.91927 3.53065,10.91927 -9.90452,0 0,0 z m 0.04932,-27.94326 -28.82599,50.48746 15.97104,0 5.92224,-10.27688 20.793,0 3.4357,10.27688 16.01723,0 -16.60457,-50.48746 -16.70865,0 z m 71.97274,18.45017 -10.77272,-18.45017 -16.20598,0 -6.13466,50.48746 13.48936,0 3.28801,-27.05823 11.84191,22.30042 2.2248,0 17.48874,-22.25822 -3.28916,27.01603 13.5284,0 6.13181,-50.48746 -16.21623,0 -15.37428,18.45017 0,0 z m 256.78969,9.49309 5.27958,-9.03434 1.07205,-2.07511 3.33249,10.38239 -0.007,0 0.23237,0.72706 -9.90937,0 0,0 z m 16.79132,-27.94326 -16.70692,0 -28.82657,50.49431 15.9699,0 5.92538,-10.28373 20.79385,0 3.43399,10.28373 16.01097,0 -16.6006,-50.49431 0,0 z m -148.30125,18.52771 -0.0625,0 -0.0573,0.47273 -16.76337,0 0.71308,-5.90741 16.76338,0 -0.0422,0.43453 0.0562,0 -0.60731,5.00015 0,0 z m 1.3911,13.50246 2.59004,-0.0593 c 3.44796,-0.0815 5.75231,-0.96371 7.16451,-2.40414 1.44328,-1.44042 2.54071,-4.08663 3.0143,-7.98623 l 1.34092,-11.10573 c 0.51806,-4.13682 -0.0251,-6.83949 -1.23628,-8.20949 -1.1707,-1.3931 -3.74678,-2.26812 -7.8836,-2.26528 l -35.41284,0 -6.13665,50.48746 14.54173,0 2.24076,-18.44331 3.32422,0 14.84338,18.44331 16.47799,0 -13.33967,-16.56237 -1.52881,-1.89492 0,0 z m 21.3259,18.46414 14.52318,0 6.13979,-50.49431 -14.53231,0 -6.13066,50.49431 z"
       inkscape:connector-curvature="0"
       id="path2411"
       style="fill:#ffffff" />
  </g>
</svg>
