<?xml version="1.0" encoding="UTF-8" standalone="no"?>
<!-- Created with Inkscape (http://www.inkscape.org/) -->

<svg
   xmlns:dc="http://purl.org/dc/elements/1.1/"
   xmlns:cc="http://creativecommons.org/ns#"
   xmlns:rdf="http://www.w3.org/1999/02/22-rdf-syntax-ns#"
   xmlns:svg="http://www.w3.org/2000/svg"
   xmlns="http://www.w3.org/2000/svg"
   version="1.0"
   width="24.002228"
   height="24.002228"
   id="svg2">
  <defs
     id="defs4" />
  <metadata
     id="metadata7">
    <rdf:RDF>
      <cc:Work
         rdf:about="">
        <dc:format>image/svg+xml</dc:format>
        <dc:type
           rdf:resource="http://purl.org/dc/dcmitype/StillImage" />
        <dc:title></dc:title>
      </cc:Work>
    </rdf:RDF>
  </metadata>
  <g
     transform="translate(-9.6705235,-1022.3903)"
     id="layer1">
    <g
       transform="matrix(1,0,0,-1,-328.30292,933.75171)"
       id="g11033">
      <g
         transform="matrix(0.0466003,0,0,-0.0466003,459.3726,91.397858)"
         id="g11035">
        <path
           d="m 0,0 -11.3,0 0,-11.5 -5,0 0,28.801 5,0 0,-12.301 0.5,-0.699 10.101,0 0.699,0.5 0,12.5 5,0 0,-28.801 -5,0 L 0,0 z"
           id="path11037"
           style="fill:#1c4e9d;fill-rule:nonzero;stroke:none" />
      </g>
      <g
         transform="matrix(0.0466003,0,0,-0.0466003,460.73804,91.933777)"
         id="g11039">
        <path
           d="m 0,0 -10.601,28.801 5.101,0 2.399,-6.5 11.5,0 2.401,6.5 L 16.1,28.5 5.5,0 0,0 z M -1,17.7 C -0.101,14 1.1,9.801 2.6,6 4.3,9.5 5.199,13.7 6.5,17.5 L -1,17.7"
           id="path11041"
           style="fill:#1c4e9d;fill-rule:nonzero;stroke:none" />
      </g>
      <g
         transform="matrix(0.0466003,0,0,-0.0466003,462.92825,90.927216)"
         id="g11043">
        <path
           d="m 0,0 c -4.301,-6.7 -6.801,-14.6 -10.801,-21.6 l -6,0 0,28.801 4.601,0 0.2,-21.601 c 3.8,6.9 7.3,14.3 10.6,21.601 l 6.201,0 0,-28.801 -4.5,0 L 0,0"
           id="path11045"
           style="fill:#1c4e9d;fill-rule:nonzero;stroke:none" />
      </g>
      <g
         transform="matrix(0.0466003,0,0,-0.0466003,464.86215,90.927216)"
         id="g11047">
        <path
           d="m 0,0 c -3.801,-7.1 -6.699,-14.5 -10.5,-21.6 l -6.301,0 0,28.801 4.801,0 0.301,-21.601 c 3.598,6.9 7.098,14.3 10.5,21.601 l 6.299,0 0,-28.801 -4.799,0.2 L 0,0"
           id="path11049"
           style="fill:#1c4e9d;fill-rule:nonzero;stroke:none" />
      </g>
      <g
         transform="matrix(0.0466003,0,0,-0.0466003,466.87526,91.742722)"
         id="g11051">
        <path
           d="m 0,0 -0.199,-4.1 -17.801,0 0,28.801 18,0 0,-4.301 -12.898,-0.3 0.199,-7.7 11.301,0 0,-3.8 -11.5,-0.5 0.199,-7.899 L 0,0 z"
           id="path11053"
           style="fill:#1c4e9d;fill-rule:nonzero;stroke:none" />
      </g>
      <g
         transform="matrix(0.0466003,0,0,-0.0466003,467.99367,91.933777)"
         id="g11055">
        <path
           d="m 0,0 -4.8,0 0,28.801 16.3,0 0,-4.301 -11,0 L 0,0 z"
           id="path11057"
           style="fill:#1c4e9d;fill-rule:nonzero;stroke:none" />
      </g>
    </g>
    <g
       transform="matrix(1,0,0,-1,-328.30292,933.75171)"
       id="g15405">
      <g
         transform="matrix(0.0384521,0,0,-0.0384521,58.949158,55.939194)"
         id="g15407">
        <path
           d="m 0,0 -11.3,0 0,-11.5 -5,0 0,28.801 5,0 0,-12.301 0.5,-0.699 10.1,0 0.7,0.5 0,12.5 5,0 0,-28.801 -5,0 L 0,0 z"
           id="path15409"
           style="fill:#1c4e9d;fill-rule:nonzero;stroke:none" />
      </g>
      <g
         transform="matrix(0.0384521,0,0,-0.0384521,60.075806,56.381393)"
         id="g15411">
        <path
           d="m 0,0 -10.6,28.801 5.1,0 2.4,-6.5 11.5,0 2.4,6.5 L 16.1,28.5 5.5,0 0,0 z M -1,17.7 C -0.1,14 1.1,9.801 2.6,6 4.3,9.5 5.2,13.7 6.5,17.5 L -1,17.7"
           id="path15413"
           style="fill:#1c4e9d;fill-rule:nonzero;stroke:none" />
      </g>
      <g
         transform="matrix(0.0384521,0,0,-0.0384521,61.883057,55.550842)"
         id="g15415">
        <path
           d="m 0,0 c -4.3,-6.7 -6.8,-14.6 -10.8,-21.6 l -6,0 0,28.801 4.6,0 0.2,-21.601 c 3.8,6.9 7.3,14.3 10.6,21.601 l 6.201,0 0,-28.801 -4.5,0 L 0,0"
           id="path15417"
           style="fill:#1c4e9d;fill-rule:nonzero;stroke:none" />
      </g>
      <g
         transform="matrix(0.0384521,0,0,-0.0384521,63.478821,55.550842)"
         id="g15419">
        <path
           d="m 0,0 c -3.8,-7.1 -6.699,-14.5 -10.5,-21.6 l -6.3,0 0,28.801 4.8,0 0.301,-21.601 c 3.599,6.9 7.099,14.3 10.5,21.601 l 6.299,0 0,-28.801 -4.799,0.2 L 0,0"
           id="path15421"
           style="fill:#1c4e9d;fill-rule:nonzero;stroke:none" />
      </g>
      <g
         transform="matrix(0.0384521,0,0,-0.0384521,65.139938,56.223755)"
         id="g15423">
        <path
           d="m 0,0 -0.2,-4.1 -17.8,0 0,28.801 18,0 0,-4.301 -12.899,-0.3 0.199,-7.7 11.301,0 0,-3.8 -11.5,-0.5 L -12.7,0.201 0,0 z"
           id="path15425"
           style="fill:#1c4e9d;fill-rule:nonzero;stroke:none" />
      </g>
      <g
         transform="matrix(0.0384521,0,0,-0.0384521,66.06279,56.381393)"
         id="g15427">
        <path
           d="m 0,0 -4.8,0 0,28.801 16.3,0 0,-4.301 -11,0 L 0,0 z"
           id="path15429"
           style="fill:#1c4e9d;fill-rule:nonzero;stroke:none" />
      </g>
    </g>
    <g
       transform="matrix(1,0,0,-1,-328.30292,933.75171)"
       id="g31379">
      <g
         transform="matrix(0.0466003,0,0,-0.0466003,459.3726,91.397858)"
         id="g31381">
        <path
           d="m 0,0 -11.3,0 0,-11.5 -5,0 0,28.801 5,0 0,-12.301 0.5,-0.699 10.101,0 0.699,0.5 0,12.5 5,0 0,-28.801 -5,0 L 0,0 z"
           id="path31383"
           style="fill:#1c4e9d;fill-rule:nonzero;stroke:none" />
      </g>
      <g
         transform="matrix(0.0466003,0,0,-0.0466003,460.73804,91.933777)"
         id="g31385">
        <path
           d="m 0,0 -10.601,28.801 5.101,0 2.399,-6.5 11.5,0 2.401,6.5 L 16.1,28.5 5.5,0 0,0 z M -1,17.7 C -0.101,14 1.1,9.801 2.6,6 4.3,9.5 5.199,13.7 6.5,17.5 L -1,17.7"
           id="path31387"
           style="fill:#1c4e9d;fill-rule:nonzero;stroke:none" />
      </g>
      <g
         transform="matrix(0.0466003,0,0,-0.0466003,462.92825,90.927216)"
         id="g31389">
        <path
           d="m 0,0 c -4.301,-6.7 -6.801,-14.6 -10.801,-21.6 l -6,0 0,28.801 4.601,0 0.2,-21.601 c 3.8,6.9 7.3,14.3 10.6,21.601 l 6.201,0 0,-28.801 -4.5,0 L 0,0"
           id="path31391"
           style="fill:#1c4e9d;fill-rule:nonzero;stroke:none" />
      </g>
      <g
         transform="matrix(0.0466003,0,0,-0.0466003,464.86215,90.927216)"
         id="g31393">
        <path
           d="m 0,0 c -3.801,-7.1 -6.699,-14.5 -10.5,-21.6 l -6.301,0 0,28.801 4.801,0 0.301,-21.601 c 3.598,6.9 7.098,14.3 10.5,21.601 l 6.299,0 0,-28.801 -4.799,0.2 L 0,0"
           id="path31395"
           style="fill:#1c4e9d;fill-rule:nonzero;stroke:none" />
      </g>
      <g
         transform="matrix(0.0466003,0,0,-0.0466003,466.87526,91.742722)"
         id="g31397">
        <path
           d="m 0,0 -0.199,-4.1 -17.801,0 0,28.801 18,0 0,-4.301 -12.898,-0.3 0.199,-7.7 11.301,0 0,-3.8 -11.5,-0.5 0.199,-7.899 L 0,0 z"
           id="path31399"
           style="fill:#1c4e9d;fill-rule:nonzero;stroke:none" />
      </g>
      <g
         transform="matrix(0.0466003,0,0,-0.0466003,467.99367,91.933777)"
         id="g31401">
        <path
           d="m 0,0 -4.8,0 0,28.801 16.3,0 0,-4.301 -11,0 L 0,0 z"
           id="path31403"
           style="fill:#1c4e9d;fill-rule:nonzero;stroke:none" />
      </g>
    </g>
    <g
       transform="matrix(1,0,0,-1,-328.30292,933.75171)"
       id="g35751">
      <g
         transform="matrix(0.0384521,0,0,-0.0384521,58.949158,55.939194)"
         id="g35753">
        <path
           d="m 0,0 -11.3,0 0,-11.5 -5,0 0,28.801 5,0 0,-12.301 0.5,-0.699 10.1,0 0.7,0.5 0,12.5 5,0 0,-28.801 -5,0 L 0,0 z"
           id="path35755"
           style="fill:#1c4e9d;fill-rule:nonzero;stroke:none" />
      </g>
      <g
         transform="matrix(0.0384521,0,0,-0.0384521,60.075806,56.381393)"
         id="g35757">
        <path
           d="m 0,0 -10.6,28.801 5.1,0 2.4,-6.5 11.5,0 2.4,6.5 L 16.1,28.5 5.5,0 0,0 z M -1,17.7 C -0.1,14 1.1,9.801 2.6,6 4.3,9.5 5.2,13.7 6.5,17.5 L -1,17.7"
           id="path35759"
           style="fill:#1c4e9d;fill-rule:nonzero;stroke:none" />
      </g>
      <g
         transform="matrix(0.0384521,0,0,-0.0384521,61.883057,55.550842)"
         id="g35761">
        <path
           d="m 0,0 c -4.3,-6.7 -6.8,-14.6 -10.8,-21.6 l -6,0 0,28.801 4.6,0 0.2,-21.601 c 3.8,6.9 7.3,14.3 10.6,21.601 l 6.201,0 0,-28.801 -4.5,0 L 0,0"
           id="path35763"
           style="fill:#1c4e9d;fill-rule:nonzero;stroke:none" />
      </g>
      <g
         transform="matrix(0.0384521,0,0,-0.0384521,63.478821,55.550842)"
         id="g35765">
        <path
           d="m 0,0 c -3.8,-7.1 -6.699,-14.5 -10.5,-21.6 l -6.3,0 0,28.801 4.8,0 0.301,-21.601 c 3.599,6.9 7.099,14.3 10.5,21.601 l 6.299,0 0,-28.801 -4.799,0.2 L 0,0"
           id="path35767"
           style="fill:#1c4e9d;fill-rule:nonzero;stroke:none" />
      </g>
      <g
         transform="matrix(0.0384521,0,0,-0.0384521,65.139938,56.223755)"
         id="g35769">
        <path
           d="m 0,0 -0.2,-4.1 -17.8,0 0,28.801 18,0 0,-4.301 -12.899,-0.3 0.199,-7.7 11.301,0 0,-3.8 -11.5,-0.5 L -12.7,0.201 0,0 z"
           id="path35771"
           style="fill:#1c4e9d;fill-rule:nonzero;stroke:none" />
      </g>
      <g
         transform="matrix(0.0384521,0,0,-0.0384521,66.06279,56.381393)"
         id="g35773">
        <path
           d="m 0,0 -4.8,0 0,28.801 16.3,0 0,-4.301 -11,0 L 0,0 z"
           id="path35775"
           style="fill:#1c4e9d;fill-rule:nonzero;stroke:none" />
      </g>
    </g>
    <g
       transform="matrix(1,0,0,-1,-328.30292,933.75171)"
       id="g51917">
      <g
         transform="matrix(0.0466003,0,0,-0.0466003,459.3726,91.397858)"
         id="g51919">
        <path
           d="m 0,0 -11.3,0 0,-11.5 -5,0 0,28.801 5,0 0,-12.301 0.5,-0.699 10.101,0 0.699,0.5 0,12.5 5,0 0,-28.801 -5,0 L 0,0 z"
           id="path51921"
           style="fill:#1c4e9d;fill-rule:nonzero;stroke:none" />
      </g>
      <g
         transform="matrix(0.0466003,0,0,-0.0466003,460.73804,91.933777)"
         id="g51923">
        <path
           d="m 0,0 -10.601,28.801 5.101,0 2.399,-6.5 11.5,0 2.401,6.5 L 16.1,28.5 5.5,0 0,0 z M -1,17.7 C -0.101,14 1.1,9.801 2.6,6 4.3,9.5 5.199,13.7 6.5,17.5 L -1,17.7"
           id="path51925"
           style="fill:#1c4e9d;fill-rule:nonzero;stroke:none" />
      </g>
      <g
         transform="matrix(0.0466003,0,0,-0.0466003,462.92825,90.927216)"
         id="g51927">
        <path
           d="m 0,0 c -4.301,-6.7 -6.801,-14.6 -10.801,-21.6 l -6,0 0,28.801 4.601,0 0.2,-21.601 c 3.8,6.9 7.3,14.3 10.6,21.601 l 6.201,0 0,-28.801 -4.5,0 L 0,0"
           id="path51929"
           style="fill:#1c4e9d;fill-rule:nonzero;stroke:none" />
      </g>
      <g
         transform="matrix(0.0466003,0,0,-0.0466003,464.86215,90.927216)"
         id="g51931">
        <path
           d="m 0,0 c -3.801,-7.1 -6.699,-14.5 -10.5,-21.6 l -6.301,0 0,28.801 4.801,0 0.301,-21.601 c 3.598,6.9 7.098,14.3 10.5,21.601 l 6.299,0 0,-28.801 -4.799,0.2 L 0,0"
           id="path51933"
           style="fill:#1c4e9d;fill-rule:nonzero;stroke:none" />
      </g>
      <g
         transform="matrix(0.0466003,0,0,-0.0466003,466.87526,91.742722)"
         id="g51935">
        <path
           d="m 0,0 -0.199,-4.1 -17.801,0 0,28.801 18,0 0,-4.301 -12.898,-0.3 0.199,-7.7 11.301,0 0,-3.8 -11.5,-0.5 0.199,-7.899 L 0,0 z"
           id="path51937"
           style="fill:#1c4e9d;fill-rule:nonzero;stroke:none" />
      </g>
      <g
         transform="matrix(0.0466003,0,0,-0.0466003,467.99367,91.933777)"
         id="g51939">
        <path
           d="m 0,0 -4.8,0 0,28.801 16.3,0 0,-4.301 -11,0 L 0,0 z"
           id="path51941"
           style="fill:#1c4e9d;fill-rule:nonzero;stroke:none" />
      </g>
    </g>
    <g
       transform="matrix(1.0855323,0,0,-1.0855323,-701.678,1148.5303)"
       id="g52177">
      <g
         transform="scale(0.0650024,-0.0650024)"
         id="g52179">
        <path
           d="m 10081.155,-1787.643 340.157,0 0,340.157 -340.157,0 0,-340.157 z"
           id="path52181"
           style="fill:#b6b5b5;fill-rule:nonzero;stroke:none" />
      </g>
      <g
         transform="matrix(0.0650024,0,0,-0.0650024,666.44409,110.85893)"
         id="g52183">
        <path
           d="m 0,0 c -34.791,0 -63.002,28.205 -63.002,63.006 0,34.798 28.211,63.001 63.002,63.001 34.792,0 63.001,-28.203 63.001,-63.001 C 63.001,28.205 34.792,0 0,0"
           id="path52185"
           style="fill:#ffffff;fill-rule:nonzero;stroke:none" />
      </g>
      <g
         transform="matrix(0.0650024,0,0,-0.0650024,662.82358,101.01237)"
         id="g52187">
        <path
           d="m 0,0 -0.101,0 0,0.1 0,13.828 c 0,1.705 -0.601,3.267 -1.695,4.404 -1.058,1.1 -2.476,1.707 -3.985,1.707 -1.509,0 -2.922,-0.607 -3.979,-1.707 -1.092,-1.135 -1.691,-2.699 -1.691,-4.404 l 0,-13.828 0,-0.1 -0.1,0 -4.345,0 -0.102,0 0,0.1 0,13.828 c 0,3.039 1.011,5.662 2.925,7.582 1.85,1.859 4.441,2.883 7.292,2.883 2.856,0 5.45,-1.024 7.305,-2.883 1.911,-1.92 2.923,-4.541 2.923,-7.582 L 4.447,0.1 4.447,0 4.349,0 0,0 z"
           id="path52189"
           style="fill:#ffffff;fill-rule:nonzero;stroke:none" />
      </g>
      <g
         transform="matrix(0.0650024,0,0,-0.0650024,665.32774,99.855926)"
         id="g52191">
        <path
           d="m 0,0 c -1.383,1.449 -3.334,2.248 -5.489,2.248 -2.156,0 -4.106,-0.799 -5.489,-2.248 -1.392,-1.463 -2.159,-3.533 -2.159,-5.832 0,-2.307 0.767,-4.385 2.159,-5.848 1.382,-1.453 3.331,-2.252 5.489,-2.252 2.155,0 4.106,0.799 5.489,2.252 1.396,1.465 2.162,3.541 2.162,5.848 C 2.162,-3.533 1.396,-1.463 0,0 m 3.186,-14.822 c -2.312,-2.235 -5.395,-3.463 -8.675,-3.463 -3.285,0 -6.368,1.228 -8.682,3.463 -2.394,2.312 -3.712,5.506 -3.712,8.99 0,3.481 1.318,6.668 3.712,8.979 2.313,2.228 5.397,3.455 8.682,3.455 3.28,0 6.363,-1.227 8.675,-3.455 2.401,-2.311 3.719,-5.498 3.719,-8.979 0,-3.482 -1.318,-6.676 -3.719,-8.99"
           id="path52193"
           style="fill:#ffffff;fill-rule:nonzero;stroke:none" />
      </g>
      <g
         transform="matrix(0.0650024,0,0,-0.0650024,666.66551,101.04449)"
         id="g52195">
        <path
           d="m 0,0 c -2.854,0 -5.448,1.023 -7.299,2.883 -1.914,1.92 -2.924,4.545 -2.924,7.592 l 0,13.828 0,0.099 0.1,0 4.343,0 0.1,0 0,-0.099 0,-13.828 c 0,-1.709 0.603,-3.278 1.696,-4.413 C -2.923,4.959 -1.508,4.353 0,4.353 c 1.508,0 2.925,0.606 3.982,1.709 1.094,1.135 1.693,2.704 1.693,4.413 l 0,13.828 0,0.099 0.1,0 4.355,0 0.101,0 0,-0.099 0,-13.828 C 10.231,7.432 9.219,4.807 7.305,2.883 5.448,1.021 2.855,0 0,0"
           id="path52197"
           style="fill:#ffffff;fill-rule:nonzero;stroke:none" />
      </g>
      <g
         transform="matrix(0.0650024,0,0,-0.0650024,671.09283,101.01237)"
         id="g52199">
        <path
           d="m 0,0 -0.102,0 0,0.1 0,15.115 c 0,2.93 -1.627,4.824 -4.146,4.824 -3.014,0 -4.543,-1.857 -4.543,-5.519 l 0,-14.42 0,-0.1 -0.102,0 -4.339,0 -0.1,0 0,0.1 0,14.42 c 0,3.662 -1.529,5.519 -4.547,5.519 -2.517,0 -4.146,-1.894 -4.146,-4.824 l 0,-15.115 0,-0.1 -0.098,0 -4.35,0 -0.097,0 0,0.1 0,16.09 c 0,4.599 3.777,8.203 8.599,8.203 2.889,0 5.398,-1.202 6.916,-3.293 1.502,2.091 4.008,3.293 6.909,3.293 4.816,0 8.587,-3.604 8.587,-8.203 L 4.441,0.1 4.441,0 4.345,0 0,0 z"
           id="path52201"
           style="fill:#ffffff;fill-rule:nonzero;stroke:none" />
      </g>
      <g
         transform="matrix(0.0650024,0,0,-0.0650024,672.28371,100.39902)"
         id="g52203">
        <path
           d="m 0,0 c -2.902,-0.809 -5.408,-1.51 -5.408,-3.108 0.095,-1.344 0.525,-1.984 2.713,-1.984 l 10.966,0 0.098,0 0,-0.1 0,-4.144 0,-0.1 -0.098,0 -10.222,0 c -5.289,0 -8.201,2.315 -8.201,6.52 0,2.15 1.007,3.82 3.08,5.105 1.793,1.111 4.144,1.785 6.224,2.383 3.036,0.871 5.661,1.625 5.661,3.383 0,1.496 -0.838,2.164 -2.713,2.164 l -12.153,0 -0.099,0 0,0.099 0,4.155 0,0.099 0.099,0 12.153,0 c 2.175,0 4.013,-0.57 5.31,-1.65 C 8.813,11.656 9.551,9.906 9.551,7.757 9.551,2.666 4.256,1.187 0,0"
           id="path52205"
           style="fill:#ffffff;fill-rule:nonzero;stroke:none" />
      </g>
      <g
         transform="matrix(0.0650024,0,0,-0.0650024,663.37006,100.42352)"
         id="g52207">
        <path
           d="m 0,0 0,14.541 0,0.099 0.101,0 4.028,0 0.099,0 0,-0.099 0,-14.541 c 0,-2.702 0.832,-5.803 7.307,-5.803 l 0.1,0 0,-0.1 0,-4.021 0,-0.1 -0.1,0 C 1.498,-10.024 0,-3.744 0,0"
           id="path52209"
           style="fill:#ffffff;fill-rule:nonzero;stroke:none" />
      </g>
      <g
         transform="matrix(0.0650024,0,0,-0.0650024,661.26764,100.00179)"
         id="g52211">
        <path
           d="m 0,0 -0.089,-0.047 -0.045,0.09 C -0.784,1.289 -1.775,2.363 -3,3.148 -6.835,5.564 -11.919,4.416 -14.336,0.59 c -1.174,-1.85 -1.553,-4.049 -1.07,-6.194 0.484,-2.142 1.767,-3.968 3.619,-5.136 2.725,-1.721 6.201,-1.678 8.898,0.092 l -7.255,5.951 -0.077,0.062 0.062,0.076 2.484,3.09 0.064,0.078 0.078,-0.064 10.634,-8.736 0.074,-0.063 -0.059,-0.078 -0.068,-0.088 c -1.755,-2.775 -4.502,-4.709 -7.729,-5.434 -3.224,-0.726 -6.533,-0.154 -9.317,1.608 -2.788,1.758 -4.723,4.5 -5.449,7.723 -0.732,3.228 -0.162,6.542 1.599,9.332 3.644,5.759 11.295,7.486 17.063,3.843 C 1.035,5.504 2.53,3.887 3.541,1.978 L 3.588,1.889 3.499,1.842 0,0 z"
           id="path52213"
           style="fill:#ffffff;fill-rule:nonzero;stroke:none" />
      </g>
      <g
         transform="matrix(0.0650024,0,0,-0.0650024,668.82994,100.00179)"
         id="g52215">
        <path
           d="m 0,0 -0.088,-0.047 -0.045,0.09 c -0.652,1.246 -1.644,2.318 -2.869,3.105 -3.832,2.414 -8.919,1.268 -11.34,-2.558 -1.172,-1.852 -1.547,-4.051 -1.062,-6.196 0.482,-2.144 1.767,-3.966 3.614,-5.134 2.73,-1.721 6.204,-1.678 8.897,0.092 l -7.253,5.951 -0.077,0.062 0.065,0.076 2.485,3.09 0.064,0.078 0.077,-0.064 10.634,-8.736 0.076,-0.063 -0.061,-0.08 -0.07,-0.088 0.006,0.01 c -3.645,-5.756 -11.294,-7.477 -17.047,-3.834 -2.791,1.756 -4.731,4.498 -5.457,7.719 -0.731,3.23 -0.164,6.543 1.597,9.336 3.651,5.757 11.304,7.482 17.065,3.843 C 1.035,5.504 2.533,3.887 3.541,1.978 L 3.586,1.889 3.496,1.842 0,0 z"
           id="path52217"
           style="fill:#ffffff;fill-rule:nonzero;stroke:none" />
      </g>
    </g>
    <g
       transform="matrix(1,0,0,-1,-328.30292,933.75171)"
       id="g56347">
      <g
         transform="matrix(0.0384521,0,0,-0.0384521,58.949158,55.939194)"
         id="g56349">
        <path
           d="m 0,0 -11.3,0 0,-11.5 -5,0 0,28.801 5,0 0,-12.301 0.5,-0.699 10.1,0 0.7,0.5 0,12.5 5,0 0,-28.801 -5,0 L 0,0 z"
           id="path56351"
           style="fill:#1c4e9d;fill-rule:nonzero;stroke:none" />
      </g>
      <g
         transform="matrix(0.0384521,0,0,-0.0384521,60.075806,56.381393)"
         id="g56353">
        <path
           d="m 0,0 -10.6,28.801 5.1,0 2.4,-6.5 11.5,0 2.4,6.5 L 16.1,28.5 5.5,0 0,0 z M -1,17.7 C -0.1,14 1.1,9.801 2.6,6 4.3,9.5 5.2,13.7 6.5,17.5 L -1,17.7"
           id="path56355"
           style="fill:#1c4e9d;fill-rule:nonzero;stroke:none" />
      </g>
      <g
         transform="matrix(0.0384521,0,0,-0.0384521,61.883057,55.550842)"
         id="g56357">
        <path
           d="m 0,0 c -4.3,-6.7 -6.8,-14.6 -10.8,-21.6 l -6,0 0,28.801 4.6,0 0.2,-21.601 c 3.8,6.9 7.3,14.3 10.6,21.601 l 6.201,0 0,-28.801 -4.5,0 L 0,0"
           id="path56359"
           style="fill:#1c4e9d;fill-rule:nonzero;stroke:none" />
      </g>
      <g
         transform="matrix(0.0384521,0,0,-0.0384521,63.478821,55.550842)"
         id="g56361">
        <path
           d="m 0,0 c -3.8,-7.1 -6.699,-14.5 -10.5,-21.6 l -6.3,0 0,28.801 4.8,0 0.301,-21.601 c 3.599,6.9 7.099,14.3 10.5,21.601 l 6.299,0 0,-28.801 -4.799,0.2 L 0,0"
           id="path56363"
           style="fill:#1c4e9d;fill-rule:nonzero;stroke:none" />
      </g>
      <g
         transform="matrix(0.0384521,0,0,-0.0384521,65.139938,56.223755)"
         id="g56365">
        <path
           d="m 0,0 -0.2,-4.1 -17.8,0 0,28.801 18,0 0,-4.301 -12.899,-0.3 0.199,-7.7 11.301,0 0,-3.8 -11.5,-0.5 L -12.7,0.201 0,0 z"
           id="path56367"
           style="fill:#1c4e9d;fill-rule:nonzero;stroke:none" />
      </g>
      <g
         transform="matrix(0.0384521,0,0,-0.0384521,66.06279,56.381393)"
         id="g56369">
        <path
           d="m 0,0 -4.8,0 0,28.801 16.3,0 0,-4.301 -11,0 L 0,0 z"
           id="path56371"
           style="fill:#1c4e9d;fill-rule:nonzero;stroke:none" />
      </g>
    </g>
  </g>
</svg>
