<?xml version="1.0" encoding="UTF-8" standalone="no"?>
<!-- Created with Inkscape (http://www.inkscape.org/) -->
<svg xmlns:rdf="http://www.w3.org/1999/02/22-rdf-syntax-ns#" xmlns="http://www.w3.org/2000/svg" xmlns:cc="http://creativecommons.org/ns#" xmlns:xlink="http://www.w3.org/1999/xlink" xmlns:dc="http://purl.org/dc/elements/1.1/" height="362.74" width="602" version="1.1">
  <defs>
    <linearGradient id="linearGradient3768" gradientUnits="userSpaceOnUse" gradientTransform="matrix(-117.69094,240.39264,-240.39264,-117.69094,-162.0907,-653.70406)" x1="0" x2="1" y1="0" y2="0">
      <stop stop-color="#204b84" offset="0"/>
      <stop stop-color="#000" offset="1"/>
    </linearGradient>
  </defs>
  <metadata>
    <rdf:RDF>
      <cc:Work rdf:about="">
        <dc:format>image/svg+xml</dc:format>
        <dc:type rdf:resource="http://purl.org/dc/dcmitype/StillImage"/>
        <dc:title/>
      </cc:Work>
    </rdf:RDF>
  </metadata>
  <g transform="translate(370.10464,721.18031)">
    <path fill-rule="nonzero" fill="#00559f" d="m176.7-390.61,25.173-88.608-306.93,0-24.923,88.608,306.68,0z"/>
    <path fill-rule="nonzero" fill="#FFF" d="m-36.096-443.58-8.1111,28.941-9.1203,0,11.935-42.173,11.333,0,5.9674,30.583,8.669-30.583,9.0514,0-11.935,42.173-11.458,0-6.3309-28.941z"/>
    <path fill-rule="nonzero" fill="#FFF" d="m3.7551-456.81,26.534,0-2.3318,8.224-17.231,0-2.2503,8.0484,15.89,0-2.3318,8.1675-15.896,0-2.7204,9.4964,17.219,0-2.2816,8.2365-26.527,0,11.928-42.173z"/>
    <path fill-rule="nonzero" fill="#FFF" d="m60.908-414.64,1.3916-31.216-16.329,31.216-11.59,0,1.1659-42.173,9.1203,0-1.0155,30.714,16.341-30.714,10.637,0-1.2098,30.714,16.216-30.714,9.3021,0-22.121,42.173-11.91,0z"/>
    <path fill-rule="nonzero" fill="#FFF" d="m89.255-416.8,2.7956-7.1521c3.9302,1.2035,7.1834,2.0873,11.233,2.0873,4.9457,0,6.1868-0.94651,7.2148-4.6197,0.28207-0.89009,0.42624-1.6486,0.48265-2.2127,0.21312-1.9056-1.0029-2.407-5.9862-3.7422-6.8449-1.7739-9.1767-4.2436-8.6502-9.183,0.15671-1.3289,0.50146-2.8458,1.0029-4.557,2.8395-9.371,5.5787-11.27,17.043-11.27,3.2282,0,8.4747,0.69577,12.098,1.6486l-2.4697,7.7914c-3.6481-0.89009-8.3995-1.4668-11.245-1.4668-4.5633,0-5.5161,0.63937-6.45,3.9929-0.22566,0.95277-0.43251,1.7112-0.50146,2.2816-0.21312,2.0246,1.028,2.3381,5.8295,3.6042,7.6347,1.9682,9.5278,4.3752,9.0764,8.6753-0.15044,1.3289-0.49519,2.7894-0.99039,4.5006-2.4572,8.6753-5.8922,12.411-17.858,12.411-3.4851,0-9.4964-1.2098-12.624-2.7894"/>
    <path fill="url(#linearGradient3768)" d="m-340.23-580.88-28.872,101.68,264.07,0,28.558-101.68-263.76,0z"/>
    <path fill-rule="nonzero" fill="#FFF" d="m-76.487-580.89,307.38,0-28.897,101.68-307.05,0,28.564-101.68z"/>
    <path fill-rule="nonzero" fill="#FFF" d="m-326.73-562.82,41.139,0-3.6293,12.762-26.709,0-3.4977,12.468,24.647,0-3.623,12.656-24.634,0-4.2311,14.73,26.703,0-3.529,12.762-41.132,0,18.498-65.378z"/>
    <path fill-rule="nonzero" fill="#FFF" d="m-287.11-513.06c0.11283-1.0781,0.33849-2.2566,0.6519-3.3347l13.132-46.435h14.43l-12.624,44.467c-0.31342,1.0844-0.514,2.0623-0.62056,3.0464-0.41998,3.9239,1.4104,6.0865,8.2804,6.0865,7.8541,0,11.038-3.1404,12.599-8.5374l12.787-45.062h14.43l-13.132,46.435c-3.1404,10.988-9.5967,19.927-29.53,19.927-15.802,0-21.331-7.9544-20.403-16.592"/>
    <path fill-rule="nonzero" fill="#FFF" d="m-182.44-542.6c0.31341-1.0781,0.53907-2.2628,0.58922-2.7518,0.35729-3.3347-1.5545-4.7075-6.5629-4.7075h-11.979l-5.5474,19.726h12.367c6.3811,0,8.2992-2.3569,9.7221-7.3589l1.4104-4.908zm-17.188,24.735-9.9101,0-5.7229,20.422-14.43,0,18.498-65.378,25.029,0c14.041,0,20.34,5.2967,19.306,14.918-0.13163,1.2725-0.46385,2.5512-0.81488,4.0242l-2.219,7.8541c-2.2503,8.1487-5.7605,13.351-14.204,16.191l9.9603,22.39h-16.191l-9.3021-20.422z"/>
    <path fill-rule="nonzero" fill="#FFF" d="m-118.91-544.56c0.43251-4.0242-1.9557-6.4814-8.926-6.4814-7.4592,0-11.734,3.2344-13.276,8.4433l-7.0894,24.935c-0.18178,0.78353-0.36983,1.5671-0.43878,2.2566-0.41998,3.9239,1.893,6.1868,8.9573,6.1868,7.4592,0,11.697-2.8458,13.276-8.4433l7.0894-24.935c0.17551-0.68951,0.35103-1.3727,0.40744-1.962m-44.523,30.721c0.10029-0.97784,0.31968-2.056,0.62056-3.0401l7.6097-26.997c3.4601-12.173,11.753-19.927,30.213-19.927,15.508,0,21.826,8.8382,20.867,17.771-0.094,0.88382-0.31342,1.962-0.61429,2.9461l-7.5721,26.696c-3.4977,12.474-11.665,19.933-31.003,19.933-15.407,0-21.074-8.5436-20.121-17.382"/>
    <path fill-rule="nonzero" fill="#ab0132" d="m-84.288-500.78,4.3251-11.095c6.0865,1.868,11.139,3.2407,17.426,3.2407,7.6535,0,9.5779-1.473,11.17-7.1646,0.44505-1.3728,0.6707-2.5512,0.76473-3.435,0.31341-2.9461-1.5608-3.7359-9.2896-5.7919-10.606-2.7518-14.216-6.5817-13.395-14.235,0.21312-2.0622,0.76473-4.4191,1.542-7.0706,4.4066-14.524,8.6502-17.47,26.414-17.47,5.0021,0,13.138,1.0781,18.767,2.5512l-3.8424,12.073c-5.6477-1.3728-13.007-2.2566-17.426-2.2566-7.0706,0-8.5499,0.97784-9.9916,6.1868-0.35729,1.4668-0.67697,2.6515-0.77726,3.529-0.33222,3.1404,1.5733,3.6356,9.0263,5.5975,11.847,3.0464,14.781,6.776,14.066,13.452-0.21939,2.056-0.75846,4.3188-1.5357,6.964-3.7923,13.452-9.1266,19.25-27.687,19.25-5.3907,0-14.718-1.8742-19.557-4.3251"/>
    <path fill-rule="nonzero" fill="#ab0132" d="m15.68-542.31c0.32595-1.1784,0.52653-2.1563,0.59548-2.8458,0.35729-3.341-1.4354-4.908-5.8483-4.908h-12.173l-5.7041,20.221h11.878c6.6757,0,8.3995-2.3569,9.8098-7.2649l1.4417-5.2026zm-26.722,24.929-5.679,19.933-14.43,0,18.504-65.378,24.929,0c14.041,0,20.234,5.397,19.231,14.724-0.14417,1.379-0.65817,3.435-1.122,5.0083l-2.0685,7.3652c-3.4663,12.167-9.1328,18.347-26.408,18.347h-12.956z"/>
    <path fill-rule="nonzero" fill="#ab0132" d="m76.394-544.56c0.42624-4.0242-1.9557-6.4814-8.9323-6.4814-7.453,0-11.734,3.2344-13.276,8.4433l-7.0831,24.935c-0.18805,0.78353-0.36983,1.5671-0.43878,2.2566-0.41997,3.9239,1.8867,6.1868,8.9448,6.1868,7.4655,0,11.703-2.8458,13.289-8.4433l7.0831-24.935c0.17551-0.68951,0.35102-1.3727,0.4137-1.962m-44.53,30.721c0.10656-0.97784,0.32595-2.056,0.62056-3.0401l7.6097-26.997c3.4663-12.173,11.759-19.927,30.219-19.927,15.501,0,21.826,8.8382,20.867,17.771-0.10029,0.88382-0.31341,1.962-0.61429,2.9461l-7.5783,26.696c-3.4914,12.474-11.665,19.933-30.997,19.933-15.414,0-21.074-8.5436-20.127-17.382"/>
    <path fill-rule="nonzero" fill="#ab0132" d="m136.16-542.6c0.31341-1.0781,0.53907-2.2628,0.58922-2.7518,0.36356-3.3347-1.5483-4.7075-6.5566-4.7075h-11.979l-5.5537,19.726h12.367c6.3874,0,8.3054-2.3569,9.7221-7.3589l1.4104-4.908zm-17.175,24.735-9.9164,0-5.7229,20.422-14.43,0,18.491-65.378,25.035,0c14.041,0,20.34,5.2967,19.306,14.918-0.13164,1.2725-0.47012,2.5512-0.82115,4.0242l-2.2127,7.8541c-2.2503,8.1487-5.7605,13.351-14.21,16.191l9.9665,22.39h-16.191l-9.2958-20.422z"/>
    <path fill-rule="nonzero" fill="#ab0132" d="m175.3-497.45-14.53,0,14.875-52.616-17.67,0,3.6293-12.762,49.864,0-3.6293,12.762-17.67,0-14.868,52.616z"/>
    <path fill-rule="nonzero" fill="#bdc1c4" d="m-166.63-600.55-16.993-12.154-26.527,12.123,16.498-19.363-16.498-11.766,26.527,0,16.993-19.908,0,19.908,24.396,0-24.396,11.208,0,19.952z"/>
    <path fill-rule="nonzero" fill="#bdc1c4" d="m-87.752-647.44-16.987-12.16-26.527,12.117,16.492-19.356-16.486-11.759,26.521,0,16.987-19.914,0,19.914,24.396,0-24.396,11.208,0,19.952z"/>
    <path fill-rule="nonzero" fill="#bdc1c4" d="m-0.10556-669.11-16.987-12.154-26.534,12.123,16.498-19.363-16.492-11.759,26.527,0,16.987-19.914,0,19.914,24.396,0-24.396,11.208,0,19.946z"/>
    <path fill-rule="nonzero" fill="#bdc1c4" d="m79.958-647.4-16.987-12.16-26.527,12.117,16.498-19.356-16.492-11.759,26.521,0,16.987-19.914,0,19.914,24.396,0-24.396,11.208,0,19.952z"/>
    <path fill-rule="nonzero" fill="#bdc1c4" d="m134.88-600.59-17-12.16-26.521,12.123,16.504-19.356-16.498-11.766,26.515,0,17-19.914,0,19.914,24.396,0-24.396,11.208,0,19.952z"/>
    <path fill-rule="nonzero" fill="#bdc1c4" d="m-239.59-409.75-16.987-12.16-26.534,12.117,16.498-19.356-16.492-11.759,26.527,0,16.987-19.914,0,19.914,24.396,0-24.396,11.208,0,19.952z"/>
    <path fill-rule="nonzero" fill="#bdc1c4" d="m-185.62-359.44-16.993-12.16-26.527,12.123,16.498-19.363-16.492-11.759,26.521,0,16.993-19.914,0,19.914,24.39,0-24.39,11.208,0,19.952z"/>
  </g>
</svg>
