<?xml version="1.0" encoding="UTF-8" standalone="no"?>
<!-- Created with Inkscape (http://www.inkscape.org/) -->

<svg
   xmlns:dc="http://purl.org/dc/elements/1.1/"
   xmlns:cc="http://creativecommons.org/ns#"
   xmlns:rdf="http://www.w3.org/1999/02/22-rdf-syntax-ns#"
   xmlns:svg="http://www.w3.org/2000/svg"
   xmlns="http://www.w3.org/2000/svg"
   xmlns:inkscape="http://www.inkscape.org/namespaces/inkscape"
   version="1.1"
   width="364.2749"
   height="179.381"
   id="svg14315">
  <defs
     id="defs14317">
    <clipPath
       id="clipPath5595">
      <path
         d="m 67.936,554.715 -23.193,0 0,-11.422 23.193,0 0,11.422 z"
         inkscape:connector-curvature="0"
         id="path5597" />
    </clipPath>
    <linearGradient
       x1="0"
       y1="0"
       x2="1"
       y2="0"
       id="linearGradient5619"
       gradientUnits="userSpaceOnUse"
       gradientTransform="matrix(-3.5477,-7.2464,-7.2464,3.5477,50.983,552.711)"
       spreadMethod="pad">
      <stop
         id="stop5621"
         style="stop-color:#2e4988;stop-opacity:1"
         offset="0" />
      <stop
         id="stop5623"
         style="stop-color:#0a0d0f;stop-opacity:1"
         offset="1" />
    </linearGradient>
  </defs>
  <metadata
     id="metadata14320">
    <rdf:RDF>
      <cc:Work
         rdf:about="">
        <dc:format>image/svg+xml</dc:format>
        <dc:type
           rdf:resource="http://purl.org/dc/dcmitype/StillImage" />
        <dc:title />
      </cc:Work>
    </rdf:RDF>
  </metadata>
  <g
     transform="translate(-325.50437,-622.97642)"
     id="layer1">
    <g
       transform="matrix(15.706243,0,0,-15.706243,-377.24006,9335.4493)"
       id="g5591">
      <g
         clip-path="url(#clipPath5595)"
         id="g5593">
        <g
           transform="translate(66.87,549.918)"
           id="g5599">
          <path
             d="M 0,0 C 0.29,0 0.377,-0.092 0.359,-0.258 0.355,-0.295 0.346,-0.336 0.332,-0.382 L 0.02,-1.486 C -0.047,-1.73 -0.127,-1.868 -0.491,-1.868 l -0.469,0 0.482,1.692 L -0.724,0 0,0 z m 0.234,0.598 -1.168,0 -0.872,-3.065 1.251,0 c 0.88,0 1.087,0.387 1.199,0.792 l 0.384,1.353 c 0.016,0.055 0.027,0.115 0.033,0.17 0.041,0.387 -0.164,0.75 -0.827,0.75"
             inkscape:connector-curvature="0"
             id="path5601"
             style="fill:#b3b5b7;fill-opacity:1;fill-rule:nonzero;stroke:none" />
        </g>
      </g>
    </g>
    <g
       transform="matrix(15.706243,0,0,-15.706243,-377.24006,9335.4493)"
       id="g5603">
      <g
         transform="translate(64.35,548.694)"
         id="g5605">
        <path
           d="m 0,0 -0.349,-1.243 0.676,0 0.867,3.066 -0.676,0 -0.348,-1.229 -0.981,0 0.348,1.229 -0.676,0 -0.867,-3.066 0.676,0 0.297,1.054 L -1.298,0 0,0"
           inkscape:connector-curvature="0"
           id="path5607"
           style="fill:#b3b5b7;fill-opacity:1;fill-rule:nonzero;stroke:none" />
      </g>
    </g>
    <g
       transform="matrix(15.706243,0,0,-15.706243,-377.24006,9335.4493)"
       id="g5609">
      <g
         id="g5611">
        <g
           id="g5617">
          <path
             d="m 45.614,550.516 7.95,0 -0.861,-3.065 -7.96,0 0.871,3.065"
             inkscape:connector-curvature="0"
             id="path5625"
             style="fill:url(#linearGradient5619);stroke:none" />
        </g>
      </g>
    </g>
    <g
       transform="matrix(15.706243,0,0,-15.706243,-377.24006,9335.4493)"
       id="g5627">
      <g
         transform="translate(53.564,550.516)"
         id="g5629">
        <path
           d="m 0,0 9.266,0 -0.871,-3.065 -9.256,0 L 0,0"
           inkscape:connector-curvature="0"
           id="path5631"
           style="fill:#ffffff;fill-opacity:1;fill-rule:nonzero;stroke:none" />
        <g
           transform="translate(-7.544,-0.545)"
           id="g5633">
          <path
             d="m 0,0 1.24,0 -0.109,-0.385 -0.805,0 -0.106,-0.375 0.743,0 -0.109,-0.382 -0.743,0 -0.127,-0.444 0.805,0 -0.107,-0.385 -1.24,0 L 0,0"
             inkscape:connector-curvature="0"
             id="path5635"
             style="fill:#ffffff;fill-opacity:1;fill-rule:nonzero;stroke:none" />
          <g
             transform="translate(1.195,-1.5)"
             id="g5637">
            <path
               d="M 0,0 C 0.004,0.032 0.01,0.068 0.02,0.101 L 0.416,1.5 0.85,1.5 0.47,0.16 C 0.46,0.127 0.454,0.098 0.451,0.068 0.439,-0.05 0.494,-0.116 0.701,-0.116 c 0.237,0 0.333,0.095 0.38,0.258 L 1.466,1.5 1.901,1.5 1.505,0.101 C 1.41,-0.231 1.216,-0.5 0.615,-0.5 0.139,-0.5 -0.028,-0.26 0,0"
               inkscape:connector-curvature="0"
               id="path5639"
               style="fill:#ffffff;fill-opacity:1;fill-rule:nonzero;stroke:none" />
            <g
               transform="translate(3.155,0.891)"
               id="g5641">
              <path
                 d="M 0,0 C 0.009,0.033 0.016,0.068 0.018,0.083 0.029,0.184 -0.029,0.225 -0.18,0.225 l -0.361,0 -0.167,-0.595 0.372,0 c 0.193,0 0.251,0.071 0.2930001,0.222 L 0,0 z m -0.518,-0.746 -0.299,0 -0.172,-0.615 -0.435,0 0.557,1.971 0.755,0 C 0.311,0.61 0.501,0.45 0.47,0.16 0.466,0.121 0.456,0.083 0.445,0.039 L 0.378,-0.198 C 0.31,-0.444 0.205,-0.601 -0.05,-0.686 l 0.3,-0.675 -0.488,0 -0.28,0.615"
                 inkscape:connector-curvature="0"
                 id="path5643"
                 style="fill:#ffffff;fill-opacity:1;fill-rule:nonzero;stroke:none" />
              <g
                 transform="translate(1.915,0.059)"
                 id="g5645">
                <path
                   d="m 0,0 c 0.013,0.121 -0.059,0.195 -0.269,0.195 -0.225,0 -0.354,-0.097 -0.4,-0.254 l -0.214,-0.752 c -0.005,-0.023 -0.011,-0.047 -0.013,-0.068 -0.013,-0.118 0.057,-0.186 0.27,-0.186 0.225,0 0.352,0.086 0.4,0.254 l 0.214,0.752 C -0.007,-0.038 -0.002,-0.018 0,0 z m -1.342,-0.926 c 0.003,0.029 0.01,0.062 0.019,0.092 l 0.229,0.813 C -0.99,0.346 -0.74,0.58 -0.183,0.58 0.284,0.58 0.475,0.314 0.446,0.044 0.443,0.018 0.436,-0.015 0.427,-0.044 L 0.199,-0.849 C 0.094,-1.225 -0.153,-1.45 -0.736,-1.45 c -0.464,0 -0.635,0.257 -0.606,0.524"
                   inkscape:connector-curvature="0"
                   id="path5647"
                   style="fill:#ffffff;fill-opacity:1;fill-rule:nonzero;stroke:none" />
                <g
                   transform="translate(1.044,-1.32)"
                   id="g5649">
                  <path
                     d="M 0,0 0.13,0.334 C 0.314,0.278 0.466,0.237 0.656,0.237 c 0.23,0 0.288,0.044 0.336,0.216 C 1.006,0.494 1.013,0.53 1.015,0.556 1.025,0.645 0.968,0.669 0.735,0.731 0.416,0.814 0.307,0.929 0.332,1.16 0.338,1.222 0.355,1.293 0.378,1.373 0.511,1.811 0.639,1.9 1.174,1.9 1.325,1.9 1.57,1.867 1.74,1.823 L 1.624,1.459 C 1.454,1.5 1.232,1.527 1.099,1.527 0.886,1.527 0.841,1.497 0.798,1.34 0.787,1.296 0.777,1.26 0.774,1.234 0.764,1.139 0.822,1.124 1.046,1.065 1.403,0.974 1.492,0.861 1.47,0.66 1.464,0.598 1.447,0.53 1.424,0.45 1.31,0.044 1.149,-0.13 0.59,-0.13 0.427,-0.13 0.146,-0.074 0,0"
                     inkscape:connector-curvature="0"
                     id="path5651"
                     style="fill:#aa0c31;fill-opacity:1;fill-rule:nonzero;stroke:none" />
                  <g
                     transform="translate(3.013,1.252)"
                     id="g5653">
                    <path
                       d="M 0,0 C 0.01,0.036 0.016,0.065 0.018,0.0859999 0.029,0.186 -0.025,0.234 -0.158,0.234 l -0.367,0 -0.172,-0.61 0.358,0 c 0.201,0 0.2530001,0.071 0.295,0.219 L 0,0 z m -0.805,-0.752 -0.172,-0.6 -0.435,0 0.558,1.97 0.752,0 c 0.423,0 0.61,-0.162 0.579,-0.443 C 0.473,0.133 0.457,0.0709999 0.443,0.024 L 0.381,-0.198 C 0.277,-0.565 0.106,-0.752 -0.415,-0.752 l -0.39,0"
                       inkscape:connector-curvature="0"
                       id="path5655"
                       style="fill:#aa0c31;fill-opacity:1;fill-rule:nonzero;stroke:none" />
                    <g
                       transform="translate(1.83,0.068)"
                       id="g5657">
                      <path
                         d="m 0,0 c 0.013,0.121 -0.059,0.195 -0.269,0.195 -0.225,0 -0.354,-0.097 -0.4,-0.254 l -0.214,-0.752 c -0.006,-0.023 -0.011,-0.047 -0.013,-0.068 -0.013,-0.118 0.057,-0.186 0.27,-0.186 0.225,0 0.352,0.086 0.4,0.254 l 0.214,0.752 C -0.007,-0.038 -0.002,-0.018 0,0 z m -1.342,-0.926 c 0.003,0.029 0.009,0.062 0.018,0.092 l 0.23,0.813 C -0.99,0.346 -0.74,0.58 -0.183,0.58 0.284,0.58 0.475,0.314 0.446,0.044 0.443,0.018 0.436,-0.015 0.427,-0.044 L 0.199,-0.849 C 0.093,-1.225 -0.153,-1.45 -0.736,-1.45 c -0.464,0 -0.635,0.257 -0.606,0.524"
                         inkscape:connector-curvature="0"
                         id="path5659"
                         style="fill:#aa0c31;fill-opacity:1;fill-rule:nonzero;stroke:none" />
                      <g
                         transform="translate(1.802,-0.059)"
                         id="g5661">
                        <path
                           d="M 0,0 C 0.01,0.033 0.016,0.068 0.018,0.083 0.029,0.184 -0.029,0.225 -0.18,0.225 l -0.361,0 -0.167,-0.595 0.372,0 c 0.193,0 0.251,0.071 0.294,0.222 L 0,0 z m -0.518,-0.746 -0.299,0 -0.172,-0.615 -0.435,0 0.557,1.971 0.755,0 C 0.311,0.61 0.501,0.45 0.47,0.16 0.466,0.121 0.456,0.083 0.445,0.039 L 0.378,-0.198 C 0.311,-0.444 0.205,-0.601 -0.05,-0.686 l 0.301,-0.675 -0.489,0 -0.28,0.615"
                           inkscape:connector-curvature="0"
                           id="path5663"
                           style="fill:#aa0c31;fill-opacity:1;fill-rule:nonzero;stroke:none" />
                        <g
                           transform="translate(1.179,-1.362)"
                           id="g5665">
                          <path
                             d="m 0,0 -0.438,0 0.448,1.586 -0.532,0 0.109,0.385 1.503,0 -0.109,-0.385 -0.533,0 L 0,0"
                             inkscape:connector-curvature="0"
                             id="path5667"
                             style="fill:#aa0c31;fill-opacity:1;fill-rule:nonzero;stroke:none" />
                          <g
                             transform="translate(-10.307,3.109)"
                             id="g5669">
                            <path
                               d="m 0,0 -0.512,0.366 -0.8,-0.365 0.497,0.584 -0.497,0.354 0.8,0 0.512,0.6 0,-0.6 0.735,0 L 0,0.601 0,0"
                               inkscape:connector-curvature="0"
                               id="path5671"
                               style="fill:#b3b5b7;fill-opacity:1;fill-rule:nonzero;stroke:none" />
                            <g
                               transform="translate(2.378,1.413)"
                               id="g5673">
                              <path
                                 d="m 0,0 -0.512,0.367 -0.8,-0.366 0.497,0.584 -0.497,0.354 0.8,0 L 0,1.54 0,0.939 0.735,0.939 0,0.601 0,0"
                                 inkscape:connector-curvature="0"
                                 id="path5675"
                                 style="fill:#b3b5b7;fill-opacity:1;fill-rule:nonzero;stroke:none" />
                              <g
                                 transform="translate(2.642,0.653)"
                                 id="g5677">
                                <path
                                   d="m 0,0 -0.512,0.366 -0.8,-0.365 0.497,0.584 -0.497,0.354 0.8,0 0.512,0.6 0,-0.6 0.735,0 L 0,0.601 0,0"
                                   inkscape:connector-curvature="0"
                                   id="path5679"
                                   style="fill:#b3b5b7;fill-opacity:1;fill-rule:nonzero;stroke:none" />
                                <g
                                   transform="translate(2.414,-0.654)"
                                   id="g5681">
                                <path
                                   d="m 0,0 -0.512,0.367 -0.8,-0.366 0.498,0.584 -0.498,0.354 0.8,0 L 0,1.54 0,0.939 0.735,0.939 0,0.601 0,0"
                                   inkscape:connector-curvature="0"
                                   id="path5683"
                                   style="fill:#b3b5b7;fill-opacity:1;fill-rule:nonzero;stroke:none" />
                                <g
                                   transform="translate(1.655,-1.412)"
                                   id="g5685">
                                <path
                                   d="m 0,0 -0.512,0.367 -0.8,-0.366 0.498,0.584 -0.498,0.354 0.8,0 L 0,1.54 0,0.939 0.735,0.939 0,0.601 0,0"
                                   inkscape:connector-curvature="0"
                                   id="path5687"
                                   style="fill:#b3b5b7;fill-opacity:1;fill-rule:nonzero;stroke:none" />
                                <g
                                   transform="translate(-2.168,-5.75)"
                                   id="g5689">
                                <path
                                   d="m 0,0 -0.512,0.367 -0.8,-0.366 0.498,0.584 -0.498,0.354 0.8,0 L 0,1.54 0,0.939 0.735,0.939 0,0.601 0,0"
                                   inkscape:connector-curvature="0"
                                   id="path5691"
                                   style="fill:#b3b5b7;fill-opacity:1;fill-rule:nonzero;stroke:none" />
                                <g
                                   transform="translate(-5.055,-2.066)"
                                   id="g5693">
                                <path
                                   d="m 0,0 -0.512,0.367 -0.8,-0.366 0.497,0.584 -0.497,0.354 0.8,0 0.512,0.6 0,-0.6 0.735,0 L 0,0.601 0,0"
                                   inkscape:connector-curvature="0"
                                   id="path5695"
                                   style="fill:#b3b5b7;fill-opacity:1;fill-rule:nonzero;stroke:none" />
                                <g
                                   transform="translate(-4.065,2.064)"
                                   id="g5697">
                                <path
                                   d="m 0,0 -0.512,0.367 -0.8,-0.366 0.497,0.584 -0.497,0.354 0.8,0 L 0,1.54 0,0.939 0.735,0.939 0,0.602 0,0"
                                   inkscape:connector-curvature="0"
                                   id="path5699"
                                   style="fill:#b3b5b7;fill-opacity:1;fill-rule:nonzero;stroke:none" />
                                <g
                                   transform="translate(6.71,-1.516)"
                                   id="g5701">
                                <path
                                   d="m 0,0 -0.512,0.367 -0.8,-0.366 0.497,0.584 -0.497,0.354 0.8,0 L 0,1.54 0,0.939 0.735,0.939 0,0.602 0,0"
                                   inkscape:connector-curvature="0"
                                   id="path5703"
                                   style="fill:#b3b5b7;fill-opacity:1;fill-rule:nonzero;stroke:none" />
                                <g
                                   transform="translate(-5.083,0)"
                                   id="g5705">
                                <path
                                   d="m 0,0 -0.512,0.367 -0.8,-0.366 0.497,0.584 -0.497,0.354 0.8,0 L 0,1.54 0,0.939 0.735,0.939 0,0.602 0,0"
                                   inkscape:connector-curvature="0"
                                   id="path5707"
                                   style="fill:#b3b5b7;fill-opacity:1;fill-rule:nonzero;stroke:none" />
                                </g>
                                </g>
                                </g>
                                </g>
                                </g>
                                </g>
                                </g>
                              </g>
                            </g>
                          </g>
                        </g>
                      </g>
                    </g>
                  </g>
                </g>
              </g>
            </g>
          </g>
        </g>
      </g>
    </g>
  </g>
</svg>
