<?xml version="1.0" encoding="UTF-8" standalone="no"?>
<svg xmlns:rdf="http://www.w3.org/1999/02/22-rdf-syntax-ns#" xmlns="http://www.w3.org/2000/svg" height="596.17" width="600" version="1.1" xmlns:cc="http://creativecommons.org/ns#" xmlns:dc="http://purl.org/dc/elements/1.1/" viewBox="0 0 158.75 157.73641">
 <g transform="translate(337.03 149.45)">
  <path d="m-336.99 8.2851h158.6v-157.74h-158.6z" fill="#fff"/>
  <g fill="#d9172a">
   <path d="m-201.3-21.726h23.02v-127.7h-23.02z"/>
   <path d="m-307.5-21.726h98.52v-127.7h-98.52z"/>
   <path d="m-201.3 8.2757h23.02v-22.511h-23.02z"/>
   <path d="m-337.03-149.44v157.72h127.98v-22.509h-106.22v-0.332h-0.05v-134.88z"/>
  </g>
  <g fill="#fff">
   <path d="m-302.26-64.14v37.379h6.81v-15.646h12.7v-6.58h-12.7v-8.572h12.87v-6.581z"/>
   <path d="m-278.92-26.761h6.95v-37.379h-6.95z"/>
   <path d="m-268.29-64.14v37.379h19.36v-6.42h-12.47v-30.959z"/>
   <path d="m-245.59-64.171v37.436h6.78v-30.799h5.45v30.799h6.78v-30.799h5.47v30.799h6.78v-37.436z"/>
  </g>
 </g>
</svg>
