<?xml version="1.0" encoding="UTF-8" standalone="no"?>
<svg xmlns:rdf="http://www.w3.org/1999/02/22-rdf-syntax-ns#" xmlns="http://www.w3.org/2000/svg" height="457.01" width="600" version="1.1" xmlns:cc="http://creativecommons.org/ns#" xmlns:dc="http://purl.org/dc/elements/1.1/" viewBox="0 0 158.75 120.91664">
 <g transform="translate(318.5 131.04)">
  <path d="m-318.47-10.125h121.58v-120.92h-121.58z" fill="#fff"/>
  <g fill="#d9172a">
   <path d="m-214.46-33.13h17.65v-97.9h-17.65z"/>
   <path d="m-295.87-33.13h75.53v-97.9h-75.53z"/>
   <path d="m-214.46-10.132h17.65v-17.256h-17.65z"/>
   <path d="m-318.5-131.03v120.9h98.1v-17.254h-81.42v-0.254h-0.04v-103.39z"/>
  </g>
  <g fill="#fff">
   <path d="m-291.85-65.644v28.654h5.22v-11.994h9.74v-5.044h-9.74v-6.571h9.87v-5.045z"/>
   <path d="m-273.95-36.99h5.32v-28.654h-5.32z"/>
   <path d="m-265.8-65.644v28.654h14.83v-4.921h-9.56v-23.733z"/>
   <path d="m-248.4-65.668v28.697h5.19v-23.609h4.18v23.609h5.2v-23.609h4.19v23.609h5.19v-28.697z"/>
  </g>
  <g>
   <path d="m-191.02-100.45h31.27v-30.58h-31.27z" fill="#d9172a"/>
   <path d="m-191.02-64.786h31.27v-30.573h-31.27z" fill="#d9172a"/>
   <path d="m-178.04-126.27v8.06h-8.36v5.04h8.26v8.2h5.24v-8.2h8.31v-5.04h-8.35v-8.06z" fill="#fff"/>
  </g>
  <path d="m-172.94-126.27v8.07h8.35v5.03h-8.3v8.19h-5.24v-8.19h-8.27v-5.03h8.36v-8.07z" stroke="#d9172a" stroke-width=".021806" fill="none"/>
  <path d="m-172.4-90.399v-0.014h-7.71v5.153h2.56v16.05h5.16v-21.189z" fill="#fff"/>
  <path d="m-172.4-90.399v-0.014h-7.71v5.153h2.56v16.05h5.16v-21.189z" stroke="#d9172a" stroke-width=".021806" fill="none"/>
 </g>
</svg>
