<?xml version="1.0" encoding="UTF-8" standalone="no"?>
<!-- Created with Inkscape (http://www.inkscape.org/) -->

<svg
   xmlns:dc="http://purl.org/dc/elements/1.1/"
   xmlns:cc="http://creativecommons.org/ns#"
   xmlns:rdf="http://www.w3.org/1999/02/22-rdf-syntax-ns#"
   xmlns:svg="http://www.w3.org/2000/svg"
   xmlns="http://www.w3.org/2000/svg"
   version="1.0"
   width="455"
   height="201.91136"
   id="svg2">
  <metadata
     id="metadata39">
    <rdf:RDF>
      <cc:Work
         rdf:about="">
        <dc:format>image/svg+xml</dc:format>
        <dc:type
           rdf:resource="http://purl.org/dc/dcmitype/StillImage" />
        <dc:title></dc:title>
      </cc:Work>
    </rdf:RDF>
  </metadata>
  <defs
     id="defs37" />
  <g
     transform="translate(-16.408925,-795.41368)"
     id="layer1">
    <path
       d="m 471.40893,997.32504 0,-201.91136 -455.000005,0 0,201.91136 455.000005,0 z"
       id="path31596"
       style="fill:#00355f;fill-rule:nonzero;stroke:none" />
    <path
       d="m 462.17589,988.51911 0,-184.3055 -436.52209,0 0,184.3055 436.52209,0 z"
       id="path31598"
       style="fill:#ffffff;fill-rule:nonzero;stroke:none" />
    <path
       d="m 443.27384,888.39893 -76.54443,0 0,-70.23343 76.54443,0 0,14.56788 -60.40008,0 0,13.11789 55.77764,0 0,14.06289 -55.77764,0 0,13.92389 60.40008,0 0,14.56088"
       id="path31600"
       style="fill:#00355f;fill-rule:nonzero;stroke:none" />
    <path
       d="m 444.08379,973.66223 -52.08234,0 c -10.31296,0 -18.12771,-3.76597 -23.23081,-12.3839 -3.4267,-5.75495 -3.88365,-11.02191 -3.88365,-22.73281 0,-13.14889 1.09037,-18.37085 4.12991,-23.12881 4.845,-7.45994 12.13165,-11.9879 22.79619,-11.9879 l 49.80669,0 0,14.56688 -49.34836,0 c -9.85599,0 -11.24007,9.78292 -11.24007,20.11983 0,12.9259 2.27564,21.22683 12.06048,21.22683 l 35.23477,0 0,-13.15789 -34.06136,0 0,-13.86489 49.81855,0 0,41.34266"
       id="path31602"
       style="fill:#00355f;fill-rule:nonzero;stroke:none" />
    <path
       d="m 354.94935,888.39893 -26.70494,0 -44.58501,-55.70955 -1.24315,0 0.0119,55.70955 -16.15624,0 0,-70.23343 25.88318,0 45.34748,55.85454 1.30246,0 0,-55.85454 16.14436,0 0,70.23343"
       id="path31604"
       style="fill:#00355f;fill-rule:nonzero;stroke:none" />
    <path
       d="m 254.03489,888.39893 0,-70.23143 -16.14672,0 0,70.23143 16.14672,0 z"
       id="path31606"
       style="fill:#00355f;fill-rule:nonzero;stroke:none" />
    <path
       d="m 354.94935,973.72523 -26.70494,0 -44.09108,-55.71354 -1.73708,0 0.0119,55.71354 -16.15624,0 0,-70.31542 25.88318,0 44.85498,55.93254 1.79496,0 0,-55.93254 16.14436,0 0,70.31542"
       id="path31608"
       style="fill:#00355f;fill-rule:nonzero;stroke:none" />
    <path
       d="m 227.43669,832.67438 -60.38963,0 0,13.61289 55.77765,0 0,13.91789 -55.77765,0 0,28.19377 -16.14436,0 0,-70.23343 76.53399,0 0,14.50888"
       id="path31610"
       style="fill:#00355f;fill-rule:nonzero;stroke:none" />
    <path
       d="m 254.03489,973.50424 0,-70.09643 -16.14672,0 0,70.09643 16.14672,0 z"
       id="path31612"
       style="fill:#00355f;fill-rule:nonzero;stroke:none" />
    <path
       d="m 230.90945,903.40981 -28.75806,70.31542 -24.20398,0 -29.17942,-70.31542 16.98847,0 16.97801,40.69366 6.22908,15.50188 1.74894,0 6.23046,-15.50188 16.97661,-40.69366 16.98989,0"
       id="path31614"
       style="fill:#00355f;fill-rule:nonzero;stroke:none" />
    <path
       d="m 141.72759,973.50424 0,-70.09643 -16.15622,0 0,70.09643 16.15622,0 z"
       id="path31616"
       style="fill:#00355f;fill-rule:nonzero;stroke:none" />
    <path
       d="m 116.21976,959.08135 0,14.42289 -71.100228,0 0,-70.09443 16.144358,0 0,55.67154 54.95587,0"
       id="path31618"
       style="fill:#00355f;fill-rule:nonzero;stroke:none" />
  </g>
</svg>
