<?xml version="1.0" encoding="UTF-8" standalone="no"?>
<!-- Created with Inkscape (http://www.inkscape.org/) -->

<svg
   xmlns:dc="http://purl.org/dc/elements/1.1/"
   xmlns:cc="http://creativecommons.org/ns#"
   xmlns:rdf="http://www.w3.org/1999/02/22-rdf-syntax-ns#"
   xmlns:svg="http://www.w3.org/2000/svg"
   xmlns="http://www.w3.org/2000/svg"
   version="1.1"
   width="600"
   height="600"
   viewBox="0 0 480 480"
   id="svg3015">
  <metadata
     id="metadata3043">
    <rdf:RDF>
      <cc:Work
         rdf:about="">
        <dc:format>image/svg+xml</dc:format>
        <dc:type
           rdf:resource="http://purl.org/dc/dcmitype/StillImage" />
        <dc:title></dc:title>
      </cc:Work>
    </rdf:RDF>
  </metadata>
  <defs
     id="defs3041" />
  <g
     transform="scale(1.6,1.6)"
     id="g3068">
    <path
       d="M 0,0 0,375 375,375 375,0 0,0 z m 8.1875,7.5 c 119.75,0.1125 239.53125,-0.0125 359.28125,0.0625 0.1,119.7125 -0.0125,239.4625 0.0625,359.1875 -1.25,0.125 -2.5,0.2 -3.75,0.25 -118.5375,0.05 -237.0875,-0.025 -355.625,0.0625 C 8.20625,247.2125 8.1375,127.3375 8.1875,7.5 z"
       transform="scale(0.8,0.8)"
       id="path3017" />
    <path
       d="m 215.82,40.43 c 2.32,-0.03 4.65,-0.03 6.98,-0.04 2.6,5.17 4.19,10.79 6.84,15.94 1.87,-5.44 3.96,-10.85 6.48,-16.02 2.28,0.11 4.56,0.12 6.85,0.15 -3.97,9.31 -7.92,18.62 -12.13,27.82 -0.73,0 -2.19,0.01 -2.92,0.01 -4.08,-9.26 -8.14,-18.54 -12.1,-27.86 z"
       id="path3021"
       style="fill:#000000" />
    <path
       d="m 193.37,46.88 c -0.02,-2.13 -0.03,-4.25 -0.03,-6.38 6.81,0.03 13.63,0 20.45,0.02 -0.02,2.09 -0.03,4.18 -0.04,6.27 -2.25,0 -4.5,-0.01 -6.75,-0.05 0,7.09 0,14.17 0,21.26 -2.34,0 -4.67,0 -7,0 0,-7.06 -0.01,-14.13 0.01,-21.19 -2.22,0.03 -4.43,0.05 -6.64,0.07 z"
       id="path3023"
       style="fill:#000000" />
    <path
       d="m 122.77,72.2 c 18.12,0.09 36.25,0.1 54.37,-0.01 -0.01,9.16 0,18.32 0,27.48 -9.05,-0.13 -18.09,0.02 -27.14,-0.08 0,9.13 0,18.27 0,27.41 9.04,0 18.09,0 27.13,0 -0.06,9.15 -0.02,18.31 -0.02,27.46 -9.04,-0.14 -18.08,0.07 -27.11,-0.12 0,9.19 -0.01,18.37 0,27.55 -9.07,-0.07 -18.15,-0.09 -27.23,0.02 0,-36.57 -0.01,-73.14 0,-109.71 z"
       id="path3025"
       style="fill:#000000" />
    <path
       d="m 126.75,268.6875 c -2.50059,-0.0211 -4.99062,0.2125 -7.40625,0.71875 -14.55,2.2625 -24.39375,17.56875 -22.40625,31.78125 1,8.225 5.7,16.14375 12.9375,20.34375 10.4125,6.225 24.4125,6.14375 34.4375,-0.84375 7.5375,-5.1 11.6125,-14.2 11.9375,-23.125 -0.225,-7.7875 -3.23125,-15.69375 -9.03125,-21.03125 C 141.8,271.24375 134.25176,268.75078 126.75,268.6875 z m -0.46875,13.59375 c 5.24896,0.0321 10.49531,2.47422 13.15625,7.15625 4.825,7.45 1.425,18.73125 -7,21.90625 -9.35,4.5875 -21.85,-3.39375 -21.25,-13.84375 -0.4375,-6.8875 4.9375,-13.26875 11.5,-14.84375 1.18125,-0.25078 2.38245,-0.3824 3.59375,-0.375 z"
       transform="scale(0.8,0.8)"
       id="path3027"
       style="fill:#000000" />
    <path
       d="m 232.97,215.98 c 6.19,-1.93 12.63,0.11 18.37,2.53 -1.23,3.02 -2.78,5.89 -4.3,8.76 -3.54,-2.55 -8.47,-3.79 -12.17,-0.8 0,1.58 -0.34,3.56 1.47,4.33 5.07,2.89 12.28,2.83 15.48,8.44 2.94,6.45 1.08,15.61 -5.67,18.94 -7.78,3.86 -17.73,2.52 -24.64,-2.62 1.53,-2.98 3.1,-5.94 4.76,-8.85 3.14,2.39 6.72,4.97 10.91,4.3 2.38,0.05 3.93,-2.07 4.84,-4 -2.86,-6.96 -12.67,-4.37 -16.77,-10.13 -4.96,-7.09 -0.93,-18.9 7.72,-20.9 z"
       id="path3029"
       style="fill:#000000" />
    <path
       d="m 48,216.33 c 8.19,0.08 16.38,0.03 24.57,0.02 0.01,3.08 0,6.16 0.02,9.24 -4.49,-0.02 -8.97,-0.03 -13.46,0 0.03,2.47 0.03,4.94 -0.01,7.41 4.09,0 8.17,0 12.26,0 0,3.08 -0.01,6.15 0,9.22 -4.12,0.05 -8.24,0.01 -12.36,0.05 0.02,5.62 -0.02,11.25 0.04,16.88 -3.69,-0.06 -7.37,-0.06 -11.06,-0.01 0,-14.27 0,-28.54 0,-42.81 z"
       id="path3031"
       style="fill:#000000" />
    <path
       d="m 132,216.3 c 3.66,0.1 7.33,0.1 11,0.01 0,5.92 0,11.83 0,17.75 4.17,-5.22 8.16,-10.59 12.24,-15.87 0.78,-0.76 1.44,-2.15 2.75,-1.92 4.12,-0.04 8.25,0.06 12.38,-0.06 -5.32,6.83 -11.09,13.31 -16.58,20 -0.05,1.36 1.2,2.22 1.9,3.24 5.46,6.56 10.84,13.18 16.29,19.74 -4.89,-0.08 -9.78,0.13 -14.67,-0.12 -4.66,-6.21 -9.45,-12.34 -14.28,-18.43 -0.07,6.16 -0.03,12.32 -0.01,18.48 -3.67,-0.06 -7.35,-0.06 -11.02,0.01 0,-14.28 0,-28.55 0,-42.83 z"
       id="path3033"
       style="fill:#000000" />
    <path
       d="m 177,216.33 c 3.66,0.06 7.33,0.07 11,-0.02 0.06,8.59 -0.05,17.18 0.05,25.77 -0.03,3.36 1.43,7.42 5.17,8.09 4.14,1.71 9.7,-1.31 9.76,-5.98 0.26,-9.27 0.14,-18.54 0.18,-27.81 3.74,-0.02 7.49,0 11.23,-0.05 -0.07,9.59 0.32,19.21 -0.28,28.79 -0.27,7.32 -6.48,13.32 -13.44,14.74 -6.41,1.05 -13.73,0.64 -18.83,-3.84 -3.64,-3.23 -4.9,-8.3 -4.85,-13 0.01,-8.9 0.01,-17.79 0.01,-26.69 z"
       id="path3035"
       style="fill:#000000" />
  </g>
</svg>
