<?xml version="1.0" encoding="UTF-8" standalone="no"?>
<!-- Created with Inkscape (http://www.inkscape.org/) -->

<svg
   xmlns:dc="http://purl.org/dc/elements/1.1/"
   xmlns:cc="http://creativecommons.org/ns#"
   xmlns:rdf="http://www.w3.org/1999/02/22-rdf-syntax-ns#"
   xmlns:svg="http://www.w3.org/2000/svg"
   xmlns="http://www.w3.org/2000/svg"
   version="1.1"
   width="600"
   height="238.67912"
   id="svg127014">
  <defs
     id="defs127016">
    <clipPath
       id="clipPath108443">
      <path
         d="m 423.607,375.116 20.123,0 0,8.005 -20.123,0 0,-8.005 z"
         id="path108445" />
    </clipPath>
  </defs>
  <metadata
     id="metadata127019">
    <rdf:RDF>
      <cc:Work
         rdf:about="">
        <dc:format>image/svg+xml</dc:format>
        <dc:type
           rdf:resource="http://purl.org/dc/dcmitype/StillImage" />
        <dc:title></dc:title>
      </cc:Work>
    </rdf:RDF>
  </metadata>
  <g
     transform="translate(-50.000337,-413.02265)"
     id="layer1">
    <g
       transform="matrix(29.816628,0,0,-29.816628,-12580.532,11836.396)"
       id="g108439">
      <g
         clip-path="url(#clipPath108443)"
         id="g108441">
        <path
           d="m 443.73,381.376 -20.123,0 0,-5.366 20.123,0 0,5.366 z"
           id="path108447"
           style="fill:#443a3d;fill-opacity:1;fill-rule:nonzero;stroke:none" />
        <g
           transform="translate(425.3949,375.1158)"
           id="g108449">
          <path
             d="m 0,0 6.786,0.894 -6.896,0 L 0,0 z"
             id="path108451"
             style="fill:#40b93c;fill-opacity:1;fill-rule:nonzero;stroke:none" />
        </g>
        <g
           transform="translate(434.7655,383.1208)"
           id="g108453">
          <path
             d="m 0,0 -10.189,-1.344 0.05,-0.401 12.304,0 L 0,0 z"
             id="path108455"
             style="fill:#40b93c;fill-opacity:1;fill-rule:nonzero;stroke:none" />
        </g>
        <g
           transform="translate(437.8916,380.60181)"
           id="g108457">
          <path
             d="m 0,0 -0.961,0.774 -12.305,0 0.659,-5.366 6.896,0 6.175,0.814 L 0,0 z"
             id="path108459"
             style="fill:#297724;fill-opacity:1;fill-rule:nonzero;stroke:none" />
        </g>
        <g
           transform="translate(426.9377,379.6553)"
           id="g108461">
          <path
             d="m 0,0 0,-0.499 0.85,0 0,-0.658 -0.85,0 0,-1.177 -0.778,0 0,2.992 1.711,0 L 0.933,0 0,0 z"
             id="path108463"
             style="fill:#ffffff;fill-opacity:1;fill-rule:nonzero;stroke:none" />
        </g>
        <g
           transform="translate(429.9292,379.70309)"
           id="g108465">
          <path
             d="m 0,0 c -0.506,0 -0.889,-0.391 -0.889,-0.906 0,-0.498 0.355,-0.861 0.838,-0.861 0.498,0 0.869,0.379 0.869,0.893 C 0.818,-0.367 0.471,0 0,0 m -0.044,-2.485 c -0.945,0 -1.619,0.646 -1.619,1.56 0,0.941 0.714,1.643 1.679,1.643 0.938,0 1.576,-0.622 1.576,-1.536 0,-0.973 -0.682,-1.667 -1.636,-1.667"
             id="path108467"
             style="fill:#ffffff;fill-opacity:1;fill-rule:nonzero;stroke:none" />
        </g>
        <g
           transform="translate(433.5847,379.70309)"
           id="g108469">
          <path
             d="m 0,0 c -0.507,0 -0.89,-0.391 -0.89,-0.906 0,-0.498 0.355,-0.861 0.838,-0.861 0.499,0 0.87,0.379 0.87,0.893 C 0.818,-0.367 0.471,0 0,0 m -0.044,-2.485 c -0.945,0 -1.619,0.646 -1.619,1.56 0,0.941 0.714,1.643 1.679,1.643 0.937,0 1.575,-0.622 1.575,-1.536 0,-0.973 -0.681,-1.667 -1.635,-1.667"
             id="path108471"
             style="fill:#ffffff;fill-opacity:1;fill-rule:nonzero;stroke:none" />
        </g>
        <g
           transform="translate(436.77299,379.6553)"
           id="g108473">
          <path
             d="m 0,0 0,-2.334 -0.778,0 0,2.334 -0.63,0 0,0.658 2.054,0 L 0.646,0 0,0 z"
             id="path108475"
             style="fill:#ffffff;fill-opacity:1;fill-rule:nonzero;stroke:none" />
        </g>
        <g
           transform="translate(435.14549,380.0379)"
           id="g108477">
          <path
             d="M 0,0 2.746,0.564 -0.38,3.083 0,0 z"
             id="path108479"
             style="fill:#80cd3d;fill-opacity:1;fill-rule:nonzero;stroke:none" />
        </g>
        <g
           transform="translate(441.5235,378.53841)"
           id="g108481">
          <path
             d="m 0,0 0,-1.077 c 0,-0.04 -0.008,-0.057 -0.04,-0.057 l -0.821,0 c -0.028,0 -0.044,0.021 -0.044,0.049 l 0,1.077 c 0,0.044 -0.016,0.06 -0.052,0.06 l -1.065,0 c -0.032,0 -0.048,0.02 -0.048,0.056 l 0,0.816 c 0,0.032 0.012,0.048 0.044,0.048 l 1.073,0 c 0.032,0 0.048,0.016 0.048,0.053 l 0,0.924 c 0,0.024 0.016,0.04 0.04,0.04 l 0.817,0 C -0.016,1.989 0,1.977 0,1.949 L 0,1.025 C 0,0.981 0.008,0.972 0.044,0.972 l 1.074,0 c 0.031,0 0.043,-0.016 0.043,-0.052 l 0,-0.82 C 1.161,0.072 1.145,0.052 1.118,0.052 l -1.062,0 C 0.012,0.052 0,0.044 0,0"
             id="path108483"
             style="fill:#ffffff;fill-opacity:1;fill-rule:nonzero;stroke:none" />
        </g>
      </g>
    </g>
  </g>
</svg>
