<?xml version="1.0" encoding="UTF-8" standalone="no"?>
<!-- Created with Inkscape (http://www.inkscape.org/) -->
<svg xmlns:rdf="http://www.w3.org/1999/02/22-rdf-syntax-ns#" xmlns="http://www.w3.org/2000/svg" height="259.89" width="600" version="1.1" xmlns:cc="http://creativecommons.org/ns#" xmlns:dc="http://purl.org/dc/elements/1.1/">
 <defs></defs>
 <metadata>
  <rdf:RDF>
   <cc:Work rdf:about="">
    <dc:format>image/svg+xml</dc:format>
    <dc:type rdf:resource="http://purl.org/dc/dcmitype/StillImage"/>
    <dc:title/>
   </cc:Work>
  </rdf:RDF>
 </metadata>
 <g transform="translate(31.132938,-305.50414)">
  <g fill-rule="nonzero" fill="#f89829" transform="matrix(1.6525321,0,0,1.6525321,-175.44438,-284.14513)">
   <path d="m184.68,398.78-53.63-0.024c0,7.3835,0,14.347-0.024,21.382l42.908,0.024c0,8.6561-0.024,32.812-0.024,41.876l-42.068-0.46822-0.06,52.213-44.457-0.036,0.10805-156.93,93.969,0.048,3.2776,41.912z"/>
   <path d="m361.17,357,18.897,32.872,18.729-32.956s31.755,0.24011,48.035,0.24011l-42.908,75.144,46.486,81.783-49.452-0.036-21.802-39.499-21.898,39.475-48.671-0.048,47.531-81.687-44.493-75.324,49.548,0.036z"/>
   <path d="m319.01,390.62c13.29,18.801,17.684,45.262,10.673,68.264-8.1759,27.529-36.053,50.964-65.179,52.537-28.562,2.2931-52.393-10.493-69.213-32.932-14.911-20.686-17.492-56.667-3.9859-78.866,12.654-24.984,38.31-39.571,65.035-41.024,24.948,1.0205,47.435,11.129,62.67,32.019m-48.215,10.685c0-5.4266-5.0064-9.7967-11.177-9.8207h-2.3291c-6.231,0-11.261,4.3941-11.261,9.8087l-0.048,67.412c0,5.3906,5.0304,9.8087,11.249,9.8327h2.2931c6.195,0,11.189-4.4181,11.201-9.8087l0.072-67.424z"/>
  </g>
 </g>
</svg>
