<?xml version="1.0" encoding="UTF-8" standalone="no"?>
<!-- Created with Inkscape (http://www.inkscape.org/) -->
<svg xmlns:rdf="http://www.w3.org/1999/02/22-rdf-syntax-ns#" xmlns="http://www.w3.org/2000/svg" height="152.88" width="600" version="1.1" xmlns:cc="http://creativecommons.org/ns#" xmlns:dc="http://purl.org/dc/elements/1.1/">
 <defs></defs>
 <metadata>
  <rdf:RDF>
   <cc:Work rdf:about="">
    <dc:format>image/svg+xml</dc:format>
    <dc:type rdf:resource="http://purl.org/dc/dcmitype/StillImage"/>
    <dc:title/>
   </cc:Work>
  </rdf:RDF>
 </metadata>
 <g transform="translate(-40.735275,-582.54307)">
  <g fill-rule="nonzero" transform="translate(1.077414e-5,2.08372e-5)">
   <path d="m264.73,628.56c2.8353-8.8419,9.3459-13.504,19.007-13.504,11.341,0,18.671,6.8467,20.183,18.839,0.16802,0.84007-0.16802,1.5121-1.0081,1.8482l-4.8305,0.9871c-1.0081,0.33604-1.8272-0.16801-2.0162-1.1551-1.3231-9.0099-5.4816-12.685-12.328-12.685-4.9985,0-9.1569,2.3312-11.173,8.1698-0.9871,3.6754-1.4912,5.6706-1.4912,25.182s0.50406,21.506,1.4912,25.182c2.0162,5.8386,6.1746,8.1698,11.173,8.1698,6.8467,0,11.005-3.6754,12.328-12.664,0.18901-1.0081,1.0081-1.5122,2.0162-1.1761l4.8305,1.0081c0.84009,0.31502,1.1761,0.98708,1.0081,1.8272-1.5122,12.013-8.8419,18.839-20.183,18.839-9.661,0-16.172-4.6625-19.007-13.504-1.5122-4.6625-1.8272-6.9937-1.8272-27.681,0-20.666,0.31504-23.018,1.8272-27.681" fill="#2f2a2b"/>
   <path d="m352.1,631.23c-1.8272-5.6706-6.0066-8.3379-11.845-8.3379-5.8386,0-9.997,2.6673-11.824,8.3379-1.1761,3.5073-1.3441,6.1746-1.3441,24.846,0,18.839,0.16802,21.506,1.3441,25.014,1.8272,5.6706,5.9856,8.3379,11.824,8.3379,5.8386,0,10.018-2.6673,11.845-8.3379,1.1761-3.5074,1.3442-6.1746,1.3442-25.014,0-18.671-0.16802-21.338-1.3442-24.846m7.8338,52.358c-2.8353,8.9889-9.997,13.672-19.679,13.672-9.661,0-16.823-4.6835-19.658-13.672-1.3441-4.4945-1.6802-7.6658-1.6802-27.513,0-19.679,0.33605-22.85,1.6802-27.345,2.8353-9.0099,9.997-13.672,19.658-13.672,9.682,0,16.844,4.6625,19.679,13.672,1.3441,4.4945,1.6802,7.6658,1.6802,27.345,0,19.847-0.33603,23.018-1.6802,27.513" fill="#2f2a2b"/>
   <path d="m450.8,695.93c-1.0081,0-1.6592-0.67206-1.6592-1.6802v-53.681c0-11.845-4.1794-17.684-13-17.684-7.6868,0-12.517,5.6706-12.685,17.18v54.186c0,1.0081-0.67207,1.6802-1.6592,1.6802h-4.8515c-0.98711,0-1.6592-0.67206-1.6592-1.6802v-53.681c0-11.509-3.8434-17.684-12.832-17.684-7.8338,0-12.853,5.6706-12.853,17.684v53.681c0,1.0081-0.65108,1.6802-1.6592,1.6802h-4.8305c-1.0081,0-1.6802-0.67206-1.6802-1.6802v-76.196c0-0.98711,0.67206-1.6592,1.6802-1.6592h4.8305c1.0081,0,1.6592,0.67207,1.6592,1.6592v6.5107h0.16802c2.1632-5.1665,6.8467-9.514,15.185-9.514,8.1698,0,13.672,3.5074,16.34,10.501h0.16801c2.6673-6.1536,8.5059-10.501,16.676-10.501,12.832,0,19.175,7.8338,19.175,24.173v55.026c0,1.0081-0.67207,1.6802-1.6592,1.6802h-4.8515z" fill="#2f2a2b"/>
   <path d="m510.32,649.57c0-13-0.67207-16.172-1.4912-18.503-1.8482-5.5026-5.8386-8.3378-11.341-8.3378-5.5026,0-9.514,2.8353-11.341,8.3378-0.8401,2.3312-1.5122,5.5026-1.5122,18.503,0,0.67207,0.33604,1.0081,1.0081,1.0081h23.669c0.67207,0,1.0081-0.33604,1.0081-1.0081m6.5107,8.3378-31.188,0c-0.67207,0-1.0081,0.33604-1.0081,1.0081,0,16.34,0.67207,19.511,1.5122,22.346,1.8272,5.5026,5.8386,8.1698,11.173,8.1698,6.8257,0,10.669-3.1713,12.832-11.005,0.33602-1.1761,1.0081-1.5122,2.0162-1.1761l4.4944,1.0081c0.8401,0.16802,1.3231,0.84009,1.0081,1.9952-2.3522,11.173-9.514,17.012-20.519,17.012-9.346,0-16.004-4.6835-18.839-13.504-1.1551-3.3393-1.8272-7.3297-1.8272-27.513s0.67207-24.173,1.8272-27.681c2.8353-8.8419,9.493-13.504,19.175-13.504,9.661,0,16.34,4.6625,19.175,13.504,1.1551,3.5074,1.8272,7.4978,1.8272,27.681,0,0.9871-0.67207,1.6592-1.6592,1.6592" fill="#2f2a2b"/>
   <path d="m568.68,681.09c1.1761-3.5074,1.6592-6.0066,1.6592-24.846s-0.48304-21.338-1.6592-25.014c-1.6592-5.1665-5.8386-8.3379-11.509-8.3379-5.8386,0-9.829,2.6673-11.677,8.3379-1.1551,3.6754-1.4911,6.1746-1.4911,25.014s0.33602,21.338,1.4911,24.846c1.8482,5.6706,5.8386,8.3378,11.677,8.3378,5.6706,0,9.85-3.0033,11.509-8.3378m-31.02,3.5074c-1.4912-4.5155-1.8272-7.8338-1.8272-28.353,0-20.666,0.33603-23.837,1.8272-28.521,2.8353-8.8209,8.8419-12.664,17.18-12.664,8.8419,0,13.168,4.4945,15.332,9.661h0.168v-40.513c0-0.98711,0.67207-1.6592,1.6802-1.6592h4.8305c1.0081,0,1.6592,0.67207,1.6592,1.6592v110.05c0,1.0081-0.65106,1.6802-1.6592,1.6802h-4.8305c-1.0081,0-1.6802-0.67206-1.6802-1.6802v-6.4897h-0.168c-2.1632,4.9985-6.4897,9.493-15.332,9.493-8.3379,0-14.344-3.8224-17.18-12.664" fill="#2f2a2b"/>
   <path d="m599.69,725.94c-1.0081,0-1.6802-0.67208-1.6802-1.6592v-4.5155c0-0.9871,0.67206-1.6592,1.6802-1.6592l1.8272-0.16802c4.5154,0,6.8467-1.9952,8.6739-9.1779l3.6754-14.828-18.839-75.881c-0.16801-0.98711,0.33604-1.6592,1.3231-1.6592h5.5026c1.0081,0,1.5122,0.67207,1.6802,1.6592l14.344,60.36h0.14701l14.344-60.36c0.16801-0.98711,0.67206-1.6592,1.6802-1.6592h5.3345c0.98711,0,1.4912,0.67207,1.3231,1.6592l-22.682,90.057c-3.3183,14.155-7.6658,17.831-16.844,17.831h-1.4912z" fill="#2f2a2b"/>
   <path d="m312.98,735.42c-15.311,0-29.802-5.5446-38.98-14.996l5.5656-5.3976c7.9598,8.2118,20.96,12.916,34.591,12.622,12.664-0.25203,23.963-4.9145,30.978-12.769l5.7756,5.1455c-8.4428,9.472-21.779,15.08-36.586,15.374-0.46205,0.021-0.90309,0.021-1.3441,0.021" fill="#2f2a2b"/>
   <path d="m40.735,701.55,0-89.343,53.807,0,1.6592,24.426-30.138,0,0,11.656,24.552,0,0,24.383-24.72,0,0,28.878-25.161,0z" fill="#0daa4c"/>
   <path d="m247.98,701.42-26.904-46.352,24.446-42.739-26.925,0-11.194,19.238-10.984-19.238-27.87,0,24.93,43.033-26.4,46.1,27.072,0,12.916-22.577,13.063,22.535,27.849,0z" fill="#0daa4c"/>
   <path d="m145.73,674.82,0-35.683c0-4.0744-3.5494-7.7288-7.5398-7.7288-3.9694,0-7.2037,3.6544-7.2037,7.7288l-0.021,35.578c0,4.0744,3.2553,7.3718,7.2247,7.3718,3.9904,0,7.5398-3.1923,7.5398-7.2667m-50.234-17.83c0-23.984,19.07-43.432,42.592-43.432,23.501,0,42.571,19.448,42.571,43.432s-19.07,43.432-42.571,43.432c-23.522,0-42.592-19.448-42.592-43.432" fill="#0daa4c"/>
  </g>
  <g transform="matrix(16.724087,0,0,-16.724087,321.29515,1587.3298)">
   <path d="m0,0c0.169,0.526,0.556,0.804,1.131,0.804,0.674,0,1.11-0.407,1.2-1.121,0.01-0.05-0.01-0.09-0.06-0.109l-0.287-0.06c-0.06-0.02-0.109,0.01-0.12,0.069-0.079,0.536-0.327,0.755-0.733,0.755-0.298,0-0.546-0.139-0.665-0.487-0.059-0.218-0.089-0.337-0.089-1.498,0-1.16,0.03-1.279,0.089-1.497,0.119-0.347,0.367-0.486,0.665-0.486,0.406,0,0.654,0.218,0.733,0.753,0.011,0.06,0.06,0.09,0.12,0.07l0.287-0.059c0.05-0.02,0.07-0.06,0.06-0.11-0.09-0.714-0.526-1.12-1.2-1.12-0.575,0-0.962,0.277-1.131,0.803-0.089,0.278-0.109,0.416-0.109,1.646s0.02,1.369,0.109,1.647" fill-rule="nonzero" fill="#FFF"/>
  </g>
  <g transform="matrix(16.724087,0,0,-16.724087,408.20855,1589.9856)">
   <path d="m0,0c-0.109,0.337-0.357,0.496-0.704,0.496s-0.595-0.159-0.704-0.496c-0.07-0.208-0.08-0.367-0.08-1.478,0-1.12,0.01-1.279,0.08-1.488,0.109-0.337,0.357-0.496,0.704-0.496s0.595,0.159,0.704,0.496c0.07,0.209,0.08,0.368,0.08,1.488,0,1.111-0.01,1.27-0.08,1.478m0.466-3.115c-0.168-0.535-0.595-0.813-1.17-0.813s-1.002,0.278-1.17,0.813c-0.08,0.268-0.1,0.457-0.1,1.637,0,1.17,0.02,1.359,0.1,1.627,0.168,0.536,0.595,0.813,1.17,0.813s1.002-0.277,1.17-0.813c0.08-0.268,0.1-0.457,0.1-1.627,0-1.18-0.02-1.369-0.1-1.637" fill-rule="nonzero" fill="#FFF"/>
  </g>
  <g transform="matrix(16.724087,0,0,-16.724087,506.4057,1654.3466)">
   <path d="m0,0c-0.059,0-0.099,0.04-0.099,0.099v3.194c0,0.704-0.248,1.052-0.774,1.052-0.456,0-0.744-0.338-0.753-1.022v-3.224c0-0.059-0.04-0.099-0.1-0.099h-0.288c-0.059,0-0.098,0.04-0.098,0.099v3.194c0,0.684-0.229,1.052-0.764,1.052-0.466,0-0.764-0.338-0.764-1.052v-3.194c0-0.059-0.04-0.099-0.099-0.099h-0.288c-0.059,0-0.099,0.04-0.099,0.099v4.533c0,0.06,0.04,0.099,0.099,0.099h0.288c0.059,0,0.099-0.039,0.099-0.099v-0.387h0.01c0.129,0.308,0.407,0.566,0.902,0.566,0.487,0,0.814-0.209,0.972-0.625h0.01c0.159,0.367,0.506,0.625,0.992,0.625,0.764,0,1.141-0.466,1.141-1.439v-3.273c0-0.059-0.04-0.099-0.099-0.099h-0.288z" fill-rule="nonzero" fill="#FFF"/>
  </g>
  <g transform="matrix(16.724087,0,0,-16.724087,565.61399,1608.2283)">
   <path d="m0,0c0,0.774-0.04,0.962-0.089,1.101-0.109,0.327-0.347,0.496-0.675,0.496-0.327,0-0.565-0.169-0.674-0.496-0.05-0.139-0.09-0.327-0.09-1.101,0-0.04,0.02-0.06,0.06-0.06h1.409c0.039,0,0.059,0.02,0.059,0.06m0.387-0.496-1.855,0c-0.04,0-0.06-0.02-0.06-0.06,0-0.972,0.04-1.16,0.09-1.329,0.109-0.327,0.347-0.486,0.664-0.486,0.407,0,0.635,0.189,0.764,0.655,0.02,0.07,0.06,0.089,0.119,0.07l0.268-0.06c0.05-0.01,0.08-0.05,0.06-0.119-0.139-0.665-0.566-1.012-1.221-1.012-0.555,0-0.951,0.278-1.12,0.804-0.069,0.198-0.109,0.436-0.109,1.636s0.04,1.438,0.109,1.647c0.169,0.525,0.565,0.803,1.14,0.803,0.576,0,0.973-0.278,1.141-0.803,0.069-0.209,0.109-0.447,0.109-1.647,0-0.06-0.04-0.099-0.099-0.099" fill-rule="nonzero" fill="#FFF"/>
  </g>
  <g transform="matrix(16.724087,0,0,-16.724087,623.66998,1639.5809)">
   <path d="M0,0c0.07,0.208,0.099,0.357,0.099,1.478s-0.029,1.269-0.099,1.488c-0.099,0.307-0.347,0.496-0.684,0.496-0.347,0-0.585-0.159-0.694-0.496-0.07-0.219-0.09-0.367-0.09-1.488s0.02-1.27,0.09-1.478c0.109-0.337,0.347-0.496,0.694-0.496,0.337,0,0.585,0.179,0.684,0.496m-1.845-0.209c-0.089,0.269-0.109,0.467-0.109,1.687,0,1.23,0.02,1.418,0.109,1.696,0.169,0.525,0.526,0.754,1.022,0.754,0.526,0,0.783-0.268,0.912-0.575h0.01v2.41c0,0.059,0.04,0.099,0.1,0.099h0.287c0.06,0,0.099-0.04,0.099-0.099v-6.547c0-0.059-0.039-0.099-0.099-0.099h-0.287c-0.06,0-0.1,0.04-0.1,0.099v0.387h-0.01c-0.129-0.297-0.386-0.565-0.912-0.565-0.496,0-0.853,0.228-1.022,0.753" fill-rule="nonzero" fill="#FFF"/>
  </g>
  <g transform="matrix(16.724087,0,0,-16.724087,654.52091,1684.2024)">
   <path d="m0,0c-0.059,0-0.099,0.04-0.099,0.099v0.268c0,0.059,0.04,0.099,0.099,0.099l0.109,0.01c0.268,0,0.407,0.119,0.516,0.545l0.218,0.883-1.121,4.513c-0.01,0.06,0.02,0.099,0.08,0.099h0.327c0.059,0,0.089-0.039,0.099-0.099l0.853-3.59h0.01l0.853,3.59c0.01,0.06,0.039,0.099,0.099,0.099h0.318c0.059,0,0.089-0.039,0.079-0.099l-1.349-5.356c-0.198-0.843-0.456-1.061-1.002-1.061h-0.089z" fill-rule="nonzero" fill="#FFF"/>
  </g>
  <g transform="matrix(16.724087,0,0,-16.724087,369.29495,1693.6365)">
   <path d="m0,0c-0.911,0-1.773,0.33-2.318,0.892l0.33,0.321c0.474-0.488,1.247-0.768,2.058-0.751,0.753,0.015,1.425,0.293,1.842,0.76l0.345-0.306c-0.503-0.563-1.297-0.897-2.178-0.915-0.026-0.001-0.053-0.001-0.079-0.001" fill-rule="nonzero" fill="#FFF"/>
  </g>
  <g transform="matrix(16.724087,0,0,-16.724087,98.784514,1659.9391)">
   <path d="m0,0,0,5.315,3.201,0,0.098-1.453-1.792,0,0-0.693,1.46,0,0-1.451-1.47,0v-1.718h-1.497z" fill-rule="nonzero" fill="#000"/>
  </g>
  <g transform="matrix(16.724087,0,0,-16.724087,304.63461,1659.8137)">
   <path d="m0,0-1.601,2.758,1.455,2.542-1.602,0-0.665-1.145-0.654,1.145-1.658,0,1.483-2.56-1.571-2.743,1.611,0.001,0.768,1.343l0.777-1.341h1.657z" fill-rule="nonzero" fill="#000"/>
  </g>
  <g transform="matrix(16.724087,0,0,-16.724087,203.24316,1633.3545)">
   <path d="m0,0,0,2.123c0,0.242-0.211,0.459-0.448,0.459s-0.429-0.217-0.429-0.459l-0.001-2.117c0-0.242,0.193-0.439,0.43-0.439s0.448,0.19,0.448,0.433m-2.988,1.061c0,1.427,1.134,2.584,2.533,2.584s2.532-1.157,2.532-2.584-1.133-2.584-2.532-2.584-2.533,1.157-2.533,2.584" fill-rule="nonzero" fill="#000"/>
  </g>
 </g>
</svg>
