<?xml version="1.0" encoding="UTF-8" standalone="no"?>
<!-- Created with Inkscape (http://www.inkscape.org/) -->
<svg xmlns:rdf="http://www.w3.org/1999/02/22-rdf-syntax-ns#" xmlns="http://www.w3.org/2000/svg" height="122.49" width="600" version="1.1" xmlns:cc="http://creativecommons.org/ns#" xmlns:dc="http://purl.org/dc/elements/1.1/">
 <defs></defs>
 <metadata>
  <rdf:RDF>
   <cc:Work rdf:about="">
    <dc:format>image/svg+xml</dc:format>
    <dc:type rdf:resource="http://purl.org/dc/dcmitype/StillImage"/>
    <dc:title/>
   </cc:Work>
  </rdf:RDF>
 </metadata>
 <g transform="translate(-100.37081,-597.73806)">
  <g fill-rule="nonzero" transform="matrix(1.0061671,0,0,1.0061671,-2.4691403,-4.0640329)">
   <path d="m656.22,671.44,0-12.643-19.45,0,0,12.643-5.6695,0,0-29.418,5.6695,0,0,12.142,19.45,0,0-12.142,5.6695,0,0,29.418-5.6695,0z" fill="#272724"/>
   <path d="m681.26,646.65-8.8638,0,0,20.169,9.2819,0c6.8903,0,11.339-2.726,11.339-10.118,0-7.5258-4.9002-10.051-11.757-10.051m0.80276,24.802-15.135,0,0-29.418,14.333,0c9.6665,0,17.276,4.0305,17.276,14.667,0,10.285-6.8569,14.751-16.473,14.751" fill="#272724"/>
   <path fill="#272724" d="m609.21,688.4-3.7462,0,0-63.334,3.7462,0,0,63.334z"/>
   <path d="m280.58,634.76c2.2578-7.0408,7.4422-10.754,15.135-10.754,9.031,0,14.868,5.452,16.072,15.002,0.13379,0.66896-0.1338,1.2041-0.80276,1.4717l-3.8465,0.78603c-0.80276,0.26759-1.455-0.13379-1.6055-0.91982-1.0536-7.1746-4.365-10.101-9.817-10.101-3.9803,0-7.2917,1.8564-8.8972,6.5057-0.78603,2.9267-1.1874,4.5155-1.1874,20.052,0,15.537,0.40138,17.125,1.1874,20.052,1.6055,4.6493,4.9169,6.5057,8.8972,6.5057,5.452,0,8.7634-2.9267,9.817-10.085,0.15051-0.80275,0.80275-1.2041,1.6055-0.93655l3.8465,0.80276c0.66896,0.25086,0.93655,0.78603,0.80276,1.455-1.2041,9.5662-7.0408,15.002-16.072,15.002-7.6931,0-12.878-3.7128-15.135-10.754-1.2041-3.7127-1.455-5.5691-1.455-22.042,0-16.456,0.25087-18.33,1.455-22.042" fill="#2f2a2b"/>
   <path d="m350.15,636.88c-1.455-4.5155-4.7831-6.6395-9.4324-6.6395s-7.9607,2.124-9.4157,6.6395c-0.93654,2.7929-1.0703,4.9169-1.0703,19.785,0,15.002,0.1338,17.125,1.0703,19.918,1.455,4.5155,4.7664,6.6395,9.4157,6.6395s7.9774-2.124,9.4324-6.6395c0.93655-2.7929,1.0703-4.9169,1.0703-19.918,0-14.868-0.13379-16.992-1.0703-19.785m6.2381,41.693c-2.2578,7.1579-7.9607,10.887-15.67,10.887-7.6931,0-13.396-3.7295-15.654-10.887-1.0703-3.579-1.3379-6.1043-1.3379-21.909,0-15.67,0.26759-18.196,1.3379-21.775,2.2578-7.1746,7.9607-10.887,15.654-10.887,7.7098,0,13.413,3.7128,15.67,10.887,1.0704,3.579,1.3379,6.1043,1.3379,21.775,0,15.804-0.26758,18.33-1.3379,21.909" fill="#2f2a2b"/>
   <path d="m428.75,688.41c-0.80276,0-1.3212-0.53517-1.3212-1.3379v-42.747c0-9.4324-3.3281-14.082-10.352-14.082-6.121,0-9.9676,4.5155-10.101,13.68v43.148c0,0.80276-0.53517,1.3379-1.3212,1.3379h-3.8633c-0.78603,0-1.3212-0.53517-1.3212-1.3379v-42.747c0-9.1648-3.0605-14.082-10.218-14.082-6.2381,0-10.235,4.5155-10.235,14.082v42.747c0,0.80276-0.51845,1.3379-1.3212,1.3379h-3.8465c-0.80276,0-1.3379-0.53517-1.3379-1.3379v-60.675c0-0.78604,0.53517-1.3212,1.3379-1.3212h3.8465c0.80275,0,1.3212,0.53517,1.3212,1.3212v5.1845h0.13379c1.7226-4.1141,5.4521-7.576,12.092-7.576,6.5057,0,10.887,2.7929,13.011,8.362h0.13379c2.124-4.9002,6.7733-8.362,13.279-8.362,10.218,0,15.269,6.2381,15.269,19.249v43.817c0,0.80276-0.53517,1.3379-1.3212,1.3379h-3.8633z" fill="#2f2a2b"/>
   <path d="m476.14,651.49c0-10.352-0.53517-12.878-1.1874-14.734-1.4717-4.3817-4.6493-6.6395-9.031-6.6395s-7.576,2.2578-9.031,6.6395c-0.66897,1.8564-1.2041,4.3817-1.2041,14.734,0,0.53517,0.26759,0.80276,0.80276,0.80276h18.848c0.53517,0,0.80276-0.26759,0.80276-0.80276m5.1845,6.6395-24.835,0c-0.53517,0-0.80276,0.26759-0.80276,0.80276,0,13.011,0.53517,15.537,1.2041,17.794,1.455,4.3817,4.6493,6.5057,8.8972,6.5057,5.4353,0,8.4958-2.5253,10.218-8.7634,0.26758-0.93655,0.80275-1.2041,1.6055-0.93655l3.579,0.80275c0.66897,0.1338,1.0536,0.66897,0.80276,1.5888-1.8731,8.8972-7.576,13.547-16.339,13.547-7.4422,0-12.744-3.7295-15.002-10.754-0.91982-2.6591-1.455-5.8367-1.455-21.909s0.53517-19.249,1.455-22.042c2.2578-7.0408,7.5593-10.754,15.269-10.754,7.6931,0,13.011,3.7127,15.269,10.754,0.91983,2.7929,1.455,5.9705,1.455,22.042,0,0.78603-0.53517,1.3212-1.3212,1.3212" fill="#2f2a2b"/>
   <path d="m522.61,676.58c0.93655-2.7929,1.3212-4.7831,1.3212-19.785s-0.38465-16.992-1.3212-19.918c-1.3212-4.1141-4.6493-6.6395-9.1648-6.6395-4.6493,0-7.8269,2.124-9.2986,6.6395-0.91983,2.9267-1.1874,4.9169-1.1874,19.918,0,15.002,0.26758,16.992,1.1874,19.785,1.4717,4.5155,4.6493,6.6395,9.2986,6.6395,4.5155,0,7.8436-2.3915,9.1648-6.6395m-24.701,2.7929c-1.1874-3.5957-1.455-6.2381-1.455-22.578,0-16.457,0.26758-18.982,1.455-22.711,2.2578-7.0241,7.0408-10.085,13.68-10.085,7.0408,0,10.486,3.579,12.209,7.6931h0.13379v-32.261c0-0.78604,0.53517-1.3212,1.3379-1.3212h3.8465c0.80276,0,1.3212,0.53517,1.3212,1.3212v87.634c0,0.80276-0.51844,1.3379-1.3212,1.3379h-3.8465c-0.80276,0-1.3379-0.53517-1.3379-1.3379v-5.1677h-0.13379c-1.7226,3.9803-5.1677,7.5593-12.209,7.5593-6.6395,0-11.423-3.0438-13.68-10.085" fill="#2f2a2b"/>
   <path d="m547.3,712.3c-0.80276,0-1.3379-0.53517-1.3379-1.3212v-3.5957c0-0.78603,0.53517-1.3212,1.3379-1.3212l1.455-0.1338c3.5957,0,5.452-1.5888,6.907-7.3084l2.9267-11.807-15.002-60.424c-0.13379-0.78604,0.26759-1.3212,1.0536-1.3212h4.3817c0.80276,0,1.2041,0.53517,1.3379,1.3212l11.423,48.065h0.11707l11.423-48.065c0.13379-0.78604,0.53517-1.3212,1.3379-1.3212h4.2479c0.78604,0,1.1874,0.53517,1.0536,1.3212l-18.062,71.713c-2.6424,11.272-6.1043,14.199-13.413,14.199h-1.1874z" fill="#2f2a2b"/>
   <path d="m319,719.85c-12.192,0-23.731-4.4152-31.04-11.941l4.4319-4.2981c6.3384,6.5391,16.691,10.285,27.545,10.051,10.085-0.20069,19.082-3.9134,24.668-10.168l4.5991,4.0974c-6.7231,7.5426-17.343,12.008-29.133,12.242-0.36793,0.0167-0.71913,0.0167-1.0703,0.0167" fill="#2f2a2b"/>
   <path d="m102.21,692.88,0-71.144,42.847,0,1.3212,19.45-23.999,0,0,9.2819,19.55,0,0,19.417-19.684,0,0,22.996-20.035,0z" fill="#0daa4c"/>
   <path d="m267.24,692.78-21.424-36.91,19.467-34.034-21.44,0-8.9139,15.319-8.7467-15.319-22.193,0,19.851,34.268-21.022,36.709,21.557,0,10.285-17.978,10.402,17.945,22.176,0z" fill="#0daa4c"/>
   <path d="m185.82,671.6,0-28.414c0-3.2445-2.8264-6.1545-6.004-6.1545-3.1608,0-5.7364,2.91-5.7364,6.1545l-0.0167,28.331c0,3.2445,2.5922,5.8702,5.7531,5.8702,3.1776,0,6.004-2.5421,6.004-5.7865m-40.004-14.199c0-19.099,15.185-34.585,33.916-34.585,18.714,0,33.9,15.486,33.9,34.585s-15.185,34.585-33.9,34.585c-18.731,0-33.916-15.486-33.916-34.585" fill="#0daa4c"/>
  </g>
  <g transform="matrix(16.724087,0,0,-16.724087,321.29515,1587.3298)">
   <path d="m0,0c0.169,0.526,0.556,0.804,1.131,0.804,0.674,0,1.11-0.407,1.2-1.121,0.01-0.05-0.01-0.09-0.06-0.109l-0.287-0.06c-0.06-0.02-0.109,0.01-0.12,0.069-0.079,0.536-0.327,0.755-0.733,0.755-0.298,0-0.546-0.139-0.665-0.487-0.059-0.218-0.089-0.337-0.089-1.498,0-1.16,0.03-1.279,0.089-1.497,0.119-0.347,0.367-0.486,0.665-0.486,0.406,0,0.654,0.218,0.733,0.753,0.011,0.06,0.06,0.09,0.12,0.07l0.287-0.059c0.05-0.02,0.07-0.06,0.06-0.11-0.09-0.714-0.526-1.12-1.2-1.12-0.575,0-0.962,0.277-1.131,0.803-0.089,0.278-0.109,0.416-0.109,1.646s0.02,1.369,0.109,1.647" fill-rule="nonzero" fill="#FFF"/>
  </g>
  <g transform="matrix(16.724087,0,0,-16.724087,408.20855,1589.9856)">
   <path d="m0,0c-0.109,0.337-0.357,0.496-0.704,0.496s-0.595-0.159-0.704-0.496c-0.07-0.208-0.08-0.367-0.08-1.478,0-1.12,0.01-1.279,0.08-1.488,0.109-0.337,0.357-0.496,0.704-0.496s0.595,0.159,0.704,0.496c0.07,0.209,0.08,0.368,0.08,1.488,0,1.111-0.01,1.27-0.08,1.478m0.466-3.115c-0.168-0.535-0.595-0.813-1.17-0.813s-1.002,0.278-1.17,0.813c-0.08,0.268-0.1,0.457-0.1,1.637,0,1.17,0.02,1.359,0.1,1.627,0.168,0.536,0.595,0.813,1.17,0.813s1.002-0.277,1.17-0.813c0.08-0.268,0.1-0.457,0.1-1.627,0-1.18-0.02-1.369-0.1-1.637" fill-rule="nonzero" fill="#FFF"/>
  </g>
  <g transform="matrix(16.724087,0,0,-16.724087,506.4057,1654.3466)">
   <path d="m0,0c-0.059,0-0.099,0.04-0.099,0.099v3.194c0,0.704-0.248,1.052-0.774,1.052-0.456,0-0.744-0.338-0.753-1.022v-3.224c0-0.059-0.04-0.099-0.1-0.099h-0.288c-0.059,0-0.098,0.04-0.098,0.099v3.194c0,0.684-0.229,1.052-0.764,1.052-0.466,0-0.764-0.338-0.764-1.052v-3.194c0-0.059-0.04-0.099-0.099-0.099h-0.288c-0.059,0-0.099,0.04-0.099,0.099v4.533c0,0.06,0.04,0.099,0.099,0.099h0.288c0.059,0,0.099-0.039,0.099-0.099v-0.387h0.01c0.129,0.308,0.407,0.566,0.902,0.566,0.487,0,0.814-0.209,0.972-0.625h0.01c0.159,0.367,0.506,0.625,0.992,0.625,0.764,0,1.141-0.466,1.141-1.439v-3.273c0-0.059-0.04-0.099-0.099-0.099h-0.288z" fill-rule="nonzero" fill="#FFF"/>
  </g>
  <g transform="matrix(16.724087,0,0,-16.724087,565.61399,1608.2283)">
   <path d="m0,0c0,0.774-0.04,0.962-0.089,1.101-0.109,0.327-0.347,0.496-0.675,0.496-0.327,0-0.565-0.169-0.674-0.496-0.05-0.139-0.09-0.327-0.09-1.101,0-0.04,0.02-0.06,0.06-0.06h1.409c0.039,0,0.059,0.02,0.059,0.06m0.387-0.496-1.855,0c-0.04,0-0.06-0.02-0.06-0.06,0-0.972,0.04-1.16,0.09-1.329,0.109-0.327,0.347-0.486,0.664-0.486,0.407,0,0.635,0.189,0.764,0.655,0.02,0.07,0.06,0.089,0.119,0.07l0.268-0.06c0.05-0.01,0.08-0.05,0.06-0.119-0.139-0.665-0.566-1.012-1.221-1.012-0.555,0-0.951,0.278-1.12,0.804-0.069,0.198-0.109,0.436-0.109,1.636s0.04,1.438,0.109,1.647c0.169,0.525,0.565,0.803,1.14,0.803,0.576,0,0.973-0.278,1.141-0.803,0.069-0.209,0.109-0.447,0.109-1.647,0-0.06-0.04-0.099-0.099-0.099" fill-rule="nonzero" fill="#FFF"/>
  </g>
  <g transform="matrix(16.724087,0,0,-16.724087,623.66998,1639.5809)">
   <path d="M0,0c0.07,0.208,0.099,0.357,0.099,1.478s-0.029,1.269-0.099,1.488c-0.099,0.307-0.347,0.496-0.684,0.496-0.347,0-0.585-0.159-0.694-0.496-0.07-0.219-0.09-0.367-0.09-1.488s0.02-1.27,0.09-1.478c0.109-0.337,0.347-0.496,0.694-0.496,0.337,0,0.585,0.179,0.684,0.496m-1.845-0.209c-0.089,0.269-0.109,0.467-0.109,1.687,0,1.23,0.02,1.418,0.109,1.696,0.169,0.525,0.526,0.754,1.022,0.754,0.526,0,0.783-0.268,0.912-0.575h0.01v2.41c0,0.059,0.04,0.099,0.1,0.099h0.287c0.06,0,0.099-0.04,0.099-0.099v-6.547c0-0.059-0.039-0.099-0.099-0.099h-0.287c-0.06,0-0.1,0.04-0.1,0.099v0.387h-0.01c-0.129-0.297-0.386-0.565-0.912-0.565-0.496,0-0.853,0.228-1.022,0.753" fill-rule="nonzero" fill="#FFF"/>
  </g>
  <g transform="matrix(16.724087,0,0,-16.724087,654.52091,1684.2024)">
   <path d="m0,0c-0.059,0-0.099,0.04-0.099,0.099v0.268c0,0.059,0.04,0.099,0.099,0.099l0.109,0.01c0.268,0,0.407,0.119,0.516,0.545l0.218,0.883-1.121,4.513c-0.01,0.06,0.02,0.099,0.08,0.099h0.327c0.059,0,0.089-0.039,0.099-0.099l0.853-3.59h0.01l0.853,3.59c0.01,0.06,0.039,0.099,0.099,0.099h0.318c0.059,0,0.089-0.039,0.079-0.099l-1.349-5.356c-0.198-0.843-0.456-1.061-1.002-1.061h-0.089z" fill-rule="nonzero" fill="#FFF"/>
  </g>
  <g transform="matrix(16.724087,0,0,-16.724087,369.29495,1693.6365)">
   <path d="m0,0c-0.911,0-1.773,0.33-2.318,0.892l0.33,0.321c0.474-0.488,1.247-0.768,2.058-0.751,0.753,0.015,1.425,0.293,1.842,0.76l0.345-0.306c-0.503-0.563-1.297-0.897-2.178-0.915-0.026-0.001-0.053-0.001-0.079-0.001" fill-rule="nonzero" fill="#FFF"/>
  </g>
  <g transform="matrix(16.724087,0,0,-16.724087,98.784514,1659.9391)">
   <path d="m0,0,0,5.315,3.201,0,0.098-1.453-1.792,0,0-0.693,1.46,0,0-1.451-1.47,0v-1.718h-1.497z" fill-rule="nonzero" fill="#000"/>
  </g>
  <g transform="matrix(16.724087,0,0,-16.724087,304.63461,1659.8137)">
   <path d="m0,0-1.601,2.758,1.455,2.542-1.602,0-0.665-1.145-0.654,1.145-1.658,0,1.483-2.56-1.571-2.743,1.611,0.001,0.768,1.343l0.777-1.341h1.657z" fill-rule="nonzero" fill="#000"/>
  </g>
  <g transform="matrix(16.724087,0,0,-16.724087,203.24316,1633.3545)">
   <path d="m0,0,0,2.123c0,0.242-0.211,0.459-0.448,0.459s-0.429-0.217-0.429-0.459l-0.001-2.117c0-0.242,0.193-0.439,0.43-0.439s0.448,0.19,0.448,0.433m-2.988,1.061c0,1.427,1.134,2.584,2.533,2.584s2.532-1.157,2.532-2.584-1.133-2.584-2.532-2.584-2.533,1.157-2.533,2.584" fill-rule="nonzero" fill="#000"/>
  </g>
 </g>
</svg>
