<?xml version="1.0" encoding="UTF-8" standalone="no"?>
<!-- Created with Inkscape (http://www.inkscape.org/) -->
<svg xmlns:rdf="http://www.w3.org/1999/02/22-rdf-syntax-ns#" xmlns="http://www.w3.org/2000/svg" height="157.31" width="600" version="1.1" xmlns:cc="http://creativecommons.org/ns#" xmlns:dc="http://purl.org/dc/elements/1.1/">
 <defs></defs>
 <metadata>
  <rdf:RDF>
   <cc:Work rdf:about="">
    <dc:format>image/svg+xml</dc:format>
    <dc:type rdf:resource="http://purl.org/dc/dcmitype/StillImage"/>
    <dc:title/>
   </cc:Work>
  </rdf:RDF>
 </metadata>
 <g transform="translate(-87.327467,-356.81562)">
  <g fill-rule="nonzero" fill="#f89829" transform="translate(-3.0340654e-5,-3.4111845e-5)">
   <path d="m184.68,398.78-53.63-0.024c0,7.3835,0,14.347-0.024,21.382l42.908,0.024c0,8.6561-0.024,32.812-0.024,41.876l-42.068-0.46822-0.06,52.213-44.457-0.036,0.10805-156.93,93.969,0.048,3.2776,41.912z"/>
   <path d="m361.17,357,18.897,32.872,18.729-32.956s31.755,0.24011,48.035,0.24011l-42.908,75.144,46.486,81.783-49.452-0.036-21.802-39.499-21.898,39.475-48.671-0.048,47.531-81.687-44.493-75.324,49.548,0.036z"/>
   <path d="m319.01,390.62c13.29,18.801,17.684,45.262,10.673,68.264-8.1759,27.529-36.053,50.964-65.179,52.537-28.562,2.2931-52.393-10.493-69.213-32.932-14.911-20.686-17.492-56.667-3.9859-78.866,12.654-24.984,38.31-39.571,65.035-41.024,24.948,1.0205,47.435,11.129,62.67,32.019m-48.215,10.685c0-5.4266-5.0064-9.7967-11.177-9.8207h-2.3291c-6.231,0-11.261,4.3941-11.261,9.8087l-0.048,67.412c0,5.3906,5.0304,9.8087,11.249,9.8327h2.2931c6.195,0,11.189-4.4181,11.201-9.8087l0.072-67.424z"/>
   <path d="m593.52,468,0-27.937-43.137,0,0,27.937-12.594,0,0-64.987,12.594,0,0,26.833,43.137,0,0-26.833,12.582,0,0,64.987-12.582,0z"/>
   <path d="m649.07,413.22-19.689,0,0,44.565,20.602,0c15.295,0,25.152-6.0149,25.152-22.367,0-16.64-10.901-22.199-26.064-22.199m1.7528,54.782-33.532,0,0-64.999,31.779,0c21.418,0,38.262,8.9082,38.262,32.415,0,22.739-15.163,32.584-36.509,32.584"/>
   <path d="m485.17,357.15,0,156.96"/>
   <path style="baseline-shift:baseline;block-progression:tb;color:#000000;direction:ltr;text-indent:0;text-align:start;enable-background:accumulate;text-transform:none;" d="m482.22,357.16,0,156.97,5.9062,0,0-156.97-5.9062,0z"/>
  </g>
 </g>
</svg>
