<?xml version="1.0" encoding="UTF-8" standalone="no"?>
<!-- Created with Inkscape (http://www.inkscape.org/) -->

<svg
   xmlns:dc="http://purl.org/dc/elements/1.1/"
   xmlns:cc="http://creativecommons.org/ns#"
   xmlns:rdf="http://www.w3.org/1999/02/22-rdf-syntax-ns#"
   xmlns:svg="http://www.w3.org/2000/svg"
   xmlns="http://www.w3.org/2000/svg"
   version="1.0"
   width="170.16248"
   height="160.6272"
   viewBox="0 0 170.16247 169.68198"
   id="logo"
   xml:space="preserve"
   style="overflow:visible"><metadata
   id="metadata14"><rdf:RDF><cc:Work
       rdf:about=""><dc:format>image/svg+xml</dc:format><dc:type
         rdf:resource="http://purl.org/dc/dcmitype/StillImage" /><dc:title></dc:title></cc:Work></rdf:RDF></metadata><defs
   id="defs12" />




<path
   d="m 64.676741,169.68178 c 16.632969,-0.0805 36.142649,-2.32457 56.627289,-6.91334 19.58907,-4.38751 38.1338,-10.50486 53.65409,-17.67078 L 174.95812,0 -4.7961527,0 l 0,169.68178 69.4728937,0"
   id="path3"
   style="fill:#ffffff;fill-opacity:1;stroke:none" /><path
   d="m 81.108919,104.11088 c 4.060755,2.5812 15.186644,2.5249 27.048271,-0.1278 14.78557,-3.3157 26.04311,-9.49141 25.08823,-13.76121 -0.15077,-0.7145 -0.66339,-1.3404 -1.50771,-1.8757 -4.06075,-2.5782 -15.18762,-2.5289 -27.04825,0.1268 -11.860615,2.6596 -21.942168,7.3591 -24.525371,11.4255 -0.534733,0.84631 -0.726714,1.63231 -0.563882,2.33871 0.155797,0.7115 0.664396,1.3414 1.508712,1.8737 m -48.258656,27.7479 c 0.557851,2.4926 2.3088,4.6954 5.205606,6.5339 12.556176,7.973 43.877262,8.2034 77.920281,0.5726 23.98257,-5.3717 45.46236,-13.7823 58.98247,-23.0896 l 0,-115.87501 -179.7547727,0 0,169.68111 25.5003347,0 c -5.631784,-3.0995 -9.026133,-6.9536 -10.040317,-11.482 -0.211079,-0.956 -0.316618,-1.922 -0.316618,-2.9082 0,-4.156 1.875586,-8.5938 5.610677,-13.251 0.06634,-0.084 0.184945,-0.1047 0.271387,-0.042 0.08745,0.054 0.115591,0.1751 0.06232,0.2696 -2.098727,3.6449 -2.801318,7.0965 -2.093701,10.2664 2.467612,11.0391 21.563212,17.0266 48.68584,17.1474 l 1.793165,0 c 16.633013,-0.08 36.142755,-2.3246 56.627455,-6.9133 19.58912,-4.3875 38.1339,-10.5048 53.65423,-17.6707 l 0,-20.8949 c -14.55439,8.7931 -34.93958,16.4158 -57.48381,21.4785 -35.973886,8.0505 -69.336406,7.6379 -83.001249,-1.0365 -3.346102,-2.1323 -5.372459,-4.6903 -6.025798,-7.6086 -1.041323,-4.6411 1.541881,-10.0309 7.460129,-15.5806 0.0784,-0.073 0.199018,-0.073 0.278424,0 0.0774,0.072 0.08745,0.1911 0.0201,0.2787 -2.913893,3.6438 -4.043667,7.0522 -3.356153,10.1244 z M 104.39797,87.17777 c 18.00201,-4.0332 33.69221,-2.6536 34.96872,3.0783 0.25129,1.0969 -0.0301,2.2894 -0.82421,3.5402 -3.33604,5.264 -15.18762,10.95771 -29.49073,14.16271 -18.001999,4.0293 -33.696238,2.6537 -34.979798,-3.0742 -1.27753,-5.73091 12.323989,-13.66971 30.326018,-17.70701 z m -43.841096,17.10221 c 0.09046,-0.062 0.210074,-0.042 0.276413,0.046 0.06131,0.092 0.04825,0.2113 -0.03719,0.2798 -4.627652,3.7243 -6.722359,7.2715 -6.055953,10.2542 0.353809,1.5819 1.468506,2.9827 3.319969,4.154 8.285348,5.26 30.285795,5.3053 53.483377,0.1057 29.31985,-6.5712 51.5545,-19.17011 49.56433,-28.09001 -0.67344,-2.9837 -4.07081,-5.2962 -9.8403,-6.6909 -0.11056,-0.026 -0.18092,-0.1278 -0.16082,-0.2385 0.0301,-0.1047 0.12063,-0.1761 0.23118,-0.161 9.47845,1.4299 15.0067,4.5293 16.00179,8.9521 0.44125,1.9773 -0.0704,4.1248 -1.49766,6.389 -6.04087,9.52571 -27.34979,19.79501 -53.02099,25.54911 -25.681277,5.754 -49.335175,5.5578 -58.853826,-0.4861 -2.261559,-1.436 -3.632567,-3.1658 -4.071812,-5.1392 -0.98805,-4.4247 2.696784,-9.584 10.661492,-14.9245 z"
   id="path5"
   style="fill:#29b1e6" /><g
   transform="translate(-5.0294206,0.30217)"
   id="g6048"><path
     d="m 104.906,29.416 -0.069,0 -7.141,-13.114 -7.75,0 0,24.532 7.16,0 0,-13.409 0.07,0 7.52,13.409 7.36,0 0,-24.532 -7.15,0 0,13.114 m 23,5.883 c -3.52,0 -4.66,-3.422 -4.66,-6.731 0,-3.298 1.141,-6.741 4.66,-6.741 3.131,0 3.82,2.719 3.96,3.611 l 7.36,0 c -0.66,-6.149 -4.36,-9.688 -11.11,-9.724 -7.55,0 -12.439,5.121 -12.439,12.854 0,7.254 4.51,12.844 12.439,12.844 7.19,0 11.21,-5.256 11.21,-10.195 l -7.42,0 c -0.449,2.303 -1.449,4.082 -4,4.082 z M 60.317,24.583 c 0,-5.343 -3.227,-8.281 -9.088,-8.281 l -12.528,0 0,24.532 7.421,0 c 0,0 0,-7.185 0,-8.334 l 2.603,0 c 0.343,0.646 4.288,8.334 4.288,8.334 l 8.033,0 c 0,0 -4.545,-8.472 -5.212,-9.653 2.743,-1.116 4.483,-3.622 4.483,-6.598 z m -9.569,2.271 c 0,0 -3.605,0 -4.626,0 l 0,-4.903 c 1.021,0 4.626,0 4.626,0 1.619,0 2.41,0.801 2.41,2.442 0,1.643 -0.791,2.461 -2.41,2.461 z m 112.198,-4.844 0,-5.73 -20.26,0 0,24.555 20.26,0 0,-5.732 -12.21,0 0,-3.685 10.13,0 0,-5.714 -10.13,0 0,-3.694 12.21,0 z m -146.511,18.824 8.047,0 0,-8.311 8.813,0 0,-5.734 -8.813,0 0,-4.779 11.064,0 0,-5.73 -19.111,0 0,24.554 z m 54.55,-24.532 -8.79,24.532 7.867,0 0.923,-3.258 7.985,0 0.958,3.258 8.008,0 -8.774,-24.532 -8.177,0 0,0 z m 1.525,16.173 2.495,-8.778 2.587,8.778 -5.082,0 z"
     id="path7"
     style="fill:#ffffff;stroke:none" /><path
     d="m 80.175,68.186 0,-22.442 -11.514,0 -18.402,21.404 0,9.02 -17.5,0 0,-0.06 c 7.584,-4.628 17.642,-7.859 17.642,-18.174 0,-8.545 -6.649,-12.653 -16.423,-12.653 -10.824,0 -17.7,6.358 -17.06,17.411 l 10.862,0 c -0.117,-4.923 1.455,-8.277 6.079,-8.277 2.714,0 4.858,1.275 4.858,4.923 0,2.948 -3.359,4.558 -5.435,5.837 -5.149,3.123 -10.928,6.197 -14.291,10.881 -1.963,2.715 -3.126,6.069 -2.888,9.946 l 34.88,0 0,-7.984 17.161,0 0,7.984 12.031,0 0,-7.984 5.441,0 0,-9.832 -5.441,0 m -12.031,0 -9.839,0 9.839,-11.282 0,11.282 z"
     id="path9"
     style="fill:#ffffff;stroke:none" /></g></svg>