<?xml version="1.0" encoding="UTF-8" standalone="no"?>
<!-- Created with Inkscape (http://www.inkscape.org/) -->

<svg
   xmlns:dc="http://purl.org/dc/elements/1.1/"
   xmlns:cc="http://creativecommons.org/ns#"
   xmlns:rdf="http://www.w3.org/1999/02/22-rdf-syntax-ns#"
   xmlns:svg="http://www.w3.org/2000/svg"
   xmlns="http://www.w3.org/2000/svg"
   xmlns:xlink="http://www.w3.org/1999/xlink"
   version="1.1"
   width="600"
   height="367.84836"
   id="svg209445">
  <defs
     id="defs209447">
    <clipPath
       id="clipPath5409">
      <path
         d="m 235.305,533.983 -21.512,-20.439 -24.124,25.392 21.512,20.438 24.124,-25.391"
         id="path5411" />
    </clipPath>
    <clipPath
       id="clipPath5415">
      <path
         d="m 210.311,523.109 -2.313,4.605 -2.931,-4.238 1.188,5.014 -4.969,-1.362 4.132,3.077 -4.682,2.151 5.144,-0.299 -2.204,4.657 3.748,-3.536 1.305,4.985 0.598,-5.118 4.204,2.98 -2.831,-4.306 5.135,-0.419 -4.936,-1.478 3.665,-3.623 -4.732,2.041 0.479,-5.131"
         id="path5417" />
    </clipPath>
    <clipPath
       id="clipPath5421">
      <path
         d="m 225.274,538.163 -33.954,0 0,-20.816 33.954,0 0,20.816 z"
         id="path5423" />
    </clipPath>
    <clipPath
       id="clipPath5427">
      <path
         d="m 191.32,538.163 33.96,0 0,-20.88 -33.96,0 0,20.88"
         id="path5429" />
    </clipPath>
    <clipPath
       id="clipPath5433">
      <path
         d="m 178.115,540.567 c 0,0 -4.252,0 -4.252,-4.252 l 0,-17.121 c 0,0 0,-4.252 4.252,-4.252 l 60.363,0 c 0,0 4.252,0 4.252,4.252 l 0,17.121 c 0,0 0,4.252 -4.252,4.252 l -60.363,0"
         id="path5435" />
    </clipPath>
    <clipPath
       id="clipPath5439">
      <path
         d="m 1142.36,745.512 -1150.864,0 0,-754.016 1150.864,0 0,754.016 z"
         id="path5441" />
    </clipPath>
    <radialGradient
       cx="0"
       cy="0"
       r="1"
       fx="0"
       fy="0"
       id="radialGradient5451"
       gradientUnits="userSpaceOnUse"
       gradientTransform="matrix(10.757,10.22,12.063,-12.696,212.487,536.459)"
       spreadMethod="pad">
      <stop
         id="stop5453"
         style="stop-color:#ffee00;stop-opacity:1"
         offset="0" />
      <stop
         id="stop5455"
         style="stop-color:#e89f00;stop-opacity:1"
         offset="1" />
    </radialGradient>
    <radialGradient
       cx="0"
       cy="0"
       r="1"
       fx="0"
       fy="0"
       id="radialGradient209580"
       xlink:href="#radialGradient5451"
       gradientUnits="userSpaceOnUse"
       gradientTransform="matrix(10.757,10.22,12.063,-12.696,212.487,536.459)"
       spreadMethod="pad" />
  </defs>
  <metadata
     id="metadata209450">
    <rdf:RDF>
      <cc:Work
         rdf:about="">
        <dc:format>image/svg+xml</dc:format>
        <dc:type
           rdf:resource="http://purl.org/dc/dcmitype/StillImage" />
        <dc:title></dc:title>
      </cc:Work>
    </rdf:RDF>
  </metadata>
  <g
     transform="translate(-50.000001,-348.43798)"
     id="layer1">
    <g
       transform="translate(-1.1207445e-6,-1.7046914e-6)"
       id="g209548">
      <g
         transform="matrix(17.671402,0,0,-17.671402,149.06588,685.00795)"
         id="g5365">
        <path
           d="m 0,0 c 0,-0.417 0.331,-0.804 0.739,-0.804 0.408,0 0.739,0.387 0.739,0.804 0,0.417 -0.331,0.705 -0.739,0.705 C 0.331,0.705 0,0.417 0,0 z m -1.062,0 c 0,0.978 0.807,1.77 1.802,1.77 0.995,0 1.801,-0.792 1.801,-1.77 0,-0.977 -0.806,-1.77 -1.801,-1.77 -0.995,0 -1.802,0.793 -1.802,1.77"
           id="path5367"
           style="fill:#005a9f;fill-opacity:1;fill-rule:nonzero;stroke:none" />
      </g>
      <g
         transform="matrix(17.671402,0,0,-17.671402,432.17941,701.28331)"
         id="g5369">
        <path
           d="M 0,0 C 0.281,0.012 0.509,0.142 0.509,0.318 0.509,0.493 0.281,0.621 0,0.628 -0.282,0.635 -0.509,0.528 -0.509,0.318 -0.509,0.091 -0.282,-0.012 0,0 z m 1.504,-0.541 0,-0.167 C 1.504,-0.758 1.463,-0.8 1.412,-0.8 l -0.09,0 -0.655,-0.001 c -0.102,0 -0.106,0.071 -0.105,0.09 -0.006,0.05 -0.058,0.086 -0.115,0.041 -0.103,-0.087 -0.293,-0.179 -0.631,-0.179 -0.848,0 -1.347,0.396 -1.347,1.197 0,0.703 0.703,1.077 1.347,1.077 0.294,0 0.368,-0.009 0.523,-0.034 0,0 0.199,-0.031 0.199,0.109 0,0.059 -0.085,0.229 -0.47,0.238 -0.821,0.019 -1.078,-0.259 -1.245,-0.259 -0.083,0 -0.083,0.108 -0.083,0.108 l 0,0.703 c 0,0.128 0.107,0.163 0.107,0.163 0,0 0.526,0.238 1.234,0.238 1.417,0 1.423,-0.876 1.423,-0.876 l 0,-2.356"
           id="path5371"
           style="fill:#005a9f;fill-opacity:1;fill-rule:nonzero;stroke:none" />
      </g>
      <g
         transform="matrix(17.671402,0,0,-17.671402,578.03916,649.98323)"
         id="g5373">
        <path
           d="M 0,0 -0.803,-0.001 -1.14,0 c -0.051,0 -0.093,-0.042 -0.093,-0.093 l 0,-0.345 0.001,-2.84 0.002,-0.333 c 0,-0.051 -0.041,-0.093 -0.092,-0.093 l -0.124,0 -0.359,0 -0.358,0 -0.12,0 c -0.051,0 -0.092,0.042 -0.092,0.093 l 0,0.112 -0.002,3.044 10e-4,0.362 C -2.376,-0.042 -2.417,0 -2.468,0 L -2.791,0 -3.278,-0.002 -3.425,0 c -0.051,0 -0.093,0.041 -0.093,0.092 l 0,0.925 c 0,0.051 0.042,0.093 0.093,0.093 l 4.015,0 0.7,-0.002 0.113,0 c 0.051,0 0.101,-0.041 0.113,-0.092 L 1.532,0.94 1.71,0.092 2.11,-1.817 c 0.01,-0.06 0.044,-0.117 0.104,-0.115 0.059,0.002 0.085,0.058 0.098,0.115 L 2.892,0.94 2.908,1.016 C 2.92,1.067 2.97,1.108 3.021,1.108 l 0.977,0 c 0.051,0 0.083,-0.041 0.072,-0.092 L 3.867,0.092 3.254,-2.689 3.082,-3.474 3.066,-3.541 C 3.048,-3.62 2.969,-3.705 2.873,-3.705 l -1.322,0 c -0.096,0 -0.175,0.085 -0.193,0.164 L 1.346,-3.489 1.17,-2.689 0.579,0 0,0"
           id="path5375"
           style="fill:#005a9f;fill-opacity:1;fill-rule:nonzero;stroke:none" />
      </g>
      <g
         transform="matrix(17.671402,0,0,-17.671402,351.98658,634.87418)"
         id="g5377">
        <path
           d="m 0,0 -0.001,-0.71 c 0,-0.111 -0.089,-0.118 -0.161,-0.1 -0.217,0.056 -0.384,0.078 -0.619,0.078 -0.174,0.001 -0.447,-0.057 -0.447,-0.316 0,-0.179 0.137,-0.297 0.137,-0.297 0,0 0.761,-0.629 0.852,-0.709 0.091,-0.081 0.447,-0.421 0.447,-1.028 0,-1.356 -1.201,-1.525 -1.696,-1.525 -0.396,0 -0.693,0.089 -0.8,0.136 -0.107,0.048 -0.116,0.095 -0.116,0.157 0,0.061 0.007,0.7 0.007,0.871 0,0.133 0.097,0.125 0.155,0.117 0.13,-0.018 0.464,-0.147 0.768,-0.132 0.077,0.005 0.131,0.007 0.196,0.022 0.157,0.037 0.297,0.119 0.297,0.347 0,0.228 -0.218,0.395 -0.218,0.395 0,0 -0.747,0.621 -0.834,0.708 -0.086,0.086 -0.408,0.414 -0.408,1.083 0,1.164 1.232,1.204 1.609,1.204 0.378,0 0.619,-0.081 0.713,-0.114 C 0.002,0.146 0,0.048 0,0"
           id="path5379"
           style="fill:#005a9f;fill-opacity:1;fill-rule:nonzero;stroke:none" />
      </g>
      <g
         transform="matrix(17.671402,0,0,-17.671402,104.30422,694.19708)"
         id="g5381">
        <path
           d="M 0,0 0,0.159 0,0.495 0.001,0.598 0,0.764 c 0,0.04 -0.032,0.071 -0.072,0.071 l -0.308,0 -0.096,0 c -0.051,0 -0.092,0.041 -0.092,0.092 l 0,0.124 -0.001,0.577 0.001,0.144 c 0,0.051 0.041,0.092 0.092,0.092 l 0.116,0 1.119,0.002 0.146,-0.002 c 0.051,0 0.093,-0.041 0.093,-0.092 l 0,-0.845 -0.002,-0.998 0,-0.622 0.002,-0.416 c 0,-0.05 -0.042,-0.092 -0.093,-0.092 l -0.123,0 -0.198,-10e-4 -1.135,0 c -0.026,0 -0.05,0.004 -0.073,0.011 -1.365,0.121 -2.449,1.176 -2.449,2.754 0,1.207 0.957,2.094 2.418,2.094 0.502,0 0.818,-0.038 1.18,-0.106 C 0.774,3.504 0.86,3.458 0.86,3.272 l 0,-0.674 c 0,-0.131 -0.103,-0.151 -0.231,-0.125 0,0 -0.651,0.143 -1.077,0.143 0,0 -1.449,0.105 -1.449,-1.164 0,-1.325 1.152,-1.523 1.517,-1.523 l 0.308,0 C -0.032,-0.071 0,-0.039 0,0"
           id="path5383"
           style="fill:#005a9f;fill-opacity:1;fill-rule:nonzero;stroke:none" />
      </g>
      <g
         transform="matrix(17.671402,0,0,-17.671402,493.51684,710.06599)"
         id="g5385">
        <path
           d="m 0,0 0,-0.211 c 0,-0.051 -0.041,-0.092 -0.092,-0.092 l -0.122,0 -0.107,-0.001 -0.475,0 -0.15,0.001 c -0.052,0 -0.093,0.041 -0.093,0.092 l 0,0.144 c 0,0.981 0,1.961 0,2.942 l 0,0.147 c 0,0.051 0.041,0.093 0.093,0.093 l 0.826,0 c 0.051,0 0.092,-0.042 0.092,-0.093 l 0,-0.106 0.001,-0.041 c 0,0 0.009,-0.069 0.073,-0.069 0.044,0 0.084,0.054 0.084,0.054 0,0 0.211,0.283 0.523,0.283 0.167,0 0.301,-0.015 0.301,-0.113 l 0,-1.057 C 0.954,1.922 0.912,1.88 0.861,1.88 l -0.076,0 C 0.081,1.88 0.007,1.317 0,1.213 L 0,0"
           id="path5387"
           style="fill:#005a9f;fill-opacity:1;fill-rule:nonzero;stroke:none" />
      </g>
      <g
         transform="matrix(17.671402,0,0,-17.671402,478.23108,715.42043)"
         id="g5389">
        <path
           d="M 0,0 -0.023,-0.001 0,0"
           id="path5391"
           style="fill:#005a9f;fill-opacity:1;fill-rule:nonzero;stroke:none" />
      </g>
      <g
         transform="matrix(17.671402,0,0,-17.671402,362.39504,656.69836)"
         id="g5393">
        <path
           d="M 0,0 C 0,0.051 0.042,0.093 0.092,0.093 L 0.135,0.092 c 0.078,0 0.117,0.04 0.117,0.088 l 0,0.64 c 0,0.051 0.041,0.092 0.092,0.092 l 0.12,0 0.589,0.002 0.146,-0.002 c 0.051,0 0.093,-0.041 0.093,-0.092 l 0,-0.64 c 0,-0.048 0.039,-0.088 0.088,-0.088 l 0.258,0 0.044,0.001 C 1.733,0.093 1.775,0.051 1.775,0 l 0,-0.741 c 0,-0.051 -0.042,-0.092 -0.093,-0.092 l -0.316,0 C 1.324,-0.839 1.292,-0.876 1.292,-0.92 l -0.001,-1.2 c 0.012,-0.078 0.058,-0.177 0.176,-0.177 l 0.072,0 0.045,0 c 0.051,0 0.092,-0.042 0.092,-0.093 l 0,-0.842 c 0,-0.051 -0.041,-0.093 -0.092,-0.093 l -0.59,0 c -0.366,0 -0.742,0 -0.742,0.985 l 0,1.42 c 0,0.044 -0.033,0.081 -0.075,0.087 l -0.085,0 C 0.042,-0.833 0,-0.792 0,-0.741 L -0.001,-0.044 0,0"
           id="path5395"
           style="fill:#005a9f;fill-opacity:1;fill-rule:nonzero;stroke:none" />
      </g>
      <g
         transform="matrix(17.671402,0,0,-17.671402,202.39817,632.02908)"
         id="g5397">
        <path
           d="m 0,0 c 0,0.051 0.041,0.093 0.092,0.093 l 0.932,0 C 1.075,0.093 1.116,0.051 1.116,0 l 10e-4,-0.146 0,-4.337 -10e-4,-0.144 c 0,-0.051 -0.041,-0.093 -0.092,-0.093 l -0.122,0 L 0.238,-4.721 0.092,-4.72 C 0.041,-4.72 0,-4.678 0,-4.627 L 0,-4.229 0,-0.407 0,0"
           id="path5399"
           style="fill:#005a9f;fill-opacity:1;fill-rule:nonzero;stroke:none" />
      </g>
      <g
         transform="matrix(17.671402,0,0,-17.671402,264.42479,698.68561)"
         id="g5401">
        <path
           d="M 0,0 C 0.517,0 0.731,0.316 0.731,0.754 0.731,1.17 0.508,1.507 0,1.507 -0.55,1.507 -0.824,1.188 -0.823,0.753 -0.823,0.318 -0.552,0 0,0 z m 1.779,-0.71 0,-0.144 c 0,-0.051 -0.041,-0.093 -0.092,-0.093 l -0.122,0 -0.664,-0.001 -0.146,0.001 c -0.051,0 -0.092,0.042 -0.092,0.093 l 0,0.055 c -0.294,-0.126 -0.56,-0.197 -0.842,-0.197 -1.108,0 -1.672,0.793 -1.672,1.77 0,0.978 0.564,1.77 1.672,1.77 0.25,0 0.487,-0.072 0.701,-0.193 0.011,-0.004 0.024,-0.007 0.037,-0.007 0.057,0 0.104,0.046 0.104,0.103 l 0,0.927 0,0.253 0,0.146 c 0,0.051 0.041,0.092 0.092,0.092 l 0.932,0 c 0.051,0 0.092,-0.041 0.092,-0.092 l 0,-0.146 0,-4.337"
           id="path5403"
           style="fill:#005a9f;fill-opacity:1;fill-rule:nonzero;stroke:none" />
      </g>
      <g
         transform="matrix(17.671402,0,0,-17.671402,-3330.8926,9858.5327)"
         id="g5405">
        <g
           clip-path="url(#clipPath5409)"
           id="g5407">
          <g
             clip-path="url(#clipPath5415)"
             id="g5413">
            <g
               clip-path="url(#clipPath5421)"
               id="g5419">
              <g
                 clip-path="url(#clipPath5427)"
                 id="g5425">
                <g
                   clip-path="url(#clipPath5433)"
                   id="g5431">
                  <g
                     clip-path="url(#clipPath5439)"
                     id="g5437">
                    <g
                       id="g5443">
                      <g
                         id="g5449">
                        <path
                           d="m 0.015015,737.01 1133.849985,0 0,-737.01 -1133.849985,0 0,737.01 z"
                           id="path5457"
                           style="fill:url(#radialGradient209580);stroke:none" />
                      </g>
                    </g>
                  </g>
                </g>
              </g>
            </g>
          </g>
        </g>
      </g>
    </g>
  </g>
</svg>
