<?xml version="1.0" encoding="UTF-8" standalone="no"?>
<!-- Created with Inkscape (http://www.inkscape.org/) -->
<svg xmlns:rdf="http://www.w3.org/1999/02/22-rdf-syntax-ns#" xmlns="http://www.w3.org/2000/svg" height="231.84" width="600" version="1.1" xmlns:cc="http://creativecommons.org/ns#" xmlns:xlink="http://www.w3.org/1999/xlink" xmlns:dc="http://purl.org/dc/elements/1.1/">
 <defs>
  <radialGradient id="radialGradient4717" gradientUnits="userSpaceOnUse" cy="-63.573" cx="399.39" gradientTransform="matrix(-1.1342008,0,0,-0.06713845,844.34874,-70.286628)" r="108.31">
   <stop stop-color="#000" stop-opacity="0.8125" offset="0"/>
   <stop stop-color="#000" stop-opacity="0" offset="1"/>
  </radialGradient>
  <linearGradient id="linearGradient3018" y2="542.33" gradientUnits="userSpaceOnUse" x2="422.72" gradientTransform="matrix(3.656265,0,0,3.656265,-871.81273,-1727.2116)" y1="542.33" x1="266.37">
   <stop stop-color="#d3a11a" offset="0"/>
   <stop stop-color="#f3c000" offset="0.20066"/>
   <stop stop-color="#ffd309" offset="0.40131"/>
   <stop stop-color="#ffd92c" offset="0.6046"/>
   <stop stop-color="#fcd738" offset="0.80208"/>
   <stop stop-color="#f3ca20" offset="1"/>
  </linearGradient>
  <linearGradient id="linearGradient3015" y2="-102.56" gradientUnits="userSpaceOnUse" x2="463.03" gradientTransform="matrix(2.6308625,0,0,2.6308625,-653.06791,576.13159)" y1="-102.56" x1="302.11">
   <stop stop-color="#0f0f0f" offset="0"/>
   <stop stop-color="#2c2c2c" offset="0.70131"/>
   <stop stop-color="#1e1e1e" offset="1"/>
  </linearGradient>
  <linearGradient id="linearGradient3060" y2="-106.25" gradientUnits="userSpaceOnUse" y1="-102.72" gradientTransform="matrix(2.6308625,0,0,2.6308625,-653.06791,576.13159)" x2="479.76" x1="485.33">
   <stop stop-color="#000" stop-opacity="0" offset="0"/>
   <stop stop-color="#1e1e1e" offset="1"/>
  </linearGradient>
 </defs>
 <metadata>
  <rdf:RDF>
   <cc:Work rdf:about="">
    <dc:format>image/svg+xml</dc:format>
    <dc:type rdf:resource="http://purl.org/dc/dcmitype/StillImage"/>
    <dc:title/>
   </cc:Work>
  </rdf:RDF>
 </metadata>
 <g transform="translate(-93.303574,-203.63731)">
  <path d="m679.18,211.94,14.127,14.127-42.58,158.91-97.873-56.507,17.742-66.215z" fill-opacity="0.52156863" fill-rule="evenodd" fill="url(#linearGradient3060)"/>
  <path d="m503.94-65.865c0,6.3254-48.491,11.453-108.31,11.453-59.816,0-108.31-5.1277-108.31-11.453,0-6.3254,48.491-11.453,108.31-11.453,59.816,0,108.31,5.1277,108.31,11.453z" fill-rule="evenodd" transform="matrix(2.7036645,0,0,2.848589,-683.14973,590.47209)" fill="url(#radialGradient4717)"/>
  <rect fill-rule="evenodd" rx="6.9952" ry="6.9952" height="210.37" width="13.99" y="203.64" x="93.304" fill="#040404"/>
  <path fill="url(#linearGradient3018)" d="m100.75,405.72,578.47,0-80.437-95.064,80.437-98.72c-158.63-1.2707-459.1-2.7079-578.47,0.001z"/>
  <path fill="url(#linearGradient3015)" d="m193.99,257.3c-7.6353,0.00012-14.654,1.3088-21.047,4.0285-6.3932,2.7199-11.932,6.4581-16.607,11.181-4.6752,4.7233-8.3109,10.192-10.935,16.443-2.6237,6.2505-3.9463,12.988-3.9463,20.142v0.329c0,7.4428,1.2885,14.256,3.8641,20.553,2.5757,6.2973,6.1415,11.78,10.77,16.361,4.6285,4.5806,10.167,8.1123,16.607,10.688,6.4398,2.5753,13.551,3.864,21.376,3.864,9.161,0,17.31-1.5028,24.418-4.6041,7.1079-3.1012,13.262-6.8749,18.416-11.263v-43.491h-43.491v18.991h22.198v14.305c-5.6318,4.0097-12.594,6.0838-20.8,6.0838-4.4844,0-8.5766-0.8088-12.25-2.3843-3.6735-1.5753-6.8171-3.7969-9.5369-6.6593-2.7198-2.8625-4.8513-6.2483-6.3305-10.112-1.4793-3.864-2.2199-8.0805-2.2198-12.661v-0.2465c-0.00006-4.295,0.74052-8.3982,2.2198-12.168,1.4792-3.7694,3.5423-7.0512,6.166-9.8659,2.6236-2.8141,5.643-4.9892,9.1258-6.6593,3.4826-1.6701,7.2536-2.5485,11.263-2.5485,2.8624,0,5.5076,0.26188,7.8926,0.73972,2.3847,0.47754,4.6078,1.1144,6.6593,1.9733,2.0514,0.85895,4.0106,1.8836,5.9194,3.124,1.9087,1.2407,3.7654,2.7355,5.6728,4.3576l13.894-16.772c-2.5772-2.1956-5.207-4.1206-7.9748-5.8372-2.7679-1.7165-5.7315-3.2114-8.8792-4.3574-3.1479-1.1458-6.6034-2.0104-10.277-2.6308-3.6735-0.62012-7.6834-0.90424-12.168-0.90436zm112.96,0c-7.7284,0.00012-14.922,1.3088-21.458,4.0285-6.5359,2.7199-12.131,6.4581-16.854,11.181-4.7232,4.7233-8.4273,10.192-11.099,16.443-2.6717,6.2505-4.0285,12.988-4.0285,20.142v0.329c0,7.1547,1.3226,13.81,3.9463,20.06,2.6236,6.2505,6.2936,11.734,11.017,16.361,4.7232,4.6271,10.366,8.2971,16.854,11.017,6.4879,2.7197,13.562,4.0285,21.294,4.0285,7.7282,0,14.84-1.3088,21.376-4.0285,6.5358-2.7198,12.213-6.4582,16.936-11.182,4.7231-4.7229,8.4271-10.194,11.099-16.443,2.6716-6.2492,3.9462-12.985,3.9463-20.143v-0.2465c-0.00006-7.1575-1.2405-13.892-3.8641-20.142-2.6238-6.2505-6.2937-11.651-11.017-16.278s-10.365-8.379-16.854-11.099c-6.4893-2.7197-13.565-4.0284-21.294-4.0285zm72.595,1.7265,0,100.14,72.02,0,0-19.978-49.986,0,0-80.159-22.033,0zm93.231,0,0,100.14,39.052,0c7.8243,0,15.004-1.2884,21.54-3.8644,6.5358-2.5753,12.131-6.0372,16.854-10.523,4.7232-4.4857,8.3574-9.8431,10.935-15.95,2.577-6.1063,3.864-12.67,3.8641-19.731v-0.2465c-0.00012-7.0614-1.2871-13.671-3.8641-19.731-2.5772-6.0598-6.2114-11.301-10.935-15.785-4.7233-4.4844-10.318-7.9944-16.854-10.523-6.5359-2.529-13.716-3.7818-21.54-3.7819h-39.052zm-166.15,18.58c4.3882,0,8.4461,0.87867,12.168,2.5488,3.7214,1.6698,6.9814,3.8791,9.7013,6.7416,2.7197,2.8624,4.7704,6.2126,6.2483,10.03,1.4777,3.8175,2.2196,7.8756,2.2198,12.168v0.329c-0.00012,4.2923-0.74206,8.3159-2.2198,12.085-1.4779,3.7697-3.5411,7.0857-6.1661,9.9481-2.6252,2.8624-5.7332,5.0372-9.4546,6.6593-3.7216,1.6221-7.7795,2.4665-12.168,2.4665-4.4845,0-8.5766-0.7964-12.25-2.4665s-6.8994-3.9614-9.6191-6.8238c-2.7198-2.8625-4.8512-6.2141-6.3305-10.03-1.4792-3.8163-2.2198-7.8726-2.2198-12.168v-0.2465c0-4.295,0.74055-8.3982,2.2198-12.168,1.4793-3.7694,3.5424-7.0854,6.1661-9.9481,2.6237-2.8621,5.7797-5.0372,9.4546-6.6593,3.6749-1.6218,7.7655-2.4662,12.25-2.4662zm188.19,1.3155,17.018,0c4.4844,0,8.5285,0.74064,12.25,2.2198,3.7214,1.4791,6.9131,3.4943,9.5369,6.166,2.6236,2.6717,4.6867,5.8977,6.1661,9.6191,1.4792,3.7217,2.2196,7.7795,2.2197,12.168v0.329c-0.00013,4.4845-0.74052,8.5423-2.2197,12.168-1.4793,3.6253-3.5425,6.7009-6.1661,9.3726-2.6238,2.6718-5.8155,4.7347-9.5369,6.1661-3.7215,1.4311-7.7656,2.1375-12.25,2.1375h-17.018v-60.345z"/>
 </g>
</svg>
