<?xml version="1.0" encoding="UTF-8" standalone="no"?>
<!-- Created with Inkscape (http://www.inkscape.org/) -->

<svg
   xmlns:dc="http://purl.org/dc/elements/1.1/"
   xmlns:cc="http://creativecommons.org/ns#"
   xmlns:rdf="http://www.w3.org/1999/02/22-rdf-syntax-ns#"
   xmlns:svg="http://www.w3.org/2000/svg"
   xmlns="http://www.w3.org/2000/svg"
   xmlns:inkscape="http://www.inkscape.org/namespaces/inkscape"
   version="1.1"
   width="422"
   height="174"
   id="svg2">
  <metadata
     id="metadata13">
    <rdf:RDF>
      <cc:Work
         rdf:about="">
        <dc:format>image/svg+xml</dc:format>
        <dc:type
           rdf:resource="http://purl.org/dc/dcmitype/StillImage" />
      </cc:Work>
    </rdf:RDF>
  </metadata>
  <defs
     id="defs11" />
  <path
     d="m 206,1.8 c 13,0 50,7.1 50,43.5 0,29.3 -14,38 -25,40 -8,1.5 23,0 23,36.7 0,52 -45,50 -45,50 l -75,0 0,-170.2 z m -30,41.5 0,25.7 25,0 c 0,0 10,-1.2 10,-13.5 0,-12.3 -10,-12.2 -10,-12.2 z m 0,62.7 0,26 25,0 c 0,0 10,-1 10,-14 0,-12 -10,-12 -10,-12 z M 0,1.8 0,172 l 47,0 0,-63 30,0 0,63 47,0 0,-170.2 -47,0 0,64.2 -30,0 0,-64.2 z"
     inkscape:connector-curvature="0"
     id="path3"
     style="fill-rule:nonzero" />
  <circle
     cx="335"
     cy="87"
     r="65"
     id="circle5"
     style="fill:none;stroke:#000000;stroke-width:44" />
  <circle
     cx="335"
     cy="87"
     r="35"
     id="circle7"
     style="fill:#000000" />
</svg>
