<?xml version="1.0" encoding="UTF-8" standalone="no"?>
<!-- Created with Inkscape (http://www.inkscape.org/) -->

<svg
   xmlns:dc="http://purl.org/dc/elements/1.1/"
   xmlns:cc="http://creativecommons.org/ns#"
   xmlns:rdf="http://www.w3.org/1999/02/22-rdf-syntax-ns#"
   xmlns:svg="http://www.w3.org/2000/svg"
   xmlns="http://www.w3.org/2000/svg"
   version="1.1"
   width="726.99957"
   height="232.9919"
   id="svg2">
  <metadata
     id="metadata37">
    <rdf:RDF>
      <cc:Work
         rdf:about="">
        <dc:format>image/svg+xml</dc:format>
        <dc:type
           rdf:resource="http://purl.org/dc/dcmitype/StillImage" />
        <dc:title></dc:title>
      </cc:Work>
    </rdf:RDF>
  </metadata>
  <defs
     id="defs35" />
  <g
     transform="translate(-177.91959,-442.91589)"
     id="layer1">
    <path
       d="m 237.19995,672.62675 -59.28036,0 0,-222.56405 59.28036,0 0,83.7881 42.23726,0 0,-83.7881 58.53936,0 0,222.56405 -58.53936,0 0,-86.58307 -42.23726,0"
       id="path8035"
       style="fill:#000000;fill-rule:evenodd;stroke:none" />
    <path
       d="m 439.8647,535.6736 -30.89989,0 0,-34.32942 31.4927,0 c 7.18774,0.0608 14.07908,8.62793 14.07908,17.13433 0,8.68869 -6.74314,17.19509 -14.67189,17.19509 m 1.18561,84.76027 -31.7891,0 0,-34.32943 29.26968,0 c 9.11436,-0.12152 16.0057,8.20261 16.0057,17.31662 0,8.32412 -4.96473,16.83053 -13.48628,17.01281 m 36.60562,-59.05877 c 21.04453,-4.67852 36.75383,-23.39261 36.75383,-45.81307 0,-39.12947 -22.52654,-65.49933 -59.94727,-65.49933 l -104.55574,0.0608 0,222.56405 103.37013,-0.0608 c 0.51871,0.0608 0.96331,0.0608 1.48201,0.0608 37.42073,0 59.94727,-26.36986 59.94727,-65.43857 0,-22.54198 -15.85749,-41.31683 -37.05023,-45.87384"
       id="path8037"
       style="fill:#000000;fill-rule:evenodd;stroke:none" />
    <path
       d="m 614.22308,616.66674 c -31.3445,0 -56.68685,-25.39769 -56.68685,-56.68912 0,-31.35218 25.34235,-56.74988 56.68685,-56.74988 31.34449,0 56.68685,25.3977 56.68685,56.74988 0,31.29143 -25.34236,56.68912 -56.68685,56.68912 m 0,-172.61928 c -64.0228,0 -115.89312,51.88908 -115.89312,115.93016 0,63.98033 51.87032,115.93017 115.89312,115.93017 64.02279,0 115.89311,-51.94984 115.89311,-115.93017 0,-64.04108 -51.87032,-115.93016 -115.89311,-115.93016"
       id="path8039"
       style="fill:#000000;fill-rule:evenodd;stroke:none" />
    <path
       d="m 614.22308,515.50127 c -24.60135,0 -44.46028,19.92929 -44.46028,44.47635 0,24.54706 19.85893,44.47636 44.46028,44.47636 24.52725,0 44.46027,-19.9293 44.46027,-44.47636 0,-24.54706 -19.93302,-44.47635 -44.46027,-44.47635"
       id="path8041"
       style="fill:#000000;fill-rule:evenodd;stroke:none" />
    <path
       d="m 904.91917,616.36294 c -17.93231,0 -48.7581,0 -60.16957,0 9.48486,-12.09124 39.49554,-50.24855 39.49554,-50.24855 10.81867,-13.79253 16.3021,-29.46862 16.3021,-46.5422 0,-21.14449 -7.92875,-39.43327 -23.41574,-54.25872 -15.487,-14.82545 -34.90132,-23.02805 -56.53865,-22.35969 -16.969,0.54684 -32.7524,5.65068 -46.38689,15.31153 -14.30138,10.0254 -28.82507,29.3471 -31.71499,56.44608 l -0.66691,5.65068 55.50125,-0.18228 0.741,-4.19244 c 0.81511,-5.1646 3.40862,-9.35705 7.70645,-12.82037 4.37193,-3.52408 9.26256,-5.22536 14.96829,-5.22536 6.59494,0 11.93017,2.1266 16.5244,6.44056 4.44603,4.2532 6.59494,9.23553 6.59494,15.25077 0,4.80005 -1.63021,9.11401 -5.03883,13.30645 -0.0741,0.0608 -108.85357,138.41139 -108.85357,138.41139 l 142.86568,0 32.0855,0.18228"
       id="path8043"
       style="fill:#811e7b;fill-opacity:1;fill-rule:nonzero;stroke:none" />
  </g>
</svg>
