<?xml version="1.0" encoding="UTF-8" standalone="no"?>
<!-- Created with Inkscape (http://www.inkscape.org/) -->
<svg xmlns:rdf="http://www.w3.org/1999/02/22-rdf-syntax-ns#" xmlns="http://www.w3.org/2000/svg" height="381.96" width="600" version="1.1" xmlns:cc="http://creativecommons.org/ns#" xmlns:dc="http://purl.org/dc/elements/1.1/">
 <metadata>
  <rdf:RDF>
   <cc:Work rdf:about="">
    <dc:format>image/svg+xml</dc:format>
    <dc:type rdf:resource="http://purl.org/dc/dcmitype/StillImage"/>
    <dc:title/>
   </cc:Work>
  </rdf:RDF>
 </metadata>
 <g transform="scale(1.8184401,1.8184401)">
  <path d="m155.97,54.566-17.846,0,0-20.413,18.184,0c4.1802,0.02122,8.18,5.1139,8.18,10.175,0,5.1882-3.9149,10.238-8.5195,10.238m0.70024,50.501-18.408,0,0-20.445,16.965,0c5.2624-0.06366,9.2622,4.891,9.2622,10.334,0,4.9228-2.8964,9.9943-7.8193,10.111m21.187-35.182c12.158-2.7797,21.251-13.941,21.251-27.298,0-23.299-13.018-39.001-34.661-39.001l-60.518,0.021221v132.59l59.817-0.0212c0.28646,0.0212,0.57291,0.0318,0.85938,0.0318,21.644,0,34.662-15.702,34.662-38.98,0-13.421-9.1668-24.625-21.411-27.341" fill-rule="evenodd" fill="#000"/>
  <path d="m256.85,102.84c-18.122,0-32.805-15.129-32.805-33.791,0-18.652,14.683-33.781,32.805-33.781,18.132,0,32.815,15.129,32.815,33.781,0,18.662-14.683,33.791-32.815,33.791m0.01-102.84c-37.028,0-67.063,30.917-67.063,69.047,0,38.142,30.035,69.047,67.063,69.047,37.039,0,67.074-30.905,67.074-69.047,0-38.127-30.04-69.043-67.07-69.043" fill-rule="evenodd" fill="#000"/>
  <path d="m256.85,42.56c-14.206,0-25.728,11.861-25.728,26.482,0,14.641,11.522,26.492,25.728,26.492s25.728-11.851,25.728-26.492c0-14.62-11.522-26.482-25.728-26.482" fill-rule="evenodd" fill="#000"/>
  <path d="m321.7,19.873c3.8088,0,6.7477-3.098,6.7477-7.2039,0-4.021-2.9389-7.1509-6.7477-7.1509-3.8725,0-6.7902,3.1298-6.7902,7.1509,0,4.1059,2.9177,7.2039,6.7902,7.2039m0-15.628c4.4878,0,8.2544,3.6497,8.2544,8.424,0,4.8273-3.7664,8.477-8.2544,8.477-4.5091,0-8.2967-3.6497-8.2967-8.477,0-4.7743,3.7876-8.424,8.2967-8.424m-1.7931,7.8405,2.2599,0c1.5065,0,1.984-0.5517,1.984-1.6658,0-0.97609-0.70025-1.5277-1.6764-1.5277h-2.5676v3.1935zm0,5.4852-1.3686,0,0-9.8564,3.6497,0c2.2387,0,3.342,0.93365,3.342,2.7904,0,1.7825-1.1246,2.5357-2.5039,2.7161l2.7691,4.3499h-1.5385l-2.5782-4.3075h-1.7719v4.3075z" fill-rule="evenodd" fill="#000"/>
  <path d="m38.755,136.15-34.333,0,0-132.58,34.333,0,0,49.907,24.424,0,0-49.907,33.856,0,0,132.58-33.856,0,0-51.573-24.424,0" fill-rule="evenodd" fill="#000"/>
  <path d="m155.97,54.566-17.846,0,0-20.413,18.184,0c4.1802,0.02122,8.18,5.1139,8.18,10.175,0,5.1882-3.9149,10.238-8.5195,10.238m0.70024,50.501-18.408,0,0-20.445,16.965,0c5.2624-0.06366,9.2622,4.891,9.2622,10.334,0,4.9228-2.8964,9.9943-7.8193,10.111m21.187-35.182c12.158-2.7797,21.251-13.941,21.251-27.298,0-23.299-13.018-39.001-34.661-39.001l-60.518,0.021221v132.59l59.817-0.0212c0.28646,0.0212,0.57291,0.0318,0.85938,0.0318,21.644,0,34.662-15.702,34.662-38.98,0-13.421-9.1668-24.625-21.411-27.341" fill-rule="evenodd" fill="#000"/>
  <path d="m256.85,102.84c-18.122,0-32.805-15.129-32.805-33.791,0-18.652,14.683-33.781,32.805-33.781,18.132,0,32.815,15.129,32.815,33.781,0,18.662-14.683,33.791-32.815,33.791m0.01-102.84c-37.028,0-67.063,30.917-67.063,69.047,0,38.142,30.035,69.047,67.063,69.047,37.039,0,67.074-30.905,67.074-69.047,0-38.127-30.04-69.043-67.07-69.043" fill-rule="evenodd" fill="#000"/>
  <path d="m256.85,42.56c-14.206,0-25.728,11.861-25.728,26.482,0,14.641,11.522,26.492,25.728,26.492s25.728-11.851,25.728-26.492c0-14.62-11.522-26.482-25.728-26.482" fill-rule="evenodd" fill="#000"/>
  <path d="m321.7,19.873c3.8088,0,6.7477-3.098,6.7477-7.2039,0-4.021-2.9389-7.1509-6.7477-7.1509-3.8725,0-6.7902,3.1298-6.7902,7.1509,0,4.1059,2.9177,7.2039,6.7902,7.2039m0-15.628c4.4878,0,8.2544,3.6497,8.2544,8.424,0,4.8273-3.7664,8.477-8.2544,8.477-4.5091,0-8.2967-3.6497-8.2967-8.477,0-4.7743,3.7876-8.424,8.2967-8.424m-1.7931,7.8405,2.2599,0c1.5065,0,1.984-0.5517,1.984-1.6658,0-0.97609-0.70025-1.5277-1.6764-1.5277h-2.5676v3.1935zm0,5.4852-1.3686,0,0-9.8564,3.6497,0c2.2387,0,3.342,0.93365,3.342,2.7904,0,1.7825-1.1246,2.5357-2.5039,2.7161l2.7691,4.3499h-1.5385l-2.5782-4.3075h-1.7719v4.3075z" fill-rule="evenodd" fill="#000"/>
  <path d="m44.955,166.5c-6.2181-3.7267-11.554-5.3949-17.394-5.3949-11.512,0-20.083,8.4472-20.083,19.876,0,11.642,8.2768,19.734,20.419,19.734,5.672,0,11.89-2.0586,17.562-5.8563v8.1633c-4.9145,2.657-10.335,4.5366-18.233,4.5366-18.949,0-27.226-15.01-27.226-25.91,0-15.83,11.596-27.4,27.646-27.4,5.1677,0,10.419,1.2777,17.31,4.2591" fill-rule="nonzero" fill="#e97e16"/>
  <path d="m79.197,200.71c11.302,0,19.663-8.4473,19.663-19.805,0-11.428-8.3609-19.805-19.663-19.805-11.26,0-19.578,8.3762-19.578,19.805,0,11.357,8.3189,19.805,19.578,19.805zm0-46.46c16.638,0,27.141,12.174,27.141,26.655,0,14.019-10.21,26.655-27.267,26.655-16.512,0-26.931-12.565-26.931-26.655,0-14.41,10.714-26.655,27.057-26.655" fill-rule="nonzero" fill="#e97e16"/>
  <path d="m159.61,206.89-7.2684,0,0-40.462-0.12606,0-15.546,20.125-1.1764,0-15.546-20.125-0.12605,0,0,40.462-7.2684,0,0-51.961,6.8063,0,16.722,21.331,16.806-21.331,6.7223,0" fill-rule="nonzero" fill="#e97e16"/>
  <path d="m189.49,157.06-15.251,15.404,10.63,11.216,14.748-14.872,4.5375,4.7915-14.705,14.871,10.966,11.535,15.755-15.865,4.5376,4.7915-20.924,21.118-35.292-37.161,20.461-20.621" fill-rule="nonzero" fill="#ab4b1d"/>
  <path d="m232.29,200.18,11.512,0c16.427,0,20.209-12.884,20.209-19.272,0-10.435-6.4282-19.272-20.587-19.272h-11.134v38.545zm-7.2685-45.253,19.578,0c18.654,0,26.847,13.7,26.847,25.981,0,13.345-10.125,25.981-26.763,25.981h-19.663" fill-rule="nonzero" fill="#e97e16"/>
  <path d="m306.12,154.93,8.739,0-18.738,24.525,0,27.435-7.2264,0,0-27.507-18.738-24.454,8.739,0,13.528,17.924" fill-rule="nonzero" fill="#e97e16"/>
 </g>
</svg>
