<?xml version="1.0" encoding="UTF-8" standalone="no"?>
<!-- Created with Inkscape (http://www.inkscape.org/) -->

<svg
   xmlns:dc="http://purl.org/dc/elements/1.1/"
   xmlns:cc="http://creativecommons.org/ns#"
   xmlns:rdf="http://www.w3.org/1999/02/22-rdf-syntax-ns#"
   xmlns:svg="http://www.w3.org/2000/svg"
   xmlns="http://www.w3.org/2000/svg"
   version="1.1"
   width="571.6109"
   height="359.94247"
   id="svg2">
  <metadata
     id="metadata37">
    <rdf:RDF>
      <cc:Work
         rdf:about="">
        <dc:format>image/svg+xml</dc:format>
        <dc:type
           rdf:resource="http://purl.org/dc/dcmitype/StillImage" />
        <dc:title></dc:title>
      </cc:Work>
    </rdf:RDF>
  </metadata>
  <defs
     id="defs35" />
  <g
     transform="translate(-163.9146,1153.0303)"
     id="layer1">
    <path
       d="m 233.49493,-1008.4214 43.05236,0 0,88.16281 59.57677,0 0,-226.63501 -59.57677,0 0,85.3071 -43.05236,0 0,-85.3071 -60.39187,0 0,226.63501 60.39187,0"
       id="path8053"
       style="fill:#221e1f;fill-rule:evenodd;stroke:none" />
    <path
       d="m 439.8647,-1059.7029 -31.41859,0 0,-34.937 32.0114,0 c 7.33594,0.061 14.37548,8.7494 14.37548,17.4381 0,8.8102 -6.89134,17.4989 -14.96829,17.4989 m 1.25971,86.27927 -32.456,0 0,-34.93707 29.86248,0 c 9.26256,-0.061 16.3021,8.38493 16.3021,17.68121 0,8.44565 -5.11293,17.13434 -13.70858,17.25586 m 37.27253,-60.09167 c 21.41503,-4.7393 37.42073,-23.818 37.42073,-46.6637 0,-39.8586 -22.89704,-66.7146 -60.98468,-66.7146 l -106.55645,0.061 0,226.63497 105.29675,0 c 0.5187,0 0.9633,0.0608 1.48201,0.0608 38.16173,0 61.05877,-26.85594 61.05877,-66.65377 0,-22.9673 -16.228,-42.1068 -37.71713,-46.7245"
       id="path8055"
       style="fill:#221e1f;fill-rule:evenodd;stroke:none" />
    <path
       d="m 617.4835,-977.19076 c -31.9373,0 -57.79836,-25.88374 -57.79836,-57.78284 0,-31.899 25.86106,-57.722 57.79836,-57.722 31.86319,0 57.72425,25.823 57.72425,57.722 0,31.8991 -25.86106,57.78284 -57.72425,57.78284 m 0,-175.83954 c -65.2084,0 -118.11613,52.8612 -118.11613,118.0567 0,65.19557 52.90773,118.05681 118.11613,118.05681 65.1343,0 118.04203,-52.86124 118.04203,-118.05681 0,-65.1955 -52.90773,-118.0567 -118.04203,-118.0567"
       id="path8057"
       style="fill:#221e1f;fill-rule:evenodd;stroke:none" />
    <path
       d="m 617.4835,-1080.2398 c -25.04596,0 -45.34948,20.2939 -45.34948,45.2662 0,25.0332 20.30352,45.26628 45.34948,45.26628 24.97185,0 45.27538,-20.23308 45.27538,-45.26628 0,-24.9723 -20.30353,-45.2662 -45.27538,-45.2662"
       id="path8060"
       style="fill:#221e1f;fill-rule:evenodd;stroke:none" />
    <path
       d="m 243.20209,-867.64039 c -10.96687,-6.37981 -20.37763,-9.23553 -30.67759,-9.23553 -20.30353,0 -35.42002,14.46089 -35.42002,34.02562 0,19.9293 14.59779,33.78259 36.01282,33.78259 10.00357,0 20.97043,-3.52408 30.97399,-10.02541 l 0,13.97481 c -8.66975,4.55701 -18.22871,7.77729 -32.15959,7.77729 -33.41931,0 -48.0171,-25.7015 -48.0171,-44.35484 0,-27.09898 20.45173,-46.90675 48.7581,-46.90675 9.11436,0 18.37691,2.18736 30.52939,7.29121"
       id="path8062"
       style="fill:#e97e16;fill-rule:nonzero;stroke:none" />
    <path
       d="m 303.59396,-809.06771 c 19.93302,0 34.67902,-14.46089 34.67902,-33.90411 0,-19.56473 -14.746,-33.9041 -34.67902,-33.9041 -19.85892,0 -34.53081,14.33937 -34.53081,33.9041 0,19.44322 14.67189,33.90411 34.53081,33.90411 z m 0,-79.5349 c 29.34378,0 47.8689,20.8407 47.8689,45.63079 0,24.00022 -18.00641,45.6308 -48.0912,45.6308 -29.12148,0 -47.49839,-21.50906 -47.49839,-45.6308 0,-24.66857 18.89561,-45.63079 47.72069,-45.63079"
       id="path8064"
       style="fill:#e97e16;fill-rule:nonzero;stroke:none" />
    <path
       d="m 445.42224,-798.49546 -12.81938,0 0,-69.26645 -0.2223,0 -27.41717,34.45094 -2.07482,0 -27.41717,-34.45094 -0.2223,0 0,69.26645 -12.81938,0 0,-88.95271 12.00428,0 29.49198,36.51679 29.64018,-36.51679 11.85608,0"
       id="path8066"
       style="fill:#e97e16;fill-rule:nonzero;stroke:none" />
    <path
       d="m 498.10766,-883.80257 -26.89846,26.36986 18.74741,19.20018 26.00926,-25.45846 8.00285,8.2026 -25.93516,25.45846 19.34022,19.74702 27.78767,-27.15974 8.00285,8.2026 -36.90203,36.15223 -62.24438,-63.61577 36.08692,-35.30158"
       id="path8068"
       style="fill:#ab4b1d;fill-rule:nonzero;stroke:none" />
    <path
       d="m 573.61603,-809.97911 20.30352,0 c 28.97328,0 35.64232,-22.0559 35.64232,-32.99271 0,-17.86345 -11.33737,-32.9927 -36.30922,-32.9927 l -19.63662,0 0,65.98541 z m -12.81938,-77.46906 34.53081,0 c 32.9006,0 47.35019,23.45338 47.35019,44.47635 0,22.84578 -17.85821,44.47636 -47.20199,44.47636 l -34.67901,0"
       id="path8070"
       style="fill:#e97e16;fill-rule:nonzero;stroke:none" />
    <path
       d="m 703.81053,-887.44817 15.41289,0 -33.0488,41.98519 0,46.96752 -12.74528,0 0,-47.08904 -33.0488,-41.86367 15.41289,0 23.86035,30.68382"
       id="path8072"
       style="fill:#e97e16;fill-rule:nonzero;stroke:none" />
  </g>
</svg>
