<?xml version="1.0" encoding="UTF-8" standalone="no"?>
<svg xmlns:rdf="http://www.w3.org/1999/02/22-rdf-syntax-ns#" xmlns="http://www.w3.org/2000/svg" height="220.99" width="600" version="1.1" xmlns:cc="http://creativecommons.org/ns#" xmlns:dc="http://purl.org/dc/elements/1.1/" viewBox="0 0 158.75 58.468931">
 <g stroke-width=".99998" fill="#ed1d24">
  <path d="m46.282 57.529v-6.6h-2.1c-1.18 0-1.6-0.07-2.37-0.99-0.69-0.78-1.04-1.7-1.04-2.98v-16.1c0-6.88-6.26-10.93-11.89-10.93-5.628 0-10.424 3.41-12.232 7.59v-27.519h-16.58v6.3097h1.564c0.834 0 1.5989 0.36 2.1549 0.93 0.556 0.7799 0.695 1.4899 0.695 2.5499v37.669c0 0.99-0.209 1.91-0.765 2.55s-1.3209 0.92-2.1549 0.92h-1.564v6.6h19.703v-6.6h0.075c-1.042 0-1.807-0.21-2.433-1.13-0.695-0.85-0.765-1.77-0.765-2.91v-5.68c0-7.37 2.781-12.05 7.3-12.05 3.262 0 4.932 2.12 4.932 6.38v12.27c0 1 0.07 1.92-0.62 2.49-0.42 0.35-0.84 0.63-1.46 0.63h-0.653v6.6z"/>
  <path d="m65.402 19.239c-12.03 0-20.3 8.65-20.3 19.65 0 10.99 8.06 19.51 19.88 19.58 12.38 0.07 18.289-8.02 18.629-12.06l0.14-1.42h-9.309c-0.49 4.61-3.06 6.81-7.72 6.81-5.07 0-7.58-3.41-7.65-7.88l-0.07-3.12h25.029c0.21-2.27 0.07-2.27 0.07-3.68 0-11-7.719-17.88-18.699-17.88zm0 6.03c4.24 0 6.19 3.47 6.19 7.87v1.56h-12.59v-1.63c0-4.61 2.51-7.8 6.4-7.8z" fill-rule="evenodd"/>
  <path d="m106.54 19.239c-9.449 0-17.939 3.69-17.869 10.43 0.07 4.47 3.2 6.95 7.03 6.95 3.26 0 6.739-2.2 6.739-5.6 0-2.13-1.11-2.84-2.569-3.69 0.689-1.07 1.939-2.56 5.139-2.56 4.17 0 5.98 3.05 5.98 6.53 0 5.46-3.89 5.89-7.86 6.52l-3.889 0.57c-3.68 0.57-13.28 1.07-13.28 9.44 0 6.38 5.98 10.64 12.66 10.64 3.959 0 7.919-0.92 11.189-4.47l1.18-1.28 0.9 1.42c2.09 3.26 5.01 4.33 8.83 4.33 6.4 0 10.71-3.83 10.71-9.93v-3.7h-4.45l-0.14 2.92c0 1.41-0.21 3.05-2.02 3.05-1.87 0-1.94-1.42-1.94-2.7v-17.88c0-7.73-8.97-10.99-16.34-10.99zm4.17 20.57v3.69c0 4.19-3.2 7.73-7.23 7.8-2.36 0-4.449-1.84-4.449-4.32 0-2.49 1.739-3.62 4.659-4.33l1.53-0.43c1.18-0.28 1.81-0.56 2.92-0.99 0.97-0.43 1.6-0.85 2.57-1.42z" fill-rule="evenodd"/>
  <path d="m158.75 47.399v-7.52h-5.36v5.75c0 4.47-1.94 5.74-3.82 5.74s-3.48-1.27-3.48-4.75v-18.94h10.02v-6.45h-9.95v-13.699h-8.06c0-0.0004 0 9.229-1.53 11.209-1.53 1.99-2.92 2.49-5.07 2.49h-3.03v6.45h5.53v18.37c0 6.67 3.47 12.35 11.61 12.35 8.48 0 13.14-4.26 13.14-11"/>
 </g>
</svg>
