<?xml version="1.0" encoding="UTF-8" standalone="no"?>
<!-- Created with Inkscape (http://www.inkscape.org/) -->
<svg xmlns:rdf="http://www.w3.org/1999/02/22-rdf-syntax-ns#" xmlns="http://www.w3.org/2000/svg" xmlns:cc="http://creativecommons.org/ns#" xmlns:xlink="http://www.w3.org/1999/xlink" xmlns:dc="http://purl.org/dc/elements/1.1/" height="473.78" width="600" version="1.1">
  <defs>
    <radialGradient id="radialGradient3176" xlink:href="#linearGradient3629" gradientUnits="userSpaceOnUse" cy="633.48" cx="758.83" gradientTransform="matrix(0.46525269,-3.518967e-8,3.5861081e-8,0.4741296,-145.48611,-619.5851)" r="367.39"/>
    <linearGradient id="linearGradient3629" x1="0" x2="1" y1="0" y2="0">
      <stop stop-color="#b2241e" offset="0"/>
      <stop stop-color="#b2241e" stop-opacity="0" offset="1"/>
    </linearGradient>
    <radialGradient id="radialGradient3173" xlink:href="#linearGradient3629" gradientUnits="userSpaceOnUse" cy="633.48" cx="758.83" gradientTransform="matrix(0.41216616,0.00482608,-0.00470366,0.40171132,-102.22273,-577.37193)" r="367.39"/>
    <radialGradient id="radialGradient3170" xlink:href="#linearGradient3629" gradientUnits="userSpaceOnUse" cy="659.32" cx="758.83" gradientTransform="matrix(0.39434,-1.6999213e-7,1.4769755e-7,0.34299597,-91.675426,-536.51477)" r="367.39"/>
    <linearGradient id="linearGradient3164" y2="-80.584" gradientUnits="userSpaceOnUse" x2="790.13" gradientTransform="matrix(0.65829472,0,0,0.65829472,-300.31816,-379.99626)" y1="192.96" x1="802.23">
      <stop stop-color="#343273" offset="0"/>
      <stop stop-color="#c9c9e3" offset="1"/>
    </linearGradient>
    <linearGradient id="linearGradient3583" y2="526.8" xlink:href="#linearGradient3577" gradientUnits="userSpaceOnUse" x2="756.09" y1="604.99" x1="752.28"/>
    <linearGradient id="linearGradient3577" x1="0" x2="1" y1="0" y2="0">
      <stop stop-color="#d0cee6" offset="0"/>
      <stop stop-color="#FFF" offset="1"/>
    </linearGradient>
    <linearGradient id="linearGradient3341" y2="763.04" gradientUnits="userSpaceOnUse" x2="169.29" gradientTransform="translate(238.9887,-444.03932)" y1="1110.2" x1="-78.471">
      <stop stop-color="#b1d92a" offset="0"/>
      <stop stop-color="#77a521" offset="0.15032"/>
      <stop stop-color="#3d7219" offset="0.15032"/>
      <stop stop-color="#090b08" offset="1"/>
    </linearGradient>
    <linearGradient id="linearGradient3343" y2="550.85" gradientUnits="userSpaceOnUse" x2="431.37" gradientTransform="translate(-138.7097,-100.32885)" y1="739.05" x1="307.13">
      <stop stop-color="#b1d92a" offset="0"/>
      <stop stop-color="#77a521" offset="0.25"/>
      <stop stop-color="#3d7219" offset="0.48742"/>
      <stop stop-color="#090b08" offset="1"/>
    </linearGradient>
    <linearGradient id="linearGradient3345" y2="599.65" gradientUnits="userSpaceOnUse" x2="1236" y1="722.49" x1="1367.4">
      <stop stop-color="#324c1c" offset="0"/>
      <stop stop-color="#193116" offset="1"/>
    </linearGradient>
    <linearGradient id="linearGradient3347" y2="640.9" gradientUnits="userSpaceOnUse" x2="1319.8" y1="702.49" x1="1363">
      <stop stop-color="#658f23" offset="0"/>
      <stop stop-color="#183217" offset="1"/>
    </linearGradient>
    <linearGradient id="linearGradient3349" y2="291.81" gradientUnits="userSpaceOnUse" x2="125.04" y1="316.05" x1="-329.28">
      <stop stop-color="#222612" offset="0"/>
      <stop stop-color="#383f2b" offset="0.24597"/>
      <stop stop-color="#52aa17" offset="0.58857"/>
      <stop stop-color="#77b34f" offset="0.716"/>
      <stop stop-color="#2e4323" offset="1"/>
    </linearGradient>
    <radialGradient id="radialGradient3351" gradientUnits="userSpaceOnUse" cy="500.74" cx="-69.505" gradientTransform="matrix(0.8724913,0.7815133,-0.597412,0.6669574,358.58822,-38.466218)" r="362.06">
      <stop stop-color="#b1d92a" offset="0"/>
      <stop stop-color="#77a521" offset="0.25"/>
      <stop stop-color="#3d7219" offset="0.5"/>
      <stop stop-color="#090b08" offset="1"/>
    </radialGradient>
    <linearGradient id="linearGradient3353" y2="765.6" gradientUnits="userSpaceOnUse" x2="509.72" gradientTransform="translate(21.547137,102.93675)" y1="777.72" x1="472.69">
      <stop stop-color="#112d17" offset="0"/>
      <stop stop-color="#3f6220" offset="0.5"/>
      <stop stop-color="#112d17" offset="1"/>
    </linearGradient>
    <linearGradient id="linearGradient3355" y2="772.62" gradientUnits="userSpaceOnUse" x2="971.64" gradientTransform="translate(22.499395,100.07998)" y1="779.06" x1="1001.9">
      <stop stop-color="#3d5c20" offset="0"/>
      <stop stop-color="#152b16" offset="1"/>
    </linearGradient>
    <linearGradient id="linearGradient3357" y2="892.22" gradientUnits="userSpaceOnUse" x2="466.71" y1="894.72" x1="482.5">
      <stop stop-color="#2c5113" offset="0"/>
      <stop stop-color="#2f3521" offset="1"/>
    </linearGradient>
    <linearGradient id="linearGradient3359" y2="887.19" gradientUnits="userSpaceOnUse" x2="1052.9" y1="889.54" x1="1028.7">
      <stop stop-color="#1d3517" offset="0"/>
      <stop stop-color="#2e4323" offset="1"/>
    </linearGradient>
    <linearGradient id="linearGradient3535" y2="414.9" xlink:href="#linearGradient3447" gradientUnits="userSpaceOnUse" x2="1052.1" y1="414.9" x1="432.09"/>
    <linearGradient id="linearGradient3447" x1="0" x2="1" y1="0" y2="0">
      <stop stop-color="#e3bb30" offset="0"/>
      <stop stop-color="#fefddf" offset="0.5"/>
      <stop stop-color="#e3bb30" offset="1"/>
    </linearGradient>
  </defs>
  <metadata>
    <rdf:RDF>
      <cc:Work rdf:about="">
        <dc:format>image/svg+xml</dc:format>
        <dc:type rdf:resource="http://purl.org/dc/dcmitype/StillImage"/>
        <dc:title/>
      </cc:Work>
    </rdf:RDF>
  </metadata>
  <g transform="translate(102.63433,543.07064)">
    <path fill="#f4e11a" d="m207.57-543.07c-133.5,0-241.86,108.36-241.86,241.86,0,49.931,15.163,96.347,41.123,134.89l117.59-47.912,165.79-2.6538,118.72,49.619c25.575-38.355,40.485-84.417,40.485-133.94,0-133.5-108.34-241.86-241.84-241.86z"/>
    <path fill="url(#radialGradient3176)" d="m207.57-543.07c-133.5,0-241.86,108.36-241.86,241.86,0,49.931,15.163,96.347,41.123,134.89l117.59-47.912,165.79-2.6538,118.72,49.619c25.575-38.355,40.485-84.417,40.485-133.94,0-133.5-108.34-241.86-241.84-241.86z"/>
    <path fill="url(#radialGradient3173)" d="m207.57-543.07c-133.5,0-241.86,108.36-241.86,241.86,0,49.931,15.163,96.347,41.123,134.89l117.59-47.912,165.79-2.6538,118.72,49.619c25.575-38.355,40.485-84.417,40.485-133.94,0-133.5-108.34-241.86-241.84-241.86z"/>
    <path d="m207.57-543.07c-133.5,0-241.86,108.36-241.86,241.86,0,49.931,15.163,96.347,41.123,134.89l117.59-47.912,165.79-2.6538,118.72,49.619c25.575-38.355,40.485-84.417,40.485-133.94,0-133.5-108.34-241.86-241.84-241.86z" fill="url(#radialGradient3170)"/>
    <path d="m-1.5599-222.2s14.469-30.961,20.86-39.164c11.236-14.421,10.047-5.0486,16.844-9.3085,6.6299-4.1552,20.713-36.039,31.028-50.532,7.178-10.085,19.248-21.641,26.152-31.915,4.9786-7.4079,9.5768-26.242,13.714-25.996,4.2051,0.25013,12.422,27.768,22.503,39.996,8.2001,9.9462,10.144,18.588,28.472,32.255,2.116,1.578,5.7624,6.6489,5.7624,6.6489s27.899-38.239,39.672-54.964c3.8318-5.4439,9.6003-12.361,12.411-18.395,1.0219-2.1939,1.4025-5.7997,2.6596-7.8679,0.85501-1.4068,2.6254-2.2922,3.5461-3.6569,0.91837-1.3614,0.6038-4.2245,1.9947-5.0975,0.73425-0.46088,2.2035-0.31897,2.8812,0.22163,1.5783,1.259,1.1322,4.8874,2.4379,6.4273,4.6915,5.5328,9.9734,14.184,9.9734,14.184s6.0252-12.864,7.9787-18.839c0.99741-3.0505,1.4785-7.354,2.4379-10.417,1.1331-3.6171,3.5328-8.1257,4.6542-11.746,0.44382-1.4329,0.09-4.3805,0.88653-5.6516,1.1303-1.8038,3.0904-2.9998,5.2083-3.2136,4.1313-0.41722,12.859,32.545,18.617,43.883,1.3369,2.6326,6.7317-0.13155,9.1977,1.5514,3.3925,2.3153,3.1566,8.2148,7.3138,11.746,3.6088,3.0658,8.1565,7.9529,9.7517,12.411,4.3357,12.117,10.86,24.158,10.86,24.158s3.4474-3.2998,5.3191-3.9894c1.0002-0.36846,3.145-1.2092,3.5461-0.22163,3.8349,9.4419,9.1448,18.173,13.519,25.709,5.028,8.6619,11.525,19.525,17.952,28.147,1.4612,1.9601,5.5012,1.7467,7.5354,3.1028,1.4865,0.99101,3.2168,2.7265,4.211,4.211,2.4048,3.5909,2.6109,10.121,5.5408,13.298,1.6733,1.8144,6.1112,1.6123,7.3138,3.7677,4.7039,8.4317,10.833,24.823,10.833,24.823l-393.59,4.4326z" fill-rule="evenodd" fill="url(#linearGradient3164)"/>
    <g fill-rule="evenodd" fill="url(#linearGradient3583)" transform="matrix(0.65829472,0,0,0.65829472,-291.97225,-722.40921)">
      <path d="m476.17,724.85c-0.67771-2.6782,3.9828-16.899,10.1-18.517,2.4116-0.63786,4.5873,4.6184,7.0702,4.3768,1.9206-0.18695,3.4689-2.9021,4.7134-4.3768,8.5644-10.148,16.922-25.955,24.241-37.034,5.6203-8.508,13.487-19.61,18.854-28.281,5.024-8.1172,11.872-18.918,15.824-27.607,0.57249-5.229,4.8145-8.9765,4.3762-12.449-1.3852-10.974,3.9892-16.046,13.895-26.823,2.0503-2.2307-1.0196,6.9858,8.1666-1.9584,3.7037-2.7899,8.3-6.2518,10.86-10.05,2.6797-3.9751,3.3056-8.27,6.4696-10.331,1.7141-0.42852,3.87,1.7151,5.0501,3.0301,4.8294,5.3814,7.0982,15.306,10.1,21.884,3.7724,8.2662,8.0769,19.57,12.933,27.25,2.7552,4.3572,5.8231,10.943,9.9608,9.3656,3.3086-1.2611-3.6367-7.3042-0.15989-7.9746,2.8835-0.55594,17.484,22.206,25.373,32.038,4.7384,5.9059,15.531,15.173,16.198,18.776,0.3468,1.8739-1.4611,5.3664-3.3668,5.3868-3.5015,0.0375-3.271-8.185-6.3968-9.7636-1.6253-0.82081-4.6342,1.4691-6.0601,0.33668-8.9446-7.1034-18.788-28.22-20.874-27.607-3.1069,0.91325-3.3035,8.0686-2.6969,11.25,1.735,9.0986,14.691,20.121,15.154,27.468,0.11449,1.8172-0.20444,5.5853-2.02,5.7235-2.7703,0.21085-11.44-22.329-18.854-27.944-4.8597-3.6806-7.23,4.4754-7.23,2.792s-9.0852-31.176-16.062-43.489c-1.0965-1.9353-1.5994-7.3181-3.6421-6.4376-4.5686,1.9691,0.47298,22.846,0.75154,26.339,0.16879,2.1167-6.5458-1.1904-6.475,0.93184,0.21986,6.5932,10.342,54.431,8.0802,56.225-3.5833,2.8413-10.1-12.457-10.437-11.11-0.13265,0.53058-2.8323,5.7035-3.6444,11.845-1.2492,9.4459-1.2843,20.857-5.9832,18.653-11.307-5.3026-3.223-37.839-7.2061-39.251-5.8818-2.0854-9.5512,7.9151-13.773,17.615-4.197,9.6434-8.9616,18.984-9.4579,17.736-1.0713-2.6934-3.0381-19.682-4.3768-20.2-4.8585-1.8812-14.925,25.509-24.577,33.331-17.142,7.7699-23.222,2.4121-54.878,18.854z"/>
      <path d="m676.28,683.67c-5.5395-5.6329,28.304-36.836,38.09-55.707,14.248-24.924,25.487-42.432,37.276-59.835,0.90131-1.3306,0.0573-4.2108,0.59172-6.0846,0.31234-0.59192-1.132-1.8818-0.75979-2.4934,2.0395-3.3518,5.2126-7.1709,9.6001-12.994-0.00046-0.64206,1.5997,3.7952,1.9484,3.3404,3.7795-4.9305,8.4955-8.4458,12.532-13.176,3.5228-4.158,6.0865-9.4447,9.8939-8.4897,3.4637,0.86876,3.536,6.8379,5.3529,9.9121,2.3632,3.9984,9.0782,9.7863,9.2465,10.796,0.16833,1.01,2.5729,9.0997,5.8918,9.4269,2.3466,0.2313,4.5561-3.5167,5.3868-5.7235,1.0147-2.6957-1.3921-6.9152-0.33668-9.5952,0.62806-1.5948,3.2531-2.5174,4.0401-4.0401,1.1054-2.1389,0.62711-5.6142,1.3467-7.9118,2.9797-9.5139,8.8074-21.807,13.96-32.246,2.7172-5.5051,2.3301-13.776,7.587-13.71,3.143,0.0394,3.5452,6.5227,4.2084,9.5952,0.89523,4.1469-0.81926,10.014,0.16835,14.14,1.5959,6.667,6.5567,15.245,9.9852,22.81,2.5692,5.6696,2.9495,11.066,7.6902,13.045,1.7684,0.73837,4.166-2.3112,6.0601-2.02,2.7806,0.42745,4.8968,4.7039,7.5949,5.5006,1.3032,0.38481,3.2892-0.80689,4.5232-0.23806,5.9675,2.7507,9.7563,15.913,13.332,21.426,10.12,15.605,28.568,48.803,29.52,50.47,0.95227,1.6665,7.1125,5.7527,10.237,4.5232,2.5307-0.9959,0.87205-8.6666,3.571-8.3323,2.1375,0.26481,3.5196,4.6631,5.3376,8.7384,2.5462,5.7075,6.4604,11.679,8.9463,16.02,4.8544,8.4782,10.037,19.212,15.752,27.135,7.1966,9.9761,17.001,23.374,27.776,31.647,3.2984,2.5327,6.8671,8.627,5.7235,12.625-0.5508,1.9257-3.5541,3.7918-5.5551,3.7034-4.9167-0.21731-9.3565-6.7462-12.794-10.269-3.3719-3.4555-6.1438-6.5558-9.5952-9.9319-2.6356-2.5781-7.7608-7.2506-10.1-10.1-8.1577-9.9369-11.406-27.857-18.012-38.886-2.5016-4.1764-6.5026-9.3472-9.7636-12.962-0.64628-0.71638-1.403-2.3341-2.3567-2.1884-1.2074,0.18451-1.7186,2.3514-2.02,3.5351-0.61083,2.3985-0.0323,5.7816,0.16833,8.2485,0.26052,3.2033,4.4876,9.3836,1.515,10.605-3.3725,1.386-5.199-6.741-7.2385-9.7635-3.5726-5.2946-7.7382-12.737-11.114-18.16-1.5567-2.5003-4.689-5.1158-6.3276-8.3042-1.1833-2.3026-0.62103-5.6288-2.7189-5.9797-0.90207-0.1509-1.914,1.1179-2.3806,1.9045-1.2579,2.1208,0.9607,7.4841-1.4284,8.0942-1.7723,0.45262-2.9011-3.1733-3.809-4.7613-3.1863-5.5733-4.641-14.31-7.6181-19.997-3.693-7.0554-8.7831-16.923-14.998-21.902-0.60032-0.48093-1.7103-1.3295-2.3806-0.95226-1.1358,0.63916-0.7899,2.9841-0.7142,4.2852,0.55278,9.4999,5.7163,21.473,8.8084,30.472,2.1246,6.1835,7.8561,19.283,8.0942,20.235,0.23808,0.95226,5.491,7.8375,5.2374,11.665-0.11659,1.7601-1.3924,4.5377-3.0948,4.9994-3.9777,1.0786-8.5835-4.3474-12.141-6.4277-2.0522-1.2-4.381-4.9417-6.6658-4.2852-1.2897,0.37058-1.726,2.7172-1.9045,4.0471-0.99336,7.4013,8.3551,18.26,4.2852,24.521-0.48146,0.74067-1.9953,0.90972-2.8568,0.71419-2.6218-0.59504-5.3429-3.5247-6.9039-5.7135-6.6006-9.2558-7.3825-25.784-13.332-35.472-0.60842-0.99072-1.5115-3.2115-2.6187-2.8568-3.3576,1.0757,0.82951,10.342-2.4384,11.665-2.2124,0.89593-3.7745-3.0698-5.1796-4.9994-5.6949-7.8205-7.4502-21.349-11.584-30.095-1.4881-3.1488-4.4963-6.8408-5.7235-10.1-0.96322-2.5583-0.12719-6.8009-1.8517-8.9219-0.79903-0.98272-2.6307-1.9364-3.8718-1.6834-1.2951,0.26408-2.5372,1.972-3.0301,3.1984-1.3934,3.4676-0.34969,7.8848-0.33053,12.288,0.0256,5.8912-0.58587,11.891,0.1622,16.834,1.3789,9.112,10.657,20.182,9.2585,29.291-0.18702,1.2186-1.515,3.7034-2.3567,3.3667-0.84169-0.33667-2.3601-5.5408-4.5451-5.7235-0.67706-0.0566-1.4739,0.86871-1.6834,1.515-0.89179,2.7514,1.2777,6.6315,2.02,9.4269,0.89775,3.3806,2.331,7.8263,3.5351,11.11,1.356,3.6983,2.3623,9.2407,5.0501,12.12,0.92465,0.99061,2.8874,2.7325,4.0401,2.02,3.6515-2.2568-3.8962-12.507,0-14.309,1.2032-0.5564,2.5906,1.7871,3.3667,2.8617,2.6,3.5997,3.4597,9.8045,5.5551,13.719,1.6294,3.0442,7.1543,7.9118,6.481,9.511-0.67335,1.5992-2.8617,6.3126-3.1984,5.976-0.33668-0.33667-12.816-4.0249-16.581-8.0802-3.3844-3.6452-4.257-10.798-6.1386-15.402-1.7134-4.193-3.5652-10.005-5.8326-13.927-0.85443-1.4777-1.7602-4.7507-3.4519-4.5232-1.6036,0.21557-1.7143,3.4112-2.0236,4.9994-1.051,5.3979,1.6106,13.073,0,18.331-0.89634,2.9262-2.7053,7.8884-5.7136,8.4513-2.6484,0.49554-5.2845-3.4247-7.38-5.1184-0.60909-0.49231-1.1222-1.8226-1.9045-1.7855-6.04,0.28688-7.655,17.2-13.332,15.117-2.819-1.0345-0.56661-4.5726-0.47763-8.3306,0.13006-5.4945-0.84367-12.001,0.001-16.309,0.48652-2.48,3.3682-5.21,3.3329-7.7371-0.0308-2.2046-3.394-4.4814-3.0948-6.6658,0.30591-2.2334,4.795-3.4609,4.8803-5.7136,0.33281-8.7857,5.046-29.426,2.2616-29.877-3.9931-0.6468-6.0583,6.6769-7.9522,10.251-2.7535,5.1964-5.3794,17.959-5.7364,18.793-0.35711,0.83322-6.6754,13.247-11.189,11.546-4.7842-1.8029,4.2227-16.262-0.83324-17.022-4.1968-0.63019-12.276,20.382-16.387,29.688-2.2198,5.0253-3.0471,15.572-7.0821,16.148-3.3181,0.47408-2.9538-5.4485-4.5331-8.4049-1.0538-1.9725-2.525-7.2385-3.1984-6.7335-0.67335,0.50501-7.6711,4.3784-9.2585,2.02-1.8459-2.7424,5.3014-5.917,6.2285-9.0902,0.43925-1.5035-1.1784-3.8718-0.16833-5.2184,1.01-1.3467,4.3768-4.3768,4.2084-5.0501-0.16835-0.67335-0.84684-4.8205-2.5251-5.0501-2.2095-0.30234-2.2834,2.5489-4.035,4.0676-5.5777,4.836-10.906,12.939-16.502,17.311-1.9407,1.5161-5.6975,3.9617-7.5752,5.5551-2.0871,1.7712-3.3025,5.6833-5.5551,7.2385-4.0911,2.8244-13.786,6.8922-15.868,4.7746z"/>
    </g>
    <g fill-rule="evenodd" transform="matrix(0.65829472,0,0,0.65829472,-302.61052,-710.88442)">
      <g transform="translate(182.68831,349.20858)">
        <path d="m363.16,494.2s3.3234,16.524,7.5752,25.756c4.2852,9.304,13.592,16.588,13.635,28.112,0.0429,11.525-16.68,20.933-27.776,21.884-51.732,4.4109-61.415,5.2008-88.581,11.11-23.731,5.1622-65.767,34.875-65.767,34.875s-7.6518-20.515-1.027-49.212c3.0744-13.318,22.894-39.867,22.894-39.867s-11.202,1.6877-15.331,0.63251c-13.249-3.3863-27.246-11.313-40.221-13.089-7.5319-1.0313-24.573,4.4683-35.065,5.3824-9.1864,0.8004-12.406-3.0257-12.406-3.0257s12.801-18.536,28.13-28.243c5.3279-3.3738,14.526-9.7949,24.616-15.105,14.493-7.6275,30.826-14.229,40.176-16.917,36.123-10.385,120.87-32.994,120.87-32.994l28.281,70.702z" fill="url(#linearGradient3341)"/>
        <path d="m237.02,459.22c-13.322,2.5907-31.254,6.1932-43.768,11.447-12.697,5.3307-28.239,15.489-39.391,23.567-7.3639,5.3343-22.894,19.864-22.894,19.864s19.351-6.0473,27.944-6.3968c7.7498-0.3152,18.054,1.8582,25.587,3.7034,8.315,2.0366,18.505,7.9314,26.934,9.4269,6.8627,1.2175,21.493-2.7586,21.564,0.57473,0.23562,11.038-16.976,22.516-21.942,37.864-5.168,15.972-4.812,47.036-4.812,47.036s32.094-23.237,49.845-28.815c23.289-7.3175,58.321-9.4134,82.608-11.882,15.882-1.6145,40.669-6.8091,38.003-19.782-3.186-15.505-36.029-8.6964-52.521-5.0501-10.908,2.4116-35.31,7.9985-35.31,7.9985l-30.974-92.249s-14.676,1.4881-20.874,2.6934z" fill="url(#linearGradient3343)"/>
      </g>
      <g transform="translate(-219.37412,246.7277)">
        <path d="m1279.6,559.51c17.698-3.8047,42.839-1.8736,60.265,3.0301,16.272,4.579,34.09,19.967,49.491,26.934,12.839,5.8078,29.132,14.709,44.104,16.16,1.6085,0.15595,1.4434,4.66,0,5.3868-17.45,8.7874-27.372,14.195-40.064,17.507-16.891,4.4076-58.75,5.2184-58.75,5.2184s18.609,6.7988,23.399,13.299c12.812,17.385,10.108,30.658,9.7636,44.441-0.2337,9.368-1.6959,22.102,4.0401,30.974,1.2409,1.9192-3.1232,5.0716-5.3868,5.3868-5.9562,0.82925-12.239-6.8638-17.507-9.7636-27.216-14.98-40.41-22.588-92.585-33.667-22.98-4.88-67.64-11.156-70.197-34.509-0.6065-5.54,4.2087-9.7966,6.9019-13.972,13.926-21.589,10.381-32.309,20.2-42.421,15.577-16.041,44.464-29.305,66.325-34.004z" fill="url(#linearGradient3345)"/>
        <path d="m1298.1,563.55c-29.611,1.2129-18.273,25.165-16.893,51.837,0.711,13.738-4.0119,19.913-8.0296,26.102-3.0008,4.6222-4.2399,11.567-9.9278,9.1528-6.7931-2.8838-18.925-5.9002-29.537-7.4654-6.1665-0.90949-12.316-0.59088-20.512-0.88809-6.2263-0.22577-17.377,1.3662-16.805,7.4882,1.0692,11.444,14.253,14.896,23.742,18.644,29.547,9.6717,58.46,12.101,87.625,23.462,20.337,7.162,38.19,13.92,55.647,26.383-9.0349-21.209,4.6395-42.487-7.9445-62.765-6.8221-12.226-21.282-13.903-32.146-20.981-7.8577-3.6027-8.2414-5.7066,0.9374-5.6875,30.318-3.2962,59.905-1.3794,90.49-15.165,1.4129-1.366,8.4867-3.4534,4.6988-4.4915-24.496-6.9502-44.319-20.734-65.876-33.906-16.798-10.067-36.146-11.82-55.469-11.719z" fill="url(#linearGradient3347)"/>
      </g>
      <g transform="translate(714.12138,473.71747)">
        <path d="m29.41,206.78c-108.99,1.7326-219.45,18.458-319.26,63.676-13.443,6.7425-28.793,16.496-31.235,32.574-1.3347,14.163,10.014,24.637,19.562,33.25,18.617,18.808,28.48,44.204,39.203,67.983,2.8816,6.7584,8.0445,19.996,12.318,16.337,19.122-16.371,53.803-30.518,85.511-40.039,63.321-17.48,128.53-28.481,194.19-31.557,75.472-2.298,151.18,7.7226,223.85,27.61,24.326,6.397,49.449,14.757,67.68,32.893,5.2998,4.8761,14.292,14.528,16.655,11.074,18.109-26.468,37.179-58.055,62.76-84.705,7.3198-9.0686,16.116-18.782,17.117-30.784-2.78-14.41-17.98-20.77-29.29-27.59-75.74-40.3-161.35-58.69-246.34-66.45-37.47-3.3-75.11-4.43-112.72-4.26z" fill="url(#linearGradient3349)"/>
        <path d="m-252.12,411.14s-10.588-27.192-26.425-55.707c-16.385-29.502-39.43-34.961-35.234-53.326,4.6116-20.18,55.572-35.883,59.278-37.376,93.105-37.504,216.84-51.386,312.82-49.279,95.976,2.1065,191.14,12.231,284.49,50.47,12.211,5.002,71.773,29.659,65.578,43.176-8.8991,19.418-30.4,37.996-42.647,54.707-12.557,17.133-31.977,48.764-31.977,48.764s-18.124-21.685-45.786-32.511c-29.079-11.382-122.09-36.898-228.09-38.858-106-1.9604-233.19,30.733-267.72,45.182-34.779,14.554-44.28,24.759-44.28,24.759z" fill="url(#radialGradient3351)"/>
      </g>
      <path d="m540.24,857.09s5.3964,11.158,6.7838,14.597c1.5781,3.9116,5.2832,9.5923,5.2832,9.5923s-14.367-3.9711-31.958-0.1683c-10.605,2.2925-24.563,4.8137-37.196,9.6518-3.2688,1.2519-13.657,2.6879-14.184,0.70573-0.77966-2.935,5.4318-5.7809,7.9889-7.4192,9.7309-6.2344,22.948-12.696,33.12-16.763,9.1465-3.6575,30.162-10.196,30.162-10.196z" fill="url(#linearGradient3353)"/>
      <path d="m1038.1,886.03s-11.789-12.146-20.712-17.022c-8.9891-4.9113-23.092-10.237-23.092-10.237s-2.4979,8.2005-3.809,11.427c-1.5643,3.8495-6.6658,12.141-6.6658,12.141s16.167-1.5973,23.092-1.1903c9.33,0.5484,31.186,4.8803,31.186,4.8803z" fill="url(#linearGradient3355)"/>
      <path d="m486.33,894.65s-7.5876,3.2504-14.986,2.7547c-6.9294-0.46438-10.441-3.2829-10.546-3.4467l2.9706-5.8118s5.2272,3.0717,13.635,3.1984c3.9216,0.0603,7.1501-1.0389,7.1501-1.0389l1.7753,4.3444z" fill="url(#linearGradient3357)"/>
      <path d="m1054.8,890.17c-2.0548,4.4167-4.1003,7.4994-9.0902,7.3227-2.7492-0.27426-7.1196-2.144-9.7635-2.9459-1.2547-0.38055-4.2085-1.1784-4.2085-1.1784l1.9359-7.6593s3.3698,1.1606,5.8918,1.2625c1.726,0.0698,5.978,1.1391,7.4068,0.16833,1.0443-0.70951,2.3567-3.3667,3.0301-3.3667,0.6733,0,6.6493,2.8617,6.6493,2.8617s-1.241,2.5053-1.8517,3.5351z" fill="url(#linearGradient3359)"/>
    </g>
    <g transform="matrix(0.65829472,0,0,0.65829472,360.50865,-711.36727)">
      <g fill="#000" transform="translate(-976.92115,364.71479)">
        <path d="m555.84,357.44c-7.4223,0.37352-12.806,13.315-15.812,22-4.2908,12.395-5.0625,43.437-5.0625,43.438l-4.7812,2.6875c0.11933-6.4491-0.16547-13.802-0.1875-21.125-0.0573-19.045-0.0625-37.625-0.0625-37.625l-11.188,6.9062-0.25,10-6.4375,11.438,2.625,2.125,3.8125-5.4688,0.25,37.625s-25.729,8.2111-36.125,11.125c-13.16,3.6888-42.438,10.531-42.438,10.531s-1.121,2.8016-3.3438,5.7188c-2.2142,2.906-4.75,4.5313-4.75,4.5312,0,0,21.465,18.026,41.656,19.5,13.756,1.0129,31.798-5.7672,41.844-15.219,6.5866-6.1969,11.474-18.39,13.625-28.812,0.31843-1.543,0.53035-3.2349,0.6875-5.0625l5.75-2.6562s-2.0264,28.543,11.781,29.625c9.8171,0.76938,31.016-15.481,30.361-15.004l-2.2932-4.3378s-17.864,8.8578-23.537,5.0297c-5.9686-4.0276-4.5312-23.563-4.5312-23.562,0,0,16.481-11.09,18.188-32.656,0.75094-9.4888,1.072-28.701-8.25-30.625-0.5127-0.10581-1.0364-0.1499-1.5312-0.125zm-4.03,10.56c3.7278-0.0797,4.9864,14.27,5.3125,21.625,0.83025,18.726-10.187,25.844-10.188,25.844,0,0-0.50984-15.94-0.1875-22.75,0.39677-8.5511,0.16307-24.614,5.0625-24.719zm-32.844,68.656c0.00003,0,2.1232,18.792-10.594,28.969-6.671,5.3382-23.549,4.6177-35.938,1.25-11.378-3.0931-19.281-7.6562-19.281-7.6562-0.00001,0,24.359-5.9327,34.531-9.4375,9.5936-3.3054,31.281-13.125,31.281-13.125z" fill-rule="evenodd"/>
        <path d="m602.84,396.97c-10.473,0.42214-27.194,17.513-28.469,29.094-0.87124,7.9123-1.3574,21.578,13.281,22.375,11.633,0.64278,28.763-12.304,28.763-12.304l-0.18249-4.4221s-7.9692,5.338-14.081,5.9763c-5.6459,0.58967-10.781-2.1875-10.781-2.1875s9.503-7.8932,14.812-13.469c1.8404-1.9326,16.378-21.411-1.3438-24.938-0.63632-0.12664-1.3018-0.15314-2-0.125zm-7.5,7.5625c0.29456-0.0224,0.57465-0.0128,0.875,0.0312,3.5199,0.51611,2.7698,7.3986,2.4062,10.938-0.64337,6.2627-9.9062,17.5-9.9062,17.5s-2.8507-8.2936-2-15.938c0.52512-4.7183,4.2065-12.196,8.625-12.531z" fill-rule="evenodd"/>
        <path d="m633.12,393.4-12.962,7.2385s-2.7241,18.517-3.6192,26.345c-0.76644,6.7027-2.7081,15.889,8.5852,15.319,6.3883-0.32036,18.096-10.689,18.096-10.689l0.96793-4.6713s-8.7185,6.1674-11.994,4.5872c-4.2479-2.0493-3.1001-11.49-2.4409-16.16,1.0144-7.1869,3.3668-21.968,3.3668-21.968z" fill-rule="evenodd"/>
        <path d="m637.66,377.54c0,4.799-3.4107,8.6894-7.6181,8.6894-4.2073,0-7.6181-3.8904-7.6181-8.6894s3.4107-8.6894,7.6181-8.6894c4.2073,0,7.6181,3.8904,7.6181,8.6894z" transform="translate(-1.7854836,-2.0235481)"/>
        <path d="m664.32,388.73-12.498,4.7613-10.118,42.852,11.903-3.571s4.1566-17.741,8.2132-24.402c2.2192-3.6436,5.5512-9.8672,9.6416-9.7606,1.3165,0.0343,2.1404,1.5612,1.9045,2.8568-2.4772,13.606-7.8561,33.091-7.8561,33.091l12.855-4.7613s3.4115-13.087,6.4873-21.842c1.4205-4.0436,9.7879-13.602,12.938-10.616,3.5513,3.3669-10.929,30.735,0.69129,34.839,4.624,1.3726,15.117-5.4755,15.117-5.4755l6.9039-5.2374,0.71543-4.9092s-7.9203,6.3422-11.19,5.1473c-2.9155-1.0654-4.0266-6.2141-3.571-9.2845,0.91274-6.1516,4.422-14.369,5.8326-22.973,0.32102-1.9582-1.0809-4.1721-2.9758-4.7613-4.4847-1.3944-10.785,2.8692-14.522,5.7136-3.4458,2.6226-9.4035,10.951-9.4035,10.951s2.7008-12.121-1.3851-14.191c-4.5177-2.289-11.669,3.9015-15.637,7.0493-3.0921,2.4534-8.6894,9.8797-8.6894,9.8797l2.4997-8.2132,2.1426-7.1419z" fill-rule="evenodd"/>
        <path d="m762.66,385.22c-4.7981-0.0153-10.251,0.88112-13.562,2.125-10.769,4.0454-24.043,15.268-27.469,26.25-1.6458,5.2763-3.1858,15.153,3.2812,17.781,6.4936,2.6394,20-10.5,20-10.5-0.00002,0.00001-1.0776,8.3607,3.5312,11.062,3.1516,1.8475,22.375-7.0625,22.375-7.0625l0.15625-3.3438c-0.00001,0-5.5298,2.4374-7.5625,1.3438-2.1314-1.1468-2.407-4.7673-2.375-7.1875,0.0938-6.9702,12.872-21.794,11.281-27.156-0.70631-2.3816-4.8582-3.2972-9.6562-3.3125zm-10.125,8.3438c1.4098,0.0404,2.4854,0.41407,2.9688,1,1.2017,1.4568-3.4047,11.315-6.1875,15.469-2.8814,4.3009-9.4096,13.338-12.375,12.031-3.7547-1.6549-2.0431-12.579,0.125-17.281,3.9404-8.5464,11.239-11.34,15.469-11.219z" fill-rule="evenodd"/>
        <path d="m804.78,369.09-13.094,1.1903-7.4846,18.772-7.5772-0.1046-3.5072,6.6862,7.9607,0.14791s-7.7382,15.499-10.292,24.765c-1.1292,4.0971-1.2604,10.563,5.9516,12.855,3.5034,1.1135,18.401-4.32,18.401-4.32l1.1903-3.3329s-8.4745,0.19583-10.46-2.4504c-1.4804-1.9726-0.86835-5.7977-0.0637-8.129,1.9344-5.605,7.2405-18.598,7.2405-18.598l7.6878,0.0144,3.3329-7.0314-7.9258-0.10459,8.64-20.36z" fill-rule="evenodd"/>
        <path d="m840.96,348.85-14.998,3.4519-32.929,79.988,12.962-1.6834,7.0702-15.655s-0.25054,17.167,5.1487,21.071c5.0061,3.6201,20.775-1.0389,20.775-1.0389l-0.2525-4.2084s-8.4248,0.93564-13.719-9.4269c-2.5958-5.0804-3.3923-16.975,1.5474-19.309,7.7034-3.6409,8.7441,4.424,6.3644,10.556l2.1884,1.8517s13.771-12.602,10.942-17.844c-2.3252-4.3087-8.72-4.8333-12.878-4.0401-5.9964,1.144-16.413,12.625-16.413,12.625l24.192-56.338z" fill-rule="evenodd"/>
        <path d="m885.81,399.61c-4.7466-0.70139-10.272-0.59418-13.727,0.16327-11.237,2.4634-25.98,11.672-30.941,22.051-2.3836,4.9867-5.3204,14.541,0.70421,18.068,6.0493,3.5411,21.296-7.5314,21.296-7.5314-0.00002,0.00001-2.2624,8.1206,1.9126,11.454,2.8549,2.2793,23.155-3.7895,23.155-3.7895l1.2221-3.287c-0.00001,0-6.4108,1.6214-8.2661,0.24825-1.9455-1.4399-1.7004-5.0626-1.3225-7.4533,1.0898-6.8852,15.857-19.729,15.05-25.263-0.3584-2.4581-4.3366-3.9582-9.0832-4.6596zm-11.214,6.8097c1.3896,0.24166,2.4006,0.76531,2.7952,1.4144,0.981,1.6137-4.9881,10.712-8.3364,14.425-3.4669,3.8446-11.221,11.855-13.969,10.138-3.4794-2.1749-0.22286-12.742,2.5955-17.086,5.1223-7.8949,12.746-9.6158,16.914-8.8909z" fill-rule="evenodd"/>
        <path d="m903.3,408.89-20.032,38.044,12.12,0s6.9828-12.249,11.279-18.349c2.9917-4.248,13.84-11.216,15.992-8.4168,4.3067,5.6038-20.465,25.955-9.7635,33.499,4.7199,3.3271,24.577-1.3467,24.577-1.3467l1.0942-4.4609s-12.065,2.3892-12.373-1.7675c-1.9148-10.075,22.169-29.929,13.299-35.519-2.9111-1.8345-11.238,0.3147-15.655,2.02-5.1102,1.9726-14.982,10.437-14.982,10.437l7.4068-14.982-12.962,0.84169z" fill-rule="evenodd"/>
        <path d="m987.84,423.46c-4.6447-1.2035-10.15-1.6861-13.666-1.3014-11.436,1.2511-27.076,8.835-33.116,18.626-2.9017,4.7041-6.8406,13.891-1.2264,18.04,5.6372,4.1659,21.978-5.2176,21.978-5.2176-0.00003,0.00001-3.1154,7.833,0.68039,11.592,2.5956,2.5707,26.247-1.5093,26.247-1.5093l0.89227-3.2642c-0.00001,0-8.6934,1.2652-10.392-0.29792-1.7808-1.6391-1.1508-5.2151-0.52024-7.5518,1.8178-6.7297,17.87-17.925,17.658-23.515-0.0942-2.4823-3.8898-4.3981-8.5345-5.6016zm-11.877,5.5751c1.3559,0.38845,2.3053,1.0169,2.6284,1.7044,0.80333,1.7091-6.1018,10.119-9.827,13.453-3.8571,3.453-12.421,10.591-14.97,8.5902-3.2276-2.5335,1.1371-12.693,4.4026-16.711,5.935-7.3037,13.698-8.2019,17.766-7.0366z" fill-rule="evenodd"/>
        <path d="m1037.6,404s-26.877,25.402-37.188,38.375c-25.52,32.111-11.042,37.288,20.188,36.719l0.5-2.1875c0,0.00001-7.8595-1.6913-10.969-3.125-2.688-1.2395-8.2187-5.4688-8.2187-5.4688,0-0.00001,22.186-9.2723,31.812-22.719,7.8024-10.899,18.344-40.75,18.344-40.75l-14.4-0.84zm1.5312,11.125s-8.4584,21.881-14.312,29.438c-5.7821,7.4633-23.406,19.375-23.406,19.375s7.6432-15.316,16-23.906c7.1853-7.386,21.719-24.906,21.719-24.906z" fill-rule="evenodd"/>
      </g>
      <g fill="url(#linearGradient3535)" transform="translate(-980.82567,363.76253)">
        <path d="m555.84,357.44c-7.4223,0.37352-12.806,13.315-15.812,22-4.2908,12.395-5.0625,43.437-5.0625,43.438l-4.7812,2.6875c0.11933-6.4491-0.16547-13.802-0.1875-21.125-0.0573-19.045-0.0625-37.625-0.0625-37.625l-11.188,6.9062-0.25,10-6.4375,11.438,2.625,2.125,3.8125-5.4688,0.25,37.625s-25.729,8.2111-36.125,11.125c-13.16,3.6888-42.438,10.531-42.438,10.531s-1.121,2.8016-3.3438,5.7188c-2.2142,2.906-4.75,4.5313-4.75,4.5312,0,0,21.465,18.026,41.656,19.5,13.756,1.0129,31.798-5.7672,41.844-15.219,6.5866-6.1969,11.474-18.39,13.625-28.812,0.31843-1.543,0.53035-3.2349,0.6875-5.0625l5.75-2.6562s-2.0264,28.543,11.781,29.625c9.8171,0.76938,31.016-15.481,30.361-15.004l-2.2932-4.3378s-17.864,8.8578-23.537,5.0297c-5.9686-4.0276-4.5312-23.563-4.5312-23.562,0,0,16.481-11.09,18.188-32.656,0.75094-9.4888,1.072-28.701-8.25-30.625-0.5127-0.10581-1.0364-0.1499-1.5312-0.125zm-4.03,10.56c3.7278-0.0797,4.9864,14.27,5.3125,21.625,0.83025,18.726-10.187,25.844-10.188,25.844,0,0-0.50984-15.94-0.1875-22.75,0.39677-8.5511,0.16307-24.614,5.0625-24.719zm-32.844,68.656c0.00003,0,2.1232,18.792-10.594,28.969-6.671,5.3382-23.549,4.6177-35.938,1.25-11.378-3.0931-19.281-7.6562-19.281-7.6562-0.00001,0,24.359-5.9327,34.531-9.4375,9.5936-3.3054,31.281-13.125,31.281-13.125z" fill-rule="evenodd"/>
        <path d="m602.84,396.97c-10.473,0.42214-27.194,17.513-28.469,29.094-0.87124,7.9123-1.3574,21.578,13.281,22.375,11.633,0.64278,28.763-12.304,28.763-12.304l-0.18249-4.4221s-7.9692,5.338-14.081,5.9763c-5.6459,0.58967-10.781-2.1875-10.781-2.1875s9.503-7.8932,14.812-13.469c1.8404-1.9326,16.378-21.411-1.3438-24.938-0.63632-0.12664-1.3018-0.15314-2-0.125zm-7.5,7.5625c0.29456-0.0224,0.57465-0.0128,0.875,0.0312,3.5199,0.51611,2.7698,7.3986,2.4062,10.938-0.64337,6.2627-9.9062,17.5-9.9062,17.5s-2.8507-8.2936-2-15.938c0.52512-4.7183,4.2065-12.196,8.625-12.531z" fill-rule="evenodd"/>
        <path d="m633.12,393.4-12.962,7.2385s-2.7241,18.517-3.6192,26.345c-0.76644,6.7027-2.7081,15.889,8.5852,15.319,6.3883-0.32036,18.096-10.689,18.096-10.689l0.96793-4.6713s-8.7185,6.1674-11.994,4.5872c-4.2479-2.0493-3.1001-11.49-2.4409-16.16,1.0144-7.1869,3.3668-21.968,3.3668-21.968z" fill-rule="evenodd"/>
        <path d="m637.66,377.54c0,4.799-3.4107,8.6894-7.6181,8.6894-4.2073,0-7.6181-3.8904-7.6181-8.6894s3.4107-8.6894,7.6181-8.6894c4.2073,0,7.6181,3.8904,7.6181,8.6894z" transform="translate(-1.7854836,-2.0235481)"/>
        <path d="m664.32,388.73-12.498,4.7613-10.118,42.852,11.903-3.571s4.1566-17.741,8.2132-24.402c2.2192-3.6436,5.5512-9.8672,9.6416-9.7606,1.3165,0.0343,2.1404,1.5612,1.9045,2.8568-2.4772,13.606-7.8561,33.091-7.8561,33.091l12.855-4.7613s3.4115-13.087,6.4873-21.842c1.4205-4.0436,9.7879-13.602,12.938-10.616,3.5513,3.3669-10.929,30.735,0.69129,34.839,4.624,1.3726,15.117-5.4755,15.117-5.4755l6.9039-5.2374,0.71543-4.9092s-7.9203,6.3422-11.19,5.1473c-2.9155-1.0654-4.0266-6.2141-3.571-9.2845,0.91274-6.1516,4.422-14.369,5.8326-22.973,0.32102-1.9582-1.0809-4.1721-2.9758-4.7613-4.4847-1.3944-10.785,2.8692-14.522,5.7136-3.4458,2.6226-9.4035,10.951-9.4035,10.951s2.7008-12.121-1.3851-14.191c-4.5177-2.289-11.669,3.9015-15.637,7.0493-3.0921,2.4534-8.6894,9.8797-8.6894,9.8797l2.4997-8.2132,2.1426-7.1419z" fill-rule="evenodd"/>
        <path d="m762.66,385.22c-4.7981-0.0153-10.251,0.88112-13.562,2.125-10.769,4.0454-24.043,15.268-27.469,26.25-1.6458,5.2763-3.1858,15.153,3.2812,17.781,6.4936,2.6394,20-10.5,20-10.5-0.00002,0.00001-1.0776,8.3607,3.5312,11.062,3.1516,1.8475,22.375-7.0625,22.375-7.0625l0.15625-3.3438c-0.00001,0-5.5298,2.4374-7.5625,1.3438-2.1314-1.1468-2.407-4.7673-2.375-7.1875,0.0938-6.9702,12.872-21.794,11.281-27.156-0.70631-2.3816-4.8582-3.2972-9.6562-3.3125zm-10.125,8.3438c1.4098,0.0404,2.4854,0.41407,2.9688,1,1.2017,1.4568-3.4047,11.315-6.1875,15.469-2.8814,4.3009-9.4096,13.338-12.375,12.031-3.7547-1.6549-2.0431-12.579,0.125-17.281,3.9404-8.5464,11.239-11.34,15.469-11.219z" fill-rule="evenodd"/>
        <path d="m804.78,369.09-13.094,1.1903-7.4846,18.772-7.5772-0.1046-3.5072,6.6862,7.9607,0.14791s-7.7382,15.499-10.292,24.765c-1.1292,4.0971-1.2604,10.563,5.9516,12.855,3.5034,1.1135,18.401-4.32,18.401-4.32l1.1903-3.3329s-8.4745,0.19583-10.46-2.4504c-1.4804-1.9726-0.86835-5.7977-0.0637-8.129,1.9344-5.605,7.2405-18.598,7.2405-18.598l7.6878,0.0144,3.3329-7.0314-7.9258-0.10459,8.64-20.36z" fill-rule="evenodd"/>
        <path d="m840.96,348.85-14.998,3.4519-32.929,79.988,12.962-1.6834,7.0702-15.655s-0.25054,17.167,5.1487,21.071c5.0061,3.6201,20.775-1.0389,20.775-1.0389l-0.2525-4.2084s-8.4248,0.93564-13.719-9.4269c-2.5958-5.0804-3.3923-16.975,1.5474-19.309,7.7034-3.6409,8.7441,4.424,6.3644,10.556l2.1884,1.8517s13.771-12.602,10.942-17.844c-2.3252-4.3087-8.72-4.8333-12.878-4.0401-5.9964,1.144-16.413,12.625-16.413,12.625l24.192-56.338z" fill-rule="evenodd"/>
        <path d="m885.81,399.61c-4.7466-0.70139-10.272-0.59418-13.727,0.16327-11.237,2.4634-25.98,11.672-30.941,22.051-2.3836,4.9867-5.3204,14.541,0.70421,18.068,6.0493,3.5411,21.296-7.5314,21.296-7.5314-0.00002,0.00001-2.2624,8.1206,1.9126,11.454,2.8549,2.2793,23.155-3.7895,23.155-3.7895l1.2221-3.287c-0.00001,0-6.4108,1.6214-8.2661,0.24825-1.9455-1.4399-1.7004-5.0626-1.3225-7.4533,1.0898-6.8852,15.857-19.729,15.05-25.263-0.3584-2.4581-4.3366-3.9582-9.0832-4.6596zm-11.214,6.8097c1.3896,0.24166,2.4006,0.76531,2.7952,1.4144,0.981,1.6137-4.9881,10.712-8.3364,14.425-3.4669,3.8446-11.221,11.855-13.969,10.138-3.4794-2.1749-0.22286-12.742,2.5955-17.086,5.1223-7.8949,12.746-9.6158,16.914-8.8909z" fill-rule="evenodd"/>
        <path d="m903.3,408.89-20.032,38.044,12.12,0s6.9828-12.249,11.279-18.349c2.9917-4.248,13.84-11.216,15.992-8.4168,4.3067,5.6038-20.465,25.955-9.7635,33.499,4.7199,3.3271,24.577-1.3467,24.577-1.3467l1.0942-4.4609s-12.065,2.3892-12.373-1.7675c-1.9148-10.075,22.169-29.929,13.299-35.519-2.9111-1.8345-11.238,0.3147-15.655,2.02-5.1102,1.9726-14.982,10.437-14.982,10.437l7.4068-14.982-12.962,0.84169z" fill-rule="evenodd"/>
        <path d="m987.84,423.46c-4.6447-1.2035-10.15-1.6861-13.666-1.3014-11.436,1.2511-27.076,8.835-33.116,18.626-2.9017,4.7041-6.8406,13.891-1.2264,18.04,5.6372,4.1659,21.978-5.2176,21.978-5.2176-0.00003,0.00001-3.1154,7.833,0.68039,11.592,2.5956,2.5707,26.247-1.5093,26.247-1.5093l0.89227-3.2642c-0.00001,0-8.6934,1.2652-10.392-0.29792-1.7808-1.6391-1.1508-5.2151-0.52024-7.5518,1.8178-6.7297,17.87-17.925,17.658-23.515-0.0942-2.4823-3.8898-4.3981-8.5345-5.6016zm-11.877,5.5751c1.3559,0.38845,2.3053,1.0169,2.6284,1.7044,0.80333,1.7091-6.1018,10.119-9.827,13.453-3.8571,3.453-12.421,10.591-14.97,8.5902-3.2276-2.5335,1.1371-12.693,4.4026-16.711,5.935-7.3037,13.698-8.2019,17.766-7.0366z" fill-rule="evenodd"/>
        <path d="m1037.6,404s-26.877,25.402-37.188,38.375c-25.52,32.111-11.042,37.288,20.188,36.719l0.5-2.1875c0,0.00001-7.8595-1.6913-10.969-3.125-2.688-1.2395-8.2187-5.4688-8.2187-5.4688,0-0.00001,22.186-9.2723,31.812-22.719,7.8024-10.899,18.344-40.75,18.344-40.75l-14.4-0.84zm1.5312,11.125s-8.4584,21.881-14.312,29.438c-5.7821,7.4633-23.406,19.375-23.406,19.375s7.6432-15.316,16-23.906c7.1853-7.386,21.719-24.906,21.719-24.906z" fill-rule="evenodd"/>
      </g>
    </g>
  </g>
</svg>
