<?xml version="1.0" encoding="UTF-8" standalone="no"?>
<!-- Created with Inkscape (http://www.inkscape.org/) -->
<svg xmlns:rdf="http://www.w3.org/1999/02/22-rdf-syntax-ns#" xmlns="http://www.w3.org/2000/svg" height="66.89" width="600" version="1.1" xmlns:cc="http://creativecommons.org/ns#" xmlns:dc="http://purl.org/dc/elements/1.1/">
 <defs></defs>
 <metadata>
  <rdf:RDF>
   <cc:Work rdf:about="">
    <dc:format>image/svg+xml</dc:format>
    <dc:type rdf:resource="http://purl.org/dc/dcmitype/StillImage"/>
    <dc:title/>
   </cc:Work>
  </rdf:RDF>
 </metadata>
 <g fill-rule="nonzero" transform="translate(-269.25316,-256.12891)">
  <path d="m269.25,321.44,0-65.303,16.295,0,0,20.166s4.9188-7.7342,15.018-7.7342c10.23,0,18.579,7.4314,18.579,17.22v35.651h-16.14v-30.413c0-4.3132-1.1949-8.3563-8.0862-8.3563-5.0416,0-9.3875,4.4523-9.3875,9.4202l0.0164,29.341-16.295,0.008z" fill="#FFF"/>
  <path d="m337.59,295.91c0,6.8831,5.2789,12.26,12.367,12.26,7.7015,0,12.383-4.9516,12.383-13.013,0-6.6212-5.0252-11.835-12.301-11.835-7.5296,0-12.448,5.5408-12.448,12.588m12.538-27.287c15.55,0,27.671,11.245,27.671,26.796,0,15.698-11.286,27.54-27.999,27.54-15.714,0-27.761-12.94-27.761-27.303,0-15.436,12.277-27.033,28.089-27.033" fill="#FFF"/>
  <path d="m396.16,297.56,0,23.866-15.861,0,0.0164-51.856,15.256,0.008,0,8.2335c1.2604-3.8794,6.0646-9.1911,12.293-9.1911h3.552v16.189s-1.9233-1.0149-5.4754-1.0149c-6.0892,0-9.7804,3.7157-9.7804,13.766" fill="#FFF"/>
  <path d="m430.58,297.56,0,23.866-15.861,0,0-51.881,15.272-0.0164,0,8.2826c1.2604-3.8794,6.0646-9.1911,12.309-9.1911h3.5357v16.189s-1.9397-1.0149-5.4672-1.0149c-6.081,0-9.7885,3.7157-9.7885,13.766" fill="#FFF"/>
  <path d="m462.49,295.91c0,6.8831,5.2789,12.26,12.367,12.26,7.7015,0,12.383-4.9516,12.383-13.013,0-6.6212-5.0252-11.835-12.293-11.835-7.5215,0-12.457,5.5408-12.457,12.588m12.538-27.287c15.567,0,27.671,11.245,27.671,26.796,0,15.698-11.286,27.54-27.999,27.54-15.722,0-27.761-12.94-27.761-27.303,0-15.436,12.277-27.033,28.089-27.033" fill="#FFF"/>
  <path d="m521.19,297.52,0,23.915-15.886,0,0-51.865,15.297,0,0,8.2008c1.2604-3.9121,6.081-9.232,12.326-9.232h3.552v16.23s-1.9479-1.0149-5.4999-1.0149c-6.0646,0-9.7885,3.7157-9.7885,13.766" fill="#FFF"/>
  <path d="m578.63,319.94s-7.5706,2.9546-12.571,2.9546c-16,0-26.706-11.499-26.706-26.747,0-15.067,10.959-27.508,26.968-27.508,4.8124,0,7.7424,0.58928,12.056,2.529v16.344c-1.7678-1.866-6.8258-4.2395-11.466-4.2395-6.8258,0-11.884,6.3511-11.884,13.3,0,7.0222,5.6472,11.769,12.571,11.769,4.3786,0,9.4366-2.1934,11.033-3.4866v15.084z" fill="#58120b"/>
  <path d="m581.92,321.44,0-65.303,16.279,0,0,20.166s4.9188-7.7342,15.002-7.7342c10.263,0,18.595,7.4314,18.595,17.22v35.651h-16.14v-30.413c0-4.3132-1.1786-8.3563-8.0698-8.3563-5.058,0-9.3875,4.4523-9.3875,9.4202v29.341l-16.279,0.008z" fill="#58120b"/>
  <path d="m650.72,295.67c0,7.2268,4.5587,13.152,11.826,13.152,7.0304,0,12.866-5.1807,12.866-12.743,0-7.636-5.4181-12.907-12.375-12.907-7.5215,0-12.318,5.5981-12.318,12.498m9.1993-27.123c6.3511,0,10.321,2.1198,14.977,6.3756v-5.3444h15.567l-0.0327,51.848h-15.78v-4.7797s-5.6718,6.3756-15.567,6.3756c-14.462,0-24.349-10.386-24.349-27.123,0-14.511,10.738-27.352,25.183-27.352" fill="#58120b"/>
  <path d="m694.36,321.51,0-51.938,15.673,0,0,6.7603s4.9679-7.767,15.067-7.767c10.271,0,18.628,7.4478,18.628,17.261v35.684h-16.189v-30.462c0-4.305-1.1622-8.3726-8.0698-8.3726-5.0743,0-9.2811,4.1577-9.2811,9.1338v29.701h-15.829z" fill="#58120b"/>
  <path d="m746.97,321.51,0-51.938,15.64,0,0,6.7603s4.9843-7.767,15.1-7.767c10.255,0,18.595,7.4478,18.595,17.261v35.684h-16.156v-30.462c0-4.305-1.1949-8.3726-8.0862-8.3726-5.058,0-9.2811,4.1577-9.2811,9.1338v29.701h-15.812z" fill="#58120b"/>
  <path d="m815.05,289.23,19.675,0c-1.866-5.0088-4.5587-7.3905-9.4448-7.3905-5.328,0-8.2908,2.5535-10.23,7.3905m10.394-20.616c14.928,0,25.494,9.9195,25.494,28.498,0,1.2768,0.0982,1.9561,0,3.1428h-36.478c1.3504,6.1956,6.2529,9.1747,12.154,9.1747,5.1644,0,8.5281-3.6584,11.229-7.2268,0,0,9.3711,5.4263,12.244,7.2268-4.5424,8.1435-13.349,13.562-24.226,13.562-15.976,0-26.951-9.7476-26.951-27.246,0-15.771,11.237-27.131,26.534-27.131" fill="#58120b"/>
  <path fill="#58120b" d="m853.56,256.13,15.689,0,0,65.295-15.689,0,0-65.295z"/>
  <path d="m269.25,321.44,0-65.303,16.295,0,0,20.166s4.9188-7.7342,15.018-7.7342c10.23,0,18.579,7.4314,18.579,17.22v35.651h-16.14v-30.413c0-4.3132-1.1949-8.3563-8.0862-8.3563-5.0416,0-9.3875,4.4523-9.3875,9.4202l0.0164,29.341-16.295,0.008z" fill="#ba251c"/>
  <path d="m337.59,295.91c0,6.8831,5.2789,12.26,12.367,12.26,7.7015,0,12.383-4.9516,12.383-13.013,0-6.6212-5.0252-11.835-12.301-11.835-7.5296,0-12.448,5.5408-12.448,12.588m12.538-27.287c15.55,0,27.671,11.245,27.671,26.796,0,15.698-11.286,27.54-27.999,27.54-15.714,0-27.761-12.94-27.761-27.303,0-15.436,12.277-27.033,28.089-27.033" fill="#ba251c"/>
  <path d="m396.16,297.56,0,23.866-15.861,0,0.0164-51.856,15.256,0.008,0,8.2335c1.2604-3.8794,6.0646-9.1911,12.293-9.1911h3.552v16.189s-1.9233-1.0149-5.4754-1.0149c-6.0892,0-9.7804,3.7157-9.7804,13.766" fill="#ba251c"/>
  <path d="m430.58,297.56,0,23.866-15.861,0,0-51.881,15.272-0.0164,0,8.2826c1.2604-3.8794,6.0646-9.1911,12.309-9.1911h3.5357v16.189s-1.9397-1.0149-5.4672-1.0149c-6.081,0-9.7885,3.7157-9.7885,13.766" fill="#ba251c"/>
  <path d="m462.49,295.91c0,6.8831,5.2789,12.26,12.367,12.26,7.7015,0,12.383-4.9516,12.383-13.013,0-6.6212-5.0252-11.835-12.293-11.835-7.5215,0-12.457,5.5408-12.457,12.588m12.538-27.287c15.567,0,27.671,11.245,27.671,26.796,0,15.698-11.286,27.54-27.999,27.54-15.722,0-27.761-12.94-27.761-27.303,0-15.436,12.277-27.033,28.089-27.033" fill="#ba251c"/>
  <path d="m521.19,297.52,0,23.915-15.886,0,0-51.865,15.297,0,0,8.2008c1.2604-3.9121,6.081-9.232,12.326-9.232h3.552v16.23s-1.9479-1.0149-5.4999-1.0149c-6.0646,0-9.7885,3.7157-9.7885,13.766" fill="#ba251c"/>
  <path d="m578.63,319.94s-7.5706,2.9546-12.571,2.9546c-16,0-26.706-11.499-26.706-26.747,0-15.067,10.959-27.508,26.968-27.508,4.8124,0,7.7424,0.58928,12.056,2.529v16.344c-1.7678-1.866-6.8258-4.2395-11.466-4.2395-6.8258,0-11.884,6.3511-11.884,13.3,0,7.0222,5.6472,11.769,12.571,11.769,4.3786,0,9.4366-2.1934,11.033-3.4866v15.084z" fill="#58120b"/>
  <path d="m581.92,321.44,0-65.303,16.279,0,0,20.166s4.9188-7.7342,15.002-7.7342c10.263,0,18.595,7.4314,18.595,17.22v35.651h-16.14v-30.413c0-4.3132-1.1786-8.3563-8.0698-8.3563-5.058,0-9.3875,4.4523-9.3875,9.4202v29.341l-16.279,0.008z" fill="#58120b"/>
  <path d="m650.72,295.67c0,7.2268,4.5587,13.152,11.826,13.152,7.0304,0,12.866-5.1807,12.866-12.743,0-7.636-5.4181-12.907-12.375-12.907-7.5215,0-12.318,5.5981-12.318,12.498m9.1993-27.123c6.3511,0,10.321,2.1198,14.977,6.3756v-5.3444h15.567l-0.0327,51.848h-15.78v-4.7797s-5.6718,6.3756-15.567,6.3756c-14.462,0-24.349-10.386-24.349-27.123,0-14.511,10.738-27.352,25.183-27.352" fill="#58120b"/>
  <path d="m694.36,321.51,0-51.938,15.673,0,0,6.7603s4.9679-7.767,15.067-7.767c10.271,0,18.628,7.4478,18.628,17.261v35.684h-16.189v-30.462c0-4.305-1.1622-8.3726-8.0698-8.3726-5.0743,0-9.2811,4.1577-9.2811,9.1338v29.701h-15.829z" fill="#58120b"/>
  <path d="m746.97,321.51,0-51.938,15.64,0,0,6.7603s4.9843-7.767,15.1-7.767c10.255,0,18.595,7.4478,18.595,17.261v35.684h-16.156v-30.462c0-4.305-1.1949-8.3726-8.0862-8.3726-5.058,0-9.2811,4.1577-9.2811,9.1338v29.701h-15.812z" fill="#58120b"/>
  <path d="m815.05,289.23,19.675,0c-1.866-5.0088-4.5587-7.3905-9.4448-7.3905-5.328,0-8.2908,2.5535-10.23,7.3905m10.394-20.616c14.928,0,25.494,9.9195,25.494,28.498,0,1.2768,0.0982,1.9561,0,3.1428h-36.478c1.3504,6.1956,6.2529,9.1747,12.154,9.1747,5.1644,0,8.5281-3.6584,11.229-7.2268,0,0,9.3711,5.4263,12.244,7.2268-4.5424,8.1435-13.349,13.562-24.226,13.562-15.976,0-26.951-9.7476-26.951-27.246,0-15.771,11.237-27.131,26.534-27.131" fill="#58120b"/>
  <path fill="#58120b" d="m853.56,256.13,15.689,0,0,65.295-15.689,0,0-65.295z"/>
 </g>
</svg>
