<?xml version="1.0" encoding="UTF-8" standalone="no"?>
<svg xmlns:rdf="http://www.w3.org/1999/02/22-rdf-syntax-ns#" xmlns="http://www.w3.org/2000/svg" height="282.76" width="600" version="1.1" xmlns:cc="http://creativecommons.org/ns#" xmlns:dc="http://purl.org/dc/elements/1.1/" viewBox="0 0 158.75 74.814718">
 <g transform="translate(-40.821 -134.1)">
  <path d="m48.569 149.85c0-8.08 0-9.53 0.098-11.19 0.098-1.81 0.487-2.69 1.804-2.95 0.585-0.1 0.876-0.16 1.217-0.16 0.195 0 0.391-0.1 0.391-0.31 0-0.31-0.245-0.41-0.781-0.41-1.461 0-4.532 0.15-4.775 0.15-0.244 0-3.313-0.15-4.921-0.15-0.536 0-0.781 0.1-0.781 0.41 0 0.21 0.196 0.31 0.39 0.31 0.342 0 0.974 0.06 1.512 0.21 1.072 0.26 1.559 1.14 1.656 2.9 0.096 1.66 0.096 3.11 0.096 11.19v9.11c0 4.98 0 9.07-0.242 11.24-0.196 1.5-0.438 2.64-1.414 2.85-0.439 0.1-1.023 0.21-1.462 0.21-0.291 0-0.389 0.15-0.389 0.31 0 0.31 0.243 0.41 0.779 0.41 1.463 0 4.532-0.15 4.776-0.15 0.243 0 3.314 0.15 5.994 0.15 0.536 0 0.778-0.15 0.778-0.41 0-0.16-0.096-0.31-0.389-0.31-0.438 0-1.51-0.11-2.193-0.21-1.461-0.21-1.754-1.35-1.899-2.85-0.245-2.17-0.245-6.26-0.245-11.24v-9.11zm19.784 24.86c2.631 0 5.264-0.62 7.359-2.18 3.362-2.54 4.141-6.47 4.141-8.59 0-4.15-1.363-7.36-7.114-12.18l-1.364-1.13c-4.678-3.89-5.946-5.75-5.946-8.7 0-3.79 2.633-6.01 5.994-6.01 4.483 0 5.799 2.17 6.091 2.74 0.293 0.57 0.585 1.97 0.633 2.59 0.049 0.42 0.098 0.68 0.391 0.68 0.243 0 0.341-0.37 0.341-1.2 0-3.52 0.195-5.23 0.195-5.49s-0.097-0.36-0.487-0.36c-0.391 0-0.78-0.05-1.705-0.26-1.219-0.31-2.633-0.52-4.532-0.52-6.189 0-10.088 3.79-10.088 9.33 0 3.52 1.17 6.73 6.336 11.24l2.192 1.91c4.191 3.68 5.605 5.75 5.605 9.32 0 3.32-2.291 6.89-6.97 6.89-3.264 0-6.48-1.45-7.212-5.28-0.146-0.73-0.146-1.45-0.146-1.92 0-0.41-0.049-0.57-0.341-0.57-0.244 0-0.34 0.26-0.389 0.83-0.049 0.83-0.245 2.9-0.245 5.49 0 1.4 0.049 1.61 0.732 1.97 1.997 1.03 4.239 1.4 6.529 1.4m25.048-24.86c0-8.08 0-9.53 0.096-11.19 0.098-1.81 0.489-2.69 1.901-2.95 0.585-0.1 1.268-0.16 1.608-0.16 0.196 0 0.389-0.1 0.389-0.31 0-0.31-0.242-0.41-0.778-0.41-1.463 0-5.02 0.15-5.264 0.15-0.243 0-3.314-0.15-5.506-0.15-0.536 0-0.779 0.1-0.779 0.41 0 0.21 0.194 0.31 0.389 0.31 0.439 0 1.268 0.06 1.657 0.16 1.608 0.36 1.997 1.19 2.095 2.95 0.098 1.66 0.098 3.11 0.098 11.19v9.11c0 4.98 0 9.07-0.245 11.24-0.193 1.5-0.438 2.64-1.412 2.85-0.438 0.1-1.023 0.21-1.461 0.21-0.293 0-0.391 0.15-0.391 0.31 0 0.31 0.244 0.41 0.78 0.41 0.732 0 1.804-0.05 2.778-0.1 0.974 0 1.803-0.05 1.997-0.05 1.414 0 2.924 0.05 4.97 0.15 2.048 0.05 4.577 0.16 8.087 0.16 2.59 0 2.73-0.21 3.07-1.4 0.39-1.5 0.73-4.61 0.73-5.18s-0.04-0.78-0.29-0.78c-0.29 0-0.39 0.26-0.44 0.68-0.14 0.98-0.63 2.28-1.26 3.1-1.17 1.51-3.32 1.56-5.9 1.56-3.801 0-5.069-0.36-5.847-1.19-0.878-0.94-1.072-0.72-1.072-8.33v-12.75zm22.169 18.44c-0.88 2.58-1.85 4.55-4.09 4.86-0.39 0.06-1.07 0.11-1.42 0.11-0.24 0-0.43 0.1-0.43 0.31 0 0.31 0.29 0.41 0.92 0.41 2.29 0 4.97-0.15 5.51-0.15s2.63 0.15 3.8 0.15c0.44 0 0.73-0.1 0.73-0.41 0-0.21-0.14-0.31-0.49-0.31h-0.48c-0.83 0-1.86-0.47-1.86-1.5 0-0.94 0.25-2.18 0.69-3.47l2.92-9.17c0.1-0.26 0.25-0.42 0.49-0.42h10.47c0.25 0 0.35 0.11 0.44 0.32l4.54 12.74c0.29 0.82 0 1.29-0.3 1.39-0.19 0.06-0.34 0.16-0.34 0.37 0 0.31 0.54 0.31 1.46 0.36 3.37 0.1 6.92 0.1 7.65 0.1 0.54 0 0.98-0.1 0.98-0.41 0-0.26-0.19-0.31-0.49-0.31-0.49 0-1.22-0.05-1.95-0.31-1.02-0.31-2.43-1.14-4.19-5.75-2.97-7.87-10.62-29.26-11.35-31.23-0.59-1.61-0.78-1.87-1.07-1.87-0.3 0-0.49 0.31-1.08 2.02l-11.06 32.17zm6.82-11.45c-0.14 0-0.24-0.1-0.14-0.36l4.29-13.99c0.24-0.77 0.48-0.77 0.73 0l4.63 13.99c0.05 0.2 0.05 0.36-0.2 0.36h-9.31zm66.52-21.34c-0.1-0.98-0.24-1.4-0.58-1.4s-0.54 0.37-0.73 0.83l-14.33 32.53-14.91-32.58c-0.25-0.57-0.44-0.78-0.73-0.78-0.3 0-0.49 0.37-0.54 0.94l-3.51 33.76c-0.19 1.97-0.34 3.99-1.95 4.3-0.73 0.16-1.07 0.16-1.46 0.16-0.24 0-0.49 0.1-0.49 0.26 0 0.36 0.34 0.46 0.83 0.46 1.32 0 3.66-0.15 4.09-0.15 0.39 0 2.73 0.15 4.54 0.15 0.58 0 0.87-0.1 0.87-0.46 0-0.16-0.19-0.26-0.39-0.26-0.29 0-1.02-0.05-1.85-0.26-0.73-0.16-1.27-0.83-1.27-1.61 0-0.88 0-1.81 0.05-2.64l1.95-24.03h0.2c0.53 1.4 5.99 13.83 6.43 14.76 0.24 0.52 4.43 9.48 5.7 12.02 0.93 1.86 1.17 2.38 1.51 2.38 0.44 0 0.59-0.47 1.61-2.75l11.94-26.93h0.15l2.33 26.73c0.1 0.93 0.05 1.81-0.19 1.86s-0.34 0.16-0.34 0.36c0 0.26 0.24 0.42 1.36 0.52 1.81 0.16 7.07 0.31 8.14 0.31 0.59 0 1.02-0.15 1.02-0.46 0-0.21-0.14-0.26-0.39-0.26-0.48 0-1.75 0-3.16-0.47-2.1-0.72-2.44-3.62-2.63-5.49l-3.27-31.8z" fill="#262262"/>
  <path d="m40.822 208.92h158.75v-29.38h-158.75l0.002 29.38z" fill="#262262"/>
  <path d="m58.997 203.11c1.544 0 3.378-0.17 4.343-0.56 0.434-0.19 0.483-0.24 0.627-0.7 0.241-0.82 0.531-2.92 0.531-3.09 0-0.19-0.049-0.36-0.168-0.36-0.145 0-0.194 0.1-0.241 0.36-0.073 0.44-0.388 1.5-0.893 2.03-0.966 0.99-2.389 1.21-4.199 1.21-5.162 0-8.71-4.23-8.71-8.83 0-2.46 0.411-4.61 2.172-6.3 0.845-0.82 2.34-1.76 5.549-1.76 2.123 0 3.981 0.65 4.825 1.37 0.627 0.53 1.013 1.52 1.013 2.46 0 0.34 0.025 0.51 0.194 0.51 0.145 0 0.192-0.14 0.217-0.51 0.024-0.36 0.024-1.68 0.073-2.48 0.047-0.87 0.119-1.16 0.119-1.35 0-0.15-0.047-0.24-0.313-0.27-0.772-0.05-1.544-0.19-2.461-0.36-1.181-0.22-2.533-0.29-3.499-0.29-3.714 0-5.911 1.14-7.358 2.58-2.148 2.15-2.702 4.97-2.702 6.59 0 2.29 0.578 5.04 2.919 7.14 1.906 1.71 4.343 2.61 7.962 2.61m28.277-11.58c0-3.77 0-4.44 0.049-5.22 0.049-0.84 0.241-1.25 0.893-1.37 0.29-0.05 0.433-0.07 0.603-0.07 0.097 0 0.193-0.05 0.193-0.15 0-0.14-0.12-0.19-0.386-0.19-0.723 0-2.244 0.07-2.365 0.07-0.12 0-1.64-0.07-2.725-0.07-0.267 0-0.386 0.05-0.386 0.19 0 0.1 0.096 0.15 0.192 0.15 0.217 0 0.627 0.02 0.821 0.07 0.795 0.17 0.989 0.55 1.036 1.37 0.049 0.78 0.049 1.45 0.049 5.22v0.5c0 0.12-0.072 0.15-0.145 0.15h-10.231c-0.072 0-0.145-0.03-0.145-0.15v-0.5c0-3.77 0-4.44 0.049-5.22 0.049-0.84 0.241-1.25 0.894-1.37 0.289-0.05 0.433-0.07 0.603-0.07 0.096 0 0.192-0.05 0.192-0.15 0-0.14-0.12-0.19-0.386-0.19-0.723 0-2.243 0.07-2.365 0.07-0.119 0-1.64-0.07-2.725-0.07-0.266 0-0.386 0.05-0.386 0.19 0 0.1 0.096 0.15 0.192 0.15 0.218 0 0.627 0.02 0.821 0.07 0.796 0.17 0.989 0.55 1.037 1.37 0.048 0.78 0.048 1.45 0.048 5.22v4.24c0 2.32 0 4.22-0.121 5.24-0.096 0.7-0.216 1.23-0.699 1.32-0.218 0.05-0.506 0.1-0.723 0.1-0.145 0-0.194 0.07-0.194 0.15 0 0.14 0.121 0.19 0.386 0.19 0.724 0 2.245-0.07 2.364-0.07 0.122 0 1.642 0.07 2.969 0.07 0.266 0 0.385-0.07 0.385-0.19 0-0.08-0.048-0.15-0.192-0.15-0.217 0-0.748-0.05-1.087-0.1-0.723-0.09-0.868-0.62-0.94-1.32-0.122-1.02-0.122-2.92-0.122-5.24v-2.53c0-0.12 0.073-0.15 0.145-0.15h10.231c0.073 0 0.145 0.05 0.145 0.15v2.53c0 2.32 0 4.22-0.121 5.24-0.096 0.7-0.216 1.23-0.7 1.32-0.217 0.05-0.505 0.1-0.723 0.1-0.145 0-0.194 0.07-0.194 0.15 0 0.14 0.122 0.19 0.386 0.19 0.725 0 2.245-0.07 2.365-0.07 0.121 0 1.642 0.07 2.968 0.07 0.266 0 0.386-0.07 0.386-0.19 0-0.08-0.049-0.15-0.192-0.15-0.218 0-0.748-0.05-1.087-0.1-0.723-0.09-0.868-0.62-0.941-1.32-0.121-1.02-0.121-2.92-0.121-5.24v-4.24zm9 8.59c-0.435 1.2-0.917 2.12-2.026 2.26-0.194 0.03-0.531 0.05-0.701 0.05-0.12 0-0.216 0.05-0.216 0.15 0 0.14 0.144 0.19 0.459 0.19 1.132 0 2.461-0.07 2.725-0.07 0.267 0 1.303 0.07 1.883 0.07 0.217 0 0.361-0.05 0.361-0.19 0-0.1-0.071-0.15-0.241-0.15h-0.241c-0.41 0-0.917-0.22-0.917-0.7 0-0.43 0.121-1.01 0.338-1.61l1.448-4.28c0.047-0.12 0.12-0.19 0.241-0.19h5.193c0.11 0 0.16 0.05 0.21 0.15l2.25 5.93c0.14 0.39 0 0.6-0.15 0.65-0.1 0.03-0.17 0.07-0.17 0.17 0 0.15 0.27 0.15 0.73 0.17 1.66 0.05 3.42 0.05 3.78 0.05 0.27 0 0.49-0.05 0.49-0.19 0-0.13-0.1-0.15-0.24-0.15-0.25 0-0.61-0.02-0.97-0.14-0.51-0.15-1.21-0.53-2.08-2.68-1.47-3.67-5.26-13.63-5.62-14.55-0.29-0.75-0.38-0.87-0.53-0.87-0.14 0-0.24 0.15-0.53 0.94l-5.476 14.99zm3.378-5.34c-0.073 0-0.12-0.04-0.073-0.17l2.121-6.51c0.12-0.36 0.24-0.36 0.37 0l2.29 6.51c0.02 0.1 0.02 0.17-0.1 0.17h-4.608zm18.268-6.85c0.77 0.87 3.5 3.91 6.29 6.92 2.56 2.76 6.04 6.3 6.3 6.54 1.28 1.28 1.57 1.55 1.76 1.55 0.17 0 0.22-0.12 0.22-1.72l0.05-14.13c0-1.45 0.09-1.98 0.89-2.15 0.29-0.07 0.46-0.07 0.58-0.07 0.17 0 0.27-0.08 0.27-0.17 0-0.15-0.17-0.17-0.44-0.17-0.99 0-1.78 0.07-2.05 0.07-0.26 0-1.42-0.07-2.51-0.07-0.29 0-0.48 0.02-0.48 0.17 0 0.09 0.02 0.17 0.19 0.17 0.19 0 0.75 0.02 1.18 0.12 0.75 0.19 0.92 0.72 0.94 2.29l0.27 12.26c-0.77-0.8-3.4-3.74-5.79-6.3-3.72-3.98-7.31-7.87-7.67-8.28-0.24-0.24-0.66-0.77-0.85-0.77s-0.26 0.27-0.26 1.21l-0.03 13.82c0 2.2-0.12 2.9-0.72 3.07-0.36 0.12-0.8 0.14-0.99 0.14-0.12 0-0.19 0.05-0.19 0.15 0 0.16 0.14 0.19 0.38 0.19 1.09 0 2.1-0.07 2.32-0.07s1.18 0.07 2.56 0.07c0.29 0 0.43-0.05 0.43-0.19 0-0.1-0.07-0.15-0.19-0.15-0.22 0-0.75-0.02-1.21-0.14-0.65-0.2-0.89-0.82-0.94-2.8l-0.31-11.56zm25.26 0c0.77 0.87 3.5 3.91 6.3 6.92 2.55 2.76 6.03 6.3 6.29 6.54 1.28 1.28 1.57 1.55 1.77 1.55 0.16 0 0.21-0.12 0.21-1.72l0.05-14.13c0-1.45 0.1-1.98 0.89-2.15 0.29-0.07 0.46-0.07 0.58-0.07 0.17 0 0.27-0.08 0.27-0.17 0-0.15-0.17-0.17-0.44-0.17-0.99 0-1.78 0.07-2.05 0.07-0.26 0-1.42-0.07-2.51-0.07-0.29 0-0.48 0.02-0.48 0.17 0 0.09 0.02 0.17 0.19 0.17 0.2 0 0.75 0.02 1.19 0.12 0.74 0.19 0.91 0.72 0.94 2.29l0.26 12.26c-0.77-0.8-3.4-3.74-5.79-6.3-3.71-3.98-7.31-7.87-7.67-8.28-0.24-0.24-0.65-0.77-0.85-0.77-0.19 0-0.26 0.27-0.26 1.21l-0.03 13.82c0 2.2-0.12 2.9-0.72 3.07-0.36 0.12-0.8 0.14-0.99 0.14-0.12 0-0.19 0.05-0.19 0.15 0 0.16 0.14 0.19 0.38 0.19 1.09 0 2.1-0.07 2.32-0.07s1.18 0.07 2.56 0.07c0.29 0 0.43-0.05 0.43-0.19 0-0.1-0.07-0.15-0.19-0.15-0.22 0-0.75-0.02-1.21-0.14-0.65-0.2-0.89-0.82-0.94-2.8l-0.31-11.56zm24.92 7.84c0 2.32 0 4.22-0.12 5.24-0.09 0.7-0.22 1.23-0.7 1.32-0.22 0.05-0.5 0.1-0.72 0.1-0.15 0-0.19 0.07-0.19 0.15 0 0.14 0.12 0.19 0.38 0.19 0.36 0 0.92-0.05 1.4-0.05 0.51-0.02 0.92-0.02 0.97-0.02 0.36 0 0.94 0.02 1.88 0.07 0.94 0.02 2.27 0.07 4.08 0.07 0.94 0 1.13 0 1.3-0.63 0.12-0.5 0.31-2.14 0.31-2.34 0-0.16 0-0.36-0.14-0.36-0.12 0-0.17 0.1-0.22 0.36-0.17 0.99-0.46 1.48-1.09 1.74-0.62 0.27-1.68 0.27-2.31 0.27-2.37 0-2.73-0.32-2.8-1.98-0.02-0.51 0-3.31 0-4.13v-2.12c0-0.1 0.05-0.17 0.17-0.17 0.41 0 2.8 0.05 3.45 0.12 0.94 0.1 1.16 0.51 1.25 0.85 0.1 0.31 0.1 0.55 0.1 0.79 0 0.12 0.05 0.22 0.17 0.22 0.17 0 0.17-0.27 0.17-0.46 0-0.17 0.05-1.06 0.09-1.54 0.08-0.8 0.2-1.21 0.2-1.36 0-0.14-0.05-0.19-0.12-0.19-0.1 0-0.2 0.12-0.37 0.32-0.21 0.24-0.55 0.29-1.13 0.33-0.55 0.05-3.52 0.05-3.84 0.05-0.12 0-0.14-0.07-0.14-0.24v-6.66c0-0.17 0.05-0.24 0.14-0.24 0.27 0 2.9 0.02 3.31 0.07 1.3 0.15 1.54 0.44 1.71 0.82 0.12 0.29 0.15 0.7 0.15 0.87 0 0.19 0.05 0.32 0.19 0.32 0.1 0 0.15-0.15 0.17-0.27 0.05-0.29 0.1-1.35 0.12-1.59 0.07-0.68 0.19-0.97 0.19-1.14 0-0.12-0.02-0.21-0.09-0.21-0.12 0-0.22 0.09-0.34 0.12-0.19 0.04-0.58 0.09-1.04 0.12-0.55 0.02-5.36 0.02-5.52 0.02l-0.99-0.05c-0.53-0.02-1.19-0.02-1.74-0.02-0.27 0-0.39 0.05-0.39 0.19 0 0.1 0.1 0.15 0.2 0.15 0.21 0 0.62 0.02 0.82 0.07 0.79 0.17 0.99 0.55 1.03 1.37 0.05 0.78 0.05 1.45 0.05 5.22v4.24zm19.16-4.24c0-3.77 0-4.44 0.05-5.22 0.05-0.84 0.24-1.25 0.94-1.37 0.29-0.05 0.63-0.07 0.79-0.07 0.1 0 0.2-0.05 0.2-0.15 0-0.14-0.12-0.19-0.39-0.19-0.72 0-2.48 0.07-2.6 0.07s-1.64-0.07-2.73-0.07c-0.27 0-0.39 0.05-0.39 0.19 0 0.1 0.1 0.15 0.2 0.15 0.21 0 0.62 0.02 0.82 0.07 0.79 0.17 0.99 0.55 1.04 1.37 0.04 0.78 0.04 1.45 0.04 5.22v4.24c0 2.32 0 4.22-0.12 5.24-0.09 0.7-0.21 1.23-0.7 1.32-0.21 0.05-0.5 0.1-0.72 0.1-0.15 0-0.19 0.07-0.19 0.15 0 0.14 0.12 0.19 0.38 0.19 0.36 0 0.89-0.03 1.38-0.05 0.48 0 0.89-0.02 0.99-0.02 0.7 0 1.44 0.02 2.46 0.07 1.01 0.02 2.26 0.07 4 0.07 1.28 0 1.35-0.1 1.52-0.65 0.19-0.7 0.37-2.15 0.37-2.41 0-0.27-0.03-0.36-0.15-0.36-0.14 0-0.19 0.12-0.22 0.31-0.07 0.46-0.31 1.06-0.62 1.45-0.58 0.7-1.65 0.72-2.92 0.72-1.89 0-2.51-0.17-2.9-0.55-0.43-0.44-0.53-1.98-0.53-5.53v-4.29z" fill="#fff"/>
 </g>
</svg>
