<?xml version="1.0" encoding="UTF-8" standalone="no"?>
<!-- Created with Inkscape (http://www.inkscape.org/) -->
<svg xmlns:rdf="http://www.w3.org/1999/02/22-rdf-syntax-ns#" xmlns="http://www.w3.org/2000/svg" height="601.15" width="600" version="1.1" xmlns:cc="http://creativecommons.org/ns#" xmlns:xlink="http://www.w3.org/1999/xlink" xmlns:dc="http://purl.org/dc/elements/1.1/">
 <defs></defs>
 <metadata>
  <rdf:RDF>
   <cc:Work rdf:about="">
    <dc:format>image/svg+xml</dc:format>
    <dc:type rdf:resource="http://purl.org/dc/dcmitype/StillImage"/>
    <dc:title/>
   </cc:Work>
  </rdf:RDF>
 </metadata>
 <g transform="translate(-238.14345,1173.2256)">
  <path d="M300.97,0c-12.92-0.255-25.94,4.5651-35.85,14.438l-250.65,250.78c-19.294,19.18-19.294,50.43,0,69.56l187.62,187.69v41.34c0,25.91,35.97,54.37,66.25,24.69,19.41,16.23,48.28,15.2,66.54-3l250.65-250.72c19.3-19.13,19.3-50.38,0-69.56l-187.91-188.03v-35.407c0-34.434-37.29-49.965-64.84-29.25-9.09-8.1215-20.41-12.306-31.81-12.531zm-1.38,33.625c3.08-0.066,6.18,0.754,8.88,2.5l-168.41,168.76c-22.95,26.07-11.46,64.1,35.44,64.15h26.38s0.13,118.35,0.18,205.47l-163.5-163.5c-6.285-6.29-6.285-16.34,0-22.62l250.06-250.07c3.08-3.043,7.02-4.603,10.97-4.687zm60.16,1.281c2.73,0.144,3.98,4.054,4.19,8.563l-0.03,2.906v44.594,340.84c0.93,16.02-7.35,20.05-7.35,20.81l-106.78,106.69-1.72,1.66-1.09,0.97-0.38,0.34-1.25,1.1-0.12,0.03-1.25,0.93c-5.85,3.88-8.04,0.5-8.09-9.78v-46.28-272.44h-55.91c-17.22-0.05-19.33-3.63-9.88-13.09l162.66-163,21.47-21.469,1.22-1.219,1.06-0.937c1.26-0.902,2.34-1.267,3.25-1.219zm37.87,89.784l163.69,163.69c6.23,6.28,6.23,16.33,0,22.62l-250.09,250c-4.98,5.03-12.41,5.96-18.31,3.06l95.59-95.62c0-0.88,9.12-8.71,9.12-26.03v-317.72z" fill-rule="nonzero" transform="translate(238.14345,-1173.2256)" fill="#0d91da"/>
 </g>
</svg>
