<?xml version="1.0" encoding="UTF-8" standalone="no"?>
<svg xmlns:rdf="http://www.w3.org/1999/02/22-rdf-syntax-ns#" xmlns="http://www.w3.org/2000/svg" height="222.24" viewBox="0 0 600 222.24305" width="600" version="1.1" xmlns:cc="http://creativecommons.org/ns#" xmlns:dc="http://purl.org/dc/elements/1.1/">
 <g fill="#00bc96">
  <path d="m442.71 96.56c0 31.16-14.78 49.1-64.92 83.82-1.98 1.37-1.46 3.18 0.1 3.18h58.73c4.16 0 6.33 1.6 6.88 5.6 0.67 4.85 0.99 8.77 0.99 13.83 0 5.16-0.51 9.48-1.33 13.42-0.89 4.17-2.74 5.83-6.75 5.83h-114.83c-5.06 0-7.22-1.65-9.09-6.01l-3.9-10.05c-1.36-3.91-2.32-7.05-2.32-10.54 0-5.79 3.12-8.7 7.15-11.56 60.53-43.2 81.58-58.81 81.58-82 0-12.02-8.97-20.467-24.47-20.467-15.39 0-29.29 6.23-44.08 17.89-3.92 3.107-7.37 2.677-9.46-1.243-2.94-5.467-7.01-14.849-9.51-23.713-1.46-5.233-0.47-9.21 2.86-11.524 4.07-2.857 13.45-7.523 18.27-9.432 13.36-5.294 30.1-9.147 49.16-9.147 36.41 0 64.94 19.465 64.94 52.117"/>
  <path d="m99.079 71.05c-7.178 0-13.075 1.293-15.981 3.952-1.97 1.798-2.881 4.211-2.881 7.732v71.706c0 11.93-1.921 18.38-6.132 22.91-3.706 3.99-9.53 6.15-15.932 6.15-6.255 0-11.795-2.08-15.095-5.58-3.448-3.63-5.061-8.69-5.061-16.16v-46.71c0-2.04-0.763-2.94-3.016-2.94h-31.754c-2.2279 0-2.9667 0.87-2.9667 2.95v42.22c0 16.86 4.3463 26.49 11.93 34.07 9.863 9.86 26.706 14.27 42.711 14.27 15.994 0 32.664-5.68 42.514-14.78 9.665 8.82 27.235 14.77 46.625 14.77 25.62 0 44.46-10.59 55.46-28.61 4.87 7.56 8.48 13.18 11.94 18.3 5.11 7.55 9.75 10.32 20.14 10.32 9.84 0 15.75-2.37 21.07-10.52 13.96-21.33 25.87-46.59 34.43-69.81 1.08-2.91 1.84-5.03 1.84-6.35 0-1.37-0.87-2.44-2.99-3.1-2.05-0.65-7.56-2.34-10.32-3.18-4.58-1.4-6.25-1.81-7.24-1.81-1.86 0-2.87 1.04-3.51 3.18-6.44 21.41-16.23 45.46-24.96 60.39-2.85-5.45-8.13-14.95-13.05-23.5-7.58-13.24-15.08-26.61-18.85-32.74-3.79-6.21-6.34-7.87-11.35-7.87-10.32 0-25.6 9.26-25.6 17.9 0 2.92 0.82 5.13 3.86 10.31 3.46 5.91 5.19 10.7 5.19 16.58 0 14.68-10.96 27.98-32.13 27.98-10.05 0-17.8-2.86-22.85-8.04-4.82-4.95-7.17-11.61-7.17-22.72v-18.65c3.54 1.51 7.87 2.28 13.09 2.28h16.76c2.26 0 3.05-0.9 3.05-2.95v-17.95c0-2.04-0.79-2.95-3.05-2.95h-29.85v-29.367c0-3.521-0.92-5.934-2.89-7.732-2.91-2.659-8.92-3.952-15.984-3.952m-79.955 28.035c-11.819 0-19.121-8.384-19.121-18.961 0-10.576 7.3011-18.973 19.121-18.973 11.819 0 19.121 8.397 19.121 18.973 0 10.577-7.301 18.961-19.121 18.961"/>
  <path d="m533.32 132.26c-41.22 0-66.67-29.25-66.67-66.137 0-36.869 25.45-66.123 66.67-66.123 41.23 0 66.68 29.253 66.68 66.123 0 36.887-25.45 66.137-66.68 66.137"/>
 </g>
 <path d="m503.09 90.06c0 1.872-2.08 2.652-5.23 2.652-3.3 0-4.96-0.78-4.96-2.652v-50.383h10.19v17.868c3.59-2.142 7.76-3.659 11.92-3.659 3.87 0 7.17 1.291 9.33 3.588 2.44 2.652 3.37 6.026 3.37 10.905v21.682c0 1.872-2.08 2.652-5.23 2.652-3.31 0-4.96-0.78-4.96-2.652v-20.888c0-2.51-0.36-4.382-1.22-5.516-0.78-1.092-2.37-1.659-4.53-1.659-2.86 0-5.88 1.007-8.68 2.58v25.483z" fill="#fff"/>
 <path d="m548.05 73.46c0 7.615 3.17 11.557 9.69 11.557 2.01 0 4.03-0.213 5.81-0.425v-22.179c-1.78-0.581-3.94-0.935-6.24-0.935-6.32 0-9.26 4.013-9.26 11.982m-10.4 0.071v-0.355c0-12.847 7.53-19.526 18.23-19.526 3.01 0 5.75 0.652 7.67 1.432v-15.64h10.2v50.383c0 1.006-0.43 1.574-1.59 1.801-3.44 0.638-8.68 1.205-14.7 1.205-14.21 0-19.81-6.878-19.81-19.3" fill="#fff"/>
</svg>
