<?xml version="1.0" encoding="UTF-8" standalone="no"?>
<svg xmlns:rdf="http://www.w3.org/1999/02/22-rdf-syntax-ns#" xmlns="http://www.w3.org/2000/svg" height="222.24" viewBox="0 0 600 222.237" width="600" version="1.1" xmlns:cc="http://creativecommons.org/ns#" xmlns:dc="http://purl.org/dc/elements/1.1/">
 <g stroke-width="1.0001" fill="#00bc96">
  <path d="m442.72 96.553c0 31.167-14.79 49.107-64.92 83.827-1.99 1.36-1.47 3.17 0.09 3.17h58.73c4.17 0 6.33 1.6 6.89 5.6 0.66 4.85 0.98 8.77 0.98 13.83 0 5.16-0.5 9.48-1.33 13.42-0.88 4.17-2.73 5.84-6.75 5.84h-114.82c-5.06 0-7.21-1.65-9.09-6.01l-3.9-10.06c-1.35-3.9-2.31-7.04-2.31-10.54 0-5.79 3.11-8.69 7.14-11.56 60.54-43.19 81.58-58.8 81.58-82 0-12.017-8.96-20.464-24.47-20.464-15.39 0-29.29 6.23-44.07 17.89-3.93 3.104-7.38 2.674-9.47-1.243-2.93-5.467-7.01-14.849-9.51-23.714-1.46-5.233-0.47-9.21 2.86-11.525 4.07-2.856 13.46-7.522 18.27-9.431 13.36-5.294 30.1-9.148 49.16-9.148 36.41 0 64.94 19.466 64.94 52.118"/>
  <path d="m99.078 71.05c-7.178 0-13.076 1.293-15.981 3.953-1.97 1.797-2.881 4.21-2.881 7.732v71.705c0 11.93-1.921 18.38-6.131 22.91-3.706 3.99-9.53 6.15-15.932 6.15-6.255 0-11.796-2.08-15.095-5.58-3.448-3.63-5.06-8.69-5.06-16.15v-46.72c0-2.04-0.764-2.94-3.017-2.94h-31.754c-2.2282 0-2.967 0.88-2.967 2.96v42.22c0.00003 16.85 4.3463 26.48 11.93 34.06 9.863 9.87 26.706 14.27 42.711 14.27 15.994 0 32.665-5.67 42.514-14.77 9.665 8.81 27.235 14.76 46.625 14.76 25.62 0 44.46-10.59 55.46-28.6 4.87 7.56 8.48 13.17 11.94 18.3 5.11 7.54 9.75 10.31 20.14 10.31 9.84 0 15.75-2.36 21.07-10.51 13.96-21.34 25.87-46.59 34.44-69.81 1.07-2.92 1.83-5.04 1.83-6.35 0-1.37-0.87-2.44-2.99-3.11-2.05-0.65-7.56-2.34-10.32-3.17-4.58-1.41-6.25-1.81-7.24-1.81-1.86 0-2.87 1.03-3.51 3.17-6.44 21.41-16.23 45.46-24.95 60.39-2.86-5.45-8.14-14.94-13.06-23.5-7.58-13.24-15.08-26.61-18.85-32.74-3.79-6.2-6.34-7.87-11.35-7.87-10.32 0-25.6 9.26-25.6 17.91 0 2.91 0.82 5.12 3.86 10.3 3.46 5.91 5.19 10.7 5.19 16.59 0 14.67-10.95 27.97-32.13 27.97-10.05 0-17.8-2.86-22.85-8.04-4.82-4.95-7.17-11.61-7.17-22.72v-18.65c3.54 1.52 7.87 2.28 13.09 2.28h16.76c2.26 0 3.05-0.9 3.05-2.94v-17.95c0-2.05-0.79-2.96-3.05-2.96h-29.85v-29.364c0-3.521-0.92-5.935-2.89-7.732-2.91-2.66-8.92-3.952-15.983-3.952m-79.956 28.035c-11.819 0-19.121-8.385-19.121-18.961 0-10.577 7.3011-18.973 19.121-18.973s19.122 8.397 19.122 18.973-7.302 18.961-19.122 18.961"/>
  <path d="m533.33 132.26c-41.22 0-66.67-29.26-66.67-66.131 0-36.876 25.45-66.129 66.67-66.129s66.67 29.253 66.67 66.129c0 36.871-25.45 66.131-66.67 66.131"/>
 </g>
 <path d="m517.13 90.853c0 1.132-1.14 1.92-5.15 1.92-4.36 0-5.06-0.874-5.06-1.92v-11.784h-12.21c-1.05 0-1.75-1.219-1.75-4.789 0-4.014 0.79-4.802 1.75-4.802h12.21v-13.445h10.21v13.445h13.96v9.591h-13.96v11.784z" stroke-width="1.0001" fill="#fff"/>
 <path d="m563.23 90.453c0 1.6-1.44 2.388-5.89 2.388-4.62 0-5.58-0.788-5.58-2.462v-38.169c-3.83 2.389-9.32 5.652-14.03 8.213l-4.31-8.767c6.3-3.755 13.24-7.892 17.7-10.761 1.76-1.121 2.55-1.354 4.54-1.354h4.78c2.08 0 2.79 0.714 2.79 2.462v48.449z" stroke-width="1.0001" fill="#fff"/>
</svg>
