<?xml version="1.0" encoding="UTF-8" standalone="no"?>
<!-- Created with Inkscape (http://www.inkscape.org/) -->
<svg xmlns:rdf="http://www.w3.org/1999/02/22-rdf-syntax-ns#" xmlns="http://www.w3.org/2000/svg" height="222.23" width="600" version="1.1" xmlns:cc="http://creativecommons.org/ns#" xmlns:dc="http://purl.org/dc/elements/1.1/">
 <defs></defs>
 <metadata>
  <rdf:RDF>
   <cc:Work rdf:about="">
    <dc:format>image/svg+xml</dc:format>
    <dc:type rdf:resource="http://purl.org/dc/dcmitype/StillImage"/>
    <dc:title/>
   </cc:Work>
  </rdf:RDF>
 </metadata>
 <g fill-rule="nonzero" transform="translate(318.33073,367.07645)">
  <path fill="#e91a2d" d="m124.38-270.52c0,31.162-14.786,49.101-64.922,83.821-1.9823,1.3666-1.4651,3.1765,0.09901,3.1765h58.729c4.1615,0,6.3284,1.6006,6.8825,5.602,0.66487,4.851,0.985,8.7661,0.985,13.826,0,5.1587-0.50485,9.4803-1.3297,13.42-0.88649,4.1737-2.7333,5.8358-6.7471,5.8358h-114.83c-5.0603,0-7.2149-1.6498-9.0863-6.0081l-3.9029-10.059c-1.3543-3.903-2.3146-7.0425-2.3146-10.539,0-5.7866,3.1149-8.6923,7.1409-11.561,60.538-43.19,81.579-58.802,81.579-81.998,0-12.016-8.9632-20.463-24.464-20.463-15.39,0-29.29,6.2299-44.077,17.89-3.9276,3.1026-7.375,2.6717-9.4681-1.2434-2.9303-5.4666-7.0055-14.849-9.5049-23.713-1.465-5.2326-0.46785-9.2094,2.8565-11.524,4.0752-2.8564,13.457-7.5227,18.271-9.4311,13.358-5.294,30.103-9.1477,49.162-9.1477,36.407,0,64.934,19.465,64.934,52.117"/>
  <path fill="#e91a2d" d="m-219.25-296.03c-7.1778,0-13.075,1.2927-15.981,3.9522-1.9699,1.7975-2.881,4.2106-2.881,7.7319v71.705c0,11.93-1.9207,18.382-6.1314,22.912-3.7059,3.9891-9.5295,6.1437-15.932,6.1437-6.2545,0-11.795-2.0807-15.095-5.5774-3.4474-3.6321-5.0602-8.6923-5.0602-16.154v-46.712c0-2.0438-0.76338-2.9426-3.0165-2.9426h-31.753c-2.2284,0-2.9672,0.87419-2.9672,2.9549v42.218c0,16.855,4.3462,26.483,11.93,34.067,9.862,9.8619,26.705,14.269,42.71,14.269,15.994,0,32.664-5.6759,42.513-14.775,9.6651,8.8153,27.235,14.762,46.626,14.762,25.622,0,44.459-10.588,55.454-28.601,4.8756,7.5596,8.4831,13.174,11.943,18.296,5.1094,7.5473,9.7511,10.317,20.142,10.317,9.8372,0,15.747-2.3639,21.066-10.514,13.961-21.337,25.868-46.589,34.437-69.809,1.071-2.9179,1.8344-5.0355,1.8344-6.3529,0-1.3666-0.87419-2.4378-2.9918-3.1026-2.0438-0.65257-7.5596-2.3393-10.317-3.1765-4.5802-1.4036-6.2546-1.8099-7.2395-1.8099-1.8592,0-2.8688,1.0342-3.509,3.1765-6.4392,21.41-16.228,45.456-24.957,60.39-2.8564-5.4542-8.1383-14.947-13.051-23.503-7.5843-13.235-15.083-26.607-18.85-32.737-3.7922-6.2052-6.3408-7.8674-11.352-7.8674-10.317,0-25.597,9.2587-25.597,17.902,0,2.9179,0.81258,5.1218,3.8537,10.305,3.4598,5.9098,5.1957,10.699,5.1957,16.585,0,14.675-10.958,27.973-32.134,27.973-10.047,0-17.803-2.8564-22.851-8.0398-4.814-4.9493-7.1655-11.61-7.1655-22.715v-18.653c3.5335,1.5144,7.8674,2.2777,13.087,2.2777h16.757c2.2654,0,3.0534-0.89879,3.0534-2.9426v-17.951c0-2.0438-0.78798-2.9549-3.0534-2.9549h-29.844v-29.364c0-3.5213-0.9234-5.9344-2.8933-7.7319-2.9057-2.6595-8.914-3.9522-15.982-3.9522m-79.954,28.035c-11.819,0-19.121-8.3846-19.121-18.961s7.301-18.973,19.121-18.973c11.819,0,19.121,8.3968,19.121,18.973s-7.301,18.961-19.121,18.961"/>
  <path fill="#e91a2d" d="m214.99-234.82c-41.221,0-66.675-29.253-66.675-66.137,0-36.868,25.453-66.122,66.675-66.122,41.221,0,66.675,29.253,66.675,66.122,0,36.883-25.453,66.137-66.675,66.137"/>
  <path fill="#FFF" d="m184.76-277.02c0,1.8718-2.0845,2.6517-5.2324,2.6517-3.304,0-4.963-0.77997-4.963-2.6517v-50.382h10.196v17.867c3.5876-2.1412,7.7566-3.6585,11.911-3.6585,3.8711,0,7.1751,1.2904,9.3305,3.5876,2.439,2.6517,3.3749,6.0265,3.3749,10.905v21.682c0,1.8718-2.0845,2.6517-5.2324,2.6517-3.304,0-4.963-0.77997-4.963-2.6517v-20.888c0-2.5099-0.3545-4.3817-1.2195-5.5161-0.77991-1.0918-2.3681-1.659-4.5235-1.659-2.8644,0-5.8848,1.0068-8.6782,2.5807v25.482z"/>
  <path fill="#FFF" d="m229.72-293.62c0,7.6147,3.1622,11.557,9.685,11.557,2.0136,0,4.0271-0.21262,5.8139-0.42533v-22.178c-1.7867-0.58135-3.942-0.93587-6.2392-0.93587-6.3243,0-9.2596,4.0129-9.2596,11.982m-10.408,0.071,0-0.35453c0-12.847,7.5296-19.526,18.236-19.526,3.0062,0,5.743,0.65235,7.6714,1.4322v-15.64h10.196v50.382c0,1.0069-0.42539,1.574-1.5881,1.801-3.4458,0.63805-8.6782,1.2053-14.705,1.2053-14.208,0-19.81-6.8774-19.81-19.3"/>
 </g>
</svg>
