<?xml version="1.0" encoding="UTF-8" standalone="no"?>
<!-- Created with Inkscape (http://www.inkscape.org/) -->
<svg xmlns:rdf="http://www.w3.org/1999/02/22-rdf-syntax-ns#" xmlns="http://www.w3.org/2000/svg" height="240" width="600" version="1.1" xmlns:cc="http://creativecommons.org/ns#" xmlns:dc="http://purl.org/dc/elements/1.1/">
 <defs></defs>
 <metadata>
  <rdf:RDF>
   <cc:Work rdf:about="">
    <dc:format>image/svg+xml</dc:format>
    <dc:type rdf:resource="http://purl.org/dc/dcmitype/StillImage"/>
    <dc:title/>
   </cc:Work>
  </rdf:RDF>
 </metadata>
 <g fill-rule="nonzero" transform="translate(-27.167977,327.08675)" fill="#dd1634">
  <path d="m624.77-256.73c0,42.057-19.963,66.266-87.644,113.13-2.6639,1.8648-1.9647,4.2956,0.13319,4.2956h79.286c5.6109,0,8.5413,2.1645,9.2905,7.5756,0.89908,6.5433,1.332,11.821,1.332,18.648,0,6.9762-0.68264,12.804-1.8148,18.115-1.1821,5.6442-3.6629,7.8753-9.0907,7.8753h-154.99c-6.843,0-9.74-2.2144-12.271-8.0917l-5.2779-13.586c-1.8148-5.2779-3.1135-9.507-3.1135-14.219,0-7.8253,4.1957-11.738,9.6402-15.617,81.716-58.29,110.12-79.369,110.12-110.69,0-16.217-12.088-27.622-33.016-27.622-20.779,0-39.543,8.4247-59.506,24.159-5.3112,4.1791-9.9565,3.5963-12.787-1.6983-3.946-7.3591-9.4404-20.03-12.82-32.001-1.9813-7.0594-0.63268-12.421,3.8461-15.551,5.511-3.8461,18.181-10.156,24.675-12.737,18.032-7.1427,40.625-12.354,66.366-12.354,49.15,0,87.644,26.273,87.644,70.361"/>
  <path d="m160.9-291.2c-9.6901,0-17.649,1.7482-21.578,5.3279-2.6639,2.4308-3.896,5.6942-3.896,10.439v96.801c0,16.1-2.5807,24.808-8.2582,30.935-5.0116,5.3612-12.87,8.2749-21.511,8.2749-8.4414,0-15.917-2.7971-20.379-7.509-4.6453-4.9283-6.8264-11.738-6.8264-21.828v-63.036c0-2.7638-1.0323-3.9959-4.0792-3.9959h-42.856c-3.0136,0-4.0126,1.1988-4.0126,4.0126v56.992c0,22.743,5.8773,35.747,16.117,45.986,13.303,13.303,36.046,19.247,57.658,19.247,21.578,0,44.088-7.6588,57.375-19.946,13.053,11.904,36.779,19.93,62.952,19.93,34.581,0,60.005-14.302,74.84-38.611,6.5933,10.206,11.455,17.798,16.134,24.708,6.8763,10.173,13.153,13.919,27.172,13.919,13.286,0,21.262-3.1967,28.454-14.186,18.847-28.821,34.898-62.886,46.469-94.237,1.4485-3.9293,2.4974-6.793,2.4974-8.5746,0-1.8481-1.1988-3.28-4.0625-4.1957-2.7638-0.86579-10.19-3.1468-13.919-4.279-6.1937-1.8981-8.4414-2.4475-9.7733-2.4475-2.5141,0-3.8794,1.3986-4.7452,4.2956-8.6745,28.887-21.894,61.354-33.666,81.517-3.8627-7.3592-11.005-20.179-17.632-31.734-10.24-17.865-20.346-35.897-25.441-44.188-5.1281-8.3748-8.5579-10.606-15.318-10.606-13.919,0-34.548,12.487-34.548,24.142,0,3.9626,1.0989,6.9263,5.1947,13.919,4.6619,7.9752,7.0095,14.435,7.0095,22.394,0,19.796-14.785,37.745-43.372,37.745-13.553,0-24.025-3.8461-30.852-10.839-6.4934-6.6932-9.6734-15.667-9.6734-30.669v-25.174c4.7618,2.0479,10.622,3.0802,17.682,3.0802h22.61c3.0635,0,4.1291-1.2321,4.1291-3.9793v-24.242c0-2.7472-1.0656-3.9793-4.1291-3.9793h-40.292v-39.643c0-4.7452-1.2321-8.0085-3.896-10.439-3.9293-3.5797-12.038-5.3279-21.578-5.3279m-107.92,37.845c-15.95,0-25.807-11.322-25.807-25.591,0-14.285,9.8566-25.607,25.807-25.607s25.807,11.322,25.807,25.607c0,14.269-9.8566,25.591-25.807,25.591"/>
 </g>
</svg>
