<?xml version="1.0" encoding="UTF-8" standalone="no"?>
<!-- Created with Inkscape (http://www.inkscape.org/) -->
<svg xmlns:rdf="http://www.w3.org/1999/02/22-rdf-syntax-ns#" xmlns="http://www.w3.org/2000/svg" height="222.22" width="600" version="1.1" xmlns:cc="http://creativecommons.org/ns#" xmlns:dc="http://purl.org/dc/elements/1.1/">
 <defs></defs>
 <metadata>
  <rdf:RDF>
   <cc:Work rdf:about="">
    <dc:format>image/svg+xml</dc:format>
    <dc:type rdf:resource="http://purl.org/dc/dcmitype/StillImage"/>
    <dc:title/>
   </cc:Work>
  </rdf:RDF>
 </metadata>
 <g fill-rule="nonzero" transform="translate(-1494.2064,1289.9029)">
  <path fill="#e91a2d" d="m1936.9-1193.4c0,31.159-14.785,49.096-64.915,83.812-1.9821,1.3665-1.465,3.1762,0.099,3.1762h58.722c4.1611,0,6.3278,1.6004,6.8818,5.6014,0.6648,4.8505,0.9849,8.7652,0.9849,13.825,0,5.1582-0.5048,9.4793-1.3296,13.419-0.8864,4.1733-2.733,5.8352-6.7464,5.8352h-114.81c-5.0598,0-7.2142-1.6496-9.0854-6.0075l-3.9025-10.058c-1.3542-3.9026-2.3144-7.0418-2.3144-10.538,0-5.786,3.1146-8.6914,7.1402-11.56,60.532-43.186,81.571-58.796,81.571-81.99,0-12.015-8.9623-20.461-24.462-20.461-15.388,0-29.287,6.2293-44.073,17.888-3.9272,3.1023-7.3742,2.6714-9.4671-1.2433-2.93-5.466-7.0048-14.847-9.5039-23.711-1.4649-5.2321-0.4678-9.2085,2.8562-11.523,4.0748-2.8561,13.456-7.5219,18.269-9.4301,13.357-5.2935,30.1-9.1468,49.157-9.1468,36.403,0,64.927,19.463,64.927,52.112"/>
  <path fill="#e91a2d" d="m1593.3-1218.9c-7.1771,0-13.074,1.2926-15.979,3.9518-1.9697,1.7973-2.8807,4.2102-2.8807,7.7311v71.698c0,11.929-1.9205,18.38-6.1308,22.91-3.7055,3.9887-9.5285,6.1431-15.93,6.1431-6.2539,0-11.794-2.0805-15.093-5.5768-3.447-3.6317-5.0597-8.6914-5.0597-16.152v-46.707c0-2.0436-0.7633-2.9423-3.0162-2.9423h-31.75c-2.2282,0-2.9669,0.8741-2.9669,2.9546v42.214c0,16.853,4.3458,26.48,11.929,34.064,9.861,9.8609,26.702,14.268,42.706,14.268,15.992,0,32.661-5.6753,42.509-14.773,9.6641,8.8144,27.232,14.761,46.621,14.761,25.619,0,44.454-10.587,55.448-28.598,4.8751,7.5588,8.4822,13.173,11.942,18.294,5.1089,7.5465,9.7501,10.316,20.14,10.316,9.8362,0,15.745-2.3637,21.064-10.513,13.96-21.335,25.865-46.584,34.433-69.802,1.0709-2.9176,1.8342-5.035,1.8342-6.3523,0-1.3665-0.8741-2.4375-2.9915-3.1023-2.0436-0.6525-7.5588-2.3391-10.316-3.1762-4.5797-1.4035-6.254-1.8097-7.2388-1.8097-1.859,0-2.8685,1.0341-3.5086,3.1762-6.4385,21.408-16.226,45.451-24.954,60.384-2.8561-5.4536-8.1375-14.945-13.05-23.501-7.5835-13.234-15.081-26.604-18.848-32.734-3.7918-6.2046-6.3401-7.8666-11.351-7.8666-10.316,0-25.594,9.2578-25.594,17.9,0,2.9176,0.8125,5.1213,3.8533,10.304,3.4594,5.9092,5.1952,10.698,5.1952,16.583,0,14.674-10.957,27.97-32.131,27.97-10.046,0-17.801-2.8561-22.849-8.039-4.8135-4.9488-7.1648-11.609-7.1648-22.713v-18.651c3.5331,1.5142,7.8666,2.2775,13.086,2.2775h16.755c2.2652,0,3.0531-0.8987,3.0531-2.9423v-17.949c0-2.0436-0.7879-2.9546-3.0531-2.9546h-29.841v-29.361c0-3.5209-0.9233-5.9338-2.893-7.7311-2.9054-2.6592-8.9131-3.9518-15.98-3.9518m-79.946,28.032c-11.818,0-19.119-8.3837-19.119-18.959s7.3002-18.971,19.119-18.971c11.818,0,19.119,8.396,19.119,18.971s-7.3003,18.959-19.119,18.959"/>
  <path fill="#e91a2d" d="m2027.5-1157.7c-41.216,0-66.663-29.25-66.663-66.121s25.446-66.121,66.663-66.121,66.663,29.25,66.663,66.121-25.446,66.121-66.663,66.121"/>
  <path fill="#FFF" d="m2011.3-1199.1c0,1.1326-1.1326,1.9205-5.1459,1.9205-4.3581,0-5.0598-0.8741-5.0598-1.9205v-11.782h-12.212c-1.0464,0-1.7481-1.2188-1.7481-4.7888,0-4.0133,0.7879-4.8012,1.7481-4.8012h12.212v-13.444h10.206v13.444h13.96v9.59h-13.96v11.782z"/>
  <path fill="#FFF" d="m2057.4-1199.5c0,1.6004-1.4404,2.3883-5.8969,2.3883-4.6166,0-5.5767-0.7879-5.5767-2.4622v-38.164c-3.8287,2.3883-9.3193,5.6507-14.022,8.2113l-4.3088-8.7653c6.2909-3.7547,13.234-7.8911,17.691-10.76,1.7604-1.1203,2.5483-1.3542,4.5426-1.3542h4.7766c2.0806,0,2.7946,0.7141,2.7946,2.4622v48.443z"/>
 </g>
</svg>
