<?xml version="1.0" encoding="UTF-8" standalone="no"?>
<!-- Created with Inkscape (http://www.inkscape.org/) -->
<svg xmlns:rdf="http://www.w3.org/1999/02/22-rdf-syntax-ns#" xmlns="http://www.w3.org/2000/svg" height="222.22" width="600" version="1.1" xmlns:cc="http://creativecommons.org/ns#" xmlns:dc="http://purl.org/dc/elements/1.1/">
 <defs></defs>
 <metadata>
  <rdf:RDF>
   <cc:Work rdf:about="">
    <dc:format>image/svg+xml</dc:format>
    <dc:type rdf:resource="http://purl.org/dc/dcmitype/StillImage"/>
    <dc:title/>
   </cc:Work>
  </rdf:RDF>
 </metadata>
 <g fill-rule="nonzero" transform="translate(57.343249,255.77741)">
  <path fill="#414ea9" d="m311.79-174.89c-14.682,0-30.613,6.4617-42.798,15.001-4.1676,2.9186-7.9784,1.8098-9.7627-1.9118-2.3578-4.945-6.1303-16.365-8.2715-23.336-1.5931-5.2,0.67549-9.597,4.2186-11.585,15.026-8.3735,38.834-14.619,64.745-14.619l0.051,0.0128c39.344,0,60.87,15.167,60.87,43.435h0.051c0,17.741-12.516,35.406-32.5,42.058,25.401,3.0078,38.707,17.575,38.707,38.464,0,32.117-24.356,53.809-75.234,53.809-25.745,0-43.575-4.3078-56.499-10.094-4.4098-1.9627-6.4617-4.5627-6.4617-7.8382,0-6.398,3.3392-18.735,6.0029-28.179,1.1598-4.1039,4.4608-5.1745,8.4754-2.7529,12.171,7.3156,29.288,12.401,44.748,12.401,21.654,0,30.167-7.3029,30.167-19.818,0-11.713-6.4872-16.913-21.195-16.913h-26.688c-2.3578,0-3.747-1.8225-3.9637-3.5558-0.85392-7.0607-0.85392-18.404-0.1402-27.045,0.17843-2.1412,1.7843-3.6706,4.3715-3.6706h15.702c21.259,0,26.293-7.2264,26.293-17.894l-0.0128,0.0128c0-9.495-6.5382-15.982-20.876-15.982"/>
  <path fill="#414ea9" d="m41.724-184.76c-7.1754,0-13.064,1.3-15.982,3.951-1.9755,1.797-2.8804,4.2058-2.8804,7.7235v71.703c0,11.929-1.9117,18.391-6.1303,22.916-3.7088,3.9764-9.5205,6.1431-15.931,6.1431-6.245,0-11.789-2.0902-15.09-5.5696-3.4411-3.6451-5.0598-8.7048-5.0598-16.161v-46.71c0-2.0392-0.7647-2.9441-3.0206-2.9441h-31.735c-2.2431,0-2.9823,0.8794-2.9823,2.9568v42.224c0,16.849,4.346,26.471,11.942,34.055,9.8519,9.8646,26.701,14.262,42.708,14.262,15.982,0,32.653-5.6715,42.505-14.771,9.6607,8.8195,27.236,14.759,46.621,14.759,25.617,0,44.442-10.591,55.441-28.6,4.8813,7.5578,8.4882,13.191,11.942,18.302,5.1108,7.545,9.7499,10.311,20.137,10.311,9.8391,0,15.753-2.3578,21.067-10.502,13.969-21.348,25.86-46.583,34.437-69.817,1.0706-2.9059,1.8353-5.0215,1.8353-6.347,0-1.3637-0.8794-2.4343-2.9951-3.097-2.0519-0.64999-7.5578-2.3323-10.311-3.1735-4.5882-1.402-6.2578-1.8098-7.2519-1.8098-1.848,0-2.8676,1.0323-3.5049,3.1735-6.4362,21.399-16.224,45.449-24.955,60.386-2.8549-5.4549-8.144-14.95-13.051-23.502-7.5833-13.242-15.077-26.599-18.837-32.742-3.798-6.2068-6.347-7.8509-11.356-7.8509-10.311,0-25.592,9.2529-25.592,17.881,0,2.9314,0.81568,5.1235,3.849,10.323,3.4666,5.9009,5.2,10.68,5.2,16.568,0,14.682-10.961,27.975-32.13,27.975-10.043,0-17.805-2.8549-22.852-8.0421-4.8176-4.9451-7.1627-11.598-7.1627-22.712v-18.646c3.5304,1.5167,7.8637,2.2814,13.089,2.2814h16.76c2.2559,0,3.0461-0.91763,3.0461-2.9568v-17.945c0-2.0392-0.79019-2.9568-3.0461-2.9568h-29.849v-29.364c0-3.5176-0.91764-5.9264-2.8931-7.7235-2.9059-2.651-8.9088-3.951-15.982-3.951m-79.937,28.039c-11.827,0-19.13-8.399-19.13-18.965,0-10.578,7.3029-18.965,19.13-18.965,11.815,0,19.117,8.3862,19.117,18.965,0,10.566-7.3029,18.965-19.117,18.965"/>
  <path fill="#414ea9" d="m475.99-123.54c-41.217,0-66.669-29.25-66.669-66.121s25.452-66.121,66.669-66.121,66.669,29.25,66.669,66.121-25.452,66.121-66.669,66.121"/>
  <path fill="#FFF" d="m459.73-164.94c0,1.1343-1.1343,1.9245-5.149,1.9245-4.3588,0-5.0598-0.87941-5.0598-1.9245v-11.776h-12.21c-1.0451,0-1.7461-1.2235-1.7461-4.8049,0-4.0019,0.79019-4.7921,1.7461-4.7921h12.21v-13.433h10.209v13.433h13.956v9.597h-13.956v11.776z"/>
  <path fill="#FFF" d="m505.84-165.42c0,1.5931-1.4402,2.3961-5.9009,2.3961-4.6137,0-5.5696-0.80294-5.5696-2.4725v-38.159c-3.8235,2.3833-9.3293,5.6588-14.032,8.2078l-4.2951-8.7686c6.296-3.747,13.229-7.8892,17.69-10.757,1.7461-1.1216,2.549-1.351,4.5372-1.351h4.7794c2.0774,0,2.7912,0.71372,2.7912,2.4598v48.444z"/>
 </g>
</svg>
