<?xml version="1.0" encoding="UTF-8" standalone="no"?>
<!-- Created with Inkscape (http://www.inkscape.org/) -->
<svg xmlns:rdf="http://www.w3.org/1999/02/22-rdf-syntax-ns#" xmlns="http://www.w3.org/2000/svg" height="222.22" width="600" version="1.1" xmlns:cc="http://creativecommons.org/ns#" xmlns:xlink="http://www.w3.org/1999/xlink" xmlns:dc="http://purl.org/dc/elements/1.1/">
 <defs></defs>
 <metadata>
  <rdf:RDF>
   <cc:Work rdf:about="">
    <dc:format>image/svg+xml</dc:format>
    <dc:type rdf:resource="http://purl.org/dc/dcmitype/StillImage"/>
    <dc:title/>
   </cc:Work>
  </rdf:RDF>
 </metadata>
 <g fill-rule="nonzero" transform="translate(220.49694,4.9381926)">
  <path fill="#414ea9" d="m148.64,75.954c-14.682,0-30.613,6.4617-42.798,15.001-4.1676,2.9186-7.9784,1.8098-9.7627-1.9118-2.359-4.945-6.131-16.365-8.273-23.336-1.593-5.2,0.676-9.597,4.219-11.585,15.027-8.374,38.837-14.619,64.747-14.619l0.051,0.0128c39.344,0,60.87,15.167,60.87,43.435h0.051c0,17.741-12.516,35.406-32.5,42.058,25.401,3.0078,38.707,17.575,38.707,38.464,0,32.117-24.356,53.809-75.234,53.809-25.745,0-43.575-4.3078-56.499-10.094-4.4098-1.9627-6.4617-4.5627-6.4617-7.8382,0-6.398,3.3392-18.735,6.0029-28.179,1.1598-4.1039,4.4608-5.1745,8.4754-2.7529,12.171,7.3156,29.288,12.401,44.748,12.401,21.654,0,30.167-7.3029,30.167-19.818,0-11.713-6.4872-16.913-21.195-16.913h-26.688c-2.3578,0-3.747-1.8225-3.9637-3.5558-0.85392-7.0607-0.85392-18.404-0.1402-27.045,0.17843-2.1412,1.7843-3.6706,4.3715-3.6706h15.702c21.259,0,26.293-7.2264,26.293-17.894l-0.0128,0.0128c0-9.495-6.5382-15.982-20.876-15.982"/>
  <path fill="#414ea9" d="m-121.43,66.084c-7.1754,0-13.064,1.3-15.982,3.951-1.9755,1.797-2.8804,4.2058-2.8804,7.7235v71.703c0,11.929-1.9117,18.391-6.1303,22.916-3.7088,3.9764-9.5205,6.1431-15.931,6.1431-6.245,0-11.789-2.0902-15.09-5.5696-3.4411-3.6451-5.0598-8.7048-5.0598-16.161v-46.71c0-2.0392-0.7647-2.9441-3.0206-2.9441h-31.735c-2.2431,0-2.9823,0.8794-2.9823,2.9568v42.224c0,16.849,4.346,26.471,11.942,34.055,9.8519,9.8646,26.701,14.262,42.708,14.262,15.982,0,32.653-5.6715,42.505-14.771,9.6607,8.8195,27.236,14.759,46.621,14.759,25.617,0,44.442-10.591,55.441-28.6,4.8813,7.5578,8.4882,13.191,11.942,18.302,5.1108,7.545,9.7499,10.311,20.137,10.311,9.8391,0,15.753-2.3578,21.067-10.502,13.969-21.348,25.86-46.583,34.437-69.817,1.0706-2.9059,1.8353-5.0215,1.8353-6.347,0-1.3637-0.8794-2.4343-2.9951-3.097-2.0519-0.64999-7.5578-2.3323-10.311-3.1735-4.5882-1.402-6.2578-1.8098-7.2519-1.8098-1.848,0-2.8676,1.0323-3.5049,3.1735-6.4362,21.399-16.224,45.449-24.955,60.386-2.8549-5.4549-8.144-14.95-13.051-23.502-7.5833-13.242-15.077-26.599-18.837-32.742-3.798-6.2068-6.347-7.8509-11.356-7.8509-10.311,0-25.592,9.2529-25.592,17.881,0,2.9314,0.81568,5.1235,3.849,10.323,3.4666,5.9009,5.2,10.68,5.2,16.568,0,14.682-10.961,27.975-32.13,27.975-10.043,0-17.805-2.8549-22.852-8.0421-4.8176-4.9451-7.1627-11.598-7.1627-22.712v-18.646c3.5304,1.5167,7.8637,2.2814,13.089,2.2814h16.76c2.2559,0,3.0461-0.91763,3.0461-2.9568v-17.941c0-2.0392-0.79019-2.9568-3.0461-2.9568h-29.854v-29.362c0-3.5176-0.91764-5.9264-2.8931-7.7235-2.9059-2.651-8.9088-3.951-15.982-3.951m-79.937,28.039c-11.827,0-19.13-8.399-19.13-18.965,0-10.578,7.3029-18.965,19.13-18.965,11.815,0,19.117,8.3862,19.117,18.965,0,10.566-7.3029,18.965-19.117,18.965"/>
  <path fill="#414ea9" d="m312.84,127.31c-41.217,0-66.668-29.25-66.668-66.13,0-36.864,25.451-66.115,66.668-66.115s66.668,29.25,66.668,66.115c0,36.879-25.451,66.13-66.668,66.13"/>
  <path fill="#FFF" d="m282.61,85.107c0,1.8716-2.0843,2.6515-5.2319,2.6515-3.3036,0-4.9625-0.77989-4.9625-2.6515v-50.376h10.195v17.865c3.5872-2.141,7.7558-3.6581,11.91-3.6581,3.8707,0,7.1744,1.2903,9.3295,3.5872,2.4388,2.6514,3.3746,6.0259,3.3746,10.904v21.679c0,1.8716-2.0843,2.6515-5.2319,2.6515-3.3036,0-4.9625-0.77989-4.9625-2.6515v-20.886c0-2.5097-0.35447-4.3812-1.2194-5.5155-0.77983-1.0917-2.3679-1.6589-4.523-1.6589-2.8642,0-5.8842,1.0067-8.6774,2.5805v25.479z"/>
  <path fill="#FFF" d="m327.55,68.508c0,7.614,3.1618,11.556,9.684,11.556,2.0134,0,4.0267-0.2126,5.8133-0.4253v-22.177c-1.7865-0.58129-3.9416-0.93578-6.2386-0.93578-6.3237,0-9.2586,4.0125-9.2586,11.981m-10.407,0.071,0-0.3545c0-12.846,7.5289-19.524,18.234-19.524,3.0058,0,5.7424,0.65229,7.6707,1.4321v-15.638h10.195v50.377c0,1.0068-0.42535,1.5739-1.588,1.8008-3.4454,0.63799-8.6774,1.2052-14.704,1.2052-14.207,0-19.808-6.8767-19.808-19.298"/>
 </g>
</svg>
