<?xml version="1.0" encoding="UTF-8" standalone="no"?>
<!-- Created with Inkscape (http://www.inkscape.org/) -->
<svg xmlns:rdf="http://www.w3.org/1999/02/22-rdf-syntax-ns#" xmlns="http://www.w3.org/2000/svg" height="239.99" width="600" version="1.1" xmlns:cc="http://creativecommons.org/ns#" xmlns:dc="http://purl.org/dc/elements/1.1/">
 <defs></defs>
 <metadata>
  <rdf:RDF>
   <cc:Work rdf:about="">
    <dc:format>image/svg+xml</dc:format>
    <dc:type rdf:resource="http://purl.org/dc/dcmitype/StillImage"/>
    <dc:title/>
   </cc:Work>
  </rdf:RDF>
 </metadata>
 <g fill-rule="nonzero" transform="translate(-37.016682,289.19463)" fill="#414ea9">
  <path d="m535.35-239.99c-19.814,0-41.325,8.7246-57.792,20.246-5.6111,3.9461-10.756,2.4476-13.154-2.5808-3.1968-6.66-8.2751-22.095-11.172-31.502-2.1645-7.0097,0.8991-12.954,5.6943-15.634,20.28-11.322,52.414-19.73,87.413-19.73h0.0499c53.13,0,82.201,20.48,82.201,58.642h0.0499c0,23.959-16.9,47.802-43.873,56.793,34.282,4.0626,52.248,23.71,52.248,51.915,0,43.357-32.867,72.644-101.57,72.644-34.749,0-58.825-5.8109-76.274-13.62-5.9441-2.6474-8.7246-6.1605-8.7246-10.573,0-8.6414,4.5122-25.291,8.1086-38.045,1.5651-5.5445,6.0273-6.993,11.439-3.7296,16.434,9.8901,39.544,16.75,60.423,16.75,29.238,0,40.726-9.8568,40.726-26.757,0-15.818-8.7746-22.827-28.621-22.827h-36.047c-3.1635,0-5.045-2.4642-5.328-4.8119-1.1655-9.5238-1.1655-24.842-0.1998-36.497,0.24975-2.8971,2.4143-4.9784,5.9108-4.9784h21.196c28.688,0,35.498-9.7403,35.498-24.143l-0.0166,0.0166c0-12.821-8.8245-21.578-28.189-21.578"/>
  <path d="m170.75-253.32c-9.6903,0-17.649,1.7483-21.578,5.328-2.664,2.4309-3.8795,5.6943-3.8795,10.44v96.803c0,16.101-2.5974,24.809-8.2751,30.936-5.0117,5.3613-12.871,8.2751-21.512,8.2751-8.4416,0-15.917-2.7972-20.38-7.5092-4.6454-4.9284-6.8265-11.738-6.8265-21.828v-63.037c0-2.7639-1.0323-3.996-4.0793-3.996h-42.857c-3.0137,0-4.0127,1.1988-4.0127,4.0127v56.993c0,22.744,5.8775,35.748,16.117,45.987,13.303,13.303,36.047,19.247,57.659,19.247,21.578,0,44.089-7.659,57.376-19.947,13.054,11.905,36.78,19.93,62.954,19.93,34.582,0,60.007-14.302,74.842-38.612,6.5934,10.206,11.455,17.799,16.134,24.709,6.8931,10.173,13.154,13.919,27.173,13.919,13.287,0,21.262-3.1968,28.455-14.186,18.848-28.821,34.899-62.887,46.487-94.239,1.4486-3.9294,2.4809-6.7932,2.4809-8.5748,0-1.8482-1.1988-3.2801-4.046-4.1958-2.7806-0.8658-10.206-3.1469-13.936-4.2791-6.1938-1.8981-8.4416-2.4476-9.7736-2.4476-2.5142,0-3.8628,1.3986-4.7453,4.2957-8.6747,28.888-21.895,61.355-33.666,81.519-3.8628-7.376-11.006-20.18-17.632-31.735-10.24-17.866-20.346-35.898-25.441-44.189-5.1282-8.375-8.5581-10.606-15.318-10.606-13.919,0-34.549,12.488-34.549,24.143,0,3.9627,1.0989,6.9264,5.1948,13.919,4.662,7.9754,7.0097,14.436,7.0097,22.394,0,19.814-14.785,37.746-43.373,37.746-13.553,0-24.026-3.8462-30.853-10.839-6.4935-6.6933-9.6737-15.668-9.6737-30.669v-25.175c4.7619,2.048,10.623,3.0803,17.682,3.0803h22.611c3.0636,0,4.1292-1.2321,4.1292-3.9794v-24.242c0-2.7473-1.0656-3.9794-4.1292-3.9794h-40.293v-39.644c0-4.7453-1.2321-8.0087-3.8961-10.44-3.9294-3.5798-12.038-5.328-21.578-5.328m-107.9,37.86c-15.951,0-25.808-11.322-25.808-25.591,0-14.286,9.8568-25.608,25.808-25.608s25.808,11.322,25.808,25.608c0,14.269-9.8568,25.591-25.808,25.591"/>
 </g>
</svg>
