<?xml version="1.0" encoding="UTF-8" standalone="no"?>
<!-- Created with Inkscape (http://www.inkscape.org/) -->
<svg xmlns:rdf="http://www.w3.org/1999/02/22-rdf-syntax-ns#" xmlns="http://www.w3.org/2000/svg" height="222.21" width="600" version="1.1" xmlns:cc="http://creativecommons.org/ns#" xmlns:dc="http://purl.org/dc/elements/1.1/">
 <defs></defs>
 <metadata>
  <rdf:RDF>
   <cc:Work rdf:about="">
    <dc:format>image/svg+xml</dc:format>
    <dc:type rdf:resource="http://purl.org/dc/dcmitype/StillImage"/>
    <dc:title/>
   </cc:Work>
  </rdf:RDF>
 </metadata>
 <g fill-rule="nonzero" transform="translate(356.43424,685.54103)">
  <path fill="#7a8d98" d="m64.269-571.85c-16.122,0-23.897,2.498-23.897,9.5458v29.007h-42.618c-1.797,0-2.6126-1.2745-1.4912-3.0459,17.269-27.21,36.577-57.568,56.051-87.25,3.2881-5.0087,4.6136-8.5007,4.6136-10.311,0-3.2116-1.9627-4.9577-5.2636-5.5185-4.7793-0.82841-12.018-1.6823-19.398-1.6823-7.4175,0-14.759,0.49704-20.073,1.4657-5.2636,0.9686-8.233,3.8871-10.719,8.2968-15.052,26.712-35.659,64.692-48.519,89.327-2.2176,4.244-3.1479,7.736-3.1479,11.241,0,3.6067,1.2618,7.5322,2.6763,11.904l3.6577,10.578c2.1794,5.2636,5.7989,7.3028,13,7.3028h71.231v28.866c0,6.041,5.7224,8.7938,23.846,8.7938,16.033,0,23.782-2.6892,23.782-8.8321v-89.952c0-7.239-7.2645-9.737-23.731-9.737"/>
  <path fill="#7a8d98" d="m-257.37-614.55c-7.1752,0-13.064,1.3-15.982,3.9508-1.9755,1.797-2.8803,4.2057-2.8803,7.7232v71.702c0,11.929-1.9117,18.391-6.1302,22.915-3.7087,3.9763-9.5203,6.143-15.931,6.143-6.2449,0-11.789-2.0902-15.09-5.5695-3.441-3.6449-5.0597-8.7046-5.0597-16.161v-46.709c0-2.0392-0.76468-2.944-3.0205-2.944h-31.734c-2.243,0-2.9822,0.87938-2.9822,2.9567v42.223c0,16.849,4.3459,26.47,11.942,34.054,9.8517,9.8644,26.7,14.262,42.707,14.262,15.982,0,32.652-5.6714,42.503-14.771,9.6605,8.8193,27.235,14.759,46.62,14.759,25.616,0,44.441-10.591,55.44-28.599,4.8812,7.5576,8.488,13.178,11.942,18.302,5.1106,7.5448,9.7497,10.311,20.137,10.311,9.8389,0,15.753-2.3578,21.067-10.502,13.968-21.348,25.859-46.582,34.436-69.816,1.0706-2.9057,1.8353-5.0214,1.8353-6.3469,0-1.3637-0.87938-2.4216-2.995-3.0969-2.0519-0.64998-7.5576-2.3323-10.311-3.1734-4.5881-1.4019-6.2577-1.8098-7.2518-1.8098-1.848,0-2.8675,1.0324-3.5048,3.1734-6.4361,21.399-16.224,45.448-24.955,60.385-2.8548-5.4547-8.1438-14.95-13.051-23.502-7.583-13.242-15.077-26.598-18.837-32.741-3.7979-6.1939-6.3469-7.8507-11.356-7.8507-10.311,0-25.591,9.2526-25.591,17.881,0,2.9313,0.81566,5.1234,3.8489,10.323,3.4665,5.9008,5.1999,10.68,5.1999,16.568,0,14.682-10.961,27.974-32.129,27.974-10.043,0-17.805-2.8548-22.852-8.0419-4.8175-4.9449-7.1626-11.598-7.1626-22.712v-18.637c3.5303,1.5039,7.8636,2.2814,13.089,2.2814h16.76c2.2558,0,3.0459-0.91761,3.0459-2.9567v-17.945c0-2.0392-0.79018-2.9567-3.0459-2.9567h-29.848v-29.363c0-3.5175-0.91762-5.9263-2.893-7.7232-2.9058-2.6509-8.9085-3.9508-15.982-3.9508m-79.934,28.038c-11.827,0-19.13-8.386-19.13-18.965,0-10.578,7.3028-18.964,19.13-18.964,11.815,0,19.117,8.386,19.117,18.964s-7.3028,18.965-19.117,18.965"/>
  <path fill="#7a8d98" d="m176.89-553.29c-41.221,0-66.673-29.253-66.673-66.135,0-36.867,25.453-66.12,66.673-66.12,41.221,0,66.673,29.253,66.673,66.12,0,36.882-25.453,66.135-66.673,66.135"/>
  <path fill="#FFF" d="m146.66-595.49c0,1.8717-2.0844,2.6517-5.2323,2.6517-3.3039,0-4.9629-0.77996-4.9629-2.6517v-50.381h10.196v17.866c3.5875-2.1411,7.7564-3.6584,11.911-3.6584,3.871,0,7.175,1.2904,9.3303,3.5875,2.439,2.6517,3.3748,6.0264,3.3748,10.905v21.681c0,1.8717-2.0844,2.6517-5.2323,2.6517-3.3039,0-4.9629-0.77996-4.9629-2.6517v-20.887c0-2.5099-0.3545-4.3816-1.2195-5.516-0.77989-1.0918-2.368-1.659-4.5234-1.659-2.8644,0-5.8847,1.0068-8.6781,2.5807v25.482z"/>
  <path fill="#FFF" d="m191.61-612.09c0,7.6146,3.1621,11.557,9.6848,11.557,2.0135,0,4.0271-0.21261,5.8138-0.42532v-22.177c-1.7866-0.58133-3.942-0.93585-6.2391-0.93585-6.3242,0-9.2594,4.0128-9.2594,11.982m-10.408,0.071,0-0.35452c0-12.847,7.5295-19.525,18.235-19.525,3.0061,0,5.7429,0.65234,7.6713,1.4322v-15.64h10.196v50.381c0,1.0069-0.42538,1.574-1.5881,1.8009-3.4457,0.63804-8.678,1.2053-14.705,1.2053-14.208,0-19.809-6.8773-19.809-19.299"/>
 </g>
</svg>
