<?xml version="1.0" encoding="UTF-8" standalone="no"?>
<!-- Created with Inkscape (http://www.inkscape.org/) -->
<svg xmlns:rdf="http://www.w3.org/1999/02/22-rdf-syntax-ns#" xmlns="http://www.w3.org/2000/svg" height="222.22" width="600" version="1.1" xmlns:cc="http://creativecommons.org/ns#" xmlns:dc="http://purl.org/dc/elements/1.1/">
 <defs></defs>
 <metadata>
  <rdf:RDF>
   <cc:Work rdf:about="">
    <dc:format>image/svg+xml</dc:format>
    <dc:type rdf:resource="http://purl.org/dc/dcmitype/StillImage"/>
    <dc:title/>
   </cc:Work>
  </rdf:RDF>
 </metadata>
 <g fill-rule="nonzero" transform="translate(21.960496,714.13499)">
  <path fill="#7a8d98" d="m398.75-600.44c-16.122,0-23.897,2.498-23.897,9.546v29.008h-42.619c-1.797,0-2.6127-1.2745-1.4912-3.046,17.269-27.211,36.578-57.569,56.052-87.252,3.2882-5.0088,4.6137-8.5009,4.6137-10.311,0-3.2117-1.9627-4.9578-5.2637-5.5186-4.7794-0.82843-12.018-1.6823-19.398-1.6823-7.4176,0-14.759,0.49705-20.073,1.4657-5.2637,0.96862-8.2332,3.8872-10.719,8.297-15.052,26.713-35.66,64.693-48.52,89.329-2.2176,4.2441-3.148,7.7362-3.148,11.241,0,3.6068,1.2618,7.5323,2.6764,11.904l3.6578,10.578c2.1794,5.2637,5.799,7.3029,13,7.3029h71.232v28.867c0,6.0411,5.7225,8.794,23.846,8.794,16.033,0,23.782-2.6892,23.782-8.8323v-89.954c0-7.2391-7.2646-9.7372-23.731-9.7372"/>
  <path fill="#7a8d98" d="m77.106-643.14c-7.1754,0-13.064,1.3-15.982,3.9509-1.9755,1.797-2.8804,4.2058-2.8804,7.7234v71.703c0,11.929-1.9117,18.391-6.1303,22.915-3.7088,3.9764-9.5205,6.1431-15.931,6.1431-6.245,0-11.789-2.0902-15.09-5.5696-3.4411-3.645-5.0598-8.7048-5.0598-16.161v-46.71c0-2.0392-0.7647-2.9441-3.0206-2.9441h-31.735c-2.2431,0-2.9823,0.8794-2.9823,2.9568v42.224c0,16.849,4.346,26.471,11.942,34.055,9.8519,9.8646,26.701,14.262,42.708,14.262,15.982,0,32.653-5.6715,42.504-14.771,9.6607,8.8195,27.236,14.759,46.621,14.759,25.617,0,44.442-10.591,55.441-28.6,4.8813,7.5578,8.4882,13.178,11.942,18.302,5.1107,7.545,9.7499,10.311,20.137,10.311,9.8391,0,15.753-2.3578,21.067-10.502,13.968-21.348,25.86-46.583,34.437-69.817,1.0706-2.9058,1.8353-5.0215,1.8353-6.347,0-1.3637-0.8794-2.4216-2.9951-3.097-2.0519-0.64999-7.5578-2.3323-10.311-3.1735-4.5882-1.4019-6.2578-1.8098-7.2519-1.8098-1.848,0-2.8676,1.0324-3.5049,3.1735-6.4362,21.399-16.224,45.449-24.955,60.386-2.8549-5.4548-8.144-14.95-13.051-23.502-7.5832-13.242-15.077-26.599-18.837-32.742-3.798-6.194-6.347-7.8509-11.356-7.8509-10.311,0-25.592,9.2528-25.592,17.881,0,2.9314,0.81567,5.1235,3.849,10.323,3.4666,5.9009,5.2,10.68,5.2,16.568,0,14.682-10.961,27.975-32.13,27.975-10.043,0-17.805-2.8549-22.852-8.0421-4.8176-4.945-7.1627-11.598-7.1627-22.712v-18.646c3.5304,1.5039,7.8637,2.2814,13.089,2.2814h16.76c2.2558,0,3.046-0.91763,3.046-2.9568v-17.945c0-2.0392-0.79019-2.9568-3.046-2.9568h-29.849v-29.364c0-3.5176-0.91764-5.9264-2.8931-7.7234-2.9059-2.651-8.9087-3.9509-15.982-3.9509m-79.936,28.039c-11.827,0-19.13-8.3862-19.13-18.965,0-10.578,7.3029-18.964,19.13-18.964,11.815,0,19.117,8.3862,19.117,18.964s-7.3029,18.965-19.117,18.965"/>
  <path fill="#7a8d98" d="m511.37-581.89c-41.217,0-66.669-29.25-66.669-66.121s25.452-66.121,66.669-66.121,66.669,29.25,66.669,66.121-25.452,66.121-66.669,66.121"/>
  <path fill="#FFF" d="m495.11-623.3c0,1.1343-1.1343,1.9245-5.149,1.9245-4.3588,0-5.0598-0.8794-5.0598-1.9245v-11.776h-12.21c-1.0451,0-1.746-1.2235-1.746-4.8049,0-4.0019,0.79019-4.7921,1.746-4.7921h12.21v-13.433h10.209v13.433h13.956v9.597h-13.956v11.776z"/>
  <path fill="#FFF" d="m541.22-623.77c0,1.5931-1.4402,2.396-5.9009,2.396-4.6137,0-5.5696-0.80293-5.5696-2.4725v-38.158c-3.8235,2.3833-9.3293,5.6588-14.032,8.2078l-4.2951-8.7685c6.296-3.747,13.229-7.8891,17.69-10.757,1.746-1.1216,2.549-1.3637,4.5372-1.3637h4.7794c2.0774,0,2.7911,0.72646,2.7911,2.4725v48.444z"/>
 </g>
</svg>
