<?xml version="1.0" encoding="UTF-8" standalone="no"?>
<!-- Created with Inkscape (http://www.inkscape.org/) -->
<svg xmlns:rdf="http://www.w3.org/1999/02/22-rdf-syntax-ns#" xmlns="http://www.w3.org/2000/svg" height="240.01" width="600" version="1.1" xmlns:cc="http://creativecommons.org/ns#" xmlns:dc="http://purl.org/dc/elements/1.1/">
 <defs></defs>
 <metadata>
  <rdf:RDF>
   <cc:Work rdf:about="">
    <dc:format>image/svg+xml</dc:format>
    <dc:type rdf:resource="http://purl.org/dc/dcmitype/StillImage"/>
    <dc:title/>
   </cc:Work>
  </rdf:RDF>
 </metadata>
 <g fill-rule="nonzero" transform="translate(-1473.8759,1027.9337)" fill="#7a8d98">
  <path d="m2041.8-934.43c-21.782,0-32.271,3.3826-32.271,12.881v39.156h-57.521c-2.4259,0-3.5364-1.7084-2.0159-4.1001,23.302-36.73,49.389-77.714,75.664-117.79,4.4417-6.7652,6.2355-11.48,6.2355-13.923,0-4.3393-2.648-6.6968-7.1239-7.4485-6.4406-1.1105-16.213-2.2722-26.172-2.2722-10.011,0-19.937,0.6663-27.112,1.9817-7.0897,1.2984-11.104,5.2448-14.47,11.207-20.313,36.047-48.142,87.332-65.499,120.59-2.9897,5.7231-4.2369,10.438-4.2369,15.17,0,4.8689,1.6914,10.165,3.6048,16.076l4.9372,14.282c2.9384,7.1069,7.8244,9.8574,17.545,9.8574h96.182v38.968c0,8.166,7.7219,11.873,32.186,11.873,21.645,0,32.1-3.6218,32.1-11.924v-121.45c0-9.7548-9.8062-13.137-32.032-13.137"/>
  <path d="m1607.6-992.08c-9.6865,0-17.648,1.7425-21.577,5.3301-2.6651,2.4259-3.8952,5.6889-3.8952,10.438v96.797c0,16.093-2.5795,24.823-8.2685,30.939-5.0056,5.3643-12.864,8.2856-21.508,8.2856-8.4393,0-15.922-2.8188-20.381-7.5169-4.6468-4.9201-6.8165-11.737-6.8165-21.816v-63.056c0-2.7505-1.0421-3.9805-4.0831-3.9805h-42.846c-3.0239,0-4.0147,1.1788-4.0147,3.9976v56.992c0,22.756,5.8598,35.756,16.11,45.99,13.291,13.308,36.047,19.253,57.658,19.253,21.577,0,44.076-7.6535,57.384-19.937,13.052,11.89,36.764,19.92,62.937,19.92,34.595,0,60.015-14.299,74.844-38.609,6.5943,10.199,11.463,17.801,16.144,24.703,6.8848,10.182,13.155,13.923,27.18,13.923,13.274,0,21.252-3.1947,28.444-14.18,18.843-28.82,34.902-62.903,46.485-94.251,1.435-3.9293,2.4771-6.7823,2.4771-8.5761,0-1.828-1.1959-3.2801-4.0488-4.1855-2.7676-0.87127-10.199-3.1605-13.923-4.288-6.1844-1.8792-8.4394-2.443-9.789-2.443-2.4942,0-3.861,1.4009-4.7322,4.3051-8.6786,28.889-21.884,61.348-33.672,81.507-3.861-7.3631-11.002-20.176-17.63-31.725-10.233-17.87-20.347-35.91-25.438-44.196-5.1252-8.3881-8.5591-10.609-15.324-10.609-13.923,0-34.543,12.488-34.543,24.139,0,3.9634,1.0933,6.9189,5.1934,13.923,4.6639,7.9781,7.0044,14.436,7.0044,22.397,0,19.8-14.795,37.755-43.359,37.755-13.565,0-24.037-3.8609-30.853-10.848-6.5089-6.6798-9.6865-15.666-9.6865-30.682v-25.164c4.7664,2.05,10.626,3.0751,17.682,3.0751h22.619c3.0579,0,4.1171-1.23,4.1171-3.9805v-24.225c0-2.7676-1.0592-3.9976-4.1171-3.9976h-40.301v-39.634c0-4.7493-1.2301-8.0123-3.8952-10.438-3.9292-3.5876-12.027-5.3301-21.577-5.3301m-107.94,37.858c-15.956,0-25.796-11.327-25.796-25.609s9.8403-25.609,25.796-25.609c15.973,0,25.814,11.327,25.814,25.609s-9.8403,25.609-25.814,25.609"/>
 </g>
</svg>
