<?xml version="1.0" encoding="UTF-8" standalone="no"?>
<!-- Created with Inkscape (http://www.inkscape.org/) -->
<svg xmlns:rdf="http://www.w3.org/1999/02/22-rdf-syntax-ns#" xmlns="http://www.w3.org/2000/svg" height="151.79" width="600" version="1.1" xmlns:cc="http://creativecommons.org/ns#" xmlns:dc="http://purl.org/dc/elements/1.1/">
 <metadata>
  <rdf:RDF>
   <cc:Work rdf:about="">
    <dc:format>image/svg+xml</dc:format>
    <dc:type rdf:resource="http://purl.org/dc/dcmitype/StillImage"/>
    <dc:title/>
   </cc:Work>
  </rdf:RDF>
 </metadata>
 <g fill-rule="nonzero" transform="matrix(0.80644272,0,0,0.80644272,-1193.37,828.82373)">
  <path fill="#7e807b" d="m1958.7-897.76-0.012-0.60325c-0.197-10.44,2.1667-19.242,7.0419-24.228,4.8013-4.8998,10.981-5.9216,15.303-5.9216h0.2217c8.4453,0,14.576,5.0845,14.576,12.582,0,8.2976-6.5371,16.743-36.354,18.146l-0.7756,0.0246zm-83.457,30.076c-8.2729,0-15.056-2.7946-19.624-8.0637-4.6166-5.343-6.6849-12.089-6.6849-21.877v-14.699l0.6279-0.14773c9.1225-2.179,17.457-3.287,24.782-3.287,17.051,0,27.232,8.8024,27.232,23.502,0,11.843-8.236,24.573-26.333,24.573m-26.309-106.88c0-3.7302,1.3296-4.8998,4.3212-6.1309,4.5306-1.859,11.437-3.1639,16.78-3.1639,13.444,0,21.47,6.9065,21.47,18.454,0,15.758-11.289,22.775-41.685,25.853l-0.8865,0.0985v-35.111zm177.54,100.89c-2.4745-2.0436-3.6071-2.6469-5.0352-2.6469-1.0957,0-2.0805,0.4555-4.0627,1.8343-10.341,7.1896-19.784,10.194-30.457,10.194-1.896,0-4.1858-0.19697-6.328-0.554-2.4622-0.40626-5.2076-1.2188-6.968-2.0683-6.2048-2.9793-10.637-6.5002-12.028-11.289l-0.2955-1.0095,1.0588-0.0369c45.268-1.6374,61.432-18.737,61.432-37.278,0-13.37-6.6603-21.532-12.237-26.013-7.0666-5.6754-16.755-8.9378-26.604-8.9378-25.509,0-46.573,16.078-53.886,38.878-4.5798-9.6395-12.964-17.038-24.474-21.212l-1.5512-0.56631,1.4034-0.88639c10.969-6.9188,17.26-18.491,17.26-31.726,0-26.555-20.486-43.052-53.492-43.052-14.072,0-30.285,3.2748-41.254,8.3346-10.612,4.8998-13.665,9.3687-13.665,19.981v85.685c0,17.974,4.4074,31.221,13.481,40.491,10.255,10.477,26.235,16.017,46.228,16.017,27.638,0,48.752-13.665,56.668-34.939,2.4622,6.9804,6.217,13.271,11.141,18.491,9.8489,10.427,23.416,15.943,39.26,15.943,12.471,0,26.654-4.5058,35.271-11.215,7.7314-6.0078,11.991-12.434,11.991-17.74,0-1.7605-0.6648-2.8562-2.8562-4.6782"/>
  <path fill="#59c8d4" d="m2079.7-862.93c0,9.972-8.0884,18.073-18.06,18.073-9.9843,0-18.073-8.1007-18.073-18.073,0-9.9843,8.0884-18.073,18.073-18.073,9.9719,0,18.06,8.0884,18.06,18.073"/>
  <path fill="#59c8d4" d="m1586.9-990.34c-7.7561,0-14.133,1.4035-17.272,4.2719-2.1422,1.9451-3.1271,4.5551-3.1271,8.3592v77.523c0,12.89-2.0682,19.882-6.6233,24.782-4.0011,4.2966-10.304,6.6356-17.223,6.6356-6.7588,0-12.754-2.2529-16.324-6.0324-3.718-3.9395-5.4661-9.3933-5.4661-17.469v-50.488c0-2.216-0.8249-3.2009-3.2625-3.2009h-34.323c-2.4129,0-3.2131,0.94795-3.2131,3.2132v45.637c0,18.22,4.7028,28.636,12.902,36.835,10.649,10.661,28.87,15.413,46.179,15.413,17.285,0,35.308-6.1309,45.957-15.967,10.452,9.5288,29.448,15.955,50.414,15.955,27.7,0,48.062-11.449,59.942-30.913,5.2814,8.1622,9.1717,14.244,12.927,19.784,5.5153,8.1499,10.526,11.142,21.766,11.142,10.637,0,17.026-2.5607,22.775-11.351,15.093-23.083,27.958-50.377,37.229-75.491,1.1695-3.1393,1.9944-5.4292,1.9944-6.8573,0-1.4773-0.9603-2.6346-3.2378-3.3609-2.216-0.70172-8.1746-2.5238-11.154-3.4348-4.9614-1.502-6.7588-1.9575-7.8421-1.9575-2.0068,0-3.0901,1.1326-3.7919,3.4471-6.9557,23.132-17.531,49.133-26.974,65.286-3.0901-5.897-8.8023-16.152-14.108-25.41-8.1992-14.318-16.3-28.759-20.375-35.394-4.1119-6.7095-6.8696-8.5069-12.274-8.5069-11.154,0-27.675,10.021-27.675,19.353,0,3.1639,0.8864,5.54,4.1611,11.142,3.7426,6.3894,5.6262,11.56,5.6262,17.925,0,15.869-11.856,30.248-34.742,30.248-10.858,0-19.242-3.0901-24.708-8.6916-5.2076-5.3553-7.7436-12.545-7.7436-24.561v-20.165c3.8164,1.6374,8.4946,2.4745,14.145,2.4745h18.122c2.4376,0,3.2993-0.98489,3.2993-3.2009v-19.402c0-2.2037-0.8617-3.1886-3.2993-3.1886h-32.267v-31.75c0-3.8041-0.9972-6.4141-3.1271-8.3592-3.1515-2.8685-9.6395-4.2719-17.285-4.2719m-86.436,30.31c-12.779,0-20.67-9.0609-20.67-20.498s7.8914-20.51,20.67-20.51,20.67,9.0732,20.67,20.51-7.8914,20.498-20.67,20.498"/>
 </g>
 <g fill-rule="nonzero" transform="translate(52.441615,205.06576)" fill="#7e807b">
  <path d="m475.28-125.91c0,0.98853-0.98853,1.6772-4.4873,1.6772-3.7986,0-4.4096-0.76639-4.4096-1.6772v-10.263h-10.641c-0.91079,0-1.5216-1.0663-1.5216-4.1874,0-3.4876,0.68865-4.1763,1.5216-4.1763h10.641v-11.707h8.897v11.707h12.162v8.3637h-12.162v10.263z"/>
  <path d="m515.46-126.32c0,1.3884-1.2551,2.0881-5.1426,2.0881-4.0208,0-4.8538-0.69974-4.8538-2.1548v-33.254c-3.3321,2.077-8.1304,4.9316-12.229,7.153l-3.7431-7.6417c5.4869-3.2655,11.529-6.8753,15.417-9.3746,1.5216-0.97745,2.2214-1.1884,3.9541-1.1884h4.1652c1.8104,0,2.4324,0.6331,2.4324,2.1548v42.218z"/>
 </g>
 <path fill-rule="nonzero" fill="#7e807b" d="M541.88,0c-35.93,0-58.1,25.492-58.1,57.625s22.17,57.625,58.1,57.625c35.92,0,58.12-25.492,58.12-57.625s-22.2-57.625-58.12-57.625zm0,10.781c29.19,0,47.21,20.732,47.21,46.844s-18.02,46.815-47.21,46.815c-29.2,0-47.22-20.703-47.22-46.815s18.02-46.844,47.22-46.844z"/>
</svg>
