<?xml version="1.0" encoding="UTF-8" standalone="no"?>
<!-- Created with Inkscape (http://www.inkscape.org/) -->
<svg xmlns:rdf="http://www.w3.org/1999/02/22-rdf-syntax-ns#" xmlns="http://www.w3.org/2000/svg" height="136.64" width="600" version="1.1" xmlns:cc="http://creativecommons.org/ns#" xmlns:dc="http://purl.org/dc/elements/1.1/">
 <defs></defs>
 <metadata>
  <rdf:RDF>
   <cc:Work rdf:about="">
    <dc:format>image/svg+xml</dc:format>
    <dc:type rdf:resource="http://purl.org/dc/dcmitype/StillImage"/>
    <dc:title/>
   </cc:Work>
  </rdf:RDF>
 </metadata>
 <g fill-rule="nonzero" transform="translate(-203.50195,402.7825)">
  <path fill="#ee2c2a" d="m249.07-266.15-45.569,0,0-136.64,45.569,0,0,136.64z"/>
  <path fill="#f36522" d="m303.43-266.15-59.408,0,0-136.64,59.408,0,0,136.64z"/>
  <path fill="#f5ce1a" d="m364.21-266.15-66.339,0,0-136.64,66.339,0,0,136.64z"/>
  <path fill="#9caf22" d="m416.55-266.15-57.893,0,0-136.64,57.893,0,0,136.64z"/>
  <path fill="#7bcb29" d="m432.59-266.15-20.087,0,0-136.64,20.087,0,0,136.64z"/>
  <path fill="#3db1b0" d="m450.66-266.15-21.098,0,0-136.64,21.098,0,0,136.64z"/>
  <path fill="#49be63" d="m504.49-266.15-57.871,0,0-136.64,57.871,0,0,136.64z"/>
  <path fill="#9744a8" d="m532.3-266.15-32.357,0,0-136.64,32.357,0,0,136.64z"/>
  <path fill="#c81970" d="m583.12-266.15-53.852,0,0-136.64,53.852,0,0,136.64z"/>
  <path d="m257.24-318.12c-0.39818,2.4008-1.3233,4.6492-2.7521,6.7455-1.4287,2.0846-3.4899,3.8295-6.1834,5.2348s-6.3239,2.108-10.903,2.108c-2.5764,0-5.0708-0.36304-7.4716-1.0774s-4.5556-1.8269-6.441-3.3493c-1.8855-1.5224-3.4079-3.4664-4.5556-5.8438-1.136-2.3773-1.7098-5.2465-1.7098-8.631v-5.3168h12.191v2.7404c0,1.499,0.1171,2.8692,0.33962,4.1223,0.23422,1.2648,0.63238,2.3422,1.2062,3.2205,0.57384,0.89003,1.3585,1.5927,2.3656,2.108,0.99543,0.51529,2.2953,0.77293,3.8998,0.77293,1.7801,0,3.1502-0.3162,4.1223-0.9486,0.97201-0.63239,1.6747-1.4404,2.108-2.4476,0.4333-0.99544,0.69094-2.0846,0.77291-3.2556,0.082-1.1711,0.12888-2.3071,0.12888-3.3962v-41.387h13.479v41.984c0,2.0026-0.19909,4.2159-0.59726,6.6167" fill="#FFF"/>
  <path d="m284.63-351.01c-3.3845,0-6.4414,0.59524-9.2169,1.8015-2.7755,1.2062-5.1731,2.8473-7.164,4.9436-2.0143,2.0846-3.5729,4.5579-4.6503,7.4154-1.0891,2.8692-1.6339,5.9747-1.6339,9.3006,0,3.4313,0.52631,6.5571,1.592,9.4263,1.054,2.8575,2.5806,5.3124,4.5246,7.3735s4.2813,3.6635,7.0802,4.776c2.8106,1.1242,5.9784,1.6758,9.4682,1.6758,5.0357,0,9.3552-1.14,12.904-3.4354,3.5484-2.2954,6.1547-6.0786,7.8762-11.395h-10.725c-0.39818,1.3702-1.4877,2.6666-3.2678,3.8962-1.7684,1.2414-3.9087,1.8434-6.368,1.8434-3.443,0-6.0493-0.91289-7.8762-2.6813-1.8269-1.7801-2.8408-4.6301-3.0164-8.5884h32.05c0.2225-3.4313-0.0717-6.695-0.87979-9.8453-0.79635-3.1502-2.0927-5.9498-3.8962-8.4208-1.8035-2.4593-4.102-4.4433-6.9126-5.9072-2.7989-1.4639-6.1045-2.1785-9.8872-2.1785zm-0.33517,9.175c2.9746,0,5.1974,0.8255,6.6613,2.4299s2.4543,3.9466,3.0164,7.0383h-19.816c0.0586-0.85489,0.22843-1.8435,0.54464-2.9326,0.31619-1.0891,0.86096-2.1282,1.6339-3.1002,0.78464-0.97202,1.8003-1.7741,3.1002-2.4299,1.2765-0.65581,2.9158-1.0055,4.8598-1.0055z" fill="#FFF"/>
  <path d="m347.32-305.41-7.9049-29.804-0.16394,0-7.5653,29.804-12.613,0-14.088-44.396,12.882,0,8.1508,30.144,0.17566,0,7.3896-30.144,11.851,0,7.5536,30.062,0.17566,0,8.1508-30.062,12.542,0-13.995,44.396-12.542,0z" fill="#FFF"/>
  <path d="m395.24-351.01c-3.3845,0-6.4413,0.59524-9.2168,1.8015-2.7755,1.2062-5.1614,2.8473-7.164,4.9436-2.0026,2.0846-3.5612,4.5579-4.6503,7.4154-1.0774,2.8692-1.6339,5.9747-1.6339,9.3006,0,3.4313,0.52631,6.5571,1.592,9.4263,1.054,2.8575,2.5806,5.3124,4.5246,7.3735s4.3232,3.6635,7.1221,4.776c2.8106,1.1242,5.9365,1.6758,9.4263,1.6758,5.0357,0,9.3552-1.14,12.904-3.4354,3.5484-2.2954,6.1664-6.0786,7.8762-11.395h-10.725c-0.39817,1.3702-1.4877,2.6666-3.2678,3.8962-1.7684,1.2414-3.8668,1.8434-6.3261,1.8434-3.443,0-6.0912-0.91289-7.9181-2.6813-1.8386-1.7801-2.8408-4.6301-3.0164-8.5884h32.049c0.22251-3.4313-0.0717-6.695-0.87979-9.8453-0.79635-3.1502-2.0927-5.9498-3.8962-8.4208-1.8035-2.4593-4.102-4.4433-6.9126-5.9072-2.7989-1.4639-6.1045-2.1785-9.8872-2.1785zm-0.33516,9.175c2.9746,0,5.1974,0.8255,6.6613,2.4299s2.4845,3.9466,3.0583,7.0383h-19.858c0.0585-0.85489,0.22842-1.8435,0.54462-2.9326,0.31621-1.0891,0.86097-2.1282,1.6339-3.1002,0.77293-0.97202,1.812-1.7741,3.1002-2.4299,1.2882-0.65581,2.9158-1.0055,4.8598-1.0055z" fill="#FFF"/>
  <path d="m432.25-305.41-12.191,0,0-61.319,12.191,0,0,61.319z" fill="#FFF"/>
  <path d="m450.11-305.41-12.191,0,0-61.319,12.191,0,0,61.319z" fill="#FFF"/>
  <path d="m475.97-351.01c-3.3845,0-6.4413,0.59524-9.2168,1.8015-2.7872,1.2062-5.2033,2.8473-7.2059,4.9436-2.0026,2.0846-3.5193,4.5579-4.6084,7.4154-1.0891,2.8692-1.6339,5.9747-1.6339,9.3006,0,3.4313,0.52629,6.5571,1.592,9.4263,1.054,2.8575,2.527,5.3124,4.4827,7.3735,1.944,2.0611,4.3232,3.6635,7.1221,4.776,2.8106,1.1242,5.9784,1.6758,9.4682,1.6758,5.0357,0,9.3133-1.14,12.862-3.4354,3.5484-2.2954,6.1966-6.0786,7.9181-11.395h-10.725c-0.39818,1.3702-1.4877,2.6666-3.2678,3.8962-1.7684,1.2414-3.9087,1.8434-6.368,1.8434-3.443,0-6.0493-0.91289-7.8762-2.6813-1.8269-1.7801-2.8408-4.6301-3.0164-8.5884h32.008c0.23422-3.4313-0.0298-6.695-0.83789-9.8453-0.80806-3.1502-2.0927-5.9498-3.8962-8.4208-1.7918-2.4593-4.102-4.4433-6.9126-5.9072-2.7989-1.4639-6.1045-2.1785-9.8872-2.1785zm-0.33515,9.175c2.9746,0,5.1974,0.8255,6.6613,2.4299s2.4426,3.9466,3.0164,7.0383h-19.816c0.0586-0.85489,0.22844-1.8435,0.54463-2.9326,0.3162-1.0891,0.86098-2.1282,1.6339-3.1002,0.77293-0.97202,1.812-1.7741,3.1002-2.4299,1.2882-0.65581,2.9041-1.0055,4.8598-1.0055z" fill="#FFF"/>
  <path d="m512.03-349.81,0,8.2445,0.17567,0c0.57383-1.3702,1.335-2.6467,2.3071-3.8178,0.98371-1.1828,2.0962-2.1782,3.361-3.0097,1.2531-0.83148,2.5998-1.4756,4.0286-1.9323,1.4287-0.45673,2.9277-0.69095,4.4736-0.69095,0.79635,0,1.6864,0.15225,2.6584,0.43331v11.336c-0.57386-0.11711-1.2648-0.21079-2.0611-0.30449-0.80807-0.082-1.581-0.12888-2.3188-0.12888-2.2368,0-4.1223,0.37475-5.6681,1.1242-1.5458,0.73779-2.7872,1.7566-3.7358,3.0448-0.94859,1.2882-1.6161,2.7872-2.0143,4.5087-0.40989,1.7215-0.60897,3.5718-0.60897,5.5744v20.014h-12.191v-44.396h11.594z" fill="#FFF"/>
  <path d="m545.95-293.17c-2.3539,1.5458-5.6096,2.3188-9.7904,2.3188-1.2531,0-2.5062-0.0468-3.7358-0.12888-1.2297-0.082-2.471-0.18738-3.7358-0.30448v-10.048c1.1477,0.11711,2.3188,0.23422,3.525,0.35133,1.1945,0.10546,2.4007,0.14054,3.607,0.082,1.6044-0.17567,2.7872-0.79635,3.5601-1.8855,0.77292-1.0891,1.1594-2.2954,1.1594-3.607,0-0.97201-0.17567-1.8972-0.51528-2.7521l-15.54-41.644h12.964l10.048,30.39h0.17566l9.6967-30.39h12.624l-18.55,49.889c-1.3116,3.607-3.1502,6.1834-5.4924,7.7292" fill="#FFF"/>
  <path d="m650.11-366.73,0,59.164-1.654,0,0-57.093-0.16659,0-25.024,57.093-1.8206,0-25.024-57.093-0.16659,0,0,57.093-1.654,0,0-59.164,2.725,0,24.953,57.01,0.16658,0,24.941-57.01,2.725,0z" fill="#000"/>
  <path d="m678.23-350.31c-2.5703,0-4.822,0.35026-6.7259,1.0642-1.9158,0.70207-3.5013,1.6452-4.8103,2.8947-1.3208,1.2494-2.3203,2.7562-3.0224,4.4697-0.70207,1.7135-1.1274,3.5399-1.2345,5.4914h1.6176c0.26179-3.9149,1.6285-6.9253,4.044-9.0672,2.4156-2.1419,5.7881-3.2352,10.131-3.2352,2.7368,0,4.8947,0.36903,6.513,1.1068,1.6064,0.73777,2.828,1.6672,3.6609,2.8095,0.83296,1.1423,1.3609,2.3895,1.575,3.7461,0.21422,1.3565,0.34056,2.6669,0.34056,3.9163,0,1.5826-0.31776,2.7735-0.93653,3.6184-0.61877,0.84484-1.5857,1.4684-2.8947,1.873-1.3208,0.40458-2.9883,0.66602-5.0231,0.80882-2.0348,0.13095-4.5205,0.27099-7.3644,0.42568-1.7135,0.10702-3.4254,0.37858-5.1508,0.72368-1.7135,0.35698-3.2102,0.98056-4.5549,1.873-1.3446,0.89246-2.4448,2.1328-3.2778,3.7035-0.83296,1.5826-1.2345,3.6516-1.2345,6.2576,0,3.7483,1.266,6.5604,3.7886,8.4286,2.5227,1.8801,5.8577,2.8095,10.046,2.8095,2.1419,0,4.139-0.29211,5.9596-0.85136,1.8325-0.57118,3.4368-1.3656,4.8528-2.3413,1.4279-0.98766,2.6357-2.0709,3.5758-3.3204,0.94005-1.2494,1.6149-2.5479,2.0433-3.9163h0.17028v5.4488c0,1.5707,0.42716,2.6641,1.3196,3.2352,0.88055,0.57117,1.9295,0.85137,3.1075,0.85137h2.3838v-1.6176c-0.53546,0.0596-1.084,0.092-1.7027,0.1276-0.61877,0.0238-1.2099-0.0394-1.7453-0.17027-0.53548-0.14279-0.95578-0.38547-1.2771-0.76625-0.32127-0.38077-0.51082-1.0094-0.51082-1.8304v-26.606c-0.0476-2.2847-0.44226-4.193-1.1919-5.7042-0.74966-1.5231-1.7542-2.7516-2.9798-3.7035-1.2375-0.95195-2.6692-1.62-4.2994-2.0007-1.6421-0.38078-3.3609-0.55338-5.1934-0.55338zm11.919,18.219,0.17028,0,0,7.7475c0,2.0586-0.38094,4.0507-1.1068,6.0022-0.72587,1.9515-1.8073,3.6941-3.2352,5.1934-1.416,1.4874-3.1417,2.6902-5.236,3.6184-2.0943,0.92815-4.5049,1.3622-7.1941,1.3622-2.249,0-4.1266-0.24954-5.6617-0.80881-1.5231-0.57118-2.7822-1.3211-3.7461-2.2136-0.97575-0.89244-1.6387-1.9414-2.0433-3.1075-0.40459-1.1661-0.59596-2.3314-0.59596-3.5332,0-2.2252,0.33148-4.0259,1.0217-5.4062,0.70205-1.3803,1.6315-2.4924,2.8095-3.2778,1.178-0.78537,2.5516-1.3201,4.0866-1.6176,1.5231-0.2975,3.0762-0.48888,4.6826-0.59597,1.6183-0.10702,3.2909-0.20782,4.9806-0.25541,1.6897-0.0596,3.2308-0.19961,4.6826-0.4257,1.4517-0.21419,2.7433-0.53194,3.8738-0.93651,1.1304-0.41648,1.9761-0.99566,2.5116-1.7453z" fill="#000"/>
  <path d="m706.24-307.56-1.5112,0,0-59.164,1.5112,0,0,41.017,26.893-24.453,2.2014,0-17.885,16.255,19.17,26.345-2.0467,0-18.254-25.191-10.079,9.1149,0,16.076z" fill="#000"/>
  <path d="m758.89-350.31c-2.2966,0-4.5245,0.4716-6.7259,1.4474-2.1895,0.97574-4.1234,2.4312-5.7894,4.2994-1.654,1.8682-2.99,4.1405-4.0015,6.8536-1.0234,2.7131-1.5325,5.8054-1.5325,9.28,0,3.0938,0.36216,5.9948,1.0642,8.684,0.69018,2.6893,1.7528,5.0366,3.1927,7.0238,1.4517,1.9753,3.2918,3.5146,5.5765,4.5974,2.2728,1.0948,5.003,1.592,8.2158,1.5325,4.7122,0,8.7064-1.3548,11.919-4.044,3.2128-2.6774,5.1212-6.4752,5.7042-11.366h-1.6176c-0.69016,4.617-2.4959,8.0783-5.3637,10.387-2.8678,2.3085-6.4385,3.4906-10.77,3.4906-2.951,0-5.4573-0.53979-7.4921-1.575-2.0348-1.0233-3.6954-2.4175-4.9806-4.2143-1.2851-1.7849-2.2333-3.8846-2.8521-6.3002-0.61877-2.4156-0.93155-5.0551-0.97909-7.8752h34.523c0.0952-2.8796-0.185-5.6474-0.85137-8.3009-0.67827-2.6655-1.729-5.0385-3.1927-7.109-1.4755-2.0586-3.3839-3.6885-5.7042-4.938-2.3323-1.2494-5.1307-1.873-8.3435-1.873zm0.17028,1.6176c2.6774,0,5.0316,0.49036,7.0664,1.4899s3.7398,2.3919,5.1083,4.1292c1.3684,1.7373,2.4055,3.7482,3.1075,6.0448,0.69018,2.3085,1.0216,4.7754,1.0216,7.3218h-32.906c0.15469-2.9272,0.70135-5.5855,1.6176-7.9178,0.90435-2.3323,2.0577-4.3482,3.5332-6.0022s3.1994-2.8774,5.1508-3.746c1.9515-0.86867,4.0512-1.3196,6.3002-1.3196z" fill="#000"/>
  <path d="m787.09-307.56,0-41.791,1.4636,0,0,10.329,0.1428,0c0.3451-1.5707,0.88056-3.0462,1.6183-4.4385,0.72587-1.3803,1.7135-2.5822,2.9273-3.6174,1.2256-1.0234,2.6774-1.8325,4.3671-2.4394,1.6778-0.59497,3.6531-0.85676,5.8902-0.80917v1.6302c-2.5822-0.1666-4.8192,0.22607-6.6994,1.178-1.8801,0.95195-3.4389,2.249-4.6526,3.903-1.2256,1.654-2.13,3.5579-2.7131,5.7355-0.58306,2.1657-0.88056,4.3909-0.88056,6.6637v23.656h-1.4636z" fill="#000"/>
 </g>
</svg>
