<?xml version="1.0" encoding="UTF-8" standalone="no"?>
<svg xmlns:rdf="http://www.w3.org/1999/02/22-rdf-syntax-ns#" xmlns="http://www.w3.org/2000/svg" height="136.41" width="600" version="1.1" xmlns:cc="http://creativecommons.org/ns#" xmlns:dc="http://purl.org/dc/elements/1.1/">
 <g>
  <path d="m45.493 136.41h-45.493v-136.41h45.493v136.41z" fill="#ee2c2a"/>
  <path d="m99.763 136.41h-59.309v-136.41h59.309v136.41z" fill="#f36522"/>
  <path d="m160.44 136.41h-66.227v-136.41h66.227v136.41z" fill="#f5ce1a"/>
  <path d="m212.69 136.41h-57.79v-136.41h57.79v136.41z" fill="#9caf22"/>
  <path d="m228.71 136.41h-20.06v-136.41h20.06v136.41z" fill="#7bcb29"/>
  <path d="m246.75 136.41h-21.06v-136.41h21.06v136.41z" fill="#3db1b0"/>
  <path d="m300.49 136.41h-57.78v-136.41h57.78v136.41z" fill="#49be63"/>
  <path d="m328.25 136.41h-32.3v-136.41h32.3v136.41z" fill="#9744a8"/>
  <path d="m378.99 136.41h-53.76v-136.41h53.76v136.41z" fill="#c81970"/>
 </g>
 <g fill="#fff">
  <path d="m53.65 84.529c-0.398 2.397-1.321 4.642-2.748 6.735-1.426 2.081-3.484 3.823-6.173 5.226s-6.313 2.104-10.885 2.104c-2.572 0-5.062-0.362-7.459-1.075-2.397-0.714-4.548-1.824-6.43-3.344-1.883-1.52-3.403-3.461-4.548-5.834-1.134-2.374-1.707-5.238-1.707-8.617v-5.308h12.17v2.736c0 1.496 0.117 2.864 0.339 4.115 0.234 1.263 0.632 2.339 1.205 3.216 0.573 0.888 1.356 1.59 2.361 2.104 0.994 0.514 2.292 0.772 3.894 0.772 1.777 0 3.145-0.316 4.115-0.947 0.971-0.632 1.672-1.438 2.105-2.444 0.432-0.994 0.689-2.081 0.771-3.25s0.129-2.303 0.129-3.391v-41.318h13.456v41.914c0 2-0.198 4.209-0.596 6.606"/>
  <path d="m80.994 51.694c-3.379 0-6.431 0.594-9.201 1.798-2.771 1.205-5.165 2.843-7.153 4.936-2.01 2.081-3.566 4.55-4.642 7.403-1.087 2.864-1.631 5.965-1.631 9.285 0 3.426 0.525 6.546 1.589 9.411 1.052 2.852 2.576 5.303 4.517 7.361s4.274 3.657 7.069 4.768c2.806 1.122 5.968 1.673 9.452 1.673 5.027 0 9.34-1.138 12.883-3.43 3.542-2.291 6.143-6.068 7.863-11.376h-10.707c-0.398 1.368-1.486 2.662-3.263 3.89-1.765 1.239-3.902 1.84-6.357 1.84-3.438 0-6.039-0.911-7.863-2.677-1.824-1.777-2.836-4.622-3.012-8.574h31.992c0.23-3.425-0.07-6.684-0.87-9.829s-2.093-5.94-3.893-8.406c-1.801-2.456-4.095-4.436-6.901-5.898-2.794-1.461-6.095-2.175-9.871-2.175zm-0.334 9.16c2.969 0 5.188 0.824 6.65 2.426 1.461 1.601 2.45 3.94 3.011 7.026h-19.783c0.059-0.853 0.228-1.84 0.544-2.928 0.315-1.087 0.859-2.124 1.631-3.095 0.783-0.97 1.797-1.771 3.095-2.425 1.274-0.655 2.911-1.004 4.852-1.004z"/>
  <path d="m143.58 97.218-7.89-29.754h-0.17l-7.55 29.754h-12.59l-14.06-44.322h12.86l8.13 30.094h0.18l7.38-30.094h11.83l7.54 30.012h0.17l8.14-30.012h12.52l-13.97 44.322h-12.52z"/>
  <path d="m191.42 51.694c-3.38 0-6.43 0.594-9.2 1.798-2.77 1.205-5.15 2.843-7.15 4.936-2 2.081-3.56 4.55-4.65 7.403-1.07 2.864-1.63 5.965-1.63 9.285 0 3.426 0.53 6.546 1.59 9.411 1.05 2.852 2.58 5.303 4.52 7.361s4.32 3.657 7.11 4.768c2.81 1.122 5.93 1.673 9.41 1.673 5.03 0 9.34-1.138 12.88-3.43 3.55-2.291 6.16-6.068 7.87-11.376h-10.71c-0.4 1.368-1.49 2.662-3.26 3.89-1.77 1.239-3.86 1.84-6.32 1.84-3.44 0-6.08-0.911-7.9-2.677-1.84-1.777-2.84-4.622-3.02-8.574h32c0.22-3.425-0.07-6.684-0.88-9.829-0.79-3.145-2.09-5.94-3.89-8.406-1.8-2.456-4.09-4.436-6.9-5.898-2.79-1.461-6.09-2.175-9.87-2.175zm-0.33 9.16c2.97 0 5.18 0.824 6.65 2.426 1.46 1.601 2.48 3.94 3.05 7.026h-19.83c0.06-0.853 0.23-1.84 0.55-2.928 0.31-1.087 0.86-2.124 1.63-3.095 0.77-0.97 1.81-1.771 3.09-2.425 1.29-0.655 2.92-1.004 4.86-1.004z"/>
  <path d="m228.37 97.218h-12.17v-61.217h12.17v61.217z"/>
  <path d="m246.2 97.218h-12.17v-61.217h12.17v61.217z"/>
  <path d="m272.02 51.694c-3.38 0-6.43 0.594-9.21 1.798-2.78 1.205-5.19 2.843-7.19 4.936-2 2.081-3.51 4.55-4.6 7.403-1.09 2.864-1.63 5.965-1.63 9.285 0 3.426 0.52 6.546 1.59 9.411 1.05 2.852 2.52 5.303 4.47 7.361 1.94 2.058 4.32 3.657 7.11 4.768 2.81 1.122 5.97 1.673 9.46 1.673 5.02 0 9.29-1.138 12.84-3.43 3.54-2.291 6.18-6.068 7.9-11.376h-10.71c-0.39 1.368-1.48 2.662-3.26 3.89-1.76 1.239-3.9 1.84-6.36 1.84-3.43 0-6.03-0.911-7.86-2.677-1.82-1.777-2.83-4.622-3.01-8.574h31.96c0.23-3.425-0.03-6.684-0.84-9.829s-2.09-5.94-3.89-8.406c-1.79-2.456-4.1-4.436-6.9-5.898-2.8-1.461-6.1-2.175-9.87-2.175zm-0.34 9.16c2.97 0 5.19 0.824 6.65 2.426 1.46 1.601 2.44 3.94 3.01 7.026h-19.78c0.06-0.853 0.23-1.84 0.54-2.928 0.32-1.087 0.86-2.124 1.63-3.095 0.78-0.97 1.81-1.771 3.1-2.425 1.29-0.655 2.9-1.004 4.85-1.004z"/>
  <path d="m308.02 52.892v8.231h0.17c0.57-1.368 1.33-2.643 2.3-3.812 0.99-1.181 2.1-2.174 3.36-3.004 1.25-0.831 2.6-1.474 4.02-1.93 1.43-0.455 2.92-0.689 4.47-0.689 0.79 0 1.68 0.152 2.65 0.432v11.317c-0.57-0.116-1.26-0.21-2.06-0.304-0.8-0.081-1.57-0.128-2.31-0.128-2.23 0-4.12 0.374-5.66 1.122-1.54 0.737-2.78 1.754-3.73 3.04s-1.61 2.782-2.01 4.501c-0.41 1.719-0.61 3.566-0.61 5.565v19.981h-12.17v-44.322h11.58z"/>
  <path d="m341.88 109.44c-2.35 1.54-5.6 2.31-9.77 2.31-1.26 0-2.51-0.04-3.73-0.13-1.23-0.08-2.47-0.18-3.73-0.3v-10.03c1.14 0.12 2.31 0.23 3.52 0.35 1.19 0.1 2.39 0.14 3.6 0.08 1.6-0.17 2.78-0.79 3.55-1.881 0.77-1.087 1.16-2.292 1.16-3.601 0-0.97-0.18-1.894-0.52-2.747l-15.51-41.575h12.94l10.03 30.339h0.18l9.68-30.339h12.6l-18.52 49.804c-1.31 3.6-3.14 6.17-5.48 7.72"/>
 </g>
 <g>
  <path style="color-rendering:auto;text-decoration-color:#000000;color:#000000;isolation:auto;mix-blend-mode:normal;shape-rendering:auto;solid-color:#000000;block-progression:tb;text-decoration-line:none;text-decoration-style:solid;image-rendering:auto;white-space:normal;text-indent:0;text-transform:none" d="m389.45 35.002v61.062h3.65v-53.614l23.5 53.614h3.12l0.26-0.598c7.69-17.538 15.39-35.319 23.24-52.661v53.259h3.64v-61.062h-4.37l-24.33 55.614-24.34-55.614z"/>
  <path style="color-rendering:auto;text-decoration-color:#000000;color:#000000;isolation:auto;mix-blend-mode:normal;shape-rendering:auto;solid-color:#000000;block-progression:tb;text-decoration-line:none;text-decoration-style:solid;image-rendering:auto;white-space:normal;text-indent:0;text-transform:none" d="m391.45 36.999h1.07l0.03 0.07h-1.1z"/>
  <path style="color-rendering:auto;text-decoration-color:#000000;color:#000000;isolation:auto;mix-blend-mode:normal;shape-rendering:auto;solid-color:#000000;block-progression:tb;text-decoration-line:none;text-decoration-style:solid;image-rendering:auto;white-space:normal;text-indent:0;text-transform:none" d="m417.83 93.914h0.65c-0.02 0.051-0.04 0.102-0.06 0.154h-0.52z"/>
  <path style="color-rendering:auto;text-decoration-color:#000000;color:#000000;isolation:auto;mix-blend-mode:normal;shape-rendering:auto;solid-color:#000000;block-progression:tb;text-decoration-line:none;text-decoration-style:solid;image-rendering:auto;white-space:normal;text-indent:0;text-transform:none" d="m470.66 51.395 0.32 0.216c-1.47 0.176-2.86 0.443-4.1 0.907-2.01 0.739-3.73 1.754-5.15 3.106-1.42 1.349-2.5 2.977-3.25 4.804-0.74 1.81-1.19 3.748-1.3 5.807l-0.06 1.053h3.6l0.06-0.932c0.25-3.712 1.5-6.417 3.71-8.371 2.19-1.944 5.28-2.979 9.45-2.979 2.64 0 4.66 0.366 6.09 1.016 1.48 0.683 2.55 1.512 3.26 2.484 0.75 1.023 1.2 2.109 1.39 3.307 0.21 1.316 0.33 2.573 0.33 3.753 0 1.447-0.29 2.41-0.74 3.025-0.46 0.631-1.22 1.144-2.38 1.503-1.21 0.37-2.81 0.627-4.79 0.766-2.02 0.13-4.5 0.271-7.34 0.425h-0.01c-1.77 0.111-3.52 0.392-5.27 0.741h-0.01c-1.82 0.38-3.45 1.055-4.89 2.016-1.49 0.988-2.71 2.365-3.61 4.062v0.002c-0.93 1.78-1.35 4.009-1.35 6.713 0 3.967 1.42 7.162 4.19 9.217 2.73 2.034 6.3 3.001 10.62 3.001 2.23 0 4.33-0.305 6.25-0.895v-0.002c1.92-0.599 3.62-1.436 5.11-2.466l0.01-0.002c1.49-1.031 2.78-2.181 3.8-3.535 0.18-0.251 0.24-0.538 0.41-0.794v1.724c0 1.749 0.52 3.265 1.78 4.069 1.05 0.684 2.31 1.008 3.64 1.008h3.38v-3.73l-1.11 0.125c-0.5 0.055-1.02 0.086-1.63 0.121-0.52 0.02-1.02-0.034-1.45-0.141-0.39-0.103-0.59-0.23-0.77-0.44-0.09-0.114-0.27-0.518-0.27-1.184v-26.571-0.011c-0.05-2.384-0.46-4.432-1.29-6.115v-0.002c-0.82-1.646-1.92-2.999-3.26-4.042v-0.002-0.002c-1.36-1.04-2.93-1.769-4.68-2.178-1.72-0.4-3.52-0.577-5.41-0.577h-3.28zm14.35 21.189v5.733c0 1.932-0.35 3.795-1.04 5.643-0.68 1.826-1.69 3.446-3.02 4.845-1.32 1.386-2.92 2.507-4.91 3.387-1.93 0.858-4.2 1.275-6.78 1.275-2.16 0-3.92-0.245-5.3-0.745v-0.002c-1.42-0.532-2.56-1.219-3.41-2.004v-0.002-0.002c-0.86-0.78-1.42-1.673-1.77-2.693-0.37-1.062-0.54-2.108-0.54-3.202 0-2.118 0.32-3.761 0.91-4.942 0.64-1.254 1.45-2.219 2.47-2.896 1.05-0.701 2.29-1.189 3.71-1.464 1.48-0.288 2.99-0.475 4.55-0.58 1.61-0.106 3.27-0.206 4.94-0.253h0.01c1.72-0.061 3.29-0.204 4.79-0.437 1.5-0.222 2.85-0.552 4.05-0.981v-0.002l0.01-0.001c0.49-0.182 0.91-0.426 1.33-0.677z"/>
  <path style="color-rendering:auto;text-decoration-color:#000000;color:#000000;isolation:auto;mix-blend-mode:normal;shape-rendering:auto;solid-color:#000000;block-progression:tb;text-decoration-line:none;text-decoration-style:solid;image-rendering:auto;white-space:normal;text-indent:0;text-transform:none" d="m499.4 35.008v61.062h3.5v-0.998-15.607l8.91-8.055 17.87 24.66h4.51l-19.76-27.164 19.1-17.361h-5.16l-25.47 23.153v-39.69h-3.5z"/>
  <path style="color-rendering:auto;text-decoration-color:#000000;color:#000000;isolation:auto;mix-blend-mode:normal;shape-rendering:auto;solid-color:#000000;block-progression:tb;text-decoration-line:none;text-decoration-style:solid;image-rendering:auto;white-space:normal;text-indent:0;text-transform:none" d="m554.46 51.395c-0.03 0-0.07 0.011-0.11 0.011v-0.006 0.006c-2.39 0.016-4.72 0.509-7 1.519-2.33 1.036-4.38 2.582-6.12 4.542h-0.01v0.001c-1.74 1.966-3.13 4.346-4.18 7.153-1.07 2.84-1.59 6.05-1.59 9.616 0 3.167 0.37 6.148 1.09 8.921 0.72 2.787 1.83 5.249 3.35 7.345v0.004 0.002c1.54 2.095 3.52 3.749 5.94 4.898 2.44 1.178 5.33 1.69 8.65 1.628 4.89-0.003 9.14-1.432 12.52-4.268 3.42-2.846 5.45-6.919 6.05-11.996l0.13-1.115h-3.6l-0.12 0.85c-0.67 4.43-2.35 7.612-5 9.74-2.67 2.155-5.98 3.264-10.12 3.264-2.83 0-5.17-0.517-7.03-1.464v-0.002c-1.9-0.956-3.42-2.235-4.61-3.896v-0.002c-1.21-1.67-2.1-3.646-2.69-5.955-0.52-2.012-0.72-4.276-0.82-6.616h34.3l0.03-0.965c0.1-2.961-0.19-5.82-0.87-8.564v-0.002c-0.71-2.763-1.81-5.25-3.34-7.427l-0.01-0.004v-0.002c-1.56-2.184-3.6-3.917-6.03-5.228-2.5-1.338-5.47-1.988-8.8-1.988h-0.01zm0.18 3.611c2.55 0 4.74 0.466 6.61 1.386 1.9 0.934 3.48 2.222 4.76 3.843 1.28 1.633 2.26 3.524 2.93 5.71 0.56 1.895 0.83 3.928 0.91 6.019h-30.66c0.21-2.397 0.66-4.617 1.41-6.542l0.01-0.002v-0.002c0.87-2.242 1.96-4.144 3.34-5.688 1.38-1.545 2.97-2.678 4.8-3.492 1.82-0.811 3.77-1.232 5.89-1.232z"/>
  <path style="color-rendering:auto;text-decoration-color:#000000;color:#000000;isolation:auto;mix-blend-mode:normal;shape-rendering:auto;solid-color:#000000;block-progression:tb;text-decoration-line:none;text-decoration-style:solid;image-rendering:auto;white-space:normal;text-indent:0;text-transform:none" d="m599.02 51.379c-2.32-0.049-4.41 0.218-6.23 0.864v0.002h-0.01c-1.78 0.64-3.34 1.504-4.66 2.609v0.002l-0.01 0.004c-1.24 1.064-2.25 2.331-3.03 3.755v-6.263h-3.46v43.718h1 1.46 1v-24.615c0-2.182 0.28-4.315 0.84-6.394 0.56-2.065 1.41-3.846 2.55-5.391v-0.002c1.12-1.523 2.54-2.712 4.29-3.598 1.7-0.856 3.74-1.228 6.18-1.07l1.06 0.068v-3.67z"/>
 </g>
</svg>
