<?xml version="1.0" encoding="UTF-8" standalone="no"?>
<!-- Created with Inkscape (http://www.inkscape.org/) -->
<svg xmlns:rdf="http://www.w3.org/1999/02/22-rdf-syntax-ns#" xmlns="http://www.w3.org/2000/svg" height="265.76" width="600" version="1.1" xmlns:cc="http://creativecommons.org/ns#" xmlns:dc="http://purl.org/dc/elements/1.1/">
 <metadata>
  <rdf:RDF>
   <cc:Work rdf:about="">
    <dc:format>image/svg+xml</dc:format>
    <dc:type rdf:resource="http://purl.org/dc/dcmitype/StillImage"/>
    <dc:title/>
   </cc:Work>
  </rdf:RDF>
 </metadata>
 <g transform="translate(-0.19829061,-0.24235587)">
  <g transform="matrix(0.99988865,0,0,0.99988865,0.03342658,0.0148227)">
   <path style="baseline-shift:baseline;block-progression:tb;color:#000000;direction:ltr;text-indent:0;text-align:start;enable-background:accumulate;text-transform:none;" fill="#432156" d="m108.38,93.437c-3.6974-0.27534-8.2755-0.22373-15.469,0.09375-15.577,0.68665-38.614,5.9082-53.719,11.406-7.5361,2.743-15.533,6.4655-22.25,10.5-3.3585,2.0172-6.3771,4.0786-8.9375,6.3125s-4.8331,4.45-6.125,8.1562h-0.03125c-3.0051,8.6706-1.5433,17.799,1,25.344,1.2717,3.7722,2.8684,7.1571,4.7812,10,1.9087,2.8367,3.6534,5.7423,8.625,6.8125,0.01086,0.002,0.02036-0.002,0.03125,0,5.4449,1.162,16.36,1.1103,32.406-6.625,1.0365,1.1157,2.4028,2.8309,3.8438,5.0625,3.2957,5.104,6.4471,11.394,7.625,13.75,1.4749,2.9609,4.6819,15.048,2.5938,21.625-2.6925,8.5188-6.6973,12.699-12.344,14.719h-0.03125c-2.3349,0.84602-6.1351,1.6654-9.0625,1.375-2.9274-0.29042-4.6026-0.93453-6.1875-3.7812-0.56032-1.0072-0.96741-1.9127-1.25-2.7188,0.36181,0.23585,0.7146,0.61745,1.0625,0.8125,2.1915,1.2286,4.5215,1.8735,7.0938,2.0625,5.1445,0.378,11.797-1.6412,15.688-7.5,2.3277-3.5176,3.3349-7.5434,3.125-11.062-0.20988-3.5191-1.3747-6.3726-2.4688-8.625l-0.03125-0.0312c-3.533-7.19-10.547-11.32-18.785-12.22-8.897-0.98236-18.309,3.6191-24.625,12.688-6.317,9.092-13.007,28.115-1.625,47.281,6.0296,10.138,15.212,16.042,24.625,18.781,9.4128,2.7392,19.105,2.6659,27.688,1.7188,9.4699-1.0544,18.46-4.0689,27.469-8.9688,7.0427-3.8267,14.231-10.151,20.062-22.438,7.3242-15.433,4.6474-33.58,3.125-44.688-0.001-0.008,0.001-0.0234,0-0.0312-0.46994-3.447-1.855-8.3739-4.375-17.5-1.4595-5.296-3.7626-10.117-5.6562-13.781,3.8674-0.69595,8.3184-2.0719,13.25-4.6875,5.8588-3.1073,12.49-7.8066,14.094-16.188,0.002-0.0102-0.002-0.021,0-0.0312,0.75472-3.9578,0.18258-7.0192-0.4375-10.969-0.61977-3.9476-1.4352-7.8926-3.0938-11.469-0.002-0.004-0.0293,0.004-0.0312,0-0.004-0.008,0.004-0.0231,0-0.0312-2.4498-5.3144-6.0597-10.876-12.531-13.219-2.5104-0.90911-5.4276-1.6622-9.125-1.9375z"/>
   <path d="m114.15,101.86c-4.3461-1.5739-7.6906-2.0389-21.891-1.4129-14.219,0.62598-37.451,5.7948-51.67,10.981-14.219,5.1688-30.923,14.415-33.105,20.675-4.364,12.609,3.9884,31.818,9.1929,32.926,3.6843,0.7869,14.058,1.252,30.601-7.3686,5.2224-2.7186,15.882,18.654,18.225,23.358,2.3429,4.6859,6.1167,17.134,3.0047,26.953-3.1835,10.034-8.8531,16.454-16.723,19.28-6.1882,2.2177-18.368,4.2924-23.894-5.6517-6.0273-10.803-0.33981-18.171,2.1641-20.371,3.0583-2.6827,5.3476-2.3429,6.85-1.091,1.5202,1.252-2.0031,4.3819-1.5023,7.6727,0.50078,3.2909,10.695,6.1167,15.381-0.9479,3.1835-4.7932,2.0031-8.9246,0.17885-12.68-1.9316-3.9526-7.5296-7.6906-13.217-8.3165-5.6874-0.626-13.038,2.5039-18.046,9.7294-5.0257,7.2077-11.035,23.34-1.3414,39.651,10.177,17.098,29.421,18.851,45.464,17.08,8.5312-0.9479,16.562-3.6128,24.914-8.1556,6.1882-3.3624,11.697-7.9946,17.062-19.28,6.0094-12.68,4.0062-29.779,2.5039-40.742-0.2325-1.717-1.6812-7.5296-4.1851-16.615-2.5039-9.0856-8.5312-18.189-8.3523-18.654,0.16097-0.465,0.32193-2.9689,6.5102-3.6128,5.1688-0.5186,21.569-5.9557,23.412-15.667,0.62598-3.2729-0.8406-13.485-3.0047-18.171-2.182-4.7038-4.5786-8.1377-8.5312-9.5685" fill-rule="nonzero" fill="#955ea1"/>
   <path d="m134.81,147.66c-3.0429,0.0644-5.6658,0.1875-7.1562,0.1875-4.9234,0-9.8989,2.2882-12.406,5.4062h-0.0312c-3.6556,4.5694-4.4231,9.1853-4.5,9.6562h-0.0312s-6.3662,21.136-9.125,30.344v0.0312c-1.621,5.4208-3.5086,14.885-5.1875,24.094-0.83945,4.6045-1.5902,9.0543-2.1562,12.719-0.56601,3.6645-0.94985,6.1692-1.0312,8.375v0.0312c-0.15486,4.6629,1.9795,8.712,4.625,11.5,2.6352,2.7772,5.8236,4.6278,9.125,5.8438,0.0129,0.005,0.0184,0.0265,0.0312,0.0312v-0.0312c4.314,1.5973,8.8547,1.8464,14.156,2.0625,5.3133,0.21652,10.857,0.10983,15.312-0.34375,4.198-0.42647,8.0261-0.96983,11.656-2.25,3.6302-1.2802,7.4336-3.6065,9.5625-7.5938,1.8056-3.3667,2.5969-7.7306,2.1875-12s-1.4447-9.4116-2.8125-18.969c-1.2114-8.5746-0.68299-20.591,0.28125-30.531,0.96424-9.9406,2.197-17.131,2.5-19.312v-0.0312-0.0312c0.24306-1.8549,2.3942-7.5352-1.75-13.406v-0.0312l-0.0312-0.0312c-2.5329-3.525-5.9655-4.4324-8.375-4.9062-2.4095-0.47383-4.4535-0.52889-5.1562-0.59375h-0.0312c-3.164-0.28667-6.6134-0.28319-9.6562-0.21875z" style="baseline-shift:baseline;block-progression:tb;color:#000000;direction:ltr;text-indent:0;text-align:start;enable-background:accumulate;text-transform:none;" fill="#432156"/>
   <path d="m143.83,154.95c-5.3297-0.4829-12.573,0-16.186,0-3.6128,0-5.4907,1.0016-6.8857,2.7364-2.0747,2.5933-3.273,7.2792-3.273,7.2792s-6.3671,21.14-9.1214,30.333c-2.7543,9.2108-7.9231,38.578-8.1019,43.425-0.16097,4.8469,4.3103,8.71,9.1392,10.481,4.8111,1.7885,18.422,2.1104,26.327,1.3056,7.9231-0.8049,13.557-2.182,15.667-6.1346,2.7722-5.1688,1.395-7.2613-1.3772-26.631-2.7364-19.37,2.4145-49.238,2.7722-51.813,0.33982-2.5933,1.1983-5.9736-0.51866-8.406-1.7348-2.4144-6.1167-2.3608-8.4417-2.5754" fill-rule="nonzero" fill="#955ea1"/>
   <path d="m172.25,144.81c-8.131,0.71433-13.328,3.4052-16.344,6.5v0.0312c-4.6494,4.7674-6.913,10.344-8,16.312-1.7842,9.7275-2.6704,26.482-2.75,42.625-0.0398,8.0712,0.14983,15.879,0.625,22.438,0.47517,6.5584,0.75925,11.281,2.7812,15.844,2.4342,5.4984,7.3765,8.6515,11.469,9.9062,4.0754,1.2496,7.7171,1.2476,9.375,1.375,0.007,0.00053,0.0245-0.00053,0.0312,0,8.9804,0.73755,17.061-3.1204,21.625-9.5v-0.0312c1.5445-2.1716,1.8605-3.7534,2.3125-5.5938,0.45203-1.8404,0.79566-3.8305,1.0938-6.0313,0.59617-4.4016,1.0078-9.5923,1.3438-14.812,0.0498-0.77583,0.002-0.8224,0.0312-1.5312,0.11935,0.15324,0.19253,0.25342,0.3125,0.40625,1.7699,2.247,4.5608,6.3772,7.9062,10.125s7.2643,8.2897,14.469,8.0938c4.104-0.11467,6.9579-1.9578,9.375-3.875s4.4984-4.1838,6.4375-6.5625c0.0339-0.0416,0.0599-0.0833,0.0937-0.125-0.0579,5.6175,0.12836,11.783,0.875,16.969,0.49147,3.4582,0.70913,6.6402,2.625,10.25,1.91,3.5989,6.0138,6.3341,10.188,7.4062,0.0127,0.003,0.0185,0.028,0.0312,0.0312v-0.0312c5.4436,1.401,11.298,1.222,16.906-0.0312,5.6118-1.254,11.086-3.4288,15.062-8.1562,0.006-0.007-0.006-0.0242,0-0.0312,3.3239-3.9457,3.8057-8.3506,3.9062-12.375,0.10072-4.0316-0.36784-8.0387-0.78125-11.688-0.48755-4.3658-2.4266-15.832-4.4688-27.875-2.04-12.029-4.158-24.145-4.8125-28-0.002-0.0103,0.002-0.021,0-0.0312-0.8981-5.3869-2.2333-10.405-5.8438-14.531-3.6173-4.134-8.9844-6.282-15.094-7.1562-8.166-1.1578-18.208-0.73963-27.188,4.4062-0.0123,0.007-0.019,0.0242-0.0312,0.0312-4.9263,2.8264-7.9181,6.6089-9.9062,8.9688-1.3842-2.3154-3.1857-5.6655-5.9375-9.2188-6.2937-8.1257-15.985-13.572-28.562-14.531-3.3966-0.26014-6.4412-0.23852-9.1562,0z" style="baseline-shift:baseline;block-progression:tb;color:#000000;direction:ltr;text-indent:0;text-align:start;enable-background:accumulate;text-transform:none;" fill="#432156"/>
   <path d="m180.85,151.89c-12.376-0.9479-17.438,1.86-19.888,4.3818-3.7916,3.8811-5.0972,7.2614-6.0809,12.663-3.1656,17.259-3.9526,67.48,0.16097,76.763,3.0405,6.8679,10.838,6.7606,14.952,7.0825,7.2971,0.6081,11.786-1.6633,15.292-6.5638,1.8064-2.5397,2.7901-12.502,3.4518-22.786,0.66175-10.302-0.98368-13.503,2.4681-15.524,2.1283-1.234,6.4028,5.2225,10.516,10.463,4.1136,5.2224,10.695,15.685,16.615,15.524,6.4028-0.1789,15.274-14.004,18.904-20.246,1.1983-2.0746,5.3476-0.4113,4.9363,3.7022-0.50079,4.7217-1.1446,19.96,0.16096,29.028,0.98368,6.9215,1.4487,10.248,7.5654,11.804,7.8873,2.0389,20.139-0.3398,24.807-5.9021,3.1299-3.7022,2.3072-11.464,1.4845-18.726-0.78694-7.0467-7.8873-47.717-9.2108-55.515-1.6275-9.7831-4.5786-14.38-14.952-15.864-7.0646-1.0016-15.614-0.5008-22.678,3.5591-7.2613,4.1493-9.7116,12.144-14.308,11.804-3.4518-0.2503-5.598-7.2613-10.695-13.843-5.2224-6.7426-12.484-10.964-23.501-11.804" fill-rule="nonzero" fill="#955ea1"/>
   <path d="m446.31,141.94c-2.7129-0.004-5.3258,0.22278-7.9062,0.90625h-0.0312c-3.848,1.0299-6.1724,3.997-7.2812,6.4375-0.27722,0.61012-0.37743,1.1938-0.5625,1.7812-1.2174-0.78261-2.2444-1.5228-3.875-2.3438-5.2604-2.6485-13.001-4.7647-24.531-4.6875-22.417,0.18565-34.888,14.61-39.469,23.75v0.0312c-1.9688,3.9471-2.4036,7.7086-3.1875,12.875-0.78386,5.1664-1.4506,11.155-2,16.906-1.0989,11.503-1.7188,22.031-1.7188,22.031l-0.125,1.9375,0.875,1.7188s1.9313,3.7682,4.9375,8.1562,6.9748,9.6381,12.656,13.188v-0.0312c15.047,9.4183,33.268,6.4424,44.781,1.0625,2.0856-0.97401,3.7557-2.2183,5.1875-3.5,0.28363,0.67403,0.60429,1.3392,1,1.9688h-0.0312c3.2699,5.2435,7.4718,5.7129,11.375,6.625,3.9032,0.91211,7.9916,1.3232,11.469,1.5,3.1291,0.15025,7.1437,0.44031,11.5-0.28125s9.5947-2.869,12.781-7.7188c2.3757-3.618,2.7148-6.8172,3.2188-10.688,0.50397-3.8702,0.72202-8.209,0.8125-12.594,0.18096-8.7696-0.2098-17.612-0.53125-22.188v-0.0312c-0.34321-4.8268,0.26138-14.057,1.1562-22,0.44743-3.9713,0.97348-7.6999,1.4062-10.531,0.41654-2.7252,1.0125-5.3222,0.8125-4.7188,0.52898-1.7149,1.5186-5.1853-0.21875-8.9062-1.7515-3.7514-5.0896-5.6926-8.875-7.125h-0.0312c-4.1588-1.5662-9.4229-2.4206-15.188-3-2.8823-0.28967-5.6934-0.52715-8.4062-0.53125zm-31.344,40.625c4.6439,0,11.5,5.016,11.5,10.906,0,3.801-1.1414,7.0509-2.8125,9.0938s-3.6624,3.207-7.2812,3.2188c-7.4926,0.0244-11.625-4.6711-11.625-11.531,0-6.4771,5.9897-11.688,10.219-11.688z" style="baseline-shift:baseline;block-progression:tb;color:#000000;direction:ltr;text-indent:0;text-align:start;enable-background:accumulate;text-transform:none;" fill="#389d3d"/>
   <path d="m429.88,154.69c-0.0182,0.55153-0.10653,1.0888-0.0625,1.6562-0.0968-1.2474-0.0601-1.5515,0.0625-1.6562z" style="baseline-shift:baseline;block-progression:tb;color:#000000;direction:ltr;text-indent:0;text-align:start;enable-background:accumulate;text-transform:none;" fill="#389d3d"/>
   <path d="m437,236.53c0.0194,0.0313,0.0104,0.0291,0.0312,0.0625-0.0284-0.0413-0.0114-0.009-0.0312-0.0312,0.001-0.004-0.001-0.0273,0-0.0312z" style="baseline-shift:baseline;block-progression:tb;color:#000000;direction:ltr;text-indent:0;text-align:start;enable-background:accumulate;text-transform:none;" fill="#389d3d"/>
   <path d="m416.44,213.42c-11.5,0.054-19.495-8.5848-19.495-19.37,0-10.767,8.871-19.513,17.992-19.513,9.1214,0,19.334,7.941,19.334,18.726s-6.3134,20.121-17.831,20.156m50.954-61.31c-5.4907-2.0926-21.176-4.0063-27.185-2.4145-2.5397,0.6796-3.5055,4.0063-3.3266,6.0809,0.16096,2.0747-2.3429,6.0809-5.6696,4.4713-3.3445-1.5918-7.6727-9.2645-29.027-9.1035-19.441,0.1431-29.528,12.466-33.195,19.817-3.6664,7.3687-6.1703,49.094-6.1703,49.094s6.9215,13.485,15.023,18.547c12.001,7.5117,28.455,5.0973,38.024,0.626,6.4923-3.0226,7.8336-9.5864,10.999-10.713,2.3608-0.8227,4.0062,0.8048,3.8453,3.3624-0.17885,2.5575-2.021,4.7395,0.32193,8.4775,2.0031,3.2014,10.856,4.4712,17.188,4.7932,6.3313,0.3219,14.344,0.8048,18.01-4.7932,3.8989-5.9379,2.951-32.444,2.3429-41.082-0.8406-11.84,2.8258-37.094,3.6664-39.812,0.82271-2.7185,1.1268-5.0972-4.8468-7.3507" fill-rule="nonzero" fill="#95cc22"/>
   <path d="m367.97,88.313c-3.7663-0.27947-8.4518-0.22352-15.812,0.09375-15.899,0.7049-39.484,6.0533-54.906,11.656-7.6956,2.8053-15.89,6.597-22.75,10.719-3.43,2.0609-6.5169,4.1916-9.125,6.4688-2.6081,2.2771-4.9194,4.5299-6.2188,8.2812-3.0611,8.8158-1.561,18.119,1.0312,25.812,1.2961,3.847,2.8995,7.2646,4.8438,10.156,1.9443,2.8916,3.7131,5.8379,8.75,6.9062,5.5379,1.1868,16.677,1.1493,33.156-6.8125,1.0745,1.1434,2.5283,2.954,4.0312,5.2812,3.3791,5.2325,6.6095,11.688,7.8125,14.094,1.5227,3.0568,4.8047,15.453,2.6562,22.25-2.7777,8.7171-6.8883,13.051-12.688,15.156-0.009,0.003-0.0222-0.003-0.0312,0-2.434,0.8694-6.3225,1.7066-9.3438,1.4062-3.0312-0.30135-4.8197-0.97337-6.4688-3.9375-0.69823-1.2524-1.114-2.319-1.4062-3.2812,0.48348,0.33849,0.93973,0.83102,1.4062,1.0938,2.2164,1.2482,4.6078,1.9006,7.2188,2.0938,5.2219,0.38628,11.937-1.6498,15.875-7.5938,2.3708-3.5693,3.3989-7.6472,3.1875-11.219-0.2114-3.5716-1.4024-6.4698-2.5312-8.7812-3.5752-7.3129-10.757-11.511-19.094-12.438-9.0338-1.0007-18.625,3.6969-25.062,12.938-6.4223,9.2517-13.245,28.66-1.625,48.188,6.1447,10.343,15.498,16.365,25.094,19.156,9.5954,2.7909,19.461,2.6833,28.219,1.7188,9.6736-1.0726,18.877-4.1377,28.062-9.125,7.1653-3.9065,14.496-10.341,20.438-22.906,7.4744-15.731,4.777-34.296,3.2188-45.656h-0.0312v-0.0312c-0.48249-3.3774-1.8597-8.47-4.4375-17.844-1.5048-5.4614-3.8979-10.464-5.8438-14.219-0.0134-0.0258-0.0179-0.0368-0.0312-0.0625,3.9828-0.68585,8.5794-2.0744,13.688-4.7812,5.9812-3.1695,12.733-7.9569,14.344-16.469v-0.0312c0.74465-3.9785,0.19713-7.1195-0.4375-11.156-0.63463-4.0367-1.4838-8.0594-3.1562-11.688-2.494-5.3904-6.1444-11.089-12.75-13.469-0.009-0.0032-0.0224,0.0032-0.0312,0-2.5547-0.92491-5.4966-1.6902-9.25-1.9688z" style="baseline-shift:baseline;block-progression:tb;color:#000000;direction:ltr;text-indent:0;text-align:start;enable-background:accumulate;text-transform:none;" fill="#419037"/>
   <path d="m374.84,96.948c-4.4355-1.6096-7.8515-2.0747-22.374-1.4487-14.523,0.64386-38.256,5.9378-52.779,11.214-14.523,5.294-31.603,14.737-33.821,21.14-4.4713,12.877,4.0778,32.497,9.3896,33.624,3.7559,0.8049,14.344,1.2877,31.263-7.5296,5.3298-2.7722,16.222,19.066,18.618,23.859,2.3966,4.811,6.2419,17.527,3.0762,27.543-3.2551,10.248-9.0677,16.812-17.08,19.709-6.3313,2.2714-18.779,4.3819-24.431-5.7768-6.1524-11.035-0.33981-18.565,2.2178-20.818,3.1299-2.7364,5.4728-2.3966,7.0109-1.1089,1.5381,1.2699-2.0568,4.4713-1.5381,7.8337,0.51867,3.3802,10.928,6.2597,15.703-0.9479,3.2551-4.9005,2.0568-9.1393,0.17885-12.985-1.9674-4.0241-7.6906-7.8336-13.485-8.4775-5.8126-0.6439-13.324,2.5576-18.457,9.9262-5.1151,7.3686-11.268,23.859-1.3593,40.51,10.391,17.492,30.047,19.262,46.447,17.456,8.71-0.9658,16.919-3.6843,25.45-8.3165,6.3313-3.4518,11.965-8.1735,17.42-19.709,6.1524-12.949,4.1136-30.422,2.5754-41.636-0.25039-1.7527-1.717-7.6727-4.2745-16.973-2.5576-9.2823-8.71-18.565-8.5312-19.048,0.16097-0.4829,0.33982-3.0404,6.6532-3.6843,5.2761-0.5365,22.034-6.0809,23.912-16.007,0.62598-3.3445-0.85848-13.771-3.0762-18.583-2.2177-4.7932-4.668-8.3165-8.71-9.7652" fill-rule="nonzero" fill="#95cc22"/>
   <path d="m492.81,145c-7.8715,0.70838-12.95,3.3612-15.875,6.375h-0.0312c-4.4565,4.6329-6.6184,10.102-7.6562,15.906-0.002,0.0101,0.002,0.0212,0,0.0312-1.704,9.4384-2.5767,25.635-2.6562,41.25-0.0398,7.8147,0.14034,15.397,0.59375,21.75s0.72542,10.898,2.6875,15.375v0.0312c2.3634,5.3792,7.2061,8.4582,11.188,9.6875,3.9644,1.224,7.4818,1.2507,9.0312,1.375,0.007,0.00053,0.0247-0.00054,0.0312,0,8.6941,0.72271,16.627-3.1123,21.031-9.3438v-0.0312c1.5051-2.1478,1.8167-3.6838,2.25-5.4688,0.43326-1.785,0.74485-3.7138,1.0312-5.8438,0.5728-4.2599,0.9856-9.2859,1.3125-14.344,0.0209-0.33236-0.0168-0.33637,0-0.65625,1.6957,2.2157,4.233,5.9497,7.3438,9.4688,3.221,3.6438,6.9884,8.1163,14.094,7.9375,4.0689-0.10679,6.8451-1.9354,9.1875-3.8125,2.157-1.7285,4.0123-3.7619,5.75-5.875-0.0298,5.2342,0.16868,10.894,0.84375,15.688,0.47357,3.3508,0.67517,6.4292,2.5312,9.9688,1.8561,3.5395,5.8763,6.2881,9.9375,7.3438h0.0312c5.29,1.3632,10.943,1.1628,16.375-0.0625,5.4317-1.2253,10.751-3.3542,14.625-8,3.2405-3.9003,3.6544-8.2105,3.75-12.125s-0.35441-7.7884-0.75-11.312c-0.47484-4.2076-2.3266-15.312-4.2812-26.969-1.9547-11.656-3.9489-23.435-4.5625-27.125-0.87013-5.2306-2.1762-10.103-5.6875-14.156-3.5114-4.0532-8.7277-6.2124-14.625-7.0625-7.8973-1.1461-17.616-0.72084-26.312,4.3125-0.0123,0.007-0.019,0.0241-0.0312,0.0312-4.5734,2.6512-7.3194,6.108-9.2188,8.4062-1.3063-2.2293-2.9728-5.267-5.5-8.5625-6.0704-7.913-15.472-13.242-27.594-14.187h-0.0312c-3.2698-0.25152-6.1887-0.23613-8.8125,0z" style="baseline-shift:baseline;block-progression:tb;color:#000000;direction:ltr;text-indent:0;text-align:start;enable-background:accumulate;text-transform:none;" fill="#419037"/>
   <path d="m501.1,152.07c-11.858-0.9121-16.705,1.8064-19.065,4.2388-3.6128,3.7558-4.8826,7.0288-5.8126,12.251-3.0226,16.705-3.7916,65.316,0.14308,74.294,2.9153,6.6353,10.409,6.528,14.344,6.8499,6.993,0.5902,11.285-1.6096,14.648-6.3671,1.717-2.4502,2.6649-12.072,3.3087-22.034,0.62598-9.962-0.94791-13.056,2.3608-15.023,2.021-1.1983,6.1346,5.0614,10.069,10.123,3.9347,5.0614,10.23,15.166,15.918,15.023,6.1346-0.161,14.63-13.557,18.1-19.602,1.1625-2.0031,5.133-0.3756,4.7216,3.5949-0.465,4.5786-1.0731,19.316,0.161,28.08,0.9479,6.7069,1.395,9.9262,7.2434,11.446,7.5654,1.9495,19.298-0.3398,23.787-5.7232,2.9868-3.5949,2.1999-11.107,1.4129-18.118-0.769-6.8142-7.5653-46.197-8.8173-53.727-1.5739-9.4612-4.3997-13.914-14.326-15.345-6.7784-0.9837-14.97-0.5008-21.748,3.4339-6.9394,4.0062-9.2823,11.75-13.7,11.428-3.2908-0.2504-5.3476-7.0288-10.23-13.396-5.0078-6.528-11.965-10.606-22.517-11.428" fill-rule="nonzero" fill="#95cc22"/>
   <path style="baseline-shift:baseline;block-progression:tb;color:#000000;direction:ltr;text-indent:0;text-align:start;enable-background:accumulate;text-transform:none;" fill="#eb5220" d="m238.58,4.3944c-4.0061,0.0986-5.1586,2.0258-6.8125,3.625s-3.2366,3.4884-4.6875,5.3438c-2.1478,2.7465-3.0863,4.219-3.9062,5.4375-1.5448,0.14787-3.7181,0.32256-7.6875,1.0312-2.5897,0.46237-5.2603,1.0386-7.6875,1.875-2.4272,0.83645-5.0386,1.2573-6.8125,5.0312a4.9099,4.9099,0,0,0,-0.0312,0.0312c-0.91058,1.9604-0.57144,3.8795-0.125,5.1562s1.0636,2.2005,1.7188,3.0938c1.3102,1.7865,2.8734,3.3658,4.4688,4.8125,1.5532,1.4085,1.9492,1.5883,3.1562,2.5312-0.91565,1.6518-1.3972,2.3586-2.5938,5.0312-1.0518,2.3493-2.0459,4.8162-2.5938,7.3438-0.27394,1.2638-0.4662,2.5529-0.34375,4.0312s0.62992,3.4109,2.2188,4.9062c1.7444,1.6462,3.7483,1.9537,5.3438,2,1.5954,0.0463,3.0551-0.17917,4.5312-0.53125,2.9523-0.70417,6.0213-1.9137,8.9375-3.1875s5.6453-2.6431,7.6562-3.6562c0.30693-0.15463,0.44822-0.23807,0.71875-0.375,0.21222,0.13558,0.32766,0.22729,0.5625,0.375,1.7287,1.0873,4.0451,2.4965,6.5312,3.8438s5.1276,2.6402,7.6875,3.5625,4.871,2.1833,8.6562,0.53125v0.0312c1.9157-0.8318,3.0574-2.3936,3.6875-3.6875,0.63012-1.2939,0.9021-2.4977,1.0938-3.7188,0.38331-2.4422,0.35724-4.9373,0.21875-7.3438-0.20113-3.4951-0.53125-5.1806-0.78125-6.7188,1.112-1.1212,2.4767-2.4023,4.875-5.2188,1.6224-1.9052,3.2261-3.9368,4.5-6,0.63694-1.0316,1.2006-2.0655,1.625-3.2812,0.42204-1.2089,0.85778-2.7172,0.1875-4.8125-0.003-0.01,0.003-0.0213,0-0.0312-0.74974-2.3051-2.3479-3.3272-3.5312-3.9375-1.1917-0.61462-2.3038-0.95128-3.4688-1.2188-2.3298-0.53495-4.8693-0.78107-7.3438-0.9375-2.3345-0.14759-4.5154-0.17089-6.25-0.1875-0.62239-1.4223-1.3942-3.0869-2.375-4.9062-1.0915-2.0247-2.319-4.1045-3.9062-5.9375s-3.6662-4.0383-7.4375-3.9375z"/>
   <path style="baseline-shift:baseline;block-progression:tb;color:#000000;direction:ltr;text-indent:0;text-align:start;enable-background:accumulate;text-transform:none;" fill="#eb5220" d="m335.21,0.23816c-0.61753-0.0403-1.2856,0.0346-2.0312,0.21875-3.2482,0.81205-3.6525,2.4222-4.5312,3.75-0.87878,1.3278-1.6351,2.7749-2.3125,4.1875-0.88518,1.846-1.1244,2.5795-1.5312,3.5938-1.123,0.36893-2.1202,0.63822-4.3438,1.5625-1.6166,0.67196-3.2624,1.444-4.7812,2.375-1.5189,0.93097-3.4066,1.5642-4.1562,4.9375a4.3644,4.3644,0,0,0,-0.0312,0c-0.38855,1.7762,0.25371,3.2563,0.8125,4.1562,0.55879,0.89997,1.1233,1.4777,1.7188,2,1.191,1.0446,2.4952,1.8447,3.75,2.5625,0.79019,0.45199,0.85731,0.42589,1.5625,0.78125-0.30912,1.1019-0.42305,1.2885-0.71875,2.7188-0.34872,1.6867-0.66341,3.4493-0.65625,5.2812,0.004,0.91597,0.0679,1.8444,0.40625,2.9375,0.33528,1.083,1.0762,2.5131,2.5938,3.4375v0.0312c0.007,0.004,0.024-0.004,0.0312,0,1.6811,1.0025,3.3232,0.90864,4.5,0.6875,1.1836-0.22241,2.1451-0.63506,3.0938-1.0938,1.8972-0.91738,3.6987-2.1323,5.4062-3.375,1.6734-1.2178,3.2054-2.4464,4.3438-3.375,1.2518,0.44447,2.8367,1.0064,4.5625,1.5,1.8075,0.51694,3.7007,0.97968,5.5625,1.2188,1.8618,0.23907,3.6908,0.9057,6.4375-1.0938,1.3982-1.014,1.9916-2.4482,2.25-3.5312,0.25839-1.0831,0.27441-1.9973,0.21875-2.875-0.11131-1.7553-0.52757-3.3815-0.96875-4.9375-0.55411-1.9543-0.86271-2.6117-1.2812-3.6875,0.6216-0.99211,1.0989-1.6977,2.125-3.625,0.78329-1.4712,1.5663-3.0007,2.125-4.5938,0.27936-0.79655,0.50778-1.5983,0.625-2.5625,0.11722-0.96422,0.24447-2.2364-0.6875-3.8438a4.3644,4.3644,0,0,0,-0.0312,-0.0625c-1.0584-1.7801-2.5375-2.2414-3.5312-2.5-0.99372-0.25862-1.8196-0.30684-2.6562-0.3125-1.6734-0.0113-3.3704,0.18363-5,0.4375-1.2632,0.19679-2.3327,0.41841-3.3438,0.625-0.53986-0.72025-1.063-1.4486-1.7812-2.2812-1.0115-1.1724-2.1464-2.3439-3.5312-3.375-1.0386-0.7733-2.3662-1.754-4.2188-1.875z"/>
   <path style="baseline-shift:baseline;block-progression:tb;color:#000000;direction:ltr;text-indent:0;text-align:start;enable-background:accumulate;text-transform:none;" fill="#eb5220" d="m416.05,26.863c-0.99753-0.0642-2.0926,0.14742-3.2812,0.84375-0.009,0.005-0.0221-0.005-0.0312,0v0.0312c-2.5527,1.5185-2.5547,3.0549-3,4.5312-0.44789,1.485-0.72978,3.0896-0.96875,4.625-0.33369,2.144-0.38027,3.0931-0.46875,4.125-0.91305,0.63348-1.9293,1.2845-3.875,2.875-1.3421,1.0971-2.6898,2.2734-3.8438,3.5625-1.1539,1.2891-2.6563,2.3977-2.4375,5.5a3.8188,3.8188,0,0,0,0,0.0312c0.12364,1.6198,1.0196,2.728,1.75,3.375,0.73038,0.64696,1.4345,1.0275,2.125,1.3438,1.381,0.63245,2.7984,0.98938,4.1875,1.3125,1.107,0.25752,1.2518,0.22426,2.1562,0.375,0.0142,1.2123-0.0562,1.5724,0.0937,3.25,0.15144,1.694,0.39238,3.44,0.90625,5.125,0.25693,0.84249,0.56607,1.6832,1.1562,2.5625,0.59018,0.87935,1.5811,1.9451,3.1562,2.3438,1.7242,0.43567,3.1239-0.0745,4.125-0.59375,1.0011-0.51923,1.808-1.1514,2.5625-1.8438,1.5089-1.3847,2.858-3.0824,4.125-4.75s2.425-3.3109,3.25-4.5312c0.0438-0.0647,0.0517-0.0939,0.0937-0.15625,0.0371,0.002,0.0559-0.002,0.0937,0,1.3411,0.0694,3.106,0.14877,4.9688,0.125,1.8627-0.0238,3.7905-0.14168,5.5938-0.4375,1.8032-0.29582,3.635-0.22444,5.5-2.6562a3.8188,3.8188,0,0,0,0.0312,-0.0312c0.93275-1.2373,1.0906-2.6275,1.0312-3.6562-0.0593-1.0288-0.30024-1.8626-0.59375-2.6562-0.58703-1.5873-1.4227-3.0279-2.2812-4.375-1.1536-1.8099-1.7224-2.4745-2.4062-3.3438,0.29693-1.074,0.58256-2.0328,1.0312-4.2812,0.3228-1.6176,0.61318-3.3035,0.6875-4.9375,0.0372-0.81699,0.0296-1.636-0.125-2.5312-0.1546-0.89526-0.3993-2.0164-1.625-3.1562-1.3553-1.2554-2.7635-1.314-3.7188-1.2812-0.95526,0.0328-1.7218,0.21097-2.5,0.4375-1.5565,0.45306-3.118,1.1394-4.5938,1.8438-1.263,0.60279-2.3556,1.2012-3.3125,1.7188-0.77036-0.57609-1.5949-1.2196-2.625-1.875-1.2876-0.81927-2.6911-1.5909-4.25-2.1562-0.77945-0.28265-1.6823-0.62283-2.6875-0.6875z"/>
   <path style="baseline-shift:baseline;block-progression:tb;color:#000000;direction:ltr;text-indent:0;text-align:start;enable-background:accumulate;text-transform:none;" fill="#eb5220" d="m492.15,64.113c-0.55033,0.0233-1.0072,0.15551-1.375,0.28125-0.73565,0.25149-1.2812,0.55883-1.8125,0.90625-1.0626,0.69483-2.0456,1.5604-2.9688,2.4062-0.73855,0.67669-1.3442,1.2768-1.9062,1.8438-0.79686-0.29976-1.0055-0.42434-2.0625-0.71875-1.1313-0.31509-2.3507-0.58743-3.6562-0.65625-1.3056-0.0688-3.0638-0.1406-4.625,1.5625-1.7085,1.8593-1.2855,3.0414-1.2812,4.25,0.004,1.2086,0.14383,2.4467,0.3125,3.625,0.22413,1.5657,0.39179,2.164,0.5625,2.9688-0.5542,0.70561-1.0767,1.2911-2.0938,2.8125-0.73878,1.1052-1.4644,2.2749-2.0312,3.5-0.56686,1.2251-1.502,2.4184-0.5625,4.8438,0.49372,1.2754,1.4903,1.9491,2.2188,2.2812,0.72846,0.33215,1.3426,0.45265,1.9375,0.53125,1.1897,0.15721,2.3422,0.1077,3.4375,0.0312,0.72017-0.0503,0.76026-0.11063,1.375-0.1875,0.27121,0.83583,0.26303,1.0126,0.6875,2.0625,0.49009,1.2123,1.0402,2.4743,1.8125,3.625,0.38613,0.57535,0.83265,1.1428,1.5,1.6875,0.66735,0.54471,1.7075,1.1265,3.0625,1.0625,1.4853-0.0717,2.4774-0.83344,3.125-1.4688,0.64764-0.63531,1.0643-1.281,1.4688-1.9688,0.80894-1.3754,1.4448-2.902,2-4.4062,0.54611-1.4798,0.98443-2.9002,1.3125-3.9688,0.98275-0.24754,2.2174-0.57981,3.5312-1,1.3599-0.43494,2.7563-0.93009,4.0312-1.5625,1.2653-0.62764,2.6796-1.0202,3.5625-3.375h0.0312c0.004-0.0107-0.004-0.0205,0-0.0312,0.43991-1.206,0.25619-2.3438-0.0312-3.125-0.28997-0.78808-0.69103-1.3768-1.0938-1.9062-0.80544-1.0589-1.724-1.9213-2.6562-2.7188-1.1872-1.0156-1.6929-1.3116-2.4062-1.8125-0.0268-0.88562-0.0209-1.533-0.1875-3.1875-0.12655-1.257-0.27658-2.5464-0.59375-3.7812-0.15858-0.61744-0.35759-1.2217-0.6875-1.875-0.32991-0.65334-0.79337-1.5109-2.0625-2.125-0.69719-0.33685-1.3247-0.42953-1.875-0.40625z"/>
   <path style="baseline-shift:baseline;block-progression:tb;color:#000000;direction:ltr;text-indent:0;text-align:start;enable-background:accumulate;text-transform:none;" fill="#eb5220" d="m532.55,104.74c-0.45727,0.0937-0.83329,0.28172-1.125,0.4375-0.58342,0.31155-1.0012,0.66165-1.4062,1.0312-0.81018,0.7392-1.5398,1.5791-2.2188,2.4375-0.56003,0.70798-1.0233,1.3566-1.4375,1.9375-0.61043-0.11249-1.2327-0.22725-2-0.3125-1.0186-0.11317-2.0979-0.18348-3.2188-0.0625-0.75251,0.0812-1.6239,0.34634-2.4688,0.90625a2.7277,2.7277,0,0,0,-1.2188,1.0312c-1.1461,1.767-0.63834,2.7176-0.46875,3.75s0.474,2.0711,0.78125,3.0625c0.41423,1.3365,0.61952,1.868,0.875,2.5313-0.37119,0.6708-0.72654,1.2896-1.4062,2.7812-0.48159,1.0569-0.9673,2.1844-1.2812,3.3125-0.31395,1.1281-0.9241,2.2686,0.1875,4.1563,0.58292,0.9936,1.534,1.4148,2.1875,1.5937,0.65346,0.1789,1.1715,0.2017,1.6875,0.1875,1.032-0.028,2.0056-0.222,2.9375-0.4375,0.67634-0.1564,0.72581-0.2117,1.2812-0.375,0.35805,0.7017,0.3954,0.8875,0.9375,1.7813,0.59111,0.9745,1.245,1.9701,2.0625,2.8437,0.40874,0.4368,0.83356,0.8522,1.4688,1.2187,0.63519,0.3666,1.6014,0.7045,2.7188,0.4688,1.2203-0.2636,1.9466-0.9997,2.4062-1.625,0.45967-0.6253,0.74936-1.2611,1-1.9062,0.50128-1.2904,0.82604-2.6883,1.0938-4.0626,0.2655-1.3629,0.45938-2.6882,0.59375-3.6562,0.001-0.01-0.001-0.023,0-0.031,0.81944-0.3517,1.871-0.8197,2.9688-1.375,1.1117-0.5625,2.2763-1.1894,3.2812-1.9063,1.005-0.7169,2.1571-1.2202,2.5625-3.3437,0.2122-1.071-0.1194-2.002-0.4687-2.625-0.3494-0.6231-0.7408-1.0406-1.1563-1.4376-0.8311-0.7939-1.7747-1.4411-2.6875-2-1.184-0.72487-1.6647-0.91986-2.3438-1.25-0.14311-0.74704-0.23942-1.3678-0.625-2.8125-0.28465-1.0666-0.61953-2.1431-1.0625-3.1562-0.22149-0.50656-0.47565-0.99368-0.84375-1.5-0.36462-0.50153-0.85803-1.1587-1.9688-1.5-0.012-0.004-0.0193,0.004-0.0312,0-0.61269-0.18037-1.1452-0.18562-1.5938-0.0937z"/>
   <path style="baseline-shift:baseline;block-progression:tb;color:#000000;direction:ltr;text-indent:0;text-align:start;enable-background:accumulate;text-transform:none;" fill="#eb5220" d="m159.65,58.738c-0.93391,0.1083-1.7607,0.36551-2.5312,0.625-1.5412,0.51898-2.9418,1.2327-4.375,2.0625-2.8665,1.6595-5.8018,3.8224-8.5625,6-4.3488,3.4301-6.6723,5.603-8.125,6.9375-2.546-0.49842-6.596-1.2263-11.875-1.8125-3.8068-0.42272-7.7565-0.7133-11.406-0.5-3.6498,0.2133-7.4086,0.17922-10.562,4.125-1.6082,2.006-1.81,4.2182-1.7188,5.9375,0.0913,1.7193,0.48804,3.2174,1,4.7188,1.0239,3.0028,2.5637,6.0068,4.1875,8.8438,1.5071,2.633,3.0428,5.034,4.3125,6.9375-1.8864,2.0784-4.3539,4.8985-6.7812,8.0312-2.3818,3.074-4.7173,6.3659-6.375,9.7188-1.6577,3.3528-3.507,7.2293-1,11.812,1.3796,2.5272,3.6714,3.8222,5.7188,4.5313s4.1234,0.9883,6.2812,1.0937c4.3157,0.2109,9.0638-0.2694,13.656-0.9374,4.5924-0.6681,8.9796-1.5499,12.219-2.2188,0.83518-0.1725,1.3096-0.269,1.9688-0.4062,0.41733,0.5194,0.75837,0.9297,1.2812,1.5624,1.9778,2.3936,4.6365,5.5144,7.5625,8.625,2.926,3.1107,6.0705,6.187,9.1875,8.625,3.117,2.4381,5.7809,5.0954,11,4.3438,2.6325-0.3781,4.4832-1.9197,5.6875-3.375s1.987-3.018,2.6875-4.6562c1.401-3.2766,2.3381-6.9812,3.0938-10.625,1.0535-5.08,1.5611-9.0968,1.8438-11.625,1.6945-1.0218,4.793-2.8373,9.6562-6.3438,3.0208-2.1781,6.0896-4.5603,8.5938-7.0312,2.5042-2.471,5.2773-4.5381,5.125-9.625a5.4555,5.4555,0,0,0,0,-0.0312c-0.0874-2.7611-1.4778-4.5501-2.7188-5.8125-1.2409-1.2624-2.5967-2.1853-4.0625-3.0625-2.9317-1.7544-6.3584-3.2207-9.75-4.5312-3.3917-1.3105-6.7092-2.4242-9.1875-3.2188-0.25969-0.0833-0.38478-0.1113-0.625-0.1875-0.0259-0.22853-0.0334-0.34852-0.0625-0.59375-0.29747-2.5033-0.76841-5.8453-1.4688-9.3125-0.70034-3.4672-1.6262-7.0392-3-10.25s-3.0401-6.7855-7.6875-8.0938a5.4555,5.4555,0,0,0,0,-0.0312c-1.2114-0.33952-2.2536-0.3583-3.1875-0.25z"/>
   <path d="m160.56,65.89c-5.0078-1.4129-23,15.471-23,15.471s-26.184-5.6159-30.172-0.62598c-3.3624,4.203,10.159,22.821,10.159,22.821s-19.173,19.53-15.828,25.629c3.8095,6.9752,36.003-1.717,36.164-1.252,0.17885,0.465,18.672,23.912,25.182,22.982,6.2776-0.9121,8.6742-27.203,8.6742-27.203s22.499-13.271,22.338-19.065c-0.17885-5.4728-25.182-12.341-25.182-12.502,0-0.16097-1.86-24.431-8.3344-26.255" fill-rule="nonzero" fill="#e0e210"/>
   <path d="m334.23,5.4389c-2.2356,0.55444-5.9736,10.427-5.9736,10.427s-11.321,3.5055-11.911,6.1524c-0.48289,2.2177,8.4238,6.063,8.4238,6.063s-3.6843,11.089-1.1983,12.573c2.8437,1.6991,13.736-8.2271,13.879-8.1019,0.16096,0.14308,11.947,4.668,14.308,2.951,2.2714-1.6454-1.9137-11.607-1.9137-11.607s6.224-9.5327,5.0257-11.59c-1.1446-1.9316-12.233,0.87637-12.269,0.82272-0.0358-0.0537-5.4907-8.406-8.3702-7.6906" fill-rule="nonzero" fill="#e0e210"/>
   <path d="m414.92,31.716c-1.9674,1.1625-2.7185,11.715-2.7185,11.715s-9.8189,6.5996-9.6222,9.3181c0.16097,2.2714,9.801,3.3803,9.801,3.3803s-0.33981,11.679,2.4681,12.376c3.2193,0.82271,10.785-11.822,10.964-11.75,0.19673,0.0894,12.788,1.0194,14.558-1.2877,1.6991-2.2356-5.1867-10.588-5.1867-10.588s3.2014-10.91,1.4666-12.52c-1.6275-1.5381-11.464,4.3461-11.5,4.3103-0.0536-0.0537-7.6727-6.4744-10.23-4.9542" fill-rule="nonzero" fill="#e0e210"/>
   <path d="m476.48,72.427c-1.1804,1.2877,0.62598,9.1035,0.62598,9.1035s-5.6874,6.993-4.9363,8.9068c0.62597,1.6275,7.8694,0.28616,7.8694,0.28616s2.3429,8.5669,4.5428,8.4596c2.5218-0.1252,5.2224-10.999,5.3655-10.964,0.16097,0.0179,9.5148-2.0926,10.284-4.1672,0.75117-2.0031-6.0988-6.5459-6.0988-6.5459s-0.0894-8.6385-1.717-9.4254c-1.5202-0.75118-7.3686,5.7053-7.4044,5.6874-0.0358-0.0358-7.0109-3.0047-8.5312-1.3414" fill-rule="nonzero" fill="#e0e210"/>
   <path d="m520.11,114c-0.8406,1.2698,1.8064,7.7979,1.8064,7.7979s-3.9347,6.8499-3.0226,8.4059c0.76905,1.3057,6.8678-0.8584,6.8678-0.8584s3.2193,7.0824,5.1151,6.689c2.1462-0.465,2.9689-10.248,3.112-10.248,0.12519-0.018,7.941-3.1477,8.3166-5.0435,0.3577-1.8422-6.2061-4.8111-6.2061-4.8111s-1.2877-7.476-2.808-7.9231c-1.4308-0.44712-5.5622,5.9736-5.6159,5.9557-0.0358-0.0179-6.4744-1.6275-7.5654,0.0358" fill-rule="nonzero" fill="#e0e210"/>
   <path d="m238.47,10.452c-3.5234,0.0894-12.394,13.628-12.394,13.628s-18.1,1.5202-19.852,5.2761c-1.4666,3.1656,10.588,11.858,10.588,11.858s-9.175,15.381-5.9378,18.439c3.7022,3.4876,23.268-7.78,23.465-7.5296,0.19673,0.25039,16.347,10.91,20.443,9.1392,3.9526-1.717,0.9658-18.028,0.9658-18.028s12.448-12.215,11.339-15.685c-1.0552-3.273-18.6-2.7364-18.636-2.8258-0.0179-0.0894-5.437-14.38-9.9798-14.272" fill-rule="nonzero" fill="#e0e210"/>
  </g>
 </g>
</svg>
