<?xml version="1.0" encoding="UTF-8" standalone="no"?>
<svg xmlns:rdf="http://www.w3.org/1999/02/22-rdf-syntax-ns#" xmlns="http://www.w3.org/2000/svg" height="265.76" width="600" version="1.1" xmlns:cc="http://creativecommons.org/ns#" xmlns:dc="http://purl.org/dc/elements/1.1/" viewBox="0 0 158.75 70.314784">
 <g transform="translate(172.28 -61.543)" stroke-width=".26456">
  <path style="color:#000000;text-indent:0;block-progression:tb;text-transform:none" fill="#432156" d="m-143.65 86.202c-0.98-0.073-2.19-0.059-4.09 0.025-4.12 0.182-10.22 1.563-14.22 3.017-1.99 0.726-4.1 1.711-5.88 2.778-0.89 0.534-1.69 1.079-2.37 1.67-0.67 0.591-1.27 1.178-1.62 2.158-0.8 2.294-0.41 4.71 0.26 6.71 0.34 0.99 0.76 1.89 1.26 2.64 0.51 0.75 0.97 1.52 2.29 1.8 1.45 0.31 4.33 0.3 8.58-1.75 0.27 0.3 0.63 0.75 1.01 1.34 0.88 1.35 1.71 3.01 2.02 3.64 0.39 0.78 1.24 3.98 0.69 5.72-0.71 2.25-1.77 3.36-3.27 3.89h-0.01c-0.61 0.23-1.62 0.44-2.39 0.37-0.78-0.08-1.22-0.25-1.64-1-0.15-0.27-0.26-0.51-0.33-0.72 0.1 0.06 0.19 0.16 0.28 0.21 0.58 0.33 1.2 0.5 1.88 0.55 1.36 0.1 3.12-0.44 4.15-1.99 0.61-0.93 0.88-1.99 0.82-2.92-0.05-0.93-0.36-1.69-0.65-2.29h-0.01c-0.93-1.91-2.79-3-4.97-3.24-2.35-0.26-4.84 0.96-6.51 3.36-1.67 2.41-3.44 7.44-0.43 12.51 1.59 2.68 4.02 4.24 6.51 4.97 2.49 0.72 5.06 0.7 7.33 0.45 2.5-0.28 4.88-1.07 7.27-2.37 1.86-1.01 3.76-2.69 5.3-5.94 1.94-4.08 1.23-8.88 0.83-11.82v-0.01c-0.12-0.91-0.49-2.21-1.16-4.63-0.38-1.4-0.99-2.67-1.49-3.64 1.02-0.19 2.2-0.55 3.5-1.24 1.55-0.826 3.31-2.069 3.73-4.286v-0.008c0.2-1.047 0.05-1.857-0.12-2.902-0.16-1.045-0.38-2.088-0.81-3.035 0-0.001-0.01 0.002-0.01 0v-0.008c-0.65-1.406-1.61-2.877-3.32-3.497-0.66-0.24-1.43-0.44-2.41-0.513z"/>
  <path d="m-142.12 88.43c-1.15-0.416-2.04-0.539-5.8-0.373-3.76 0.165-9.9 1.533-13.67 2.905-3.76 1.367-8.18 3.813-8.75 5.469-1.16 3.336 1.05 8.419 2.43 8.709 0.97 0.21 3.72 0.33 8.09-1.95 1.39-0.72 4.21 4.94 4.83 6.18s1.61 4.54 0.79 7.13c-0.84 2.66-2.34 4.36-4.42 5.1-1.64 0.59-4.86 1.14-6.32-1.49-1.6-2.86-0.09-4.81 0.57-5.39 0.81-0.71 1.41-0.62 1.81-0.29s-0.53 1.16-0.4 2.03 2.83 1.62 4.07-0.25c0.84-1.27 0.53-2.36 0.05-3.35-0.51-1.05-1.99-2.04-3.5-2.21-1.5-0.16-3.45 0.67-4.77 2.58-1.33 1.91-2.92 6.17-0.36 10.49 2.7 4.52 7.79 4.99 12.03 4.52 2.26-0.25 4.38-0.96 6.59-2.16 1.64-0.89 3.1-2.12 4.52-5.1 1.59-3.36 1.06-7.88 0.66-10.78-0.06-0.45-0.45-1.99-1.11-4.4-0.66-2.4-2.26-4.81-2.21-4.93 0.04-0.12 0.09-0.79 1.72-0.956 1.37-0.137 5.71-1.576 6.2-4.145 0.16-0.866-0.22-3.567-0.8-4.807-0.57-1.244-1.21-2.153-2.25-2.531" fill="#955ea1"/>
  <path style="color:#000000;text-indent:0;block-progression:tb;text-transform:none" fill="#432156" d="m-136.66 100.55c-0.8 0.01-1.5 0.05-1.89 0.05-1.3 0-2.62 0.6-3.28 1.43h-0.01c-0.97 1.21-1.17 2.43-1.19 2.55h-0.01s-1.69 5.59-2.42 8.03v0.01c-0.42 1.43-0.92 3.94-1.37 6.37-0.22 1.22-0.42 2.4-0.57 3.37s-0.25 1.63-0.27 2.21v0.01c-0.04 1.23 0.52 2.31 1.22 3.04 0.7 0.74 1.54 1.23 2.42 1.55 0 0 0 0.01 0.01 0.01v-0.01c1.14 0.42 2.34 0.49 3.74 0.54 1.41 0.06 2.87 0.03 4.05-0.09 1.11-0.11 2.12-0.25 3.08-0.59 0.97-0.34 1.97-0.96 2.53-2.01 0.48-0.89 0.69-2.05 0.58-3.18-0.11-1.12-0.38-2.49-0.74-5.01-0.32-2.27-0.18-5.45 0.07-8.08 0.26-2.63 0.58-4.53 0.67-5.11v-0.01-0.01c0.06-0.49 0.63-1.99-0.47-3.54v-0.01l-0.01-0.01c-0.67-0.93-1.57-1.17-2.21-1.3-0.64-0.12-1.18-0.14-1.37-0.15-0.84-0.08-1.75-0.08-2.56-0.06z"/>
  <path d="m-134.27 102.48c-1.41-0.13-3.33 0-4.28 0-0.96 0-1.46 0.26-1.83 0.72-0.55 0.69-0.86 1.93-0.86 1.93s-1.69 5.59-2.42 8.02c-0.72 2.44-2.09 10.21-2.14 11.49-0.04 1.28 1.14 2.3 2.42 2.77 1.27 0.47 4.87 0.56 6.96 0.35 2.1-0.22 3.59-0.58 4.15-1.63 0.73-1.36 0.37-1.92-0.37-7.04-0.72-5.13 0.64-13.03 0.74-13.71 0.09-0.69 0.32-1.58-0.14-2.22s-1.62-0.63-2.23-0.68" fill="#955ea1"/>
  <path style="color:#000000;text-indent:0;block-progression:tb;text-transform:none" fill="#432156" d="m-126.75 99.793c-2.15 0.189-3.53 0.897-4.33 1.717v0.01c-1.23 1.26-1.83 2.74-2.11 4.32-0.48 2.57-0.71 7-0.73 11.27-0.01 2.14 0.04 4.2 0.16 5.94 0.13 1.73 0.2 2.98 0.74 4.19 0.64 1.46 1.95 2.29 3.03 2.62s2.05 0.33 2.48 0.37h0.01c2.38 0.19 4.52-0.83 5.72-2.52v-0.01c0.41-0.57 0.5-0.99 0.61-1.48 0.12-0.48 0.22-1.01 0.29-1.59 0.16-1.17 0.27-2.54 0.36-3.92 0.01-0.21 0-0.22 0.01-0.41 0.03 0.05 0.05 0.07 0.08 0.11 0.47 0.6 1.21 1.69 2.09 2.68 0.89 0.99 1.92 2.19 3.83 2.14 1.09-0.03 1.84-0.52 2.48-1.02 0.64-0.51 1.19-1.11 1.7-1.74l0.03-0.03c-0.02 1.48 0.03 3.12 0.23 4.49 0.13 0.91 0.19 1.75 0.69 2.71 0.51 0.95 1.6 1.67 2.7 1.96 0 0 0 0.01 0.01 0.01v-0.01c1.44 0.37 2.99 0.32 4.47-0.01 1.49-0.33 2.933-0.91 3.985-2.16 0.002 0-0.001 0 0-0.01 0.88-1.04 1.007-2.21 1.034-3.27 0.026-1.07-0.098-2.13-0.207-3.09-0.129-1.16-0.642-4.19-1.182-7.38-0.54-3.18-1.1-6.38-1.273-7.4-0.001-0.01 0-0.01 0-0.01-0.237-1.43-0.587-2.76-1.547-3.85s-2.38-1.66-3.99-1.89c-2.16-0.31-4.82-0.2-7.2 1.17-1.31 0.75-2.1 1.75-2.62 2.38-0.37-0.62-0.85-1.5-1.58-2.44-1.66-2.15-4.22-3.59-7.55-3.847-0.9-0.068-1.71-0.063-2.42 0z"/>
  <path d="m-124.48 101.67c-3.27-0.25-4.61 0.49-5.26 1.16-1 1.02-1.35 1.92-1.61 3.35-0.84 4.56-1.04 17.85 0.04 20.3 0.81 1.82 2.87 1.79 3.96 1.88 1.93 0.16 3.12-0.44 4.05-1.74 0.47-0.67 0.73-3.31 0.91-6.03 0.17-2.72-0.26-3.57 0.65-4.1 0.56-0.33 1.7 1.38 2.78 2.76 1.09 1.39 2.83 4.15 4.4 4.11 1.69-0.05 4.04-3.7 5-5.36 0.32-0.54 1.41-0.1 1.31 0.98-0.14 1.25-0.31 5.28 0.04 7.68 0.26 1.83 0.38 2.71 2 3.13 2.09 0.54 5.33-0.09 6.563-1.57 0.828-0.97 0.61-3.03 0.393-4.95-0.209-1.86-2.086-12.62-2.436-14.69-0.43-2.58-1.21-3.8-3.96-4.19-1.87-0.27-4.13-0.14-6 0.94-1.92 1.1-2.57 3.21-3.78 3.12-0.91-0.06-1.48-1.92-2.83-3.66-1.38-1.78-3.3-2.9-6.22-3.12" fill="#955ea1"/>
  <g fill="#389d3d">
   <path style="color:#000000;text-indent:0;block-progression:tb;text-transform:none" d="m-54.249 99.034c-0.718-0.001-1.409 0.059-2.092 0.24h-0.008c-1.018 0.272-1.633 1.056-1.927 1.706-0.073 0.16-0.099 0.31-0.148 0.47-0.322-0.21-0.594-0.4-1.025-0.62-1.392-0.7-3.44-1.263-6.49-1.242-5.931 0.049-9.23 3.862-10.442 6.282v0.01c-0.521 1.04-0.636 2.04-0.843 3.41-0.208 1.36-0.384 2.95-0.529 4.47-0.291 3.04-0.455 5.83-0.455 5.83l-0.033 0.51 0.231 0.45s0.511 1 1.306 2.16c0.796 1.16 1.846 2.55 3.349 3.49v-0.01c3.98 2.49 8.801 1.71 11.847 0.28 0.552-0.25 0.993-0.58 1.372-0.92 0.075 0.18 0.16 0.35 0.265 0.52h-0.009c0.866 1.39 1.977 1.51 3.01 1.75 1.032 0.24 2.114 0.35 3.034 0.4 0.828 0.04 1.89 0.11 3.042-0.08 1.153-0.19 2.539-0.76 3.382-2.04 0.628-0.96 0.718-1.8 0.851-2.83 0.134-1.02 0.191-2.17 0.215-3.33 0.048-2.32-0.055-4.66-0.14-5.87v-0.01c-0.091-1.27 0.069-3.72 0.306-5.82 0.118-1.05 0.257-2.03 0.372-2.78 0.11-0.72 0.267-1.41 0.215-1.25 0.139-0.45 0.401-1.37-0.058-2.36-0.464-0.99-1.347-1.5-2.348-1.882h-0.009c-1.1-0.415-2.492-0.641-4.018-0.794-0.762-0.076-1.506-0.139-2.224-0.14zm-8.293 10.746c1.229 0 3.043 1.33 3.043 2.89 0 1-0.302 1.86-0.744 2.4s-0.969 0.85-1.927 0.85c-1.982 0.01-3.075-1.23-3.075-3.05 0-1.71 1.585-3.09 2.703-3.09z"/>
   <path style="color:#000000;text-indent:0;block-progression:tb;text-transform:none" d="m-58.596 102.41c-0.005 0.14-0.028 0.29-0.017 0.44-0.025-0.33-0.015-0.42 0.017-0.44z"/>
   <path style="color:#000000;text-indent:0;block-progression:tb;text-transform:none" d="m-56.712 124.06c0.005 0.01 0.002 0.01 0.008 0.01-0.008-0.01-0.003 0-0.008 0 0 0-0.001-0.01 0-0.01z"/>
  </g>
  <path d="m-62.152 117.94c-3.042 0.02-5.157-2.27-5.157-5.12s2.347-5.16 4.76-5.16 5.115 2.1 5.115 4.95-1.671 5.32-4.718 5.33m13.481-16.22c-1.453-0.55-5.603-1.06-7.192-0.63-0.672 0.18-0.928 1.06-0.88 1.6 0.042 0.55-0.62 1.61-1.5 1.19-0.885-0.42-2.03-2.45-7.68-2.41-5.143 0.04-7.812 3.3-8.782 5.24-0.97 1.95-1.632 12.99-1.632 12.99s1.831 3.57 3.974 4.91c3.175 1.98 7.528 1.34 10.06 0.16 1.717-0.8 2.072-2.53 2.91-2.83 0.624-0.22 1.06 0.21 1.017 0.89-0.047 0.67-0.535 1.25 0.085 2.24 0.53 0.85 2.872 1.18 4.547 1.27 1.675 0.08 3.795 0.21 4.765-1.27 1.032-1.57 0.781-8.58 0.62-10.87-0.222-3.13 0.748-9.81 0.97-10.53 0.218-0.72 0.298-1.35-1.282-1.95" fill="#95cc22"/>
  <path style="color:#000000;text-indent:0;block-progression:tb;text-transform:none" fill="#419037" d="m-74.975 84.847c-0.996-0.074-2.236-0.06-4.183 0.024-4.206 0.187-10.446 1.602-14.526 3.084-2.036 0.742-4.203 1.745-6.018 2.836-0.908 0.545-1.728 1.109-2.418 1.711-0.69 0.603-1.3 1.199-1.64 2.191-0.81 2.332-0.41 4.793 0.27 6.827 0.34 1.02 0.77 1.92 1.28 2.69 0.52 0.76 0.99 1.54 2.318 1.83 1.465 0.31 4.412 0.3 8.771-1.81 0.284 0.31 0.669 0.78 1.067 1.4 0.894 1.38 1.748 3.09 2.067 3.73 0.402 0.81 1.271 4.09 0.702 5.89-0.735 2.3-1.822 3.45-3.356 4.01-0.003 0-0.006-0.01-0.009 0-0.644 0.23-1.672 0.45-2.472 0.37-0.802-0.08-1.275-0.26-1.711-1.04-0.185-0.34-0.295-0.62-0.372-0.87 0.128 0.09 0.249 0.22 0.372 0.29 0.586 0.33 1.219 0.5 1.91 0.55 1.381 0.1 3.158-0.44 4.2-2.01 0.627-0.94 0.899-2.02 0.843-2.97-0.056-0.94-0.371-1.71-0.67-2.32-0.946-1.93-2.846-3.04-5.051-3.29-2.39-0.26-4.928 0.98-6.629 3.42-1.7 2.45-3.51 7.59-0.43 12.75 1.624 2.74 4.099 4.33 6.637 5.07 2.539 0.74 5.149 0.71 7.466 0.45 2.559-0.28 4.994-1.09 7.424-2.41 1.895-1.03 3.835-2.74 5.407-6.06 1.977-4.16 1.264-9.07 0.851-12.08h-0.008v-0.01c-0.127-0.89-0.492-2.24-1.174-4.72-0.398-1.44-1.031-2.77-1.546-3.76-0.003-0.01-0.005-0.01-0.008-0.02 1.054-0.18 2.27-0.54 3.621-1.261 1.583-0.838 3.369-2.105 3.795-4.357v-0.008c0.197-1.053 0.052-1.884-0.116-2.952-0.168-1.067-0.392-2.132-0.835-3.092-0.66-1.426-1.625-2.933-3.373-3.563-0.002-0.001-0.006 0.001-0.008 0-0.676-0.245-1.454-0.447-2.447-0.521z"/>
  <path d="m-73.157 87.131c-1.174-0.426-2.077-0.549-5.919-0.383-3.843 0.17-10.121 1.571-13.963 2.966-3.843 1.401-8.361 3.899-8.951 5.593-1.18 3.407 1.08 8.593 2.487 8.893 0.994 0.22 3.795 0.34 8.271-1.99 1.41-0.73 4.292 5.04 4.925 6.31 0.634 1.28 1.652 4.64 0.814 7.29-0.861 2.71-2.399 4.45-4.518 5.21-1.675 0.6-4.968 1.16-6.464-1.52-1.627-2.92-0.09-4.92 0.587-5.51 0.828-0.73 1.448-0.64 1.855-0.3s-0.544 1.19-0.407 2.08 2.891 1.65 4.154-0.25c0.861-1.3 0.544-2.42 0.048-3.44-0.521-1.06-2.035-2.07-3.568-2.24-1.538-0.17-3.525 0.67-4.883 2.62-1.351 1.95-2.981 6.32-0.36 10.72 2.749 4.63 7.95 5.1 12.288 4.62 2.305-0.26 4.476-0.98 6.733-2.2 1.675-0.91 3.166-2.16 4.609-5.22 1.627-3.42 1.088-8.04 0.681-11.01-0.066-0.46-0.454-2.03-1.131-4.49-0.676-2.46-2.304-4.912-2.257-5.04 0.043-0.127 0.09-0.804 1.76-0.974 1.396-0.142 5.83-1.609 6.327-4.235 0.165-0.885-0.228-3.643-0.814-4.916-0.587-1.269-1.235-2.201-2.305-2.584" fill="#95cc22"/>
  <path style="color:#000000;text-indent:0;block-progression:tb;text-transform:none" fill="#419037" d="m-41.947 99.843c-2.083 0.187-3.426 0.887-4.2 1.687h-0.009c-1.179 1.23-1.75 2.67-2.025 4.21-0.001 0 0.001 0 0 0.01-0.451 2.49-0.682 6.78-0.703 10.91-0.01 2.07 0.037 4.07 0.157 5.75s0.192 2.89 0.711 4.07v0.01c0.626 1.42 1.907 2.24 2.96 2.56 1.049 0.33 1.98 0.33 2.389 0.37h0.009c2.3 0.19 4.399-0.83 5.564-2.48 0.398-0.57 0.48-0.98 0.595-1.45 0.114-0.47 0.197-0.98 0.273-1.55 0.151-1.12 0.26-2.45 0.347-3.79 0.005-0.09-0.005-0.09 0-0.18 0.449 0.59 1.12 1.58 1.943 2.51 0.852 0.96 1.849 2.15 3.728 2.1 1.077-0.03 1.811-0.51 2.431-1.01 0.571-0.46 1.062-0.99 1.521-1.55-0.008 1.38 0.045 2.88 0.223 4.15 0.126 0.88 0.179 1.7 0.67 2.63 0.491 0.94 1.555 1.67 2.629 1.95h0.008c1.4 0.36 2.895 0.3 4.333-0.02 1.436-0.32 2.844-0.89 3.869-2.12 0.857-1.03 0.966-2.17 0.992-3.2 0.025-1.04-0.094-2.06-0.199-3-0.125-1.11-0.615-4.05-1.132-7.13s-1.045-6.2-1.207-7.18c-0.231-1.38-0.576-2.67-1.505-3.74s-2.309-1.65-3.869-1.87c-2.089-0.3-4.661-0.19-6.961 1.14-0.003 0-0.005 0.01-0.008 0.01-1.21 0.7-1.937 1.61-2.439 2.22-0.346-0.59-0.787-1.39-1.455-2.26-1.606-2.1-4.094-3.51-7.301-3.756h-0.008c-0.865-0.067-1.637-0.063-2.331 0z"/>
  <path d="m-39.754 101.71c-3.137-0.24-4.42 0.48-5.044 1.13-0.956 0.99-1.292 1.85-1.538 3.24-0.799 4.42-1.003 17.28 0.038 19.65 0.771 1.76 2.754 1.73 3.795 1.81 1.85 0.16 2.985-0.42 3.875-1.68 0.454-0.65 0.705-3.19 0.875-5.83 0.166-2.64-0.25-3.45 0.625-3.97 0.535-0.32 1.623 1.33 2.664 2.67s2.706 4.02 4.211 3.98c1.623-0.04 3.87-3.59 4.789-5.19 0.307-0.53 1.357-0.1 1.249 0.95-0.123 1.21-0.284 5.11 0.042 7.43 0.251 1.78 0.369 2.63 1.917 3.03 2.001 0.52 5.105-0.09 6.293-1.51 0.79-0.96 0.582-2.94 0.373-4.8-0.203-1.8-2.001-12.22-2.332-14.21-0.417-2.5-1.164-3.68-3.79-4.06-1.794-0.26-3.961-0.13-5.754 0.91-1.836 1.06-2.456 3.11-3.624 3.02-0.871-0.07-1.415-1.86-2.707-3.54-1.325-1.73-3.165-2.81-5.957-3.03" fill="#95cc22"/>
  <g fill="#eb5220">
   <path style="color:#000000;text-indent:0;block-progression:tb;text-transform:none" d="m-109.21 62.645c-1.06 0.026-1.36 0.536-1.8 0.959s-0.85 0.923-1.24 1.414c-0.57 0.727-0.81 1.116-1.03 1.439-0.41 0.039-0.99 0.085-2.04 0.272-0.68 0.123-1.39 0.275-2.03 0.496-0.64 0.222-1.33 0.333-1.8 1.331a1.2989 1.2989 0 0 0 -0.01 0.009c-0.24 0.518-0.15 1.026-0.03 1.364s0.28 0.582 0.45 0.818c0.35 0.473 0.76 0.891 1.18 1.273 0.42 0.373 0.52 0.421 0.84 0.67-0.24 0.437-0.37 0.624-0.69 1.331-0.28 0.622-0.54 1.274-0.68 1.943-0.08 0.334-0.13 0.675-0.09 1.067 0.03 0.391 0.16 0.902 0.58 1.297 0.46 0.436 0.99 0.517 1.42 0.53 0.42 0.012 0.8-0.048 1.2-0.141 0.78-0.186 1.59-0.506 2.36-0.843s1.49-0.699 2.03-0.968c0.08-0.04 0.11-0.062 0.19-0.099 0.05 0.036 0.08 0.06 0.14 0.099 0.46 0.288 1.07 0.661 1.73 1.017 0.66 0.357 1.36 0.699 2.04 0.943 0.67 0.244 1.28 0.577 2.29 0.14v0.009c0.5-0.22 0.8-0.634 0.97-0.976s0.24-0.661 0.29-0.984c0.1-0.646 0.1-1.306 0.06-1.943-0.05-0.924-0.14-1.37-0.21-1.777 0.3-0.297 0.66-0.636 1.29-1.381 0.43-0.504 0.86-1.041 1.19-1.587 0.17-0.273 0.32-0.547 0.43-0.868 0.11-0.32 0.229-0.719 0.05-1.273v-0.009c-0.2-0.609-0.62-0.88-0.93-1.041-0.32-0.163-0.61-0.252-0.92-0.323-0.62-0.141-1.29-0.206-1.94-0.248-0.62-0.039-1.2-0.045-1.66-0.049-0.16-0.377-0.37-0.817-0.62-1.298-0.29-0.536-0.62-1.086-1.04-1.571s-0.97-1.068-1.97-1.042z"/>
   <path style="color:#000000;text-indent:0;block-progression:tb;text-transform:none" d="m-83.642 61.546c-0.163-0.011-0.34 0.009-0.537 0.058-0.859 0.214-0.966 0.64-1.199 0.992-0.232 0.351-0.432 0.734-0.611 1.108-0.235 0.488-0.298 0.682-0.406 0.95-0.297 0.098-0.56 0.169-1.149 0.414-0.427 0.177-0.863 0.382-1.265 0.628-0.401 0.246-0.901 0.414-1.099 1.306a1.1546 1.1546 0 0 0 -0.008 0c-0.103 0.47 0.067 0.862 0.214 1.1 0.148 0.238 0.298 0.391 0.455 0.529 0.315 0.276 0.66 0.488 0.992 0.678 0.209 0.119 0.227 0.112 0.414 0.206-0.082 0.292-0.112 0.341-0.19 0.72-0.093 0.446-0.176 0.912-0.174 1.397 0.001 0.242 0.018 0.488 0.107 0.777 0.089 0.287 0.285 0.665 0.687 0.909v0.009c0.001 0.001 0.006-0.001 0.008 0 0.445 0.265 0.879 0.24 1.19 0.182 0.313-0.059 0.568-0.168 0.819-0.29 0.502-0.242 0.978-0.564 1.43-0.893 0.443-0.322 0.848-0.647 1.149-0.892 0.331 0.117 0.751 0.266 1.207 0.396 0.478 0.137 0.979 0.26 1.472 0.323 0.492 0.063 0.976 0.239 1.703-0.29 0.37-0.268 0.527-0.647 0.595-0.934 0.069-0.286 0.073-0.528 0.058-0.76-0.029-0.465-0.139-0.895-0.256-1.307-0.147-0.517-0.228-0.691-0.339-0.975 0.164-0.263 0.291-0.449 0.562-0.959 0.207-0.389 0.414-0.794 0.562-1.216 0.074-0.21 0.135-0.422 0.166-0.677 0.031-0.256 0.064-0.592-0.182-1.017a1.1546 1.1546 0 0 0 -0.009 -0.017c-0.28-0.471-0.671-0.593-0.934-0.661-0.263-0.069-0.481-0.081-0.702-0.083-0.443-0.003-0.892 0.049-1.323 0.116-0.334 0.052-0.617 0.11-0.885 0.165-0.143-0.19-0.281-0.383-0.471-0.603-0.268-0.311-0.568-0.62-0.934-0.893-0.275-0.205-0.626-0.464-1.116-0.496z"/>
   <path style="color:#000000;text-indent:0;block-progression:tb;text-transform:none" d="m-62.255 68.59c-0.264-0.017-0.553 0.039-0.868 0.223-0.002 0.001-0.006-0.002-0.008 0v0.008c-0.675 0.402-0.676 0.808-0.794 1.199-0.118 0.393-0.193 0.817-0.256 1.223-0.088 0.568-0.101 0.819-0.124 1.092-0.242 0.167-0.511 0.339-1.025 0.76-0.355 0.29-0.712 0.602-1.017 0.943s-0.703 0.634-0.645 1.455a1.0103 1.0103 0 0 0 0 0.008c0.033 0.429 0.27 0.722 0.463 0.893s0.379 0.272 0.562 0.355c0.365 0.168 0.74 0.262 1.108 0.348 0.293 0.068 0.331 0.059 0.57 0.099 0.004 0.321-0.014 0.416 0.025 0.86 0.04 0.448 0.104 0.91 0.24 1.356 0.068 0.222 0.15 0.445 0.306 0.677 0.156 0.233 0.418 0.515 0.835 0.62 0.456 0.116 0.826-0.019 1.091-0.157 0.265-0.137 0.478-0.304 0.678-0.487 0.399-0.367 0.756-0.816 1.091-1.257 0.336-0.441 0.642-0.876 0.86-1.199 0.012-0.017 0.014-0.025 0.025-0.041 0.01 0 0.015-0.001 0.025 0 0.355 0.018 0.821 0.039 1.314 0.033s1.003-0.038 1.48-0.116 0.962-0.059 1.455-0.703a1.0103 1.0103 0 0 0 0.008 -0.008c0.247-0.327 0.289-0.695 0.273-0.967-0.015-0.272-0.079-0.493-0.157-0.703-0.155-0.42-0.376-0.801-0.603-1.157-0.306-0.479-0.456-0.655-0.637-0.885 0.079-0.284 0.154-0.538 0.273-1.132 0.085-0.428 0.162-0.874 0.182-1.307 0.01-0.216 0.008-0.432-0.033-0.669s-0.106-0.534-0.43-0.835c-0.359-0.332-0.731-0.348-0.984-0.339-0.253 0.008-0.456 0.056-0.661 0.115-0.412 0.12-0.825 0.302-1.216 0.488-0.334 0.16-0.623 0.318-0.876 0.455-0.204-0.152-0.422-0.323-0.695-0.496-0.34-0.217-0.711-0.421-1.124-0.57-0.206-0.075-0.445-0.165-0.711-0.182z"/>
   <path style="color:#000000;text-indent:0;block-progression:tb;text-transform:none" d="m-42.122 78.444c-0.146 0.006-0.267 0.041-0.364 0.075-0.194 0.066-0.339 0.147-0.479 0.239-0.281 0.184-0.541 0.413-0.786 0.637-0.195 0.179-0.355 0.338-0.504 0.488-0.211-0.08-0.266-0.112-0.546-0.19-0.299-0.084-0.622-0.156-0.967-0.174s-0.81-0.037-1.224 0.413c-0.452 0.492-0.34 0.805-0.338 1.125 0.001 0.319 0.038 0.647 0.082 0.959 0.059 0.414 0.104 0.572 0.149 0.785-0.147 0.187-0.285 0.342-0.554 0.744-0.195 0.293-0.387 0.602-0.537 0.926s-0.398 0.64-0.149 1.282c0.131 0.337 0.394 0.515 0.587 0.603s0.355 0.12 0.512 0.141c0.315 0.041 0.62 0.028 0.91 0.008 0.19-0.013 0.201-0.029 0.364-0.05 0.071 0.221 0.069 0.268 0.182 0.546 0.129 0.321 0.275 0.655 0.479 0.959 0.102 0.152 0.22 0.302 0.397 0.446 0.176 0.145 0.452 0.298 0.81 0.282 0.393-0.019 0.656-0.221 0.827-0.389s0.281-0.339 0.388-0.521c0.214-0.364 0.383-0.768 0.53-1.166 0.144-0.391 0.26-0.767 0.347-1.05 0.26-0.065 0.586-0.153 0.934-0.264 0.36-0.115 0.729-0.246 1.066-0.413 0.335-0.167 0.709-0.27 0.943-0.893h0.008c0.001-0.003-0.001-0.006 0-0.009 0.117-0.319 0.068-0.62-0.008-0.826-0.077-0.209-0.183-0.365-0.289-0.505-0.214-0.28-0.457-0.508-0.703-0.719-0.314-0.269-0.448-0.347-0.637-0.479-0.007-0.235-0.005-0.406-0.049-0.844-0.034-0.332-0.074-0.673-0.157-1-0.042-0.163-0.095-0.323-0.182-0.496-0.088-0.173-0.21-0.4-0.546-0.562-0.184-0.089-0.35-0.114-0.496-0.108z"/>
   <path style="color:#000000;text-indent:0;block-progression:tb;text-transform:none" d="m-31.434 89.192c-0.121 0.025-0.22 0.075-0.298 0.116-0.154 0.083-0.264 0.175-0.372 0.273-0.214 0.196-0.407 0.418-0.587 0.645-0.148 0.187-0.27 0.359-0.38 0.512-0.161-0.029-0.326-0.06-0.529-0.082-0.269-0.03-0.555-0.049-0.852-0.017-0.199 0.022-0.429 0.092-0.653 0.24a0.72163 0.72163 0 0 0 -0.322 0.273c-0.303 0.467-0.169 0.719-0.124 0.992s0.125 0.548 0.207 0.81c0.109 0.354 0.163 0.494 0.231 0.67-0.098 0.177-0.192 0.341-0.372 0.735-0.127 0.28-0.256 0.578-0.339 0.877-0.083 0.298-0.244 0.6 0.05 1.099 0.154 0.263 0.405 0.375 0.578 0.422s0.31 0.053 0.447 0.05c0.273-0.008 0.53-0.059 0.777-0.116 0.179-0.041 0.192-0.056 0.339-0.099 0.095 0.185 0.105 0.234 0.248 0.471 0.156 0.258 0.329 0.521 0.546 0.752 0.108 0.116 0.22 0.226 0.388 0.323s0.424 0.186 0.719 0.124c0.323-0.07 0.515-0.265 0.637-0.43 0.122-0.166 0.198-0.334 0.265-0.505 0.132-0.341 0.218-0.711 0.289-1.074 0.07-0.361 0.121-0.711 0.157-0.968v-0.008c0.217-0.093 0.495-0.217 0.785-0.364 0.295-0.148 0.603-0.314 0.868-0.504 0.266-0.19 0.571-0.323 0.678-0.884 0.057-0.284-0.031-0.53-0.124-0.695-0.092-0.165-0.196-0.275-0.305-0.38-0.22-0.21-0.47-0.381-0.711-0.529-0.314-0.192-0.441-0.244-0.621-0.331-0.037-0.198-0.063-0.362-0.165-0.744-0.075-0.282-0.164-0.567-0.281-0.835-0.059-0.134-0.126-0.263-0.223-0.397-0.097-0.133-0.227-0.306-0.521-0.397-0.003-0.001-0.005 0.001-0.008 0-0.162-0.048-0.303-0.049-0.422-0.025z"/>
   <path style="color:#000000;text-indent:0;block-progression:tb;text-transform:none" d="m-130.09 77.022c-0.24 0.029-0.46 0.097-0.67 0.166-0.4 0.137-0.78 0.326-1.15 0.545-0.76 0.439-1.54 1.011-2.27 1.588-1.15 0.907-1.76 1.482-2.15 1.835-0.67-0.132-1.74-0.324-3.14-0.48-1.01-0.111-2.05-0.188-3.02-0.132-0.96 0.057-1.96 0.048-2.79 1.091-0.43 0.531-0.48 1.116-0.46 1.571 0.03 0.455 0.13 0.851 0.27 1.249 0.27 0.794 0.68 1.589 1.11 2.339 0.39 0.697 0.8 1.332 1.14 1.836-0.5 0.55-1.16 1.296-1.8 2.124-0.63 0.814-1.25 1.685-1.68 2.572-0.44 0.887-0.93 1.912-0.27 3.125 0.37 0.668 0.97 1.011 1.51 1.198 0.55 0.188 1.09 0.262 1.67 0.29 1.14 0.055 2.39-0.072 3.61-0.248 1.21-0.177 2.37-0.41 3.23-0.587 0.22-0.046 0.35-0.071 0.52-0.108 0.11 0.138 0.2 0.246 0.34 0.414 0.52 0.633 1.23 1.458 2 2.281 0.78 0.819 1.61 1.639 2.43 2.279 0.83 0.65 1.53 1.35 2.91 1.15 0.7-0.1 1.19-0.51 1.51-0.89 0.32-0.39 0.52-0.8 0.71-1.23 0.37-0.87 0.62-1.849 0.82-2.813 0.28-1.344 0.41-2.407 0.48-3.076 0.45-0.27 1.27-0.75 2.56-1.678 0.8-0.576 1.61-1.207 2.27-1.86 0.66-0.654 1.4-1.201 1.36-2.547a1.4433 1.4433 0 0 0 0 -0.008c-0.02-0.73-0.39-1.204-0.72-1.538s-0.69-0.578-1.08-0.81c-0.77-0.464-1.68-0.852-2.58-1.199-0.89-0.346-1.77-0.641-2.43-0.851-0.06-0.022-0.1-0.03-0.16-0.05-0.01-0.06-0.01-0.092-0.02-0.157-0.08-0.662-0.2-1.546-0.39-2.463-0.18-0.918-0.43-1.863-0.79-2.712-0.36-0.85-0.8-1.795-2.03-2.141a1.4433 1.4433 0 0 0 0 -0.009c-0.32-0.09-0.6-0.094-0.85-0.066z"/>
  </g>
  <g fill="#e0e210">
   <path d="m-129.85 78.914c-1.32-0.373-6.08 4.093-6.08 4.093s-6.93-1.485-7.98-0.165c-0.89 1.112 2.68 6.037 2.68 6.037s-5.07 5.167-4.18 6.78c1 1.846 9.52-0.454 9.56-0.331 0.05 0.123 4.94 6.322 6.67 6.082 1.66-0.24 2.29-7.198 2.29-7.198s5.95-3.511 5.91-5.044c-0.05-1.448-6.66-3.265-6.66-3.308 0-0.042-0.49-6.463-2.21-6.946"/>
   <path d="m-83.901 62.922c-0.591 0.146-1.58 2.758-1.58 2.758s-2.995 0.928-3.151 1.628c-0.128 0.587 2.228 1.604 2.228 1.604s-0.974 2.933-0.317 3.326c0.753 0.45 3.634-2.176 3.672-2.143 0.043 0.038 3.161 1.235 3.785 0.78 0.601-0.435-0.506-3.07-0.506-3.07s1.647-2.522 1.33-3.067c-0.303-0.511-3.237 0.232-3.246 0.218-0.01-0.014-1.453-2.224-2.215-2.034"/>
   <path d="m-62.554 69.873c-0.52 0.308-0.719 3.1-0.719 3.1s-2.598 1.746-2.546 2.465c0.043 0.601 2.593 0.894 2.593 0.894s-0.09 3.09 0.653 3.274c0.852 0.218 2.854-3.127 2.901-3.108 0.052 0.023 3.383 0.269 3.851-0.341 0.45-0.591-1.372-2.801-1.372-2.801s0.847-2.886 0.388-3.312c-0.43-0.407-3.033 1.149-3.042 1.14-0.014-0.014-2.03-1.713-2.707-1.311"/>
   <path d="m-46.268 80.644c-0.312 0.34 0.166 2.408 0.166 2.408s-1.505 1.85-1.306 2.357c0.166 0.43 2.082 0.075 2.082 0.075s0.62 2.267 1.202 2.238c0.667-0.033 1.381-2.91 1.419-2.9 0.043 0.004 2.517-0.554 2.721-1.103 0.199-0.53-1.614-1.732-1.614-1.732s-0.023-2.285-0.454-2.493c-0.402-0.199-1.949 1.509-1.959 1.505-0.009-0.01-1.854-0.795-2.257-0.355"/>
   <path d="m-34.725 91.642c-0.222 0.336 0.478 2.063 0.478 2.063s-1.041 1.812-0.8 2.224c0.204 0.345 1.817-0.227 1.817-0.227s0.852 1.874 1.353 1.77c0.568-0.123 0.786-2.712 0.824-2.712 0.033-0.004 2.101-0.832 2.2-1.334 0.095-0.487-1.642-1.273-1.642-1.273s-0.341-1.978-0.743-2.096c-0.378-0.118-1.471 1.581-1.486 1.576-0.009-0.005-1.712-0.431-2.001 0.009"/>
   <path d="m-109.23 64.248c-0.94 0.024-3.28 3.605-3.28 3.605s-4.79 0.402-5.26 1.396c-0.38 0.838 2.81 3.137 2.81 3.137s-2.43 4.069-1.58 4.878c0.98 0.923 6.16-2.058 6.21-1.992 0.05 0.067 4.33 2.887 5.41 2.418 1.05-0.454 0.26-4.769 0.26-4.769s3.29-3.232 3-4.15c-0.28-0.866-4.92-0.724-4.93-0.747-0.01-0.024-1.44-3.805-2.64-3.776"/>
  </g>
 </g>
</svg>
