<?xml version="1.0" encoding="UTF-8" standalone="no"?>
<svg xmlns:rdf="http://www.w3.org/1999/02/22-rdf-syntax-ns#" xmlns="http://www.w3.org/2000/svg" height="169.25mm" width="169.33mm" version="1.1" xmlns:cc="http://creativecommons.org/ns#" xmlns:dc="http://purl.org/dc/elements/1.1/" viewBox="0 0 599.99998 599.6938">
 <defs>
  <clipPath id="a" clipPathUnits="userSpaceOnUse">
   <path d="m78.276 543.57c-0.012 0.1-0.018 0.21-0.018 0.31s0.006 0.2 0.018 0.3v-0.61"/>
  </clipPath>
  <clipPath id="d" clipPathUnits="userSpaceOnUse">
   <path d="m80.698 541.44c-1.245 0-2.272 0.93-2.422 2.13v0.61c0.15 1.2 1.177 2.14 2.422 2.14 1.347 0 2.441-1.1 2.441-2.44 0-1.35-1.094-2.44-2.441-2.44"/>
  </clipPath>
  <clipPath id="c" clipPathUnits="userSpaceOnUse">
   <path clip-rule="evenodd" d="m80.698 546.32c1.347 0 2.441-1.1 2.441-2.44 0-1.35-1.094-2.44-2.441-2.44-1.348 0-2.44 1.09-2.44 2.44 0 1.34 1.092 2.44 2.44 2.44"/>
  </clipPath>
  <clipPath id="b" clipPathUnits="userSpaceOnUse">
   <path d="m0.015015 0h595.27v841.89h-595.27l-0.004985-841.89z"/>
  </clipPath>
 </defs>
 <g transform="translate(-112.32 -142.67)">
  <g transform="matrix(34.023 0 0 -34.023 605.04 388.25)">
   <path d="m0 0c-0.139 0-0.27-0.021-0.394-0.065-0.122-0.042-0.234-0.103-0.334-0.183s-0.187-0.177-0.26-0.289c-0.07-0.112-0.125-0.24-0.162-0.383h2.311c-0.159 0.613-0.547 0.92-1.161 0.92zm1.376-3.883c-0.19-0.118-0.396-0.204-0.618-0.258-0.221-0.054-0.463-0.081-0.722-0.081-0.743 0-1.34 0.238-1.79 0.714-0.327 0.352-0.534 0.786-0.624 1.302v-1.743h-1.156v2.778c0 0.49-0.068 0.828-0.204 1.016-0.133 0.191-0.376 0.286-0.727 0.286-0.382 0-0.653-0.126-0.813-0.378-0.158-0.248-0.236-0.682-0.236-1.302v-2.4h-1.155v0.328c-0.382-0.313-0.861-0.471-1.439-0.471-0.596 0-1.09 0.169-1.478 0.506-0.239 0.208-0.407 0.441-0.507 0.7-0.096 0.233-0.143 0.577-0.143 1.034v2.883h1.151v-2.858c0-0.825 0.325-1.237 0.977-1.237 0.651 0 0.977 0.412 0.977 1.237v2.858h1.617v-0.46c0.402 0.398 0.856 0.598 1.361 0.598 0.58 0 1.032-0.182 1.355-0.547 0.281-0.31 0.42-0.816 0.42-1.519v-0.084c0.087 0.511 0.288 0.944 0.603 1.298 0.44 0.48 1.024 0.721 1.751 0.721 0.733 0 1.312-0.234 1.738-0.7 0.423-0.464 0.635-1.106 0.635-1.928l-0.005-0.271h-3.571c0.031-0.409 0.164-0.735 0.399-0.975 0.234-0.24 0.537-0.359 0.905-0.359 0.288 0 0.523 0.068 0.711 0.205 0.185 0.136 0.395 0.388 0.629 0.757l0.972-0.543c-0.15-0.255-0.309-0.474-0.476-0.657-0.166-0.182-0.345-0.332-0.537-0.45zm-12.062 5.97c-0.137-0.136-0.304-0.204-0.502-0.204-0.202 0-0.37 0.068-0.507 0.204-0.136 0.137-0.204 0.308-0.204 0.512 0 0.19 0.07 0.356 0.21 0.496 0.139 0.139 0.307 0.209 0.501 0.209 0.195 0 0.361-0.07 0.502-0.209 0.139-0.14 0.209-0.307 0.209-0.502 0-0.197-0.07-0.366-0.209-0.506zm5.022 5.131c-4.87 0-8.818-3.946-8.818-8.813 0-1.438 0.347-2.794 0.958-3.994 0.283-0.185 0.547-0.279 0.794-0.279 0.354 0 0.6 0.134 0.736 0.403 0.143 0.269 0.215 0.739 0.215 1.41v5.104h1.197v-5.107c0-0.611-0.043-1.066-0.128-1.366-0.085-0.34-0.23-0.628-0.434-0.864-0.381-0.444-0.879-0.675-1.495-0.696 1.613-2.083 4.136-3.424 6.975-3.424 4.87 0 8.817 3.945 8.817 8.813 0 4.867-3.947 8.813-8.817 8.813" fill="#00adef"/>
  </g>
  <g transform="matrix(34.023 0 0 -34.023 -2333.3 19141)">
   <g clip-path="url(#d)">
    <g clip-path="url(#c)">
     <g clip-path="url(#b)">
      <path d="m78.255 541.42h4.89v4.91h-4.89v-4.91z" fill="#fff"/>
     </g>
    </g>
   </g>
  </g>
  <g transform="matrix(34.023 0 0 -34.023 449.11 708.68)">
   <path d="m0 0h-0.604l-0.915 3.23h0.653l0.567-2.312 0.574 2.312h0.639l-0.914-3.23zm-2.409 2.699h-0.287v0.531h0.287v0.852h0.641v-0.852h0.566v-0.531h-0.566v-1.866c0-0.211 0.102-0.296 0.287-0.296 0.09 0 0.188 0.024 0.274 0.066v-0.513c-0.123-0.067-0.287-0.115-0.464-0.115-0.415 0-0.738 0.158-0.738 0.701v2.023" fill="#00adef"/>
  </g>
  <g transform="matrix(34.023 0 0 -34.023 -2333.3 19141)">
   <g clip-path="url(#a)">
    <path d="m78.258 543.57h0.019v0.61h-0.019v-0.61z" fill="#fff"/>
   </g>
  </g>
 </g>
</svg>
