<?xml version="1.0" encoding="UTF-8" standalone="no"?>
<!-- Created with Inkscape (http://www.inkscape.org/) -->

<svg
   xmlns:dc="http://purl.org/dc/elements/1.1/"
   xmlns:cc="http://creativecommons.org/ns#"
   xmlns:rdf="http://www.w3.org/1999/02/22-rdf-syntax-ns#"
   xmlns:svg="http://www.w3.org/2000/svg"
   xmlns="http://www.w3.org/2000/svg"
   version="1.1"
   width="474.9574"
   height="160.04161"
   viewBox="0 0 474.9574 160.04161"
   id="Ebene_1"
   xml:space="preserve"><metadata
     id="metadata16"><rdf:RDF><cc:Work
         rdf:about=""><dc:format>image/svg+xml</dc:format><dc:type
           rdf:resource="http://purl.org/dc/dcmitype/StillImage" /><dc:title></dc:title></cc:Work></rdf:RDF></metadata><defs
     id="defs14" /><path
     d="m 270.62154,149.69965 c -0.55526,2.23584 -0.17769,2.60355 1.50783,2.80097 0,0 11.73696,1.19936 11.74683,1.19936 1.62876,0.2073 2.57887,-0.41953 3.86461,-3.24024 5.61429,-12.08245 16.30488,-48.86284 -26.13422,-53.317255 -7.49971,-0.78477 -49.48967,-5.44154 -46.39502,56.446445 0.10118,2.07297 0.87361,2.60355 2.7146,2.45795 3.69186,-0.30848 21.07765,-1.84593 21.12701,-1.84593 1.77436,-0.1456 2.35183,-1.39679 2.35183,-2.91696 0,-2.72448 -2.26546,-31.01063 20.668,-30.0087 14.96733,0.65151 11.96893,14.3257 8.54853,28.42436 z"
     id="path13"
     style="fill:#374ea2" /><path
     d="m 307.31062,155.59774 c -1.572,0.11105 -2.2852,-0.96986 -2.32222,-2.05323 -0.17768,-5.50817 0.74775,-26.54141 -7.03822,-48.79127 -0.61202,-1.69293 -0.22704,-2.89229 1.42146,-3.30688 0.01,-0.005 32.11621,-7.600885 32.11621,-7.600885 1.64357,-0.33315 2.54433,0.43927 2.99347,0.89582 3.05516,3.31675 2.53939,33.073725 -9.90089,57.485395 -0.94024,1.83113 -1.79411,1.9175 -3.50924,2.10259 -0.40473,0.0345 -13.70875,1.25859 -13.76057,1.26846 z"
     id="path15"
     style="fill:#f37021" /><path
     d="m 96.188597,59.209625 c 3.73135,-1.75462 27.368133,-4.07191 36.350993,-0.7132 0.91556,0.35783 0.99207,1.32028 0.96492,1.76942 -2.09271,30.5146 -22.35598,97.394985 -83.545587,99.699935 -34.704956,1.2956 -49.00844221,-14.43675 -49.23548121,-14.69587 -0.333156,-0.41459 -1.396786,-1.46589 -0.08637,-2.58628 0,0 27.29655921,-22.56328 27.30396321,-22.58055 0.7132,-0.58734 1.648504,-1.42147 2.781233,-0.50097 0.678651,0.53552 18.185367,16.73429 33.675869,14.3257 8.86935,-1.36471 14.66132,-6.1893 20.30769,-17.8152 7.23072,-14.93278 10.43888,-51.673675 10.73996,-55.565435 0.0321,-0.60461 0.19742,-1.06856 0.74281,-1.33755 z"
     id="path17"
     style="fill:#ed1c24" /><path
     d="m 423.95708,110.77965 c 10.29081,-16.961315 40.41055,-18.503705 49.46745,-16.494905 1.70527,0.41953 1.69786,1.54733 1.34496,2.77137 -0.0296,0.0444 -4.17308,17.987935 -5.40205,21.810585 -0.30355,1.02661 -0.93531,1.56213 -1.64357,1.50784 -6.0585,-0.4294 -31.40301,-3.92383 -26.18604,28.86116 0.25665,1.53745 -0.0716,1.96191 -1.08831,2.39131 -0.0197,0 -13.17322,4.79498 -13.1831,4.79498 -0.62682,0.24185 -1.54732,0.13573 -1.84099,-0.54045 -0.0123,-0.0666 -11.71968,-28.21459 -1.46835,-45.10189 z"
     id="path19"
     style="fill:#0066b3" /><path
     d="m 414.61638,111.95927 c -4.13113,-16.364105 -24.03164,-23.352975 -44.4257,-15.636105 -20.40887,7.721805 -33.57963,27.227455 -29.44603,43.596515 4.141,16.34437 24.04644,23.36038 44.4405,15.63857 20.40888,-7.72428 33.56236,-27.24967 29.43123,-43.59898 z m -25.5296,22.16843 c -8.30915,4.91096 -17.61284,3.33649 -20.74943,-3.52898 -3.17609,-6.84327 0.99699,-16.41101 9.32589,-21.32444 8.30915,-4.92576 17.6079,-3.36363 20.77904,3.50431 3.15141,6.84573 -1.04142,16.42581 -9.3555,21.34911 z"
     id="path21"
     style="fill:#ee3d96;fill-rule:evenodd" /><path
     d="m 315.10893,40.856445 c -6.96912,-8.43008 -23.38259,-6.7717 -36.66934,3.7116 -13.28921,10.45862 -18.41734,25.77144 -11.44822,34.18918 6.96419,8.43994 23.37766,6.78157 36.67428,-3.6968 13.26947,-10.46602 18.3976,-25.76404 11.44328,-34.20398 z m -13.09178,22.86435 c -6.2658,5.15775 -14.1184,6.13007 -17.54374,2.16922 -3.44508,-3.96579 -1.15247,-11.37419 5.09111,-16.55168 6.24112,-5.1528 14.12828,-6.12019 17.5388,-2.15934 3.43521,3.98553 1.16235,11.37912 -5.08617,16.5418 z"
     id="path23"
     style="fill:#0099d8;fill-rule:evenodd" /><path
     d="m 373.71966,7.1114688 c -18.95779,-10.367313 -40.19832,-9.269133 -47.46112,2.443141 -7.26773,11.7517602 2.2087,29.6804752 21.14922,40.0576552 18.93805,10.37719 40.17365,9.28394 47.45372,-2.45301 7.25292,-11.72215 -2.19883,-29.65086 -21.14182,-40.0477862 z m -5.09358,26.9708062 c -3.53392,5.61923 -13.69887,6.11279 -22.79279,1.10805 -9.05196,-5.007205 -13.59275,-13.624834 -10.08351,-19.246528 3.5043,-5.614291 13.71861,-6.1127912 22.78785,-1.108051 9.08898,5.01461 13.59522,13.622367 10.08845,19.246529 z"
     id="path25"
     style="fill:#0099d8;fill-rule:evenodd" /><path
     d="m 211.79364,103.22072 c 2.03842,-0.0444 2.5073,0.34796 1.78423,5.95238 -9.78984,73.61014 -132.403493,60.43692 -77.48955,-8.4202 1.83606,-2.327145 1.40666,-2.314805 5.01708,-2.524575 6.17448,-0.3603 21.92658,-1.51277 23.64665,-1.68305 1.52758,-0.16288 1.73488,0.99206 1.41653,1.51277 -30.13949,47.967015 24.69794,44.020975 27.74323,8.010545 0.12586,-1.49797 0.25172,-1.95699 2.15935,-1.99647 0.01,0.002 15.70274,-0.8514 15.72248,-0.8514 z"
     id="path27"
     style="fill:#39b54a" /></svg>