<?xml version="1.0" encoding="UTF-8" standalone="no"?>
<svg xmlns:rdf="http://www.w3.org/1999/02/22-rdf-syntax-ns#" xmlns="http://www.w3.org/2000/svg" xmlns:cc="http://creativecommons.org/ns#" xmlns:dc="http://purl.org/dc/elements/1.1/" height="159.18mm" width="169.33mm" version="1.1" viewBox="0 0 599.99998 564.01994">
  <defs>
    <linearGradient id="a" gradientUnits="userSpaceOnUse" gradientTransform="matrix(600 0 0 600 349.18 560.78)" x1="0" x2="1" y1="0" y2="0">
      <stop stop-color="#9e176c" offset="0"/>
      <stop stop-color="#ef299e" offset="1"/>
    </linearGradient>
  </defs>
  <g transform="translate(-349.18 -278.8)">
    <path d="m635.78 278.8c-127.97 0.9-196.06 25.71-226.79 51.23-30.78 25.59-59.81 82.63-59.81 232.47 0 149.81 31.3 197.12 59.24 224.46 27.91 27.34 81.45 55.86 239.32 55.86 157.76 0 223.86-29.67 248.93-58.16 24.62-27.94 51.54-59.24 52.51-198.78v-19.6c-0.64-136.98-12.78-182.41-46.19-222.62-34.44-41.42-108.73-64.02-251.26-64.86h-15.95z" fill="url(#a)"/>
    <path d="m552.94 609.69 0.04 0.57 112.71 0.06 0.93-1.06-0.03-145.64c-0.75 0.91-110.32 141.75-113.65 146.07m-68.66 62.83-3.6-3.89-0.03-1.42c0-18.16 0.03-36.32 0-54.47 0-4.71 1.42-8.73 4.38-12.45 8.07-10.06 172.14-220.92 173.26-222.1 2.63-2.72 5.74-4.02 9.51-3.99 11.75 0.03 64.77 0 65.41 0.03 3.86 0.15 4.29 1.75 4.65 4.44 0.15 1.15 0.09 153.41 0.09 228.39 0 3.26 0 3.26 3.26 3.26l57.83 0.09c3.08 0.24 4.13 1.27 4.16 4.38 0.06 4.44 0.03 38.76 0.03 51.48l-0.03 1.84c-0.09 3.36-1.17 4.53-4.56 4.69-2.81 0.09-57.85-0.03-60.3 0.15l-0.3 0.3-0.09 2.45v60.63l-0.42 4.44-2.96 2.6-63.08 0.12c-3.72-0.34-4.41-1-4.77-4.75l-0.1-3.47v-60.03c0-2.81 0.34-2.47-2.53-2.47" fill="#fffeff"/>
  </g>
</svg>
