<?xml version="1.0" encoding="UTF-8" standalone="no"?>
<!-- Created with Inkscape (http://www.inkscape.org/) -->
<svg xmlns:rdf="http://www.w3.org/1999/02/22-rdf-syntax-ns#" xmlns="http://www.w3.org/2000/svg" height="728.27" width="600" version="1.1" xmlns:cc="http://creativecommons.org/ns#" xmlns:dc="http://purl.org/dc/elements/1.1/">
 <metadata>
  <rdf:RDF>
   <cc:Work rdf:about="">
    <dc:format>image/svg+xml</dc:format>
    <dc:type rdf:resource="http://purl.org/dc/dcmitype/StillImage"/>
    <dc:title/>
   </cc:Work>
  </rdf:RDF>
 </metadata>
 <path fill="#fde134" d="m600,439.4c0.0922-35.787-13.915-72.33-41.281-99.626l-52.136-52.134,47.09-47.09c27.37-27.33,41.35-63.88,41.26-99.64,0.09-35.78-13.89-72.322-41.24-99.621-27.33-27.386-63.9-41.377-99.67-41.289-14.23-0.03353-28.58,2.1921-42.44,6.5762-22.59,6.5934-52.95,19.804-83.12,33.027-42.35,18.635-84.31,37.22-101.42,37.153-2.3446,0-4.1784-0.35626-5.3834-0.99754l-1.1166-0.57421c-22.65-15.508-50.3-24.7-79.63-24.679-38.66-0.029-74.405,15.91-99.638,41.289-25.369,25.245-41.308,60.985-41.272,99.635v205.09c-0.036019,38.65,15.903,74.398,41.272,99.638,15.074,15.156,33.919,26.905,54.872,33.939l-0.01006,116.01c0.01635,45.393,36.797,82.172,82.17,82.172l246.47-0.005c45.367,0.005,82.155-36.782,82.159-82.167v-74.182c18.949-6.8453,36.771-17.835,51.788-32.877,27.353-27.268,41.373-63.846,41.281-99.645"/>
 <g fill="#ed1345">
  <path d="M462.28,400.83,352.67,290.01,457.28,184.24c22.365-22.612,22.365-59.278,0-81.899-22.365-22.616-58.64-22.616-81.004,0l-185.47,187.54,190.47,192.85c22.37,22.612,58.638,22.633,80.999,0,22.386-22.609,22.386-59.283,0-81.892"/>
  <path d="m164.36,398.9c0,31.985-25.642,57.908-57.282,57.908-31.625,0-57.271-25.923-57.271-57.908v-205.09c0-31.988,25.646-57.924,57.271-57.924,31.64,0.004,57.282,25.944,57.282,57.924v205.09"/>
 </g>
 <g fill="#1a64b7">
  <path d="m173.81,615.97c-1.5799,0.0153-3.1497,0.76538-4.5312,2.1875l-26.406,26.781,26.438,26.875c2.2482,2.472,5.7347,2.8128,8.125,0.78125,1.2197-1.0269,1.9974-2.5619,2.0938-4.2188,0.0101-0.13244,0-0.27715,0-0.40625,0.0101-1.3592-0.43143-2.611-1.25-3.5-0.005-0.003-19.562-19.656-19.562-19.656l19.59-19.43c0.86258-0.94808,1.3057-2.4465,1.1875-4.0312-0.14711-1.6636-0.89377-3.167-2.0938-4.0938-1.1188-0.87101-2.365-1.2932-3.5938-1.2812z"/>
  <path d="m247.47,616.84c-2.8736,0-5.1462,2.2468-5.1562,5.125l0.0312,35.094c-0.0101,7.6115,6.6377,13.812,14.812,13.812h33.312c2.957,0,5.375-2.3187,5.375-5.1562-0.008-2.7998-2.369-5-5.375-5l-33.688,0.0312c-2.423,0-4.1562-1.5077-4.1562-3.5312v-19.406c0-0.42,0.37-0.79,0.83-0.79h28.781c2.9532-0.0101,5.3637-2.3338,5.375-5.2188-0.005-2.7491-2.3644-4.9109-5.375-4.9062h-28.781c-0.45015,0-0.8125-0.35565-0.8125-0.8125v-4.0625c0-2.8883-2.2713-5.1562-5.1562-5.1562z"/>
  <path d="m426.38,616.84c-2.8711-0.008-5.1522,2.2422-5.1562,5.125v35.125c0.0126,7.6035,6.6622,13.781,14.844,13.781h33.312c2.9549,0,5.3518-2.3141,5.3438-5.1562-0.004-2.8028-2.3344-4.9818-5.3438-4.9688l-33.688-0.0312c-2.4142,0-4.1482-1.4613-4.1562-3.5v-19.406c0.008-0.44009,0.3724-0.7991,0.8125-0.8125h28.781c2.9591,0,5.367-2.3389,5.375-5.2188,0-2.7541-2.3656-4.9062-5.375-4.9062h-28.781c-0.45267-0.003-0.8085-0.36403-0.8125-0.8125v-4.0625c0.004-2.8929-2.26-5.1642-5.1562-5.1562z"/>
  <path d="m133.94,622.81c-3.0731,0-5.6072,2.481-5.5938,5.5625v36.625c0,3.0811,2.5207,5.5938,5.5938,5.5938,3.0744,0,5.5726-2.5077,5.5625-5.5938v-36.625c0-3.0815-2.4848-5.5625-5.5625-5.5625z"/>
  <path d="M197.41,626.88c-7.89,0-14.33,6.06-14.32,13.56v16.94c-0.01,7.44,6.4,13.5,14.25,13.5h33.25c2.85,0,5.16-2.28,5.16-5.07,0-2.8-2.32-5.09-5.16-5.09l-33.31,0.03c-2.11-0.01-3.87-1.67-3.87-3.66l-0.03-2.28c-0.02-0.44,0.36-0.79,0.81-0.78h27.34c7.99-0.01,14.22-5.97,14.22-13.59,0-7.36-6.49-13.56-14.22-13.56h-24.12zm-0.07,10.15l24.1,0.03c2.3-0.02,3.96,2.02,3.97,3.41,0,2.09-1.58,3.44-3.97,3.44h-27.25c-0.45-0.01-0.78-0.37-0.78-0.82l-0.03-2.56c0-1.66,1.64-3.49,3.96-3.5z"/>
  <path d="m314.03,626.88c-7.9388,0.008-14.385,6.0722-14.375,13.562v25.375c0,2.8472,2.2405,5.0625,5.125,5.0625,2.8816,0,5.1596-2.2287,5.1562-5.0625v-25.125c0-2.0236,1.8229-3.6875,4.0938-3.6875h27.344c2.2591,0.0101,4.1562,1.6737,4.1562,3.6562v25.156c0.003,2.8472,2.2667,5.0658,5.1562,5.0625,2.8899,0,5.1625-2.2204,5.1562-5.0625v-25.375c0.003-7.4904-6.4905-13.562-14.469-13.562h-27.344z"/>
  <path d="M376.69,626.88c-7.89,0-14.31,6.08-14.31,13.56l-0.04,16.94c0.01,7.44,6.39,13.5,14.25,13.5h33.29c2.82,0,5.15-2.28,5.15-5.07s-2.33-5.09-5.15-5.09l-33.35,0.03c-2.11,0-3.87-1.67-3.87-3.66v-2.28c0-0.44,0.35-0.78,0.81-0.78h27.31c7.98,0.01,14.25-5.98,14.25-13.59,0-7.35-6.54-13.56-14.25-13.56h-24.09zm-0.1,10.15l24.1,0.03c2.3,0,3.97,2.02,3.97,3.41-0.01,2.08-1.54,3.44-3.94,3.44h-27.25c-0.45,0-0.81-0.37-0.81-0.82v-2.53c-0.01-1.66,1.6-3.53,3.93-3.53z"/>
 </g>
</svg>
