<?xml version="1.0" encoding="UTF-8" standalone="no"?>
<!-- Created with Inkscape (http://www.inkscape.org/) -->

<svg
   xmlns:dc="http://purl.org/dc/elements/1.1/"
   xmlns:cc="http://creativecommons.org/ns#"
   xmlns:rdf="http://www.w3.org/1999/02/22-rdf-syntax-ns#"
   xmlns:svg="http://www.w3.org/2000/svg"
   xmlns="http://www.w3.org/2000/svg"
   version="1.1"
   width="600.00024"
   height="381.85901"
   id="svg3038">
  <metadata
     id="metadata3001">
    <rdf:RDF>
      <cc:Work
         rdf:about="">
        <dc:format>image/svg+xml</dc:format>
        <dc:type
           rdf:resource="http://purl.org/dc/dcmitype/StillImage" />
        <dc:title></dc:title>
      </cc:Work>
    </rdf:RDF>
  </metadata>
  <defs
     id="defs3040" />
  <g
     transform="scale(1.4962599,1.4962599)"
     id="g3005">
    <path
       d="M -3.0347503e-7,255.209 401,255.209 401,-5.8773395e-7 l -401.00000030347507,0 0,255.20900058773395 z"
       id="path22"
       style="fill:#000000;fill-opacity:1;fill-rule:nonzero;stroke:none" />
    <path
       d="m 252.92298,149.29139 33.13621,0 0.002,0.002 4.27041,0 11.77461,33.69263 11.7746,-33.69263 5.09275,0 -14.89249,41.64879 -3.95132,0 -13.47642,-37.66937 -17.23883,0 0,37.66937 -4.44028,0 0,-37.66937 -12.05242,0 0,-3.9818 z m -31.3709,41.65117 0,-37.66936 -12.05242,0 0,-3.98181 28.54988,0 0,3.98181 -12.04924,0 0,37.66936 z m -30.6708,-41.64879 0,37.67063 19.64868,0 0,3.97816 -24.09531,0 0,-41.64879 z m -41.7515,0 25.85571,0 0,3.97943 -21.40955,0 0,14.67944 18.24563,0 0,3.97498 -18.24563,0 0,15.03678 21.40955,0 0,3.97816 -25.85571,0 z m -49.724637,41.64879 4.151037,0 9.24236,-33.34719 9.24362,33.34719 4.15104,0 10.64937,-41.64879 -4.73651,0 -8.13157,33.57596 -9.18664,-33.57596 -3.97307,0 -9.18648,33.57596 -8.132366,-33.57596 -4.733971,0 z m 143.352977,0 0,-5.50122 5.49756,0 0,5.50122 -5.49756,0 m 35.65083,-90.69064 c 0,13.94284 0.70486,17.29091 3.45761,20.34941 2.03202,2.33476 5.29119,3.86084 9.15362,3.86084 3.86877,0 7.03586,-1.52608 9.05836,-3.86084 2.74323,-3.0585 3.56238,-6.40657 3.56238,-20.34941 0,-13.943463 -0.81915,-17.299471 -3.56238,-20.349088 -2.0225,-2.336823 -5.18959,-3.867188 -9.05836,-3.867188 -3.86243,0 -7.1216,1.530365 -9.15362,3.867188 -2.75275,3.049617 -3.45761,6.405625 -3.45761,20.349088 z m -14.14635,0 c 0,-12.511524 -0.20161,-21.566712 7.12318,-28.888334 5.08005,-5.0864 11.39678,-7.943928 19.6344,-7.943928 8.24873,0 14.45432,2.857528 19.52961,7.943928 7.33432,7.321622 7.22796,16.37681 7.22796,28.888334 0,12.5136 0.10636,21.57418 -7.22796,28.89596 -5.07529,5.08989 -11.28088,7.94441 -19.52961,7.94441 -8.23762,0 -14.55435,-2.85452 -19.6344,-7.94441 -7.32479,-7.32178 -7.12318,-16.38236 -7.12318,-28.89596 z m -14.24319,-36.229006 -14.15111,0 0,44.369476 -28.7007,-44.369476 -12.62074,0 0,72.452936 14.15587,0 0,-44.466624 28.69435,44.466624 12.62233,0 z m -75.03392,-0.0053 -14.14159,0 0,72.457696 14.14159,0 z m -70.53808,0.0053 0,31.555047 25.5509,-31.555047 17.19105,0 -24.00069,28.800707 25.72838,43.652229 -16.48111,0 -18.61917,-32.96142 -9.36936,11.18087 0,21.78055 -14.133333,0 0,-72.452936 14.133333,0 m -68.310953,156.076596 328.865113,0 0,-15.20174 -328.865113,0 z M 365.00157,35.111081 l 0,15.192524 -328.865113,0 0,-15.192524 328.865113,0"
       id="path30"
       style="fill:#ffffff;fill-opacity:1;fill-rule:nonzero;stroke:none" />
  </g>
</svg>
