<?xml version="1.0" encoding="UTF-8" standalone="no"?>
<svg xmlns:rdf="http://www.w3.org/1999/02/22-rdf-syntax-ns#" xmlns="http://www.w3.org/2000/svg" height="78.437mm" width="169.33mm" version="1.1" xmlns:cc="http://creativecommons.org/ns#" xmlns:dc="http://purl.org/dc/elements/1.1/" viewBox="0 0 599.99998 277.92785">
 <g transform="translate(-58.921 -219.54)" fill="#0492d2">
  <path d="m149.66 219.54-90.739 224.16 295.42 53.77-114.92-153.31 128.22-108.38-217.98-16.24z"/>
  <path d="m453.81 406.3c1.93 3.41 0.59 7.87-2.82 9.8-3.55 1.93-8.01 0.59-9.94-2.96l-29.83-54.91-13.06 16.46v35.02c0 4.01-3.27 7.27-7.28 7.27-3.99 0-7.26-3.26-7.26-7.27v-105.96c0-4.01 3.27-7.28 7.26-7.28 4.01 0 7.28 3.27 7.28 7.28v47.64l41.57-52.25c2.51-3.1 6.95-3.55 10.22-1.03 3.12 2.37 3.57 6.97 1.04 10.09l-29.84 37.7 32.66 60.4z"/>
  <path d="m473.77 303.75c0-4.01 3.27-7.27 7.26-7.27 4.01 0 7.28 3.26 7.28 7.27v105.96c0 4.01-3.27 7.28-7.28 7.28-3.99 0-7.26-3.27-7.26-7.28v-105.96z"/>
  <path d="m540.3 296.48c8.16 0 15.44 1.93 21.07 5.64 6.54 4.01 10.69 10.24 12.46 17.66 1.04 3.86-1.18 7.71-5.33 8.47-3.72 1.19-7.72-1.2-8.75-4.91-2.53-10.69-13.36-12.17-19.45-12.17-6.53 0-18.1 1.93-18.1 15.29 0 9.49 7.11 14.1 23.74 21.37 6.53 2.67 13.66 5.8 19.44 10.98 7.42 6.24 10.98 15.58 10.98 25.83 0 9.19-4 17.94-11.13 24.04-6.67 5.35-15.43 8.31-25.09 8.31-18.99 0-32.78-10.69-35.31-26.72-0.45-4.01 2.39-7.72 6.25-8.16 4.13-0.74 7.71 2.08 8.45 6.07 1.77 13.08 16.17 13.97 20.61 13.97 10.26 0 21.83-5.49 21.83-17.51 0-12.46-8.16-17.82-21.83-23.45-15.87-6.97-32.64-14.84-32.64-34.73 0-9.21 3.42-16.92 9.79-22.26 5.94-5.05 13.81-7.72 23.01-7.72"/>
  <path d="m622.85 296.48c8.16 0 15.44 1.93 21.07 5.64 6.54 4.01 10.69 10.24 12.47 17.66 1.03 3.86-1.19 7.71-5.34 8.47-3.7 1.19-7.71-1.2-8.75-4.91-2.53-10.69-13.36-12.17-19.45-12.17-6.53 0-18.1 1.93-18.1 15.29 0 9.49 7.13 14.1 23.74 21.37 6.53 2.67 13.66 5.8 19.44 10.98 7.42 6.24 10.99 15.58 10.99 25.83 0 9.19-4.01 17.94-11.14 24.04-6.68 5.35-15.43 8.31-25.07 8.31-19.01 0-32.8-10.69-35.33-26.72-0.45-4.01 2.38-7.72 6.25-8.16 4.13-0.74 7.71 2.08 8.45 6.07 1.78 13.08 16.17 13.97 20.63 13.97 10.24 0 21.81-5.49 21.81-17.51 0-12.46-8.16-17.82-21.81-23.45-15.89-6.97-32.66-14.84-32.66-34.73 0-9.21 3.42-16.92 9.81-22.26 5.93-5.05 13.79-7.72 22.99-7.72"/>
 </g>
</svg>
