<?xml version="1.0" encoding="UTF-8" standalone="no"?>
<!-- Created with Inkscape (http://www.inkscape.org/) -->

<svg
   xmlns:dc="http://purl.org/dc/elements/1.1/"
   xmlns:cc="http://creativecommons.org/ns#"
   xmlns:rdf="http://www.w3.org/1999/02/22-rdf-syntax-ns#"
   xmlns:svg="http://www.w3.org/2000/svg"
   xmlns="http://www.w3.org/2000/svg"
   version="1.1"
   width="600"
   height="210.55061"
   id="svg5258">
  <defs
     id="defs5260">
    <clipPath
       id="clipPath4023">
      <path
         d="m 804.703,154.89 c 0,0 -1.217,0 -1.217,-1.218 l 0,0 0,-17.726 c 0,0 0,-1.218 1.217,-1.218 l 0,0 31.839,0 c 0,0 1.218,0 1.218,1.218 l 0,0 0,17.726 c 0,0 0,1.218 -1.218,1.218 l 0,0 -31.839,0 z"
         id="path4025" />
    </clipPath>
  </defs>
  <metadata
     id="metadata5263">
    <rdf:RDF>
      <cc:Work
         rdf:about="">
        <dc:format>image/svg+xml</dc:format>
        <dc:type
           rdf:resource="http://purl.org/dc/dcmitype/StillImage" />
        <dc:title></dc:title>
      </cc:Work>
    </rdf:RDF>
  </metadata>
  <g
     transform="translate(-3.3823622,-427.08747)"
     id="layer1">
    <g
       transform="matrix(1.1839825,0,0,1.1839825,-55.817056,-97.945455)"
       id="g5540">
      <g
         transform="matrix(2.1031925,0,0,2.0425402,1232.6317,-13007.31)"
         id="g4027">
        <path
           d="m -321.353,6605.608 -240.95,0 0,56.693 240.95,0 0,-56.693 z"
           id="path4029"
           style="fill:#231f20;fill-opacity:1;fill-rule:nonzero;stroke:none" />
      </g>
      <g
         transform="matrix(2.1031925,0,0,2.0425402,1232.6317,-13007.31)"
         id="g4031">
        <g
           transform="translate(-551.7858,6602.0845)"
           id="g4033">
          <path
             d="M 0,0 8.631,70.288 177.395,49.567 172.736,11.61 136.421,-16.75 0,0 z"
             id="path4035"
             style="fill:#9ac74a;fill-opacity:1;fill-rule:nonzero;stroke:none" />
        </g>
      </g>
      <g
         transform="matrix(2.1031925,0,0,2.0425402,1232.6317,-13007.31)"
         id="g4037">
        <g
           transform="translate(-544.4177,6662.3013)"
           id="g4039">
          <path
             d="m 0,0 83.497,0 86.558,-10.628 -4.664,-37.992 -10.338,-8.073 -162.014,0 L 0,0 z"
             id="path4041"
             style="fill:#81bc29;fill-opacity:1;fill-rule:nonzero;stroke:none" />
        </g>
      </g>
      <g
         transform="matrix(2.1031925,0,0,2.0425402,1232.6317,-13007.31)"
         id="g4043">
        <g
           transform="translate(-443.2744,6633.897)"
           id="g4045">
          <path
             d="M 0,0 0.009,0.01 0,0 z"
             id="path4047"
             style="fill:#ffffff;fill-opacity:1;fill-rule:nonzero;stroke:none" />
        </g>
      </g>
      <g
         transform="matrix(2.1031925,0,0,2.0425402,1232.6317,-13007.31)"
         id="g4049">
        <g
           transform="translate(-467.3542,6633.897)"
           id="g4051">
          <path
             d="M 0,0 C 0.005,0.01 0.005,0.01 0.01,0.01 0.005,0.01 0.005,0.01 0,0"
             id="path4053"
             style="fill:#ffffff;fill-opacity:1;fill-rule:nonzero;stroke:none" />
        </g>
      </g>
      <g
         transform="matrix(2.1031925,0,0,2.0425402,1232.6317,-13007.31)"
         id="g4055">
        <g
           transform="translate(-503.5358,6638.9492)"
           id="g4057">
          <path
             d="m 0,0 0,0 c -0.004,0 -0.004,-0.009 -0.004,-0.009 0,0 0,0.009 0.004,0.009"
             id="path4059"
             style="fill:#ffffff;fill-opacity:1;fill-rule:nonzero;stroke:none" />
        </g>
      </g>
      <g
         transform="matrix(2.1031925,0,0,2.0425402,1232.6317,-13007.31)"
         id="g4061">
        <g
           transform="translate(-516.9382,6638.9492)"
           id="g4063">
          <path
             d="M 0,0 0.005,0 0,0 z"
             id="path4065"
             style="fill:#ffffff;fill-opacity:1;fill-rule:nonzero;stroke:none" />
        </g>
      </g>
      <g
         transform="matrix(2.1031925,0,0,2.0425402,1232.6317,-13007.31)"
         id="g4067">
        <g
           transform="translate(-483.2316,6623.7266)"
           id="g4069">
          <path
             d="m 0,0 c -7.003,0 -12.698,5.7 -12.698,12.692 0,7.002 5.695,12.701 12.698,12.701 5.011,0 9.569,-2.966 11.603,-7.547 0.082,-0.184 0.063,-0.397 -0.048,-0.554 -0.112,-0.175 -0.301,-0.268 -0.499,-0.268 l -3.459,0 c -0.199,0 -0.379,0.102 -0.495,0.268 -1.57,2.43 -4.226,3.861 -7.102,3.861 -4.67,0 -8.466,-3.786 -8.466,-8.461 0,-4.655 3.796,-8.451 8.466,-8.451 3.021,0 5.837,1.625 7.343,4.258 0.11,0.185 0.3,0.295 0.512,0.295 l 3.391,0 c 0.188,0 0.373,-0.102 0.484,-0.259 C 11.832,8.37 11.854,8.166 11.786,7.981 9.846,3.132 5.218,0 0,0"
             id="path4071"
             style="fill:#ffffff;fill-opacity:1;fill-rule:nonzero;stroke:none" />
        </g>
      </g>
      <g
         transform="matrix(2.1031925,0,0,2.0425402,1232.6317,-13007.31)"
         id="g4073">
        <g
           transform="translate(-414.3904,6617.7046)"
           id="g4075">
          <path
             d="m 0,0 -3.102,0 c -0.325,0 -0.583,0.259 -0.583,0.583 l 0,3.093 c 0,0.333 0.258,0.592 0.583,0.592 l 3.102,0 c 0.335,0 0.592,-0.259 0.592,-0.592 l 0,-3.093 C 0.592,0.259 0.335,0 0,0"
             id="path4077"
             style="fill:#ffffff;fill-opacity:1;fill-rule:nonzero;stroke:none" />
        </g>
      </g>
      <g
         transform="matrix(2.1031925,0,0,2.0425402,1232.6317,-13007.31)"
         id="g4079">
        <g
           transform="translate(-531.1857,6634.8765)"
           id="g4081">
          <path
             d="m 0,0 8.664,-9.634 c 0.134,-0.176 0.167,-0.416 0.069,-0.619 -0.102,-0.203 -0.305,-0.333 -0.53,-0.333 l -3.921,0 c -0.181,0 -0.347,0.084 -0.462,0.222 l -9.676,10.937 0,-19.01 c 0,-0.323 -0.263,-0.592 -0.582,-0.592 l -3.063,0 c -0.318,0 -0.586,0.269 -0.586,0.592 l 0,31.517 c 0,0.333 0.268,0.591 0.586,0.591 l 3.063,0 c 0.319,0 0.582,-0.258 0.582,-0.591 l 0,-5.58 3.256,-4.175 7.094,10.124 c 0.111,0.138 0.277,0.222 0.457,0.222 l 3.921,0 c 0.223,0 0.435,-0.139 0.522,-0.342 C 9.5,13.125 9.468,12.876 9.324,12.7 L 0,0 z"
             id="path4083"
             style="fill:#ffffff;fill-opacity:1;fill-rule:nonzero;stroke:none" />
        </g>
      </g>
      <g
         transform="matrix(2.1031925,0,0,2.0425402,1232.6317,-13007.31)"
         id="g4085">
        <g
           transform="translate(-414.4134,6624.2905)"
           id="g4087">
          <path
             d="m 0,0 -3.051,0 c -0.333,0 -0.588,0.259 -0.588,0.591 l 0,23.084 c 0,0.324 0.255,0.591 0.588,0.591 l 3.051,0 c 0.324,0 0.589,-0.267 0.589,-0.591 l 0,-23.084 C 0.589,0.259 0.324,0 0,0"
             id="path4089"
             style="fill:#ffffff;fill-opacity:1;fill-rule:nonzero;stroke:none" />
        </g>
      </g>
      <g
         transform="matrix(2.1031925,0,0,2.0425402,1232.6317,-13007.31)"
         id="g4091">
        <g
           transform="translate(-439.5594,6633.897)"
           id="g4093">
          <path
             d="m 0,0 0.004,0 0.005,0.01 c 0,0 -0.005,0 -0.009,-0.01 m 6.7,-10.161 c -5.809,0 -10.613,4.711 -10.751,10.503 -0.004,0.028 -0.008,0.046 -0.008,0.074 l 0,13.661 c 0,0.323 0.267,0.591 0.586,0.591 l 3.053,0 c 0.327,0 0.589,-0.268 0.589,-0.591 l 0,-13.661 C 0.272,-3.15 3.14,-5.939 6.7,-5.939 c 3.567,0 6.434,2.789 6.535,6.355 l 0,13.661 c 0,0.323 0.26,0.591 0.587,0.591 l 3.053,0 c 0.322,0 0.586,-0.268 0.586,-0.591 l 0,-13.661 C 17.461,0.388 17.452,0.37 17.452,0.342 17.319,-5.45 12.505,-10.161 6.7,-10.161"
             id="path4095"
             style="fill:#ffffff;fill-opacity:1;fill-rule:nonzero;stroke:none" />
        </g>
      </g>
      <g
         transform="matrix(2.1031925,0,0,2.0425402,1232.6317,-13007.31)"
         id="g4097">
        <g
           transform="translate(-398.0624,6644.8892)"
           id="g4099">
          <path
             d="m 0,0 c -4.665,0 -8.462,-3.787 -8.462,-8.461 0,-4.655 3.797,-8.461 8.462,-8.461 4.669,0 8.461,3.806 8.461,8.461 C 8.461,-3.787 4.669,0 0,0 m 12.108,-20.589 -3.057,0 c -0.319,0 -0.59,0.258 -0.59,0.582 l 0,2.106 C 6.152,-19.98 3.135,-21.153 0,-21.153 c -6.998,0 -12.692,5.69 -12.692,12.692 0,7.001 5.694,12.691 12.692,12.691 3.135,0 6.152,-1.163 8.461,-3.233 l 0,2.088 c 0,0.332 0.271,0.591 0.59,0.591 l 3.057,0 c 0.32,0 0.588,-0.259 0.588,-0.591 l 0,-23.092 c 0,-0.324 -0.268,-0.582 -0.588,-0.582"
             id="path4101"
             style="fill:#ffffff;fill-opacity:1;fill-rule:nonzero;stroke:none" />
        </g>
      </g>
      <g
         transform="matrix(2.1031925,0,0,2.0425402,1232.6317,-13007.31)"
         id="g4103">
        <g
           transform="translate(-464.384,6633.897)"
           id="g4105">
          <path
             d="M 0,0 0,0 0.004,0.01 0,0 z m 6.697,-10.161 c -2.387,0 -4.665,0.786 -6.531,2.218 l 0,-9.496 c 0,-0.324 -0.263,-0.582 -0.582,-0.582 l -3.058,0 c -0.333,0 -0.59,0.258 -0.59,0.582 l 0,31.516 c 0,0.333 0.257,0.591 0.59,0.591 l 3.058,0 c 0.157,0 0.31,-0.064 0.416,-0.175 0.097,-0.101 0.166,-0.25 0.166,-0.416 l 0,-13.661 c 0.107,-3.566 2.97,-6.355 6.531,-6.355 3.565,0 6.434,2.789 6.534,6.355 l 0,13.661 c 0,0.323 0.259,0.591 0.588,0.591 l 3.058,0 c 0.317,0 0.586,-0.268 0.586,-0.591 l 0,-13.661 C 17.463,0.388 17.459,0.37 17.448,0.342 17.31,-5.45 12.502,-10.161 6.697,-10.161"
             id="path4107"
             style="fill:#ffffff;fill-opacity:1;fill-rule:nonzero;stroke:none" />
        </g>
      </g>
      <g
         transform="matrix(2.1031925,0,0,2.0425402,1232.6317,-13007.31)"
         id="g4109">
        <g
           transform="translate(-502.1315,6638.9492)"
           id="g4111">
          <path
             d="M 0,0 C 0,0 0,-0.009 -0.008,-0.009 0,-0.009 0,0 0,0 m -13.403,0 z m 16.872,-14.659 -3.043,0 c -0.328,0 -0.592,0.259 -0.592,0.592 l 0,13.662 c -0.097,3.564 -2.964,6.354 -6.531,6.354 -3.565,0 -6.432,-2.79 -6.535,-6.354 l 0.005,0 0,-13.662 c 0,-0.333 -0.263,-0.592 -0.591,-0.592 l -3.057,0 c -0.319,0 -0.582,0.259 -0.582,0.592 l 0,13.662 c 0,0.027 0.004,0.045 0.009,0.064 0.135,5.792 4.947,10.502 10.751,10.502 5.801,0 10.61,-4.701 10.757,-10.493 l 0,-0.073 0,-13.662 c 0,-0.333 -0.258,-0.592 -0.591,-0.592"
             id="path4113"
             style="fill:#ffffff;fill-opacity:1;fill-rule:nonzero;stroke:none" />
        </g>
      </g>
      <g
         transform="matrix(2.1031925,0,0,2.0425402,1232.6317,-13007.31)"
         id="g4115">
        <g
           transform="translate(-510.8049,6618.7856)"
           id="g4117">
          <path
             d="m 0,0 c -1.03,-1.783 -1.227,-3.427 -0.544,-4.646 0.221,-0.398 0.536,-0.739 0.932,-1.026 0.075,-0.055 0.097,-0.147 0.061,-0.23 -0.042,-0.065 -0.125,-0.111 -0.209,-0.093 -1.229,0.333 -2.133,0.97 -2.628,1.848 -0.734,1.321 -0.54,3.076 0.564,4.941 1.04,1.783 1.234,3.437 0.555,4.665 -0.223,0.388 -0.546,0.73 -0.933,1.016 -0.075,0.046 -0.097,0.149 -0.065,0.222 0.037,0.074 0.124,0.11 0.208,0.092 C -0.84,6.466 0.075,5.829 0.573,4.941 1.307,3.63 1.11,1.875 0,0"
             id="path4119"
             style="fill:#ffffff;fill-opacity:1;fill-rule:nonzero;stroke:none" />
        </g>
      </g>
      <g
         transform="matrix(2.1031925,0,0,2.0425402,1232.6317,-13007.31)"
         id="g4121">
        <g
           transform="translate(-507.6691,6618.7856)"
           id="g4123">
          <path
             d="m 0,0 c -1.034,-1.783 -1.233,-3.427 -0.548,-4.646 0.221,-0.398 0.53,-0.749 0.936,-1.026 0.065,-0.055 0.089,-0.147 0.056,-0.23 -0.04,-0.065 -0.12,-0.111 -0.203,-0.093 -1.224,0.333 -2.138,0.97 -2.633,1.848 -0.744,1.321 -0.54,3.076 0.559,4.933 l 0.004,0.008 c 1.04,1.783 1.234,3.437 0.55,4.665 -0.217,0.388 -0.535,0.73 -0.932,1.016 -0.074,0.046 -0.093,0.149 -0.056,0.222 0.033,0.074 0.12,0.11 0.202,0.092 C -0.845,6.466 0.07,5.829 0.56,4.941 1.308,3.63 1.1,1.875 0,0"
             id="path4125"
             style="fill:#ffffff;fill-opacity:1;fill-rule:nonzero;stroke:none" />
        </g>
      </g>
      <g
         transform="matrix(2.1031925,0,0,2.0425402,1232.6317,-13007.31)"
         id="g4127">
        <g
           transform="translate(-504.5368,6618.7856)"
           id="g4129">
          <path
             d="m 0,0 c -1.035,-1.783 -1.234,-3.427 -0.55,-4.646 0.227,-0.398 0.541,-0.749 0.934,-1.026 0.073,-0.055 0.091,-0.147 0.055,-0.23 -0.038,-0.065 -0.12,-0.111 -0.205,-0.093 -1.218,0.333 -2.129,0.97 -2.626,1.848 -0.74,1.321 -0.537,3.076 0.562,4.941 1.035,1.783 1.233,3.437 0.556,4.665 -0.232,0.388 -0.537,0.73 -0.938,1.016 -0.07,0.046 -0.088,0.149 -0.06,0.222 0.036,0.074 0.128,0.11 0.204,0.092 C -0.841,6.466 0.069,5.829 0.567,4.941 1.302,3.63 1.104,1.875 0,0"
             id="path4131"
             style="fill:#ffffff;fill-opacity:1;fill-rule:nonzero;stroke:none" />
        </g>
      </g>
      <g
         transform="matrix(2.1031925,0,0,2.0425402,1232.6317,-13007.31)"
         id="g4133">
        <g
           transform="translate(-344.6604,6637.1479)"
           id="g4135">
          <path
             d="m 0,0 0,11.378 c 0,0.426 -0.086,0.597 -0.423,0.597 l -8.677,0 c -0.287,0 -0.464,-0.215 -0.464,-0.513 l 0,-11.377 c 0,-0.467 -0.165,-0.633 -0.547,-0.633 l -11.25,0 c -0.339,0 -0.508,-0.21 -0.508,-0.595 l 0,-8.626 c 0,-0.335 0.128,-0.503 0.47,-0.503 l 11.33,0 c 0.34,0 0.505,-0.166 0.505,-0.551 l 0,-9.768 c 0,-0.255 0.177,-0.427 0.423,-0.427 l 8.632,0 c 0.341,0 0.509,0.128 0.509,0.427 l 0,9.768 c 0,0.461 0.086,0.551 0.465,0.551 l 11.339,0 c 0.332,0 0.459,0.168 0.459,0.547 l 0,8.67 c 0,0.297 -0.164,0.507 -0.459,0.507 l -11.212,0 C 0.127,-0.548 0,-0.46 0,0"
             id="path4137"
             style="fill:#ffffff;fill-opacity:1;fill-rule:nonzero;stroke:none" />
        </g>
      </g>
      <g
         transform="matrix(2.1031925,0,0,2.0425402,1232.6317,-13007.31)"
         id="g4139">
        <g
           transform="translate(-415.3544,6585.3081)"
           id="g4141">
          <path
             d="M 0,0 3.973,32.356 36.329,28.383 0,0 z"
             id="path4143"
             style="fill:#b3d471;fill-opacity:1;fill-rule:nonzero;stroke:none" />
        </g>
      </g>
    </g>
  </g>
</svg>
