<?xml version="1.0" encoding="UTF-8" standalone="no"?>
<svg xmlns:rdf="http://www.w3.org/1999/02/22-rdf-syntax-ns#" xmlns="http://www.w3.org/2000/svg" height="600.85" width="600" version="1.1" xmlns:cc="http://creativecommons.org/ns#" xmlns:dc="http://purl.org/dc/elements/1.1/" viewBox="0 0 158.75 158.97557">
 <g transform="translate(212.38 -385.59)">
  <path d="m-132.83 385.59 79.196 79.66-79.406 79.32-79.34-79.24z"/>
  <path d="m-95.559 477.26c0 10.01-2.378 18.97-10.801 26.72-8 7.2-15 11.1-25.73 11.33-12 0.26-18.99-3.37-26.91-10.73-6.11-6.3-11.46-14.33-11.46-27.01 0-7.13 1.86-11.45 5.28-18.03 3-5.71 8.98-11.31 17.25-19.43l25.76-25.27 15.49 15.11-12.76 13.18c9.05 4.31 9.08 4.7 14.9 10.55 7.006 7.26 9.057 17.36 8.981 23.58zm-22.121 1.46c0-3.92-1.04-8.1-4.04-11.19-4.15-3.77-7.16-5.08-11.24-5.08-4.09 0-7.71 2-10.71 4.78s-4.35 7.34-4.35 11.26c0 3.83 1.81 7.75 4.81 10.53s6.93 4.01 11.01 4.01c4.09 0 7.1-1.54 10.1-4.32 3-2.77 4.42-6.16 4.42-9.99z" fill="#00ccfd"/>
 </g>
</svg>
