<?xml version="1.0" encoding="UTF-8" standalone="no"?>
<!-- Created with Inkscape (http://www.inkscape.org/) -->

<svg
   xmlns:dc="http://purl.org/dc/elements/1.1/"
   xmlns:cc="http://creativecommons.org/ns#"
   xmlns:rdf="http://www.w3.org/1999/02/22-rdf-syntax-ns#"
   xmlns:svg="http://www.w3.org/2000/svg"
   xmlns="http://www.w3.org/2000/svg"
   version="1.0"
   width="600.00037"
   height="456.19"
   id="svg2">
  <metadata
     id="metadata3405">
    <rdf:RDF>
      <cc:Work
         rdf:about="">
        <dc:format>image/svg+xml</dc:format>
        <dc:type
           rdf:resource="http://purl.org/dc/dcmitype/StillImage" />
        <dc:title></dc:title>
      </cc:Work>
    </rdf:RDF>
  </metadata>
  <defs
     id="defs3403" />
  <g
     transform="translate(-72.450035,-404.76937)"
     id="layer1">
    <g
       transform="matrix(11.111138,0,0,11.111138,-12200.923,-4308.5797)"
       id="g9198">
      <path
         d="m 1104.6009,448.76819 2.66,0 0,-9.791 -2.66,0 0,9.791 z"
         id="path5101"
         style="fill:#e5258c;fill-rule:nonzero;stroke:none" />
      <g
         transform="matrix(1,0,0,-1,204.4588,820.12919)"
         id="g5103">
        <g
           transform="translate(911.5311,375.5292)"
           id="g5105">
          <path
             d="m 0,0 c 0,0 0.182,1.425 -0.74,1.425 l -2.942,0 c 0,0 -0.441,0.041 -0.441,-0.568 l -2.382,0 c 0,1.69 1.784,2.008 1.784,2.008 l 4.822,0 c 0,0 1.871,-0.354 1.871,-1.959 l 0,-4.936 -1.813,0 0,0.617 c 0,0 -0.257,-0.593 -1.267,-0.593 l -3.641,0 c -1.145,0 -2.02,0.895 -2.02,2.025 0,1.134 0.774,1.981 1.987,1.981 L 0,0 z m -0.163,-1.81 c 0,0.271 -0.26,0.495 -0.579,0.495 l -3.254,0 c -0.319,0 -0.579,-0.224 -0.579,-0.495 l 0,-0.335 c 0,-0.275 0.26,-0.497 0.579,-0.497 l 3.254,0 c 0.319,0 0.579,0.222 0.579,0.497 l 0,0.335"
             id="path5107"
             style="fill:#e5258c;fill-rule:nonzero;stroke:none" />
        </g>
        <g
           transform="translate(913.182,375.3988)"
           id="g5109">
          <path
             d="M 0,0 C 0,11.338 9.169,20.53 20.48,20.53 31.791,20.53 40.96,11.338 40.96,0 40.96,-11.338 31.791,-20.527 20.48,-20.527 9.169,-20.527 0,-11.338 0,0"
             id="path5111"
             style="fill:#e5258c;fill-rule:nonzero;stroke:none" />
        </g>
        <g
           transform="translate(941.3924,378.6166)"
           id="g5113">
          <path
             d="m 0,0 0,-3.837 c 0,0 0.09,-1.379 -1.574,-1.379 l -2.061,0 c -0.713,0 -0.703,0.98 -0.703,0.98 l 0,4.236 -2.482,0 0,-4.236 c 0,0 -0.366,-2.734 2.535,-2.734 l 2.416,0 C 0.021,-6.97 0,-6.041 0,-6.041 l 0,-1.049 2.486,0 0,7.09 L 0,0"
             id="path5115"
             style="fill:#ffffff;fill-rule:nonzero;stroke:none" />
        </g>
        <g
           transform="translate(925.2229,376.5154)"
           id="g5117">
          <path
             d="m 0,0 c 0,0 0.273,2.059 1.984,2.059 l 4.386,0 c 2.056,0 2.01,-1.544 2.01,-1.544 l 0,-2.432 -5.954,0 c 0,0 -0.22,-1.604 0.662,-1.604 l 2.645,0 c 0.739,0 0.661,0.725 0.661,0.725 l 2.013,0 c 0,0 0.203,-2.165 -2.233,-2.165 l -3.968,0 C 0.241,-4.961 0,-2.779 0,-2.779 L 0,0 z m 6.438,-0.669 c 0,0 0.241,1.22 -0.786,1.22 -0.718,0 -1.576,0.035 -2.534,0.035 -0.96,0 -0.788,-1.255 -0.788,-1.255 l 4.108,0"
             id="path5119"
             style="fill:#ffffff;fill-rule:nonzero;stroke:none" />
        </g>
        <g
           transform="translate(921.7795,381.2261)"
           id="g5121">
          <path
             d="m 0,0 0,-3.143 c -0.293,0.272 -0.768,0.491 -1.54,0.491 l -2.882,0 c -1.709,0 -1.986,-2.059 -1.986,-2.059 l 0,-2.779 c 0,0 -0.265,-2.182 2.206,-2.182 l 2.467,0 c 0.879,0 1.411,0.281 1.735,0.64 l 0,-0.644 2.429,0 L 2.429,0 0,0 z m -0.315,-5.38 -0.042,-2.127 c 0,0 0.077,-0.725 -0.663,-0.725 l -2.646,0 c -0.881,0 -0.71,1.605 -0.71,1.605 l 0,1.247 c 0,0 -0.22,1.235 0.74,1.235 l 2.533,0 c 1.027,0 0.788,-1.235 0.788,-1.235"
             id="path5123"
             style="fill:#ffffff;fill-rule:nonzero;stroke:none" />
        </g>
        <g
           transform="translate(954.0535,371.5215)"
           id="g5125">
          <path
             d="M 0,0 -2.875,3.738 0,7.092 l -3.014,0 -1.376,-1.624 -1.58,1.624 -3.148,0 L -6.014,3.657 -9.118,0 -6.163,0 -4.462,1.903 -2.823,0"
             id="path5127"
             style="fill:#ffffff;fill-rule:nonzero;stroke:none" />
        </g>
      </g>
    </g>
  </g>
</svg>
