<?xml version="1.0" encoding="UTF-8" standalone="no"?>
<!-- Created with Inkscape (http://www.inkscape.org/) -->

<svg
   xmlns:dc="http://purl.org/dc/elements/1.1/"
   xmlns:cc="http://creativecommons.org/ns#"
   xmlns:rdf="http://www.w3.org/1999/02/22-rdf-syntax-ns#"
   xmlns:svg="http://www.w3.org/2000/svg"
   xmlns="http://www.w3.org/2000/svg"
   version="1.0"
   width="600"
   height="543.43671"
   id="svg2">
  <metadata
     id="metadata3437">
    <rdf:RDF>
      <cc:Work
         rdf:about="">
        <dc:format>image/svg+xml</dc:format>
        <dc:type
           rdf:resource="http://purl.org/dc/dcmitype/StillImage" />
        <dc:title></dc:title>
      </cc:Work>
    </rdf:RDF>
  </metadata>
  <defs
     id="defs3435" />
  <g
     transform="translate(-4.398278,-87.168388)"
     id="layer1">
    <g
       transform="matrix(1.7143113,0,0,1.7143113,-217.43513,-256.35683)"
       id="g3439">
      <path
         d="m 144.9067,378.78752 -15.50581,0 0,-58.7838 15.50581,0 0,58.7838 z"
         id="path9035"
         style="fill:#a664a1;fill-rule:nonzero;stroke:none" />
      <path
         d="m 192.1925,365.31324 c 0,-1.6691 -0.48394,-2.73574 -1.45182,-3.19993 -1.22467,-0.65183 -3.86164,-0.97775 -7.90105,-0.97775 l -6.81466,0 c -3.11103,0 -5.19493,0.34568 -6.26157,1.05677 -1.07652,0.7506 -1.60985,2.00488 -1.60985,3.74312 0,1.41232 0.61233,2.37031 1.837,2.89376 1.17527,0.60246 3.26905,0.89874 6.27145,0.89874 l 4.37521,0 c 4.93815,0 8.09857,-0.34567 9.48127,-1.05676 1.38267,-0.65184 2.07402,-1.76787 2.07402,-3.35795 m -16.3453,-12.92809 c 4.80976,0 8.33561,0.19753 10.57753,0.5827 2.2518,0.37529 4.06904,1.27405 5.45173,2.71599 l 0,-3.66412 c 0,-2.18266 -0.43456,-3.62461 -1.29381,-4.34558 -1.01725,-0.84935 -2.99252,-1.27403 -5.91591,-1.27403 l -9.09608,0 c -2.35057,0 -3.92089,0.18765 -4.70112,0.56294 -0.80987,0.42468 -1.21479,1.36293 -1.21479,2.80487 l -14.93299,0 c 0,-5.31346 1.45183,-8.88868 4.36533,-10.72568 2.50859,-1.54069 7.2196,-2.31105 14.133,-2.31105 l 17.94528,0 c 10.80468,0 16.2169,4.95791 16.2169,14.88361 l 0,27.16972 -14.67621,0 0,-4.7505 c -2.14316,2.2518 -4.00978,3.70363 -5.58999,4.36533 -1.58021,0.66172 -4.23694,0.99752 -7.97018,0.99752 l -10.54791,0 c -5.22456,0 -8.96768,-0.71111 -11.20962,-2.15304 -2.79499,-1.74812 -4.19743,-4.92828 -4.19743,-9.5504 l 0,-3.44683 c 0,-5.16532 1.89626,-8.53313 5.68877,-10.10347 2.84437,-1.17528 8.50351,-1.75798 16.9675,-1.75798"
         id="path9037"
         style="fill:#a664a1;fill-rule:nonzero;stroke:none" />
      <path
         d="m 204.8638,517.38672 0,-317 274.53187,158.49507 -274.53187,158.50493 z"
         id="path9039"
         style="fill:#a664a1;fill-rule:nonzero;stroke:none" />
      <path
         d="m 206.28008,348.74276 0,-11.20961 7.73316,0 0,-9.7183 15.50581,0 0,9.7183 23.9303,0 0,11.20961 -23.9303,0 0,15.85148 c 0,1.51108 0.48394,2.50858 1.44193,2.97277 0.96789,0.55308 2.46909,0.81974 4.51348,0.81974 2.4987,0 4.18755,-0.34567 5.0468,-1.05677 0.85923,-0.70121 1.29379,-2.01477 1.29379,-3.93077 l 0,-2.74562 13.4713,0 0,4.99742 c 0,4.20731 -1.37281,7.51587 -4.11843,9.92569 -3.01227,2.67648 -7.4665,4.01967 -13.35277,4.01967 l -6.09369,0 c -5.36283,0 -9.50101,-0.95801 -12.40465,-2.86413 -3.53572,-2.36045 -5.30357,-6.22208 -5.30357,-11.58493 l 0,-16.40455 -7.73316,0 z"
         id="path9041"
         style="fill:#ffffff;fill-rule:nonzero;stroke:none" />
      <path
         d="m 272.23013,337.53808 0,7.84179 c 0.9185,-3.0419 2.81476,-5.27395 5.69863,-6.70602 2.40982,-1.1654 5.58012,-1.7481 9.50101,-1.7481 5.63938,0 9.65904,1.24442 12.05898,3.74312 2.40982,2.48882 3.62461,6.64676 3.62461,12.47378 l -0.15802,3.58511 -13.35277,0 c 0,-2.78513 -0.46419,-4.73076 -1.38269,-5.84679 -1.07652,-1.27403 -3.0814,-1.916 -6.0048,-1.916 -2.85425,0 -5.05666,0.57283 -6.60725,1.69873 -1.61971,1.12591 -2.42957,2.90364 -2.42957,5.31346 l 0,23.00193 -15.50581,0 0,-41.44101 14.55768,0 z"
         id="path9043"
         style="fill:#ffffff;fill-rule:nonzero;stroke:none" />
      <path
         d="m 333.51166,367.92948 3.67399,0 c 4.85915,0 8.04919,-0.44443 9.5899,-1.3333 1.48144,-0.9185 2.22218,-2.74562 2.22218,-5.49124 l 0,-5.68875 c 0,-2.795 -0.74074,-4.632 -2.22218,-5.51099 -1.48145,-0.87899 -4.68136,-1.31354 -9.5899,-1.31354 l -3.67399,0 c -3.61473,0 -6.26158,0.56294 -7.94055,1.68885 -1.67898,1.12589 -2.50858,3.12091 -2.50858,5.99492 l 0,3.9604 c 0,2.8345 0.83948,4.80977 2.52833,5.92578 1.6691,1.17529 4.30607,1.76787 7.9208,1.76787 m -9.01707,-31.00174 23.07107,0 c 4.80976,0 8.59239,1.01724 11.36764,3.06165 3.71349,2.71598 5.57024,7.17021 5.57024,13.3429 l 0,9.89606 c 0,6.20233 -1.837,10.64666 -5.49124,13.34291 -2.77525,2.01476 -6.58751,3.02214 -11.44664,3.02214 l -23.07107,0 c -4.8394,0 -8.64178,-1.00738 -11.40714,-3.02214 -3.68387,-2.74562 -5.53073,-7.19984 -5.53073,-13.34291 l 0,-9.89606 c 0,-6.23196 1.81723,-10.67629 5.45171,-13.3429 2.76538,-2.04441 6.59739,-3.06165 11.48616,-3.06165"
         id="path9045"
         style="fill:#ffffff;fill-rule:nonzero;stroke:none" />
      <path
         d="m 372.1804,337.53414 15.50581,0 0,41.44101 -15.50581,0 0,-41.44101 z m 0,-17.34281 15.50581,0 0,12.12812 -15.50581,0 0,-12.12812 z"
         id="path9047"
         style="fill:#ffffff;fill-rule:nonzero;stroke:none" />
      <path
         d="m 419.80792,369.92547 5.51099,0 c 3.74312,0 6.21219,-0.22715 7.38748,-0.67158 1.18516,-0.37531 1.77772,-1.20491 1.77772,-2.50858 0,-1.24442 -0.46417,-2.14318 -1.38267,-2.70611 -0.90862,-0.47408 -2.68636,-0.7111 -5.30358,-0.7111 l -14.51819,0 c -7.23932,0 -12.14786,-1.01726 -14.7157,-3.06165 -2.64685,-1.97528 -3.97027,-5.83691 -3.97027,-11.5553 0,-4.70111 1.80737,-7.93067 5.43196,-9.70842 2.77525,-1.38267 7.25909,-2.07402 13.45154,-2.07402 l 10.77507,0 c 9.88618,0 16.36504,0.81974 19.43658,2.44933 2.99252,1.71848 4.48384,5.05668 4.48384,9.99483 l -15.4663,0 c -0.41481,-1.22466 -1.28393,-1.99502 -2.58761,-2.31106 -1.28391,-0.30617 -4.26656,-0.46419 -8.93805,-0.46419 -4.71101,0 -7.66402,0.15802 -8.84917,0.46419 -1.17528,0.31604 -1.76786,1.18515 -1.76786,2.58759 0,0.93826 0.59258,1.58021 1.76786,1.92588 1.12589,0.36543 3.6246,0.54321 7.47636,0.54321 l 10.73555,0 c 8.36525,0 14.01449,1.34316 16.91813,4.01965 1.99501,1.837 2.99252,5.03693 2.99252,9.59978 0,5.5406 -1.45181,9.22447 -4.36533,11.06147 -2.9629,1.86662 -8.84917,2.79499 -17.66872,2.79499 l -14.62682,0 c -7.21959,0 -12.26639,-0.97776 -15.15026,-2.95301 -2.91352,-1.98514 -4.36533,-5.54061 -4.36533,-10.65655 l 15.96998,0 c 0,1.35305 0.56296,2.34069 1.69873,2.94315 1.12591,0.6617 3.74312,0.9975 7.86155,0.9975"
         id="path9049"
         style="fill:#ffffff;fill-rule:nonzero;stroke:none" />
    </g>
  </g>
</svg>
