<?xml version="1.0" encoding="UTF-8" standalone="no"?>
<!-- Created with Inkscape (http://www.inkscape.org/) -->
<svg xmlns:rdf="http://www.w3.org/1999/02/22-rdf-syntax-ns#" xmlns="http://www.w3.org/2000/svg" height="484.97" width="600" version="1.1" xmlns:cc="http://creativecommons.org/ns#" xmlns:dc="http://purl.org/dc/elements/1.1/">
 <defs></defs>
 <metadata>
  <rdf:RDF>
   <cc:Work rdf:about="">
    <dc:format>image/svg+xml</dc:format>
    <dc:type rdf:resource="http://purl.org/dc/dcmitype/StillImage"/>
    <dc:title/>
   </cc:Work>
  </rdf:RDF>
 </metadata>
 <g transform="translate(-300.4583,-464.78807)">
  <g fill-rule="nonzero" transform="translate(1.8013742e-4,2.121813e-4)">
   <path d="m300.46,469.8,0,383.72,122.74-9.333,0-374.39-122.74,0z" fill="#381b45"/>
   <path d="m770.15,626.44,0,189.04,122.81-9.3759,0-179.66-122.81,0z" fill="#381b45"/>
   <path d="m831.54,602.66c38.19,0,68.914-30.767,68.914-68.957s-30.724-68.914-68.914-68.914-68.914,30.724-68.914,68.914,30.724,68.957,68.914,68.957" fill="#772c80"/>
   <path d="m661.78,858.51c-12.122,1.4375-24.566,2.2528-36.924,2.2528-43.425,0-67.669-8.4962-72.454-28.342l192.09-14.225c1.9095-18.194,2.5317-36.989,2.5317-53.917,0-79.555-27.591-147.85-142.89-147.85-107.75,0-157.87,53.252-157.87,166.66s45.721,166.66,161.66,166.66c19.653,0,43.146-1.652,66.511-5.4281l-12.658-85.82zm-59.99-159.33c28.256,0,44.326,20.018,39.928,56.341l-90.498,6.5652c0-46.536,17.035-62.906,50.57-62.906" fill="#381b45"/>
  </g>
 </g>
</svg>
