<?xml version="1.0" encoding="UTF-8" standalone="no"?>
<!-- Created with Inkscape (http://www.inkscape.org/) -->
<svg xmlns:rdf="http://www.w3.org/1999/02/22-rdf-syntax-ns#" xmlns="http://www.w3.org/2000/svg" height="354.35" width="600" version="1.1" xmlns:cc="http://creativecommons.org/ns#" xmlns:dc="http://purl.org/dc/elements/1.1/">
 <defs></defs>
 <metadata>
  <rdf:RDF>
   <cc:Work rdf:about="">
    <dc:format>image/svg+xml</dc:format>
    <dc:type rdf:resource="http://purl.org/dc/dcmitype/StillImage"/>
    <dc:title/>
   </cc:Work>
  </rdf:RDF>
 </metadata>
 <g transform="translate(-448.17706,-530.09767)">
  <g fill-rule="nonzero" transform="matrix(0.99999753,0,0,0.99999753,0.0018455,0.0017446)">
   <path d="m448.18,533.76,0,280.42,89.765-6.8414,0-273.58-89.765,0z" fill="#311c46"/>
   <path d="m791.41,648.2,0,138.13,89.733-6.809,0-131.32-89.733,0z" fill="#311c46"/>
   <path d="m836.29,630.82c27.949,0,50.354-22.437,50.354-50.354,0-27.933-22.405-50.37-50.354-50.37s-50.387,22.437-50.387,50.37c0,27.917,22.437,50.354,50.387,50.354" fill="#723a87"/>
   <path d="m668.42,701.34c20.605,0,32.408,14.639,29.165,41.194l-66.08,4.7987c0-34.045,12.386-45.993,36.914-45.993m43.837,116.45c-8.8841,1.07-17.947,1.6698-27.025,1.6698-31.678,0-49.398-6.2254-52.932-20.735l140.39-10.424c1.378-13.261,1.7995-26.977,1.7995-39.346,0-58.152-20.103-108.05-104.36-108.05-78.741,0-115.36,38.909-115.36,121.78,0,82.859,33.413,121.77,118.14,121.77,14.348,0,31.5-1.1997,48.619-3.9395l-9.2732-62.724z" fill="#311c46"/>
   <path d="m941.11,564.49,0-27.933c0-2.9019,0.34045-4.7177,1.07-5.4148,0.64848-0.6809,2.4966-1.0376,5.3824-1.0376h9.6785c2.9506,0,4.7339,0.35666,5.4148,1.0376,0.71332,0.69711,1.0538,2.5128,1.0538,5.4148v27.933h28.679c3.0316,0,4.9122,0.34045,5.6093,1.0376,0.6809,0.71332,1.0862,2.5128,1.0862,5.4148v8.7382c0,2.9181-0.40529,4.7177-1.0862,5.4148-0.69711,0.6809-2.5777,1.0538-5.6093,1.0538h-28.679v27.933c0,2.9019-0.34045,4.7014-1.0538,5.3824-0.6809,0.69711-2.4642,1.0376-5.4148,1.0376h-9.6785c-2.8857,0-4.7339-0.34045-5.3824-1.0376-0.72953-0.6809-1.07-2.4804-1.07-5.3824v-27.933h-28.679c-2.9181,0-4.7339-0.37287-5.4148-1.0538-0.69711-0.69711-1.0376-2.4966-1.0376-5.4148v-8.7382c0-2.9019,0.34045-4.7014,1.0376-5.4148,0.6809-0.69711,2.4966-1.0376,5.4148-1.0376h28.679z" fill="#141310"/>
   <path d="m1038.6,602.17,5.0095,0c2.0913,0,3.3558,0.24318,3.8422,0.74575,0.5188,0.48635,0.7457,1.8157,0.7457,3.9719v9.0624c0,2.14-0.2269,3.4856-0.7457,4.0205-0.4864,0.47015-1.7509,0.71333-3.8422,0.71333h-31.629c-2.0913,0-3.3883-0.24318-3.8746-0.71333-0.4864-0.53499-0.7296-1.8806-0.7296-4.0205v-9.0624c0-2.1562,0.2432-3.4856,0.7296-3.9719,0.4863-0.50257,1.7833-0.74575,3.8746-0.74575h4.977v-55.056h-5.7228c-2.1075,0-3.4369-0.25939-3.9232-0.76196-0.5188-0.50257-0.7782-1.7833-0.7782-3.8584v-7.425c0-2.0751,0.2594-3.3721,0.7782-3.8584,0.4863-0.50257,1.8157-0.74575,3.9232-0.74575h22.778c2.0752,0,3.3559,0.24318,3.826,0.74575,0.5188,0.48636,0.762,1.7833,0.762,3.8584v67.101z" fill="#141310"/>
  </g>
 </g>
</svg>
