<?xml version="1.0" encoding="UTF-8" standalone="no"?>
<!-- Created with Inkscape (http://www.inkscape.org/) -->

<svg
   xmlns:dc="http://purl.org/dc/elements/1.1/"
   xmlns:cc="http://creativecommons.org/ns#"
   xmlns:rdf="http://www.w3.org/1999/02/22-rdf-syntax-ns#"
   xmlns:svg="http://www.w3.org/2000/svg"
   xmlns="http://www.w3.org/2000/svg"
   version="1.1"
   width="599.99921"
   height="344.444"
   viewBox="0 0 599.99921 344.444"
   id="svg3714">
  <title
     id="title3716">London Live</title>
  <metadata
     id="metadata3735">
    <rdf:RDF>
      <cc:Work
         rdf:about="">
        <dc:format>image/svg+xml</dc:format>
        <dc:type
           rdf:resource="http://purl.org/dc/dcmitype/StillImage" />
        <dc:title>London Live</dc:title>
      </cc:Work>
    </rdf:RDF>
  </metadata>
  <defs
     id="defs3733" />
  <g
     transform="scale(5.5555484,5.5555484)"
     id="g3737">
    <polygon
       points="0,22 6,29 6,0 0,0 "
       id="polygon3718" />
    <polygon
       points="39,7 6,7 6,0 32,0 "
       id="polygon3720"
       style="opacity:0.5" />
    <polygon
       points="108,40 102,33 102,62 108,62 "
       id="polygon3722" />
    <polygon
       points="69,55 102,55 102,62 76,62 "
       id="polygon3724"
       style="opacity:0.5" />
    <g
       id="logo-text">
      <path
         d="M 18.6,17 H 15 v 13 h 9.1 V 26.7 H 18.5 V 17 h 0.1 z m 13,-0.1 c -3.8,0 -6.7,2.9 -6.7,6.6 0,3.7 2.9,6.6 6.7,6.6 3.8,0 6.7,-2.9 6.7,-6.6 0,-3.7 -2.9,-6.6 -6.7,-6.6 z m 0,10 c -1.8,0 -3.1,-1.4 -3.1,-3.3 0,-1.9 1.3,-3.4 3.1,-3.4 1.8,0 3.1,1.4 3.1,3.4 0,2 -1.3,3.3 -3.1,3.3 z m 16.6,-4 -7.9,-6.1 V 30 h 3.4 v -5.9 l 7.9,6.1 V 17 h -3.4 v 5.9 z M 93,17 h -3.4 v 5.9 L 81.7,16.8 V 30 h 3.4 V 24.1 L 93,30.2 V 17 z M 58.2,17 H 54 v 13 h 4.2 C 62.2,30 65,27.3 65,23.5 65,19.7 62.2,17 58.2,17 z m -0.1,9.7 h -0.5 v -6.5 h 0.5 c 2.7,0 3.301,1.8 3.301,3.2 C 61.3,25 60.8,26.7 58.1,26.7 z m 15.1,-9.8 c -3.8,0 -6.7,2.9 -6.7,6.6 0,3.7 2.9,6.6 6.7,6.6 3.8,0 6.7,-2.9 6.7,-6.6 0,-3.7 -3,-6.6 -6.7,-6.6 z m 0,10 c -1.8,0 -3.101,-1.4 -3.101,-3.3 0,-1.9 1.301,-3.4 3.101,-3.4 1.8,0 3.1,1.4 3.1,3.4 0,2 -1.3,3.3 -3.1,3.3 z"
         id="path3727" />
      <path
         d="M 18.5,35 H 15 v 12.9 h 9.1 V 44.7 H 18.5 V 35 z m 7,12.9 H 29 V 35 H 25.5 V 47.9 z M 36.7,41 33.7,35 H 29.8 L 36.7,48.2 43.3,35 h -3.6 l -3,6 z M 53.5,38.3 V 35 h -9.4 v 12.9 h 9.4 v -3.2 h -5.8 v -1.6 h 5.2 v -3.2 h -5.2 v -1.6 h 5.8 z"
         id="path3729" />
    </g>
  </g>
</svg>
