<?xml version="1.0" encoding="UTF-8" standalone="no"?>
<svg xmlns:rdf="http://www.w3.org/1999/02/22-rdf-syntax-ns#" xmlns="http://www.w3.org/2000/svg" height="62.405mm" width="169.33mm" version="1.1" xmlns:cc="http://creativecommons.org/ns#" xmlns:dc="http://purl.org/dc/elements/1.1/" viewBox="0 0 600.01177 221.12128">
 <defs>
  <clipPath id="b" clipPathUnits="userSpaceOnUse">
   <path d="m476.21 341.74h84.49v31.14h-84.49v-31.14z"/>
  </clipPath>
  <radialGradient id="a" gradientUnits="userSpaceOnUse" cy="0" cx="0" gradientTransform="matrix(-72.887 .000011 .000011 72.76 555.56 358.42)" r="1">
   <stop stop-color="#fabc09" offset="0"/>
   <stop stop-color="#fabc09" offset=".14696"/>
   <stop stop-color="#f89c0e" offset="1"/>
  </radialGradient>
 </defs>
 <g transform="matrix(7.1015 0 0 -7.1015 -3381.8 2648)">
  <path fill="url(#a)" d="m525.47 371.75c-2.04-0.76-3.89-1.87-5.55-3.33-1.63-1.45-2.94-3.11-3.94-4.99l-0.34 8.74h-0.09-10.98-2.37l-2.97-6.68c-0.72 3.05-1.11 5.73-1.32 6.68h-1.88-11.08-0.09l-8.65-29.84h0.08 10.54 2.56l2.39 9.29 1.58-9.29h0.6 5.5 0.3l2.02 4.84 1.95 4.56 0.29-9.4h2.27 10.45 0.09l-0.18 4.4c1-1.27 2.27-2.37 3.81-3.32 1.01-0.61 2.18-1.07 3.48-1.39 0.45-0.11 0.91-0.2 1.37-0.28h5.07c1.65 0.26 3.79 0.83 5.04 2.08 1.2-0.6 2.41-1.09 3.64-1.45 0.94-0.28 1.89-0.49 2.85-0.63h5.79c2.61 0.4 4.88 1.38 6.84 2.93 2.63 2.09 4.15 4.79 4.54 8.09 0.24 2.03-0.14 3.75-1.16 5.18-1.01 1.42-2.52 2.37-4.52 2.83-0.25 0.06-0.61 0.14-1.07 0.25-2.91 0.64-4.31 1.38-4.21 2.22 0.05 0.45 0.3 0.8 0.74 1.05 0.43 0.25 1.03 0.38 1.77 0.38 0.99 0 1.97-0.2 2.97-0.6 0.99-0.41 1.96-0.99 2.91-1.75l4.19 7.81c-1.58 0.91-3.18 1.59-4.78 2.04-1.61 0.45-3.27 0.67-4.99 0.67-3.73 0-6.86-1.01-9.4-3.02-1.55-1.23-2.7-2.68-3.44-4.36l0.7 5.91c-1.06 0.5-2.16 0.88-3.31 1.13-1.14 0.26-2.32 0.38-3.54 0.38-2.27 0-4.43-0.38-6.47-1.13m1.26-18.2c-0.74 0.86-1.01 2.02-0.83 3.53 0.19 1.6 0.79 2.83 1.83 3.77 1.05 0.94 2.3 1.4 3.85 1.4 0.99 0 1.92-0.21 2.77-0.61 0.63-0.3 1.25-0.74 1.87-1.31 0.09-1.54 0.55-2.89 1.38-4.03 0.1-0.13 0.21-0.26 0.32-0.39h-0.01c0.06-0.06 0.11-0.13 0.17-0.19 1.13-1.24 2.75-2.12 4.82-2.64 0.37-0.09 0.89-0.2 1.56-0.35 0.41-0.09 0.74-0.18 1.02-0.26 1.23-0.33 1.36-0.62 1.38-0.9 0.02-0.3-0.55-1.47-4.01-0.49-3.13 0.88-5.71 3.49-6.17 3.97l-0.21-0.15c-1.32-0.92-2.52-1.6-3.57-2.01-1.02-0.4-2-0.6-2.92-0.6-1.46 0-2.52 0.41-3.25 1.26"/>
 </g>
 <g transform="matrix(7.1015 0 0 -7.1015 -3381.8 2648)">
  <g clip-path="url(#b)">
   <g transform="matrix(.20143 0 0 -.20108 793.05 137.28)">
    <g transform="translate(-1374.6 -1085.4)">
     <path d="m0 0c5.187 0.646 10.322 1.035 15.564 1.035 1.504 0 4.684 0 4.684-2.14 0-1.586-0.817-1.897-8.959-1.897-4.182 0-8.783-1.422-8.783-6.512 0-7 3.64-12.691 9.099-14.234 3.049-0.865 7.457-0.955 10.826-0.955 4.549 0 11.881 0.224 18.512 1.23l-2.867 10.051c-4.408-0.547-8.777-1-13.236-1-5.409 0-6.69 0.774-6.69 2.317 0 1.324 0.912 1.685 8.049 1.685 5.189 0 9.738 0.232 9.738 7.043 0 2.557-1.181 6.094-2.142 7.652-2.813 4.534-7.358 5.414-16.326 5.414-7.27 0-13.461-0.418-19.508-1.515l2.039-8.174zm-10.459-23.748h13.924l-8.825 32.475h-13.691l8.592-32.475zm-42.074 0h15.962l2.911 18.82h0.091l4.914-18.82h14.004l-8.724 32.475h-15.467l-3.813-16.924h-0.103l-4.502 16.924h-14.008l8.735-32.475zm-42.077 0h15.957l2.913 18.82h0.095l4.92-18.82h14.002l-8.728 32.475h-15.469l-3.813-16.924h-0.095l-4.498 16.924h-14.014l8.73-32.475zm-36.53 0h33.517l-2.677 10.277h-19.37l-0.92 3.637h19.38l-1.83 7.004h-19.36l-0.78 2.906h19.38l-2.22 8.651h-33.48l8.36-32.475zm-27.1 10.731h-9.19l2.91-10.731h32.47l-2.9 10.731h-9.14l-5.65 21.744h-14.15l5.65-21.744z" fill="#fff"/>
    </g>
   </g>
  </g>
 </g>
</svg>
