<?xml version="1.0" encoding="UTF-8" standalone="no"?>
<!-- Created with Inkscape (http://www.inkscape.org/) -->

<svg
   xmlns:dc="http://purl.org/dc/elements/1.1/"
   xmlns:cc="http://creativecommons.org/ns#"
   xmlns:rdf="http://www.w3.org/1999/02/22-rdf-syntax-ns#"
   xmlns:svg="http://www.w3.org/2000/svg"
   xmlns="http://www.w3.org/2000/svg"
   version="1.1"
   width="1250.0677"
   height="457.67722"
   viewBox="0 0 1000.0542 366.14177"
   id="svg2">
  <metadata
     id="metadata42">
    <rdf:RDF>
      <cc:Work
         rdf:about="">
        <dc:format>image/svg+xml</dc:format>
        <dc:type
           rdf:resource="http://purl.org/dc/dcmitype/StillImage" />
        <dc:title></dc:title>
      </cc:Work>
    </rdf:RDF>
  </metadata>
  <defs
     id="defs40" />
  <g
     transform="translate(-115.94478,-90.920995)"
     id="#ffffffff" />
  <g
     transform="translate(-115.94478,-90.920995)"
     id="#000000ff">
    <path
       d="m 486.16,93.63 c 20.75,-3.56 41.85,-2.47 62.8,-2.63 49.34,0 98.68,0 148.01,0 20.14,-0.33 40.53,0.18 60.12,5.33 18.47,4.64 36.62,13.62 48.72,28.72 11.2,13.66 16.35,31.33 17.41,48.73 -18.01,-0.07 -36.01,-0.01 -54.02,-0.03 -2.45,-9.68 -7.73,-19.02 -16.3,-24.49 -11.81,-7.66 -26.33,-8.92 -40.02,-9.67 -21.29,-0.7 -42.6,-0.18 -63.91,-0.34 -33.64,0 -67.29,0 -100.93,0 -20.75,0.02 -42.29,-1.01 -61.95,6.81 -12.18,4.65 -22.65,13.95 -27.9,25.98 -5.43,11.84 -6.55,25.07 -6.7,37.94 0.03,43.33 -0.01,86.66 0.02,129.99 0.26,15.91 2.57,32.85 12.57,45.82 9.11,12.1 23.93,18.23 38.47,20.76 15.33,2.85 30.99,2.11 46.5,2.2 50.98,0 101.96,-0.01 152.95,0 14.42,-0.43 29.06,-0.86 43.03,-4.86 7.29,-2.1 14.48,-5.48 19.65,-11.18 5.73,-6.16 8.3,-14.53 9.43,-22.71 18.4,0 36.8,-0.01 55.2,0.01 -0.99,19.18 -5.48,39.17 -17.9,54.34 -10.91,13.42 -27.03,21.4 -43.45,25.86 -20.82,5.6 -42.53,7.03 -64,6.79 -57.66,0 -115.32,0 -172.98,0 -20.49,0.36 -41.21,-0.72 -61.08,-6.09 -19,-5 -37.29,-14.8 -49.8,-30.24 -14.13,-17.05 -20.71,-38.97 -23.79,-60.57 -3.21,-21.23 -2.13,-42.75 -2.31,-64.13 0,-15.35 0,-30.69 0,-46.03 0.13,-20.7 -0.81,-41.51 2.32,-62.05 3.27,-23.48 10.99,-47.4 27.61,-64.92 16.22,-17.15 39.33,-25.8 62.23,-29.34 z"
       id="path6"
       style="fill:#000000" />
    <path
       d="m 116.02,176.83 c -0.19,-2.18 2.01,-3.6 3.98,-3.56 25,-0.03 50.01,-0.03 75.02,-0.01 2.48,-0.12 4.85,1.67 5.48,4.07 10.82,35.55 21.59,71.11 32.38,106.67 1.58,4.38 2.16,9.21 4.79,13.15 1.89,-3.28 2.6,-7.02 3.68,-10.61 10.57,-36.48 21.05,-72.99 31.64,-109.47 0.62,-2.61 3.43,-4.04 5.97,-3.83 25.35,0.03 50.7,-0.01 76.05,0.02 2.25,-0.27 4.69,1.44 4.49,3.86 0.01,62.97 -0.01,125.94 0.01,188.91 0.32,2.05 -1.31,4.28 -3.47,4.21 -13.36,0.02 -26.72,0.02 -40.07,0 -2.2,0.16 -4.07,-1.93 -3.94,-4.07 -0.07,-47.71 -0.01,-95.43 -0.03,-143.14 -0.05,-1.29 -0.21,-2.57 -0.47,-3.83 -0.8,0.99 -1.63,1.98 -1.98,3.22 -15.96,48.12 -31.8,96.28 -47.74,144.4 -0.93,2.25 -3.36,3.74 -5.79,3.44 -12.38,-0.03 -24.76,0.01 -37.14,-0.02 -2.41,0.07 -4.59,-1.78 -5.19,-4.08 -14.76,-43.69 -29.22,-87.49 -43.84,-131.23 -1.92,-5.25 -3.15,-10.78 -5.79,-15.74 -0.66,1.87 -0.86,3.86 -0.82,5.84 0.02,46.98 0.01,93.97 0.01,140.96 0.45,2.38 -1.77,4.71 -4.18,4.26 -13.05,0 -26.09,0.01 -39.13,-0.01 -2.32,0.32 -4.36,-1.96 -3.94,-4.21 0.01,-63.07 -0.02,-126.14 0.02,-189.2 z"
       id="path8"
       style="fill:#000000" />
    <path
       d="m 529.97,178.54 c 22.73,-6.53 46.62,-4.79 69.97,-5.04 28.97,0.24 58.13,-1.16 86.88,3.19 12.94,2.18 26.88,5.45 36.24,15.33 9.06,9.88 10.06,23.97 10.76,36.69 -22.25,0.1 -44.49,-0.01 -66.73,0.05 -1.77,-4.78 -5.47,-8.83 -10.47,-10.23 -11.19,-3.4 -23.06,-2.7 -34.61,-3.24 -10.63,-0.18 -21.26,0.04 -31.88,0.34 -6.46,0.4 -13.16,0.54 -19.2,3.13 -3.7,1.51 -6.33,5.11 -6.75,9.07 -0.28,3.26 -0.69,6.9 1.15,9.81 1.83,3 5.33,4.35 8.58,5.21 6.22,1.52 12.65,1.78 19.02,2.1 24.68,0.63 49.38,0.1 74.07,0.36 15.6,0.66 31.46,2 46.23,7.42 8.82,3.31 17.35,8.52 22.61,16.54 4.88,7.26 6.87,16.02 7.61,24.62 0.87,11.64 0.79,23.42 -1.14,34.96 -1.61,9.29 -5.38,18.6 -12.54,25 -8.13,7.41 -19.01,10.73 -29.58,12.84 -18.51,3.36 -37.41,3.65 -56.16,3.56 -19.68,0 -39.36,0 -59.04,0 -18.78,0.11 -37.95,-0.24 -56.05,-5.8 -10.96,-3.35 -21.43,-9.94 -27.19,-20.09 -5.88,-10.21 -7.48,-22.27 -7.5,-33.87 22.77,0.02 45.54,-0.01 68.31,0.02 0.22,4.8 2.57,9.56 6.84,12 7.42,4.3 16.26,4.86 24.61,5.51 15.65,0.66 31.32,0.63 46.98,0.23 7.68,-0.06 15.46,-0.37 22.96,-2.17 4.73,-1.14 9.8,-3.97 11.02,-9.05 1.11,-5.47 0.99,-11.89 -2.77,-16.37 -2.57,-2.93 -6.4,-4.31 -10.08,-5.2 -9.24,-2.01 -18.75,-1.35 -28.13,-1.46 -25.6,-0.28 -51.23,0.69 -76.8,-0.78 -15.34,-1.32 -31.78,-3.34 -44.38,-13.01 -11.08,-8.6 -15.24,-22.92 -16.48,-36.33 -1.25,-14.82 -2.03,-30.75 5.14,-44.31 5.73,-10.91 16.91,-17.78 28.5,-21.03 z"
       id="path10"
       style="fill:#000000" />
    <path
       d="m 770.74,206.52 c 6.95,-0.05 13.9,-0.01 20.86,-0.02 1.66,11.79 3.35,23.57 5.04,35.35 0.4,2.94 1.07,5.89 0.75,8.87 0.59,-0.43 0.9,-1.03 0.91,-1.78 1.93,-14.16 3.97,-28.31 6.03,-42.46 6.9,0.07 13.79,-0.05 20.69,0.06 -0.06,19.07 0.01,38.15 -0.03,57.22 -4,-0.02 -7.99,-0.02 -11.98,0 0,-5.62 -0.07,-11.25 0.03,-16.87 0.64,-10.29 -0.33,-20.63 0.61,-30.91 -3.21,15.86 -5.6,31.89 -8.59,47.8 -5.1,-0.08 -10.19,0.04 -15.28,-0.08 -1.54,-11.29 -3.37,-22.54 -5.01,-33.81 -0.74,-4.34 -1.06,-8.77 -2.27,-13.01 0.57,15.61 0.09,31.25 0.25,46.87 -4.01,0 -8.01,0 -12,-0.01 -0.01,-19.07 0.01,-38.14 -0.01,-57.22 z"
       id="path12"
       style="fill:#000000" />
    <path
       d="m 839.09,206.46 c 7.14,0.09 14.28,0 21.42,0.05 2.85,19.08 5.84,38.14 8.56,57.24 -4.51,0 -9.01,-0.01 -13.5,0 -0.6,-4.51 -1.09,-9.04 -1.7,-13.55 -2.75,0.05 -5.51,0.05 -8.25,0.08 -0.52,4.5 -1.01,9.01 -1.67,13.49 -4.51,-0.04 -9.01,-0.01 -13.51,-0.03 2.88,-19.1 5.66,-38.21 8.65,-57.28 m 10.37,9.09 c -0.47,8.27 -1.78,16.48 -2.73,24.7 2.02,0 4.04,-0.01 6.09,-0.01 -1.3,-8.2 -1.5,-16.59 -3.36,-24.69 z"
       id="path14"
       style="fill:#000000" />
    <path
       d="m 899.14,207.35 c 4.64,-2.15 9.92,-1.15 14.87,-1.33 4.5,0.13 10.55,1.06 12.08,6.07 0.87,4.66 0.21,9.45 0.41,14.16 -4.26,0 -8.51,0 -12.75,0 -0.11,-2.9 0.3,-5.86 -0.3,-8.71 -1.64,-1.8 -6.45,-1.64 -6.19,1.47 -0.05,11.29 0.03,22.58 -0.03,33.87 1.8,1.39 5.81,2.01 6.42,-0.86 0.24,-3.17 0.04,-6.35 0.1,-9.52 4.24,-0.01 8.49,0 12.75,0 -0.4,5.95 1.28,12.61 -2.15,17.94 -2.89,3.65 -8,4.01 -12.3,4.07 -4.85,-0.05 -10.15,0.57 -14.42,-2.23 -3.01,-1.99 -4.29,-5.76 -4.14,-9.24 0.02,-11.68 0,-23.35 0,-35.03 -0.08,-4.17 1.67,-8.79 5.65,-10.66 z"
       id="path16"
       style="fill:#000000" />
    <path
       d="m 981.44,206.52 c 7.14,-0.07 14.29,0.04 21.43,-0.06 3,19.07 5.74,38.19 8.7,57.28 -4.51,0.02 -9.03,-0.02 -13.53,0.04 -0.7,-4.47 -1.16,-8.98 -1.68,-13.47 -2.77,-0.07 -5.52,-0.07 -8.27,-0.09 -0.62,4.5 -1.11,9.03 -1.68,13.54 -4.51,-0.02 -9.02,-0.01 -13.53,-0.01 2.75,-19.09 5.72,-38.15 8.56,-57.23 m 7.74,33.72 c 1.98,0 3.98,0.01 5.99,0.02 -0.79,-8.19 -2.21,-16.31 -2.67,-24.51 -1.87,8.02 -2.07,16.35 -3.32,24.49 z"
       id="path18"
       style="fill:#000000" />
    <path
       d="m 1017.72,206.55 c 4.4,-0.11 8.8,0.01 13.21,-0.1 0.15,19.1 0.04,38.21 0.05,57.31 -4.41,-0.02 -8.81,-0.02 -13.21,0 -0.07,-19.07 0.03,-38.14 -0.05,-57.21 z"
       id="path20"
       style="fill:#000000" />
    <path
       d="m 1040.74,206.52 c 6.38,-0.08 12.76,0.05 19.14,-0.07 3.46,14.52 6,29.27 9.79,43.7 -0.84,-14.53 -0.58,-29.1 -1.22,-43.65 4.18,-0.01 8.36,0 12.55,0 -0.01,19.09 0.01,38.17 -0.01,57.26 -6.48,-0.04 -12.96,0.03 -19.44,-0.04 -3,-14.32 -6.12,-28.61 -9.19,-42.91 -0.07,14.31 0.36,28.63 0.66,42.94 -4.09,-0.01 -8.18,0 -12.26,0 -0.03,-19.07 0,-38.15 -0.02,-57.23 z"
       id="path22"
       style="fill:#000000" />
    <path
       d="m 1089.74,206.53 c 8.5,-0.05 17.02,-0.07 25.53,0.01 -0.04,3.49 -0.03,6.97 -0.02,10.46 -4.01,0 -8.02,-0.02 -12.02,0.03 0.03,4.07 0,8.15 0.04,12.23 3.66,-0.02 7.31,-0.01 10.98,-0.01 -0.01,3.33 -0.01,6.66 0,10 -3.68,0 -7.34,0 -11,0 -0.01,4.66 0,9.32 0,13.99 4.23,0.02 8.48,0.02 12.73,-0.01 0.03,3.51 0.02,7.02 0,10.53 -8.73,-0.02 -17.46,-0.03 -26.19,0.01 -0.1,-19.08 0,-38.16 -0.05,-57.24 z"
       id="path24"
       style="fill:#000000" />
    <path
       d="m 933.5,206.5 c 4.42,0.01 8.84,-0.04 13.27,0.03 -0.05,7.41 -0.02,14.81 -0.01,22.22 2.48,-0.01 4.98,0 7.48,0 0.07,-7.44 -0.11,-14.88 0.1,-22.31 4.38,0.11 8.77,0.04 13.16,0.06 0.03,19.06 -0.05,38.13 0.04,57.19 -4.43,0.11 -8.86,0.04 -13.29,0.06 0.05,-8.12 -0.12,-16.24 0.1,-24.35 -2.54,-0.19 -5.07,-0.19 -7.6,-0.15 -0.01,8.17 0,16.33 0,24.5 -4.44,-0.02 -8.87,0.06 -13.3,-0.07 0.1,-19.06 0.02,-38.12 0.05,-57.18 z"
       id="path26"
       style="fill:#000000" />
    <path
       d="m 774.56,287.48 c 4.57,-1.88 9.65,-1.48 14.5,-1.45 3.61,0.24 7.76,0.7 10.37,3.52 3.34,4.17 1.71,9.82 2.05,14.71 -3.91,-0.01 -7.81,-0.01 -11.71,-0.01 -0.07,-2.48 0.19,-5.02 -0.53,-7.42 -2.02,-1.75 -7.03,-1.21 -6.67,2.24 0.09,2.8 -1,6.68 1.59,8.63 5.2,2.25 11.5,2.28 15.88,6.23 3.08,3.6 2.64,8.66 2.79,13.08 -0.01,4.87 0.08,10.5 -3.51,14.28 -4.19,3.62 -10.17,3.21 -15.34,3.19 -4.32,-0.31 -9.65,-0.43 -12.35,-4.42 -2.64,-4.63 -1.71,-10.22 -1.88,-15.31 4.08,-0.01 8.16,-0.01 12.24,0 0.04,2.72 -0.21,5.5 0.45,8.18 1.28,2.34 5.56,2.12 6.86,-0.02 0.36,-3.26 0.26,-6.57 0.1,-9.84 -0.88,-2.66 -4.19,-2.64 -6.39,-3.44 -4.41,-1.18 -9.96,-1.97 -12.11,-6.59 -1.72,-4.49 -1.04,-9.4 -1.15,-14.09 0.12,-4.15 0.67,-9.34 4.81,-11.47 z"
       id="path28"
       style="fill:#000000" />
    <path
       d="m 857.5,286.68 c 6.51,-1.01 13.54,-1.36 19.81,1 4.16,1.54 5.77,6.22 5.67,10.32 0.02,11.69 0.06,23.39 -0.02,35.09 0.16,4.5 -2.56,9.04 -7.06,10.22 -6.41,1.68 -13.37,1.67 -19.8,0.08 -4.35,-0.95 -7.36,-5.08 -7.28,-9.48 -0.1,-12.59 -0.17,-25.2 0.03,-37.79 -0.05,-4.87 3.97,-8.8 8.65,-9.44 m 5.01,12.38 c -0.04,9.99 0.03,19.99 -0.03,29.98 0.07,1.61 -0.2,3.37 0.66,4.85 1.76,1.05 3.83,0.53 5.69,0.09 0.3,-12.29 0.22,-24.61 0.06,-36.9 -1.78,-2.09 -6.98,-1.58 -6.38,1.98 z"
       id="path30"
       style="fill:#000000" />
    <path
       d="m 929.73,286.54 c 10.51,-0.07 21.02,-0.06 31.53,-0.01 -0.02,3.49 -0.02,6.98 -0.01,10.47 -3.01,0 -6.01,0 -9.01,0.01 -0.04,15.6 0.12,31.19 -0.07,46.79 -4.47,-0.09 -8.93,-0.06 -13.38,-0.03 -0.09,-15.58 -0.04,-31.17 -0.03,-46.75 -3.01,-0.03 -6.01,-0.03 -9.01,-0.02 -0.01,-3.49 0,-6.98 -0.02,-10.46 z"
       id="path32"
       style="fill:#000000" />
    <path
       d="m 810.25,343.75 c 0.05,-19.1 -0.1,-38.2 0.07,-57.3 8.54,0.47 17.25,-0.85 25.66,0.99 5.95,1.4 8.33,8.03 7.79,13.56 -0.52,7.37 1.5,15.58 -2.63,22.23 -4.14,5.31 -11.7,4.2 -17.64,4.54 0,5.32 -0.01,10.65 0.01,15.97 -4.43,0.01 -8.84,0.01 -13.26,0.01 m 13.25,-46.79 c 0,6.78 0,13.56 0.01,20.35 2.12,-0.29 5.96,0.71 6.34,-2.34 0.36,-5.71 0.06,-11.45 0.13,-17.17 -2.05,-0.91 -4.3,-0.86 -6.48,-0.84 z"
       id="path34"
       style="fill:#000000" />
    <path
       d="m 890.5,286.5 c 8.53,0.17 17.13,-0.53 25.6,0.78 4.1,0.51 7.81,3.57 8.35,7.79 0.74,5.78 0.91,11.74 -0.16,17.48 -0.79,3.83 -4.55,6.06 -8.25,6.19 3.3,0.79 7.67,1.7 8.44,5.64 1.01,6.4 0.33,12.93 0.5,19.38 -4.5,-0.03 -8.99,0 -13.48,-0.02 -0.1,-5.89 0.18,-11.8 -0.13,-17.68 -1.67,-2.52 -5.08,-1.6 -7.6,-1.86 -0.05,6.52 -0.01,13.03 -0.02,19.55 -4.41,0 -8.82,-0.02 -13.23,0.02 -0.06,-19.09 -0.01,-38.18 -0.02,-57.27 m 13.25,9.96 c -0.01,5.95 0,11.9 0,17.85 2.48,-0.33 6.37,0.53 7.53,-2.38 0.42,-4.26 0.27,-8.59 0.08,-12.87 -0.96,-3.33 -5,-2.39 -7.61,-2.6 z"
       id="path36"
       style="fill:#000000" />
  </g>
</svg>
