<?xml version="1.0" encoding="UTF-8" standalone="no"?>
<!-- Created with Inkscape (http://www.inkscape.org/) -->

<svg
   xmlns:dc="http://purl.org/dc/elements/1.1/"
   xmlns:cc="http://creativecommons.org/ns#"
   xmlns:rdf="http://www.w3.org/1999/02/22-rdf-syntax-ns#"
   xmlns:svg="http://www.w3.org/2000/svg"
   xmlns="http://www.w3.org/2000/svg"
   version="1.1"
   width="600.00049"
   height="164.034"
   id="svg9517">
  <defs
     id="defs9519">
    <clipPath
       id="clipPath7239">
      <path
         d="m 156.524,480.944 12.199,0 0,3.335 -12.199,0 0,-3.335 z"
         id="path7241" />
    </clipPath>
  </defs>
  <metadata
     id="metadata9522">
    <rdf:RDF>
      <cc:Work
         rdf:about="">
        <dc:format>image/svg+xml</dc:format>
        <dc:type
           rdf:resource="http://purl.org/dc/dcmitype/StillImage" />
        <dc:title></dc:title>
      </cc:Work>
    </rdf:RDF>
  </metadata>
  <g
     transform="translate(-49.999706,-450.34543)"
     id="layer1">
    <g
       id="g9546">
      <g
         transform="matrix(49.185607,0,0,-49.185607,333.57939,453.43251)"
         id="g7231">
        <path
           d="m 0,0 -0.713,-0.475 -0.521,0.418 -3.113,0 -0.476,-0.317 -0.815,-2.773 11.277,0 0.712,2.683 L 5.921,-0.09 2.57,-0.057 2.128,-0.43 1.63,0 0,0 z"
           id="path7233"
           style="fill:#ffffff;fill-opacity:1;fill-rule:nonzero;stroke:none" />
      </g>
      <g
         transform="matrix(49.185607,0,0,-49.185607,-7648.743,24269.902)"
         id="g7235">
        <g
           clip-path="url(#clipPath7239)"
           id="g7237">
          <g
             transform="translate(168.4853,483.4716)"
             id="g7243">
            <path
               d="m 0,0 -0.622,-2.305 -1.148,0 c 0,0 0.518,2.024 0.528,2.074 0.01,0.046 -0.017,0.117 -0.085,0.127 -0.005,0 -0.074,0.001 -0.079,0.001 -0.082,0 -0.106,-0.079 -0.106,-0.079 l -0.534,-2.123 -1.139,0 c 0,0 0.54,2.024 0.55,2.074 0.009,0.046 -0.017,0.116 -0.085,0.127 -0.005,0.001 -0.074,0.001 -0.08,0.001 -0.081,0 -0.105,-0.079 -0.105,-0.079 l -0.556,-2.123 -1.132,0 c 0,0 0.606,2.282 0.646,2.422 0.04,0.139 0.216,0.468 0.655,0.468 l 2.679,0 c 0.331,0 0.602,-0.184 0.625,-0.425 C 0.017,0.112 0.014,0.06 0,0 m -5.488,-2.305 -1.365,0 c -0.242,0 -0.434,0.148 -0.453,0.352 -0.006,0.061 0.003,0.129 0.022,0.189 l 0.488,1.813 c 0.039,0.144 0.186,0.324 0.346,0.42 0.126,0.076 0.279,0.116 0.44,0.116 l 1.281,0 c 0.318,0 0.479,-0.124 0.504,-0.384 C -4.22,0.148 -4.219,0.096 -4.23,0.052 l -0.19,-0.713 -1.105,0 c 0,0 0.096,0.426 0.1,0.443 0.008,0.046 -0.016,0.114 -0.081,0.126 -0.007,0.002 -0.139,0.002 -0.147,0.002 -0.081,0 -0.105,-0.079 -0.105,-0.079 L -6.07,-1.342 -6.071,-1.346 c -0.01,-0.046 0.015,-0.114 0.081,-0.127 0.006,-10e-4 0.138,-10e-4 0.146,-10e-4 0.081,0 0.105,0.079 0.105,0.079 l 0.109,0.344 1.134,0 -0.221,-0.721 c -0.087,-0.317 -0.4,-0.533 -0.771,-0.533 m -3.356,0 c 0,0 0.542,2.044 0.552,2.093 0.009,0.047 -0.017,0.117 -0.086,0.127 -0.005,0.001 -0.073,0.002 -0.079,0.002 -0.081,0 -0.105,-0.079 -0.105,-0.079 l -0.558,-2.143 -1.139,0 c 0,0 0.541,2.044 0.551,2.093 0.01,0.047 -0.016,0.117 -0.084,0.127 -0.006,0.001 -0.074,0.002 -0.08,0.002 -0.082,0 -0.106,-0.079 -0.106,-0.079 l -0.557,-2.143 -1.132,0 c 0.606,2.282 0.606,2.282 0.646,2.422 0.04,0.139 0.216,0.468 0.656,0.468 l 2.678,0 c 0.331,0 0.602,-0.184 0.626,-0.425 C -7.057,0.112 -7.06,0.06 -7.074,0 l -0.622,-2.305 -1.148,0 z m 9.08,2.487 c -0.035,0.357 -0.4,0.626 -0.849,0.626 l -2.679,0 c -0.381,0 -0.622,-0.193 -0.755,-0.389 -0.074,0.191 -0.254,0.389 -0.682,0.389 l -1.281,0 c -0.204,0 -0.396,-0.051 -0.556,-0.148 -0.123,-0.074 -0.236,-0.182 -0.32,-0.3 -0.117,0.265 -0.43,0.448 -0.801,0.448 l -2.678,0 c -0.546,0 -0.805,-0.396 -0.872,-0.63 -0.039,-0.14 -0.724,-2.706 -0.724,-2.706 l 11.339,0 c 0.101,0 0.19,0.068 0.216,0.165 l 0.622,2.305 c 0.001,0.002 0.001,0.004 0.002,0.007 0.019,0.081 0.025,0.157 0.018,0.233"
               id="path7245"
               style="fill:#ee2625;fill-opacity:1;fill-rule:nonzero;stroke:none" />
          </g>
        </g>
      </g>
    </g>
  </g>
</svg>
