<?xml version="1.0" encoding="UTF-8" standalone="no"?>
<!-- Created with Inkscape (http://www.inkscape.org/) -->
<svg xmlns:rdf="http://www.w3.org/1999/02/22-rdf-syntax-ns#" xmlns="http://www.w3.org/2000/svg" height="659.12" width="600" version="1.1" xmlns:cc="http://creativecommons.org/ns#" xmlns:dc="http://purl.org/dc/elements/1.1/">
 <defs></defs>
 <metadata>
  <rdf:RDF>
   <cc:Work rdf:about="">
    <dc:format>image/svg+xml</dc:format>
    <dc:type rdf:resource="http://purl.org/dc/dcmitype/StillImage"/>
    <dc:title/>
   </cc:Work>
  </rdf:RDF>
 </metadata>
 <g fill-rule="nonzero" transform="translate(-781.65468,1579.2044)">
  <path fill="#ed1176" d="m1118.7-926.11,0-0.028c0,3.3311,2.7153,6.0464,6.0744,6.0464,1.5956,0,3.0512-0.61585,4.143-1.6236l0.112-0.11197,141.39-141.36,0.112-0.1399c1.0077-1.0637,1.6236-2.5474,1.6236-4.143,0-3.3591-2.7154-6.0744-6.0465-6.0744h0.028-132.8c-8.0619,0-14.64,6.5783-14.64,14.612v132.83z"/>
  <path fill="#f35c77" d="m1118.7-1431.8c0,3.3591,2.7153,6.0744,6.0744,6.0744,1.5956,0,3.0512-0.6158,4.143-1.6516l141.62-141.62c1.0077-1.0637,1.6236-2.5194,1.6236-4.143,0-3.3591-2.7154-6.0744-6.0465-6.0744h-132.77c-8.0619,0-14.64,6.5783-14.64,14.612v132.8z"/>
  <path fill="#bb145d" d="m1280.8-1564.5c0-3.3591-2.7153-6.0744-6.0744-6.0744-1.6236,0-3.0793,0.6438-4.171,1.6515l-141.59,141.62c-1.0358,1.0918-1.6516,2.5474-1.6516,4.143,0,3.3591,2.7153,6.0744,6.0744,6.0744h132.77c8.062,0,14.64-6.5783,14.64-14.64v-132.77z"/>
  <path fill="#a2a090" d="m1112.2-1564.5c0-3.3591-2.7152-6.0744-6.0744-6.0744-1.6236,0-3.0792,0.6438-4.1709,1.6515l-141.59,141.62c-1.0357,1.0918-1.6516,2.5474-1.6516,4.143,0,3.3591,2.7153,6.0744,6.0744,6.0744h132.77c8.062,0,14.64-6.5783,14.64-14.64v-132.77z"/>
  <path fill="#242659" d="m1118.7-1263.2c0,3.3591,2.7153,6.0744,6.0744,6.0744,1.5956,0,3.0512-0.6158,4.143-1.6515l141.62-141.62c1.0077-1.0638,1.6236-2.5194,1.6236-4.143,0-3.3592-2.7154-6.0744-6.0465-6.0744h-132.77c-8.0619,0-14.64,6.5782-14.64,14.64v132.77z"/>
  <path fill="#fccb06" d="m1280.8-1396c0-3.3591-2.7153-6.0744-6.0744-6.0744-1.6236,0-3.0793,0.6438-4.171,1.6515l-141.59,141.62c-1.0358,1.0917-1.6516,2.5473-1.6516,4.143,0,3.3591,2.7153,6.0743,6.0744,6.0743h132.77c8.062,0,14.64-6.5782,14.64-14.64v-132.77z"/>
  <path fill="#f58113" d="m943.49-1396c0-3.3591-2.7153-6.0744-6.0744-6.0744-1.6236,0-3.0792,0.6438-4.1709,1.6515l-141.59,141.62c-1.0357,1.0917-1.6516,2.5473-1.6516,4.143,0,3.3591,2.7153,6.0743,6.0744,6.0743h132.77c8.0619,0,14.64-6.5782,14.64-14.64v-132.77z"/>
  <path fill="#00a650" d="m950.19-1263.2c0,3.3591,2.7153,6.0744,6.0744,6.0744,1.5956,0,3.0512-0.6158,4.1429-1.6515l141.62-141.62c1.0076-1.0638,1.6235-2.5194,1.6235-4.143,0-3.3592-2.7153-6.0744-6.0744-6.0744h-132.74c-8.0619,0-14.64,6.5782-14.64,14.64v132.77z"/>
  <path fill="#77bee9" d="m1112.3-1396c0-3.3591-2.7152-6.0744-6.0744-6.0744-1.6236,0-3.0792,0.6438-4.1709,1.6515l-141.59,141.62c-1.0357,1.0917-1.6516,2.5473-1.6516,4.143,0,3.3591,2.7153,6.0743,6.0744,6.0743h132.77c8.062,0,14.64-6.5782,14.64-14.64v-132.77z"/>
  <path fill="#95d2aa" d="m1031.2-1133.3c15.032,0,23.15-11.589,23.15-27.797,0-7.2501-1.6515-13.576-4.7868-18.363l-36.754,36.726c3.891,5.9065,10.077,9.4336,18.391,9.4336"/>
  <path fill="#7dd1a9" d="m1106.2-1233.5c-1.5956,0-3.0792,0.6158-4.1428,1.6236l-41.485,41.485c6.4664,7.3341,10.022,17.524,10.022,29.336,0,24.326-15.032,41.681-39.33,41.681-12.513,0-22.534-4.5908-29.336-12.345l-41.485,41.457c-1.0077,1.0918-1.6516,2.5474-1.6516,4.1709,0,3.3311,2.7433,6.0745,6.0744,6.0745h132.77c8.0619,0,14.64-6.5784,14.64-14.64v-132.77c0-3.3592-2.7152-6.0744-6.0744-6.0744"/>
  <path fill="#a2a090" d="m1381.7-1122.7,0-9.8815c-0.112-0.9518-0.8398-1.7075-1.7635-1.8475h-36.643c-1.1477-0.028-2.0994-0.9518-2.1274-2.1274v-16.628c0.056-1.1477,0.9797-2.0715,2.1554-2.0995h34.067c1.0917-0.084,1.9875-1.0077,1.9875-2.1273v-9.7975c-0.084-1.0918-1.0077-1.9595-2.1555-1.9595h-33.871v-0.028c-1.2037,0-2.1834-0.9798-2.1834-2.1554v-14.192c0-1.1757,0.9517-2.0995,2.0994-2.1555h36.419c1.1197-0.084,2.0155-0.9797,2.0155-2.1274v-9.8535c-0.14-1.0637-1.0358-1.9035-2.1275-1.9035h-52.458c-1.1758,0.028-2.0995,0.9518-2.1275,2.0995v76.812c0.028,1.1757,0.9797,2.1275,2.1275,2.1275h52.43c1.1757,0,2.1555-0.9798,2.1555-2.1555"/>
  <path fill="#55a8e1" d="m1217.2-1177.3c0-0.3919-0.028-0.7558-0.028-1.0918l-11.533,11.505c6.9423,0,11.561-2.2953,11.561-10.413"/>
  <path fill="#25abe5" d="m1274.7-1233.5c-1.5956,0-2.9953,0.6158-4.087,1.6236l-41.009,41.009c2.3514,3.611,3.6951,8.1739,3.6951,13.632,0,12.569-7.95,20.631-17.048,23.038h-0.14c-0.3079,0.112-0.5319,0.252-0.5319,0.5599,0,0.196,0.3919,0.6718,0.3919,0.6718l14.584,19.091s0.4199,0.3919,0.4199,0.7838c0.028,0.308,0,0.168,0,0.168v10.245c-0.056,1.1477-1.0077,2.0435-2.1554,2.0435v0.028h-5.9345s-0.6997-0.028-1.2596-0.336c-0.7839-0.3919-1.0357-0.8398-1.0357-0.8398l-23.122-30.036s-0.9237-1.1477-2.3234-1.1477h-3.4431l-9.2936,9.2656v21.107c-0.056,1.1476-1.0077,2.0435-2.1555,2.0435h-11.869c-1.2037,0-2.1554-0.9518-2.1554-2.1555h-0.028v-4.7868l-37.258,37.23c-1.0078,1.0918-1.6515,2.5474-1.6515,4.1709,0,3.3591,2.7432,6.0745,6.0743,6.0745h132.77c8.0619,0,14.64-6.5784,14.64-14.64v-132.77c0-3.3592-2.7153-6.0744-6.0744-6.0744"/>
  <path fill="#83c429" d="m1205.6-1187.7-21.274,0c-1.0637,0.14-1.8755,1.0358-1.8755,2.1275v16.544c0,1.2037,0.9798,2.1554,2.1554,2.1554h20.939l11.589-11.561c-0.4478-7.1661-4.9267-9.2656-11.533-9.2656"/>
  <path fill="#6ec72e" d="m1266.1-1242.1-132.77,0c-8.0618,0-14.64,6.5783-14.64,14.612v130.75,2.0434c0,3.3312,2.7153,6.0465,6.0744,6.0465,1.6236,0,3.0792-0.6158,4.1709-1.6236l37.258-37.286v-71.913c0-1.1197,0.9238-2.0715,2.0714-2.0995h26.117l11.169,0.056c10.693,0,19.371,3.5271,24.018,10.609l40.982-40.981c1.0077-1.0638,1.6235-2.5474,1.6235-4.143,0-3.3591-2.7153-6.0744-6.0744-6.0744"/>
  <path fill="#83c429" d="m1182.4-1143.7,9.2376-9.2377h-7.0821c-1.1757,0-2.1555,0.9798-2.1555,2.1835v7.0542z"/>
  <path fill="#f574b0" d="m937.63-1233.5c-1.5956,0-3.0792,0.6158-4.1429,1.6236l-30.344,30.344h0.86777c1.1477,0.056,2.0715,0.9798,2.0715,2.1554v76.7c0,1.2036-0.97975,2.1834-2.1554,2.1834h-11.869c-1.2037,0-2.1554-0.9798-2.1554-2.1834v-49.463-0.028-0.056-2.2114c0-0.7837-0.64383-1.4276-1.4556-1.4276-0.44788,0-0.83978,0.2239-1.1197,0.5599l-1.3437,2.0155-0.028,0.028-14.304,21.414-1.5956,2.3514c-0.39189,0.5598-1.0357,0.9517-1.7635,0.9517h-11.197c-0.78379,0-1.4556-0.4199-1.8475-1.0356l-0.056-0.112h-0.028l-1.5396-2.3234-18.139,18.139v11.197c0,1.2036-0.97975,2.1834-2.1554,2.1834h-11.197l-30.26,30.232c-1.0077,1.0918-1.6516,2.5474-1.6516,4.1709,0,3.3311,2.7433,6.0745,6.0744,6.0745h132.77c8.0619,0,14.64-6.5784,14.64-14.64v-132.77c0-3.3592-2.7153-6.0744-6.0744-6.0744"/>
  <path fill="#e7292a" d="m853.61-1152.1-14.304-21.386c-0.028-0.028-0.028-0.028-0.028-0.056l-1.2597-1.8475c-0.25193-0.3359-0.67182-0.5599-1.1197-0.5599-0.78379,0-1.4556,0.6439-1.4556,1.4276l0.056,6.1025v34.431l18.111-18.111z"/>
  <path fill="#e7292a" d="m838.03-1175.3,0,0,0,0z"/>
  <path fill="#ef2c30" d="m929.04-1242.1-132.77,0c-8.0619,0-14.612,6.5783-14.612,14.612v132.8c0,3.3312,2.6873,6.0465,6.0464,6.0465,1.6236,0,3.0792-0.6158,4.1709-1.6236l30.232-30.232h-0.67182c-1.1757,0-2.1554-0.9798-2.1554-2.1835v-76.728c0-1.1477,0.89577-2.0995,2.0435-2.1275h15.704,0.084c0.69981,0.028,1.2877,0.3639,1.6796,0.8958l2.6313,3.947h-0.028l19.483,29.308c0.3919,0.5597,1.0637,0.9517,1.7915,0.9517,0.78379,0,1.4556-0.392,1.8195-0.9797h0.028l19.427-29.28,2.5473-3.835c0.3919-0.6159,1.0637-1.0078,1.8195-1.0078h14.836l30.344-30.344c1.0077-1.0638,1.6236-2.5474,1.6236-4.143,0-3.3591-2.7153-6.0744-6.0744-6.0744"/>
  <path fill="#367fba" d="m1031.2-1188.8c-15.06,0-23.15,11.589-23.15,27.769,0,7.2502,1.6235,13.576,4.7587,18.363l36.726-36.754c-3.863-5.8505-10.049-9.3776-18.335-9.3776"/>
  <path fill="#1082be" d="m1097.6-1242.1-132.77,0c-8.0619,0-14.612,6.5783-14.612,14.612v132.8c0,3.3312,2.6873,6.0465,6.0464,6.0465,1.6236,0,3.0792-0.6158,4.1709-1.6236l41.457-41.485c-6.4384-7.3341-9.9934-17.496-9.9934-29.308,0-24.298,15.032-41.681,39.358-41.681,12.457,0,22.478,4.5908,29.308,12.345l41.485-41.485c1.0077-1.0638,1.6235-2.5474,1.6235-4.143,0-3.3591-2.7153-6.0744-6.0744-6.0744"/>
 </g>
</svg>
