<?xml version="1.0" encoding="UTF-8" standalone="no"?>
<!-- Created with Inkscape (http://www.inkscape.org/) -->
<svg xmlns:rdf="http://www.w3.org/1999/02/22-rdf-syntax-ns#" xmlns="http://www.w3.org/2000/svg" height="65.672" width="600" version="1.1" xmlns:cc="http://creativecommons.org/ns#" xmlns:dc="http://purl.org/dc/elements/1.1/">
 <defs></defs>
 <metadata>
  <rdf:RDF>
   <cc:Work rdf:about="">
    <dc:format>image/svg+xml</dc:format>
    <dc:type rdf:resource="http://purl.org/dc/dcmitype/StillImage"/>
    <dc:title/>
   </cc:Work>
  </rdf:RDF>
 </metadata>
 <g fill-rule="nonzero" transform="translate(-45.318524,-59.31116)">
  <path d="m203.24,86.556c0,0.28714-0.23792,0.51685-0.51684,0.51685h-4.5942c-0.28713,0-0.52504-0.22971-0.52504-0.51685v-3.2405c0-0.28714,0.23791-0.52505,0.52504-0.52505h4.5942c0.27892,0,0.51684,0.23791,0.51684,0.52505v3.2405zm0,8.0972c0,0.28714-0.23792,0.51684-0.51684,0.51684h-4.5942c-0.28713,0-0.52504-0.22971-0.52504-0.51684v-3.2405c0-0.28714,0.23791-0.52505,0.52504-0.52505h4.5942c0.27892,0,0.51684,0.23791,0.51684,0.52505v3.2405zm0,8.089c0,0.28713-0.23792,0.52505-0.51684,0.52505h-4.5942c-0.28713,0-0.52504-0.23792-0.52504-0.52505v-3.2405c0-0.28714,0.23791-0.51684,0.52504-0.51684h4.5942c0.27892,0,0.51684,0.22971,0.51684,0.51684v3.2405zm0,8.0972c0,0.28713-0.23792,0.51684-0.51684,0.51684h-4.5942c-0.28713,0-0.52504-0.22971-0.52504-0.51684v-3.2405c0-0.28714,0.23791-0.52505,0.52504-0.52505h4.5942c0.27892,0,0.51684,0.23791,0.51684,0.52505v3.2405zm0,8.0972c0,0.28713-0.23792,0.51684-0.51684,0.51684h-4.5942c-0.28713,0-0.52504-0.22971-0.52504-0.51684v-3.2405c0-0.28715,0.23791-0.52505,0.52504-0.52505h4.5942c0.27892,0,0.51684,0.2379,0.51684,0.52505v3.2405zm-13.717-7.4902c0,1.8377-1.5013,3.3472-3.3472,3.3472h-38.468c-1.8377,0-3.3472-1.5095-3.3472-3.3472v-21.822c0-1.8377,1.5095-3.339,3.3472-3.339h38.468c1.8459,0,3.3472,1.5013,3.3472,3.339v21.822zm-53.51-24.894c0,0.28714-0.2297,0.51685-0.51684,0.51685h-4.5942c-0.28714,0-0.52505-0.22971-0.52505-0.51685v-3.2405c0-0.28714,0.23791-0.52505,0.52505-0.52505h4.5942c0.28714,0,0.51684,0.23791,0.51684,0.52505v3.2405zm0,8.0972c0,0.28714-0.2297,0.51684-0.51684,0.51684h-4.5942c-0.28714,0-0.52505-0.22971-0.52505-0.51684v-3.2405c0-0.28714,0.23791-0.52505,0.52505-0.52505h4.5942c0.28714,0,0.51684,0.23791,0.51684,0.52505v3.2405zm0,8.089c0,0.28713-0.2297,0.52505-0.51684,0.52505h-4.5942c-0.28714,0-0.52505-0.23792-0.52505-0.52505v-3.2405c0-0.28714,0.23791-0.51684,0.52505-0.51684h4.5942c0.28714,0,0.51684,0.22971,0.51684,0.51684v3.2405zm0,8.0972c0,0.28713-0.2297,0.51684-0.51684,0.51684h-4.5942c-0.28714,0-0.52505-0.22971-0.52505-0.51684v-3.2405c0-0.28714,0.23791-0.52505,0.52505-0.52505h4.5942c0.28714,0,0.51684,0.23791,0.51684,0.52505v3.2405zm0,8.0972c0,0.28713-0.2297,0.51684-0.51684,0.51684h-4.5942c-0.28714,0-0.52505-0.22971-0.52505-0.51684v-3.2405c0-0.28715,0.23791-0.52505,0.52505-0.52505h4.5942c0.28714,0,0.51684,0.2379,0.51684,0.52505v3.2405zm64.975-42.841-68.076,0c-3.421,0-6.2185,2.7975-6.2185,6.2103v36.458c0,3.421,2.7975,6.2186,6.2185,6.2186h68.076c3.4128,0,6.2104-2.7975,6.2104-6.2186v-36.458c0-3.4128-2.7975-6.2103-6.2104-6.2103" fill="#000"/>
  <path d="m424.23,101.85-20.411,0,20.411-22.872,0,22.872zm14.176-37.213-9.7462,0.13947c-3.6097,0.09024-5.8986,0.30354-7.3753,0.95165-1.5095,0.73015-3.2652,2.5186-5.9806,5.6115l-22.954,26.047c-1.7228,2.0182-2.8139,3.5851-3.2405,5.07-0.38558,1.4521-0.50044,4.143-0.50864,8.5813v1.2716h35.63v2.6252c0.10665,4.1184,0.22151,6.5795,2.01,8.0644,1.7638,1.0583,4.947,1.1568,10.887,1.2306h1.2798v-11.92h2.1576c4.3481-0.0903,6.678-0.0985,8.2613-1.3454,1.3454-1.5423,1.3536-3.7738,1.4521-7.8347v-1.2798h-11.879l0.008-37.213z" fill="#90b525"/>
  <path d="M519.28,16.156c-9.19,0-16.28,1.966-21.12,6.125-4.86,4.168-7.24,10.416-7.22,18.407-0.02,7.916,2.35,14.154,7.15,18.281,4.8,4.118,11.83,6.062,20.94,6.062h21.59v-1.281c-0.1-3.987-0.13-6.201-1.59-7.719-1.6-1.132-4-1.168-8.53-1.25h-11.88c-4.66,0-8.07-1.014-10.34-2.843-1.98-1.608-3.06-3.536-3.34-6.063h26.87c5.93-0.066,9.12-0.164,10.88-1.156,1.8-1.428,1.92-3.799,2.03-7.688,0.01-6.079-2.14-11.167-6.38-14.875-4.62-4.052-11.04-6.008-19.06-6zm-3.59,9.906c0.8-0.014,1.64-0.01,2.53,0,8.49,0.189,11.94,3.018,12.28,9.688h-25.66c0.05-5.193,0.96-8.257,1.47-8.438,0.39-0.495,3.78-1.146,9.38-1.25z" transform="translate(45.318524,59.31116)" fill="#000"/>
  <path fill="#000" d="m515.25,75.457c-7.9332-0.0082-13.7,1.8377-16.769,5.8904-3.0108-3.9871-8.1629-5.915-14.906-5.8904-6.9241,0-12.207,1.3865-15.546,4.4219-0.17228-1.2306-0.53325-2.1576-1.4029-2.9042-1.5259-0.87782-3.8148-0.88602-8.2531-0.95986h-1.2798v38.804c0.10665,4.1922,0.18869,6.6534,1.9197,8.1629,1.7392,1.0829,4.8075,1.165,10.575,1.247h1.2798v-28.673c-0.0985-5.2833,0.67273-8.5567,0.95166-8.5649,0-0.27893,3.1339-1.0583,8.1957-0.95986,3.7738,0.0082,6.0134,0.95986,7.1538,2.494,0.97627,1.2634,1.5998,3.6097,1.5916,7.0307v19.263c0.11486,4.1922,0.2133,6.678,2.01,8.1793,1.7556,1.0501,4.8649,1.1568,10.624,1.2306h1.2798v-28.673c-0.10665-5.2833,0.67271-8.5567,0.95165-8.5649,0.0164-0.27893,3.0847-1.0583,8.0644-0.95986,3.7656,0.0082,6.0134,0.95986,7.1538,2.494,0.96806,1.2634,1.5998,3.6097,1.5916,7.0307v19.263c0.10665,4.1922,0.2133,6.678,2.0018,8.1793,1.7556,1.0501,4.8649,1.1568,10.624,1.2306h1.2798v-28.115c-0.008-6.235-1.1075-11.059-3.5441-14.447-3.1421-4.2332-8.4828-6.2186-15.546-6.2103"/>
  <path fill="#000" d="m641.08,81.839c-3.6425-4.3809-9.8365-6.3826-18.286-6.3826-8.5649,0.0082-14.874,1.5423-18.68,4.9798-0.15588-1.4193-0.50044-2.4448-1.4029-3.2734-1.5423-0.95165-3.8394-0.95986-8.2859-1.0337h-1.2798v38.804c0.10665,4.1102,0.19689,6.5467,1.9197,8.048,1.7392,1.0829,4.8157,1.165,10.575,1.247h1.2798v-26.671c-0.0985-6.3252,0.845-10.156,1.3618-10.353,0.32816-0.53325,4.5286-1.3701,11.346-1.288,5.2177-0.0082,8.4664,1.1568,9.9841,3.0026,1.1568,1.3372,1.9525,4.2496,1.9361,8.6387v17.376c0.10666,4.1102,0.1969,6.5467,1.9197,8.048,1.7474,1.0829,4.8157,1.165,10.575,1.247h1.2798v-25.883c-0.008-7.3507-1.3126-12.864-4.2414-16.506"/>
  <path fill="#000" d="m374.78,97.927c-2.0018-0.74656-7.4737-1.9771-16.834-3.8476-2.937-0.54146-5.0864-1.2224-6.3662-1.9279-1.329-0.73835-1.5834-1.3126-1.5834-1.7228,0-1.4029,0.13127-2.4612,0.34457-3.1257,0.2133-0.67272,0.43481-0.81219,0.45942-0.81219,0-0.10665,3.8558-0.39379,10.058-0.34456h11.354c4.266-0.09845,6.5057-0.08204,8.0726-1.3044,1.2962-1.5095,1.2798-3.6343,1.3865-7.5476v-1.2716h-20.543c-7.9988,0-14.086,1.0829-18.352,3.4374-4.2742,2.3381-6.6041,6.2103-6.5631,10.985,0,0.17228,0,0.32816,0.008,0.47583,0.0656,5.2341,3.7984,9.0899,10.107,11.19,0.4266,0.14766,1.5506,0.36917,4.4219,1.0091,2.7811,0.6153,6.8913,1.5177,12.347,2.6991,5.8658,1.1732,7.9824,3.0519,7.8347,4.545,0,1.2962-0.11485,2.2725-0.28713,2.8303-0.0902,0.27893-0.18049,0.45121-0.22971,0.50864l0.0164,0.008c-0.4184,0.18048-4.4957,0.41019-11.149,0.38558h-12.404c-4.4547,0.0902-6.7928,0.0984-8.3844,1.2716-1.3864,1.5259-1.37,3.7-1.4849,7.687v1.2798h22.528c8.0644,0,14.373-1.3783,18.91-4.3235,3.9461-2.5022,6.1529-6.0463,6.1283-10.206,0.041-5.4228-3.5605-9.5493-9.7954-11.879"/>
  <path d="M265.28,16.156c-9.2,0-16.31,1.966-21.16,6.125-4.84,4.168-7.19,10.416-7.18,18.407-0.01,7.916,2.32,14.154,7.12,18.281,4.8,4.118,11.84,6.062,20.94,6.062h21.59v-1.281c-0.1-3.987-0.1-6.201-1.56-7.719-1.6-1.132-4.02-1.168-8.56-1.25h-11.88c-4.66,0-8.07-1.014-10.34-2.843-1.99-1.608-3.06-3.536-3.34-6.063h26.9c5.93-0.066,9.1-0.164,10.85-1.156,1.81-1.428,1.93-3.799,2.03-7.688,0.01-6.079-2.14-11.167-6.38-14.875-4.6-4.052-11.01-6.008-19.03-6zm-3.59,9.906c0.8-0.014,1.64-0.01,2.53,0,8.49,0.189,11.94,3.018,12.28,9.688h-25.69c0.05-5.193,0.95-8.257,1.47-8.438,0.4-0.495,3.81-1.146,9.41-1.25z" transform="translate(45.318524,59.31116)" fill="#000"/>
  <path fill="#000" d="m279.62,61.001c-1.6818-1.1978-3.9543-1.6818-6.7764-1.69-2.9206,0.0082-5.2423,0.49223-6.9733,1.6818-1.7392,1.1814-2.6498,3.1667-2.6252,5.39-0.0246,2.1904,0.89422,4.1512,2.6334,5.3161,1.7228,1.165,4.0527,1.6326,6.9651,1.6408,2.8221-0.0082,5.0864-0.48403,6.7682-1.6572,1.6982-1.165,2.5842-3.1175,2.5596-5.2997,0.0164-2.2151-0.84499-4.184-2.5514-5.3818"/>
  <path fill="#000" d="m268.18,76.031,0.008-0.01641-15.71,0-15.645,35.687-11.379-26.778c-1.8541-4.1676-3.2569-6.678-5.2177-7.7691-1.9033-0.89422-5.5376-1.0993-11.789-1.1403h-2.0346l23.135,48.214h0.80398c6.4319-0.0328,10.197-0.26252,12.158-1.1321,2.01-1.0337,3.6261-3.5031,5.7427-7.5968l17.893-35.441v34.76c0.11486,4.1922,0.1969,6.6534,1.9197,8.1629,1.7556,1.0829,4.8157,1.165,10.583,1.247h1.2798v-39.133c-0.11486-4.0527-0.18869-6.4401-1.9443-7.9086-1.649-0.96806-4.5368-1.0911-9.8037-1.1567"/>
  <path fill="#000" d="m103.48,75.457c-7.9332-0.0082-13.692,1.8377-16.769,5.8904-3.0108-3.9871-8.1547-5.915-14.898-5.8904-6.9323,0-12.207,1.3865-15.555,4.4219-0.16408-1.2306-0.53325-2.1576-1.4111-2.9042-1.5177-0.87782-3.8066-0.88602-8.2449-0.95986h-1.2798v38.804c0.10665,4.1922,0.18869,6.6534,1.9197,8.1629,1.7474,1.0829,4.8157,1.165,10.575,1.247h1.2798v-28.673c-0.09024-5.2833,0.67272-8.5567,0.95165-8.5649,0.0082-0.27893,3.1339-1.0583,8.1957-0.95986,3.782,0.0082,6.0135,0.95986,7.1538,2.494,0.98447,1.2634,1.608,3.6097,1.5916,7.0307v19.263c0.11485,4.1922,0.2133,6.678,2.01,8.1793,1.7556,1.0501,4.8649,1.1568,10.624,1.2306h1.2798v-28.673c-0.09845-5.2833,0.67272-8.5567,0.95165-8.5649,0.01641-0.27893,3.0847-1.0583,8.0644-0.95986,3.7738,0.0082,6.0134,0.95986,7.1538,2.494,0.97627,1.2634,1.5998,3.6097,1.5916,7.0307v19.263c0.10665,4.1922,0.22151,6.678,2.0018,8.1793,1.7638,1.0501,4.8649,1.1568,10.632,1.2306h1.2716v-28.115c0-6.235-1.1075-11.059-3.5359-14.447-3.1503-4.2332-8.491-6.2186-15.555-6.2103"/>
 </g>
</svg>
