<?xml version="1.0" encoding="UTF-8" standalone="no"?>
<svg xmlns:rdf="http://www.w3.org/1999/02/22-rdf-syntax-ns#" xmlns="http://www.w3.org/2000/svg" height="540.84" width="600" version="1.1" xmlns:cc="http://creativecommons.org/ns#" xmlns:dc="http://purl.org/dc/elements/1.1/">
 <g fill="#040000">
  <path d="m403.16 353.09c-1.02-8.82-2.3-21.53-2.3-32.7 0-6.94 0.92-34.84 0.92-57.34 0-18.98-4.08-52.7-4.08-71.01 0-11.02 0.81-25.97-0.41-31.22 8.77-5.71 16.48-9.34 40.66-24.03 7.85-4.74 22.85-12.75 22.85-22.39 0-4.29-1.17-7.09-7.24-12.09-4.29-3.422-8.83-4.392-13.98-4.392-12.34 0-17.96 12.342-28.26 18.672-15.82 9.64-24.18 14.44-27.4 16.22-1.32-0.61-6.68-3.77-15.3-3.77-9.03 0-19.54 4.03-19.54 15.76 0 5.36 1.68 11.17-5.46 14.95-4.03 2.55-23.67 13.77-44.58 26.37-17.6 10.66-25.82 9.8-33.26 14.28-6.84 4.14-8.68 9.29-8.68 13.78 0 3.98 2.55 8.98 3.42 10.1 4.74 6.07 8.98 9.33 16.43 9.33 12.65 0 23.11-11.01 42.64-24.89 12.15-8.67 23.32-17.65 29.85-17.65 5.81 0 9.89 4.39 9.89 22.5 0 60.55-3.72 70.14-3.72 112.17 0 7.55 0.31 21.53 0.56 27.35h-32.11v-99.23l-61.83 52.14-61.83-52.14v99.23h-200.4v-353.09h195.07l67.14 70.654 67.13-70.654h196.05v150.94c-6.23 9.59-25.15 42.04-37.91 75.2-4.18 10.81-6.12 18.62-11.58 18.62-6.07 0-6.58-5.97-7.14-11.28-1.22-11.63-3.83-33.31-5-41.27-2.35-15.45-5.41-31.78-22.65-31.78-12.8 0-26.17 6.99-26.17 26.07 0 10.82 5.46 29.64 14.84 54.38 3.68 9.75 23.32 61.22 26.18 68.67 5.15 13.67 12.39 17.39 23.56 17.39 14.39 0 19.34-5.25 25.26-25.4 5-17.14 13.52-45.15 20.61-62.65v114.17h-122.27zm168.19-195.94v195.94h-32.24v-143.34c6.89-14.95 23.52-41.12 32.24-52.6m-32.24-26.12v-131l32.24 19.382v71.725c-7.91 8.264-24.49 28.413-32.24 39.893m-259.09-98.867-17.76 18.673-48.11-50.607 61.02 26.834 4.85 5.101zm2.14 274.92h22.24l6.02-5v-18.77l-28.26 23.77zm-68.05 46.02h26.52v-47.45l-26.52-22.34v69.79z"/>
  <path d="m575.14 340.43h10.25v1.94h-4.03v10.71h-2.19v-10.71h-4.03v-1.94z"/>
  <path d="m586.84 340.43h3.11l3.52 9.9 3.42-9.9h3.11v12.65h-2.14v-9.74l-3.52 9.74h-1.84l-3.52-9.74h-0.05v9.74h-2.09v-12.65z"/>
 </g>
 <path d="m571.37 524.53c0 9-7.31 16.31-16.31 16.31h-538.69c-8.9973 0-16.309-7.31-16.309-16.31l-0.00015-130.63c0-8.93 7.3118-16.31 16.311-16.31h538.69c9 0 16.31 7.38 16.31 16.31v130.63" fill="#29a0ef"/>
 <g fill="#140a08">
  <path d="m188.5 477.64c0-3.66-1.26-6.75-3.79-9.28-2.54-2.53-5.7-3.8-9.35-3.8h-9.29c-1.05 0-1.96 0.35-2.67 1.06-0.77 0.7-1.12 1.61-1.12 2.6v20.11c0 1.05 0.35 1.97 1.12 2.67 0.71 0.7 1.62 0.98 2.67 0.98h9.29c3.65 0 6.81-1.19 9.35-3.72 2.53-2.53 3.79-5.63 3.79-9.28v-1.34zm-2.11-38.88c0-1.69-0.28-3.23-0.98-4.71-0.63-1.48-1.48-2.81-2.6-3.94-1.13-1.12-2.39-2.04-3.87-2.67-1.48-0.7-3.09-0.98-4.71-0.98h-8.16c-1.05 0-1.96 0.35-2.67 1.05-0.77 0.7-1.12 1.55-1.12 2.6v18.28c0 1.06 0.35 1.97 1.12 2.67 0.71 0.78 1.62 1.13 2.67 1.13h8.16c1.62 0 3.23-0.35 4.71-0.99 1.48-0.63 2.74-1.54 3.87-2.6 1.12-1.12 1.97-2.39 2.6-3.86 0.7-1.48 0.98-3.1 0.98-4.85v-1.13zm15.82 39.44c0 3.66-0.7 7.03-2.11 10.2-1.4 3.23-3.23 5.97-5.62 8.29-2.39 2.39-5.2 4.22-8.37 5.63-3.16 1.4-6.61 2.11-10.19 2.11h-21.52c-1.61 0-3.02-0.57-4.14-1.69-1.13-1.13-1.69-2.53-1.69-4.22v-78.6c0-1.62 0.56-3.02 1.69-4.15 1.12-1.12 2.53-1.69 4.14-1.69h20.32c3.45 0 6.75 0.64 9.92 1.97 3.09 1.27 5.83 3.1 8.08 5.42 2.25 2.25 4.01 4.99 5.41 8.08 1.34 3.02 1.97 6.33 1.97 9.84 0 5.98-1.75 11.18-5.34 15.54-0.7 0.92-1.06 1.76-1.06 2.6 0 0.99 0.43 1.83 1.2 2.6 2.32 2.32 4.15 5 5.41 8.02 1.27 3.09 1.9 6.47 1.9 10.05"/>
  <path d="m252.55 425.27c-0.21-1.13-0.7-1.69-1.69-1.69-0.98 0-1.54 0.56-1.68 1.69l-8.93 44.29c-0.14 0.85-0.21 1.55-0.21 1.97 0 0.49 0.14 0.98 0.49 1.34 0.35 0.42 0.98 0.63 1.83 0.63h17.01c0.84 0 1.48-0.21 1.83-0.63 0.28-0.36 0.49-0.85 0.49-1.34 0-0.42-0.07-1.12-0.28-1.97l-8.86-44.29zm12.8 63.84c-0.14-0.99-0.64-1.9-1.27-2.75-0.77-0.77-1.62-1.12-2.74-1.12h-20.95c-1.13 0-2.04 0.35-2.74 1.12-0.71 0.85-1.13 1.76-1.27 2.75l-2.11 10.61c-0.35 1.76-1.05 3.1-2.11 4.08-1.05 0.91-2.39 1.41-4.01 1.41h-0.42c-1.54 0-2.95-0.42-4.22-1.27-1.26-0.84-1.89-2.25-1.89-4.22 0-0.42 0-0.84 0.07-1.19 0-0.35 0.07-0.71 0.21-1.2l15.25-75.58c0.5-2.53 1.62-4.71 3.38-6.61 1.76-1.82 4.01-2.81 6.82-2.81h7.03c2.81 0 5.06 0.99 6.82 2.81 1.69 1.9 2.88 4.08 3.37 6.61l15.26 75.58c0.14 0.49 0.14 0.85 0.21 1.2s0.07 0.77 0.07 1.19c0 1.97-0.63 3.38-1.9 4.22-1.26 0.85-2.67 1.27-4.22 1.27h-0.42c-1.68 0-3.02-0.5-4.08-1.41-1.05-0.98-1.68-2.32-2.03-4.08l-2.11-10.61"/>
  <path d="m331.2 471.38c-0.63-0.63-1.33-1.19-2.18-1.68-0.77-0.57-2.32-1.41-4.64-2.61l-9.63-5.27c-2.6-1.48-4.43-2.46-5.41-3.09-0.99-0.64-1.9-1.27-2.67-1.97-2.82-2.39-5-5.2-6.47-8.51-1.55-3.3-2.32-6.75-2.32-10.4 0-3.59 0.7-6.96 2.11-10.06 1.4-3.09 3.3-5.76 5.62-8.08s5.06-4.08 8.16-5.42c3.09-1.26 6.32-1.96 9.7-1.96 3.09 0 5.76 0.42 8.15 1.12 2.32 0.77 4.5 1.62 6.47 2.67 1.41 0.71 2.46 1.27 3.17 1.69 0.7 0.49 1.54 0.98 2.46 1.62 1.33 0.84 2.25 1.68 2.74 2.6 0.42 0.84 0.7 1.76 0.7 2.74 0 1.05-0.42 2.18-1.19 3.52l-0.42 0.63c-1.27 2.04-2.96 3.02-5.07 3.02-1.33 0-2.46-0.28-3.37-0.91-0.49-0.28-1.2-0.78-2.18-1.41-0.99-0.7-2.18-1.55-3.59-2.39-1.19-0.77-2.46-1.41-3.65-1.83-1.27-0.42-2.6-0.63-4.22-0.63s-3.16 0.35-4.64 1.05c-1.55 0.71-2.81 1.62-3.87 2.75-1.12 1.12-1.97 2.46-2.6 4-0.7 1.62-0.98 3.17-0.98 4.85 0 1.76 0.35 3.31 1.12 4.79 0.7 1.4 1.69 2.74 2.88 3.93 0.36 0.35 0.92 0.78 1.62 1.27s2.18 1.33 4.43 2.53l8.86 4.85c2.6 1.48 4.57 2.6 5.9 3.38 1.27 0.84 2.32 1.54 3.1 2.25 2.88 2.46 5.13 5.34 6.82 8.78 1.61 3.45 2.46 7.17 2.46 11.04 0 3.66-0.7 7.1-2.11 10.27-1.48 3.16-3.38 5.9-5.77 8.22-2.46 2.32-5.2 4.15-8.36 5.42-3.17 1.33-6.54 1.96-9.99 1.96-3.09 0-5.76-0.35-8.08-1.12-2.39-0.7-4.57-1.62-6.54-2.67-1.41-0.71-2.46-1.27-3.16-1.69-0.71-0.42-1.55-0.98-2.46-1.55-1.34-0.91-2.25-1.75-2.68-2.6-0.49-0.91-0.77-1.83-0.77-2.74 0-1.05 0.42-2.25 1.2-3.59l0.42-0.63c1.26-1.97 3.02-3.02 5.06-3.02 1.34 0 2.46 0.35 3.44 0.91l5.7 3.8c1.27 0.77 2.46 1.41 3.66 1.83 1.26 0.42 2.67 0.7 4.21 0.7 1.69 0 3.38-0.35 4.93-1.05 1.61-0.71 2.95-1.69 4.14-2.82 1.2-1.19 2.11-2.6 2.75-4.22 0.63-1.61 0.98-3.3 0.98-4.99 0-3.58-1.34-6.68-3.94-9.28"/>
  <path d="m391.54 464.18c-1.06 0-1.97 0.35-2.67 1.06-0.78 0.7-1.13 1.54-1.13 2.6v20.53c0 1.05 0.35 1.9 1.13 2.6 0.7 0.7 1.61 1.05 2.67 1.05h25.59c1.69 0 3.02 0.57 4.08 1.69 1.12 1.13 1.69 2.53 1.69 4.15v0.7c0 1.62-0.57 3.03-1.69 4.15-1.06 1.13-2.39 1.69-4.08 1.69h-37.26c-1.69 0-3.02-0.56-4.15-1.69-1.12-1.12-1.69-2.53-1.69-4.15v-78.67c0-1.62 0.57-3.02 1.69-4.15 1.13-1.12 2.46-1.68 4.15-1.68h37.26c1.69 0 3.02 0.56 4.08 1.68 1.12 1.13 1.69 2.53 1.69 4.15v0.7c0 1.76-0.57 3.17-1.69 4.22-1.06 1.13-2.39 1.62-4.08 1.62h-25.59c-1.06 0-1.97 0.35-2.67 1.05-0.78 0.71-1.13 1.62-1.13 2.6v18.57c0 1.05 0.35 1.96 1.13 2.67 0.7 0.77 1.61 1.12 2.67 1.12h14.62c1.62 0 3.03 0.56 4.15 1.69 1.13 1.12 1.76 2.53 1.76 4.22 0 1.62-0.63 3.02-1.76 4.15-1.12 1.12-2.53 1.68-4.15 1.68h-14.62"/>
 </g>
</svg>
