<?xml version="1.0" encoding="UTF-8" standalone="no"?>
<!-- Created with Inkscape (http://www.inkscape.org/) -->
<svg xmlns:rdf="http://www.w3.org/1999/02/22-rdf-syntax-ns#" xmlns="http://www.w3.org/2000/svg" height="540.83" width="600" version="1.1" xmlns:cc="http://creativecommons.org/ns#" xmlns:dc="http://purl.org/dc/elements/1.1/">
 <metadata>
  <rdf:RDF>
   <cc:Work rdf:about="">
    <dc:format>image/svg+xml</dc:format>
    <dc:type rdf:resource="http://purl.org/dc/dcmitype/StillImage"/>
    <dc:title/>
   </cc:Work>
  </rdf:RDF>
 </metadata>
 <g transform="translate(50.884032,-560.75389)">
  <g fill-rule="nonzero" transform="matrix(0.9999575,0,0,0.9999575,0.01058822,0.03532741)">
   <path d="m352.27,913.86c-1.0204-8.8266-2.2959-21.531-2.2959-32.704,0-6.9388,0.91838-34.847,0.91838-57.347,0-18.98-4.0817-52.705-4.0817-71.021,0-11.02,0.81633-25.97-0.40817-31.225,8.7756-5.7143,16.48-9.3368,40.664-24.031,7.8572-4.7449,22.857-12.755,22.857-22.398,0-4.2858-1.1735-7.0919-7.245-12.092-4.2858-3.4184-8.8266-4.3878-13.98-4.3878-12.347,0-17.959,12.347-28.266,18.674-15.816,9.6429-24.184,14.439-27.398,16.225-1.3265-0.61225-6.6837-3.7755-15.306-3.7755-9.0307,0-19.541,4.0306-19.541,15.765,0,5.3572,1.6837,11.174-5.4592,14.949-4.0306,2.551-23.674,13.776-44.592,26.378-17.602,10.663-25.817,9.796-33.266,14.286-6.8368,4.1327-8.6735,9.2858-8.6735,13.776,0,3.9796,2.551,8.9797,3.4184,10.102,4.7449,6.0715,8.9797,9.3368,16.429,9.3368,12.653,0,23.112-11.02,42.653-24.898,12.143-8.6736,23.317-17.653,29.847-17.653,5.8164,0,9.898,4.3878,9.898,22.5,0,60.562-3.7245,70.154-3.7245,112.19,0,7.5511,0.30612,21.531,0.56122,27.347h-32.092v-99.236l-61.837,52.143-61.837-52.143v99.236h-200.41v-353.12h195.1l67.143,70.664,67.143-70.664h196.07v150.97c-6.2245,9.5919-25.153,42.041-37.908,75.205-4.1837,10.816-6.1225,18.623-11.582,18.623-6.0715,0-6.5817-5.9694-7.1429-11.276-1.2245-11.633-3.8266-33.317-5-41.276-2.347-15.459-5.4082-31.786-22.653-31.786-12.806,0-26.174,6.9899-26.174,26.072,0,10.816,5.4592,29.643,14.847,54.388,3.6735,9.745,23.317,61.225,26.174,68.674,5.1531,13.674,12.398,17.398,23.572,17.398,14.388,0,19.337-5.2552,25.255-25.408,5-17.143,13.521-45.153,20.612-62.654v114.18h-122.3zm168.22-195.97,0,195.97-32.245,0,0-143.37c6.8878-14.949,23.521-41.123,32.245-52.602m-32.245-26.123,0-131.02,32.245,19.388,0,71.735c-7.9082,8.2654-24.49,28.419-32.245,39.898m-259.13-98.878-17.755,18.674-48.113-50.613,61.021,26.837,4.847,5.1021zm2.1429,274.95,22.245,0,6.0205-5,0-18.776-28.266,23.776zm-68.062,46.021,26.531,0,0-47.449-26.531-22.347,0,69.797z" fill="#040000"/>
   <path d="m524.27,901.19,10.255,0,0,1.9388-4.0306,0,0,10.714-2.1939,0,0-10.714-4.0306,0,0-1.9388z" fill="#040000"/>
   <path d="m535.97,901.19,3.1123,0,3.5204,9.898,0,0,3.4184-9.898,3.1123,0,0,12.653-2.1429,0,0-9.745,0,0-3.5204,9.745-1.8368,0-3.5204-9.745-0.051,0,0,9.745-2.0918,0,0-12.653z" fill="#040000"/>
   <path d="m520.5,1085.3c0,8.9797-7.347,16.327-16.327,16.327h-538.73c-8.9797,0-16.327-7.347-16.327-16.327v-130.61c0-8.9797,7.347-16.327,16.327-16.327h538.73c8.9797,0,16.327,7.347,16.327,16.327v130.61z" fill="#f47920"/>
   <path d="m38.456,1054.5c1.5816,0,2.9592-0.2041,4.1837-0.6633,1.2245-0.4081,2.449-1.0204,3.6735-1.8367l5.7143-3.7756c0.9694-0.6122,2.0919-0.9183,3.4184-0.9183,2.0919,0,3.7755,1.0204,5.1021,3.0102l0.35714,0.6633c0.81633,1.2755,1.1735,2.449,1.1735,3.5204,0,0.9694-0.20408,1.8368-0.71429,2.7551-0.45919,0.8674-1.3776,1.7347-2.6531,2.6021-0.9694,0.6122-1.7857,1.1224-2.5,1.5816-0.66327,0.4082-1.7347,0.9694-3.1123,1.6837-2.0408,1.0204-4.1837,1.9388-6.5307,2.6531-2.347,0.7653-5.0511,1.1225-8.1123,1.1225-3.0613,0-5.9184-0.4592-8.6735-1.3776s-5.2041-2.1939-7.449-3.9286c-2.1939-1.6837-4.0817-3.6735-5.7143-5.9184-1.6837-2.2449-2.9082-4.796-3.7755-7.6021-0.15306-0.5613-0.35715-1.2755-0.51021-1.9898-0.15306-0.7654-0.30612-1.6327-0.45919-2.7041-0.15306-1.0205-0.20408-2.296-0.2551-3.8266s-0.05102-3.4184-0.05102-5.6633v-27.704c0-2.296,0-4.1837,0.05102-5.7144,0.05102-1.4796,0.10204-2.8061,0.2551-3.8265,0.15306-1.0714,0.30612-1.9388,0.45919-2.7041,0.15306-0.71429,0.35715-1.3776,0.51021-1.9898,0.86736-2.7041,2.0919-5.2041,3.7755-7.5001,1.6327-2.347,3.5204-4.3368,5.7143-6.0205,2.2449-1.6837,4.6939-3.0102,7.449-3.9286,2.7551-0.91838,5.6123-1.3776,8.6735-1.3776,3.0613,0,5.7654,0.35714,8.1123,1.1225,2.347,0.71429,4.4898,1.6327,6.5307,2.6531,1.3776,0.71429,2.449,1.2755,3.1123,1.7347,0.71429,0.40816,1.5306,0.91837,2.5,1.5306,1.2755,0.86736,2.1939,1.7857,2.6531,2.6021,0.51021,0.91837,0.71429,1.7857,0.71429,2.7551,0,1.0714-0.35715,2.2449-1.1735,3.5204l-0.35714,0.66327c-1.3265,1.9898-3.0102,3.0102-5.1021,3.0102-1.3265,0-2.449-0.30612-3.4184-0.91837l-5.7143-3.7756c-1.2245-0.76531-2.449-1.3776-3.6735-1.8368-1.2245-0.40816-2.6021-0.66327-4.1837-0.66327-2.8061,0-5.2551,0.76531-7.398,2.2449-2.0919,1.4796-3.6735,3.4184-4.5919,5.8674-0.20408,0.45918-0.35715,0.86735-0.51021,1.3776-0.10204,0.45919-0.20408,1.1735-0.35715,1.9898-0.15306,0.91838-0.20408,1.9898-0.2551,3.3674-0.05102,1.3265-0.10204,3.0102-0.10204,5v29.286c0,1.9898,0.05102,3.6735,0.10204,5,0.05102,1.3776,0.10204,2.449,0.2551,3.3674,0.15306,0.8674,0.2551,1.5306,0.35715,2.0919,0.15306,0.5102,0.30612,0.9183,0.51021,1.2755,0.91838,2.449,2.5,4.4388,4.5919,5.8674,2.1429,1.4796,4.5919,2.2449,7.398,2.2449" fill="#040000"/>
   <path d="m124.36,1063.5c-1.1225,1.1225-2.551,1.6837-4.1837,1.6837h-33.623c-1.6327,0-3.0102-0.5612-4.1327-1.6837s-1.6837-2.5-1.6837-4.1837v-78.623c0-1.6327,0.56123-3.0612,1.6837-4.1837,1.1225-1.1224,2.5-1.6837,4.1327-1.6837h2.0919c1.6327,0,3.0102,0.56123,4.1327,1.6837s1.6837,2.551,1.6837,4.1837v68.419c0,1.0715,0.35714,1.9388,1.1225,2.6531,0.71429,0.6633,1.6327,1.0204,2.6531,1.0204h21.939c1.6327,0,3.0612,0.5613,4.1837,1.7347,1.1225,1.1225,1.6837,2.5001,1.6837,4.1327v0.6633c0,1.6837-0.56123,3.0612-1.6837,4.1837" fill="#040000"/>
   <path d="m171.51,986.01c-0.15306-1.1225-0.76531-1.6837-1.6837-1.6837-0.96939,0-1.5306,0.56123-1.7347,1.6837l-8.8776,44.286c-0.15307,0.8674-0.25511,1.5306-0.25511,1.9388,0,0.5102,0.20409,0.9694,0.51021,1.3776,0.35715,0.4081,0.9694,0.6122,1.8368,0.6122h16.99c0.86736,0,1.4796-0.2041,1.8368-0.6122,0.35715-0.4082,0.51021-0.8674,0.51021-1.3776,0-0.4082-0.10204-1.0714-0.2551-1.9388l-8.8776-44.286zm12.806,63.878c-0.20408-1.0714-0.61225-1.9898-1.3265-2.7551-0.66327-0.7653-1.5816-1.1735-2.7551-1.1735h-20.868c-1.1225,0-2.0408,0.4082-2.7551,1.1735-0.71429,0.7653-1.1224,1.6837-1.2755,2.7551l-2.0918,10.561c-0.35715,1.7347-1.0714,3.1123-2.0919,4.0307-1.0714,0.9694-2.398,1.4796-4.0817,1.4796h-0.35715c-1.5816,0-3.0102-0.4082-4.2858-1.2756-1.2245-0.8163-1.8878-2.2449-1.8878-4.2347,0-0.4081,0.051-0.8163,0.10204-1.1735,0-0.3571,0.10204-0.7143,0.15306-1.1734l15.306-75.613c0.5102-2.5,1.6327-4.7449,3.3674-6.5817,1.7857-1.8878,4.0306-2.8061,6.8368-2.8061h7.0409c2.7551,0,5.0511,0.91837,6.7858,2.8061,1.7347,1.8368,2.8572,4.0817,3.3674,6.5817l15.306,75.613c0.10204,0.4591,0.15306,0.8163,0.20408,1.1734,0.051,0.3572,0.051,0.7654,0.051,1.1735,0,1.9898-0.61225,3.4184-1.8878,4.2347-1.2755,0.8674-2.7041,1.2756-4.2347,1.2756h-0.40816c-1.6327,0-3.0102-0.5102-4.0306-1.4796-1.0714-0.9184-1.7347-2.296-2.0918-4.0307l-2.0919-10.561z" fill="#040000"/>
   <path d="m249.35,1032.1c-0.61225-0.6123-1.3265-1.1735-2.1429-1.6837-0.81633-0.5102-2.398-1.4286-4.6429-2.6531l-9.694-5.2041c-2.6021-1.4796-4.3878-2.5-5.4082-3.1123-0.9694-0.6122-1.8878-1.2755-2.6531-1.9898-2.8061-2.3469-4.949-5.1531-6.4796-8.4694-1.5306-3.3164-2.2959-6.7858-2.2959-10.459,0-3.5715,0.71429-6.8878,2.0918-10,1.3776-3.0612,3.2653-5.7654,5.6123-8.0613,2.347-2.347,5.1021-4.1327,8.1633-5.4592,3.1123-1.2755,6.3266-1.9388,9.745-1.9388,3.0612,0,5.7654,0.35714,8.1123,1.1224,2.347,0.7143,4.4898,1.6327,6.5307,2.6531,1.3776,0.71429,2.398,1.2755,3.1123,1.6837,0.71429,0.45918,1.5306,0.96939,2.5,1.5816,1.2755,0.86736,2.1939,1.7347,2.6531,2.6021,0.51021,0.86736,0.71429,1.7857,0.71429,2.7551,0,1.0714-0.35714,2.2449-1.1735,3.5204l-0.35714,0.66327c-1.3265,1.9898-3.0102,3.0102-5.1021,3.0102-1.3265,0-2.449-0.30613-3.4184-0.91838-0.40817-0.2551-1.1735-0.76531-2.1429-1.4286-1.0204-0.71429-2.1939-1.4796-3.6225-2.347-1.1735-0.81633-2.398-1.3776-3.6225-1.8368-1.2245-0.45919-2.6021-0.66327-4.1837-0.66327-1.6327,0-3.2143,0.35715-4.6939,1.0714-1.4796,0.66327-2.7551,1.5816-3.8776,2.7041-1.0714,1.1735-1.9388,2.5-2.6021,4.0817-0.66327,1.5306-0.9694,3.1633-0.9694,4.796,0,1.7857,0.35715,3.3674,1.1225,4.796,0.71429,1.4286,1.6837,2.7551,2.9082,3.9796,0.35714,0.3571,0.86735,0.7653,1.5816,1.2245,0.71429,0.5102,2.1939,1.3265,4.4388,2.551l8.8776,4.847c2.6021,1.4796,4.5919,2.6021,5.8674,3.3674,1.3265,0.8163,2.347,1.5306,3.1633,2.2449,2.8572,2.449,5.1021,5.3572,6.7858,8.8266,1.6327,3.4184,2.449,7.0919,2.449,11.02,0,3.6735-0.7143,7.0919-2.1429,10.255-1.4286,3.1633-3.3674,5.9184-5.7143,8.2144-2.398,2.3469-5.2041,4.1327-8.3674,5.4082-3.2143,1.3265-6.5307,1.9898-10,1.9898-3.0612,0-5.7654-0.3572-8.1123-1.1225-2.347-0.7143-4.5409-1.6326-6.5307-2.653-1.3776-0.7143-2.449-1.2756-3.1123-1.7348-0.71429-0.4081-1.5306-0.9183-2.5-1.5306-1.3265-0.8673-2.1939-1.7347-2.6531-2.602-0.51021-0.9184-0.7143-1.7858-0.7143-2.7552,0-1.0714,0.35715-2.2449,1.1735-3.5204l0.35715-0.6633c1.3265-1.9898,3.0102-3.0102,5.1021-3.0102,1.3265,0,2.449,0.3061,3.4184,0.9184l5.7143,3.7755c1.2245,0.7653,2.449,1.3776,3.6735,1.8368,1.2245,0.4081,2.6021,0.6632,4.1837,0.6632,1.7347,0,3.3674-0.3571,4.949-1.0714,1.5816-0.6633,2.9592-1.6327,4.1327-2.8062,1.1735-1.1734,2.0919-2.551,2.7551-4.1837,0.61225-1.5816,0.96939-3.2653,0.96939-5,0-3.5715-1.3265-6.6837-3.9286-9.2858" fill="#040000"/>
   <path d="m322.22,1032.1c-0.61225-0.6123-1.3265-1.1735-2.1429-1.6837-0.81633-0.5102-2.398-1.4286-4.6429-2.6531l-9.694-5.2041c-2.6021-1.4796-4.3878-2.5-5.4082-3.1123-0.9694-0.6122-1.8878-1.2755-2.6531-1.9898-2.8061-2.3469-4.949-5.1531-6.4796-8.4694-1.5306-3.3164-2.2959-6.7858-2.2959-10.459,0-3.5715,0.71429-6.8878,2.0918-10,1.3776-3.0612,3.2653-5.7654,5.6123-8.0613,2.347-2.347,5.1021-4.1327,8.1633-5.4592,3.1123-1.2755,6.3266-1.9388,9.745-1.9388,3.0612,0,5.7654,0.35714,8.1123,1.1224,2.347,0.7143,4.4898,1.6327,6.5307,2.6531,1.3776,0.71429,2.398,1.2755,3.1123,1.6837,0.71429,0.45918,1.5306,0.96939,2.5,1.5816,1.2755,0.86736,2.1939,1.7347,2.6531,2.6021,0.51021,0.86736,0.71429,1.7857,0.71429,2.7551,0,1.0714-0.35714,2.2449-1.1735,3.5204l-0.35714,0.66327c-1.3265,1.9898-3.0102,3.0102-5.1021,3.0102-1.3265,0-2.449-0.30613-3.4184-0.91838-0.40817-0.2551-1.1735-0.76531-2.1429-1.4286-1.0204-0.71429-2.1939-1.4796-3.5715-2.347-1.2245-0.81633-2.449-1.3776-3.6735-1.8368-1.2245-0.45919-2.6021-0.66327-4.1837-0.66327-1.6327,0-3.2143,0.35715-4.6939,1.0714-1.4796,0.66327-2.7551,1.5816-3.8776,2.7041-1.0714,1.1735-1.9388,2.5-2.6021,4.0817-0.66327,1.5306-0.9694,3.1633-0.9694,4.796,0,1.7857,0.35715,3.3674,1.1225,4.796,0.71429,1.4286,1.6837,2.7551,2.9082,3.9796,0.35714,0.3571,0.86735,0.7653,1.5816,1.2245,0.71429,0.5102,2.1939,1.3265,4.4388,2.551l8.8776,4.847c2.6021,1.4796,4.5919,2.6021,5.8674,3.3674,1.3265,0.8163,2.347,1.5306,3.1633,2.2449,2.8572,2.449,5.1021,5.3572,6.7858,8.8266,1.6327,3.4184,2.449,7.0919,2.449,11.02,0,3.6735-0.7143,7.0919-2.1429,10.255-1.4286,3.1633-3.3674,5.9184-5.7143,8.2144-2.398,2.3469-5.2041,4.1327-8.3674,5.4082-3.2143,1.3265-6.5307,1.9898-10,1.9898-3.0612,0-5.7654-0.3572-8.1123-1.1225-2.347-0.7143-4.5409-1.6326-6.5307-2.653-1.3776-0.7143-2.449-1.2756-3.1123-1.7348-0.71429-0.4081-1.5306-0.9183-2.5-1.5306-1.2755-0.8673-2.1939-1.7347-2.6531-2.602-0.51021-0.9184-0.7143-1.7858-0.7143-2.7552,0-1.0714,0.35715-2.2449,1.1735-3.5204l0.35715-0.6633c1.3265-1.9898,3.0102-3.0102,5.1021-3.0102,1.3265,0,2.449,0.3061,3.4184,0.9184l5.7143,3.7755c1.2245,0.7653,2.449,1.3776,3.6735,1.8368,1.2245,0.4081,2.6021,0.6632,4.1837,0.6632,1.7347,0,3.4184-0.3571,4.949-1.0714,1.5816-0.6633,2.9592-1.6327,4.1327-2.8062,1.1735-1.1734,2.0919-2.551,2.7551-4.1837,0.61225-1.5816,0.96939-3.2653,0.96939-5,0-3.5715-1.3265-6.6837-3.9286-9.2858" fill="#040000"/>
   <path d="m377.14,1063.5c-1.0714,1.1225-2.449,1.6837-4.1327,1.6837h-2.0918c-1.6327,0-3.0102-0.5612-4.1327-1.6837-1.1735-1.1225-1.7347-2.5-1.7347-4.1837v-78.623c0-1.6327,0.56123-3.0612,1.7347-4.1837,1.1225-1.1224,2.5-1.6837,4.1327-1.6837h2.0918c1.6837,0,3.0612,0.56123,4.1327,1.6837,1.0714,1.1225,1.6327,2.551,1.6327,4.1837v78.623c0,1.6837-0.56123,3.0612-1.6327,4.1837" fill="#040000"/>
   <path d="m434.41,1054.5c1.5816,0,2.9592-0.2041,4.1837-0.6633,1.2245-0.4081,2.449-1.0204,3.6735-1.8367l5.7143-3.7756c0.9694-0.6122,2.0919-0.9183,3.4184-0.9183,2.0918,0,3.7755,1.0204,5.1021,3.0102l0.35715,0.6633c0.81633,1.2755,1.1735,2.449,1.1735,3.5204,0,0.9694-0.20408,1.8368-0.71429,2.7551-0.45919,0.8674-1.3776,1.7347-2.6531,2.6021-0.96939,0.6122-1.7857,1.1224-2.5,1.5816-0.66327,0.4082-1.7347,0.9694-3.1123,1.6837-2.0408,1.0204-4.1837,1.9388-6.5307,2.6531-2.347,0.7653-5.0511,1.1225-8.1123,1.1225s-5.9184-0.4592-8.6735-1.3776-5.2552-2.1939-7.449-3.9286c-2.1939-1.6837-4.0817-3.6735-5.7143-5.9184-1.6837-2.2449-2.9082-4.796-3.7755-7.6021-0.15307-0.5613-0.35715-1.2755-0.51021-1.9898-0.15306-0.7654-0.30613-1.6327-0.45919-2.7041-0.15306-1.0205-0.20408-2.296-0.2551-3.8266-0.051-1.5306-0.051-3.4184-0.051-5.6633v-27.704c0-2.296,0-4.1837,0.051-5.7144,0.051-1.4796,0.10204-2.8061,0.2551-3.8265,0.15306-1.0714,0.30613-1.9388,0.45919-2.7041,0.15306-0.71429,0.35714-1.3776,0.51021-1.9898,0.86735-2.7041,2.0918-5.2041,3.7755-7.5001,1.6327-2.347,3.5204-4.3368,5.7143-6.0205s4.6939-3.0102,7.449-3.9286c2.7551-0.91838,5.6123-1.3776,8.6735-1.3776s5.7654,0.35714,8.1123,1.1225c2.347,0.71429,4.4898,1.6327,6.5307,2.6531,1.3776,0.71429,2.449,1.2755,3.1123,1.7347,0.71429,0.40816,1.5306,0.91837,2.5,1.5306,1.2755,0.86736,2.1939,1.7857,2.6531,2.6021,0.51021,0.91837,0.71429,1.7857,0.71429,2.7551,0,1.0714-0.35715,2.2449-1.1735,3.5204l-0.35715,0.66327c-1.3265,1.9898-3.0102,3.0102-5.1021,3.0102-1.3265,0-2.449-0.30612-3.4184-0.91837l-5.7143-3.7756c-1.2245-0.76531-2.449-1.3776-3.6735-1.8368-1.2245-0.40816-2.6021-0.66327-4.1837-0.66327-2.8062,0-5.2552,0.76531-7.398,2.2449-2.0919,1.4796-3.6735,3.4184-4.5919,5.8674-0.20408,0.45918-0.35714,0.86735-0.51021,1.3776-0.10204,0.45919-0.2551,1.1735-0.35714,1.9898-0.15306,0.91838-0.20409,1.9898-0.25511,3.3674-0.051,1.3265-0.10204,3.0102-0.10204,5v29.286c0,1.9898,0.051,3.6735,0.10204,5,0.051,1.3776,0.10205,2.449,0.25511,3.3674,0.10204,0.8674,0.2551,1.5306,0.35714,2.0919,0.15307,0.5102,0.30613,0.9183,0.51021,1.2755,0.91838,2.449,2.5,4.4388,4.5919,5.8674,2.1429,1.4796,4.5919,2.2449,7.398,2.2449" fill="#040000"/>
  </g>
 </g>
</svg>
