<?xml version="1.0" encoding="UTF-8" standalone="no"?>
<!-- Created with Inkscape (http://www.inkscape.org/) -->
<svg xmlns:rdf="http://www.w3.org/1999/02/22-rdf-syntax-ns#" xmlns="http://www.w3.org/2000/svg" height="540.84" width="600" version="1.1" xmlns:cc="http://creativecommons.org/ns#" xmlns:dc="http://purl.org/dc/elements/1.1/">
 <metadata>
  <rdf:RDF>
   <cc:Work rdf:about="">
    <dc:format>image/svg+xml</dc:format>
    <dc:type rdf:resource="http://purl.org/dc/dcmitype/StillImage"/>
    <dc:title/>
   </cc:Work>
  </rdf:RDF>
 </metadata>
 <g transform="translate(-17.958494,-560.75128)">
  <g fill-rule="nonzero" transform="matrix(0.99994048,0,0,0.99994048,0.01892376,0.04946833)">
   <path d="m421.11,913.86c-1.0204-8.8268-2.296-21.531-2.296-32.705,0-6.939,0.91839-34.848,0.91839-57.348,0-18.98-4.0817-52.705-4.0817-71.022,0-11.021,0.81634-25.97-0.40818-31.225,8.7757-5.7144,16.48-9.337,40.664-24.031,7.8573-4.745,22.858-12.755,22.858-22.399,0-4.2858-1.1735-7.092-7.2451-12.092-4.2858-3.4184-8.8268-4.3879-13.98-4.3879-12.347,0-17.96,12.347-28.266,18.674-15.817,9.6431-24.184,14.439-27.399,16.225-1.3266-0.61226-6.6838-3.7756-15.307-3.7756-9.0308,0-19.541,4.0307-19.541,15.766,0,5.3573,1.6837,11.174-5.4593,14.949-4.0307,2.5511-23.674,13.776-44.593,26.378-17.602,10.664-25.817,9.7962-33.266,14.286-6.8369,4.1328-8.6737,9.286-8.6737,13.776,0,3.9797,2.5511,8.9798,3.4185,10.102,4.745,6.0716,8.9798,9.337,16.429,9.337,12.653,0,23.113-11.021,42.654-24.899,12.143-8.6737,23.317-17.654,29.848-17.654,5.8165,0,9.8982,4.3879,9.8982,22.501,0,60.563-3.7246,70.155-3.7246,112.2,0,7.5512,0.30613,21.531,0.56124,27.348h-32.093v-99.237l-61.838,52.144-61.838-52.144v99.237h-200.41v-353.12h195.11l67.145,70.665,67.145-70.665h196.08v150.97c-6.2246,9.5921-25.154,42.042-37.909,75.206-4.1838,10.817-6.1226,18.623-11.582,18.623-6.0716,0-6.5818-5.9185-7.143-11.276-1.2245-11.633-3.8266-33.317-5.0512-41.277-2.296-15.46-5.3573-31.787-22.603-31.787-12.806,0-26.174,6.99-26.174,26.072,0,10.817,5.4593,29.644,14.847,54.389,3.6736,9.7452,23.317,61.226,26.174,68.675,5.1532,13.725,12.347,17.398,23.572,17.398,14.388,0,19.337-5.2552,25.256-25.409,5.0001-17.143,13.521-45.154,20.613-62.655v114.19h-122.3zm168.22-195.97,0,195.97-32.246,0,0-143.37c6.8879-14.949,23.521-41.123,32.246-52.603m-32.246-26.123,0-131.02,32.246,19.388,0,71.737c-7.9084,8.2655-24.49,28.419-32.246,39.899m-259.14-98.88-17.756,18.674-48.113-50.563,61.022,26.786,4.8471,5.1022zm2.1429,275.01,22.245,0,6.0206-5.0512,0-18.776-28.266,23.827zm-68.063,45.971,26.531,0,0-47.45-26.531-22.348,0,69.798z" fill="#040000"/>
   <path d="m593.12,901.2,10.255,0,0,1.9388-4.0307,0,0,10.715-2.1939,0,0-10.715-4.0307,0,0-1.9388z" fill="#040000"/>
   <path d="m604.81,901.2,3.1123,0,3.5205,9.8982,0,0,3.4185-9.8982,3.1123,0,0,12.653-2.1429,0,0-9.7451,0,0-3.5205,9.7451-1.8368,0-3.5205-9.7451-0.051,0,0,9.7451-2.0919,0,0-12.653z" fill="#040000"/>
   <path d="m589.35,1085.3c0,8.9798-7.3471,16.327-16.327,16.327h-538.74c-8.9798,0-16.327-7.3471-16.327-16.327v-130.62c0-8.9798,7.3471-16.327,16.327-16.327h538.74c8.9798,0,16.327,7.3471,16.327,16.327v130.62z" fill="#8f53a1"/>
   <path d="m148.31,1052.8c2.8062,0,5.2552-0.7653,7.3982-2.245,2.1429-1.4796,3.7246-3.4184,4.694-5.8675,0.15306-0.3571,0.30613-0.7653,0.45919-1.2755,0.10204-0.5612,0.25511-1.2245,0.35715-2.0919,0.15307-0.8674,0.25511-1.9898,0.30613-3.3674,0.051-1.3266,0.051-3.0103,0.051-5.0001v-25.868c0-1.9898,0-3.6735-0.051-5.0511-0.051-1.3266-0.15306-2.449-0.30613-3.3164-0.10204-0.86737-0.25511-1.5306-0.35715-1.9898-0.15306-0.51022-0.30613-0.96941-0.45919-1.3776-0.96942-2.449-2.5511-4.4389-4.694-5.9185s-4.592-2.1939-7.3982-2.1939h-9.337c-1.0204,0-1.9388,0.35715-2.6531,1.0204-0.76533,0.7143-1.1225,1.5817-1.1225,2.6531v58.216c0,1.0715,0.35715,1.9389,1.1225,2.6021,0.7143,0.7143,1.6327,1.0715,2.6531,1.0715h9.337zm-20.97,12.398c-1.6327,0-3.0613-0.5613-4.1838-1.6837-1.1225-1.1225-1.6837-2.5511-1.6837-4.1838v-78.624c0-1.6837,0.56124-3.0613,1.6837-4.1838s2.5511-1.6837,4.1838-1.6837h20.97c3.0613,0,5.9185,0.45919,8.6737,1.3776,2.7042,0.86737,5.2042,2.1939,7.3982,3.8776,2.245,1.7347,4.1838,3.7246,5.8165,6.0206s2.9082,4.796,3.7756,7.5002c0.20409,0.61226,0.35715,1.3266,0.51022,2.0409,0.20408,0.71431,0.35715,1.6327,0.45919,2.6531,0.15307,1.0715,0.25511,2.347,0.25511,3.8777,0.051,1.5306,0.10204,3.4184,0.10204,5.6634v24.337c0,2.245-0.051,4.1328-0.10204,5.6634,0,1.5307-0.10204,2.8062-0.25511,3.8267-0.10204,1.0714-0.25511,1.9388-0.45919,2.7041-0.15307,0.7143-0.30613,1.4286-0.51022,2.0409-0.86737,2.7552-2.1429,5.3062-3.7756,7.5512s-3.5715,4.2348-5.8165,5.9185c-2.1939,1.7348-4.694,3.0103-7.3982,3.9287-2.7552,0.9184-5.6124,1.3776-8.6737,1.3776h-20.97z" fill="#040000"/>
   <path d="m231.31,986.02c-0.15307-1.1225-0.76533-1.6837-1.6837-1.6837-0.96941,0-1.5306,0.56124-1.7347,1.6837l-8.8778,44.287c-0.15307,0.8674-0.25511,1.5306-0.25511,1.9388,0,0.5613,0.20409,0.9694,0.51022,1.3776,0.35715,0.4082,0.96941,0.6123,1.8368,0.6123h16.99c0.86737,0,1.4796-0.2041,1.8368-0.6123,0.35715-0.4082,0.51022-0.8163,0.51022-1.3776,0-0.4082-0.10205-1.0714-0.25511-1.9388l-8.8778-44.287zm12.806,63.879c-0.20409-1.0714-0.61226-1.9898-1.3266-2.7551-0.66328-0.7654-1.5817-1.1735-2.7552-1.1735h-20.868c-1.1225,0-2.0409,0.4081-2.7552,1.1735-0.7143,0.7653-1.1225,1.6837-1.2755,2.7551l-2.0919,10.562c-0.35715,1.7348-1.0715,3.1123-2.0919,4.0818-1.0715,0.9184-2.398,1.4286-4.0817,1.4286h-0.35715c-1.5817,0-3.0103-0.4082-4.2858-1.2756-1.2245-0.8163-1.8878-2.1939-1.8878-4.2348,0-0.4081,0.051-0.8163,0.10205-1.1735,0-0.3571,0.10204-0.7143,0.15306-1.1735l15.307-75.614c0.51022-2.5511,1.6327-4.745,3.3674-6.5818,1.7858-1.8878,4.0307-2.8062,6.8369-2.8062h7.041c2.7552,0,5.0512,0.91839,6.7859,2.8062,1.7347,1.8368,2.8572,4.0307,3.3674,6.5818l15.307,75.614c0.10205,0.4592,0.15307,0.8164,0.20409,1.1735,0.051,0.3572,0.051,0.7654,0.051,1.1735,0,2.0409-0.61226,3.4185-1.8878,4.2348-1.2755,0.8674-2.7042,1.2756-4.2348,1.2756h-0.40818c-1.6327,0-3.0103-0.5102-4.0307-1.4286-1.0715-0.9695-1.7347-2.347-2.0919-4.0818l-2.0919-10.562z" fill="#040000"/>
   <path d="m301.81,1020.9c-1.2245-2.9593-2.0409-5.2042-2.398-6.6838-0.40817-1.4797-0.96941-2.194-1.6327-2.194-0.81634,0-1.1735,0.6633-1.1735,1.9388,0,0.6123,0,1.4287,0.10204,2.4491,0.10204,0.9694,0.15306,2.7552,0.15306,5.2552v37.654c0,1.6327-0.56123,3.0103-1.6837,4.1838-1.1735,1.1225-2.5511,1.6837-4.1838,1.6837h-1.9898c-1.6327,0-3.0613-0.5612-4.1838-1.6837-1.1225-1.1735-1.6837-2.5511-1.6837-4.1838v-78.624c0-1.6837,0.56124-3.0613,1.6837-4.1838,1.1225-1.1735,2.5511-1.7347,4.1838-1.7347h1.1735c1.5817,0,3.0613,0.35716,4.4389,1.0715,1.4286,0.7143,2.5001,1.9898,3.2654,3.9287l16.837,39.287c1.2245,2.9593,2.0409,5.2042,2.449,6.6839,0.40818,1.4796,0.9184,2.1939,1.6327,2.1939,0.76533,0,1.1735-0.6123,1.1735-1.9388,0-0.6123-0.051-1.4286-0.15307-2.4491-0.051-0.9694-0.10204-2.7551-0.10204-5.2552v-37.603c0-1.6837,0.56124-3.0613,1.6837-4.1838,1.1225-1.1735,2.5511-1.7347,4.1838-1.7347h1.9388c1.6837,0,3.0613,0.56124,4.1838,1.7347,1.1225,1.1225,1.6837,2.5001,1.6837,4.1838v78.624c0,1.6327-0.56124,3.0103-1.6837,4.1838-1.1225,1.1225-2.5001,1.6837-4.1838,1.6837h-1.1735c-1.5306,0-3.0103-0.3571-4.4389-1.0714-1.3776-0.6633-2.449-1.9899-3.2654-3.9287l-16.837-39.287z" fill="#040000"/>
   <path d="m389.05,1054.5c1.5817,0,2.9593-0.2041,4.1838-0.6633,1.2245-0.4082,2.449-1.0204,3.6736-1.8368l5.7144-3.7756c0.96942-0.6122,2.0919-0.9184,3.4185-0.9184,2.0919,0,3.7756,1.0205,5.1022,3.0103l0.35715,0.6633c0.81635,1.2755,1.1735,2.449,1.1735,3.5205,0,0.9694-0.20409,1.8878-0.7143,2.7552-0.4592,0.8673-1.3776,1.7347-2.6531,2.6021-0.96941,0.6122-1.7858,1.1225-2.5001,1.5817-0.66329,0.4081-1.7347,0.9694-3.1123,1.6837-2.0409,1.0204-4.1838,1.9388-6.5308,2.6531-2.347,0.7653-5.0512,1.1225-8.1124,1.1225-3.0613,0-5.9185-0.4592-8.6737-1.3776s-5.2042-2.1939-7.4492-3.9287c-2.1939-1.6837-4.0817-3.6735-5.7144-5.9185-1.6837-2.245-2.9082-4.796-3.7756-7.5512-0.15306-0.6123-0.35715-1.3266-0.51022-2.0409-0.15306-0.7653-0.30613-1.6327-0.45919-2.7041-0.15307-1.0205-0.20409-2.296-0.25511-3.8267-0.051-1.5306-0.051-3.4184-0.051-5.6634v-27.705c0-2.2959,0-4.1837,0.051-5.7144,0.051-1.4796,0.10204-2.8062,0.25511-3.8266,0.15306-1.0715,0.30613-1.9388,0.45919-2.6531,0.15307-0.76532,0.35716-1.4286,0.51022-2.0409,0.86737-2.7042,2.0919-5.2042,3.7756-7.5512,1.6327-2.296,3.5205-4.2858,5.7144-5.9695,2.245-1.6837,4.694-3.0103,7.4492-3.9287,2.7552-0.91839,5.6124-1.3776,8.6737-1.3776s5.7654,0.35715,8.1124,1.1225c2.347,0.7143,4.4899,1.6327,6.5308,2.6531,1.3776,0.7143,2.449,1.2755,3.1123,1.7347,0.7143,0.40817,1.5306,0.91839,2.5001,1.5306,1.2755,0.86737,2.1939,1.7858,2.6531,2.6531,0.51021,0.86737,0.7143,1.7858,0.7143,2.7042,0,1.0714-0.35715,2.245-1.1735,3.5205l-0.35715,0.66328c-1.3266,1.9898-3.0103,3.0103-5.1022,3.0103-1.3266,0-2.449-0.30613-3.4185-0.91839l-5.7144-3.7756c-1.2245-0.76532-2.449-1.3776-3.6736-1.8368-1.2245-0.40817-2.6021-0.66328-4.1838-0.66328-2.8062,0-5.2552,0.76532-7.3982,2.245-2.0919,1.4796-3.6736,3.4185-4.592,5.8675-0.20409,0.4592-0.35715,0.91839-0.51022,1.3776-0.10204,0.45919-0.25511,1.1225-0.35715,2.0409-0.15307,0.86737-0.20409,1.9388-0.25511,3.3164-0.051,1.3265-0.10204,3.0102-0.10204,5.0001v29.286c0,1.9898,0.051,3.6735,0.10204,5.0001,0.051,1.3776,0.10204,2.5,0.25511,3.3674,0.10204,0.8674,0.25511,1.5307,0.35715,2.0919,0.15307,0.5102,0.30613,0.9184,0.51022,1.2755,0.91839,2.4491,2.5001,4.3879,4.592,5.8675,2.1429,1.4797,4.592,2.245,7.3982,2.245" fill="#040000"/>
   <path d="m454.47,1024.9c-1.0204,0-1.9388,0.3572-2.6531,1.0204-0.76532,0.7143-1.1225,1.5817-1.1225,2.6532v20.511c0,1.0204,0.35716,1.8878,1.1225,2.6021,0.71431,0.6633,1.6327,1.0204,2.6531,1.0204h25.613c1.6327,0,3.0103,0.5613,4.0817,1.7348,1.1225,1.1224,1.6327,2.5,1.6327,4.1327v0.6633c0,1.6837-0.51022,3.0613-1.6327,4.1838-1.0715,1.1225-2.449,1.6837-4.0817,1.6837h-37.297c-1.6327,0-3.0103-0.5612-4.1328-1.6837s-1.6837-2.5001-1.6837-4.1838v-78.624c0-1.6327,0.56124-3.0613,1.6837-4.1838s2.5001-1.6837,4.1328-1.6837h37.297c1.6327,0,3.0103,0.56124,4.0817,1.6837,1.1225,1.1225,1.6327,2.5511,1.6327,4.1838v0.66328c0,1.7347-0.51022,3.1633-1.6327,4.2348-1.0715,1.1225-2.449,1.6327-4.0817,1.6327h-25.613c-1.0204,0-1.9388,0.35716-2.6531,1.0715-0.76532,0.66328-1.1225,1.5306-1.1225,2.6021v18.521c0,1.0714,0.35716,1.9388,1.1225,2.7041,0.71431,0.7143,1.6327,1.1225,2.6531,1.1225h14.643c1.6327,0,3.0103,0.5612,4.1838,1.6837,1.1225,1.1225,1.6837,2.5001,1.6837,4.1838,0,1.6327-0.56124,3.0613-1.6837,4.1838-1.1735,1.1225-2.5511,1.6837-4.1838,1.6837h-14.643z" fill="#040000"/>
  </g>
 </g>
</svg>
