<?xml version="1.0" encoding="UTF-8" standalone="no"?>
<!-- Created with Inkscape (http://www.inkscape.org/) -->
<svg xmlns:rdf="http://www.w3.org/1999/02/22-rdf-syntax-ns#" xmlns="http://www.w3.org/2000/svg" height="540.87" width="600" version="1.1" xmlns:cc="http://creativecommons.org/ns#" xmlns:dc="http://purl.org/dc/elements/1.1/">
 <metadata>
  <rdf:RDF>
   <cc:Work rdf:about="">
    <dc:format>image/svg+xml</dc:format>
    <dc:type rdf:resource="http://purl.org/dc/dcmitype/StillImage"/>
    <dc:title/>
   </cc:Work>
  </rdf:RDF>
 </metadata>
 <g fill-rule="nonzero" transform="translate(882.07971,75.617764)">
  <path fill="#000" d="m-478.92,277.5c-1.0377-8.8074-2.3064-21.521-2.3064-32.718,0-6.9392,0.93411-34.847,0.93411-57.354,0-18.967-4.097-52.689-4.097-71.019-0.01-11.012,0.81462-25.95-0.40033-31.216,8.7755-5.6824,16.462-9.3352,40.679-23.994,7.8474-4.7423,22.821-12.781,22.821-22.439,0-4.2882-1.1333-7.0945-7.2359-12.098-4.2484-3.3979-8.8174-4.3858-13.984-4.3858-12.341,0-17.925,12.363-28.272,18.7-15.784,9.6539-24.156,14.42-27.39,16.213-1.2986-0.58158-6.6623-3.7783-15.312-3.7783-9.0185,0-19.521,4.0492-19.521,15.776-0.01,5.3796,1.7029,11.195-5.4772,14.97-4.0193,2.5454-23.662,13.759-44.561,26.372-17.623,10.638-25.835,9.7853-33.266,14.257-6.8694,4.1448-8.664,9.3053-8.664,13.783,0,3.9854,2.5136,8.9906,3.3959,10.106,4.7283,6.0548,8.9846,9.3432,16.438,9.3432,12.626,0,23.126-11.048,42.629-24.908,12.159-8.658,23.319-17.651,29.846-17.651,5.8357,0,9.8909,4.4017,9.8909,22.512,0,60.558-3.6807,70.162-3.6807,112.18,0,7.5586,0.2888,21.531,0.54175,27.35h-32.109v-99.206l-61.833,52.097-61.833-52.097v99.206h-200.39v-353.12h195.08l67.143,70.666,67.135-70.666h196.09v151c-6.2002,9.5702-25.149,42.029-37.91,75.162-4.1687,10.825-6.1006,18.654-11.598,18.654-6.0329,0-6.5368-5.9513-7.1124-11.305-1.2269-11.606-3.8341-33.288-5.0351-41.274-2.3383-15.45-5.3996-31.79-22.65-31.79-12.767,0-26.161,6.9909-26.161,26.113,0,10.813,5.4693,29.627,14.84,54.364,3.7006,9.7574,23.343,61.251,26.175,68.694,5.1825,13.681,12.385,17.406,23.6,17.406,14.364,0,19.334-5.2761,25.231-25.414,5.0291-17.167,13.552-45.148,20.62-62.677v114.19h-122.29zm168.21-195.97,0,195.97-32.242,0,0-143.39c6.8894-14.904,23.506-41.075,32.242-52.585zm-32.242-26.137,0-131.01,32.242,19.375,0,71.77c-7.9211,8.2457-24.486,28.396-32.242,39.864zm-259.13-98.861-17.768,18.702-48.092-50.606,61.03,26.815,4.8299,5.0888zm2.1511,274.98,22.234,0,6.009-5.047,0-18.732-28.243,23.779zm-68.089,45.993,26.552,0,0-47.461-26.552-22.343"/>
  <path fill="#000" d="m-306.93,264.84,10.257,0,0,1.914-4.0312,0,0,10.755-2.2168,0,0-10.755-4.0093,0"/>
  <path fill="#000" d="m-295.23,264.84,3.123,0,3.4935,9.9208,0.0398,0,3.3999-9.9208,3.0971,0,0,12.669-2.1132,0,0-9.7813-0.0398,0-3.5074,9.7813-1.8324,0-3.5074-9.7813-0.0398,0,0,9.7813-2.1132,0"/>
  <path fill="#140a08" d="m-310.7,448.93c0,8.9707-7.3475,16.316-16.316,16.316h-538.73c-9.0086,0-16.334-7.3455-16.334-16.316v-65.309h571.38"/>
  <path fill="#5a4e69" d="m-327.01,301.99-538.73,0c-8.9926,0-16.334,7.3455-16.334,16.33v65.301,16.316c0-8.9628,7.3415-16.316,16.334-16.316h538.73c8.9687,0,16.316,7.3534,16.316,16.316v-16.316-65.301c0-8.9846-7.3475-16.33-16.316-16.33"/>
  <path fill="#00adef" d="m-614.59,427.06c-1.1313,1.1393-2.5016,1.683-4.1766,1.683h-1.9439c-1.6591,0-3.0453-0.54374-4.1866-1.683-1.1313-1.1472-1.7049-2.5255-1.7049-4.1746v-30.645c0-1.0496-0.35055-1.9021-1.0855-2.6092-0.76283-0.69312-1.6412-1.0636-2.6769-1.0636h-15.105c-0.97395,0-1.8503,0.37046-2.6311,1.0636-0.78075,0.70706-1.1632,1.5595-1.1632,2.6092v30.645c0,1.6492-0.54174,3.0274-1.6272,4.1746-1.0994,1.1393-2.4697,1.683-4.1129,1.683h-2.0794c-1.6591,0-3.0453-0.54374-4.1946-1.683-1.1154-1.1472-1.689-2.5255-1.689-4.1746v-78.504c0-1.6591,0.57362-3.0334,1.689-4.1806,1.1492-1.1154,2.5355-1.683,4.1946-1.683h2.0794c1.6432,0,3.0135,0.56764,4.1129,1.683,1.0855,1.1472,1.6272,2.5215,1.6272,4.1806v28.685c0,1.0476,0.38242,1.9399,1.1632,2.6689,0.78075,0.75685,1.6571,1.1213,2.6311,1.1213h15.105c1.0357,0,1.914-0.36449,2.6769-1.1213,0.73494-0.72897,1.0855-1.6213,1.0855-2.6689v-28.685c0-1.6591,0.57361-3.0334,1.7049-4.1806,1.1413-1.1154,2.5275-1.683,4.1866-1.683h1.9439c1.675,0,3.0453,0.56764,4.1766,1.683,1.1313,1.1472,1.7069,2.5215,1.7069,4.1806v78.504c0,1.6492-0.57561,3.0274-1.7069,4.1746"/>
  <path fill="#00adef" d="m-556.51,416.36c2.7725,0,5.2462-0.72498,7.3933-2.2008,2.1391-1.4938,3.6887-3.4556,4.6487-5.8756,0.19917-0.36847,0.33461-0.79071,0.46407-1.3086,0.13942-0.50191,0.27088-1.2269,0.39835-2.0933,0.1195-0.85245,0.20714-1.9678,0.25693-3.3222,0.0398-1.3344,0.0598-3.0075,0.0598-5.0191v-25.815c0-2.0017-0.0179-3.6668-0.0598-5.0112-0.0598-1.3384-0.13942-2.4638-0.25693-3.3262-0.11951-0.87436-0.25494-1.5456-0.39835-2.0037-0.1195-0.48996-0.26888-0.95204-0.46407-1.3922-0.96001-2.4418-2.5096-4.3937-4.6487-5.8676-2.1471-1.4838-4.6208-2.1989-7.3933-2.1989h-9.3173c-1.0377,0-1.9499,0.34058-2.6809,1.0198-0.73495,0.70308-1.0994,1.5774-1.0994,2.6052v58.152c0,1.0656,0.36448,1.922,1.0994,2.6211,0.73096,0.69511,1.6432,1.0357,2.6809,1.0357h9.3173zm-20.963,12.385c-1.6292,0-3.0314-0.54374-4.1488-1.683-1.1313-1.1472-1.689-2.5255-1.689-4.1746v-78.504c0-1.6591,0.55768-3.0334,1.689-4.1806,1.1174-1.1154,2.5195-1.683,4.1488-1.683h20.963c3.0434,0,5.9114,0.46208,8.6242,1.3882,2.7605,0.89229,5.2223,2.2008,7.4192,3.8918,2.2347,1.699,4.1468,3.6946,5.8079,5.9971,1.6392,2.3164,2.882,4.802,3.7584,7.4889,0.17925,0.60748,0.33859,1.2946,0.51187,2.0355,0.17925,0.74092,0.33461,1.6332,0.46208,2.6709,0.1195,1.0516,0.22307,2.3283,0.27286,3.85,0.0398,1.5117,0.0598,3.3999,0.0598,5.6804v24.243c0,2.2447-0.0398,4.1468-0.0598,5.6724-0.0398,1.5217-0.13942,2.7824-0.27286,3.842-0.11951,1.0417-0.28482,1.926-0.46208,2.6908-0.17926,0.70906-0.33461,1.4101-0.51187,2.0116-0.87636,2.7864-2.1192,5.3-3.7584,7.5646-1.6611,2.2566-3.5732,4.2204-5.8079,5.9294-2.1969,1.7029-4.6586,2.9796-7.4192,3.8878-2.7127,0.92814-5.5808,1.3803-8.6242,1.3803"/>
 </g>
</svg>
