<?xml version="1.0" encoding="UTF-8" standalone="no"?>
<!-- Created with Inkscape (http://www.inkscape.org/) -->
<svg xmlns:rdf="http://www.w3.org/1999/02/22-rdf-syntax-ns#" xmlns="http://www.w3.org/2000/svg" height="540.85" width="600" version="1.1" xmlns:cc="http://creativecommons.org/ns#" xmlns:dc="http://purl.org/dc/elements/1.1/">
 <metadata>
  <rdf:RDF>
   <cc:Work rdf:about="">
    <dc:format>image/svg+xml</dc:format>
    <dc:type rdf:resource="http://purl.org/dc/dcmitype/StillImage"/>
    <dc:title/>
   </cc:Work>
  </rdf:RDF>
 </metadata>
 <g transform="translate(85.26793,-560.74667)">
  <g fill-rule="nonzero" transform="matrix(0.99989801,0,0,0.99989801,0.02190107,0.08477319)">
   <path d="m317.9,913.86c-1.0205-8.8273-2.2961-21.532-2.2961-32.707,0-6.9394,0.91844-34.85,0.91844-57.352,0-18.981-4.082-52.709-4.082-71.026,0-11.021,0.8164-25.972-0.4082-31.227,8.7763-5.7148,16.481-9.3375,40.667-24.033,7.8578-4.7453,22.859-12.756,22.859-22.4,0-4.2861-1.1736-7.0924-7.2455-12.093-4.2861-3.4186-8.8273-4.3881-13.981-4.3881-12.348,0-17.961,12.348-28.268,18.675-15.818,9.6437-24.186,14.44-27.4,16.226-1.3266-0.61229-6.6842-3.7758-15.307-3.7758-9.0314,0-19.542,4.031-19.542,15.767,0,5.3576,1.6838,11.174-5.4596,14.95-4.031,2.5512-23.675,13.777-44.596,26.38-17.604,10.664-25.819,9.7968-33.268,14.287-6.8373,4.133-8.6742,9.2865-8.6742,13.777,0,3.9799,2.5512,8.9804,3.4187,10.103,4.7453,6.072,8.9804,9.3375,16.43,9.3375,12.654,0,23.114-11.021,42.657-24.9,12.144-8.6742,23.318-17.655,29.849-17.655,5.8168,0,9.8988,4.3881,9.8988,22.502,0,60.566-3.7248,70.159-3.7248,112.2,0,7.5517,0.30614,21.532,0.56127,27.349h-32.095v-99.243l-61.842,52.147-61.842-52.147v99.243h-200.43v-353.14h195.12l67.149,70.669,67.149-70.669h196.09v150.98c-6.225,9.5926-25.155,42.044-37.911,75.21-4.184,10.817-6.123,18.624-11.583,18.624-6.0719,0-6.5312-5.9189-7.1435-11.276-1.2246-11.634-3.8269-33.319-5.0514-41.279-2.2961-15.46-5.3576-31.788-22.604-31.788-12.807,0-26.176,6.9904-26.176,26.074,0,10.817,5.4596,29.645,14.848,54.392,3.6738,9.7457,23.318,61.23,26.176,68.679,5.1535,13.675,12.399,17.399,23.573,17.399,14.389,0,19.338-5.2556,25.257-25.41,5.0004-17.144,13.522-45.157,20.614-62.658v114.19h-122.31zm168.23-195.99,0,195.99-32.248,0,0-143.38c6.8883-14.95,23.522-41.075,32.248-52.607m-32.248-26.125,0-131.03,32.248,19.389,0,71.741c-7.9599,8.266-24.492,28.421-32.248,39.901m-259.15-98.886-17.757,18.675-48.116-50.566,61.026,26.788,4.8474,5.1025zm2.143,275.02,22.247,0,6.0209-5.0514,0-18.777-28.268,23.829zm-68.067,45.973,26.533,0,0-47.453-26.533-22.349,0,69.802z" fill="#040000"/>
   <path d="m489.91,901.2,10.256,0,0,1.9389-4.031,0,0,10.715-2.1941,0,0-10.715-4.031,0,0-1.9389z" fill="#040000"/>
   <path d="m501.6,901.2,3.1125,0,3.5207,9.8988,0.051,0,3.3676-9.8988,3.1125,0,0,12.654-2.092,0,0-9.7457-0.051,0-3.5207,9.7457-1.8369,0-3.5207-9.7457,0,0,0,9.7457-2.143,0,0-12.654z" fill="#040000"/>
   <path d="m486.14,1085.3c0,8.9804-7.3476,16.328-16.328,16.328h-538.77c-8.9804,0-16.328-7.3475-16.328-16.328v-130.62c0-8.9804,7.3476-16.328,16.328-16.328h538.77c8.9804,0,16.328,7.3476,16.328,16.328v130.62z" fill="#ea2587"/>
   <path d="m133.19,1063.5c-1.1225,1.1225-2.5512,1.6838-4.184,1.6838h-1.9389c-1.6838,0-3.0615-0.5613-4.184-1.6838s-1.6838-2.5512-1.6838-4.184v-30.717c0-1.0205-0.40819-1.8879-1.1225-2.6023-0.76537-0.6633-1.6328-1.0205-2.7043-1.0205h-15.154c-0.91845,0-1.7859,0.3572-2.6023,1.0205-0.76537,0.7144-1.1736,1.5818-1.1736,2.6023v30.717c0,1.6328-0.56127,3.0615-1.6328,4.184s-2.4492,1.6838-4.133,1.6838h-2.092c-1.6328,0-3.0105-0.5613-4.133-1.6838-1.1736-1.1225-1.7348-2.5512-1.7348-4.184v-78.629c0-1.6328,0.56127-3.0615,1.7348-4.184,1.1225-1.1226,2.5002-1.6838,4.133-1.6838h2.092c1.6838,0,3.0615,0.56127,4.133,1.6838s1.6328,2.5512,1.6328,4.184v28.727c0,1.0715,0.4082,1.9389,1.1736,2.7043,0.81639,0.7143,1.6838,1.0715,2.6023,1.0715h15.154c1.0715,0,1.9389-0.3572,2.7043-1.0715,0.71435-0.7654,1.1225-1.6328,1.1225-2.7043v-28.727c0-1.6328,0.56128-3.0615,1.6838-4.184,1.1226-1.1226,2.5002-1.6838,4.184-1.6838h1.9389c1.6328,0,3.0615,0.56127,4.184,1.6838s1.6838,2.5512,1.6838,4.184v78.629c0,1.6328-0.56128,3.0615-1.6838,4.184" fill="#040000"/>
   <path d="m175.71,1063.5c-1.0715,1.1225-2.4492,1.6838-4.133,1.6838h-2.092c-1.6328,0-3.0105-0.5613-4.133-1.6838-1.1736-1.1225-1.7348-2.5512-1.7348-4.184v-78.629c0-1.6328,0.56128-3.0615,1.7348-4.184,1.1225-1.1226,2.5002-1.6838,4.133-1.6838h2.092c1.6838,0,3.0615,0.56127,4.133,1.6838s1.6328,2.5512,1.6328,4.184v78.629c0,1.6328-0.56127,3.0615-1.6328,4.184" fill="#040000"/>
   <path d="m245.12,985.56c-1.1225,1.0715-2.5512,1.6328-4.184,1.6328h-9.8988c-0.71435,0-1.3266,0.25513-1.8369,0.76537-0.56127,0.56128-0.8164,1.1736-0.8164,1.8369v69.496c0,1.6328-0.56127,3.0615-1.6838,4.184-1.1226,1.1226-2.5002,1.6838-4.133,1.6838h-2.041c-1.6838,0-3.0615-0.5612-4.133-1.6838-1.1226-1.1225-1.6838-2.5512-1.6838-4.184v-69.496c0-0.66332-0.30615-1.2756-0.8164-1.8369-0.51024-0.51024-1.1225-0.76537-1.8369-0.76537h-9.8988c-1.6838,0-3.0615-0.56127-4.184-1.6328s-1.6838-2.5002-1.6838-4.235v-0.66333c0-1.6328,0.56127-3.0615,1.6838-4.184,1.1226-1.1226,2.5002-1.6838,4.184-1.6838h38.779c1.6328,0,3.0615,0.56127,4.184,1.6838s1.6838,2.5512,1.6838,4.184v0.66333c0,1.7348-0.56128,3.1635-1.6838,4.235" fill="#040000"/>
   <path d="m298.73,1032.1c-0.6123-0.6123-1.3266-1.1736-2.143-1.6838-0.8164-0.5613-2.3982-1.4287-4.6432-2.6533l-9.6947-5.2045c-2.6023-1.4797-4.3881-2.5002-5.4086-3.1125-0.96947-0.6123-1.8879-1.2757-2.6533-1.99-2.8064-2.3471-4.9494-5.1535-6.4802-8.4701-1.5307-3.3166-2.2961-6.7863-2.2961-10.46,0-3.5717,0.71435-6.8883,2.092-10.001,1.4287-3.0615,3.2656-5.7658,5.6127-8.0619,2.3471-2.3471,5.1025-4.133,8.164-5.4596,3.1125-1.2756,6.3271-1.9389,9.7457-1.9389,3.0615,0,5.7658,0.35717,8.1129,1.1225,2.3471,0.71435,4.4902,1.6328,6.5312,2.6533,1.3777,0.71435,2.3982,1.2756,3.1125,1.6838,0.71434,0.45922,1.5307,0.96947,2.5002,1.5818,1.2756,0.86742,2.1941,1.7348,2.6533,2.6023,0.51025,0.86743,0.71435,1.7859,0.71435,2.7553,0,1.0715-0.35717,2.2451-1.1736,3.5207l-0.35717,0.66332c-1.3266,1.99-3.0105,3.0105-5.1025,3.0105-1.3266,0-2.4492-0.30615-3.4186-0.91844-0.4082-0.25513-1.1736-0.71435-2.143-1.4287-1.0205-0.71434-2.1941-1.4797-3.6228-2.3471-1.1736-0.81639-2.3982-1.4287-3.6228-1.8369-1.2246-0.45922-2.6023-0.66332-4.184-0.66332-1.6328,0-3.2146,0.35717-4.6943,1.0715-1.4797,0.66332-2.7553,1.5818-3.8779,2.7043-1.0715,1.1736-1.9389,2.5002-2.6023,4.082-0.66332,1.5307-0.96947,3.1635-0.96947,4.7963,0,1.7859,0.35718,3.3677,1.1226,4.7963,0.71434,1.4287,1.6838,2.7554,2.9084,3.98,0.35717,0.3571,0.86742,0.7653,1.5818,1.2246,0.71434,0.5102,2.1941,1.3266,4.4392,2.5512l8.8783,4.8474c2.6023,1.4797,4.5922,2.6022,5.8678,3.3676,1.3266,0.8164,2.3471,1.5307,3.1635,2.2451,2.8574,2.4492,5.1025,5.3576,6.7863,8.8273,1.6328,3.4186,2.4492,7.0924,2.4492,11.021,0,3.6738-0.71434,7.0924-2.143,10.256-1.4287,3.1635-3.3676,5.9189-5.7148,8.215-2.3982,2.3471-5.2045,4.133-8.3681,5.4086-3.2146,1.3266-6.5312,1.99-10.001,1.99-3.0615,0-5.7658-0.3572-8.1129-1.1226-2.3471-0.7143-4.5412-1.6328-6.5312-2.6533-1.3777-0.7143-2.4492-1.2756-3.1125-1.7348-0.71434-0.4082-1.5307-0.9185-2.5002-1.5308-1.3266-0.8674-2.1941-1.7348-2.6533-2.6022-0.51024-0.9185-0.71434-1.7859-0.71434-2.7554,0-1.0715,0.35717-2.245,1.1736-3.5207l0.35717-0.6633c1.3266-1.99,3.0105-3.0105,5.1025-3.0105,1.3266,0,2.4492,0.3062,3.4187,0.9185l5.7148,3.7758c1.2246,0.7654,2.4492,1.3777,3.6738,1.8369,1.2246,0.4082,2.6023,0.6633,4.184,0.6633,1.7348,0,3.3676-0.3571,4.9494-1.0715,1.5818-0.6633,2.9594-1.6328,4.133-2.8063,1.1736-1.1736,2.092-2.5513,2.7553-4.1841,0.61229-1.5817,0.96947-3.2656,0.96947-5.0004,0-3.5717-1.3266-6.6842-3.9289-9.2865" fill="#040000"/>
  </g>
 </g>
</svg>
