<?xml version="1.0" encoding="UTF-8" standalone="no"?>
<svg xmlns:rdf="http://www.w3.org/1999/02/22-rdf-syntax-ns#" xmlns="http://www.w3.org/2000/svg" height="540.83" width="600" version="1.1" xmlns:cc="http://creativecommons.org/ns#" xmlns:dc="http://purl.org/dc/elements/1.1/">
 <g fill="#040000">
  <path d="m403.16 353.08c-1.02-8.82-2.3-21.52-2.3-32.69 0-6.94 0.92-34.85 0.92-57.34 0-18.98-4.08-52.7-4.08-71.01 0-11.02 0.82-25.97-0.41-31.22 8.78-5.72 16.48-9.34 40.66-24.03 7.86-4.75 22.85-12.75 22.85-22.4 0-4.28-1.17-7.09-7.24-12.09-4.28-3.414-8.82-4.383-13.98-4.383-12.34 0-17.95 12.343-28.26 18.673-15.81 9.64-24.18 14.43-27.39 16.22-1.33-0.61-6.69-3.78-15.31-3.78-9.03 0-19.53 4.03-19.53 15.77 0 5.35 1.68 11.17-5.46 14.94-4.03 2.55-23.67 13.78-44.59 26.38-17.6 10.66-25.81 9.79-33.26 14.28-6.84 4.13-8.67 9.29-8.67 13.78 0 3.97 2.55 8.97 3.42 10.1 4.74 6.07 8.97 9.33 16.42 9.33 12.65 0 23.11-11.02 42.65-24.89 12.14-8.68 23.31-17.65 29.84-17.65 5.82 0 9.9 4.38 9.9 22.49 0 60.56-3.73 70.15-3.73 112.18 0 7.55 0.31 21.52 0.56 27.34h-32.1v-99.22l-61.83 52.13-61.83-52.13v99.22h-200.4l-0.0003498-353.08h195.07l67.13 70.653 67.14-70.653h196.04v150.94c-6.23 9.59-25.15 42.04-37.91 75.2-4.18 10.81-6.12 18.62-11.58 18.62-6.07 0-6.58-5.97-7.14-11.28-1.22-11.63-3.82-33.31-5-41.27-2.34-15.46-5.4-31.78-22.65-31.78-12.8 0-26.17 6.99-26.17 26.07 0 10.81 5.46 29.64 14.85 54.38 3.67 9.74 23.31 61.21 26.17 68.66 5.15 13.68 12.39 17.4 23.57 17.4 14.38 0 19.33-5.26 25.25-25.41 5-17.14 13.52-45.14 20.61-62.64v114.16h-122.27zm168.19-195.93v195.93h-32.24v-143.34c6.89-14.94 23.52-41.11 32.24-52.59m-32.24-26.12v-131l32.24 19.382v71.724c-7.91 8.264-24.49 28.414-32.24 39.894m-259.09-98.867-17.76 18.672-48.1-50.606 61.01 26.833 4.85 5.101zm2.15 274.92h22.24l6.02-5v-18.77l-28.26 23.77zm-68.06 46.01h26.53v-47.44l-26.53-22.34v69.78z"/>
  <path d="m575.14 340.43h10.25v1.93h-4.03v10.72h-2.19v-10.72h-4.03v-1.93z"/>
  <path d="m586.84 340.43h3.11l3.52 9.89 3.42-9.89h3.11v12.65h-2.14v-9.75l-3.52 9.75h-1.84l-3.52-9.75h-0.05v9.75h-2.09v-12.65z"/>
 </g>
 <path d="m571.37 524.53c0 8.99-7.38 16.3-16.3 16.3h-538.77c-8.9946 0-16.3-7.31-16.3-16.3v-130.58c0-8.99 7.3054-16.37 16.297-16.37h538.77c8.92 0 16.3 7.38 16.3 16.37v130.58" fill="#a85ab4"/>
 <g fill="#140a08">
  <path d="m176.14 502.72c-1.06 1.13-2.46 1.69-4.08 1.69h-2.1c-1.69 0-3.09-0.56-4.22-1.69-1.12-1.12-1.68-2.53-1.68-4.21v-78.61c0-1.61 0.56-3.02 1.68-4.14 1.13-1.12 2.53-1.69 4.22-1.69h2.1c1.62 0 3.02 0.57 4.08 1.69 1.12 1.12 1.61 2.53 1.61 4.14v78.61c0 1.68-0.49 3.09-1.61 4.21"/>
  <path d="m232.02 492.02c2.81 0 5.27-0.78 7.45-2.25 2.11-1.48 3.65-3.44 4.64-5.83 0.14-0.35 0.28-0.77 0.42-1.34 0.14-0.49 0.28-1.19 0.42-2.1 0.14-0.85 0.21-1.97 0.28-3.3 0-1.34 0.07-3.03 0.07-5.06v-25.85c0-1.97-0.07-3.66-0.07-4.99-0.07-1.4-0.14-2.46-0.28-3.37-0.14-0.84-0.28-1.55-0.42-2.04-0.14-0.42-0.28-0.91-0.42-1.33-0.99-2.46-2.53-4.43-4.64-5.9-2.18-1.48-4.64-2.18-7.45-2.18h-9.34c-1.05 0-1.89 0.35-2.67 0.98-0.77 0.7-1.12 1.62-1.12 2.67v58.23c0 1.06 0.35 1.9 1.12 2.6 0.78 0.71 1.62 1.06 2.67 1.06h9.34zm-21 12.43c-1.61 0-3.02-0.63-4.14-1.76-1.13-1.12-1.69-2.52-1.69-4.14v-78.6c0-1.69 0.56-3.09 1.69-4.22 1.12-1.12 2.53-1.68 4.14-1.68h21c3.03 0 5.91 0.42 8.64 1.33 2.74 0.98 5.2 2.25 7.45 3.93 2.25 1.76 4.14 3.73 5.83 6.04 1.62 2.32 2.88 4.78 3.72 7.52 0.21 0.56 0.35 1.27 0.57 2.04 0.14 0.7 0.28 1.61 0.42 2.67 0.14 0.98 0.21 2.32 0.28 3.79 0.07 1.55 0.07 3.44 0.07 5.69v24.3c0 2.25 0 4.15-0.07 5.69-0.07 1.55-0.14 2.81-0.28 3.87-0.14 1.05-0.28 1.97-0.42 2.67-0.22 0.77-0.36 1.4-0.57 2.03-0.84 2.74-2.1 5.27-3.72 7.59-1.69 2.25-3.58 4.22-5.83 5.9-2.25 1.76-4.71 3.02-7.45 3.94-2.73 0.91-5.61 1.4-8.64 1.4h-21"/>
  <path d="m309.15 493.7c2.81 0 5.27-0.7 7.38-2.17 2.18-1.55 3.72-3.52 4.7-5.91 0.15-0.35 0.29-0.77 0.43-1.33 0.14-0.49 0.28-1.19 0.42-2.11 0.14-0.84 0.21-1.96 0.28-3.3 0-1.33 0.07-3.02 0.07-4.99v-29.29c0-1.96-0.07-3.65-0.07-4.99-0.07-1.4-0.14-2.45-0.28-3.37-0.14-0.84-0.28-1.54-0.42-2.03-0.14-0.43-0.28-0.92-0.43-1.34-0.98-2.46-2.52-4.42-4.7-5.9-2.11-1.47-4.57-2.25-7.38-2.25s-5.27 0.78-7.44 2.25c-2.11 1.48-3.66 3.44-4.64 5.9-0.14 0.42-0.35 0.91-0.49 1.34-0.07 0.49-0.21 1.19-0.35 2.03-0.14 0.92-0.21 1.97-0.28 3.37-0.07 1.34-0.07 3.03-0.07 4.99v29.29c0 1.97 0 3.66 0.07 4.99 0.07 1.34 0.14 2.46 0.28 3.3 0.14 0.92 0.28 1.62 0.35 2.11 0.14 0.56 0.35 0.98 0.49 1.33 0.98 2.39 2.53 4.36 4.64 5.91 2.17 1.47 4.63 2.17 7.44 2.17m0 12.44c-3.02 0-5.9-0.5-8.64-1.41s-5.27-2.18-7.44-3.86c-2.25-1.76-4.15-3.73-5.83-5.97-1.62-2.25-2.88-4.78-3.73-7.59-0.21-0.63-0.35-1.26-0.56-2.04-0.14-0.7-0.35-1.61-0.42-2.67-0.14-1.05-0.21-2.31-0.28-3.86-0.07-1.47-0.07-3.37-0.07-5.69v-27.68c0-2.24 0-4.14 0.07-5.69 0.07-1.47 0.14-2.81 0.28-3.86 0.07-0.98 0.28-1.9 0.42-2.67 0.21-0.7 0.35-1.4 0.56-2.04 0.85-2.66 2.11-5.19 3.73-7.44 1.68-2.32 3.58-4.36 5.83-6.04 2.17-1.69 4.7-3.02 7.44-3.94 2.74-0.91 5.62-1.33 8.64-1.33s5.9 0.42 8.64 1.33c2.74 0.92 5.2 2.25 7.45 3.94 2.18 1.68 4.14 3.72 5.76 6.04 1.68 2.25 2.95 4.78 3.79 7.44 0.21 0.64 0.35 1.34 0.56 2.04 0.14 0.77 0.29 1.69 0.43 2.67 0.14 1.05 0.21 2.39 0.28 3.86 0.07 1.55 0.07 3.45 0.07 5.69v27.68c0 2.32 0 4.22-0.07 5.69-0.07 1.55-0.14 2.81-0.28 3.86-0.14 1.06-0.29 1.97-0.43 2.67-0.21 0.78-0.35 1.41-0.56 2.04-0.84 2.81-2.11 5.34-3.79 7.59-1.62 2.24-3.58 4.21-5.76 5.97-2.25 1.68-4.71 2.95-7.45 3.86s-5.62 1.41-8.64 1.41"/>
  <path d="m405.59 502.72c-1.12 1.13-2.53 1.69-4.21 1.69h-33.58c-1.62 0-3.02-0.56-4.14-1.69-1.13-1.12-1.69-2.53-1.69-4.21v-78.61c0-1.61 0.56-3.02 1.69-4.14 1.12-1.12 2.52-1.69 4.14-1.69h2.04c1.68 0 3.02 0.57 4.14 1.69 1.13 1.12 1.69 2.53 1.69 4.14v68.49c0 0.99 0.35 1.9 1.12 2.6s1.62 1.05 2.67 1.05h21.92c1.68 0 3.09 0.57 4.21 1.69 1.13 1.12 1.69 2.53 1.69 4.15v0.63c0 1.68-0.56 3.09-1.69 4.21"/>
 </g>
</svg>
