<?xml version="1.0" encoding="UTF-8" standalone="no"?>
<!-- Created with Inkscape (http://www.inkscape.org/) -->

<svg
   xmlns:dc="http://purl.org/dc/elements/1.1/"
   xmlns:cc="http://creativecommons.org/ns#"
   xmlns:rdf="http://www.w3.org/1999/02/22-rdf-syntax-ns#"
   xmlns:svg="http://www.w3.org/2000/svg"
   xmlns="http://www.w3.org/2000/svg"
   xmlns:inkscape="http://www.inkscape.org/namespaces/inkscape"
   version="1.1"
   width="960.48444"
   height="910.33258"
   viewBox="0 0 768.38755 728.26606"
   id="svg2">
  <metadata
     id="metadata45">
    <rdf:RDF>
      <cc:Work
         rdf:about="">
        <dc:format>image/svg+xml</dc:format>
        <dc:type
           rdf:resource="http://purl.org/dc/dcmitype/StillImage" />
        <dc:title />
      </cc:Work>
    </rdf:RDF>
  </metadata>
  <defs
     id="defs43" />
  <g
     transform="translate(-0.6124458,-2.7819052e-6)"
     id="#080000ff">
    <path
       d="m 725.3,0 0.44,0 c 1.04,1 2.18,1.91 3.42,2.67 13.32,7.87 26.52,15.95 39.84,23.82 l 0,96.86 c -15.83,16.86 -30.21,35.08 -43.72,53.84 C 725.25,118.13 725.21,59.06 725.3,0 z"
       inkscape:connector-curvature="0"
       id="path18"
       style="fill:#000000;stroke:none" />
    <path
       d="m 0.81,0.82 c 86.38,-0.36 172.76,0.01 259.15,-0.18 2.03,-0.18 4.1,0.27 5.36,2.01 29.23,30.91 58.64,61.64 87.8,92.61 1.45,-1.27 2.9,-2.55 4.15,-4.03 28.21,-29.79 56.52,-59.48 84.71,-89.28 0.91,-1.34 2.59,-1.29 4.03,-1.3 87.07,0.15 174.14,-0.15 261.21,0.15 0.07,67.07 -0.01,134.14 0.04,201.22 0.03,1.26 -0.32,2.41 -1.07,3.44 -19.28,31.36 -36.05,64.3 -49.57,98.55 -3.06,7.39 -5.01,15.36 -9.4,22.14 -2.43,4.24 -8.72,5.16 -12.31,1.9 -2.35,-2.33 -3.04,-5.76 -3.5,-8.91 -2.61,-22.42 -4.87,-44.9 -8.46,-67.19 -1.99,-10.45 -4.24,-21.93 -12.36,-29.5 -7.35,-6.83 -18.44,-6.97 -27.63,-4.58 -9.06,2.24 -17.33,8.39 -20.97,17.14 -5.31,11.73 -3.07,25.03 -0.23,37.1 5.45,22.59 13.9,44.31 22.12,66.01 10.25,26.82 20.42,53.66 30.68,80.47 3.32,8.41 8.93,16.92 17.96,19.81 8.19,2.55 17.25,2.57 25.49,0.24 5.54,-1.74 9.96,-5.94 12.8,-10.92 5.28,-9.15 7.76,-19.52 10.79,-29.54 7.61,-25.38 15.41,-50.75 24.99,-75.47 0.8,1.31 0.63,2.88 0.68,4.36 -0.13,49.57 0.14,99.15 -0.13,148.72 -54.86,-0.12 -109.72,0.01 -164.58,-0.06 -1.61,-15.2 -3.13,-30.44 -3.08,-45.74 0.49,-22.33 1.12,-44.66 1.27,-67 0.61,-36.78 -5.69,-73.27 -5.5,-110.04 0.27,-5.65 0.29,-11.3 0.25,-16.96 -0.09,-6.42 0.39,-12.89 -0.74,-19.25 15.87,-9.96 32.47,-18.69 48.42,-28.52 9.99,-6.24 20.75,-11.55 29.34,-19.76 4.18,-4.03 8.11,-9.32 7.49,-15.47 -0.05,-5.48 -3.94,-9.83 -7.85,-13.2 -7.87,-7.46 -20.39,-9.54 -30.28,-5.22 -10.89,5.33 -17.37,16.37 -27.6,22.64 -12.37,7.53 -24.73,15.1 -37.38,22.15 -9.69,-5.01 -21.35,-6.77 -31.85,-3.41 -6.22,1.91 -12.03,6.44 -13.89,12.88 -2.29,6.4 0.6,13.36 -1.64,19.76 -1.12,3.13 -3.69,5.38 -6.52,6.94 -19.98,11.85 -40.12,23.44 -59.99,35.49 -8.76,5.34 -18.08,9.8 -27.89,12.83 -7.49,2.4 -15.55,4.28 -21.53,9.73 -5.46,4.67 -8.45,12.48 -6.37,19.52 1.65,7.38 6.71,13.51 12.76,17.82 7.38,5.07 17.23,4.61 25.21,1.25 11.15,-4.76 20.45,-12.74 30.1,-19.89 9.24,-7.13 18.84,-13.8 28.26,-20.69 6.6,-4.62 13.16,-9.48 20.59,-12.7 4.11,-1.76 9.48,-2.34 13.12,0.76 3.83,3.32 4.9,8.58 5.74,13.35 1.86,13.59 0.6,27.34 0.76,41 -0.34,24.71 -1.63,49.4 -3.23,74.07 -1.8,29.18 -2.02,58.46 -0.73,87.67 -14.52,0.03 -29.03,-0.02 -43.54,0.02 -0.08,-44.35 0.1,-88.71 -0.09,-133.06 -27.87,22.96 -55.13,46.67 -82.99,69.64 -16.82,-14.35 -33.79,-28.53 -50.67,-42.81 -10.81,-8.89 -21.2,-18.3 -32.24,-26.88 -0.14,44.38 0.17,88.77 -0.16,133.15 C 180.4,475.7 90.69,475.74 0.98,475.78 0.65,472.86 0.53,469.93 0.67,467 0.7,323.99 0.61,180.98 0.67,37.98 0.81,25.59 0.46,13.2 0.81,0.82 z"
       inkscape:connector-curvature="0"
       id="path20"
       style="fill:#000000;stroke:none" />
    <path
       d="m 288.74,0.94 c 26.41,11.17 52.52,23.05 78.82,34.45 4.17,1.49 7.02,5.18 9.63,8.57 -7.73,8.55 -15.95,16.67 -23.7,25.22 C 339.98,55.51 326.97,41.31 313.64,27.45 305.39,18.57 296.75,10.03 288.74,0.94 z"
       inkscape:connector-curvature="0"
       id="path22"
       style="fill:#000000;stroke:none" />
    <path
       d="M 740.97,253.84 C 749.77,239.36 758.81,225 769,211.46 l 0,264.3 c -14.58,-0.02 -29.17,-0.01 -43.75,-0.01 -0.01,-61.92 0.02,-123.85 -0.01,-185.77 0.11,-3.16 -0.53,-6.55 1.02,-9.46 4.46,-9.13 9.55,-17.93 14.71,-26.68 z"
       inkscape:connector-curvature="0"
       id="path24"
       style="fill:#000000;stroke:none" />
    <path
       d="m 288.59,381.55 c 9.2,7.4 18.08,15.2 27.17,22.72 2.86,2.58 6.09,4.76 8.7,7.6 0.16,21.24 -0.11,42.5 0.13,63.74 -11.99,0.36 -23.99,-0.04 -35.99,0.21 -0.18,-31.42 -0.16,-62.85 -0.01,-94.27 z"
       inkscape:connector-curvature="0"
       id="path26"
       style="fill:#000000;stroke:none" />
    <path
       d="m 379.93,413.76 c 12.58,-10.96 25.44,-21.62 38.25,-32.32 0.13,8.53 0.06,17.06 0.04,25.59 -2.91,2.05 -5.27,4.9 -8.37,6.64 -9.97,0.21 -19.95,0.01 -29.92,0.09 z"
       inkscape:connector-curvature="0"
       id="path28"
       style="fill:#000000;stroke:none" />
  </g>
  <path
     d="m 2.5975542,520.26 c 3.89,-7.6 12.2899998,-12.37 20.8099998,-12 240.309996,-0.02 480.629996,0.01 720.940006,-0.01 5.39,-0.07 11,1.07 15.26,4.56 4.98,3.67 8.01,9.47 8.78,15.56 l 0,111.96 c -0.61,-6.2 -2.89,-12.52 -7.86,-16.54 -4.09,-3.73 -9.63,-5.44 -15.09,-5.49 -25.27,-0.12 -696.890006,-0.17 -722.060006,0 -5.95,0.06 -12.13,1.92 -16.3099998,6.34 -3.08,2.92 -4.98,6.8 -6.58,10.67 -0.4,-4.43 -0.43,-8.87 -0.35,-13.31 -0.01,-28.34 0.01,-56.68 -0.01,-85.02 -0.04,-5.63 -0.36,-11.63 2.47,-16.72 z"
     inkscape:connector-curvature="0"
     id="path37"
     style="fill:#61596e;stroke:none" />
  <path
     d="m 7.0675542,624.64 c 4.1799998,-4.42 10.3599998,-6.28 16.3099998,-6.34 25.17,-0.17 696.790006,-0.12 722.060006,0 5.46,0.05 11,1.76 15.09,5.49 4.97,4.02 7.25,10.34 7.86,16.54 l 0,67.46 c -0.8,11.54 -11.46,21.04 -23.01,20.45 -240.66,0.02 -481.32,0.01 -721.970006,0 -8.61,0.37 -17.1299998,-4.51 -20.9299998,-12.26 -3.39000004,-6.46 -2.1,-13.97 -2.34,-20.96 0.21,-19.9 -0.43,-39.82 0.35,-59.71 1.6,-3.87 3.5,-7.75 6.58,-10.67 z"
     inkscape:connector-curvature="0"
     id="path30"
     style="fill:#000000;stroke:none" />
  <path
     d="m 240.92755,559.49 c 2.41,-3.2 7.1,-3.84 10.75,-2.78 3.2,0.94 4.98,4.11 5.54,7.2 3.69,18.21 7.24,36.45 10.88,54.68 3.11,15.09 5.96,30.24 9.14,45.32 -0.01,2.89 4.27,2.78 4.21,-0.03 3.17,-15.08 6.01,-30.23 9.15,-45.32 3.45,-17.92 7.24,-35.78 10.63,-53.71 0.57,-3.34 2.18,-7 5.63,-8.17 3.56,-0.9 7.94,-0.51 10.55,2.34 1.9,2.55 1.41,5.93 0.86,8.85 -3.41,16.77 -6.81,33.55 -10.15,50.33 -3.47,16.89 -6.81,33.8 -10.28,50.68 -1.17,5.73 -5.3,11.64 -11.49,12.37 -4.63,0.42 -9.31,0.39 -13.93,0.03 -6.22,-0.69 -10.3,-6.64 -11.57,-12.33 -3.46,-16.93 -6.83,-33.87 -10.28,-50.8 -3.06,-15.4 -6.21,-30.79 -9.32,-46.18 -0.71,-4.07 -2.45,-8.57 -0.32,-12.48 z"
     inkscape:connector-curvature="0"
     id="path5"
     style="fill:#fffdfe;stroke:none" />
  <path
     d="m 99.617552,562.09 c 3.219998,-7.76 18.139998,-6.25 17.979998,2.93 0.09,17.71 0,35.43 0.04,53.15 0.02,12.96 -0.06,25.92 0.02,38.89 -0.27,2.7 2.07,5.03 4.72,5.11 10.56,0.37 21.16,-0.21 31.72,0.25 6.46,1.27 8.14,10.6 3.46,14.75 -2.2,2 -5.32,2.07 -8.13,2.09 -13.33,-0.03 -26.67,-0.03 -40.01,0 -2.57,-0.07 -5.44,-0.04 -7.51,-1.8 -2.329998,-1.67 -2.999998,-4.68 -3.009998,-7.39 0,-17.32 0.02,-34.65 -0.01,-51.97 0,-16.69 0.05,-33.38 -0.03,-50.07 0.04,-2 0,-4.06 0.76,-5.94 z"
     inkscape:connector-curvature="0"
     id="path7"
     style="fill:#fffdfe;stroke:none" />
  <path
     d="m 188.75755,564.11 c 0.57,-6.76 9.2,-8.26 14.37,-5.93 3.35,1.51 4.36,5.45 4.21,8.82 0.03,17.06 -0.02,34.11 0.02,51.16 -0.05,17.63 0.1,35.25 -0.06,52.87 0.13,3.58 -2.32,7.23 -5.95,7.88 -2.97,0.58 -6.24,0.52 -8.99,-0.83 -2.38,-1.51 -3.89,-4.28 -3.71,-7.11 0.02,-17.61 0.01,-35.22 0.01,-52.83 0.1,-18.01 -0.13,-36.03 0.1,-54.03 z"
     inkscape:connector-curvature="0"
     id="path9"
     style="fill:#fffdfe;stroke:none" />
  <path
     d="m 354.33755,559.98 c 1.93,-2.33 5.15,-2.75 7.99,-2.72 15.36,0.04 30.73,0.03 46.1,0.01 2.38,0.04 5.01,0.11 6.97,1.67 5.37,4.09 3.4,15.08 -4.04,15.23 -11.67,0.24 -23.36,-0.08 -35.04,0.11 -2.64,-0.14 -5.29,1.94 -5.15,4.73 -0.18,7.99 -0.02,16 -0.07,24 -0.3,2.65 1.35,5.63 4.2,5.85 7.35,0.59 14.75,-0.22 22.1,0.34 4.47,0.52 6.9,5.26 6.26,9.42 -0.72,3.02 -2.99,5.83 -6.22,6.22 -7.39,0.47 -14.81,-0.23 -22.2,0.3 -2.35,0.23 -4.23,2.43 -4.08,4.8 -0.08,9.04 -0.07,18.08 -0.01,27.12 -0.33,2.95 2.38,5.34 5.24,5.16 11.9,0.23 23.82,-0.17 35.72,0.17 6.7,1.02 8.41,10.85 3.52,14.95 -2.18,2.06 -5.43,1.79 -8.2,1.92 -15.65,-0.1 -31.32,0.1 -46.97,-0.09 -4.39,0.16 -8.34,-3.72 -8.02,-8.15 -0.07,-17.62 0,-35.25 -0.03,-52.88 0.03,-17.05 0.03,-34.11 0,-51.16 0.02,-2.44 0.17,-5.13 1.93,-7 z"
     inkscape:connector-curvature="0"
     id="path11"
     style="fill:#fffdfe;stroke:none" />
  <path
     d="m 491.98755,559.63 c 2.68,-2.7 6.84,-2.66 10.33,-2.12 3.42,0.6 6.04,3.89 5.97,7.36 0.18,12.73 -0.05,25.47 0.08,38.2 -0.33,2.9 1.91,5.81 4.9,5.89 5.7,0.26 11.42,-0.02 17.13,0.12 2.22,-0.17 4.86,0.28 6.67,-1.34 1.39,-1.16 1.57,-3.08 1.61,-4.76 0.1,-12.89 -0.19,-25.78 0.1,-38.66 0.72,-8.78 15.25,-9.73 18.11,-1.91 0.53,1.81 0.44,3.72 0.49,5.59 -0.07,16.71 -0.03,33.42 -0.01,50.12 -0.07,18.01 0.12,36.02 -0.09,54.01 -0.63,9.72 -18.04,9.6 -18.54,-0.16 -0.24,-14.01 0.05,-28.02 -0.12,-42.03 0.21,-2.84 -2.45,-5.07 -5.16,-4.91 -6.39,-0.14 -12.78,-0.07 -19.17,-0.04 -2.85,-0.27 -6.05,1.91 -5.88,4.97 -0.15,13.68 0.03,27.37 -0.06,41.06 0.19,3.27 -1.81,6.61 -4.96,7.67 -2.77,0.76 -5.78,0.8 -8.54,-0.02 -3.19,-1.09 -5.24,-4.37 -5.17,-7.69 -0.06,-17.6 0,-35.2 -0.02,-52.8 0.02,-17.07 0.03,-34.14 -0.01,-51.2 -0.07,-2.62 0.36,-5.46 2.34,-7.35 z"
     inkscape:connector-curvature="0"
     id="path13"
     style="fill:#fffdfe;stroke:none" />
  <path
     d="m 600.13755,558.84 c 3.3,-2.2 7.46,-1.44 11.2,-1.57 8.96,0.23 17.96,-0.46 26.9,0.44 16.17,1.75 29.7,16.13 30.9,32.27 0.58,9.38 0.5,18.79 0.5,28.18 -0.01,9.65 0.12,19.32 -0.53,28.95 -1.16,12.65 -9.86,24.09 -21.44,29.12 -9.21,4.12 -19.53,2.78 -29.32,3.01 -5.01,-0.13 -10.05,0.33 -15.03,-0.28 -3.79,-0.51 -6.54,-4.25 -6.39,-7.99 -0.06,-17.58 -0.01,-35.16 -0.02,-52.75 0.01,-17.07 0.03,-34.14 -0.02,-51.2 -0.11,-3.01 0.64,-6.37 3.25,-8.18 m 15.52,20.2 c -0.07,13.03 -0.03,26.07 -0.01,39.11 -0.02,12.96 -0.03,25.92 -0.01,38.88 -0.31,2.72 2.12,5.15 4.79,5.17 4.98,0.09 10,0.26 14.97,-0.14 8.1,-0.74 14.71,-8.1 15.11,-16.13 0.75,-9.24 0.26,-18.51 0.38,-27.77 -0.15,-9.38 0.43,-18.8 -0.44,-28.16 -0.63,-8.19 -7.74,-15.38 -16.02,-15.69 -4.72,-0.12 -9.45,-0.16 -14.17,0 -2.52,-0.07 -4.67,2.25 -4.6,4.73 z"
     inkscape:connector-curvature="0"
     id="path15"
     style="fill:#fffdfe;stroke:none" />
</svg>
