<?xml version="1.0" encoding="UTF-8" standalone="no"?>
<!-- Created with Inkscape (http://www.inkscape.org/) -->
<svg xmlns:rdf="http://www.w3.org/1999/02/22-rdf-syntax-ns#" xmlns="http://www.w3.org/2000/svg" height="540.83" width="600" version="1.1" xmlns:cc="http://creativecommons.org/ns#" xmlns:dc="http://purl.org/dc/elements/1.1/">
 <metadata>
  <rdf:RDF>
   <cc:Work rdf:about="">
    <dc:format>image/svg+xml</dc:format>
    <dc:type rdf:resource="http://purl.org/dc/dcmitype/StillImage"/>
    <dc:title/>
   </cc:Work>
  </rdf:RDF>
 </metadata>
 <g transform="translate(16.448081,-560.74889)">
  <g fill-rule="nonzero" transform="matrix(0.99994047,0,0,0.99994047,0.01688073,0.04948187)">
   <path d="m554.94,1085.3c0,8.9799-7.3472,16.327-16.327,16.327h-538.74c-8.9799,0-16.327-7.3472-16.327-16.327v-130.62c0-8.9799,7.3472-16.327,16.327-16.327h538.74c8.9799,0,16.327,7.3472,16.327,16.327v130.62z" fill="#62bc47"/>
   <path d="m119.59,1023c2.8062,0,5.2553-0.7653,7.3982-2.245,2.194-1.4796,3.7246-3.4185,4.694-5.8675,0.35715-0.7654,0.61226-1.7858,0.86737-3.0613,0.20409-1.2756,0.30614-3.2144,0.30614-5.9186v-1.5817c0-2.7042-0.10205-4.694-0.30614-5.9186-0.25511-1.2756-0.51022-2.296-0.86737-3.1124-0.96942-2.4491-2.5001-4.3879-4.694-5.8676-2.1429-1.4796-4.592-2.245-7.3982-2.245h-9.337c-1.0204,0-1.9388,0.40818-2.6532,1.0715-0.76534,0.71431-1.1225,1.5817-1.1225,2.6021v28.368c0,0.9694,0.35715,1.8368,1.1225,2.6021,0.71431,0.7653,1.6327,1.1735,2.6532,1.1735h9.337zm13.011,9.133c-0.71431,0.4592-1.0715,0.9184-1.0715,1.4286,0,0.2041,0.20409,0.6122,0.56125,1.3266l10.919,20.766c0.66329,1.2245,0.96942,2.296,0.96942,3.2654,0,1.8368-0.66328,3.3164-1.9899,4.4899s-2.7552,1.7858-4.4389,1.7858c-2.8572,0-4.8981-1.2755-6.1226-3.7756l-12.858-24.184c-0.35716-0.6123-0.86738-1.0715-1.4796-1.3776-0.61226-0.3062-1.2756-0.4592-1.9388-0.4592h-4.8471c-1.0715,0-1.9899,0.4082-2.7042,1.1735-0.76534,0.8163-1.1225,1.7347-1.1225,2.7552v20.001c0,1.6327-0.56124,3.0103-1.6837,4.1328-1.1225,1.1735-2.5001,1.7347-4.1328,1.7347h-2.0919c-1.6327,0-3.0103-0.5612-4.1328-1.7347-1.1225-1.1225-1.6837-2.5001-1.6837-4.1328v-78.625c0-1.6837,0.56124-3.0613,1.6837-4.1838,1.1225-1.1735,2.5511-1.7348,4.1838-1.7348h20.97c3.0613,0,5.9186,0.4592,8.6738,1.3776s5.2043,2.245,7.3982,3.9287c2.245,1.6837,4.1838,3.7246,5.8165,6.0206s2.9083,4.7961,3.7756,7.5003c0.4592,1.2245,0.76533,2.6532,0.96942,4.2859,0.25511,1.6837,0.35715,4.0818,0.35715,7.1941,0,3.1634-0.10204,5.5614-0.35715,7.1941-0.20409,1.6328-0.51022,3.1124-0.96942,4.3369-1.0204,3.3675-2.6532,6.3778-4.8471,8.9799-2.194,2.6022-4.7961,4.7961-7.8064,6.5309" fill="#040000"/>
   <path d="m197.83,1054.5c2.8062,0,5.2553-0.7653,7.3982-2.245,2.1429-1.4796,3.7246-3.4185,4.694-5.8675,0.15306-0.3572,0.30613-0.7654,0.4592-1.2756,0.10204-0.5612,0.25511-1.2245,0.35715-2.0919,0.15307-0.8674,0.25511-1.9898,0.25511-3.3674,0.051-1.3266,0.10205-3.0104,0.10205-5.0002v-29.287c0-1.9899-0.051-3.6736-0.10205-5.0002,0-1.3776-0.10204-2.4491-0.25511-3.3164-0.10204-0.9184-0.25511-1.5817-0.35715-2.0409-0.15307-0.4592-0.30614-0.9184-0.4592-1.3776-0.96942-2.4491-2.5511-4.3879-4.694-5.8675s-4.592-2.245-7.3982-2.245-5.2553,0.76533-7.3982,2.245c-2.1429,1.4796-3.7246,3.4185-4.694,5.8675-0.15306,0.4592-0.30613,0.9184-0.4592,1.3776-0.10204,0.4592-0.25511,1.1225-0.40817,2.0409-0.10205,0.86737-0.20409,1.9388-0.25512,3.3164,0,1.3266-0.051,3.0103-0.051,5.0002v29.287c0,1.9898,0.051,3.6736,0.051,5.0002,0.051,1.3776,0.15307,2.5,0.25512,3.3674,0.15306,0.8674,0.30613,1.5307,0.40817,2.0919,0.15307,0.5102,0.30614,0.9184,0.4592,1.2756,0.96942,2.449,2.5511,4.3879,4.694,5.8675,2.1429,1.4797,4.592,2.245,7.3982,2.245m0,12.398c-3.0613,0-5.9186-0.4592-8.6738-1.3776s-5.2043-2.194-7.3982-3.9287c-2.245-1.6838-4.1838-3.6736-5.8165-5.9186-1.6327-2.296-2.9083-4.7961-3.7756-7.5513-0.15306-0.6122-0.35715-1.3265-0.51022-2.0409-0.20409-0.7653-0.35715-1.6327-0.4592-2.7041-0.15307-1.0205-0.20409-2.296-0.25511-3.8267-0.051-1.5307-0.10204-3.4185-0.10204-5.7145v-27.654c0-2.2449,0.051-4.1838,0.10204-5.7145,0.051-1.4796,0.10204-2.8062,0.25511-3.8266,0.10205-1.0715,0.25511-1.9388,0.4592-2.6532,0.15307-0.76533,0.35716-1.4286,0.51022-2.0409,0.86738-2.7042,2.1429-5.2043,3.7756-7.5002,1.6327-2.347,3.5716-4.3369,5.8165-6.0206,2.194-1.6837,4.643-3.0103,7.3982-3.9287s5.6124-1.3776,8.6738-1.3776c3.0613,0,5.9186,0.4592,8.6738,1.3776,2.7042,0.9184,5.2043,2.245,7.3982,3.9287,2.245,1.6837,4.1838,3.6736,5.8165,6.0206,1.6327,2.296,2.9083,4.7961,3.7756,7.5002,0.15306,0.61227,0.35715,1.2756,0.51022,2.0409,0.20409,0.71431,0.35715,1.5817,0.4592,2.6532,0.15307,1.0204,0.20409,2.347,0.25511,3.8266,0.051,1.5307,0.10204,3.4696,0.10204,5.7145v27.654c0,2.296-0.051,4.1838-0.10204,5.7145-0.051,1.5307-0.10204,2.8062-0.25511,3.8267-0.10205,1.0714-0.25511,1.9388-0.4592,2.7041-0.15307,0.7144-0.35716,1.4287-0.51022,2.0409-0.86738,2.7552-2.1429,5.2553-3.7756,7.5513-1.6327,2.245-3.5716,4.2348-5.8165,5.9186-2.194,1.7347-4.694,3.0103-7.3982,3.9287-2.7552,0.9184-5.6124,1.3776-8.6738,1.3776" fill="#040000"/>
   <path d="m275.99,1054.5c1.5817,0,2.9593-0.2041,4.1838-0.6633s2.4491-1.0204,3.6736-1.8368l5.7145-3.7756c0.96942-0.6123,2.0919-0.9184,3.4185-0.9184,2.0919,0,3.7756,1.0204,5.1022,3.0103l0.35715,0.6633c0.81636,1.2755,1.1735,2.449,1.1735,3.5205,0,0.9694-0.20409,1.8878-0.71431,2.7552-0.4592,0.8674-1.3776,1.7347-2.6532,2.6021-0.96942,0.6123-1.7858,1.1225-2.5001,1.5817-0.66329,0.4082-1.7348,0.9694-3.1124,1.6837-1.9899,1.0205-4.1838,1.9389-6.5308,2.6532-2.347,0.7653-5.0512,1.1225-8.1125,1.1225s-5.9186-0.4592-8.6738-1.3776-5.2043-2.194-7.4492-3.9287c-2.194-1.6838-4.0818-3.6736-5.7145-5.9186-1.6837-2.296-2.9083-4.7961-3.7756-7.5513-0.15306-0.6122-0.35715-1.3265-0.51022-2.0409-0.15306-0.7653-0.30613-1.6327-0.4592-2.7041-0.15306-1.0205-0.20409-2.296-0.25511-3.8267-0.051-1.5307-0.051-3.4185-0.051-5.7145v-27.654c0-2.2449,0-4.1838,0.051-5.7145,0.051-1.4796,0.10205-2.8062,0.25511-3.8266,0.15307-1.0715,0.30614-1.9388,0.4592-2.6532,0.15307-0.76533,0.35716-1.4286,0.51022-2.0409,0.86738-2.7042,2.0919-5.2043,3.7756-7.5002,1.6327-2.347,3.5205-4.3369,5.7145-6.0206,2.245-1.6837,4.694-3.0103,7.4492-3.9287s5.6124-1.3776,8.6738-1.3776c3.0613,0,5.7655,0.35716,8.1125,1.1225,2.347,0.71431,4.541,1.6327,6.5308,2.6532,1.3776,0.71431,2.4491,1.2756,3.1124,1.6837,0.71431,0.4592,1.5307,1.0204,2.5001,1.5817,1.2756,0.86737,2.194,1.7858,2.6532,2.6532,0.51022,0.86737,0.71431,1.7858,0.71431,2.7042,0,1.0715-0.35715,2.245-1.1735,3.5205l-0.35715,0.66329c-1.3266,1.9899-3.0103,3.0103-5.1022,3.0103-1.3266,0-2.4491-0.30613-3.4185-0.91839l-5.7145-3.7756c-1.2245-0.76534-2.4491-1.3776-3.6736-1.8368s-2.6021-0.66329-4.1838-0.66329c-2.8062,0-5.2553,0.76533-7.3982,2.245-2.0919,1.4796-3.6736,3.4185-4.592,5.8675-0.20409,0.4592-0.35716,0.9184-0.51023,1.3776-0.10204,0.4592-0.20408,1.1225-0.35715,2.0409-0.15307,0.86737-0.20409,1.9388-0.25511,3.3164-0.051,1.3266-0.10205,3.0103-0.10205,5.0002v29.287c0,1.9898,0.051,3.6736,0.10205,5.0002,0.051,1.3776,0.10204,2.5,0.25511,3.3674s0.25511,1.5307,0.35715,2.0919c0.15307,0.5102,0.30614,0.9184,0.51023,1.2756,0.91839,2.449,2.5001,4.3879,4.592,5.8675,2.1429,1.4797,4.592,2.245,7.3982,2.245" fill="#040000"/>
   <path d="m374.73,1059.8c0,1.8368-0.61227,3.3164-1.7858,4.541-1.1735,1.1735-2.5511,1.7347-4.2348,1.7347-2.6021,0-4.541-1.3776-5.8676-4.1838l-16.174-34.491c-0.71431-1.2755-1.7858-1.9388-3.2654-1.9388h-0.66328c-1.0715,0-1.9388,0.3572-2.7042,1.0204-0.71431,0.7143-1.0715,1.5817-1.0715,2.6022v30.205c0,1.6327-0.56125,3.0103-1.7348,4.1838-1.1225,1.1225-2.5001,1.6837-4.1328,1.6837h-1.9899c-1.6327,0-3.0613-0.5612-4.1838-1.6837-1.1225-1.1735-1.6837-2.5511-1.6837-4.1838v-78.625c0-1.6837,0.56124-3.0613,1.6837-4.1838s2.5511-1.6837,4.1838-1.6837h1.9899c1.6327,0,3.0103,0.56124,4.1328,1.6837,1.1735,1.1225,1.7348,2.5001,1.7348,4.1838v28.317c0,1.2246,0.30613,2.194,1.0204,2.8063,0.71431,0.6633,1.6327,0.9694,2.7552,0.9694h0.76533c0.81635,0,1.5307-0.1531,2.245-0.5613,0.66329-0.4081,1.1735-0.9184,1.4286-1.6327l14.898-32.501c1.1225-2.7042,3.0613-4.0818,5.8675-4.0818,1.6327,0,3.0613,0.61227,4.2348,1.7858s1.7858,2.6532,1.7858,4.3879c0,0.61227-0.10205,1.1735-0.25511,1.6837-0.20409,0.51023-0.35716,1.0204-0.56125,1.4286l-15.154,33.828c-0.40818,0.8673-0.61227,1.6327-0.61227,2.1939,0,0.6123,0.20409,1.3776,0.61227,2.245l15.97,34.899c0.51022,1.0205,0.76533,2.143,0.76533,3.3675" fill="#040000"/>
   <path d="m428.35,1032.1c-0.61227-0.6123-1.3266-1.1735-2.1429-1.6837-0.81635-0.5613-2.398-1.4287-4.643-2.6022l-9.6942-5.2552c-2.6021-1.4797-4.3879-2.5001-5.4084-3.1124-0.96942-0.6123-1.8878-1.2755-2.6532-1.9899-2.8062-2.347-4.9492-5.1532-6.4798-8.4696-1.5307-3.3165-2.296-6.786-2.296-10.46,0-3.5716,0.71431-6.888,2.0919-10,1.3776-3.0613,3.2654-5.7655,5.6124-8.0615,2.347-2.347,5.1022-4.1328,8.1636-5.4594,3.1124-1.2756,6.3267-1.9388,9.7452-1.9388,3.0613,0,5.7655,0.35715,8.1125,1.1225,2.347,0.71431,4.49,1.6327,6.5308,2.6532,1.3776,0.71431,2.398,1.2756,3.1124,1.6837,0.71431,0.4592,1.5307,0.96942,2.5001,1.5817,1.2756,0.86737,2.194,1.7858,2.6532,2.6532,0.51022,0.81635,0.71431,1.7858,0.71431,2.7042,0,1.0715-0.35716,2.245-1.1735,3.5205l-0.35716,0.66329c-1.3266,1.9899-3.0103,3.0103-5.1022,3.0103-1.3266,0-2.4491-0.30613-3.4185-0.9184-0.40818-0.25511-1.1735-0.71431-2.1429-1.4286-1.0204-0.71431-2.194-1.4796-3.6226-2.347-1.1735-0.81636-2.398-1.3776-3.6226-1.8368-1.2245-0.4592-2.6021-0.66329-4.1838-0.66329-1.6327,0-3.2144,0.35716-4.694,1.0715-1.4796,0.66328-2.7552,1.5817-3.8777,2.7042-1.0715,1.1735-1.9388,2.5001-2.6021,4.0818-0.66329,1.5307-0.96942,3.1634-0.96942,4.8471,0,1.7348,0.35715,3.3164,1.1225,4.745,0.71431,1.4287,1.6837,2.7552,2.9083,3.9798,0.35715,0.3571,0.86737,0.7653,1.5817,1.2245,0.71431,0.5102,2.194,1.3266,4.4389,2.5511l8.8778,4.8471c2.6021,1.4796,4.592,2.6021,5.8676,3.4185,1.3266,0.7653,2.347,1.4796,3.1634,2.1939,2.8572,2.4491,5.1022,5.3574,6.786,8.8269,1.6327,3.4185,2.4491,7.092,2.4491,11.021,0,3.6735-0.71431,7.092-2.1429,10.255-1.4286,3.1634-3.3675,5.9186-5.7145,8.2146-2.398,2.347-5.2043,4.1328-8.3676,5.4593-3.2144,1.2756-6.5308,1.9389-10,1.9389-3.0613,0-5.7655-0.3572-8.1125-1.1225-2.347-0.7143-4.541-1.6327-6.5308-2.6532-1.3776-0.7143-2.4491-1.2755-3.1124-1.6837-0.71431-0.4592-1.5307-0.9694-2.5001-1.5817-1.2756-0.8674-2.194-1.7858-2.6532-2.6021-0.51022-0.8674-0.71431-1.7858-0.71431-2.7552,0-1.0715,0.35716-2.245,1.1735-3.5205l0.35716-0.6633c1.3266-1.9899,3.0103-3.0103,5.1022-3.0103,1.3266,0,2.4491,0.3061,3.4185,0.9184l5.7145,3.7756c1.2245,0.8164,2.4491,1.3776,3.6736,1.8368s2.6021,0.6633,4.1838,0.6633c1.7348,0,3.3675-0.3572,4.9491-1.0715,1.5817-0.6633,2.9593-1.6327,4.1328-2.8062s2.0919-2.5511,2.7552-4.1838c0.61227-1.5817,0.96943-3.2654,0.96943-5.0002,0-3.5715-1.3266-6.6839-3.9287-9.286" fill="#040000"/>
   <path d="m386.71,913.86c-1.0204-8.8268-2.296-21.531-2.296-32.705,0-6.939,0.9184-34.848,0.9184-57.349,0-18.98-4.0818-52.706-4.0818-71.023,0-11.021,0.81635-25.97-0.40818-31.226,8.7758-5.7145,16.48-9.337,40.665-24.031,7.8574-4.694,22.858-12.756,22.858-22.399,0-4.2859-1.1735-7.0921-7.2451-12.092-4.2859-3.4185-8.8268-4.3879-13.98-4.3879-12.347,0-17.96,12.347-28.317,18.674-15.766,9.6432-24.133,14.439-27.348,16.225-1.3266-0.61226-6.6839-3.7756-15.358-3.7756-8.9799,0-19.49,4.0308-19.49,15.766,0,5.4083,1.6837,11.174-5.4594,14.949-4.0308,2.5511-23.674,13.776-44.593,26.378-17.603,10.664-25.817,9.7962-33.266,14.286-6.888,4.1328-8.6738,9.286-8.6738,13.776,0,3.9797,2.5511,8.9799,3.4185,10.102,4.694,6.0716,8.9799,9.337,16.429,9.337,12.653,0,23.113-11.021,42.655-24.899,12.143-8.6738,23.317-17.654,29.848-17.654,5.8165,0,9.8983,4.3879,9.8983,22.501,0,60.563-3.7246,70.155-3.7246,112.2,0,7.5513,0.30613,21.531,0.56125,27.348h-32.093v-99.238l-61.839,52.145-61.839-52.145v99.238h-200.41v-353.12h195.11l67.145,70.666,67.145-70.666h196.08v150.97c-6.2247,9.5922-25.154,42.042-37.909,75.207-4.1838,10.817-6.1227,18.623-11.582,18.623-6.0716,0-6.5819-5.9696-7.1431-11.276-1.2245-11.633-3.8267-33.317-5.0512-41.277-2.296-15.46-5.3573-31.787-22.603-31.787-12.807,0-26.174,6.99-26.174,26.072,0,10.817,5.4594,29.644,14.847,54.39,3.6736,9.7452,23.317,61.227,26.174,68.676,5.1532,13.674,12.347,17.399,23.572,17.399,14.388,0,19.337-5.2553,25.256-25.409,5.0002-17.143,13.521-45.155,20.613-62.655v114.19h-122.3zm168.22-195.98,0,195.98-32.246,0,0-143.37c6.888-14.949,23.521-41.124,32.246-52.604m-32.246-26.123,0-131.02,32.246,19.388,0,71.737c-7.9084,8.2656-24.491,28.419-32.246,39.899m-259.14-98.881-17.756,18.674-48.114-50.563,61.022,26.787,4.8471,5.1022zm2.1429,274.96,22.246,0,6.0206-5.0002,0-18.776-28.266,23.776zm-68.064,46.022,26.532,0,0-47.451-26.532-22.348,0,69.798z" fill="#040000"/>
   <path d="m558.71,901.19,10.255,0,0,1.9388-4.0308,0,0,10.715-2.194,0,0-10.715-4.0308,0,0-1.9388z" fill="#040000"/>
   <path d="m570.41,901.19,3.1124,0,3.5205,9.8983,0,0,3.4185-9.8983,3.1124,0,0,12.653-2.1429,0,0-9.7452,0,0-3.5205,9.7452-1.8368,0-3.5205-9.7452-0.051,0,0,9.7452-2.0919,0,0-12.653z" fill="#040000"/>
  </g>
 </g>
</svg>
