<?xml version="1.0" encoding="UTF-8" standalone="no"?>
<!-- Created with Inkscape (http://www.inkscape.org/) -->
<svg xmlns:rdf="http://www.w3.org/1999/02/22-rdf-syntax-ns#" xmlns="http://www.w3.org/2000/svg" height="127.55" width="600" version="1.1" xmlns:cc="http://creativecommons.org/ns#" xmlns:dc="http://purl.org/dc/elements/1.1/">
 <defs></defs>
 <metadata>
  <rdf:RDF>
   <cc:Work rdf:about="">
    <dc:format>image/svg+xml</dc:format>
    <dc:type rdf:resource="http://purl.org/dc/dcmitype/StillImage"/>
    <dc:title/>
   </cc:Work>
  </rdf:RDF>
 </metadata>
 <g fill-rule="nonzero" transform="translate(140.60821,-231.3571)" fill="#1f619c">
  <path d="m-33.952,332.69c-2.5847,0-4.5988-0.87276-6.041-2.6125-1.4457-1.742-1.9411-4.2087-1.4943-7.393l4.953-35.245c1.176-8.3618,0.52551-14.335-1.9516-17.921-2.4759-3.5825-6.4473-5.3755-11.912-5.3755-6.555,0-11.551,1.793-14.985,5.3755-3.4343,3.586-5.7181,9.4094-6.8513,17.474l-6.4219,45.697h-4.6196c-3.2769,0-5.4912-0.87276-6.636-2.6125-1.1482-1.742-1.4943-4.2087-1.0475-7.393l4.953-35.245c1.0221-7.2668,0.28012-12.966-2.2166-17.099-2.4991-4.13-6.6314-6.1973-12.391-6.1973-5.96,0-10.69,1.8416-14.186,5.5248-3.498,3.6832-5.8211,9.6085-6.9682,17.771l-6.3594,45.25h-4.321c-2.8822,0-5.0525-0.81952-6.5087-2.4597-1.4608-1.639-1.9504-4.1462-1.4758-7.5261l5.1937-36.955c0.64126-4.5675,1.9747-8.9406,4.0027-13.112,2.0256-4.1728,4.6242-7.8236,7.797-10.954,3.1727-3.1287,6.8988-5.6104,11.182-7.4497,4.2816-1.837,9.0529-2.7572,14.32-2.7572,5.96,0,10.778,1.2432,14.451,3.726,3.6751,2.484,6.4242,6.0596,8.253,10.729,3.1959-4.3708,7.1904-7.8734,11.983-10.506,4.7875-2.6322,9.8168-3.9494,15.083-3.9494,9.9314,0,17.067,2.9574,21.402,8.8665,4.3337,5.9102,5.666,14.827,3.9899,26.748l-6.4068,45.599h-4.7689z"/>
  <path d="m57.028,267.42c-2.3277,5.96-5.0502,11.898-8.1639,17.807-3.1183,5.9114-6.2066,11.45-9.2647,16.614-3.0616,5.1671-5.8975,9.7867-8.5031,13.86-2.6113,4.0733-4.615,7.2043-6.0156,9.3874-4.0872,6.4566-7.7241,11.846-10.914,16.168-3.1924,4.3198-6.1834,7.7704-8.98,10.356-2.7977,2.5812-5.5178,4.4437-8.1604,5.5873-2.6461,1.1413-5.3593,1.7131-8.1396,1.7131-3.0801,0-5.4634-0.72113-7.1476-2.1588-1.6853-1.4434-2.4088-3.0072-2.1715-4.6948l0.71187-5.0664h6.408c1.5881,0,3.0801-0.17478,4.4691-0.52087,1.3902-0.35073,2.9181-1.1436,4.5814-2.3856,1.6657-1.2432,3.5443-3.1311,5.6394-5.6625,2.0939-2.5326,4.5895-5.9832,7.4914-10.355-2.5118-4.7701-4.8824-10.157-7.1164-16.168-2.2363-6.0098-4.2839-12.294-6.1429-18.85-1.8601-6.5561-3.4065-13.237-4.6347-20.043-1.2293-6.8038-1.977-13.486-2.249-20.042h7.7484c2.7803,0,4.6219,0.87044,5.5202,2.6079,0.89591,1.7397,1.4608,3.5524,1.6934,5.438,0.33684,3.9749,0.89823,8.2716,1.6911,12.89,0.78942,4.6196,1.7698,9.3145,2.9378,14.083,1.1679,4.7678,2.5419,9.4869,4.1207,14.155,1.5788,4.6717,3.3232,9.0425,5.2354,13.112,2.6021-3.6739,5.4692-8.1685,8.6014-13.484,3.1299-5.3141,6.166-10.852,9.1154-16.616,2.9435-5.7598,5.6348-11.474,8.069-17.136,2.4342-5.6625,4.3071-10.677,5.6174-15.051h5.3651c1.7872,0,3.2179,0.42364,4.292,1.2663,1.073,0.84498,1.4423,2.4586,1.1066,4.843-0.11228,0.79753-0.49657,2.1125-1.1506,3.9494-0.65631,1.8393-1.2084,3.3035-1.661,4.3962"/>
  <path d="m126.37,325.38c-0.29285,2.087-1.3334,3.8256-3.1183,5.2157-1.7849,1.3902-3.9691,2.087-6.5515,2.087h-53.792c-2.6831,0-4.6937-0.71997-6.0295-2.1634-1.3392-1.4365-1.8601-3.2028-1.5673-5.2887,0.23729-1.6888,0.7547-3.4274,1.5534-5.2157,0.79637-1.7895,1.999-3.7989,3.6045-6.0341,1.6043-2.2352,3.5952-4.7435,5.9751-7.5261,2.3775-2.7803,5.3211-6.0561,8.8318-9.8342l33.891-36.509c2.9285-3.1774,5.4171-6.2077,7.4613-9.0888,2.0453-2.881,3.4031-5.3141,4.0802-7.3016h-54.686l0.39818-2.8324c0.41902-2.9794,1.5152-5.3118,3.2931-7.0029,1.7768-1.6876,4.9993-2.5326,9.671-2.5326h52.451c1.3902,0,2.7329,0.69566,4.027,2.0858,1.2964,1.3913,1.7826,3.2294,1.4619,5.5132-0.8091,5.7632-6.2552,14.108-16.334,25.033l-33.571,36.36c-3.3996,3.6774-6.526,7.2043-9.3851,10.581-2.859,3.3788-5.1868,6.5064-6.9821,9.3862h56.029l-0.71187,5.0676z"/>
  <path d="m195.49,279.93c0.30674-2.1831,0.22456-4.2469-0.24771-6.1834-0.47458-1.9377-1.3763-3.6496-2.7062-5.1405-1.3323-1.4897-3.101-2.6831-5.3083-3.5756-2.2108-0.89591-4.8546-1.3404-7.9324-1.3404-3.2781,0-6.3235,0.62042-9.127,1.8613-2.8093,1.242-5.3014,2.881-7.4717,4.9171-2.175,2.0384-3.9853,4.3221-5.4333,6.8548-1.4504,2.5338-2.4065,5.0907-2.8683,7.6743l-0.61001,3.2781,18.072-0.29748c4.7817-0.0972,8.6859-0.29864,11.708-0.59612,3.0234-0.29748,5.3674-0.74544,7.0411-1.3416,1.6749-0.59496,2.8521-1.3913,3.5397-2.3833,0.68525-0.99315,1.1332-2.2363,1.3439-3.7272m13.218-0.74544c-0.48847,3.4795-1.3832,6.4844-2.6831,9.017s-3.3278,4.5965-6.0839,6.1834c-2.7583,1.5893-6.3732,2.7572-10.848,3.5026-4.4784,0.74427-10.14,1.117-16.997,1.117h-19.668c-0.24076,6.6568,1.5522,12.097,5.3801,16.317,3.8256,4.2237,9.4673,6.3327,16.917,6.3327,6.1591,0,11.267-0.82068,15.323-2.4586,4.0513-1.6402,7.3745-3.5512,9.9685-5.7366h0.74543l-0.83803,5.96c-0.58686,4.174-3.2908,7.6743-8.1072,10.504-4.8199,2.8336-11.75,4.248-20.788,4.248-5.4646,0-10.343-0.99546-14.631-2.9806-4.2909-1.9863-7.8537-4.7423-10.685-8.2704-2.8359-3.5246-4.8268-7.7217-5.9785-12.591-1.1564-4.8662-1.3265-10.181-0.51741-15.945,0.90749-6.4566,2.675-12.316,5.3037-17.583,2.6241-5.2655,5.8686-9.7833,9.73-13.561,3.8568-3.7746,8.2148-6.6788,13.069-8.716,4.8546-2.0361,9.9152-3.0558,15.183-3.0558,3.873,0,7.525,0.69798,10.956,2.087,3.4297,1.3913,6.3605,3.3302,8.7959,5.8095,2.4284,2.4863,4.2527,5.4171,5.4704,8.7936,1.2108,3.3776,1.5395,7.055,0.98273,11.025"/>
  <path d="m273.31,332.69c-5.6625,0-8.0806-2.9366-7.2553-8.8098l5.1625-36.74c1.1749-8.3607,0.41787-14.285-2.2722-17.77-2.69-3.4829-7.6095-5.2262-14.762-5.2262-5.96,0-10.83,1.793-14.612,5.3755-3.7827,3.586-6.2471,9.458-7.393,17.621l-6.401,45.55h-5.0664c-2.4852,0-4.3927-0.74659-5.7227-2.2363-1.3311-1.4897-1.7721-3.8221-1.3254-7.0029l5.1301-36.508c0.78248-5.563,2.2791-10.555,4.49-14.977,2.2085-4.4194,5.019-8.1442,8.4255-11.176,3.4054-3.0292,7.305-5.3396,11.702-6.9288,4.3974-1.5893,9.1258-2.3845,14.193-2.3845,10.033,0,17.475,2.8822,22.329,8.642,4.8523,5.7632,6.4334,14.655,4.7446,26.675l-6.4496,45.896h-4.9182z"/>
  <path d="m314.7,322.33c-0.42944,3.0616-1.7999,5.5491-4.1045,7.4729-2.3069,1.9215-4.9507,2.8845-7.9301,2.8845-2.9818,0-5.379-0.96305-7.1951-2.8845-1.8173-1.9238-2.5106-4.4113-2.08-7.4729,0.43059-3.057,1.8266-5.5711,4.1913-7.5458,2.3613-1.9724,5.0352-2.9598,8.0146-2.9598s5.3488,0.98736,7.1083,2.9598c1.7582,1.9747,2.4238,4.4888,1.9955,7.5458"/>
  <path d="m353.18,253.11,27.418,0-0.62853,4.4691c-0.34841,2.4852-1.4735,4.4714-3.3718,5.9623-1.8983,1.4897-4.6358,2.234-8.2114,2.234h-16.838l-5.5641,39.593c-0.79752,5.6799-0.28359,9.789,1.5453,12.33,1.8266,2.5396,4.9264,3.8094,9.2994,3.8094,2.484,0,4.8638-0.15047,7.1395-0.4468,2.278-0.30095,4.174-0.89475,5.6903-1.7907h0.74543l-0.66556,4.7388c-0.46879,3.3394-2.0673,5.8686-4.7909,7.5875-2.7248,1.7166-6.423,2.5766-11.091,2.5766-8.9406,0-15.101-2.2826-18.482-6.8559-3.3822-4.5675-4.4228-11.474-3.1241-20.71l7.2877-51.858c0.68293-4.8662,2.4053-8.9915,5.166-12.369,1.1876-1.3902,2.7606-2.682,4.7157-3.8742,1.955-1.1911,3.4297-1.7872,4.4228-1.7872h1.6402l-2.3023,16.391z"/>
  <path d="m456.21,269.65c-1.7374,4.5698-4.0652,9.8342-6.989,15.795-2.9239,5.9612-6.1487,11.948-9.6744,17.958-3.5292,6.011-7.2159,11.748-11.063,17.209-3.8487,5.4658-7.5632,9.9847-11.144,13.561h-3.726c-1.2906,0-2.4423-0.27549-3.4598-0.81836-1.0174-0.54866-1.9654-1.5661-2.8475-3.0558-6.0607-11.325-10.654-23.692-13.786-37.104-3.1322-13.413-4.7516-26.823-4.8511-40.234h6.7054c2.682,0,4.5073,0.79521,5.4773,2.3833,0.96884,1.5904,1.5106,3.3788,1.6298,5.3651,0.50467,9.1408,1.7166,18.701,3.6427,28.685,1.9238,9.9835,5.3408,19.795,10.244,29.428,3.608-4.4703,7.1499-9.7069,10.629-15.72,3.4748-6.0086,6.6939-12.118,9.6525-18.328,2.9574-6.2066,5.5769-12.119,7.856-17.732,2.278-5.6116,3.9818-10.306,5.1092-14.082h4.7689c1.9851,0,3.366,0.59496,4.1439,1.7872,0.77553,1.1922,1.0313,2.734,0.76511,4.6196-0.26391,1.8891-0.73386,3.8001-1.4006,5.7378-0.67136,1.9377-1.2304,3.4517-1.6819,4.5444"/>
 </g>
</svg>
