<?xml version="1.0" encoding="UTF-8" standalone="no"?>
<!-- Created with Inkscape (http://www.inkscape.org/) -->
<svg xmlns:rdf="http://www.w3.org/1999/02/22-rdf-syntax-ns#" xmlns="http://www.w3.org/2000/svg" height="133.94" width="600" version="1.1" xmlns:cc="http://creativecommons.org/ns#" xmlns:dc="http://purl.org/dc/elements/1.1/">
 <metadata>
  <rdf:RDF>
   <cc:Work rdf:about="">
    <dc:format>image/svg+xml</dc:format>
    <dc:type rdf:resource="http://purl.org/dc/dcmitype/StillImage"/>
    <dc:title/>
   </cc:Work>
  </rdf:RDF>
 </metadata>
 <path d="m558.68,70.48,13.985,0,0,63.46,26.532,0,0.804-86.395-41.321,0z" fill-rule="nonzero" fill="#f57c14"/>
 <path style="baseline-shift:baseline;block-progression:tb;color:#000000;direction:ltr;text-indent:0;text-align:start;enable-background:accumulate;text-transform:none;" d="m526.14,76.546v17.713h-17.862v13.247h17.862l-0.0712,17.658c4.4833,0.009,9.0987,0.0542,12.946,0.0542v-17.713h17.862v-13.247h-17.862v-17.713h-12.875z" fill-rule="nonzero" fill="#f57c14"/>
 <path fill="#f57c14" d="M45.145,43.607c-12.417-0.011-23.799,5.085-31.923,13.222-8.1377,8.112-13.222,19.507-13.222,31.924v41.236h34.274v-18.05-22.483c0.01178-4.9438,1.188-9.1594,3.1809-12.43,2.0184-3.232,4.6372-5.1354,7.6903-5.1482,3.0531,0.0118,5.6719,1.9162,7.6903,5.1482,1.9928,3.2703,3.1681,7.4859,3.1809,12.43v40.534h34.274v-41.236c0-12.417-5.0843-23.812-13.222-31.924-8.124-8.138-19.506-13.235-31.923-13.223" fill-rule="nonzero"/>
 <path fill="#f57c14" d="m127.17,32.511c3.4491-3.4491,5.5825-8.214,5.5825-13.477,0-5.2631-2.1334-10.015-5.5825-13.464-3.45-3.4494-8.22-5.57-13.48-5.57-5.2504,0-10.015,2.1206-13.464,5.5697-3.4491,3.4491-5.5825,8.2013-5.5825,13.464,0,5.2631,2.1334,10.028,5.5825,13.477l4.2028,4.2156c7.026,7.0132,7.5242,8.8783,0.84313,15.559l-3.8196,3.8196c-3.1425,3.1426-5.0715,7.4731-5.0715,12.251v61.625h34.632v-61.625c0-4.7777-1.9417-9.1083-5.0715-12.251l-3.8196-3.8196c-6.6811-6.6811-6.1829-8.5462,0.84312-15.572l4.2028-4.2028z" fill-rule="nonzero"/>
 <path fill="#f57c14" d="m188.56,103.15c-2.0311,3.7302-4.6372,5.9402-7.6903,5.9402s-5.6591-2.21-7.6903-5.9402c-1.9928-3.7685-3.1681-8.6484-3.1809-14.359,0.0118-5.6975,1.188-10.577,3.1809-14.359,2.0312-3.7174,4.6372-5.9274,7.6903-5.9402,3.0531,0.0118,5.6592,2.2228,7.6903,5.9402,1.4818,2.8104,2.5038,6.2084,2.9382,10.117h34.313c-1.0092-10.743-5.8124-20.49-13.017-27.682-8.1246-8.1374-19.52-13.222-31.924-13.222s-23.799,5.0843-31.924,13.222c-8.1374,8.1246-13.234,19.52-13.222,31.924-0.0118,12.417,5.0843,23.812,13.222,31.924,6.2596,6.2468,17.144,13.234,31.924,13.222,11.114,0.0118,21.397-4.0751,29.254-10.769,5.7358-4.8671,14.231-14.627,15.687-30.135h-34.313c-0.43433,3.909-1.4563,7.3198-2.9382,10.117" fill-rule="nonzero"/>
 <path fill="#f57c14" d="m316.47,123.99c0-1.1497-0.34491-2.21-0.90699-3.117l-18.77-28.378,12.99-23.595c4.8032-8.1502,2.095-18.651-6.0551-23.454-8.1502-4.8032-18.651-2.095-23.467,6.0552l-15.508,27.734v-18.485c0-9.466-7.6775-17.143-17.144-17.143-9.4532,0-17.131,7.6775-17.131,17.143v69.238h34.274v-27.108l18.076,27.095,27.67-0.0118c3.2958,0,5.9657-2.6699,5.9657-5.9657" fill-rule="nonzero"/>
 <path fill="#4ac3cb" d="m388.45,98.847c0,20.886-10.169,34.376-34.594,34.376h-0.94532c-8.5334,0-17.476-2.2611-23.058-5.8508-9.6959-6.2468-16.019-16.505-9.632-27.338,5.9146-10.054,26.635-11.906,29.701,5.5825,1.0731,6.119,4.3178,5.327,4.3178-0.31937l0.0118-41.607c0-12.43,7.6775-20.082,17.131-20.082,9.4532,0.0118,17.118,7.6648,17.118,17.118l-0.0511,38.119zm-17.07-60.615c9.3638,0,16.939-7.5881,16.939-16.952,0-9.3638-7.5753-16.939-16.939-16.939-9.3638,0-16.952,7.5753-16.952,16.939,0,9.3638,7.5881,16.952,16.952,16.952" fill-rule="nonzero"/>
 <path fill="#4ac3cb" d="m431.14,130.01,0-46.091c0-3.3342,2.0823-8.9422,5.9402-10.437,3.9346-1.5202,7.5242,0.23004,11.842,1.8395,14.205,5.4164,25.268-1.7501,26.98-11.037,1.7246-9.2871-4.42-18.217-13.707-19.941-11.408-2.1334-19.456,1.4563-28.781,8.6484-0.0118,0-0.0118,0.0118-0.0254,0.0118-0.66428,0.51098-2.4272,2.0439-3.0404,2.5549-2.1972-6.9238-8.674-11.944-16.313-11.944-9.4532,0-17.118,7.6647-17.118,17.105v69.289h34.223z" fill-rule="nonzero"/>
 <path fill="#4ac3cb" d="m460.36,130.94c9.3638,0,16.939-7.5881,16.939-16.952,0-9.3638-7.5753-16.939-16.939-16.939-9.351,0-16.952,7.5753-16.952,16.939,0,9.3638,7.6009,16.952,16.952,16.952" fill-rule="nonzero"/>
</svg>
