<?xml version="1.0" encoding="UTF-8" standalone="no"?>
<!-- Created with Inkscape (http://www.inkscape.org/) -->
<svg xmlns:rdf="http://www.w3.org/1999/02/22-rdf-syntax-ns#" xmlns="http://www.w3.org/2000/svg" height="85.422" width="600" version="1.1" xmlns:cc="http://creativecommons.org/ns#" xmlns:dc="http://purl.org/dc/elements/1.1/">
 <defs></defs>
 <metadata>
  <rdf:RDF>
   <cc:Work rdf:about="">
    <dc:format>image/svg+xml</dc:format>
    <dc:type rdf:resource="http://purl.org/dc/dcmitype/StillImage"/>
    <dc:title/>
   </cc:Work>
  </rdf:RDF>
 </metadata>
 <g transform="translate(123.92217,182.51696)">
  <g fill-rule="nonzero" fill="#f57c14" transform="translate(4.5678782e-6,-3.6268964e-6)">
   <path d="m468.55-107.07,0.21579,0,3.5533,3.9704,3.5245-3.9704,0.23017,0,0,7.4518-1.3379,0,0-4.6178-2.2873,2.7333-0.24455,0-2.3161-2.7333,0,4.6178-1.3379,0,0-7.4518zm-5.1357,1.2516-2.2154,0,0-1.1221,5.7687,0,0,1.1221-2.2154,0,0,6.2002-1.3379,0,0-6.2002z"/>
   <path d="m-95.18-154.63c-7.8977,0-15.163,3.2368-20.327,8.4156-5.1932,5.1788-8.43,12.429-8.4156,20.341v26.254h21.823v-11.494-14.314c0-3.1505,0.74806-5.8406,2.0284-7.9265,1.2803-2.0572,2.9491-3.2656,4.8911-3.2799,1.9421,0.0144,3.6108,1.2228,4.8911,3.2799,1.2803,2.0859,2.0284,4.776,2.0284,7.9265v25.808h21.837v-26.254c0-7.9121-3.2368-15.163-8.43-20.341-5.1645-5.1788-12.415-8.4156-20.327-8.4156"/>
   <path d="m427.27-154.63c-7.8978,0-15.163,3.2368-20.327,8.4156-5.1932,5.1788-8.43,12.429-8.4156,20.341v26.254h21.823v-11.494-14.314c0-3.1505,0.74806-5.8406,2.0284-7.9265,1.2803-2.0572,2.9491-3.2656,4.8911-3.2799,1.9421,0.0144,3.6108,1.2228,4.8911,3.2799,1.2803,2.0859,2.0284,4.776,2.0284,7.9265v25.808h21.837v-26.254c0-7.9121-3.2368-15.163-8.43-20.341-5.1645-5.1788-12.415-8.4156-20.327-8.4156"/>
   <path d="m-42.942-161.7c2.201-2.201,3.5533-5.222,3.5533-8.5739s-1.3523-6.3872-3.5533-8.5883c-2.201-2.1866-5.222-3.5533-8.5739-3.5533s-6.3872,1.3666-8.5883,3.5533c-2.1866,2.201-3.5533,5.2364-3.5533,8.5883s1.3666,6.3729,3.5533,8.5739l2.6901,2.6757c4.474,4.474,4.7904,5.668,0.53227,9.9117,0,0-2.4312,2.4456-2.4312,2.4456-1.9996,1.9996-3.2368,4.7473-3.2368,7.797v39.244h22.053v-39.244c0-3.0498-1.2228-5.7974-3.2224-7.797l-2.4312-2.4456c-4.2582-4.2438-3.9417-5.4378,0.53227-9.9117l2.6757-2.6757z"/>
   <path d="m-3.8433-116.71c-1.2947,2.3736-2.9491,3.7834-4.8911,3.7834-1.9565,0-3.6108-1.4098-4.9055-3.7834-1.2659-2.4024-2.014-5.5097-2.0284-9.1493,0.01439-3.6252,0.76244-6.7325,2.0284-9.1349,1.2947-2.3736,2.9491-3.7834,4.9055-3.7978,1.9421,0.0144,3.5964,1.4242,4.8911,3.7978,0.93507,1.7838,1.5968,3.9561,1.8701,6.4304h21.852c-0.64736-6.8332-3.6971-13.048-8.2862-17.622-5.1788-5.1788-12.429-8.43-20.327-8.4156-7.9121-0.0144-15.163,3.2368-20.341,8.4156-5.1788,5.1645-8.4156,12.429-8.4156,20.327,0,7.9121,3.2368,15.163,8.4156,20.341,3.9848,3.9704,10.919,8.4156,20.341,8.4156,7.0778,0,13.623-2.6038,18.629-6.862,3.654-3.0929,9.063-9.3219,9.9837-19.191h-21.852c-0.27333,2.4887-0.93507,4.661-1.8701,6.4448"/>
   <path d="m97.288-131.03c0.38841-1.6831,0.92068-3.1648,1.4386-4.2582,0.97823-2.0859,2.9491-3.7834,4.8911-3.7834,1.9708,0,3.5676,1.3954,4.9343,3.8698,0.58981,1.0502,1.1221,2.9059,1.381,4.1287l-12.645,0.0432zm6.3297-23.621c-7.8978,0-15.163,3.2368-20.327,8.4156-5.1932,5.1645-8.43,12.429-8.43,20.341,0,7.8978,3.2368,15.163,8.43,20.327,5.035,5.035,12.156,8.4156,20.456,8.4156,8.5307,0,15.608-3.8122,20.37-8.5883,6.0132-6.9051,6.3009-14.256,6.3009-14.256h-19.464s-2.6901,6.79-7.3367,6.79c-1.9421-0.0144-3.6108-1.4098-4.8911-3.7978-0.87753-1.64-1.4961-3.6252-1.7982-5.8694h33.878s2.3161-13.825-6.9483-23.19c-5.3946-5.4378-12.242-8.5883-20.241-8.5883"/>
   <path d="m301.59-131.03c0.38841-1.6831,0.92068-3.1648,1.4386-4.2582,0.97823-2.0859,2.9491-3.7834,4.8911-3.7834,1.9708,0,3.5676,1.3954,4.9343,3.8698,0.58981,1.0502,1.1221,2.9059,1.381,4.1287l-12.645,0.0432zm6.3297-23.621c-7.8978,0-15.163,3.2368-20.327,8.4156-5.1788,5.1645-8.43,12.429-8.43,20.341,0,7.8978,3.2512,15.163,8.43,20.327,5.035,5.035,12.156,8.4156,20.456,8.4156,8.5307,0,15.608-3.8122,20.37-8.5883,6.0132-6.9051,6.3009-14.256,6.3009-14.256h-19.464s-2.6901,6.79-7.3367,6.79c-1.9421-0.0144-3.6108-1.4098-4.8911-3.7978-0.87753-1.64-1.4961-3.6252-1.7982-5.8694h33.878s2.3161-13.825-6.9483-23.19c-5.3946-5.4378-12.242-8.5883-20.241-8.5883"/>
   <path d="m144.82-182.52c-6.0276,0-10.904,4.8911-10.904,10.919l0.0288,71.972h21.823l-0.0288-71.986c0-6.0276-4.8911-10.904-10.919-10.904"/>
   <path d="m187.53-112.93c-3.8266,0-6.9195-5.7974-6.9195-12.947,0-7.1497,3.0929-12.947,6.9195-12.947s6.9195,5.7974,6.9195,12.947c0,7.1497-3.0929,12.947-6.9195,12.947m0-41.704c-15.882,0-28.757,12.875-28.757,28.757s12.875,28.743,28.757,28.743,28.757-12.861,28.757-28.743-12.875-28.757-28.757-28.757"/>
   <path d="m367.07-112.93c-3.8266,0-6.9195-5.7974-6.9195-12.947,0-7.1497,3.0929-12.947,6.9195-12.947s6.9195,5.7974,6.9195,12.947c0,7.1497-3.0929,12.947-6.9195,12.947m0-41.704c-15.882,0-28.757,12.875-28.757,28.757s12.875,28.743,28.757,28.743,28.757-12.861,28.757-28.743-12.875-28.757-28.757-28.757"/>
   <path d="m247.65-112.93c-3.8266,0-6.9195-5.7974-6.9195-12.947,0-7.1497,3.0929-12.947,6.9195-12.947s6.9195,5.7974,6.9195,12.947c0,7.1497-3.0929,12.947-6.9195,12.947m28.743-12.947,0.0431,0.0288-0.0288-45.761c0-6.0276-4.8911-10.904-10.919-10.904-6.0276,0-10.904,4.8911-10.904,10.919l0.0144,17.853c-2.2298-0.56105-4.5603-0.86315-6.9483-0.86315-7.8978,0-15.163,3.2368-20.327,8.43-5.1932,5.1645-8.43,12.429-8.4156,20.327-0.0144,7.8977,3.2224,15.163,8.4156,20.327,3.3087,3.3231,10.415,8.43,20.327,8.43,9.9117,0,17.018-5.1069,20.327-8.43,5.1932-5.1645,8.43-12.429,8.43-20.327,0-0.0144-0.0144-0.0144-0.0144-0.0288"/>
   <path d="m78.034-103.44c0-0.73367-0.21578-1.4098-0.57543-1.9852l-11.955-18.083,8.2718-15.019c3.0642-5.1932,1.3379-11.883-3.8554-14.947-5.1932-3.0642-11.883-1.3379-14.947,3.8554l-9.883,17.666v-11.767c0-6.0276-4.8768-10.919-10.904-10.919-6.0276,0-10.919,4.8911-10.919,10.919v44.092h21.823v-17.263l11.523,17.263,17.622-0.01439c2.1003,0,3.7978-1.6975,3.7978-3.7978"/>
  </g>
 </g>
</svg>
