<?xml version="1.0" encoding="UTF-8" standalone="no"?>
<svg xmlns:rdf="http://www.w3.org/1999/02/22-rdf-syntax-ns#" xmlns="http://www.w3.org/2000/svg" height="133.94" viewBox="0 0 600 133.93977" width="600" version="1.1" xmlns:cc="http://creativecommons.org/ns#" xmlns:dc="http://purl.org/dc/elements/1.1/">
 <g fill="#f57c14">
  <path d="m558.68 70.48h13.98v63.46h26.54l0.8-86.395h-41.32z"/>
  <path style="color:#000000;text-indent:0;block-progression:tb;text-transform:none" d="m526.14 76.546v17.713h-17.86v13.251h17.86l-0.07 17.65c4.48 0.01 9.1 0.06 12.94 0.06v-17.71h17.87v-13.252h-17.87v-17.713h-12.87z"/>
  <path d="m45.145 43.607c-12.417-0.011-23.799 5.085-31.923 13.222-8.1377 8.112-13.222 19.507-13.222 31.924v41.237h34.274v-40.534c0.012-4.944 1.188-9.16 3.181-12.43 2.018-3.232 4.637-5.136 7.69-5.148 3.053 0.011 5.672 1.916 7.69 5.148 1.993 3.27 3.169 7.486 3.181 12.43v40.534h34.274v-41.236c0-12.417-5.084-23.812-13.222-31.924-8.124-8.138-19.506-13.235-31.923-13.223"/>
  <path d="m127.17 32.511c3.45-3.449 5.58-8.214 5.58-13.477s-2.13-10.015-5.58-13.464c-3.45-3.4494-8.22-5.57-13.48-5.57-5.25 0-10.02 2.1206-13.46 5.5697-3.453 3.4491-5.587 8.2013-5.587 13.464 0 5.263 2.134 10.028 5.587 13.477l4.2 4.215c7.02 7.013 7.52 8.879 0.84 15.559l-3.82 3.82c-3.14 3.142-5.069 7.473-5.069 12.251v61.624h34.629v-61.624c0-4.778-1.94-9.108-5.07-12.251l-3.82-3.82c-6.68-6.681-6.18-8.546 0.84-15.572l4.21-4.203z"/>
  <path d="m188.56 103.15c-2.03 3.73-4.64 5.94-7.69 5.94s-5.66-2.21-7.69-5.94c-1.99-3.769-3.17-8.649-3.18-14.359 0.01-5.698 1.19-10.577 3.18-14.359 2.03-3.718 4.64-5.928 7.69-5.94 3.05 0.011 5.66 2.222 7.69 5.94 1.48 2.81 2.5 6.208 2.94 10.117h34.31c-1.01-10.743-5.81-20.49-13.02-27.682-8.12-8.137-19.52-13.222-31.92-13.222s-23.8 5.084-31.92 13.222c-8.14 8.124-13.24 19.52-13.23 31.924-0.01 12.419 5.09 23.809 13.23 31.919 6.26 6.25 17.14 13.24 31.92 13.23 11.11 0.01 21.4-4.08 29.25-10.77 5.74-4.87 14.23-14.63 15.69-30.137h-34.31c-0.44 3.909-1.46 7.317-2.94 10.117"/>
  <path d="m316.47 123.99c0-1.15-0.35-2.21-0.91-3.12l-18.77-28.375 12.99-23.595c4.81-8.15 2.1-18.651-6.05-23.454s-18.65-2.095-23.47 6.055l-15.51 27.734v-18.485c0-9.466-7.68-17.143-17.14-17.143-9.45 0-17.13 7.678-17.13 17.143v69.24h34.27v-27.11l18.08 27.09 27.67-0.01c3.29 0 5.96-2.67 5.96-5.96"/>
 </g>
 <g fill="#4ac3cb">
  <path d="m388.45 98.847c0 20.883-10.17 34.373-34.59 34.373h-0.95c-8.53 0-17.48-2.26-23.06-5.85-9.69-6.24-16.02-16.5-9.63-27.34 5.91-10.05 26.64-11.902 29.7 5.59 1.07 6.12 4.32 5.32 4.32-0.32l0.01-41.61c0-12.43 7.68-20.082 17.13-20.082 9.45 0.012 17.12 7.665 17.12 17.118l-0.05 38.119zm-17.07-60.615c9.36 0 16.94-7.588 16.94-16.952s-7.58-16.939-16.94-16.939-16.95 7.575-16.95 16.939 7.59 16.952 16.95 16.952"/>
  <path d="m431.14 130.01v-46.091c0-3.334 2.08-8.942 5.94-10.437 3.93-1.52 7.52 0.23 11.84 1.839 14.21 5.417 25.27-1.75 26.98-11.037 1.73-9.287-4.42-18.217-13.71-19.941-11.4-2.133-19.45 1.457-28.78 8.649-0.01 0-0.01 0.012-0.02 0.012-0.67 0.511-2.43 2.044-3.04 2.555-2.2-6.924-8.68-11.944-16.32-11.944-9.45 0-17.11 7.664-17.11 17.104v69.291h34.22z"/>
  <path d="m460.36 130.94c9.36 0 16.94-7.59 16.94-16.95 0-9.37-7.58-16.941-16.94-16.941-9.35 0-16.95 7.571-16.95 16.941 0 9.36 7.6 16.95 16.95 16.95"/>
 </g>
</svg>
