<?xml version="1.0" encoding="UTF-8" standalone="no"?>
<!-- Generator: Adobe Illustrator 13.0.0, SVG Export Plug-In . SVG Version: 6.00 Build 14948)  -->
<svg xmlns:rdf="http://www.w3.org/1999/02/22-rdf-syntax-ns#" xmlns="http://www.w3.org/2000/svg" enable-background="new 0 0 467 97" xml:space="preserve" height="78.549" width="600" version="1.1" y="0px" x="0px" xmlns:cc="http://creativecommons.org/ns#" xmlns:dc="http://purl.org/dc/elements/1.1/" viewBox="0 0 600 78.548613"><metadata><rdf:RDF><cc:Work rdf:about=""><dc:format>image/svg+xml</dc:format><dc:type rdf:resource="http://purl.org/dc/dcmitype/StillImage"/><dc:title/></cc:Work></rdf:RDF></metadata><g transform="translate(197.08182,349.52283)" display="none" fill="#FFF"><path d="m433.71,15.94c-1.3-0.13-1.449-3.53-0.039-3.72,0.68,1.21,0.699,2.45,0.039,3.72z" display="inline"/><path d="m435.33,13.23z" display="inline"/></g><path d="m548.85,390.02h0.22l3.574,3.991,3.54-3.991h0.229v7.49h-1.341v-4.635l-2.304,2.749h-0.247l-2.331-2.749v4.635h-1.34v-7.49zm-5.161,1.268h-2.224v-1.145h5.798v1.145h-2.232v6.221h-1.342v-6.221z" display="none" fill="#4ac3cb"/><path d="m26.439,25.637c-7.2771,0-13.935,2.9783-18.684,7.7547-4.7767,4.748-7.755,11.407-7.755,18.684v24.163h20.061v-23.741c0.02813-2.894,0.70242-5.3664,1.8825-7.2771,1.1801-1.9105,2.6973-3.0063,4.4955-3.0344,1.7982,0.02813,3.3154,1.1239,4.4955,3.0344s1.8544,4.3831,1.8825,7.2771v23.741h20.061v-24.163c0-7.2771-2.9783-13.935-7.7547-18.684-4.749-4.777-11.408-7.755-18.685-7.755" fill-rule="nonzero" fill="#f47116"/><path d="m506.86,25.637c-7.2771,0-13.935,2.9783-18.684,7.7547-4.7764,4.7484-7.7547,11.407-7.7547,18.684v24.163h20.089l-0.0281-10.593v-13.149c0.0281-2.894,0.70243-5.3664,1.8825-7.2771,1.1801-1.9105,2.6973-3.0063,4.4955-3.0344,1.7982,0.02813,3.3154,1.1239,4.4955,3.0344s1.8544,4.3831,1.8825,7.2771v23.741h20.061v-24.163c0-7.2771-2.9783-13.935-7.7547-18.684-4.7484-4.7764-11.407-7.7547-18.684-7.7547" fill-rule="nonzero" fill="#f47116"/><path d="m74.475,19.14c2.023-2.023,3.2592-4.8045,3.2592-7.8952,0-3.0906-1.2362-5.8722-3.2592-7.8951-2.023-1.9948-4.8045-3.2592-7.8952-3.2592-3.0626,0-5.8722,1.2644-7.8671,3.2592-2.023,2.023-3.2873,4.8045-3.2873,7.8951s1.2644,5.8723,3.2873,7.8952l2.4444,2.4725c4.1302,4.1021,4.4112,5.1978,0.50574,9.1033,0,0-2.2477,2.2477-2.2477,2.2477-1.8262,1.8262-2.9783,4.3549-2.9783,7.1647v36.105h20.286v-36.105c0-2.8097-1.1239-5.3384-2.9502-7.1647l-2.2477-2.2477c-3.9055-3.9055-3.6245-5.0012,0.47765-9.1033l2.4725-2.4725z" fill-rule="nonzero" fill="#f47116"/><path d="m110.42,60.51c-1.1801,2.1916-2.6973,3.484-4.4955,3.484s-3.3154-1.2925-4.4955-3.484c-1.1801-2.2197-1.8825-5.0574-1.8825-8.4009s0.70242-6.2093,1.8825-8.4009c1.1801-2.1915,2.6973-3.484,4.4955-3.484s3.3154,1.2925,4.4955,3.484c0.87099,1.6296,1.4611,3.6245,1.7139,5.9003h20.089c-0.59003-6.2936-3.3997-11.997-7.6142-16.211-4.7484-4.7484-11.407-7.7266-18.684-7.7266-7.2771,0-13.935,2.9783-18.713,7.7266-4.7484,4.7764-7.7265,11.435-7.7265,18.713,0,7.2771,2.9783,13.935,7.7265,18.684,3.6806,3.6806,10.059,7.7547,18.713,7.7547,6.5185,0,12.531-2.3883,17.139-6.3218,3.3435-2.8377,8.3167-8.5694,9.1596-17.645h-20.089c-0.25287,2.304-0.8429,4.2988-1.7139,5.9284" fill-rule="nonzero" fill="#f47116"/><path d="m209.25,25.627c-7.2771,0-13.935,2.9783-18.684,7.7547-4.7764,4.7484-7.7547,11.407-7.7547,18.684,0,7.2771,2.9783,13.935,7.7547,18.684,4.636,4.636,11.183,7.7547,18.796,7.7547,7.8671,0,14.357-3.512,18.74-7.8951,5.535-6.3499,5.7879-13.121,5.7879-13.121h-17.897s-2.4725,6.2374-6.7432,6.2374c-1.7982,0-3.3154-1.2925-4.4955-3.484-0.8148-1.5172-1.3768-3.3154-1.6577-5.3946h31.16s2.1072-12.727-6.406-21.325c-4.945-5.0012-11.267-7.8952-18.6-7.8952m-5.816,21.719c0.36524-1.5454,0.84289-2.894,1.3205-3.9055,0.89909-1.9387,2.6973-3.484,4.4955-3.484s3.2873,1.2644,4.5517,3.5402c0.53384,0.98339,1.0115,2.6973,1.2362,3.8212l-11.604,0.02813z" fill-rule="nonzero" fill="#f47116"/><path d="m397.1,25.627c-7.2771,0-13.935,2.9783-18.684,7.7547-4.7765,4.7484-7.7547,11.407-7.7547,18.684,0,7.2771,2.9783,13.935,7.7547,18.684,4.636,4.636,11.183,7.7547,18.796,7.7547,7.8671,0,14.357-3.512,18.74-7.8951,5.535-6.3499,5.7879-13.121,5.7879-13.121h-17.897s-2.4725,6.2374-6.7432,6.2374c-1.7982,0-3.3154-1.2925-4.4955-3.484-0.81481-1.5172-1.3768-3.3154-1.6577-5.3946h31.16s2.1354-12.727-6.406-21.325c-4.945-5.0012-11.267-7.8952-18.6-7.8952m-5.816,21.719c0.36526-1.5454,0.8429-2.894,1.3205-3.9055,0.89907-1.9387,2.6973-3.484,4.4955-3.484s3.2873,1.2644,4.5517,3.5402c0.53384,0.98339,1.0115,2.6973,1.2362,3.8212l-11.604,0.02813z" fill-rule="nonzero" fill="#f47116"/><path d="m247.13-0.0000074011c-5.5631,0-10.031,4.4955-10.031,10.031l0.0281,66.196h20.061l-0.0281-66.196c0-5.535-4.4955-10.031-10.031-10.031" fill-rule="nonzero" fill="#f47116"/><path d="m286.4,25.637c-14.611,0-26.439,11.828-26.439,26.439s11.828,26.439,26.439,26.439,26.439-11.828,26.439-26.439-11.828-26.439-26.439-26.439m0,38.352c-3.5121,0-6.3779-5.3384-6.3779-11.913s2.8659-11.913,6.3779-11.913,6.3779,5.3384,6.3779,11.913-2.8659,11.913-6.3779,11.913" fill-rule="nonzero" fill="#f47116"/><path d="m451.5,25.637c-14.611,0-26.439,11.828-26.439,26.439s11.828,26.439,26.439,26.439,26.439-11.828,26.439-26.439-11.828-26.439-26.439-26.439m0,38.352c-3.512,0-6.378-5.3384-6.378-11.913s2.8659-11.913,6.378-11.913c3.512,0,6.3779,5.3384,6.3779,11.913s-2.8659,11.913-6.3779,11.913" fill-rule="nonzero" fill="#f47116"/><path d="m368.12,52.081,0.0562,0.0281-0.0281-42.089c-0.0281-5.535-4.5235-10.031-10.059-10.002-5.5351,0-10.031,4.4674-10.031,10.031v16.409c-2.0511-0.50574-4.1864-0.78671-6.3779-0.78671-7.2771,0-13.935,2.9783-18.684,7.7547-4.7764,4.7484-7.7547,11.407-7.7547,18.684,0,7.2489,2.9783,13.935,7.7547,18.684,3.0344,3.0626,9.581,7.7547,18.684,7.7547,9.1314,0,15.65-4.6921,18.684-7.7547,4.7764-4.7484,7.7547-11.435,7.7547-18.684v-0.0281zm-26.439,11.913c-3.5121,0-6.3499-5.3384-6.3499-11.913s2.8377-11.913,6.3499-11.913c3.512,0,6.3779,5.3384,6.3779,11.913s-2.8659,11.913-6.3779,11.913" fill-rule="nonzero" fill="#f47116"/><path d="m185.71,72.719c0-0.67432-0.19668-1.2925-0.53384-1.8262l-10.985-16.633,7.6142-13.795c2.8097-4.7764,1.2362-10.93-3.5402-13.768-4.7764-2.8097-10.93-1.2082-13.739,3.5683l-9.1033,16.24v-10.845c0-5.5351-4.4955-10.031-10.031-10.031-5.535,0-10.031,4.4955-10.031,10.031v40.572h20.061v-15.875l10.593,15.875,16.211-0.0281c1.9106,0,3.484-1.5454,3.484-3.484" fill-rule="nonzero" fill="#f47116"/><g fill-rule="nonzero" fill="#f47116" transform="matrix(2.7116365,0,0,2.7116365,-637.53407,-470.12109)"><path d="m447.44,187.76,3.0245,0,0,13.724,5.7381,0,0.17388-18.685-8.9365,0z"/><path style="baseline-shift:baseline;block-progression:tb;color:#000000;direction:ltr;text-indent:0;text-align:start;enable-background:accumulate;text-transform:none;" d="m440.41,189.07v3.8307h-3.8629v2.865h3.8629l-0.0154,3.8188c0.96959,0.002,1.9678,0.0117,2.7999,0.0117v-3.8307h3.8629v-2.865h-3.8629v-3.8307h-2.7845z"/></g></svg>
