<?xml version="1.0" encoding="UTF-8" standalone="no"?>
<!-- Created with Inkscape (http://www.inkscape.org/) -->
<svg xmlns:rdf="http://www.w3.org/1999/02/22-rdf-syntax-ns#" xmlns="http://www.w3.org/2000/svg" height="136.19" width="600" version="1.1" xmlns:cc="http://creativecommons.org/ns#" xmlns:xlink="http://www.w3.org/1999/xlink" xmlns:dc="http://purl.org/dc/elements/1.1/">
 <defs>
  <radialGradient id="radialGradient4421" gradientUnits="userSpaceOnUse" cy="0" cx="0" gradientTransform="matrix(105.22054,0,0,118.87629,58.135866,58.09732)" r="1">
   <stop stop-color="#f47a55" offset="0"/>
   <stop stop-color="#e31b23" offset="0.5"/>
   <stop stop-color="#770102" offset="1"/>
  </radialGradient>
  <radialGradient id="radialGradient4426" gradientUnits="userSpaceOnUse" cy="0" cx="0" gradientTransform="matrix(105.22146,0,0,119.66038,58.135866,58.09732)" r="1">
   <stop stop-color="#f47a55" offset="0"/>
   <stop stop-color="#e31b23" offset="0.5"/>
   <stop stop-color="#770102" offset="1"/>
  </radialGradient>
  <radialGradient id="radialGradient4431" gradientUnits="userSpaceOnUse" cy="0" cx="0" gradientTransform="matrix(105.22311,0,0,128.38579,58.134905,58.09732)" r="1">
   <stop stop-color="#f47a55" offset="0"/>
   <stop stop-color="#e31b23" offset="0.5"/>
   <stop stop-color="#770102" offset="1"/>
  </radialGradient>
  <radialGradient id="radialGradient4436" gradientUnits="userSpaceOnUse" cy="0" cx="0" gradientTransform="matrix(105.22109,0,0,120.41257,58.136947,58.09648)" r="1">
   <stop stop-color="#f47a55" offset="0"/>
   <stop stop-color="#e31b23" offset="0.5"/>
   <stop stop-color="#770102" offset="1"/>
  </radialGradient>
  <radialGradient id="radialGradient4441" gradientUnits="userSpaceOnUse" cy="0" cx="0" gradientTransform="matrix(105.21981,0,0,120.36236,58.136947,58.09828)" r="1">
   <stop stop-color="#f47a55" offset="0"/>
   <stop stop-color="#e31b23" offset="0.5"/>
   <stop stop-color="#770102" offset="1"/>
  </radialGradient>
  <radialGradient id="radialGradient4446" gradientUnits="userSpaceOnUse" cy="0" cx="0" gradientTransform="matrix(116.44833,0,0,116.44833,116.36123,77.50582)" r="1">
   <stop stop-color="#14b1e7" offset="0"/>
   <stop stop-color="#0079c1" offset="0.5"/>
   <stop stop-color="#003369" offset="1"/>
  </radialGradient>
  <radialGradient id="radialGradient4451" gradientUnits="userSpaceOnUse" cy="0" cx="0" gradientTransform="matrix(116.44723,0,0,116.44705,116.36123,77.50678)" r="1">
   <stop stop-color="#14b1e7" offset="0"/>
   <stop stop-color="#0079c1" offset="0.5"/>
   <stop stop-color="#003369" offset="1"/>
  </radialGradient>
  <radialGradient id="radialGradient4456" gradientUnits="userSpaceOnUse" cy="0" cx="0" gradientTransform="matrix(116.47436,0,0,116.47436,116.40928,77.50858)" r="1">
   <stop stop-color="#14b1e7" offset="0"/>
   <stop stop-color="#0079c1" offset="0.5"/>
   <stop stop-color="#003369" offset="1"/>
  </radialGradient>
  <radialGradient id="radialGradient4461" gradientUnits="userSpaceOnUse" cy="0" cx="0" gradientTransform="matrix(116.45181,0,0,116.45181,116.36123,77.50762)" r="1">
   <stop stop-color="#14b1e7" offset="0"/>
   <stop stop-color="#0079c1" offset="0.5"/>
   <stop stop-color="#003369" offset="1"/>
  </radialGradient>
 </defs>
 <metadata>
  <rdf:RDF>
   <cc:Work rdf:about="">
    <dc:format>image/svg+xml</dc:format>
    <dc:type rdf:resource="http://purl.org/dc/dcmitype/StillImage"/>
    <dc:title/>
   </cc:Work>
  </rdf:RDF>
 </metadata>
 <path fill-rule="nonzero" fill="#0079c1" d="m182.4,8.0743-22.93,0,0,31.999,10.066,0,0-24.071,9.7535,0c1.057-0.012,1.3934,0.52851,1.3934,1.7057v22.366h10.078v-23.255c0-5.2011-2.2342-8.7445-8.3601-8.7445m68.755,21.537-8.192-21.537-10.75,0,13.093,31.999,11.051,0,13.225-31.999-10.414,0-8.0118,21.537zm-29.525-21.585-15.976,0c-6.114,0-8.3601,3.5435-8.3601,8.7445v14.558c0,5.2011,2.2462,8.7445,8.3601,8.7445h15.976c6.114,0,8.3481-3.5434,8.3481-8.7445v-6.8587-7.6995c0-5.2011-2.2342-8.7445-8.3481-8.7445m-1.7177,15.603,0,6.7986c0,1.1892-0.33633,1.7177-1.3934,1.7177h-9.7535c-1.069,0-1.3934-0.52851-1.3934-1.7177v-5.9578h0.012v-6.8106c0-1.1771,0.32432-1.7057,1.3814-1.7057h9.7535c1.057,0,1.3934,0.52852,1.3934,1.7057v5.9698zm72.959-15.543-19.195,0-1.5495,8.4322c1.8018-0.76875,3.8678-0.86484,9.261-0.86484h8.3001c1.1291,0,1.4534,0.5165,1.4534,1.7057v2.7026h-13.021c-6.186,0-8.4202,3.5555-8.4202,8.6244v2.6426c0,5.189,2.3062,8.7445,8.4202,8.7445h23.159v-23.315c0-5.129-2.2342-8.6724-8.4082-8.6724m-1.7297,24.48-10.222,0c-1.1171,0-1.5135-0.58857-1.5135-1.8378v-1.8378c0-1.1051,0.39639-1.7657,1.5855-1.7657h10.15v5.4413z"/>
 <path fill-rule="nonzero" fill="#004b8d" d="m392.68,63.583c-3.3032,0-5.7416,0.70869-7.3031,2.1141s-2.5345,3.1711-2.9188,5.2972l-7.4232,41.008h-19.807l8.3241-46.305c1.7417-7.4833,5.5014-11.627,9.8376-14.03,4.3242-2.3903,9.6934-3.6035,16.108-3.6035h19.651l-3.063,15.519h-13.405z"/>
 <path fill-rule="nonzero" fill="#004b8d" d="m433.27,96.421,14.582,0-2.8228,15.579-16.42,0c-8.7205,0-14.642-1.7657-17.753-5.2852-3.099-3.5314-4.144-8.1079-3.123-13.705l10.738-58.365,20.036-2.5585-2.8948,15.988h20.996l-2.8828,15.459h-20.996l-4.8167,27.086c-0.57656,3.5434,1.1892,5.8016,5.3572,5.8016"/>
 <path fill-rule="nonzero" fill="#004b8d" d="m350.05,53.36c-3.111-3.5314-9.0208-5.2851-17.753-5.2851h-14.246c-6.4142,0-11.783,1.2012-16.108,3.6035-4.3362,2.4023-8.0959,6.5344-9.8376,14.018l-4.9248,27.315c-1.021,5.5974,0.024,10.174,3.123,13.705,3.111,3.5194,9.0208,5.2852,17.753,5.2852h14.258c6.4142,0,11.783-1.2012,16.096-3.6035,4.3362-2.4023,8.0959-6.5344,9.8376-14.03l4.9368-27.303c1.009-5.5974-0.036-10.174-3.135-13.705m-16.997,16.024-3.6636,19.615c-0.38438,2.1261-1.3573,3.8918-2.9188,5.3092-1.5615,1.4054-3.9999,2.102-7.3031,2.102l-6.4503,0.012c-4.1681,0-5.9338-2.2582-5.3692-5.8016l3.65-19.627c0.38438-2.1381,1.3573-3.9038,2.9188-5.3092s3.9999-2.1141,7.3031-2.1141l6.4503-0.012c4.168,0,5.9458,2.2582,5.3692,5.8137"/>
 <path fill-rule="nonzero" fill="#004b8d" d="m278.7,53.36c-3.111-3.5314-9.0208-5.2851-17.753-5.2851h-14.246c-6.4142,0-11.783,1.2012-16.108,3.6035-4.3362,2.4023-8.0959,6.5344-9.8376,14.018l-12.84,70.497h19.807l4.9848-27.507,0.10811-0.012c2.1261,1.9459,5.6815,3.3272,11.783,3.3272h6.3662c6.4142,0,11.783-1.2012,16.096-3.6035,4.3362-2.4023,8.0959-6.5344,9.8376-14.03l4.9368-27.303c1.009-5.5974-0.036-10.174-3.135-13.705m-16.997,16.024-3.6636,19.615c-0.38438,2.1261-1.3573,3.8918-2.9188,5.3092-1.5615,1.4054-3.9999,2.102-7.3031,2.102l-6.4503,0.012c-4.1681,0-5.9338-2.2582-5.3692-5.8016l3.6636-19.615c0.38438-2.1381,1.3573-3.9038,2.9188-5.3092s3.9999-2.1141,7.3031-2.1141l6.4503-0.012c4.168,0,5.9458,2.2582,5.3692,5.8137"/>
 <path fill-rule="nonzero" fill="#004b8d" d="m152.52,98.415,29.2,0c7.0989,0,8.3481-7.3392,2.7747-9.4532-5.9578-2.2462-10.15-3.7837-17.177-6.4623-8.204-3.111-12.096-11.267-9.9337-19.327,2.09-7.7836,10.39-15.099,21.609-15.099h35.723l-2.7867,13.213h-27.146c-6.162,0-7.2671,6.0058-2.7026,7.6274,5.2011,1.8618,10.366,3.7356,18.114,6.5704,7.7235,2.8107,10.955,12.564,9.0929,20.204-2.042,8.3962-9.8136,16.312-20.84,16.312h-38.257l2.3303-13.585z"/>
 <path fill="url(#radialGradient4461)" d="m81.994,15.447c10.522,11.231,24.504,26.45,33.765,37.681,2.6186,1.2252,6.6304,2.9549,8.7926,3.2672,1.7537,0.25225,2.4864-0.15615,2.8348-0.84081,0.18017-0.32432,0.20419-1.0811,0.0721-1.6456-1.3333-5.4533-7.0389-13.753-13.165-20.444-6.09-2.402-17.5-10.834-19.878-12.636-3.3513-2.5225-7.9517-6.0419-12.408-9.4652v4.084z"/>
 <path fill="url(#radialGradient4456)" d="m34.932,17.405,64.178,70.905s19.051,10.39,21.717,5.6935c2.7627-4.8407-4.132-13.033-15.627-28.011-5.18-2.691-12.648-7.088-21.861-13.73-17.933-12.901-38.401-28.888-48.407-36.78v1.9219z"/>
 <path fill="url(#radialGradient4451)" d="m12.518,51.206c15.711,16.372,47.71,50.245,53.668,60.671,7.6875,5.2371,20.624,12.528,24.864,10.138,2.3062-1.2973,1.7057-8.3962-11.447-24.36-2.7387-1.7537-6.3422-4.0359-10.943-7.0268-13.236-8.557-38.533-27.944-53.319-39.427h-2.8227z"/>
 <path fill="url(#radialGradient4446)" d="m13.587,97.883c4.3723,4.9248,10.342,10.991,18.378,18.246,3.4474,3.111,13.129,9.0208,18.402,10.258,3.5915,0.67265,2.7507-3.6876-3.3272-11.303-4.3963-2.9789-8.3481-5.5974-14.366-9.9937-3.1471-2.3062-6.2701-4.7686-9.249-7.207h-9.8376z"/>
 <path fill="url(#radialGradient4441)" d="m10.945,99.661c2.8948,4.2762,6.3061,8.192,10.102,11.627,6.0058,5.4413,12.516,9.1889,13.958,8.4562,1.4174-0.74473-6.8226-9.1649-17.633-19.963-0.04805-0.036-0.08408-0.0841-0.13213-0.12011h-6.2941z"/>
 <path fill="url(#radialGradient4436)" d="m1.2633,51.194c-0.85283,4.2281-1.2973,8.6004-1.2612,13.081,0,0,15.147,14.666,26.774,27.243,6.9788,7.5554,14.63,16.408,19.663,23.183,3.4594,4.6605,8.3481,12.384,3.9278,11.687,6.8106,1.4894,13.946,1.8498,20.876,1.0931,3.9158-0.60059,2.6666-4.9008,0.62461-8.5283-3.652-6.47-11.615-17.13-24.456-31.529-12.156-13.621-25.741-27.495-34.473-36.227h-11.675z"/>
 <path fill="url(#radialGradient4431)" d="m103.57,22.174c1.6816,1.8138,3.3993,3.6756,5.105,5.5854,18.75,20.816,19.255,26.642,18.714,27.795,0.1081-0.21621,0.3123-0.73272,0.13212-1.9099-2.61-16.36-11.41-30.558-23.95-40.239v8.7685z"/>
 <path fill="url(#radialGradient4426)" d="m55.58,0.56455c-0.22822,0.036-0.45644,0.0601-0.68467,0.0961v11.856c7.159,7.195,17.105,17.309,25.669,26.39,10.847,11.519,29.705,33.032,36.96,45.26,3.7837,6.3782,3.7837,8.9727,3.3032,9.8376,3.1711-5.7056,5.8857-13.417,6.8707-20.888,0.57-4.302-6.85-14.752-17.62-27.929-10.779-13.153-42.526-44.972-42.526-44.972s-1.2132-0.21621-3.7356-0.21621c-1.9459,0-4.6605,0.12012-8.228,0.56455"/>
 <path fill="url(#radialGradient4421)" d="m25.563,12.865c-1.4654,1.1171-3.3152,2.6185-5.2611,4.4203-2.078,1.9339-3.8437,3.8558-5.165,5.4173v6.0659c7.8076,7.9157,30.786,31.218,41.861,43.002,11.327,12.036,23.675,27.783,30.185,37.537,6.3061,9.4412,4.7086,12.072,3.8678,12.708,6.0539-2.7627,12.264-6.9308,17.357-11.747,2.6666-2.5465,0.46846-7.8436-2.1501-12.144-4.9-8.05-15.389-22.777-32.758-41.034-21.261-22.33-36.948-38.498-42.522-44.227h-5.4173z"/>
 <path fill-rule="nonzero" fill="#939598" d="m498.38,79.866,20.468,0-6.138,21.285,16.816,0,16.648-57.716-16.828,0-6.138,21.273-20.456,0,6.138-21.273-16.828,0-16.636,57.716,16.828,0,6.126-21.285zm94.352-32.119c-4.5284-3.1711-10.27-4.3002-16.456-4.3122h-24.132l-16.636,57.716h26.354,0.6126c16,0,33.573-9.6214,37.116-33.152,0.27627-1.7417,0.4084-3.3753,0.4084-4.9608,0.0841-6.6184-2.6906-12.12-7.2671-15.291m-10.09,20.096c-2.5104,13.789-9.4052,17.753-19.735,18.078h-6.174l7.8677-27.339h8.4082c3.8918-0.012,6.5344,0.76875,7.8316,1.7537,1.2612,0.98495,1.9459,2.042,2.018,4.9248,0,0.74473-0.0721,1.6096-0.21621,2.5825m-112.37,51.53,114.72,0,4.0239-13.009-114.71,0-4.0359,13.009z"/>
</svg>
