<?xml version="1.0" encoding="UTF-8" standalone="no"?>
<!-- Created with Inkscape (http://www.inkscape.org/) -->
<svg xmlns:rdf="http://www.w3.org/1999/02/22-rdf-syntax-ns#" xmlns="http://www.w3.org/2000/svg" height="178.96" width="600" version="1.1" xmlns:cc="http://creativecommons.org/ns#" xmlns:xlink="http://www.w3.org/1999/xlink" xmlns:dc="http://purl.org/dc/elements/1.1/">
 <defs>
  <radialGradient id="radialGradient4421" gradientUnits="userSpaceOnUse" cy="0" cx="0" gradientTransform="matrix(138.26283,0,0,156.20688,76.39221,76.341559)" r="1">
   <stop stop-color="#f47a55" offset="0"/>
   <stop stop-color="#e31b23" offset="0.5"/>
   <stop stop-color="#770102" offset="1"/>
  </radialGradient>
  <radialGradient id="radialGradient4426" gradientUnits="userSpaceOnUse" cy="0" cx="0" gradientTransform="matrix(138.26404,0,0,157.2372,76.39221,76.341559)" r="1">
   <stop stop-color="#f47a55" offset="0"/>
   <stop stop-color="#e31b23" offset="0.5"/>
   <stop stop-color="#770102" offset="1"/>
  </radialGradient>
  <radialGradient id="radialGradient4431" gradientUnits="userSpaceOnUse" cy="0" cx="0" gradientTransform="matrix(138.26621,0,0,168.70264,76.390947,76.341559)" r="1">
   <stop stop-color="#f47a55" offset="0"/>
   <stop stop-color="#e31b23" offset="0.5"/>
   <stop stop-color="#770102" offset="1"/>
  </radialGradient>
  <radialGradient id="radialGradient4436" gradientUnits="userSpaceOnUse" cy="0" cx="0" gradientTransform="matrix(138.26356,0,0,158.2256,76.39363,76.340456)" r="1">
   <stop stop-color="#f47a55" offset="0"/>
   <stop stop-color="#e31b23" offset="0.5"/>
   <stop stop-color="#770102" offset="1"/>
  </radialGradient>
  <radialGradient id="radialGradient4441" gradientUnits="userSpaceOnUse" cy="0" cx="0" gradientTransform="matrix(138.26187,0,0,158.15962,76.39363,76.342821)" r="1">
   <stop stop-color="#f47a55" offset="0"/>
   <stop stop-color="#e31b23" offset="0.5"/>
   <stop stop-color="#770102" offset="1"/>
  </radialGradient>
  <radialGradient id="radialGradient4446" gradientUnits="userSpaceOnUse" cy="0" cx="0" gradientTransform="matrix(153.01647,0,0,153.01647,152.90202,101.84489)" r="1">
   <stop stop-color="#14b1e7" offset="0"/>
   <stop stop-color="#0079c1" offset="0.5"/>
   <stop stop-color="#003369" offset="1"/>
  </radialGradient>
  <radialGradient id="radialGradient4451" gradientUnits="userSpaceOnUse" cy="0" cx="0" gradientTransform="matrix(153.01503,0,0,153.01479,152.90202,101.84615)" r="1">
   <stop stop-color="#14b1e7" offset="0"/>
   <stop stop-color="#0079c1" offset="0.5"/>
   <stop stop-color="#003369" offset="1"/>
  </radialGradient>
  <radialGradient id="radialGradient4456" gradientUnits="userSpaceOnUse" cy="0" cx="0" gradientTransform="matrix(153.05068,0,0,153.05068,152.96516,101.84852)" r="1">
   <stop stop-color="#14b1e7" offset="0"/>
   <stop stop-color="#0079c1" offset="0.5"/>
   <stop stop-color="#003369" offset="1"/>
  </radialGradient>
  <radialGradient id="radialGradient4461" gradientUnits="userSpaceOnUse" cy="0" cx="0" gradientTransform="matrix(153.02105,0,0,153.02105,152.90202,101.84725)" r="1">
   <stop stop-color="#14b1e7" offset="0"/>
   <stop stop-color="#0079c1" offset="0.5"/>
   <stop stop-color="#003369" offset="1"/>
  </radialGradient>
 </defs>
 <metadata>
  <rdf:RDF>
   <cc:Work rdf:about="">
    <dc:format>image/svg+xml</dc:format>
    <dc:type rdf:resource="http://purl.org/dc/dcmitype/StillImage"/>
    <dc:title/>
   </cc:Work>
  </rdf:RDF>
 </metadata>
 <path fill-rule="nonzero" fill="#0079c1" d="m239.68,10.61-30.131,0,0,42.048,13.227,0,0-31.631,12.816,0c1.389-0.01577,1.8309,0.69448,1.8309,2.2413v29.389h13.243v-30.557c0-6.8343-2.9358-11.491-10.985-11.491m90.346,28.3-10.764-28.3-14.126,0,17.204,42.048,14.521,0,17.378-42.048-13.684,0-10.528,28.3zm-38.796-28.363-20.992,0c-8.0339,0-10.985,4.6562-10.985,11.491v19.13c0,6.8343,2.9516,11.491,10.985,11.491h20.992c8.0339,0,10.97-4.6562,10.97-11.491v-9.0125-10.117c0-6.8344-2.9358-11.491-10.97-11.491m-2.2571,20.503,0,8.9336c0,1.5626-0.44195,2.2571-1.8309,2.2571h-12.816c-1.4048,0-1.8309-0.69448-1.8309-2.2571v-7.8287h0.0158v-8.9494c0-1.5468,0.42616-2.2413,1.8151-2.2413h12.816c1.389,0,1.8309,0.69449,1.8309,2.2413v7.8445zm95.87-20.424-25.222,0-2.0361,11.08c2.3676-1.0102,5.0824-1.1364,12.169-1.1364h10.907c1.4837,0,1.9098,0.6787,1.9098,2.2413v3.5513h-17.11c-8.1286,0-11.064,4.672-11.064,11.333v3.4724c0,6.8186,3.0305,11.491,11.064,11.491h30.431v-30.636c0-6.7396-2.9358-11.396-11.049-11.396m-2.2728,32.167-13.432,0c-1.4679,0-1.9887-0.7734-1.9887-2.4149v-2.4149c0-1.4521,0.52087-2.3202,2.0834-2.3202h13.337v7.15z"/>
 <path fill-rule="nonzero" fill="#004b8d" d="m515.99,83.55c-4.3405,0-7.5446,0.93124-9.5965,2.7779s-3.3304,4.1669-3.8354,6.9606l-9.7543,53.886h-26.027l10.938-60.846c2.2886-9.8333,7.229-15.279,12.927-18.435,5.6821-3.141,12.737-4.7351,21.166-4.7351h25.822l-4.0248,20.393h-17.615z"/>
 <path fill-rule="nonzero" fill="#004b8d" d="m569.33,126.7,19.161,0-3.7092,20.471-21.576,0c-11.459,0-19.24-2.3202-23.328-6.9448-4.0722-4.6404-5.4454-10.654-4.1038-18.009l14.111-76.693,26.327-3.3619-3.8039,21.008h27.59l-3.7881,20.314h-27.59l-6.3293,35.592c-0.75762,4.6562,1.5626,7.6235,7.0395,7.6235"/>
 <path fill-rule="nonzero" fill="#004b8d" d="m459.97,70.116c-4.088-4.6404-11.854-6.9448-23.328-6.9448h-18.719c-8.4285,0-15.484,1.5784-21.166,4.7351-5.6979,3.1567-10.638,8.5863-12.927,18.42l-6.4713,35.892c-1.3416,7.3552,0.0315,13.369,4.1038,18.009,4.088,4.6246,11.854,6.9448,23.328,6.9448h18.735c8.4285,0,15.484-1.5784,21.15-4.7351,5.6979-3.1567,10.638-8.5863,12.927-18.435l6.4871-35.876c1.3258-7.3552-0.0473-13.369-4.1195-18.009m-22.334,21.055-4.814,25.775c-0.50509,2.7937-1.7836,5.1139-3.8355,6.9764-2.0519,1.8467-5.256,2.7622-9.5965,2.7622l-8.4758,0.0158c-5.477,0-7.7972-2.9673-7.0553-7.6235l4.814-25.775c0.50509-2.8095,1.7836-5.1297,3.8355-6.9764s5.256-2.7779,9.5965-2.7779l8.4758-0.01577c5.4769,0,7.8129,2.9673,7.0553,7.6393"/>
 <path fill-rule="nonzero" fill="#004b8d" d="m366.21,70.116c-4.088-4.6404-11.854-6.9448-23.328-6.9448h-18.719c-8.4285,0-15.484,1.5784-21.166,4.7351-5.6979,3.1567-10.638,8.5863-12.927,18.42l-16.873,92.635h26.027l6.5502-36.145,0.14206-0.0158c2.7937,2.557,7.4657,4.3721,15.484,4.3721h8.3654c8.4285,0,15.484-1.5784,21.15-4.7351,5.6979-3.1567,10.638-8.5863,12.927-18.435l6.4871-35.876c1.3258-7.3552-0.0473-13.369-4.1195-18.009m-22.334,21.055-4.814,25.775c-0.50508,2.7937-1.7836,5.1139-3.8354,6.9764-2.0519,1.8467-5.256,2.7622-9.5965,2.7622l-8.4758,0.0158c-5.477,0-7.7972-2.9673-7.0553-7.6235l4.814-25.775c0.50509-2.8095,1.7836-5.1297,3.8355-6.9764s5.256-2.7779,9.5965-2.7779l8.4759-0.01577c5.4769,0,7.8129,2.9673,7.0553,7.6393"/>
 <path fill-rule="nonzero" fill="#004b8d" d="m200.42,129.32,38.37,0c9.3282,0,10.97-9.6438,3.646-12.422-7.8287-2.9516-13.337-4.9719-22.571-8.4916-10.78-4.088-15.894-14.805-13.053-25.396,2.7464-10.228,13.653-19.84,28.395-19.84h46.941l-3.6618,17.362h-35.671c-8.097,0-9.5491,7.8919-3.5513,10.023,6.8343,2.4465,13.621,4.9087,23.802,8.6337,10.149,3.6934,14.395,16.51,11.948,26.548-2.6832,11.033-12.895,21.434-27.385,21.434h-50.271l3.062-17.851z"/>
 <path fill="url(#radialGradient4461)" d="m107.74,20.298c13.827,14.758,32.199,34.756,44.368,49.514,3.4408,1.6099,8.7126,3.8828,11.554,4.2932,2.3044,0.33146,3.2672-0.20518,3.725-1.1048,0.23674-0.42617,0.26831-1.4205,0.0947-2.1624-1.752-7.1658-9.2493-18.072-17.299-26.864-8-3.157-23-14.237-26.12-16.605-4.4036-3.3146-10.449-7.9392-16.305-12.438v5.3665z"/>
 <path fill="url(#radialGradient4456)" d="m45.902,22.871,84.332,93.171s25.033,13.653,28.537,7.4815c3.6303-6.3608-5.4296-17.125-20.535-36.808-6.8028-3.5356-16.62-9.3124-28.726-18.041-23.565-16.948-50.46-37.956-63.608-48.326v2.5254z"/>
 <path fill="url(#radialGradient4451)" d="m16.449,67.286c20.645,21.513,62.693,66.023,70.522,79.724,10.102,6.8817,27.101,16.462,32.672,13.321,3.0305-1.7046,2.2413-11.033-15.042-32.009-3.5987-2.3044-8.3338-5.3033-14.379-9.2335-17.392-11.24-50.633-36.715-70.063-51.804h-3.7092z"/>
 <path fill="url(#radialGradient4446)" d="m17.854,128.62c5.7453,6.4713,13.59,14.442,24.149,23.975,4.5299,4.088,17.252,11.854,24.181,13.479,4.7193,0.88388,3.6145-4.8456-4.3721-14.852-5.7768-3.9144-10.97-7.3552-18.877-13.132-4.1353-3.0305-8.2391-6.2661-12.153-9.4702h-12.927z"/>
 <path fill="url(#radialGradient4441)" d="m14.382,130.96c3.8039,5.619,8.2865,10.764,13.274,15.279,7.8919,7.15,16.447,12.075,18.341,11.112,1.8625-0.9786-8.9651-12.043-23.17-26.233-0.06314-0.0473-0.11048-0.11051-0.17362-0.15783h-8.2707z"/>
 <path fill="url(#radialGradient4436)" d="M1.66,67.27c-1.1207,5.556-1.7047,11.301-1.6573,17.189,0,0,19.903,19.272,35.182,35.797,9.1703,9.9279,19.225,21.561,25.838,30.463,4.5457,6.1241,10.97,16.273,5.1613,15.358,8.9494,1.9572,18.325,2.4307,27.432,1.4363,5.1455-0.78919,3.504-6.4398,0.82075-11.206-4.7982-8.5074-15.263-22.508-32.136-41.432-15.973-17.905-33.825-36.135-45.299-47.61h-15.342z"/>
 <path fill="url(#radialGradient4431)" d="m136.09,29.137c2.2097,2.3833,4.4668,4.8298,6.7081,7.3394,24.638,27.353,25.301,35.008,24.591,36.524,0.14204-0.28411,0.41037-0.96282,0.1736-2.5096-3.42-21.497-14.99-40.154-31.47-52.875v11.522z"/>
 <path fill="url(#radialGradient4426)" d="m73.034,0.74184c-0.29989,0.04731-0.59978,0.07897-0.89967,0.12628v15.579c9.4071,9.4544,22.476,22.744,33.73,34.677,14.253,15.137,39.033,43.405,48.566,59.473,4.9719,8.3812,4.9719,11.79,4.3405,12.927,4.1669-7.4973,7.734-17.63,9.0283-27.448,0.74183-5.6506-9.0125-19.382-23.17-36.697-14.16-17.29-55.876-59.101-55.876-59.101s-1.594-0.28411-4.908-0.28411c-2.557,0-6.124,0.15784-10.812,0.74184"/>
 <path fill="url(#radialGradient4421)" d="m33.59,16.904c-1.9256,1.4679-4.3563,3.4408-6.9133,5.8084-2.7306,2.5412-5.0508,5.0666-6.787,7.1184v7.9708c10.259,10.401,40.454,41.022,55.006,56.506,14.884,15.815,31.11,36.508,39.664,49.324,8.2864,12.406,6.1872,15.863,5.0824,16.699,7.955-3.6302,16.115-9.1072,22.807-15.436,3.504-3.3461,0.61557-10.307-2.8253-15.957-6.43-10.57-20.21-29.919-43.037-53.91-27.937-29.342-48.55-50.587-55.874-58.116h-7.1185z"/>
</svg>
