<?xml version="1.0" encoding="UTF-8" standalone="no"?>
<!-- Created with Inkscape (http://www.inkscape.org/) -->

<svg
   xmlns:dc="http://purl.org/dc/elements/1.1/"
   xmlns:cc="http://creativecommons.org/ns#"
   xmlns:rdf="http://www.w3.org/1999/02/22-rdf-syntax-ns#"
   xmlns:svg="http://www.w3.org/2000/svg"
   xmlns="http://www.w3.org/2000/svg"
   version="1.1"
   width="600"
   height="189.67978"
   id="svg19456">
  <defs
     id="defs19458">
    <clipPath
       id="clipPath7984">
      <path
         d="m 56.35,411.944 73.243,0 0,25.375 -73.243,0 0,-25.375 z"
         id="path7986" />
    </clipPath>
  </defs>
  <metadata
     id="metadata19461">
    <rdf:RDF>
      <cc:Work
         rdf:about="">
        <dc:format>image/svg+xml</dc:format>
        <dc:type
           rdf:resource="http://purl.org/dc/dcmitype/StillImage" />
        <dc:title></dc:title>
      </cc:Work>
    </rdf:RDF>
  </metadata>
  <g
     transform="translate(-49.999998,-437.52228)"
     id="layer1">
    <g
       transform="matrix(8.9959608,0,0,-8.9959608,-485.94966,4351.9157)"
       id="g7980">
      <g
         clip-path="url(#clipPath7984)"
         id="g7982">
        <g
           transform="translate(73.2657,417.3553)"
           id="g7988">
          <path
             d="m 0,0 -4.413,0 c 0.005,0 0.005,9.778 0.003,9.778 0.002,0.518 -0.143,0.746 -0.608,0.746 l -4.264,0 c 0.004,0 0.004,-10.524 0,-10.524 l -4.398,0 c -0.003,0 -0.003,13.994 -0.009,13.994 l 10.041,0 c 2.667,0 3.644,-1.552 3.646,-3.823 C -0.004,10.171 -0.004,0 0,0"
             id="path7990"
             style="fill:#254991;fill-opacity:1;fill-rule:evenodd;stroke:none" />
        </g>
        <g
           transform="translate(101.7932,417.3553)"
           id="g7992">
          <path
             d="m 0,0 c 0.001,0 -5.724,13.994 -5.73,13.994 l 4.714,0 c -0.006,0 3.575,-9.42 3.575,-9.42 0,0 3.503,9.42 3.51,9.42 l 4.544,0 C 10.612,13.994 4.83,0 4.828,0 L 0,0 z"
             id="path7994"
             style="fill:#254991;fill-opacity:1;fill-rule:evenodd;stroke:none" />
        </g>
        <g
           transform="translate(121.8323,426.1046)"
           id="g7996">
          <path
             d="M 0,0 C 0.004,0 0.004,1.182 0.005,1.182 0.004,1.7 -0.139,1.929 -0.633,1.929 l -3.623,0 c -2.361,0 -3.265,-0.045 -4.05,-0.379 -0.005,0 0.672,3.688 0.669,3.688 l 8.39,0 c 2.708,0 3.684,-1.553 3.683,-3.795 0.001,0 0.001,-10.192 0.005,-10.192 l -10.134,0 c -2.673,0 -3.679,1.552 -3.674,3.824 -0.005,0 -0.005,1.16 -0.008,1.16 C -9.372,-1.552 -8.395,0 -5.69,0 L 0,0 z m -5.126,-3.863 c 0,0 0,-0.798 0,-0.798 0,-0.547 0.173,-0.805 0.661,-0.805 l 4.468,0 c 0.001,0 0.001,2.379 0.003,2.379 l -4.443,0 c -0.516,0 -0.689,-0.286 -0.689,-0.776"
             id="path7998"
             style="fill:#254991;fill-opacity:1;fill-rule:evenodd;stroke:none" />
        </g>
        <g
           transform="translate(86.2763,435.0744)"
           id="g8000">
          <path
             d="M 0,0 C -0.004,0 3.921,-3.021 4.376,-3.374 4.833,-3.727 7.415,-5.616 8.12,-5.581 8.828,-5.546 9.417,-7.759 9.418,-7.759 9.372,-7.66 9.802,-8.637 9.812,-8.851 9.823,-9.111 9.767,-9.296 9.32,-9.243 8.851,-9.187 7.745,-8.607 7.554,-8.536 7.369,-8.466 -0.004,0 0,0"
             id="path8002"
             style="fill:#254991;fill-opacity:1;fill-rule:evenodd;stroke:none" />
        </g>
        <g
           transform="translate(90.7154,421.0216)"
           id="g8004">
          <path
             d="m 0,0 c -0.001,0 2.393,-1.545 3.703,-1.654 0.34,-0.028 0.58,0.153 0.627,0.492 C 4.428,-0.554 3.653,2.49 3.654,2.49 3.653,2.49 2.199,2.561 -1.879,5.504 -5.95,8.448 -10.805,12.35 -10.808,12.35 -10.805,12.35 -0.001,0 0,0"
             id="path8006"
             style="fill:#254991;fill-opacity:1;fill-rule:evenodd;stroke:none" />
        </g>
        <g
           transform="translate(75.7996,428.1868)"
           id="g8008">
          <path
             d="m 0,0 c -0.004,0 7.448,-5.911 10.627,-7.978 2.372,-1.536 3.102,-1.969 3.102,-1.969 0,0 0.909,-2.665 0.716,-3.027 -0.147,-0.256 -0.345,-0.261 -0.593,-0.237 -1.272,0.126 -3.769,1.738 -4.471,2.372 C 8.691,-10.204 -0.004,0 0,0"
             id="path8010"
             style="fill:#254991;fill-opacity:1;fill-rule:evenodd;stroke:none" />
        </g>
        <g
           transform="translate(75.6343,421.6274)"
           id="g8012">
          <path
             d="m 0,0 c 0.003,0 3.766,-2.978 4.901,-3.799 1.286,-0.938 3.432,-2.372 3.428,-2.372 0.004,0 -0.222,-0.974 -0.284,-1.078 C 7.932,-7.415 7.754,-7.298 7.191,-7.091 6.577,-6.864 5.32,-6.131 4.78,-5.616 1.629,-2.6 0.003,0 0,0"
             id="path8014"
             style="fill:#254991;fill-opacity:1;fill-rule:evenodd;stroke:none" />
        </g>
        <g
           transform="translate(89.1963,434.4965)"
           id="g8016">
          <path
             d="m 0,0 c -0.001,0 1.871,-1.831 3.797,-3.936 2.323,-2.536 3.04,-4.103 3.044,-4.103 -0.004,0 -0.36,2.673 -2.192,4.8 C 2.899,-1.21 1.391,-0.449 0,0"
             id="path8018"
             style="fill:#d42b3f;fill-opacity:1;fill-rule:evenodd;stroke:none" />
        </g>
        <g
           transform="translate(82.6057,434.6501)"
           id="g8020">
          <path
             d="m 0,0 c -0.006,0 0.744,0.253 1.673,0.377 1.45,0.195 1.994,0.047 1.994,0.047 0,0 5.184,-5.218 6.947,-7.384 1.77,-2.167 2.921,-3.825 2.892,-4.39 -0.018,-0.565 -0.437,-2.421 -1.081,-3.58 0.004,0 0.007,0.698 -0.58,1.555 C 9.78,-10.399 8.028,-8.317 5.786,-5.926 3.247,-3.232 -0.006,0 0,0"
             id="path8022"
             style="fill:#d42b3f;fill-opacity:1;fill-rule:evenodd;stroke:none" />
        </g>
        <g
           transform="translate(77.2126,430.8333)"
           id="g8024">
          <path
             d="m 0,0 c 0.006,0 0.508,0.719 1.292,1.451 0.777,0.731 1.406,1.088 1.404,1.088 0.002,0 2.924,-3.01 7.317,-7.643 3.757,-3.96 5.57,-6.905 5.851,-7.675 0.343,-0.956 0.147,-0.882 -1.272,-1.995 -1.004,-0.794 -1.7,-1.005 -1.701,-1.005 10e-4,0 0.187,0.139 0.087,0.729 -0.152,0.851 -3.087,4.775 -5.67,7.532 C 5.097,-5.159 0.006,0 0,0"
             id="path8026"
             style="fill:#d42b3f;fill-opacity:1;fill-rule:evenodd;stroke:none" />
        </g>
        <g
           transform="translate(75.7852,428.1929)"
           id="g8028">
          <path
             d="m 0,0 c 0.005,0 3.902,-3.788 7.157,-7.455 3.242,-3.641 4.596,-5.829 4.377,-6.297 -0.155,-0.348 -0.244,-0.241 -1.448,-0.384 -0.696,-0.083 -2.349,0.23 -2.343,0.23 -0.006,0 0.173,0.064 0.181,0.318 0.036,0.656 -2.213,3.36 -4.15,5.459 -1.903,2.069 -4.388,4.484 -4.388,4.484 0,0 -0.035,0.809 0.122,1.701 C -0.33,-1.054 0.005,0 0,0"
             id="path8030"
             style="fill:#d42b3f;fill-opacity:1;fill-rule:evenodd;stroke:none" />
        </g>
        <g
           transform="translate(75.6393,421.6274)"
           id="g8032">
          <path
             d="M 0,0 C -0.002,0 1.487,-1.92 2.38,-2.926 3.276,-3.931 5.506,-6.087 5.275,-6.211 5.038,-6.332 3.556,-5.535 2.496,-4.329 0.303,-1.829 -0.002,0 0,0"
             id="path8034"
             style="fill:#d42b3f;fill-opacity:1;fill-rule:evenodd;stroke:none" />
        </g>
      </g>
    </g>
  </g>
</svg>
