<?xml version="1.0" encoding="UTF-8" standalone="no"?>
<!-- Created with Inkscape (http://www.inkscape.org/) -->

<svg
   xmlns:dc="http://purl.org/dc/elements/1.1/"
   xmlns:cc="http://creativecommons.org/ns#"
   xmlns:rdf="http://www.w3.org/1999/02/22-rdf-syntax-ns#"
   xmlns:svg="http://www.w3.org/2000/svg"
   xmlns="http://www.w3.org/2000/svg"
   version="1.1"
   width="383.02249"
   height="187.99504"
   id="svg2">
  <defs
     id="defs4">
    <clipPath
       id="clipPath2999">
      <path
         d="m 0,124.725 187.086,0 L 187.086,0 0,0 0,124.725 z"
         id="path3001" />
    </clipPath>
    <clipPath
       id="clipPath3046">
      <path
         d="m 0,124.725 187.086,0 L 187.086,0 0,0 0,124.725 z"
         id="path3048" />
    </clipPath>
    <clipPath
       id="clipPath3093">
      <path
         d="m 0,124.725 187.086,0 L 187.086,0 0,0 0,124.725 z"
         id="path3095" />
    </clipPath>
  </defs>
  <metadata
     id="metadata7">
    <rdf:RDF>
      <cc:Work
         rdf:about="">
        <dc:format>image/svg+xml</dc:format>
        <dc:type
           rdf:resource="http://purl.org/dc/dcmitype/StillImage" />
        <dc:title></dc:title>
      </cc:Work>
    </rdf:RDF>
  </metadata>
  <g
     transform="matrix(2.148273,0,0,-2.148273,107.77714,29.638538)"
     id="g3097">
    <path
       d="M 0,0 -2.542,2.536 C -5.06,5.06 -8.093,5.104 -10.921,2.274 l -2.014,-2.016 c -2.831,-2.829 -2.784,-5.857 -0.266,-8.38 l 2.542,-2.535 c 2.52,-2.53 5.552,-2.573 8.38,0.256 l 2.013,2.018 C 2.566,-5.554 2.521,-2.524 0,0 m -12.734,-12.734 -2.545,2.534 c -2.52,2.523 -5.549,2.57 -8.377,-0.262 l -2.016,-2.017 c -2.83,-2.827 -2.786,-5.853 -0.265,-8.379 l 8.153,-8.149 c 0.942,-0.937 2.002,-0.8 2.725,-0.077 0.724,0.724 0.846,1.765 -0.093,2.708 l -1.876,1.871 c 0.51,0.108 1.138,0.497 1.877,1.234 l 2.151,2.155 c 2.834,2.828 2.785,5.855 0.266,8.382 m -10.107,-15.828 -5.4,5.397 c -2.523,2.523 -5.549,2.57 -8.381,-0.26 l -2.016,-2.013 c -2.83,-2.83 -2.785,-5.86 -0.261,-8.383 l 5.396,-5.403 c 0.944,-0.94 2,-0.799 2.725,-0.08 0.721,0.727 0.846,1.776 -0.097,2.711 l -5.35,5.356 c -1.014,1.011 -0.983,1.966 0.157,3.104 l 2.138,2.137 c 1.136,1.14 2.093,1.173 3.106,0.155 l 5.351,-5.349 c 0.937,-0.943 1.985,-0.817 2.708,-0.095 0.725,0.725 0.864,1.782 -0.076,2.723 m 55.115,-6.806 -33.491,-33.488 c -3.371,-3.373 -7.239,-3.373 -10.608,0 l -33.487,33.486 c -3.373,3.372 -3.373,7.237 0,10.609 l 33.488,33.485 c 3.373,3.375 7.237,3.375 10.607,0 l 33.488,-33.485 c 3.374,-3.369 3.374,-7.236 0.003,-10.607 m -37.395,35.23 c -1.018,1.015 -1.971,0.985 -3.108,-0.156 l -2.139,-2.139 c -1.136,-1.135 -1.169,-2.091 -0.151,-3.103 l 2.443,-2.447 c 1.016,-1.018 1.967,-0.987 3.108,0.154 l 2.138,2.139 c 1.134,1.134 1.167,2.093 0.153,3.104 l -2.444,2.448 z m -10.291,-15.184 c 1.014,-1.013 0.982,-1.97 -0.156,-3.104 l -2.137,-2.139 c -1.142,-1.139 -2.089,-1.17 -3.106,-0.153 l -2.446,2.447 c -1.015,1.012 -0.986,1.968 0.151,3.104 l 2.136,2.139 c 1.143,1.14 2.095,1.168 3.112,0.154 l 2.446,-2.448 z"
       id="path3099"
       style="fill:#e4e4e5;fill-opacity:1;fill-rule:nonzero;stroke:none" />
  </g>
  <path
     d="m 74.667738,62.554806 -5.254676,-5.258972 c -2.184793,-2.178349 -4.229949,-2.120346 -6.685425,0.330834 l -4.588711,4.595156 c -2.442587,2.43829 -2.504887,4.494187 -0.32439,6.666091 l 5.254676,5.258972 c 2.184794,2.184794 4.219208,2.118197 6.672536,-0.328686 l 4.590859,-4.595156 c 2.444735,-2.436141 2.51348,-4.492038 0.335131,-6.668239 m 5.753075,-5.559731 c 5.4115,5.426538 5.516765,11.931509 -0.571441,18.006825 l -4.620935,4.629528 c -1.587573,1.583277 -2.936689,2.418955 -4.032308,2.650969 l 4.03016,4.019419 c 2.017228,2.025821 1.755139,4.262173 0.201938,5.817523 -1.55535,1.551053 -3.832519,1.847515 -5.856193,-0.165417 L 52.057165,74.447645 c -5.415797,-5.426537 -5.510321,-11.92936 0.569292,-18.002527 l 4.330918,-4.330919 C 63.032691,46.03029 69.53981,46.129111 74.953458,51.551352 l 5.467355,5.443723 z M 102.02599,35.194401 96.775615,29.93328 c -2.186941,-2.178348 -4.234246,-2.1139 -6.676832,0.337279 l -4.595156,4.593008 c -2.440438,2.440438 -2.511331,4.494187 -0.322241,6.668239 l 5.246083,5.256824 c 2.184793,2.186942 4.225653,2.118198 6.676832,-0.330834 l 4.593009,-4.595156 c 2.43614,-2.438289 2.50703,-4.498483 0.32868,-6.668239 m 5.75093,-5.555434 c 5.4158,5.422241 5.51462,11.92936 -0.57144,18.008973 l -4.32447,4.335215 c -6.075319,6.077464 -12.588882,5.98294 -18.00253,0.549957 L 79.41757,47.08724 C 74.008218,41.664999 73.907249,35.162177 79.991158,29.084713 l 4.324474,-4.333067 c 6.075316,-6.079613 12.593176,-5.98294 18.000378,-0.560699 l 5.46091,5.44802 z M 58.708218,90.995792 c 2.019377,2.023673 1.722915,4.29225 0.163269,5.851896 -1.553202,1.551053 -3.804592,1.821735 -5.817524,-0.204086 L 41.558555,85.15249 c -2.176201,-2.186942 -4.232098,-2.116049 -6.672536,0.332982 l -4.593008,4.590859 c -2.449031,2.442587 -2.515628,4.494188 -0.337279,6.66824 l 11.493261,11.506149 c 2.025821,2.00864 1.757287,4.26217 0.208382,5.82182 -1.557498,1.54676 -3.823926,1.84966 -5.854044,-0.17186 L 24.21125,102.29571 C 18.789009,96.875615 18.692337,90.3642 24.771949,84.284587 l 4.333067,-4.322325 c 6.083909,-6.081761 12.582435,-5.980792 18.002528,-0.558551 l 11.600674,11.592081 z"
     id="path3103"
     style="fill:#00c725;fill-opacity:1;fill-rule:nonzero;stroke:none" />
  <path
     d="m 97.89594,82.830207 c -7.241828,7.241828 -7.241828,15.544903 0,22.786733 l 71.93922,71.94351 c 7.24612,7.24613 15.5492,7.24613 22.79747,0 l 71.93922,-71.94351 c 7.24183,-7.24183 7.23323,-15.549201 0,-22.786733 L 192.63263,10.895286 c -7.24827,-7.2482735 -15.55135,-7.2482735 -22.79103,0 L 97.89594,82.830207 z"
     id="path3107"
     style="fill:#00c725;fill-opacity:1;fill-rule:nonzero;stroke:none" />
  <g
     transform="matrix(2.148273,0,0,-2.148273,222.39502,60.736078)"
     id="g3109">
    <path
       d="m 0,0 c 0,2.697 -1.787,4.877 -5.273,4.876 l -27.909,10e-4 c -3.398,0 -5.14,-2.134 -5.141,-4.748 10e-4,-2.613 1.743,-4.746 5.139,-4.746 l 21.643,0 c 0.742,-0.001 1.174,-0.391 1.176,-1.262 l -0.002,-3.702 c 0,-0.871 -0.432,-1.261 -1.174,-1.263 l -21.643,0.002 c -3.398,-10e-4 -5.138,-2.137 -5.137,-4.748 -0.001,-2.615 1.741,-4.748 5.139,-4.748 l 21.641,0 c 0.74,0.001 1.176,-0.391 1.176,-1.262 l 0,-3.701 c 0,-0.871 -0.436,-1.263 -1.176,-1.263 l -21.641,0 c -3.4,0 -5.14,-2.134 -5.14,-4.746 0,-2.613 1.742,-4.745 5.138,-4.745 l 27.913,0 c 3.484,0 5.271,2.174 5.269,4.877 L 0,0 z"
       id="path3111"
       style="fill:#ffffff;fill-opacity:1;fill-rule:nonzero;stroke:none" />
  </g>
  <g
     transform="translate(-965.85716,-362.74204)"
     id="g14"
     style="fill:#00c725;fill-opacity:1">
    <path
       d="m 1221.6582,367.74204 18.223,0 -1.4417,20.63665 19.9126,0 1.4417,-20.63665 18.3034,0 -4.12,58.97335 -18.3034,0 1.6665,-23.85484 -19.9126,0 -1.6665,23.85484 -18.223,0 z"
       id="path16"
       style="fill:#00c725;fill-opacity:1;stroke:none" />
    <path
       d="m 1291.5399,367.74204 27.073,0 c 5.3368,6e-5 9.5973,0.72415 12.7814,2.17228 3.184,1.44824 5.7542,3.52665 7.7104,6.23524 1.9563,2.70869 3.2915,5.85984 4.006,9.45344 0.7143,3.59368 0.931,7.40187 0.6499,11.42458 -0.4402,6.30231 -1.4991,11.18994 -3.1764,14.66288 -1.6776,3.47298 -3.872,6.38276 -6.5837,8.72935 -2.7118,2.3466 -5.5562,3.90876 -8.5338,4.68649 -4.0708,1.07273 -7.7288,1.60909 -10.9738,1.60909 l -27.073,0 z m 17.29,13.35549 -2.2512,32.22214 4.4652,0 c 3.8082,2e-5 6.5463,-0.42237 8.2146,-1.26716 1.668,-0.84476 3.0315,-2.31976 4.0905,-4.42501 1.0588,-2.10522 1.7531,-5.51784 2.083,-10.23787 0.4364,-6.24862 -0.2839,-10.52613 -2.1608,-12.83254 -1.8771,-2.30633 -5.1756,-3.45951 -9.8956,-3.45956 z"
       id="path18"
       style="fill:#00c725;fill-opacity:1;stroke:none" />
  </g>
</svg>
