<?xml version="1.0" encoding="UTF-8" standalone="no"?>
<!-- Created with Inkscape (http://www.inkscape.org/) -->

<svg
   xmlns:dc="http://purl.org/dc/elements/1.1/"
   xmlns:cc="http://creativecommons.org/ns#"
   xmlns:rdf="http://www.w3.org/1999/02/22-rdf-syntax-ns#"
   xmlns:svg="http://www.w3.org/2000/svg"
   xmlns="http://www.w3.org/2000/svg"
   version="1.1"
   width="600"
   height="317.40753"
   id="svg130263">
  <defs
     id="defs130265">
    <clipPath
       id="clipPath123951">
      <path
         d="m 47.084,208.164 16.317,0 0,8.541 -16.317,0 0,-8.541 z"
         id="path123953" />
    </clipPath>
  </defs>
  <metadata
     id="metadata130268">
    <rdf:RDF>
      <cc:Work
         rdf:about="">
        <dc:format>image/svg+xml</dc:format>
        <dc:type
           rdf:resource="http://purl.org/dc/dcmitype/StillImage" />
        <dc:title></dc:title>
      </cc:Work>
    </rdf:RDF>
  </metadata>
  <g
     transform="translate(22.857121,-236.5156)"
     id="layer1">
    <g
       transform="matrix(43.403726,0,0,-43.403726,-2066.5259,9642.294)"
       id="g123947">
      <g
         clip-path="url(#clipPath123951)"
         id="g123949">
        <g
           transform="translate(51.340897,210.21049)"
           id="g123955">
          <path
             d="m 0,0 c -0.219,-0.522 -0.636,-0.819 -1.438,-0.819 -0.809,0 -1.214,0.314 -1.071,0.987 0.141,0.661 0.706,0.988 1.491,0.988 0.681,0 1.123,-0.205 1.063,-0.785 l -0.734,0 c 0.008,0.199 -0.116,0.313 -0.419,0.313 -0.334,0 -0.575,-0.185 -0.646,-0.516 -0.07,-0.33 0.086,-0.515 0.43,-0.515 0.269,0 0.473,0.115 0.569,0.347 L 0,0 z"
             id="path123957"
             style="fill:#151922;fill-opacity:1;fill-rule:nonzero;stroke:none" />
        </g>
        <g
           transform="translate(59.138596,210.21049)"
           id="g123959">
          <path
             d="m 0,0 c -0.219,-0.522 -0.636,-0.819 -1.438,-0.819 -0.809,0 -1.214,0.314 -1.07,0.987 0.14,0.661 0.705,0.988 1.491,0.988 0.68,0 1.122,-0.205 1.063,-0.785 l -0.736,0 c 0.009,0.199 -0.114,0.313 -0.418,0.313 -0.334,0 -0.575,-0.185 -0.646,-0.516 -0.07,-0.33 0.086,-0.515 0.43,-0.515 0.269,0 0.472,0.115 0.569,0.347 L 0,0 z"
             id="path123961"
             style="fill:#151922;fill-opacity:1;fill-rule:nonzero;stroke:none" />
        </g>
        <g
           transform="translate(51.845596,211.93291)"
           id="g123963">
          <path
             d="m 0,0 -0.525,-2.468 0.714,0 L 0.714,0 0,0 z"
             id="path123965"
             style="fill:#151922;fill-opacity:1;fill-rule:nonzero;stroke:none" />
        </g>
        <g
           transform="translate(53.1884,211.3392)"
           id="g123967">
          <path
             d="m 0,0 c -0.186,0 -0.35,-0.037 -0.49,-0.095 l -0.099,-0.469 c 0.052,0.015 0.107,0.025 0.164,0.025 0.239,0 0.346,-0.114 0.297,-0.347 l -0.21,-0.988 0.714,0 0.256,1.204 C 0.729,-0.215 0.448,0 0,0"
             id="path123969"
             style="fill:#151922;fill-opacity:1;fill-rule:nonzero;stroke:none" />
        </g>
        <g
           transform="translate(55.528305,211.36169)"
           id="g123971">
          <path
             d="M 0,0 -0.102,-0.481 C 0.137,-0.522 0.253,-0.687 0.191,-0.983 0.128,-1.277 -0.058,-1.442 -0.312,-1.484 l -0.102,-0.479 c 0.748,0.036 1.23,0.369 1.36,0.98 C 1.076,-0.37 0.737,-0.034 0,0"
             id="path123973"
             style="fill:#151922;fill-opacity:1;fill-rule:nonzero;stroke:none" />
        </g>
        <g
           transform="translate(54.667007,210.37891)"
           id="g123975">
          <path
             d="M 0,0 C 0.06,0.282 0.233,0.446 0.471,0.497 L 0.573,0.978 C -0.157,0.934 -0.626,0.602 -0.755,0 -0.883,-0.604 -0.556,-0.94 0.16,-0.982 l 0.102,0.485 C 0.044,-0.447 -0.06,-0.283 0,0"
             id="path123977"
             style="fill:#151922;fill-opacity:1;fill-rule:nonzero;stroke:none" />
        </g>
        <g
           transform="translate(55.117599,215.0282)"
           id="g123979">
          <path
             d="m 0,0 c -0.026,0.17 -0.148,0.51 -0.744,0.51 -0.675,0 -0.891,-0.655 -0.891,-1.284 0,-0.629 0.216,-1.284 0.891,-1.284 0.485,0 0.674,0.193 0.76,0.632 l 1.415,0 c 0,-0.943 -0.766,-1.798 -2.136,-1.798 -1.513,0 -2.372,1.068 -2.372,2.45 0,1.474 0.93,2.45 2.372,2.45 C 0.579,1.67 1.278,1.173 1.402,0 L 0,0 z"
             id="path123981"
             style="fill:#f47216;fill-opacity:1;fill-rule:nonzero;stroke:none" />
        </g>
        <g
           transform="translate(49.4561,212.97009)"
           id="g123983">
          <path
             d="M 0,0 C 0.367,0 0.93,0.243 0.93,1.284 0.93,2.326 0.367,2.568 0,2.568 -0.367,2.568 -0.931,2.326 -0.931,1.284 -0.931,0.243 -0.367,0 0,0 m 0,3.734 c 1.422,0 2.372,-1.022 2.372,-2.45 0,-1.428 -0.95,-2.45 -2.372,-2.45 -1.422,0 -2.371,1.022 -2.371,2.45 0,1.428 0.949,2.45 2.371,2.45"
             id="path123985"
             style="fill:#f47216;fill-opacity:1;fill-rule:nonzero;stroke:none" />
        </g>
        <g
           transform="translate(58.130798,213.6024)"
           id="g123987">
          <path
             d="m 0,0 c 0,-0.118 0.019,-0.337 0.052,-0.423 0.105,-0.281 0.419,-0.34 0.688,-0.34 0.236,0 0.596,0.078 0.596,0.426 0,0.242 -0.203,0.308 -1.009,0.537 -0.74,0.209 -1.585,0.413 -1.585,1.356 0,1.081 0.923,1.546 1.887,1.546 1.015,0 1.913,-0.536 1.952,-1.676 l -1.363,0 C 1.245,1.602 1.166,1.871 1.048,1.949 0.93,2.034 0.766,2.067 0.622,2.067 0.426,2.067 0.105,2.015 0.105,1.752 0.131,1.419 0.799,1.346 1.461,1.163 2.122,0.979 2.778,0.672 2.778,-0.187 c 0,-1.218 -1.121,-1.611 -2.162,-1.611 -0.531,0 -2.045,0.304 -2.058,1.798 L 0,0 z"
             id="path123989"
             style="fill:#f47216;fill-opacity:1;fill-rule:nonzero;stroke:none" />
        </g>
      </g>
    </g>
  </g>
</svg>
