<?xml version="1.0" encoding="UTF-8" standalone="no"?>
<!-- Created with Inkscape (http://www.inkscape.org/) -->

<svg
   xmlns:dc="http://purl.org/dc/elements/1.1/"
   xmlns:cc="http://creativecommons.org/ns#"
   xmlns:rdf="http://www.w3.org/1999/02/22-rdf-syntax-ns#"
   xmlns:svg="http://www.w3.org/2000/svg"
   xmlns="http://www.w3.org/2000/svg"
   version="1.1"
   width="600"
   height="314.80533"
   id="svg130186">
  <defs
     id="defs130188">
    <clipPath
       id="clipPath123845">
      <path
         d="m 47.391,234.161 15.703,0 0,7.621 -15.703,0 0,-7.621 z"
         id="path123847" />
    </clipPath>
  </defs>
  <metadata
     id="metadata130191">
    <rdf:RDF>
      <cc:Work
         rdf:about="">
        <dc:format>image/svg+xml</dc:format>
        <dc:type
           rdf:resource="http://purl.org/dc/dcmitype/StillImage" />
        <dc:title></dc:title>
      </cc:Work>
    </rdf:RDF>
  </metadata>
  <g
     transform="translate(-237.14285,-92.102082)"
     id="layer1">
    <g
       transform="matrix(43.404062,0,0,-43.404062,-1819.8671,10586.423)"
       id="g123841">
      <g
         clip-path="url(#clipPath123845)"
         id="g123843">
        <g
           transform="translate(51.0177,236.44521)"
           id="g123849">
          <path
             d="m 0,0 0.934,0 0.437,-1.264 0.006,0 0.437,1.264 0.934,0 0,-1.916 -0.601,0 0,1.433 -0.006,0 -0.504,-1.433 -0.526,0 -0.504,1.433 -0.006,0 0,-1.433 L 0,-1.916 0,0 z"
             id="path123851"
             style="fill:#151922;fill-opacity:1;fill-rule:nonzero;stroke:none" />
        </g>
        <g
           transform="translate(54.836594,235.9621)"
           id="g123853">
          <path
             d="m 0,0 -0.005,0 -0.266,-0.725 0.537,0 L 0,0 z m -0.389,0.483 0.781,0 0.824,-1.916 -0.684,0 -0.116,0.311 -0.837,0 -0.116,-0.311 -0.684,0 0.832,1.916 z"
             id="path123855"
             style="fill:#151922;fill-opacity:1;fill-rule:nonzero;stroke:none" />
        </g>
        <g
           transform="translate(56.592102,235.5247)"
           id="g123857">
          <path
             d="m 0,0 -0.743,0.921 0.759,0 0.352,-0.516 0.351,0.516 0.76,0 L 0.735,0 l 0.832,-0.995 -0.791,0 -0.408,0.579 -0.408,-0.579 -0.792,0 L 0,0 z"
             id="path123859"
             style="fill:#151922;fill-opacity:1;fill-rule:nonzero;stroke:none" />
        </g>
        <g
           transform="translate(55.424499,240.10609)"
           id="g123861">
          <path
             d="m 0,0 c -0.026,0.17 -0.148,0.51 -0.744,0.51 -0.675,0 -0.891,-0.655 -0.891,-1.284 0,-0.629 0.216,-1.284 0.891,-1.284 0.485,0 0.674,0.193 0.76,0.632 l 1.415,0 c 0,-0.943 -0.766,-1.798 -2.136,-1.798 -1.513,0 -2.372,1.068 -2.372,2.45 0,1.474 0.93,2.45 2.372,2.45 C 0.579,1.67 1.278,1.173 1.402,0 L 0,0 z"
             id="path123863"
             style="fill:#f47216;fill-opacity:1;fill-rule:nonzero;stroke:none" />
        </g>
        <g
           transform="translate(49.763107,238.048)"
           id="g123865">
          <path
             d="M 0,0 C 0.367,0 0.93,0.243 0.93,1.284 0.93,2.326 0.367,2.568 0,2.568 -0.367,2.568 -0.931,2.326 -0.931,1.284 -0.931,0.243 -0.367,0 0,0 m 0,3.734 c 1.422,0 2.372,-1.022 2.372,-2.45 0,-1.428 -0.95,-2.45 -2.372,-2.45 -1.422,0 -2.371,1.022 -2.371,2.45 0,1.428 0.949,2.45 2.371,2.45"
             id="path123867"
             style="fill:#f47216;fill-opacity:1;fill-rule:nonzero;stroke:none" />
        </g>
        <g
           transform="translate(58.437698,238.6803)"
           id="g123869">
          <path
             d="m 0,0 c 0,-0.118 0.019,-0.337 0.052,-0.423 0.105,-0.281 0.419,-0.34 0.688,-0.34 0.236,0 0.596,0.078 0.596,0.426 0,0.242 -0.203,0.307 -1.009,0.537 -0.74,0.209 -1.585,0.412 -1.585,1.356 0,1.081 0.923,1.546 1.887,1.546 1.015,0 1.913,-0.536 1.952,-1.676 l -1.363,0 C 1.245,1.602 1.166,1.87 1.048,1.949 0.93,2.034 0.766,2.067 0.622,2.067 0.426,2.067 0.105,2.015 0.105,1.752 0.131,1.418 0.799,1.346 1.461,1.163 2.122,0.979 2.778,0.672 2.778,-0.187 c 0,-1.218 -1.121,-1.611 -2.162,-1.611 -0.531,0 -2.045,0.304 -2.058,1.798 L 0,0 z"
             id="path123871"
             style="fill:#f47216;fill-opacity:1;fill-rule:nonzero;stroke:none" />
        </g>
      </g>
    </g>
  </g>
</svg>
