<?xml version="1.0" encoding="UTF-8" standalone="no"?>
<!-- Created with Inkscape (http://www.inkscape.org/) -->

<svg
   xmlns:dc="http://purl.org/dc/elements/1.1/"
   xmlns:cc="http://creativecommons.org/ns#"
   xmlns:rdf="http://www.w3.org/1999/02/22-rdf-syntax-ns#"
   xmlns:svg="http://www.w3.org/2000/svg"
   xmlns="http://www.w3.org/2000/svg"
   version="1.1"
   width="1066.3427"
   height="273.01282"
   viewBox="0 -34.996 1066.3426 273.01282"
   id="svg11358"
   xml:space="preserve"><metadata
   id="metadata26"><rdf:RDF><cc:Work
       rdf:about=""><dc:format>image/svg+xml</dc:format><dc:type
         rdf:resource="http://purl.org/dc/dcmitype/StillImage" /><dc:title></dc:title></cc:Work></rdf:RDF></metadata><defs
   id="defs24" />
<g
   transform="translate(-84.89602,82.000916)"
   id="layer1">
	<g
   id="g13505">
		<path
   d="M 84.896,-82.001 H 561.578 V 122.083 H 84.896 V -82.001 z"
   id="path3591"
   style="fill:#ec1b24" />
		<path
   d="m 244.185,20.046 c 0,-33.324 -27.008,-59.042 -60.709,-59.042 -33.715,0 -60.721,25.718 -60.721,59.042 0,33.313 27.006,59.022 60.721,59.022 33.704,0 60.709,-25.709 60.709,-59.022 m -28.815,0 c 0,17.922 -15.402,32.226 -31.894,32.226 -16.683,0 -31.903,-14.304 -31.903,-32.226 0,-17.932 15.223,-32.234 31.903,-32.234 16.492,-10e-4 31.894,14.302 31.894,32.234"
   id="path3593"
   style="fill:#ffffff" />
		<path
   d="m 284.377,76.898 h 27.915 V 43.764 h 20.84 l 21.931,33.135 h 34.792 L 361.769,37.067 c 13.224,-5.797 22.469,-18.291 22.469,-33.684 0,-22.639 -16.672,-40.201 -42.048,-40.201 H 284.377 V 76.898 l 0,0 z m 56.18,-59.93 H 312.29 V -10.02 h 28.268 c 12.144,0 15.771,5.977 15.771,13.403 0,7.607 -3.628,13.585 -15.772,13.585"
   id="path3595"
   style="fill:#ffffff" />
		<path
   d="m 431.171,76.833 h 27.89 V 38.546 h 52.704 V 11.766 H 459.06 V -10.04 h 64.658 V -36.818 H 431.17 V 76.833 z"
   id="path3597"
   style="fill:#ffffff" />
		<path
   d="m 733.503,-3.266 c 0,-20.574 -16.858,-38.184 -43.571,-38.184 -20.178,0 -35.808,7.777 -48.216,27.991 L 666.533,-1.6 c 5.399,-9.634 12.979,-14.455 22.26,-14.455 9.283,0 16.198,6.119 16.198,12.419 0,4.262 -1.895,8.345 -7.673,12.787 l -52.951,41.906 v 26.135 h 88.757 V 50.68 H 686.047 L 713.706,29.737 C 725.546,20.842 733.503,9.9 733.503,-3.266"
   id="path3599"
   style="fill:#ffffff" />

		<path
   d="M 84.896,-82.001 H 561.578 V 122.083 H 84.896 V -82.001 z"
   id="path3603"
   style="fill:#e2001a" />
		<path
   d="m 244.185,20.046 c 0,-33.324 -27.008,-59.042 -60.709,-59.042 -33.715,0 -60.721,25.718 -60.721,59.042 0,33.313 27.006,59.022 60.721,59.022 33.704,0 60.709,-25.709 60.709,-59.022 m -28.815,0 c 0,17.922 -15.402,32.226 -31.894,32.226 -16.683,0 -31.903,-14.304 -31.903,-32.226 0,-17.932 15.223,-32.234 31.903,-32.234 16.492,-10e-4 31.894,14.302 31.894,32.234"
   id="path3605"
   style="fill:#ffffff" />
		<path
   d="m 284.377,76.898 h 27.915 V 43.764 h 20.84 l 21.931,33.135 h 34.792 L 361.769,37.067 c 13.224,-5.797 22.469,-18.291 22.469,-33.684 0,-22.639 -16.672,-40.201 -42.048,-40.201 H 284.377 V 76.898 l 0,0 z m 56.18,-59.93 H 312.29 V -10.02 h 28.268 c 12.144,0 15.771,5.977 15.771,13.403 0,7.607 -3.628,13.585 -15.772,13.585"
   id="path3607"
   style="fill:#ffffff" />
		<path
   d="m 431.171,76.833 h 27.89 V 38.546 h 52.704 V 11.766 H 459.06 V -10.04 h 64.658 V -36.818 H 431.17 V 76.833 z"
   id="path3609"
   style="fill:#ffffff" />
		<path
   d="m 733.503,-3.266 c 0,-20.574 -16.858,-38.184 -43.571,-38.184 -20.178,0 -35.808,7.777 -48.216,27.991 L 666.533,-1.6 c 5.399,-9.634 12.979,-14.455 22.26,-14.455 9.283,0 16.198,6.119 16.198,12.419 0,4.262 -1.895,8.345 -7.673,12.787 l -52.951,41.906 v 26.135 h 88.757 V 50.68 H 686.047 L 713.706,29.737 C 725.546,20.842 733.503,9.9 733.503,-3.266"
   id="path3611"
   style="fill:#ffffff" />
	</g>
</g>
<path
   d="M 878.06058,179.14 V 24.944 h -37.815 v 57.212 h -62.855 V 24.944 h -37.813 V 179.14 h 37.813 v -60.646 h 62.854 v 60.646 h 37.816 z m 188.28202,-77.098 c 0,-40.761 -31.433,-77.098 -82.25502,-77.098 h -70.473 V 179.14 h 70.473 c 49.84302,0 82.25502,-36.338 82.25502,-77.098 m -37.813,0 c 0,22.341 -16.698,40.76 -44.44102,40.76 h -32.903 V 61.281 h 32.903 c 27.74202,0 44.44102,18.419 44.44102,40.761"
   id="path4247"
   style="fill:#e2001a" />
<path
   d="m 1021.0526,-19.34 v 36.746 c 5.601,2.08 10.771,4.665 15.655,7.589 V -34.996 H 761.44758 V 9.957 h 15.656 V -19.34"
   id="path16"
   style="fill:#e2001a" />
<g
   transform="matrix(1.8174055,0,0,1.8173696,-759.15229,-368.90831)"
   id="g8207">
	<path
   d="m 836.687,333.958 h 151.459 v -32.941 c -2.694,1.63 -5.542,3.082 -8.615,4.247 v 20.08 H 845.303 v -15.81 h -8.615"
   id="path4249"
   style="fill:#e2001a" />

</g>
<path
   d="m 504.63358,204.127 h 204.029 V -0.043 h -204.029 v 204.17 z"
   id="path1262"
   style="fill:#e2001a;fill-opacity:1" />

<path
   d="m 645.54375,81.83878 c 0,-19.39219 -15.89232,-35.98985 -41.06996,-35.98985 -19.0172,0 -33.74887,7.33012 -45.44489,26.38303 l 23.39205,11.17818 c 5.08912,-9.08003 12.23175,-13.62456 20.98143,-13.62456 8.74969,0 15.26733,5.76764 15.26733,11.70497 0,4.01773 -1.78569,7.86578 -7.23194,12.05312 l -49.90895,39.49872 0,24.63304 83.65782,0 0,-24.99015 -44.37348,0 26.07058,-19.74044 c 11.16027,-8.38364 18.66001,-18.69582 18.66001,-31.10606"
   id="path3611-1"
   style="font-size:10px;letter-spacing:0;word-spacing:0;fill:#ffffff;fill-opacity:1;fill-rule:nonzero;stroke:none" /></svg>