<?xml version="1.0" encoding="UTF-8" standalone="no"?>
<!-- Created with Inkscape (http://www.inkscape.org/) -->

<svg
   xmlns:dc="http://purl.org/dc/elements/1.1/"
   xmlns:cc="http://creativecommons.org/ns#"
   xmlns:rdf="http://www.w3.org/1999/02/22-rdf-syntax-ns#"
   xmlns:svg="http://www.w3.org/2000/svg"
   xmlns="http://www.w3.org/2000/svg"
   version="1.1"
   width="519.35223"
   height="519.33887"
   id="svg127217">
  <defs
     id="defs127219">
    <clipPath
       id="clipPath123777">
      <path
         d="m 48.617,245.126 13.252,0 0,11.47 -13.252,0 0,-11.47 z"
         id="path123779" />
    </clipPath>
    <clipPath
       id="clipPath123761">
      <path
         d="m 49.508,245.126 11.47,0 0,11.47 -11.47,0 0,-11.47 z"
         id="path123763" />
    </clipPath>
    <clipPath
       id="clipPath123729">
      <path
         d="m 48.617,245.126 13.252,0 0,11.47 -13.252,0 0,-11.47 z"
         id="path123731" />
    </clipPath>
    <clipPath
       id="clipPath123719">
      <path
         d="m 0,0 524.409,0 0,651.968 L 0,651.968 0,0 z"
         id="path123721" />
    </clipPath>
  </defs>
  <metadata
     id="metadata127222">
    <rdf:RDF>
      <cc:Work
         rdf:about="">
        <dc:format>image/svg+xml</dc:format>
        <dc:type
           rdf:resource="http://purl.org/dc/dcmitype/StillImage" />
        <dc:title></dc:title>
      </cc:Work>
    </rdf:RDF>
  </metadata>
  <g
     transform="translate(-40.344187,-0.01812684)"
     id="g3180">
    <g
       transform="matrix(45.279599,0,0,-45.279599,-2201.3582,11618.564)"
       id="g123725">
      <g
         clip-path="url(#clipPath123729)"
         id="g123727">
        <g
           transform="translate(52.356796,245.41969)"
           id="g123733">
          <path
             d="m 0,0 c -0.016,-0.095 -0.055,-0.168 -0.119,-0.22 -0.06,-0.049 -0.134,-0.074 -0.223,-0.074 -0.099,0 -0.183,0.034 -0.251,0.102 -0.042,0.042 -0.069,0.095 -0.081,0.161 -0.007,0.038 -0.01,0.108 -0.01,0.21 0,0.102 0.003,0.172 0.01,0.21 0.012,0.065 0.039,0.119 0.081,0.161 0.068,0.068 0.152,0.102 0.251,0.102 0.09,0 0.165,-0.026 0.227,-0.076 C -0.054,0.525 -0.016,0.453 0,0.358 l -0.184,0 C -0.206,0.446 -0.258,0.49 -0.341,0.49 -0.396,0.49 -0.438,0.469 -0.468,0.428 -0.491,0.395 -0.503,0.312 -0.503,0.179 c 0,-0.072 0.001,-0.118 0.003,-0.136 0.006,-0.058 0.02,-0.101 0.043,-0.127 0.029,-0.032 0.067,-0.048 0.116,-0.048 0.083,0 0.135,0.044 0.157,0.132 L 0,0 z"
             id="path123735"
             style="fill:#254aa5;fill-opacity:1;fill-rule:nonzero;stroke:none" />
        </g>
        <g
           transform="translate(53.407501,245.13361)"
           id="g123737">
          <path
             d="m 0,0 -0.181,0 0,0.389 -0.315,0 0,-0.389 -0.182,0 0,0.93 0.182,0 0,-0.38 0.315,0 0,0.38 L 0,0.93 0,0 z"
             id="path123739"
             style="fill:#254aa5;fill-opacity:1;fill-rule:nonzero;stroke:none" />
        </g>
        <g
           transform="translate(54.558807,245.13361)"
           id="g123741">
          <path
             d="m 0,0 -0.189,0 -0.055,0.165 -0.331,0 L -0.631,0 -0.82,0 -0.482,0.93 -0.34,0.93 0,0 z m -0.293,0.317 -0.113,0.339 -0.118,-0.339 0.231,0 z"
             id="path123743"
             style="fill:#254aa5;fill-opacity:1;fill-rule:nonzero;stroke:none" />
        </g>
        <g
           transform="translate(55.6017,245.13361)"
           id="g123745">
          <path
             d="m 0,0 -0.162,0 -0.368,0.571 0,-0.571 -0.182,0 0,0.93 0.162,0 0.368,-0.57 0,0.57 L 0,0.93 0,0 z"
             id="path123747"
             style="fill:#254aa5;fill-opacity:1;fill-rule:nonzero;stroke:none" />
        </g>
        <g
           transform="translate(56.746201,245.13361)"
           id="g123749">
          <path
             d="m 0,0 -0.162,0 -0.368,0.571 0,-0.571 -0.182,0 0,0.93 0.162,0 0.368,-0.57 0,0.57 L 0,0.93 0,0 z"
             id="path123751"
             style="fill:#254aa5;fill-opacity:1;fill-rule:nonzero;stroke:none" />
        </g>
        <g
           transform="translate(57.791596,245.13361)"
           id="g123753">
          <path
             d="m 0,0 -0.613,0 0,0.93 0.613,0 0,-0.162 -0.431,0 0,-0.218 0.367,0 0,-0.162 -0.367,0 0,-0.226 L 0,0.162 0,0 z"
             id="path123755"
             style="fill:#254aa5;fill-opacity:1;fill-rule:nonzero;stroke:none" />
        </g>
      </g>
    </g>
    <g
       transform="matrix(45.279599,0,0,-45.279599,-2201.3582,11618.564)"
       id="g123757">
      <g
         clip-path="url(#clipPath123761)"
         id="g123759">
        <g
           transform="translate(58.788498,245.13361)"
           id="g123765">
          <path
             d="m 0,0 -0.603,0 0,0.93 0.181,0 0,-0.768 L 0,0.162 0,0 z"
             id="path123767"
             style="fill:#254aa5;fill-opacity:1;fill-rule:nonzero;stroke:none" />
        </g>
        <g
           transform="translate(51.547104,248.5865)"
           id="g123769">
          <path
             d="M 0,0 C 0.716,-0.036 1.138,-0.388 1.136,-0.767 1.133,-1.44 0.064,-1.553 0.064,-1.553 -0.125,-2.486 -0.867,-2.84 -1.38,-2.833 c -0.687,0.007 -0.676,0.564 -0.651,0.637 0.028,0.083 0.071,0.157 0.158,0.157 0.087,0 0.158,-0.071 0.157,-0.158 0,-0.053 -0.027,-0.103 -0.071,-0.129 -0.092,-0.057 -0.075,-0.126 -0.075,-0.126 -10e-4,-0.297 0.382,-0.321 0.482,-0.321 1.027,-0.003 0.913,1.687 1.818,2.258 0.042,0.027 0.074,0 0.049,-0.03 C 0.203,-0.897 0.096,-1.467 0.096,-1.467 0.532,-1.468 0.82,-1.054 0.821,-0.766 0.822,-0.271 0.378,-0.063 0,-0.062 c -1.058,0.003 -1.516,-0.734 -1.518,-1.135 -10e-4,-0.403 0.252,-0.55 0.437,-0.55 0.254,-10e-4 0.335,0.171 0.304,0.254 -0.05,0.132 0.021,0.24 0.1,0.24 0.031,0 0.136,0.005 0.135,-0.181 0,-0.178 -0.254,-0.356 -0.532,-0.356 -0.278,0.001 -0.68,0.153 -0.679,0.593 C -1.75,-0.302 -0.65,0.034 0,0"
             id="path123771"
             style="fill:#254aa5;fill-opacity:1;fill-rule:nonzero;stroke:none" />
        </g>
      </g>
    </g>
    <g
       transform="matrix(45.279599,0,0,-45.279599,-2201.3582,11618.564)"
       id="g123773">
      <g
         clip-path="url(#clipPath123777)"
         id="g123775">
        <g
           transform="translate(59.768097,247.3853)"
           id="g123781">
          <path
             d="m 0,0 0.185,-0.001 0.036,0.075 -0.188,0.001 0.18,0.4 -0.249,0.001 -0.185,-0.401 -0.13,0.001 -0.036,-0.075 0.128,0 c -0.069,-0.165 -0.121,-0.267 -0.199,-0.437 -0.088,-0.193 -0.264,-0.299 -0.3,-0.277 -0.027,0.016 -0.022,0.051 -0.01,0.089 0.07,0.151 0.149,0.322 0.219,0.478 0.028,0.061 0.051,0.129 0.013,0.195 -0.031,0.055 -0.1,0.059 -0.156,0.05 -0.119,-0.018 -0.221,-0.096 -0.314,-0.17 l 0.061,0.144 -0.25,0 c -0.07,-0.143 -0.119,-0.254 -0.185,-0.401 -0.064,-0.125 -0.245,-0.326 -0.352,-0.386 -0.018,-0.009 -0.05,-0.014 -0.06,0.009 -0.012,0.052 0.01,0.088 0.028,0.125 0.081,0.179 0.191,0.424 0.288,0.654 L -1.72,0.075 c -0.074,-0.171 -0.149,-0.314 -0.227,-0.484 -0.069,-0.137 -0.203,-0.3 -0.287,-0.313 -0.029,-0.004 -0.055,0 -0.055,0.025 0,0.031 0.004,0.053 0.024,0.095 l 0.302,0.686 c -0.067,0 -0.182,-0.003 -0.24,0.001 -0.01,-0.028 -0.029,-0.069 -0.043,-0.106 -0.055,-0.091 -0.19,-0.212 -0.291,-0.137 10e-4,0.042 -0.009,0.06 -0.018,0.097 C -2.573,0.007 -2.618,0.077 -2.687,0.1 -2.882,0.165 -3.085,0.056 -3.214,-0.087 -3.335,-0.211 -3.423,-0.358 -3.441,-0.52 -3.506,-0.612 -3.552,-0.657 -3.635,-0.727 -3.649,-0.736 -3.682,-0.75 -3.7,-0.735 c -0.01,0.008 -0.009,0.042 0,0.058 0.074,0.154 0.204,0.453 0.269,0.604 0.051,0.111 -0.013,0.226 -0.18,0.186 -0.115,-0.028 -0.197,-0.096 -0.276,-0.153 0.005,0.061 -0.027,0.143 -0.096,0.158 -0.124,0.029 -0.292,-0.106 -0.357,-0.166 -0.003,0 -0.01,0.006 -0.01,0.006 L -4.282,0.099 -4.523,0.1 c -0.065,-0.147 -0.121,-0.275 -0.182,-0.404 -0.065,-0.139 -0.226,-0.318 -0.317,-0.357 -0.038,-0.02 -0.066,-0.016 -0.08,-0.006 -0.014,0.009 -0.028,0.023 -0.009,0.064 0.112,0.244 0.199,0.437 0.315,0.695 C -4.961,0.199 -5.188,0.149 -5.354,0.071 -5.437,0.03 -5.51,-0.025 -5.57,-0.081 c -0.033,-0.027 -0.061,-0.046 -0.098,-0.068 -0.036,-0.028 -0.064,-0.014 -0.074,0.01 -0.004,0.022 0.01,0.063 0.024,0.095 0.022,0.051 0.064,0.093 0.069,0.147 0.01,0.061 -0.077,0.061 -0.114,0.043 -0.093,-0.051 -0.172,-0.133 -0.245,-0.189 -0.005,-0.004 -0.005,0 0,0.01 l 0.064,0.137 -0.235,0.001 -0.166,-0.368 c -0.094,-0.178 -0.214,-0.336 -0.348,-0.399 -0.014,-0.01 -0.037,-0.01 -0.055,0 -0.023,0.014 -0.014,0.054 -0.005,0.078 0.107,0.244 0.191,0.428 0.306,0.686 C -6.612,0.19 -6.848,0.163 -7,0.076 -7.24,-0.057 -7.417,-0.236 -7.512,-0.485 -7.546,-0.574 -7.56,-0.67 -7.524,-0.763 c 0.029,-0.065 0.098,-0.111 0.172,-0.086 0.134,0.026 0.231,0.109 0.331,0.21 l 0.01,0 c -0.005,-0.041 -0.01,-0.087 0,-0.129 0.009,-0.036 0.047,-0.073 0.082,-0.079 0.125,-0.024 0.282,0.106 0.411,0.221 0.005,0.004 0.01,0 0.005,-0.006 l -0.092,-0.202 0.248,-0.001 0.214,0.479 c 0.037,0.079 0.07,0.148 0.144,0.208 0.009,0.004 0.022,0.004 0.018,0 0,-0.029 0.004,-0.069 0.023,-0.092 0.018,-0.024 0.051,-0.047 0.083,-0.052 0.037,-0.005 0.092,0 0.119,0.014 -0.046,-0.065 -0.083,-0.143 -0.115,-0.217 -0.056,-0.115 -0.048,-0.216 -0.014,-0.281 0.026,-0.056 0.096,-0.106 0.174,-0.089 0.134,0.032 0.23,0.115 0.337,0.216 0.005,0.006 0.01,0.006 0.01,0 -0.01,-0.04 -0.014,-0.082 -0.006,-0.128 0.01,-0.037 0.046,-0.074 0.088,-0.078 0.124,-0.025 0.296,0.118 0.429,0.228 0,0.005 0.005,0 0.005,-0.004 -0.028,-0.055 -0.074,-0.161 -0.098,-0.216 l 0.245,-0.001 0.186,0.408 c 0.031,0.075 0.069,0.144 0.111,0.213 0.041,0.069 0.093,0.124 0.153,0.165 0.027,0.014 0.064,0.034 0.088,0.023 0.012,-0.009 0.018,-0.041 0.007,-0.064 -0.11,-0.249 -0.217,-0.493 -0.329,-0.745 l 0.25,-0.001 c 0.074,0.18 0.161,0.354 0.241,0.539 0.018,0.046 0.043,0.082 0.074,0.118 0.051,0.084 0.112,0.129 0.19,0.171 0.028,0.014 0.069,-0.009 0.055,-0.037 -0.089,-0.206 -0.163,-0.378 -0.251,-0.561 -0.027,-0.061 -0.052,-0.135 -0.01,-0.205 0.014,-0.026 0.036,-0.05 0.064,-0.055 0.185,-0.027 0.32,0.124 0.439,0.244 0.004,-0.078 0.037,-0.167 0.092,-0.205 0.114,-0.078 0.244,-0.064 0.36,-0.009 0.235,0.111 0.388,0.345 0.444,0.603 0,0.005 0,0.005 0.005,0.005 0.041,-0.014 0.12,-0.014 0.183,0.014 -0.077,-0.184 -0.147,-0.338 -0.171,-0.393 -0.088,-0.202 0.036,-0.3 0.176,-0.259 0.123,0.042 0.212,0.125 0.304,0.217 0.005,0.003 0.008,0.003 0.008,0 -0.026,-0.06 -0.018,-0.129 0.01,-0.175 0.027,-0.048 0.078,-0.065 0.129,-0.052 0.128,0.033 0.259,0.148 0.36,0.249 0,0.004 0.004,0.004 0.004,0 -0.031,-0.075 -0.074,-0.167 -0.102,-0.236 l 0.245,-0.001 c 0.055,0.112 0.111,0.227 0.163,0.342 0.074,0.17 0.162,0.335 0.333,0.464 0.037,0.027 0.078,0.027 0.091,0.013 0.011,-0.003 0.016,-0.036 0.011,-0.045 -0.085,-0.198 -0.163,-0.369 -0.251,-0.559 -0.019,-0.045 -0.023,-0.1 -0.015,-0.15 0.015,-0.066 0.092,-0.089 0.153,-0.08 0.139,0.028 0.244,0.129 0.355,0.212 -0.01,-0.056 -0.014,-0.115 0,-0.167 0.008,-0.032 0.018,-0.055 0.036,-0.082 0.036,-0.051 0.101,-0.088 0.162,-0.089 0.202,-0.005 0.414,0.188 0.513,0.381 0.004,0.01 -0.07,0.019 -0.074,0.007 -0.084,-0.13 -0.181,-0.251 -0.324,-0.3 -0.046,-0.014 -0.097,-0.005 -0.111,0.036 -0.019,0.075 0.019,0.196 0.056,0.268 C -0.195,-0.413 -0.107,-0.225 0,0 m -6.918,-0.371 c -0.074,-0.143 -0.203,-0.308 -0.295,-0.308 -0.043,0 -0.08,0.032 -0.065,0.109 0.023,0.148 0.167,0.351 0.256,0.456 0.073,0.088 0.189,0.194 0.295,0.194 0.008,0 0.018,0 0.013,-0.01 -0.091,-0.198 -0.13,-0.285 -0.204,-0.441 m 1.651,-0.005 c -0.074,-0.142 -0.204,-0.308 -0.295,-0.308 -0.046,0 -0.079,0.033 -0.065,0.11 0.023,0.148 0.167,0.35 0.254,0.456 0.074,0.087 0.191,0.193 0.296,0.193 0.01,0 0.02,0 0.014,-0.009 -0.092,-0.199 -0.13,-0.286 -0.204,-0.442 m 2.38,-0.073 c -0.112,-0.207 -0.241,-0.433 -0.343,-0.381 -0.097,0.047 -0.013,0.306 0.098,0.512 0.112,0.208 0.246,0.41 0.351,0.368 0.093,-0.032 0.004,-0.29 -0.106,-0.499"
             id="path123783"
             style="fill:#254aa5;fill-opacity:1;fill-rule:nonzero;stroke:none" />
        </g>
        <g
           transform="translate(51.291306,249.60181)"
           id="g123785">
          <path
             d="M 0,0 C 0.304,0.358 0.547,0.654 0.635,0.785 0.819,0.929 1.351,1.414 1.351,1.414 L 2.847,3.563 3.034,3.738 3.339,4.085 3.491,4.306 3.999,4.708 4.298,4.314 4.535,4.241 4.681,3.65 4.865,3.474 5.04,2.987 5.431,2.396 5.492,2.054 6.474,1.606 7.154,0.466 7.186,0.267 7.631,-0.39 l 0.436,-0.685 0.006,0 C 8.469,-0.384 8.696,0.417 8.698,1.271 8.706,3.899 6.581,6.036 3.953,6.044 1.324,6.051 -0.813,3.926 -0.82,1.298 -0.822,0.644 -0.691,0.02 -0.454,-0.547 -0.299,-0.362 -0.102,-0.12 0,0"
             id="path123787"
             style="fill:#254aa5;fill-opacity:1;fill-rule:nonzero;stroke:none" />
        </g>
        <g
           transform="translate(52.909897,250.5945)"
           id="g123789">
          <path
             d="M 0,0 C 0.148,0.222 0.212,0.305 0.199,0.32 0.176,0.345 0.005,0.168 -0.138,0.031 c -0.056,-0.053 -0.128,-0.113 -0.2,-0.203 -0.136,-0.169 -0.3,-0.419 -0.553,-0.757 -0.079,-0.105 -0.194,-0.219 -0.289,-0.344 -0.063,-0.086 -0.066,-0.124 0.051,-0.001 0.117,0.124 0.515,0.573 0.584,0.662 0.156,0.202 0.19,0.089 0.292,0.248 0,0 0.155,0.218 0.253,0.364"
             id="path123791"
             style="fill:#254aa5;fill-opacity:1;fill-rule:nonzero;stroke:none" />
        </g>
        <g
           transform="translate(53.847198,251.3176)"
           id="g123793">
          <path
             d="M 0,0 C 0.154,0.246 0.23,0.391 0.308,0.438 0.386,0.484 0.436,0.55 0.553,0.709 0.67,0.868 0.678,0.883 0.705,0.864 0.732,0.844 0.623,0.682 0.553,0.507 0.482,0.332 0.494,0.224 0.481,0.038 0.469,-0.149 0.364,-0.206 0.259,-0.424 0.153,-0.641 0.107,-0.73 0.041,-0.749 -0.025,-0.768 -0.052,-0.788 -0.107,-0.904 -0.162,-1.02 -0.199,-1.065 -0.267,-1.136 -0.335,-1.208 -0.343,-1.22 -0.361,-1.274 c -0.017,-0.054 -0.058,-0.095 -0.114,-0.13 -0.057,-0.034 -0.195,-0.238 -0.236,-0.284 -0.041,-0.047 -0.058,-0.045 0,0.085 0.059,0.13 0.18,0.345 0.215,0.417 0.035,0.072 0.016,0.11 0.106,0.329 0.09,0.219 0.126,0.276 0.163,0.33 0.038,0.054 0.024,0.091 0.005,0.097 -0.02,0.006 -0.039,0.027 0.023,0.134 C -0.136,-0.19 -0.093,-0.148 0,0"
             id="path123795"
             style="fill:#254aa5;fill-opacity:1;fill-rule:nonzero;stroke:none" />
        </g>
        <g
           transform="translate(55.462402,251.0284)"
           id="g123797">
          <path
             d="m 0,0 c -0.05,0.182 -0.054,0.207 -0.083,0.295 -0.03,0.088 -0.041,0.135 0.042,0.228 0.084,0.093 0.05,0.3 -0.031,0.522 0,0 -0.133,0.354 -0.09,0.387 C -0.12,1.465 -0.023,1.185 0.205,0.781 0.432,0.377 0.552,0.14 0.766,-0.257 0.981,-0.653 0.967,-0.685 0.973,-0.743 0.982,-0.844 0.873,-0.879 0.892,-0.946 0.921,-1.043 1.027,-1.42 1.06,-1.486 1.092,-1.552 1.127,-1.566 1.211,-1.727 1.293,-1.889 1.293,-1.955 1.262,-1.988 1.231,-2.02 1.217,-2.049 1.242,-2.145 1.267,-2.24 1.362,-2.453 1.398,-2.516 1.435,-2.578 1.437,-2.603 1.369,-2.566 1.301,-2.529 1.282,-2.51 1.228,-2.395 1.174,-2.28 0.948,-1.804 0.861,-1.623 0.775,-1.443 0.698,-1.268 0.616,-1.099 0.535,-0.93 0.522,-0.837 0.45,-0.799 0.379,-0.762 0.311,-0.776 0.266,-0.7 0.222,-0.624 0.224,-0.596 0.191,-0.573 0.158,-0.55 0.137,-0.478 0.087,-0.3 0.037,-0.121 0.036,-0.13 0,0"
             id="path123799"
             style="fill:#254aa5;fill-opacity:1;fill-rule:nonzero;stroke:none" />
        </g>
        <g
           transform="translate(56.475098,251.38789)"
           id="g123801">
          <path
             d="M 0,0 C 0.093,-0.184 0.185,-0.389 0.297,-0.622 0.409,-0.855 0.552,-1.115 0.656,-1.318 0.76,-1.52 0.923,-1.741 1.027,-1.8 1.132,-1.858 1.167,-1.804 1.287,-1.917 1.407,-2.03 1.72,-2.403 1.825,-2.509 1.929,-2.614 2.057,-2.855 2.13,-2.925 2.204,-2.995 2.115,-2.793 2.007,-2.625 1.899,-2.458 1.74,-2.151 1.62,-1.957 1.501,-1.762 1.45,-1.708 1.431,-1.642 1.412,-1.576 1.416,-1.58 1.184,-1.362 0.951,-1.144 0.82,-1.03 0.758,-0.937 0.696,-0.844 0.805,-0.81 0.689,-0.666 0.573,-0.522 0.426,-0.351 0.283,-0.206 0.14,-0.063 0.089,0.015 0,0.128 -0.089,0.241 -0.116,0.307 -0.147,0.284 -0.178,0.26 -0.067,0.133 0,0"
             id="path123803"
             style="fill:#254aa5;fill-opacity:1;fill-rule:nonzero;stroke:none" />
        </g>
        <g
           transform="translate(55.273895,255.9046)"
           id="g123805">
          <path
             d="M 0,0 0.237,0.152 0.453,-0.028 0.382,0.248 0.62,0.404 0.337,0.422 0.27,0.691 0.168,0.433 -0.113,0.449 0.106,0.265 0,0 z m 4.583,-3.027 0.235,-0.155 -0.077,-0.271 0.223,0.179 0.241,-0.155 -0.1,0.266 0.219,0.17 L 5.046,-3.005 4.947,-2.74 4.867,-3.016 4.583,-3.027 z m 0.714,-0.71 -0.13,-0.255 -0.283,0.044 0.202,-0.197 -0.127,-0.251 0.253,0.131 0.206,-0.196 -0.046,0.279 0.248,0.127 -0.276,0.04 -0.047,0.278 z m -0.511,-3.516 0.065,-0.279 0.113,0.26 0.277,-0.029 -0.209,0.184 0.114,0.258 -0.25,-0.142 -0.213,0.191 0.062,-0.275 -0.243,-0.142 0.284,-0.026 z m 0.513,0.976 0.277,0.024 -0.24,0.141 0.062,0.275 -0.218,-0.187 -0.245,0.147 0.114,-0.259 -0.213,-0.185 0.285,0.028 0.117,-0.26 0.061,0.276 z m 0.143,1.213 0.009,0.282 -0.178,-0.226 -0.268,0.097 0.16,-0.23 -0.173,-0.223 0.274,0.081 0.164,-0.233 0.008,0.283 0.266,0.076 -0.262,0.093 z M 0.964,-0.103 1.226,0.002 1.404,-0.217 1.386,0.069 1.651,0.176 1.376,0.248 1.361,0.524 1.212,0.29 0.94,0.361 1.119,0.138 0.964,-0.103 z M 4.372,-2.291 4.348,-2.572 4.533,-2.355 4.798,-2.461 4.65,-2.218 4.832,-2.01 4.562,-2.074 4.414,-1.833 4.389,-2.119 4.111,-2.184 4.372,-2.291 z M 2.164,-0.334 2.297,-0.583 2.334,-0.3 2.615,-0.244 2.358,-0.121 2.397,0.154 2.206,-0.049 1.951,0.072 2.084,-0.181 1.887,-0.388 2.164,-0.334 z m 1.325,-1.113 0.276,-0.055 0.03,-0.28 0.14,0.249 0.28,-0.054 -0.191,0.21 0.139,0.24 -0.253,-0.115 -0.191,0.208 0.03,-0.286 -0.26,-0.117 z m -0.468,0.604 0.083,-0.269 0.09,0.27 0.285,0.003 -0.227,0.168 0.091,0.262 L 3.116,-0.571 2.89,-0.402 2.972,-0.677 2.739,-0.841 3.021,-0.843 z m -8.107,-2.035 0.258,0.126 0.199,-0.205 -0.043,0.278 0.253,0.124 -0.282,0.047 -0.046,0.282 -0.131,-0.251 -0.272,0.048 0.194,-0.199 -0.13,-0.25 z m -0.172,-3.85 0.079,-0.269 0.099,0.269 0.286,-0.009 -0.224,0.17 0.096,0.265 -0.236,-0.162 -0.229,0.171 0.081,-0.272 -0.231,-0.156 0.279,-0.007 z m 3.36,6.372 0.163,0.231 0.269,-0.087 -0.171,0.23 0.163,0.234 -0.269,-0.089 -0.163,0.224 0.003,-0.278 -0.268,-0.089 0.272,-0.09 0.001,-0.286 z m -0.913,-0.161 0.055,-0.281 0.116,0.258 0.279,-0.034 -0.21,0.192 0.115,0.262 -0.247,-0.14 -0.203,0.19 0.056,-0.273 -0.246,-0.139 0.285,-0.035 z m -0.812,-0.614 0.109,-0.264 0.063,0.275 0.282,0.021 -0.244,0.148 0.063,0.279 -0.215,-0.184 -0.236,0.147 0.106,-0.257 -0.214,-0.183 0.286,0.018 z m 2.657,1.045 0.204,0.196 0.247,-0.137 -0.123,0.258 0.204,0.199 -0.281,-0.036 -0.117,0.252 -0.051,-0.274 -0.279,-0.037 0.249,-0.14 -0.053,-0.281 z m -3.336,-1.798 0.155,-0.238 0.011,0.281 0.273,0.075 -0.267,0.099 0.007,0.285 -0.176,-0.222 -0.259,0.1 0.154,-0.232 -0.176,-0.22 0.278,0.072 z m -1.108,-1.995 0.229,0.172 0.235,-0.162 -0.096,0.265 0.226,0.17 -0.286,-0.008 -0.099,0.267 -0.081,-0.271 -0.277,-0.004 0.229,-0.157 -0.08,-0.272 z m -0.126,-1.048 0.193,0.214 0.261,-0.117 -0.144,0.243 0.188,0.21 -0.279,-0.062 -0.148,0.244 -0.027,-0.282 -0.272,-0.057 0.255,-0.112 -0.027,-0.281 z m 0.077,-1.052 0.149,0.245 0.279,-0.064 -0.188,0.211 0.145,0.242 -0.262,-0.114 -0.192,0.211 0.026,-0.282 -0.255,-0.109 0.272,-0.059 0.026,-0.281 z"
             id="path123807"
             style="fill:#254aa5;fill-opacity:1;fill-rule:nonzero;stroke:none" />
        </g>
        <g
           transform="translate(58.948593,245.96629)"
           id="g123809">
          <path
             d="m 0,0 -0.028,0 0,-0.051 0.028,0 c 0.016,0 0.027,0.012 0.027,0.026 C 0.027,-0.011 0.016,0 0,0 m 0.027,-0.141 -0.034,0.066 -0.021,0 0,-0.066 -0.031,0 0,0.167 0.063,0 c 0.032,0 0.054,-0.023 0.054,-0.051 0,-0.024 -0.015,-0.039 -0.033,-0.046 l 0.037,-0.07 -0.035,0 z m -0.032,0.21 c -0.07,0 -0.124,-0.056 -0.124,-0.127 0,-0.07 0.054,-0.126 0.124,-0.126 0.069,0 0.124,0.056 0.124,0.126 0,0.071 -0.055,0.127 -0.124,0.127 m 0,-0.282 c -0.086,0 -0.155,0.07 -0.155,0.155 0,0.086 0.069,0.155 0.155,0.155 0.086,0 0.155,-0.069 0.155,-0.155 0,-0.085 -0.069,-0.155 -0.155,-0.155"
             id="path123811"
             style="fill:#254aa5;fill-opacity:1;fill-rule:nonzero;stroke:none" />
        </g>
      </g>
    </g>
  </g>
</svg>
