<?xml version="1.0" encoding="UTF-8" standalone="no"?>
<svg xmlns:rdf="http://www.w3.org/1999/02/22-rdf-syntax-ns#" xmlns="http://www.w3.org/2000/svg" height="75.915mm" width="169.33mm" version="1.1" xmlns:cc="http://creativecommons.org/ns#" xmlns:dc="http://purl.org/dc/elements/1.1/" viewBox="0 0 599.99998 268.99062">
 <g transform="translate(408.74 -692.36)">
  <g fill="#4c4449">
   <path d="m147.43 810.1h-8.82c-0.36 0-0.63-0.29-0.59-0.65l1.94-15.32c0.02-0.36-0.22-0.64-0.59-0.64h-13.51c-0.37 0-0.68 0.28-0.72 0.64l-1.9 15.32c-0.06 0.36-0.39 0.65-0.74 0.65h-8.78c-0.37 0-0.6-0.29-0.56-0.65l4.74-38.66c0.04-0.33 0.37-0.64 0.72-0.64h8.84c0.34 0 0.6 0.31 0.57 0.64l-1.66 13.31c-0.03 0.33 0.21 0.63 0.57 0.63h13.51c0.37 0 0.67-0.3 0.74-0.63l1.6-13.31c0.02-0.33 0.35-0.64 0.71-0.64h8.83c0.35 0 0.6 0.31 0.57 0.64l-4.76 38.66c-0.03 0.36-0.33 0.65-0.71 0.65"/>
   <path d="m165.93 801.38h2.77c2.24 0 4.01-0.24 5.32-0.69 1.3-0.45 2.46-1.19 3.46-2.26 2.28-2.39 3.43-5.68 3.43-9.91 0-3.35-0.76-5.81-2.26-7.33-1.44-1.55-3.79-2.3-6.99-2.3h-3.03c-0.34 0-0.67 0.27-0.71 0.64l-2.55 21.18c-0.04 0.38 0.2 0.67 0.56 0.67m9.77-31.05c1.28 0.14 2.5 0.34 3.57 0.59 1.06 0.26 2.04 0.61 2.9 1.02 0.9 0.38 1.7 0.91 2.5 1.5 2.09 1.61 3.73 3.73 4.87 6.41 1.15 2.67 1.72 5.6 1.72 8.84 0 2.09-0.25 4.11-0.75 6.07-0.48 1.94-1.2 3.76-2.11 5.39-0.89 1.66-1.98 3.13-3.25 4.44-1.3 1.29-2.7 2.34-4.24 3.16-1.64 0.83-3.55 1.43-5.67 1.79-2.13 0.4-4.82 0.56-8.05 0.56h-12.49c-0.39 0-0.62-0.29-0.58-0.65l4.74-38.66c0.07-0.33 0.36-0.64 0.72-0.64h11.71c1.64 0 3.1 0.07 4.41 0.18"/>
   <path d="m-408.74 886.73h507.05l-0.003-119.86h-507.05v119.86z"/>
  </g>
  <path d="m-290.53 826.86c0-74.28 60.21-134.5 134.49-134.5 74.288 0 134.5 60.22 134.5 134.5-0.001 74.28-60.212 134.49-134.5 134.49-74.28 0-134.49-60.21-134.49-134.49" fill="#f15a22"/>
  <path d="m-408.74 766.91v119.91h176.55v-60.04l59.87-59.87h-236.42" fill="#4c4449"/>
  <g fill="#fff">
   <path d="m50.408 811.92c-0.482 0-0.857-0.38-0.857-0.85v-21.32c0-0.46-0.376-0.85-0.857-0.85h-18.779c-0.47 0-0.857 0.39-0.857 0.85v21.32c0 0.47-0.399 0.85-0.857 0.85h-24.542c-0.4815 0-0.8571 0.39-0.8571 0.86v18.96c0 0.47 0.3756 0.85 0.8568 0.85h24.542c0.458 0 0.857 0.38 0.857 0.85v25.02c0 0.47 0.387 0.84 0.857 0.84h18.779c0.481 0 0.857-0.37 0.857-0.84v-25.02c0-0.47 0.375-0.85 0.857-0.85h22.84c0.481 0 0.845-0.38 0.845-0.85v-18.96c0-0.47-0.364-0.86-0.845-0.86h-22.84"/>
   <path d="m-359.64 803.63h-6.09v17.55h6c6.66 0 10.04-2.91 10.04-8.73 0-5.91-3.28-8.82-9.95-8.82zm5.35 32.28h-11.44v23.36h-18.3v-70.37h29.09c7.5 0 13.32 1.97 17.54 5.92 4.59 4.3 6.85 10.13 6.85 17.44 0 15.76-7.88 23.65-23.74 23.65"/>
   <path d="m-324.37 859.27h16.89v-70.37h-16.89v70.37z"/>
   <path d="m-265.54 827.65c-2.16-2.16-4.7-3.2-7.7-3.2s-5.53 1.04-7.69 3.2-3.19 4.69-3.19 7.6c0 6.09 4.79 10.98 10.88 10.98 3 0 5.54-1.04 7.7-3.2s3.19-4.69 3.19-7.68c0-3.01-1.03-5.54-3.19-7.7zm2.72 31.62v-5.26c-0.85 1.03-1.41 1.69-1.78 1.97-3.29 3.29-7.61 4.88-12.95 4.88-7.04 0-12.85-2.53-17.45-7.7-4.51-4.97-6.75-10.88-6.75-17.91 0-10.14 5.53-19.42 14.62-23.46 2.91-1.22 6.01-1.88 9.39-1.88 4.5 0 8.25 0.94 11.26 2.91 1.03 0.66 2.25 1.79 3.66 3.29v-4.7h16.89v47.86h-16.89"/>
   <path d="m-206.15 859.27v-27.21c0-3.29-1.22-5.54-3.76-6.95-1.22-0.64-2.62-1.02-4.03-1.02-5.91 0-8.92 3.27-8.92 9.75v25.43h-16.89v-47.48h16.89v6.01c4.14-4.7 9.29-7.03 15.39-7.03 5.73 0 10.32 1.68 13.79 5.15 2.91 2.91 4.42 7.32 4.42 13.13v30.22h-16.89"/>
   <path d="m-148.11 828.87c-1.32-5.07-4.6-7.61-9.85-7.61-5.35 0-8.55 2.54-9.58 7.61h19.43zm-19.9 9.75c0.1 7.14 3.57 10.69 10.33 10.69 3.56 0 6.28-1.49 8.25-4.49h16.33c-1.03 3.57-2.54 6.37-4.32 8.44-4.59 5.25-11.44 7.87-20.35 7.87-8.27 0-14.92-2.24-19.9-6.84-4.96-4.6-7.4-10.79-7.4-18.39 0-7.78 2.34-13.97 7.12-18.57 4.79-4.6 11.35-6.86 19.52-6.86 8.16 0 14.45 2.35 19.05 7.05 4.59 4.68 6.94 11.16 6.94 19.32v1.78h-35.57"/>
   <path d="m-106.51 825.77v33.5h-16.89v-33.5h-5.52v-13.98h5.52v-14.26h16.89v14.26h9.664v13.98h-9.664"/>
   <path d="m-56.376 828.87c-1.315-5.07-4.59-7.61-9.848-7.61-5.352 0-8.544 2.54-9.577 7.61h19.425zm-19.895 9.75c0.106 7.14 3.568 10.69 10.329 10.69 3.556 0 6.279-1.49 8.251-4.49h16.326c-1.033 3.57-2.535 6.37-4.319 8.44-4.589 5.25-11.444 7.87-20.352 7.87-8.263 0-14.918-2.24-19.894-6.84-4.965-4.6-7.407-10.79-7.407-18.39 0-7.78 2.348-13.97 7.125-18.57 4.789-4.6 11.35-6.86 19.519-6.86 8.157 0 14.448 2.35 19.049 7.05 4.589 4.68 6.937 11.16 6.937 19.32v1.78h-35.564"/>
  </g>
 </g>
</svg>
