<?xml version="1.0" encoding="UTF-8" standalone="no"?>
<svg xmlns:rdf="http://www.w3.org/1999/02/22-rdf-syntax-ns#" xmlns="http://www.w3.org/2000/svg" height="89.833mm" width="169.33mm" version="1.1" xmlns:cc="http://creativecommons.org/ns#" xmlns:dc="http://purl.org/dc/elements/1.1/" viewBox="0 0 599.99998 318.30554">
 <g transform="translate(-115.38 -543.04)">
  <path d="m115.38 773.04h600v-141.83h-600v141.83z" fill="#4c4449"/>
  <path d="m255.26 702.19c0-87.9 71.25-159.15 159.15-159.15s159.15 71.25 159.15 159.15c0 87.91-71.25 159.16-159.15 159.16s-159.15-71.25-159.15-159.16" fill="#f15a22"/>
  <path d="m115.38 631.25v141.9h208.92v-71.05l70.85-70.85h-279.77" fill="#4c4449"/>
  <g fill="#fff">
   <path d="m658.7 684.51c-0.57 0-1.01-0.44-1.01-1v-25.23c0-0.54-0.45-1-1.02-1h-22.22c-0.55 0-1.01 0.46-1.01 1v25.23c0 0.56-0.48 1-1.02 1h-29.04c-0.57 0-1.01 0.46-1.01 1.02v22.44c0 0.56 0.44 1 1.01 1h29.04c0.54 0 1.02 0.46 1.02 1.02v29.59c0 0.56 0.46 1 1.01 1h22.22c0.57 0 1.02-0.44 1.02-1v-29.59c0-0.56 0.44-1.02 1.01-1.02h27.03c0.57 0 1-0.44 1-1v-22.44c0-0.56-0.43-1.02-1-1.02h-27.03"/>
   <path d="m173.48 674.71h-7.21v20.76h7.1c7.89 0 11.89-3.44 11.89-10.33 0-6.99-3.89-10.43-11.78-10.43zm6.33 38.19h-13.54v27.64h-21.65v-83.26h34.41c8.88 0 15.77 2.33 20.77 7 5.43 5.09 8.1 11.98 8.1 20.64 0 18.65-9.32 27.98-28.09 27.98"/>
   <path d="m215.21 740.54h19.99v-83.26h-19.99v83.26z"/>
   <path d="m284.83 703.12c-2.56-2.55-5.56-3.77-9.12-3.77-3.54 0-6.54 1.22-9.09 3.77-2.56 2.56-3.78 5.56-3.78 9 0 7.21 5.67 12.99 12.87 12.99 3.56 0 6.56-1.22 9.12-3.78 2.55-2.55 3.77-5.55 3.77-9.09 0-3.56-1.22-6.56-3.77-9.12zm3.22 37.42v-6.22c-1 1.22-1.67 2-2.11 2.33-3.89 3.89-9 5.78-15.32 5.78-8.34 0-15.21-3-20.66-9.11-5.33-5.89-7.98-12.88-7.98-21.2 0-12 6.54-22.98 17.3-27.76 3.45-1.44 7.12-2.22 11.12-2.22 5.31 0 9.76 1.11 13.31 3.44 1.23 0.78 2.67 2.11 4.34 3.89v-5.55h19.98v56.62h-19.98"/>
   <path d="m355.1 740.54v-32.19c0-3.89-1.44-6.56-4.44-8.23-1.45-0.76-3.1-1.2-4.76-1.2-7 0-10.56 3.87-10.56 11.54v30.08h-19.99v-56.18h19.99v7.11c4.89-5.55 10.99-8.32 18.21-8.32 6.78 0 12.21 1.99 16.32 6.1 3.44 3.44 5.22 8.67 5.22 15.54v35.75h-19.99"/>
   <path d="m423.78 704.57c-1.55-6-5.44-9-11.65-9-6.33 0-10.11 3-11.33 9h22.98zm-23.54 11.54c0.11 8.45 4.22 12.65 12.22 12.65 4.21 0 7.44-1.76 9.77-5.32h19.32c-1.22 4.23-3 7.55-5.11 9.99-5.43 6.22-13.54 9.32-24.09 9.32-9.77 0-17.65-2.65-23.54-8.1-5.87-5.44-8.76-12.76-8.76-21.76 0-9.21 2.78-16.53 8.43-21.97 5.67-5.45 13.43-8.11 23.1-8.11 9.65 0 17.09 2.77 22.54 8.33 5.43 5.54 8.21 13.21 8.21 22.86v2.11h-42.09"/>
   <path d="m473.02 700.9v39.64h-19.99v-39.64h-6.54v-16.54h6.54v-16.87h19.99v16.87h11.43v16.54h-11.43"/>
   <path d="m532.34 704.57c-1.56-6-5.43-9-11.65-9-6.34 0-10.11 3-11.34 9h22.99zm-23.54 11.54c0.12 8.45 4.22 12.65 12.22 12.65 4.21 0 7.43-1.76 9.76-5.32h19.32c-1.22 4.23-3 7.55-5.11 9.99-5.43 6.22-13.54 9.32-24.08 9.32-9.78 0-17.65-2.65-23.54-8.1-5.88-5.44-8.77-12.76-8.77-21.76 0-9.21 2.78-16.53 8.43-21.97 5.67-5.45 13.43-8.11 23.1-8.11 9.65 0 17.1 2.77 22.54 8.33 5.43 5.54 8.21 13.21 8.21 22.86v2.11h-42.08"/>
  </g>
 </g>
</svg>
