<?xml version="1.0" encoding="UTF-8" standalone="no"?>
<!-- Created with Inkscape (http://www.inkscape.org/) -->

<svg
   xmlns:dc="http://purl.org/dc/elements/1.1/"
   xmlns:cc="http://creativecommons.org/ns#"
   xmlns:rdf="http://www.w3.org/1999/02/22-rdf-syntax-ns#"
   xmlns:svg="http://www.w3.org/2000/svg"
   xmlns="http://www.w3.org/2000/svg"
   version="1.1"
   width="600.00012"
   height="614.625"
   id="svg7339">
  <defs
     id="defs7341">
    <clipPath
       id="clipPath6633">
      <path
         d="m 0,0 841.89,0 0,595.276 L 0,595.276 0,0 z"
         id="path6635" />
    </clipPath>
    <clipPath
       id="clipPath6609">
      <path
         d="m 0,0 841.89,0 0,595.276 L 0,595.276 0,0 z"
         id="path6611" />
    </clipPath>
    <clipPath
       id="clipPath5353">
      <path
         d="m 0,0 841.89,0 0,595.276 L 0,595.276 0,0 z"
         id="path5355" />
    </clipPath>
  </defs>
  <metadata
     id="metadata7344">
    <rdf:RDF>
      <cc:Work
         rdf:about="">
        <dc:format>image/svg+xml</dc:format>
        <dc:type
           rdf:resource="http://purl.org/dc/dcmitype/StillImage" />
        <dc:title></dc:title>
      </cc:Work>
    </rdf:RDF>
  </metadata>
  <g
     transform="translate(10.628313,-225.04968)"
     id="layer1">
    <g
       id="g7553">
      <path
         d="m -10.620473,672.12066 0,123.63056 c 0,24.21401 19.7410592,43.92346 44.049906,43.92346 l 511.908267,0 c 24.29304,0 44.0341,-19.70945 44.0341,-43.92346 l 0,-102.43539 -555.942367,0 c -17.796984,0 -33.68150342,-8.3295 -44.049906,-21.19517"
         id="path5371"
         style="fill:#4a0c62;fill-opacity:1;fill-rule:nonzero;stroke:none" />
      <path
         d="m 545.32986,225.04968 -511.908267,0 c -24.3088463,0 -44.049906,19.67784 -44.049906,43.95507 l 0,362.51476 c 0,24.26143 19.7410597,43.95508 44.049906,43.95508 l 420.963467,-0.0127 c 0,-0.37933 -0.1138,-0.74222 -0.1138,-1.13799 l 0,-47.73259 74.14357,-0.0253 c 12.3915,0 22.44379,10.0523 22.44379,22.41219 l 0,25.35201 c 0,0.3945 -0.0759,0.75866 -0.1138,1.13799 l 38.61282,0 0,-406.45402 c 0,-24.27724 -19.72525,-43.95508 -44.0341,-43.95508 m 5.53192,358.73725 c 0,12.3599 -10.05229,22.41219 -22.4438,22.41219 l -51.66815,0 c -12.42312,0 -22.47541,-10.05229 -22.47541,-22.41219 l 0,-47.73258 74.14356,-0.0253 c 12.39151,0 22.4438,10.05229 22.4438,22.42799 l 0,25.3362 z m 0,-90.64449 c 0,12.35989 -10.05229,22.39638 -22.4438,22.39638 l -51.66815,0 c -12.42312,0 -22.47541,-10.03649 -22.47541,-22.39638 l 0,-47.7642 74.14356,0 c 12.39151,0 22.4438,10.05229 22.4438,22.41219 l 0,25.35201 z m 0,-90.59708 c 0,12.3915 -10.05229,22.41218 -22.4438,22.41218 l -51.66815,0 c -12.42312,0 -22.47541,-10.02068 -22.47541,-22.41218 l 0,-47.74839 74.14356,0 c 12.39151,0 22.4438,10.05229 22.4438,22.39638 l 0,25.35201 z m 0,-90.48644 c 0,12.3757 -10.05229,22.39638 -22.4438,22.39638 l -51.66815,0 c -12.42312,0 -22.47541,-10.02068 -22.47541,-22.39638 l 0,-47.7642 74.14356,0 c 12.39151,0 22.4438,10.05229 22.4438,22.41219 l 0,25.35201 z"
         id="path5375"
         style="fill:#000000;fill-opacity:1;fill-rule:nonzero;stroke:none" />
      <path
         d="m 134.9734,759.35914 c 0,4.94712 -1.75441,8.89849 -5.21582,11.94895 -3.4772,3.01885 -7.74469,4.50456 -12.73922,4.50456 l -37.300964,0 0,-11.25351 37.300964,0 c 4.23587,0 6.3538,-1.7228 6.3538,-5.2 l 0,-7.22311 c 0,-3.7301 -2.11793,-5.59515 -6.3538,-5.59515 l -45.788513,0 0,50.48274 -11.585426,0 0,-61.46755 57.310709,0 c 5.02615,0 9.26202,1.54893 12.77084,4.631 3.4614,3.11369 5.24743,7.09667 5.24743,11.94896 l 0,7.22311 z"
         id="path5379"
         style="fill:#ffffff;fill-opacity:1;fill-rule:nonzero;stroke:none" />
      <path
         d="m 211.48146,780.5036 0,-28.4815 c 0,-1.46991 -0.679,-2.79757 -2.03891,-3.93557 -1.34347,-1.15317 -2.78177,-1.7228 -4.34651,-1.7228 l -38.96054,0 c -1.54893,0 -3.01885,0.569 -4.34651,1.7228 -1.32766,1.138 -2.00729,2.46566 -2.00729,3.93557 l 0,28.4815 c 0,3.66687 2.11793,5.53192 6.3538,5.53192 l 38.96054,0 c 4.23587,0 6.38542,-1.86505 6.38542,-5.53192 m 11.56962,-0.1138 c 0,4.85228 -1.7386,8.86688 -5.29484,11.96475 -3.54043,3.11369 -7.74469,4.66262 -12.70762,4.66262 l -38.84989,0 c -4.94712,0 -9.183,-1.54893 -12.70762,-4.66262 -3.52462,-3.09787 -5.31065,-7.11247 -5.31065,-11.96475 l 0,-28.37086 c 0,-4.58359 1.83344,-8.50336 5.51612,-11.72768 3.66688,-3.27173 7.83953,-4.8997 12.50215,-4.8997 l 38.84989,0 c 4.67843,0 8.83527,1.62797 12.50215,4.8997 3.63526,3.22432 5.50031,7.14409 5.50031,11.72768 l 0,28.37086 z"
         id="path5383"
         style="fill:#ffffff;fill-opacity:1;fill-rule:nonzero;stroke:none" />
      <path
         d="m 289.14965,797.02046 -34.15567,0 c -4.97873,0 -9.18299,-1.54894 -12.67601,-4.66262 -3.50882,-3.09787 -5.27903,-7.11247 -5.27903,-11.96476 l 0,-44.99823 11.56962,0 0,45.10887 c 0,3.66688 2.11794,5.53193 6.38542,5.53193 l 34.15567,0 0,10.98481 z"
         id="path5387"
         style="fill:#ffffff;fill-opacity:1;fill-rule:nonzero;stroke:none" />
      <path
         d="m 375.11736,746.3717 -54.79764,0 c -1.54894,0 -2.98724,0.569 -4.34651,1.7228 -1.29605,1.10638 -2.0073,2.44985 -2.0073,3.91976 l 0,3.08207 c 0,3.66688 2.14955,5.50031 6.35381,5.50031 l 36.63713,0.1138 c 4.94712,0 9.15138,1.50152 12.62859,4.44135 3.58784,3.19271 5.38967,7.19149 5.38967,12.07539 l 0,3.19271 c 0,4.63101 -1.83344,8.55077 -5.50031,11.77509 -3.68268,3.22432 -7.82372,4.82068 -12.48634,4.82068 l -54.76603,0 0,-10.96901 54.79764,0 c 1.58055,0 3.01885,-0.569 4.34651,-1.64377 1.35927,-1.10639 2.03891,-2.44986 2.03891,-3.98299 l 0,-3.20851 c 0,-3.68268 -2.11794,-5.48451 -6.38542,-5.48451 l -36.65293,-0.1138 c -4.89971,0 -9.13558,-1.54894 -12.69181,-4.63101 -3.50882,-3.05046 -5.27904,-7.03344 -5.27904,-11.88573 l 0,-3.08207 c 0,-4.56779 1.83344,-8.48755 5.50031,-11.71187 3.66688,-3.27174 7.79211,-4.91551 12.47054,-4.91551 l 54.75022,0 0,10.98482 z"
         id="path5391"
         style="fill:#ffffff;fill-opacity:1;fill-rule:nonzero;stroke:none" />
      <path
         d="m 460.60446,797.16259 -12.39151,0 -5.64256,-21.51128 -32.35384,0 2.63952,-11.26931 26.71128,0 c -0.47416,-1.89666 -2.0231,-8.51916 -3.05046,-12.24926 -1.04316,-3.7301 -3.1611,-5.59514 -6.3222,-5.59514 l -14.19333,0 c -3.25593,0 -5.37386,1.86504 -6.35381,5.59514 l -11.55381,45.02985 -12.42312,0 11.55382,-44.98243 c 2.90821,-11.07965 8.9143,-16.62738 18.03406,-16.62738 l 15.67905,0 c 9.16719,0 15.18908,5.54773 18.00246,16.62738 l 11.66445,44.98243 z"
         id="path5395"
         style="fill:#ffffff;fill-opacity:1;fill-rule:nonzero;stroke:none" />
      <path
         d="m 532.371,746.3717 -30.29912,0 0,50.6408 -11.60124,0 0,-50.6408 -29.88818,0 0,-10.98482 71.78854,0 0,10.98482 z"
         id="path5399"
         style="fill:#ffffff;fill-opacity:1;fill-rule:nonzero;stroke:none" />
      <path
         d="m 227.01042,607.07474 0,-80.84509 -26.09487,0 0,100.30165 82.42564,0 0,-19.45656 -56.33077,0 z"
         id="path5403"
         style="fill:#ffffff;fill-opacity:1;fill-rule:nonzero;stroke:none" />
      <path
         d="m 361.81862,594.48257 29.16113,-68.24812 31.23165,0 9.23041,100.28585 -25.43104,0 -6.6383,-61.56239 -26.14229,61.56239 -22.83893,0 -26.12648,-61.56239 -6.65411,61.56239 -25.41523,0 9.2146,-100.28585 31.21585,0 29.19274,68.24812 z"
         id="path5407"
         style="fill:#ffffff;fill-opacity:1;fill-rule:nonzero;stroke:none" />
      <path
         d="m 187.51882,626.52182 -26.11068,0 0,-100.30165 26.11068,0 0,100.30165 z"
         id="path5409"
         style="fill:#ffffff;fill-opacity:1;fill-rule:nonzero;stroke:none" />
      <path
         d="m 139.49073,585.08146 0,-19.45656 -54.260252,0 0,-19.94653 62.953272,0 0,-19.44075 -88.542363,0 0,100.28584 25.589091,0 0,-41.442 54.260252,0 z"
         id="path5413"
         style="fill:#ffffff;fill-opacity:1;fill-rule:nonzero;stroke:none" />
    </g>
  </g>
</svg>
