<?xml version="1.0" encoding="UTF-8" standalone="no"?>
<!-- Created with Inkscape (http://www.inkscape.org/) -->

<svg
   xmlns:dc="http://purl.org/dc/elements/1.1/"
   xmlns:cc="http://creativecommons.org/ns#"
   xmlns:rdf="http://www.w3.org/1999/02/22-rdf-syntax-ns#"
   xmlns:svg="http://www.w3.org/2000/svg"
   xmlns="http://www.w3.org/2000/svg"
   version="1.0"
   width="740.72113"
   height="755.25867"
   id="svg2">
  <metadata
     id="metadata10">
    <rdf:RDF>
      <cc:Work
         rdf:about="">
        <dc:format>image/svg+xml</dc:format>
        <dc:type
           rdf:resource="http://purl.org/dc/dcmitype/StillImage" />
        <dc:title></dc:title>
      </cc:Work>
    </rdf:RDF>
  </metadata>
  <defs
     id="defs4" />
  <g
     id="g3817">
    <rect
       width="596.84637"
       height="478.43716"
       x="88.006836"
       y="44.803482"
       id="rect3003"
       style="fill:#ffffff;fill-opacity:1;stroke:none" />
  </g>
  <rect
     width="625.64862"
     height="102.40795"
     x="60.804722"
     y="613.64795"
     id="rect3781"
     style="fill:#ffffff;fill-opacity:1;stroke:none" />
  <path
     d="M 38.029896,553.14875 C 19.211339,546.83081 5.6004975,534.89137 0,516.14978 L 0,42.477941 C 3.1846696,27.452951 12.402168,5.119254 35.203782,0 L 697.66861,1.543235 C 718.40893,2.647688 735.03756,18.55641 740.721,37.18945 l 0,515.9593 -702.691104,0 z M 400.60615,507.68866 c 38.90568,-2.63367 74.22581,-11.48889 109.54983,-27.46558 12.53064,-5.66745 29.21154,-14.87283 39.11873,-21.58772 16.59319,-11.24645 42.68247,-35.34475 41.52623,-38.3572 -0.56132,-1.46264 -3.60726,-1.59861 -29.92139,-1.33567 l -29.29636,0.29273 -9.66263,6.25974 c -33.39903,21.637 -71.12776,35.54163 -110.8122,40.83902 -17.23133,2.30016 -49.27895,2.28745 -66.51398,-0.0264 -32.01993,-4.29873 -59.60206,-14.32915 -83.61941,-30.40868 -43.2851,-28.97927 -67.9965,-70.59348 -73.85603,-124.37427 -1.34308,-12.32728 -1.35028,-38.58519 -0.0139,-50.28941 6.76642,-59.25947 37.84746,-109.59023 84.70031,-137.1588 44.572,-26.226504 105.39559,-35.076794 159.91044,-23.26817 74.16979,16.06612 121.21729,77.07068 118.13894,153.18584 -1.18925,29.40622 -7.26193,48.87803 -22.27068,71.41061 -11.98412,17.99161 -21.72527,26.8475 -37.78585,34.35201 l -8.17502,3.81987 -59.51251,0.64774 c -39.72614,0.43239 -60.00291,0.30986 -60.98741,-0.36851 -1.27727,-0.88004 -1.19345,-1.5929 0.62493,-5.31842 1.15494,-2.3662 4.14047,-7.00217 6.63459,-10.30217 6.35874,-8.41328 30.4476,-31.74 41.37839,-40.06923 29.09922,-22.17358 44.91475,-40.04925 52.94774,-59.84477 8.67512,-21.37793 8.32235,-44.50783 -0.97751,-64.086 -10.80277,-22.74227 -31.05243,-36.67969 -59.62494,-41.03862 -12.4488,-1.89915 -40.71265,-1.88001 -55.34322,0.0375 -23.45813,3.07445 -35.97016,8.63661 -49.2935,21.9132 -6.72571,6.7021 -8.91687,9.73621 -12.78848,17.70759 -4.88463,10.05729 -10.60173,29.99275 -10.60173,36.96797 0,3.20531 0.38858,3.95922 2.25047,4.36626 1.23776,0.2706 15.94425,1.64718 32.6811,3.05908 24.80802,2.09276 30.65345,2.32873 31.63625,1.27706 0.66304,-0.70952 1.92311,-4.55543 2.80009,-8.54648 3.28749,-14.96107 9.86378,-23.74509 20.03871,-26.76608 21.30658,-6.32605 39.83717,9.45654 36.45096,31.04547 -2.45012,15.62105 -11.17194,25.46767 -51.67886,58.34321 -43.72639,35.48852 -64.66172,62.19814 -74.56691,95.13385 -3.3337,11.08471 -5.31371,22.71778 -4.06585,23.88737 0.54261,0.50852 47.49112,1.04834 108.97604,1.25302 87.5293,0.29139 109.06632,0.10679 113.52386,-0.97305 15.90215,-3.85232 40.05012,-20.10484 58.67454,-39.49014 14.99495,-15.6077 23.40562,-29.43834 30.77017,-50.59902 8.5863,-24.67142 11.8921,-43.52059 11.85179,-67.57818 -0.0315,-18.79275 -1.51492,-30.16495 -6.27182,-48.08154 -8.64002,-32.54183 -24.2512,-60.53292 -46.01437,-82.50475 C 505.66974,77.843036 459.17016,58.508806 399.28367,54.667761 340.09204,50.871291 282.9956,64.322366 240.6764,92.033336 195.11222,121.8692 160.47594,170.22919 146.55911,223.44213 c -8.5998,32.88295 -9.90508,74.12404 -3.37981,106.7931 6.49457,32.51517 20.22296,63.4384 39.68395,89.38788 7.31464,9.75341 25.56237,28.62381 35.2045,36.4058 46.87506,37.83193 112.49038,56.40156 182.5384,51.65976 z"
     id="path2474"
     style="fill:#fc8a03" />
  <path
     d="M 40.9109,755.25867 C 26.1743,752.0566 9.7931,747.84069 0,727.39875 L 0,549.06921 c 10.6635,8.73622 16.91769,19.08319 34.6352,25.3969 l 706.08594,0 0,138.73281 c -4.93867,25.5401 -20.8233,35.20766 -41.9549,42.05975 l -657.85534,0 z m 58.7243,-81.55975 0.5,-31.5 26,-0.24421 c 19.4523,-0.1827 26.6296,0.0757 28.5,1.0261 2.3004,1.16889 2.5234,1.89448 2.7937,9.089 0.1843,4.90334 -0.141,8.34266 -0.8724,9.22391 -0.9312,1.12201 -5.2343,1.4052 -21.3526,1.4052 -14.788,0 -20.653,0.34117 -21.9311,1.27573 -1.4112,1.03187 -1.6867,2.51332 -1.4412,7.75 l 0.3036,6.47427 22.3676,0.26945 c 21.7707,0.26225 22.5075,0.20542 27.607,-2.1292 9.0516,-4.14398 12.5254,-10.82585 12.5254,-24.09313 0,-6.74737 -0.4424,-9.04206 -2.5634,-13.29855 -2.7953,-5.60944 -9.3101,-10.77923 -14.8304,-11.7686 -1.7084,-0.3062 -18.8562,-0.42695 -38.1062,-0.26834 l -35,0.28837 -0.2623,37.99684 c -0.1442,20.89827 -0.0382,38.58061 0.2355,39.29411 0.3598,0.93757 2.512,1.21571 7.7623,1.00315 l 7.2645,-0.2941 0.5,-31.5 z m 169.1205,30.45747 c 5.36141,-1.89161 10.50996,-6.63471 12.97962,-11.95747 1.63045,-3.51404 1.85593,-6.67278 1.85593,-26 0,-24.92262 -0.52875,-27.28358 -7.47637,-33.38367 -6.80428,-5.97425 -7.69008,-6.11633 -38.13188,-6.11633 -26.0616,0 -27.9739,0.12466 -32.0294,2.08791 -5.5868,2.70452 -10.8215,8.88165 -12.2145,14.41343 -1.7001,6.75175 -1.4317,41.0318 0.3687,47.09443 1.7202,5.79256 6.0479,10.3961 12.5274,13.32569 4.159,1.88046 6.5172,2.03628 31.1242,2.05658 21.4784,0.0177 27.4693,-0.27618 30.9963,-1.52057 z m -54.1205,-14.15708 c -4.9471,-0.97365 -5,-1.2206 -5,-23.35025 -0.50734,-22.86749 -0.32187,-20.10132 2.6348,-22.87756 2.49148,-1.95984 3.8816,-2.07258 25.5497,-2.07258 25.9351,0 28.255,0.49562 29.3378,6.26753 0.3367,1.7944 0.4694,11.22836 0.2949,20.96437 -0.2758,15.38792 -0.5504,17.9349 -2.101,19.48496 -1.6,1.59933 -4.1771,1.79821 -25,1.92935 -12.7689,0.0804 -24.3412,-0.0752 -25.7162,-0.34582 z m 157.15798,11.69961 c 0.40647,-1.925 0.48439,-5.15805 0.17317,-7.18456 l -0.56587,-3.68456 -23.34884,-0.31544 c -20.81682,-0.28123 -23.54229,-0.50892 -25.13266,-2.09958 -1.60751,-1.60782 -1.83323,-4.72105 -2.28381,-31.5 l -0.5,-29.71586 -7.5,0 -7.5,0 0,32.16521 0,32.1652 3.01708,4.29143 c 1.88872,2.68648 5.02911,5.34253 8.39701,7.10194 l 5.37995,2.81052 24.56247,-0.26715 24.56247,-0.26715 0.73903,-3.5 z m 94.34199,1.61671 c 9.3213,-4.40665 13.51521,-11.20085 13.47804,-21.83459 -0.0265,-7.58409 -2.34988,-13.23205 -7.08574,-17.22503 -6.65512,-5.61117 -8.18419,-5.87448 -37.68065,-6.48878 -30.39557,-0.63302 -29.16907,-0.30764 -29.19634,-7.74573 -0.0122,-3.33219 0.51781,-4.59677 2.61955,-6.25 2.54597,-2.00266 3.7598,-2.07258 35.98095,-2.07258 l 33.34609,0 0.58134,-2.31627 c 0.31974,-1.27395 0.44082,-4.53645 0.26905,-7.25 l -0.31229,-4.93373 -35.77518,-0.26266 c -31.43319,-0.23078 -36.16657,-0.0647 -39,1.36806 -10.2043,5.16006 -14.04152,11.14335 -14.04152,21.8946 0,8.32265 2.43922,13.9662 7.80544,18.05921 6.49122,4.9511 9.12737,5.34965 35.69616,5.3969 13.5767,0.0241 25.79751,0.4669 27.15737,0.98392 4.50072,1.71117 4.73066,11.79669 0.32645,14.31829 -1.55651,0.89116 -11.62554,1.38283 -35.66872,1.74168 l -33.5,0.5 -0.30402,5.88803 c -0.16721,3.23841 -0.0688,6.50091 0.21861,7.25 0.42727,1.11343 6.86964,1.36019 35.30403,1.3522 34.47885,-0.01 34.82487,-0.0303 39.78138,-2.37352 z m 45.80422,-2.36671 c 0.75993,-2.6125 4.24019,-15.94611 7.7339,-29.63023 3.49372,-13.68413 7.12375,-25.83413 8.06675,-27 1.52624,-1.88695 2.90517,-2.1506 12.55484,-2.40045 7.42556,-0.19227 11.6278,0.12791 13.34029,1.01641 2.60688,1.35255 5.35928,7.90525 6.61251,15.74253 l 0.64311,4.02174 -13.00537,0 c -9.20883,0 -13.2948,0.3649 -13.99685,1.25 -1.44409,1.82061 -3.55576,11.51967 -2.88731,13.26162 0.47359,1.23416 3.37379,1.48838 16.98008,1.48838 11.93137,0 16.67965,0.34109 17.40103,1.25 0.54564,0.6875 2.22303,5.975 3.72752,11.75 3.82626,14.68711 3.23723,14 12.00145,14 4.07319,0 7.67832,-0.44096 8.01141,-0.97991 0.77007,-1.24599 -13.95534,-58.00391 -16.60953,-64.02009 -2.53034,-5.73548 -6.31228,-9.75876 -11.37805,-12.10414 -3.33374,-1.54347 -6.54548,-1.85559 -19.28212,-1.8739 -10.60763,-0.0152 -16.2664,0.39051 -18.5,1.3265 -5.20956,2.18308 -9.44889,6.38603 -12.05112,11.9477 -2.55102,5.45223 -16.66676,59.02975 -16.66676,63.26014 0,2.38697 0.18483,2.4437 7.96126,2.4437 l 7.96126,0 1.3817,-4.75 z m 126.69578,-27.25 0.5,-31.5 14.931,-0.27777 c 8.92968,-0.16612 15.46115,-0.71776 16.25,-1.37244 1.35086,-1.12112 1.82888,-9.35748 0.71201,-12.268 -0.53947,-1.40585 -5.04914,-1.58179 -40.54381,-1.58179 l -39.93682,0 0.29381,7.25 0.29381,7.25 15.5,0.5 15.5,0.5 0.25289,30.5 c 0.13908,16.775 0.47007,31.08235 0.73553,31.7941 0.3486,0.93468 2.50029,1.21242 7.74712,1 l 7.26446,-0.2941 0.5,-31.5 z"
     id="path2472"
     style="fill:#e41b04" />
</svg>
