<?xml version="1.0" encoding="UTF-8" standalone="no"?>
<!-- Created with Inkscape (http://www.inkscape.org/) -->

<svg
   xmlns:dc="http://purl.org/dc/elements/1.1/"
   xmlns:cc="http://creativecommons.org/ns#"
   xmlns:rdf="http://www.w3.org/1999/02/22-rdf-syntax-ns#"
   xmlns:svg="http://www.w3.org/2000/svg"
   xmlns="http://www.w3.org/2000/svg"
   version="1.1"
   width="599.99994"
   height="754.63062"
   id="svg13624">
  <defs
     id="defs13626">
    <clipPath
       id="clipPath6749">
      <path
         d="m 0,0 841.89,0 0,595.276 L 0,595.276 0,0 z"
         id="path6751" />
    </clipPath>
    <clipPath
       id="clipPath6729">
      <path
         d="m 0,0 841.89,0 0,595.276 L 0,595.276 0,0 z"
         id="path6731" />
    </clipPath>
    <clipPath
       id="clipPath6685">
      <path
         d="m 0,0 841.89,0 0,595.276 L 0,595.276 0,0 z"
         id="path6687" />
    </clipPath>
  </defs>
  <metadata
     id="metadata13629">
    <rdf:RDF>
      <cc:Work
         rdf:about="">
        <dc:format>image/svg+xml</dc:format>
        <dc:type
           rdf:resource="http://purl.org/dc/dcmitype/StillImage" />
        <dc:title></dc:title>
      </cc:Work>
    </rdf:RDF>
  </metadata>
  <g
     transform="translate(-50.000068,-155.04684)"
     id="layer1">
    <g
       id="g13741">
      <g
         transform="matrix(15.099468,0,0,-15.099468,647.82567,312.44674)"
         id="g6677">
        <path
           d="m 0,0 -0.248,-0.761 -0.002,0 -0.249,0.761 -0.144,0 0,-0.898 0.081,0 0,0.831 0.273,-0.831 0.079,0 0.272,0.831 0,-0.831 0.082,0 L 0.144,0 0,0 z"
           id="path6679"
           style="fill:#b50938;fill-opacity:1;fill-rule:nonzero;stroke:none" />
      </g>
      <g
         transform="matrix(15.099468,0,0,-15.099468,-1549.1106,3165.9472)"
         id="g6681">
        <g
           clip-path="url(#clipPath6685)"
           id="g6683">
          <g
             transform="translate(144.9781,179.8684)"
             id="g6689">
            <path
               d="m 0,0 c 0,-10.791 -8.747,-19.536 -19.537,-19.536 -10.789,0 -19.536,8.745 -19.536,19.536 0,10.789 8.747,19.536 19.536,19.536 C -8.747,19.536 0,10.789 0,0"
               id="path6691"
               style="fill:#b50938;fill-opacity:1;fill-rule:nonzero;stroke:none" />
          </g>
          <g
             transform="translate(112.6624,173.9829)"
             id="g6693">
            <path
               d="m 0,0 c 0.337,1.608 0.687,5.172 1.13,9.448 l 1.517,0.003 0.108,0.671 -1.541,-0.005 c 0.14,1.322 0.394,4.178 1.632,4.693 0.336,-0.582 0.655,-1.03 1.365,-1.043 0.461,-0.008 0.868,0.196 0.877,0.695 0.013,0.71 -1.077,0.999 -1.634,1.009 -1.036,0.019 -3.981,-0.368 -4.708,-4.332 L -1.439,10.117 -2.637,10.108 -2.744,9.438 -1.541,9.434 C -1.886,6.328 -2.573,0.047 -2.762,-0.814 -3.177,-2.706 -3.322,-3.156 -4.265,-3.67 -4.15,-3.872 -4.033,-4.073 -3.914,-4.271 -2.3,-3.774 -0.484,-2.303 0,0"
               id="path6695"
               style="fill:#ffffff;fill-opacity:1;fill-rule:nonzero;stroke:none" />
          </g>
          <g
             transform="translate(115.2441,178.521)"
             id="g6697">
            <path
               d="m 0,0 c 0,3.044 1.992,5.681 5.294,5.681 2.029,0 3.228,-0.904 3.228,-2.877 0,-3.043 -1.993,-5.681 -5.294,-5.681 C 1.199,-2.877 0,-1.973 0,0 m 5.847,2.305 c 0,0.794 -0.055,2.675 -1.217,2.675 -1.716,0 -1.955,-3.301 -1.955,-4.5 0,-0.775 0.055,-2.656 1.217,-2.656 1.715,0 1.955,3.301 1.955,4.481"
               id="path6699"
               style="fill:#ffffff;fill-opacity:1;fill-rule:nonzero;stroke:none" />
          </g>
          <g
             transform="translate(124.465,178.521)"
             id="g6701">
            <path
               d="m 0,0 c 0,3.044 1.994,5.681 5.294,5.681 2.03,0 3.228,-0.904 3.228,-2.877 0,-3.043 -1.991,-5.681 -5.294,-5.681 C 1.199,-2.877 0,-1.973 0,0 m 5.848,2.305 c 0,0.794 -0.056,2.675 -1.217,2.675 -1.717,0 -1.956,-3.301 -1.956,-4.5 0,-0.775 0.055,-2.656 1.217,-2.656 1.716,0 1.956,3.301 1.956,4.481"
               id="path6703"
               style="fill:#ffffff;fill-opacity:1;fill-rule:nonzero;stroke:none" />
          </g>
          <g
             transform="translate(143.0198,176.6586)"
             id="g6705">
            <path
               d="m 0,0 c -1.162,-0.554 -2.582,-1.014 -3.559,-1.014 -0.498,0 -0.48,0.793 -0.48,1.125 0,0.387 0.036,0.922 0.128,1.954 l -0.035,0.038 c -0.664,-1.328 -1.956,-3.117 -3.616,-3.117 -1.328,0 -1.882,1.383 -1.882,2.527 0,2.895 2.288,5.902 5.479,5.902 l 0.664,0 c 0.258,2.011 0.277,2.858 0.277,3.467 0,0.203 0,0.387 -0.221,0.387 -0.167,0 -0.426,-0.055 -1.071,-0.258 l -0.165,0.535 c 1.308,0.461 2.729,0.756 4.002,0.793 0.166,0 0.221,0 0.221,-0.276 0,-1.697 -1.272,-10.459 -1.272,-11.343 0,-0.241 0,-0.554 0.24,-0.554 0.128,0 0.553,0.148 1.125,0.35 L 0,0 z m -4.223,2.748 c 0.442,1.144 0.589,2.195 0.831,3.91 -0.094,0.037 -0.204,0.055 -0.297,0.055 -2.028,0 -2.987,-2.95 -2.987,-4.592 0,-0.406 0.092,-1.384 0.682,-1.384 0.812,0 1.531,1.384 1.771,2.011"
               id="path6707"
               style="fill:#ffffff;fill-opacity:1;fill-rule:nonzero;stroke:none" />
          </g>
          <g
             transform="translate(118.0107,171.1034)"
             id="g6709">
            <path
               d="m 0,0 0,2.359 0.517,0 0,-0.253 c 0.209,0.145 0.449,0.299 0.726,0.299 0.472,0 0.699,-0.309 0.699,-0.789 l 0,-1.616 -0.563,0 0,1.534 c 0,0.318 -0.099,0.417 -0.29,0.417 -0.245,0 -0.431,-0.14 -0.527,-0.249 L 0.562,0 0,0 z"
               id="path6711"
               style="fill:#ffffff;fill-opacity:1;fill-rule:nonzero;stroke:none" />
          </g>
          <g
             transform="translate(121.4595,172.1924)"
             id="g6713">
            <path
               d="m 0,0 c 0.009,-0.49 0.227,-0.681 0.49,-0.681 0.263,0 0.386,0.118 0.527,0.282 L 1.425,-0.654 C 1.208,-0.99 0.889,-1.135 0.436,-1.135 c -0.613,0 -0.999,0.478 -0.999,1.226 0,0.749 0.386,1.225 1.026,1.225 C 1.08,1.321 1.425,0.799 1.425,0.232 L 1.425,0 0,0 z M 0.907,0.381 C 0.899,0.708 0.725,0.899 0.453,0.899 0.181,0.899 0.009,0.708 0,0.381 l 0.907,0 z"
               id="path6715"
               style="fill:#ffffff;fill-opacity:1;fill-rule:nonzero;stroke:none" />
          </g>
          <g
             transform="translate(123.9824,173.4628)"
             id="g6717">
            <path
               d="m 0,0 0,0.781 0.563,0 0,-0.781 0.463,0 0,-0.453 -0.463,0 0,-1.334 c 0,-0.128 0.064,-0.164 0.204,-0.164 0.087,0 0.177,0.027 0.259,0.045 l 0,-0.463 C 0.872,-2.386 0.736,-2.406 0.582,-2.406 0.164,-2.406 0,-2.196 0,-1.861 l 0,1.408 -0.326,0 0,0.453 L 0,0 z"
               id="path6719"
               style="fill:#ffffff;fill-opacity:1;fill-rule:nonzero;stroke:none" />
          </g>
        </g>
      </g>
      <g
         transform="matrix(15.099468,0,0,-15.099468,348.93014,546.75122)"
         id="g6721">
        <path
           d="m 0,0 0.535,0 0.323,-1.47 0.009,0 0.341,1.47 0.521,0 0.327,-1.47 0.009,0 0.336,1.47 0.535,0 -0.608,-2.359 -0.509,0 -0.348,1.469 -0.009,0 -0.346,-1.469 -0.508,0 L 0,0 z"
           id="path6723"
           style="fill:#ffffff;fill-opacity:1;fill-rule:nonzero;stroke:none" />
      </g>
      <g
         transform="matrix(15.099468,0,0,-15.099468,-1549.1106,3165.9472)"
         id="g6725">
        <g
           clip-path="url(#clipPath6729)"
           id="g6727">
          <g
             transform="translate(130.3633,173.5088)"
             id="g6733">
            <path
               d="M 0,0 C 0.64,0 1.026,-0.477 1.026,-1.225 1.026,-1.974 0.64,-2.452 0,-2.452 c -0.64,0 -1.026,0.478 -1.026,1.227 C -1.026,-0.477 -0.64,0 0,0 m 0,-0.454 c -0.313,0 -0.463,-0.245 -0.463,-0.771 0,-0.528 0.15,-0.772 0.463,-0.772 0.313,0 0.463,0.244 0.463,0.772 0,0.526 -0.15,0.771 -0.463,0.771"
               id="path6735"
               style="fill:#ffffff;fill-opacity:1;fill-rule:nonzero;stroke:none" />
          </g>
          <g
             transform="translate(132.2969,171.1034)"
             id="g6737">
            <path
               d="m 0,0 0,2.359 0.518,0 0,-0.403 0.009,0 c 0.135,0.281 0.326,0.44 0.662,0.449 l 0,-0.594 C 1.162,1.815 1.13,1.815 1.089,1.815 0.807,1.815 0.562,1.493 0.562,1.434 L 0.562,0 0,0 z"
               id="path6739"
               style="fill:#ffffff;fill-opacity:1;fill-rule:nonzero;stroke:none" />
          </g>
        </g>
      </g>
      <g
         transform="matrix(15.099468,0,0,-15.099468,480.09173,582.3769)"
         id="g6741">
        <path
           d="m 0,0 0,3.277 0.563,0 0,-1.829 0.018,0 0.694,0.911 0.645,0 L 1.225,1.48 1.97,0 1.37,0 0.848,1.057 0.563,0.726 0.563,0 0,0 z"
           id="path6743"
           style="fill:#ffffff;fill-opacity:1;fill-rule:nonzero;stroke:none" />
      </g>
      <g
         transform="matrix(15.099468,0,0,-15.099468,-1549.1106,3165.9472)"
         id="g6745">
        <g
           clip-path="url(#clipPath6749)"
           id="g6747">
          <g
             transform="translate(108.7488,159.3611)"
             id="g6753">
            <path
               d="m 0,0 0,-7.329 c 0,-1.439 1.168,-2.605 2.613,-2.605 l 30.349,0 c 1.443,0 2.611,1.166 2.611,2.605 l 0,6.071 -32.96,0 C 1.555,-1.258 0.614,-0.764 0,0"
               id="path6755"
               style="fill:#adafb2;fill-opacity:1;fill-rule:nonzero;stroke:none" />
          </g>
          <g
             transform="translate(117.1382,154.2054)"
             id="g6757">
            <path
               d="m 0,0 c 0,-0.299 -0.104,-0.538 -0.315,-0.722 -0.21,-0.183 -0.467,-0.274 -0.769,-0.274 l -1.843,0 0,0.682 1.843,0 c 0.255,0 0.384,0.105 0.384,0.314 l 0,0.438 c 0,0.224 -0.129,0.337 -0.384,0.337 l -2.495,0 0,-3.052 -0.7,0 0,3.717 3.191,0 c 0.303,0 0.56,-0.094 0.771,-0.282 C -0.104,0.971 0,0.731 0,0.438 L 0,0 z"
               id="path6759"
               style="fill:#ffffff;fill-opacity:1;fill-rule:nonzero;stroke:none" />
          </g>
          <g
             transform="translate(122.3535,152.9338)"
             id="g6761">
            <path
               d="m 0,0 c 0,-0.295 -0.107,-0.537 -0.319,-0.722 -0.215,-0.191 -0.469,-0.283 -0.77,-0.283 l -2.073,0 c -0.299,0 -0.556,0.092 -0.769,0.283 -0.212,0.185 -0.32,0.427 -0.32,0.722 l 0,1.716 c 0,0.276 0.109,0.513 0.331,0.709 0.222,0.197 0.475,0.295 0.758,0.295 l 2.073,0 c 0.283,0 0.534,-0.098 0.757,-0.295 C -0.112,2.229 0,1.992 0,1.716 L 0,0 z m -0.699,-0.007 0,1.723 c 0,0.089 -0.042,0.169 -0.124,0.236 -0.08,0.07 -0.169,0.105 -0.263,0.105 l -2.079,0 C -3.26,2.057 -3.347,2.022 -3.43,1.952 -3.509,1.885 -3.552,1.805 -3.552,1.716 l 0,-1.723 c 0,-0.223 0.13,-0.334 0.387,-0.334 l 2.079,0 c 0.257,0 0.387,0.111 0.387,0.334"
               id="path6763"
               style="fill:#ffffff;fill-opacity:1;fill-rule:nonzero;stroke:none" />
          </g>
          <g
             transform="translate(126.5827,151.9283)"
             id="g6765">
            <path
               d="M 0,0 -2.066,0 C -2.366,0 -2.62,0.093 -2.832,0.283 -3.044,0.469 -3.15,0.71 -3.15,1.005 l 0,2.721 0.7,0 0,-2.727 c 0,-0.224 0.128,-0.335 0.384,-0.335 L 0,0.664 0,0 z"
               id="path6767"
               style="fill:#ffffff;fill-opacity:1;fill-rule:nonzero;stroke:none" />
          </g>
          <g
             transform="translate(131.6696,154.9904)"
             id="g6769">
            <path
               d="M 0,0 -3.106,0 C -3.2,0 -3.287,-0.035 -3.37,-0.102 -3.449,-0.172 -3.491,-0.251 -3.491,-0.34 l 0,-0.187 c 0,-0.222 0.13,-0.334 0.385,-0.334 l 2.078,-0.006 c 0.298,0 0.552,-0.09 0.763,-0.268 0.218,-0.194 0.327,-0.436 0.327,-0.731 l 0,-0.192 c 0,-0.281 -0.112,-0.52 -0.333,-0.713 -0.222,-0.194 -0.472,-0.291 -0.755,-0.291 l -3.107,0 0,0.664 3.109,0 c 0.094,0 0.182,0.033 0.262,0.099 0.083,0.066 0.123,0.147 0.123,0.241 l 0,0.193 c 0,0.223 -0.13,0.334 -0.385,0.334 l -2.078,0.005 c -0.299,0 -0.556,0.094 -0.768,0.279 -0.215,0.187 -0.32,0.426 -0.32,0.72 l 0,0.187 c 0,0.276 0.11,0.512 0.333,0.709 0.22,0.196 0.472,0.295 0.753,0.295 L 0,0.664 0,0 z"
               id="path6771"
               style="fill:#ffffff;fill-opacity:1;fill-rule:nonzero;stroke:none" />
          </g>
          <g
             transform="translate(137.0048,151.9191)"
             id="g6773">
            <path
               d="m 0,0 -0.751,0 -0.343,1.301 -1.702,0 0.162,0.681 1.361,0 c -0.029,0.114 -0.124,0.516 -0.186,0.742 -0.062,0.224 -0.188,0.337 -0.38,0.337 l -0.86,0 c -0.196,0 -0.323,-0.113 -0.385,-0.339 L -3.781,0 -4.532,0 -3.833,2.719 c 0.176,0.672 0.541,1.007 1.088,1.007 l 0.949,0 c 0.556,0 0.918,-0.335 1.09,-1.007 L 0,0 z"
               id="path6775"
               style="fill:#ffffff;fill-opacity:1;fill-rule:nonzero;stroke:none" />
          </g>
        </g>
      </g>
      <g
         transform="matrix(15.099468,0,0,-15.099468,578.21556,825.67463)"
         id="g6777">
        <path
           d="m 0,0 -1.557,0 0,-3.062 -0.702,0 0,3.062 -1.532,0 0,0.664 L 0,0.664 0,0 z"
           id="path6779"
           style="fill:#ffffff;fill-opacity:1;fill-rule:nonzero;stroke:none" />
      </g>
    </g>
  </g>
</svg>
