<?xml version="1.0" encoding="UTF-8" standalone="no"?>
<svg xmlns:rdf="http://www.w3.org/1999/02/22-rdf-syntax-ns#" xmlns="http://www.w3.org/2000/svg" xmlns:cc="http://creativecommons.org/ns#" xmlns:dc="http://purl.org/dc/elements/1.1/" height="1038.5" width="600" version="1.1" viewBox="0 0 158.75 274.75888">
  <defs>
    <linearGradient id="a" gradientUnits="userSpaceOnUse" gradientTransform="matrix(143.66 -171.21 171.21 143.66 68.777 176.89)" x1="0" x2="1" y1="0" y2="0">
      <stop stop-color="#240d0e" offset="0"/>
      <stop stop-color="#d8121a" offset=".98979"/>
      <stop stop-color="#d8121a" offset="1"/>
    </linearGradient>
  </defs>
  <g transform="translate(-61.232 -12.006)">
    <path d="m61.232 242.44v32.7c0 6.43 5.219 11.62 11.664 11.62h135.43c6.42 0 11.65-5.19 11.65-11.62v-27.08h-147.08c-4.722 0-8.915-2.21-11.668-5.62" fill="#a61b17"/>
    <g fill="#fff">
      <path d="m98.69 265.45c0 1.32-0.484 2.4-1.403 3.22-0.944 0.82-2.09 1.22-3.442 1.22h-8.23v-3.04h8.23c1.137 0 1.709-0.47 1.709-1.4v-1.96c0-1.01-0.572-1.5-1.709-1.5h-11.144v13.61h-3.129v-16.58h14.249c1.354 0 2.504 0.43 3.453 1.26 0.932 0.83 1.416 1.91 1.416 3.21"/>
      <path d="m118.82 271.16v-7.7c0-0.39-0.17-0.75-0.54-1.06-0.37-0.3-0.76-0.46-1.17-0.46h-9.28c-0.43 0-0.82 0.16-1.18 0.46-0.35 0.31-0.54 0.67-0.54 1.06v7.7c0 0.99 0.57 1.49 1.72 1.49h9.28c1.14 0 1.71-0.5 1.71-1.49m3.13-0.03c0 1.3-0.47 2.38-1.44 3.22-0.95 0.83-2.08 1.25-3.41 1.25h-9.25c-1.33 0-2.49-0.42-3.44-1.25-0.97-0.84-1.42-1.92-1.42-3.22v-7.67c0-1.23 0.48-2.28 1.48-3.16 0.99-0.87 2.11-1.31 3.38-1.31h9.25c1.25 0 2.38 0.44 3.36 1.31 0.99 0.88 1.49 1.93 1.49 3.16"/>
      <path d="m140.82 275.6h-9.22c-1.34 0-2.47-0.41-3.43-1.25-0.93-0.84-1.41-1.92-1.41-3.22v-12.14h3.12v12.17c0 0.99 0.57 1.49 1.72 1.49h9.22"/>
      <path d="m163.52 261.94h-13.86c-0.42 0-0.81 0.16-1.18 0.46-0.35 0.31-0.53 0.68-0.53 1.06v0.83c0 1 0.57 1.49 1.71 1.49l9.27 0.02c1.32 0 2.47 0.4 3.4 1.21 0.98 0.86 1.46 1.95 1.46 3.26v0.87c0 1.24-0.5 2.31-1.48 3.17-0.99 0.87-2.11 1.29-3.37 1.29h-13.86v-2.95h13.87c0.42 0 0.81-0.16 1.17-0.45 0.36-0.3 0.53-0.66 0.53-1.06v-0.87c0-1.01-0.56-1.48-1.7-1.48l-9.27-0.05c-1.34 0-2.47-0.4-3.43-1.23-0.96-0.84-1.43-1.9-1.43-3.22v-0.83c0-1.23 0.5-2.28 1.48-3.17 0.99-0.86 2.12-1.3 3.38-1.3h13.84"/>
      <path d="m187.32 275.65h-3.34l-1.52-5.8h-7.6l0.71-3.05h6.08c-0.14-0.5-0.55-2.31-0.84-3.31-0.27-1-0.84-1.51-1.69-1.51h-3.84c-0.87 0-1.44 0.51-1.72 1.51l-3.11 12.16h-3.34l3.11-12.15c0.78-2.98 2.41-4.48 4.87-4.48h4.23c2.46 0 4.09 1.5 4.85 4.48"/>
      <path d="m204.64 261.94h-6.94v13.66h-3.13v-13.66h-6.83v-2.95h16.9"/>
    </g>
    <g stroke-width=".26456">
      <path d="m61.239 176.74h158.56v30.9h-158.56l-0.001-30.9z" fill="#9d9d9c"/>
      <path d="m154.39 190.97c-0.95-0.48-2.02-0.63-4.83-0.63h-3.66c-1.16 0-1.64-0.47-1.64-1.58v-0.23c0-0.06 0-0.1 0.02-0.16 0.04-0.99 0.54-1.43 1.62-1.43h3.99c0.54 0 0.95 0.1 1.19 0.32 0.03 0.01 0.06 0.04 0.08 0.06 0.19 0.2 0.3 0.49 0.33 0.87 0.47-0.03 4.25-0.33 4.75-0.38-0.09-0.46-0.2-0.89-0.34-1.28-0.9-2.72-2.8-3.74-6.6-3.74h-2.89c-4.69 0-6.98 1.56-6.98 4.78v2.19c0 1.69 0.67 2.96 1.91 3.56 0.95 0.5 2.02 0.63 4.82 0.63h3.65c1.17 0 1.65 0.45 1.65 1.56v0.27c0 1.11-0.49 1.6-1.65 1.6h-3.97c-0.6 0-1.01-0.13-1.27-0.41-0.21-0.22-0.31-0.51-0.34-0.9-0.45 0.03-4.26 0.19-4.76 0.2 0.57 3.84 2.48 5.29 6.94 5.29h2.89c4.72 0 7-1.58 7-4.82v-2.21c0-1.69-0.69-2.96-1.91-3.56m40.45-8.02h-18.58v4.44h6.68v14.1h5.21v-14.1h6.69v-4.44zm-69.55 13.08 2.38-6.39 2.39 6.39h-4.77zm4.22-13.08h-3.71l-8.01 18.63h5.41l0.77-2.11h7.39l0.79 2.11h5.36l-8-18.63zm35.96 13.08 2.4-6.4 2.39 6.4h-4.79zm4.24-13.08h-3.71l-8.02 18.63h5.4l0.79-2.11h7.39l0.79 2.11h5.36l-8-18.63zm-73.639 11.94-4.47-11.94h-5.404l8.004 18.63h3.711l8.018-18.63h-5.37l-4.489 11.94zm13.239 6.6h5.21v-18.54h-5.21v18.54z" fill="#fff"/>
      <path fill="url(#a)" d="m61.239 12.006v158.56h158.73l-22.39-43.49h-77.05v-17.22h60.14v-38.271h-60.14v-16.098h75.93l23.51-43.485h-158.73z"/>
    </g>
    <g stroke-width=".26456" fill="#a61b17">
      <path d="m61.239 213.8h19.077v4.96h-13.584v5.14h11.948v4.96h-11.948v5.32h13.76v4.95h-19.253v-25.33z"/>
      <path d="m90.156 226.26-8.473-12.45h6.515l5.317 8.21 5.361-8.21h6.344l-8.477 12.37 8.837 12.96h-6.529l-5.682-8.68-5.711 8.68h-6.34l8.838-12.88z"/>
      <path d="m117.48 226.58c1.39 0 2.49-0.37 3.26-1.1 0.77-0.74 1.15-1.65 1.15-2.75v-0.05c0-1.26-0.39-2.22-1.21-2.87-0.8-0.65-1.91-0.98-3.3-0.98h-4.31v7.75h4.41zm-9.99-12.78h10.36c1.52 0 2.87 0.21 4.07 0.64 1.19 0.42 2.19 1.02 3.03 1.78 0.83 0.77 1.49 1.71 1.92 2.78 0.46 1.08 0.68 2.26 0.68 3.57v0.06c0 1.48-0.28 2.76-0.81 3.87-0.52 1.13-1.25 2.05-2.17 2.79-0.95 0.75-2.03 1.32-3.28 1.68-1.24 0.38-2.57 0.57-3.98 0.57h-4.24v7.6h-5.58v-25.34z"/>
      <path d="m129.43 213.8h5.58v20.26h12.63v5.07h-18.21v-25.33z"/>
      <path d="m160.52 234.44c1.14 0 2.16-0.2 3.1-0.61 0.92-0.41 1.72-0.98 2.38-1.71 0.67-0.73 1.18-1.56 1.56-2.51s0.56-1.98 0.56-3.06v-0.07c0-1.09-0.18-2.12-0.56-3.08-0.38-0.97-0.9-1.81-1.59-2.54-0.69-0.72-1.5-1.3-2.42-1.71-0.94-0.43-1.98-0.64-3.1-0.64-1.11 0-2.13 0.21-3.08 0.62-0.94 0.41-1.74 0.97-2.4 1.7-0.67 0.73-1.18 1.56-1.56 2.51s-0.57 1.97-0.57 3.07v0.07c0 1.08 0.19 2.1 0.57 3.07 0.38 0.96 0.9 1.81 1.59 2.54 0.69 0.72 1.51 1.29 2.44 1.71 0.94 0.44 1.97 0.64 3.08 0.64m-0.07 5.14c-1.96 0-3.75-0.35-5.39-1.03-1.65-0.69-3.07-1.63-4.27-2.79-1.18-1.17-2.11-2.55-2.77-4.14-0.67-1.57-1.01-3.27-1.01-5.07v-0.07c0-1.81 0.34-3.5 1.02-5.1 0.68-1.57 1.61-2.96 2.81-4.16 1.2-1.18 2.61-2.13 4.26-2.82 1.67-0.69 3.47-1.04 5.42-1.04 1.96 0 3.76 0.35 5.39 1.04 1.64 0.69 3.07 1.62 4.25 2.79 1.2 1.17 2.14 2.54 2.79 4.12 0.66 1.59 1 3.29 1 5.1v0.07c0 1.8-0.34 3.51-1.01 5.08-0.67 1.58-1.62 2.97-2.81 4.17s-2.62 2.13-4.28 2.82c-1.65 0.68-3.44 1.03-5.4 1.03"/>
      <path d="m187.88 226.15c1.39 0 2.43-0.33 3.17-0.99 0.73-0.66 1.11-1.52 1.11-2.61v-0.08c0-1.21-0.39-2.12-1.17-2.73-0.77-0.6-1.84-0.91-3.21-0.91h-5.53v7.32h5.63zm-11.21-12.34h11.58c3.2 0 5.67 0.85 7.39 2.57 1.43 1.45 2.16 3.38 2.16 5.79v0.07c0 2.06-0.49 3.72-1.49 5.01-1.01 1.28-2.32 2.23-3.93 2.85l6.18 9.04h-6.51l-5.44-8.09h-0.06-4.3v8.09h-5.58v-25.33z"/>
      <path d="m200.59 213.8h19.07v4.96h-13.57v5.14h11.94v4.96h-11.94v5.32h13.75v4.95h-19.25v-25.33z"/>
    </g>
  </g>
</svg>
