<?xml version="1.0" encoding="UTF-8" standalone="no"?>
<svg xmlns:rdf="http://www.w3.org/1999/02/22-rdf-syntax-ns#" xmlns="http://www.w3.org/2000/svg" height="544.21" width="600" version="1.1" xmlns:cc="http://creativecommons.org/ns#" xmlns:dc="http://purl.org/dc/elements/1.1/" viewBox="0 0 158.75 143.98986">
 <g transform="translate(64.228 91.95)">
  <path d="m50.487 20.527c-2.296-0.006-4.306-1.103-5.615-2.777h-98.782c-4.174 0-7.894-1.943-10.318-4.965v28.958c0 5.685 4.618 10.297 10.318 10.297h119.93c5.694 0 10.315-4.612 10.315-10.297v-21.242l-25.848 0.026z" fill="#4a215a"/>
  <path d="m67.546-77.633c0-2.897-2.36-5.254-5.268-5.254h-17.383v11.196c0 2.902 2.357 5.256 5.265 5.256h12.118c2.908 0 5.268-2.354 5.268-5.256v-5.942zm0 21.224c0-2.9-2.36-5.257-5.268-5.257l-17.383 0.006v11.196c0 2.902 2.357 5.25 5.265 5.25h12.118c2.908 0 5.268-2.348 5.268-5.25v-5.945zm0 21.244c0-2.902-2.36-5.256-5.268-5.256h-17.383v11.195c0 2.903 2.357 5.254 5.265 5.254h12.118c2.908 0 5.268-2.351 5.268-5.254v-5.939zm-24.2 48.729-97.256 0.006c-5.7 0-10.318-4.6089-10.318-10.297v-84.932c0-5.679 4.618-10.291 10.318-10.291h119.93c5.694 0 10.315 4.612 10.315 10.291v62.827l-25.688-0.044c-0.055-0.003-0.11-0.003-0.151 0-3.932 0.044-7.094 3.229-7.109 7.164l-0.061 25.052h0.006c-0.003 0.003-0.006 0.008-0.006 0.011v0.021c0 0.064 0.017 0.131 0.02 0.192" fill="#252323"/>
  <g fill="#fff">
   <path d="m-29.991 33.204c0 1.161-0.408 2.092-1.225 2.804-0.814 0.706-1.805 1.062-2.984 1.062h-8.742v-2.649h8.742c0.998 0 1.494-0.403 1.494-1.217v-1.694c0-0.875-0.496-1.31-1.494-1.31h-10.735v11.837h-2.718v-14.413h13.441c1.176 0 2.171 0.362 2.993 1.088 0.817 0.727 1.228 1.663 1.228 2.798v1.694z"/>
   <path d="m-9.3294 38.14c0 1.135-0.4142 2.071-1.2426 2.8-0.831 0.733-1.823 1.097-2.984 1.097h-9.107c-1.164 0-2.156-0.364-2.981-1.097-0.829-0.729-1.243-1.665-1.243-2.8v-6.654c0-1.076 0.429-1.992 1.286-2.75 0.861-0.768 1.838-1.15 2.938-1.15h9.107c1.094 0 2.077 0.382 2.934 1.15 0.8579 0.758 1.2926 1.674 1.2926 2.75v6.654zm-2.7186 0.023v-6.68c0-0.347-0.158-0.653-0.476-0.918-0.312-0.272-0.659-0.406-1.015-0.406h-9.139c-0.364 0-0.706 0.134-1.021 0.406-0.312 0.265-0.469 0.571-0.469 0.918v6.68c0 0.867 0.496 1.301 1.49 1.301h9.139c0.992 0 1.491-0.434 1.491-1.301"/>
   <path d="m6.1716 42.037h-8.013c-1.1639 0-2.1499-0.364-2.9783-1.097-0.8197-0.729-1.2339-1.665-1.2339-2.8v-10.554h2.7157v10.577c0 0.867 0.4959 1.301 1.4965 1.301h8.013v2.573z"/>
   <path d="m26.331 30.159h-12.852c-0.365 0-0.697 0.134-1.012 0.406-0.313 0.262-0.47 0.571-0.47 0.918v0.724c0 0.863 0.496 1.289 1.482 1.289l8.593 0.026c1.161 0 2.144 0.35 2.958 1.045 0.846 0.746 1.266 1.686 1.266 2.829v0.744c0 1.091-0.432 2.016-1.286 2.765-0.864 0.759-1.835 1.132-2.926 1.132h-12.844l0.0003-2.573h12.847c0.367 0 0.706-0.131 1.018-0.388 0.321-0.259 0.472-0.571 0.472-0.93v-0.756c0-0.86-0.498-1.283-1.49-1.283l-8.591-0.032c-1.158 0-2.153-0.362-2.981-1.079-0.8284-0.721-1.2368-1.652-1.2368-2.789v-0.724c0-1.073 0.4288-1.989 1.2868-2.747 0.857-0.768 1.829-1.15 2.928-1.15h12.838v2.573z"/>
   <path d="m46.38 42.075h-2.906l-1.33-5.046h-7.584l0.621-2.643h6.26c-0.113-0.444-0.475-2.001-0.714-2.876-0.24-0.875-0.735-1.31-1.482-1.31h-3.329c-0.761 0-1.254 0.435-1.493 1.313l-2.707 10.562h-2.908l2.707-10.551c0.679-2.599 2.091-3.9 4.229-3.9h3.676c2.15 0 3.561 1.301 4.227 3.9l2.733 10.551z"/>
   <path d="m63.202 30.159h-7.103v11.878h-2.718v-11.878h-7.016v-2.573h16.837v2.573z"/>
   <path d="m-8.4018-2.4998v-18.966h-6.1202v23.523l19.328-0.0004 0.0005-4.5564h-13.208z"/>
   <path d="m23.213-5.4606 6.837-16.005h7.325l2.159 23.523-5.963-0.0004-1.558-14.437-6.122 14.437-5.365-0.0004-6.12-14.437-1.563 14.437-5.9596-0.0004 2.1615-23.523h7.3221l6.846 16.005z"/>
   <path d="m-17.669 2.0566h-6.123v-23.523h6.123v23.523z"/>
   <path d="m-28.929-7.6629v-4.5561h-12.724v-4.685h14.766v-4.562h-20.766v23.523l6-0.0004v-9.7195h12.724z"/>
  </g>
  <path d="m94.458 13.424c-0.006 2.637-2.164 4.784-4.795 4.781l-39.167-0.067c-2.634-0.003-4.787-2.161-4.778-4.793l0.061-25.051c0.006-2.628 2.164-4.781 4.798-4.775l39.17 0.067c2.631 0.009 4.784 2.162 4.775 4.796l-0.064 25.042z" fill-rule="evenodd" fill="#761417"/>
  <path d="m69.275 10.866h-5.11v-8.2465h-5.443v8.2465h-5.114v-20.819l5.114 0.0002v8.0101h5.443v-8.0101h5.11v20.819z" fill="#fff"/>
  <path d="m83.861 0.45804c0-2.5757-0.17-4.1246-0.555-4.6789-0.522-0.7905-1.341-1.1726-2.456-1.1726h-2.255v11.694l2.255 0.0003c1.115 0 1.934-0.3792 2.456-1.1668 0.263-0.4375 0.47-1.1989 0.555-2.2782v-2.3978zm4.941 4.501c-0.321 1.899-1.199 3.3633-2.631 4.4164-1.348 0.9916-3.008 1.4906-4.968 1.4906h-7.718v-20.819l7.718 0.0002c1.96 0 3.62 0.4988 4.968 1.4935 1.432 1.0501 2.31 2.5116 2.631 4.4135 0.117 0.6738 0.178 2.1906 0.178 4.5038 0 2.3395-0.061 3.8272-0.178 4.501" fill="#fff"/>
 </g>
</svg>
