<?xml version="1.0" encoding="UTF-8" standalone="no"?>
<!-- Created with Inkscape (http://www.inkscape.org/) -->
<svg
   xmlns:dc="http://purl.org/dc/elements/1.1/"
   xmlns:cc="http://web.resource.org/cc/"
   xmlns:rdf="http://www.w3.org/1999/02/22-rdf-syntax-ns#"
   xmlns:svg="http://www.w3.org/2000/svg"
   xmlns="http://www.w3.org/2000/svg"
   xmlns:sodipodi="http://sodipodi.sourceforge.net/DTD/sodipodi-0.dtd"
   xmlns:inkscape="http://www.inkscape.org/namespaces/inkscape"
   width="431"
   height="113"
   id="svg2"
   sodipodi:version="0.32"
   inkscape:version="0.45.1"
   version="1.0"
   inkscape:output_extension="org.inkscape.output.svg.inkscape">
  <g
     inkscape:label="Layer 1"
     inkscape:groupmode="layer"
     id="layer1"
     transform="translate(-373.44749,-394.9132)">
    <path
       style="fill:#ee1c23;fill-rule:evenodd;stroke:none"
       d="M 395.15587,440.57874 C 395.15587,445.25192 391.37783,449.05628 386.67832,449.02995 C 381.99198,449.02995 378.2271,445.23875 378.2271,440.57874 C 378.2271,435.87923 382.00514,432.10119 386.69148,432.10119 C 391.39099,432.10119 395.15587,435.91872 395.15587,440.57874"
       id="path3167" />
    <path
       style="fill:#918f8f;fill-rule:evenodd;stroke:none"
       d="M 555.11029,404.87814 C 554.01769,404.87814 548.50202,404.87814 548.50202,404.87814 C 548.50202,403.23265 548.50202,401.58716 548.50202,401.58716 C 548.50202,400.19179 549.33135,399.08602 550.71355,399.08602 C 550.99,399.11235 555.11029,399.11235 555.11029,399.11235 C 555.11029,399.11235 555.11029,402.11372 555.11029,404.87814 z M 545.22421,394.95256 C 544.11845,394.95256 539.97182,396.90082 539.97182,401.02112 C 539.97182,405.15458 539.97182,412.85545 539.97182,418.62124 C 539.97182,418.62124 544.11845,418.62124 548.50202,418.62124 L 548.50202,408.99843 C 548.50202,408.99843 554.01769,408.99843 555.11029,408.99843 C 555.09713,412.31573 555.09713,415.34343 555.09713,418.62124 C 557.83522,418.62124 560.86291,418.62124 563.64049,418.62124 C 563.64049,410.93352 563.64049,402.95621 563.64049,394.97889 C 559.50703,394.97889 545.22421,394.95256 545.22421,394.95256"
       id="path3171" />
    <path
       style="fill:#918f8f;fill-rule:evenodd;stroke:none"
       d="M 472.87547,412.53965 C 472.87547,413.92186 472.04615,414.73802 470.94038,414.73802 L 467.91269,414.73802 C 467.09652,414.73802 466.2672,413.63225 466.2672,412.53965 L 466.28036,401.2582 C 466.28036,399.86282 467.10969,398.77022 467.92585,398.77022 L 470.94038,398.77022 C 472.04615,398.77022 472.87547,400.42887 472.87547,401.2582 C 472.87547,402.36396 472.87547,409.51196 472.87547,412.53965 z M 475.90317,394.92637 L 463.52911,394.92637 C 459.42198,394.92637 457.75016,398.77022 457.75016,400.98176 L 457.75016,412.53965 C 457.75016,415.26458 459.65893,418.29227 463.52911,418.29227 L 469.54501,418.3186 L 476.17961,418.3186 C 478.64126,418.3186 481.11607,415.83062 481.11607,412.53965 L 481.12923,400.98176 C 481.12923,397.40118 478.37798,394.92637 475.90317,394.92637"
       id="path3175" />
    <path
       style="fill:#918f8f;fill-rule:evenodd;stroke:none"
       d="M 443.98073,404.25956 C 443.98073,405.08889 443.42785,406.19466 441.78236,406.19466 L 437.66207,406.19466 C 437.67523,403.70668 437.67523,401.21871 437.67523,398.77022 L 441.78236,398.77022 C 443.15141,398.77022 443.98073,399.59955 443.98073,400.69215 L 443.98073,404.25956 z M 446.1791,394.9132 C 446.1791,394.9132 433.25216,394.9132 428.86859,394.9132 C 428.86859,402.61408 428.84226,410.56507 428.84226,418.29227 C 431.58035,418.29227 434.62121,418.29227 437.37246,418.29227 C 437.66207,415.52785 437.66207,412.78976 437.66207,410.03851 L 446.44238,410.03851 C 450.31256,410.03851 452.49777,406.74754 452.49777,404.25956 L 452.49777,400.13927 C 452.49777,398.49378 450.86545,394.92637 446.1791,394.9132"
       id="path3179" />
    <path
       style="fill:#918f8f;fill-rule:evenodd;stroke:none"
       d="M 591.1267,399.12565 C 589.48121,399.12565 587.55928,399.12565 585.65052,399.12565 C 585.62419,405.43115 585.62419,412.31586 585.62419,418.6477 C 582.58333,418.6477 579.55564,418.6477 576.81755,418.6477 C 576.83071,412.31586 576.83071,405.43115 576.83071,399.12565 C 574.3559,399.12565 571.89425,399.12565 569.11667,399.12565 C 569.11667,397.74344 569.11667,396.36123 569.11667,394.99219 C 577.09399,394.99219 585.08447,394.99219 593.07495,395.00535 C 592.52207,396.37439 591.95602,397.7566 591.1267,399.12565"
       id="path3183" />
    <path
       style="fill:#918f8f;fill-rule:evenodd;stroke:none"
       d="M 522.63484,414.76435 C 523.75378,414.76435 524.55677,413.64542 524.55677,412.84242 C 524.55677,411.99993 523.75378,411.17061 522.92445,410.90733 C 520.71292,409.7884 517.42194,408.70896 515.51318,407.61636 C 513.02521,405.97087 511.62983,404.5755 511.62983,400.73164 C 511.62983,396.87462 515.51318,394.95269 518.25127,394.95269 C 518.25127,394.95269 525.6757,394.95269 533.08697,394.95269 C 531.99437,396.88779 530.63849,398.80971 530.63849,398.80971 C 528.13735,398.80971 524.03022,398.80971 522.92445,398.80971 C 521.54224,398.80971 520.44964,399.90232 520.44964,400.99492 C 520.44964,402.11385 521.54224,402.91685 523.75378,403.75934 C 526.20226,404.5755 528.7034,405.97087 530.07244,406.77387 C 532.54725,408.44568 533.08697,410.63089 533.08697,412.57914 C 533.08697,414.76435 531.44149,418.62137 528.40063,418.62137 C 528.40063,418.62137 520.1732,418.62137 511.62983,418.62137 C 513.28848,416.67311 514.67069,414.76435 514.67069,414.76435 C 517.1455,414.76435 520.71292,414.76435 522.63484,414.76435"
       id="path3187" />
    <path
       style="fill:#918f8f;fill-rule:evenodd;stroke:none"
       d="M 505.298,418.62137 C 500.90126,418.62137 494.56943,418.59504 491.83134,418.59504 C 489.06693,418.59504 487.17133,415.2909 487.17133,413.07937 C 487.17133,413.07937 487.18449,404.00945 487.18449,394.95269 C 491.29162,394.95269 495.43825,394.95269 495.43825,394.95269 C 495.41192,400.99492 495.41192,410.89416 495.41192,412.26321 C 495.41192,413.92186 496.79413,414.73802 497.34701,414.73802 C 497.34701,414.73802 502.83635,414.73802 508.06242,414.75118 C 506.68021,416.67311 505.298,418.62137 505.298,418.62137"
       id="path3191" />
    <path
       id="path3197"
       d="M 755.37242,448.06899 C 757.93938,448.06899 760.3747,447.3713 762.57307,445.97593 C 764.79777,444.59372 766.3511,442.79027 767.20676,440.60506 C 767.98343,438.61732 767.90444,436.86652 766.94348,435.36584 C 765.95619,433.89148 764.06059,433.11481 761.23035,433.11481 L 743.39328,433.11481 L 746.32883,425.62456 C 747.26346,423.26822 747.1055,421.43844 745.85493,420.13522 C 744.56487,418.81883 742.70876,418.14747 740.37875,418.14747 C 737.75914,418.14747 735.35014,418.87148 733.12545,420.28002 C 730.90075,421.66223 729.34741,423.45252 728.51808,425.65089 L 725.55621,433.11481 L 702.98014,433.10165 C 699.47854,433.07532 695.8848,433.68086 692.18575,434.86561 C 688.4867,436.06352 684.99826,437.65635 681.75995,439.68359 C 678.4953,441.72399 675.62557,444.06717 673.11127,446.72627 C 670.54431,449.35905 668.70137,452.20245 667.50345,455.17749 L 655.56381,485.54658 C 654.68183,487.75812 654.81346,489.54841 655.9324,490.94378 C 657.05133,492.35232 658.88111,493.06317 661.51388,493.06317 C 663.88338,493.06317 666.22656,492.39181 668.51707,491.08858 C 670.80759,489.79852 672.43991,487.94241 673.37455,485.54658 L 685.32736,455.16433 C 685.70911,454.21653 686.34098,453.34771 687.19663,452.49206 C 688.05229,451.64957 689.02641,450.89923 690.13218,450.24103 C 691.25111,449.596 692.4227,449.06945 693.6601,448.6482 C 694.92384,448.26645 696.0691,448.05583 697.08272,448.05583 L 755.37242,448.06899 z M 563.12697,434.78662 C 560.37572,433.60187 557.16373,433.02266 553.53049,433.0095 L 518.7515,433.0095 C 517.55358,432.97001 516.34251,433.19379 515.11826,433.58871 C 513.88086,434.02312 512.72244,434.53651 511.62983,435.22103 C 510.53723,435.93188 509.57627,436.70855 508.72061,437.61686 C 507.89129,438.52517 507.25942,439.47297 506.87767,440.47343 L 503.63935,447.99001 L 547.63307,447.93735 C 550.10788,447.96368 551.9245,448.70086 553.06976,450.17521 C 554.24134,451.6364 554.42564,453.41353 553.62264,455.49342 L 547.67256,470.51342 C 546.80375,472.69863 545.27674,474.50208 543.03887,475.92378 C 540.81418,477.35865 538.40519,478.03 535.78557,478.03 L 531.05973,478.03 C 528.45328,478.03 526.0048,478.71453 523.79327,480.12306 C 521.55541,481.5316 520.01523,483.32189 519.17274,485.50709 C 518.35658,487.49484 518.47506,489.23247 519.43602,490.73316 C 520.41015,492.22068 522.31891,492.98418 525.16231,492.98418 L 529.88815,492.98418 C 533.61353,492.98418 537.32575,492.39181 541.0248,491.20706 C 544.71069,490.02231 548.18596,488.41631 551.39794,486.38907 C 554.60993,484.36183 557.45333,481.97917 559.95447,479.26741 C 562.41612,476.56881 564.28539,473.63326 565.49647,470.50026 L 571.40706,455.50659 C 572.64446,452.45257 573.05254,449.54335 572.72345,446.84475 C 572.36802,444.13299 571.38073,441.73716 569.73524,439.68359 C 568.08976,437.61686 565.89139,435.98454 563.12697,434.78662 z M 640.46482,455.53292 L 634.55424,470.56608 C 634.13299,471.50071 633.55378,472.42219 632.71129,473.34366 C 631.8688,474.26513 630.88151,475.06813 629.74942,475.79214 C 628.61732,476.51616 627.41941,477.0822 626.16884,477.49028 C 624.93143,477.8852 623.77301,478.09582 622.65408,478.09582 L 598.28772,478.0695 C 595.76025,478.0695 593.94364,477.34548 592.79838,475.85796 C 591.67945,474.38361 591.54781,472.60648 592.36397,470.55291 L 598.27456,455.50659 C 599.07755,453.45302 600.64406,451.66273 602.92141,450.20154 C 605.21193,448.74035 607.62092,448.00317 610.13522,448.00317 L 634.51475,448.00317 C 635.60735,448.00317 636.62097,448.21379 637.54244,448.62187 C 638.46391,449.02995 639.21425,449.596 639.7803,450.30685 C 640.34635,451.04403 640.70177,451.84703 640.82025,452.7685 C 640.93872,453.67681 640.83341,454.57195 640.46482,455.53292 z M 659.56563,446.8974 C 659.22337,444.15931 658.23608,441.77665 656.60375,439.70992 C 654.97143,437.65635 652.7599,436.02403 649.99548,434.82612 C 647.24423,433.64137 644.03224,433.06216 640.399,433.06216 L 616.04581,433.03583 C 612.32043,433.03583 608.63454,433.6282 604.92232,434.82612 C 601.2101,436.01087 597.78749,437.61686 594.56234,439.63094 C 591.35035,441.67134 588.48062,444.06717 585.97948,446.81842 C 583.50467,449.54335 581.66173,452.45257 580.46381,455.51975 L 574.5269,470.50026 C 573.31582,473.63326 572.85509,476.56881 573.18418,479.26741 C 573.53961,482.0055 574.51374,484.375 576.13289,486.4154 C 577.73889,488.42948 579.93726,490.04864 582.68851,491.23339 C 585.43976,492.41814 588.69124,493.01051 592.3903,493.01051 L 616.76982,493.02367 C 620.40306,493.02367 624.08895,492.4313 627.74851,491.27288 C 631.47389,490.08813 634.92283,488.4558 638.20064,486.38907 C 641.46528,484.33551 644.33501,481.93968 646.83615,479.24108 C 649.31096,476.51616 651.14074,473.6201 652.32549,470.56608 L 658.24924,455.55924 C 659.46032,452.50522 659.90789,449.62233 659.56563,446.8974 z M 734.00743,456.90196 C 734.00743,456.90196 801.06428,456.8888 802.77559,456.8888 C 804.48689,456.8888 804.4474,455.16433 804.4474,455.16433 C 804.4474,455.16433 804.48689,453.50568 802.74926,453.50568 C 801.03795,453.50568 705.09952,453.54517 703.45404,453.54517 C 701.83488,453.54517 701.79539,455.138 701.79539,455.138 C 701.79539,455.138 701.61109,456.8888 703.55935,456.8888 C 705.53393,456.8888 716.17036,456.90196 716.17036,456.90196 L 710.78632,470.61873 C 709.54892,473.73858 709.11451,476.6478 709.45677,479.37272 C 709.77271,482.07132 710.74683,484.45398 712.36599,486.49438 C 713.99831,488.50846 716.17036,490.12762 718.94794,491.32553 C 721.69919,492.49712 724.95067,493.11582 728.67605,493.11582 L 755.43824,493.11582 C 758.30797,493.11582 760.78278,492.37864 762.94166,490.87796 C 765.06104,489.39044 766.54856,487.65281 767.32523,485.6519 C 768.12823,483.59833 768.04925,481.84753 767.07512,480.36001 C 766.08783,478.91198 764.1659,478.17481 761.34883,478.17481 L 734.56031,478.13531 C 732.12499,478.13531 730.26888,477.39814 729.13679,475.93694 C 727.95204,474.44943 727.79407,472.68546 728.61023,470.61873 L 734.00743,456.90196 z M 500.90126,455.63823 L 483.23532,500.43494 C 482.32701,502.79128 482.47182,504.63423 483.74871,505.92429 C 485.01245,507.25384 486.82906,507.91203 489.19856,507.91203 C 491.64705,507.91203 493.99022,507.25384 496.25441,505.92429 C 498.53176,504.64739 500.12459,502.79128 501.08556,500.43494 L 518.71201,455.65139 L 500.90126,455.63823 z M 415.37547,478.25379 C 412.92699,478.24063 410.53116,478.9778 408.21431,480.439 C 405.8843,481.90019 404.3178,483.66415 403.50164,485.70455 C 402.69864,487.75812 402.86977,489.52208 404.05452,490.99644 C 405.21295,492.47079 407.02956,493.18164 409.49121,493.18164 L 455.30155,493.20797 C 458.35557,493.20797 461.43592,492.73407 464.56893,491.73361 C 467.66244,490.73316 470.5585,489.39044 473.23077,487.70546 C 475.88987,486.00732 478.27254,484.0459 480.36559,481.74222 C 481.49769,480.55747 482.43232,479.29374 483.06419,478.28012 L 415.37547,478.25379 z M 418.17938,465.16888 C 419.54842,466.8407 421.33871,468.30189 423.68188,469.18387 C 425.39319,469.81574 426.51212,469.92105 429.48716,469.94738 L 486.11821,469.98687 C 486.1972,469.05223 486.1972,468.13076 486.09189,467.24878 C 485.81544,464.95826 484.99928,462.98368 483.63024,461.2987 C 482.30069,459.60056 480.45774,458.25784 478.1409,457.25739 C 475.82405,456.24377 473.12545,455.74354 470.07143,455.74354 L 437.64877,455.73037 C 436.38504,455.73037 435.46357,455.37495 434.89752,454.63777 C 434.33147,453.91376 434.25249,453.01861 434.67373,451.95234 C 435.08181,450.8729 435.87165,450.00408 437.00374,449.25374 C 438.13584,448.52973 439.36008,448.16114 440.63697,448.16114 L 483.18267,448.20063 C 485.61799,448.20063 488.02698,447.47661 490.35699,445.9891 C 492.66067,444.5279 494.22717,442.79027 495.0565,440.72354 C 495.85949,438.66997 495.6752,436.91918 494.51678,435.45798 C 493.33203,433.98363 491.51541,433.24645 489.06693,433.24645 L 446.52123,433.23329 C 443.45405,433.23329 440.36053,433.72035 437.28018,434.70764 C 434.16034,435.7081 431.27745,437.06398 428.61834,438.73579 C 425.91975,440.40761 423.53708,442.42168 421.44402,444.69903 C 419.36413,446.95006 417.81079,449.37221 416.81033,451.93917 C 416.08632,453.82161 415.80988,455.58557 415.75722,457.3232 C 415.75722,457.3232 377.1212,457.31004 374.94916,457.31004 C 373.35633,457.31004 373.44848,458.6001 373.44848,458.6001 C 373.44848,458.6001 373.42215,459.91649 374.94916,459.91649 C 378.34545,459.91649 415.94152,459.92965 415.94152,459.92965 C 416.28378,461.9174 416.99463,463.65504 418.17938,465.16888"
       style="fill:#1478c7;fill-rule:evenodd;stroke:none" />
  </g>
</svg>
