<?xml version="1.0" encoding="UTF-8" standalone="no"?>
<!-- Created with Inkscape (http://www.inkscape.org/) -->

<svg
   xmlns:dc="http://purl.org/dc/elements/1.1/"
   xmlns:cc="http://creativecommons.org/ns#"
   xmlns:rdf="http://www.w3.org/1999/02/22-rdf-syntax-ns#"
   xmlns:svg="http://www.w3.org/2000/svg"
   xmlns="http://www.w3.org/2000/svg"
   version="1.1"
   width="600"
   height="108.35228"
   id="svg13833">
  <defs
     id="defs13835">
    <clipPath
       id="clipPath6539">
      <path
         d="m 0,0 841.89,0 0,595.276 L 0,595.276 0,0 z"
         id="path6541" />
    </clipPath>
  </defs>
  <metadata
     id="metadata13838">
    <rdf:RDF>
      <cc:Work
         rdf:about="">
        <dc:format>image/svg+xml</dc:format>
        <dc:type
           rdf:resource="http://purl.org/dc/dcmitype/StillImage" />
        <dc:title></dc:title>
      </cc:Work>
    </rdf:RDF>
  </metadata>
  <g
     transform="translate(-50.000053,-478.18599)"
     id="layer1">
    <g
       transform="matrix(6.1628926,0,0,-6.1628926,-1998.2145,1268.1998)"
       id="g6535">
      <g
         clip-path="url(#clipPath6539)"
         id="g6537">
        <g
           transform="translate(411.7841,116.5529)"
           id="g6543">
          <path
             d="m 0,0 c 0.028,0.099 0.028,0.178 0,0.227 -0.05,0.08 -0.101,0.109 -0.206,0.109 l -2.945,0 C -3.229,0.336 -3.332,0.307 -3.436,0.28 -3.51,0.227 -3.614,0.178 -3.667,0.128 -3.766,0.05 -3.845,0 -3.918,-0.099 -3.973,-0.178 -4.023,-0.257 -4.074,-0.333 l -0.539,-1.331 c -0.026,-0.08 -0.052,-0.159 -0.026,-0.208 0,-0.079 0.026,-0.152 0.053,-0.227 0.049,-0.059 0.102,-0.109 0.153,-0.129 0.076,-0.05 0.153,-0.079 0.231,-0.079 l 3.818,0 c 0.178,0 0.334,-0.049 0.412,-0.184 C 0.079,-2.613 0.079,-2.772 0,-2.973 -0.071,-3.155 -0.177,-3.306 -0.357,-3.411 -0.534,-3.54 -0.691,-3.619 -0.899,-3.619 l -3.839,0 c -0.287,0 -0.488,0.053 -0.696,0.158 -0.205,0.103 -0.359,0.231 -0.461,0.406 -0.102,0.178 -0.178,0.415 -0.178,0.649 0,0.248 0.053,0.511 0.152,0.762 l 0.537,1.311 c 0.105,0.283 0.233,0.538 0.438,0.768 0.208,0.254 0.435,0.462 0.695,0.639 0.251,0.159 0.535,0.307 0.79,0.416 0.285,0.099 0.565,0.148 0.847,0.148 l 2.948,0 C 0.562,1.638 0.768,1.615 0.896,1.51 1.08,1.437 1.206,1.302 1.284,1.177 1.383,1.025 1.435,0.847 1.435,0.643 1.435,0.435 1.412,0.227 1.31,0 1.206,-0.234 1.08,-0.541 0.896,-0.748 0.743,-0.946 0.562,-1.13 0.361,-1.282 0.079,-1.44 -0.05,-1.46 -0.282,-1.569 -0.534,-1.644 -0.796,-1.664 -1.027,-1.664 l -2.252,0 c -0.203,0 -0.335,0.068 -0.388,0.204 -0.049,0.079 -0.072,0.178 0,0.355 0.028,0.179 0.157,0.357 0.363,0.486 0.178,0.135 0.356,0.184 0.537,0.184 l 2.282,0 c 0.101,0 0.177,0.049 0.279,0.102 C -0.127,-0.287 -0.05,-0.099 0,0"
             id="path6545"
             style="fill:#ff1200;fill-opacity:1;fill-rule:nonzero;stroke:none" />
        </g>
        <g
           transform="translate(335.7562,121.1177)"
           id="g6547">
          <path
             d="m 0,0 c 0,-0.692 -0.592,-1.282 -1.358,-1.282 -0.692,0 -1.284,0.59 -1.284,1.282 0,0.719 0.592,1.302 1.284,1.302 C -0.592,1.302 0,0.719 0,0"
             id="path6549"
             style="fill:#ff1200;fill-opacity:1;fill-rule:nonzero;stroke:none" />
        </g>
        <g
           transform="translate(360.1122,126.0146)"
           id="g6551">
          <path
             d="m 0,0 0.512,0 0,-1.466 1.332,0 0,3.64 -1.844,0 0,-0.639 0.512,0 0,-0.87 L 0,0.665 0,0 z m -1.027,2.174 c -0.178,0 -0.847,-0.282 -0.847,-0.918 l 0,-2.722 1.361,0 0,1.466 0.513,0 0,0.665 -0.513,0 0,0.511 c 0,0.177 0.129,0.359 0.356,0.359 l 0.157,0 0,0.639 -1.027,0 z"
             id="path6553"
             style="fill:#999999;fill-opacity:1;fill-rule:nonzero;stroke:none" />
        </g>
        <g
           transform="translate(348.2661,128.1885)"
           id="g6555">
          <path
             d="m 0,0 -0.974,0 0,-0.587 0.206,0 c 0.183,0 0.305,-0.234 0.305,-0.33 l 0,-1.772 c 0,-0.259 -0.122,-0.36 -0.305,-0.36 l -0.206,0 0,-0.534 0.053,0 0.999,0 c 0.41,0 0.766,0.359 0.766,0.894 l 0,1.772 C 0.844,-0.331 0.411,0 0,0 m -0.974,0 -0.9,0 c -0.664,0 -0.893,-0.587 -0.893,-0.917 l 0,-1.772 c 0,-0.44 0.308,-0.894 0.893,-0.894 l 0.9,0 0,0.534 -0.254,0 c -0.128,0 -0.234,0.178 -0.234,0.36 l 0,1.772 c 0,0.176 0.106,0.33 0.234,0.33 l 0.254,0 0,0.587 z"
             id="path6557"
             style="fill:#999999;fill-opacity:1;fill-rule:nonzero;stroke:none" />
        </g>
        <g
           transform="translate(343.6765,128.1885)"
           id="g6559">
          <path
             d="m 0,0 -0.817,0 0,-0.587 0.151,0 c 0.18,0 0.31,-0.105 0.31,-0.283 l 0,-0.541 c 0,-0.178 -0.054,-0.281 -0.31,-0.281 l -0.151,0 0,-0.664 0.868,0 c 0.59,0 0.949,0.537 0.949,0.945 l 0,0.59 C 1,-0.512 0.692,0 0,0 m -0.817,0 -1.899,0 0,-3.583 1.361,0 c 0.05,0.405 0.05,0.82 0.05,1.227 l 0.488,0 0,0.664 -0.488,0 0,1.105 0.488,0 0,0.587 z"
             id="path6561"
             style="fill:#999999;fill-opacity:1;fill-rule:nonzero;stroke:none" />
        </g>
        <g
           transform="translate(366.2146,127.5492)"
           id="g6563">
          <path
             d="m 0,0 -0.822,0 0,-3 -1.413,0 0,3 -1.177,0 0,0.639 3.717,0 C 0.227,0.411 0.125,0.231 0,0"
             id="path6565"
             style="fill:#999999;fill-opacity:1;fill-rule:nonzero;stroke:none" />
        </g>
        <g
           transform="translate(355.5978,125.1393)"
           id="g6567">
          <path
             d="m 0,0 c 0.106,0 0.284,0.178 0.284,0.286 0,0.125 -0.178,0.253 -0.284,0.306 -0.306,0.177 -0.82,0.356 -1.127,0.534 -0.412,0.231 -0.59,0.463 -0.59,1.054 0,0.588 0.59,0.869 0.999,0.869 l 2.305,0 C 1.409,2.768 1.23,2.463 1.23,2.463 l -1.23,0 c -0.178,0 -0.357,-0.155 -0.357,-0.331 0,-0.183 0.179,-0.312 0.535,-0.409 C 0.541,1.589 0.946,1.357 1.132,1.23 1.538,0.998 1.587,0.64 1.587,0.36 1.587,0 1.362,-0.59 0.877,-0.59 l -2.594,0 C -1.488,-0.304 -1.254,0 -1.254,0 L 0,0 z"
             id="path6569"
             style="fill:#999999;fill-opacity:1;fill-rule:nonzero;stroke:none" />
        </g>
        <g
           transform="translate(352.8773,124.5488)"
           id="g6571">
          <path
             d="m 0,0 -2.123,0 c -0.413,0 -0.718,0.511 -0.718,0.822 l 0,2.818 1.307,0 0,-2.689 c 0,-0.26 0.183,-0.361 0.306,-0.361 l 1.642,0 C 0.236,0.287 0,0 0,0"
             id="path6573"
             style="fill:#999999;fill-opacity:1;fill-rule:nonzero;stroke:none" />
        </g>
        <g
           transform="translate(388.5383,112.9144)"
           id="g6575">
          <path
             d="m 0,0 0,2.356 4.153,0 C 4.562,2.356 4.873,2.257 5.05,1.994 5.155,1.766 5.204,1.48 5.05,1.173 4.923,0.896 4.69,0.584 4.38,0.356 4.026,0.125 3.691,0 3.207,0 L 0,0 z m 0,5.659 0,0.544 10.587,0 c 0.23,0 0.23,-0.307 0.23,-0.307 0,0 0,-0.237 -0.23,-0.237 L 0,5.659 z m 0,1.364 0,4.46 c 0.257,0.151 0.536,0.208 0.846,0.208 0.41,0 0.644,-0.128 0.901,-0.287 0.15,-0.254 0.227,-0.537 0.049,-0.893 L 1.308,9.377 4.1,9.377 C 4.562,9.377 4.873,9.275 4.971,9.021 5.155,8.794 5.155,8.507 5.05,8.203 4.923,7.845 4.69,7.561 4.331,7.383 3.972,7.149 3.619,7.023 3.207,7.023 L 0,7.023 z m 0,4.46 0,-4.46 -5.865,0 c -0.135,0 -0.313,0 -0.542,-0.052 C -6.592,6.921 -6.768,6.793 -6.948,6.664 -7.126,6.615 -7.307,6.486 -7.411,6.332 -7.538,6.203 -7.637,6.074 -7.716,5.896 L -9.538,1.173 C -9.71,0.82 -9.944,0.537 -10.308,0.356 c -0.355,-0.231 -0.711,-0.283 -1.076,-0.283 -0.256,0 -0.481,0.025 -0.664,0.105 l 0,1.694 1.562,4.024 c 0.178,0.481 0.463,0.947 0.896,1.358 0.414,0.435 0.828,0.768 1.363,1.078 0.511,0.353 1.052,0.59 1.586,0.768 0.591,0.175 1.183,0.277 1.694,0.277 l 3.488,0 0.485,1.134 c 0.101,0.356 0.359,0.639 0.692,0.817 0.106,0.076 0.183,0.132 0.282,0.155 m 0,-5.28 -4.875,0 c -0.224,0 -0.224,-0.307 -0.224,-0.307 0,0.076 -0.082,-0.237 0.224,-0.237 l 2.009,0 -0.9,-2.119 C -3.919,3.069 -3.998,2.614 -3.919,2.178 -3.871,1.717 -3.766,1.361 -3.458,1.075 -3.23,0.761 -2.866,0.484 -2.461,0.306 -2.053,0.125 -1.509,0 -0.922,0 L 0,0 l 0,2.356 -0.026,0 c -0.356,0 -0.669,0.129 -0.847,0.357 -0.178,0.234 -0.228,0.491 -0.101,0.827 l 0.875,2.119 0.099,0 0,0.544 z m -12.048,-0.719 0.153,0.356 c 0.181,0.492 0.231,0.953 0.181,1.358 0,0.363 -0.151,0.719 -0.334,1.005 l 0,-2.719 z m 0,2.719 0,-2.719 -0.797,-1.944 c -0.177,-0.471 -0.461,-0.926 -0.817,-1.362 -0.382,-0.412 -0.824,-0.768 -1.335,-1.103 -0.488,-0.314 -1.079,-0.591 -1.588,-0.769 -0.59,-0.181 -1.177,-0.233 -1.719,-0.233 l -0.101,0 0,2.283 0.973,0 c 0.181,0 0.359,0.08 0.538,0.129 0.23,0.049 0.411,0.129 0.592,0.228 0.178,0.128 0.305,0.234 0.488,0.411 0.102,0.129 0.151,0.228 0.231,0.416 l 0.945,2.3 c 0.052,0.185 0.052,0.313 0.052,0.492 0,0.102 -0.052,0.227 -0.18,0.332 -0.053,0.129 -0.178,0.257 -0.356,0.307 -0.102,0.052 -0.283,0.052 -0.461,0.052 l -2.822,0 0,2.354 3.767,0 c 0.594,0 1.025,-0.102 1.441,-0.277 0.484,-0.178 0.768,-0.415 1.075,-0.768 0.019,-0.056 0.049,-0.079 0.074,-0.129 m 0,-6.331 -0.254,-0.699 c -0.127,-0.277 -0.127,-0.589 0.049,-0.817 0.051,-0.076 0.131,-0.129 0.205,-0.178 l 0,1.694 z m -6.357,7.505 0,-2.354 -0.976,0 c -0.332,0 -0.768,-0.102 -1.1,-0.286 C -20.84,6.486 -21.071,6.203 -21.2,5.896 L -22.146,3.54 c -0.103,-0.336 -0.052,-0.593 0.05,-0.827 0.254,-0.228 0.484,-0.357 0.896,-0.357 l 2.795,0 0,-2.283 -3.741,0 c -0.542,0 -1.054,0.052 -1.463,0.233 -0.439,0.231 -0.765,0.455 -1.026,0.769 -0.281,0.286 -0.408,0.691 -0.457,1.103 -0.057,0.436 0,0.891 0.176,1.362 l 0.948,2.356 c 0.177,0.481 0.463,0.897 0.872,1.302 0.358,0.491 0.847,0.824 1.306,1.134 0.538,0.353 1.055,0.59 1.591,0.768 0.588,0.175 1.179,0.277 1.769,0.277 l 0.025,0 z m -16.331,-6.487 0,2.95 1.155,0 -1.155,-2.95 z m 0,4.133 5.613,0 c 0.441,0 0.718,-0.102 0.903,-0.286 0.178,-0.251 0.178,-0.534 0.049,-0.841 L -29.048,3.54 c -0.176,-0.336 -0.405,-0.65 -0.768,-0.827 -0.356,-0.228 -0.718,-0.357 -1.123,-0.357 l -0.719,0 c -0.406,0 -0.741,-0.099 -1.104,-0.286 -0.356,-0.224 -0.585,-0.531 -0.77,-0.815 -0.127,-0.359 -0.049,-0.589 0.048,-0.847 0.186,-0.23 0.494,-0.335 0.905,-0.335 l 0.771,0 c 0.583,0 1.096,0.052 1.688,0.233 0.591,0.231 1.13,0.455 1.614,0.769 0.513,0.286 0.927,0.691 1.334,1.103 0.359,0.436 0.669,0.891 0.896,1.362 l 0.897,2.356 c 0.155,0.481 0.23,0.897 0.23,1.302 -0.075,0.491 -0.23,0.824 -0.485,1.134 -0.279,0.353 -0.592,0.59 -1.052,0.768 -0.409,0.175 -0.893,0.277 -1.485,0.277 l -5.41,0 c -0.18,0 -0.358,-0.049 -0.534,-0.102 -0.236,-0.076 -0.414,-0.125 -0.542,-0.254 l -0.079,-0.049 0,-1.949 z m -3.431,0.254 c 0.049,0.03 0.102,0.077 0.149,0.106 0.414,0.178 0.642,0.462 0.77,0.765 0.105,0.359 0.105,0.646 -0.128,0.824 -0.179,0.227 -0.408,0.356 -0.791,0.356 l 0,-2.051 z m 3.431,1.695 0,-1.949 -1.151,0 0.462,1.18 c 0.049,0.179 0.178,0.304 0.305,0.482 0.079,0.079 0.229,0.181 0.384,0.287 m 0,-3.132 0,-2.95 -1.566,-4.021 c -0.178,-0.336 -0.432,-0.642 -0.765,-0.821 -0.359,-0.227 -0.717,-0.332 -1.1,-0.355 l 0,3.51 1.796,4.637 1.635,0 z m -4.437,-2.231 0.516,0 c 0.051,0.184 0.051,0.287 0,0.465 0,0.356 -0.18,0.639 -0.358,0.9 -0.054,0.046 -0.102,0.102 -0.158,0.154 l 0,-1.519 z m 0,3.414 0.079,0 c 0.307,0 0.616,0.073 0.927,0.254 l 0,2.051 -0.03,0 -0.976,0 0,-2.305 z m 1.006,-5.82 0,-3.51 -0.03,0 c -0.359,0 -0.64,0.128 -0.818,0.355 -0.079,0.08 -0.127,0.156 -0.158,0.258 l 0,0.356 c 0.031,0.079 0.056,0.128 0.079,0.207 l 0.927,2.334 z m -1.006,1.104 0,0.049 0.031,0 c 0,0 0,-0.026 -0.031,-0.049 M -49.246,4.38 c 0.259,-0.257 0.541,-0.484 0.901,-0.662 0.23,-0.053 0.41,-0.053 0.868,-0.053 l 8.304,-0.056 0,1.519 c -0.204,0.198 -0.461,0.333 -0.74,0.482 -0.359,0.178 -0.768,0.23 -1.231,0.23 l -5.023,0 c -0.232,0 -0.361,0.056 -0.465,0.185 -0.072,0.128 -0.072,0.227 0,0.409 0.056,0.181 0.185,0.303 0.359,0.409 0.155,0.128 0.337,0.18 0.516,0.18 l 6.584,0 0,2.305 -5.638,0 c -0.461,0 -0.946,-0.053 -1.406,-0.228 -0.542,-0.128 -0.95,-0.363 -1.361,-0.593 -0.412,-0.304 -0.817,-0.59 -1.127,-0.946 -0.361,-0.363 -0.59,-0.718 -0.719,-1.127 -0.101,-0.281 -0.153,-0.594 -0.153,-0.824 l -6.381,0 c -0.234,0 -0.234,-0.228 -0.234,-0.228 0,0 0,-0.178 0.234,-0.178 l 6.381,0 c 0.052,-0.313 0.153,-0.59 0.331,-0.824 m 10.073,-2.024 0,-0.049 C -39.245,2.152 -39.397,1.974 -39.555,1.766 -39.862,1.41 -40.272,1.127 -40.681,0.896 -41.094,0.584 -41.5,0.408 -41.965,0.227 -42.499,0.073 -42.986,0 -43.451,0 l -7.152,0 c -0.337,0 -0.64,0.125 -0.821,0.356 -0.178,0.228 -0.226,0.54 -0.049,0.817 0.128,0.307 0.359,0.593 0.718,0.821 0.33,0.263 0.692,0.362 1.099,0.362 l 10.483,0 z m 0,-3.694 0,-0.356 c -0.021,0.105 -0.021,0.227 0,0.356"
             id="path6577"
             style="fill:#0075bf;fill-opacity:1;fill-rule:nonzero;stroke:none" />
        </g>
        <g
           transform="translate(404.7684,114.4324)"
           id="g6579">
          <path
             d="M 0,0 C -0.139,-0.381 -0.39,-0.693 -0.755,-0.936 -1.12,-1.18 -1.496,-1.301 -1.882,-1.301 l -0.622,0 c -0.392,0 -0.677,0.119 -0.856,0.356 C -3.551,-0.696 -3.578,-0.381 -3.439,0 L -2.63,2.221 C -2.524,2.514 -2.636,2.66 -2.968,2.66 l -0.63,0 c -0.331,0 -0.55,-0.146 -0.657,-0.439 l -1.282,-3.522 -0.911,0 1.282,3.522 c 0.139,0.381 0.391,0.693 0.756,0.936 0.365,0.243 0.742,0.365 1.129,0.365 l 0.632,0 c 0.388,0 0.675,-0.122 0.864,-0.366 C -1.597,2.913 -1.573,2.6 -1.712,2.218 L -2.53,-0.007 c -0.105,-0.288 0.01,-0.432 0.346,-0.432 l 0.618,0 c 0.33,0 0.547,0.144 0.652,0.432 l 1.284,3.529 0.912,0 L 0,0 z"
             id="path6581"
             style="fill:#ff1200;fill-opacity:1;fill-rule:nonzero;stroke:none" />
        </g>
        <g
           transform="translate(404.7684,114.4324)"
           id="g6583">
          <path
             d="M 0,0 C -0.139,-0.381 -0.39,-0.693 -0.755,-0.936 -1.12,-1.18 -1.496,-1.301 -1.882,-1.301 l -0.622,0 c -0.392,0 -0.677,0.119 -0.856,0.356 C -3.551,-0.696 -3.578,-0.381 -3.439,0 L -2.63,2.221 C -2.524,2.514 -2.636,2.66 -2.968,2.66 l -0.63,0 c -0.331,0 -0.55,-0.146 -0.657,-0.439 l -1.282,-3.522 -0.911,0 1.282,3.522 c 0.139,0.381 0.391,0.693 0.756,0.936 0.365,0.243 0.742,0.365 1.129,0.365 l 0.632,0 c 0.388,0 0.675,-0.122 0.864,-0.366 C -1.597,2.913 -1.573,2.6 -1.712,2.218 L -2.53,-0.007 c -0.105,-0.288 0.01,-0.432 0.346,-0.432 l 0.618,0 c 0.33,0 0.547,0.144 0.652,0.432 l 1.284,3.529 0.912,0 L 0,0 z"
             id="path6585"
             style="fill:none;stroke:#ff1200;stroke-width:0.495;stroke-linecap:butt;stroke-linejoin:miter;stroke-miterlimit:4;stroke-opacity:1;stroke-dasharray:none" />
        </g>
        <g
           transform="translate(421.01,114.4496)"
           id="g6587">
          <path
             d="m 0,0 c -0.134,-0.369 -0.378,-0.67 -0.73,-0.902 -0.352,-0.233 -0.715,-0.349 -1.089,-0.349 l -0.61,0 c -0.374,0 -0.653,0.116 -0.835,0.349 C -3.447,-0.67 -3.471,-0.369 -3.337,0 l 0.782,2.15 c 0.104,0.283 -0.008,0.425 -0.334,0.425 -0.321,0 -0.533,-0.142 -0.636,-0.425 L -4.316,0 c -0.134,-0.369 -0.376,-0.67 -0.725,-0.902 -0.35,-0.233 -0.714,-0.349 -1.094,-0.349 l -0.602,0 c -0.379,0 -0.657,0.112 -0.831,0.337 -0.186,0.24 -0.211,0.545 -0.077,0.914 l 1.241,3.409 0.883,0 L -6.762,0 c -0.101,-0.278 0.008,-0.417 0.329,-0.417 l 0.602,0 c 0.321,0 0.532,0.139 0.633,0.417 l 0.79,2.15 c 0.135,0.369 0.378,0.671 0.731,0.906 0.353,0.236 0.717,0.353 1.091,0.353 0.38,0 0.661,-0.116 0.844,-0.349 0.183,-0.232 0.206,-0.536 0.07,-0.91 L -2.455,0 c -0.101,-0.278 0.009,-0.417 0.33,-0.417 l 0.609,0 c 0.321,0 0.533,0.139 0.634,0.417 l 1.24,3.409 0.883,0 L 0,0 z"
             id="path6589"
             style="fill:#ff1200;fill-opacity:1;fill-rule:nonzero;stroke:none" />
        </g>
        <g
           transform="translate(421.01,114.4496)"
           id="g6591">
          <path
             d="m 0,0 c -0.134,-0.369 -0.378,-0.67 -0.73,-0.902 -0.352,-0.233 -0.715,-0.349 -1.089,-0.349 l -0.61,0 c -0.374,0 -0.653,0.116 -0.835,0.349 C -3.447,-0.67 -3.471,-0.369 -3.337,0 l 0.782,2.15 c 0.104,0.283 -0.008,0.425 -0.334,0.425 -0.321,0 -0.533,-0.142 -0.636,-0.425 L -4.316,0 c -0.134,-0.369 -0.376,-0.67 -0.725,-0.902 -0.35,-0.233 -0.714,-0.349 -1.094,-0.349 l -0.602,0 c -0.379,0 -0.657,0.112 -0.831,0.337 -0.186,0.24 -0.211,0.545 -0.077,0.914 l 1.241,3.409 0.883,0 L -6.762,0 c -0.101,-0.278 0.008,-0.417 0.329,-0.417 l 0.602,0 c 0.321,0 0.532,0.139 0.633,0.417 l 0.79,2.15 c 0.135,0.369 0.378,0.671 0.731,0.906 0.353,0.236 0.717,0.353 1.091,0.353 0.38,0 0.661,-0.116 0.844,-0.349 0.183,-0.232 0.206,-0.536 0.07,-0.91 L -2.455,0 c -0.101,-0.278 0.009,-0.417 0.33,-0.417 l 0.609,0 c 0.321,0 0.533,0.139 0.634,0.417 l 1.24,3.409 0.883,0 L 0,0 z"
             id="path6593"
             style="fill:none;stroke:#ff1200;stroke-width:0.495;stroke-linecap:butt;stroke-linejoin:miter;stroke-miterlimit:4;stroke-opacity:1;stroke-dasharray:none" />
        </g>
        <g
           transform="translate(422.8859,115.9093)"
           id="g6595">
          <path
             d="m 0,0 c 0.028,-0.172 0.084,-0.324 0.182,-0.453 0.142,-0.142 0.297,-0.266 0.495,-0.364 0.127,-0.029 0.226,-0.029 0.478,-0.029 l 4.567,-0.031 0.283,0 c 0.028,0.101 0.028,0.158 0,0.255 0,0.196 -0.099,0.352 -0.196,0.495 C 5.778,-0.102 5.752,-0.071 5.722,-0.042 5.609,0.067 5.468,0.142 5.315,0.223 5.117,0.321 4.892,0.35 4.637,0.35 l -2.762,0 C 1.747,0.35 1.677,0.381 1.62,0.451 1.58,0.522 1.58,0.576 1.62,0.676 1.65,0.776 1.721,0.843 1.817,0.901 1.902,0.972 2.002,1 2.101,1 L 5.722,1 5.765,1 C 5.933,1 6.104,1.04 6.274,1.14 6.301,1.156 6.33,1.182 6.357,1.198 6.584,1.296 6.71,1.452 6.78,1.619 6.838,1.816 6.838,1.974 6.71,2.072 6.611,2.197 6.485,2.268 6.274,2.268 l -0.016,0 -0.536,0 -3.101,0 C 2.367,2.268 2.101,2.239 1.848,2.142 1.55,2.072 1.325,1.943 1.099,1.816 0.873,1.649 0.65,1.492 0.479,1.296 0.281,1.096 0.155,0.901 0.084,0.676 0.028,0.522 0,0.35 0,0.223"
             id="path6597"
             style="fill:#ff1200;fill-opacity:1;fill-rule:nonzero;stroke:none" />
        </g>
        <g
           transform="translate(428.6245,114.3431)"
           id="g6599">
          <path
             d="m 0,0 -0.017,0 -5.765,0 c -0.224,0 -0.423,-0.054 -0.605,-0.199 -0.197,-0.125 -0.324,-0.283 -0.395,-0.451 -0.097,-0.153 -0.071,-0.325 0.027,-0.45 0.1,-0.127 0.267,-0.196 0.452,-0.196 l 3.933,0 c 0.256,0 0.524,0.04 0.817,0.125 0.256,0.1 0.479,0.196 0.707,0.368 0.224,0.127 0.45,0.283 0.619,0.479 0.086,0.114 0.17,0.212 0.21,0.297 C 0,-0.014 0,0 0,0"
             id="path6601"
             style="fill:#ff1200;fill-opacity:1;fill-rule:nonzero;stroke:none" />
        </g>
      </g>
    </g>
  </g>
</svg>
