<?xml version="1.0" encoding="UTF-8" standalone="no"?>
<svg xmlns:rdf="http://www.w3.org/1999/02/22-rdf-syntax-ns#" xmlns="http://www.w3.org/2000/svg" xmlns:cc="http://creativecommons.org/ns#" xmlns:dc="http://purl.org/dc/elements/1.1/" height="1038.5" width="600" version="1.1" viewBox="0 0 158.75 274.75891">
  <defs>
    <linearGradient id="a" gradientUnits="userSpaceOnUse" gradientTransform="matrix(-108.41 187.78 -187.78 -108.41 156.29 19.644)" x1="0" x2="1" y1="0" y2="0">
      <stop stop-color="#9ed7f0" offset="0"/>
      <stop stop-color="#61a1dd" offset=".18614"/>
      <stop stop-color="#2b4ea3" offset=".64607"/>
      <stop stop-color="#262c60" offset=".79902"/>
      <stop stop-color="#262c60" offset=".93820"/>
      <stop stop-color="#262c60" offset="1"/>
    </linearGradient>
  </defs>
  <g transform="translate(-22.679 -34.132)">
    <path d="m22.679 264.56v32.71c0 6.43 5.218 11.62 11.664 11.62h135.43c6.43 0 11.66-5.19 11.66-11.62v-27.08h-147.09c-4.715 0-8.909-2.22-11.661-5.63" fill="#2b4ea3"/>
    <g fill="#fff">
      <path d="m60.137 287.57c0 1.33-0.485 2.41-1.404 3.23-0.943 0.81-2.089 1.22-3.442 1.22h-8.229v-3.04h8.229c1.137 0 1.709-0.47 1.709-1.41v-1.95c0-1.01-0.572-1.51-1.709-1.51h-11.143v13.62h-3.13v-16.59h14.249c1.355 0 2.505 0.44 3.453 1.26 0.932 0.84 1.417 1.92 1.417 3.22"/>
      <path d="m80.268 293.29v-7.7c0-0.39-0.175-0.75-0.537-1.06-0.375-0.3-0.764-0.46-1.172-0.46h-9.282c-0.432 0-0.817 0.16-1.176 0.46-0.354 0.31-0.541 0.67-0.541 1.06v7.7c0 0.99 0.565 1.48 1.717 1.48h9.282c1.137 0 1.709-0.49 1.709-1.48m3.131-0.04c0 1.31-0.471 2.39-1.44 3.22-0.954 0.84-2.082 1.26-3.415 1.26h-9.251c-1.331 0-2.484-0.42-3.435-1.26-0.967-0.83-1.424-1.91-1.424-3.22v-7.66c0-1.24 0.487-2.29 1.487-3.17 0.981-0.86 2.107-1.31 3.372-1.31h9.251c1.256 0 2.384 0.45 3.366 1.31 0.987 0.88 1.489 1.93 1.489 3.17"/>
      <path d="m102.27 297.73h-9.226c-1.333 0-2.464-0.41-3.426-1.25-0.929-0.84-1.413-1.92-1.413-3.22v-12.15h3.124v12.18c0 0.99 0.568 1.49 1.715 1.49h9.226"/>
      <path d="m124.97 284.06h-13.87c-0.41 0-0.81 0.17-1.18 0.46-0.34 0.32-0.52 0.68-0.52 1.07v0.83c0 1 0.56 1.49 1.7 1.49l9.28 0.02c1.32 0 2.47 0.4 3.4 1.21 0.97 0.86 1.46 1.95 1.46 3.25v0.88c0 1.23-0.5 2.3-1.49 3.17s-2.11 1.29-3.36 1.29h-13.87v-2.96h13.88c0.41 0 0.8-0.15 1.17-0.44 0.36-0.3 0.53-0.66 0.53-1.06v-0.88c0-1-0.56-1.48-1.7-1.48l-9.28-0.04c-1.34 0-2.47-0.41-3.43-1.23-0.95-0.85-1.42-1.9-1.42-3.22v-0.83c0-1.24 0.49-2.29 1.48-3.17 0.98-0.86 2.12-1.31 3.37-1.31h13.85"/>
      <path d="m148.77 297.78h-3.34l-1.52-5.8h-7.61l0.72-3.05h6.07c-0.13-0.5-0.54-2.31-0.83-3.31-0.27-1.01-0.85-1.51-1.69-1.51h-3.85c-0.86 0-1.44 0.5-1.71 1.51l-3.12 12.16h-3.34l3.12-12.15c0.78-2.98 2.4-4.48 4.86-4.48h4.23c2.47 0 4.1 1.5 4.86 4.48"/>
      <path d="m166.08 284.06h-6.93v13.67h-3.13v-13.67h-6.83v-2.95h16.89"/>
    </g>
    <path d="m22.686 230h158.73v-30.92h-158.73l-0.004 30.92z" fill="#79797a"/>
    <path d="m115.93 213.33c-0.94-0.48-2.02-0.63-4.83-0.63h-3.66c-1.16 0-1.64-0.47-1.64-1.58v-0.24l0.01-0.15c0.04-1 0.54-1.43 1.63-1.43h4c0.52 0 0.93 0.1 1.19 0.32l0.07 0.05c0.2 0.21 0.31 0.5 0.33 0.88 0.47-0.03 4.26-0.34 4.77-0.38-0.09-0.47-0.22-0.9-0.34-1.28-0.92-2.73-2.81-3.75-6.62-3.75h-2.9c-4.69 0-6.99 1.57-6.99 4.78v2.2c0 1.69 0.69 2.96 1.93 3.57 0.94 0.49 2.01 0.63 4.82 0.63h3.67c1.16 0 1.64 0.45 1.64 1.56v0.26c0 1.12-0.5 1.6-1.64 1.6h-3.99c-0.61 0-1.01-0.12-1.28-0.4-0.19-0.21-0.3-0.51-0.33-0.9-0.45 0.03-4.27 0.18-4.77 0.2 0.57 3.85 2.49 5.28 6.94 5.28h2.9c4.72 0 7.01-1.56 7.01-4.81v-2.21c0-1.7-0.68-2.97-1.92-3.57m40.51-8.02h-18.6v4.43h6.68v14.12h5.22v-14.12h6.7v-4.43zm-69.642 13.07 2.39-6.38 2.406 6.38h-4.796zm4.228-13.07h-3.708l-8.024 18.63h5.416l0.779-2.09h7.399l0.784 2.09h5.371l-8.017-18.63zm36.004 13.07 2.4-6.4 2.4 6.4h-4.8zm4.24-13.07h-3.71l-8.03 18.63h5.42l0.78-2.09h7.4l0.79 2.09h5.36l-8.01-18.63zm-73.711 11.94-4.476-11.94h-5.409l8.006 18.63h3.715l8.024-18.63h-5.374l-4.486 11.94zm13.24 6.61h5.214v-18.55h-5.214v18.55z" fill="#fff"/>
    <g fill="#2b4ea3">
      <path d="m23.487 236.3h5.573v10.03h10.278v-10.03h5.578v25.33h-5.578v-10.16h-10.278v10.16h-5.573"/>
      <path d="m49.685 261.63h5.575v-25.33h-5.575v25.33z"/>
      <path d="m69.472 262c-1.93 0-3.824-0.34-5.677-0.99-1.861-0.67-3.554-1.67-5.069-3.04l3.294-3.94c1.153 0.94 2.345 1.7 3.561 2.25 1.219 0.55 2.559 0.84 4.001 0.84 1.159 0 2.051-0.22 2.696-0.65 0.64-0.42 0.958-1.01 0.958-1.76v-0.07c0-0.36-0.064-0.68-0.201-0.95-0.13-0.29-0.388-0.55-0.759-0.78-0.374-0.25-0.895-0.49-1.557-0.73-0.671-0.25-1.536-0.49-2.603-0.76-1.276-0.34-2.444-0.7-3.477-1.07-1.042-0.38-1.93-0.85-2.654-1.42-0.729-0.57-1.289-1.27-1.685-2.12-0.399-0.84-0.602-1.9-0.602-3.16v-0.07c0-1.15 0.218-2.2 0.647-3.13 0.437-0.93 1.035-1.74 1.817-2.41 0.781-0.69 1.706-1.2 2.793-1.56 1.083-0.36 2.273-0.55 3.578-0.55 1.857 0 3.564 0.28 5.12 0.83 1.557 0.55 2.985 1.34 4.29 2.38l-2.894 4.18c-1.135-0.77-2.248-1.38-3.332-1.83-1.086-0.45-2.175-0.67-3.257-0.67-1.086 0-1.902 0.22-2.446 0.63-0.543 0.43-0.817 0.95-0.817 1.58v0.08c0 0.41 0.086 0.76 0.239 1.07 0.157 0.3 0.437 0.57 0.857 0.81 0.408 0.24 0.969 0.47 1.684 0.69 0.715 0.21 1.612 0.47 2.707 0.76 1.274 0.34 2.422 0.72 3.426 1.14 1.001 0.43 1.85 0.93 2.539 1.53 0.689 0.59 1.214 1.29 1.564 2.08 0.346 0.8 0.523 1.75 0.523 2.86v0.08c0 1.25-0.232 2.37-0.682 3.35-0.453 0.98-1.091 1.8-1.908 2.47-0.81 0.66-1.789 1.17-2.916 1.52-1.126 0.36-2.383 0.53-3.758 0.53"/>
      <path d="m88.331 241.43h-7.714v-5.13h20.993v5.13h-7.709v20.2h-5.57"/>
      <path d="m116.56 256.93c1.13 0 2.17-0.21 3.09-0.61 0.94-0.42 1.73-0.99 2.39-1.71 0.67-0.73 1.18-1.56 1.56-2.51 0.37-0.96 0.56-1.98 0.56-3.07v-0.06c0-1.09-0.19-2.12-0.56-3.08-0.38-0.97-0.91-1.81-1.6-2.54-0.68-0.72-1.49-1.29-2.42-1.72-0.92-0.42-1.96-0.63-3.09-0.63-1.11 0-2.14 0.2-3.08 0.62-0.94 0.41-1.74 0.97-2.41 1.7s-1.18 1.56-1.56 2.51c-0.37 0.96-0.55 1.98-0.55 3.06v0.08c0 1.08 0.18 2.11 0.55 3.07 0.38 0.97 0.91 1.81 1.6 2.53 0.69 0.73 1.5 1.3 2.45 1.72 0.93 0.42 1.96 0.64 3.07 0.64m-0.07 5.14c-1.96 0-3.76-0.35-5.4-1.03-1.64-0.7-3.06-1.63-4.25-2.79-1.19-1.17-2.12-2.55-2.78-4.13-0.67-1.58-1-3.27-1-5.09v-0.06c0-1.82 0.34-3.51 1.01-5.09 0.68-1.58 1.62-2.97 2.81-4.16 1.19-1.2 2.62-2.14 4.27-2.83 1.65-0.68 3.46-1.03 5.41-1.03s3.75 0.35 5.39 1.03c1.65 0.69 3.06 1.62 4.26 2.79 1.19 1.18 2.12 2.55 2.79 4.12 0.66 1.58 0.99 3.28 0.99 5.09v0.08c0 1.8-0.34 3.5-1.02 5.08-0.67 1.58-1.6 2.97-2.8 4.16-1.19 1.2-2.62 2.13-4.27 2.83-1.65 0.68-3.46 1.03-5.41 1.03"/>
      <path d="m145.55 248.64c1.38 0 2.43-0.32 3.17-0.98s1.1-1.53 1.1-2.63v-0.06c0-1.21-0.38-2.13-1.15-2.74-0.78-0.6-1.86-0.9-3.23-0.9h-5.53v7.31h5.64zm-11.22-12.34h11.58c3.22 0 5.67 0.86 7.39 2.56 1.44 1.45 2.17 3.39 2.17 5.8v0.07c0 2.05-0.5 3.72-1.51 5.01-0.99 1.29-2.3 2.24-3.92 2.84l6.19 9.05h-6.51l-5.44-8.1h-4.37v8.1h-5.58"/>
      <path d="m166.11 251.64-9.73-15.34h6.51l6.05 10.17 6.14-10.17h6.34l-9.74 15.24v10.09h-5.57"/>
    </g>
    <path fill="url(#a)" d="m126.97 57.77v63.58h-49.769v-63.58l-54.415-23.638v158.8h54.415v-24.6h49.769v24.6h54.42v-158.8l-54.42 23.64"/>
  </g>
</svg>
