<?xml version="1.0" encoding="UTF-8" standalone="no"?>
<svg xmlns:rdf="http://www.w3.org/1999/02/22-rdf-syntax-ns#" xmlns="http://www.w3.org/2000/svg" xmlns:cc="http://creativecommons.org/ns#" xmlns:dc="http://purl.org/dc/elements/1.1/" height="1038.5" width="600" version="1.1" viewBox="0 0 158.75 274.75888">
  <defs>
    <linearGradient id="a" gradientUnits="userSpaceOnUse" gradientTransform="matrix(143.76 -171.32 171.32 143.76 68.732 177.04)" x1="0" x2="1" y1="0" y2="0">
      <stop stop-color="#526123" offset="0"/>
      <stop stop-color="#becd0b" offset="1"/>
    </linearGradient>
  </defs>
  <g transform="translate(-61.232 -12.006)">
    <path d="m61.232 242.44v32.7c0 6.43 5.219 11.62 11.664 11.62h135.43c6.42 0 11.65-5.19 11.65-11.62v-27.08h-147.08c-4.722 0-8.915-2.21-11.668-5.62" fill="#526023"/>
    <g fill="#fff">
      <path d="m98.69 265.45c0 1.32-0.484 2.4-1.403 3.22-0.944 0.82-2.09 1.22-3.442 1.22h-8.23v-3.04h8.23c1.137 0 1.709-0.47 1.709-1.4v-1.96c0-1.01-0.572-1.5-1.709-1.5h-11.144v13.61h-3.129v-16.58h14.249c1.354 0 2.504 0.43 3.453 1.26 0.932 0.83 1.416 1.91 1.416 3.21"/>
      <path d="m118.82 271.16v-7.7c0-0.39-0.17-0.75-0.54-1.06-0.37-0.3-0.76-0.45-1.17-0.45h-9.28c-0.43 0-0.82 0.15-1.18 0.45-0.35 0.31-0.54 0.67-0.54 1.06v7.7c0 0.99 0.57 1.49 1.72 1.49h9.28c1.14 0 1.71-0.5 1.71-1.49m3.13-0.03c0 1.3-0.47 2.38-1.44 3.22-0.95 0.83-2.08 1.25-3.41 1.25h-9.25c-1.33 0-2.49-0.42-3.44-1.25-0.97-0.84-1.42-1.92-1.42-3.22v-7.67c0-1.23 0.48-2.28 1.48-3.16 0.99-0.87 2.11-1.31 3.38-1.31h9.25c1.25 0 2.38 0.44 3.36 1.31 0.99 0.88 1.49 1.93 1.49 3.16"/>
      <path d="m140.82 275.6h-9.22c-1.34 0-2.47-0.41-3.43-1.25-0.93-0.84-1.41-1.92-1.41-3.22v-12.14h3.12v12.17c0 0.99 0.57 1.49 1.72 1.49h9.22"/>
      <path d="m163.52 261.94h-13.86c-0.42 0-0.81 0.16-1.18 0.46-0.35 0.31-0.53 0.68-0.53 1.06v0.83c0 1 0.57 1.49 1.71 1.49l9.27 0.02c1.32 0 2.47 0.4 3.4 1.21 0.98 0.86 1.46 1.95 1.46 3.26v0.87c0 1.24-0.5 2.31-1.48 3.17-0.99 0.87-2.11 1.29-3.37 1.29h-13.86v-2.95h13.87c0.42 0 0.81-0.16 1.17-0.45 0.36-0.3 0.53-0.66 0.53-1.06v-0.87c0-1.01-0.56-1.48-1.7-1.48l-9.27-0.05c-1.34 0-2.47-0.4-3.43-1.23-0.96-0.84-1.43-1.9-1.43-3.22v-0.83c0-1.23 0.5-2.28 1.48-3.17 0.99-0.86 2.12-1.3 3.38-1.3h13.84"/>
      <path d="m187.32 275.65h-3.34l-1.52-5.8h-7.6l0.71-3.05h6.08c-0.14-0.5-0.55-2.31-0.84-3.31-0.27-1-0.84-1.51-1.69-1.51h-3.84c-0.87 0-1.44 0.51-1.72 1.51l-3.11 12.16h-3.34l3.11-12.15c0.78-2.98 2.41-4.48 4.87-4.48h4.23c2.46 0 4.09 1.5 4.85 4.48"/>
      <path d="m204.64 261.94h-6.94v13.66h-3.13v-13.66h-6.83v-2.95h16.9"/>
    </g>
    <g stroke-width=".26456">
      <path d="m167.36 12.007v52.658l12.88 33.149-12.88-15.983v0.249l-56.47-70.074h-49.645v158.73h52.615v-73.25l58.96 73.25h47.15v-158.73l-52.61-0.004z" fill="url(#a)"/>
      <path d="m61.242 176.93h158.73v30.92h-158.73l0.002-30.92z" fill="#9d9d9c"/>
      <path d="m154.48 191.17c-0.93-0.48-2.01-0.63-4.82-0.63h-3.66c-1.17 0-1.65-0.47-1.65-1.58v-0.23c0-0.06 0-0.11 0.01-0.16 0.05-1 0.55-1.44 1.64-1.44h3.99c0.53 0 0.94 0.11 1.2 0.32 0.03 0.02 0.05 0.05 0.06 0.06 0.21 0.21 0.32 0.5 0.34 0.88 0.47-0.03 4.25-0.34 4.76-0.38-0.1-0.47-0.21-0.91-0.33-1.29-0.92-2.72-2.81-3.74-6.61-3.74h-2.91c-4.69 0-6.99 1.56-6.99 4.78v2.2c0 1.69 0.69 2.96 1.93 3.56 0.94 0.5 2.02 0.63 4.81 0.63h3.67c1.17 0 1.65 0.46 1.65 1.57v0.26c0 1.11-0.49 1.61-1.65 1.61h-3.99c-0.6 0-1.01-0.13-1.27-0.41-0.19-0.22-0.31-0.51-0.32-0.91-0.46 0.03-4.29 0.19-4.79 0.21 0.57 3.84 2.49 5.29 6.95 5.29h2.91c4.71 0 6.99-1.58 6.99-4.83v-2.2c0-1.7-0.67-2.97-1.92-3.57m40.51-8.03h-18.6v4.45h6.68v14.11h5.22v-14.11h6.7v-4.45zm-69.64 13.09 2.4-6.39 2.4 6.39h-4.8zm4.23-13.09h-3.7l-8.03 18.64h5.41l0.79-2.1h7.4l0.78 2.1h5.36l-8.01-18.64zm36.02 13.09 2.38-6.41 2.4 6.41h-4.78zm4.22-13.09h-3.7l-8.03 18.64h5.41l0.78-2.1h7.4l0.79 2.1h5.37l-8.02-18.64zm-73.694 11.95-4.489-11.95h-5.41l8.013 18.64h3.714l8.026-18.64h-5.38l-4.473 11.95zm13.234 6.61h5.22v-18.56h-5.22v18.56z" fill="#fff"/>
    </g>
    <g stroke-width=".26456" fill="#526023">
      <path d="m61.239 214.01h5.133l11.845 15.57v-15.57h5.483v25.28h-4.723l-12.254-16.07v16.07h-5.483v-25.28z"/>
      <path d="m106.11 228.75-3.37-8.2-3.36 8.2h6.73zm-5.87-14.93h5.15l10.84 25.48h-5.82l-2.31-5.68h-10.694l-2.325 5.68h-5.659l10.818-25.48z"/>
      <path d="m124.56 219.14h-7.69v-5.13h20.94v5.13h-7.69v20.15h-5.56v-20.15z"/>
      <path d="m154.44 239.69c-3.39 0-6.07-0.93-8.03-2.83-1.94-1.89-2.92-4.68-2.92-8.4v-14.44h5.57v14.3c0 2.07 0.48 3.64 1.45 4.66 0.95 1.06 2.29 1.58 4 1.58s3.05-0.5 4.01-1.5c0.97-1.03 1.45-2.53 1.45-4.57v-14.47h5.57v14.25c0 1.92-0.26 3.59-0.78 5.02s-1.27 2.62-2.22 3.57c-0.98 0.95-2.13 1.66-3.49 2.13s-2.9 0.7-4.61 0.7"/>
      <path d="m184.21 226.33c1.37 0 2.42-0.33 3.16-0.98 0.74-0.66 1.11-1.53 1.11-2.62v-0.07c0-1.2-0.4-2.12-1.17-2.72-0.76-0.6-1.83-0.91-3.21-0.91h-5.52v7.3h5.63zm-11.2-12.33h11.56c3.2 0 5.66 0.87 7.37 2.58 1.43 1.45 2.17 3.38 2.17 5.77v0.08c0 2.04-0.5 3.71-1.5 5.01-1 1.27-2.31 2.23-3.91 2.82l6.17 9.04h-6.51l-5.41-8.1h-0.07-4.3v8.1h-5.57v-25.3z"/>
      <path d="m200.76 214.01h19.04v4.94h-13.56v5.15h11.93v4.94h-11.93v5.31h13.73v4.94h-19.21v-25.28z"/>
    </g>
  </g>
</svg>
