<?xml version="1.0" encoding="UTF-8" standalone="no"?>
<!-- Created with Inkscape (http://www.inkscape.org/) -->

<svg
   xmlns:dc="http://purl.org/dc/elements/1.1/"
   xmlns:cc="http://creativecommons.org/ns#"
   xmlns:rdf="http://www.w3.org/1999/02/22-rdf-syntax-ns#"
   xmlns:svg="http://www.w3.org/2000/svg"
   xmlns="http://www.w3.org/2000/svg"
   version="1.0"
   width="465.92764"
   height="75.768845"
   id="svg2">
  <metadata
     id="metadata3057">
    <rdf:RDF>
      <cc:Work
         rdf:about="">
        <dc:format>image/svg+xml</dc:format>
        <dc:type
           rdf:resource="http://purl.org/dc/dcmitype/StillImage" />
        <dc:title></dc:title>
      </cc:Work>
    </rdf:RDF>
  </metadata>
  <defs
     id="defs3055" />
  <g
     transform="translate(-143.74888,-582.88149)"
     id="layer1">
    <path
       d="m 524.08173,640.43326 c -0.67488,-0.89984 -1.81841,-1.3685 -3.52435,-1.3685 l -9.52322,0 c -1.48097,0 -2.60576,-0.44991 -3.1869,-1.23727 -0.78736,-1.03106 -0.89984,-2.04337 -0.22496,-3.29938 l 3.07442,-7.59234 1.01232,-2.17459 c -1.01232,0 -9.87941,0 -10.89172,0 l -0.8061,2.17459 -3.16816,7.59234 c -0.78735,1.93089 -1.14354,3.63682 -1.03106,5.23027 0.24371,1.68719 0.8061,3.16816 1.70593,4.3117 0.91858,1.23727 2.26833,2.15585 3.86178,2.9432 1.59345,0.67487 3.63682,1.03106 5.79267,1.03106 l 9.65445,0 c 1.68719,0 3.28064,-0.46867 4.53665,-1.3685 1.34975,-0.78735 2.26833,-1.93089 2.71825,-3.1869 0.44991,-1.12479 0.44991,-2.26833 0,-3.05568 z m 4.42417,-20.77113 c 1.3685,-0.89983 2.26833,-1.93089 2.71824,-3.16816 0.58115,-1.25601 0.58115,-2.28707 0,-3.1869 -0.56239,-0.89984 -1.68718,-1.3685 -3.39311,-1.3685 l -10.66676,0 1.34975,-3.50559 c 0.58114,-1.3685 0.46866,-2.51204 -0.22496,-3.41187 -0.78736,-0.67487 -1.81841,-1.14353 -3.28064,-1.14353 -1.59345,0 -2.96195,0.46866 -4.3117,1.25601 -1.36849,0.91858 -2.39955,2.04337 -2.84946,3.29939 l -1.46223,3.50559 -3.41187,8.97958 21.10857,0.11248 c 1.59345,0 3.05568,-0.46867 4.42417,-1.3685"
       id="path3255"
       style="fill:#ef2721;fill-rule:evenodd;stroke:none" />
    <path
       d="m 572.54125,637.47112 c -0.33744,0.5624 -0.33744,1.14354 0,1.59345 0.33744,0.44992 0.78735,0.67488 1.36849,0.67488 l 14.97846,0 c 0.67487,0 1.23727,-0.11248 1.93089,-0.44992 0.67487,-0.11248 1.34975,-0.44991 1.93089,-1.03106 0.67487,-0.44991 1.23727,-0.89983 1.70593,-1.46222 0.44992,-0.46867 0.89983,-1.14354 1.01231,-1.70593 l 3.86178,-9.4295 c 0.22496,-0.44991 0.22496,-1.12479 0.22496,-1.5747 0,-0.58114 -0.11248,-1.14354 -0.44992,-1.48098 -0.22495,-0.56239 -0.69362,-0.91857 -1.03105,-1.14353 -0.5624,-0.22496 -1.12479,-0.33744 -1.57471,-0.33744 l -21.23979,0 c -1.34975,0 -2.26832,-0.44992 -2.83072,-1.23727 -0.44992,-1.03106 -0.44992,-2.15585 0,-3.52434 0.5624,-1.14354 1.3685,-2.26833 2.49329,-3.18691 1.36849,-1.01231 2.60576,-1.34975 4.08673,-1.34975 l 21.22104,0 c 1.93089,0 3.52435,0.22496 4.89284,1.01232 1.34975,0.69362 2.60577,1.70593 3.28064,3.07442 0.8061,1.34975 1.14354,2.71825 1.25602,4.42418 0.11247,1.70593 -0.33744,3.50559 -1.03106,5.324 l -3.73056,9.4295 c -0.8061,1.93088 -1.93089,3.7493 -3.29938,5.43648 -1.48097,1.59345 -3.07443,3.07443 -4.76161,4.44292 -1.93089,1.23727 -3.86178,2.26833 -5.79267,2.9432 -2.04337,0.78736 -3.86178,1.14354 -5.79267,1.14354 l -15.09094,0 c -1.59345,0 -2.96194,-0.35618 -4.08673,-0.91858 -1.14354,-0.67487 -2.04337,-1.48097 -2.71825,-2.49328 -0.69362,-1.03106 -0.91858,-2.38081 -0.91858,-3.7493 -0.11247,-1.3685 0.22496,-2.83073 0.8061,-4.42418 0.67488,-1.70593 1.68719,-3.97426 2.83073,-5.34275 1.12479,-1.46223 2.49328,-2.71825 3.97426,-3.84304 2.04336,-1.03105 2.83072,-1.25601 4.53665,-1.81841 1.70593,-0.58114 3.63682,-0.8061 5.23027,-0.8061 l 10.1981,0 c 1.25602,0 2.15585,0.58115 2.73699,1.3685 0.22496,0.67487 0.5624,1.25601 0,2.60576 -0.44992,1.3685 -1.36849,2.38081 -2.73699,3.29939 -1.23727,0.78735 -2.49328,1.34975 -3.73055,1.34975 l -10.32933,0 c -0.8061,0 -1.36849,0.2437 -2.04337,0.69362 -0.58114,0.44991 -1.14353,1.70593 -1.36849,2.49328"
       id="path3259"
       style="fill:#ef2721;fill-rule:evenodd;stroke:none" />
    <path
       d="m 465.06736,611.82609 c 1.48097,-0.11248 3.05568,0 4.64913,0.78736 1.59346,0.58114 2.84947,1.81841 3.97426,3.29938 l 24.07051,36.89312 c 0.89983,1.46223 1.12479,2.83072 0.67488,3.84303 -0.5624,1.03106 -1.59346,1.70593 -3.07443,1.93089 -1.46223,0.22496 -3.05568,-0.11248 -4.64913,-0.67487 -1.70593,-0.78736 -2.9432,-1.93089 -3.97426,-3.52435 l -24.05177,-36.76189 c -1.03105,-1.59345 -1.25601,-2.84947 -0.69362,-3.86178 0.58115,-1.03106 1.59346,-1.70593 3.07443,-1.93089"
       id="path3263"
       style="fill:#ef2721;fill-rule:evenodd;stroke:none" />
    <path
       d="m 452.91981,649.39408 c 1.3685,0.5624 2.94321,0.67488 4.64914,0.22496 1.70593,-0.33743 3.41186,-1.12479 4.78036,-2.3808 l 34.04364,-29.84444 c 1.34975,-1.36849 2.04337,-2.51203 1.81842,-3.52434 -0.24371,-1.14354 -1.03106,-1.93089 -2.39956,-2.3808 -1.34975,-0.5624 -2.83072,-0.67488 -4.64913,-0.22496 -1.70593,0.33743 -3.28064,1.12479 -4.76161,2.3808 l -34.04365,29.73196 c -1.3685,1.25601 -1.93089,2.60576 -1.81841,3.63682 0.22496,1.01231 1.12479,1.81841 2.3808,2.3808"
       id="path3267"
       style="fill:#ef2721;fill-rule:evenodd;stroke:none" />
    <path
       d="m 157.15642,616.5877 c 0,2.94321 -2.3808,5.23028 -5.23027,5.23028 -2.9432,0 -5.21153,-2.28707 -5.21153,-5.23028 0,-2.83072 2.26833,-5.23027 5.21153,-5.23027 2.96195,0 5.23027,2.39955 5.23027,5.23027"
       id="path3271"
       style="fill:#ef2721;fill-rule:evenodd;stroke:none" />
    <path
       d="m 366.66715,649.05683 0,-9.18578 16.45943,0 c 1.70594,0 2.9432,0.44991 3.41187,1.34975 0.67487,0.8061 0.78735,2.04337 0.22496,3.29938 -0.46867,1.12479 -1.3685,2.26833 -2.73699,3.05568 -1.34975,1.03106 -2.83073,1.48097 -4.53666,1.48097 l -12.82261,0 z m 0,-22.36457 0,-2.04337 40.86738,-0.11248 c 1.01231,0 0.5624,1.14354 0.5624,1.14354 0,0 -0.67488,1.01231 -1.70594,1.01231 l -39.72384,0 z m 0,-5.43649 0,-17.71544 c 1.14354,-0.5624 2.26833,-0.78736 3.41187,-0.78736 1.46222,0 2.60576,0.44992 3.39311,1.23727 0.8061,0.91858 0.91858,1.93089 0.33744,3.41187 l -1.79966,4.53665 11.00419,0 c 1.81842,0 2.94321,0.58114 3.52435,1.48097 0.56239,1.01231 0.67487,2.04337 0.11248,3.29939 -0.46867,1.23727 -1.48098,2.3808 -2.84947,3.28064 -1.34975,0.78735 -2.83072,1.25601 -4.42418,1.25601 l -12.71013,0 z m 0,-17.71544 0,17.71544 -23.26441,0 c -0.67487,0 -1.25601,0.11248 -2.15584,0.33744 -0.69362,0.22496 -1.3685,0.56239 -2.15585,1.01231 -0.5624,0.35618 -1.25602,0.91858 -1.81841,1.36849 -0.44992,0.44992 -0.89983,1.14354 -1.14354,1.59346 l -7.2549,18.84023 c -0.67487,1.46223 -1.59345,2.60577 -3.07442,3.39312 -1.34975,0.8061 -2.83072,1.14354 -4.3117,1.14354 -1.01231,0 -1.93089,-0.11248 -2.60576,-0.5624 l 0,-6.71125 6.24258,-16.10324 c 0.8061,-1.70594 1.93089,-3.52435 3.52435,-5.23028 1.59345,-1.59345 3.28063,-3.05568 5.324,-4.31169 1.93089,-1.23727 4.19922,-2.15585 6.46755,-2.83073 2.17459,-0.8061 4.44292,-1.25601 6.59877,-1.25601 l 13.94739,0 1.81841,-4.53665 c 0.44992,-1.25602 1.48098,-2.38081 2.96195,-3.29939 0.22496,-0.22496 0.5624,-0.33744 0.89983,-0.56239 z m 0,21.10856 -19.29015,0 c -1.03106,0 -1.03106,0.91858 -1.03106,0.91858 0,0 -0.11247,1.12479 1.14354,1.12479 1.12479,0 7.72356,0 7.72356,0 l -3.29938,8.39843 c -0.78736,2.04337 -1.03106,3.86178 -0.91858,5.45523 0.2437,1.70593 0.91858,3.16816 1.81841,4.42418 1.03106,1.25601 2.39955,2.26832 4.08674,2.9432 1.70593,0.8061 3.63682,1.03106 6.01762,1.14353 l 3.7493,0 0,-9.18578 -0.11248,0 c -1.48097,0 -2.60576,-0.58114 -3.41186,-1.48098 -0.67487,-0.78735 -0.78735,-1.93089 -0.22496,-3.29938 l 3.29939,-8.39843 0.44991,0 0,-2.04337 z m -47.78483,2.84947 0.56239,-1.59346 c 0.8061,-1.93089 1.03106,-3.63682 0.8061,-5.34275 -0.22496,-1.46223 -0.56239,-2.83072 -1.36849,-3.97426 l 0,10.91047 z m 0,-10.91047 0,10.91047 -3.05568,7.59233 c -0.69362,1.93089 -1.93089,3.7493 -3.41187,5.45523 -1.48097,1.59346 -3.29938,3.05568 -5.34275,4.3117 -2.02462,1.25601 -4.06799,2.3808 -6.46754,3.05568 -2.15585,0.8061 -4.42418,1.03106 -6.80498,1.03106 l -0.22496,0 0,-9.18579 3.97426,0 c 0.67487,0 1.36849,-0.13123 2.15585,-0.35618 0.67487,-0.22496 1.48097,-0.5624 2.15584,-1.01232 0.78736,-0.56239 1.25602,-0.91857 1.81841,-1.59345 0.5624,-0.44991 0.89984,-1.12479 1.14354,-1.70593 l 3.61808,-9.29827 c 0.22495,-0.44991 0.33743,-1.14353 0.22495,-1.70593 -0.11248,-0.44991 -0.22495,-1.01231 -0.56239,-1.36849 -0.33744,-0.5624 -0.89983,-0.89983 -1.3685,-1.12479 -0.67487,-0.22496 -1.12479,-0.33744 -1.91214,-0.33744 l -11.2479,0 0,-9.31701 14.86598,0 c 2.26832,0 4.19921,0.44991 5.90514,1.25601 1.70594,0.67488 3.05568,1.59346 4.08674,2.83073 0.22496,0.22495 0.33744,0.44991 0.44992,0.56239 z m 0,25.08282 -1.01231,2.73699 c -0.58114,1.34975 -0.58114,2.49329 0.11248,3.28064 0.33743,0.35618 0.56239,0.58114 0.89983,0.69362 l 0,-6.71125 z m -25.30778,-29.73195 0,9.31701 -3.86178,0 c -1.48097,0 -3.05568,0.33744 -4.42418,1.34975 -1.36849,0.91858 -2.3808,1.93089 -2.83072,3.1869 l -3.63682,9.29827 c -0.44992,1.36849 -0.44992,2.38081 0.22496,3.29938 0.67487,0.89984 1.93089,1.3685 3.41186,1.3685 l 11.11668,0 0,9.18579 -14.7535,0 c -2.26833,0 -4.31169,-0.33744 -5.90515,-1.03106 -1.70593,-0.67488 -3.05568,-1.79967 -4.08674,-3.05568 -1.01231,-1.25602 -1.5747,-2.71824 -1.81841,-4.3117 -0.22495,-1.70593 0.11248,-3.52434 0.8061,-5.45523 l 3.73056,-9.29827 c 0.69362,-1.81841 1.81841,-3.63682 3.29938,-5.34275 1.59346,-1.70593 3.41187,-3.16816 5.34276,-4.42417 2.04336,-1.23727 4.08673,-2.26833 6.35506,-2.9432 2.38081,-0.8061 4.53665,-1.14354 6.80498,-1.14354 l 0.22496,0 z m -64.80666,25.66396 0,-11.69782 4.53665,0 -4.53665,11.69782 z m 0,-16.34695 22.47706,0 c 1.48097,0 2.60576,0.33744 3.39311,1.34975 0.58114,0.8061 0.69362,1.93089 0.35619,3.1869 l -3.7493,9.29827 c -0.44992,1.36849 -1.48098,2.51203 -2.96195,3.29938 -1.34975,0.89984 -2.71825,1.3685 -4.3117,1.3685 l -2.9432,0 c -1.70593,0 -3.1869,0.44992 -4.53665,1.23727 -1.3685,0.91858 -2.26833,2.04337 -2.84947,3.41186 -0.44992,1.23727 -0.33744,2.26833 0.11248,3.16816 0.69362,0.91858 1.81841,1.3685 3.63682,1.3685 l 2.83072,0 c 2.39955,0 4.66788,-0.33744 6.93621,-1.14354 2.26832,-0.67488 4.42417,-1.68719 6.46754,-2.9432 1.93089,-1.25602 3.63682,-2.71824 5.21153,-4.3117 1.48097,-1.70593 2.62451,-3.52434 3.41186,-5.45523 l 3.7493,-9.29827 c 0.67488,-1.81841 0.89984,-3.63682 0.67488,-5.34275 -0.22496,-1.70593 -0.78736,-3.16816 -1.81841,-4.42417 -1.01231,-1.23727 -2.38081,-2.26833 -4.08674,-2.9432 -1.70593,-0.8061 -3.61808,-1.14354 -5.90515,-1.14354 l -21.55848,0 c -0.67487,0 -1.46223,0.11248 -2.15585,0.33744 -0.67487,0.35618 -1.48097,0.69362 -2.15584,1.03105 l -0.22496,0.22496 0,7.72356 z m -13.60996,-0.8061 c 0.22495,-0.22496 0.44991,-0.33744 0.67487,-0.44991 1.48097,-0.89984 2.38081,-2.04337 2.9432,-3.28064 0.5624,-1.25602 0.44992,-2.28708 -0.33744,-3.29939 -0.67487,-0.89983 -1.81841,-1.36849 -3.28063,-1.36849 l 0,8.39843 z m 13.60996,-6.91746 0,7.72356 -4.64913,0 2.04336,-4.66788 c 0.22496,-0.67487 0.5624,-1.23727 1.01232,-1.79966 0.46866,-0.46867 1.03105,-0.91858 1.59345,-1.25602 z m 0,12.37269 0,11.69782 -6.35507,15.99077 c -0.44991,1.48097 -1.48097,2.49328 -2.83072,3.41186 -1.36849,0.78736 -2.84947,1.23727 -4.31169,1.23727 l -0.11248,0 0,-13.9474 7.14241,-18.39032 6.46755,0 z m -17.47174,8.84835 1.93089,0 c 0.11248,-0.56239 0.11248,-1.01231 0,-1.70593 -0.24371,-1.34975 -0.58114,-2.60576 -1.48098,-3.61807 -0.11248,-0.24371 -0.33743,-0.46867 -0.44991,-0.69362 l 0,6.01762 z m 0,-13.385 0.11248,0 c 1.23727,0 2.49328,-0.33744 3.7493,-0.91858 l 0,-8.39843 -3.86178,0 0,9.31701 z m 3.86178,22.92697 0,13.9474 c -1.48098,-0.11248 -2.62451,-0.44991 -3.41187,-1.23727 -0.22495,-0.33743 -0.44991,-0.69362 -0.44991,-1.03106 l 0,-1.68718 c 0,-0.24371 0.11248,-0.46866 0.11248,-0.69362 l 3.7493,-9.29827 z m -3.86178,-4.19921 0,-0.22496 0.11248,0 c -0.11248,0.11248 -0.11248,0.11248 -0.11248,0.22496 z m -39.9488,-8.28596 c 0.78735,1.01231 1.91214,1.93089 3.39312,2.49329 1.14353,0.33743 1.70593,0.44991 3.63682,0.44991 l 32.91886,0 0,-6.01762 c -0.8061,-0.67488 -1.81841,-1.34975 -2.96195,-1.81842 -1.34975,-0.56239 -3.05568,-0.89983 -4.98657,-0.89983 l -19.98377,0 c -0.78736,0 -1.34975,-0.33743 -1.70593,-0.67487 -0.33744,-0.46866 -0.33744,-1.03106 -0.22496,-1.70593 0.35618,-0.67488 0.91858,-1.14354 1.48097,-1.70594 0.78735,-0.44991 1.48098,-0.56239 2.26833,-0.56239 l 26.11388,0 0,-9.31701 -22.47706,0 c -1.93089,0 -3.7493,0.33743 -5.68019,1.03106 -1.93089,0.56239 -3.7493,1.46222 -5.32401,2.3808 -1.70593,1.01231 -3.1869,2.26833 -4.42417,3.7493 -1.3685,1.34975 -2.28708,2.83072 -2.96195,4.42418 -0.33744,1.12479 -0.56239,2.26832 -0.56239,3.28063 0,0 -23.84556,0 -25.1953,0 -1.03106,0 -0.91858,0.8061 -0.91858,0.8061 0,0 0,0.78736 0.91858,0.78736 2.15584,0 25.30777,0 25.30777,0 0.22496,1.25601 0.5624,2.3808 1.3685,3.29938 z m 39.9488,8.061 0,0.22496 c -0.35619,0.56239 -0.91858,1.34974 -1.48098,1.93089 -1.36849,1.34974 -2.83072,2.60576 -4.53665,3.73055 -1.59345,1.03106 -3.41186,1.81841 -5.34275,2.39955 -1.93089,0.5624 -3.7493,0.89983 -5.66145,0.89983 l -28.26972,0 c -1.48098,0 -2.60577,-0.33743 -3.41187,-1.36849 -0.67487,-0.78735 -0.78735,-1.93089 -0.33743,-3.16816 0.56239,-1.25601 1.48097,-2.3808 2.96194,-3.29938 1.34975,-0.89984 2.83072,-1.34975 4.42418,-1.34975 l 41.65473,0 z m 0,14.41606 0,1.68718 c -0.22496,-0.44991 -0.22496,-1.01231 0,-1.68718"
       id="path3275"
       style="fill:#1574c4;fill-rule:evenodd;stroke:none" />
    <path
       d="m 561.53724,620.33682 c 1.59345,0 3.07443,-0.33744 4.53665,-1.25602 1.3685,-0.89983 2.26833,-1.91214 2.84947,-3.28064 0.44992,-1.25601 0.44992,-2.3808 -0.2437,-3.29938 -0.5624,-0.89983 -1.79967,-1.34975 -3.39312,-1.34975 l -7.61108,0 c -2.15585,0 -4.42417,0.33744 -6.6925,1.01231 -2.15585,0.78736 -4.42418,1.81841 -6.35507,2.96195 -2.04336,1.34975 -3.86178,2.71824 -5.34275,4.42417 -1.57471,1.57471 -2.71824,3.28064 -3.50559,5.21153 l -7.27365,18.72776 c -0.56239,1.25601 -0.56239,2.49328 0.11248,3.29938 0.69362,0.89984 1.81841,1.34975 3.52434,1.34975 1.48098,0 2.9432,-0.44991 4.3117,-1.23727 1.48097,-0.91858 2.38081,-1.93089 2.9432,-3.41186 l 7.38612,-18.72776 c 0.22496,-0.67487 0.67488,-1.12479 1.14354,-1.70593 0.56239,-0.44992 1.12479,-0.89983 1.79966,-1.34975 0.69362,-0.35618 1.48098,-0.69362 2.15585,-1.03106 0.8061,-0.22495 1.48097,-0.33743 2.15585,-0.33743 l 7.4986,0"
       id="path3279"
       style="fill:#ef2721;fill-rule:evenodd;stroke:none" />
    <path
       d="m 288.34408,594.35454 2.71824,0 c 0,2.60576 0,5.23027 0,7.94852 2.26833,0 4.64913,0 6.93621,0 0,-6.35507 0,-12.82261 0,-19.29016 l -9.65445,0 0,3.28064 2.71824,0 c 0,0 0,2.38081 0,4.76161 l -2.71824,0 0,3.29939 z m -5.34276,-11.34164 c -0.89983,0 -4.31169,1.46223 -4.31169,4.8741 0,3.41186 0,9.65444 0,14.41606 0,0 3.41186,0 6.9362,0 l 0,-7.94852 2.71825,0 0,-3.29939 -2.71825,0 c 0,-1.34974 0,-2.71824 0,-2.71824 0,-1.12479 0.78736,-2.04337 1.93089,-2.04337 l 0.78736,0 0,-3.28064 -5.34276,0"
       id="path3283"
       style="fill:#9c9a9a;fill-rule:evenodd;stroke:none" />
    <path
       d="m 226.61184,582.99397 -5.11779,-0.11248 0,3.05568 1.03105,0 c 1.01232,0 1.59346,1.3685 1.59346,2.15585 0,0.8061 0,6.71125 0,9.09205 0,1.12479 -0.58114,1.81841 -1.59346,1.81841 l -1.03105,0 0,2.94321 5.34275,0 c 2.04337,0 3.97426,-2.04337 3.97426,-4.76162 l 0,-9.31701 c 0,-2.9432 -2.15585,-4.87409 -4.19922,-4.87409 z m -5.11779,-0.11248 -4.87409,0 c -3.39312,0 -4.76162,3.05568 -4.76162,4.87409 l 0,9.42949 c 0,2.38081 1.59346,4.76162 4.64914,4.76162 l 4.98657,0 0,-2.94321 -1.34975,0 c -0.69362,0 -1.3685,-0.91857 -1.3685,-1.81841 l 0,-9.09205 c 0,-1.12479 0.67488,-2.15585 1.3685,-2.15585 l 1.34975,0 0,-3.05568"
       id="path3287"
       style="fill:#9c9a9a;fill-rule:evenodd;stroke:none" />
    <path
       d="m 202.42904,582.88168 -4.31169,0 0,3.05568 0.78735,0 c 1.03106,0 1.70593,0.8061 1.70593,1.59345 l 0,2.96195 c 0,0.67487 -0.33744,1.57471 -1.70593,1.57471 l -0.78735,0 0,3.1869 4.53665,0 c 3.1869,0 4.87409,-2.71824 4.87409,-4.76161 l 0,-3.29939 c 0,-1.36849 -1.34975,-4.31169 -5.09905,-4.31169 z m -4.31169,0 -9.87941,0 c 0,6.24258 0,12.71013 0,19.06519 2.3808,0 4.76161,0 7.04868,0 0.22496,-2.26832 0.22496,-4.53665 0.22496,-6.6925 l 2.60577,0 0,-3.1869 -2.60577,0 c 0,-2.04337 0,-3.97426 0,-6.13011 l 2.60577,0 0,-3.05568"
       id="path3291"
       style="fill:#9c9a9a;fill-rule:evenodd;stroke:none" />
    <path
       d="m 320.36329,586.29336 c -1.25601,0 -2.83072,0 -4.42417,0 0,5.09904 0,10.77923 0,16.00951 -2.49329,0 -4.87409,0 -7.27365,0 0,-5.23028 0,-10.91047 0,-16.00951 -1.91214,0 -3.97425,0 -6.11136,0 0,-1.14354 0,-2.15585 0,-3.29939 6.46755,0 12.82261,0 19.40263,0 -0.44991,1.14354 -0.91857,2.26833 -1.59345,3.29939"
       id="path3295"
       style="fill:#9c9a9a;fill-rule:evenodd;stroke:none" />
    <path
       d="m 264.7426,599.11596 c 0.78736,0 1.48098,-1.01231 1.48098,-1.59345 0,-0.67487 -0.69362,-1.34975 -1.3685,-1.59345 -1.70593,-0.89983 -4.42417,-1.79967 -6.01762,-2.71825 -2.04337,-1.34974 -3.16816,-2.3808 -3.16816,-5.54896 0,-3.18691 3.16816,-4.66788 5.43648,-4.66788 0,0 6.01763,0 12.03526,0 -0.89983,1.48097 -1.93089,3.07443 -1.93089,3.07443 -2.15585,0 -5.45523,0 -6.35507,0 -1.12479,0 -1.93089,0.89983 -1.93089,1.81841 0,0.78735 0.8061,1.5747 2.60577,2.15585 1.93089,0.78735 4.08674,1.81841 5.11779,2.60576 2.15585,1.36849 2.49329,3.05568 2.49329,4.53665 0,1.93089 -1.3685,5.1178 -3.86178,5.1178 0,0 -6.6925,-0.13123 -13.60996,-0.13123 1.34975,-1.5747 2.49328,-3.05568 2.49328,-3.05568 2.04337,0 4.98657,0 6.58002,0"
       id="path3299"
       style="fill:#9c9a9a;fill-rule:evenodd;stroke:none" />
    <path
       d="m 250.55131,602.19058 c -3.63682,0 -8.73587,0 -11.00419,0 -2.15585,0 -3.7493,-2.60577 -3.7493,-4.42418 0,0 0,-7.4986 0,-14.7535 3.28063,0 6.6925,0 6.6925,0 0,4.8741 0,12.93509 0,13.9474 0,1.3685 1.14353,2.06212 1.59345,2.06212 0,0 4.42418,0 8.62339,0.11248 -1.03106,1.46222 -2.15585,3.05568 -2.15585,3.05568"
       id="path3303"
       style="fill:#9c9a9a;fill-rule:evenodd;stroke:none" />
    <path
       d="m 442.92774,639.75838 -15.78455,0 0,9.29827 12.03525,0 c 1.48097,0 2.83072,-0.33744 3.97426,-1.34975 1.25601,-0.91858 2.04337,-2.04337 2.49328,-3.29939 0.69362,-1.34974 0.69362,-2.49328 0.11248,-3.39311 -0.56239,-0.8061 -1.46222,-1.25602 -2.83072,-1.25602 z m -15.78455,-4.64913 0,-8.51091 15.22216,0 c 0.56239,0 1.23726,-0.22496 1.81841,-0.69362 0.67487,-0.44992 1.12479,-1.79967 1.46222,-2.49329 0.22496,-0.67487 0.22496,-1.12479 -0.11248,-1.70593 -0.22495,-0.33744 -0.67487,-0.5624 -1.34974,-0.5624 l -17.04057,0 0,-9.29826 20.77112,0 c 1.59345,0 2.96195,0.22496 4.19922,0.89983 1.14353,0.5624 2.04337,1.48097 2.62451,2.49329 0.67487,1.03105 1.01231,2.15584 1.12479,3.63682 0,1.48097 -0.22496,2.9432 -0.89983,4.53665 -0.69362,1.59345 -1.70594,3.86178 -2.84947,5.34275 -1.23727,1.46223 -2.60577,2.60577 -4.08674,3.61808 -1.81841,1.25602 -2.71824,1.36849 -4.3117,2.04337 -1.81841,0.58114 -3.7493,0.69362 -5.43648,0.69362 l -11.13542,0 z m 0,4.64913 -11.11668,0 c -0.67488,0 -1.14354,-0.11248 -1.59345,-0.44991 -0.5624,-0.11248 -0.78736,-0.5624 -1.12479,-1.03106 -0.22496,-0.44992 -0.44992,-0.89983 -0.44992,-1.46223 0,-0.46866 0.11248,-1.14354 0.33744,-1.70593 l 3.28064,-8.17348 -9.29827,0 -3.29939,8.17348 c -0.78735,1.93089 -1.12479,3.7493 -1.12479,5.43648 0,1.59346 0.44992,3.07443 1.34975,4.44293 0.69362,1.23727 1.70593,2.26832 3.18691,3.05568 1.36849,0.67487 3.05568,1.01231 4.98657,1.01231 l 14.86598,0 0,-9.29827 z m 0,-27.91354 0,9.29826 -3.73056,0 c -0.46866,0 -1.14354,0.11248 -1.81841,0.33744 -0.69362,0.22496 -1.25602,0.58114 -1.93089,1.14354 -0.56239,0.33744 -1.14354,0.89983 -1.70593,1.48097 -0.11248,0.11248 -0.11248,0.22496 -0.22496,0.44992 l -9.54197,0 c 0.69362,-1.48098 1.48097,-2.84947 2.73699,-4.19922 1.34975,-1.70593 2.9432,-3.07443 4.76161,-4.42417 1.81841,-1.3685 3.63682,-2.39956 5.68019,-3.07443 1.93089,-0.78735 3.95551,-1.01231 5.77393,-1.01231 z m 0,14.7535 0,8.51091 -4.64914,0 c -1.23727,0 -2.15585,-0.44992 -2.71824,-1.3685 -0.33744,-0.56239 -0.5624,-1.23726 -0.11248,-2.49328 0.5624,-1.3685 1.34975,-2.38081 2.71824,-3.29939 1.25602,-1.01231 2.49329,-1.34974 3.7493,-1.34974 l 1.01232,0"
       id="path3307"
       style="fill:#ef2721;fill-rule:evenodd;stroke:none" />
  </g>
</svg>
