<?xml version="1.0" encoding="UTF-8" standalone="no"?>
<!-- Created with Inkscape (http://www.inkscape.org/) -->
<svg xmlns:rdf="http://www.w3.org/1999/02/22-rdf-syntax-ns#" xmlns="http://www.w3.org/2000/svg" height="167.4" width="600" version="1.1" xmlns:cc="http://creativecommons.org/ns#" xmlns:dc="http://purl.org/dc/elements/1.1/">
 <defs></defs>
 <metadata>
  <rdf:RDF>
   <cc:Work rdf:about="">
    <dc:format>image/svg+xml</dc:format>
    <dc:type rdf:resource="http://purl.org/dc/dcmitype/StillImage"/>
    <dc:title/>
   </cc:Work>
  </rdf:RDF>
 </metadata>
 <g fill-rule="nonzero" transform="translate(501.07306,199.34343)" fill="#01e805">
  <path d="m-450.69-126.4c0,3.8599,2.2412,5.5034,9.0396,5.5034h14.892v-9.5376h-17.581c-3.9097,0-6.3501,1.1206-6.3501,4.0342"/>
  <path d="m-450.69-145.78c0,4.6069,3.5859,5.0552,8.9898,5.0552h14.941v-9.5376h-18.229c-3.5859,0-5.7026,1.6934-5.7026,4.4824"/>
  <path d="m-440.99-184.04c0.97119,1.519,1.1455,4.3081,1.793,6.6489,0.57275,2.3906,1.5938,4.4326,4.2334,4.4326,2.6895,0,3.7852-2.0918,3.7852-4.5073,0-5.105-2.9385-6.8232-9.8115-6.5742"/>
  <path d="m-462.74-62.176-0.89649,7.0474,12.476,0,0.59766-7.0474c0.27392-3.1626-1.0957-5.4038-5.354-5.4038-4.3579,0-6.4248,2.291-6.8232,5.4038"/>
  <path d="m-434.51-162.23c-10.857,0-10.011-11.629-11.555-19.075l-3.0879-2.8638c-2.4902,0-3.4614,2.9634-3.4614,5.1797,0,2.9883,1.3447,4.8809,4.1587,5.3789v10.061c-4.3579-0.19921-7.1719-2.2163-8.915-5.1299-1.6685-2.8887-2.3159-6.6987-2.3159-10.409,0-6.873,1.3696-13.522,8.1431-15.016h-28.065-3.6856v86.66l-17.78,69.303v4.2334h74.309v-4.2334-3.4863-2.3906h-48.809l3.1626-19.698c1.1206-7.0723,6.0015-13.422,16.685-13.422,11.206,0,15.29,5.105,14.842,13.422l-0.47315,8.5664h14.593v-24.031h-36.158l1.1953-9.0147h6.375v-0.09961c-4.4326-1.2949-5.9019-4.5322-5.4038-8.1929l0.24902-1.7681h10.21l-0.22412,2.3408c-0.27392,2.9883,0.27393,7.4707,7.147,7.4707h16.61v-11.331h-32.996l1.021-7.7446h31.975v-3.0879h-31.95v-9.961h4.5571v-0.12451c-3.3369-1.9673-5.5283-5.4536-5.5283-9.438,0-4.1089,1.3696-7.2964,5.4038-9.0894-3.5361-2.5898-5.4038-5.8022-5.4038-10.235,0-10.434,8.0435-11.106,14.394-11.106h18.527v-5.0801c-1.6684,2.1167-4.2334,3.4116-7.7446,3.4116m-28.264,62.48-8.6162,0,1.3696-7.6948,8.3672,0-1.1206,7.6948z"/>
  <path d="m-298.33-65.12,1.544,2.0669c0,1.3696-0.94629,3.7603-2.8389,7.1968-1.8677,3.4116-5.0552,7.3711-9.5127,11.829-7.6948,7.8691-18.751,11.829-33.17,11.829h-12.601c-7.1968,0-13.746-1.0708-19.673-3.2124-5.9019-2.1416-10.957-5.2295-15.166-9.2637-4.1836-4.0342-7.4209-8.8403-9.6372-14.394-2.2163-5.5781-3.3369-11.779-3.3369-18.652v-76.102c0-6.8482,1.1455-13.074,3.4614-18.652,2.3159-5.5532,5.5283-10.31,9.6372-14.269,4.1338-3.9346,9.1392-7.0225,15.041-9.2637,5.9268-2.2163,12.476-3.3369,19.673-3.3369h12.601c5.8272,0,11.156,0.69727,15.962,2.0669,4.7813,1.3696,9.1641,3.5112,13.099,6.4248,2.5649,1.8926,4.8809,3.9346,6.9478,6.1758l5.1299,6.4248,3.2124,5.6528,1.1704,3.6108-1.544,2.042-22.362,11.057-1.2949,0.24903-1.793-1.1455-1.793-3.2124c-2.2412-3.9346-4.6318-6.9976-7.2217-9.1392-2.5649-2.1416-5.7275-3.2124-9.5127-3.2124h-12.601c-5.1299,0-9.5127,1.8179-13.099,5.4038-3.6108,3.6108-5.4038,7.9688-5.4038,13.124v76.102c0,5.1548,1.793,9.5127,5.4038,13.124,3.5859,3.5859,7.9688,5.3789,13.099,5.3789h12.601c3.7852,0,6.898-1.021,9.3882-3.063,2.4902-2.0669,4.856-5.1548,7.0723-9.2637,1.544-3.2622,2.8389-4.8809,3.8599-4.8809l1.2949,0.24902,22.362,11.057z"/>
  <path d="m-248.19-158.2,0,85.116c0,4.8062,1.1455,8.1431,3.4614,10.011,2.3159,1.8926,4.582,2.8389,6.8232,2.8389l1.2949,0.24902,1.27,2.3159v23.159l-1.544,2.291-3.5859,0.27393c-4.9805-0.17432-9.7866-1.3447-14.394-3.4863-4.6318-2.1416-8.7656-5.0801-12.352-8.8652-3.6108-3.7603-6.4746-8.0933-8.6162-12.974-2.1416-4.8809-3.2124-10.16-3.2124-15.813v-85.116c0-5.6528,1.0708-10.932,3.2124-15.813,2.1416-4.8809,5.0054-9.2139,8.6162-12.974,3.5859-3.7852,7.7197-6.7485,12.352-8.8901,4.6069-2.1416,9.4131-3.2871,14.394-3.4614l3.5859,0.24902,1.544,2.3159v23.134l-1.27,2.3159-1.2949,0.27392c-2.2412,0-4.5073,0.94629-6.8232,2.814-2.3159,1.8926-3.4614,5.2295-3.4614,10.036"/>
  <path d="m-196.76-158.2c0-4.8062-1.1455-8.1431-3.4614-10.036-2.3159-1.8677-4.6069-2.814-6.8232-2.814l-1.2949-0.27392-1.27-2.3159v-23.134l1.544-2.3159,3.5859-0.24902c4.8062,0.17431,9.5127,1.3198,14.145,3.4614,4.6318,2.1416,8.7407,5.105,12.352,8.8901,3.5859,3.7603,6.4995,8.0933,8.7407,12.974,2.2163,4.8809,3.3369,10.16,3.3369,15.813v85.116c0,5.6528-1.1206,10.932-3.3369,15.813-2.2412,4.8809-5.1548,9.2139-8.7407,12.974-3.6108,3.7852-7.7197,6.7236-12.352,8.8652-4.6318,2.1416-9.3384,3.312-14.145,3.4863l-3.5859-0.27393-1.544-2.291v-23.159l1.27-2.3159,1.2949-0.24902c2.2163,0,4.5073-0.94629,6.8232-2.8389,2.3159-1.8677,3.4614-5.2046,3.4614-10.011v-85.116z"/>
  <path d="m-109.34-158.2,0,85.116c0,4.8062,1.1455,8.1431,3.4614,10.011,2.3159,1.8926,4.582,2.8389,6.8232,2.8389l1.2949,0.24902,1.27,2.3159v23.159l-1.5439,2.291-3.5859,0.27393c-4.9805-0.17432-9.7866-1.3447-14.394-3.4863-4.6318-2.1416-8.7656-5.0801-12.352-8.8652-3.6108-3.7603-6.4746-8.0933-8.6162-12.974-2.1416-4.8809-3.2124-10.16-3.2124-15.813v-85.116c0-5.6528,1.0708-10.932,3.2124-15.813,2.1416-4.8809,5.0054-9.2139,8.6162-12.974,3.5859-3.7852,7.7197-6.7485,12.352-8.8901,4.6069-2.1416,9.4131-3.2871,14.394-3.4614l3.5859,0.24902,1.5439,2.3159v23.134l-1.27,2.3159-1.2949,0.27392c-2.2412,0-4.5073,0.94629-6.8232,2.814-2.3159,1.8926-3.4614,5.2295-3.4614,10.036"/>
  <path d="m-57.918-158.2c0-4.8062-1.1455-8.1431-3.4614-10.036-2.3159-1.8677-4.6069-2.814-6.8232-2.814l-1.2949-0.27392-1.27-2.3159v-23.134l1.5439-2.3159,3.5859-0.24902c4.8062,0.17431,9.5127,1.3198,14.145,3.4614,4.6318,2.1416,8.7407,5.105,12.352,8.8901,3.5859,3.7603,6.4995,8.0933,8.7407,12.974,2.2163,4.8809,3.3369,10.16,3.3369,15.813v85.116c0,5.6528-1.1206,10.932-3.3369,15.813-2.2412,4.8809-5.1548,9.2139-8.7407,12.974-3.6108,3.7852-7.7197,6.7236-12.352,8.8652-4.6318,2.1416-9.3384,3.312-14.145,3.4863l-3.5859-0.27393-1.5439-2.291v-23.159l1.27-2.3159,1.2949-0.24902c2.2163,0,4.5073-0.94629,6.8232-2.8389,2.3159-1.8677,3.4614-5.2046,3.4614-10.011v-85.116z"/>
  <path d="m98.927-37.349-2.5649,2.5649-90.769,0-2.5649-2.5649,0-156.86,2.5649-2.5649,24.429,0,2.5649,2.5649,0,129.87,2.5649,2.5649,61.21,0,2.5649,2.5649,0,21.864z"/>
 </g>
</svg>
