<?xml version="1.0" encoding="UTF-8" standalone="no"?>
<!-- Created with Inkscape (http://www.inkscape.org/) -->
<svg xmlns:rdf="http://www.w3.org/1999/02/22-rdf-syntax-ns#" xmlns="http://www.w3.org/2000/svg" height="190.49" width="600" version="1.1" xmlns:cc="http://creativecommons.org/ns#" xmlns:dc="http://purl.org/dc/elements/1.1/">
 <defs></defs>
 <metadata>
  <rdf:RDF>
   <cc:Work rdf:about="">
    <dc:format>image/svg+xml</dc:format>
    <dc:type rdf:resource="http://purl.org/dc/dcmitype/StillImage"/>
    <dc:title/>
   </cc:Work>
  </rdf:RDF>
 </metadata>
 <g fill-rule="nonzero" transform="translate(431.83862,416.64377)" fill="#e91393">
  <path d="m-359.48-397.13c0.67112,2.8135,1.8585,5.1883,4.956,5.1883,3.1491,0,4.4139-2.4522,4.4139-5.2657,0-5.9885-3.4589-7.976-11.461-7.6921,1.1099,1.781,1.3164,5.0334,2.0908,7.7695m-2.8652,66.054,17.398,0,0-11.177-20.547,0c-4.5688,0-7.434,1.3422-7.434,4.7236,0,4.5172,2.6329,6.4531,10.583,6.4531m-0.0774-23.179,17.475,0,0-11.177-21.295,0c-4.1816,0-6.6854,2.0134-6.6854,5.2657,0,5.3948,4.2074,5.911,10.506,5.911m-11.048,100.02,0.72275-8.2341c0.30975-3.6912-1.2906-6.2982-6.2724-6.2982-5.1108,0-7.5114,2.6845-7.976,6.2982l-1.0325,8.2341h14.558zm-13.577-52.141-10.041,0,1.6004-8.9827,9.7571,0-1.3164,8.9827zm42.1,72.016,0-6.8661-57.045,0,3.6912-23.025c1.3164-8.26,6.9951-15.694,19.488-15.694,13.087,0,17.888,5.9626,17.346,15.694l-0.51625,10.015h17.036v-28.11h-42.281l1.4197-10.506h7.434l0.0258-0.12906c-5.2141-1.5229-6.9177-5.2915-6.324-9.5764l0.28394-2.065h11.925l-0.25812,2.7103c-0.33556,3.5105,0.33556,8.7504,8.3632,8.7504h19.411v-13.242h-38.589l1.2132-9.0601h37.376v-3.6137h-37.35v-11.641h5.3432v-0.15487c-3.9235-2.2973-6.4789-6.3498-6.4789-10.996,0-4.8269,1.6004-8.5697,6.324-10.635-4.13-3.02-6.324-6.7886-6.324-11.951,0-12.209,9.3957-13.009,16.83-13.009h21.657v-5.9368c-1.9359,2.478-4.9302,4.0009-9.0601,4.0009-12.674,0-11.693-13.603-13.5-22.302-0.46462-2.1682-1.2132-3.3298-3.6137-3.3298-2.9168,0-4.0525,3.4588-4.0525,6.0401,0,3.4847,1.5746,5.6787,4.8785,6.2982v11.745c-5.085-0.23231-8.389-2.5812-10.428-5.9885-1.9359-3.4072-2.7103-7.8211-2.7103-12.183,0-8.0276,1.6004-15.823,9.5506-17.527h-37.118v101.26l-20.831,81.025h86.884z"/>
  <path d="m-344.98-229.25-86.859,0,0-5.1108,86.859,0,0,5.1108z"/>
  <path d="m75.185-309.48c2.5296-14.997,11.177-24.883,23.876-24.883,13.216,0,22.095,9.628,23.876,24.883h-47.753zm27.955,83.322c27.413,0,46.462-11.177,59.678-27.955l-26.664-22.095c-9.9119,9.6538-19.05,13.964-30.484,13.964-14.997,0-25.916-7.6146-29.736-22.586h91.969c0.25812-3.304,0.25812-6.8661,0.25812-9.9119,0-40.396-21.837-75.191-69.358-75.191-40.629,0-69.332,31.749-69.332,71.887v0.49044c0,42.694,30.484,71.397,73.668,71.397m-166.64-2.2973,43.933,0,54.877-138.43-50.05,0-26.406,80.276-26.432-80.276-50.799,0,54.877,138.43zm-125.24-38.615c-17.01,0-29.22-14.223-29.22-30.975v-0.51624c0-16.52,11.177-30.484,28.703-30.484,17.036,0,29.22,14.223,29.22,31.001v0.49044c0,16.52-11.177,30.484-28.703,30.484m-0.51624,40.913c44.217,0,76.224-32.782,76.224-71.887v-0.51624c0-39.106-31.749-71.371-75.708-71.371-44.191,0-76.198,32.756-76.198,71.887v0.49044c0,39.132,31.749,71.397,75.682,71.397m-137.66-3.304,48.269,0,0-185.44-48.269,0,0,185.44z"/>
 </g>
</svg>
