<?xml version="1.0" encoding="UTF-8" standalone="no"?>
<!-- Created with Inkscape (http://www.inkscape.org/) -->
<svg xmlns:rdf="http://www.w3.org/1999/02/22-rdf-syntax-ns#" xmlns="http://www.w3.org/2000/svg" xmlns:cc="http://creativecommons.org/ns#" xmlns:xlink="http://www.w3.org/1999/xlink" xmlns:dc="http://purl.org/dc/elements/1.1/" height="142.88" width="600" version="1.1">
  <defs>
    <linearGradient id="linearGradient2944" gradientUnits="userSpaceOnUse" gradientTransform="matrix(76.508448,-27.846836,-27.846836,-76.508448,207.28587,107.66663)" x1="0" x2="1" y1="0" y2="0">
      <stop stop-color="#f8b81d" offset="0"/>
      <stop stop-color="#f89a22" offset="1"/>
    </linearGradient>
    <linearGradient id="linearGradient8445" xlink:href="#linearGradient2944" gradientUnits="userSpaceOnUse" gradientTransform="matrix(885.17875,322.17916,-322.17916,885.17875,-182.18653,-392.15564)" x1="0" x2="1" y1="0" y2="0"/>
  </defs>
  <metadata>
    <rdf:RDF>
      <cc:Work rdf:about="">
        <dc:format>image/svg+xml</dc:format>
        <dc:type rdf:resource="http://purl.org/dc/dcmitype/StillImage"/>
        <dc:title/>
      </cc:Work>
    </rdf:RDF>
  </metadata>
  <g transform="translate(41.991196,-23.393049)" fill="url(#linearGradient8445)">
    <path d="m356.96,66.671c0,25.176,19.911,35.299,34.466,42.704,8.9896,4.57,16.776,8.5268,16.776,14.011,0,6.1088-3.3668,9.4872-9.4871,9.4872-6.9997,0-18.708-10.031-22.63-13.895-1.1107-1.0991-2.8346-2.58-5.1138-2.58-1.7123,0-3.2279,0.79831-4.651,2.4065l-14.127,16.591c-4.3386,4.8824-0.99499,8.7236,0.18512,9.8227,2.0363,2.152,20.675,21.057,46.337,21.057,28.218,0,49.507-19.009,49.507-44.208,0-26.067-20.247-36.525-35.021-44.15-8.5037-4.3965-15.839-8.2029-15.839-12.958,0-4.7204,3.3552-6.722,6.3633-7.0228,6.56-0.6479,11.477,2.0363,13.907,3.5866,2.4296,1.5272,4.3965,2.9503,4.3965,2.9503,1.3421,0.74046,2.3371,1.2495,4.0031,1.2495,1.9784,0,3.6907-0.94871,4.9402-2.7304l11.107-16.383c2.0478-2.8693,3.7601-6.6757-1.3074-10.563-8.17-6.252-18.99-12.65-37.34-12.65-27.374,0-46.487,17.783-46.487,43.271"/>
    <path d="m28.368,23.393c-18.014,0-36.017,6.8804-49.751,20.625-27.478,27.478-27.478,72.043,0,99.532,12.692,12.692,29.043,19.509,45.657,20.469,0,0,41.946,1.4165,75.313,1,0.493-39.94-0.968-75.345-0.968-75.345-0.961-16.637-7.809-32.965-20.501-45.657-13.744-13.745-31.736-20.625-49.75-20.625zm0,39.938c7.7951,0,15.579,2.9595,21.531,8.9064,11.894,11.894,11.905,31.201,0,43.094-5.9468,5.9468-13.745,8.9064-21.531,8.9064-7.798,0-15.585-2.9595-21.531-8.9064-11.894-11.894-11.894-31.201,0-43.094,5.9526-5.9468,13.736-8.9064,21.531-8.9064z"/>
    <path d="m194.04,24.962c-3.8411,0-6.3055,2.5222-6.3055,6.4096v78.547c0,14.138-5.3799,21.612-15.538,21.601-3.6097,0-14.589,0.0116-14.589-21.601v-78.547c0-3.8874-2.4759-6.4096-6.317-6.4096l-25.754,0.01157c-3.8411-0.01157-6.317,2.5106-6.317,6.398v78.547c0,37.393,17.829,56.356,52.989,56.356,35.264,0,53.903-19.495,53.903-56.356v-78.547c0-3.8874-2.4759-6.4096-6.3055-6.4096h-25.766z"/>
    <path d="m462.74,24.974c-3.899,0-6.4327,2.5222-6.4327,6.4096v21.462c0,3.9106,2.5338,6.4327,6.4327,6.4327h24.898v99.337c0,3.8874,2.5222,6.4096,6.4328,6.4096h26.194c3.9106,0,6.4096-2.5222,6.4096-6.4096v-99.337h24.921c3.7486,0,6.2245-2.3486,6.4096-6.0162v-22.295c-0.18511-3.656-2.661-5.9931-6.4096-5.9931h-88.855z"/>
    <path d="m254.4,25.008c-3.8874,0-6.4096,2.5106-6.4096,6.4212v127.19c0,3.9106,2.5222,6.4328,6.4096,6.4328h76.892c3.9106,0,6.4212-2.5222,6.4212-6.4328v-21.439c0-3.899-2.5106-6.4212-6.4212-6.4212h-44.266v-18.685h38.955c3.9106,0,6.4212-2.5106,6.4212-6.4212l-0.0116-21.45c0.0116-3.8874-2.499-6.4212-6.4096-6.4096l-38.955-0.01157v-18.477h44.266c3.9106,0,6.4212-2.5222,6.4212-6.4212v-21.45c0-3.9106-2.5106-6.4212-6.4212-6.4212h-76.892z"/>
  </g>
</svg>
