<?xml version="1.0" encoding="UTF-8" standalone="no"?>
<!-- Created with Inkscape (http://www.inkscape.org/) -->
<svg xmlns:rdf="http://www.w3.org/1999/02/22-rdf-syntax-ns#" xmlns="http://www.w3.org/2000/svg" xmlns:cc="http://creativecommons.org/ns#" xmlns:xlink="http://www.w3.org/1999/xlink" xmlns:dc="http://purl.org/dc/elements/1.1/" height="109.79" width="600" version="1.1">
  <defs>
    <linearGradient id="linearGradient2854" gradientUnits="userSpaceOnUse" gradientTransform="matrix(70.310263,-25.590842,-25.590842,-70.310263,483.3498,753.64449)" x1="0" x2="1" y1="0" y2="0">
      <stop stop-color="#f8b81d" offset="0"/>
      <stop stop-color="#f89a22" offset="1"/>
    </linearGradient>
    <linearGradient id="linearGradient8537" xlink:href="#linearGradient2854" gradientUnits="userSpaceOnUse" gradientTransform="matrix(772.06546,281.00884,-281.00884,772.06546,-110.49319,-514.22088)" x1="0" x2="1" y1="0" y2="0"/>
  </defs>
  <metadata>
    <rdf:RDF>
      <cc:Work rdf:about="">
        <dc:format>image/svg+xml</dc:format>
        <dc:type rdf:resource="http://purl.org/dc/dcmitype/StillImage"/>
        <dc:title/>
      </cc:Work>
    </rdf:RDF>
  </metadata>
  <g transform="translate(26.99983,156.57706)" fill="url(#linearGradient8537)">
    <path d="m279.52-123.33c0,19.348,15.296,27.134,26.464,32.822,6.9179,3.5139,12.902,6.5556,12.902,10.761,0,4.6888-2.5915,7.2803-7.2913,7.2803-5.3806,0-14.374-7.6976-17.394-10.673-0.84553-0.83454-2.1742-1.9766-3.9311-1.9766-1.3067,0-2.4707,0.61493-3.5688,1.8558l-10.849,12.738c-3.3272,3.7554-0.75768,6.7093,0.13177,7.5548,1.5703,1.6581,15.889,16.175,35.611,16.175,21.676,0,38.038-14.615,38.038-33.975,0-20.018-15.56-28.045-26.914-33.909-6.5336-3.3821-12.167-6.303-12.167-9.9596,0-3.6237,2.5805-5.161,4.8975-5.3806,5.0402-0.50512,8.8066,1.5483,10.684,2.7452,1.8667,1.175,3.3711,2.262,3.3711,2.262,1.0322,0.56002,1.7899,0.95533,3.0746,0.95533,1.5263,0,2.833-0.72473,3.7994-2.0864l8.5211-12.584c1.5812-2.2181,2.888-5.128-0.98827-8.1258-6.2701-4.7986-14.594-9.718-28.682-9.718-21.028,0-35.71,13.671-35.71,33.239"/>
    <path d="m27.065-156.58c-13.836,0-27.667,5.2916-38.22,15.844-21.127,21.105-21.127,55.355,0,76.471,9.751,9.762,22.293,15.004,35.063,15.75,0,0,32.225,1.0794,57.876,0.75002,0.375-30.673-0.749-57.871-0.749-57.871-0.746-12.78-5.999-25.34-15.75-35.09-10.553-10.56-24.373-15.85-38.22-15.85zm0,30.688c5.9887,0,11.964,2.2704,16.532,6.8439,9.147,9.1361,9.147,23.948,0,33.095-4.579,4.568-10.547,6.8752-16.532,6.8752-5.9955,0-11.995-2.3071-16.563-6.8752-9.1361-9.147-9.1361-23.959,0-33.095,4.5735-4.5735,10.574-6.8439,16.563-6.8439z"/>
    <path d="m360.77-155.35c-2.9978,0-4.9304,1.9326-4.9304,4.9194v16.493c0,2.9978,1.9326,4.9304,4.9304,4.9304h19.129v76.328c0,2.9868,1.9546,4.9304,4.9414,4.9304h20.139c2.9868,0,4.9304-1.9436,4.9304-4.9304v-76.328h19.129c2.9978,0,4.9414-1.9326,4.9414-4.9304v-16.493c0-2.9868-1.9436-4.9194-4.9414-4.9304l-68.268,0.011z"/>
    <path d="m154.33-155.36c-2.9429,0-4.8426,1.9436-4.8426,4.9194v60.351c0,10.86-4.1288,16.603-11.936,16.592-2.7672,0-11.211,0.01098-11.211-16.592v-60.351c0-2.9758-1.9107-4.9194-4.8535-4.9194h-19.787c-2.9538,0-4.8535,1.9436-4.8535,4.9194v60.351c0,28.726,13.693,43.308,40.706,43.308,27.101,0,41.42-14.989,41.42-43.308v-60.351c0-2.9758-1.8997-4.9194-4.8426-4.9194h-19.798z"/>
    <path d="m200.71-155.33c-2.9868,0-4.9304,1.9326-4.9304,4.9304v97.729c0,2.9978,1.9436,4.9304,4.9304,4.9304h59.088c2.9868,0,4.9304-1.9326,4.9304-4.9304v-16.482c0-2.9978-1.9436-4.9304-4.9304-4.9304h-34.008v-14.352h29.912c3.0088,0,4.9414-1.9326,4.9414-4.9304l-0.011-16.482c0.011-2.9978-1.9216-4.9304-4.9304-4.9304h-29.912v-14.209h34.008c2.9868,0,4.9304-1.9326,4.9304-4.9304v-16.482c0-2.9978-1.9436-4.9304-4.9304-4.9304h-59.088z"/>
    <path d="m548.88-155.2c-1.4714,0-2.7342,1.0652-2.9648,2.5256-1.5812,9.4545-11.98,16.416-24.729,16.548-1.6581,0.011-2.9868,1.3616-2.9868,3.0197v16.405c0,1.6691,1.3506,3.0197,3.0197,3.0197h21.215v62.942c0,1.6691,1.3506,3.0197,3.0088,3.0197h24.542c1.6691,0,3.0197-1.3506,3.0197-3.0197v-101.44c0-1.6691-1.3506-3.0197-3.0197-3.0197h-21.105z"/>
    <path d="m463.18-134.09c-1.6691,0-3.0197,1.3506-3.0197,3.0087v27.474h-26.683c-1.6581,0-3.0088,1.3506-3.0088,3.0197v19.381c0,1.6581,1.3506,3.0088,3.0088,3.0088h26.683v27.463c0,1.6691,1.3506,3.0197,3.0197,3.0197h20.007c1.6691,0,3.0197-1.3506,3.0197-3.0197v-27.463h26.53c1.6581,0,3.0197-1.3506,3.0197-3.0088v-19.381c0-1.6691-1.3616-3.0197-3.0197-3.0197h-26.53v-27.474c0-1.6581-1.3506-3.0087-3.0197-3.0087h-20.007z"/>
  </g>
</svg>
