<?xml version="1.0" encoding="UTF-8" standalone="no"?>
<!-- Created with Inkscape (http://www.inkscape.org/) -->

<svg
   xmlns:dc="http://purl.org/dc/elements/1.1/"
   xmlns:cc="http://creativecommons.org/ns#"
   xmlns:rdf="http://www.w3.org/1999/02/22-rdf-syntax-ns#"
   xmlns:svg="http://www.w3.org/2000/svg"
   xmlns="http://www.w3.org/2000/svg"
   version="1.1"
   width="599.99994"
   height="226.364"
   id="svg2">
  <metadata
     id="metadata3217">
    <rdf:RDF>
      <cc:Work
         rdf:about="">
        <dc:format>image/svg+xml</dc:format>
        <dc:type
           rdf:resource="http://purl.org/dc/dcmitype/StillImage" />
        <dc:title></dc:title>
      </cc:Work>
    </rdf:RDF>
  </metadata>
  <defs
     id="defs3215" />
  <g
     id="g3647">
    <rect
       width="208.1124"
       height="149.89914"
       x="9.4596548"
       y="37.898575"
       id="rect3645"
       style="fill:#ffffff;fill-opacity:1;fill-rule:nonzero;stroke:none" />
    <g
       transform="translate(-320.17797,-348.99209)"
       id="layer1">
      <path
         d="m 546.51377,348.99209 h -226.3358 v 226.364 h 226.3358 v -226.364 z M 365.72992,459.52358 h 2.28393 c 7.68363,0 16.31186,-1.43803 16.31186,-11.27872 0,-9.81248 -8.62823,-11.27872 -16.31186,-11.27872 h -2.28393 v 22.55744 z m 51.67065,49.88017 h -29.24009 l -22.1768,-34.78077 h -0.25376 v 34.78077 h -23.45975 v -90.41308 h 35.09093 c 17.87678,0 31.42535,8.51543 31.42535,27.81616 0,12.47709 -6.95052,23.27646 -19.78006,25.5322 l 28.39418,37.06472 z m 23.41746,-30.70633 c 0,7.81052 5.16001,13.78824 14.02791,13.78824 8.8679,0 14.02791,-5.97772 14.02791,-13.78824 0,-7.54264 -5.16001,-13.90103 -14.02791,-13.90103 -8.8679,0 -14.02791,6.35839 -14.02791,13.90103 m 49.16113,30.70633 h -21.82433 v -6.85182 h -0.23967 c -3.83477,6.1328 -11.39151,8.89609 -18.58169,8.89609 -18.22924,0 -31.04469,-15.25448 -31.04469,-32.86339 0,-17.623 12.58986,-32.7365 30.80501,-32.7365 7.0633,0 14.50726,2.65051 19.07514,8.03609 v -5.99182 h 21.82433 v 61.51135 z m 36.64177,-85.12617 c 0,6.71084 -5.51249,12.22331 -12.20923,12.22331 -6.69674,0 -12.20921,-5.51247 -12.20921,-12.22331 0,-6.72495 5.51247,-12.25153 12.20921,-12.25153 6.69674,0 12.20923,5.52658 12.20923,12.25153 m -1.31116,85.12617 H 503.51363 V 447.8924 h 21.79614 v 61.51135 z m 45.29818,-90.76554 h 23.64303 l 43.2962,55.61822 h 0.25377 v -55.61822 h 23.64303 v 90.97701 h -23.64303 l -43.2962,-55.74509 h -0.25377 v 55.74509 H 570.60795 V 418.63821 z M 739.9721,482.3348 h -46.20047 c 0,4.51149 1.14197,7.92331 3.44,10.26365 2.28395,2.34033 5.70985,3.4964 10.29184,3.4964 2.32624,0 4.37051,-0.42295 6.10461,-1.26885 1.7341,-0.84591 3.20034,-2.31214 4.3987,-4.41281 h 21.11941 c -0.8882,3.6233 -2.35443,6.78133 -4.4128,9.47414 -2.05836,2.70689 -4.49739,4.92034 -7.35936,6.64034 -2.84789,1.73411 -5.96363,3.01706 -9.34725,3.86297 -3.36952,0.8459 -6.80953,1.26885 -10.36232,1.26885 -5.13182,0 -9.88299,-0.71901 -14.2394,-2.18525 -4.3423,-1.43803 -8.12068,-3.5387 -11.33512,-6.31609 -3.21443,-2.77738 -5.73804,-6.21739 -7.54264,-10.33413 -1.8046,-4.08854 -2.70689,-8.79741 -2.70689,-14.0984 0,-5.14592 0.8459,-9.7702 2.53771,-13.87283 1.69181,-4.11673 4.03214,-7.55675 7.0492,-10.39053 3.03116,-2.80558 6.62625,-4.96264 10.81347,-6.51346 4.17314,-1.52263 8.79741,-2.29805 13.87284,-2.29805 5.38559,0 10.16495,0.80362 14.33807,2.42494 4.18724,1.60722 7.72593,3.91935 10.61611,6.88001 2.89017,2.97477 5.11772,6.56986 6.65445,10.79938 1.50852,4.21543 2.29803,8.98068 2.29803,14.28169 v 2.29803 z m -20.3863,-12.66037 c -0.56394,-2.98885 -2.04427,-5.35739 -4.41279,-7.10558 -2.36854,-1.77641 -5.03314,-2.6787 -8.0079,-2.6787 -3.22854,0 -6.04822,0.8318 -8.45904,2.48132 -2.41084,1.64951 -3.91936,4.08854 -4.58198,7.30296 h 25.46171 z m 61.14479,11.5748 15.56464,-33.526 h 13.04102 l 15.55054,33.526 15.56464,-33.526 h 24.24926 l -32.34173,61.89199 h -14.2253 l -15.32496,-33.92076 -15.33907,33.92076 h -14.22529 l -32.32765,-61.89199 h 24.37615 l 15.43775,33.526 z m 130.28334,-17.60891 c -1.6777,-0.8882 -3.60915,-1.60722 -5.78032,-2.18525 -2.17115,-0.54984 -4.18723,-0.81771 -6.03412,-0.81771 -0.66262,0 -1.38165,0.0705 -2.17115,0.23968 -0.81771,0.14098 -1.55083,0.38065 -2.22755,0.71902 -0.69082,0.32425 -1.28296,0.73311 -1.7623,1.26885 -0.47934,0.52164 -0.71902,1.17016 -0.71902,1.98788 0,1.02918 0.38066,1.88918 1.14198,2.52361 0.7613,0.64853 1.6777,1.15607 2.70689,1.50853 1.04328,0.36655 2.12885,0.64853 3.25672,0.86001 1.12788,0.18327 2.05838,0.36655 2.7774,0.52163 2.56586,0.47935 4.94856,1.19837 7.11973,2.11476 2.17106,0.9305 4.04626,2.12886 5.66748,3.5669 1.59315,1.45213 2.86203,3.20034 3.7925,5.24461 0.93047,2.05836 1.39576,4.52558 1.39576,7.41575 0,4.11674 -0.84592,7.61315 -2.53776,10.50332 -1.69174,2.87608 -3.91927,5.27281 -6.69664,7.1197 -2.77749,1.83279 -5.89316,3.21444 -9.34731,4.10263 -3.45411,0.87411 -7.0069,1.32525 -10.6161,1.32525 -4.4269,0 -8.74101,-0.60623 -12.97053,-1.81869 -4.22952,-1.21246 -8.23347,-2.96067 -12.01185,-5.301 l 7.9515,-15.33907 c 1.14198,0.81771 2.42494,1.59313 3.86297,2.31214 1.45214,0.71902 2.93247,1.38164 4.4551,1.97378 1.50853,0.62033 3.07345,1.09967 4.65247,1.46624 1.53672,0.35246 3.01707,0.52163 4.3987,0.52163 0.71902,0 1.48033,-0.0705 2.28395,-0.22557 0.8177,-0.16919 1.53672,-0.43705 2.24164,-0.8459 0.67673,-0.39476 1.24066,-0.9164 1.69182,-1.50854 0.43704,-0.59213 0.64852,-1.31115 0.64852,-2.10065 0,-1.21247 -0.39476,-2.17116 -1.19836,-2.84789 -0.81771,-0.69082 -1.861,-1.25476 -3.12986,-1.69181 -1.31114,-0.43704 -2.76328,-0.8036 -4.4128,-1.14196 -1.64951,-0.32427 -3.31312,-0.71902 -4.99083,-1.21246 -1.6918,-0.46526 -3.35542,-1.05738 -5.00494,-1.73411 -1.64951,-0.69083 -3.11574,-1.64951 -4.3987,-2.90427 -1.31115,-1.24066 -2.34033,-2.80559 -3.15804,-4.70887 -0.80361,-1.87509 -1.21246,-4.18723 -1.21246,-6.93642 0,-3.76427 0.78951,-7.0351 2.36852,-9.82658 1.56494,-2.77739 3.6233,-5.06133 6.20331,-6.86593 2.58,-1.83279 5.49838,-3.14395 8.74101,-3.98985 3.24263,-0.84591 6.56986,-1.28296 9.95347,-1.28296 3.53871,0 7.02098,0.31018 10.43285,0.9164 3.41176,0.60624 6.73897,1.63541 9.9393,3.08755 l -7.30295,13.98562 z"
         id="path3161"
         style="fill:#757679;fill-opacity:1" />
    </g>
  </g>
</svg>
