<?xml version="1.0" encoding="UTF-8" standalone="no"?>
<svg xmlns:rdf="http://www.w3.org/1999/02/22-rdf-syntax-ns#" xmlns="http://www.w3.org/2000/svg" height="182.85" width="600" version="1.1" xmlns:cc="http://creativecommons.org/ns#" xmlns:dc="http://purl.org/dc/elements/1.1/" viewBox="0 0 480 146.2768">
 <metadata>
  <rdf:RDF>
   <cc:Work rdf:about="">
    <dc:format>image/svg+xml</dc:format>
    <dc:type rdf:resource="http://purl.org/dc/dcmitype/StillImage"/>
    <dc:title/>
   </cc:Work>
  </rdf:RDF>
 </metadata>
 <g transform="translate(-1374.21,-428.86136)">
  <path d="m1730,489.91c5.6614-0.67152,11.479,0.16944,16.745,2.3286-1.5783,3.0219-3.1831,6.0282-4.7582,9.0516-2.7674-1.3897-5.9052-2.313-9.0258-1.8964-0.975,0.14301-2.0392,0.55495-2.508,1.4814-0.3844,0.78189-0.4516,1.828,0.1516,2.5244,0.4969,0.57515,1.2001,0.94355,1.9252,1.1627,2.3095,0.6793,4.7253,0.95288,7.0068,1.7441,2.0705,0.69174,4.0972,1.7223,5.5739,3.3638,1.561,1.671,2.4861,3.8753,2.7142,6.137,0.2954,2.9302-0.2,5.994-1.711,8.5526-1.7955,3.0405-4.8004,5.251-8.1101,6.4292-2.7064,0.97154-5.5942,1.3602-8.46,1.4021-5.8129,0.14612-11.562-1.6104-16.528-4.5592,1.7033-3.3032,3.4096-6.6049,5.1145-9.9066,2.7518,1.7954,5.7879,3.2846,9.0647,3.8022,1.3485,0.19741,2.7377,0.26115,4.0831-0.0109,0.9173-0.1912,1.872-0.66997,2.2736-1.5622,0.4016-0.92024,0.3704-2.0845-0.2703-2.8913-0.5313-0.67618-1.3501-1.0368-2.1502-1.2902-2.283-0.72283-4.6581-1.0928-6.9629-1.7332-2.3159-0.5798-4.5535-1.7612-6.0693-3.6312-1.4048-1.7037-1.9736-3.9374-2.022-6.1059-0.1047-2.5975,0.5188-5.2401,1.9064-7.4552,1.1673-1.8887,2.7799-3.5131,4.7097-4.6323,2.2205-1.3057,4.7567-2.0021,7.3068-2.3053z" fill="#76757a"/>
  <path fill="#76757a" d="m1374.2,428.86c48.355,0,96.71-0.002,145.07,0.001v146.27c-48.357,0.003-96.712,0.002-145.07,0.002v-146.28"/>
  <path fill="#76757a" d="m1773.5,471.12c3.383-0.80003,6.9147-0.95663,10.36-0.5132,3.0839,0.40932,6.0965,1.4434,8.7248,3.1195,3.7935,2.4311,6.9037,6.039,8.427,10.309,1.1933,3.321,1.4645,6.9305,1.0492,10.421-0.3378,2.7675-1.2274,5.4684-2.6407,7.8731-1.4102,2.4636-3.3054,4.6079-5.3402,6.5723-3.4495,3.197-6.8929,6.4018-10.341,9.6019,6.3692-0.005,12.738-0.002,19.108-0.002v12.926c-15.494,0-30.987,0.002-46.481-0.002,0.025-0.23257-0.06-0.5225,0.155-0.68995,4.7357-4.932,9.4716-9.8639,14.206-14.797,1.9929-2.1412,4.0617-4.2157,5.9275-6.4731,3.1769-3.8544,6.301-7.8499,8.3466-12.444,1.0817-2.4544,1.8813-5.1986,1.3203-7.8902-0.3703-1.7628-1.4086-3.3583-2.8142-4.4746-2.574-2.0745-6.8945-1.5861-8.7759,1.1907-1.4086,2.0512-1.5342,4.7397-1.0367,7.1088-5.5928,0.002-11.187,0-16.78,0-0.028-4.3971,0.9143-8.9026,3.3132-12.639,2.9877-4.656,7.9142-7.9383,13.273-9.1972z"/>
  <path fill="#76757a" d="m1806.2,508.08c7.2216-12.59,14.404-25.209,21.639-37.791,6.4848,0.0258,12.971,0.003,19.457,0.0113v36.353c2.3134,0.005,4.6268,0,6.9417,0.002v12.178c-2.3149,0.002-4.6283,0-6.9402,0.002v12.542c-4.5829-0.002-9.1674,0.003-13.75-0.002v-12.54c-9.2233-0.003-18.445,0.002-27.668-0.002v-9.9176c-0.036-0.32316,0.1816-0.5736,0.3223-0.83535m13.927-1.4251c4.4725-0.002,8.9464,0.002,13.422-0.002v-23.459c-4.4755,7.8187-8.9494,15.639-13.42,23.461z"/>
  <path fill="#76757a" d="m1527.9,472.45c5.2712,0.002,10.541-0.006,15.812,0.003,9.6843,12.274,19.375,24.542,29.062,36.811v-36.814c5.2679-0.002,10.536-0.002,15.804,0v60.187c-5.2679,0.002-10.534-0.002-15.802,0.002-9.6906-12.287-19.378-24.575-29.072-36.861v36.859c-5.2679,0.002-10.536-0.002-15.804,0v-60.187z"/>
  <path fill="#76757a" d="m1601.3,492.23c3.0061-1.879,6.5054-2.813,10.003-3.12,3.1349-0.24661,6.32-0.15115,9.3936,0.55369,2.9024,0.65551,5.6965,1.9172,8.0052,3.8328,3.7175,3.0819,6.0655,7.6386,6.9497,12.38,0.4633,2.3484,0.5057,4.7509,0.479,7.1374-9.9353,0.002-19.869,0-29.803,0.002,0.01,1.6436,0.2025,3.3205,0.8653,4.8352,0.4806,1.1137,1.2455,2.1113,2.2381,2.8034,1.1418,0.81144,2.5145,1.2251,3.8903,1.389,1.77,0.2148,3.6422,0.14479,5.2724-0.6571,1.379-0.65711,2.4815-1.7915,3.2872-3.0866,4.5625-0.005,9.125-0.002,13.689-0.002-0.8512,2.8368-2.125,5.61-4.1336,7.8025-1.4968,1.6117-3.3092,2.9164-5.2693,3.8869-3.0485,1.5147-6.4519,2.1575-9.8271,2.2768-3.3594,0.0955-6.7597-0.20684-9.9872-1.1933-2.326-0.70484-4.5484-1.7947-6.4879-3.2792-3.8134-2.9196-6.4975-7.295-7.4069-12.047-0.7146-3.7533-0.6094-7.6689,0.2765-11.381,1.1904-4.9482,4.2672-9.454,8.5657-12.133m11.044,6.1335c-1.7104,0.4264-3.2935,1.4558-4.2971,2.9339-0.7146,1.039-1.1198,2.2625-1.3302,3.5019,5.3996,0.002,10.799,0.002,16.2,0-0.4068-1.7804-1.1559-3.5528-2.5082-4.8066-2.1438-1.984-5.34-2.245-8.0649-1.6292z"/>
  <path fill="#76757a" d="m1635.6,489.56c5.2915-0.002,10.584-0.002,15.876,0,3.22,7.4844,6.3958,14.99,9.6427,22.461,3.3666-7.4877,6.7302-14.975,10.098-22.461,2.9818,0.005,5.9636-0.0134,8.947,0.008,3.3447,7.7121,6.7035,15.416,10.056,23.123,3.3651-7.7071,6.7412-15.409,10.097-23.12,5.2804-0.0285,10.564-0.005,15.846-0.0117-7.0128,14.222-14.065,28.422-21.057,42.655-3.1743,0.0503-6.3517,0.007-9.5275,0.0218-3.3573-7.7992-6.7083-15.602-10.066-23.403-3.22,7.7992-6.4179,15.607-9.638,23.404-3.1946-0.005-6.3894,0-9.5826-0.002-6.8976-14.227-13.798-28.45-20.693-42.677z"/>
  <path fill="#FFF" d="m1497.4,469.71c-1.5543,0.26255-3.0125,1.0217-4.1347,2.1259-1.5198,1.4808-2.411,3.5886-2.384,5.7145,0,2.2189,1.0007,4.4078,2.666,5.872,1.4658,1.3142,3.4416,2.0524,5.413,1.9744,2.2144-0.057,4.3553-1.1462,5.7579-2.8505,1.3908-1.6593,2.0494-3.9082,1.7614-6.0551-0.2776-2.2369-1.5738-4.3193-3.4491-5.569-1.6278-1.1117-3.6906-1.5483-5.6305-1.2122"/>
  <path fill="#FFF" d="m1388.3,474.09,0,58.425c5.0183,0.0008,10.056,0.0008,15.075,0,0.01-7.5073-0.032-15.018,0-22.525,0.1321,0.093,0.238,0.21197,0.325,0.35,4.6688,7.3963,9.3517,14.782,14.025,22.175,6.2486,0,12.5,0.0008,18.75,0-6.0551-7.9859-12.132-15.93-18.175-23.925,2.0599-0.39607,4.0597-1.1398,5.7999-2.325,2.5414-1.6983,4.4768-4.26,5.575-7.1,1.2497-3.1896,1.5141-6.6919,1.1-10.075-0.4291-3.6966-1.9795-7.355-4.725-9.925-3.2691-3.113-7.7831-4.5304-12.2-4.925-1.6893-0.16353-3.3812-0.147-5.075-0.15h-20.45-0.025zm15.075,11.625c2.354-0.0105,4.7491-0.008,7.025,0.675,1.4793,0.43958,2.9003,1.2463,3.775,2.55,1.0052,1.4823,1.2225,3.3802,1.05,5.125-0.1411,1.4523-0.7168,2.8933-1.8,3.9-1.0636,1.0187-2.4852,1.5789-3.9,1.9-2.0178,0.45608-4.0931,0.437-6.15,0.425v-14.575z"/>
  <path fill="#FFF" d="m1456.1,491.46c-2.4325,0.0871-4.8536,0.63106-7.0749,1.625-3.7087,1.6308-6.8172,4.5354-8.85,8.025-3.2106,5.4775-3.8798,12.304-2,18.35,1.3322,4.3163,4.0223,8.2585,7.725,10.875,4.3793,3.1326,10.142,4.2487,15.375,2.975,2.732-0.67812,5.3391-2.1186,7.075-4.375,0.2475-0.29705,0.3934-0.68096,0.725-0.9,0.025,1.4898,0.013,2.9837,0.025,4.475,4.6583,0.0008,9.3152,0,13.975,0v-39.75c-4.6598,0.003-9.3151-0.005-13.975,0v3.875c-2.1783-2.5955-5.3643-4.1679-8.6499-4.825-1.4323-0.27736-2.8904-0.40225-4.35-0.34999zm4.125,12.25c2.1296-0.0647,4.3276,0.45832,6.025,1.775,1.7793,1.3562,2.8909,3.4741,3.2,5.675,0.3645,2.549-0.1557,5.3171-1.8,7.35-1.2782,1.6128-3.2116,2.6024-5.225,2.925-2.4049,0.37506-5.0001,0.0618-7.075-1.275-1.7102-1.0862-2.9208-2.8466-3.4249-4.8-0.6691-2.5834-0.3873-5.4711,1.05-7.75,1.3486-2.2024,3.804-3.601,6.3499-3.85,0.3007-0.0334,0.5958-0.0408,0.9-0.05z"/>
  <path fill="#FFF" d="m1491.7,492.77v39.745c4.6583,0.00096,9.3167,0.00096,13.975,0v-39.745c-4.6582-0.002-9.3166-0.002-13.975,0z"/>
 </g>
</svg>
