<?xml version="1.0" encoding="UTF-8" standalone="no"?>
<!-- Created with Inkscape (http://www.inkscape.org/) -->

<svg
   xmlns:dc="http://purl.org/dc/elements/1.1/"
   xmlns:cc="http://creativecommons.org/ns#"
   xmlns:rdf="http://www.w3.org/1999/02/22-rdf-syntax-ns#"
   xmlns:svg="http://www.w3.org/2000/svg"
   xmlns="http://www.w3.org/2000/svg"
   version="1.1"
   width="600.0011"
   height="207.989"
   id="svg2">
  <metadata
     id="metadata3088">
    <rdf:RDF>
      <cc:Work
         rdf:about="">
        <dc:format>image/svg+xml</dc:format>
        <dc:type
           rdf:resource="http://purl.org/dc/dcmitype/StillImage" />
        <dc:title></dc:title>
      </cc:Work>
    </rdf:RDF>
  </metadata>
  <defs
     id="defs3086" />
  <g
     id="g3157">
    <g
       transform="translate(-327.63462,-357.36893)"
       id="layer1">
      <g
         transform="matrix(1.039945,0,0,1.039945,-25.070887,-18.429162)"
         id="g3090">
        <path
           d="m 339.15785,561.36343 199.99021,0 0,-200 -199.99021,0 z"
           id="path2669"
           style="fill:#ffca00;fill-opacity:1" />
        <path
           d="m 607.97085,444.26782 c -1.918,-1.64399 -4.07085,-2.9357 -6.44878,-3.87513 -2.36813,-0.97857 -4.84391,-1.45807 -7.39798,-1.45807 -0.92964,0 -1.93757,0.15657 -2.97485,0.44036 -1.08621,0.26421 -2.055,0.70457 -2.93571,1.28192 -0.90028,0.56757 -1.62442,1.25257 -2.18221,2.07457 -0.58714,0.80243 -0.87093,1.80057 -0.87093,2.93571 0,1.11557 0.32293,2.13328 0.959,2.96506 0.63607,0.88072 1.42871,1.61464 2.33878,2.21157 0.92964,0.6165 1.93757,1.08621 3.00421,1.48743 1.04707,0.39142 2.055,0.74371 2.98464,1.00792 l 5.32341,1.60486 c 2.76936,0.84156 5.35278,1.85928 7.78942,3.04335 2.38771,1.17428 4.5112,2.61278 6.27263,4.3057 1.78099,1.73207 3.17056,3.75771 4.20784,6.12584 1.03729,2.38771 1.54614,5.21578 1.54614,8.4842 0,3.96321 -0.58714,7.89706 -1.74185,11.7624 -1.17428,3.87514 -3.36628,7.17292 -6.5662,9.88355 -3.19992,2.69107 -6.7717,4.63842 -10.76426,5.80292 -3.98278,1.17428 -8.0047,1.74185 -12.05598,1.74185 -5.09834,0 -10.06948,-0.77307 -14.85468,-2.36813 -4.81456,-1.60486 -9.25727,-3.87514 -13.37704,-6.76192 l 8.95391,-16.86075 c 2.62256,2.28985 5.4702,4.23721 8.51355,5.87142 3.08249,1.63421 6.40963,2.44642 10.02055,2.44642 1.22321,0 2.43664,-0.15657 3.64028,-0.4795 1.19385,-0.32292 2.28985,-0.80242 3.24885,-1.42871 0.959,-0.63607 1.75164,-1.46785 2.33878,-2.50514 0.6165,-1.01771 0.91007,-2.24092 0.91007,-3.67942 0,-1.48742 -0.45014,-2.7302 -1.33086,-3.72835 -0.89049,-0.98835 -1.99628,-1.83971 -3.31735,-2.56385 -1.31128,-0.69478 -2.68128,-1.30149 -4.15892,-1.75164 -1.44828,-0.45992 -2.74978,-0.83178 -3.88492,-1.12535 -3.25863,-0.92964 -6.23348,-1.90821 -8.88541,-2.92592 -2.67149,-1.03729 -4.96134,-2.36814 -6.88912,-4.02192 -1.918,-1.62443 -3.38585,-3.66964 -4.41335,-6.1552 -1.03728,-2.49536 -1.54614,-5.69528 -1.54614,-9.59977 0,-4.05128 0.69478,-7.75027 2.07457,-11.08719 1.39935,-3.34671 3.28799,-6.17477 5.75398,-8.53312 2.466,-2.31921 5.37235,-4.13935 8.73863,-5.42128 3.37606,-1.29171 7.08484,-1.92778 11.15569,-1.92778 2.04521,0 4.17849,0.15657 6.38027,0.46971 2.192,0.31315 4.39378,0.77307 6.55642,1.35043 2.17242,0.55778 4.3057,1.25257 6.40962,2.07457 2.06479,0.82199 4.02192,1.72228 5.80292,2.68128 l -8.32762,16.2051"
           id="path2671"
           style="fill:#ffca00;fill-opacity:1" />
        <path
           d="m 646.19376,455.46266 h 0.2055 c 1.781,-2.69107 4.17849,-4.68735 7.19249,-6.0182 3.04335,-1.31129 6.1552,-1.96693 9.35512,-1.96693 4.03171,0 7.76984,0.79264 11.18505,2.3975 3.39563,1.59506 6.31177,3.72835 8.74841,6.39005 2.39749,2.65193 4.28613,5.77356 5.63656,9.3062 1.36021,3.57178 2.01585,7.29034 2.01585,11.2144 0,3.92407 -0.65564,7.61327 -2.01585,11.13612 -1.35043,3.51307 -3.2195,6.60534 -5.59742,9.26705 -2.38771,2.65193 -5.25492,4.76564 -8.64077,6.27263 -3.38585,1.54614 -7.08484,2.31921 -11.13612,2.31921 -3.19992,0 -6.31177,-0.57735 -9.32576,-1.72228 -3.01399,-1.12535 -5.55828,-2.90635 -7.62306,-5.30385 v 32.50808 h -19.39524 v -81.99433 h 19.39524 v 6.19435 m 11.83091,8.84626 c -1.99628,0 -3.73814,0.33272 -5.27449,1.01772 -1.53636,0.65564 -2.81828,1.54614 -3.88492,2.63235 -1.07643,1.12535 -1.86907,2.42685 -2.466,3.8947 -0.56757,1.51679 -0.84157,3.10207 -0.84157,4.81456 0,3.48371 1.07643,6.39006 3.24885,8.72884 2.16264,2.35835 5.24514,3.54242 9.21813,3.54242 3.97299,0 7.05548,-1.18407 9.21812,-3.54242 2.17242,-2.32899 3.25864,-5.23534 3.25864,-8.72884 0,-1.71249 -0.28379,-3.29777 -0.86115,-4.81456 -0.55778,-1.46785 -1.36999,-2.76935 -2.44642,-3.8947 -1.05685,-1.07643 -2.35835,-1.96693 -3.8947,-2.63235 -1.52657,-0.685 -3.288,-1.01772 -5.27449,-1.01772 z"
           id="path2673"
           style="fill:#ffca00;fill-opacity:1" />
        <path
           d="m 729.01009,447.46775 c 4.40356,0 8.61141,0.63607 12.59418,1.90821 3.97299,1.30149 7.46649,3.1412 10.49027,5.65613 3.02378,2.49535 5.42127,5.52891 7.19248,9.14962 1.781,3.63049 2.6715,7.80898 2.6715,12.48654 0,4.62864 -0.8905,8.72884 -2.6715,12.37891 -1.77121,3.6207 -4.1687,6.65427 -7.19248,9.15941 -3.02378,2.48556 -6.51728,4.36441 -10.49027,5.64634 -3.98277,1.28193 -8.19062,1.918 -12.59418,1.918 -4.32528,0 -8.4842,-0.63607 -12.46698,-1.918 -3.97299,-1.28193 -7.51541,-3.16078 -10.54897,-5.64634 -3.05314,-2.50514 -5.47021,-5.51914 -7.2512,-9.12027 -1.77121,-3.58156 -2.6715,-7.72091 -2.6715,-12.41805 0,-4.68734 0.90029,-8.85605 2.6715,-12.48654 1.78099,-3.61092 4.18827,-6.65427 7.19248,-9.14962 3.02378,-2.51493 6.52706,-4.35464 10.51962,-5.65613 3.97299,-1.26236 8.15148,-1.90821 12.55505,-1.90821 m 0,16.84117 c -1.9865,0 -3.73814,0.33272 -5.27449,1.01772 -1.52657,0.65564 -2.81828,1.54614 -3.88492,2.63235 -1.07643,1.12535 -1.88864,2.42685 -2.466,3.8947 -0.55778,1.51679 -0.84157,3.10207 -0.84157,4.81456 0,3.48371 1.08621,6.39006 3.25864,8.72884 2.16264,2.35835 5.22556,3.54242 9.20834,3.54242 3.98277,0 7.05548,-1.18407 9.2279,-3.54242 2.17243,-2.32899 3.26843,-5.23534 3.26843,-8.72884 0,-1.71249 -0.30336,-3.29777 -0.87093,-4.81456 -0.56757,-1.46785 -1.38957,-2.76935 -2.45621,-3.8947 -1.05685,-1.07643 -2.33878,-1.96693 -3.88492,-2.63235 -1.53635,-0.685 -3.29778,-1.01772 -5.28427,-1.01772 z"
           id="path2675"
           style="fill:#ffca00;fill-opacity:1" />
        <path
           d="m 788.44839,458.24179 h 0.2055 c 1.84949,-3.42499 4.29592,-5.90077 7.34905,-7.41755 3.06292,-1.54614 6.50749,-2.28007 10.35327,-2.28007 h 3.73813 v 18.64175 c -1.36021,-0.79264 -2.68128,-1.27214 -4.00235,-1.49721 -1.31128,-0.21529 -2.72042,-0.30336 -4.21763,-0.30336 -2.70085,0 -4.92221,0.411 -6.65427,1.28193 -1.74186,0.85135 -3.11185,1.97671 -4.10021,3.45435 -0.99814,1.46785 -1.69292,3.19992 -2.08435,5.22556 -0.39143,2.02563 -0.58714,4.21763 -0.58714,6.55641 v 22.07652 H 769.04336 V 449.2781 h 19.40503 v 8.96369"
           id="path2677"
           style="fill:#ffca00;fill-opacity:1" />
        <polyline
           points="262.909,440.81 260.925,440.81 260.925,436.855 260.283,436.855 260.283,435.22 260.925,435.22   260.925,433.542 262.909,433.542 262.909,435.22 264.03,435.22 264.03,436.855 262.909,436.855 262.909,440.81 "
           id="polyline2679"
           style="fill:#ffca00;fill-opacity:1"
           transform="matrix(9.7856933,0,0,9.7856933,-1730.9077,-3809.6611)" />
        <path
           d="m 897.04023,423.63958 c 0,4.32528 -1.35043,7.95577 -4.03171,10.86212 -2.72042,2.9455 -6.54663,4.39378 -11.49819,4.39378 -0.0294,0 -0.0685,0 -0.0783,0 v 11.2829 h 15.33418 v 53.54732 h 19.34631 v -80.0959 h -19.07231"
           id="path2681"
           style="fill:#ffca00;fill-opacity:1" />
      </g>
    </g>
    <path
       d="m 123.75949,106.33805 c -8.14126,0 -12.88355,5.82101 -12.88355,12.79197 0,7.12361 4.74229,12.65967 12.88355,12.65967 8.14128,0 12.89373,-5.53606 12.89373,-12.65967 0,-6.96078 -4.75245,-12.79197 -12.89373,-12.79197 m -79.79458,-25.573747 -2.0862,0 0,20.709347 2.0862,0 c 7.05236,0 14.99011,-1.31278 14.99011,-10.339417 0,-9.02663 -7.93775,-10.36993 -14.99011,-10.36993 z m 18.49084,66.554847 -20.36334,-31.94429 -0.2137,0 0,31.94429 -21.59471,0 0,-83.051097 32.25977,0 c 16.43517,0 28.87096,7.8258 28.87096,25.5534 0,11.458837 -6.37053,21.381017 -18.18555,23.457037 l 26.11311,34.05085 -26.88654,0 z m 93.56351,0 -20.00715,0 0,-6.2993 -0.23407,0 c -3.54145,5.64801 -10.4717,8.19215 -17.08648,8.19215 -16.75066,0 -28.52496,-14.00297 -28.52496,-30.18375 0,-16.23165 11.56059,-30.092157 28.30107,-30.092157 6.50284,0 13.3415,2.40167 17.54444,7.388197 l 0,-5.505527 20.00715,0 z m 12.45614,-56.510567 20.02751,0 0,56.510567 -20.02751,0 z m 10.00358,-10.4717 c -6.15683,0 -11.22477,-5.05776 -11.22477,-11.23495 0,-6.17718 5.06794,-11.26548 11.22477,-11.26548 6.16701,0 11.23495,5.0883 11.23495,11.26548 0,6.17719 -5.06794,11.23495 -11.23495,11.23495 z"
       id="path2669-0"
       style="fill:#ffffff;fill-opacity:1" />
  </g>
</svg>
