<?xml version="1.0" encoding="UTF-8" standalone="no"?>
<!-- Created with Inkscape (http://www.inkscape.org/) -->
<svg xmlns:rdf="http://www.w3.org/1999/02/22-rdf-syntax-ns#" xmlns="http://www.w3.org/2000/svg" height="240.47" width="600" version="1.1" xmlns:cc="http://creativecommons.org/ns#" xmlns:dc="http://purl.org/dc/elements/1.1/">
 <defs></defs>
 <metadata>
  <rdf:RDF>
   <cc:Work rdf:about="">
    <dc:format>image/svg+xml</dc:format>
    <dc:type rdf:resource="http://purl.org/dc/dcmitype/StillImage"/>
    <dc:title/>
   </cc:Work>
  </rdf:RDF>
 </metadata>
 <g transform="translate(-595.8761,-587.04004)">
  <g fill-rule="nonzero" transform="matrix(0.99991867,0,0,0.99991867,0.07285866,0.05752029)">
   <path d="m877.32,587.03,0.093,240.49,258.67,0,26.236,0c18.53,0,33.583-15.019,33.583-33.572v-173.31c0-18.541-15.054-33.606-33.583-33.606h-285z" fill="#3797a0"/>
   <path d="m629.47,587.03c-18.576,0-33.618,15.065-33.618,33.606v173.31c0,18.553,15.042,33.572,33.618,33.572h248.62v-240.49h-248.62z" fill="#c21d55"/>
   <path d="m676.44,702.7c-10.427-1.918-17.414,3.7082-17.414,12.787v37.001h-16.356v-37.001c0-18.146,12.543-30.84,33.769-28.213v15.426z" fill="#FFF"/>
   <path d="m727.88,713.74c-1.9994-7.4513-8.2185-12.159-16.042-12.159-7.4746,0-13.403,4.7079-15.763,12.159h31.805zm-32.072,13.403c2.1389,7.8466,8.3348,12.682,16.03,12.682,5.4635,0,10.822-2.3365,13.554-7.4397h17.506c-3.7315,13.054-15.019,21.842-30.956,21.842-17.983,0-32.793-14.903-32.793-33.409,0-18.529,14.81-33.676,32.793-33.676,18.913,0,34.571,14.658,32.177,40h-48.311z" fill="#FFF"/>
   <path d="m784.13,702.56c-9.0787,0-16.402,7.9512-16.402,18.402,0,10.16,7.3234,17.995,16.402,17.995,9.0787,0,16.402-8.0558,16.402-17.995,0-10.171-7.3234-18.402-16.402-18.402m32.793,50.183-15.647,0,0-6.8352c-4.9753,5.2194-11.787,8.2302-19.634,8.2302-16.646,0-30.421-14.426-30.421-33.316,0-19.018,13.775-33.42,30.421-33.42,7.8465,0,14.658,2.9991,19.634,8.1953v-6.8236h15.647v63.97z" fill="#FFF"/>
   <path fill="#FFF" d="m843.86,752.74-16.425,0,0-92.426,16.425,0,0,92.426z"/>
   <path d="M943.62,750.48c-18.76,1.99-28.72-9.33-28.72-26.84v-22.459h-7.6838v-14.566h7.6838v-16.251h16.402v16.251h12.345v14.566h-12.345v22.563c0,8.9625,4.1151,12.322,12.322,11.822v14.914z" fill="#FFF"/>
   <path fill="#FFF" d="m970.35,750.6-16.425,0,0-64.005,16.425,0,0,64.005z"/>
   <path d="m1078.9,750.63-16.449,0,0-37.431c0-3.6966-1.2322-12.659-11.892-12.659-7.3467,0-12.438,5.4868-12.438,12.659v37.431h-16.507v-37.431c0-3.6966-1.1508-12.659-11.95-12.659-7.2071,0-12.299,5.4868-12.299,12.659v37.431h-16.53v-64.016h15.786v6.2307c3.964-4.8474,9.567-7.8466,16.507-7.8466,7.9744,0,14.682,3.3944,19.18,9.0904,4.58-5.6146,11.252-9.0904,19.471-9.0904,17.135,0,27.12,11.45,27.12,28.201v37.431z" fill="#FFF"/>
   <path d="m1134.7,711.59c-1.9994-7.4513-8.1953-12.148-16.019-12.148-7.4513,0-13.426,4.6963-15.786,12.148h31.805zm-32.049,13.438c2.1157,7.8117,8.3116,12.671,16.03,12.671,5.4868,0,10.799-2.383,13.531-7.4629h17.518c-3.6966,13.054-15.03,21.842-30.921,21.842-18.006,0-32.816-14.903-32.816-33.409,0-18.483,14.81-33.665,32.816-33.665,18.867,0,34.536,14.682,32.153,40.023h-48.312z" fill="#FFF"/>
   <path d="m971.52,671.92c0,5.2194-4.2313,9.4275-9.4391,9.4275-5.2194,0-9.4507-4.2081-9.4507-9.4275s4.2313-9.4507,9.4507-9.4507c5.2078,0,9.4391,4.2313,9.4391,9.4507" fill="#FFF"/>
   <path d="m1139.9,753.45,0,6.3586-1.4763,0,0-6.3586-2.0692,0,0-1.3833,5.6147,0,0,1.3833-2.0692,0z" fill="#FFF"/>
   <path d="m1150.5,759.81-1.4531,0,0-5.6844-1.546,5.6844-1.581,0-1.5693-5.6844,0,5.6844-1.453,0,0-7.7419,2.1854,0,1.6274,5.8006,1.6042-5.8006,2.1854,0,0,7.7419z" fill="#FFF"/>
   <path d="m1115.3,669.53-6.905,0,0-15.321-15.495,0,0,15.321-6.9631,0,0-36.315,6.9631,0,0,14.542,15.495,0,0-14.542,6.905,0,0,36.315z" fill="#FFF"/>
   <path d="m1135.5,639.65-6.533,0,0,23.435,6.533,0c8.1953,0,9.4507-7.3699,9.4507-11.776,0-5.324-1.6507-11.659-9.4507-11.659m0,29.887-13.45,0,0-36.315,13.45,0c10.09,0,16.379,6.9631,16.379,18.157,0,11.101-6.4399,18.157-16.379,18.157" fill="#FFF"/>
  </g>
 </g>
</svg>
