<?xml version="1.0" encoding="UTF-8" standalone="no"?>
<!-- Created with Inkscape (http://www.inkscape.org/) -->
<svg xmlns:rdf="http://www.w3.org/1999/02/22-rdf-syntax-ns#" xmlns="http://www.w3.org/2000/svg" height="240.47" width="600" version="1.1" xmlns:cc="http://creativecommons.org/ns#" xmlns:dc="http://purl.org/dc/elements/1.1/">
 <defs></defs>
 <metadata>
  <rdf:RDF>
   <cc:Work rdf:about="">
    <dc:format>image/svg+xml</dc:format>
    <dc:type rdf:resource="http://purl.org/dc/dcmitype/StillImage"/>
    <dc:title/>
   </cc:Work>
  </rdf:RDF>
 </metadata>
 <g transform="translate(-595.8761,-587.04004)">
  <g fill-rule="nonzero" transform="translate(1.4931268e-5,1.1787902e-5)">
   <path d="m877.32,587.04,0.093,240.47,258.65,0,26.234,0c18.528,0,33.58-15.018,33.58-33.569v-173.3c0-18.54-15.052-33.604-33.58-33.604h-284.97z" fill="#3797a0"/>
   <path d="m629.49,587.04c-18.574,0-33.615,15.064-33.615,33.604v173.3c0,18.551,15.041,33.569,33.615,33.569h248.6v-240.47h-248.6z" fill="#c21d55"/>
   <path d="m676.46,702.7c-10.426-1.9179-17.412,3.7079-17.412,12.786v36.998h-16.354v-36.998c0-18.144,12.542-30.837,33.766-28.21v15.424z" fill="#FFF"/>
   <path d="m727.89,713.74c-1.9992-7.4507-8.2179-12.158-16.041-12.158-7.4739,0-13.402,4.7075-15.762,12.158h31.802zm-32.069,13.402c2.1387,7.8459,8.3341,12.681,16.029,12.681,5.4631,0,10.822-2.3363,13.553-7.4391h17.505c-3.7312,13.053-15.018,21.841-30.954,21.841-17.982,0-32.79-14.901-32.79-33.406,0-18.528,14.808-33.673,32.79-33.673,18.912,0,34.568,14.657,32.174,39.997h-48.308z" fill="#FFF"/>
   <path d="m784.14,702.56c-9.078,0-16.401,7.9505-16.401,18.4,0,10.159,7.3228,17.993,16.401,17.993,9.078,0,16.401-8.0551,16.401-17.993,0-10.171-7.3228-18.4-16.401-18.4m32.79,50.179-15.645,0,0-6.8346c-4.9749,5.219-11.786,8.2295-19.632,8.2295-16.645,0-30.419-14.425-30.419-33.313,0-19.016,13.774-33.418,30.419-33.418,7.8459,0,14.657,2.9989,19.632,8.1946v-6.823h15.645v63.964z" fill="#FFF"/>
   <path fill="#FFF" d="m843.87,752.74-16.424,0,0-92.419,16.424,0,0,92.419z"/>
   <path d="m943.62,750.47c-18.76,1.9876-28.722-9.3221-28.722-26.839v-22.457h-7.6832v-14.564h7.6832v-16.25h16.401v16.25h12.344v14.564h-12.344v22.561c0,8.9618,4.1147,12.321,12.321,11.821v14.913z" fill="#FFF"/>
   <path fill="#FFF" d="m970.34,750.6-16.424,0,0-63.999,16.424,0,0,63.999z"/>
   <path d="m1078.9,750.62-16.447,0,0-37.428c0-3.6963-1.2321-12.658-11.891-12.658-7.3461,0-12.437,5.4863-12.437,12.658v37.428h-16.505v-37.428c0-3.6963-1.1507-12.658-11.949-12.658-7.2065,0-12.298,5.4863-12.298,12.658v37.428h-16.529v-64.011h15.785v6.2302c3.9636-4.847,9.5662-7.8459,16.506-7.8459,7.9737,0,14.68,3.3941,19.179,9.0896,4.5796-5.6142,11.252-9.0896,19.469-9.0896,17.133,0,27.118,11.449,27.118,28.199v37.428z" fill="#FFF"/>
   <path d="m1134.7,711.59c-1.9993-7.4507-8.1947-12.147-16.017-12.147-7.4507,0-13.425,4.6959-15.785,12.147h31.802zm-32.046,13.437c2.1155,7.811,8.3109,12.67,16.029,12.67,5.4863,0,10.798-2.3828,13.53-7.4623h17.517c-3.6963,13.053-15.029,21.841-30.919,21.841-18.005,0-32.813-14.901-32.813-33.406,0-18.481,14.808-33.662,32.813-33.662,18.865,0,34.534,14.681,32.151,40.02h-48.308z" fill="#FFF"/>
   <path d="m971.52,671.92c0,5.219-4.231,9.4267-9.4383,9.4267-5.219,0-9.45-4.2077-9.45-9.4267s4.231-9.45,9.45-9.45c5.2074,0,9.4383,4.231,9.4383,9.45" fill="#FFF"/>
   <path d="m1139.9,753.45,0,6.3581-1.4761,0,0-6.3581-2.0691,0,0-1.3832,5.6143,0,0,1.3832-2.0691,0z" fill="#FFF"/>
   <path d="m1150.5,759.8-1.453,0,0-5.6839-1.5459,5.6839-1.5808,0-1.5692-5.6839,0,5.6839-1.4529,0,0-7.7413,2.1852,0,1.6273,5.8002,1.6041-5.8002,2.1852,0,0,7.7413z" fill="#FFF"/>
  </g>
 </g>
</svg>
