<?xml version="1.0" encoding="UTF-8" standalone="no"?>
<!-- Created with Inkscape (http://www.inkscape.org/) -->

<svg
   xmlns:dc="http://purl.org/dc/elements/1.1/"
   xmlns:cc="http://creativecommons.org/ns#"
   xmlns:rdf="http://www.w3.org/1999/02/22-rdf-syntax-ns#"
   xmlns:svg="http://www.w3.org/2000/svg"
   xmlns="http://www.w3.org/2000/svg"
   xmlns:xlink="http://www.w3.org/1999/xlink"
   xmlns:sodipodi="http://sodipodi.sourceforge.net/DTD/sodipodi-0.dtd"
   xmlns:inkscape="http://www.inkscape.org/namespaces/inkscape"
   width="300"
   height="300"
   id="svg2"
   version="1.1"
   inkscape:version="0.47 r22583">
  <g
     inkscape:label="Layer 1"
     inkscape:groupmode="layer"
     id="layer1"
     transform="translate(-36.822802,-288.91302)">
    <path
       id="path53408"
       d="m 217.4974,455.2315 -12.75288,0 0,20.13916 c 0,10.61873 -8.61471,19.23864 -19.22824,19.23864 -10.58229,0 -19.20741,-8.61991 -19.20741,-19.23864 l 0,-20.13916 -45.08797,0 c -10.56147,0 -19.197,-8.57306 -19.20221,-19.15015 0,-4.29955 1.44186,-8.26596 3.82587,-11.43075 l -0.0416,-0.005 64.20689,-85.27779 0.0208,0.0104 c 3.47712,-4.77843 9.14564,-7.88597 15.49086,-7.88597 10.60832,0 19.22303,8.59909 19.22303,19.18139 l 0,66.16407 12.75288,0 c 10.63956,0 19.17098,8.64073 19.17098,19.24385 0,10.58229 -8.53142,19.15015 -19.17098,19.15015 m 70.45321,-6.79807 0,-0.0364 c -3.91956,-1.27009 -6.75122,-4.96582 -6.75122,-9.31742 0,-4.34639 2.84727,-8.03692 6.76684,-9.30701 l 0,-0.0208 c 28.41031,-9.7026 48.85657,-36.62942 48.85657,-68.29302 0,-39.86189 -32.37151,-72.20217 -72.21258,-72.20217 l -155.58525,0 c -39.898319,0 -72.202168,32.34028 -72.202168,72.20217 l 0.01041,155.28855 c 0,39.84627 32.309054,72.16573 72.191757,72.16573 32.27262,0 59.65229,-21.23226 68.90204,-50.50664 1.16598,-3.77902 4.72638,-6.55343 8.84374,-6.55343 4.17982,0 7.74022,2.764 8.93223,6.54301 l 0,-0.0416 c 9.2081,29.30042 36.53572,50.5587 68.90203,50.5587 39.83587,0 72.21779,-32.31946 72.21779,-72.16573 0,-31.72607 -20.46708,-58.61645 -48.87219,-68.31385"
       style="fill:#f5520f;fill-rule:nonzero;stroke:none" />
  </g>
</svg>
