<?xml version="1.0" encoding="UTF-8" standalone="no"?>
<svg xmlns:rdf="http://www.w3.org/1999/02/22-rdf-syntax-ns#" xmlns="http://www.w3.org/2000/svg" xmlns:cc="http://creativecommons.org/ns#" xmlns:xlink="http://www.w3.org/1999/xlink" xmlns:dc="http://purl.org/dc/elements/1.1/" height="513.55" width="600" version="1.1" viewBox="0 0 158.75 135.87798">
  <defs>
    <radialGradient id="b" gradientUnits="userSpaceOnUse" cy="0" cx="0" gradientTransform="matrix(82.402 0 0 82.402 138.5 84.209)" r="1">
      <stop stop-color="#6c6a69" offset="0"/>
      <stop stop-color="#010101" offset="1"/>
    </radialGradient>
    <radialGradient id="c" gradientUnits="userSpaceOnUse" cy="0" cx="0" gradientTransform="matrix(82.402 0 0 82.402 138.5 84.209)" r="1">
      <stop stop-color="#bfdda0" offset="0"/>
      <stop stop-color="#7cc143" offset="1"/>
    </radialGradient>
    <linearGradient id="d" gradientUnits="userSpaceOnUse" gradientTransform="matrix(21.325 4.0444 -4.0444 21.325 202.41 148.14)" x1="0" x2="1" y1="0" y2="0">
      <stop stop-color="#d1d3d4" offset="0"/>
      <stop stop-color="#b1b3b6" offset="1"/>
    </linearGradient>
    <linearGradient id="e" gradientUnits="userSpaceOnUse" gradientTransform="matrix(11.721 -2.2228 -2.2228 -11.721 318.91 352.81)" x1="0" x2="1" y1="0" y2="0">
      <stop stop-color="#d1d3d4" offset="0"/>
      <stop stop-color="#b1b3b6" offset="1"/>
    </linearGradient>
    <linearGradient id="f" gradientUnits="userSpaceOnUse" gradientTransform="matrix(50.374 35.666 -35.666 50.374 184.16 135.65)" x1="0" x2="1" y1="0" y2="0">
      <stop stop-color="#478e41" offset="0"/>
      <stop stop-color="#416932" offset="1"/>
    </linearGradient>
    <linearGradient id="a" xlink:href="#e" gradientUnits="userSpaceOnUse" gradientTransform="matrix(21.309 4.0412 -4.0412 21.309 201.29 154.07)" x1="0" x2="1" y1="0" y2="0"/>
  </defs>
  <g transform="translate(-76.216 -73.997)">
    <g>
      <path d="m76.216 89.186 103.96-15.189v135.88l-103.96-15.13-0.004-105.56z" fill="#7bc143"/>
      <path d="m112.23 138.42c-0.06 0.37-0.16 0.72-0.28 1.06s-0.27 0.67-0.44 0.97-0.37 0.58-0.59 0.84c-0.2 0.24-0.42 0.46-0.65 0.65s-0.48 0.36-0.74 0.5c-0.25 0.13-0.51 0.24-0.78 0.32 0.13-0.04 0.26-0.08 0.39-0.13-0.13 0.05-0.26 0.09-0.39 0.13-0.01 0-0.02 0.01-0.03 0.01-0.03 0.01-0.06 0.01-0.09 0.02-0.06 0.02-0.12 0.04-0.19 0.05 0.07-0.01 0.13-0.03 0.19-0.05-0.25 0.07-0.51 0.12-0.78 0.13l-5.64-0.04v-11.07l5.39-0.11 0.25-0.01c0.3 0.02 0.59 0.06 0.87 0.14s0.55 0.19 0.81 0.32c0.26 0.14 0.51 0.3 0.74 0.49s0.45 0.41 0.65 0.64c0.22 0.26 0.42 0.54 0.59 0.84s0.32 0.62 0.44 0.96c0.12 0.33 0.22 0.69 0.28 1.05 0.06 0.37 0.1 0.75 0.1 1.14s-0.04 0.78-0.1 1.15m15.41-7.32c-0.06-0.1-0.13-0.2-0.2-0.3-0.07-0.09-0.14-0.19-0.21-0.28-0.07-0.1-0.14-0.19-0.22-0.28-0.07-0.09-0.15-0.18-0.22-0.27-0.39-0.43-0.8-0.82-1.25-1.16s-0.92-0.63-1.42-0.87c-0.49-0.24-1.01-0.42-1.55-0.55s-1.09-0.2-1.66-0.21h-0.17-0.17c-0.06 0.01-0.12 0.01-0.17 0.01h-0.18l-23.853 0.75-9.116 0.29v31.89l14.959 0.8v-13.99l4.6 0.08 8.31 14.6 18.29 0.98-10.16-15.77c0.34-0.12 0.66-0.26 0.98-0.43 0.32-0.16 0.63-0.35 0.92-0.55 0.3-0.21 0.58-0.43 0.86-0.68 0.27-0.24 0.53-0.5 0.78-0.78 0.4-0.46 0.76-0.96 1.08-1.5s0.6-1.12 0.82-1.73c0.23-0.61 0.41-1.25 0.53-1.92s0.18-1.36 0.18-2.07c0-0.55-0.04-1.09-0.12-1.62-0.07-0.53-0.18-1.04-0.32-1.53-0.14-0.5-0.31-0.98-0.51-1.43-0.21-0.46-0.44-0.9-0.69-1.31l15.23-0.32v32.17l19.88 1.07v-33.66l17.32-0.36v-4.87l-52.55 1.66v4.14" fill="#010101"/>
      <path d="m234.97 94.586v94.704l-54.78 20.58v-135.87l54.78 20.586z" fill="#478e41"/>
    </g>
    <g fill="#cececd">
      <path d="m207.78 154.88c-0.03 0.07-0.06 0.14-0.09 0.21s-0.06 0.13-0.09 0.2l-0.09 0.18-0.09 0.18 0.09-0.18 0.09-0.18c0.03-0.07 0.06-0.13 0.09-0.2s0.06-0.14 0.09-0.21"/>
      <path d="m207.78 154.88c-0.03 0.07-0.06 0.14-0.09 0.21s-0.06 0.13-0.09 0.2l-0.09 0.18-0.09 0.18 0.09-0.18 0.09-0.18c0.03-0.07 0.06-0.13 0.09-0.2s0.06-0.14 0.09-0.21"/>
      <path d="m216.61 155.06v-30.21l-6.74-0.99v14.22c0 2.13-0.07 4.12-0.19 5.97-0.12 1.84-0.3 3.54-0.52 5.04-0.22 1.51-0.48 2.84-0.78 3.94-0.29 1.11-0.62 1.99-0.96 2.62l9.19-0.59m9.65-0.77 1.98-0.13v15.44l-9.36 1.69v-11.61l-2.27 0.23-14.84 1.45v13l-12.05 2.17v-19.95l3.76-0.24c1.09-0.8 1.98-1.89 2.7-3.19 0.72-1.28 1.28-2.78 1.71-4.41 0.42-1.62 0.72-3.38 0.91-5.21 0.19-1.81 0.27-3.7 0.27-5.58v-20.99l10.8 1.95 6.74 1.21 9.65 1.73v32.44z"/>
    </g>
    <path fill="url(#f)" d="m180.18 74.006v135.86l54.79-20.58v-94.703l-54.76-20.581h-0.03z"/>
    <path fill="url(#a)" d="m207.69 155.09c-0.03 0.07-0.06 0.13-0.09 0.2-0.03 0.06-0.06 0.13-0.09 0.18l-0.09 0.18 0.09-0.18c0.03-0.05 0.06-0.12 0.09-0.18 0.03-0.07 0.06-0.13 0.09-0.2s0.06-0.14 0.09-0.21c-0.03 0.07-0.06 0.14-0.09 0.21"/>
    <path fill="url(#a)" d="m207.41 154.87h0.38v0.79h-0.38v-0.79z"/>
    <path fill="url(#d)" d="m199.07 137.95c0 1.88-0.09 3.76-0.27 5.58-0.19 1.82-0.49 3.59-0.91 5.21-0.43 1.63-0.99 3.13-1.71 4.41-0.73 1.3-1.61 2.39-2.7 3.19l-3.76 0.24v19.95l12.05-2.17v-13l14.84-1.46 2.27-0.22v11.6l9.35-1.68v-15.43l-1.97 0.12v-32.44l-9.65-1.73-6.74-1.21-10.8-1.95v20.99zm9.31 15.08c0.3-1.1 0.56-2.43 0.78-3.94 0.22-1.5 0.4-3.2 0.52-5.04 0.12-1.85 0.19-3.84 0.19-5.97v-14.22l6.74 0.99v30.21l-9.19 0.59c0.34-0.62 0.67-1.51 0.96-2.62"/>
    <path d="m76.216 89.186s0.04-0.006 0.12-0.019l-0.12 0.019m0.122-0.019c0.005 0 0.012-0.001 0.018-0.001l-0.018 0.001m0.021-0.001c0-0.002 0.002-0.002 0.004-0.002l-0.004 0.002m0.029-0.006m77.272-11.286c2.27-0.333 3.94-0.577 4.82-0.706l-4.82 0.706" fill="#fff"/>
    <path fill="url(#c)" d="m153.66 77.873c-17.96 2.623-73.771 10.776-77.271 11.288-0.011 0-0.018 0.002-0.027 0.004h-0.002-0.004l-0.018 0.002h-0.002l-0.12 0.018v105.56l21.97 3.21s15.954-13.13 31.444-35.56l-14.51-0.78-8.31-14.6-4.6-0.08v13.99l-14.958-0.8v-31.89l9.114-0.29 23.854-0.75h0.18c0.06 0 0.11-0.01 0.17-0.01h0.17 0.18c0.56 0.01 1.11 0.08 1.65 0.21s1.05 0.31 1.55 0.55 0.97 0.53 1.42 0.87c0.45 0.35 0.86 0.73 1.25 1.16 0.07 0.09 0.15 0.18 0.22 0.27 0.08 0.09 0.15 0.18 0.22 0.28 0.07 0.09 0.14 0.19 0.21 0.28 0.07 0.1 0.14 0.2 0.2 0.3v-4.14l21.34-0.68c5.7-14.71 9.5-31.232 9.5-49.111l-4.82 0.704zm-25.9 53.397c0.25 0.41 0.49 0.85 0.69 1.31 0.2 0.45 0.37 0.93 0.51 1.43 0.14 0.49 0.25 1 0.32 1.53 0.08 0.53 0.12 1.07 0.12 1.62 0 0.71-0.07 1.4-0.19 2.07-0.11 0.67-0.29 1.31-0.52 1.92-0.22 0.61-0.5 1.19-0.82 1.73s-0.68 1.04-1.08 1.5c-0.25 0.28-0.51 0.54-0.78 0.78-0.27 0.25-0.56 0.47-0.86 0.68-0.29 0.2-0.6 0.39-0.92 0.55-0.32 0.17-0.64 0.31-0.98 0.42l8.25 12.82c4-6.01 7.93-12.63 11.49-19.81v-8.87l-15.23 0.32zm-20.16 0.43-5.39 0.11v11.07l5.64 0.04c0.25-0.01 0.5-0.05 0.74-0.12 0.01 0 0.03-0.01 0.04-0.01 0.03-0.01 0.06-0.01 0.09-0.02 0.01 0 0.02-0.01 0.03-0.01 0.02-0.01 0.04-0.01 0.07-0.02-0.03 0.01-0.05 0.01-0.07 0.02 0.03-0.01 0.06-0.02 0.1-0.03 0.23-0.08 0.46-0.17 0.68-0.29 0.26-0.14 0.51-0.31 0.74-0.5 0.24-0.19 0.45-0.41 0.65-0.65 0.22-0.26 0.42-0.54 0.59-0.84s0.32-0.63 0.44-0.97 0.22-0.69 0.28-1.06c0.07-0.37 0.1-0.76 0.1-1.15s-0.03-0.77-0.1-1.13c-0.06-0.37-0.16-0.73-0.28-1.06-0.12-0.34-0.27-0.66-0.44-0.96s-0.37-0.58-0.59-0.84c-0.2-0.23-0.41-0.45-0.65-0.64-0.23-0.18-0.48-0.35-0.74-0.49-0.26-0.13-0.53-0.24-0.81-0.32s-0.57-0.12-0.87-0.14l-0.25 0.01zm1 11.1c0.01 0 0.02-0.01 0.03-0.01-0.01 0-0.02 0.01-0.03 0.01m-0.16 0.04l0.12-0.03-0.12 0.03"/>
    <path fill="url(#b)" d="m127.64 126.96v4.14c-0.06-0.1-0.13-0.2-0.2-0.3-0.07-0.09-0.14-0.19-0.21-0.28-0.07-0.1-0.14-0.19-0.22-0.28-0.07-0.09-0.15-0.18-0.22-0.27-0.39-0.43-0.8-0.81-1.25-1.16-0.45-0.34-0.92-0.63-1.42-0.87s-1.01-0.42-1.55-0.55-1.09-0.2-1.65-0.21h-0.18-0.17c-0.06 0-0.11 0.01-0.17 0.01h-0.18l-23.854 0.75-9.114 0.29v31.89l14.958 0.8v-13.99l4.6 0.08 8.31 14.6 14.51 0.78c0.63-0.9 1.25-1.82 1.87-2.76l-8.25-12.82c0.34-0.11 0.66-0.25 0.98-0.42 0.32-0.16 0.63-0.35 0.92-0.55 0.3-0.21 0.59-0.43 0.86-0.68 0.27-0.24 0.53-0.5 0.78-0.78 0.4-0.46 0.76-0.96 1.08-1.5s0.6-1.12 0.82-1.73c0.23-0.61 0.41-1.25 0.52-1.92 0.12-0.67 0.19-1.36 0.19-2.07 0-0.55-0.04-1.09-0.12-1.62-0.07-0.53-0.18-1.04-0.32-1.53-0.14-0.5-0.31-0.98-0.51-1.43-0.2-0.46-0.44-0.9-0.69-1.31l15.23-0.32v8.87c2.15-4.32 4.16-8.84 5.99-13.54l-21.34 0.68zm-25.43 15.92v-11.07l5.39-0.11 0.25-0.01c0.3 0.02 0.59 0.06 0.87 0.14s0.55 0.19 0.81 0.32c0.26 0.14 0.51 0.31 0.74 0.49 0.24 0.19 0.45 0.41 0.65 0.64 0.22 0.26 0.42 0.54 0.59 0.84s0.32 0.62 0.44 0.96c0.12 0.33 0.22 0.69 0.28 1.06 0.07 0.36 0.1 0.74 0.1 1.13s-0.03 0.78-0.1 1.15c-0.06 0.37-0.16 0.72-0.28 1.06s-0.27 0.67-0.44 0.97-0.37 0.58-0.59 0.84c-0.2 0.24-0.41 0.46-0.65 0.65-0.23 0.19-0.48 0.36-0.74 0.5-0.22 0.12-0.45 0.21-0.68 0.29-0.04 0.01-0.07 0.02-0.1 0.03-0.01 0-0.02 0.01-0.03 0.01-0.03 0.01-0.06 0.01-0.09 0.02-0.01 0-0.03 0.01-0.04 0.01-0.24 0.07-0.49 0.11-0.74 0.12l-5.64-0.04z"/>
  </g>
</svg>
