<?xml version="1.0" encoding="UTF-8" standalone="no"?>
<!-- Created with Inkscape (http://www.inkscape.org/) -->

<svg
   xmlns:dc="http://purl.org/dc/elements/1.1/"
   xmlns:cc="http://creativecommons.org/ns#"
   xmlns:rdf="http://www.w3.org/1999/02/22-rdf-syntax-ns#"
   xmlns:svg="http://www.w3.org/2000/svg"
   xmlns="http://www.w3.org/2000/svg"
   xmlns:sodipodi="http://sodipodi.sourceforge.net/DTD/sodipodi-0.dtd"
   xmlns:inkscape="http://www.inkscape.org/namespaces/inkscape"
   width="1000"
   height="213.53529"
   id="svg2"
   version="1.1"
   inkscape:version="0.48.2 r9819"
   sodipodi:docname="New document 1">
  <defs
     id="defs4" />
  <sodipodi:namedview
     id="base"
     pagecolor="#ffffff"
     bordercolor="#666666"
     borderopacity="1.0"
     inkscape:pageopacity="0.0"
     inkscape:pageshadow="2"
     inkscape:zoom="0.49497475"
     inkscape:cx="462.69567"
     inkscape:cy="-121.54091"
     inkscape:document-units="px"
     inkscape:current-layer="layer1"
     showgrid="false"
     fit-margin-left="0.5"
     fit-margin-bottom="0.5"
     fit-margin-top="0.5"
     fit-margin-right="0.5"
     inkscape:window-width="1920"
     inkscape:window-height="1028"
     inkscape:window-x="-8"
     inkscape:window-y="-8"
     inkscape:window-maximized="1">
    <inkscape:grid
       type="xygrid"
       id="grid2996"
       empspacing="5"
       visible="true"
       enabled="true"
       snapvisiblegridlinesonly="true" />
  </sodipodi:namedview>
  <metadata
     id="metadata7">
    <rdf:RDF>
      <cc:Work
         rdf:about="">
        <dc:format>image/svg+xml</dc:format>
        <dc:type
           rdf:resource="http://purl.org/dc/dcmitype/StillImage" />
        <dc:title></dc:title>
      </cc:Work>
    </rdf:RDF>
  </metadata>
  <g
     inkscape:label="Layer 1"
     inkscape:groupmode="layer"
     id="layer1"
     transform="translate(-51.619788,-471.12095)">
    <g
       id="g3053"
       transform="matrix(5.1486026,0,0,5.1486026,52.119788,471.62095)"
       style="fill:#1076db;fill-opacity:1">
      <path
         inkscape:connector-curvature="0"
         id="path3055"
         style="fill:#1076db;fill-opacity:1"
         d="m 70.031,35.609 c -5.936,0 -10.926,-4.24 -11.826,-10.24 l 11.234,0 c 1.24,0 3.947,0.261 3.947,0.261 l 0,-4.975 c 0,0 -2.654,0.197 -4.139,0.197 l -11.042,0 c 1.113,-5.884 5.955,-9.944 11.826,-9.944 3.098,0 6.91,1.417 6.91,1.417 l 0.068,-5.233 c 0,0 -2.709,-1.027 -6.979,-1.027 -9.883,0 -18.525,7.549 -18.525,17.168 0,10.404 8.643,17.43 18.525,17.43 4.643,0 7.418,-1.24 7.418,-1.24 l -0.133,-5.412 c 0.001,-0.001 -3.42,1.598 -7.284,1.598 z" />
      <path
         inkscape:connector-curvature="0"
         id="path3057"
         style="fill:#1076db;fill-opacity:1"
         d="m 36.407,40.531 c 0,0 0.375,-2.512 0.375,-4.709 l 0,-23.871 -1.614,0 c -2.201,0 -5.605,0 -8.118,0.246 l -0.214,-5.547 26.219,0 -0.127,5.547 C 50.332,11.951 46.99,11.951 44.727,11.951 l -1.992,0 0,23.871 c 0,2.197 0.439,4.709 0.439,4.709 l -6.767,0 0,0 z" />
      <path
         inkscape:connector-curvature="0"
         id="path3059"
         style="fill:#1076db;fill-opacity:1"
         d="M 77.059,3.881 C 75.129,3.34 72.604,2.969 70.489,2.969 64.731,2.969 59.774,4.713 55.634,8.396 L 55.697,4.324 C 60.08,1.339 65.055,0 70.488,0 c 2.379,0 4.449,0.326 6.633,0.896 l -0.062,2.985 z" />
      <path
         inkscape:connector-curvature="0"
         id="path3061"
         style="fill:#1076db;fill-opacity:1"
         d="m 24.667,35.888 -9.11,-8.774 c 5.606,-0.541 10.321,-4.662 10.321,-10.011 0,-5.688 -3.282,-10.728 -13.063,-11.134 -0.407,-0.02 -0.83,-0.031 -1.271,-0.031 -6.768,0 -11.413,0.324 -11.413,0.324 0,0 0.309,3.341 0.309,5.021 l 0,24.604 C 0.439,38.154 0,40.531 0,40.531 l 6.831,0 c 0,0 -0.439,-2.377 -0.439,-5.088 l 0,-10.01 6.423,6.718 3.247,3.36 c 2.003,2.186 5.494,5.02 5.494,5.02 l 9.032,0 c 0,0 -4.044,-2.834 -5.921,-4.643 z M 11.284,23.1 c -2.056,0 -3.783,0 -4.893,0 l 0,-12.322 c 0,0 2.38,-0.067 5.215,-0.067 0.425,0 0.836,0.035 1.208,0.053 4.549,0.375 6.427,2.85 6.427,5.834 0,3.342 -2.643,5.871 -6.427,6.41 -0.489,0.065 -1.009,0.092 -1.53,0.092 z" />
    </g>
    <path
       style="fill:#1076db;fill-opacity:1;stroke:none"
       d="m 612.34367,503.72241 c -45.97429,0 -88.76584,36.46853 -88.76584,90.41707 0,40.85765 28.46518,90.01677 89.06606,90.01677 57.24951,0 89.36629,-47.33682 89.36629,-90.31699 0,-51.2487 -41.99659,-90.11685 -89.66651,-90.11685 z m 0,25.71908 c 29.45607,0 61.3455,22.17767 61.3455,64.04751 0,34.64672 -26.19506,64.64795 -61.04528,64.64795 -35.5576,0 -61.19539,-30.45699 -61.19539,-64.39777 0,-32.63012 22.72478,-64.29769 60.89517,-64.29769 z"
       id="path3063"
       inkscape:connector-curvature="0" />
    <path
       sodipodi:nodetypes="cccccccccccccccccccc"
       inkscape:connector-curvature="0"
       id="path3067"
       d="m 737.23631,680.13989 c -3.99543,0 -6.40475,-2.28782 -6.40475,-6.40475 l 0,-161.71995 c 0,-3.50748 2.3805,-6.40475 6.40475,-6.40475 l 14.41069,0 c 3.27223,0 4.9221,2.6397 7.98969,6.18631 l 97.6887,118.70633 0,-118.48789 c 0,-3.9614 2.14498,-6.40475 6.40475,-6.40475 l 14.41069,0 c 3.85698,0 6.40475,2.056 6.40475,6.40475 l 0,163.32114 c 0,2.41546 -2.32714,4.80356 -4.80357,4.80356 l -16.39999,0 c -3.08396,0 -4.63932,-2.49823 -6.20256,-4.19701 l -97.0939,-119.10753 -1.99381,0.0128 0,116.8867 c 0,5.03775 -2.47718,6.40475 -6.40475,6.40475 z"
       style="fill:#1076db;fill-opacity:1;stroke:none" />
    <path
       sodipodi:nodetypes="ccccccccccccccccccccccc"
       inkscape:connector-curvature="0"
       id="path3069"
       d="m 935.78358,680.13989 c -8.0345,0 -14.41069,-7.42352 -14.41069,-14.41068 l 0,-144.10689 c 0,-7.49278 7.40221,-16.01188 16.01188,-16.01188 l 108.88073,0 c 4.5279,0 5.3877,1.46385 4.5891,5.56126 l -2.702,14.53936 c -0.6663,2.64076 -1.4054,3.91719 -5.0894,3.91719 l -88.06537,0 c -4.35335,0 -6.40475,2.51408 -6.40475,6.40475 l 0,41.63088 87.00742,0 c 3.6324,0 3.2036,2.83311 2.3732,7.56275 l -1.7013,10.57929 c -0.6243,2.82997 -1.7715,5.87578 -6.0187,5.87578 l -81.66062,0 0,48.03563 c 0,3.90512 1.9958,6.40475 6.40475,6.40475 l 89.66647,0 c 4.4525,0 6.4048,2.82717 6.4048,6.40475 l 0,11.20831 c 0,3.99964 -2.091,6.40475 -6.4048,6.40475 z"
       style="fill:#1076db;fill-opacity:1;stroke:none" />
  </g>
</svg>
