<?xml version="1.0" encoding="UTF-8" standalone="no"?>
<!-- Created with Inkscape (http://www.inkscape.org/) -->
<svg xmlns:rdf="http://www.w3.org/1999/02/22-rdf-syntax-ns#" xmlns="http://www.w3.org/2000/svg" height="618.2" width="600" version="1.1" xmlns:cc="http://creativecommons.org/ns#" xmlns:xlink="http://www.w3.org/1999/xlink" xmlns:dc="http://purl.org/dc/elements/1.1/">
 <defs>
  <linearGradient id="linearGradient3684" gradientUnits="userSpaceOnUse" gradientTransform="matrix(0,82.975925,-82.975925,0,274.6838,423.80306)">
   <stop stop-color="#f89b49" offset="0"/>
   <stop stop-color="#f36917" offset="1"/>
  </linearGradient>
  <linearGradient id="linearGradient3687" gradientUnits="userSpaceOnUse" gradientTransform="matrix(0,181.6588,-181.6588,0,506.87578,423.80306)">
   <stop stop-color="#f89b49" offset="0"/>
   <stop stop-color="#f36917" offset="1"/>
  </linearGradient>
  <linearGradient id="linearGradient3690" gradientUnits="userSpaceOnUse" gradientTransform="matrix(-2.419589e-5,314.08981,-314.08981,-2.419589e-5,286.17991,74.518136)">
   <stop stop-color="#393536" offset="0"/>
   <stop stop-color="#1f1a1a" offset="1"/>
  </linearGradient>
  <linearGradient id="linearGradient3693" gradientUnits="userSpaceOnUse" gradientTransform="matrix(-2.419589e-5,376.99565,-376.99565,-2.419589e-5,471.84804,9.8894636)">
   <stop stop-color="#f89b49" offset="0"/>
   <stop stop-color="#f36917" offset="1"/>
  </linearGradient>
 </defs>
 <metadata>
  <rdf:RDF>
   <cc:Work rdf:about="">
    <dc:format>image/svg+xml</dc:format>
    <dc:type rdf:resource="http://purl.org/dc/dcmitype/StillImage"/>
    <dc:title/>
   </cc:Work>
  </rdf:RDF>
 </metadata>
 <path d="m48.456,138.63c-0.40326-0.0807-0.82266-0.12904-1.2582-0.12904h-33.423c-0.43553,0-0.83879,0.0484-1.2421,0.12904-6.2587,0.56457-11.291,5.2747-12.308,11.388-0.12904,0.48392-0.22583,1.0001-0.22583,1.5485v85.928c0,3.3229,2.6777,6.0006,6.0006,6.0006h18.712c3.3068,0,5.9844-2.6777,5.9844-6.0006v-71.426h16.502c7.6136,0,13.792-6.178,13.792-13.792,0-7.1781-5.5167-13.001-12.533-13.646" fill-rule="nonzero" fill="#1f1a1a"/>
 <path d="m173.49,243.23,31.455,0c5.5489,0,7.8556-2.2099,10.501-5.9844,2.6293-3.7584,7.904-11.243,10.791-15.437,3.21-4.6295,0.40326-6.1296-5.2586-6.1296h-30.555v-112.12c0-3.3229-2.6777-6.0006-6.0006-6.0006h-18.695c-3.3229,0-6.0006,2.6777-6.0006,6.0006v125.9c0,7.6136,6.1619,13.776,13.776,13.776" fill-rule="nonzero" fill="#1f1a1a"/>
 <path d="m108.58,173.49,4.8876,0c5.5328,0,7.8395-2.2099,10.485-5.9844,2.6293-3.7584,7.904-11.243,10.807-15.453,3.1939-4.5972,0.40327-6.1135-5.2586-6.1135h-20.921v-25.406c0-3.3229-2.6777-6.0006-6.0006-6.0006h-18.721c-3.3068,0-5.9844,2.6777-5.9844,6.0006v108.93c0,7.5975,6.1458,13.776,13.759,13.776h33.439c0.41939,0,0.83879-0.0484,1.242-0.12904,7.0168-0.64522,12.533-6.4684,12.533-13.646,0-7.6136-6.1619-13.776-13.776-13.776h-16.663l0.16131-42.198z" fill-rule="nonzero" fill="#1f1a1a"/>
 <path d="m529.95,376.79c0,12.614-10.227,22.841-22.841,22.841h-71.217c-12.598,0-22.825-10.227-22.825-22.841v-353.97c0-12.614,10.227-22.825,22.825-22.825h71.217c12.614,0,22.841,10.211,22.841,22.825v353.97z" fill-rule="nonzero" fill="#f36917"/>
 <path d="m577.18,413.91-70.055,0-42.665,0-28.551,0c-12.614,0-22.841,10.227-22.841,22.841v158.63c0,12.614,10.227,22.825,22.841,22.825h71.217c12.614,0,22.841-10.211,22.841-22.825v-75.846h47.214c12.598,0,22.825-10.227,22.825-22.841v-59.941c0-12.614-10.227-22.841-22.825-22.841" fill-rule="nonzero" fill="#f36917"/>
 <path d="m375.97,413.91c12.614,0,22.825,10.227,22.825,22.841v59.941c0,12.614-10.211,22.841-22.825,22.841h-203.26c-12.614,0-22.841-10.227-22.841-22.841v-59.941c0-12.614,10.227-22.841,22.841-22.841h203.25z" fill-rule="nonzero" fill="#f36917"/>
 <path d="M364.2,77.504c-14.76,23.276-174.92,274.97-185.53,291.97-10.146,16.211-4.0165,30.971,13.34,30.971h63.216c15.711,0,24.97,0,34.278-14.969,12.146-19.534,90.041-141.29,99.461-156.08,9.4041-14.792,9.8397-20.115,9.8397-35.616v-113.36c0-22.131-20.921-24.47-34.6-2.9035" fill-rule="nonzero" fill="#1f1a1a"/>
 <path fill="url(#linearGradient3693)" d="m436.24,9.8203c-6.3393,0-11.517,5.1779-11.517,11.517v353.97c0,6.3554,5.1779,11.501,11.517,11.501h71.217c6.3554,0,11.517-5.1457,11.517-11.501v-353.97c0-6.3393-5.1618-11.517-11.517-11.517h-71.217z"/>
 <path fill="url(#linearGradient3690)" d="M375.26,80.956c-5.74,9.162-118.91,186.42-165.92,260.34-10.404,16.356-15.227,23.954-19.47,30.632-4.2585,6.6781-10.775,16.695,2.7745,16.695h62.877c15.098,0,18.663,0,24.664-9.6138,9.4525-15.179,58.038-91.251,84.153-132.11,7.5975-11.888,13.243-20.728,15.356-24.067,8.0814-12.663,8.0814-15.921,8.0814-29.535v-108.75c0-6.8232-2.0163-10.001-4.7747-10.001-2.3067,0-5.1295,2.226-7.7427,6.4038"/>
 <path fill="url(#linearGradient3687)" d="m507.53,423.73-42.665,0-28.551,0c-6.3393,0-11.517,5.1456-11.517,11.501v158.63c0,6.3554,5.1779,11.533,11.517,11.533h71.217c6.3554,0,11.517-5.1779,11.517-11.533v-87.17h58.554c6.3393,0,11.501-5.1618,11.501-11.501v-59.957c0-6.3555-5.1618-11.501-11.501-11.501h-70.071z"/>
 <path fill="url(#linearGradient3684)" d="m172.98,423.73c-6.3554,0-11.517,5.1456-11.517,11.501v59.957c0,6.3393,5.1618,11.501,11.517,11.501h203.25c6.3232,0,11.501-5.1618,11.501-11.501v-59.957c0-6.3555-5.1779-11.501-11.501-11.501h-203.25z"/>
 <path opacity="0.19999701" d="m458.69,423.8-22.454,0c-6.3393,0-11.517,5.1618-11.517,11.517v158.63c0,6.3555,5.1779,11.517,11.517,11.517h22.45v-181.67z" fill-rule="nonzero" fill="#FFF"/>
 <path opacity="0.19999701" d="m458.69,9.8896-22.454,0c-6.3393,0-11.517,5.1618-11.517,11.501v353.99c0,6.3393,5.1779,11.501,11.517,11.501h22.45v-376.99z" fill-rule="nonzero" fill="#FFF"/>
 <path opacity="0.10000598" d="m227.59,312.64c-6.7426,10.598-12.921,20.292-18.211,28.632-10.404,16.34-15.227,23.954-19.486,30.632-4.2423,6.6781-10.775,16.695,2.7745,16.695h34.923v-75.959z" fill-rule="nonzero" fill="#FFF"/>
 <path opacity="0.19999701" d="m228.14,423.8-55.086,0c-6.3393,0-11.501,5.1618-11.501,11.517v59.941c0,6.3393,5.1618,11.517,11.501,11.517h55.086v-82.976z" fill-rule="nonzero" fill="#FFF"/>
 <path opacity="0.19999701" d="m518.97,21.399c0-6.3555-5.1779-11.501-11.517-11.501h-71.217c-6.3393,0-11.501,5.1457-11.501,11.501v81.25c32.439,1.355,63.974,4.936,94.235,10.533v-91.781z" fill-rule="nonzero" fill="#FFF"/>
 <path opacity="0.10000598" d="m387.82,84.526c0-12.566-6.8071-12.759-12.533-3.5971-0.74201,1.1775-3.2745,5.1779-7.2265,11.372,6.8555,5.5651,13.453,11.162,19.76,16.808v-24.584z" fill-rule="nonzero" fill="#FFF"/>
</svg>
