<?xml version="1.0" encoding="UTF-8" standalone="no"?>
<svg xmlns:rdf="http://www.w3.org/1999/02/22-rdf-syntax-ns#" xmlns="http://www.w3.org/2000/svg" height="129.25" viewBox="0 0 600 129.24748" width="600" version="1.0" xmlns:cc="http://creativecommons.org/ns#" xmlns:xlink="http://www.w3.org/1999/xlink" xmlns:dc="http://purl.org/dc/elements/1.1/">
 <title>RTL Crime HD Logo</title>
 <g stroke-width="1.3229">
  <rect height="104.51" width="350.57" y="10.745" x="229.62" fill="#fff"/>
  <path d="m213.34 0.012758v129.24h386.66v-129.24l-386.66 0.002758zm67.47 19.017c14.74 0 27.89 9.029 24.59 24.019l-1.44 6.573h-20.34l1.07-5.705c1.33-6.937-1.69-9.012-5.83-9.012-3.05 0-7.7 0.949-9.75 10.335l-8.15 37.166c-1.34 6.224-0.13 10.843 5.95 11.451 6.59 0.617 8.54-6.185 9.39-10.335l1.45-7.318h20.34l-2.07 10.005c-3.41 16.321-15.57 22.781-30.3 22.781-4.15 0-11.86-0.98-18.32-7.07-4.26-4.02-11.2-3.185-11.2-3.185s1.46-2.071 2.07-5.25l10.62-48.617c5.11-23.638 21.32-25.838 31.92-25.838zm42.91 1.488h25.46c18.4 0 28.75 13.143 25.47 29.642-2.8 13.721-10.48 20.554-15.96 22.985l3.76 34.235h-21.08l-1.69-30.473-7.69 0.166-6.45 30.307h-20.59l18.77-86.862zm70.73 0h20.34l-18.89 86.862h-20.34l18.89-86.862zm38.28 0h29.11l0.99 52.296 18.77-52.296h30.43l-18.77 86.862h-19.23l11.83-50.854c0.36-1.823-1.58-2.44-2.44-0.248l-19.89 51.102h-16.08l-0.83-50.73c-0.13-3.047-2.19-2.19-2.56-0.248l-11.12 50.978h-19.47l19.26-86.862zm97.24 0c35.81 0.001 45.14 0 45.14 0l-3.18 15.462h-24.39l-4.38 19.016h21.62l-3.64 15.71h-21.29l-4.51 21.208h20.84l-3.06 15.466h-41.67l18.52-86.862zm-189.55 15.586-5.5 25.342h9.76c7.55-0.963 10.7-10.79 10.7-10.79 2.57-10.306-2.92-14.552-7.06-14.552h-7.9zm-340.36 13.022v80.074h206.08v-80.074h-206.08z" fill="#012557"/>
  <path fill="#2f92cb" d="m4.8961 85.578c1.5888-0.882 3.7518-0.493 5.2519-1.32 5.301-2.813 8.868-9.564 13.762-12.895 1.751-1.329 4.134 0.146 5.488-1.426 1.653-1.378 0.397-3 2.269-4.588 4.539-3.46 9.343-5.252 13.77-8.599 2.261-1.698 4.578-4.992 6.825-7.626h-3.08c-4.433 4.219-8.819 8.416-13.219 11.926-3.671 2.938-8.315 3.991-12.051 6.878-4.402 3.404-8.316 8.931-12.911 12.044-2.5925 1.815-5.163 1.086-6.8894 2.569-1.176 0.738-2.6339 2.463-4.0441 3.751l-0.000028 3.615c1.7158-1.524 3.1512-3.428 4.8286-4.329m44.851 40.802c-0.778 1.05-0.923 2.2 0.858 2.58 0.252 0.07 0.511 0.16 0.77 0.25h5.779c-2.188-0.82-3.883-1.78-4.83-2.83-0.729-0.85-2.171-0.85-2.577 0zm16.266-56.735c-1.807-0.049-2.73 0.575-2.017 1.329 0.607 0.932 2.139-0.754 2.098 0.389-0.915 8.023-12.441 20.763-6.994 32.597 6.784 11.36 9.192 7.27 16.161 12.25 2.804 1.67 5.778 1.12 6.33 0.71 1.078-0.54 0.876-1.34 0-1.72-9.013-3.43-17.701-4.42-20.651-13.75-1.628-5.642-0.212-12.061 0.859-14.614 3.638-8.681 9.814-17.977 16.355-24.068 6.136-5.717 12.474-10.042 19.59-13.644h-8.324c-1.873 1.115-3.632 2.233-5.236 3.331-5.834 3.97-10.187 16.63-18.171 17.19zm-45.54 42.125c-1.029-1.37-1.029-0.45-0.858 0.86 1.127 8.19 8.161 10.85 12.052 16.33 0.057 0.08 0.112 0.16 0.178 0.25h2.399c-4.969-5.75-9.548-12.09-12.912-16.58-0.291-0.29-0.575-0.58-0.859-0.86zm185.7-26.873c-0.16 0.137-0.34 0.227-0.6 0.219-0.86 0-1.32 0.315-2.07 0.04-0.66-0.171-1.08-0.616-1.37-0.9-0.83-1.111-1.12-2.082-0.02-3.048 0.55-0.445 1.22-0.477 2.18-0.284 0.45 0.131 1 0.47 1.28 0.762 0.24 0.187 0.43 0.454 0.6 0.762v-8.841c-4.34-3.727-9.22-14.293-12.65-17.709-2.47-2.476-5.11-4.717-7.92-6.776h-5.86c3.86 3.644 7.56 7.497 12.06 9.354 1.91 0.797 1.53 3.553-1.77 2.714-6.96-3.217-8.9-7.85-13.73-11.311-0.36-0.259-0.72-0.506-1.11-0.758h-6.46c11.04 5.081 24.19 19.266 28.23 26.543 2.85 5.122 2 11.728 6.03 15.472 1.01 0.844 1.15 2.18 0 2.577-1.44 0.284-4.3 1.013-4.45-2.173-0.21-22.903-19.39-33.124-34.43-41.805-0.49-0.216-0.89-0.426-1.23-0.616h-10.37c19.24 4.583 33.2 16.376 40.14 32.564 5.65 13.162 7.37 30.727 5.68 47.517h1.59c1.15-4.31 3.77-9.41 1.35-13.14-2-2.52 0-5.16 0-7.74-0.12-1.79 0.92-1.98 1.72 0 2.01 5.96 1.58 13.82 0.39 20.88h2.79l-0.01-22.57c-0.25-1.72-0.9-3.25-2.31-5.19-2.17-3.174-1.59-4.6 0-3.434 0.83 0.534 1.63 1.864 2.32 3.604v-16.713zm-3.03 17.993c0.51 1.86 0.44 3.42-0.15 3.71-0.55 0.23-1.07-0.31-1.33-1.17-0.98-3.63-1.04-4.65-1.77-7.337-0.81-2.901 2.32 1.947 3.25 4.797zm-6.67-33.958c-0.2 2.724-1.44-1.037-2.95-1.864-0.99-0.897-1.65-1.322-0.36-2.274 0.63-0.713 0.36-1.455 0.36-2.027 0.31-1.783 1.99-1.783 2.58 0 0.37 1.106 0.97 1.431 1.75 2.233 1.3 0.965 0.67 0.965-0.68 1.836-0.28 0.256-0.7 1.059-0.7 2.096zm6.52 8.453c-0.9 1.954-2.05 1.077-2.58 0-0.74-1.604 0.35-3.031-1.72-4.303-1.52-1.021-2.42-1.856-0.87-1.719 0.29 0 0.56 0.187 0.87 0 0.23-0.235 0-0.567 0-0.858-0.45-2.626 3.14 0.972 4.3 2.577 0.81 0.745 1.27 2.787 0 4.303zm-7.52-28.263h-5.33c4.04 3.007 7.62 6.46 10.27 10.208 2.17 3.08 3.52 6.55 5.76 9.324v-5.73c-3.3-4.578-6.75-8.956-10.07-13.045-0.3-0.331-0.51-0.573-0.63-0.757zm0.84 0c2.84 1.464 6.37 5.05 9.86 9.354v-5.278c-2.37-0.911-4.42-2.374-6.31-4.077h-3.55v0.001zm-3.66 48.889c-1.2-1.459 1.7-2.383 0.87-5.154-0.95-3.518-3.17-9.946-5.17-13.753-16.41-31.273-71.5-40.492-99.003-12.899-0.56 0.586-1.304 1.413-2.659 0.34-2.805-2.93-8.785 7.575-9.669 14.593-0.098 6.67-0.941 9.92 1.993 13.437 0.293 0.293 0.479 0.478 0.933 0.778 2.934 1.791 0.762-3.647 3.372-3.355 1.361 0.421 4.376 1.605 6.89 0.859 1.2-0.357 3.103-3.233 5.162-2.585 5.191 1.223 14.161 0.461 23.711-2.667 5.9-1.589 9.71-1.589 13.17-0.438 1.8 0.47 2.02 2.367 1.8 4.028-1.85 12.445-11.69 8.406-17.64 16.105-2.45 2.74-3.17-2.09-6.26-1.72-1.31 0.28-1.24 1.36-3.82 2.36-8.44 2.7-21.35 3.83-29.901 0.38-3.38-1.22-5.941-2.69-6.89-6.87-1.062-4.557-2.107-10.377-1.718-13.749 0.324-2.804 4.935-5.471 6.029-7.732 7.774-16.14 21.358-24.795 38.03-30.847h-8.41c-11.725 5.678-21.612 13.191-27.043 20.523-9.158 12.384-16.404 27.329-5.941 38.445 5.9 4.74 27.427 8.61 36.934 1.1 2.29-1.89 4.29-1.77 4.45-0.31 0.06 0.85-0.07 2.02-2.02 2.67-5.76 2.57-12.043 4.05-24.128 3.72-2.512 0.22-2.667 1.45 0.941 1.66 25.777 1.76 42.997-11.86 48.897-23.295 1.65-3.088 2.67-7.262-1.01-8.835-8.37-3.372-18.14-2.025-29.52 3.007-2.67 1.224-5.545 1.295-7.077 0.745-1.784-0.381-0.778-2.035 0.858-2.569 5.459-2.011 7.249-2.788 12.699-4.79 5.76-1.142 10.22 0.795 14.86-0.372 7.54-0.988 16.46 2.099 14.52 5.268-2.7 3.793-0.36 8.809-3.34 13.64-1.37 2.221-5.36 2.381-6.89 4.301-1.29 1.69-0.21 2.91-1.37 4.56-1.42 2.09-6.79 3.57-8.95 4.89-2.28 1.08-1.06 1.94 0.85 1.72 9.58-0.38 24.71-14.6 20.9-25.328-0.98-3.258 0.25-3.744 1.3-3.987 1.86-0.438 2.05 1.296 1.91 4.384-0.42 23.891-25.12 33.091-46.297 38.941h14.827c1.89-1.42 3.43-3.06 4.78-3.69 10.73-5.03 19.9-10.25 25.83-19.77 1.79-2.88 3.04-8.307 3.19-11.565 0.5-10.747-4.81-14.897-8.97-15.059-2.8-0.21-3.19-1.451-4.56-1.742-4.6-0.98-6.36 2.229-12.48 2.068-1.87-0.163-2.53-0.487-3.01-1.216-0.58-0.99-0.17-1.962 1.21-2.61 7.35-3.097 6.36 1.295 14.28-0.827 5.79-1.785 15.14 6.937 16.36 13.753 0.6 3.437-1.86 12.368-3.45 15.478-7.94 15.6-13.3 17.89-27.31 25.18h9.31c1.42-0.18 2.83-0.42 4.24-1.12 1.7-0.96 2.08-3.8 3.45-5.15 8.32-8.27 15.57-13.91 15.49-30.944 0.11-2.173 0.47-4.15 1.69-2.1 0.55 0.933 0.72 1.516 0.89 2.958 0.37 2.724 1.23 6.175-0.12 12.926-1.03 5.91-7.93 14.74-17.13 23.42h4.41c3.99-4.17 7.44-8.35 10.26-12.28 12.84-17.906 0.46-37.675-11.67-46.062-2.25-1.426-1.74-2.797 0.13-2.765 1.43 0.106 3.02 0.245 4.65 1.549 2.71 1.945 0.24 4.441 3.44 6.873 19.59 14.912 11.22 36.775-1.73 52.685h5.22c10.2-17.15 18.09-42.126-1.77-56.122-1.93-1.297-2.09-2.06 0-1.719 13.46 2.432 12.57 15.627 15.5 29.231 0.21 0.94 1.72 4.61 0.87 6.88-2.77 7.3-6.14 14.8-10.26 21.73h3.3c4.3-7.88 5.24-13.85 5.51-15.31 0.23-1.85 1.2-2.53 2.31-0.41 2.12 3.74-3.85 10.02-5.18 12.89-0.43 0.98-0.77 1.91-1.07 2.83h4.09c0.34-1.17 0.73-2.39 1.3-3.68 3.04-7.01 5.02-29.044 0.28-37.059-0.97-1.913-1.45-3.421-0.62-4.392 0.5-0.43 1.36-0.827 2.19 0.404 5.19 11.274 7.02 28.757 2.45 41.907-0.33 0.95-0.76 1.88-1.23 2.83h2.92c1.7-5.28 2.7-10.98 2.62-14.87-0.12-2.45 1.82-2.49 2.58 0 0.63 2.38-0.68 6.12 0.86 8.6 0.52 0.65 1.46 0.62 2.08-1.47 4.47-11.03 2.81-27.302-3.49-35.245-0.68-1.005-0.68-1.75-1.18-2.828-0.54-0.867-1.74-0.731-1.35 2.366 1.56 10.065 4.01 11.485 4.62 24.257 0.22 3.34-3.5 1.51-3.27-0.55-0.04-10.017-0.01-19.42-4.61-25.434-0.76-1.077-1.27-2.122-1.85-2.69-2.01-1.549-3.13 1.184-3.95-0.616-4.28-8.267-10.18-7.523-17.99-14.378-0.44-0.349-0.78-0.697-1.08-0.989-0.52-0.446-1.01-1.102 1.07-0.88 10.17 0.964 18.82 9.162 23.29 16.068 0.97 1.33 2.5 2.61 3.56 1.289 0.9-1.362 0.15-2.472-0.76-3.088-10.44-6.185-13.43-15.281-28.67-16.841-2.68-0.255 0.82 3.522-2.01 3.047-4.66-0.45-3.64-2.018-5.74-4.773-0.42-0.745 0.08-0.872 0.87-0.855 27.76 1.622 40.34 15.719 46.49 38.681 2.82 10.579-1.14 21.059-2.3 31.199h3.54c9.31-33.096-6.8-62.087-31.21-70.467-4.29-1.237-3.78-3.675-1.14-3.327 25.55 6.297 42.1 34.417 35.4 65.804-0.78 2.83 1.1 3.76 0 7.74-0.01 0.08-0.04 0.16-0.06 0.25h2.98c0.28-2.12 0.46-4.21 0.53-6.27v-19.77c0-1.57 0.38-1.46 0.86 0 2.54 7.24 2.56 16.42 0.92 26.04h1.4c1.96-9.2 3.49-21.42 0.26-28.62-0.56-1.711-2.47-1.403-3.44-2.579zm-62.84-44.698c1.76-0.685 2.56-0.437 3.45 0 1.62 1.448 1.38 3.498-0.01 3.746-1.51 0.292-2.92-0.13-3.81-1.006-1.37-0.887-0.63-2.504 0.37-2.74zm6.89 10.318c0.5 0.373 0.24 0.632 0 0.855-0.68 0.6-1.72 0.563-2.59 0-1.01-0.729-1.01-1.784 0-1.719 1.28-0.065 2.04 0.349 2.59 0.864zm-4.31 0c-0.29 0.284-1.4 0.956-2.45 0.864-3.96-0.057-3.39-0.454-5.02-0.831-2.51-1.046-2.72-1.459-3.14-1.966-1.15-1.933 0.48-2.844 2.89-2.549 2.01 0 3.43 0.041 5.94 0.417 1.04 0.206 1.94 1.143 2.22 2.005 0.29 0.285-0.12 1.63-0.44 2.06zm-50.799 18.058c-0.908 2.724 0.373 5.381-0.802 7.261-0.373 0.454-0.591 1.006-0.251 2.011 0.964 2.838-1.248 1.045-1.524-0.689-0.949-5.407 1.905-9.069 0.932-13.317-0.583-2.511 1.532-1.304 4.361-6.143 1.555-2.011 3.557-2.173 3.323-1.167-0.689 5.187-4.628 7.861-6.039 12.044zm17.223-3.453c-1.037 1.491-1.589 6.718-3.445 8.599-1.532 1.565-3.072 0.786-6.022 3.437-1.864 1.312-5.503 0.729-5.162-0.852 0.202-6.922 6.629-19.468 10.325-23.216 2.456-2.48 5.058-2.557 7.3-5.305 1.09-1.251 2.26-0.041 3.89-0.713 1.97-1.118-0.45-2.877 2.05-3.209 8.89-1.098 8.05-3.072 16.08-3.388 3.52-0.207 3.09 1.75 0.3 2.673-4.03 1.508-7.09 1.119-11.54 3.068-2.07 1.114-0.65 3.498-4.31 4.3-3.29 0.738-4.93-0.223-7.74 1.718-6.547 4.215-6.71 15.909-13.176 20.423-0.591 0.552-1.418 0.965-1.216 1.758 0.332 0.414 0.843 0.381 1.483 0.171 5.154-1.946 5.171-5.714 7.741-10.317 2.812-5.034 11.968-11.205 18.078-12.899 2.51-1.013 0.85 1.76 4.31 0.864 1.04-0.271 1.59-1.528 4.3-1.718 2.2-0.183 2.69 2.115 0 2.574-9.09 2.249-18.65 5.435-23.246 12.032zm27.456-5.867c-10.66 0-16.3 4.271-22.28 9.32-0.8 0.697-1.7 1.102-2.02 0.453-0.89-0.899 0.04-3.055 0.32-3.347 5.72-7.74 14.18-10.186 23.25-10.575 4.4-0.246 4.58 3.904 0.73 4.149zm11.18-3.097c-2.29 0.802-1.5 1.361-2.44 1.96-1.06 0.487-2.46 0.723-3.19 0.487-2-0.308-2.53-2.042-1.88-3.177 0.43-0.696 1.03-0.957 1.56-1.142 2.68-0.98 3.09 0.186 5.67 0.477 1.14 0.154 1.42 1.055 0.28 1.395zm1.83-13.374c-2.43 3.384-4.5 2.497-4.3-0.867 0.21-1.966 2.12-2.188 3.71-0.92 0.28 0.285 1.12 1.204 0.59 1.787zm6.15 1.159c-0.77 1.519-3.34 1.212-4.43-0.308-0.88-1.308-0.68-2.48-0.22-2.763 0.29-0.288 1.15-0.539 1.53-0.539 0.7-0.032 1.21 0.085 2.13 0.734 1.05 0.944 1.29 1.758 0.99 2.876zm3.9-1.135c-1.72-0.385-1.65-0.854-2.31-1.742-0.64-0.868-0.26-1.718 2.21-0.9 1.05 0.293 1.37 1.147 1.46 1.751 0.04 0.377-0.25 1.139-1.36 0.891zm56.65-6.8h-2.9c0.99 0.8 2.01 1.562 3.09 2.286v-2.103c-0.07-0.056-0.13-0.122-0.19-0.183zm-149.35 25.678c-0.576 0.81 0.096 1.523 1.208 0.883 4.238-3.267 9.985-13.7 15.147-18.07 2.707-2.289 6.962-5.309 12.109-8.489h-5.107c-3.42 2.258-6.629 4.543-9.579 6.776-6.289 4.736-8.495 13.144-13.778 18.9zm0.096-22.264c3.704-0.617 6.768-1.845 9.483-3.414h-6.574c-1.094 0.544-2.188 1.106-3.266 1.751-1.441 1.014-0.979 2.018 0.357 1.663zm5.075 5.077c-0.332 0.332-0.64 0.847 0 0.864 4.392-0.961 9.604-5.03 14.67-9.353h-5.788c-3.225 2.831-6.232 5.717-8.882 8.489zm-42.114 0.409c-6.063 4.429-10.739 6.589-18.154 9.904-2.1485 0.971-1.2158 3.728 0.8585 3.437 4.863-1.054 6.8805-4.595 10.334-6.877 3.372-2.226 7.14-2.711 10.325-5.155 2.748-2.098 4.384-6.216 6.89-8.595 0.454-0.426 1.119-0.98 1.929-1.612h-3.964c-1.54 1.438-2.926 2.873-3.996 4.189-1.417 1.564-1.262 2.691-4.222 4.709zm-7.821-6.423c2.343-1.544 7.432-1.155 10.107-2.477h-9.636c-4.1657 1.419-8.3315 2.44-12.27 3.984l0.000152 4.077c3.1604-0.896 5.576-0.157 9.0765-2.257 1.0373-0.591 1.4263-2.455 2.7223-3.327zm-4.3112 26.637c5.1792-2.787 12.692-11.867 18.081-15.469 2.359-1.576 5.69-1.552 7.749-3.437 2.325-2.123 3.437-5.839 6.022-7.732 0.94-0.69 2.382-1.528 4.02-2.477h-5.763c-0.73 1.171-0.056 2.002-1.702 3.331-5.148 4.296-10.901 7.153-16.347 11.176-4.71 3.105-5.844 7.002-8.615 8.593-1.5653 1.345-6.1029 2.966-10.934 5.122l-0.000178 3.306c0.45376-0.259 0.91546-0.519 1.4341-0.778 2.0187-1.181 4.142-0.386 6.0549-1.635zm12.279-26.904c-5.041 5.393-12.165 8.441-19.767 11.063l0.000152 3.494c8.2827-3.262 15.829-9.504 22.126-13.434 3.217-2.302-0.632-2.651-2.359-1.123zm31.956 2.714c-4.829 7.827-22.579 19.983-31.316 24.19-2.115 0.696-2.512 3.113 0 2.585 2.634-0.77 5.569-2.294 8.607-4.256v-0.048c0.008 0.016 0.032 0.016 0.032 0.032 9.304-6.006 19.655-16.113 25.798-21.518 2.157-1.782-1.726-2.78-3.121-0.985zm10.011 0.986c0.381-1.151-0.365-1.626-1.726-1.719-1.248-0.048-2.683 1.33-1.719 2.587 1.045 0.833 2.885 0.57 3.445-0.868zm-8.875 3.695c-0.674 2.115-0.957 1.876-2.318 3.185-0.527 0.552-0.876 1.265 0 1.718 1.094 0.583 4.02-0.28 5.163-2.581 0.503-1.053 0.77-1.56 0.859-2.573 0.234-1.965-3.21-1.641-3.704 0.251zm3.615 4.248c-0.892 2.816 0.713 2.468-0.948 4.271-0.633 0.696-0.374 1.296 0.178 1.54 2.293 0.713 5.374-1.215 5.171-3.437 0.089-2.172 0.106-3.185 0.859-4.299 0.996-1.361-1.241-2.039-2.602-1.642-1.248 0.547-2.139 1.507-2.658 3.567zm49.37-1.318c0.89 0.689 1.23 0.786 2.48 0.58 1.33-0.58 2.29-1.71 0.37-2.715-1.26-0.495-1.27 0.349-3.06 0.664-0.79 0.507-0.25 0.88 0.21 1.471zm-60.247 4.199c-2.504 3.245-5.624 3.958-7.974 7.226-5.423 7.57-8.664 14.962-16.169 20.27-3.21 1.92-1.475 4.984-0.187 6.377 0.293 0.291 1.807 0.711 3.137-2.139 3.752-9.767 3.51-6.954 9.775-13.332 2.066-2.1 1.564-5.293 3.445-7.741 2.918-3.761 7.716-4.216 9.895-8.696 0.535-1.277 1.475-1.326 2.261-1.864 3.662-1.937-2.457-3.595-4.183-0.101zm7.521-0.507c-2.1 3.039-10.917 9.013-9.467 12.036 0.373 0.372 0.47 0.592 1.314 0.372 5.154-1.855 5.032-7.723 9.021-10.689 2.755-2.351 0.186-3.478-0.868-1.719zm2.586 7.733c1.516-0.762 2.343-3.048 0.421-3.453-0.389-0.065-1.621-0.47-2.205 0.52-0.77 1.394-2.01-0.259-2.658 1.88-0.203 0.389-0.228 0.762-0.511 1.28-0.332 0.705 0.34 1.411 0.648 1.493 1.978 0.533 2.498-0.757 4.305-1.72zm0 18.056c1.799-4.773 3.257-10.795 6.881-13.753 0.972-0.883 2.017-3.736 0.137-2.812-0.923 0.518-1.677 0.923-2.553 1.88-2.383 2.173-6.281 10.455-6.621 13.414-0.332 2.512 1.597 3.055 2.156 1.271zm-5.018-12.092c1.766-1.67 0.697-2.748-1.005-2.529-1.799 0.358-1.904 2.432-0.867 3.452 0.664 0.422 1.581-0.631 1.872-0.923zm-2.73 17.248c-0.738-7.034 9.271-12.417 7.051-17.872-0.697-1.547-9.182 11.031-8.858 16.275 0.42 11.663 4.943 16.733 9.41 24.213 1.231 2.2 2.6 1.72 2.342-0.21-1.582-8.22-8.924-12.62-9.945-22.406zm-5.066-13.908c0.487-1.086 1.281-1.873 1.038-2.901-0.358-0.69-0.747-0.795-1.88-0.487-8.283 2.188-4.969 13.147-9.589 19.014-0.819 1.037-3.566-0.082-3.445 2.578 0.283 3.44 0.576 6.88 0.859 10.32 0.251 1.35 2.715 1.59 2.586 0-0.487-3.98-0.495-6.33 0-10.32 0.226-1.281 1.216-1.128 1.719 0.86 0.235 1.25 4.077 1.21 3.445-0.86-0.997-3.194-3.259-1.468-2.578-3.438 1.775-5.414 5.778-9.92 7.845-14.766zm5.924-1.565c-0.479-0.308-1.176-0.495-2.448 0.082-0.301 0.122-0.802 0.493-1.094 0.817-0.811 0.981-1.491 2.854 0.096 3.396 0.876 0.276 2.123-0.673 3.64-1.491 0.941-0.543 1.087-1.969-0.194-2.804zm-29.266 0.868c-5.803 1.184-12.458 6.491-17.224 9.451-2.0262 1.378-0.8832 2.812 0.0005 2.577 7.7405-1.281 11.526-6.914 17.224-10.318 0.916-0.577 1.498-1.71 0-1.71zm5.163 4.295c2.999-1.832 2.31-3.939 0-2.585-5.252 2.796-8.194 8.25-12.912 11.176-4.1815 2.594-7.6833 4.327-11.8 5.415l-0.000178 2.87c6.7191-1.97 12.668-5.311 18.689-10.003 2.368-1.856 3.291-5.049 6.023-6.873zm19.8 0.851c-1.499 0.243-2.585 0.931-3.445 1.718-0.915 0.851-1.929 2.489 0 3.445 0.908 0.285 1.434 0.179 2.31-0.065 0.534-0.162 1.589-0.73 1.864-1.013 1.573-1.532 1.257-4.612-0.729-4.085zm47.924 17.235c-5.617 0.07-8.616-0.14-11.761-2.62-6.313-4.168-6.816-17.687-8.607-14.615-1.159 3.404-0.551 11.014 1.719 13.755 7.132 10.04 38.068 3.99 48.828-0.911 3.56-1.572 7.05-3.889 8.85-6.824 1.08-2.382-0.64-4.109-4.82-3.753-12.72 1.728-18.31 7.774-32.118 4.896-1.879-0.365-2.667-0.803-3.525 0.576 0 0.567-0.721 1.434 3.525 2.221 13.328 2.593 19.508-0.778 30.398-5.179 2.73-1.289 4.31-0.138 2.51 1.661-4.18 3.883-18.55 9.303-27.15 8.693-3.685-0.26-8.782-2.444-11.74-4.672-2.73-1.719-7.059-2.221-5.26 1.223 2.448 3.329 5.48 3.319 10.95 4.179 2.229 0.43 3.526 1.5-1.799 1.37zm-58.257-14.65c1.07-1.426-1.792-2.512-2.577-0.867-1.589 2.505-3.226 6.151-5.172 8.599-0.202 0.438-0.397 0.778-0.154 1.377 0.292 0.754 1.483 0.342 1.879-0.518 1.76-3.145 3.502-6.224 6.024-8.591zm18.081 3.437c-1.807-0.988 0.827 5.584 1.727 8.593 3.987 13.43 5.146 15.36 18.081 19.77 3.032 1.02 10.326 3.16 13.77 0.85 1.517-1.4 4.256 0.36 6.89 0 1.184-0.25 1.905-1.19 0-1.71-13.493-2.33-26.989 0.52-34.437-10.31-2.992-4.35-1.906-13.952-6.031-17.193zm-12.051 2.577c-2.968 13.776 7.821 21.436 14.636 30.086 1.077 1.44 2.083 1.8 1.719 0-1.224-5.43-5.091-5.03-7.749-8.6-3.631-4.88-6.913-14.21-6.029-20.628 0.251-2.495-1.849-3.046-2.577-0.858zm21.526 0.86c-0.446 2.147-0.267 2.569-0.017 3.856 0.567 1.77 2.504 1.55 2.602-0.419 0-3.048-2.107-5.383-2.585-3.437zm-44.771 2.577c0.445-0.584 0.43-1.825 0.145-1.825-2.416-0.834-9.6202 9.364-11.339 10.424-1.4178 0.87-3.971 0.78-5.7702 1.26l0.000022 2.85c8.8834-1.12 13.705-5.83 16.964-12.709zm-1.03 15.589c1.751-3.4 5.908-14.811 3.202-11.76-2.067 3.44-3.031 5.8-5.608 9.07-1.443 1.46-1.102 2.74 0 3.43 0.429 0.45 1.709 0.64 2.406-0.74zm9.556-0.24c0.446 1.04 1.037 1.78 1.329 2.07 0.592 0.93 1.426 1.48 1.338 0.63-1.313-5.49-2.546-8.23-1.727-14.61 0-2.362-2.464-2.16-2.586 0 0.147 6.4-1.078 5.91 1.646 11.91zm11.274-7.62v-1.72c-0.081-2.02-1.76-1.44-1.719 0 0.754 8.24 5.511 16.15 10.326 20.64 0.607 0.58 2.885 2.09 2.586 0.86-1.159-5.48-6.128-7.81-8.616-12.04-1.232-1.93-2.61-4.59-2.577-7.74zm-2.683 6.47c-0.114-1.27-1.597-1.45-1.719 0 0.089 3.32-0.364 3.53 1.159 5.19 0.446 0.53 0.56 1.4 0.56 1.68-0.316 0.83 1.07 1.51 0.868 0-0.293-2.28-0.576-4.58-0.868-6.87zm-23.999 1.27c-3.3313-1.61-4.7733 1.02-10.082 1.06l-0.000178 3.08c4.3193 0.59 6.8898-1.55 10.415 1.25 0.972 0.84 2.067 0.54 2.245-0.23 0.356-2.38-1.07-4.44-2.578-5.16zm105.89 1.73c-0.14-2.19-4.61 1.7-6.89 2.57-3.63 1.38-10.126 0.3-13.092 0.85-0.996 0.23-2.343 1.39-0.689 1.73 2.213 0.1 2.602-0.26 4.256-0.55 1.945-0.36 3.585-0.31 4.365-0.31 2.19-0.08 1.01 1.09-0.26 1.79-9.398 5-37.424 4.65-43.656-1.79-0.6-0.73-1.776-0.75-1.637 0.52 0.405 2.15 1.191 4.93 5.47 5.9 13.421 3.02 49.443 1.9 52.133-10.71zm-99.87 1.72c-2.343-0.56-2.302 2.04-0.859 3.43 2.658 2.66 5.325 5.32 7.992 7.99h2.877c-1.631-2.73-8.536-10.84-10.01-11.42zm-7.9679 3.21c-0.6813-0.64-2.2119-0.63-3.2253 0.22-0.713 0.52-0.9565 1.32 0 2.58 0.2924 0.28 0.5675 0.58 0.8586 0.86 0.9895 0.83 2.8614 1.17 4.3116 0 0.77-1.13-0.5585-2.57-1.9449-3.66zm34.649 6.24c-2.593-1.76-3.575-4.04-6.89-5.17-3.096-0.79 2.366 4.11 4.311 6.89 0.089 0.08 0.179 0.17 0.283 0.25h1.986c0.112-0.08 0.21-0.17 0.308-0.25 0.61-0.45 0.787-1.17 0.002-1.72zm-34.268 1.97c-3.3073-1.59-6.014-3.31-8.5183-5.35l0.000022 5.35h8.5183zm7.9999 0h2.196c-1.281-0.81-2.593-1.6-3.972-2.39-3.103-1.58-1.182 0.08 1.776 2.39zm160.58-2.83c-0.38 0.96-0.79 1.9-1.2 2.83h3.21c-0.19-0.79-0.31-1.7-0.29-2.83 0.18-2.43-0.97-2.25-1.72 0z"/>
  <path d="m0.016632 0.012758v42.044h66.6v-42.044l-66.6-0.000242zm69.742 0v42.044h66.641v-42.044l-66.641-0.000242zm69.781 0v42.044h66.6v-42.044l-66.6-0.000242z" fill="#025fa5"/>
  <path d="m10.6 9.7279-0.041 22.489h16.701v-7.358h3.39l8.641 7.358h17.446l-10.997-7.772 0.455-0.041c3.541 0.085 6.953-3.057 6.945-7.069 0-5.395-4.026-7.607-7.689-7.607h-34.851zm113.52 0-42.909 0.0413v5.2508h12.65v17.197h17.779l0.04-17.197h12.44v-5.2921zm26.96 0.0413v22.448h43.57v-5.209h-24.47v-17.239l-19.1 0.0002zm-123.82 5.1258h7.649c1.524 0 2.397 1.31 2.397 2.481 0 1.365-0.92 2.422-2.232 2.563l-7.814-0.041v-5.002z" fill-rule="evenodd" fill="#fff"/>
  <rect height="129.25" width="600" y="0" x="0" fill="none"/>
 </g>
</svg>
