<svg xmlns="http://www.w3.org/2000/svg" width="745.845" height="234.206" viewBox="0 0 745.845 234.206" preserveAspectRatio="xMidYMid"><path d="M171.742 74.395l.178-1.367-.725-.461.18-1.215h-.906l-.543.461-.539-.91v-.91h.176c1.088 0 1.994-.453 1.994-.91 0-.453-.361-1.363-.906-2.418l-.182-.156v-1.215h-.906v-.91c1.273-.148 1.994-.301 1.994-.602s-.361-.457-1.809-.602l-.186-.766-1.451.91v-.91c.908 0 1.451-.148 1.451-.609 0-.145-.176-.301-.543-.605-.363-.148-.908-.305-1.266-.305-.906 0-1.451.305-1.451.766 0 .301.182.449.545 1.055l-.908-.148v-.301c0-.156 0-.305.186-.605v-.305c0-.156 0-.461-.543-.754v-3.141h-15.193c-1.252-.031-2.252-1.043-2.266-2.293v-31.97c0-1.289-1.092-2.727-2.326-2.328l-35.307 12.809c-.812.359-1.373 1.172-1.373 2.121l-.375 19.328-.008.008c0 1.266-1.008 2.293-2.266 2.324h-13.197c-1.258.027-2.27 1.055-2.27 2.312v29.352c0 1.281 1.033 2.316 2.307 2.324h.092c.482-.391 1.238-.652 1.984-.617l.131.004 1.742.418.135.008c.83-.414 1.51-.496 1.916-.477l2.971.141.947.043-.021.48h.682c.547.031 2.154.254 2.537.598.152.051.307.105.428.164.264.238.391.363.385.473-.006.125-.082.207-.188.273l.07.234.096-.055.111.574c1.074.16 1.338.285 1.326.512-.01.215-.525.305-1.424.371v.691l.562.023-.043.906.131.125c.369.805.607 1.496.592 1.832-.014.301-.561.559-1.242.598v1.332l.354-.277.676.035-.178.898.525.367-.18 1.012-.439.656-.307.394-.38-.085-1.186.129v31.723c0 26.566 14.33 49.648 35.412 61.426.844.426 1.889.297 2.607-.375l23.168-22.871c.846-.914.836-2.332-.057-3.223h.008c-8.854-6.746-15.311-16.469-17.889-27.672-.793-.797-1.154-1.367-1.182-1.867-.008-.168.168-.262.156-.508-.383-.395.303-.961.264-1.703l-.453-1.938-.104-2.039.137-.445v-.008l-.01-.609-.213-4.133-.059-1.152-.008-.164c-.01-.164-.031-.574.137-.836l-.02-.406-.029-.578-.961-.504-.018-.328-.008-.168-.873-.844.092-1.734.332-.602 1.594-1.609v-.449l-.137-.363.135-.711-.002-1.547-.016-2.539-1.998-1.781.893-.582v-.941l1.027-1.727-.059-1.152-.061-1.152-.189-3.703-.064-1.234.146-.664-.223-.816.092-1.738c-.201-.402-.211-.566-.229-.898-.041-.824.102-1.891.668-2.957v-1.448c0-1.051.703-1.926 1.662-2.211h3.406c1.111-.27 2.867-.203 5.053 0h13.766c.805 0 1.516-.414 1.932-1.039l-.248-1.289.639-3.746v-9.316l-3.137-.758.55-.906zm82.399 114.46l-.037-.059c-3.404-5.781-5.246-14.508-5.496-25.961-.641-.98-.051-2.516-.396-7.512l-.227-3.109.227-1.957-.227-2.922.227-2.73v-2.535l-.227-3.316v-14.82l-.24-2.922v-5.074l.24-1.957v-3.887l.467-2.145-.707-8.195v-10.73l-.232-2.723v-3.906l.232-2.141v-1.363l-.461-3.312.229-2.152-.229-2.141v-5.457l.229-2.539-.229-3.32v-2.918l-.236-1.562.236-2.531-.236-10.723.236-2.348-.236-3.504v-2.758c.457-.375.006-1.164.363-2.227l.73-2.215-.943-.227 1.318-1.559v-1l-.367-.566.367-.449-.002-4.535.061-12.164v-5.41l-1.602-2.926-3.965-.348-17.814 6.121-7.002 2.406-4.852 1.703.311.801-.904.754-1.443-.309v.914l.906.156-.906.605 1.084.305-.363.902-.721 1.066v.449c0 .305.361.461.906.609l-.545.91c-1.596.094-4.635 1.484-5.104 2.43v9.152l.049 1.125.783 41.879-.062 1.957.109.594.662 3.605.258 7.656v14.574l1.373 11.609-1.373 3.215.258 4.199v3.211l-.225 2.805-.033.406.059.938.199 10.672-2.049 24.523c0 13.754.641 29.488 8.361 42.254 6.33 10.891 15.77 20.324 24.977 29.434.898.781 2.244.766 3.113-.059 5.682-5.688 19.271-19.277 24.834-24.836.709-.906.656-2.207-.164-3.051-5.045-5.012-8.747-8.993-13.549-16.829zm220.821-120.082l-.574 3.207v.32c0 1.449.574 1.926 2.492 2.09l1.914.16v-.8l1.918.965 1.945-.805 7.027 1.113h2.512l.578-.797.766.797h4.984l.574.168 1.34.324v-.492l-.762-.156v-.641l1.145.164.391-.805.953.164.961.16-.961-.801.578-.961.191-1.449-.77-.484.191-1.285h-.957l-.578.488-.566-.965v-.965h.184c1.152 0 2.109-.477 2.109-.961 0-.48-.383-3.445-.957-4.562l-.191-.164v-1.285h-.961v-.965c1.348-.156 2.109-.316 2.109-.633 0-.32-.383-.484-1.914-.641l-.195-.805-1.535.961v-.961c.961 0 1.535-.156 1.535-.645 0-.156-.184-.32-.574-.645-.383-.156-.961-.32-1.34-.32-.957 0-1.535.32-1.535.809 0 .32.191.477.578 1.117l-.961-.156v-.316c0-.168 0-.324.195-.645v-.32c0-.168 0-.488-.574-.801v-.959h-6.738c-.574 0-6.258.156-7.406.797h-1.371l-2.492-.48h-.188c-1.727 0-3.449 1.121-3.449 2.242v4.332l-.387 1.602.957 2.965-.191 2.725zm-105.245 69.008c.577-.156.96-.324.96-.645v-.477l-.763-1.129-.385-.957 1.147-.32-.96-.641.96-.164v-.969l-1.526.324-.959-.797 2.298-1.289v-.957l-1.339-1.121-.77.156v-.477h-.766l-.195.477-.762-.633.383-1.133-.459-.305-.5-.336v.32l-4.852-.16-.043-.004-8.244.637-3.781-.16-1.27.43c-.748 0-1.096-.379-1.576-.254-1.332.348-2.338 1.684-2.338 3.441l.256.844-.486 4.363c0 8.453-4.787 12.254-10.662 12.254-3.576 0-7.152-2.324-7.152-4.859l-.256-6.973.766-1.27-.766-1.477-.51-10.145v-3.594l.766-.844-.256-1.902-.256-23.035.512-1.691-.512-3.805 1.021-4.227 1.789-.633v-2.113l.766-.633 3.834-.637h.766c3.877 0 8.555 2.367 9.035 6.785l-.035.266.064.039.703.445-.191 1.285h.959l.576-.488.57.965 1.115.965h-.188c-1.15 0-2.109.477-2.109.961 0 .48.383 1.445.959 2.562l.191.164v1.29h.959v.965c-1.348.156-2.109.316-2.109.633 0 .32.383.484 1.914.641l.195.805 1.537-.961v.961c-.961 0-1.537.156-1.537.645 0 .07.043.141.117.227.094.109.242.238.459.418.385.156.961.32 1.34.32.85 0 1.371-.262 1.486-.66l.236.004.195.004h3.576l8.338-.426 2.553-.211c1.867-.152 3.217-.281 4.209-.41 1.726-.223 2.362-.457 2.687-.855.766-.637.766-1.27.766-3.172v-.844l-.508-10.988c-.258-4.016-1.534-9.512-3.065-12.258-1.023-2.113-3.32-4.227-6.898-6.977-6.387-4.648-12.006-7.184-15.838-7.605h-.256c-.254 0-.51 0-.766-.211-.768 0-1.533 0-3.066-.211-2.555-.211-4.342-.422-5.363-.422h-4.088l-6.643.211c-8.174.211-15.764 3.559-21.459 8.027-5.053 3.965-8.926 10.512-8.926 15.695l-.016 6.707-.256 4.859.512 2.535-.512 1.27.512 8.242h-.766l.51 1.902v12.469l-.51.844.51 1.27v25.57c0 13.734 14.561 27.051 29.635 27.051h14.816c15.543 0 29.82-11.504 32.312-25.012.254-1.367.387-2.754.387-4.152v-3.207c-.508-.27-1.184-.391-2.133-.449l-.575-.963zm-301.498-70.793c-.104-1.059-.334-1.902-.703-2.613-2.312-.492-3.342-.742-6.424-.988-2.057-.246-2.57-.246-2.57-1.234-.258-.496-.258-.496-.258-.742h1.285c4.369-.492 5.654-.988 5.654-1.977v-.246l-.771-.738c-.258-.25-.258-.25-.514-.25-.514-.246-.771-.246-1.027-.246l-4.627-.492h-11.051c-4.301 0-8.279.398-11.961 1.129h-.039l.008.008c-24.217 4.811-35.221 24.28-35.221 43.608v6.945l.182 14.395.182 4.703-.182 1.508.723.762v2.27l-.541 6.066-.182 4.547.545 3.789-.545 3.18 1.479 3.488c.359 3.031.906 3.641 3.443 3.785l.545.914c-.545.148-.906.305-.906.609v.449l.721 1.066.363.902-1.084.305.906.605-.906.152v.914l1.443-.305.904.754-2.17 1.215v.906l1.266 1.062.727-.148v.453h.723l.186-.453.721.602-.361 1.066.906.605v-1.066l.906.305 1.24-.148.727 1.059.178.91 1.27-.453 1.451.148 3.08.457h21.754c.672-.004 1.271-.293 1.693-.754l-.301-2.891.545-3.18-.545-3.793.184-4.543.539-6.066v-2.27l-1.838-.762.182-1.508-.182-4.703.934-14.395.365-6.52-.365-7.277.182-4.141.934-6.316c0-1.062.457-1.887 1.348-2.469 2.133-4.785 6.697-7.496 13.1-7.496h9.922c1.047-.227 1.832-1.152 1.832-2.27v-3.367l.066.055.516-6.918-.516-10.621c-.004-.485-.029-.923-.07-1.337zm393.651 9.646c-.251-10.877-11.88-20.496-25.026-20.496-6.319 0-8.619 1.255-14.687 4.81l-1.52.418-1.013-3.137-2.524-2.091h-19.217c-5.562 0-8.597 1.883-8.597 5.228l-.251 6.694-.506 9.41.506 13.385-.506 2.299.506 4.395-.506 4.604v2.508l.506 2.72v2.512l.251 9.826-.251 6.276.251 2.93v6.48l-.251 7.529.251 3.978v6.9l-.251 2.721.251.627v8.519l1.52 3.137c.251.418 1.009.836 2.527 1.463 2.278.836 4.044 1.255 6.572 1.255h1.263l5.061-.209 6.572.209c.251-.209.504-.419.504-.627l.509-.418.253-.21.252-.209c.254 0 1.01-.418 2.024-.836.757-.418 1.515-.628 1.768-1.045h.252l.504-2.301.511-1.676.247-2.452.257-1.047v-5.021l-.762-2.301v-3.553l.258-2.3-.258-3.35v-11.503l.258-1.88-.258-7.113v-6.692l.258-1.046-.258-6.689.258-3.14v-7.53l-.258-6.694.258-4.182 2.019-2.3c.276-.53.722-.979 1.286-1.331l-.1-1.069 1.483.106.134-.004c.242 0 .478.008.707.027l1.313.037 1.267-.503.178 1.015 1.825 1.176 2.348-.162.907.338v-1.188l.898.671-.358 1.191.718.667.182-.505h.722v.505l.726-.16 1.262 1.179v1.005l-2.165 1.354.903.841 1.439-.34v1.019l-.906.173.906.671-1.08.338.359 1.004.721 1.191v.499c0 .336-.363.513-.906.675l.543 1.019c2.529.161 3.072-.292 3.433 3.088l.174 1.866.319.051c4.301-.417 7.586.502 9.861.292 9.609-.836 11.633-1.885 11.633-6.694v-5.021l-.258-2.509.258-2.3-.259-8.997zm184.69 55.307v-3.594l.512-1.48-.512-1.266 1.023-3.172-1.277-.844.766-3.594-.512-3.379.512-4.016-.766-1.691.766-.422-.512-5.496v-2.535l.766-2.746-.766-1.902v-2.113l.512-.422v-13.949c-1.277-2.957-2.043-5.07-2.555-6.551-1.531-4.648-2.043-5.285-2.809-5.918-.512-.211-.512-.422-.77-.633-3.832-5.918-9.867-9.297-18.297-9.297-10.73 0-20.371 2.746-24.969 8.66-.512.848-.766 1.48-1.023 1.691-.325.543-.646.893-.906 1.087l-.02-.028-.258-.211h-.254l-1.277-2.113c-4.086-3.805-5.363-4.859-7.664-6.129-2.809-1.902-6.898-2.746-12.516-2.746-6.277.254-6.27.285-8.055.48-2.27.242-4.879 1.238-5.93 1.844-1.047.605-3.578 2.535-5.367 4.016l-1.273-.848v-2.534l-1.023-2.746-2.555-.211-20.344-.211-3.574.211-1.535 1.688v2.113l-.254 6.129v42.477l.254 13.738-.254 5.281.254.422.258 3.594v16.484l.254 5.707-.254 2.746.254 1.691.512 6.762c.254 2.324.254 3.805.512 4.016 0 .422.254.633.512.844.766.637 2.551 1.059 5.617 1.059h5.875l16-.211 1.535-1.059.512-1.48v-2.109l-.512-2.328v-1.688l-.254-8.457-.258-2.109-.258-2.328-.254-8.453-.254-8.027.508-.848-.254-1.902v-4.227l.512-.633-.512-1.48-.254-2.957-.512-6.973v-5.707l.512-2.957-.766-4.016v-3.595l.254-5.707v-.422c0-4.016 2.555-7.184 5.875-7.184h6.062l6.16 2.324.512 2.746-.258.848 1.023.633v21.555l.254 5.496-.254 6.973.254 7.609v7.395l-.254 6.34.254.633v4.652l.258 3.168v12.047l.254 1.055c.508 2.535-.352 2.961 1.438 2.961h7.223l.512.211h2.246c.43-.371.695-.574.957-.633.754-.16 1.172.094 1.414.633h1.812l-1.949-.902 1.559-.523c.008-1.488.25-1.914.891-2.047.625-.133 1.094.508 1.668 1.695l1.91-.406-.191-.891 2.551-.543.289-.25c2.098-1.004.586-1.766 1.531-1.969.957-.203 2.102.484 2.324 1.555l.039.176.52-.109-.227-6.562v-2.75l-.512-9.297.254-.422-.254-1.48.254-2.113-.508-9.934v-.422l.254-7.184-.254-1.902v-8.664l-.254-2.539-.512-2.746.512-2.746v-2.746l-.512-2.113v-4.019l1.273-2.746-.762-1.902.254-1.691v-2.324l.254-1.48c.766-3.805 4.531-5.281 8.109-5.281.512 0 2.996 0 3.508.211l2.043.633c2.555 2.957 3.832 5.707 3.832 8.031v1.055c0 .422 0 .633-.254.848v3.59l.254 3.594-.254 4.016.254 6.129-.254 2.746.254 2.535-1.023 3.172.512 2.113v5.492l.258 3.594-.258 3.594v7.395l-.512 1.27.512.844v.637l-.527 16.629.371-.328-.117.961-.141.957 1.676.023-.102 1.133 1.27-.27.16-.773.965-.207-.375 1.379 1.402-.074.562 1.527-2.176-.844.984 4.637-1.43 1.051 1.031.121 5.133-.141 13.699.211 6.387-1.059 1.277-2.113v-24.09l.512-1.48-.254-4.648.508-3.383.512-1.688v-.211c.002-.641-.252-1.063-1.275-1.274zm-51.188-63.398l.021-.007-.021.007zm150.473 35.008c0-.631-.218-1.26-.567-1.806l.001-.624v-.848l-.508-17.68c-.254-4.016-1.531-9.512-3.066-12.258-1.023-2.113-3.32-4.227-6.895-6.977-6.391-4.648-12.008-7.184-15.84-7.605h-.258c-.254 0-.512 0-.766-.211-.766 0-1.535 0-3.066-.211-2.555-.211-4.34-.422-5.363-.422h-4.09l-6.641.211c-8.176.211-15.762 3.559-21.457 8.027-5.055 3.965-8.926 10.512-8.926 15.695l-.016 6.707-.258 4.859.512 2.535-.512 1.27.512 8.242h-.766l.512 1.902v12.469l-.512.844.512 1.27v25.57c0 13.734 14.559 27.051 29.633 27.051h14.816c15.543 0 29.82-11.504 32.312-25.012.254-1.367.387-2.754.387-4.152v-.977c-.508-.266-1.184-.391-2.133-.445l-.578-.965c.578-.156.961-.324.961-.645v-.477l-.766-1.129-.383-.957 1.148-.32-.961-.641.961-.16v-.969l-1.527.324-.957-.801 2.297-1.285v-.957l-1.34-1.125-.77.16v-.48h-.766l-.195.48-.762-.637.383-1.129-.457-.309-.504-.332v.316l-4.848-.16-.047-.004-8.242.637-3.781-.16-1.27.43c-.75 0-1.094-.379-1.578-.254-1.328.348-2.336 1.684-2.336 3.441l.258.844-.488 4.363c0 8.453-4.785 10.023-10.66 10.023-3.578 0-7.156-2.324-7.156-4.859l-.254-6.973.766-1.27-.766-1.477-.512-10.145v-3.594l.766-.844-.08-.604 2.143-.084 1.598.195.805-.766h2.402l6.418.57 4.809.195 4.016-.578 3.367.578 3.688-.387c3.211-.379 3.852-.957 4.008-3.645l.961-.574c.16.574.324.961.648.961h.477l1.129-.766.953-.383.324 1.148.641-.961.16.961h.969l-.324-1.527.797-.961 1.289 2.301h.957l1.121-1.34-.156-.773h.477v-.762l-.477-.195.637-.766 1.129.387.641-.961h-1.129l.324-.961-.16-.262 1.121-1.941.965-.188-.48-1.34.641-1.773v-.182zm-26.528-13.024c-1.152 0-2.109.477-2.109.961 0 .405.272 5.885.701 8.277l-3.01.141-5.141-.383-6.738-.191-4.426.333-.062-5.662.508-1.691-.508-3.805 1.02-4.227 1.789-.633v-2.113l.766-.633 3.836-.637h.766c3.875 0 8.555 2.367 9.035 6.785l-.035.266.062.039.703.445-.191 1.285h.957l.578-.488.57.965 1.113.965h-.184zm-215.808 36.766l-.191-4.977.191-1.594-.766-.809v-2.402l.574-6.418.191-2.574-.574-4.016.574-3.367-.383-3.688c-.383-3.211-.961-3.852-3.645-4.008l-.578-.965c.578-.156.961-.32.961-.641v-.48l-.766-1.129-.383-.953 1.148-.324-.961-.637.961-.164v-.967l-1.527.324-.961-.797 2.301-1.289v-.957l-1.34-1.121-.77.156v-.48h-.766l-.195.48-.762-.637.383-1.129-.961-.641v1.129l-.957-.324-2.496.16-1.941-1.121-.188-.965-1.34.48-6.262-.156-4.438-.484h-.188c-1.73 0-3.453 1.605-3.453 3.207v4.488l-.195 2.25v6.898l-.383 5.93.383 8.172-.383 2.91-.191 6.738.387 5.129-.387 5.934v11.227l.387 3.848.188 7.543v5.293l-.188 3.047.383 1.918.191 4.496c0 1.918 1.918 3.047 4.98 3.047l12.445-.164 5.18.164h.379c4.41 0 6.52-1.281 6.52-3.691l-.191-7.863.191-3.199-.383-7.703.383-6.898-.188-15.236z"/></svg>