<?xml version="1.0" encoding="utf-8"?>
<!-- Generator: Adobe Illustrator 16.0.0, SVG Export Plug-In . SVG Version: 6.00 Build 0)  -->
<!DOCTYPE svg PUBLIC "-//W3C//DTD SVG 1.1//EN" "http://www.w3.org/Graphics/SVG/1.1/DTD/svg11.dtd">
<svg version="1.1" id="Layer_1" xmlns="http://www.w3.org/2000/svg" xmlns:xlink="http://www.w3.org/1999/xlink" x="0px" y="0px"
	 width="745.846px" height="234.207px" viewBox="0 0 745.846 234.207" enable-background="new 0 0 745.846 234.207"
	 xml:space="preserve">
<path d="M171.742,74.395l0.178-1.367l-0.725-0.461l0.18-1.215h-0.906l-0.543,0.461l-0.538-0.91v-0.91h0.176
	c1.088,0,1.994-0.453,1.994-0.91c0-0.453-0.361-1.363-0.906-2.418l-0.183-0.156v-1.215h-0.905v-0.91
	c1.272-0.148,1.994-0.301,1.994-0.602c0-0.301-0.361-0.457-1.81-0.602l-0.186-0.766l-1.451,0.91v-0.91
	c0.908,0,1.451-0.148,1.451-0.609c0-0.145-0.177-0.301-0.543-0.605c-0.363-0.148-0.908-0.305-1.267-0.305
	c-0.905,0-1.451,0.305-1.451,0.766c0,0.301,0.183,0.449,0.546,1.055l-0.908-0.148v-0.301c0-0.156,0-0.305,0.186-0.605v-0.305
	c0-0.156,0-0.461-0.543-0.754v-3.141h-15.192c-1.253-0.031-2.253-1.043-2.267-2.293v-31.97c0-1.289-1.092-2.727-2.326-2.328
	L110.49,33.68c-0.813,0.359-1.373,1.172-1.373,2.121l-0.375,19.328l-0.008,0.008c0,1.266-1.008,2.293-2.267,2.324H93.271
	c-1.259,0.027-2.271,1.055-2.271,2.312v29.352c0,1.281,1.033,2.316,2.308,2.324H93.4c0.481-0.391,1.238-0.652,1.983-0.617
	l0.132,0.004l1.741,0.418l0.136,0.008c0.83-0.414,1.51-0.496,1.916-0.477l2.971,0.141l0.947,0.043l-0.021,0.48h0.682
	c0.548,0.031,2.154,0.254,2.537,0.598c0.152,0.051,0.308,0.105,0.429,0.164c0.264,0.238,0.391,0.363,0.385,0.473
	c-0.006,0.125-0.082,0.207-0.188,0.273l0.07,0.234l0.096-0.055l0.111,0.574c1.074,0.16,1.338,0.285,1.326,0.512
	c-0.01,0.215-0.525,0.305-1.424,0.371v0.691l0.562,0.023l-0.043,0.906l0.131,0.125c0.369,0.805,0.607,1.496,0.592,1.832
	c-0.014,0.301-0.561,0.559-1.241,0.598v1.332l0.354-0.277l0.676,0.035l-0.178,0.898l0.525,0.367l-0.181,1.012l-0.438,0.656
	l-0.308,0.394l-0.38-0.085l-1.186,0.129v31.724c0,26.565,14.33,49.647,35.412,61.426c0.844,0.426,1.889,0.297,2.606-0.375
	l23.168-22.871c0.847-0.914,0.836-2.332-0.057-3.223h0.008c-8.854-6.746-15.311-16.47-17.889-27.673
	c-0.793-0.797-1.154-1.366-1.183-1.866c-0.008-0.168,0.169-0.263,0.156-0.509c-0.383-0.396,0.303-0.961,0.265-1.702l-0.453-1.939
	l-0.104-2.038l0.137-0.445v-0.008l-0.01-0.608l-0.213-4.134l-0.059-1.151l-0.008-0.164c-0.011-0.164-0.031-0.574,0.137-0.836
	l-0.021-0.406l-0.028-0.578l-0.961-0.504l-0.019-0.328l-0.008-0.168l-0.873-0.844l0.092-1.734l0.332-0.602l1.594-1.609v-0.449
	l-0.137-0.363l0.135-0.711l-0.002-1.546l-0.016-2.539l-1.998-1.781l0.893-0.582v-0.941l1.027-1.727l-0.059-1.152l-0.062-1.152
	l-0.188-3.703l-0.064-1.234l0.146-0.664l-0.224-0.816l0.092-1.738c-0.2-0.402-0.211-0.566-0.229-0.898
	c-0.041-0.824,0.102-1.891,0.668-2.957V93.66c0-1.051,0.703-1.926,1.662-2.211h3.406c1.11-0.271,2.866-0.203,5.053,0h13.766
	c0.806,0,1.517-0.414,1.933-1.039l-0.248-1.289l0.639-3.746v-9.316l-3.137-0.758L171.742,74.395L171.742,74.395z M254.141,188.855
	l-0.037-0.059c-3.404-5.781-5.246-14.508-5.496-25.961c-0.642-0.98-0.051-2.517-0.396-7.512l-0.227-3.109l0.227-1.957l-0.227-2.922
	l0.227-2.73v-2.535l-0.227-3.316v-14.819l-0.24-2.922v-5.074l0.24-1.957v-3.887l0.467-2.145l-0.707-8.195v-10.73l-0.231-2.723
	v-3.906l0.231-2.141v-1.363l-0.461-3.312l0.229-2.152l-0.229-2.141v-5.457l0.229-2.539l-0.229-3.32v-2.918l-0.236-1.562l0.236-2.531
	l-0.236-10.723l0.236-2.348l-0.236-3.504v-2.758c0.457-0.375,0.007-1.164,0.363-2.227l0.73-2.215l-0.943-0.227l1.318-1.559v-1
	l-0.367-0.566l0.367-0.449l-0.002-4.535l0.061-12.164v-5.41l-1.602-2.926L243.008,0l-17.813,6.121l-7.002,2.406l-4.853,1.703
	l0.312,0.801l-0.904,0.754l-1.442-0.309v0.914l0.905,0.156l-0.905,0.605l1.084,0.305l-0.363,0.902l-0.721,1.066v0.449
	c0,0.305,0.36,0.461,0.905,0.609l-0.545,0.91c-1.596,0.094-4.635,1.484-5.104,2.43v9.152l0.049,1.125l0.783,41.879l-0.063,1.957
	l0.109,0.594l0.662,3.604l0.258,7.656v14.574l1.373,11.609l-1.373,3.215l0.258,4.199v3.211l-0.225,2.805l-0.033,0.406l0.059,0.938
	l0.199,10.672l-2.049,24.522c0,13.755,0.641,29.488,8.361,42.255c6.33,10.891,15.77,20.323,24.977,29.434
	c0.898,0.781,2.244,0.766,3.113-0.059c5.682-5.689,19.271-19.277,24.834-24.837c0.709-0.905,0.656-2.207-0.164-3.051
	C262.645,200.671,258.943,196.691,254.141,188.855L254.141,188.855z M474.963,68.773l-0.574,3.207v0.32
	c0,1.449,0.574,1.926,2.492,2.09l1.914,0.16v-0.8l1.918,0.965l1.944-0.805l7.027,1.113h2.512l0.578-0.797l0.766,0.797h4.984
	l0.574,0.168l1.34,0.324v-0.492l-0.762-0.156v-0.641l1.145,0.164l0.392-0.805l0.952,0.164l0.962,0.16l-0.962-0.801l0.578-0.961
	l0.191-1.449l-0.771-0.484l0.191-1.285h-0.957l-0.578,0.488l-0.565-0.965v-0.965h0.184c1.152,0,2.109-0.477,2.109-0.961
	c0-0.48-0.384-3.445-0.957-4.562l-0.191-0.164v-1.285h-0.961V59.55c1.348-0.156,2.109-0.316,2.109-0.633
	c0-0.32-0.384-0.484-1.914-0.641l-0.195-0.805l-1.535,0.961v-0.961c0.961,0,1.535-0.156,1.535-0.645c0-0.156-0.184-0.32-0.574-0.645
	c-0.383-0.156-0.961-0.32-1.34-0.32c-0.957,0-1.535,0.32-1.535,0.809c0,0.32,0.191,0.477,0.578,1.117l-0.961-0.156v-0.316
	c0-0.168,0-0.324,0.195-0.645v-0.32c0-0.168,0-0.488-0.574-0.801V54.59h-6.738c-0.574,0-6.258,0.156-7.406,0.797h-1.37l-2.492-0.48
	h-0.188c-1.727,0-3.449,1.121-3.449,2.242v4.332l-0.387,1.602l0.957,2.965L474.963,68.773z M369.718,137.781
	c0.577-0.156,0.96-0.324,0.96-0.645v-0.477l-0.764-1.129l-0.385-0.957l1.147-0.32l-0.96-0.642l0.96-0.163v-0.97l-1.526,0.323
	l-0.959-0.797l2.298-1.289v-0.957l-1.339-1.12l-0.77,0.155v-0.477h-0.767l-0.194,0.477l-0.763-0.633l0.383-1.133l-0.459-0.305
	l-0.5-0.336v0.32l-4.852-0.16l-0.043-0.004l-8.244,0.637l-3.781-0.16l-1.27,0.43c-0.748,0-1.096-0.379-1.576-0.254
	c-1.332,0.348-2.338,1.684-2.338,3.441l0.256,0.844l-0.486,4.363c0,8.453-4.786,12.254-10.661,12.254
	c-3.576,0-7.152-2.324-7.152-4.859l-0.256-6.973l0.766-1.27l-0.766-1.478l-0.51-10.146v-3.594l0.766-0.844l-0.256-1.902L325.422,94
	l0.512-1.691l-0.512-3.805l1.021-4.227l1.789-0.633v-2.113l0.766-0.633l3.834-0.637h0.767c3.877,0,8.555,2.367,9.035,6.785
	l-0.035,0.266l0.063,0.039l0.703,0.445l-0.19,1.285h0.959l0.575-0.488l0.57,0.965l1.115,0.965h-0.188
	c-1.149,0-2.108,0.477-2.108,0.961c0,0.48,0.383,1.445,0.959,2.562l0.19,0.164v1.29h0.959v0.965
	c-1.348,0.156-2.108,0.316-2.108,0.633c0,0.32,0.383,0.484,1.914,0.641l0.194,0.805l1.537-0.961v0.961
	c-0.961,0-1.537,0.156-1.537,0.645c0,0.07,0.043,0.141,0.117,0.227c0.095,0.109,0.242,0.238,0.459,0.418
	c0.386,0.156,0.961,0.32,1.34,0.32c0.851,0,1.371-0.262,1.486-0.66l0.236,0.004l0.194,0.004h3.576l8.338-0.426l2.554-0.211
	c1.866-0.152,3.217-0.281,4.209-0.41c1.726-0.223,2.361-0.457,2.687-0.855c0.767-0.637,0.767-1.27,0.767-3.172v-0.844l-0.509-10.988
	c-0.258-4.016-1.533-9.512-3.064-12.258c-1.023-2.113-3.32-4.227-6.898-6.977c-6.387-4.648-12.006-7.184-15.838-7.605h-0.256
	c-0.254,0-0.51,0-0.766-0.211c-0.769,0-1.533,0-3.066-0.211c-2.555-0.211-4.342-0.422-5.363-0.422h-4.088l-6.643,0.211
	c-8.174,0.211-15.765,3.559-21.459,8.027c-5.054,3.965-8.927,10.512-8.927,15.695l-0.016,6.707l-0.256,4.859l0.512,2.535
	l-0.512,1.27l0.512,8.242h-0.766l0.51,1.902v12.469l-0.51,0.844l0.51,1.27v25.57c0,13.734,14.562,27.051,29.635,27.051h14.816
	c15.543,0,29.82-11.504,32.312-25.012c0.255-1.367,0.388-2.754,0.388-4.152v-3.207c-0.508-0.27-1.185-0.391-2.133-0.449
	L369.718,137.781L369.718,137.781z M68.219,66.988c-0.104-1.059-0.334-1.902-0.703-2.613c-2.313-0.492-3.343-0.742-6.425-0.988
	c-2.057-0.246-2.569-0.246-2.569-1.234c-0.258-0.496-0.258-0.496-0.258-0.742h1.284c4.369-0.492,5.654-0.988,5.654-1.977v-0.246
	l-0.771-0.738c-0.259-0.25-0.259-0.25-0.515-0.25c-0.514-0.246-0.771-0.246-1.026-0.246l-4.627-0.492H47.213
	c-4.301,0-8.278,0.398-11.961,1.129h-0.039l0.009,0.008C11.004,63.41,0,82.879,0,102.207v6.945l0.183,14.395l0.182,4.703
	l-0.182,1.508l0.723,0.763v2.271l-0.541,6.065l-0.182,4.547l0.545,3.789l-0.545,3.181l1.479,3.487
	c0.359,3.031,0.906,3.642,3.443,3.785l0.545,0.914c-0.545,0.147-0.906,0.306-0.906,0.608v0.449l0.721,1.066l0.363,0.902
	l-1.084,0.305l0.906,0.605l-0.906,0.151v0.914l1.443-0.306l0.903,0.754l-2.17,1.216v0.905l1.267,1.063l0.727-0.148v0.453h0.724
	l0.186-0.453l0.721,0.603l-0.36,1.065l0.905,0.605v-1.066l0.906,0.306l1.24-0.147l0.727,1.059l0.179,0.91l1.27-0.453l1.451,0.148
	l3.08,0.456h21.754c0.672-0.004,1.271-0.293,1.693-0.754l-0.302-2.892l0.545-3.18l-0.545-3.793l0.185-4.543l0.539-6.066v-2.27
	l-1.838-0.762l0.182-1.508l-0.182-4.703l0.934-14.395l0.365-6.521l-0.365-7.277l0.182-4.141l0.935-6.316
	c0-1.062,0.457-1.887,1.348-2.469c2.133-4.785,6.697-7.496,13.101-7.496h9.922c1.047-0.227,1.832-1.152,1.832-2.27v-3.367
	l0.065,0.055l0.517-6.918l-0.517-10.621C68.285,67.84,68.26,67.402,68.219,66.988L68.219,66.988z M461.87,76.634
	c-0.251-10.877-11.88-20.496-25.025-20.496c-6.319,0-8.619,1.255-14.688,4.81l-1.52,0.418l-1.014-3.137l-2.523-2.091h-19.217
	c-5.563,0-8.598,1.883-8.598,5.228l-0.251,6.694l-0.506,9.41l0.506,13.385l-0.506,2.299l0.506,4.395l-0.506,4.604v2.508l0.506,2.72
	v2.512l0.251,9.825l-0.251,6.277l0.251,2.93v6.48l-0.251,7.528l0.251,3.978v6.9l-0.251,2.721l0.251,0.627v8.52l1.521,3.137
	c0.251,0.418,1.009,0.836,2.526,1.463c2.278,0.836,4.045,1.256,6.572,1.256h1.264l5.061-0.209l6.572,0.209
	c0.251-0.209,0.504-0.42,0.504-0.627l0.509-0.418l0.253-0.211l0.252-0.209c0.254,0,1.01-0.418,2.024-0.836
	c0.757-0.418,1.515-0.628,1.768-1.045h0.252l0.504-2.301l0.512-1.676l0.247-2.453l0.257-1.047v-5.021l-0.763-2.301v-3.554
	l0.259-2.299l-0.259-3.351v-11.503l0.259-1.88l-0.259-7.113V117l0.259-1.046l-0.259-6.689l0.259-3.14v-7.53l-0.259-6.694
	l0.259-4.182l2.019-2.3c0.276-0.53,0.722-0.979,1.286-1.331l-0.101-1.069l1.483,0.106l0.134-0.004c0.242,0,0.479,0.008,0.707,0.027
	l1.313,0.037l1.267-0.503l0.178,1.015l1.825,1.176l2.349-0.162l0.906,0.338v-1.188l0.898,0.671l-0.358,1.191l0.719,0.667
	l0.182-0.505h0.722v0.505l0.727-0.16l1.262,1.179v1.005l-2.165,1.354l0.903,0.841l1.438-0.34v1.019l-0.905,0.173l0.905,0.671
	l-1.08,0.338l0.359,1.004l0.721,1.191v0.499c0,0.336-0.362,0.513-0.905,0.675l0.543,1.019c2.528,0.161,3.071-0.292,3.433,3.088
	l0.174,1.866l0.319,0.051c4.301-0.417,7.586,0.502,9.86,0.292c9.609-0.836,11.634-1.885,11.634-6.694V90.44l-0.259-2.509l0.259-2.3
	L461.87,76.634L461.87,76.634z M646.56,131.941v-3.594l0.512-1.48l-0.512-1.266l1.023-3.172l-1.277-0.844l0.766-3.594l-0.512-3.38
	l0.512-4.016l-0.766-1.691l0.766-0.422l-0.512-5.496v-2.535l0.766-2.746l-0.766-1.902v-2.113l0.512-0.422V79.32
	c-1.276-2.957-2.043-5.07-2.555-6.551c-1.531-4.648-2.043-5.285-2.809-5.918c-0.513-0.211-0.513-0.422-0.771-0.633
	c-3.832-5.918-9.867-9.297-18.297-9.297c-10.73,0-20.371,2.746-24.969,8.66c-0.513,0.848-0.767,1.48-1.023,1.691
	c-0.325,0.543-0.646,0.893-0.906,1.087l-0.02-0.028l-0.258-0.211h-0.254l-1.277-2.113c-4.086-3.805-5.363-4.859-7.664-6.129
	c-2.809-1.902-6.898-2.746-12.516-2.746c-6.277,0.254-6.271,0.285-8.056,0.48c-2.27,0.242-4.879,1.238-5.93,1.844
	c-1.047,0.605-3.578,2.535-5.367,4.016l-1.272-0.848V60.09l-1.023-2.746l-2.555-0.211l-20.344-0.211l-3.574,0.211l-1.535,1.688
	v2.113l-0.254,6.129v42.477l0.254,13.738l-0.254,5.281l0.254,0.422l0.258,3.595v16.483l0.254,5.707l-0.254,2.745l0.254,1.691
	l0.513,6.762c0.254,2.324,0.254,3.806,0.512,4.017c0,0.422,0.254,0.634,0.512,0.845c0.767,0.637,2.551,1.059,5.617,1.059h5.875
	l16-0.211l1.535-1.059l0.512-1.48v-2.109l-0.512-2.328v-1.688l-0.254-8.457l-0.259-2.109l-0.258-2.328l-0.254-8.453l-0.254-8.027
	l0.508-0.848l-0.254-1.902v-4.227l0.512-0.633l-0.512-1.48l-0.254-2.957l-0.512-6.972v-5.707l0.512-2.957l-0.766-4.016V98.34
	l0.254-5.707v-0.422c0-4.016,2.555-7.184,5.875-7.184h6.062l6.16,2.324l0.512,2.746l-0.258,0.848l1.023,0.633v21.555l0.254,5.496
	l-0.254,6.974l0.254,7.608v7.396l-0.254,6.34l0.254,0.634v4.651l0.258,3.168v12.047l0.254,1.056
	c0.508,2.535-0.352,2.961,1.438,2.961h7.223l0.512,0.211h2.246c0.431-0.371,0.695-0.574,0.957-0.633
	c0.754-0.16,1.172,0.094,1.414,0.633h1.813l-1.949-0.902l1.559-0.523c0.008-1.488,0.25-1.914,0.892-2.047
	c0.625-0.133,1.094,0.508,1.668,1.695l1.91-0.406l-0.191-0.891l2.551-0.543l0.289-0.25c2.099-1.004,0.586-1.766,1.531-1.969
	c0.957-0.203,2.102,0.483,2.324,1.555l0.039,0.176l0.52-0.109l-0.227-6.562v-2.75l-0.513-9.297l0.254-0.423l-0.254-1.479
	l0.254-2.113l-0.508-9.935v-0.422l0.254-7.185l-0.254-1.901v-8.664l-0.254-2.539l-0.512-2.746l0.512-2.746v-2.746l-0.512-2.113
	V99.82l1.272-2.746l-0.762-1.902l0.254-1.691v-2.324l0.254-1.48c0.767-3.805,4.531-5.281,8.109-5.281c0.512,0,2.996,0,3.508,0.211
	l2.043,0.633c2.556,2.957,3.832,5.707,3.832,8.031v1.055c0,0.422,0,0.633-0.254,0.848v3.59l0.254,3.594l-0.254,4.016l0.254,6.129
	l-0.254,2.746l0.254,2.536l-1.022,3.172l0.512,2.112v5.492l0.258,3.594l-0.258,3.595v7.395l-0.512,1.27l0.512,0.844v0.638
	l-0.527,16.629l0.371-0.328l-0.117,0.961l-0.141,0.957l1.676,0.022l-0.102,1.134l1.27-0.271l0.16-0.772l0.965-0.207l-0.375,1.379
	l1.402-0.073l0.562,1.526l-2.176-0.845l0.984,4.638l-1.431,1.051l1.031,0.121l5.133-0.142l13.699,0.211l6.387-1.059l1.277-2.113
	v-24.09l0.512-1.479l-0.254-4.647l0.508-3.384l0.513-1.688v-0.211C647.838,132.574,647.584,132.152,646.56,131.941L646.56,131.941z
	 M595.372,68.543l0.021-0.007L595.372,68.543z M745.845,103.551c0-0.631-0.218-1.26-0.567-1.806l0.001-0.624v-0.848l-0.508-17.68
	c-0.254-4.016-1.531-9.512-3.065-12.258c-1.023-2.113-3.32-4.227-6.896-6.977c-6.391-4.648-12.008-7.184-15.84-7.605h-0.258
	c-0.255,0-0.513,0-0.767-0.211c-0.766,0-1.535,0-3.065-0.211c-2.556-0.211-4.341-0.422-5.363-0.422h-4.09l-6.642,0.211
	c-8.176,0.211-15.762,3.559-21.457,8.027c-5.055,3.965-8.926,10.512-8.926,15.695l-0.016,6.707l-0.258,4.859l0.512,2.535
	l-0.512,1.27l0.512,8.242h-0.766l0.512,1.902v12.469l-0.512,0.843l0.512,1.271v25.569c0,13.734,14.559,27.052,29.633,27.052h14.816
	c15.543,0,29.819-11.504,32.312-25.013c0.254-1.366,0.388-2.754,0.388-4.151v-0.978c-0.509-0.266-1.185-0.391-2.134-0.444
	l-0.578-0.966c0.578-0.155,0.962-0.323,0.962-0.645v-0.477l-0.767-1.129l-0.383-0.957l1.147-0.32l-0.961-0.641l0.961-0.16v-0.969
	l-1.526,0.324l-0.957-0.802l2.297-1.284v-0.957l-1.34-1.125l-0.771,0.159v-0.479h-0.766l-0.195,0.479l-0.762-0.637l0.383-1.129
	l-0.457-0.31l-0.504-0.332v0.316l-4.848-0.16l-0.047-0.004l-8.242,0.637l-3.781-0.16l-1.27,0.431c-0.75,0-1.095-0.38-1.578-0.255
	c-1.328,0.349-2.336,1.685-2.336,3.441l0.258,0.844l-0.488,4.363c0,8.453-4.785,10.023-10.66,10.023
	c-3.578,0-7.155-2.324-7.155-4.859l-0.255-6.973l0.767-1.27l-0.767-1.478l-0.512-10.146v-3.594l0.766-0.844l-0.079-0.604
	l2.143-0.084l1.598,0.194l0.806-0.767h2.401l6.418,0.57l4.81,0.195l4.016-0.578l3.367,0.578l3.688-0.387
	c3.212-0.379,3.853-0.958,4.009-3.645l0.961-0.574c0.16,0.574,0.323,0.961,0.647,0.961h0.478l1.129-0.766l0.953-0.383l0.323,1.148
	l0.642-0.961l0.16,0.961h0.969l-0.324-1.527l0.797-0.961l1.289,2.301h0.957l1.121-1.34l-0.156-0.773h0.478v-0.762l-0.478-0.195
	l0.638-0.766l1.129,0.387l0.641-0.961h-1.129l0.324-0.961l-0.16-0.262l1.121-1.941l0.965-0.188l-0.48-1.34l0.642-1.773v-0.182
	H745.845z M719.317,90.527c-1.151,0-2.108,0.477-2.108,0.961c0,0.405,0.271,5.885,0.7,8.277l-3.01,0.141l-5.141-0.383l-6.738-0.191
	l-4.426,0.333l-0.063-5.662l0.508-1.691l-0.508-3.805l1.021-4.227l1.789-0.633v-2.113l0.766-0.633l3.836-0.637h0.767
	c3.875,0,8.555,2.367,9.034,6.785l-0.034,0.266l0.062,0.039l0.703,0.445l-0.191,1.285h0.957l0.578-0.488l0.57,0.965l1.113,0.965
	L719.317,90.527L719.317,90.527z M503.51,127.292l-0.191-4.977l0.191-1.594l-0.767-0.809v-2.403l0.574-6.418l0.191-2.574
	l-0.574-4.016l0.574-3.367l-0.383-3.688c-0.384-3.211-0.961-3.852-3.646-4.008l-0.578-0.965c0.578-0.156,0.961-0.32,0.961-0.641
	v-0.48l-0.766-1.129l-0.383-0.953l1.147-0.324l-0.961-0.637l0.961-0.164V87.18l-1.526,0.324l-0.961-0.797l2.301-1.289v-0.957
	l-1.34-1.121l-0.771,0.156v-0.48H496.8l-0.195,0.48l-0.762-0.637l0.383-1.129l-0.961-0.641v1.129l-0.957-0.324l-2.496,0.16
	l-1.94-1.121l-0.188-0.965l-1.34,0.48l-6.262-0.156l-4.438-0.484h-0.188c-1.73,0-3.453,1.605-3.453,3.207v4.488l-0.195,2.25v6.898
	l-0.383,5.93l0.383,8.172l-0.383,2.91l-0.191,6.738l0.388,5.13l-0.388,5.934v11.227l0.388,3.848l0.188,7.543v5.293l-0.188,3.047
	l0.383,1.918l0.19,4.496c0,1.918,1.918,3.047,4.98,3.047l12.445-0.164l5.18,0.164h0.379c4.41,0,6.52-1.28,6.52-3.69l-0.19-7.862
	l0.19-3.199l-0.383-7.703l0.383-6.898L503.51,127.292L503.51,127.292z"/>
</svg>
