<?xml version="1.0" encoding="UTF-8" standalone="no"?>
<svg xmlns:rdf="http://www.w3.org/1999/02/22-rdf-syntax-ns#" xmlns="http://www.w3.org/2000/svg" height="82.784" viewBox="0 0 600 82.783623" width="600" version="1.0" xmlns:cc="http://creativecommons.org/ns#" xmlns:xlink="http://www.w3.org/1999/xlink" xmlns:dc="http://purl.org/dc/elements/1.1/">
 <title>RTL Crime HD Logo</title>
 <g stroke-width=".84733">
  <rect height="66.939" width="224.54" y="6.882" x="147.07" fill="#fff"/>
  <path d="m136.64 0.0081713v82.774h247.66v-82.774l-247.66 0.0001713zm43.22 12.181c9.44 0 17.87 5.783 15.75 15.384l-0.92 4.21h-13.03l0.69-3.654c0.85-4.443-1.09-5.772-3.74-5.772-1.95 0-4.93 0.608-6.25 6.619l-5.21 23.805c-0.86 3.987-0.09 6.945 3.81 7.335 4.22 0.395 5.47-3.962 6.01-6.62l0.93-4.687h13.03l-1.33 6.408c-2.18 10.455-9.97 14.59-19.41 14.59-2.66 0-7.59-0.623-11.73-4.528-2.73-2.574-7.17-2.039-7.17-2.039s0.94-1.326 1.32-3.362l6.81-31.14c3.27-15.14 13.65-16.549 20.44-16.549zm27.48 0.953h16.31c11.79 0 18.42 8.418 16.31 18.985-1.79 8.789-6.71 13.165-10.22 14.723l2.41 21.925h-13.5l-1.09-19.516-4.92 0.106-4.13 19.41h-13.19l12.02-55.633zm45.31 0h13.03l-12.1 55.633h-13.03l12.1-55.633zm24.52 0h18.64l0.63 33.496 12.03-33.496h19.49l-12.03 55.633h-12.31l7.57-32.57c0.24-1.167-1.01-1.563-1.56-0.159l-12.73 32.729h-10.31l-0.52-32.49c-0.09-1.952-1.41-1.403-1.65-0.159l-7.12 32.649h-12.47l12.34-55.633zm62.28 0c22.94 0.001 28.91 0 28.91 0l-2.04 9.903h-15.62l-2.81 12.18h13.85l-2.33 10.063h-13.63l-2.89 13.583h13.34l-1.95 9.904h-26.7l11.87-55.633zm-121.41 9.982-3.52 16.232h6.25c4.83-0.617 6.86-6.911 6.86-6.911 1.64-6.601-1.88-9.321-4.53-9.321h-5.06zm-218 8.341v51.291h132v-51.291h-132z" fill="#012557"/>
  <path fill="#2f92cb" d="m3.136 54.813c1.0176-0.565 2.403-0.316 3.3639-0.845 3.3953-1.802 5.6801-6.126 8.8151-8.259 1.121-0.852 2.648 0.093 3.514-0.914 1.06-0.883 0.255-1.922 1.454-2.938 2.907-2.217 5.984-3.364 8.82-5.508 1.448-1.088 2.932-3.198 4.371-4.885h-1.973c-2.839 2.702-5.648 5.391-8.466 7.639-2.352 1.882-5.327 2.556-7.719 4.405-2.82 2.18-5.3268 5.72-8.2696 7.714-1.6607 1.163-3.3071 0.696-4.4129 1.646-0.7533 0.472-1.687 1.577-2.5903 2.403l0.000017 2.315c1.099-0.977 2.0184-2.196 3.0928-2.773m28.727 26.133c-0.498 0.675-0.591 1.412 0.55 1.65 0.161 0.048 0.327 0.105 0.493 0.161h3.701c-1.401-0.524-2.487-1.137-3.093-1.812-0.467-0.544-1.391-0.544-1.651 0.001zm10.419-36.338c-1.158-0.031-1.749 0.368-1.292 0.851 0.389 0.597 1.37-0.483 1.344 0.25-0.587 5.138-7.969 13.298-4.48 20.879 4.345 7.277 5.887 4.656 10.351 7.843 1.796 1.07 3.701 0.722 4.054 0.457 0.691-0.347 0.561-0.856 0-1.101-5.773-2.196-11.337-2.829-13.227-8.808-1.043-3.613-0.135-7.725 0.55-9.36 2.33-5.56 6.287-11.514 10.476-15.416 3.93-3.662 7.989-6.432 12.547-8.739h-5.331c-1.2 0.714-2.326 1.43-3.354 2.134-3.737 2.542-6.524 10.651-11.638 11.01zm-29.169 26.983c-0.659-0.882-0.659-0.29-0.55 0.546 0.722 5.248 5.228 6.951 7.72 10.46 0.036 0.053 0.072 0.104 0.114 0.161h1.536c-3.182-3.681-6.115-7.74-8.27-10.621-0.186-0.182-0.368-0.369-0.55-0.546zm118.94-17.214c-0.1 0.088-0.21 0.146-0.38 0.14-0.55 0-0.85 0.202-1.32 0.026-0.43-0.109-0.7-0.395-0.89-0.576-0.53-0.712-0.71-1.334-0.01-1.953 0.36-0.285 0.78-0.305 1.4-0.182 0.28 0.084 0.64 0.301 0.82 0.488 0.15 0.12 0.27 0.291 0.38 0.488v-5.662c-2.78-2.387-5.9-9.155-8.1-11.343-1.58-1.586-3.28-3.021-5.07-4.34h-3.75c2.47 2.334 4.84 4.802 7.72 5.991 1.22 0.511 0.98 2.276-1.14 1.739-4.45-2.061-5.7-5.029-8.79-7.245-0.23-0.166-0.46-0.325-0.71-0.486h-4.14c7.08 3.255 15.5 12.34 18.09 17.001 1.82 3.281 1.27 7.512 3.85 9.91 0.65 0.54 0.75 1.396 0 1.65-0.92 0.183-2.75 0.649-2.84-1.391-0.14-14.67-12.42-21.216-22.06-26.777-0.31-0.138-0.57-0.272-0.79-0.394h-6.637c12.327 2.936 21.267 10.489 25.707 20.858 3.62 8.43 4.72 19.68 3.64 30.436h1.02c0.73-2.762 2.42-6.027 0.86-8.416-1.28-1.619 0-3.306 0-4.962-0.07-1.142 0.59-1.267 1.1 0 1.3 3.821 1.02 8.856 0.26 13.378h1.78l-0.01-14.458c-0.15-1.101-0.57-2.082-1.47-3.323-1.39-2.034-1.02-2.948 0-2.201 0.53 0.342 1.04 1.194 1.48 2.311v-10.707zm-1.94 11.525c0.33 1.188 0.28 2.191-0.1 2.378-0.35 0.146-0.68-0.198-0.85-0.753-0.63-2.32-0.66-2.975-1.13-4.698-0.52-1.858 1.48 1.246 2.08 3.073zm-4.27-21.751c-0.13 1.745-0.92-0.664-1.89-1.194-0.63-0.574-1.06-0.846-0.23-1.456 0.41-0.457 0.23-0.932 0.23-1.298 0.2-1.143 1.28-1.143 1.65 0 0.24 0.708 0.62 0.916 1.12 1.43 0.84 0.618 0.43 0.618-0.43 1.176-0.18 0.164-0.45 0.678-0.45 1.342zm4.17 5.415c-0.57 1.251-1.31 0.689-1.65 0-0.47-1.028 0.23-1.942-1.1-2.757-0.97-0.654-1.55-1.189-0.55-1.1 0.18 0 0.35 0.119 0.55 0 0.15-0.151 0-0.364 0-0.55-0.29-1.682 2.02 0.622 2.75 1.65 0.53 0.477 0.82 1.786 0 2.757zm-4.81-18.103h-3.41c2.59 1.926 4.88 4.138 6.57 6.538 1.39 1.973 2.26 4.195 3.69 5.972v-3.67c-2.11-2.932-4.32-5.736-6.45-8.355-0.19-0.212-0.32-0.367-0.4-0.485zm0.54 0c1.81 0.937 4.08 3.234 6.31 5.991v-3.38c-1.51-0.584-2.83-1.521-4.04-2.612h-2.27v0.001zm-2.35 31.313c-0.76-0.934 1.09-1.526 0.56-3.301-0.61-2.253-2.03-6.37-3.31-8.809-10.51-20.03-45.794-25.935-63.413-8.261-0.358 0.375-0.835 0.905-1.703 0.218-1.796-1.877-5.627 4.851-6.193 9.346-0.063 4.273-0.603 6.354 1.277 8.607 0.187 0.187 0.307 0.306 0.597 0.498 1.88 1.147 0.488-2.336 2.16-2.149 0.872 0.27 2.803 1.028 4.413 0.55 0.768-0.229 1.988-2.071 3.306-1.656 3.328 0.784 9.069 0.296 15.184-1.708 3.785-1.017 6.225-1.017 8.442-0.28 1.152 0.301 1.292 1.516 1.152 2.58-1.189 7.973-7.49 5.384-11.301 10.315-1.567 1.754-2.029-1.339-4.012-1.101-0.835 0.177-0.79 0.872-2.445 1.511-5.405 1.728-13.674 2.454-19.151 0.244-2.165-0.784-3.805-1.724-4.413-4.402-0.68-2.918-1.35-6.645-1.101-8.805 0.208-1.796 3.162-3.504 3.863-4.953 4.978-10.337 13.679-15.881 24.357-19.757h-5.384c-7.512 3.637-13.845 8.449-17.323 13.145-5.866 7.932-10.507 17.504-3.805 24.626 3.779 3.032 17.567 5.514 23.656 0.701 1.469-1.21 2.751-1.132 2.849-0.197 0.042 0.545-0.046 1.292-1.292 1.708-3.691 1.651-7.714 2.596-15.454 2.388-1.61 0.14-1.709 0.924 0.602 1.058 16.508 1.132 27.539-7.594 31.318-14.919 1.059-1.977 1.708-4.651-0.644-5.658-5.362-2.16-11.623-1.297-18.911 1.926-1.709 0.784-3.551 0.829-4.532 0.477-1.142-0.244-0.498-1.303 0.55-1.646 3.494-1.288 4.641-1.785 8.134-3.068 3.686-0.731 6.547 0.509 9.516-0.238 4.828-0.633 10.543 1.345 9.303 3.374-1.734 2.43-0.229 5.643-2.139 8.737-0.878 1.423-3.437 1.526-4.413 2.756-0.83 1.08-0.135 1.864-0.878 2.918-0.913 1.339-4.35 2.289-5.736 3.135-1.459 0.691-0.674 1.24 0.55 1.101 6.135-0.244 15.822-9.35 13.383-16.223-0.628-2.087 0.161-2.398 0.835-2.554 1.189-0.281 1.308 0.83 1.22 2.808-0.27 15.303-16.087 21.196-29.652 24.939h9.499c1.209-0.909 2.196-1.958 3.058-2.363 6.873-3.218 12.749-6.561 16.544-12.661 1.147-1.843 1.946-5.32 2.045-7.407 0.317-6.884-3.078-9.542-5.746-9.645-1.792-0.135-2.046-0.93-2.918-1.116-2.949-0.628-4.075 1.428-7.994 1.324-1.2-0.104-1.621-0.312-1.931-0.779-0.369-0.633-0.109-1.256 0.778-1.671 4.704-1.984 4.07 0.829 9.147-0.53 3.707-1.143 9.692 4.443 10.476 8.809 0.384 2.201-1.189 7.922-2.207 9.915-5.087 9.993-8.519 11.456-17.494 16.124h5.965c0.909-0.115 1.812-0.266 2.715-0.712 1.085-0.618 1.329-2.44 2.207-3.301 5.331-5.295 9.972-8.908 9.92-19.82 0.072-1.392 0.306-2.659 1.085-1.345 0.353 0.597 0.462 0.971 0.571 1.894 0.239 1.745 0.789 3.956-0.078 8.28-0.659 3.785-5.077 9.443-10.974 15.003h2.83c2.553-2.674 4.76-5.352 6.566-7.87 8.224-11.467 0.296-24.129-7.47-29.501-1.443-0.914-1.116-1.791 0.083-1.771 0.914 0.068 1.931 0.157 2.975 0.992 1.734 1.246 0.156 2.845 2.207 4.402 12.549 9.551 7.189 23.558-1.111 33.748h3.343c6.537-10.985 11.587-26.985-1.132-35.949-1.235-0.831-1.339-1.32 0-1.101 8.619 1.557 8.049 10.009 9.929 18.719 0.13 0.608 1.1 2.959 0.55 4.407-1.77 4.678-3.93 9.484-6.57 13.924h2.11c2.76-5.051 3.36-8.873 3.54-9.807 0.15-1.188 0.76-1.625 1.47-0.265 1.36 2.399-2.46 6.421-3.31 8.259-0.28 0.623-0.5 1.22-0.68 1.813h2.61c0.22-0.754 0.47-1.532 0.83-2.363 1.95-4.49 3.22-18.6 0.18-23.734-0.62-1.225-0.93-2.191-0.39-2.813 0.32-0.275 0.87-0.529 1.4 0.26 3.32 7.221 4.5 18.418 1.57 26.838-0.21 0.614-0.48 1.21-0.79 1.813h1.87c1.09-3.38 1.73-7.03 1.68-9.521-0.08-1.573 1.17-1.594 1.65 0 0.41 1.521-0.43 3.92 0.55 5.508 0.33 0.415 0.94 0.394 1.34-0.944 2.86-7.06 1.8-17.485-2.24-22.573-0.43-0.643-0.43-1.121-0.76-1.811-0.34-0.555-1.11-0.468-0.86 1.516 1 6.446 2.57 7.355 2.96 15.536 0.14 2.139-2.25 0.966-2.1-0.352-0.02-6.416 0-12.439-2.95-16.291-0.49-0.69-0.81-1.359-1.18-1.722-1.29-0.993-2.01 0.758-2.54-0.395-2.74-5.295-6.516-4.818-11.515-9.209-0.28-0.224-0.503-0.447-0.69-0.634-0.338-0.286-0.65-0.706 0.685-0.563 6.51 0.617 12.05 5.868 14.91 10.291 0.63 0.852 1.61 1.672 2.29 0.826 0.57-0.872 0.09-1.583-0.49-1.978-6.69-3.961-8.6-9.788-18.366-10.787-1.713-0.163 0.525 2.256-1.288 1.952-2.98-0.288-2.331-1.292-3.675-3.057-0.27-0.477 0.052-0.559 0.555-0.548 17.784 1.039 25.844 10.068 29.774 24.775 1.81 6.775-0.72 13.487-1.47 19.981h2.27c5.96-21.196-4.35-39.764-19.989-45.132-2.746-0.792-2.424-2.354-0.732-2.131 16.361 4.033 26.961 22.044 22.671 42.15-0.5 1.812 0.71 2.409 0 4.952-0.01 0.053-0.02 0.105-0.04 0.161h1.91c0.18-1.355 0.3-2.694 0.34-4.013v-12.666c0-1.002 0.25-0.934 0.56 0 1.62 4.641 1.64 10.523 0.58 16.68h0.9c1.25-5.892 2.24-13.72 0.17-18.33-0.36-1.096-1.59-0.898-2.21-1.652zm-40.248-28.628c1.131-0.439 1.64-0.281 2.212 0 1.038 0.927 0.883 2.24-0.006 2.398-0.965 0.188-1.873-0.083-2.439-0.644-0.878-0.568-0.406-1.604 0.233-1.754zm4.417 6.608c0.317 0.239 0.151 0.405 0 0.547-0.436 0.385-1.106 0.361-1.661 0-0.649-0.467-0.649-1.142 0-1.1 0.821-0.042 1.304 0.223 1.661 0.553zm-2.761 0c-0.187 0.182-0.898 0.613-1.568 0.553-2.538-0.036-2.175-0.29-3.218-0.532-1.609-0.67-1.745-0.935-2.014-1.259-0.732-1.238 0.311-1.822 1.853-1.633 1.288 0 2.195 0.026 3.805 0.267 0.665 0.132 1.241 0.732 1.423 1.285 0.186 0.182-0.079 1.044-0.281 1.319zm-32.539 11.566c-0.581 1.745 0.239 3.447-0.513 4.651-0.239 0.291-0.379 0.644-0.161 1.288 0.618 1.817-0.799 0.669-0.976-0.442-0.608-3.463 1.22-5.808 0.597-8.529-0.374-1.608 0.981-0.835 2.793-3.935 0.996-1.288 2.278-1.391 2.128-0.747-0.441 3.322-2.964 5.035-3.868 7.714zm11.032-2.212c-0.665 0.955-1.018 4.303-2.207 5.508-0.981 1.003-1.967 0.503-3.857 2.201-1.194 0.841-3.525 0.467-3.306-0.545 0.13-4.433 4.246-12.47 6.613-14.87 1.573-1.589 3.24-1.638 4.678-3.398 0.695-0.801 1.443-0.026 2.492-0.457 1.261-0.716-0.291-1.843 1.313-2.055 5.69-0.703 5.154-1.968 10.294-2.17 2.258-0.132 1.983 1.121 0.193 1.712-2.581 0.966-4.537 0.717-7.387 1.965-1.329 0.714-0.422 2.241-2.762 2.754-2.107 0.473-3.156-0.142-4.958 1.101-4.194 2.699-4.298 10.19-8.44 13.081-0.379 0.353-0.908 0.618-0.779 1.126 0.213 0.265 0.54 0.244 0.95 0.109 3.301-1.246 3.312-3.659 4.958-6.608 1.801-3.224 7.667-7.177 11.581-8.262 1.604-0.649 0.545 1.127 2.757 0.554 0.67-0.174 1.017-0.979 2.756-1.101 1.407-0.117 1.724 1.355 0 1.649-5.82 1.44-11.946 3.481-14.889 7.706zm17.583-3.757c-6.827 0-10.439 2.736-14.271 5.969-0.509 0.447-1.085 0.706-1.292 0.291-0.571-0.577 0.025-1.958 0.207-2.144 3.66-4.958 9.08-6.525 14.888-6.774 2.824-0.157 2.933 2.501 0.468 2.658zm7.163-1.984c-1.464 0.513-0.961 0.872-1.562 1.256-0.681 0.311-1.573 0.462-2.046 0.311-1.277-0.197-1.619-1.308-1.199-2.035 0.27-0.446 0.659-0.612 0.997-0.731 1.718-0.628 1.977 0.119 3.628 0.306 0.733 0.098 0.914 0.675 0.182 0.893zm1.174-8.566c-1.558 2.168-2.886 1.599-2.757-0.556 0.135-1.259 1.36-1.401 2.378-0.589 0.181 0.183 0.716 0.772 0.379 1.145zm3.935 0.742c-0.488 0.973-2.139 0.777-2.835-0.197-0.565-0.838-0.436-1.589-0.14-1.77 0.187-0.184 0.737-0.345 0.981-0.345 0.446-0.02 0.773 0.054 1.365 0.47 0.67 0.605 0.826 1.126 0.629 1.842zm2.501-0.727c-1.1-0.246-1.059-0.547-1.479-1.115-0.411-0.556-0.167-1.101 1.416-0.577 0.67 0.188 0.877 0.735 0.935 1.121 0.022 0.242-0.16 0.73-0.872 0.571zm36.283-4.355h-1.86c0.64 0.512 1.29 1 1.98 1.464v-1.347c-0.04-0.035-0.08-0.078-0.12-0.117zm-95.659 16.447c-0.369 0.518 0.062 0.975 0.774 0.565 2.714-2.092 6.395-8.775 9.702-11.574 1.733-1.466 4.459-3.4 7.755-5.437h-3.271c-2.19 1.446-4.246 2.91-6.135 4.34-4.028 3.034-5.441 8.419-8.825 12.106zm0.062-14.261c2.372-0.395 4.335-1.181 6.073-2.186h-4.21c-0.701 0.348-1.401 0.709-2.092 1.121-0.923 0.65-0.627 1.293 0.229 1.065zm3.25 3.252c-0.213 0.213-0.41 0.543 0 0.554 2.813-0.615 6.152-3.222 9.396-5.991h-3.707c-2.066 1.813-3.992 3.662-5.689 5.437zm-26.974 0.262c-3.8832 2.837-6.8785 4.221-11.628 6.344-1.3758 0.622-0.77848 2.388 0.5501 2.202 3.1148-0.676 4.407-2.944 6.6186-4.406 2.1603-1.425 4.5733-1.736 6.6133-3.301 1.76-1.344 2.808-3.982 4.413-5.505 0.291-0.273 0.717-0.628 1.235-1.033h-2.538c-0.986 0.921-1.874 1.84-2.56 2.684-0.907 1.001-0.808 1.723-2.704 3.015zm-5.0093-4.114c1.5007-0.988 4.7603-0.739 6.4733-1.586h-6.1716c-2.6683 0.909-5.3365 1.563-7.859 2.552l-0.000031 2.611c2.0242-0.574 3.5715-0.101 5.8135-1.446 0.6643-0.378 0.9134-1.572 1.7438-2.131zm-2.7614 17.061c3.3173-1.785 8.1297-7.6 11.582-9.907 1.51-1.01 3.644-0.994 4.962-2.202 1.49-1.36 2.202-3.74 3.858-4.952 0.602-0.442 1.526-0.979 2.575-1.587h-3.691c-0.468 0.75-0.037 1.282-1.091 2.134-3.297 2.751-6.982 4.581-10.47 7.158-3.0169 1.989-3.7431 4.485-5.5183 5.504-1.0024 0.861-3.9087 1.899-7.0032 3.28l0.000022 2.118c0.29064-0.166 0.58636-0.332 0.91851-0.498 1.2931-0.757 2.653-0.248 3.8783-1.048zm7.8647-17.232c-3.229 3.455-7.7919 5.407-12.661 7.086l0.000369 2.238c5.3051-2.089 10.139-6.087 14.172-8.604 2.061-1.475-0.405-1.698-1.511-0.72zm20.468 1.739c-3.093 5.013-14.462 12.799-20.058 15.493-1.355 0.446-1.609 1.994 0 1.656 1.687-0.493 3.567-1.469 5.513-2.726v-0.03c0.005 0.01 0.02 0.01 0.02 0.02 5.96-3.847 12.589-10.32 16.524-13.783 1.381-1.141-1.106-1.78-1.999-0.63zm6.412 0.631c0.244-0.737-0.234-1.041-1.106-1.1-0.799-0.032-1.718 0.851-1.1 1.656 0.669 0.534 1.848 0.365 2.206-0.556zm-5.685 2.367c-0.431 1.355-0.612 1.201-1.484 2.04-0.337 0.354-0.561 0.81 0 1.1 0.701 0.374 2.575-0.179 3.307-1.653 0.322-0.675 0.493-0.999 0.55-1.648 0.15-1.258-2.056-1.051-2.373 0.161zm2.316 2.721c-0.571 1.804 0.457 1.581-0.607 2.736-0.405 0.445-0.239 0.829 0.114 0.986 1.468 0.457 3.442-0.779 3.312-2.201 0.057-1.392 0.068-2.041 0.55-2.754 0.638-0.872-0.795-1.306-1.667-1.052-0.799 0.35-1.37 0.965-1.702 2.285zm31.624-0.844c0.566 0.441 0.784 0.503 1.584 0.371 0.857-0.371 1.469-1.095 0.239-1.739-0.805-0.317-0.81 0.224-1.957 0.425-0.51 0.325-0.161 0.564 0.134 0.943zm-38.591 2.689c-1.604 2.079-3.602 2.535-5.107 4.628-3.474 4.849-5.55 9.584-10.356 12.983-2.056 1.23-0.945 3.193-0.12 4.085 0.187 0.187 1.158 0.457 2.009-1.37 2.403-6.256 2.248-4.454 6.261-8.539 1.324-1.345 1.002-3.391 2.207-4.958 1.869-2.409 4.942-2.701 6.338-5.571 0.342-0.817 0.944-0.849 1.448-1.193 2.345-1.241-1.574-2.303-2.68-0.065zm4.817-0.324c-1.344 1.946-6.992 5.772-6.063 7.709 0.239 0.238 0.301 0.378 0.841 0.238 3.302-1.188 3.224-4.947 5.778-6.847 1.765-1.505 0.12-2.227-0.556-1.1zm1.657 4.952c0.971-0.488 1.501-1.952 0.269-2.211-0.249-0.042-1.037-0.301-1.412 0.333-0.493 0.893-1.287-0.166-1.702 1.204-0.13 0.249-0.146 0.488-0.327 0.82-0.213 0.452 0.217 0.903 0.415 0.956 1.267 0.341 1.6-0.485 2.757-1.102zm0 11.565c1.152-3.057 2.086-6.914 4.407-8.808 0.623-0.566 1.292-2.393 0.088-1.802-0.591 0.332-1.074 0.592-1.635 1.204-1.526 1.392-4.023 6.697-4.241 8.592-0.213 1.609 1.023 1.957 1.381 0.814zm-3.214-7.745c1.131-1.069 0.447-1.76-0.644-1.619-1.152 0.229-1.219 1.557-0.555 2.21 0.425 0.271 1.013-0.404 1.199-0.591zm-1.749 11.048c-0.473-4.506 5.938-7.954 4.516-11.447-0.446-0.991-5.881 7.065-5.673 10.424 0.269 7.47 3.166 10.719 6.027 15.506 0.789 1.412 1.666 1.106 1.5-0.135-1.013-5.264-5.716-8.078-6.37-14.348zm-3.244-8.908c0.312-0.696 0.82-1.2 0.664-1.859-0.229-0.441-0.478-0.509-1.204-0.311-5.305 1.401-3.183 8.42-6.141 12.178-0.525 0.665-2.285-0.052-2.207 1.651 0.181 2.206 0.369 4.407 0.55 6.608 0.161 0.867 1.739 1.023 1.657 0-0.312-2.549-0.317-4.053 0-6.608 0.144-0.82 0.778-0.722 1.1 0.55 0.151 0.804 2.612 0.778 2.207-0.55-0.638-2.046-2.087-0.94-1.651-2.202 1.136-3.468 3.7-6.354 5.025-9.457zm3.794-1.003c-0.307-0.197-0.753-0.317-1.568 0.053-0.193 0.078-0.514 0.316-0.701 0.523-0.519 0.628-0.955 1.828 0.062 2.175 0.561 0.177 1.36-0.431 2.331-0.955 0.603-0.348 0.696-1.261-0.124-1.796zm-18.745 0.556c-3.7168 0.758-7.9798 4.158-11.032 6.053-1.298 0.883-0.56588 1.802 0.0001 1.651 4.9578-0.82 7.382-4.428 11.032-6.608 0.587-0.37 0.96-1.096 0-1.096zm3.307 2.751c1.921-1.173 1.479-2.523 0-1.655-3.364 1.79-5.249 5.284-8.2703 7.158-2.6784 1.661-4.9213 2.771-7.5582 3.468l0.000022 1.838c4.3036-1.262 8.1141-3.401 11.97-6.407 1.517-1.189 2.108-3.233 3.858-4.402zm12.682 0.545c-0.96 0.156-1.656 0.597-2.207 1.101-0.586 0.545-1.235 1.594 0 2.206 0.582 0.182 0.919 0.115 1.48-0.041 0.342-0.104 1.017-0.468 1.194-0.649 1.007-0.982 0.805-2.954-0.467-2.617zm30.695 11.037c-3.598 0.047-5.518-0.088-7.533-1.677-4.043-2.668-4.365-11.327-5.512-9.36-0.743 2.18-0.354 7.055 1.1 8.809 4.568 6.432 24.383 2.555 31.272-0.582 2.284-1.007 4.516-2.491 5.674-4.371 0.69-1.526-0.415-2.631-3.089-2.404-8.145 1.107-11.727 4.979-20.572 3.136-1.204-0.233-1.708-0.514-2.258 0.369 0 0.364-0.462 0.919 2.258 1.423 8.539 1.66 12.496-0.499 19.467-3.318 1.749-0.825 2.761-0.088 1.609 1.065-2.674 2.487-11.883 5.959-17.386 5.57-2.362-0.166-5.627-1.568-7.522-2.995-1.749-1.101-4.521-1.423-3.369 0.783 1.568 2.135 3.51 2.124 7.014 2.674 1.427 0.28 2.258 0.966-1.153 0.878zm-37.314-9.381c0.686-0.914-1.147-1.609-1.65-0.555-1.018 1.604-2.066 3.939-3.313 5.507-0.129 0.281-0.254 0.499-0.099 0.883 0.188 0.483 0.95 0.218 1.204-0.333 1.127-2.014 2.243-3.986 3.858-5.502zm11.582 2.201c-1.158-0.633 0.529 3.577 1.105 5.503 2.554 8.606 3.296 9.842 11.582 12.666 1.942 0.654 6.613 2.025 8.82 0.545 0.971-0.898 2.725 0.229 4.413 0 0.758-0.16 1.22-0.762 0-1.1-8.643-1.49-17.287 0.337-22.057-6.598-1.917-2.787-1.221-8.94-3.863-11.016zm-7.72 1.651c-1.9 8.825 5.01 13.73 9.375 19.269 0.69 0.924 1.334 1.152 1.101 0-0.784-3.477-3.261-3.218-4.963-5.508-2.326-3.125-4.428-9.099-3.862-13.211 0.161-1.598-1.184-1.952-1.651-0.55zm13.788 0.551c-0.285 1.375-0.171 1.645-0.011 2.47 0.364 1.132 1.604 0.992 1.667-0.269 0-1.952-1.35-3.448-1.656-2.201zm-28.676 1.65c0.285-0.374 0.275-1.168 0.093-1.168-1.5471-0.535-6.1617 5.995-7.2624 6.676-0.9084 0.555-2.5437 0.498-3.6961 0.805l0.000022 1.827c5.6899-0.716 8.7784-3.733 10.865-8.14zm-0.659 9.988c1.121-2.181 3.784-9.49 2.05-7.533-1.323 2.201-1.941 3.712-3.5916 5.808-0.9245 0.936-0.7059 1.755 0 2.197 0.2745 0.285 1.0947 0.411 1.5416-0.472zm6.12-0.156c0.285 0.664 0.664 1.142 0.852 1.328 0.378 0.592 0.913 0.945 0.856 0.4-0.84-3.514-1.63-5.269-1.106-9.354 0-1.516-1.578-1.386-1.656 0 0.094 4.096-0.691 3.785 1.054 7.626zm7.221-4.879v-1.101c-0.052-1.297-1.127-0.924-1.101 0 0.483 5.275 3.53 10.341 6.614 13.217 0.389 0.374 1.848 1.339 1.656 0.55-0.742-3.51-3.925-5.004-5.518-7.709-0.789-1.241-1.672-2.944-1.651-4.957zm-1.718 4.142c-0.073-0.81-1.023-0.93-1.101 0 0.057 2.128-0.233 2.263 0.742 3.322 0.286 0.342 0.359 0.899 0.359 1.079-0.203 0.53 0.685 0.966 0.555 0-0.187-1.463-0.368-2.937-0.555-4.401zm-15.372 0.815c-2.1335-1.033-3.0571 0.649-6.4575 0.675l0.000022 1.978c2.7666 0.373 4.4129-0.998 6.6711 0.799 0.6228 0.534 1.3235 0.347 1.4379-0.146 0.2279-1.525-0.6855-2.85-1.6515-3.306zm67.823 1.105c-0.088-1.4-2.954 1.091-4.413 1.646-2.326 0.883-6.484 0.197-8.383 0.546-0.638 0.145-1.501 0.893-0.442 1.111 1.418 0.062 1.667-0.172 2.726-0.353 1.246-0.234 2.295-0.202 2.793-0.202 1.407-0.053 0.649 0.7-0.161 1.147-6.022 3.202-23.973 2.98-27.965-1.147-0.383-0.468-1.137-0.478-1.048 0.337 0.26 1.375 0.763 3.156 3.504 3.779 8.596 1.931 31.671 1.214 33.389-6.864zm-63.965 1.101c-1.5007-0.357-1.4744 1.308-0.55 2.202 1.702 1.703 3.411 3.406 5.119 5.113h1.843c-1.045-1.744-5.468-6.941-6.412-7.315zm-5.1035 2.061c-0.4364-0.415-1.4168-0.405-2.0658 0.14-0.4567 0.333-0.6127 0.841 0 1.65 0.1872 0.182 0.3635 0.37 0.5499 0.55 0.6338 0.53 1.8328 0.754 2.7614 0 0.4932-0.725-0.3575-1.644-1.2455-2.34zm22.192 3.992c-1.661-1.126-2.29-2.586-4.413-3.307-1.983-0.509 1.516 2.632 2.762 4.407 0.056 0.057 0.114 0.115 0.181 0.161h1.272c0.072-0.047 0.134-0.104 0.197-0.161 0.391-0.285 0.504-0.747 0.001-1.1zm-21.948 1.261c-2.1183-1.017-3.852-2.118-5.456-3.426l0.000022 3.426h5.456zm5.1235 0h1.407c-0.82-0.513-1.661-1.022-2.5438-1.527-1.9878-1.015-0.7575 0.053 1.1368 1.527zm102.85-1.811c-0.24 0.613-0.51 1.215-0.76 1.812h2.05c-0.12-0.504-0.2-1.084-0.19-1.812 0.12-1.558-0.62-1.443-1.1 0z"/>
  <path d="m0.010654 0.0081713v26.929h42.658v-26.929l-42.658 0.0001713zm44.67 0v26.929h42.684v-26.929l-42.684 0.0001713zm44.697 0v26.929h42.662v-26.929l-42.662 0.0001713z" fill="#025fa5"/>
  <path d="m6.7893 6.2308-0.0264 14.404h10.697v-4.713h2.172l5.534 4.713h11.174l-7.043-4.978 0.291-0.026c2.268 0.054 4.454-1.958 4.448-4.528 0-3.4554-2.578-4.8722-4.925-4.8722h-22.322zm72.712 0-27.485 0.0264v3.3629h8.102v11.015h11.386l0.027-11.015 7.97 0.0001v-3.3894zm17.265 0.0264v14.378h27.904v-3.336h-15.67v-11.042l-12.234 0.0002zm-79.306 3.2834h4.899c0.976 0 1.536 0.8384 1.536 1.5884 0 0.875-0.589 1.551-1.43 1.642l-5.005-0.026v-3.2043z" fill-rule="evenodd" fill="#fff"/>
  <rect height="82.784" width="384.3" y="0" x="0" fill="none"/>
 </g>
 <path d="m402.82 41.392v-41.392l11.34 0.0000046439h11.35l0.22 16.435 0.22 16.435 20.9 0.217 20.9 0.216v-16.651-16.652l11.77 0.0000046439h11.76v41.392 41.392h-11.76-11.77v-16.652-16.652l-20.9 0.217-20.9 0.217-0.22 16.435-0.22 16.435h-11.35-11.34v-41.392zm104.7 0v-41.392l28.2 0.013921c31.19 0.01563 35.69 0.50705 44.56 4.8647 8.6 4.2209 16.63 14.61 18.9 24.432 1.25 5.419 1.03 19.182-0.38 24.627-2.86 10.961-9.81 19.605-19.28 23.98-9.24 4.271-14.71 4.865-44.78 4.865h-27.22v-41.391zm54.48 23.99c5.34-1.921 9.89-6.123 12.09-11.172 1.5-3.441 1.89-5.832 1.94-12.007 0.08-9.366-1.23-14.273-4.99-18.66-5.42-6.332-11.74-8.123-28.67-8.123h-11.32v26.076 26.075l13.6-0.418c9.76-0.3 14.65-0.8 17.35-1.771z" stroke-width=".68986" fill="#bbbcc1"/>
</svg>
