<?xml version="1.0" encoding="UTF-8" standalone="no"?>
<!-- Created with Inkscape (http://www.inkscape.org/) -->

<svg
   xmlns:dc="http://purl.org/dc/elements/1.1/"
   xmlns:cc="http://creativecommons.org/ns#"
   xmlns:rdf="http://www.w3.org/1999/02/22-rdf-syntax-ns#"
   xmlns:svg="http://www.w3.org/2000/svg"
   xmlns="http://www.w3.org/2000/svg"
   version="1.0"
   width="225"
   height="60"
   id="svg2">
  <metadata
     id="metadata27">
    <rdf:RDF>
      <cc:Work
         rdf:about="">
        <dc:format>image/svg+xml</dc:format>
        <dc:type
           rdf:resource="http://purl.org/dc/dcmitype/StillImage" />
        <dc:title></dc:title>
      </cc:Work>
    </rdf:RDF>
  </metadata>
  <defs
     id="defs25" />
  <g
     transform="translate(-10.327621,-984.53984)"
     id="layer1">
    <g
       transform="matrix(3.261195,0,0,-3.261195,26.04332,1005.3519)"
       id="g3009">
      <path
         d="m 0,0 0,2.077 c 0,0.09 -0.072,0.162 -0.16,0.164 -0.481,0 -1.324,0 -1.324,0 -2.304,0 -3.335,-1.587 -3.335,-3.161 l 0,-4.665 c 0.002,-0.09 0.074,-0.161 0.164,-0.161 0.505,0 2.042,0 2.64,0 0.09,0 0.163,0.073 0.163,0.164 l 0,4.401 c 0,0.64 0.382,1.021 1.022,1.021 0,0 0.386,0 0.7,0 C -0.056,-0.144 0,-0.078 0,0"
         id="path3011"
         style="fill:#881a47;fill-rule:nonzero;stroke:none" />
    </g>
    <g
       transform="matrix(3.261195,0,0,-3.261195,-848.12871,3399.529)"
       id="g3013">
      <g
         transform="translate(282.143,725.908)"
         id="g3015">
        <path
           d="M 0,0 C -0.357,0.355 -0.618,0.635 -0.957,1.189 L -0.96,1.193 c -0.259,0.441 -0.39,1.123 -0.39,2.028 l 0,11.225 c 0,0.089 -0.075,0.189 -0.16,0.165 L -4.193,13.689 -4.194,13.688 C -4.265,13.67 -4.318,13.606 -4.318,13.529 l 0,-10.439 c 0,-0.971 0.045,-2.083 0.591,-2.985 0.447,-0.769 1.114,-1.436 1.764,-2.078 0.063,-0.056 0.159,-0.055 0.22,0.004 0.402,0.401 1.361,1.361 1.755,1.754 C 0.062,-0.151 0.058,-0.059 0,0"
           id="path3017"
           style="fill:#881a47;fill-rule:nonzero;stroke:none" />
      </g>
    </g>
    <g
       transform="matrix(3.261195,0,0,-3.261195,49.95441,998.02699)"
       id="g3019">
      <path
         d="m 0,0 -1.527,0 c -0.089,0.002 -0.16,0.074 -0.161,0.162 l 0,2.258 c 0,0.091 -0.077,0.193 -0.164,0.165 l 0,0 L -4.346,1.68 C -4.403,1.654 -4.443,1.597 -4.443,1.53 L -4.469,0.165 -4.47,0.164 C -4.47,0.075 -4.541,0.002 -4.63,0 l -0.932,0 c -0.089,-0.003 -0.161,-0.074 -0.161,-0.164 l 0,-2.073 c 0,-0.09 0.073,-0.163 0.163,-0.164 l 0.748,0 c 0.086,-0.005 0.154,-0.075 0.154,-0.164 l 0.003,-0.002 0,-2.907 c 0,-1.877 1.012,-3.507 2.501,-4.339 0.06,-0.031 0.134,-0.022 0.185,0.026 l 1.637,1.616 c 0.059,0.065 0.058,0.165 -0.004,0.227 l 0,0 c -0.78,0.595 -1.297,1.513 -1.347,2.556 -0.002,0.024 -0.005,1.294 -0.005,2.831 0,0.074 0.05,0.136 0.118,0.156 l 1.57,0 c 0.091,0 0.164,0.074 0.164,0.164 l 0,2.073 C 0.164,-0.073 0.091,0 0,0"
         id="path3021"
         style="fill:#881a47;fill-rule:nonzero;stroke:none" />
    </g>
    <g
       transform="matrix(3.261195,0,0,-3.261195,83.906781,1023.53)"
       id="g3023">
      <path
         d="M 0,0 C -0.063,0.079 -0.126,0.169 -0.196,0.284 L -0.198,0.286 C -0.323,0.499 -0.39,0.828 -0.39,1.266 l 0,8.711 c 0,0.396 -0.321,0.716 -0.716,0.716 -0.395,0 -0.715,-0.32 -0.715,-0.716 l 0,-8.774 c 0,-0.47 0.021,-1.007 0.285,-1.443 0.152,-0.261 0.357,-0.497 0.574,-0.722 0.264,-0.265 0.698,-0.26 0.962,0.005 0.264,0.264 0.257,0.668 0,0.957"
         id="path3025"
         style="fill:#d81963;fill-rule:nonzero;stroke:none" />
    </g>
    <g
       transform="matrix(3.261195,0,0,-3.261195,92.294611,1013.1009)"
       id="g3027">
      <path
         d="M 0,0 C 0.003,-1.59 1.289,-2.876 2.879,-2.879 4.469,-2.876 5.755,-1.59 5.758,0 5.755,1.59 4.469,2.876 2.879,2.879 1.289,2.876 0.003,1.59 0,0 z M -1.431,0 C -1.43,2.38 0.499,4.309 2.879,4.309 5.259,4.309 7.188,2.38 7.189,0 7.188,-2.381 5.259,-4.309 2.879,-4.31 0.499,-4.309 -1.43,-2.381 -1.431,0"
         id="path3029"
         style="fill:#d81963;fill-rule:nonzero;stroke:none" />
    </g>
    <g
       transform="matrix(3.261195,0,0,-3.261195,207.21612,1013.1009)"
       id="g3031">
      <path
         d="M 0,0 C 0.001,2.38 1.929,4.309 4.31,4.31 6.69,4.309 8.619,2.38 8.62,0 8.62,-0.188 8.543,-0.373 8.41,-0.506 8.277,-0.639 8.092,-0.715 7.904,-0.715 L 4.105,-0.716 C 3.71,-0.716 3.39,-0.396 3.39,0 c 0,0.395 0.32,0.715 0.715,0.715 l 2.992,0 C 6.778,1.958 5.652,2.876 4.31,2.879 2.72,2.875 1.434,1.59 1.431,0 1.434,-1.59 2.72,-2.876 4.31,-2.879 l 0,0 c 0.395,0 0.715,-0.32 0.715,-0.716 C 5.025,-3.99 4.705,-4.31 4.31,-4.31 1.93,-4.309 0.001,-2.381 0,0"
         id="path3033"
         style="fill:#d81963;fill-rule:nonzero;stroke:none" />
    </g>
    <g
       transform="matrix(3.261195,0,0,-3.261195,168.7796,1024.923)"
       id="g3035">
      <path
         d="m 0,0 c 0,0 -0.007,2.953 -0.007,3.975 -0.002,1.394 -1.13,2.522 -2.523,2.524 -1.394,-0.002 -2.521,-1.13 -2.524,-2.524 0,-1.118 0,-3.968 0,-3.968 l 0,0 c 0,-0.395 -0.32,-0.716 -0.716,-0.716 -0.394,0 -0.715,0.321 -0.715,0.716 0,0 0,2.85 0,3.968 0,2.185 1.77,3.955 3.955,3.955 2.185,0 3.954,-1.77 3.954,-3.955 0,-1.017 0.007,-3.968 0.007,-3.972 0,-0.396 -0.319,-0.716 -0.714,-0.717 C 0.321,-0.715 0.001,-0.395 0,0"
         id="path3037"
         style="fill:#d81963;fill-rule:nonzero;stroke:none" />
    </g>
    <g
       transform="matrix(3.261195,0,0,-3.261195,118.23742,1014.255)"
       id="g3039">
      <path
         d="M 0,0 C 0.001,1.018 -0.006,3.969 -0.005,3.972 -0.006,4.367 0.313,4.688 0.708,4.689 1.103,4.69 1.424,4.371 1.425,3.975 c 0,0 0.006,-2.953 0.006,-3.975 0.003,-1.394 1.131,-2.521 2.524,-2.524 1.394,0.003 2.522,1.13 2.524,2.524 0,0.559 0,1.551 0,2.403 0,0.853 0,1.564 0,1.565 0,0.395 0.321,0.716 0.716,0.716 0.395,0 0.715,-0.321 0.715,-0.716 0,-0.003 0,-2.85 0,-3.968 0,-2.185 -1.77,-3.954 -3.955,-3.955 C 1.771,-3.954 0.001,-2.185 0,0"
         id="path3041"
         style="fill:#d81963;fill-rule:nonzero;stroke:none" />
    </g>
    <g
       transform="matrix(3.261195,0,0,-3.261195,180.95045,1013.1009)"
       id="g3043">
      <path
         d="M 0,0 C 0.003,1.59 1.289,2.876 2.879,2.879 4.469,2.876 5.754,1.59 5.758,0 5.754,-1.589 4.469,-2.876 2.879,-2.878 1.289,-2.876 0.003,-1.589 0,0 z m 5.73,-3.23 c 0.894,0.789 1.458,1.943 1.458,3.23 0,2.381 -1.929,4.31 -4.309,4.31 -2.381,0 -4.309,-1.929 -4.31,-4.31 0.001,-2.38 1.929,-4.309 4.31,-4.309 0.505,0 0.99,0.088 1.441,0.248 0.055,-0.047 0.118,-0.086 0.187,-0.116 l -10e-4,0 C 5.26,-4.497 5.79,-5.241 5.789,-6.111 5.787,-7.269 4.849,-8.207 3.69,-8.209 2.898,-8.209 2.212,-7.771 1.853,-7.124 1.661,-6.779 1.226,-6.653 0.881,-6.845 0.535,-7.036 0.409,-7.472 0.601,-7.817 1.2,-8.903 2.361,-9.64 3.69,-9.64 c 1.95,0.001 3.529,1.58 3.529,3.529 0,1.189 -0.588,2.242 -1.489,2.881"
         id="path3045"
         style="fill:#d81963;fill-rule:nonzero;stroke:none" />
    </g>
  </g>
</svg>
