<?xml version="1.0" encoding="UTF-8" standalone="no"?>
<!-- Created with Inkscape (http://www.inkscape.org/) -->

<svg
   xmlns:dc="http://purl.org/dc/elements/1.1/"
   xmlns:cc="http://creativecommons.org/ns#"
   xmlns:rdf="http://www.w3.org/1999/02/22-rdf-syntax-ns#"
   xmlns:svg="http://www.w3.org/2000/svg"
   xmlns="http://www.w3.org/2000/svg"
   version="1.1"
   width="600"
   height="129.25311"
   id="svg208438">
  <defs
     id="defs208440" />
  <metadata
     id="metadata208443">
    <rdf:RDF>
      <cc:Work
         rdf:about="">
        <dc:format>image/svg+xml</dc:format>
        <dc:type
           rdf:resource="http://purl.org/dc/dcmitype/StillImage" />
        <dc:title></dc:title>
      </cc:Work>
    </rdf:RDF>
  </metadata>
  <g
     transform="translate(-50.00001,-467.73565)"
     id="layer1">
    <g
       transform="matrix(2.0728769,0,0,2.0728769,-375.5069,-571.15907)"
       id="g208521">
      <path
         d="m 205.30227,563.53941 99.44832,0 0,-38.62869 -99.44832,0 0,38.62869 z"
         id="path30233"
         style="fill:#feed5c;fill-opacity:1;fill-rule:nonzero;stroke:none" />
      <g
         transform="matrix(5.7332144,0,0,-5.7332144,237.40827,501.21363)"
         id="g30235">
        <path
           d="m 0,0 0,-3.539 -5.605,0 0,3.539 L 0,0"
           id="path30237"
           style="fill:#fdac10;fill-opacity:1;fill-rule:nonzero;stroke:none" />
      </g>
      <g
         transform="matrix(5.7332144,0,0,-5.7332144,271.06797,501.21363)"
         id="g30239">
        <path
           d="m 0,0 0,-3.539 -5.605,0 0,3.539 L 0,0"
           id="path30241"
           style="fill:#fdac10;fill-opacity:1;fill-rule:nonzero;stroke:none" />
      </g>
      <g
         transform="matrix(5.7332144,0,0,-5.7332144,304.72767,501.21363)"
         id="g30243">
        <path
           d="m 0,0 0,-3.539 -5.605,0 0,3.539 L 0,0"
           id="path30245"
           style="fill:#fdac10;fill-opacity:1;fill-rule:nonzero;stroke:none" />
      </g>
      <g
         transform="matrix(5.7332144,0,0,-5.7332144,227.19741,505.90913)"
         id="g30247">
        <path
           d="m 0,0 c 0.309,0 0.647,-0.186 0.648,-0.64 0,-0.337 -0.286,-0.599 -0.583,-0.592 l -0.04,-0.004 0.924,-0.655 -1.468,0 -0.726,0.62 -0.287,-0.001 0,-0.618 -1.402,0 L -2.933,0 0,0 z m -0.887,-0.434 c 0.127,0 0.202,-0.108 0.202,-0.207 0,-0.115 -0.077,-0.204 -0.187,-0.216 l -0.66,0 0.001,0.422 0.644,0.001"
           id="path30249"
           style="fill:#ffffff;fill-opacity:1;fill-rule:evenodd;stroke:none" />
      </g>
      <g
         transform="matrix(5.7332144,0,0,-5.7332144,265.15129,505.90913)"
         id="g30251">
        <path
           d="m 0,0 0.002,-0.445 -1.051,0 0,-1.445 -1.499,0 10e-4,1.445 -1.062,0 L -3.61,-0.001 0,0"
           id="path30253"
           style="fill:#ffffff;fill-opacity:1;fill-rule:nonzero;stroke:none" />
      </g>
      <g
         transform="matrix(5.7332144,0,0,-5.7332144,287.3675,505.91487)"
         id="g30255">
        <path
           d="m 0,0 0,-1.453 2.062,0 0,-0.437 -3.667,0 0,1.89 L 0,0"
           id="path30257"
           style="fill:#ffffff;fill-opacity:1;fill-rule:nonzero;stroke:none" />
      </g>
      <g
         transform="matrix(5.7332144,0,0,-5.7332144,240.03981,524.90901)"
         id="g30259">
        <path
           d="m 0,0 -0.692,0 c 0.529,-0.708 0.868,-1.363 0.946,-1.839 0,0 -0.034,0.808 -0.254,1.839 z m -2.376,-3.823 c -0.166,-0.091 -0.331,-0.183 -0.495,-0.276 -0.078,0.208 -0.171,0.428 -0.276,0.622 0.151,0.268 0.306,0.536 0.463,0.806 0.03,-0.037 0.059,-0.074 0.089,-0.111 0.09,-0.112 0.18,-0.225 0.271,-0.338 -0.04,-0.213 -0.053,-0.462 -0.052,-0.703 z m -0.872,0.516 c -0.005,0.008 -0.01,0.017 -0.015,0.024 -0.285,0.428 -0.842,0.896 -1.096,1.098 0.291,0.156 0.57,0.353 0.837,0.579 0.235,-0.308 0.478,-0.614 0.724,-0.922 -0.152,-0.261 -0.303,-0.52 -0.45,-0.779 z m -0.51,-1.318 c 0.078,0.158 0.159,0.315 0.242,0.473 0.067,-0.07 0.136,-0.138 0.204,-0.202 -0.15,-0.09 -0.299,-0.18 -0.446,-0.271 z M 11.288,0 9.683,0 9.776,-0.261 C 9.758,-0.322 9.742,-0.383 9.727,-0.443 9.526,-0.298 9.33,-0.151 9.14,0 L 7.097,0 C 7.016,-0.145 6.931,-0.283 6.842,-0.413 6.353,-1.12 5.811,-1.656 5.358,-2.037 4.963,-1.365 4.585,-0.695 4.258,0 L 4.069,0 C 4.41,-0.734 4.808,-1.439 5.225,-2.147 4.779,-2.507 4.443,-2.703 4.374,-2.748 c 0.353,0.152 0.706,0.214 1.057,0.252 0.04,-0.068 0.08,-0.135 0.121,-0.203 0.237,-0.4 0.477,-0.803 0.709,-1.213 -0.994,0.418 -2.088,0.929 -3.284,1.36 -0.487,0.175 -1.12,0.419 -1.589,0.601 0.949,0.58 1.819,1.212 2.51,1.951 L 3.683,0 C 2.999,-0.701 2.138,-1.306 1.19,-1.874 0.918,-1.767 0.737,-1.696 0.737,-1.696 0.852,-1.762 0.956,-1.851 1.053,-1.956 0.364,-2.362 -0.368,-2.751 -1.11,-3.144 c -0.168,-0.089 -0.337,-0.178 -0.506,-0.268 0.014,0.05 0.026,0.099 0.036,0.147 0.129,0.651 -0.014,1.673 -0.02,1.716 L -1.615,-1.44 -1.67,-1.535 c -0.019,-0.034 -0.432,-0.761 -0.604,-1.374 -0.063,0.078 -0.125,0.156 -0.188,0.234 -0.043,0.054 -0.086,0.108 -0.129,0.162 0.006,0.011 0.012,0.021 0.018,0.032 0.47,0.806 0.946,1.623 1.35,2.481 l -0.19,0 c -0.389,-0.817 -0.843,-1.598 -1.293,-2.37 -0.233,0.293 -0.463,0.583 -0.686,0.876 0.491,0.439 0.935,0.967 1.316,1.494 l -3.983,0 0,-2.526 c 0.272,-0.035 0.548,-0.034 0.823,0.019 0.248,0.048 0.491,0.134 0.727,0.247 0.088,-0.295 0.316,-0.995 0.603,-1.425 0.074,-0.11 0.166,-0.224 0.266,-0.335 -0.115,-0.217 -0.226,-0.434 -0.332,-0.653 -0.158,0.059 -0.317,0.109 -0.464,0.138 -0.544,0.109 -1.35,0.026 -1.623,-0.007 l 0,-0.141 c 0.244,-0.132 0.859,-0.448 1.362,-0.57 -0.498,-0.36 -0.958,-0.745 -1.362,-1.164 l 0,-0.258 c 0.46,0.503 1.003,0.957 1.597,1.377 0.064,-0.008 0.13,-0.015 0.197,-0.02 -0.151,-0.359 -0.285,-0.724 -0.395,-1.096 -0.116,-0.101 -0.23,-0.212 -0.336,-0.324 l 1.158,0 c 0.51,0.398 1.036,1.08 1.06,1.111 l 0.067,0.087 -0.107,-0.027 c -0.041,-0.011 -1.023,-0.27 -1.566,-0.632 -0.012,-0.008 -0.024,-0.018 -0.036,-0.026 0.098,0.303 0.212,0.602 0.338,0.897 0.566,-0.018 1.154,0.058 1.187,0.063 l 0.109,0.014 -0.095,0.056 c -0.024,0.013 -0.386,0.224 -0.81,0.409 0.167,0.105 0.338,0.208 0.51,0.31 0.257,-0.232 0.473,-0.399 0.491,-0.412 l 0.087,-0.067 -0.028,0.106 c -0.005,0.021 -0.072,0.272 -0.181,0.587 0.145,0.083 0.292,0.165 0.44,0.246 0.013,-0.415 0.058,-0.764 0.061,-0.789 l 0.014,-0.109 0.056,0.095 c 0.015,0.026 0.283,0.487 0.48,0.981 0.124,-0.161 0.247,-0.323 0.368,-0.488 -0.308,-0.326 -0.547,-0.641 -0.562,-0.662 l -0.066,-0.088 0.106,0.029 c 0.025,0.007 0.415,0.114 0.836,0.281 0.126,-0.182 0.25,-0.366 0.369,-0.554 -0.56,0.013 -1.135,-0.068 -1.167,-0.072 l -0.109,-0.016 0.095,-0.054 c 0.038,-0.021 0.919,-0.523 1.559,-0.65 0.032,-0.007 0.065,-0.012 0.098,-0.017 0.107,-0.199 0.209,-0.401 0.305,-0.609 l 0.188,0 c -0.09,0.199 -0.185,0.394 -0.285,0.585 0.621,-0.052 1.369,0.045 1.405,0.05 l 0.109,0.014 -0.094,0.056 c -0.037,0.021 -0.915,0.533 -1.555,0.66 -0.105,0.021 -0.221,0.035 -0.34,0.043 -0.134,0.215 -0.273,0.425 -0.416,0.632 0.202,0.087 0.402,0.186 0.563,0.294 0.55,0.367 1.178,1.181 1.204,1.216 l 0.067,0.087 -0.106,-0.028 c -0.042,-0.01 -1.024,-0.269 -1.567,-0.632 -0.172,-0.115 -0.351,-0.274 -0.517,-0.44 -0.137,0.186 -0.276,0.369 -0.417,0.551 10e-4,0.002 0.002,0.004 0.002,0.006 0.22,0.117 0.439,0.233 0.658,0.349 0.741,0.392 1.486,0.788 2.194,1.21 0.704,-0.903 1.029,-2.713 2.417,-3.484 1.052,-0.585 2.418,-0.457 3.599,-0.143 0.147,-0.332 0.284,-0.673 0.406,-1.026 l 0.182,0 c -0.127,0.369 -0.268,0.725 -0.421,1.072 1.35,0.385 2.417,0.988 2.417,0.988 -0.925,-0.187 -2.006,0.15 -3.246,0.659 -0.267,0.478 -0.544,0.945 -0.819,1.407 -0.027,0.045 -0.053,0.09 -0.08,0.135 0.91,0.082 1.812,0.078 2.698,1.125 0.302,0.357 0.506,0.796 0.636,1.28 0.236,-0.189 0.48,-0.373 0.732,-0.553 C 9.382,-2.089 9.798,-3.613 10.088,-4.737 9.558,-5.365 9.09,-6.024 8.744,-6.738 l 0.178,0 c 0.317,0.636 0.736,1.23 1.217,1.804 0.033,-0.131 0.064,-0.256 0.09,-0.373 0,0 0.342,0.527 0.655,1.204 0.132,0.139 0.267,0.278 0.404,0.417 l 0,3.686 z m -13.324,-5.734 -0.088,0.066 0.029,-0.106 c 0.008,-0.028 0.137,-0.497 0.334,-0.964 l 0.806,0 c -0.405,0.494 -1.05,0.981 -1.081,1.004 z M -2.452,-5.705 -2.506,-5.8 C -2.521,-5.826 -2.768,-6.26 -2.96,-6.738 l 0.596,0 c -0.009,0.473 -0.068,0.897 -0.072,0.924 l -0.016,0.109 z m 0.437,0.309 c 0.039,0.199 -0.091,0.393 -0.291,0.432 -0.199,0.04 -0.393,-0.091 -0.432,-0.29 -0.04,-0.2 0.091,-0.394 0.29,-0.433 0.2,-0.039 0.394,0.091 0.433,0.291"
           id="path30261"
           style="fill:#fdac10;fill-opacity:1;fill-rule:nonzero;stroke:none" />
      </g>
      <g
         transform="matrix(5.7332144,0,0,-5.7332144,477.09676,530.88874)"
         id="g30263">
        <path
           d="m 0,0 c 0.09,0.428 -0.03,0.747 -0.428,0.747 -0.349,0 -0.478,-0.329 -0.578,-0.777 l -0.318,-1.454 c -0.13,-0.607 0.099,-0.846 0.388,-0.846 0.408,0 0.528,0.368 0.617,0.816 L 0,0"
           id="path30265"
           style="fill:#8dc03d;fill-opacity:1;fill-rule:nonzero;stroke:none" />
      </g>
      <g
         transform="matrix(5.7332144,0,0,-5.7332144,451.87062,532.19018)"
         id="g30267">
        <path
           d="m 0,0 -0.776,-3.597 -1.684,0 0.827,3.806 c 0.07,0.347 0.09,0.735 -0.309,0.755 -0.418,0.02 -0.577,-0.318 -0.667,-0.755 l -0.826,-3.806 -1.654,0 c 0.936,4.402 0.966,4.511 0.966,4.511 0.03,0.189 0,0.458 0,0.458 0,0 0.399,-0.119 1.295,0.468 0.508,0.339 1.085,0.498 1.733,0.369 C -0.229,2.049 0.289,1.332 0,0 z M -5.497,3.23 C -5.586,2.822 -6.064,2.493 -6.572,2.493 c -0.508,0 -0.847,0.329 -0.757,0.737 0.08,0.408 0.557,0.737 1.065,0.737 0.508,0 0.847,-0.329 0.767,-0.737 z m -1.523,-6.827 -1.634,0 1.225,5.616 1.633,0 -1.224,-5.616 z m -4.814,0 -1.653,0 -0.468,5.686 1.684,0 0.109,-3.147 c 0.01,-0.159 0.11,-0.159 0.169,-0.03 l 1.434,3.177 1.743,0 -3.018,-5.686 z m -3.253,6.827 c -0.09,-0.408 -0.568,-0.737 -1.076,-0.737 -0.508,0 -0.846,0.329 -0.757,0.737 0.08,0.408 0.558,0.737 1.066,0.737 0.508,0 0.846,-0.329 0.767,-0.737 z m -1.524,-6.827 -1.633,0 1.225,5.616 1.633,0 -1.225,-5.616 z m -3.118,0 -3.695,0 1.524,7.1 1.673,0 -1.265,-5.836 2.052,0 -0.289,-1.264 z M 2.377,-4.888 c 0.308,0.019 0.767,0.169 0.896,0.677 l 0.49,1.371 c 0,0 -0.797,-0.927 -1.823,-0.389 -0.896,0.468 -0.657,1.414 -0.548,1.942 l 0.399,1.813 c 0.229,1.085 1.095,1.713 2.32,1.713 0.568,0 1.076,-0.319 1.345,-0.538 0.427,-0.359 0.946,-0.329 0.946,-0.329 0,0 -0.12,-0.289 -0.2,-0.647 L 5.006,-4.102 C 4.944,-4.384 4.794,-4.982 4.331,-5.467 l 3.144,0 0,10.875 -32.537,0 0,-10.875 25.782,0 0.213,0.927 c 0,0 0.707,-0.388 1.444,-0.348"
           id="path30269"
           style="fill:#8dc03d;fill-opacity:1;fill-rule:nonzero;stroke:none" />
      </g>
      <g
         transform="matrix(5.7332144,0,0,-5.7332144,335.89916,512.101)"
         id="g30271">
        <path
           d="m 0,0 -1.673,0 -1.524,-7.101 3.695,0 0.289,1.265 -2.052,0 L 0,0"
           id="path30273"
           style="fill:#ffffff;fill-opacity:1;fill-rule:nonzero;stroke:none" />
      </g>
      <g
         transform="matrix(5.7332144,0,0,-5.7332144,360.97623,509.44652)"
         id="g30275">
        <path
           d="m 0,0 c -0.508,0 -0.986,-0.329 -1.066,-0.737 -0.089,-0.408 0.249,-0.737 0.757,-0.737 0.508,0 0.986,0.329 1.076,0.737 C 0.846,-0.329 0.508,0 0,0"
           id="path30277"
           style="fill:#ffffff;fill-opacity:1;fill-rule:nonzero;stroke:none" />
      </g>
      <g
         transform="matrix(5.7332144,0,0,-5.7332144,347.27386,552.81256)"
         id="g30279">
        <path
           d="m 0,0 1.633,0 1.225,5.617 -1.633,0 L 0,0"
           id="path30281"
           style="fill:#ffffff;fill-opacity:1;fill-rule:nonzero;stroke:none" />
      </g>
      <g
         transform="matrix(5.7332144,0,0,-5.7332144,383.11217,538.42219)"
         id="g30283">
        <path
           d="m 0,0 c -0.06,-0.129 -0.159,-0.129 -0.169,0.03 l -0.11,3.147 -1.683,0 0.468,-5.687 1.653,0 3.018,5.687 -1.743,0 L 0,0"
           id="path30285"
           style="fill:#ffffff;fill-opacity:1;fill-rule:nonzero;stroke:none" />
      </g>
      <g
         transform="matrix(5.7332144,0,0,-5.7332144,415.95776,509.44652)"
         id="g30287">
        <path
           d="m 0,0 c -0.508,0 -0.986,-0.329 -1.065,-0.737 -0.09,-0.408 0.248,-0.737 0.756,-0.737 0.508,0 0.986,0.329 1.076,0.737 C 0.847,-0.329 0.508,0 0,0"
           id="path30289"
           style="fill:#ffffff;fill-opacity:1;fill-rule:nonzero;stroke:none" />
      </g>
      <g
         transform="matrix(5.7332144,0,0,-5.7332144,402.25538,552.81256)"
         id="g30291">
        <path
           d="m 0,0 1.633,0 1.225,5.617 -1.633,0 L 0,0"
           id="path30293"
           style="fill:#ffffff;fill-opacity:1;fill-rule:nonzero;stroke:none" />
      </g>
      <g
         transform="matrix(5.7332144,0,0,-5.7332144,445.58701,519.52552)"
         id="g30295">
        <path
           d="m 0,0 c -0.647,0.129 -1.225,-0.03 -1.733,-0.368 -0.896,-0.588 -1.294,-0.469 -1.294,-0.469 0,0 0.029,-0.268 0,-0.457 0,0 -0.03,-0.11 -0.966,-4.512 l 1.653,0 0.826,3.806 c 0.09,0.437 0.249,0.775 0.668,0.755 0.398,-0.02 0.378,-0.407 0.308,-0.755 l -0.826,-3.806 1.683,0 0.776,3.597 C 1.384,-0.876 0.866,-0.159 0,0"
           id="path30297"
           style="fill:#ffffff;fill-opacity:1;fill-rule:nonzero;stroke:none" />
      </g>
      <g
         transform="matrix(5.7332144,0,0,-5.7332144,471.73047,544.24713)"
         id="g30299">
        <path
           d="M 0,0 C -0.289,0 -0.518,0.239 -0.389,0.847 L -0.07,2.3 c 0.1,0.449 0.229,0.777 0.578,0.777 0.398,0 0.518,-0.318 0.428,-0.747 L 0.617,0.817 C 0.528,0.368 0.408,0 0,0 z m 1.542,-1.998 1.197,4.826 c 0.079,0.359 0.199,0.648 0.199,0.648 0,0 -0.518,-0.03 -0.946,0.328 -0.269,0.219 -0.777,0.538 -1.345,0.538 -1.225,0 -2.091,-0.627 -2.32,-1.713 L -2.072,0.817 c -0.109,-0.528 -0.348,-1.474 0.548,-1.942 1.026,-0.538 1.823,0.388 1.823,0.388 l -0.49,-1.371 c -0.129,-0.508 -0.587,-0.657 -0.896,-0.677 -0.737,-0.04 -1.444,0.349 -1.444,0.349 l -0.213,-0.927 3.611,0 c 0.464,0.484 0.613,1.082 0.675,1.365"
           id="path30301"
           style="fill:#ffffff;fill-opacity:1;fill-rule:nonzero;stroke:none" />
      </g>
    </g>
  </g>
</svg>
