<svg xmlns="http://www.w3.org/2000/svg" width="433.701" height="121.89" viewBox="0 0 433.701 121.89" preserveAspectRatio="xMidYMid"><path d="M37.95 29.186c.724-.109 1.459-.165 2.188-.165 3.89 0 7.499 1.576 10.154 4.152 2.652-4.815 7.941-7.967 13.819-7.555l.783.055.017-18.55c.005-3.897-3.182-7.091-7.08-7.095l-33.438-.028c-3.896-.003-7.089 3.184-7.094 7.079l-.023 25.247 20.674-3.14z"/><path fill="#fff" d="M33.782 8.419l-1.919-.016c-3.338-.029-4.852 2.26-4.871 4.542l-.055 6.761c.002.128.105.231.235.233.734.004 2.959.024 3.827.032.132.001.238-.105.24-.235l.052-6.379c.006-.926.565-1.477 1.491-1.468l1.015.008c.11-.021.19-.116.192-.229l.023-3.009c.001-.131-.102-.236-.23-.24zm10.857.089l-1.885-.018-.329-.002c-.128-.003-.231-.109-.23-.234l.028-3.274c0-.132-.111-.279-.237-.24l-3.625 1.282c-.082.038-.142.118-.143.216l-.053 1.978-.002.001c0 .132-.105.235-.234.237l-.454-.005-.896-.009c-.13.002-.233.108-.233.236l-.027 3.004c.002.132.105.24.237.24l1.083.009c.124.01.223.112.221.236l.004.005-.034 4.179-.001.014v.021c-.021 2.723 1.425 5.096 3.573 6.318.089.045.193.031.269-.035l2.391-2.323c.085-.092.086-.237-.002-.328l.001-.002c-1.123-.867-1.862-2.208-1.924-3.718-.003-.036.01-1.877.028-4.101.002-.108.075-.198.173-.226l2.276.02c.13 0 .236-.108.239-.237l.024-3.005c-.002-.131-.107-.238-.238-.239zm9.67 15.253c-.512-.517-.889-.928-1.373-1.735l-.004-.004c-.371-.644-.553-1.631-.542-2.941l.133-16.268c.002-.127-.105-.274-.229-.24l-3.897 1.305h-.001c-.103.023-.181.117-.182.23l-.124 15.126c-.015 1.405.041 3.02.819 4.335.639 1.117 1.597 2.089 2.534 3.032.092.081.228.079.319-.005l2.563-2.521c.07-.093.067-.226-.016-.314z"/><path fill="#fff" stroke="#fff" stroke-width="15" d="M433.009 109.328l-4.123-66.236c-.242-3.889-3.623-6.875-7.514-6.632l-33.369 2.077c-.531.033-1.043.13-1.535.273-.865-.62-1.877-1.06-2.994-1.236l-33.027-5.236c-3.85-.61-7.498 2.039-8.109 5.89l-6.865 43.299 1.178-40.542c.111-3.896-2.982-7.177-6.879-7.289l-33.42-.971c-3.896-.113-7.176 2.982-7.289 6.879l-.633 21.81-3.602-28.03c-.498-3.866-4.066-6.622-7.932-6.127l-33.163 4.263c-1.968.253-3.645 1.304-4.755 2.782-.79-.362-1.657-.589-2.574-.635l-33.392-1.686c-3.892-.197-7.237 2.828-7.434 6.721l-1.635 32.405-6.393-31.454c-.776-3.82-4.536-6.311-8.356-5.533l-32.767 6.658c-.236.048-.468.108-.694.179l-.041-.548c-.292-3.887-3.711-6.826-7.598-6.535l-33.341 2.506c-1.229.093-2.362.499-3.329 1.133-1.165-1.161-2.729-1.933-4.49-2.057l-33.354-2.356c-3.887-.275-7.293 2.682-7.568 6.568l-2.954 41.789-5.911-38.913c-.585-3.854-4.217-6.528-8.071-5.943l-33.053 5.02c-3.854.586-6.528 4.218-5.942 8.07l9.966 65.613c.585 3.854 4.217 6.527 8.07 5.941l33.055-5.02c2.085-.316 3.819-1.529 4.884-3.182.584.205 1.201.346 1.848.391l33.354 2.355c3.887.275 7.294-2.68 7.568-6.568l2.084-29.477 2.288 30.408c.292 3.887 3.712 6.828 7.598 6.535l33.342-2.506c3.887-.293 6.827-3.711 6.535-7.6l-1.116-14.83 4.555 22.414c.776 3.82 4.536 6.311 8.356 5.535l32.766-6.66c.808-.164 1.551-.469 2.222-.871.481.131.982.217 1.5.242l33.392 1.686c3.893.195 7.237-2.828 7.435-6.721l1.847-36.632 4.438 34.525c.498 3.867 4.066 6.623 7.934 6.127l33.16-4.26.051-.008c.475 3.352 3.314 5.996 6.805 6.098l33.42.969c2.93.086 5.51-1.643 6.658-4.162 1.002.947 2.285 1.613 3.74 1.844l33.029 5.238c3.85.611 7.498-2.039 8.107-5.889l4.639-29.25 1.887 30.309c.242 3.891 3.623 6.875 7.512 6.631l33.369-2.076c3.888-.241 6.872-3.622 6.63-7.512z"/><path fill="#36A9E1" d="M57.114 108.156c.585 3.854-2.088 7.484-5.942 8.07l-33.055 5.02c-3.853.586-7.485-2.088-8.07-5.941l-9.966-65.614c-.586-3.853 2.088-7.484 5.942-8.07l33.054-5.021c3.854-.585 7.486 2.089 8.071 5.943l9.966 65.613z"/><path fill="#FFDE00" d="M334.723 107.32c-.112 3.896-3.393 6.99-7.289 6.877l-33.419-.969c-3.896-.113-6.991-3.393-6.879-7.289l1.926-66.335c.112-3.896 3.393-6.992 7.289-6.879l33.419.971c3.896.112 6.991 3.393 6.879 7.289l-1.926 66.335z"/><path fill="#3AAA35" d="M378.97 111.228c-.61 3.85-4.259 6.5-8.108 5.889l-33.028-5.238c-3.85-.609-6.5-4.258-5.889-8.107l10.393-65.543c.611-3.851 4.26-6.5 8.109-5.89l33.026 5.236c3.85.61 6.5 4.258 5.89 8.108l-10.393 65.545z"/><path fill="#F9B233" d="M293.286 99.205c.497 3.867-2.26 7.436-6.126 7.934l-33.161 4.26c-3.866.496-7.436-2.26-7.933-6.127l-8.459-65.82c-.497-3.867 2.26-7.436 6.126-7.933l33.162-4.263c3.865-.495 7.435 2.261 7.932 6.127l8.459 65.822z"/><path fill="#E6332A" d="M239.782 107.378c-.197 3.893-3.542 6.916-7.435 6.721l-33.392-1.686c-3.893-.195-6.917-3.541-6.721-7.434l3.344-66.279c.196-3.893 3.542-6.918 7.434-6.721l33.392 1.686c3.893.196 6.917 3.543 6.72 7.436l-3.342 66.277z"/><path fill="#E6007E" d="M200.768 104.685c.775 3.82-1.714 7.58-5.534 8.357l-32.766 6.66c-3.82.775-7.58-1.715-8.356-5.535l-13.217-65.033c-.776-3.82 1.713-7.58 5.533-8.357l32.767-6.658c3.82-.777 7.58 1.713 8.356 5.533l13.217 65.033z"/><path fill="#951B81" d="M150.672 106.583c.292 3.889-2.648 7.307-6.535 7.6l-33.342 2.506c-3.886.293-7.306-2.648-7.598-6.535l-4.978-66.175c-.292-3.887 2.649-7.307 6.535-7.6l33.341-2.506c3.887-.291 7.306 2.648 7.598 6.535l4.979 66.175z"/><path fill="#1D71B8" d="M98.825 109.222c-.274 3.889-3.681 6.844-7.568 6.568l-33.354-2.355c-3.888-.275-6.845-3.682-6.57-7.568l4.679-66.199c.275-3.887 3.681-6.844 7.568-6.568l33.355 2.355c3.888.275 6.844 3.682 6.57 7.568l-4.68 66.199z"/><path fill="#36A9E1" d="M433.009 109.328c.242 3.891-2.742 7.271-6.633 7.514l-33.369 2.076c-3.889.244-7.27-2.74-7.512-6.631l-4.125-66.236c-.242-3.891 2.742-7.271 6.633-7.514l33.369-2.077c3.891-.243 7.271 2.743 7.514 6.632l4.123 66.236z"/><path fill="#fff" d="M171.927 88.246l-1.615-7.947c2.215-.629 4.482-1.182 6.803-1.652l2.648-.539-.523-8.167c-.527.072-1.396.23-2.607.477l-2.494.506c-2.458.5-4.282.923-5.473 1.275l-1.352-6.648c3.828-1.03 7.076-1.817 9.742-2.359l3.169-.644-.502-7.524c-8.02 1.703-16.135 3.641-24.347 5.814l7.875 38.746c4.424-1.297 9.614-2.549 15.569-3.76l1.299-.264c2.527-.514 5.142-.955 7.844-1.324l-.457-9.695c-5.021 1.017-10.214 2.253-15.579 3.705zm61.081-27.729l-3.768-7.354c-7.45 3.905-13.063 8.929-16.839 15.07l.779-15.456c-2.727.04-5.817.29-9.271.752l-1.982 39.278c3.58-.139 6.271-.162 8.07-.07l1.164.059.736-14.609c3.551 6.758 8.415 12.383 14.592 16.867l6.233-7.857c-2.528-1.789-5.184-4.205-7.966-7.248-2.651-2.857-4.646-5.398-5.983-7.625 4.033-4.892 8.779-8.827 14.235-11.807zm-110.65-5.275c-3.678.561-6.943 1.195-9.795 1.906l2.962 39.373c6.421-.838 13.507-1.547 21.259-2.131l1.636-10.752c-5.277.502-9.872 1.133-13.783 1.887l-2.279-30.283zm-36.242 7.473l3.225.229 1.531-7.385c-8.182-.507-16.52-.812-25.014-.917l-2.788 39.44c4.609-.064 9.945.117 16.007.547l1.323.091c2.572.184 5.209.457 7.912.826l2.157-9.465c-5.111-.361-10.446-.561-16.004-.6l.572-8.09c2.303-.014 4.636.062 6.998.23l2.696.189 1.683-8.009c-.527-.072-1.407-.152-2.64-.24l-2.538-.18c-2.502-.176-4.375-.256-5.615-.236l.479-6.768c3.962.035 7.301.146 10.016.338zm-43.891-9.706l-2.708.521c-10.687 2.057-20.234 4.234-28.643 6.533l.544 9.561c3.966-1.268 7.768-2.359 11.406-3.275l3.257 30.948c4.005-1.057 7.588-1.891 10.745-2.498l-3.592-31.003c4.193-1.022 7.205-1.728 9.038-2.116l-.047-8.671zm381.962 25.655c-.729-11.715-5.284-22.682-12.877-31.998-1.805.332-3.633 1.47-5.016 2.724 5.527 9.006 8.299 19.497 8.941 29.831.652 10.479-.564 21.439-5.154 31 1.061.592 3.546 1.824 5.315 2.08 6.379-10.186 9.502-22.212 8.791-33.637zm-26.842 14.671c-2.691.168-4.67 2.41-4.513 4.957.165 2.619 2.396 4.453 5.087 4.287 2.62-.164 4.682-2.266 4.519-4.885-.159-2.546-2.474-4.521-5.093-4.359zm-.463-7.419c2.62-.164 4.673-2.41 4.514-4.955-.162-2.621-2.469-4.451-5.088-4.287-2.691.166-4.68 2.264-4.518 4.883.16 2.548 2.401 4.525 5.092 4.359zm-128.841-37.086c-2.829.436-6.064 1.047-9.703 1.834l5.087 39.583c4.305-.873 7.772-1.479 10.4-1.816-1.751-8.359-3.1-16.221-4.046-23.58-.635-4.941-1.214-10.282-1.738-16.021zm53.436 7.816c-3.27-1.897-7.48-2.922-12.637-3.07-4.416-.129-9.044.391-13.885 1.559l-1.098 37.826c2.109.379 4.666.613 7.668.699 7.664.223 14-1.289 19.008-4.537 5.69-3.652 8.639-8.975 8.842-15.969.225-7.769-2.408-13.272-7.898-16.508zm-6.866 24.615c-2.704 1.83-6.106 2.723-10.204 2.674l.605-20.873c.852-.152 1.95-.209 3.293-.17 3.178.092 5.718.873 7.619 2.342 2.316 1.764 3.426 4.412 3.322 7.943-.099 3.426-1.644 6.121-4.635 8.084zm46.755-17.308c3.874.614 7.962 1.799 12.262 3.555l4.655-9.728c-4.069-1.181-7.885-2.055-11.444-2.619-8.061-1.278-14.127-.701-18.197 1.73-3.047 1.842-4.855 4.561-5.425 8.154-.741 4.677.917 8.321 4.975 10.93 2.072 1.367 6.001 2.885 11.782 4.553 4.279 1.215 6.319 2.451 6.12 3.707-.288 1.814-3.398 2.252-9.331 1.311-1.85-.293-3.878-.811-6.086-1.555-2.48-.822-4.4-1.682-5.762-2.578l-4.648 9.352c3.416 1.688 7.446 2.898 12.088 3.635 6.176.979 11.432.668 15.764-.936 4.593-1.668 7.211-4.527 7.853-8.576.687-4.326-1.03-7.711-5.151-10.152-1.705-.986-5.68-2.422-11.928-4.306-4.298-1.326-6.322-2.773-6.072-4.344.357-2.269 3.207-2.98 8.545-2.133z"/></svg>