<?xml version="1.0" encoding="UTF-8" standalone="no"?>
<!-- Created with Inkscape (http://www.inkscape.org/) -->
<svg xmlns:rdf="http://www.w3.org/1999/02/22-rdf-syntax-ns#" xmlns="http://www.w3.org/2000/svg" height="625.26" width="600" version="1.1" xmlns:cc="http://creativecommons.org/ns#" xmlns:dc="http://purl.org/dc/elements/1.1/">
 <metadata>
  <rdf:RDF>
   <cc:Work rdf:about="">
    <dc:format>image/svg+xml</dc:format>
    <dc:type rdf:resource="http://purl.org/dc/dcmitype/StillImage"/>
    <dc:title/>
   </cc:Work>
  </rdf:RDF>
 </metadata>
 <g transform="translate(-72.059086,-709.79752)">
  <g fill="#ce160a" transform="matrix(50.626813,0,0,-50.626813,369.55267,709.80906)">
   <path fill-rule="nonzero" fill="#ce160a" d="m0,0c-3.273-0.029-5.903-2.817-5.876-6.227,0.028-3.41,2.703-6.152,5.975-6.123,3.273,0.028,5.904,2.816,5.876,6.227-0.027,3.41-2.702,6.152-5.975,6.123m-4.738-6.217c-0.02,2.431,1.633,4.471,3.838,4.933l-2.267-4.547-0.001-0.003c-0.251-0.518-0.39-1.104-0.385-1.724,0.012-1.416,0.772-2.643,1.886-3.277-1.782,0.714-3.054,2.508-3.071,4.618m4.815-3.367c-1.09-0.009-1.981,0.904-1.991,2.04-0.009,1.136,0.868,2.065,1.958,2.075,1.09,0.009,1.982-0.904,1.991-2.04,0.009-1.137-0.868-2.065-1.958-2.075m1.764-1.22c1.104,0.653,1.844,1.893,1.833,3.309-0.017,2.08-1.648,3.751-3.644,3.734-0.066-0.001-0.132-0.003-0.198-0.007l1.232,2.47c2.141-0.481,3.754-2.457,3.774-4.835,0.017-2.111-1.226-3.926-2.997-4.671"/>
  </g>
 </g>
</svg>
