<?xml version="1.0" encoding="UTF-8" standalone="no"?>
<!-- Created with Inkscape (http://www.inkscape.org/) -->
<svg xmlns:rdf="http://www.w3.org/1999/02/22-rdf-syntax-ns#" xmlns="http://www.w3.org/2000/svg" height="821.15" width="600" version="1.1" xmlns:cc="http://creativecommons.org/ns#" xmlns:dc="http://purl.org/dc/elements/1.1/">
 <metadata>
  <rdf:RDF>
   <cc:Work rdf:about="">
    <dc:format>image/svg+xml</dc:format>
    <dc:type rdf:resource="http://purl.org/dc/dcmitype/StillImage"/>
    <dc:title/>
   </cc:Work>
  </rdf:RDF>
 </metadata>
 <g fill="#5f009e">
  <path d="m214.66,7.3137,0,204.41,113.78,0c35.011,0,63.341-25.449,63.341-56.891,0-20.796-12.389-39.017-30.926-48.953,15.085-9.9341,24.972-25.904,24.972-43.991,0-30.151-27.288-54.576-60.86-54.576zm39.526,34.73,56.815,0c23.499,0,33.943,10.651,33.943,23.815s-9.5292,23.815-33.943,23.815h-56.815zm0,83.666,67.971,0c15.167,0,27.453,9.1786,27.453,23.169,0,13.991-12.286,25.303-27.453,25.303h-67.971z"/>
  <path d="m592.29,40.854c-12.071-24.574-32.27-40.85-79.513-40.85-52.057,0-83.781,23.898-83.781,57.847,0,91.464,129.74,42.531,128.65,93.893-0.38896,18.315-14.929,29.191-44.865,29.191-46.511,0-59.75-32.797-59.75-32.797l-33.86,19.027c16.814,40.094,47.757,50.426,93.61,50.426,60.565,0,86.844-29.762,85.967-65.847-2.2498-92.608-127.41-44.914-127.41-91.455,0-13.545,8.2005-24.419,37.17-24.419,29.297,0,39.605,7.7222,51.676,22.38z"/>
  <path d="m173.12,40.854c-12.071-24.574-32.27-40.85-79.513-40.85-52.057,0-83.781,23.898-83.781,57.847,0,91.464,129.74,42.531,128.65,93.893-0.38896,18.315-14.928,29.191-44.865,29.191-46.511,0-59.75-32.797-59.75-32.797l-33.86,19.027c16.814,40.094,47.757,50.426,93.61,50.426,60.565,0,86.844-29.762,85.967-65.847-2.2498-92.608-127.41-44.914-127.41-91.455,0-13.545,8.2005-24.419,37.17-24.419,29.297,0,39.605,7.7222,51.676,22.38z"/>
 </g>
 <path d="m0.00487,254.22,0,428.5c0,9.5546,0.96784,18.94,2.8114,27.949,1.8436,9.0096,4.6019,17.686,8.1036,25.965,3.5018,8.2791,7.76,16.121,12.734,23.484,4.9743,7.363,10.607,14.246,16.869,20.507,6.2614,6.2614,13.144,11.894,20.507,16.869,7.363,4.9744,15.205,9.2326,23.484,12.734,8.2791,3.5018,16.955,6.26,25.965,8.1036,9.0096,1.8436,18.395,2.8115,27.949,2.8115h461.58v-566.92h-600z" fill="#5f009e"/>
 <path d="m312.4,323.02c-38.718,0-77.5,14.655-106.84,43.991-58.672,58.672-58.672,154.83,0,213.51,19.998,19.998,44.341,33.099,70.121,39.526l-73.098,73.098c-6.842,6.8406-10.915,16.455-10.915,26.13-0.00049,9.675,4.0738,19.289,10.915,26.13,6.8413,6.8413,16.455,10.75,26.13,10.75,9.675-0.00046,19.289-3.9077,26.13-10.75l164.55-164.55c58.762-58.762,58.34-155.16-0.33076-213.84l-3.8038-3.8038-2.8114-1.4884c-28.46-25.408-64.03-38.71-100.05-38.71zm0,73.264c19.669,0,39.307,7.7196,54.576,22.988,30.535,30.536,30.612,78.87,0.16522,109.32-30.446,30.446-78.945,30.371-109.48-0.16522-30.537-30.537-30.537-78.614,0-109.15,15.268-15.268,35.072-22.988,54.741-22.988z" style="direction:ltr;enable-background:accumulate;baseline-shift:baseline;block-progression:tb;text-indent:0;color:#000000;text-transform:none;text-align:start;" fill="#FFF"/>
</svg>
