<?xml version="1.0" encoding="UTF-8" standalone="no"?>
<!-- Created with Inkscape (http://www.inkscape.org/) -->

<svg
   xmlns:dc="http://purl.org/dc/elements/1.1/"
   xmlns:cc="http://creativecommons.org/ns#"
   xmlns:rdf="http://www.w3.org/1999/02/22-rdf-syntax-ns#"
   xmlns:svg="http://www.w3.org/2000/svg"
   xmlns="http://www.w3.org/2000/svg"
   xmlns:xlink="http://www.w3.org/1999/xlink"
   version="1.1"
   width="1200.9207"
   height="188.125"
   id="svg2">
  <metadata
     id="metadata8">
    <rdf:RDF>
      <cc:Work
         rdf:about="">
        <dc:format>image/svg+xml</dc:format>
        <dc:type
           rdf:resource="http://purl.org/dc/dcmitype/StillImage" />
        <dc:title></dc:title>
      </cc:Work>
    </rdf:RDF>
  </metadata>
  <defs
     id="defs6">
    <linearGradient
       id="linearGradient4056">
      <stop
         id="stop4058"
         style="stop-color:#3d3d3d;stop-opacity:1"
         offset="0" />
      <stop
         id="stop4060"
         style="stop-color:#3d3d3d;stop-opacity:1"
         offset="0.82284153" />
      <stop
         id="stop4062"
         style="stop-color:#ffffff;stop-opacity:1"
         offset="0.87788105" />
      <stop
         id="stop4064"
         style="stop-color:#ffffff;stop-opacity:1"
         offset="0.94668067" />
      <stop
         id="stop4066"
         style="stop-color:#434343;stop-opacity:1"
         offset="1" />
    </linearGradient>
    <linearGradient
       id="linearGradient4016">
      <stop
         id="stop4018"
         style="stop-color:#3d3d3d;stop-opacity:1"
         offset="0" />
      <stop
         id="stop4042"
         style="stop-color:#3d3d3d;stop-opacity:1"
         offset="0.22272909" />
      <stop
         id="stop4024"
         style="stop-color:#ffffff;stop-opacity:1"
         offset="0.46173689" />
      <stop
         id="stop4026"
         style="stop-color:#ffffff;stop-opacity:1"
         offset="0.76818359" />
      <stop
         id="stop4020"
         style="stop-color:#434343;stop-opacity:1"
         offset="1" />
    </linearGradient>
    <linearGradient
       id="linearGradient3962">
      <stop
         id="stop3964"
         style="stop-color:#505050;stop-opacity:1"
         offset="0" />
      <stop
         id="stop3966"
         style="stop-color:#808080;stop-opacity:1"
         offset="0.11204819" />
      <stop
         id="stop3968"
         style="stop-color:#808080;stop-opacity:1"
         offset="0.94417667" />
      <stop
         id="stop3970"
         style="stop-color:#b4b4b4;stop-opacity:1"
         offset="1" />
    </linearGradient>
    <linearGradient
       id="linearGradient3946">
      <stop
         id="stop3948"
         style="stop-color:#a0a0a0;stop-opacity:1"
         offset="0" />
      <stop
         id="stop3958"
         style="stop-color:#c8c8c8;stop-opacity:1"
         offset="0.11235955" />
      <stop
         id="stop3956"
         style="stop-color:#c8c8c8;stop-opacity:1"
         offset="0.94382024" />
      <stop
         id="stop3950"
         style="stop-color:#f0f0f0;stop-opacity:1"
         offset="1" />
    </linearGradient>
    <linearGradient
       id="linearGradient3912">
      <stop
         id="stop3914"
         style="stop-color:#505050;stop-opacity:1"
         offset="0" />
      <stop
         id="stop3924"
         style="stop-color:#808080;stop-opacity:1"
         offset="0.11204819" />
      <stop
         id="stop3922"
         style="stop-color:#808080;stop-opacity:1"
         offset="0.88795179" />
      <stop
         id="stop3916"
         style="stop-color:#b4b4b4;stop-opacity:1"
         offset="1" />
    </linearGradient>
    <linearGradient
       id="linearGradient3898">
      <stop
         id="stop3900"
         style="stop-color:#0d1329;stop-opacity:1"
         offset="0" />
      <stop
         id="stop3908"
         style="stop-color:#202f66;stop-opacity:1"
         offset="0.11200321" />
      <stop
         id="stop3910"
         style="stop-color:#202f66;stop-opacity:1"
         offset="0.94379765" />
      <stop
         id="stop3902"
         style="stop-color:#334ba3;stop-opacity:1"
         offset="1" />
    </linearGradient>
    <linearGradient
       id="linearGradient3890">
      <stop
         id="stop3892"
         style="stop-color:#ffffff;stop-opacity:1"
         offset="0" />
      <stop
         id="stop3894"
         style="stop-color:#ffffff;stop-opacity:0"
         offset="1" />
    </linearGradient>
    <linearGradient
       x1="13.928571"
       y1="-46.142857"
       x2="13.928571"
       y2="-402"
       id="linearGradient3993"
       xlink:href="#linearGradient3898"
       gradientUnits="userSpaceOnUse" />
    <radialGradient
       cx="49.82143"
       cy="43.910713"
       r="19.285715"
       fx="49.82143"
       fy="43.910713"
       id="radialGradient3995"
       xlink:href="#linearGradient3890"
       gradientUnits="userSpaceOnUse"
       gradientTransform="matrix(1,0,0,0.31944442,0,29.883681)" />
    <linearGradient
       x1="1189.4546"
       y1="-46"
       x2="1189.4546"
       y2="-402"
       id="linearGradient3997"
       xlink:href="#linearGradient3946"
       gradientUnits="userSpaceOnUse" />
    <linearGradient
       x1="695.35712"
       y1="-46.142857"
       x2="695.35712"
       y2="-401.85715"
       id="linearGradient3999"
       xlink:href="#linearGradient3962"
       gradientUnits="userSpaceOnUse" />
    <linearGradient
       x1="13.928571"
       y1="-46.142857"
       x2="13.928571"
       y2="-402"
       id="linearGradient4108"
       xlink:href="#linearGradient3898"
       gradientUnits="userSpaceOnUse"
       gradientTransform="matrix(0.50033761,0,0,0.50033761,-0.50506415,-149.88447)" />
    <linearGradient
       x1="695.35712"
       y1="-46.142857"
       x2="695.35712"
       y2="-401.85715"
       id="linearGradient3077"
       xlink:href="#linearGradient3962"
       gradientUnits="userSpaceOnUse"
       gradientTransform="matrix(0.50033761,0,0,0.50033761,-2.5050642,206.14678)" />
    <linearGradient
       x1="1189.4546"
       y1="-46"
       x2="1189.4546"
       y2="-402"
       id="linearGradient3081"
       xlink:href="#linearGradient3946"
       gradientUnits="userSpaceOnUse"
       gradientTransform="matrix(0.50033761,0,0,0.50033761,-2.5050642,206.14678)" />
    <radialGradient
       cx="49.82143"
       cy="43.910713"
       r="19.285715"
       fx="49.82143"
       fy="43.910713"
       id="radialGradient3084"
       xlink:href="#linearGradient3890"
       gradientUnits="userSpaceOnUse"
       gradientTransform="matrix(0.31337453,-0.25678773,0.08202941,0.10010574,-1.6332093,23.696989)" />
    <linearGradient
       x1="13.928571"
       y1="-46.142857"
       x2="13.928571"
       y2="-402"
       id="linearGradient3087"
       xlink:href="#linearGradient3898"
       gradientUnits="userSpaceOnUse"
       gradientTransform="matrix(0.50033761,0,0,0.50033761,-2.5050642,206.14678)" />
    <linearGradient
       x1="1189.4546"
       y1="-46"
       x2="1189.4546"
       y2="-402"
       id="linearGradient3151"
       xlink:href="#linearGradient3946"
       gradientUnits="userSpaceOnUse"
       gradientTransform="matrix(0.49662347,0,0,0.50033761,0.07758621,206.14678)" />
    <linearGradient
       x1="695.35712"
       y1="-46.142857"
       x2="695.35712"
       y2="-401.85715"
       id="linearGradient3153"
       xlink:href="#linearGradient3962"
       gradientUnits="userSpaceOnUse"
       gradientTransform="matrix(0.50033761,0,0,0.50033761,-2.5050642,206.14678)" />
  </defs>
  <path
     d="m 30.267049,5.0110608 c -13.99547,0 -25.2670491,11.2715802 -25.2670491,25.2670492 l 0,127.58609 c 0,13.99547 11.2715791,25.26705 25.2670491,25.26705 l 315.134521,0 0,-178.1201892 z"
     id="rect2987"
     style="fill:url(#linearGradient3087);fill-opacity:1;stroke:none" />
  <path
     d="m 23.625179,10.346837 a 2.4959906,7.8135363 50.667864 1 1 -12.087303,9.90467 2.4959906,7.8135363 50.667864 1 1 12.087303,-9.90467 z"
     id="path3888"
     style="fill:url(#radialGradient3084);fill-opacity:1;stroke:none" />
  <rect
     width="854.54712"
     height="178.12019"
     rx="12.019789"
     ry="34.155895"
     x="345.40826"
     y="5.0110607"
     id="rect3871"
     style="fill:url(#linearGradient3151);fill-opacity:1;stroke:none" />
  <path
     d="m 338.6001,5.0110608 c 0,0 -1.50101,4.394195 -1.50101,11.7579342 l 0,154.182165 c 0,6.20395 1.50101,12.18009 1.50101,12.18009 l 15.54174,0 c 0,0 -1.50101,-6.07581 -1.50101,-12.18009 l 0,-154.041445 c 0,-7.5154416 1.50101,-11.8986542 1.50101,-11.8986542 l -15.54174,0 z"
     id="path3128"
     style="fill:url(#linearGradient3153);fill-opacity:1;stroke:none" />
  <path
     d="m 141.70894,18.461327 c -4.96723,0 -9.5079,2.472553 -9.5079,8.55185 l 0,107.121223 c 0,2.38412 2.57973,4.39911 4.57756,4.39911 l 12.47084,0 c 4.98671,0 9.11327,-3.4842 9.11327,-9.5674 l 0,-107.106345 c 0,-2.395827 -2.18938,-3.398438 -4.1755,-3.398438 z M 76.707436,54.311352 c -18.998805,0 -28.972185,11.676869 -28.972185,25.708422 0,12.470775 7.679487,21.056676 23.0082,24.484806 l 24.473154,5.47319 c 4.976605,1.11297 5.985645,1.51977 5.985645,4.05607 0,1.94709 -1.01107,3.2345 -5.502269,3.2345 l -37.947921,0 c -6.083205,0 -8.52953,3.79354 -8.52953,8.75295 l 0,7.9272 c 0,1.9861 0.984554,4.58502 3.368673,4.58502 l 41.62893,0 c 22.483267,0 32.560727,-12.02512 32.560727,-25.04997 0,-13.47343 -8.78765,-22.059881 -24.01631,-25.47384 L 78.283949,82.521642 c -4.974301,-1.115137 -5.978199,-1.511965 -5.978199,-4.056067 0,-1.939128 1.007175,-2.951591 5.502273,-2.951591 l 36.416007,0 c 6.0676,0 9.52277,-4.072158 9.52277,-9.043307 l 0,-7.904884 c 0,-1.990033 -1.98914,-4.254441 -4.36935,-4.254441 z M 199.0212,53.980774 c -3.74982,0 -6.42662,1.994356 -8.65678,4.399103 l -31.76827,34.110727 28.49626,41.524816 c 1.64493,2.397 3.69098,4.51809 6.18047,4.51809 l 16.97727,0 c 2.5402,0 4.41771,-2.01543 4.41771,-4.15371 0,-1.31109 -0.65931,-2.14768 -1.47983,-3.36868 l -24.62141,-36.638616 18.46391,-20.062893 36.70506,55.058549 -17.04777,34.6531 c -0.45653,1.03013 -0.98904,2.02417 -0.98904,3.01917 0,2.02514 2.48552,3.60293 4.51065,3.60293 l 15.04383,0 c 3.06696,0 4.38973,-1.65741 5.52523,-4.12347 L 300.36518,61.027233 c 0.48715,-1.036384 0.99646,-2.019877 0.99646,-3.026617 0,-2.021214 -2.13967,-4.019842 -4.17261,-4.019842 l -15.16282,0 c -3.03579,0 -4.68633,1.264363 -5.78584,3.736281 L 255.11391,105.21329 225.27166,58.207856 c -1.84175,-2.914637 -3.78492,-4.227082 -8.20977,-4.227082 z"
     id="path5649"
     style="fill:#ffffff;fill-opacity:1;fill-rule:nonzero;stroke:none" />
  <path
     d="m 18.559221,9.9988013 c -4.428158,0 -12.4169442,7.2130767 -13.534018,18.9659227 -2.085e-4,0.0052 2.06e-4,0.01051 0,0.01561 C 5.008089,29.407062 5,29.845953 5,30.27811 L 5,157.8642 c 0,4.5681 0.9633649,8.84987 2.658918,12.53971 -0.156712,-1.15864 -0.2219386,-2.38479 -0.1764212,-3.67435 0.2653874,-7.51871 4.7016272,-15.11489 19.4693282,-26.12701 20.09606,-14.98542 58.570782,-23.39516 77.738695,-27.47166 C 228.20755,86.862146 316.12356,76.541982 439.53778,66.755849 525.40662,59.946875 611.3445,54.882337 697.25117,55.091728 c 77.58967,0.189118 258.20991,9.931502 386.36223,30.160977 44.525,7.8472 72.3296,13.868363 90.9073,28.628695 14.0361,11.15201 22.4407,35.24167 23.1615,48.70474 0.1091,2.0371 0.01,4.08761 -0.2142,6.09786 1.2471,-3.2764 1.9532,-6.94332 1.9532,-10.8198 l 0,-127.58609 c 0,-0.286328 -0.01,-0.575984 -0.012,-0.859955 -1.5935,-6.425466 -6.7875,-18.137239 -15.8779,-18.137239 -11.0919,0 -6.3761,4.737572 -90.8443,4.737572 l -986.37039,0 C 33.376064,15.982809 31.118103,9.9988013 18.559221,9.9988013 z"
     id="rect3007"
     style="opacity:0.4;fill:#ffffff;fill-opacity:1;stroke:none" />
  <g
     transform="matrix(0.50033761,0,0,0.50033761,-2.5050642,-3.9950162)"
     id="g3831">
    <path
       d="m 924.375,103 c -10.57348,0 -24.56786,7.34921 -30.84375,23.3125 L 829.5625,289 866.78125,289 883,247.75 l 98.28125,0 L 997.5,289 l 37.2188,0 -63.93755,-162.65625 C 964.60103,110.62381 951.52798,103 939.90625,103 l -15.53125,0 z m 3.5625,34.3125 c 0.21136,-0.009 0.45133,0 0.71875,0 l 7.03125,0 c 2.09227,0 2.21073,0.13327 3.375,3.09375 l 29.0625,73.875 -71.96875,0 29.15625,-74.1875 c 0.91129,-2.31836 1.14551,-2.71982 2.625,-2.78125 z"
       id="rect3010"
       style="fill:#202f66;fill-opacity:1;stroke:none" />
    <path
       d="m 1493.8393,103 c -10.5735,0 -24.5679,7.34921 -30.8438,23.3125 L 1399.0268,289 l 37.2187,0 16.2188,-41.25 98.2812,0 16.2188,41.25 37.2188,0 -63.9375,-162.65625 C 1534.0653,110.62381 1520.9923,103 1509.3705,103 l -15.5312,0 z m 3.5625,34.3125 c 0.2114,-0.009 0.4513,0 0.7187,0 l 7.0313,0 c 2.0923,0 2.2107,0.13327 3.375,3.09375 l 29.0625,73.875 -71.9688,0 29.1563,-74.1875 c 0.9113,-2.31836 1.1455,-2.71982 2.625,-2.78125 z"
       id="path3791"
       style="fill:#202f66;fill-opacity:1;stroke:none" />
    <path
       d="m 1020.8125,103 0,33.59375 76.625,0 0,152.40625 33.5625,0 0,-152.40625 76.625,0 0,-33.59375 -76.625,0 -33.5625,0 -76.625,0 z"
       id="rect3793"
       style="fill:#202f66;fill-opacity:1;stroke:none" />
    <path
       d="m 1232.6875,103 0,147.4375 c 0,21.36857 17.1939,38.5625 38.5625,38.5625 l 113.75,0 0,-33.75 -113.2188,0 c -2.3742,0 -4.2812,-1.90696 -4.2812,-4.28125 L 1267.5,103 z"
       id="rect3798"
       style="fill:#202f66;fill-opacity:1;stroke:none" />
    <path
       d="m 1836.8125,103 0,33.59375 76.625,0 0,152.40625 33.5625,0 0,-152.40625 76.625,0 0,-33.59375 -76.625,0 -33.5625,0 -76.625,0 z"
       id="path3805"
       style="fill:#202f66;fill-opacity:1;stroke:none" />
    <rect
       width="33.75"
       height="186"
       ry="0"
       x="2058.75"
       y="103"
       id="rect3807"
       style="fill:#202f66;fill-opacity:1;stroke:none" />
    <path
       d="m 2194.8125,103 c -35.6143,0 -64.2813,28.66696 -64.2813,64.28125 l 0,57.4375 c 0,35.61429 28.667,64.28125 64.2813,64.28125 l 100.7187,0 0,-34.0625 -101.5624,0 c -16.2635,0 -29.375,-13.08037 -29.375,-29.34375 l 0,-59.1875 c 0,-16.26338 13.1115,-29.34375 29.375,-29.34375 l 101.5624,0 0,-34.0625 -100.7187,0 z"
       id="rect3809"
       style="fill:#202f66;fill-opacity:1;stroke:none" />
    <path
       d="m 1641.25,103 c -10.29,0 -17.7812,7.19104 -17.7812,16 l 0,170 34,0 0,-128.0625 120.9687,123.8125 c 3.0498,3.1223 5.283,4.25 10.4687,4.25 10.29,0 17.7813,-7.1911 17.7813,-16 l 0,-170 -34,0 0,128.0625 L 1651.7188,107.25 c -3.0499,-3.12223 -5.283,-4.25 -10.4688,-4.25 z"
       id="path3826"
       style="fill:#202f66;fill-opacity:1;stroke:none" />
  </g>
  <path
     d="M 24.373576,0 C 10.867721,0 0,13.53309 0,30.3125 L 0,157.84375 C 0,174.62316 10.867721,188.125 24.373576,188.125 l 1152.173424,0 c 13.5059,0 24.3736,-13.50184 24.3736,-30.28125 l 0,-127.53125 C 1200.9206,13.53309 1190.0529,0 1176.547,0 L 24.373576,0 z m 0.07546,5.09375 253.621024,0 690.71046,0 2.16311,0 205.52787,0 c 11.2636,0 20.349,11.27023 20.349,25.25 l 0,127.46875 c 0,13.97975 -9.0854,25.21875 -20.349,25.21875 l -205.52787,0 -2.16311,0 -690.71046,0 -253.621024,0 c -11.263525,0 -20.3490433,-11.239 -20.3490433,-25.21875 l 0,-127.46875 c 0,-13.97977 9.0855183,-25.25 20.3490433,-25.25 z"
     id="rect4116"
     style="fill:#ececec;stroke:none" />
</svg>
