<?xml version="1.0" encoding="UTF-8" standalone="no"?>
<!-- Created with Inkscape (http://www.inkscape.org/) -->
<svg xmlns:rdf="http://www.w3.org/1999/02/22-rdf-syntax-ns#" xmlns="http://www.w3.org/2000/svg" height="131.58" width="600" version="1.1" xmlns:cc="http://creativecommons.org/ns#" xmlns:xlink="http://www.w3.org/1999/xlink" xmlns:dc="http://purl.org/dc/elements/1.1/">
 <defs>
  <linearGradient id="linearGradient7072" gradientUnits="userSpaceOnUse" gradientTransform="matrix(-5.2663917e-6,-131.57815,131.57815,-5.2663917e-6,138.14325,131.57936)">
   <stop stop-color="#03193c" offset="0"/>
   <stop stop-color="#152c53" offset="0.49479"/>
   <stop stop-color="#152c53" offset="1"/>
  </linearGradient>
  <linearGradient id="linearGradient7077" gradientUnits="userSpaceOnUse" gradientTransform="matrix(-1.3165979e-6,26.983845,-26.983845,-1.3165979e-6,119.63556,6.0104022)">
   <stop stop-color="#0070ad" offset="0"/>
   <stop stop-color="#152c53" offset="0.84375"/>
   <stop stop-color="#152c53" offset="1"/>
  </linearGradient>
  <linearGradient id="linearGradient7082" gradientUnits="userSpaceOnUse" gradientTransform="matrix(-5.2663917e-6,-131.57815,131.57815,-5.2663917e-6,406.73909,131.57936)">
   <stop stop-color="#114d81" offset="0"/>
   <stop stop-color="#2669a9" offset="0.49479"/>
   <stop stop-color="#2669a9" offset="1"/>
  </linearGradient>
  <linearGradient id="linearGradient7092" gradientUnits="userSpaceOnUse" gradientTransform="matrix(-1.3165979e-6,26.983845,-26.983845,-1.3165979e-6,394.64429,6.0104022)">
   <stop stop-color="#66bae8" offset="0"/>
   <stop stop-color="#2769a9" offset="0.84375"/>
   <stop stop-color="#2769a9" offset="1"/>
  </linearGradient>
 </defs>
 <metadata>
  <rdf:RDF>
   <cc:Work rdf:about="">
    <dc:format>image/svg+xml</dc:format>
    <dc:type rdf:resource="http://purl.org/dc/dcmitype/StillImage"/>
    <dc:title/>
   </cc:Work>
  </rdf:RDF>
 </metadata>
 <path fill="url(#linearGradient7072)" d="M12.613,0c-6.9648,0-12.613,6.188-12.613,13.824v103.93c0,7.6363,5.6482,13.824,12.613,13.824h251.06c6.9648,0,12.6-6.188,12.6-13.824v-103.93c0-7.632-5.63-13.82-12.59-13.82h-251.06z"/>
 <path fill="url(#linearGradient7077)" d="m16.247,6.0169c-5.3849,0-9.7428,6.0432-9.7428,13.482,0,7.452,4.3579,13.495,9.7428,13.495h206.78c5.3586,0,9.7428-6.0432,9.7428-13.495,0,0-4.3843-13.482-9.7428-13.482h-206.78z"/>
 <path fill="url(#linearGradient7082)" d="m226.67,0c-7.2808,0-13.179,6.0959-13.179,13.824v117.76h374.85c7.2808,0,11.665-6.188,11.665-13.824v-117.76h-373.33z"/>
 <path d="m72.05,78.207c0,11.125-7.2545,19.222-22,20.815-10.678,1.1323-26.108-0.21066-33.468-1.0533-0.25015-1.1849-0.44764-2.6727-0.44764-3.8708,0-9.677,5.2137-11.915,10.125-11.915,5.1216,0,13.166,0.89528,19.13,0.89528,6.5962,0,8.5842-2.2382,8.5842-4.3711,0-2.778-2.6332-3.9235-7.7416-4.9109l-14.009-2.685c-11.625-2.238-17.826-10.283-17.826-18.814,0-10.388,7.3466-19.078,21.803-20.671,10.915-1.1849,24.225,0.14482,31.533,1.0533,0.25015,1.2376,0.39498,2.4225,0.39498,3.7128,0,9.6902-5.1084,11.77-10.032,11.77-3.7786,0-9.6375-0.68463-16.339-0.68463-6.7936,0-9.6243,1.8827-9.6243,4.1605,0,2.4357,2.6727,3.4363,6.9385,4.1736l13.363,2.4884c13.706,2.5279,19.617,10.322,19.617,19.907m23.962,11.915c0,5.9642-2.3304,9.3874-13.943,9.3874-1.5404,0-2.8833-0.09218-4.1736-0.28966v-78.97c0-6.0037,2.0276-12.258,13.745-12.258,1.5009,0,2.9887,0.14483,4.3711,0.44765v81.682zm47.503,30.545c1.5404,0.78996,4.6739,1.7379,8.5842,1.8301,6.7673,0.15799,10.441-2.4226,13.166-8.4789l36.206-80.747c-1.4878-0.80312-4.8187-1.6984-7.5046-1.7379-4.6608-0.10533-10.928,0.84261-14.904,10.375l-11.705,27.662-23.001-37.444c-1.4878-0.44764-5.1084-1.0928-7.7416-1.0928-8.1497,0-12.666,2.9755-17.379,8.0971l-22.379,24.422,17.989,28.306c3.331,5.1742,7.6889,7.7943,14.799,7.7943,4.6608,0,8.5316-1.0796,10.322-1.9354l-21.65-32.625,15.34-16.286,25.19,39.524-15.36,32.338z" fill-rule="nonzero" fill="#fbaf34"/>
 <path fill="url(#linearGradient7082)" d="m226.67,0c-7.2808,0-13.179,6.0959-13.179,13.824v117.76h373.32c8.6237,0,13.192-5.2532,13.192-13.824v-117.76h-373.33z"/>
 <path fill="url(#linearGradient7092)" d="m215.76,6.0169c-1.4351,2.2119-2.2777,4.8977-2.2777,7.8074v19.17h373.43v-26.977h-371.15z"/>
 <path d="m241.68,66.946c0,14.996,4.5686,20.025,16.392,20.025h23.093v11.639h-23.738c-8.1102,0-14.338-0.6583-20.868-5.872-6.8858-5.4902-10.243-14.246-10.243-26.345,0-23.659,9.9666-34.653,31.48-34.653h23.37v11.454h-23.093c-11.823,0-16.392,7.1755-16.392,23.751" fill-rule="nonzero" fill="#FFF"/>
 <path d="m314.04,70.766,19.92,0-10.138-25.7-9.7823,25.7zm17.787-39.024,28.504,66.87-15.654,0-6.1353-15.931-29.057,0-5.9642,15.931-14.904,0,28.307-66.87,14.904,0z" fill-rule="nonzero" fill="#FFF"/>
 <path d="m368,91.627c-5.1347-5.398-6.0564-11.27-6.0564-20.118v-39.761h14.061v36.694,2.5937c0,5.5034,0.0922,9.5058,2.3304,12.113,2.9755,3.5416,6.978,4.3843,12.942,4.3843h16.576v11.086h-17.787c-9.6902,0-16.115-0.6583-22.066-6.9911" fill-rule="nonzero" fill="#FFF"/>
 <path d="m426.51,66.946c0,14.996,4.5554,20.025,16.392,20.025h23.093v11.639h-23.751c-8.0971,0-14.325-0.6583-20.855-5.872-6.899-5.4902-10.256-14.246-10.256-26.345,0-23.659,9.9798-34.653,31.493-34.653h23.37v11.454h-23.093c-11.836,0-16.392,7.1755-16.392,23.751" fill-rule="nonzero" fill="#FFF"/>
 <path fill-rule="nonzero" fill="#FFF" d="m476.45,31.743,14.72,0,0,66.87-14.72,0,0-66.87z"/>
 <path d="m516.15,64.62c0,16.299,5.398,23.844,17.972,23.844,12.389,0,18.064-7.5441,18.064-23.291,0-15.733-5.6746-23.277-18.064-23.277-12.113,0-17.972,7.5441-17.972,22.724m17.972-34.179c22.724,0,33.336,11.086,33.336,34.732,0,23.659-10.612,34.837-33.336,34.837-23.001,0-33.336-11.178-33.336-35.482,0-23.001,10.888-34.087,33.336-34.087" fill-rule="nonzero" fill="#FFF"/>
</svg>
