<?xml version="1.0" encoding="UTF-8" standalone="no"?>
<!-- Created with Inkscape (http://www.inkscape.org/) -->
<svg xmlns:rdf="http://www.w3.org/1999/02/22-rdf-syntax-ns#" xmlns="http://www.w3.org/2000/svg" height="104.09" width="600" version="1.1" xmlns:cc="http://creativecommons.org/ns#" xmlns:xlink="http://www.w3.org/1999/xlink" xmlns:dc="http://purl.org/dc/elements/1.1/">
 <defs>
  <linearGradient id="linearGradient7072" gradientUnits="userSpaceOnUse" gradientTransform="matrix(-4.1648589e-6,-104.05691,104.05691,-4.1648589e-6,109.24883,104.0891)">
   <stop stop-color="#03193c" offset="0"/>
   <stop stop-color="#152c53" offset="0.49479"/>
   <stop stop-color="#152c53" offset="1"/>
  </linearGradient>
  <linearGradient id="linearGradient7077" gradientUnits="userSpaceOnUse" gradientTransform="matrix(-1.0412147e-6,21.339831,-21.339831,-1.0412147e-6,94.612265,4.78449)">
   <stop stop-color="#0070ad" offset="0"/>
   <stop stop-color="#152c53" offset="0.84375"/>
   <stop stop-color="#152c53" offset="1"/>
  </linearGradient>
  <linearGradient id="linearGradient7082" gradientUnits="userSpaceOnUse" gradientTransform="matrix(-4.1648589e-6,-104.05691,104.05691,-4.1648589e-6,321.66444,104.0891)">
   <stop stop-color="#114d81" offset="0"/>
   <stop stop-color="#2669a9" offset="0.49479"/>
   <stop stop-color="#2669a9" offset="1"/>
  </linearGradient>
  <linearGradient id="linearGradient7092" gradientUnits="userSpaceOnUse" gradientTransform="matrix(-1.0412147e-6,21.339831,-21.339831,-1.0412147e-6,312.09942,4.78449)">
   <stop stop-color="#66bae8" offset="0"/>
   <stop stop-color="#2769a9" offset="0.84375"/>
   <stop stop-color="#2769a9" offset="1"/>
  </linearGradient>
  <linearGradient id="linearGradient7097" gradientUnits="userSpaceOnUse" gradientTransform="matrix(-4.1648589e-6,-104.09086,104.09086,-4.1648589e-6,529.8701,104.09462)">
   <stop stop-color="#03193c" offset="0"/>
   <stop stop-color="#152c53" offset="0.49479"/>
   <stop stop-color="#152c53" offset="1"/>
  </linearGradient>
  <linearGradient id="linearGradient7102" gradientUnits="userSpaceOnUse" gradientTransform="matrix(-1.0412147e-6,21.358817,-21.358817,-1.0412147e-6,511.86375,4.77772)">
   <stop stop-color="#0070ad" offset="0"/>
   <stop stop-color="#152c53" offset="0.84375"/>
   <stop stop-color="#152c53" offset="1"/>
  </linearGradient>
 </defs>
 <metadata>
  <rdf:RDF>
   <cc:Work rdf:about="">
    <dc:format>image/svg+xml</dc:format>
    <dc:type rdf:resource="http://purl.org/dc/dcmitype/StillImage"/>
    <dc:title/>
   </cc:Work>
  </rdf:RDF>
 </metadata>
 <path fill="url(#linearGradient7072)" d="M9.9748,0.03124c-5.508,0-9.9748,4.8938-9.9748,10.933v82.193c0,6.039,4.4668,10.933,9.9748,10.933h198.55c5.508,0,9.9644-4.8937,9.9644-10.933v-82.193c0-6.039-4.4564-10.933-9.9644-10.933h-198.55z"/>
 <path fill="url(#linearGradient7077)" d="M12.849,4.7896c-4.259,0-7.7054,4.7792-7.7054,10.662,0,5.8933,3.4464,10.672,7.705,10.672h163.53c4.2377,0,7.705-4.7792,7.705-10.672,0,0-3.4672-10.662-7.705-10.662h-163.53z"/>
 <path fill="url(#linearGradient7082)" d="m179.26,0.03124c-5.7579,0-10.423,4.8208-10.423,10.933v93.126h296.44c5.7579,0,9.2252-4.8937,9.2252-10.933v-93.126h-295.25z"/>
 <path d="m56.979,61.88c0,8.7983-5.7371,15.202-17.399,16.462-8.4443,0.89544-20.647-0.1666-26.468-0.83298-0.19783-0.93709-0.35401-2.1137-0.35401-3.0612,0-7.6529,4.1232-9.423,8.0069-9.423,4.0503,0,10.412,0.70802,15.129,0.70802,5.2165,0,6.7887-1.7701,6.7887-3.4568,0-2.197-2.0824-3.1028-6.1223-3.8837l-11.078-2.124c-9.194-1.77-14.098-8.132-14.098-14.879,0-8.2152,5.81-15.087,17.243-16.347,8.6317-0.93709,19.158,0.11453,24.937,0.83297,0.19783,0.97874,0.31236,1.9158,0.31236,2.9362,0,7.6633-4.0399,9.3085-7.9341,9.3085-2.9883,0-7.6217-0.54143-12.921-0.54143-5.3727,0-7.6113,1.4889-7.6113,3.2902,0,1.9262,2.1137,2.7176,5.4872,3.3006l10.568,1.9679c10.839,1.9991,15.514,8.1631,15.514,15.743m18.95,9.423c0,4.7167-1.843,7.4239-11.026,7.4239-1.2182,0-2.2803-0.0729-3.3006-0.22907v-62.452c0-4.7479,1.6035-9.6937,10.87-9.6937,1.187,0,2.3636,0.11454,3.4568,0.35402v64.597zm37.567,24.156c1.2182,0.62473,3.6963,1.3744,6.7887,1.4473,5.3518,0.12494,8.2568-1.9158,10.412-6.7054l28.633-63.858c-1.1766-0.63514-3.8108-1.3432-5.9349-1.3744-3.6859-0.0833-8.6421,0.66637-11.787,8.2048l-9.2564,21.876-18.19-29.612c-1.1766-0.35401-4.0399-0.86421-6.1224-0.86421-6.4451,0-10.016,2.3532-13.744,6.4035l-17.679,19.314,14.223,22.386c2.6343,4.092,6.0807,6.164,11.703,6.164,3.6859,0,6.7471-0.8538,8.1631-1.5306l-17.111-25.801,12.131-12.88,19.92,31.257-12.14,25.573z" fill-rule="nonzero" fill="#fbaf34"/>
 <path fill="url(#linearGradient7082)" d="m179.26,0.03124c-5.7579,0-10.423,4.8208-10.423,10.933v93.126h295.24c6.82,0,10.433-4.1544,10.433-10.933v-93.126h-295.25z"/>
 <path fill="url(#linearGradient7092)" d="m170.63,4.7896c-1.1349,1.7492-1.8013,3.8733-1.8013,6.1744v15.16h295.32v-21.334h-293.52z"/>
 <path fill="url(#linearGradient7097)" d="m469.81,0c-5.5184,0-10.069,4.8312-10.069,10.86v93.23h130.21c5.5184,0,9.9748-4.8937,9.9748-10.912l0.08-93.178h-130.19z"/>
 <path fill="url(#linearGradient7102)" d="m461.47,4.7792c-1.0933,1.7388-1.7284,3.8213-1.7284,6.0807v15.275h134.83v-21.355h-133.1z"/>
 <path d="m511.81,78.091,0-22.886-28.55,0,0,22.886-12.401,0,0-52.998,12.401,0,0,21.688,28.55,0,0-21.688,12.39,0,0,52.998-12.39,0z" fill-rule="nonzero" fill="#FFF"/>
 <path d="m557.9,33.44-13.13,0,0,36.234,13.244,0c14.067,0,18.367-0.56226,18.367-18.044s-4.4043-18.19-18.482-18.19m26.353,37.505c-5.0395,5.6434-12.599,7.1427-25.614,7.1427h-26.03v-52.998h25.926c13.015,0,20.585,1.5931,25.614,7.2364,3.6755,4.1336,4.623,8.892,4.623,19.304s-0.84339,15.181-4.5189,19.315" fill-rule="nonzero" fill="#FFF"/>
 <path d="m191.13,52.975c0,11.859,3.613,15.837,12.963,15.837h18.263v9.2043h-18.773c-6.4139,0-11.339-0.52061-16.503-4.6438-5.4456-4.3419-8.1006-11.266-8.1006-20.835,0-18.711,7.882-27.405,24.895-27.405h18.482v9.0586h-18.263c-9.3501,0-12.963,5.6746-12.963,18.784" fill-rule="nonzero" fill="#FFF"/>
 <path d="m248.35,55.996,15.754,0-8.0174-20.325-7.7362,20.325zm14.067-30.862,22.542,52.883-12.38,0-4.8521-12.599-22.98,0-4.7167,12.599-11.787,0,22.386-52.883,11.787,0z" fill-rule="nonzero" fill="#FFF"/>
 <path d="m291.03,72.494c-4.0607-4.269-4.7896-8.9128-4.7896-15.91v-31.445h11.12v29.019,2.0512c0,4.3523,0.0729,7.5176,1.843,9.5792,2.3531,2.8009,5.5184,3.4672,10.235,3.4672h13.109v8.767h-14.067c-7.6633,0-12.744-0.52061-17.451-5.5288" fill-rule="nonzero" fill="#FFF"/>
 <path d="m337.3,52.975c0,11.859,3.6026,15.837,12.963,15.837h18.263v9.2043h-18.784c-6.4035,0-11.328-0.52061-16.493-4.6438-5.456-4.3419-8.1111-11.266-8.1111-20.835,0-18.711,7.8924-27.405,24.906-27.405h18.482v9.0586h-18.263c-9.3605,0-12.963,5.6746-12.963,18.784" fill-rule="nonzero" fill="#FFF"/>
 <path fill-rule="nonzero" fill="#FFF" d="m376.79,25.135,11.641,0,0,52.883-11.641,0,0-52.883z"/>
 <path d="m408.19,51.135c0,12.89,4.269,18.856,14.213,18.856,9.7978,0,14.285-5.9662,14.285-18.419,0-12.443-4.4876-18.409-14.285-18.409-9.5792,0-14.213,5.9662-14.213,17.971m14.213-27.03c17.971,0,26.364,8.767,26.364,27.467,0,18.711-8.3922,27.551-26.364,27.551-18.19,0-26.364-8.8399-26.364-28.061,0-18.19,8.6108-26.957,26.364-26.957" fill-rule="nonzero" fill="#FFF"/>
</svg>
