<?xml version="1.0" encoding="UTF-8" standalone="no"?>
<svg xmlns:rdf="http://www.w3.org/1999/02/22-rdf-syntax-ns#" xmlns="http://www.w3.org/2000/svg" xmlns:cc="http://creativecommons.org/ns#" xmlns:xlink="http://www.w3.org/1999/xlink" xmlns:dc="http://purl.org/dc/elements/1.1/" height="135.45" width="600" version="1.1">
  <defs>
    <linearGradient id="c" gradientUnits="userSpaceOnUse" gradientTransform="matrix(-.0000054213 -135.45 135.45 -.0000054213 142.21 135.45)" x1="0" x2="1" y1="0" y2="0">
      <stop stop-color="#03193c" offset="0"/>
      <stop stop-color="#152c53" offset=".49479"/>
      <stop stop-color="#152c53" offset="1"/>
    </linearGradient>
    <linearGradient id="b" gradientUnits="userSpaceOnUse" gradientTransform="matrix(-.0000013553 27.777 -27.777 -.0000013553 123.15 6.1871)" x1="0" x2="1" y1="0" y2="0">
      <stop stop-color="#0070ad" offset="0"/>
      <stop stop-color="#152c53" offset=".84375"/>
      <stop stop-color="#152c53" offset="1"/>
    </linearGradient>
    <linearGradient id="a" gradientUnits="userSpaceOnUse" gradientTransform="matrix(-.0000013118 27.777 -26.885 -.0000013553 400.26 6.1871)" x1="0" x2="1" y1="0" y2="0">
      <stop stop-color="#66bae8" offset="0"/>
      <stop stop-color="#2769a9" offset=".84375"/>
      <stop stop-color="#2769a9" offset="1"/>
    </linearGradient>
    <linearGradient id="d" gradientUnits="userSpaceOnUse" gradientTransform="matrix(-.0000051809 -135.45 129.44 -.0000054213 409.88 135.45)" x1="0" x2="1" y1="0" y2="0">
      <stop stop-color="#114d81" offset="0"/>
      <stop stop-color="#2669a9" offset=".49479"/>
      <stop stop-color="#2669a9" offset="1"/>
    </linearGradient>
  </defs>
  <path fill="url(#c)" d="m12.984 0c-7.1697 0-12.984 6.3701-12.984 14.231v106.99c0 7.86 5.8143 14.23 12.984 14.23h258.45c7.17 0 12.97-6.37 12.97-14.23v-106.99c0-7.8596-5.8-14.23-12.97-14.23h-258.45z"/>
  <path fill="url(#b)" d="m16.725 6.1938c-5.544 0-10.03 6.2212-10.03 13.878 0.0003 7.671 4.486 13.892 10.03 13.892h212.86c5.52 0 10.04-6.221 10.04-13.892 0 0-4.52-13.878-10.03-13.878l-212.86-0.0002z"/>
  <path fill="url(#d)" d="m232.74 0c-7.17 0-12.97 6.2751-12.97 14.231v121.22h368.75c7.17 0 11.48-6.37 11.48-14.23v-121.22h-367.27z"/>
  <path fill="#fbaf34" d="m74.168 80.507c0 11.452-7.468 19.783-22.648 21.423-10.992 1.17-26.876-0.21-34.453-1.08-0.257-1.219-0.46-2.751-0.46-3.984 0-9.962 5.367-12.266 10.422-12.266 5.272 0 13.553 0.922 19.693 0.922 6.79 0 8.837-2.304 8.837-4.5 0-2.86-2.711-4.039-7.97-5.055l-14.42-2.765c-11.967-2.304-18.35-10.585-18.35-19.368 0-10.693 7.562-19.638 22.444-21.278 11.236-1.22 24.938 0.149 32.46 1.084 0.257 1.274 0.406 2.494 0.406 3.822 0 9.975-5.258 12.117-10.327 12.117-3.89 0-9.921-0.705-16.819-0.705-6.993 0-9.907 1.938-9.907 4.283 0 2.507 2.751 3.537 7.142 4.296l13.756 2.562c14.109 2.602 20.194 10.625 20.194 20.492m24.667 12.265c0 6.14-2.399 9.668-14.352 9.668-1.586 0-2.968-0.1-4.297-0.3v-81.294c0-6.18 2.088-12.618 14.15-12.618 1.545 0.0001 3.076 0.1492 4.499 0.4609v84.084zm48.895 31.448c1.59 0.81 4.82 1.78 8.84 1.88 6.97 0.16 10.75-2.49 13.55-8.73l37.27-83.121c-1.53-0.826-4.96-1.748-7.72-1.789-4.8-0.108-11.25 0.868-15.34 10.68l-12.05 28.476-23.68-38.545c-1.53-0.461-5.26-1.125-7.97-1.125-8.39 0-13.04 3.063-17.89 8.335l-23.011 25.14 18.511 29.139c3.43 5.327 7.92 8.02 15.24 8.02 4.79 0 8.78-1.11 10.62-1.99l-22.27-33.583 15.79-16.765 25.93 40.686-15.8 33.292z"/>
  <path fill="url(#a)" d="m222.03 6.1938c-1.43 2.2769-2.27 5.0422-2.27 8.0372v19.733h372.06v-27.77l-369.79 0.0003z"/>
  <g fill="#fff">
    <path d="m248.79 68.915c0 15.437 4.7 20.615 16.87 20.615h23.77v11.98h-24.43c-8.35 0-14.76-0.68-21.48-6.044-7.09-5.652-10.55-14.665-10.55-27.12 0-24.356 10.26-35.673 32.41-35.673h24.05v11.792h-23.77c-12.17 0-16.87 7.386-16.87 24.45"/>
    <path d="m323.27 72.847h20.51l-10.44-26.456-10.07 26.456zm18.31-40.172 29.34 68.835h-16.11l-6.32-16.398h-29.91l-6.14 16.398h-15.34l29.14-68.835h15.34z"/>
    <path d="m378.82 94.322c-5.28-5.556-6.23-11.601-6.23-20.709v-40.931h14.47v37.773 2.67c0 5.665 0.1 9.785 2.4 12.469 3.07 3.646 7.19 4.513 13.33 4.513h17.06v11.413h-18.31c-9.98 0-16.59-0.68-22.72-7.198"/>
    <path d="m439.05 68.915c0 15.437 4.69 20.615 16.88 20.615h23.77v11.98h-24.45c-8.34 0-14.75-0.68-21.47-6.044-7.1-5.652-10.56-14.665-10.56-27.12 0-24.356 10.27-35.673 32.42-35.673h24.06v11.792h-23.77c-12.19 0-16.88 7.386-16.88 24.45"/>
    <path d="m490.46 32.677h15.15v68.833h-15.15v-68.833z"/>
    <path d="m531.33 66.52c0 16.779 5.55 24.544 18.5 24.544 12.75 0 18.59-7.766 18.59-23.975 0-16.197-5.84-23.962-18.59-23.962-12.47 0-18.5 7.766-18.5 23.392m18.5-35.184c23.39 0 34.32 11.411 34.32 35.753 0 24.355-10.93 35.862-34.32 35.862-23.68 0-34.32-11.507-34.32-36.526 0-23.678 11.21-35.089 34.32-35.089"/>
  </g>
</svg>
