<?xml version="1.0" encoding="UTF-8" standalone="no"?>
<svg xmlns:rdf="http://www.w3.org/1999/02/22-rdf-syntax-ns#" xmlns="http://www.w3.org/2000/svg" xmlns:cc="http://creativecommons.org/ns#" xmlns:xlink="http://www.w3.org/1999/xlink" xmlns:dc="http://purl.org/dc/elements/1.1/" height="104.09" width="600" version="1.1">
  <defs>
    <linearGradient id="g" gradientUnits="userSpaceOnUse" gradientTransform="matrix(-.0000041648 -104.06 104.06 -.0000041648 109.25 104.09)" x1="0" x2="1" y1="0" y2="0">
      <stop stop-color="#03193c" offset="0"/>
      <stop stop-color="#152c53" offset=".49479"/>
      <stop stop-color="#152c53" offset="1"/>
    </linearGradient>
    <linearGradient id="f" gradientUnits="userSpaceOnUse" gradientTransform="matrix(-.0000010412 21.34 -21.34 -.0000010412 94.611 4.7844)" x1="0" x2="1" y1="0" y2="0">
      <stop stop-color="#0070ad" offset="0"/>
      <stop stop-color="#152c53" offset=".84375"/>
      <stop stop-color="#152c53" offset="1"/>
    </linearGradient>
    <linearGradient id="e" gradientUnits="userSpaceOnUse" gradientTransform="matrix(-.0000041649 -104.06 104.06 -.0000041649 321.66 104.09)" x1="0" x2="1" y1="0" y2="0">
      <stop stop-color="#114d81" offset="0"/>
      <stop stop-color="#2669a9" offset=".49479"/>
      <stop stop-color="#2669a9" offset="1"/>
    </linearGradient>
    <linearGradient id="d" gradientUnits="userSpaceOnUse" gradientTransform="matrix(-.0000010412 21.34 -21.34 -.0000010412 312.1 4.7844)" x1="0" x2="1" y1="0" y2="0">
      <stop stop-color="#66bae8" offset="0"/>
      <stop stop-color="#2769a9" offset=".84375"/>
      <stop stop-color="#2769a9" offset="1"/>
    </linearGradient>
    <linearGradient id="c" gradientUnits="userSpaceOnUse" gradientTransform="matrix(-.0000041648 -104.09 104.09 -.0000041648 529.86 104.09)" x1="0" x2="1" y1="0" y2="0">
      <stop stop-color="#03193c" offset="0"/>
      <stop stop-color="#152c53" offset=".49479"/>
      <stop stop-color="#152c53" offset="1"/>
    </linearGradient>
    <linearGradient id="b" gradientUnits="userSpaceOnUse" gradientTransform="matrix(-.0000010412 21.359 -21.359 -.0000010412 511.86 4.7777)" x1="0" x2="1" y1="0" y2="0">
      <stop stop-color="#0070ad" offset="0"/>
      <stop stop-color="#152c53" offset=".84375"/>
      <stop stop-color="#152c53" offset="1"/>
    </linearGradient>
    <linearGradient id="a" gradientUnits="userSpaceOnUse" xlink:href="#e" gradientTransform="matrix(-.0000041648 -104.06 104.06 -.0000041648 321.66 104.09)" x1="0" x2="1" y1="0" y2="0"/>
  </defs>
  <path fill="url(#g)" d="m9.9747 0.03124c-5.5079 0-9.9747 4.8938-9.9747 10.933v82.192c0 6.039 4.4668 10.934 9.9747 10.934h198.55c5.51 0 9.97-4.894 9.97-10.934v-82.192c0-6.0388-4.46-10.933-9.97-10.933l-198.55 0.00024z"/>
  <path fill="url(#f)" d="m12.849 4.7896c-4.2591 0-7.7054 4.7791-7.7054 10.661 0 5.894 3.4463 10.672 7.7044 10.672h163.53c4.23 0 7.7-4.779 7.7-10.672 0 0-3.47-10.661-7.7-10.661l-163.53-0.0004z"/>
  <path fill="url(#a)" d="m179.26 0.03124c-5.76 0-10.42 4.8208-10.42 10.933v93.126h296.43c5.76 0 9.23-4.894 9.23-10.934v-93.125l-295.25 0.00024z"/>
  <path fill="#fbaf34" d="m56.978 61.879c0 8.799-5.737 15.202-17.398 16.462-8.445 0.896-20.647-0.166-26.468-0.833-0.198-0.937-0.354-2.113-0.354-3.061 0-7.653 4.123-9.423 8.007-9.423 4.05 0 10.412 0.708 15.129 0.708 5.216 0 6.788-1.77 6.788-3.457 0-2.197-2.082-3.102-6.122-3.883l-11.078-2.124c-9.194-1.77-14.098-8.132-14.098-14.879 0-8.215 5.81-15.087 17.243-16.347 8.632-0.937 19.158 0.115 24.937 0.833 0.198 0.979 0.312 1.916 0.312 2.936 0 7.663-4.04 9.309-7.934 9.309-2.988 0-7.622-0.542-12.921-0.542-5.372 0-7.611 1.489-7.611 3.29 0 1.927 2.114 2.718 5.487 3.301l10.568 1.968c10.839 1.999 15.514 8.163 15.514 15.743m18.95 9.423c0 4.716-1.843 7.423-11.026 7.423-1.218 0-2.28-0.072-3.301-0.229v-62.451c0-4.748 1.604-9.6937 10.87-9.6937 1.187 0 2.364 0.1146 3.457 0.3541v64.597zm37.571 24.155c1.21 0.625 3.69 1.375 6.78 1.448 5.36 0.125 8.26-1.916 10.42-6.706l28.63-63.857c-1.18-0.635-3.81-1.343-5.94-1.374-3.68-0.084-8.64 0.666-11.78 8.204l-9.26 21.876-18.19-29.612c-1.18-0.354-4.04-0.864-6.12-0.864-6.45 0-10.017 2.353-13.745 6.404l-17.679 19.313 14.223 22.386c2.634 4.092 6.08 6.164 11.701 6.164 3.69 0 6.75-0.854 8.16-1.53l-17.106-25.801 12.126-12.88 19.92 31.257-12.14 25.572z"/>
  <path fill="url(#a)" d="m179.26 0.03124c-5.76 0-10.42 4.8208-10.42 10.933v93.126h295.23c6.82 0 10.44-4.155 10.44-10.934v-93.125l-295.25 0.00024z"/>
  <path fill="url(#d)" d="m170.63 4.7896c-1.14 1.7491-1.8 3.8732-1.8 6.1744v15.16h295.31v-21.334h-293.51z"/>
  <path fill="url(#c)" d="m469.81 0c-5.52 0-10.07 4.8312-10.07 10.86v93.23h130.21c5.51 0 9.97-4.895 9.97-10.913l0.08-93.177h-130.19z"/>
  <path fill="url(#b)" d="m461.47 4.7792c-1.1 1.7387-1.73 3.8212-1.73 6.0808v15.275h134.83v-21.355l-133.1-0.0001z"/>
  <g fill="#fff">
    <path d="m511.81 78.09v-22.886h-28.55v22.886h-12.41v-52.997h12.41v21.688h28.55v-21.688h12.38v52.997h-12.38z"/>
    <path d="m557.89 33.44h-13.13v36.233h13.25c14.07 0 18.37-0.562 18.37-18.043 0-17.482-4.41-18.19-18.49-18.19m26.36 37.504c-5.04 5.644-12.6 7.143-25.62 7.143h-26.03v-52.998h25.93c13.01 0 20.58 1.594 25.61 7.237 3.68 4.133 4.63 8.892 4.63 19.304s-0.85 15.18-4.52 19.314"/>
    <path d="m191.13 52.974c0 11.859 3.61 15.837 12.96 15.837h18.26v9.205h-18.77c-6.41 0-11.34-0.521-16.5-4.644-5.45-4.342-8.1-11.266-8.1-20.835 0-18.711 7.88-27.405 24.89-27.405h18.48v9.059h-18.26c-9.35 0-12.96 5.674-12.96 18.784"/>
    <path d="m248.35 55.995h15.75l-8.02-20.324-7.73 20.324zm14.06-30.861 22.55 52.882h-12.38l-4.86-12.599h-22.98l-4.71 12.599h-11.79l22.39-52.882h11.78z"/>
    <path d="m291.03 72.493c-4.06-4.269-4.79-8.912-4.79-15.91v-31.444h11.12v29.018 2.052c0 4.352 0.07 7.517 1.84 9.579 2.35 2.801 5.52 3.467 10.24 3.467h13.1v8.767h-14.06c-7.67 0-12.75-0.521-17.45-5.529"/>
    <path d="m337.3 52.974c0 11.859 3.6 15.837 12.96 15.837h18.26v9.205h-18.78c-6.4 0-11.33-0.521-16.49-4.644-5.46-4.342-8.12-11.266-8.12-20.835 0-18.711 7.9-27.405 24.91-27.405h18.48v9.059h-18.26c-9.36 0-12.96 5.674-12.96 18.784"/>
    <path d="m376.79 25.135h11.64v52.882h-11.64v-52.882z"/>
    <path d="m408.19 51.135c0 12.889 4.27 18.855 14.21 18.855 9.8 0 14.28-5.966 14.28-18.418 0-12.443-4.48-18.409-14.28-18.409-9.58 0-14.21 5.966-14.21 17.971m14.21-27.03c17.97 0 26.36 8.767 26.36 27.467 0 18.71-8.39 27.55-26.36 27.55-18.19 0-26.36-8.84-26.36-28.06 0-18.19 8.61-26.957 26.36-26.957"/>
  </g>
</svg>
