<?xml version="1.0" encoding="UTF-8" standalone="no"?>
<svg xmlns:rdf="http://www.w3.org/1999/02/22-rdf-syntax-ns#" xmlns="http://www.w3.org/2000/svg" xmlns:cc="http://creativecommons.org/ns#" xmlns:xlink="http://www.w3.org/1999/xlink" xmlns:dc="http://purl.org/dc/elements/1.1/" height="30.01mm" width="169.33mm" version="1.1" viewBox="0 0 600.01183 106.33663">
  <defs>
    <linearGradient id="f" gradientUnits="userSpaceOnUse" gradientTransform="matrix(-.0000010621 21.821 -21.821 -.0000010621 509.3 4.8753)" x1="0" x2="1" y1="0" y2="0">
      <stop stop-color="#0070ad" offset="0"/>
      <stop stop-color="#152c53" offset=".84375"/>
      <stop stop-color="#152c53" offset="1"/>
    </linearGradient>
    <linearGradient id="e" gradientUnits="userSpaceOnUse" gradientTransform="matrix(-.0000042483 -106.34 106.34 -.0000042483 528.96 106.34)" x1="0" x2="1" y1="0" y2="0">
      <stop stop-color="#03193c" offset="0"/>
      <stop stop-color="#152c53" offset=".49479"/>
      <stop stop-color="#152c53" offset="1"/>
    </linearGradient>
    <linearGradient id="d" y2="776.89" gradientUnits="userSpaceOnUse" gradientTransform="matrix(-6.0817e-7 21.802 -12.484 -.0000010621 317.8 4.8698)" y1="776.89" x1="0" x2="1">
      <stop stop-color="#66bae8" offset="0"/>
      <stop stop-color="#2769a9" offset=".84375"/>
      <stop stop-color="#2769a9" offset="1"/>
    </linearGradient>
    <linearGradient id="c" gradientUnits="userSpaceOnUse" gradientTransform="matrix(-.0000024545 -106.31 61.42 -.0000042483 323.05 106.32)" x1="0" x2="1" y1="0" y2="0">
      <stop stop-color="#114d81" offset="0"/>
      <stop stop-color="#2669a9" offset=".49479"/>
      <stop stop-color="#2669a9" offset="1"/>
    </linearGradient>
    <linearGradient id="a" gradientUnits="userSpaceOnUse" gradientTransform="matrix(-.0000010621 21.802 -21.802 -.0000010621 96.648 4.8698)" x1="0" x2="1" y1="0" y2="0">
      <stop stop-color="#006EAB" offset="0"/>
      <stop stop-color="#005385" offset=".299"/>
      <stop stop-color="#00375D" offset=".6574"/>
      <stop stop-color="#002C4E" offset=".8438"/>
      <stop stop-color="#002C4E" offset="1"/>
    </linearGradient>
    <linearGradient id="b" y2="776.69" gradientUnits="userSpaceOnUse" gradientTransform="matrix(-.0000042483 -106.31 106.31 -.0000042483 111.6 106.32)" y1="776.69" x1="0" x2="1">
      <stop stop-color="#03193c" offset="0"/>
      <stop stop-color="#152c53" offset=".49479"/>
      <stop stop-color="#152c53" offset="1"/>
    </linearGradient>
  </defs>
  <path fill="url(#b)" d="m10.196 0.027103c-5.6396 0-10.196 4.9918-10.196 11.163v83.969c0 6.171 4.5564 11.161 10.196 11.161h202.83c5.61 0 10.18-4.99 10.18-11.161v-83.969c0-6.1716-4.57-11.163-10.18-11.163l-202.83-0.000537z"/>
  <path fill="url(#a)" d="m13.114 4.8807c-4.3442 0-7.8704 4.8857-7.8704 10.896 0 6.023 3.5262 10.897 7.8704 10.897h167.07c4.34 0 7.87-4.874 7.87-10.897 0 0-3.53-10.896-7.87-10.896l-167.07-0.0003z"/>
  <path fill="#f8b322" d="m58.201 63.193c0 8.985-5.852 15.527-17.778 16.813-8.613 0.924-21.094-0.158-27.031-0.849-0.202-0.956-0.361-2.156-0.361-3.122 0-7.828 4.205-9.622 8.178-9.622 4.132 0 10.631 0.71 15.453 0.71 5.331 0 6.935-1.794 6.935-3.526 0-2.241-2.124-3.165-6.257-3.972l-11.32-2.166c-9.389-1.805-14.402-8.306-14.402-15.198 0-8.39 5.937-15.411 17.61-16.697 8.836-0.966 19.585 0.118 25.478 0.84 0.202 0.998 0.33 1.965 0.33 3.005 0 7.828-4.132 9.517-8.103 9.517-3.06 0-7.786-0.563-13.203-0.563-5.502 0-7.785 1.519-7.785 3.366 0 1.966 2.167 2.773 5.608 3.367l10.802 2.008c11.076 2.049 15.846 8.348 15.846 16.09m19.362 9.633c0 4.812-1.891 7.584-11.269 7.584-1.243 0-2.326-0.085-3.367-0.244v-63.79c0-4.853 1.636-9.9195 11.109-9.9195 1.201 0 2.401 0.1275 3.527 0.3718v66zm38.377 24.673c1.24 0.636 3.77 1.401 6.94 1.487 5.46 0.116 8.42-1.966 10.63-6.861l29.25-65.245c-1.2-0.636-3.88-1.359-6.06-1.401-3.77-0.075-8.82 0.679-12.04 8.39l-9.46 22.347-18.58-30.249c-1.2-0.361-4.14-0.882-6.26-0.882-6.57 0-10.23 2.401-14.04 6.531l-18.055 19.746 14.53 22.867c2.687 4.174 6.212 6.298 11.945 6.298 3.78 0 6.91-0.882 8.35-1.561l-17.492-26.362 12.402-13.158 20.34 31.935-12.4 26.118z"/>
  <path fill="url(#c)" d="m180.52 0.027103c-3.4 0-6.16 4.9175-6.16 11.163v95.13h291.94c3.4 0 5.44-4.99 5.44-11.163v-95.13l-291.22-0.000537z"/>
  <path fill="url(#d)" d="m175.42 4.8807c-0.67 1.7843-1.06 3.9511-1.06 6.3083v15.486h292.09v-21.795l-291.03 0.0002z"/>
  <g fill="#fff">
    <path d="m206.18 35.857c-5.9 0-8.67 2.093-8.67 7.031 0 3.888 2.4 5.83 7.11 5.83h14.95c11.96 0 17.11 3.962 17.11 15.167 0 11.291-6.05 16.069-18.76 16.069h-30.05v-9.558h28.25c5.99 0 8.74-1.423 8.74-6.065 0-4.78-2.53-6.203-7.99-6.203h-13.3c-12.26 0-17.86-4.63-17.86-15.39 0-11.662 6.05-16.451 18.82-16.451h29.53v9.569h-27.88z"/>
    <path d="m253.59 35.857v15.847h13.75c6.82 0 10.09-2.538 10.09-7.923 0-5.98-3.27-7.924-10.77-7.924h-13.07zm13.23-9.569c7.34 0 12.48 0.606 15.78 2.687 4.77 3.069 7.39 8.157 7.39 14.804 0 6.427-2.02 10.994-6.21 13.978-4.55 3.219-9.79 3.441-16.51 3.441h-13.68v18.756h-11.29v-53.667h24.52z"/>
    <path d="m305.4 52.668c0 13.085 4.33 19.139 14.43 19.139 9.94 0 14.5-6.054 14.5-18.692 0-12.628-4.56-18.682-14.5-18.682-9.72 0-14.43 6.053-14.43 18.235m14.43-27.435c18.22 0 26.76 8.901 26.76 27.881 0 18.989-8.54 27.953-26.76 27.953-18.46 0-26.76-8.964-26.76-28.474 0-18.459 8.73-27.36 26.76-27.36"/>
    <path d="m362.93 35.857v13.531h13.83c6.73 0 10.02-1.348 10.02-6.808 0-5.523-3.29-6.723-10.02-6.723h-13.83zm16.53-9.569c12.7 0 18.76 4.865 18.76 16.143 0 8.307-3.89 13.606-10.84 15.103l13.37 22.422h-12.7l-11.81-21.073h-13.31v21.073h-11.28v-53.668h27.81z"/>
    <path d="m400.83 35.707v-9.346h46.42v9.346h-17.41v44.246h-11.66v-44.246h-17.35z"/>
  </g>
  <path fill="url(#e)" d="m468.09-0.00013733c-5.65 0-10.28 4.928-10.28 11.088v95.252h131.95c5.63 0 10.25-5.01 10.25-11.155v-95.185l-131.92 0.0010027z"/>
  <path fill="url(#f)" d="m459.63 4.8807c-1.11 1.763-1.77 3.9086-1.77 6.2133v15.6h136.66v-21.815l-134.9-0.0006z"/>
  <path fill="#fff" d="m510.76 79.771v-23.088h-28.82v23.088h-12.5v-53.485h12.5v21.89h28.82v-21.89h12.51v53.485h-12.51z"/>
  <path fill="#fff" d="m557.25 34.712h-13.24v36.568h13.34c14.21 0 18.55-0.574 18.55-18.204 0-17.641-4.45-18.364-18.65-18.364m26.59 37.853c-5.08 5.693-12.72 7.212-25.84 7.212h-26.28v-53.486h26.17c13.14 0 20.77 1.603 25.84 7.296 3.73 4.175 4.68 8.975 4.68 19.49 0 10.504-0.86 15.315-4.57 19.489"/>
</svg>
