<?xml version="1.0" encoding="UTF-8" standalone="no"?>
<svg xmlns:rdf="http://www.w3.org/1999/02/22-rdf-syntax-ns#" xmlns="http://www.w3.org/2000/svg" xmlns:cc="http://creativecommons.org/ns#" xmlns:dc="http://purl.org/dc/elements/1.1/" height="23.283mm" width="169.33mm" version="1.1" viewBox="0 0 600.01177 82.498943">
  <defs>
    <linearGradient id="n" gradientUnits="userSpaceOnUse" gradientTransform="matrix(-.0000013729 16.927 -16.927 -.0000013729 530.57 3.7787)" x1="0" x2="1" y1="0" y2="0">
      <stop stop-color="#0070ad" offset="0"/>
      <stop stop-color="#152c53" offset=".84375"/>
      <stop stop-color="#152c53" offset="1"/>
    </linearGradient>
    <linearGradient id="m" gradientUnits="userSpaceOnUse" gradientTransform="matrix(-.0000041188 -82.497 82.497 -.0000041188 544.85 82.49)" x1="0" x2="1" y1="0" y2="0">
      <stop stop-color="#03193c" offset="0"/>
      <stop stop-color="#152c53" offset=".49479"/>
      <stop stop-color="#152c53" offset="1"/>
    </linearGradient>
    <linearGradient id="l" gradientUnits="userSpaceOnUse" gradientTransform="matrix(-.0000013729 16.927 -16.927 -.0000013729 417.8 3.7887)" x1="0" x2="1" y1="0" y2="0">
      <stop stop-color="#58585a" offset="0"/>
      <stop offset=".84375"/>
      <stop offset="1"/>
    </linearGradient>
    <linearGradient id="k" gradientUnits="userSpaceOnUse" gradientTransform="matrix(-.0000013729 16.912 -16.912 -.0000013729 246.49 3.7887)" x1="0" x2="1" y1="0" y2="0">
      <stop stop-color="#66bae8" offset="0"/>
      <stop stop-color="#2769a9" offset=".84375"/>
      <stop stop-color="#2769a9" offset="1"/>
    </linearGradient>
    <linearGradient id="j" gradientUnits="userSpaceOnUse" gradientTransform="matrix(-.0000041188 -82.47 82.47 -.0000041188 255.16 82.49)" x1="0" x2="1" y1="0" y2="0">
      <stop stop-color="#114d81" offset="0"/>
      <stop stop-color="#2669a9" offset=".49479"/>
      <stop stop-color="#2669a9" offset="1"/>
    </linearGradient>
    <linearGradient id="i" gradientUnits="userSpaceOnUse" gradientTransform="matrix(-.0000013729 16.912 -16.912 -.0000013729 74.971 3.7887)" x1="0" x2="1" y1="0" y2="0">
      <stop stop-color="#0070ad" offset="0"/>
      <stop stop-color="#152c53" offset=".84375"/>
      <stop stop-color="#152c53" offset="1"/>
    </linearGradient>
    <linearGradient id="h" gradientUnits="userSpaceOnUse" gradientTransform="matrix(-.0000041188 -82.47 82.47 -.0000041188 86.572 82.49)" x1="0" x2="1" y1="0" y2="0">
      <stop stop-color="#03193c" offset="0"/>
      <stop stop-color="#152c53" offset=".49479"/>
      <stop stop-color="#152c53" offset="1"/>
    </linearGradient>
  </defs>
  <path d="m7.9102 0.028662c-4.3801 0-7.9102 3.88-7.9102 8.6601v65.141c0 4.78 3.5301 8.67 7.9102 8.67h157.33c4.38 0 7.91-3.89 7.91-8.67v-65.141c0-4.7803-3.53-8.6603-7.91-8.6603l-157.33-0.000038z" fill="url(#h)"/>
  <path d="m10.17 3.7987c-3.3799 0-6.0899 3.7801-6.0899 8.4403 0 4.67 2.71 8.46 6.0899 8.46h129.6c3.37 0 6.11-3.79 6.11-8.46 0 0-2.74-8.4403-6.11-8.4403h-129.6z" fill="url(#i)"/>
  <path d="m45.151 49.04c0 6.98-4.55 12.06-13.79 13.04-6.701 0.72-16.381-0.12-20.981-0.66-0.15-0.74-0.27-1.67-0.27-2.41 0-6.08 3.25-7.47 6.34-7.47 3.2 0 8.25 0.55 11.991 0.55 4.13 0 5.38-1.4 5.38-2.73 0-1.75-1.65-2.46-4.86-3.09l-8.771-1.68c-7.29-1.4-11.18-6.441-11.18-11.791 0.0002-6.51 4.6-11.96 13.66-12.95 6.851-0.75 15.181 0.09 19.771 0.65 0.15 0.78 0.25 1.52 0.25 2.33 0 6.07-3.2 7.38-6.29 7.38-2.38 0-6.04-0.43-10.24-0.43-4.261 0-6.041 1.18-6.041 2.61 0 1.52 1.69 2.15 4.36 2.62l8.381 1.55c8.58 1.59 12.29 6.481 12.29 12.481m15.01 7.47c0 3.73-1.46 5.89-8.74 5.89-0.96 0-1.8-0.07-2.61-0.19v-49.501c0-3.7602 1.28-7.6802 8.62-7.6802 0.94 0 1.87 0.09 2.73 0.28v51.201zm29.781 19.14c0.96 0.51 2.93 1.1 5.38 1.15 4.23 0.1 6.538-1.52 8.258-5.31l22.68-50.621c-0.94-0.49-3.02-1.06-4.7-1.09-2.92-0.05-6.85 0.54-9.33 6.51l-7.35 17.341-14.418-23.471c-0.93-0.28-3.19-0.68-4.84-0.68-5.11 0-7.95 1.87-10.901 5.07l-14.01 15.31 11.26 17.731c2.1 3.24 4.831 4.89 9.281 4.89 2.93 0 5.36-0.67 6.48-1.21l-13.581-20.441 9.631-10.21 15.77 24.781-9.61 20.25z" fill="#fbaf34"/>
  <path d="m143.52 0.028662c-4.56 0-8.26 3.81-8.26 8.6601v73.811h232.47c4.57 0 7.31-3.89 7.31-8.67v-73.801l-231.52-0.000338z" fill="url(#j)"/>
  <path d="m136.68 3.7987c-0.89 1.3701-1.42 3.0601-1.42 4.8901v12.01h229.52v-16.9l-228.1-0.0003z" fill="url(#k)"/>
  <g fill="#fff">
    <path d="m159.95 27.829c-4.59 0-6.73 1.62-6.73 5.45 0 3.02 1.85 4.53 5.5 4.53h11.61c9.28 0 13.27 3.06 13.27 11.771 0 8.75-4.69 12.46-14.55 12.46h-23.31v-7.43h21.92c4.64 0 6.78-1.09 6.78-4.69 0-3.71-1.97-4.81-6.2-4.81h-10.33c-9.5 0-13.85-3.591-13.85-11.941 0-9.05 4.7-12.77 14.61-12.77h22.9v7.43h-21.62z"/>
    <path d="m196.77 27.829v12.29h10.67c5.28 0 7.82-1.97 7.82-6.14 0-4.64-2.54-6.15-8.34-6.15h-10.15zm10.27-7.43c5.68 0 9.68 0.47 12.23 2.09 3.71 2.39 5.74 6.33 5.74 11.49 0 4.98-1.56 8.52-4.82 10.851-3.53 2.48-7.59 2.66-12.81 2.66h-10.61v14.55h-8.76v-41.641h19.03z"/>
    <path d="m236.96 40.879c0 10.141 3.36 14.841 11.19 14.841 7.72 0 11.26-4.7 11.26-14.501 0-9.79-3.54-14.5-11.26-14.5-7.54 0-11.19 4.71-11.19 14.16m11.19-21.28c14.16 0 20.76 6.9 20.76 21.62 0 14.731-6.6 21.691-20.76 21.691-14.32 0-20.76-6.96-20.76-22.091 0-14.32 6.78-21.22 20.76-21.22"/>
    <path d="m281.51 27.829v10.49h10.73c5.22 0 7.77-1.05 7.77-5.27 0-4.29-2.55-5.22-7.77-5.22h-10.73zm12.82-7.43c9.86 0 14.55 3.78 14.55 12.54 0 6.43-3.02 10.541-8.41 11.711l10.37 17.39h-9.85l-9.16-16.35h-10.32v16.35h-8.76v-41.641h21.58z"/>
    <path d="m310.91 27.709v-7.25h36.01v7.25h-13.51v34.331h-9.04v-34.331h-13.46z"/>
  </g>
  <path d="m508.37 73.84c0 4.78-3.6 8.65-7.96 8.65h-144.63v-73.891c0-4.7803 3.6-8.5903 7.97-8.5903l144.62-0.0000388v73.831z"/>
  <path d="m357.14 3.7887c-0.86 1.3701-1.37 3.0201-1.37 4.8201v12.11h148.29v-16.93l-146.92-0.0003z" fill="url(#l)"/>
  <path fill="#fff" d="m428.09 20.419c-5.42 5.45-12.29 10.76-21.43 10.76l-5.46 7.77 10.86-0.01-7.93 11.271h-10.86l-8.3 11.84h-15.31l29.24-41.631h29.19z"/>
  <path fill="#ee2d27" d="m428.76 59.01 20.04 1.33-0.08 0.11-26.13 1.59 8.49-12.11 23.97 1.47-0.07 0.11-21.94 1.43-0.08 0.11 20.01 1.33-0.08 0.11-21.95 1.43-0.07 0.11 20.02 1.33-0.09 0.11-21.96 1.44-0.08 0.1z"/>
  <path fill="#ee2d27" d="m475.71 21.929-33.34 1.5-0.08 0.1 31.41 1.25-0.07 0.09-33.35 1.51-0.06 0.11 31.42 1.24-0.09 0.09-33.34 1.53-0.08 0.09 31.41 1.25-0.07 0.1-33.33 1.51-0.08 0.11 31.41 1.23-0.07 0.11-33.35 1.51-0.07 0.1 31.4 1.25-0.05 0.1-33.36 1.51-0.06 0.09 31.4 1.27-0.07 0.08-33.36 1.49-0.04 0.13 31.4 1.23-0.07 0.11-33.35 1.501-0.07 0.11 31.4 1.26-0.07 0.1-33.33 1.48-0.07 0.11 31.4 1.25-0.09 0.11-37.57 1.69 20.95-29.811 35.4 1.4-0.06 0.11z"/>
  <path d="m497.66-0.001339c-4.38 0-7.98 3.82-7.98 8.6101v73.891h102.37c4.36 0 7.96-3.89 7.96-8.65v-73.851l-102.35-0.000339z" fill="url(#m)"/>
  <path d="m491.05 3.7887c-0.86 1.3701-1.37 3.0201-1.37 4.8201v12.11h106.02v-16.93l-104.65-0.0003z" fill="url(#n)"/>
  <path d="m530.76 61.88v-17.91h-22.35v17.91h-9.71v-41.491h9.71v16.99h22.35v-16.99h9.71v41.491h-9.71z" fill="#fff"/>
  <path d="m566.84 26.929h-10.28v28.361h10.36c11.03 0 14.39-0.44 14.39-14.111 0-13.69-3.45-14.25-14.47-14.25m20.64 29.361c-3.94 4.41-9.86 5.59-20.06 5.59h-20.38v-41.491h20.29c10.19 0 16.12 1.25 20.06 5.67 2.89 3.23 3.63 6.96 3.63 15.12 0 8.141-0.68 11.871-3.54 15.111" fill="#fff"/>
</svg>
