<?xml version="1.0" encoding="UTF-8" standalone="no"?>
<svg xmlns:rdf="http://www.w3.org/1999/02/22-rdf-syntax-ns#" xmlns="http://www.w3.org/2000/svg" xmlns:cc="http://creativecommons.org/ns#" xmlns:xlink="http://www.w3.org/1999/xlink" xmlns:dc="http://purl.org/dc/elements/1.1/" enable-background="new 0 0 595.276 841.89" xml:space="preserve" height="93.975" viewBox="0 0 600 93.97525" width="600" version="1.1" y="0px" x="0px"> <defs> <linearGradient id="l" gradientUnits="userSpaceOnUse" gradientTransform="matrix(-9.3862e-7 19.284 -19.284 -9.3862e-7 519.83 4.3087)" x1="0" x2="1" y1="0" y2="0"> <stop stop-color="#0070ad" offset="0"/> <stop stop-color="#152c53" offset=".84375"/> <stop stop-color="#152c53" offset="1"/> </linearGradient> <linearGradient id="k" gradientUnits="userSpaceOnUse" gradientTransform="matrix(-.0000037544 -93.977 93.977 -.0000037544 537.21 93.976)" x1="0" x2="1" y1="0" y2="0"> <stop stop-color="#03193c" offset="0"/> <stop stop-color="#152c53" offset=".49479"/> <stop stop-color="#152c53" offset="1"/> </linearGradient> <linearGradient id="j" y2="776.89" gradientUnits="userSpaceOnUse" gradientTransform="matrix(-6.9026e-7 19.267 -14.169 -9.3862e-7 316.89 4.3038)" y1="776.89" x1="0" x2="1"> <stop stop-color="#66bae8" offset="0"/> <stop stop-color="#2769a9" offset=".84375"/> <stop stop-color="#2769a9" offset="1"/> </linearGradient> <linearGradient id="i" gradientUnits="userSpaceOnUse" gradientTransform="matrix(-.0000027610 -93.948 69.089 -.0000037544 321.35 93.962)" x1="0" x2="1" y1="0" y2="0"> <stop stop-color="#114d81" offset="0"/> <stop stop-color="#2669a9" offset=".49479"/> <stop stop-color="#2669a9" offset="1"/> </linearGradient> <linearGradient id="g" gradientUnits="userSpaceOnUse" gradientTransform="matrix(-9.3862e-7 19.267 -19.267 -9.3862e-7 85.412 4.3038)" x1="0" x2="1" y1="0" y2="0"> <stop stop-color="#006EAB" offset="0"/> <stop stop-color="#005385" offset=".299"/> <stop stop-color="#00375D" offset=".6574"/> <stop stop-color="#002C4E" offset=".8438"/> <stop stop-color="#002C4E" offset="1"/> </linearGradient> <linearGradient id="h" y2="776.69" gradientUnits="userSpaceOnUse" gradientTransform="matrix(-.0000037544 -93.948 93.948 -.0000037544 98.627 93.962)" y1="776.69" x1="0" x2="1"> <stop stop-color="#03193c" offset="0"/> <stop stop-color="#152c53" offset=".49479"/> <stop stop-color="#152c53" offset="1"/> </linearGradient> <clipPath id="m"> <use xlink:href="#n" height="841.89001" width="595.276" y="0" x="0" overflow="visible"/> </clipPath> <rect id="n" y="499.24" x="233.26" height="13.94" width="69.201"/> </defs> <path fill="url(#h)" d="m9.0107 0.0241c-4.984 0-9.0107 4.4115-9.0107 9.8648v74.207c0 5.453 4.0267 9.864 9.0107 9.864h179.25c4.97 0 9-4.411 9-9.864v-74.207c0-5.4539-4.03-9.8654-9-9.8654l-179.25-0.00007z"/> <path fill="url(#g)" d="m11.589 4.3135c-3.8387 0-6.955 4.3176-6.955 9.6295 0 5.323 3.1163 9.63 6.955 9.63h147.65c3.83 0 6.95-4.307 6.95-9.63 0 0-3.12-9.6295-6.95-9.6295h-147.65z"/> <path fill="#f8b322" d="m51.436 55.846c0 7.941-5.173 13.723-15.712 14.859-7.612 0.817-18.642-0.139-23.889-0.75-0.178-0.845-0.319-1.905-0.319-2.759 0-6.918 3.716-8.504 7.227-8.504 3.652 0 9.395 0.628 13.657 0.628 4.712 0 6.128-1.586 6.128-3.116 0-1.98-1.877-2.797-5.528-3.51l-10.005-1.915c-8.298-1.595-12.728-7.34-12.728-13.431 0-7.414 5.247-13.619 15.563-14.755 7.809-0.855 17.308 0.103 22.516 0.742 0.179 0.882 0.292 1.736 0.292 2.655 0 6.918-3.652 8.411-7.161 8.411-2.704 0-6.881-0.498-11.668-0.498-4.862 0-6.88 1.343-6.88 2.975 0 1.737 1.915 2.451 4.956 2.976l9.546 1.775c9.789 1.81 14.005 7.377 14.005 14.219m17.11 8.513c0 4.253-1.671 6.702-9.959 6.702-1.099 0-2.055-0.075-2.976-0.215v-56.375c0-4.289 1.446-8.766 9.818-8.766 1.062 0 2.122 0.1126 3.117 0.3285v58.328zm33.914 21.804c1.1 0.563 3.33 1.239 6.14 1.315 4.82 0.102 7.44-1.738 9.39-6.064l25.85-57.66c-1.06-0.562-3.43-1.201-5.36-1.238-3.32-0.066-7.79 0.6-10.64 7.414l-8.36 19.749-16.42-26.732c-1.06-0.319-3.652-0.779-5.529-0.779-5.81 0-9.039 2.121-12.408 5.772l-15.956 17.45 12.84 20.209c2.375 3.689 5.491 5.566 10.559 5.566 3.341 0 6.101-0.78 7.377-1.38l-15.458-23.297 10.963-11.629 17.972 28.223-10.96 23.081z"/> <path fill="url(#i)" d="m161.02 0.0241c-3.82 0-6.93 4.3459-6.93 9.8648v84.071h328.4c3.81 0 6.11-4.411 6.11-9.865v-84.071l-327.58-0.00047z"/> <path fill="url(#j)" d="m155.29 4.3135c-0.75 1.5768-1.2 3.4917-1.2 5.5753v13.685h331.51v-19.261h-330.31z"/> <g fill="#fff"> <path d="m182.21 31.689c-5.21 0-7.66 1.849-7.66 6.213 0 3.436 2.12 5.153 6.28 5.153h13.22c10.56 0 15.12 3.501 15.12 13.404 0 9.978-5.35 14.201-16.58 14.201h-26.56v-8.447h24.97c5.29 0 7.72-1.258 7.72-5.361 0-4.224-2.24-5.481-7.06-5.481h-11.76c-10.83 0-15.78-4.092-15.78-13.601 0-10.306 5.35-14.539 16.64-14.539h26.09v8.457h-24.64z"/> <path d="m224.11 31.689v14.005h12.15c6.03 0 8.92-2.244 8.92-7.003 0-5.284-2.89-7.002-9.52-7.002h-11.55zm11.69-8.457c6.49 0 11.03 0.535 13.94 2.375 4.22 2.712 6.53 7.208 6.53 13.083 0 5.68-1.78 9.716-5.48 12.353-4.02 2.844-8.65 3.041-14.59 3.041h-12.09v16.576h-9.98v-47.429h21.67z"/> <path d="m269.9 46.545c0 11.564 3.82 16.915 12.75 16.915 8.78 0 12.82-5.351 12.82-16.519 0-11.161-4.04-16.511-12.82-16.511-8.59 0-12.75 5.349-12.75 16.115m12.75-24.245c16.11 0 23.65 7.866 23.65 24.639 0 16.782-7.54 24.704-23.65 24.704-16.32 0-23.65-7.922-23.65-25.164 0-16.313 7.72-24.179 23.65-24.179"/> <path d="m320.74 31.689v11.958h12.22c5.95 0 8.86-1.192 8.86-6.017 0-4.881-2.91-5.941-8.86-5.941h-12.22zm14.61-8.457c11.22 0 16.57 4.299 16.57 14.266 0 7.341-3.43 12.024-9.57 13.347l11.81 19.816h-11.22l-10.44-18.623h-11.76v18.623h-9.97v-47.429h24.58z"/> <path d="m354.24 31.556v-8.26h41.02v8.26h-15.39v39.102h-10.31v-39.102h-15.32z"/> </g> <path fill="url(#k)" d="m483.41 0c-4.99 0-9.08 4.3551-9.08 9.7992v84.176h116.61c4.98 0 9.06-4.421 9.06-9.855v-84.12l-116.59 0.00101z"/> <path fill="url(#l)" d="m475.94 4.3135c-0.99 1.558-1.56 3.4542-1.56 5.4909v13.787h120.76v-19.279l-119.21-0.0006z"/> <g fill="#fff"> <path d="m521.12 70.498v-20.404h-25.47v20.404h-11.05v-47.268h11.05v19.346h25.47v-19.346h11.06v47.268h-11.06z"/> <path d="m562.21 30.677h-11.7v32.316h11.79c12.56 0 16.39-0.507 16.39-16.087 0-15.591-3.93-16.229-16.48-16.229m23.5 33.453c-4.49 5.031-11.24 6.373-22.84 6.373h-23.22v-47.268h23.12c11.62 0 18.36 1.417 22.84 6.448 3.29 3.689 4.14 7.931 4.14 17.224 0 9.283-0.76 13.535-4.04 17.224"/> <path d="m283.22 506.78c0.63 0 0.93-0.21 0.93-0.7 0-0.48-0.31-0.7-0.93-0.7h-1.9v-0.98h1.87c0.62 0 0.93-0.2 0.93-0.68s-0.3-0.69-0.93-0.69h-2.32v-0.98h2.74c1.27 0 1.88 0.47 1.88 1.52 0 0.53-0.25 0.95-0.77 1.33 0.54 0.28 0.78 0.7 0.78 1.34 0 0.95-0.63 1.52-1.77 1.52h-2.86v-0.98h2.35z" clip-path="url(#m)" transform="matrix(8.3788 0 0 8.3788 -1937.4 -4182.8)"/> </g> </svg>
