<?xml version="1.0" encoding="UTF-8" standalone="no"?>
<!-- Created with Inkscape (http://www.inkscape.org/) -->
<svg xmlns:rdf="http://www.w3.org/1999/02/22-rdf-syntax-ns#" xmlns="http://www.w3.org/2000/svg" height="87.249" width="600" version="1.1" xmlns:cc="http://creativecommons.org/ns#" xmlns:xlink="http://www.w3.org/1999/xlink" xmlns:dc="http://purl.org/dc/elements/1.1/">
 <defs>
  <linearGradient id="linearGradient3790" gradientUnits="userSpaceOnUse" gradientTransform="matrix(0,-87.201177,87.201177,0,978.87714,698.51776)">
   <stop stop-color="#272c43" offset="0"/>
   <stop stop-color="#2b3555" offset="0.4948"/>
   <stop stop-color="#2b3555" offset="1"/>
  </linearGradient>
  <linearGradient id="linearGradient3795" gradientUnits="userSpaceOnUse" gradientTransform="matrix(0,17.88304,-17.88304,0,966.61138,615.29902)">
   <stop stop-color="#0071ae" offset="0"/>
   <stop stop-color="#2b3555" offset="0.84375"/>
   <stop stop-color="#2b3555" offset="1"/>
  </linearGradient>
  <linearGradient id="linearGradient3800" gradientUnits="userSpaceOnUse" gradientTransform="matrix(0,-87.201177,87.201177,0,1206.672,698.51776)">
   <stop stop-color="#295183" offset="0"/>
   <stop stop-color="#3365a6" offset="0.4948"/>
   <stop stop-color="#3365a6" offset="1"/>
  </linearGradient>
  <linearGradient id="linearGradient3805" gradientUnits="userSpaceOnUse" gradientTransform="matrix(0,17.88304,-17.88304,0,1201.0522,615.29902)">
   <stop stop-color="#79bfea" offset="0"/>
   <stop stop-color="#3365a6" offset="0.84375"/>
   <stop stop-color="#3365a6" offset="1"/>
  </linearGradient>
  <linearGradient id="linearGradient3810" gradientUnits="userSpaceOnUse" gradientTransform="matrix(0,-87.228481,87.228481,0,1428.9937,698.50082)">
   <stop stop-color="#272c43" offset="0"/>
   <stop stop-color="#2b3555" offset="0.4948"/>
   <stop stop-color="#2b3555" offset="1"/>
  </linearGradient>
  <linearGradient id="linearGradient3815" gradientUnits="userSpaceOnUse" gradientTransform="matrix(0,17.898967,-17.898967,0,1413.9029,615.27299)">
   <stop stop-color="#0071ae" offset="0"/>
   <stop stop-color="#2b3555" offset="0.84375"/>
   <stop stop-color="#2b3555" offset="1"/>
  </linearGradient>
 </defs>
 <metadata>
  <rdf:RDF>
   <cc:Work rdf:about="">
    <dc:format>image/svg+xml</dc:format>
    <dc:type rdf:resource="http://purl.org/dc/dcmitype/StillImage"/>
    <dc:title/>
   </cc:Work>
  </rdf:RDF>
 </metadata>
 <g transform="translate(-887.32311,-611.27297)">
  <path fill="url(#linearGradient3790)" d="m895.69,611.31c-4.6226,0-8.367,4.109-8.367,9.1623v68.883c0,5.0534,3.7445,9.1623,8.367,9.1623h166.37c4.6226,0,8.3588-4.109,8.3588-9.1623v-68.883c0-5.0534-3.7362-9.1623-8.3588-9.1623h-166.37z"/>
  <path fill="url(#linearGradient3795)" d="m898.09,615.3c-3.5622,0-6.4617,4.0013-6.4617,8.9386,0,4.9457,2.8995,8.9387,6.4617,8.9387h137.04c3.5622,0,6.4534-3.993,6.4534-8.9387,0,0-2.8912-8.9386-6.4534-8.9386h-137.04z"/>
  <path fill-rule="nonzero" fill="#f9b32f" d="m935.07,663.15c0,7.3729-4.8048,12.741-14.58,13.793-7.0747,0.75386-17.306-0.13255-22.177-0.69587-0.16568-0.787-0.29823-1.7728-0.29823-2.5598,0-6.4203,3.4545-7.9031,6.7102-7.9031,3.3965,0,8.7233,0.58818,12.675,0.58818,4.3741,0,5.6912-1.4746,5.6912-2.8912,0-1.8391-1.748-2.6012-5.1362-3.2557l-9.2783-1.7811c-7.7043-1.4829-11.813-6.8096-11.813-12.468,0-6.8842,4.8711-12.642,14.448-13.694,7.2404-0.787,16.055,0.0994,20.893,0.68759,0.16568,0.82013,0.26509,1.6154,0.26509,2.4687,0,6.4203-3.3882,7.8037-6.6439,7.8037-2.5101,0-6.3871-0.46392-10.827-0.46392-4.5149,0-6.3871,1.2509-6.3871,2.7669,0,1.6154,1.7728,2.2699,4.606,2.7586l8.8558,1.6486c9.0795,1.6817,12.998,6.8428,12.998,13.197m15.881,7.8948c0,3.9516-1.5492,6.2214-9.2452,6.2214-1.019,0-1.9054-0.058-2.7586-0.19053v-52.331c0-3.9764,1.342-8.1268,9.1126-8.1268,0.98582,0,1.9716,0.0994,2.8912,0.29823v54.129zm31.48,20.247c1.019,0.5219,3.0983,1.1432,5.6912,1.2178,4.4818,0.0994,6.9173-1.6154,8.7233-5.625l23.991-53.516c-0.9859-0.53019-3.1895-1.1184-4.9706-1.1515-3.09-0.0663-7.2321,0.55505-9.8747,6.8759l-7.7623,18.333-15.243-24.819c-0.97753-0.28995-3.3882-0.72072-5.1279-0.72072-5.4013,0-8.3919,1.9799-11.515,5.3682l-14.812,16.187,11.913,18.755c2.2036,3.4297,5.1031,5.1693,9.8085,5.1693,3.09,0,5.6581-0.72072,6.8428-1.284l-14.348-21.622,10.173-10.786,16.684,26.186-10.173,21.431z"/>
  <path fill="url(#linearGradient3800)" d="m1039.1,611.31c-4.8297,0-8.7315,4.0344-8.7315,9.1623v78.045h344.9c4.8297,0,7.7209-4.109,7.7209-9.1623v-78.045h-343.89z"/>
  <path fill="url(#linearGradient3805)" d="m1031.9,615.3c-0.9527,1.4663-1.5077,3.2474-1.5077,5.1776v12.7h348.84v-17.877h-347.33z"/>
  <path fill-rule="nonzero" fill="#FFF" d="m1056.5,640.72c-4.8463,0-7.1078,1.7148-7.1078,5.7658,0,3.1894,1.955,4.78,5.8237,4.78h12.261c9.8085,0,14.042,3.2474,14.042,12.451,0,9.2534-4.9705,13.18-15.392,13.18h-24.646v-7.8534h23.179c4.9043,0,7.1659-1.1598,7.1659-4.9622,0-3.9267-2.0794-5.0865-6.5528-5.0865h-10.919c-10.057,0-14.655-3.8024-14.655-12.633,0-9.5682,4.9623-13.487,15.45-13.487h24.223v7.8451h-22.873z"/>
  <path fill-rule="nonzero" fill="#FFF" d="m1095.4,640.72,0,12.998,11.283,0c5.5835,0,8.2759-2.0876,8.2759-6.4948,0-4.9042-2.6924-6.5031-8.831-6.5031h-10.728zm10.852-7.8451c6.0143,0,10.239,0.48877,12.94,2.2036,3.9185,2.5184,6.0641,6.6854,6.0641,12.145,0,5.2688-1.6569,9.0132-5.0865,11.465-3.7362,2.6344-8.0357,2.8166-13.553,2.8166h-11.217v15.392h-9.2617v-44.022h20.114z"/>
  <path fill-rule="nonzero" fill="#FFF" d="m1137.9,654.51c0,10.728,3.5539,15.699,11.83,15.699,8.16,0,11.896-4.9705,11.896-15.334,0-10.355-3.7362-15.326-11.896-15.326-7.9694,0-11.83,4.9705-11.83,14.961m11.83-22.5c14.961,0,21.953,7.2984,21.953,22.864,0,15.574-6.9919,22.939-21.953,22.939-15.144,0-21.945-7.3646-21.945-23.361,0-15.144,7.1741-22.442,21.945-22.442"/>
  <path fill-rule="nonzero" fill="#FFF" d="m1185,640.72,0,11.101,11.349,0c5.5172,0,8.2096-1.1101,8.2096-5.5836,0-4.5397-2.6924-5.5173-8.2096-5.5173h-11.349zm13.553-7.8451c10.422,0,15.392,3.9847,15.392,13.238,0,6.8096-3.1894,11.159-8.8889,12.385l10.968,18.399h-10.422l-9.6842-17.289h-10.919v17.289h-9.2617v-44.022h22.815z"/>
  <path fill-rule="nonzero" fill="#FFF" d="m1216.1,640.59,0-7.6629,38.074,0,0,7.6629-14.282,0,0,36.301-9.5682,0,0-36.301-14.224,0z"/>
  <path fill-rule="nonzero" fill="#FFF" d="m1286.9,659.97,7.7209,0c8.9303,0,13.859-4.78,13.859-13.454,0-5.6747-1.9882-9.7174-5.9066-12.004-2.5184-1.4497-5.335-1.574-8.2428-1.574h-24.861v10.223h21.116c4.6723,0,5.103,0.88641,5.103,3.2391,0,2.1208-0.497,3.1232-5.103,3.1232h-5.509c-10.944,0-15.608,4.0427-15.608,13.512v13.859h38.836v-10.165h-26.46v-2.5018c0-2.9989,0.7042-4.2581,5.0534-4.2581"/>
  <path fill-rule="nonzero" fill="#FFF" d="m1324.6,659.28,11.225-12.037,0,12.037-11.225,0zm22.98,0,0-26.402-13.13,0-24.869,26.451,0,10.123,26.244,0,0,7.4392,11.755,0,0-7.4392,5.5587,0,0-10.173-5.5587,0z"/>
  <path fill="url(#linearGradient3810)" d="m1379.1,611.27c-4.6143,0-8.425,4.0427-8.425,9.0961v78.128h108.23c4.6226,0,8.425-4.1007,8.425-9.1458v-78.079h-108.23z"/>
  <path fill="url(#linearGradient3815)" d="m1372.1,615.27c-0.9113,1.458-1.4497,3.2143-1.4497,5.1031v12.799h112.1v-17.902h-110.65z"/>
  <path fill-rule="nonzero" fill="#FFF" d="m1414.1,676.71,0-18.938-23.635,0,0,18.938-10.264,0,0-43.873,10.264,0,0,17.96,23.635,0,0-17.96,10.256,0,0,43.873-10.256,0z"/>
  <path fill-rule="nonzero" fill="#FFF" d="m1452.3,639.75-10.869,0,0,29.997,10.96,0c11.648,0,15.21-0.46391,15.21-14.936s-3.6533-15.061-15.301-15.061m21.812,31.049c-4.1669,4.664-10.422,5.9149-21.199,5.9149h-21.547v-43.873h21.456c10.778,0,17.041,1.3172,21.208,5.9895,3.0486,3.4214,3.8273,7.3647,3.8273,15.98,0,8.6156-0.6959,12.559-3.7445,15.989"/>
 </g>
</svg>
