<?xml version="1.0" encoding="UTF-8" standalone="no"?>
<svg xmlns:rdf="http://www.w3.org/1999/02/22-rdf-syntax-ns#" xmlns="http://www.w3.org/2000/svg" xmlns:cc="http://creativecommons.org/ns#" xmlns:xlink="http://www.w3.org/1999/xlink" xmlns:dc="http://purl.org/dc/elements/1.1/" height="109.92" width="600" version="1.1">
  <defs>
    <linearGradient id="a" gradientUnits="userSpaceOnUse" gradientTransform="matrix(0,-109.91,109.91,0,115.4,109.92)" x1="0" x2="1" y1="0" y2="0">
      <stop stop-color="#272c43" offset="0"/>
      <stop stop-color="#2b3555" offset=".4948"/>
      <stop stop-color="#2b3555" offset="1"/>
    </linearGradient>
    <linearGradient id="b" gradientUnits="userSpaceOnUse" gradientTransform="matrix(0 22.541 -22.541 0 99.94 5.028)" x1="0" x2="1" y1="0" y2="0">
      <stop stop-color="#0071ae" offset="0"/>
      <stop stop-color="#2b3555" offset=".84375"/>
      <stop stop-color="#2b3555" offset="1"/>
    </linearGradient>
    <linearGradient id="c" gradientUnits="userSpaceOnUse" gradientTransform="matrix(0,-109.91,103.79,0,390.14,109.92)" x1="0" x2="1" y1="0" y2="0">
      <stop stop-color="#295183" offset="0"/>
      <stop stop-color="#3365a6" offset=".4948"/>
      <stop stop-color="#3365a6" offset="1"/>
    </linearGradient>
    <linearGradient id="d" gradientUnits="userSpaceOnUse" gradientTransform="matrix(0 22.541 -21.256 0 383.18 5.028)" x1="0" x2="1" y1="0" y2="0">
      <stop stop-color="#79bfea" offset="0"/>
      <stop stop-color="#3365a6" offset=".84375"/>
      <stop stop-color="#3365a6" offset="1"/>
    </linearGradient>
  </defs>
  <path fill="url(#a)" d="m10.546 0c-5.8263 0-10.546 5.1792-10.546 11.549v86.824c0 6.367 4.7198 11.547 10.546 11.547h209.7c5.83 0 10.53-5.18 10.53-11.547v-86.824c0-6.3699-4.7-11.549-10.53-11.549h-209.7z"/>
  <path fill="url(#b)" d="m13.571 5.0292c-4.4897 0-8.1444 5.0438-8.1444 11.267 0 6.234 3.6547 11.267 8.1444 11.267h172.73c4.49 0 8.14-5.033 8.14-11.267 0 0-3.65-11.267-8.14-11.267l-172.73 0.0004z"/>
  <path d="m60.183 65.342c0 9.293-6.056 16.06-18.377 17.386-8.918 0.95-21.814-0.167-27.954-0.878-0.208-0.991-0.375-2.234-0.375-3.226 0-8.093 4.354-9.962 8.457-9.962 4.282 0 10.996 0.742 15.977 0.742 5.513 0 7.173-1.859 7.173-3.644 0-2.319-2.203-3.279-6.474-4.104l-11.695-2.245c-9.711-1.869-14.889-8.583-14.889-15.715 0-8.678 6.139-15.935 18.211-17.261 9.126-0.992 20.236 0.125 26.334 0.867 0.209 1.033 0.335 2.036 0.335 3.111 0 8.093-4.271 9.836-8.375 9.836-3.164 0-8.05-0.584-13.647-0.584-5.691 0-8.05 1.576-8.05 3.487 0 2.036 2.234 2.861 5.805 3.477l11.163 2.078c11.444 2.12 16.383 8.625 16.383 16.635m20.017 9.951c0 4.98-1.952 7.841-11.653 7.841-1.284 0-2.401-0.073-3.477-0.24v-65.961c0-5.012 1.692-10.243 11.486-10.243 1.243-0.0002 2.485 0.1251 3.644 0.3757v68.227zm39.678 25.517c1.29 0.66 3.91 1.44 7.18 1.54 5.64 0.12 8.71-2.04 10.99-7.092l30.24-67.455c-1.24-0.668-4.02-1.409-6.27-1.451-3.89-0.084-9.11 0.7-12.44 8.667l-9.79 23.108-19.21-31.284c-1.23-0.365-4.27-0.908-6.46-0.908-6.81 0-10.58 2.496-14.517 6.766l-18.67 20.403 15.016 23.64c2.778 4.323 6.431 6.516 12.361 6.516 3.9 0 7.13-0.908 8.63-1.618l-18.088-27.254 12.828-13.595 21.02 33.006-12.82 27.011z" fill="#f8b322"/>
  <path fill="url(#c)" d="m190.7 0c-5.75 0-10.4 5.0852-10.4 11.549v98.371h410.51c5.75 0 9.19-5.18 9.19-11.548v-98.372h-409.31z"/>
  <path fill="url(#d)" d="m182.12 5.0292c-1.13 1.8482-1.79 4.0932-1.79 6.5258v16.008h414.63v-22.533h-412.83z"/>
  <g fill="#fff">
    <path d="m213.24 37.07c-6.11 0-8.96 2.161-8.96 7.268 0 4.02 2.47 6.025 7.34 6.025h15.46c12.36 0 17.7 4.093 17.7 15.694 0 11.663-6.27 16.612-19.41 16.612h-31.06v-9.898h29.22c6.18 0 9.03-1.462 9.03-6.255 0-4.95-2.62-6.411-8.26-6.411h-13.76c-12.68 0-18.48-4.793-18.48-15.924 0-12.06 6.26-17 19.48-17h30.53v9.889h-28.83z"/>
    <path d="m262.27 37.07v16.383h14.22c7.04 0 10.44-2.631 10.44-8.186 0-6.181-3.4-8.197-11.14-8.197h-13.52zm13.68-9.888c7.58 0 12.91 0.616 16.31 2.777 4.94 3.175 7.64 8.427 7.64 15.308 0 6.642-2.08 11.361-6.41 14.452-4.71 3.32-10.13 3.55-17.08 3.55h-14.14v19.401h-11.67v-55.488h25.35z"/>
    <path d="m315.84 54.452c0 13.522 4.48 19.788 14.91 19.788 10.29 0 15-6.265 15-19.328 0-13.052-4.71-19.318-15-19.318-10.04 0-14.91 6.265-14.91 18.858m14.91-28.361c18.86 0 27.67 9.2 27.67 28.82 0 19.63-8.81 28.913-27.67 28.913-19.09 0-27.66-9.283-27.66-29.445 0-19.089 9.04-28.288 27.66-28.288"/>
    <path d="m375.21 37.07v13.992h14.3c6.96 0 10.35-1.399 10.35-7.037 0-5.723-3.39-6.955-10.35-6.955h-14.3zm17.08-9.888c13.14 0 19.4 5.022 19.4 16.686 0 8.583-4.02 14.065-11.2 15.61l13.82 23.192h-13.13l-12.21-21.793h-13.76v21.793h-11.68v-55.488h28.76z"/>
    <path d="m414.41 36.906v-9.659h47.99v9.659h-18v45.756h-12.06v-45.756h-17.93z"/>
    <path d="m503.65 61.334h9.73c11.26 0 17.47-6.025 17.47-16.958 0-7.153-2.51-12.249-7.44-15.131-3.18-1.827-6.73-1.984-10.39-1.984h-31.34v12.886h26.62c5.88 0 6.43 1.117 6.43 4.083 0 2.673-0.63 3.936-6.43 3.936h-6.95c-13.79 0-19.67 5.096-19.67 17.032v17.468h48.95v-12.812h-33.35v-3.154c0-3.78 0.89-5.367 6.37-5.367"/>
    <path d="m551.17 60.464 14.15-15.172v15.172h-14.15zm28.96 0v-33.278h-16.55l-31.34 33.34v12.76h33.08v9.376h14.81v-9.376h7.01v-12.823h-7.01z"/>
  </g>
</svg>
