<?xml version="1.0" encoding="UTF-8" standalone="no"?>
<svg xmlns:rdf="http://www.w3.org/1999/02/22-rdf-syntax-ns#" xmlns="http://www.w3.org/2000/svg" xmlns:cc="http://creativecommons.org/ns#" xmlns:xlink="http://www.w3.org/1999/xlink" xmlns:dc="http://purl.org/dc/elements/1.1/" height="28.315mm" width="169.33mm" version="1.1" viewBox="0 0 599.99998 100.32958">
  <defs>
    <linearGradient id="a" gradientUnits="userSpaceOnUse" gradientTransform="matrix(0 -98.864 90.642 0 545.86 563.13)" x1="0" x2="1" y1="0" y2="0">
      <stop stop-color="#bdbcbc" offset="0"/>
      <stop stop-color="#fff" offset=".10354"/>
      <stop stop-color="#fff" offset=".51534"/>
      <stop stop-color="#fff" offset=".90262"/>
      <stop stop-color="#deddde" offset="1"/>
    </linearGradient>
    <linearGradient id="b" gradientUnits="userSpaceOnUse" gradientTransform="matrix(0 20.575 -20.575 0 329.27 467.77)" x1="0" x2="1" y1="0" y2="0">
      <stop stop-color="#74c0ec" offset="0"/>
      <stop stop-color="#3663af" offset=".84375"/>
      <stop stop-color="#3663af" offset="1"/>
    </linearGradient>
    <linearGradient id="c" gradientUnits="userSpaceOnUse" gradientTransform="matrix(0 -100.33 100.33 0 339.8 563.52)" x1="0" x2="1" y1="0" y2="0">
      <stop stop-color="#24477f" offset="0"/>
      <stop stop-color="#24477f" offset=".11220"/>
      <stop stop-color="#3663af" offset=".49480"/>
      <stop stop-color="#3663af" offset="1"/>
    </linearGradient>
    <linearGradient id="d" gradientUnits="userSpaceOnUse" gradientTransform="matrix(0 20.575 -20.575 0 120.6 467.77)" x1="0" x2="1" y1="0" y2="0">
      <stop stop-color="#246daf" offset="0"/>
      <stop stop-color="#1b2b4f" offset=".84375"/>
      <stop stop-color="#1b2b4f" offset="1"/>
    </linearGradient>
    <linearGradient id="e" gradientUnits="userSpaceOnUse" gradientTransform="matrix(0 -100.33 100.33 0 134.71 563.52)" x1="0" x2="1" y1="0" y2="0">
      <stop stop-color="#121d35" offset="0"/>
      <stop stop-color="#121d35" offset=".11220"/>
      <stop stop-color="#1b2b4f" offset=".49480"/>
      <stop stop-color="#1b2b4f" offset="1"/>
    </linearGradient>
    <linearGradient id="f" gradientUnits="userSpaceOnUse" gradientTransform="matrix(0 20.594 -18.866 0 530.2 467.77)" x1="0" x2="1" y1="0" y2="0">
      <stop stop-color="#fff" offset="0"/>
      <stop stop-opacity="0" stop-color="#fff" offset=".84375"/>
      <stop stop-opacity="0" stop-color="#fff" offset="1"/>
    </linearGradient>
  </defs>
  <g transform="translate(-29.377 -463.19)">
    <path d="m39.004 463.19c-5.32 0-9.627 4.72-9.627 10.54v79.25c0 5.82 4.307 10.54 9.627 10.54h191.43c5.31 0 9.62-4.72 9.62-10.54v-79.25c0-5.82-4.31-10.54-9.62-10.54h-191.43z" fill="url(#e)"/>
    <path d="m41.764 467.78c-4.095 0-7.422 4.6-7.422 10.28s3.327 10.29 7.422 10.29h157.67c4.11 0 7.44-4.61 7.44-10.29 0 0-3.33-10.28-7.44-10.28h-157.67z" fill="url(#d)"/>
    <path d="m84.316 522.82c0 8.49-5.526 14.66-16.775 15.87-8.141 0.87-19.911-0.15-25.519-0.8-0.185-0.91-0.342-2.04-0.342-2.95 0-7.39 3.978-9.08 7.723-9.08 3.903 0 10.038 0.67 14.577 0.67 5.04 0 6.553-1.69 6.553-3.32 0-2.13-2.006-3-5.902-3.76l-10.682-2.04c-8.86-1.71-13.591-7.84-13.591-14.35 0-7.92 5.601-14.54 16.618-15.75 8.333-0.91 18.48 0.11 24.047 0.79 0.184 0.95 0.301 1.86 0.301 2.84 0 7.38-3.896 8.97-7.648 8.97-2.883 0-7.347-0.52-12.455-0.52-5.19 0-7.347 1.43-7.347 3.17 0 1.87 2.041 2.62 5.3 3.19l10.188 1.89c10.449 1.93 14.954 7.88 14.954 15.18m18.274 9.09c0 4.55-1.78 7.15-10.64 7.15-1.17 0-2.197-0.06-3.177-0.22v-60.21c0-4.57 1.548-9.35 10.483-9.35 1.144 0 2.274 0.12 3.334 0.34v62.29zm36.21 23.29c1.18 0.61 3.57 1.32 6.56 1.4 5.15 0.12 7.95-1.86 10.04-6.47l27.6-61.58c-1.13-0.6-3.67-1.28-5.72-1.32-3.56-0.07-8.33 0.64-11.36 7.91l-8.94 21.1-17.53-28.56c-1.13-0.33-3.9-0.82-5.9-0.82-6.21 0-9.67 2.26-13.26 6.16l-17.04 18.64 13.71 21.58c2.54 3.93 5.87 5.94 11.29 5.94 3.55 0 6.51-0.83 7.87-1.48l-16.51-24.87 11.7-12.42 19.2 30.14-11.71 24.65z" fill="#f9a721"/>
    <path d="m204 463.19c-5.56 0-10.05 4.64-10.05 10.54v89.79h282.81c5.56 0 8.89-4.72 8.89-10.54v-89.79h-281.65z" fill="url(#c)"/>
    <path d="m195.69 467.78c-1.1 1.68-1.74 3.72-1.74 5.95v14.62h279.22v-20.57h-277.48z" fill="url(#b)"/>
    <g fill="#fff">
      <path d="m223.98 497.02c-5.57 0-8.18 1.97-8.18 6.63 0 3.66 2.26 5.5 6.7 5.5h14.11c11.29 0 16.15 3.74 16.15 14.32 0 10.66-5.71 15.17-17.7 15.17h-28.36v-9.03h26.67c5.64 0 8.25-1.34 8.25-5.72 0-4.51-2.41-5.85-7.55-5.85h-12.56c-11.57 0-16.86-4.37-16.86-14.53 0-11.01 5.72-15.53 17.78-15.53h27.86v9.04h-26.31z"/>
      <path d="m268.78 497.02v14.95h12.98c6.43 0 9.53-2.4 9.53-7.48 0-5.64-3.1-7.47-10.16-7.47h-12.35zm12.48-9.04c6.93 0 11.79 0.57 14.89 2.54 4.52 2.9 6.99 7.69 6.99 13.97 0 6.07-1.91 10.38-5.85 13.2-4.31 3.03-9.25 3.24-15.6 3.24h-12.91v17.71h-10.65v-50.66h23.13z"/>
      <path d="m317.67 512.89c0 12.34 4.1 18.05 13.62 18.05 9.38 0 13.68-5.71 13.68-17.63s-4.3-17.63-13.68-17.63c-9.17 0-13.62 5.71-13.62 17.21m13.62-25.89c17.21 0 25.25 8.39 25.25 26.31s-8.04 26.38-25.25 26.38c-17.43 0-25.26-8.46-25.26-26.87 0-17.43 8.25-25.82 25.26-25.82"/>
      <path d="m371.86 497.02v12.77h13.05c6.35 0 9.45-1.28 9.45-6.43 0-5.21-3.1-6.34-9.45-6.34h-13.05zm15.59-9.04c11.99 0 17.71 4.59 17.71 15.25 0 7.82-3.67 12.83-10.24 14.24l12.64 21.17h-12l-11.15-19.9h-12.55v19.9h-10.66v-50.66h26.25z"/>
      <path d="m407.63 496.87v-8.81h43.81v8.81h-16.44v41.76h-11.01v-41.76h-16.36z"/>
    </g>
    <path d="m471.24 463.2c-4.87 0-8.89 4.64-8.89 10.46v89.86h158.14c4.88 0 8.82-4.72 8.82-10.53l0.07-89.79h-158.14z" fill="url(#a)"/>
    <path fill="url(#f)" d="m463.87 467.77c-0.96 1.67-1.52 3.68-1.52 5.86v14.73h162.71v-20.59h-161.19z"/>
    <path d="m600.34 512.3-0.09 0.41h1.23l-0.69 3.25h0.48l0.7-3.25h1.22l0.09-0.41h-2.94z" fill="#e01049"/>
    <path d="m606.67 512.3-1.81 3.15h-0.02l-0.48-3.15h-0.68l-0.76 3.65h0.46l0.64-3.19h0.02l0.47 3.19h0.46l1.86-3.19h0.02l-0.75 3.19h0.47l0.77-3.65h-0.67z" fill="#e01049"/>
    <g fill="#231f20" fill-rule="evenodd">
      <path d="m486.37 484.01c1.89-3.52 6.26-6.37 9.78-6.37h24.65l-16.52 31.24h-31.02l13.11-24.87z"/>
      <path d="m536.75 493.29c1.33-2.48 4.43-4.5 6.91-4.5h16.86l-8.14 15.59c-1.33 2.49-4.42 4.51-6.91 4.51h-16.86l8.14-15.6z"/>
      <path d="m565.01 480.09c0.7-1.32 2.34-2.38 3.66-2.38h8.82l-4.73 8.81c-0.7 1.33-2.34 2.39-3.66 2.39h-8.82l4.73-8.82z"/>
      <path d="m504.28 508.88h24.37l-13.02 24.31h-24.37l13.02-24.31z"/>
      <path d="m515.63 533.19h17.09l-7.79 14.53c-0.98 1.82-3.26 3.3-5.08 3.3h-13.78l9.56-17.83z"/>
    </g>
    <path d="m588.36 524.4-1.88 3.54c-0.52 0.97-1.72 1.75-2.68 1.75h-2.34l5.02-9.44 1.52-2.86c2.15-4.2 4.78-5.11 7.86-5.11 3.46 0 3.9 2.29 2.39 5.12l-0.11 0.2-1.31 2.47-0.08 0.17c-1.25 2.35-4.56 4.25-7.39 4.25-0.36 0-0.69-0.03-1-0.09m3.89-7.3-0.19 0.34-1.75 3.29h0.69c0.77 0 1.73-0.63 2.14-1.4l1.2-2.23c0.31-0.59 0.09-1.05-0.49-1.05s-1.29 0.46-1.6 1.05m-35.87-0.52-4.91 9.21-0.04 0.07c-1.23 2.32-4.48 4.2-7.26 4.2-2.77 0-4.02-1.88-2.79-4.19l4.99-9.36c1.23-2.32 4.48-4.2 7.25-4.2 2.78 0 4.03 1.88 2.8 4.21l-0.04 0.06zm-10.53 8.68c-0.31 0.59-0.09 1.05 0.49 1.05s1.29-0.46 1.6-1.05l4.35-8.14c0.31-0.59 0.09-1.05-0.49-1.05-0.57 0-1.29 0.46-1.6 1.05l-4.35 8.14zm29.52-8.68-4.9 9.21-0.04 0.07c-1.24 2.32-4.49 4.2-7.26 4.2-2.78 0-4.03-1.88-2.8-4.19l4.99-9.36c1.24-2.32 4.48-4.2 7.26-4.2s4.02 1.88 2.79 4.21l-0.04 0.06zm-10.7 8.68c-0.3 0.59-0.08 1.05 0.49 1.05 0.58 0 1.29-0.46 1.6-1.05l4.35-8.14c0.31-0.59 0.09-1.05-0.49-1.05s-1.3 0.46-1.6 1.05l-4.35 8.14zm22.31-8.71-1.47 2.76h-3.98l1.19-2.23c0.31-0.59 0.09-1.05-0.49-1.05-0.57 0-1.29 0.46-1.6 1.05l-4 7.52-0.36 0.66c-0.3 0.59-0.08 1.05 0.5 1.05 0.57 0 1.29-0.37 1.91-1.63l0.54-1.02h-1.01l1.6-3.01h4.99l-2.73 5.14-0.04 0.07c-1.23 2.32-4.48 4.2-7.26 4.2-2.77 0-4.02-1.88-2.79-4.19l0.67-1.27 4.32-8.13c1.23-2.32 4.49-4.19 7.26-4.19s4.03 1.88 2.79 4.19l-0.04 0.08zm-48.74 0.73-0.07 0.17-1.94 3.64-3.63 6.82c-0.31 0.58-0.85 1.09-1.45 1.42-0.41 0.21-0.85 0.34-1.25 0.34h-2.36l4.57-8.58 2.03-3.81c0.01-0.05 0.04-0.09 0.07-0.14 0.19-0.52-0.04-0.91-0.57-0.91-0.59 0-1.3 0.47-1.61 1.05l-2.03 3.81-3.63 6.82c-0.51 0.98-1.72 1.76-2.7 1.76h-2.35l6.59-12.39c1.4-2.9 3.07-4.87 7.84-4.87h6.21c2.38 0 4.35 1.39 2.51 4.87l-5.65 10.63c-0.52 0.98-1.73 1.76-2.7 1.76h-2.36l4.57-8.58 2.02-3.81c0.31-0.58 0.09-1.05-0.5-1.05-0.58 0-1.3 0.47-1.61 1.05m23.66-0.64-4.68 8.79c-0.3 0.58 0.08 0.99 0.66 1.05 0.42 0.04 0.86-0.01 1.44-0.24l-1.9 3.54c-0.65 0.18-1 0.28-1.64 0.28-2.77 0-4.07-1.87-2.83-4.19l7.86-14.79c0.52-0.96 1.71-1.75 2.68-1.75h2.29l-1.85 3.49h2.37l-2.02 3.82h-2.38z" fill="#e01049"/>
  </g>
</svg>
