<?xml version="1.0" encoding="UTF-8" standalone="no"?>
<svg xmlns:rdf="http://www.w3.org/1999/02/22-rdf-syntax-ns#" xmlns="http://www.w3.org/2000/svg" xmlns:cc="http://creativecommons.org/ns#" xmlns:dc="http://purl.org/dc/elements/1.1/" version="1.1" xml:space="preserve" height="119.96" width="600" enable-background="new 0 0 595.276 841.89" y="0px" x="0px" viewBox="0 0 600 119.95753"> <defs> <linearGradient id="c" y2="776.89" gradientUnits="userSpaceOnUse" gradientTransform="matrix(-8.2898e-7 24.604 -17.017 -.0000011986 392.29 5.4653)" y1="776.89" x1="0" x2="1"> <stop stop-color="#66bae8" offset="0"/> <stop stop-color="#2769a9" offset=".84375"/> <stop stop-color="#2769a9" offset="1"/> </linearGradient> <linearGradient id="d" gradientUnits="userSpaceOnUse" gradientTransform="matrix(-.0000033282 -119.97 83.283 -.0000047943 398.39 119.96)" x1="0" x2="1" y1="0" y2="0"> <stop stop-color="#114d81" offset="0"/> <stop stop-color="#2669a9" offset=".49479"/> <stop stop-color="#2669a9" offset="1"/> </linearGradient> <linearGradient id="f" gradientUnits="userSpaceOnUse" gradientTransform="matrix(-.0000011986 24.604 -24.604 -.0000011986 109.07 5.4653)" x1="0" x2="1" y1="0" y2="0"> <stop stop-color="#006EAB" offset="0"/> <stop stop-color="#005385" offset=".299"/> <stop stop-color="#00375D" offset=".6574"/> <stop stop-color="#002C4E" offset=".8438"/> <stop stop-color="#002C4E" offset="1"/> </linearGradient> <linearGradient id="e" y2="776.69" gradientUnits="userSpaceOnUse" gradientTransform="matrix(-.0000047943 -119.97 119.97 -.0000047943 125.94 119.96)" y1="776.69" x1="0" x2="1"> <stop stop-color="#03193c" offset="0"/> <stop stop-color="#152c53" offset=".49479"/> <stop stop-color="#152c53" offset="1"/> </linearGradient> </defs> <path fill="url(#e)" d="m11.507 0.00013852c-6.3649 0-11.507 5.6335-11.507 12.597v94.763c0 6.96 5.1421 12.6 11.507 12.6h228.89c6.34 0 11.5-5.64 11.5-12.6v-94.763c0-6.9642-5.16-12.598-11.5-12.598l-228.89 0.00014801z"/> <path fill="url(#f)" d="m14.799 5.4776c-4.902 0-8.8813 5.5134-8.8813 12.297 0 6.797 3.9793 12.297 8.8813 12.297h188.54c4.9 0 8.89-5.5 8.89-12.297 0 0-3.99-12.297-8.89-12.297l-188.54-0.0007z"/> <path fill="#f8b322" d="m65.682 71.285c0 10.14-6.604 17.524-20.063 18.974-9.72 1.043-23.806-0.178-30.506-0.958-0.228-1.078-0.407-2.432-0.407-3.523 0-8.834 4.746-10.859 9.229-10.859 4.663 0 11.998 0.802 17.439 0.802 6.018 0 7.826-2.025 7.826-3.979 0-2.529-2.397-3.573-7.06-4.483l-12.775-2.445c-10.597-2.037-16.254-9.373-16.254-17.151 0-9.469 6.701-17.392 19.874-18.843 9.972-1.09 22.102 0.132 28.753 0.948 0.228 1.126 0.373 2.217 0.373 3.391 0 8.834-4.664 10.741-9.146 10.741-3.453 0-8.786-0.636-14.899-0.636-6.209 0-8.787 1.713-8.787 3.798 0 2.219 2.447 3.129 6.331 3.801l12.189 2.266c12.5 2.312 17.883 9.42 17.883 18.157m21.851 10.872c0 5.431-2.134 8.559-12.717 8.559-1.404 0-2.625-0.096-3.801-0.275v-71.99c0-5.478 1.847-11.195 12.538-11.195 1.355 0.0001 2.709 0.144 3.98 0.4196v74.483zm43.307 27.852c1.4 0.71 4.26 1.57 7.84 1.67 6.16 0.13 9.5-2.22 12-7.75l33.01-73.624c-1.36-0.718-4.39-1.533-6.85-1.581-4.24-0.085-9.96 0.766-13.58 9.467l-10.68 25.221-20.97-34.137c-1.36-0.408-4.67-0.996-7.06-0.996-7.42 0-11.54 2.709-15.85 7.371l-20.375 22.284 16.405 25.806c3.03 4.711 7 7.108 13.48 7.108 4.27 0 7.79-0.996 9.42-1.761l-19.74-29.751 14-14.85 22.95 36.04-13.99 29.483z"/> <path fill="url(#d)" d="m205.13 0.00013852c-4.62 0-8.36 5.5496-8.36 12.597v107.36h395.87c4.6 0 7.36-5.64 7.36-12.6v-107.36l-394.87-0.0018425z"/> <path fill="url(#c)" d="m198.21 5.4776c-0.9 2.0137-1.44 4.4586-1.44 7.1204v17.475h398.15v-24.596h-396.71z"/> <g fill="#fff" transform="matrix(.99051 0 0 .99051 0 -.00058951)"> <path d="m234.92 40.824c-6.73 0-9.88 2.384-9.88 8.01 0 4.43 2.73 6.644 8.09 6.644h17.04c13.62 0 19.49 4.513 19.49 17.28 0 12.864-6.89 18.308-21.37 18.308h-34.23v-10.89h32.18c6.82 0 9.96-1.621 9.96-6.91 0-5.446-2.89-7.068-9.11-7.068h-15.16c-13.96 0-20.34-5.275-20.34-17.535 0-13.286 6.89-18.743 21.45-18.743h33.64v10.903h-31.76z"/> <path d="m288.92 40.824v18.055h15.68c7.76 0 11.49-2.892 11.49-9.027 0-6.813-3.73-9.028-12.27-9.028h-14.9zm15.09-10.902c8.35 0 14.21 0.689 17.97 3.061 5.43 3.497 8.42 9.293 8.42 16.867 0 7.322-2.3 12.526-7.07 15.926-5.19 3.667-11.15 3.92-18.81 3.92h-15.6v21.37h-12.86v-61.146h27.95z"/> <path d="m347.96 59.978c0 14.908 4.93 21.806 16.44 21.806 11.32 0 16.53-6.898 16.53-21.297 0-14.388-5.21-21.286-16.53-21.286-11.08 0-16.44 6.896-16.44 20.777m16.44-31.259c20.77 0 30.49 10.142 30.49 31.766 0 21.636-9.72 31.849-30.49 31.849-21.03 0-30.49-10.213-30.49-32.442 0-21.031 9.95-31.173 30.49-31.173"/> <path d="m413.51 40.824v15.416h15.75c7.68 0 11.42-1.536 11.42-7.757 0-6.292-3.74-7.659-11.42-7.659h-15.75zm18.83-10.902c14.47 0 21.37 5.542 21.37 18.392 0 9.464-4.43 15.502-12.35 17.207l15.24 25.547h-14.48l-13.45-24.009h-15.16v24.009h-12.86v-61.146h31.69z"/> <path d="m456.69 40.653v-10.649h52.89v10.649h-19.83v50.412h-13.3v-50.412h-19.76z"/> <path d="m556.38 55.755h8.33c6.7 0 10.13-1.371 10.13-7.115 0-5.938-3.08-7.309-10.13-7.309h-29.53v-10.635h32.28 2.91c4.3 0 7.99 0.173 11.25 2.052 5.15 3.001 7.73 8.248 7.73 16.054 0 11.671-6.36 17.944-18.54 17.944h-11.68c-7.13 0-10.05 2.321-10.05 8.843v6.175h40.02v10.57h-53.92v-18.548c0-13.043 6.17-18.031 21.2-18.031"/> </g> </svg>
