<?xml version="1.0" encoding="UTF-8" standalone="no"?>
<!-- Created with Inkscape (http://www.inkscape.org/) -->
<svg xmlns:rdf="http://www.w3.org/1999/02/22-rdf-syntax-ns#" xmlns="http://www.w3.org/2000/svg" height="77.993" width="600" version="1.1" xmlns:cc="http://creativecommons.org/ns#" xmlns:xlink="http://www.w3.org/1999/xlink" xmlns:dc="http://purl.org/dc/elements/1.1/">
 <defs>
  <linearGradient id="linearGradient4189" gradientUnits="userSpaceOnUse" gradientTransform="matrix(-7.7899822e-7,16.004544,-16.004544,-7.7899822e-7,1353.8326,201.21597)">
   <stop stop-color="#0070ad" offset="0"/>
   <stop stop-color="#152c53" offset="0.84375"/>
   <stop stop-color="#152c53" offset="1"/>
  </linearGradient>
  <linearGradient id="linearGradient4194" gradientUnits="userSpaceOnUse" gradientTransform="matrix(-3.1159929e-6,-77.996106,77.996106,-3.1159929e-6,1368.2482,275.63484)">
   <stop stop-color="#03193c" offset="0"/>
   <stop stop-color="#152c53" offset="0.49479"/>
   <stop stop-color="#152c53" offset="1"/>
  </linearGradient>
  <linearGradient id="linearGradient4199" gradientUnits="userSpaceOnUse" gradientTransform="matrix(-7.7899822e-7,15.990316,-15.990316,-7.7899822e-7,1132.0217,201.21192)">
   <stop stop-color="#66bae8" offset="0"/>
   <stop stop-color="#2769a9" offset="0.84375"/>
   <stop stop-color="#2769a9" offset="1"/>
  </linearGradient>
  <linearGradient id="linearGradient4204" gradientUnits="userSpaceOnUse" gradientTransform="matrix(-3.1159929e-6,-77.9717,77.9717,-3.1159929e-6,1137.0458,275.62268)">
   <stop stop-color="#114d81" offset="0"/>
   <stop stop-color="#2669a9" offset="0.49479"/>
   <stop stop-color="#2669a9" offset="1"/>
  </linearGradient>
  <linearGradient id="linearGradient4209" gradientUnits="userSpaceOnUse" gradientTransform="matrix(-7.7899822e-7,15.990316,-15.990316,-7.7899822e-7,891.28913,201.21192)">
   <stop stop-color="#0070ad" offset="0"/>
   <stop stop-color="#152c53" offset="0.84375"/>
   <stop stop-color="#152c53" offset="1"/>
  </linearGradient>
  <linearGradient id="linearGradient4214" gradientUnits="userSpaceOnUse" gradientTransform="matrix(-3.1159929e-6,-77.9717,77.9717,-3.1159929e-6,902.25657,275.62268)">
   <stop stop-color="#03193c" offset="0"/>
   <stop stop-color="#152c53" offset="0.49479"/>
   <stop stop-color="#152c53" offset="1"/>
  </linearGradient>
 </defs>
 <metadata>
  <rdf:RDF>
   <cc:Work rdf:about="">
    <dc:format>image/svg+xml</dc:format>
    <dc:type rdf:resource="http://purl.org/dc/dcmitype/StillImage"/>
    <dc:title/>
   </cc:Work>
  </rdf:RDF>
 </metadata>
 <g transform="translate(-820.39811,-197.64044)">
  <path fill="url(#linearGradient4214)" d="m827.88,197.66c-4.1365,0-7.4784,3.6613-7.4784,8.1873v61.588c0,4.526,3.3419,8.1873,7.4784,8.1873h148.77c4.1209,0,7.4706-3.6613,7.4706-8.1873v-61.588c0-4.526-3.3497-8.1873-7.4706-8.1873h-148.77z"/>
  <path fill="url(#linearGradient4209)" d="m830.02,201.22c-3.1861,0-5.7724,3.5834-5.7724,7.9925,0,4.4169,2.5863,7.9925,5.7724,7.9925h122.54c3.1861,0,5.7724-3.5756,5.7724-7.9925,0,0-2.5863-7.9925-5.7724-7.9925h-122.54z"/>
  <path fill-rule="nonzero" fill="#fbaf34" d="m863.09,243.99c0,6.5903-4.2923,11.389-13.04,12.332-6.3177,0.67773-15.471-0.11685-19.826-0.6232-0.14801-0.7011-0.26486-1.5814-0.26486-2.2902,0-5.7412,3.0848-7.0577,5.9983-7.0577,3.0303,0,7.7978,0.52193,11.334,0.52193,3.9106,0,5.0868-1.3165,5.0868-2.5863,0-1.6437-1.558-2.3214-4.5883-2.9134l-8.3041-1.5892c-6.8863-1.3243-10.563-6.0918-10.563-11.147,0-6.1541,4.3546-11.303,12.916-12.246,6.4813-0.70888,14.365,0.0857,18.688,0.61541,0.14801,0.73226,0.24149,1.4412,0.24149,2.2046,0,5.7412-3.0303,6.9798-5.9438,6.9798-2.2435,0-5.7101-0.41287-9.683-0.41287-4.0352,0-5.7101,1.114-5.7101,2.4694,0,1.4411,1.5892,2.0332,4.1131,2.4694l7.9224,1.4723c8.125,1.5035,11.623,6.1229,11.623,11.802m14.201,7.0655c0,3.5289-1.3866,5.562-8.2652,5.562-0.91143,0-1.706-0.0623-2.4694-0.17917v-46.787c0-3.56,1.1997-7.2758,8.1483-7.2758,0.88027,0,1.7605,0.0935,2.5863,0.27264v48.407zm28.145,18.096c0.91143,0.4674,2.7654,1.0283,5.0946,1.0906,4.004,0.0857,6.1775-1.4412,7.7978-5.0323l21.454-47.854c-0.88026-0.4674-2.8511-0.99712-4.4481-1.0283-2.7654-0.0545-6.4735,0.49856-8.826,6.1541l-6.9409,16.39-13.632-22.186c-0.88027-0.26486-3.0303-0.64657-4.5883-0.64657-4.822,0-7.5018,1.7605-10.298,4.7908l-13.243,14.482,10.657,16.772c1.9709,3.0615,4.5571,4.6195,8.7637,4.6195,2.7732,0,5.0635-0.64657,6.1229-1.1451l-12.83-19.335,9.0987-9.6518,14.918,23.424-9.0987,19.156z"/>
  <path fill="url(#linearGradient4204)" d="m956.11,197.66c-4.3234,0-7.8134,3.6068-7.8134,8.1873v69.775h370.61c4.3079,0,6.8942-3.6613,6.8942-8.1873v-69.775h-369.69z"/>
  <path fill="url(#linearGradient4199)" d="m949.64,201.22c-0.8491,1.3087-1.3477,2.8979-1.3477,4.6272v11.358h374.13v-15.985h-372.78z"/>
  <path fill-rule="nonzero" fill="#FFF" d="m971.63,223.94c-4.3312,0-6.3566,1.5346-6.3566,5.157,0,2.8511,1.7528,4.2767,5.2037,4.2767h10.968c8.7715,0,12.557,2.9057,12.557,11.124,0,8.2808-4.4481,11.786-13.765,11.786h-22.038v-7.011h20.721c4.3858,0,6.4112-1.0439,6.4112-4.4481,0-3.5055-1.8618-4.5494-5.8581-4.5494h-9.7608c-8.9896,0-13.103-3.3964-13.103-11.288,0-8.5534,4.4403-12.067,13.812-12.067h21.656v7.0188h-20.449z"/>
  <path fill-rule="nonzero" fill="#FFF" d="m1006.4,223.94,0,11.623,10.088,0c4.9934,0,7.4005-1.8618,7.4005-5.8113,0-4.3858-2.4071-5.8113-7.899-5.8113h-9.5895zm9.7063-7.0188c5.3751,0,9.1532,0.44403,11.568,1.9709,3.5055,2.2513,5.4219,5.9827,5.4219,10.859,0,4.7129-1.4801,8.0626-4.5494,10.252-3.3419,2.3604-7.1823,2.524-12.113,2.524h-10.034v13.757h-8.2808v-39.363h17.987z"/>
  <path fill-rule="nonzero" fill="#FFF" d="m1044.4,236.27c0,9.5973,3.1783,14.038,10.579,14.038,7.2914,0,10.641-4.4403,10.641-13.71,0-9.2623-3.3497-13.703-10.641-13.703-7.1278,0-10.579,4.4403-10.579,13.375m10.579-20.122c13.375,0,19.631,6.528,19.631,20.449,0,13.928-6.2554,20.503-19.631,20.503-13.539,0-19.623-6.5747-19.623-20.885,0-13.539,6.4112-20.067,19.623-20.067"/>
  <path fill-rule="nonzero" fill="#FFF" d="m1086.6,223.94,0,9.9244,10.143,0c4.9388,0,7.3459-0.98933,7.3459-4.9934,0-4.0508-2.4071-4.9311-7.3459-4.9311h-10.143zm12.121-7.0188c9.3168,0,13.757,3.5678,13.757,11.841,0,6.0918-2.8511,9.979-7.9458,11.077l9.8076,16.445h-9.3168l-8.6625-15.455h-9.7608v15.455h-8.2808v-39.363h20.402z"/>
  <path fill-rule="nonzero" fill="#FFF" d="m1114.4,223.83,0-6.8552,34.05,0,0,6.8552-12.776,0,0,32.453-8.5534,0,0-32.453-12.721,0z"/>
  <path fill="url(#linearGradient4194)" d="m1323.6,197.64c-4.1365,0-7.533,3.6146-7.533,8.1328v69.861h96.775c4.1365,0,7.5251-3.6691,7.5251-8.1795v-69.814h-96.767z"/>
  <path fill="url(#linearGradient4189)" d="m1317.4,201.22c-0.818,1.2931-1.2932,2.8667-1.2932,4.5571v11.443h100.23v-16.001h-98.94z"/>
  <path fill-rule="nonzero" fill="#FFF" d="m1354.9,256.15,0-16.935-21.134,0,0,16.935-9.1766,0,0-39.23,9.1766,0,0,16.055,21.134,0,0-16.055,9.1766,0,0,39.23-9.1766,0z"/>
  <path fill-rule="nonzero" fill="#FFF" d="m1389,223.1-9.7141,0,0,26.821,9.792,0c10.415,0,13.601-0.42066,13.601-13.352,0-12.939-3.264-13.469-13.679-13.469m19.506,27.764c-3.7314,4.1754-9.3246,5.2894-18.961,5.2894h-19.265v-39.23h19.187c9.6362,0,15.237,1.1763,18.961,5.3517,2.7265,3.0615,3.4276,6.5825,3.4276,14.295,0,7.7043-0.631,11.233-3.3497,14.295"/>
  <path fill-rule="nonzero" fill="#FFF" d="m1183.3,223.93-9.6206,0,0,11.662,10.127,0c2.5162,0,4.378-0.47519,5.5933-1.4334,1.223-0.95817,1.8306-2.4227,1.8306-4.3936,0-2.1189-0.5998-3.6146-1.7917-4.5026-1.1919-0.88806-3.2328-1.3321-6.1385-1.3321m-17.925-7.0421,18.034,0c3.0458,0,5.4685,0.1558,7.2836,0.47519,1.8073,0.31159,3.2484,0.81015,4.3234,1.4879,1.7917,1.1451,3.1472,2.6486,4.0742,4.5026,0.9192,1.854,1.3788,3.9885,1.3788,6.4112,0,2.3604-0.3739,4.3936-1.1217,6.084-0.7557,1.6904-1.9008,3.0926-3.4432,4.2066-1.2931,0.91143-2.7732,1.5658-4.4481,1.9475-1.6748,0.38171-4.2455,0.57646-7.6965,0.57646h-10.08v13.812h-8.3041v-39.503z"/>
  <path fill-rule="nonzero" fill="#FFF" d="m1220.1,256.4c-3.6925,0-6.4345-0.3116-8.2262-0.92701s-3.3965-1.6904-4.8064-3.2095c-1.3088-1.3632-2.2358-2.9057-2.7733-4.6272-0.5375-1.7138-0.8023-4.1365-0.8023-7.2525v-23.487h8.3041v23.214c0,2.3136,0.1012,3.9417,0.3116,4.8843,0.2025,0.93479,0.5609,1.6982,1.0594,2.2669,0.7868,0.9348,1.7528,1.597,2.9057,1.9864,1.1451,0.39729,2.7265,0.59204,4.7519,0.59204h9.7842v6.5592h-10.509z"/>
  <path fill-rule="nonzero" fill="#FFF" d="m1240.5,216.89,0,23.65c0,3.6924,0.6699,6.2631,2.002,7.7277,1.3321,1.4567,3.6302,2.189,6.8942,2.189,3.2562,0,5.5542-0.72447,6.8785-2.1812,1.3243-1.4489,1.9865-4.0274,1.9865-7.7354v-23.65h8.3041v23.861c0,2.7966-0.1792,5.0245-0.5453,6.6916s-0.9582,2.9836-1.7606,3.9573c-1.5813,1.8618-3.5678,3.2328-5.9515,4.1053-2.3915,0.88027-5.3673,1.3165-8.9117,1.3165-3.5445,0-6.528-0.43624-8.9351-1.3165-2.4072-0.87248-4.4014-2.2435-5.9828-4.1053-0.7867-0.95038-1.3632-2.2357-1.7215-3.8482-0.3584-1.6125-0.5298-3.8794-0.5298-6.8006v-23.861h8.273z"/>
  <path fill-rule="nonzero" fill="#FFF" d="m1306.3,223.93-20.534,0c-2.2046,0-3.8171,0.41287-4.8454,1.2386-1.036,0.82574-1.5502,2.1267-1.5502,3.9184,0,1.4334,0.4441,2.5084,1.3165,3.225,0.8803,0.71668,2.189,1.075,3.9262,1.075h10.992c4.5493,0,7.7899,0.86469,9.7141,2.5863,1.9241,1.7138,2.89,4.5805,2.89,8.5924,0,4.0742-1.1139,7.0577-3.3341,8.9663-2.2201,1.9086-5.71,2.8589-10.478,2.8589h-22.124v-7.0422h20.807c2.3604,0,4.0274-0.34276,4.9934-1.0283,0.9659-0.6933,1.4567-1.8306,1.4567-3.4276,0-1.6515-0.444-2.82-1.3321-3.5211-0.888-0.7011-2.4071-1.0516-4.5571-1.0516h-9.8076c-4.5494,0-7.8835-0.90364-9.979-2.7265-2.1111-1.8151-3.1627-4.6896-3.1627-8.6079,0-4.1988,1.1062-7.2603,3.3185-9.1922,2.2124-1.9397,5.7257-2.9057,10.548-2.9057h21.742v7.0421z"/>
 </g>
</svg>
