<?xml version="1.0" encoding="UTF-8" standalone="no"?>
<svg xmlns:rdf="http://www.w3.org/1999/02/22-rdf-syntax-ns#" xmlns="http://www.w3.org/2000/svg" xmlns:cc="http://creativecommons.org/ns#" xmlns:xlink="http://www.w3.org/1999/xlink" xmlns:dc="http://purl.org/dc/elements/1.1/" height="23.884mm" width="169.33mm" version="1.1" viewBox="0 0 600.01183 84.628312">
  <defs>
    <linearGradient id="v" gradientUnits="userSpaceOnUse" y1="776.89" y2="776.89" gradientTransform="matrix(0 .7102 .7102 0 -502.97 462.31)" x1="0" x2="1">
      <stop stop-color="#77BEE5" offset="0"/>
      <stop stop-color="#1862A1" offset=".8438"/>
      <stop stop-color="#1862A1" offset="1"/>
    </linearGradient>
    <clipPath id="r">
      <use xlink:href="#q" height="776.69299" width="558.42499" y="0" x="0" overflow="visible"/>
    </clipPath>
    <linearGradient id="u" gradientUnits="userSpaceOnUse" y1="776.69" y2="776.69" gradientTransform="matrix(0,-3.4709,-3.4709,0,2744.7,465.63)" x1="0" x2="1">
      <stop stop-color="#004B7F" offset="0"/>
      <stop stop-color="#055086" offset=".1684"/>
      <stop stop-color="#115C98" offset=".4085"/>
      <stop stop-color="#1762A1" offset=".4948"/>
      <stop stop-color="#1762A1" offset="1"/>
    </linearGradient>
    <clipPath id="p">
      <use xlink:href="#o" height="776.69299" width="558.42499" y="0" x="0" overflow="visible"/>
    </clipPath>
    <linearGradient id="t" gradientUnits="userSpaceOnUse" y1="776.69" y2="776.69" gradientTransform="matrix(0 .7102 .7102 0 -514.24 462.31)" x1="0" x2="1">
      <stop stop-color="#006EAB" offset="0"/>
      <stop stop-color="#005385" offset=".299"/>
      <stop stop-color="#00375D" offset=".6574"/>
      <stop stop-color="#002C4E" offset=".8438"/>
      <stop stop-color="#002C4E" offset="1"/>
    </linearGradient>
    <clipPath id="n">
      <use xlink:href="#m" height="776.69299" width="558.42499" y="0" x="0" overflow="visible"/>
    </clipPath>
    <linearGradient id="s" gradientUnits="userSpaceOnUse" y1="776.69" y2="776.69" gradientTransform="matrix(0,-3.4709,-3.4709,0,2733.7,465.63)" x1="0" x2="1">
      <stop stop-color="#001F3B" offset="0"/>
      <stop stop-color="#002848" offset=".3557"/>
      <stop stop-color="#002C4E" offset=".4948"/>
      <stop stop-color="#002C4E" offset="1"/>
    </linearGradient>
    <clipPath id="b">
      <use xlink:href="#a" height="776.69299" width="558.42499" y="0" x="0" overflow="visible"/>
    </clipPath>
    <path id="q" d="m39.834 462.31c-0.036 0.06-0.058 0.13-0.058 0.21v0.5h18.047v-0.71h-17.989z"/>
    <path id="o" d="m40.109 462.15c-0.184 0-0.333 0.17-0.333 0.37v3.1h17.893c0.184 0 0.332-0.16 0.332-0.36v-3.11h-17.892z"/>
    <path id="m" d="m34.739 462.31c-0.141 0-0.256 0.16-0.256 0.36 0 0.19 0.115 0.35 0.256 0.35h5.29c0.142 0 0.257-0.16 0.257-0.35 0 0-0.115-0.36-0.257-0.36h-5.29z"/>
    <path id="a" d="m34.644 462.15c-0.184 0-0.332 0.17-0.332 0.37v2.74c0 0.2 0.148 0.36 0.332 0.36h6.455c0.184 0 0.333-0.16 0.333-0.36v-2.74c0-0.2-0.149-0.37-0.333-0.37h-6.455z"/>
  </defs>
  <path d="m34.312 462.15h7.12v3.47h-7.12z" clip-path="url(#b)" transform="matrix(24.389 0 0 24.389 -836.82 -11271)" fill="url(#s)"/>
  <path d="m34.483 462.31h5.803v0.71h-5.803z" clip-path="url(#n)" transform="matrix(24.389 0 0 24.389 -836.82 -11271)" fill="url(#t)"/>
  <path d="m92.104 77.354c0.966 0.506 2.991 1.118 5.51 1.189 4.346 0.106 6.696-1.554 8.466-5.486l23.21-51.822c-0.95-0.518-3.07-1.071-4.8-1.118-3-0.047-7.03 0.553-9.56 6.675l-7.53 17.729-14.766-24.016c-0.953-0.294-3.261-0.682-4.968-0.682-5.227 0-8.123 1.919-11.148 5.191l-14.339 15.681 11.537 18.176c2.119 3.308 4.921 5.015 9.477 5.015 3.002 0 5.497-0.706 6.639-1.236l-13.903-20.954 9.854-10.466 16.177 25.393-9.856 20.731zm-30.49-19.613c0 3.803-1.507 6.028-8.947 6.028-1 0-1.86-0.071-2.684-0.2v-50.68c0-3.8497 1.295-7.8759 8.829-7.8759 0.954 0 1.896 0.106 2.802 0.2944v52.434zm-15.386-7.628c0 7.146-4.662 12.337-14.127 13.361-6.851 0.707-16.752-0.141-21.484-0.682-0.142-0.754-0.295-1.707-0.295-2.484 0-6.216 3.367-7.664 6.51-7.664 3.273 0 8.441 0.588 12.267 0.588 4.25 0 5.521-1.459 5.521-2.801 0-1.778-1.683-2.543-4.979-3.144l-8.971-1.742c-7.463-1.436-11.442-6.581-11.442-12.066-0.0005-6.64 4.708-12.244 13.973-13.268 7.028-0.753 15.563 0.094 20.249 0.683 0.164 0.777 0.259 1.53 0.259 2.39 0 6.192-3.285 7.558-6.44 7.558-2.437 0-6.192-0.46-10.477-0.46-4.368 0-6.204 1.213-6.204 2.685 0 1.53 1.742 2.189 4.473 2.625l8.582 1.613c8.806 1.659 12.585 6.663 12.585 12.808" fill="#f8b322"/>
  <path d="m39.776 462.15h18.225v3.47h-18.225z" clip-path="url(#p)" transform="matrix(25.612 0 0 24.389 -885.49 -11271)" fill="url(#u)"/>
  <path d="m39.776 462.31h18.047v0.71h-18.047z" clip-path="url(#r)" transform="matrix(25.612 0 0 24.389 -885.49 -11271)" fill="url(#v)"/>
  <g fill="#fff">
    <path d="m159.63 28.181c-4.71 0-6.9 1.683-6.9 5.639 0 3.12 1.9 4.662 5.65 4.662h11.88c9.51 0 13.61 3.167 13.61 12.161 0 9.052-4.8 12.902-14.9 12.902h-23.9v-7.676h22.46c4.76 0 6.96-1.153 6.96-4.862 0-3.802-2.03-4.944-6.35-4.944h-10.58c-9.76 0-14.22-3.732-14.22-12.384 0-9.348 4.82-13.197 14.97-13.197h23.49v7.675h-22.17z"/>
    <path d="m197.58 46.31c0 7.629 2.19 10.796 9.63 10.796s9.56-3.191 9.56-10.796v-25.781h8.97v26.017c0 5.521-0.57 9.3-2.48 11.56-3.51 4.226-8.61 5.957-16.05 5.957s-12.6-1.731-16.12-5.957c-1.95-2.307-2.44-6.098-2.44-11.56v-26.017h8.93v25.781z"/>
    <path d="m251.25 20.505c5.81 0 9.93 0.507 12.54 2.19 3.8 2.472 5.88 6.534 5.88 11.855 0 5.144-1.61 8.805-4.93 11.195-3.63 2.59-7.78 2.779-13.14 2.779h-10.88v15.045h-8.97v-43.087h19.5zm-10.53 7.676v12.714h10.95c5.39 0 8.02-2.025 8.02-6.369 0-4.779-2.63-6.369-8.55-6.369h-10.42z"/>
    <path d="m283.11 38.034h24.85v7.488h-24.9c0.05 7.758 3.08 10.583 10.15 10.583h14.75v7.487h-15.17c-5.17 0-9.15-0.412-13.32-3.755-4.39-3.556-6.53-9.194-6.53-16.941 0-15.245 6.37-22.32 20.09-22.32h14.93v7.487h-14.75c-6.46-0.047-9.71 3.167-10.1 9.971"/>
    <path d="m337.71 20.505c10.1 0 14.9 3.897 14.9 12.95 0 6.651-3.07 10.925-8.6 12.125l10.63 17.989h-10.1l-9.38-16.917h-10.59v16.917h-8.98v-43.087h22.12zm-13.14 7.676v10.854h11c5.34 0 7.94-1.071 7.94-5.486 0-4.438-2.6-5.392-7.94-5.392h-11z"/>
    <path d="m382.37 43.744c0 9.394 2.86 12.537 10.27 12.537h14.47v7.299h-14.87c-5.09 0-8.98-0.412-13.08-3.684-4.31-3.438-6.42-8.924-6.42-16.505 0-14.822 6.26-21.708 19.73-21.708h14.64v7.181h-14.47c-7.41 0-10.27 4.485-10.27 14.88"/>
    <path d="m427.7 46.134h12.48l-6.35-16.105-6.13 16.105zm11.15-24.451 17.85 41.897h-9.8l-3.85-9.983h-18.2l-3.75 9.983h-9.33l17.74-41.897h9.34z"/>
    <path d="m461.51 59.201c-3.22-3.379-3.79-7.063-3.79-12.608v-24.899h8.8v22.98 1.625c0 3.449 0.06 5.956 1.46 7.593 1.86 2.213 4.37 2.743 8.11 2.743h10.39v6.945h-11.15c-6.07 0-10.09-0.412-13.82-4.379"/>
    <path d="m498.17 43.744c0 9.394 2.84 12.537 10.26 12.537h14.47v7.299h-14.88c-5.07 0-8.98-0.412-13.07-3.684-4.32-3.438-6.43-8.924-6.43-16.505 0-14.822 6.26-21.708 19.73-21.708h14.65v7.181h-14.47c-7.42 0-10.28 4.485-10.28 14.88"/>
    <path d="m529.44 21.683h9.22v41.897h-9.22v-41.897z"/>
    <path d="m554.32 42.284c0 10.207 3.38 14.939 11.25 14.939 7.76 0 11.32-4.732 11.32-14.597 0-9.854-3.56-14.586-11.32-14.586-7.59 0-11.25 4.732-11.25 14.244m11.25-21.414c14.24 0 20.89 6.946 20.89 21.756 0 14.821-6.65 21.825-20.89 21.825-14.41 0-20.88-7.004-20.88-22.226 0-14.409 6.82-21.355 20.88-21.355"/>
  </g>
</svg>
