<?xml version="1.0" encoding="UTF-8" standalone="no"?>
<svg xmlns:rdf="http://www.w3.org/1999/02/22-rdf-syntax-ns#" xmlns="http://www.w3.org/2000/svg" xmlns:cc="http://creativecommons.org/ns#" xmlns:xlink="http://www.w3.org/1999/xlink" xmlns:dc="http://purl.org/dc/elements/1.1/" height="22.013mm" width="169.33mm" version="1.1" viewBox="0 0 600.01183 78.000346">
  <defs>
    <linearGradient id="a" gradientUnits="userSpaceOnUse" gradientTransform="matrix(-7.7906e-7 16.006 -16.006 -7.7906e-7 533.47 3.5761)" x1="0" x2="1" y1="0" y2="0">
      <stop stop-color="#0070ad" offset="0"/>
      <stop stop-color="#152c53" offset=".84375"/>
      <stop stop-color="#152c53" offset="1"/>
    </linearGradient>
    <linearGradient id="b" gradientUnits="userSpaceOnUse" gradientTransform="matrix(-.0000031162 -78.002 78.002 -.0000031162 547.89 78.001)" x1="0" x2="1" y1="0" y2="0">
      <stop stop-color="#03193c" offset="0"/>
      <stop stop-color="#152c53" offset=".49479"/>
      <stop stop-color="#152c53" offset="1"/>
    </linearGradient>
    <linearGradient id="c" gradientUnits="userSpaceOnUse" gradientTransform="matrix(-7.7906e-7 15.992 -15.992 -7.7906e-7 311.64 3.5721)" y1="776.89" y2="776.89" x1="0" x2="1">
      <stop stop-color="#66bae8" offset="0"/>
      <stop stop-color="#2769a9" offset=".84375"/>
      <stop stop-color="#2769a9" offset="1"/>
    </linearGradient>
    <linearGradient id="d" gradientUnits="userSpaceOnUse" gradientTransform="matrix(-.0000031162 -77.978 77.978 -.0000031162 316.67 77.989)" x1="0" x2="1" y1="0" y2="0">
      <stop stop-color="#114d81" offset="0"/>
      <stop stop-color="#2669a9" offset=".49479"/>
      <stop stop-color="#2669a9" offset="1"/>
    </linearGradient>
    <linearGradient id="f" gradientUnits="userSpaceOnUse" gradientTransform="matrix(-7.7906e-7 15.992 -15.992 -7.7906e-7 70.893 3.5721)" x1="0" x2="1" y1="0" y2="0">
      <stop stop-color="#006EAB" offset="0"/>
      <stop stop-color="#005385" offset=".299"/>
      <stop stop-color="#00375D" offset=".6574"/>
      <stop stop-color="#002C4E" offset=".8438"/>
      <stop stop-color="#002C4E" offset="1"/>
    </linearGradient>
    <linearGradient id="e" gradientUnits="userSpaceOnUse" gradientTransform="matrix(-.0000031162 -77.978 77.978 -.0000031162 81.861 77.989)" y1="776.69" y2="776.69" x1="0" x2="1">
      <stop stop-color="#03193c" offset="0"/>
      <stop stop-color="#152c53" offset=".49479"/>
      <stop stop-color="#152c53" offset="1"/>
    </linearGradient>
  </defs>
  <path d="m7.479 0.01987c-4.1368 0-7.479 3.6616-7.479 8.1879v61.593c0 4.526 3.3422 8.187 7.479 8.187h148.78c4.12 0 7.47-3.661 7.47-8.187v-61.593c0-4.5267-3.35-8.1883-7.47-8.1883l-148.78-0.00007z" fill="url(#e)"/>
  <path d="m9.6191 3.5801c-3.1863 0-5.7728 3.5837-5.7728 7.9929 0 4.418 2.5865 7.993 5.7728 7.993h122.55c3.18 0 5.77-3.575 5.77-7.993 0 0-2.59-7.9929-5.77-7.9929h-122.55z" fill="url(#f)"/>
  <path d="m42.692 46.353c0 6.591-4.293 11.39-13.041 12.333-6.318 0.678-15.473-0.116-19.828-0.623-0.1479-0.701-0.2647-1.581-0.2647-2.29 0-5.742 3.0847-7.058 5.9987-7.058 3.031 0 7.798 0.521 11.335 0.521 3.911 0 5.087-1.316 5.087-2.586 0-1.644-1.558-2.322-4.589-2.914l-8.304-1.589c-6.887-1.324-10.564-6.092-10.564-11.148-0.0001-6.154 4.355-11.304 12.917-12.247 6.482-0.709 14.366 0.086 18.689 0.616 0.148 0.732 0.242 1.441 0.242 2.204 0 5.742-3.031 6.981-5.944 6.981-2.244 0-5.711-0.413-9.684-0.413-4.036 0-5.711 1.114-5.711 2.469 0 1.442 1.59 2.034 4.114 2.47l7.923 1.473c8.125 1.503 11.624 6.123 11.624 11.802m14.202 7.066c0 3.53-1.387 5.563-8.266 5.563-0.912 0-1.706-0.062-2.47-0.179v-46.791c0-3.5602 1.2-7.2763 8.149-7.2763 0.881 0 1.761 0.0935 2.587 0.2727v48.412zm28.147 18.098c0.911 0.467 2.766 1.028 5.095 1.091 4.004 0.085 6.178-1.442 7.798-5.033l21.456-47.858c-0.88-0.467-2.85-0.997-4.45-1.028-2.76-0.055-6.47 0.498-8.83 6.154l-6.937 16.392-13.633-22.188c-0.88-0.265-3.03-0.647-4.588-0.647-4.823 0-7.503 1.761-10.299 4.791l-13.244 14.484 10.658 16.773c1.971 3.062 4.557 4.62 8.764 4.62 2.773 0 5.064-0.647 6.123-1.145l-12.831-19.337 9.1-9.652 14.919 23.425-9.099 19.158z" fill="#f8b322"/>
  <path fill="url(#d)" d="m135.72 0.01987c-4.32 0-7.82 3.6071-7.82 8.1879v69.78h370.64c4.31 0 6.9-3.661 6.9-8.188v-69.78l-369.72-0.00037z"/>
  <path d="m129.25 3.5801c-0.85 1.3088-1.35 2.8982-1.35 4.6276v11.359h374.16v-15.987h-372.81z" fill="url(#c)"/>
  <g fill="#fff">
    <path d="m151.24 26.302c-4.33 0-6.36 1.535-6.36 5.157 0 2.852 1.76 4.277 5.21 4.277h10.97c8.77 0 12.55 2.906 12.55 11.125 0 8.282-4.44 11.787-13.76 11.787h-22.04v-7.011h20.72c4.39 0 6.41-1.044 6.41-4.449 0-3.506-1.86-4.55-5.86-4.55h-9.76c-8.99 0-13.1-3.396-13.1-11.289 0-8.554 4.44-12.067 13.81-12.067h21.66v7.019h-20.45z"/>
    <path d="m186.01 26.302v11.624h10.09c5 0 7.4-1.862 7.4-5.812 0-4.386-2.4-5.812-7.9-5.812h-9.59zm9.71-7.019c5.38 0 9.15 0.444 11.57 1.971 3.5 2.251 5.42 5.983 5.42 10.859 0 4.714-1.48 8.064-4.55 10.253-3.34 2.361-7.18 2.524-12.11 2.524h-10.04v13.758h-8.28v-39.366h17.99z"/>
    <path d="m224.02 38.633c0 9.598 3.17 14.039 10.58 14.039 7.29 0 10.64-4.441 10.64-13.711 0-9.263-3.35-13.704-10.64-13.704-7.13 0-10.58 4.44-10.58 13.376m10.58-20.124c13.37 0 19.63 6.529 19.63 20.451 0 13.929-6.26 20.504-19.63 20.504-13.54 0-19.63-6.575-19.63-20.886 0-13.54 6.41-20.069 19.63-20.069"/>
    <path d="m266.22 26.302v9.925h10.14c4.94 0 7.35-0.989 7.35-4.994 0-4.051-2.41-4.931-7.35-4.931h-10.14zm12.12-7.019c9.32 0 13.76 3.568 13.76 11.841 0 6.093-2.85 9.98-7.95 11.078l9.81 16.447h-9.32l-8.66-15.457h-9.76v15.457h-8.28v-39.366h20.4z"/>
    <path d="m294.02 26.192v-6.856h34.05v6.856h-12.77v32.455h-8.56v-32.455h-12.72z"/>
  </g>
  <path fill="url(#b)" d="m503.24-0.0001297c-4.14 0-7.54 3.6148-7.54 8.1334v69.867h96.79c4.13 0 7.52-3.67 7.52-8.18v-69.82l-96.77 0.0004403z"/>
  <path fill="url(#a)" d="m497.04 3.5801c-0.82 1.2932-1.3 2.867-1.3 4.5575v11.443h100.24v-16.002l-98.95-0.0002z"/>
  <g fill="#fff">
    <path d="m534.54 58.514v-16.936h-21.14v16.936h-9.17v-39.233h9.17v16.057h21.14v-16.057h9.18v39.233h-9.18z"/>
    <path d="m568.64 25.462h-9.71v26.823h9.79c10.42 0 13.6-0.421 13.6-13.353 0-12.94-3.26-13.47-13.68-13.47m19.51 27.766c-3.73 4.176-9.33 5.29-18.96 5.29h-19.27v-39.233h19.19c9.64 0 15.24 1.176 18.96 5.352 2.73 3.062 3.43 6.583 3.43 14.296 0 7.705-0.63 11.234-3.35 14.296"/>
    <path d="m362.93 26.292h-9.62v11.663h10.12c2.52 0 4.38-0.475 5.6-1.434 1.22-0.958 1.83-2.423 1.83-4.394 0-2.119-0.6-3.615-1.79-4.503-1.2-0.888-3.24-1.332-6.14-1.332m-17.93-7.042h18.04c3.04 0 5.46 0.155 7.28 0.475 1.81 0.311 3.25 0.81 4.32 1.488 1.8 1.145 3.15 2.649 4.08 4.503 0.92 1.854 1.38 3.989 1.38 6.411 0 2.361-0.38 4.394-1.12 6.085-0.76 1.69-1.91 3.093-3.45 4.207-1.29 0.911-2.77 1.566-4.45 1.947-1.67 0.382-4.24 0.577-7.69 0.577h-10.08v13.813h-8.31v-39.506z"/>
    <path d="m399.73 58.764c-3.69 0-6.44-0.311-8.23-0.927-1.79-0.615-3.39-1.69-4.8-3.209-1.31-1.364-2.24-2.906-2.78-4.628-0.54-1.714-0.8-4.137-0.8-7.253v-23.489h8.3v23.216c0 2.314 0.11 3.942 0.32 4.885 0.2 0.934 0.56 1.698 1.06 2.267 0.78 0.935 1.75 1.597 2.9 1.986 1.15 0.398 2.73 0.592 4.75 0.592h9.79v6.56h-10.51z"/>
    <path d="m420.13 19.251v23.652c0 3.693 0.67 6.264 2 7.728 1.34 1.457 3.63 2.19 6.9 2.19 3.25 0 5.55-0.725 6.88-2.182 1.32-1.449 1.98-4.027 1.98-7.736v-23.652h8.31v23.863c0 2.797-0.18 5.025-0.55 6.692-0.36 1.668-0.96 2.984-1.76 3.958-1.58 1.862-3.57 3.233-5.95 4.106-2.39 0.88-5.37 1.316-8.91 1.316-3.55 0-6.53-0.436-8.94-1.316-2.41-0.873-4.4-2.244-5.98-4.106-0.79-0.95-1.36-2.236-1.72-3.848-0.36-1.613-0.53-3.88-0.53-6.802v-23.862h8.27z"/>
    <path d="m485.94 26.292h-20.54c-2.2 0-3.82 0.413-4.85 1.239-1.03 0.825-1.55 2.126-1.55 3.918 0 1.434 0.45 2.509 1.32 3.226 0.88 0.716 2.19 1.075 3.93 1.075h10.99c4.55 0 7.79 0.864 9.72 2.586 1.92 1.714 2.89 4.581 2.89 8.593 0 4.075-1.12 7.058-3.34 8.967s-5.71 2.859-10.48 2.859h-22.12v-7.042h20.81c2.36 0 4.02-0.343 4.99-1.029 0.96-0.693 1.46-1.831 1.46-3.428 0-1.651-0.45-2.82-1.34-3.521-0.88-0.701-2.4-1.052-4.55-1.052h-9.81c-4.55 0-7.89-0.903-9.98-2.726-2.11-1.816-3.17-4.69-3.17-8.609 0-4.199 1.11-7.261 3.32-9.193 2.22-1.94 5.73-2.906 10.55-2.906h21.75v7.043z"/>
  </g>
</svg>
