<?xml version="1.0" encoding="UTF-8" standalone="no"?>
<svg xmlns:rdf="http://www.w3.org/1999/02/22-rdf-syntax-ns#" xmlns="http://www.w3.org/2000/svg" xmlns:cc="http://creativecommons.org/ns#" xmlns:xlink="http://www.w3.org/1999/xlink" xmlns:dc="http://purl.org/dc/elements/1.1/" height="20.282mm" width="169.33mm" version="1.1" viewBox="0 0 600.00004 71.866515">
  <defs>
    <linearGradient id="c" y2="776.89" gradientUnits="userSpaceOnUse" gradientTransform="matrix(0 .7102 .7102 0 -502.97 462.31)" y1="776.89" x1="0" x2="1">
      <stop stop-color="#77BEE5" offset="0"/>
      <stop stop-color="#1862A1" offset=".8438"/>
      <stop stop-color="#1862A1" offset="1"/>
    </linearGradient>
    <clipPath id="g">
      <use xlink:href="#h" height="776.69299" width="558.42499" y="0" x="0" overflow="visible"/>
    </clipPath>
    <linearGradient id="d" y2="776.69" gradientUnits="userSpaceOnUse" gradientTransform="matrix(0 -3.4709 -3.4709 0 2744.7 465.63)" y1="776.69" x1="0" x2="1">
      <stop stop-color="#004B7F" offset="0"/>
      <stop stop-color="#055086" offset=".1684"/>
      <stop stop-color="#115C98" offset=".4085"/>
      <stop stop-color="#1762A1" offset=".4948"/>
      <stop stop-color="#1762A1" offset="1"/>
    </linearGradient>
    <clipPath id="i">
      <use xlink:href="#j" height="776.69299" width="558.42499" y="0" x="0" overflow="visible"/>
    </clipPath>
    <linearGradient id="e" y2="776.69" gradientUnits="userSpaceOnUse" gradientTransform="matrix(0 .7102 .7102 0 -514.24 462.31)" y1="776.69" x1="0" x2="1">
      <stop stop-color="#006EAB" offset="0"/>
      <stop stop-color="#005385" offset=".299"/>
      <stop stop-color="#00375D" offset=".6574"/>
      <stop stop-color="#002C4E" offset=".8438"/>
      <stop stop-color="#002C4E" offset="1"/>
    </linearGradient>
    <clipPath id="k">
      <use xlink:href="#l" height="776.69299" width="558.42499" y="0" x="0" overflow="visible"/>
    </clipPath>
    <linearGradient id="f" y2="776.69" gradientUnits="userSpaceOnUse" gradientTransform="matrix(0 -3.4709 -3.4709 0 2733.7 465.63)" y1="776.69" x1="0" x2="1">
      <stop stop-color="#001F3B" offset="0"/>
      <stop stop-color="#002848" offset=".3557"/>
      <stop stop-color="#002C4E" offset=".4948"/>
      <stop stop-color="#002C4E" offset="1"/>
    </linearGradient>
    <clipPath id="m">
      <use xlink:href="#n" height="776.69299" width="558.42499" y="0" x="0" overflow="visible"/>
    </clipPath>
    <linearGradient id="b" gradientUnits="userSpaceOnUse" gradientTransform="matrix(-.0000028755 -71.867 71.867 -.0000028755 721.66 505.44)" x1="0" x2="1" y1="0" y2="0">
      <stop stop-color="#03193c" offset="0"/>
      <stop stop-color="#152c53" offset=".49479"/>
      <stop stop-color="#152c53" offset="1"/>
    </linearGradient>
    <linearGradient id="a" gradientUnits="userSpaceOnUse" gradientTransform="matrix(-7.1888e-7 14.747 -14.747 -7.1888e-7 709.22 436.87)" x1="0" x2="1" y1="0" y2="0">
      <stop stop-color="#0070ad" offset="0"/>
      <stop stop-color="#152c53" offset=".84375"/>
      <stop stop-color="#152c53" offset="1"/>
    </linearGradient>
    <path id="h" d="m39.834 462.31c-0.036 0.06-0.058 0.13-0.058 0.21v0.5h18.047v-0.71h-17.989z"/>
    <path id="j" d="m40.109 462.15c-0.184 0-0.333 0.17-0.333 0.37v3.1h17.893c0.184 0 0.332-0.16 0.332-0.36v-3.11h-17.892z"/>
    <path id="l" d="m34.739 462.31c-0.141 0-0.256 0.16-0.256 0.36 0 0.19 0.115 0.35 0.256 0.35h5.29c0.142 0 0.257-0.16 0.257-0.35 0 0-0.115-0.36-0.257-0.36h-5.29z"/>
    <path id="n" d="m34.644 462.15c-0.184 0-0.332 0.17-0.332 0.37v2.74c0 0.2 0.148 0.36 0.332 0.36h6.455c0.184 0 0.333-0.16 0.333-0.36v-2.74c0-0.2-0.149-0.37-0.333-0.37h-6.455z"/>
  </defs>
  <g transform="translate(-170.08 -433.57)">
    <path d="m34.312 462.15h7.12v3.47h-7.12z" clip-path="url(#m)" transform="matrix(20.717 0 0 20.717 -540.75 -9140.7)" fill="url(#f)"/>
    <path d="m34.483 462.31h5.803v0.71h-5.803z" clip-path="url(#k)" transform="matrix(20.717 0 0 20.717 -540.75 -9140.7)" fill="url(#e)"/>
    <path fill="#f8b322" d="m248.33 499.37c0.82 0.43 2.54 0.95 4.68 1.01 3.69 0.09 5.69-1.32 7.19-4.66l19.72-44.02c-0.81-0.44-2.61-0.91-4.08-0.95-2.55-0.04-5.97 0.47-8.12 5.67l-6.4 15.06-12.54-20.4c-0.81-0.25-2.77-0.58-4.22-0.58-4.44 0-6.9 1.63-9.47 4.41l-12.18 13.32 9.8 15.44c1.8 2.81 4.18 4.26 8.05 4.26 2.55 0 4.67-0.6 5.64-1.05l-11.81-17.8 8.37-8.89 13.74 21.57-8.37 17.61zm-25.9-16.66c0 3.23-1.28 5.12-7.6 5.12-0.85 0-1.58-0.06-2.28-0.17v-43.05c0-3.27 1.1-6.69 7.5-6.69 0.81 0 1.61 0.09 2.38 0.25v44.54zm-13.07-6.48c0 6.07-3.96 10.48-12 11.35-5.82 0.6-14.23-0.12-18.25-0.58-0.12-0.64-0.25-1.45-0.25-2.11 0-5.28 2.86-6.51 5.53-6.51 2.78 0 7.17 0.5 10.42 0.5 3.61 0 4.69-1.24 4.69-2.38 0-1.51-1.43-2.16-4.23-2.67l-7.62-1.48c-6.34-1.22-9.72-5.59-9.72-10.25 0-5.64 4-10.4 11.87-11.27 5.97-0.64 13.22 0.08 17.2 0.58 0.14 0.66 0.22 1.3 0.22 2.03 0 5.26-2.79 6.42-5.47 6.42-2.07 0-5.26-0.39-8.9-0.39-3.71 0-5.27 1.03-5.27 2.28 0 1.3 1.48 1.86 3.8 2.23l7.29 1.37c7.48 1.41 10.69 5.66 10.69 10.88"/>
    <path d="m39.776 462.15h18.225v3.47h-18.225z" clip-path="url(#i)" transform="matrix(23.121 0 0 20.717 -636.39 -9140.7)" fill="url(#d)"/>
    <path d="m39.776 462.31h18.047v0.71h-18.047z" clip-path="url(#g)" transform="matrix(23.121 0 0 20.717 -636.39 -9140.7)" fill="url(#c)"/>
    <g fill="#fff">
      <path d="m305.69 457.6c-4 0-5.86 1.43-5.86 4.79 0 2.65 1.61 3.96 4.8 3.96h10.09c8.08 0 11.56 2.69 11.56 10.33 0 7.69-4.08 10.96-12.66 10.96h-20.3v-6.52h19.08c4.04 0 5.91-0.98 5.91-4.13 0-3.23-1.72-4.2-5.39-4.2h-8.99c-8.29 0-12.08-3.17-12.08-10.52 0-7.94 4.1-11.21 12.72-11.21h19.95v6.52h-18.83z"/>
      <path d="m337.93 473c0 6.48 1.86 9.17 8.18 9.17s8.12-2.71 8.12-9.17v-21.9h7.62v22.1c0 4.69-0.49 7.9-2.11 9.82-2.98 3.59-7.31 5.06-13.63 5.06s-10.71-1.47-13.7-5.06c-1.65-1.96-2.07-5.18-2.07-9.82v-22.1h7.59v21.9z"/>
      <path d="m383.52 451.08c4.93 0 8.43 0.43 10.65 1.86 3.23 2.1 4.99 5.55 4.99 10.07 0 4.37-1.36 7.48-4.18 9.51-3.09 2.2-6.61 2.36-11.17 2.36h-9.24v12.78h-7.62v-36.6h16.57zm-8.95 6.52v10.8h9.3c4.58 0 6.82-1.72 6.82-5.41 0-4.06-2.24-5.41-7.27-5.41h-8.85z"/>
      <path d="m410.58 465.97h21.11v6.36h-21.15c0.04 6.59 2.61 8.99 8.62 8.99h12.53v6.36h-12.89c-4.39 0-7.77-0.35-11.31-3.19-3.73-3.02-5.55-7.81-5.55-14.39 0-12.95 5.41-18.96 17.07-18.96h12.68v6.36h-12.53c-5.49-0.04-8.25 2.69-8.58 8.47"/>
      <path d="m456.96 451.08c8.58 0 12.66 3.31 12.66 11 0 5.65-2.61 9.28-7.31 10.3l9.03 15.28h-8.58l-7.97-14.37h-8.99v14.37h-7.63v-36.6h18.79zm-11.16 6.52v9.22h9.34c4.54 0 6.75-0.91 6.75-4.66 0-3.77-2.21-4.58-6.75-4.58h-9.34z"/>
      <g>
        <path d="m494.9 470.82c0 7.98 2.43 10.65 8.72 10.65h12.29v6.2h-12.63c-4.32 0-7.63-0.35-11.11-3.13-3.66-2.92-5.45-7.58-5.45-14.02 0-12.59 5.31-18.44 16.76-18.44h12.43v6.1h-12.29c-6.29 0-8.72 3.81-8.72 12.64"/>
        <path d="m533.4 472.85h10.6l-5.39-13.68-5.21 13.68zm9.47-20.77 15.17 35.59h-8.33l-3.27-8.48h-15.46l-3.18 8.48h-7.93l15.07-35.59h7.93z"/>
        <path d="m562.12 483.95c-2.73-2.87-3.22-6-3.22-10.71v-21.15h7.48v19.52 1.38c0 2.93 0.05 5.06 1.24 6.45 1.58 1.88 3.71 2.33 6.89 2.33h8.82v5.9h-9.47c-5.15 0-8.57-0.35-11.74-3.72"/>
        <path d="m593.26 470.82c0 7.98 2.42 10.65 8.72 10.65h12.29v6.2h-12.64c-4.31 0-7.63-0.35-11.1-3.13-3.67-2.92-5.46-7.58-5.46-14.02 0-12.59 5.31-18.44 16.76-18.44h12.44v6.1h-12.29c-6.3 0-8.73 3.81-8.73 12.64"/>
        <path d="m619.83 452.08h7.83v35.59h-7.83v-35.59z"/>
        <path d="m640.96 469.58c0 8.67 2.87 12.69 9.56 12.69 6.59 0 9.61-4.02 9.61-12.4 0-8.37-3.02-12.39-9.61-12.39-6.45 0-9.56 4.02-9.56 12.1m9.56-18.19c12.09 0 17.74 5.9 17.74 18.48 0 12.59-5.65 18.54-17.74 18.54-12.24 0-17.74-5.95-17.74-18.88 0-12.24 5.79-18.14 17.74-18.14"/>
      </g>
    </g>
    <path fill="url(#b)" d="m680.19 433.57c-3.81 0-6.95 3.34-6.95 7.5v64.37h89.9c3.81 0 6.88-3.38 6.88-7.54l0.06-64.33h-89.89z"/>
    <path fill="url(#a)" d="m674.43 436.87c-0.75 1.2-1.19 2.64-1.19 4.2v10.55h93.09v-14.75h-91.9z"/>
    <path d="m709.19 487.49v-15.8h-19.72v15.8h-8.56v-36.59h8.56v14.97h19.72v-14.97h8.55v36.59h-8.55z" fill="#fff"/>
    <path d="m741.01 456.66h-9.07v25.02h9.15c9.71 0 12.68-0.39 12.68-12.46s-3.04-12.56-12.76-12.56m18.19 25.89c-3.48 3.9-8.7 4.94-17.68 4.94h-17.97v-36.59h17.9c8.98 0 14.21 1.1 17.68 4.99 2.54 2.86 3.19 6.14 3.19 13.33s-0.58 10.48-3.12 13.33" fill="#fff"/>
  </g>
</svg>
