<?xml version="1.0" encoding="UTF-8" standalone="no"?>
<svg xmlns:rdf="http://www.w3.org/1999/02/22-rdf-syntax-ns#" xmlns="http://www.w3.org/2000/svg" xmlns:cc="http://creativecommons.org/ns#" xmlns:dc="http://purl.org/dc/elements/1.1/" version="1.1" xml:space="preserve" height="94.606" width="600" enable-background="new 0 0 595.276 841.89" y="0px" x="0px" viewBox="0 0 600 94.606157"> <defs> <linearGradient id="a" gradientUnits="userSpaceOnUse" gradientTransform="matrix(-9.4492e-7 19.413 -19.413 -9.4492e-7 519.29 4.3376)" x1="0" x2="1" y1="0" y2="0"> <stop stop-color="#0070ad" offset="0"/> <stop stop-color="#152c53" offset=".84375"/> <stop stop-color="#152c53" offset="1"/> </linearGradient> <linearGradient id="b" gradientUnits="userSpaceOnUse" gradientTransform="matrix(-.0000037796 -94.608 94.608 -.0000037796 536.79 94.607)" x1="0" x2="1" y1="0" y2="0"> <stop stop-color="#03193c" offset="0"/> <stop stop-color="#152c53" offset=".49479"/> <stop stop-color="#152c53" offset="1"/> </linearGradient> <linearGradient id="c" y2="776.89" gradientUnits="userSpaceOnUse" gradientTransform="matrix(-6.9489e-7 19.396 -14.264 -9.4492e-7 319.02 4.3327)" y1="776.89" x1="0" x2="1"> <stop stop-color="#66bae8" offset="0"/> <stop stop-color="#2769a9" offset=".84375"/> <stop stop-color="#2769a9" offset="1"/> </linearGradient> <linearGradient id="d" gradientUnits="userSpaceOnUse" gradientTransform="matrix(-.0000027795 -94.579 69.553 -.0000037796 323.51 94.593)" x1="0" x2="1" y1="0" y2="0"> <stop stop-color="#114d81" offset="0"/> <stop stop-color="#2669a9" offset=".49479"/> <stop stop-color="#2669a9" offset="1"/> </linearGradient> <linearGradient id="f" gradientUnits="userSpaceOnUse" gradientTransform="matrix(-9.4492e-7 19.396 -19.396 -9.4492e-7 85.985 4.3327)" x1="0" x2="1" y1="0" y2="0"> <stop stop-color="#006EAB" offset="0"/> <stop stop-color="#005385" offset=".299"/> <stop stop-color="#00375D" offset=".6574"/> <stop stop-color="#002C4E" offset=".8438"/> <stop stop-color="#002C4E" offset="1"/> </linearGradient> <linearGradient id="e" y2="776.69" gradientUnits="userSpaceOnUse" gradientTransform="matrix(-.0000037796 -94.579 94.579 -.0000037796 99.288 94.593)" y1="776.69" x1="0" x2="1"> <stop stop-color="#03193c" offset="0"/> <stop stop-color="#152c53" offset=".49479"/> <stop stop-color="#152c53" offset="1"/> </linearGradient> </defs> <path fill="url(#e)" d="m9.0704 0.024262c-5.0175 0-9.0712 4.4411-9.0712 9.931l0.00000654 74.706c0 5.489 4.0537 9.93 9.0712 9.93h180.45c5.01 0 9.06-4.441 9.06-9.93v-74.706c0-5.4902-4.05-9.9313-9.06-9.9313l-180.45-0.000113z"/> <path fill="url(#f)" d="m11.666 4.3425c-3.8645 0-7.0017 4.3465-7.0017 9.6945 0 5.358 3.1372 9.694 7.0017 9.694h148.64c3.85 0 6.99-4.336 6.99-9.694 0 0-3.14-9.6945-6.99-9.6945h-148.64z"/> <path fill="#f8b322" d="m51.781 56.221c0 7.994-5.208 13.815-15.818 14.959-7.663 0.822-18.767-0.14-24.049-0.755-0.18-0.851-0.321-1.918-0.321-2.778 0-6.964 3.74-8.561 7.275-8.561 3.677 0 9.458 0.632 13.749 0.632 4.743 0 6.169-1.596 6.169-3.137 0-1.993-1.89-2.815-5.565-3.533l-10.072-1.928c-8.354-1.606-12.814-7.389-12.814-13.521 0-7.464 5.282-13.711 15.668-14.854 7.861-0.861 17.424 0.103 22.667 0.747 0.18 0.888 0.294 1.747 0.294 2.672 0 6.965-3.677 8.468-7.209 8.468-2.722 0-6.928-0.501-11.747-0.501-4.894 0-6.926 1.352-6.926 2.995 0 1.748 1.928 2.467 4.989 2.996l9.611 1.786c9.854 1.823 14.099 7.427 14.099 14.315m17.224 8.57c0 4.282-1.682 6.747-10.025 6.747-1.107 0-2.069-0.075-2.996-0.216v-56.754c0-4.318 1.455-8.8247 9.884-8.8247 1.069 0 2.136 0.1134 3.137 0.3307v58.72zm34.145 21.951c1.1 0.566 3.35 1.247 6.18 1.323 4.85 0.103 7.49-1.749 9.45-6.104l26.02-58.048c-1.06-0.565-3.45-1.209-5.39-1.246-3.34-0.066-7.84 0.604-10.71 7.464l-8.42 19.882-16.53-26.912c-1.07-0.321-3.68-0.784-5.565-0.784-5.849 0-9.1 2.135-12.491 5.811l-16.063 17.567 12.926 20.344c2.391 3.714 5.528 5.604 10.63 5.604 3.363 0 6.142-0.785 7.423-1.389l-15.559-23.454 11.037-11.707 18.092 28.413-11.03 23.236z"/> <path fill="url(#d)" d="m162.1 0.024262c-3.85 0-6.98 4.375-6.98 9.931v84.636h330.61c3.83 0 6.15-4.441 6.15-9.931v-84.636l-329.78-0.000413z"/> <path fill="url(#c)" d="m156.33 4.3425c-0.75 1.5873-1.21 3.5151-1.21 5.6127v13.777h333.74v-19.39l-332.53-0.0002z"/> <path fill="url(#b)" d="m482.63 0c-5.03 0-9.14 4.3843-9.14 9.865v84.741h117.39c5.01 0 9.12-4.451 9.12-9.921v-84.685l-117.37 0.0012181z"/> <path fill="url(#a)" d="m475.11 4.3425c-1 1.5684-1.57 3.4774-1.57 5.5277v13.88h121.57v-19.409l-120.01-0.0003z"/> <g fill="#fff"> <path d="m520.59 70.971v-20.541h-25.64v20.541h-11.12v-47.585h11.12v19.476h25.64v-19.476h11.14v47.585h-11.14z"/> <path d="m561.96 30.883h-11.78v32.533h11.87c12.64 0 16.5-0.51 16.5-16.195 0-15.696-3.96-16.338-16.59-16.338m23.65 33.678c-4.52 5.064-11.31 6.415-22.99 6.415h-23.37v-47.585h23.27c11.7 0 18.48 1.427 22.99 6.491 3.32 3.714 4.17 7.985 4.17 17.34 0 9.345-0.76 13.626-4.07 17.34"/> <path d="m183.44 31.896c-5.26 0-7.72 1.866-7.72 6.256 0 3.459 2.14 5.188 6.32 5.188h13.31c10.63 0 15.22 3.524 15.22 13.493 0 10.045-5.38 14.296-16.69 14.296h-26.73v-8.504h25.13c5.32 0 7.78-1.266 7.78-5.396 0-4.252-2.26-5.519-7.12-5.519h-11.84c-10.9 0-15.88-4.119-15.88-13.692 0-10.378 5.38-14.633 16.75-14.633h26.27v8.511h-24.8z"/> <path d="m225.61 31.896v14.099h12.24c6.06 0 8.97-2.258 8.97-7.049 0-5.316-2.91-7.05-9.58-7.05h-11.63zm11.78-8.511c6.52 0 11.09 0.539 14.03 2.389 4.24 2.733 6.58 7.254 6.58 13.171 0 5.717-1.8 9.781-5.53 12.436-4.05 2.863-8.7 3.061-14.68 3.061h-12.18v16.687h-10.05v-47.744h21.83z"/> <path d="m271.71 46.853c0 11.641 3.85 17.028 12.83 17.028 8.84 0 12.9-5.387 12.9-16.63 0-11.235-4.06-16.62-12.9-16.62-8.65 0-12.83 5.383-12.83 16.222m12.83-24.405c16.22 0 23.81 7.918 23.81 24.801 0 16.895-7.59 24.87-23.81 24.87-16.42 0-23.8-7.975-23.8-25.333 0-16.42 7.77-24.338 23.8-24.338"/> <path d="m322.89 31.896v12.039h12.3c6 0 8.92-1.2 8.92-6.058 0-4.911-2.92-5.981-8.92-5.981h-12.3zm14.71-8.511c11.3 0 16.68 4.326 16.68 14.36 0 7.391-3.46 12.105-9.64 13.437l11.9 19.948h-11.31l-10.5-18.747h-11.84v18.747h-10.04v-47.745h24.75z"/> <path d="m356.61 31.763v-8.316h41.3v8.316h-15.48v39.365h-10.39v-39.365h-15.43z"/> <path d="m426.72 35.039h5.73v37.08h10.87v-48.133h-16.6z"/> </g> </svg>
