<?xml version="1.0" encoding="UTF-8" standalone="no"?>
<svg xmlns:rdf="http://www.w3.org/1999/02/22-rdf-syntax-ns#" xmlns="http://www.w3.org/2000/svg" xmlns:cc="http://creativecommons.org/ns#" xmlns:xlink="http://www.w3.org/1999/xlink" xmlns:dc="http://purl.org/dc/elements/1.1/" height="39.128mm" width="169.33mm" version="1.1" viewBox="0 0 600.02362 138.64406">
  <defs>
    <linearGradient id="e" gradientUnits="userSpaceOnUse" y1="776.89" y2="776.89" gradientTransform="matrix(-7.5943e-7 28.438 -15.589 -.0000013854 406.55 6.3163)" x1="0" x2="1">
      <stop stop-color="#66bae8" offset="0"/>
      <stop stop-color="#2769a9" offset=".84375"/>
      <stop stop-color="#2769a9" offset="1"/>
    </linearGradient>
    <linearGradient id="f" gradientUnits="userSpaceOnUse" gradientTransform="matrix(-.0000030753 -138.67 76.954 -.0000055414 413.73 138.65)" x1="0" x2="1" y1="0" y2="0">
      <stop stop-color="#114d81" offset="0"/>
      <stop stop-color="#2669a9" offset=".49479"/>
      <stop stop-color="#2669a9" offset="1"/>
    </linearGradient>
    <linearGradient id="h" gradientUnits="userSpaceOnUse" gradientTransform="matrix(-.0000013854 28.438 -28.438 -.0000013854 126.07 6.3163)" x1="0" x2="1" y1="0" y2="0">
      <stop stop-color="#006EAB" offset="0"/>
      <stop stop-color="#005385" offset=".299"/>
      <stop stop-color="#00375D" offset=".6574"/>
      <stop stop-color="#002C4E" offset=".8438"/>
      <stop stop-color="#002C4E" offset="1"/>
    </linearGradient>
    <linearGradient id="g" gradientUnits="userSpaceOnUse" y1="776.69" y2="776.69" gradientTransform="matrix(-.0000055414 -138.67 138.67 -.0000055414 145.57 138.65)" x1="0" x2="1">
      <stop stop-color="#03193c" offset="0"/>
      <stop stop-color="#152c53" offset=".49479"/>
      <stop stop-color="#152c53" offset="1"/>
    </linearGradient>
  </defs>
  <path fill="url(#g)" d="m13.299-0.00039249c-7.3557 0-13.299 6.5112-13.299 14.56v109.53c0 8.05 5.9433 14.56 13.299 14.56h264.57c7.31 0 13.27-6.51 13.27-14.56v-109.53c0-8.0497-5.96-14.56-13.27-14.56l-264.57-0.0011025z"/>
  <path fill="url(#h)" d="m17.106 6.3305c-5.667 0-10.266 6.3725-10.266 14.212-0.0004 7.857 4.599 14.215 10.266 14.215h217.92c5.66 0 10.26-6.358 10.26-14.214 0 0-4.6-14.212-10.26-14.212l-217.92-0.0009z"/>
  <path fill="#f8b322" d="m75.916 82.392c0 11.72-7.633 20.248-23.189 21.928-11.235 1.21-27.515-0.2-35.259-1.11-0.263-1.24-0.471-2.81-0.471-4.067 0-10.211 5.485-12.551 10.668-12.551 5.389 0 13.866 0.926 20.156 0.926 6.954 0 9.046-2.34 9.046-4.599 0-2.923-2.771-4.129-8.162-5.181l-14.765-2.826c-12.247-2.354-18.786-10.834-18.786-19.823 0-10.944 7.744-20.102 22.97-21.78 11.526-1.26 25.547 0.154 33.233 1.096 0.264 1.302 0.431 2.563 0.431 3.92 0 10.21-5.39 12.413-10.57 12.413-3.991 0-10.156-0.734-17.221-0.734-7.177 0-10.155 1.981-10.155 4.391 0 2.564 2.827 3.617 7.315 4.391l14.09 2.62c14.447 2.672 20.669 10.889 20.669 20.987m25.254 12.565c0 6.272-2.465 9.892-14.698 9.892-1.621 0-3.034-0.11-4.391-0.32v-83.204c0-6.33 2.134-12.939 14.49-12.939 1.566 0.0003 3.132 0.1666 4.599 0.4852v86.089zm50.06 32.182c1.62 0.83 4.92 1.83 9.05 1.94 7.12 0.15 10.98-2.56 13.87-8.95l38.15-85.103c-1.56-0.829-5.06-1.772-7.9-1.827-4.92-0.098-11.51 0.885-15.71 10.944l-12.34 29.148-24.23-39.456c-1.57-0.471-5.4-1.15-8.17-1.15-8.57 0-13.34 3.132-18.31 8.519l-23.55 25.756 18.95 29.827c3.5 5.442 8.1 8.212 15.58 8.212 4.93 0 9.01-1.15 10.89-2.03l-22.81-34.389 16.17-17.163 26.53 41.655-16.17 34.067z"/>
  <path fill="url(#f)" d="m235.15-0.00039249c-4.26 0-7.72 6.4143-7.72 14.56v124.09h365.78c4.26 0 6.81-6.51 6.81-14.56v-124.09l-364.87-0.0011025z"/>
  <path fill="url(#e)" d="m228.75 6.3305c-0.83 2.3274-1.32 5.1535-1.32 8.2285v20.2h364.74v-28.429l-363.42-0.0001z"/>
  <g fill="#fff">
    <path d="m268.94 46.735c-7.7 0-11.31 2.73-11.31 9.171 0 5.072 3.13 7.605 9.27 7.605h19.5c15.6 0 22.32 5.168 22.32 19.783 0 14.728-7.89 20.956-24.47 20.956h-39.2v-12.463h36.85c7.82 0 11.4-1.856 11.4-7.911 0-6.235-3.3-8.091-10.42-8.091h-17.35c-15.99 0-23.29-6.039-23.29-20.074 0-15.212 7.89-21.459 24.54-21.459h38.52v12.482h-36.36z"/>
    <path d="m330.78 46.735v20.671h17.93c8.9 0 13.16-3.311 13.16-10.335 0-7.8-4.26-10.336-14.04-10.336h-17.05zm17.25-12.481c9.58 0 16.28 0.79 20.59 3.505 6.22 4.003 9.64 10.639 9.64 19.31 0 8.383-2.64 14.34-8.1 18.232-5.94 4.199-12.77 4.489-21.54 4.489h-17.84v24.46h-14.73v-69.998h31.98z"/>
    <path d="m398.36 68.663c0 17.068 5.64 24.965 18.82 24.965 12.96 0 18.91-7.897 18.91-24.382 0-16.471-5.95-24.368-18.91-24.368-12.68 0-18.82 7.895-18.82 23.785m18.82-35.785c23.76 0 34.9 11.61 34.9 36.367 0 24.769-11.14 36.465-34.9 36.465-24.08 0-34.91-11.696-34.91-37.145 0-24.077 11.39-35.687 34.91-35.687"/>
    <path d="m473.4 46.735v17.65h18.04c8.78 0 13.07-1.758 13.07-8.88 0-7.204-4.29-8.77-13.07-8.77h-18.04zm21.56-12.481c16.56 0 24.47 6.346 24.47 21.056 0 10.836-5.07 17.748-14.14 19.7l17.44 29.25h-16.57l-15.4-27.49h-17.36v27.49h-14.72v-70.006h36.28z"/>
    <path d="m522.83 46.54v-12.191h60.55v12.191h-22.71v57.71h-15.21v-57.71h-22.63z"/>
  </g>
</svg>
