<?xml version="1.0" encoding="UTF-8" standalone="no"?>
<svg xmlns:rdf="http://www.w3.org/1999/02/22-rdf-syntax-ns#" xmlns="http://www.w3.org/2000/svg" xmlns:cc="http://creativecommons.org/ns#" xmlns:dc="http://purl.org/dc/elements/1.1/" version="1.1" xml:space="preserve" height="119.96" width="600" enable-background="new 0 0 595.276 841.89" y="0px" x="0px" viewBox="0 0 600 119.95753"> <defs> <linearGradient id="c" y2="776.89" gradientUnits="userSpaceOnUse" gradientTransform="matrix(-8.2898e-7 24.604 -17.017 -.0000011986 392.29 5.4653)" y1="776.89" x1="0" x2="1"> <stop stop-color="#66bae8" offset="0"/> <stop stop-color="#2769a9" offset=".84375"/> <stop stop-color="#2769a9" offset="1"/> </linearGradient> <linearGradient id="d" gradientUnits="userSpaceOnUse" gradientTransform="matrix(-.0000033282 -119.97 83.283 -.0000047943 398.39 119.96)" x1="0" x2="1" y1="0" y2="0"> <stop stop-color="#114d81" offset="0"/> <stop stop-color="#2669a9" offset=".49479"/> <stop stop-color="#2669a9" offset="1"/> </linearGradient> <linearGradient id="f" gradientUnits="userSpaceOnUse" gradientTransform="matrix(-.0000011986 24.604 -24.604 -.0000011986 109.07 5.4653)" x1="0" x2="1" y1="0" y2="0"> <stop stop-color="#006EAB" offset="0"/> <stop stop-color="#005385" offset=".299"/> <stop stop-color="#00375D" offset=".6574"/> <stop stop-color="#002C4E" offset=".8438"/> <stop stop-color="#002C4E" offset="1"/> </linearGradient> <linearGradient id="e" y2="776.69" gradientUnits="userSpaceOnUse" gradientTransform="matrix(-.0000047943 -119.97 119.97 -.0000047943 125.94 119.96)" y1="776.69" x1="0" x2="1"> <stop stop-color="#03193c" offset="0"/> <stop stop-color="#152c53" offset=".49479"/> <stop stop-color="#152c53" offset="1"/> </linearGradient> </defs> <path fill="url(#e)" d="m11.507 0.00013852c-6.3649 0-11.507 5.6335-11.507 12.597v94.763c0 6.96 5.1421 12.6 11.507 12.6h228.89c6.34 0 11.5-5.64 11.5-12.6v-94.763c0-6.9642-5.16-12.598-11.5-12.598l-228.89 0.00014801z"/> <path fill="url(#f)" d="m14.799 5.4776c-4.902 0-8.8813 5.5134-8.8813 12.297 0 6.797 3.9793 12.297 8.8813 12.297h188.54c4.9 0 8.89-5.5 8.89-12.297 0 0-3.99-12.297-8.89-12.297l-188.54-0.0007z"/> <path fill="#f8b322" d="m65.682 71.285c0 10.14-6.604 17.524-20.063 18.974-9.72 1.043-23.806-0.178-30.506-0.958-0.228-1.078-0.407-2.432-0.407-3.523 0-8.834 4.746-10.859 9.229-10.859 4.663 0 11.998 0.802 17.439 0.802 6.018 0 7.826-2.025 7.826-3.979 0-2.529-2.397-3.573-7.06-4.483l-12.775-2.445c-10.597-2.037-16.254-9.373-16.254-17.151 0-9.469 6.701-17.392 19.874-18.843 9.972-1.09 22.102 0.132 28.753 0.948 0.228 1.126 0.373 2.217 0.373 3.391 0 8.834-4.664 10.741-9.146 10.741-3.453 0-8.786-0.636-14.899-0.636-6.209 0-8.787 1.713-8.787 3.798 0 2.219 2.447 3.129 6.331 3.801l12.189 2.266c12.5 2.312 17.883 9.42 17.883 18.157m21.851 10.872c0 5.431-2.134 8.559-12.717 8.559-1.404 0-2.625-0.096-3.801-0.275v-71.99c0-5.478 1.847-11.195 12.538-11.195 1.355 0.0001 2.709 0.144 3.98 0.4196v74.483zm43.307 27.852c1.4 0.71 4.26 1.57 7.84 1.67 6.16 0.13 9.5-2.22 12-7.75l33.01-73.624c-1.36-0.718-4.39-1.533-6.85-1.581-4.24-0.085-9.96 0.766-13.58 9.467l-10.68 25.221-20.97-34.137c-1.36-0.408-4.67-0.996-7.06-0.996-7.42 0-11.54 2.709-15.85 7.371l-20.375 22.284 16.405 25.806c3.03 4.711 7 7.108 13.48 7.108 4.27 0 7.79-0.996 9.42-1.761l-19.74-29.751 14-14.85 22.95 36.04-13.99 29.483z"/> <path fill="url(#d)" d="m205.13 0.00013852c-4.62 0-8.36 5.5496-8.36 12.597v107.36h395.87c4.6 0 7.36-5.64 7.36-12.6v-107.36l-394.87-0.0018425z"/> <path fill="url(#c)" d="m198.21 5.4776c-0.9 2.0137-1.44 4.4586-1.44 7.1204v17.475h398.15v-24.596h-396.71z"/> <g fill="#fff"> <path d="m232.69 40.436c-6.67 0-9.79 2.361-9.79 7.934 0 4.388 2.71 6.581 8.02 6.581h16.87c13.5 0 19.31 4.47 19.31 17.116 0 12.742-6.82 18.134-21.17 18.134h-33.9v-10.787h31.87c6.76 0 9.87-1.605 9.87-6.844 0-5.394-2.86-7.001-9.03-7.001h-15.01c-13.83 0-20.15-5.225-20.15-17.369 0-13.159 6.83-18.565 21.25-18.565h33.32v10.8h-31.46z"/> <path d="m286.18 40.436v17.883h15.53c7.68 0 11.38-2.864 11.38-8.941 0-6.748-3.7-8.942-12.15-8.942h-14.76zm14.94-10.799c8.27 0 14.08 0.683 17.8 3.032 5.38 3.464 8.34 9.205 8.34 16.707 0 7.253-2.27 12.407-7 15.775-5.14 3.632-11.04 3.883-18.63 3.883h-15.45v21.167h-12.74v-60.566h27.68z"/> <path d="m344.66 59.408c0 14.766 4.88 21.599 16.28 21.599 11.21 0 16.37-6.833 16.37-21.095 0-14.251-5.16-21.084-16.37-21.084-10.97 0-16.28 6.831-16.28 20.58m16.28-30.962c20.57 0 30.2 10.045 30.2 31.464 0 21.431-9.63 31.547-30.2 31.547-20.83 0-30.2-10.116-30.2-32.134 0-20.832 9.86-30.877 30.2-30.877"/> <path d="m409.58 40.436v15.269h15.6c7.61 0 11.32-1.521 11.32-7.683 0-6.232-3.71-7.586-11.32-7.586h-15.6zm18.66-10.799c14.33 0 21.16 5.49 21.16 18.218 0 9.374-4.39 15.355-12.23 17.043l15.1 25.305h-14.35l-13.32-23.781h-15.02v23.781h-12.73v-60.566h31.39z"/> <path d="m452.35 40.266v-10.547h52.39v10.547h-19.64v49.934h-13.17v-49.934h-19.58z"/> <path d="m559.38 80.978c6.73 0 9.94-2.245 9.94-7.484 0-5.132-3.31-7.485-9.94-7.485h-20.32v-10.478h20c6.62 0 9.94-2.139 9.94-7.271s-3.21-7.378-9.94-7.378h-24.81v-10.478h29.3c13.58 0 20.1 5.025 20.1 16.252 0 5.667-2.68 10.158-8.24 14.221 5.78 2.994 8.34 7.485 8.34 14.328 0 10.157-6.73 16.252-18.92 16.252h-30.58v-10.479h25.13z"/> </g> </svg>
