<?xml version="1.0" encoding="UTF-8" standalone="no"?>
<svg xmlns:rdf="http://www.w3.org/1999/02/22-rdf-syntax-ns#" xmlns="http://www.w3.org/2000/svg" xmlns:cc="http://creativecommons.org/ns#" xmlns:dc="http://purl.org/dc/elements/1.1/" height="28.317mm" width="169.33mm" version="1.1" viewBox="0 0 600.01177 100.33511">
  <defs>
    <linearGradient id="h" gradientUnits="userSpaceOnUse" gradientTransform="matrix(-.0000015116 20.589 -18.637 -0.00000167 501.03 4.5965)" x1="0" x2="1" y1="0" y2="0">
      <stop stop-color="#58585a" offset="0"/>
      <stop offset=".84375"/>
      <stop offset="1"/>
    </linearGradient>
    <linearGradient id="g" gradientUnits="userSpaceOnUse" gradientTransform="matrix(-0.00000167 20.571 -20.571 -0.00000167 299.82 4.5965)" x1="0" x2="1" y1="0" y2="0">
      <stop stop-color="#66bae8" offset="0"/>
      <stop stop-color="#2769a9" offset=".84375"/>
      <stop stop-color="#2769a9" offset="1"/>
    </linearGradient>
    <linearGradient id="f" gradientUnits="userSpaceOnUse" gradientTransform="matrix(-.0000050099 -100.31 100.31 -.0000050099 310.36 100.32)" x1="0" x2="1" y1="0" y2="0">
      <stop stop-color="#114d81" offset="0"/>
      <stop stop-color="#2669a9" offset=".49479"/>
      <stop stop-color="#2669a9" offset="1"/>
    </linearGradient>
    <linearGradient id="b" gradientUnits="userSpaceOnUse" gradientTransform="matrix(-0.00000167 20.571 -20.571 -0.00000167 91.191 4.5965)" x1="0" x2="1" y1="0" y2="0">
      <stop stop-color="#0070ad" offset="0"/>
      <stop stop-color="#152c53" offset=".84375"/>
      <stop stop-color="#152c53" offset="1"/>
    </linearGradient>
    <linearGradient id="a" gradientUnits="userSpaceOnUse" gradientTransform="matrix(-.0000050099 -100.31 100.31 -.0000050099 105.3 100.32)" x1="0" x2="1" y1="0" y2="0">
      <stop stop-color="#03193c" offset="0"/>
      <stop stop-color="#152c53" offset=".49479"/>
      <stop stop-color="#152c53" offset="1"/>
    </linearGradient>
  </defs>
  <path d="m9.6215 0.022988c-5.3277 0-9.6215 4.7195-9.6215 10.534v79.234c0 5.814 4.2938 10.549 9.6215 10.549h191.37c5.33 0 9.62-4.735 9.62-10.549v-79.234c0-5.8145-4.29-10.534-9.62-10.534l-191.37-0.000012z" fill="url(#a)"/>
  <path d="m12.37 4.6087c-4.1108 0-7.4072 4.5979-7.4072 10.266 0 5.68 3.2964 10.29 7.4072 10.29h157.64c4.1 0 7.43-4.61 7.43-10.29 0 0-3.33-10.266-7.43-10.266l-157.64-0.0003z" fill="url(#b)"/>
  <path d="m54.919 59.637c0 8.491-5.534 14.67-16.774 15.862-8.149 0.876-19.924-0.146-25.519-0.803-0.183-0.9-0.328-2.031-0.328-2.932 0-7.395 3.953-9.086 7.711-9.086 3.893 0 10.035 0.669 14.585 0.669 5.023 0 6.544-1.703 6.544-3.32 0-2.129-2.007-2.993-5.912-3.759l-10.667-2.044c-8.868-1.702-13.6-7.833-13.6-14.341 0-7.918 5.596-14.547 16.616-15.752 8.332-0.912 18.465 0.11 24.048 0.791 0.182 0.949 0.304 1.849 0.304 2.834 0 7.384-3.893 8.977-7.651 8.977-2.895 0-7.347-0.523-12.456-0.523-5.181 0-7.347 1.435-7.347 3.175 0 1.849 2.056 2.615 5.304 3.187l10.193 1.885c10.436 1.934 14.949 7.882 14.949 15.18m18.258 9.087c0 4.537-1.776 7.164-10.631 7.164-1.168 0-2.19-0.085-3.175-0.231v-60.21c0-4.574 1.557-9.3422 10.485-9.3422 1.144 0 2.275 0.1095 3.321 0.3406v62.279zm36.223 23.281c1.17 0.62 3.56 1.338 6.54 1.399 5.15 0.121 7.96-1.849 10.05-6.459l27.59-61.573c-1.14-0.596-3.67-1.289-5.72-1.326-3.55-0.061-8.33 0.657-11.35 7.919l-8.94 21.092-17.54-28.548c-1.13-0.341-3.88-0.828-5.88-0.828-6.22 0-9.675 2.275-13.263 6.167l-17.041 18.623 13.696 21.566c2.555 3.941 5.875 5.948 11.288 5.948 3.56 0 6.52-0.815 7.88-1.472l-16.516-24.862 11.716-12.419 19.18 30.141-11.69 24.632z" fill="#fbaf34"/>
  <path d="m174.57 0.022988c-5.54 0-10.04 4.6344-10.04 10.534v89.783h282.75c5.56 0 8.9-4.735 8.9-10.549v-89.768l-281.61-0.000012z" fill="url(#f)"/>
  <path d="m166.25 4.6087c-1.08 1.6664-1.72 3.7221-1.72 5.9483v14.608h279.17v-20.556l-277.45-0.0003z" fill="url(#g)"/>
  <g fill="#fff">
    <path d="m194.56 33.838c-5.58 0-8.19 1.971-8.19 6.629 0 3.674 2.25 5.51 6.69 5.51h14.12c11.29 0 16.15 3.723 16.15 14.317 0 10.643-5.71 15.156-17.7 15.156h-28.36v-9.038h26.67c5.64 0 8.24-1.325 8.24-5.704 0-4.513-2.39-5.851-7.54-5.851h-12.56c-11.56 0-16.85-4.367-16.85-14.524 0-11.008 5.72-15.533 17.77-15.533h27.86v9.038h-26.3z"/>
    <path d="m239.35 33.838v14.949h12.97c6.43 0 9.52-2.396 9.52-7.468 0-5.644-3.09-7.481-10.15-7.481h-12.34zm12.49-9.038c6.91 0 11.77 0.572 14.87 2.543 4.52 2.907 6.99 7.699 6.99 13.976 0 6.057-1.9 10.363-5.87 13.197-4.29 3.017-9.23 3.236-15.58 3.236h-12.9v17.698h-10.66v-50.65h23.15z"/>
    <path d="m288.23 49.712c0 12.334 4.09 18.051 13.61 18.051 9.38 0 13.69-5.717 13.69-17.638 0-11.908-4.31-17.637-13.69-17.637-9.17 0-13.61 5.729-13.61 17.224m13.61-25.885c17.21 0 25.24 8.393 25.24 26.298 0 17.917-8.03 26.383-25.24 26.383-17.42 0-25.25-8.466-25.25-26.869 0-17.419 8.25-25.812 25.25-25.812"/>
    <path d="m342.41 33.838v12.76h13.05c6.35 0 9.45-1.277 9.45-6.41 0-5.219-3.1-6.35-9.45-6.35h-13.05zm15.59-9.038c12 0 17.7 4.598 17.7 15.254 0 7.821-3.67 12.82-10.23 14.243l12.61 21.153h-11.98l-11.14-19.888h-12.55v19.888h-10.66v-50.65h26.25z"/>
    <path d="m378.17 33.692v-8.819h43.8v8.819h-16.43v41.758h-11v-41.758h-16.37z"/>
  </g>
  <path d="m600.01 89.803c0 5.815-3.94 10.517-8.72 10.517h-158.54v-89.873c0-5.814 3.94-10.448 8.73-10.448l158.53-0.000339v89.804z"/>
  <path d="m434.24 4.5965c-0.94 1.6665-1.5 3.6735-1.5 5.8625v14.731h163.27v-20.594l-161.77 0.0005z" fill="url(#h)"/>
  <path fill="#fff" d="m520.7 24.825c-6.59 6.629-14.95 13.088-26.06 13.088l-6.64 9.451 13.21-0.012-9.65 13.708h-13.21l-10.1 14.402h-18.62l35.57-50.637h35.5z"/>
  <path fill="#ee2d27" d="m521.52 71.764 24.37 1.618-0.09 0.134-31.79 1.934 10.33-14.73 29.16 1.788-0.09 0.134-26.69 1.739-0.09 0.134 24.34 1.618-0.1 0.133-26.7 1.74-0.08 0.134 24.35 1.617-0.11 0.134-26.71 1.752-0.1 0.121z"/>
  <path fill="#ee2d27" d="m578.63 26.661-40.56 1.825-0.09 0.122 38.2 1.52-0.08 0.11-40.57 1.836-0.07 0.134 38.22 1.508-0.11 0.11-40.56 1.861-0.09 0.109 38.2 1.521-0.08 0.122-40.54 1.836-0.1 0.134 38.2 1.496-0.08 0.134-40.57 1.837-0.08 0.121 38.19 1.521-0.06 0.121-40.58 1.837-0.07 0.11 38.19 1.544-0.08 0.098-40.58 1.812-0.05 0.158 38.2 1.496-0.09 0.134-40.56 1.825-0.09 0.134 38.19 1.532-0.08 0.122-40.54 1.8-0.09 0.134 38.2 1.52-0.11 0.134-45.7 2.056 25.48-36.26 43.06 1.703-0.07 0.133z"/>
</svg>
