<?xml version="1.0" encoding="UTF-8" standalone="no"?>
<svg xmlns:rdf="http://www.w3.org/1999/02/22-rdf-syntax-ns#" xmlns="http://www.w3.org/2000/svg" xmlns:cc="http://creativecommons.org/ns#" xmlns:xlink="http://www.w3.org/1999/xlink" xmlns:dc="http://purl.org/dc/elements/1.1/" height="23.5mm" width="169.33mm" version="1.1" viewBox="0 0 599.99998 83.268939">
  <defs>
    <linearGradient id="a" gradientUnits="userSpaceOnUse" gradientTransform="matrix(0 17.087 -17.087 0 583.72 475.55)" x1="0" x2="1" y1="0" y2="0">
      <stop stop-color="#246daf" offset="0"/>
      <stop stop-color="#1b2b4f" offset=".84375"/>
      <stop stop-color="#1b2b4f" offset="1"/>
    </linearGradient>
    <linearGradient id="b" gradientUnits="userSpaceOnUse" gradientTransform="matrix(0 -83.273 83.273 0 597.92 555.01)" x1="0" x2="1" y1="0" y2="0">
      <stop stop-color="#121d35" offset="0"/>
      <stop stop-color="#121d35" offset=".11220"/>
      <stop stop-color="#1b2b4f" offset=".49480"/>
      <stop stop-color="#1b2b4f" offset="1"/>
    </linearGradient>
    <linearGradient id="c" gradientUnits="userSpaceOnUse" gradientTransform="matrix(0 -82.03 82.03 0 488.43 554.65)" x1="0" x2="1" y1="0" y2="0">
      <stop stop-color="#bdbcbc" offset="0"/>
      <stop stop-color="#fff" offset=".10354"/>
      <stop stop-color="#fff" offset=".51534"/>
      <stop stop-color="#fff" offset=".90262"/>
      <stop stop-color="#deddde" offset="1"/>
    </linearGradient>
    <linearGradient id="d" gradientUnits="userSpaceOnUse" gradientTransform="matrix(0 17.072 -17.072 0 302.43 475.53)" x1="0" x2="1" y1="0" y2="0">
      <stop stop-color="#74c0ec" offset="0"/>
      <stop stop-color="#3663af" offset=".84375"/>
      <stop stop-color="#3663af" offset="1"/>
    </linearGradient>
    <linearGradient id="e" gradientUnits="userSpaceOnUse" gradientTransform="matrix(0 -83.247 83.247 0 311.16 554.98)" x1="0" x2="1" y1="0" y2="0">
      <stop stop-color="#24477f" offset="0"/>
      <stop stop-color="#24477f" offset=".11220"/>
      <stop stop-color="#3663af" offset=".49480"/>
      <stop stop-color="#3663af" offset="1"/>
    </linearGradient>
    <linearGradient id="f" gradientUnits="userSpaceOnUse" gradientTransform="matrix(0 17.072 -17.072 0 129.29 475.53)" x1="0" x2="1" y1="0" y2="0">
      <stop stop-color="#246daf" offset="0"/>
      <stop stop-color="#1b2b4f" offset=".84375"/>
      <stop stop-color="#1b2b4f" offset="1"/>
    </linearGradient>
    <linearGradient id="g" gradientUnits="userSpaceOnUse" gradientTransform="matrix(0 -83.247 83.247 0 141 554.98)" x1="0" x2="1" y1="0" y2="0">
      <stop stop-color="#121d35" offset="0"/>
      <stop stop-color="#121d35" offset=".11220"/>
      <stop stop-color="#1b2b4f" offset=".49480"/>
      <stop stop-color="#1b2b4f" offset="1"/>
    </linearGradient>
    <linearGradient id="h" gradientUnits="userSpaceOnUse" gradientTransform="matrix(0 17.087 -17.087 0 474.3 475.53)" x1="0" x2="1" y1="0" y2="0">
      <stop stop-color="#fff" offset="0"/>
      <stop stop-opacity="0" stop-color="#fff" offset=".84375"/>
      <stop stop-opacity="0" stop-color="#fff" offset="1"/>
    </linearGradient>
  </defs>
  <g transform="translate(-53.598 -471.73)">
    <path d="m61.586 471.73c-4.415 0-7.988 3.92-7.988 8.75v65.75c0 4.83 3.573 8.75 7.988 8.75h158.83c4.4 0 7.98-3.92 7.98-8.75v-65.75c0-4.83-3.58-8.75-7.98-8.75h-158.83z" fill="url(#g)"/>
    <path d="m63.875 475.54c-3.397 0-6.158 3.82-6.158 8.53s2.761 8.53 6.158 8.53h130.82c3.4 0 6.17-3.82 6.17-8.53 0 0-2.77-8.53-6.17-8.53h-130.82z" fill="url(#f)"/>
    <path d="m99.182 521.21c0 7.04-4.585 12.16-13.919 13.16-6.755 0.73-16.521-0.12-21.174-0.65-0.153-0.76-0.284-1.7-0.284-2.45 0-6.13 3.301-7.54 6.408-7.54 3.239 0 8.329 0.56 12.096 0.56 4.181 0 5.437-1.41 5.437-2.76 0-1.76-1.665-2.48-4.898-3.11l-8.862-1.7c-7.352-1.42-11.277-6.51-11.277-11.9 0-6.58 4.647-12.07 13.788-13.08 6.914-0.75 15.333 0.09 19.952 0.66 0.154 0.79 0.25 1.54 0.25 2.36 0 6.12-3.232 7.44-6.346 7.44-2.392 0-6.096-0.44-10.334-0.44-4.306 0-6.096 1.2-6.096 2.64 0 1.55 1.693 2.17 4.398 2.64l8.453 1.57c8.67 1.6 12.408 6.54 12.408 12.6m15.158 7.54c0 3.77-1.47 5.94-8.82 5.94-0.98 0-1.83-0.06-2.64-0.19v-49.96c0-3.79 1.28-7.76 8.7-7.76 0.95 0 1.88 0.1 2.76 0.29v51.68zm30.05 19.33c0.98 0.5 2.96 1.09 5.44 1.16 4.28 0.09 6.6-1.54 8.33-5.37l22.9-51.09c-0.94-0.5-3.05-1.07-4.74-1.1-2.96-0.06-6.91 0.53-9.43 6.56l-7.41 17.51-14.55-23.69c-0.94-0.28-3.24-0.69-4.9-0.69-5.15 0-8.02 1.88-11 5.12l-14.13 15.45 11.36 17.91c2.12 3.27 4.88 4.93 9.37 4.93 2.95 0 5.4-0.68 6.54-1.22l-13.7-20.64 9.71-10.3 15.93 25-9.72 20.46z" fill="#f9a721"/>
    <path d="m198.48 471.73c-4.6 0-8.33 3.85-8.33 8.75v74.5h234.66c4.61 0 7.37-3.92 7.37-8.75v-74.5h-233.7z" fill="url(#e)"/>
    <path d="m191.59 475.54c-0.91 1.39-1.44 3.09-1.44 4.94v12.12h231.67v-17.06h-230.23z" fill="url(#d)"/>
    <g fill="#fff">
      <path d="m215.06 499.8c-4.62 0-6.78 1.64-6.78 5.5 0 3.04 1.87 4.57 5.56 4.57h11.7c9.37 0 13.41 3.1 13.41 11.88 0 8.84-4.75 12.58-14.69 12.58h-23.53v-7.49h22.12c4.68 0 6.85-1.11 6.85-4.74 0-3.75-1.99-4.86-6.26-4.86h-10.43c-9.59 0-13.98-3.63-13.98-12.06 0-9.13 4.74-12.88 14.75-12.88h23.12v7.5h-21.84z"/>
      <path d="m252.24 499.8v12.41h10.77c5.33 0 7.9-1.99 7.9-6.21 0-4.68-2.57-6.2-8.43-6.2h-10.24zm10.36-7.5c5.74 0 9.77 0.48 12.35 2.11 3.75 2.41 5.8 6.38 5.8 11.59 0 5.04-1.59 8.61-4.86 10.95-3.57 2.52-7.67 2.69-12.94 2.69h-10.71v14.69h-8.84v-42.03h19.2z"/>
      <path d="m292.8 512.97c0 10.24 3.4 14.98 11.3 14.98 7.79 0 11.36-4.74 11.36-14.63s-3.57-14.63-11.36-14.63c-7.61 0-11.3 4.74-11.3 14.28m11.3-21.48c14.28 0 20.96 6.96 20.96 21.83s-6.68 21.89-20.96 21.89c-14.46 0-20.95-7.02-20.95-22.3 0-14.46 6.84-21.42 20.95-21.42"/>
      <path d="m337.76 499.8v10.59h10.84c5.26 0 7.84-1.05 7.84-5.33 0-4.32-2.58-5.26-7.84-5.26h-10.84zm12.94-7.5c9.95 0 14.7 3.81 14.7 12.65 0 6.49-3.05 10.65-8.5 11.82l10.48 17.56h-9.95l-9.25-16.51h-10.42v16.51h-8.84v-42.03h21.78z"/>
      <path d="m367.44 499.68v-7.32h36.35v7.32h-13.64v34.65h-9.13v-34.65h-13.58z"/>
    </g>
    <path d="m420.9 471.74c-4.42 0-8.05 3.85-8.05 8.68v74.56h143.12c4.41 0 7.98-3.92 7.98-8.74l0.06-74.5h-143.11z" fill="url(#c)"/>
    <path fill="url(#h)" d="m414.23 475.53c-0.87 1.39-1.38 3.06-1.38 4.87v12.22h147.36v-17.09h-145.98z"/>
    <path d="m527.34 512.48-0.08 0.34h1.03l-0.57 2.7h0.4l0.57-2.7h1.02l0.07-0.34h-2.44z" fill="#e01049"/>
    <path d="m532.59 512.48-1.5 2.61h-0.01l-0.41-2.61h-0.56l-0.63 3.03h0.38l0.54-2.65h0.01l0.39 2.65h0.39l1.54-2.65h0.01l-0.62 2.65h0.39l0.64-3.03h-0.56z" fill="#e01049"/>
    <g fill="#231f20" fill-rule="evenodd">
      <path d="m432.78 489.01c1.56-2.92 5.19-5.29 8.11-5.29h20.46l-13.71 25.92h-25.74l10.88-20.63z"/>
      <path d="m474.58 496.71c1.1-2.06 3.67-3.73 5.73-3.73h13.99l-6.75 12.93c-1.11 2.06-3.67 3.74-5.74 3.74h-13.98l6.75-12.94z"/>
      <path d="m498.02 485.75c0.59-1.09 1.95-1.97 3.04-1.97h7.32l-3.92 7.31c-0.58 1.1-1.94 1.99-3.04 1.99h-7.32l3.92-7.33z"/>
      <path d="m447.64 509.64h20.22l-10.81 20.17h-20.22l10.81-20.17z"/>
      <path d="m457.05 529.81h14.18l-6.46 12.06c-0.81 1.51-2.7 2.74-4.22 2.74h-11.43l7.93-14.8z"/>
    </g>
    <path d="m517.4 522.52-1.56 2.94c-0.43 0.8-1.42 1.45-2.22 1.45h-1.94l4.16-7.84 1.26-2.37c1.78-3.48 3.97-4.24 6.52-4.24 2.88 0 3.24 1.9 1.99 4.25l-0.09 0.17-1.09 2.05-0.07 0.14c-1.03 1.95-3.78 3.52-6.13 3.52-0.3 0-0.57-0.02-0.83-0.07m3.23-6.06-0.16 0.28-1.45 2.74h0.57c0.64 0 1.44-0.53 1.78-1.17l0.99-1.85c0.26-0.48 0.08-0.87-0.4-0.87s-1.08 0.39-1.33 0.87m-29.77-0.43-4.07 7.64-0.03 0.06c-1.02 1.93-3.72 3.49-6.02 3.49s-3.34-1.56-2.32-3.48l4.14-7.76c1.02-1.93 3.72-3.49 6.02-3.49s3.34 1.56 2.32 3.49l-0.04 0.05zm-8.73 7.21c-0.25 0.48-0.07 0.87 0.4 0.87 0.49 0 1.08-0.39 1.33-0.87l3.61-6.76c0.26-0.49 0.08-0.87-0.4-0.87s-1.08 0.38-1.33 0.87l-3.61 6.76zm24.49-7.21-4.07 7.64-0.03 0.06c-1.02 1.93-3.72 3.49-6.02 3.49s-3.34-1.56-2.32-3.48l4.14-7.76c1.02-1.93 3.72-3.49 6.02-3.49 2.31 0 3.34 1.56 2.32 3.49l-0.04 0.05zm-8.87 7.21c-0.26 0.48-0.08 0.87 0.4 0.87s1.08-0.39 1.33-0.87l3.61-6.76c0.25-0.49 0.07-0.87-0.41-0.87s-1.07 0.38-1.33 0.87l-3.6 6.76zm18.51-7.24-1.22 2.29h-3.3l0.98-1.85c0.26-0.48 0.08-0.87-0.41-0.87-0.47 0-1.07 0.39-1.32 0.87l-3.32 6.25-0.3 0.55c-0.25 0.48-0.07 0.87 0.41 0.87s1.08-0.32 1.59-1.36l0.45-0.85h-0.84l1.33-2.49h4.14l-2.27 4.26-0.03 0.06c-1.02 1.93-3.72 3.49-6.02 3.49s-3.34-1.56-2.32-3.48l0.56-1.05 3.58-6.75c1.02-1.92 3.72-3.48 6.02-3.48s3.34 1.56 2.32 3.48l-0.03 0.06zm-40.45 0.61-0.05 0.14-1.61 3.02-3.01 5.67c-0.26 0.47-0.71 0.89-1.21 1.17-0.34 0.18-0.7 0.29-1.04 0.29h-1.95l3.79-7.13 1.68-3.16c0.01-0.04 0.03-0.08 0.06-0.12 0.16-0.42-0.03-0.75-0.47-0.75-0.49 0-1.08 0.39-1.34 0.87l-1.68 3.16-3.01 5.67c-0.43 0.8-1.43 1.46-2.24 1.46h-1.95l5.46-10.29c1.17-2.4 2.55-4.04 6.51-4.04h5.15c1.98 0 3.61 1.15 2.08 4.04l-4.68 8.83c-0.44 0.8-1.44 1.46-2.25 1.46h-1.95l3.79-7.13 1.67-3.16c0.26-0.48 0.08-0.87-0.41-0.87-0.48 0-1.08 0.39-1.34 0.87m19.64-0.53-3.89 7.29c-0.25 0.49 0.07 0.83 0.55 0.87 0.35 0.04 0.71 0 1.2-0.19l-1.58 2.94c-0.54 0.14-0.83 0.23-1.36 0.23-2.3 0-3.38-1.56-2.35-3.48l6.52-12.27c0.43-0.8 1.42-1.45 2.23-1.45h1.89l-1.53 2.89h1.97l-1.68 3.17h-1.97z" fill="#e01049"/>
    <path d="m550.29 471.73c-4.42 0-8.05 3.86-8.05 8.69v74.58h103.32c4.41 0 8.04-3.91 8.04-8.73v-74.54h-103.31z" fill="url(#b)"/>
    <path d="m543.62 475.55c-0.87 1.39-1.38 3.06-1.38 4.87v12.22h107.01l0.43-17.09h-106.06z" fill="url(#a)"/>
    <path d="m583.7 534.2v-18.08h-22.56v18.08h-9.8v-41.88h9.8v17.14h22.56v-17.14h9.8v41.88h-9.8z" fill="#fff"/>
    <path d="m620.12 498.91h-10.37v28.64h10.46c11.11 0 14.52-0.45 14.52-14.26s-3.49-14.38-14.61-14.38m20.83 29.64c-3.98 4.46-9.96 5.65-20.24 5.65h-20.58v-41.88h20.49c10.29 0 16.27 1.25 20.25 5.71 2.9 3.28 3.65 7.04 3.65 15.26 0 8.23-0.67 12-3.57 15.26" fill="#fff"/>
  </g>
</svg>
