<?xml version="1.0" encoding="UTF-8" standalone="no"?>
<svg xmlns:rdf="http://www.w3.org/1999/02/22-rdf-syntax-ns#" xmlns="http://www.w3.org/2000/svg" xmlns:cc="http://creativecommons.org/ns#" xmlns:xlink="http://www.w3.org/1999/xlink" xmlns:dc="http://purl.org/dc/elements/1.1/" enable-background="new 0 0 595.276 841.89" xml:space="preserve" height="93.975" viewBox="0 0 600 93.97525" width="600" version="1.1" y="0px" x="0px"> <defs> <linearGradient id="l" gradientUnits="userSpaceOnUse" gradientTransform="matrix(-9.3862e-7 19.284 -19.284 -9.3862e-7 519.83 4.3087)" x1="0" x2="1" y1="0" y2="0"> <stop stop-color="#0070ad" offset="0"/> <stop stop-color="#152c53" offset=".84375"/> <stop stop-color="#152c53" offset="1"/> </linearGradient> <linearGradient id="k" gradientUnits="userSpaceOnUse" gradientTransform="matrix(-.0000037544 -93.977 93.977 -.0000037544 537.21 93.976)" x1="0" x2="1" y1="0" y2="0"> <stop stop-color="#03193c" offset="0"/> <stop stop-color="#152c53" offset=".49479"/> <stop stop-color="#152c53" offset="1"/> </linearGradient> <linearGradient id="j" y2="776.89" gradientUnits="userSpaceOnUse" gradientTransform="matrix(-6.9026e-7 19.267 -14.169 -9.3862e-7 316.89 4.3038)" y1="776.89" x1="0" x2="1"> <stop stop-color="#66bae8" offset="0"/> <stop stop-color="#2769a9" offset=".84375"/> <stop stop-color="#2769a9" offset="1"/> </linearGradient> <linearGradient id="i" gradientUnits="userSpaceOnUse" gradientTransform="matrix(-.0000027610 -93.948 69.089 -.0000037544 321.35 93.962)" x1="0" x2="1" y1="0" y2="0"> <stop stop-color="#114d81" offset="0"/> <stop stop-color="#2669a9" offset=".49479"/> <stop stop-color="#2669a9" offset="1"/> </linearGradient> <linearGradient id="g" gradientUnits="userSpaceOnUse" gradientTransform="matrix(-9.3862e-7 19.267 -19.267 -9.3862e-7 85.412 4.3038)" x1="0" x2="1" y1="0" y2="0"> <stop stop-color="#006EAB" offset="0"/> <stop stop-color="#005385" offset=".299"/> <stop stop-color="#00375D" offset=".6574"/> <stop stop-color="#002C4E" offset=".8438"/> <stop stop-color="#002C4E" offset="1"/> </linearGradient> <linearGradient id="h" y2="776.69" gradientUnits="userSpaceOnUse" gradientTransform="matrix(-.0000037544 -93.948 93.948 -.0000037544 98.627 93.962)" y1="776.69" x1="0" x2="1"> <stop stop-color="#03193c" offset="0"/> <stop stop-color="#152c53" offset=".49479"/> <stop stop-color="#152c53" offset="1"/> </linearGradient> </defs> <path fill="url(#h)" d="m9.0107 0.0241c-4.984 0-9.0107 4.4115-9.0107 9.8648v74.207c0 5.453 4.0267 9.864 9.0107 9.864h179.25c4.97 0 9-4.411 9-9.864v-74.207c0-5.4539-4.03-9.8654-9-9.8654l-179.25-0.00007z"/> <path fill="url(#g)" d="m11.589 4.3135c-3.8387 0-6.955 4.3176-6.955 9.6295 0 5.323 3.1163 9.63 6.955 9.63h147.65c3.83 0 6.95-4.307 6.95-9.63 0 0-3.12-9.6295-6.95-9.6295h-147.65z"/> <path fill="#f8b322" d="m51.436 55.846c0 7.941-5.173 13.723-15.712 14.859-7.612 0.817-18.642-0.139-23.889-0.75-0.178-0.845-0.319-1.905-0.319-2.759 0-6.918 3.716-8.504 7.227-8.504 3.652 0 9.395 0.628 13.657 0.628 4.712 0 6.128-1.586 6.128-3.116 0-1.98-1.877-2.797-5.528-3.51l-10.005-1.915c-8.298-1.595-12.728-7.34-12.728-13.431 0-7.414 5.247-13.619 15.563-14.755 7.809-0.855 17.308 0.103 22.516 0.742 0.179 0.882 0.292 1.736 0.292 2.655 0 6.918-3.652 8.411-7.161 8.411-2.704 0-6.881-0.498-11.668-0.498-4.862 0-6.88 1.343-6.88 2.975 0 1.737 1.915 2.451 4.956 2.976l9.546 1.775c9.789 1.81 14.005 7.377 14.005 14.219m17.11 8.513c0 4.253-1.671 6.702-9.959 6.702-1.099 0-2.055-0.075-2.976-0.215v-56.375c0-4.289 1.446-8.766 9.818-8.766 1.062 0 2.122 0.1126 3.117 0.3285v58.328zm33.914 21.804c1.1 0.563 3.33 1.239 6.14 1.315 4.82 0.102 7.44-1.738 9.39-6.064l25.85-57.66c-1.06-0.562-3.43-1.201-5.36-1.238-3.32-0.066-7.79 0.6-10.64 7.414l-8.36 19.749-16.42-26.732c-1.06-0.319-3.652-0.779-5.529-0.779-5.81 0-9.039 2.121-12.408 5.772l-15.956 17.45 12.84 20.209c2.375 3.689 5.491 5.566 10.559 5.566 3.341 0 6.101-0.78 7.377-1.38l-15.458-23.297 10.963-11.629 17.972 28.223-10.96 23.081z"/> <path fill="url(#i)" d="m161.02 0.0241c-3.82 0-6.93 4.3459-6.93 9.8648v84.071h328.4c3.81 0 6.11-4.411 6.11-9.865v-84.071l-327.58-0.00047z"/> <path fill="url(#j)" d="m155.29 4.3135c-0.75 1.5768-1.2 3.4917-1.2 5.5753v13.685h331.51v-19.261h-330.31z"/> <path fill="url(#k)" d="m483.41 0c-4.99 0-9.08 4.3551-9.08 9.7992v84.176h116.61c4.98 0 9.06-4.421 9.06-9.855v-84.12l-116.59 0.00101z"/> <path fill="url(#l)" d="m475.94 4.3135c-0.99 1.558-1.56 3.4542-1.56 5.4909v13.787h120.76v-19.279l-119.21-0.0006z"/> <path fill="#fff" d="m521.12 70.498v-20.404h-25.47v20.404h-11.05v-47.268h11.05v19.346h25.47v-19.346h11.06v47.268h-11.06z"/> <path fill="#fff" d="m562.21 30.677h-11.7v32.316h11.79c12.56 0 16.39-0.507 16.39-16.087 0-15.591-3.93-16.229-16.48-16.229m23.5 33.453c-4.49 5.031-11.24 6.373-22.84 6.373h-23.22v-47.268h23.12c11.62 0 18.36 1.417 22.84 6.448 3.29 3.689 4.14 7.931 4.14 17.224 0 9.283-0.76 13.535-4.04 17.224"/> <g fill="#fff" transform="matrix(.77565 0 0 .77565 42.336 112.7)"> <path d="m180.34-104.45c-6.73 0-9.88 2.39-9.88 8.011 0 4.43 2.73 6.644 8.09 6.644h17.04c13.62 0 19.49 4.514 19.49 17.28 0 12.864-6.89 18.308-21.37 18.308h-34.23v-10.89h32.18c6.82 0 9.96-1.621 9.96-6.91 0-5.446-2.89-7.068-9.11-7.068h-15.16c-13.96 0-20.34-5.275-20.34-17.535 0-13.29 6.89-18.74 21.45-18.74h33.64v10.9h-31.76z"/> <path d="m234.34-104.45v18.056h15.68c7.76 0 11.49-2.892 11.49-9.027 0-6.809-3.73-9.029-12.27-9.029h-14.9zm15.09-10.9c8.35 0 14.21 0.69 17.97 3.06 5.43 3.5 8.42 9.29 8.42 16.867 0 7.322-2.3 12.526-7.07 15.926-5.19 3.667-11.15 3.92-18.81 3.92h-15.6v21.37h-12.86v-61.143h27.95z"/> <path d="m293.38-85.295c0 14.908 4.93 21.806 16.44 21.806 11.32 0 16.52-6.898 16.52-21.297 0-14.388-5.2-21.284-16.52-21.284-11.08 0-16.44 6.894-16.44 20.775m16.44-31.255c20.77 0 30.49 10.14 30.49 31.762 0 21.636-9.72 31.849-30.49 31.849-21.03 0-30.49-10.213-30.49-32.442 0-21.029 9.95-31.169 30.49-31.169"/> <path d="m358.93-104.45v15.417h15.75c7.68 0 11.42-1.536 11.42-7.757 0-6.29-3.74-7.66-11.42-7.66h-15.75zm18.83-10.9c14.47 0 21.37 5.54 21.37 18.391 0 9.464-4.43 15.502-12.35 17.207l15.24 25.547h-14.48l-13.45-24.009h-15.16v24.009h-12.86v-61.145h31.69z"/> <path d="m402.11-104.62v-10.65h52.89v10.65h-19.83v50.412h-13.3v-50.412h-19.76z"/> <path d="m501.8-89.518h8.33c6.7 0 10.13-1.371 10.13-7.115 0-5.937-3.08-7.307-10.13-7.307h-29.53v-10.64h32.28 2.91c4.3 0 7.99 0.18 11.25 2.05 5.15 3.01 7.73 8.25 7.73 16.059 0 11.671-6.36 17.944-18.54 17.944h-11.68c-7.13 0-10.05 2.321-10.05 8.843v6.175h40.01v10.57h-53.91v-18.548c0-13.043 6.17-18.031 21.2-18.031"/> </g> </svg>
