<?xml version="1.0" encoding="UTF-8" standalone="no"?>
<svg xmlns:rdf="http://www.w3.org/1999/02/22-rdf-syntax-ns#" xmlns="http://www.w3.org/2000/svg" xmlns:cc="http://creativecommons.org/ns#" xmlns:xlink="http://www.w3.org/1999/xlink" xmlns:dc="http://purl.org/dc/elements/1.1/" height="26.351mm" width="169.33mm" version="1.1" viewBox="0 0 600.02362 93.370326">
  <defs>
    <linearGradient id="a" gradientUnits="userSpaceOnUse" gradientTransform="matrix(-9.2153e-7 19.152 -18.917 -9.33e-7 370.51 4.2527)" y1="776.89" y2="776.89" x1="0" x2="1">
      <stop stop-color="#66bae8" offset="0"/>
      <stop stop-color="#2769a9" offset=".84375"/>
      <stop stop-color="#2769a9" offset="1"/>
    </linearGradient>
    <linearGradient id="b" gradientUnits="userSpaceOnUse" gradientTransform="matrix(-.0000036883 -93.386 92.294 -.0000037319 376.6 93.374)" x1="0" x2="1" y1="0" y2="0">
      <stop stop-color="#114d81" offset="0"/>
      <stop stop-color="#2669a9" offset=".49479"/>
      <stop stop-color="#2669a9" offset="1"/>
    </linearGradient>
    <linearGradient id="d" gradientUnits="userSpaceOnUse" gradientTransform="matrix(-9.33e-7 19.152 -19.152 -9.33e-7 84.901 4.2527)" x1="0" x2="1" y1="0" y2="0">
      <stop stop-color="#006EAB" offset="0"/>
      <stop stop-color="#005385" offset=".299"/>
      <stop stop-color="#00375D" offset=".6574"/>
      <stop stop-color="#002C4E" offset=".8438"/>
      <stop stop-color="#002C4E" offset="1"/>
    </linearGradient>
    <linearGradient id="c" gradientUnits="userSpaceOnUse" gradientTransform="matrix(-.0000037319 -93.386 93.386 -.0000037319 98.036 93.374)" y1="776.69" y2="776.69" x1="0" x2="1">
      <stop stop-color="#03193c" offset="0"/>
      <stop stop-color="#152c53" offset=".49479"/>
      <stop stop-color="#152c53" offset="1"/>
    </linearGradient>
  </defs>
  <path d="m8.9568-0.0013992c-4.9542 0-8.9568 4.3851-8.9568 9.8058v73.764c0 5.42 4.0026 9.804 8.9568 9.804h178.17c4.94 0 8.95-4.384 8.95-9.804v-73.764c0-5.4205-4.01-9.8057-8.95-9.8057l-178.17 0.0000138z" fill="url(#c)"/>
  <path d="m11.52 4.2623c-3.8161 0-6.9137 4.2918-6.9137 9.5727 0 5.29 3.0976 9.572 6.9137 9.572h146.76c3.81 0 6.91-4.282 6.91-9.572 0 0-3.1-9.5727-6.91-9.5727h-146.76z" fill="url(#d)"/>
  <path d="m51.128 55.487c0 7.893-5.142 13.64-15.618 14.77-7.567 0.812-18.531-0.139-23.746-0.746-0.177-0.84-0.317-1.894-0.317-2.743 0-6.876 3.694-8.452 7.184-8.452 3.63 0 9.339 0.623 13.575 0.623 4.683 0 6.092-1.576 6.092-3.097 0-1.968-1.866-2.78-5.496-3.489l-9.945-1.903c-8.248-1.586-12.651-7.296-12.651-13.351 0-7.37 5.215-13.538 15.469-14.667 7.763-0.849 17.205 0.103 22.382 0.738 0.177 0.876 0.29 1.726 0.29 2.639 0 6.877-3.63 8.361-7.119 8.361-2.687 0-6.839-0.495-11.597-0.495-4.834 0-6.84 1.334-6.84 2.957 0 1.727 1.905 2.436 4.927 2.958l9.489 1.764c9.73 1.8 13.921 7.333 13.921 14.134m17.008 8.462c0 4.228-1.661 6.662-9.899 6.662-1.093 0-2.044-0.074-2.959-0.214v-56.037c0-4.263 1.438-8.7136 9.76-8.7136 1.055 0 2.109 0.112 3.098 0.3266v57.977zm33.704 21.674c1.1 0.56 3.32 1.231 6.11 1.307 4.79 0.102 7.39-1.727 9.34-6.028l25.69-57.314c-1.05-0.559-3.41-1.194-5.33-1.231-3.3-0.066-7.75 0.596-10.57 7.37l-8.31 19.631-16.33-26.572c-1.05-0.318-3.627-0.775-5.492-0.775-5.776 0-8.986 2.109-12.334 5.737l-15.861 17.346 12.764 20.088c2.36 3.667 5.457 5.532 10.495 5.532 3.321 0 6.065-0.774 7.333-1.371l-15.366-23.158 10.898-11.559 17.863 28.054-10.89 22.943z" fill="#f8b322"/>
  <path fill="url(#b)" d="m162.43-0.0013992c-5.12 0-9.26 4.3198-9.26 9.8058v83.568h438.69c5.1 0 8.16-4.384 8.16-9.806v-83.568l-437.59 0.0003138z"/>
  <path d="m154.77 4.2623c-1.01 1.5674-1.6 3.4709-1.6 5.542v13.604h442.59v-19.146l-440.99 0.0002z" fill="url(#a)"/>
  <g fill="#fff">
    <path d="m181.12 31.474c-5.18 0-7.61 1.838-7.61 6.176 0 3.415 2.1 5.122 6.24 5.122h13.13c10.51 0 15.03 3.48 15.03 13.323 0 9.919-5.31 14.116-16.47 14.116h-26.4v-8.396h24.81c5.26 0 7.68-1.25 7.68-5.328 0-4.199-2.23-5.449-7.02-5.449h-11.69c-10.76 0-15.68-4.067-15.68-13.52 0-10.244 5.31-14.451 16.53-14.451h25.94v8.406h-24.49z"/>
    <path d="m222.76 31.474v13.921h12.09c5.99 0 8.86-2.23 8.86-6.961 0-5.252-2.87-6.96-9.46-6.96h-11.49zm11.63-8.406c6.45 0 10.96 0.532 13.86 2.36 4.19 2.696 6.49 7.166 6.49 13.005 0 5.646-1.77 9.657-5.45 12.279-4 2.828-8.6 3.023-14.5 3.023h-12.03v16.476h-9.91v-47.144h21.54z"/>
    <path d="m268.28 46.241c0 11.495 3.8 16.813 12.68 16.813 8.73 0 12.74-5.318 12.74-16.42 0-11.093-4.01-16.412-12.74-16.412-8.54 0-12.68 5.318-12.68 16.019m12.68-24.1c16.01 0 23.5 7.819 23.5 24.492 0 16.681-7.49 24.555-23.5 24.555-16.22 0-23.51-7.874-23.51-25.012 0-16.216 7.67-24.035 23.51-24.035"/>
    <path d="m318.82 31.474v11.886h12.15c5.91 0 8.8-1.184 8.8-5.981 0-4.851-2.89-5.905-8.8-5.905h-12.15zm14.52-8.406c11.16 0 16.48 4.273 16.48 14.181 0 7.297-3.42 11.952-9.52 13.267l11.74 19.696h-11.16l-10.37-18.511h-11.69v18.511h-9.91v-47.144h24.43z"/>
    <path d="m352.12 31.342v-8.211h40.77v8.211h-15.29v38.868h-10.25v-38.868h-15.23z"/>
    <path d="m434.64 31.462h-11.52v13.967h12.12c3.02 0 5.25-0.568 6.71-1.717 1.46-1.147 2.19-2.902 2.19-5.262 0-2.538-0.72-4.329-2.14-5.393-1.44-1.063-3.88-1.595-7.36-1.595m-21.47-8.434h21.6c3.64 0 6.54 0.186 8.72 0.569 2.17 0.373 3.89 0.97 5.18 1.782 2.15 1.372 3.77 3.173 4.88 5.393 1.1 2.22 1.65 4.777 1.65 7.678 0 2.827-0.45 5.262-1.34 7.287-0.91 2.024-2.28 3.704-4.13 5.038-1.54 1.091-3.32 1.876-5.33 2.332-2 0.458-5.08 0.691-9.21 0.691h-12.07v16.543h-9.95v-47.313z"/>
    <path d="m478.71 70.35c-4.42 0-7.71-0.372-9.85-1.11-2.15-0.737-4.06-2.024-5.75-3.843-1.57-1.634-2.68-3.48-3.33-5.543-0.65-2.052-0.96-4.954-0.96-8.686v-28.13h9.94v27.803c0 2.772 0.13 4.721 0.38 5.851 0.24 1.118 0.68 2.033 1.27 2.715 0.94 1.119 2.1 1.912 3.48 2.378 1.37 0.477 3.27 0.709 5.69 0.709h11.72v7.856h-12.59z"/>
    <path d="m503.14 23.03v28.325c0 4.423 0.81 7.502 2.4 9.255 1.6 1.745 4.35 2.623 8.26 2.623 3.9 0 6.65-0.868 8.24-2.613 1.58-1.736 2.37-4.823 2.37-9.265v-28.325h9.96v28.578c0 3.349-0.22 6.018-0.66 8.014-0.43 1.998-1.15 3.574-2.11 4.74-1.89 2.23-4.28 3.872-7.13 4.917-2.86 1.054-6.43 1.576-10.67 1.576-4.25 0-7.82-0.522-10.7-1.576-2.89-1.045-5.27-2.687-7.16-4.917-0.95-1.138-1.63-2.678-2.06-4.608-0.44-1.932-0.64-4.647-0.64-8.146v-28.577h9.9z"/>
    <path d="m581.96 31.462h-24.6c-2.64 0-4.58 0.495-5.81 1.484-1.23 0.988-1.85 2.546-1.85 4.692 0 1.717 0.53 3.005 1.58 3.863s2.62 1.288 4.7 1.288h13.16c5.45 0 9.33 1.034 11.64 3.097 2.3 2.052 3.47 5.486 3.47 10.291 0 4.88-1.35 8.452-4 10.738-2.66 2.287-6.84 3.424-12.56 3.424h-26.49v-8.433h24.93c2.82 0 4.81-0.411 5.97-1.232 1.15-0.83 1.75-2.193 1.75-4.106 0-1.977-0.54-3.377-1.6-4.216-1.06-0.84-2.88-1.26-5.45-1.26h-11.75c-5.45 0-9.45-1.082-11.95-3.265-2.53-2.175-3.8-5.617-3.8-10.31 0-5.029 1.33-8.696 3.98-11.01 2.65-2.323 6.86-3.48 12.63-3.48h26.05v8.435z"/>
  </g>
</svg>
