<?xml version="1.0" encoding="UTF-8" standalone="no"?>
<svg xmlns:rdf="http://www.w3.org/1999/02/22-rdf-syntax-ns#" xmlns="http://www.w3.org/2000/svg" xmlns:cc="http://creativecommons.org/ns#" xmlns:xlink="http://www.w3.org/1999/xlink" xmlns:dc="http://purl.org/dc/elements/1.1/" height="87.248" width="600" version="1.1">
  <defs>
    <linearGradient id="g" gradientUnits="userSpaceOnUse" gradientTransform="matrix(0 -87.2 87.2 0 91.553 87.248)" x1="0" x2="1" y1="0" y2="0">
      <stop stop-color="#272c43" offset="0"/>
      <stop stop-color="#2b3555" offset=".4948"/>
      <stop stop-color="#2b3555" offset="1"/>
    </linearGradient>
    <linearGradient id="h" gradientUnits="userSpaceOnUse" gradientTransform="matrix(0 17.883 -17.883 0 79.288 4.0301)" x1="0" x2="1" y1="0" y2="0">
      <stop stop-color="#0071ae" offset="0"/>
      <stop stop-color="#2b3555" offset=".84375"/>
      <stop stop-color="#2b3555" offset="1"/>
    </linearGradient>
    <linearGradient id="i" gradientUnits="userSpaceOnUse" gradientTransform="matrix(0 -87.2 87.2 0 319.35 87.248)" x1="0" x2="1" y1="0" y2="0">
      <stop stop-color="#295183" offset="0"/>
      <stop stop-color="#3365a6" offset=".4948"/>
      <stop stop-color="#3365a6" offset="1"/>
    </linearGradient>
    <linearGradient id="j" gradientUnits="userSpaceOnUse" gradientTransform="matrix(0 17.883 -17.883 0 313.73 4.0301)" x1="0" x2="1" y1="0" y2="0">
      <stop stop-color="#79bfea" offset="0"/>
      <stop stop-color="#3365a6" offset=".84375"/>
      <stop stop-color="#3365a6" offset="1"/>
    </linearGradient>
    <linearGradient id="k" gradientUnits="userSpaceOnUse" gradientTransform="matrix(0 -87.227 87.227 0 541.67 87.231)" x1="0" x2="1" y1="0" y2="0">
      <stop stop-color="#272c43" offset="0"/>
      <stop stop-color="#2b3555" offset=".4948"/>
      <stop stop-color="#2b3555" offset="1"/>
    </linearGradient>
    <linearGradient id="l" gradientUnits="userSpaceOnUse" gradientTransform="matrix(0 17.899 -17.899 0 526.58 4.0041)" x1="0" x2="1" y1="0" y2="0">
      <stop stop-color="#0071ae" offset="0"/>
      <stop stop-color="#2b3555" offset=".84375"/>
      <stop stop-color="#2b3555" offset="1"/>
    </linearGradient>
  </defs>
  <path fill="url(#g)" d="m8.367 0.04116c-4.6227 0-8.367 4.109-8.367 9.1622v68.883c0 5.053 3.7444 9.162 8.3669 9.162h166.37c4.62 0 8.36-4.109 8.36-9.162v-68.883c0-5.0532-3.74-9.1621-8.36-9.1621l-166.37-0.000002z"/>
  <path fill="url(#h)" d="m10.767 4.0311c-3.5622 0-6.4618 4.0013-6.4618 8.9389 0 4.946 2.8996 8.939 6.4618 8.939h137.04c3.56 0 6.45-3.993 6.45-8.939 0 0-2.89-8.9389-6.45-8.9389h-137.04z"/>
  <path fill="#f8b322" d="m47.747 51.881c0 7.373-4.805 12.741-14.58 13.793-7.075 0.754-17.306-0.133-22.177-0.696-0.165-0.787-0.298-1.773-0.298-2.56 0-6.42 3.454-7.903 6.71-7.903 3.397 0 8.723 0.588 12.675 0.588 4.374 0 5.691-1.474 5.691-2.891 0-1.839-1.748-2.601-5.136-3.256l-9.278-1.781c-7.704-1.482-11.813-6.809-11.813-12.467-0.0004-6.885 4.871-12.642 14.448-13.694 7.24-0.787 16.055 0.099 20.893 0.687 0.165 0.82 0.265 1.616 0.265 2.469 0 6.42-3.389 7.804-6.644 7.804-2.51 0-6.387-0.464-10.827-0.464-4.515 0-6.387 1.251-6.387 2.767 0 1.615 1.773 2.269 4.606 2.758l8.856 1.649c9.079 1.681 12.997 6.842 12.997 13.197m15.881 7.894c0 3.952-1.549 6.222-9.245 6.222-1.019 0-1.905-0.058-2.758-0.191v-52.33c0-3.977 1.342-8.1274 9.112-8.1274 0.986 0 1.972 0.0994 2.891 0.2983v54.129zm31.48 20.247c1.019 0.522 3.098 1.143 5.691 1.218 4.48 0.099 6.92-1.616 8.73-5.625l23.99-53.516c-0.99-0.53-3.19-1.118-4.97-1.151-3.09-0.066-7.24 0.555-9.88 6.876l-7.76 18.333-15.246-24.819c-0.978-0.29-3.388-0.721-5.128-0.721-5.401 0-8.392 1.98-11.515 5.368l-14.812 16.187 11.913 18.755c2.204 3.43 5.103 5.169 9.808 5.169 3.09 0 5.658-0.721 6.843-1.284l-14.348-21.622 10.173-10.785 16.692 26.185-10.181 21.431z"/>
  <path fill="url(#i)" d="m151.78 0.04116c-4.83 0-8.73 4.0344-8.73 9.1622v78.045h344.89c4.83 0 7.72-4.109 7.72-9.162v-78.045l-343.88-0.000102z"/>
  <path fill="url(#j)" d="m144.58 4.0311c-0.95 1.4664-1.51 3.2475-1.51 5.1776v12.7h348.84v-17.877l-347.33-0.0003z"/>
  <g fill="#fff" transform="translate(-0.00339 .0036222)">
    <path d="m169.18 29.447c-4.85 0-7.11 1.715-7.11 5.766 0 3.189 1.96 4.78 5.82 4.78h12.27c9.8 0 14.04 3.247 14.04 12.451 0 9.253-4.97 13.18-15.39 13.18h-24.65v-7.854h23.18c4.9 0 7.16-1.16 7.16-4.962 0-3.927-2.08-5.086-6.55-5.086h-10.92c-10.05 0-14.65-3.803-14.65-12.633 0-9.568 4.96-13.487 15.45-13.487h24.22v7.845h-22.87z"/>
    <path d="m208.08 29.447v12.998h11.28c5.58 0 8.28-2.088 8.28-6.495 0-4.904-2.7-6.503-8.83-6.503h-10.73zm10.85-7.845c6.01 0 10.24 0.489 12.94 2.204 3.92 2.518 6.06 6.685 6.06 12.145 0 5.268-1.65 9.013-5.08 11.464-3.74 2.635-8.04 2.817-13.56 2.817h-11.21v15.392h-9.26v-44.022h20.11z"/>
    <path d="m250.58 43.237c0 10.728 3.55 15.699 11.83 15.699 8.16 0 11.89-4.971 11.89-15.334 0-10.355-3.73-15.326-11.89-15.326-7.97 0-11.83 4.971-11.83 14.961m11.83-22.5c14.96 0 21.95 7.299 21.95 22.864 0 15.574-6.99 22.939-21.95 22.939-15.15 0-21.95-7.365-21.95-23.361 0-15.144 7.18-22.442 21.95-22.442"/>
    <path d="m297.68 29.447v11.101h11.35c5.51 0 8.21-1.11 8.21-5.583 0-4.54-2.7-5.518-8.21-5.518h-11.35zm13.55-7.845c10.42 0 15.39 3.985 15.39 13.238 0 6.81-3.19 11.159-8.89 12.385l10.97 18.399h-10.42l-9.69-17.289h-10.91v17.289h-9.27v-44.022h22.82z"/>
    <path d="m328.78 29.317v-7.663h38.07v7.663h-14.28v36.301h-9.57v-36.301h-14.22z"/>
    <path d="m399.58 48.697h7.72c8.93 0 13.86-4.78 13.86-13.454 0-5.675-1.99-9.717-5.91-12.004-2.52-1.449-5.34-1.574-8.24-1.574h-24.86v10.223h21.11c4.67 0 5.1 0.887 5.1 3.239 0 2.121-0.49 3.123-5.1 3.123h-5.51c-10.94 0-15.61 4.043-15.61 13.512v13.859h38.84v-10.165h-26.46v-2.502c0-2.998 0.7-4.258 5.05-4.258"/>
    <path d="m437.28 48.007 11.22-12.037v12.037h-11.22zm22.98 0v-26.402h-13.13l-24.87 26.451v10.123h26.24v7.439h11.76v-7.439h5.55v-10.173h-5.55z"/>
  </g>
  <path fill="url(#k)" d="m491.77 0.0011611c-4.61 0-8.42 4.0427-8.42 9.096v78.129l108.23-0.001c4.62 0 8.42-4.101 8.42-9.146v-78.079h-108.23z"/>
  <path fill="url(#l)" d="m484.77 4.0011c-0.91 1.4581-1.44 3.2144-1.44 5.1031v12.798l112.09 0.001v-17.901l-110.64-0.0003z"/>
  <path fill="#fff" d="m526.77 65.441v-18.938h-23.63v18.938h-10.26v-43.873h10.26v17.96h23.63v-17.96h10.26v43.873h-10.26z"/>
  <path fill="#fff" d="m564.97 28.481h-10.87v29.997h10.96c11.65 0 15.21-0.464 15.21-14.936s-3.65-15.061-15.3-15.061m21.82 31.049c-4.17 4.664-10.43 5.915-21.2 5.915h-21.55v-43.873h21.46c10.77 0 17.04 1.317 21.2 5.99 3.05 3.421 3.83 7.364 3.83 15.979 0 8.616-0.7 12.559-3.74 15.989"/>
</svg>
