<?xml version="1.0" encoding="UTF-8" standalone="no"?>
<!-- Created with Inkscape (http://www.inkscape.org/) -->
<svg xmlns:rdf="http://www.w3.org/1999/02/22-rdf-syntax-ns#" xmlns="http://www.w3.org/2000/svg" height="105.56" width="600" version="1.1" xmlns:cc="http://creativecommons.org/ns#" xmlns:xlink="http://www.w3.org/1999/xlink" xmlns:dc="http://purl.org/dc/elements/1.1/">
 <defs>
  <linearGradient id="linearGradient6158" gradientUnits="userSpaceOnUse" gradientTransform="matrix(0,21.647269,-21.647269,0,379.76655,4.828675)">
   <stop stop-color="#79bfea" offset="0"/>
   <stop stop-color="#3365a6" offset="0.84375"/>
   <stop stop-color="#3365a6" offset="1"/>
  </linearGradient>
  <linearGradient id="linearGradient6161" gradientUnits="userSpaceOnUse" gradientTransform="matrix(0,-105.55629,105.55629,0,386.56927,105.56426)">
   <stop stop-color="#295183" offset="0"/>
   <stop stop-color="#3365a6" offset="0.4948"/>
   <stop stop-color="#3365a6" offset="1"/>
  </linearGradient>
  <linearGradient id="linearGradient6165" gradientUnits="userSpaceOnUse" gradientTransform="matrix(0,21.647269,-21.647269,0,95.977916,4.828675)">
   <stop stop-color="#0071ae" offset="0"/>
   <stop stop-color="#2b3555" offset="0.84375"/>
   <stop stop-color="#2b3555" offset="1"/>
  </linearGradient>
  <linearGradient id="linearGradient6168" gradientUnits="userSpaceOnUse" gradientTransform="matrix(0,-105.55629,105.55629,0,110.82551,105.56426)">
   <stop stop-color="#272c43" offset="0"/>
   <stop stop-color="#2b3555" offset="0.4948"/>
   <stop stop-color="#2b3555" offset="1"/>
  </linearGradient>
 </defs>
 <metadata>
  <rdf:RDF>
   <cc:Work rdf:about="">
    <dc:format>image/svg+xml</dc:format>
    <dc:type rdf:resource="http://purl.org/dc/dcmitype/StillImage"/>
    <dc:title/>
   </cc:Work>
  </rdf:RDF>
 </metadata>
 <path fill="url(#linearGradient6168)" d="M10.128,0c-5.5954,0-10.128,4.9739-10.128,11.091v83.382c0,6.1171,4.5327,11.091,10.128,11.091h201.39c5.5956,0,10.118-4.9739,10.118-11.091v-83.378c0-6.1171-4.53-11.091-10.12-11.091h-201.39z"/>
 <path fill="url(#linearGradient6165)" d="m13.033,4.8299c-4.312,0-7.8218,4.8435-7.8218,10.82,0,5.9867,3.5098,10.82,7.8218,10.82h165.89c4.312,0,7.8118-4.8335,7.8118-10.82,0,0-3.4998-10.82-7.8118-10.82h-165.89z"/>
 <path fill-rule="nonzero" fill="#f9b32f" d="m57.797,62.752c0,8.9248-5.8162,15.423-17.649,16.696-8.5639,0.91254-20.949-0.16045-26.845-0.84234-0.20055-0.95266-0.361-2.146-0.361-3.0986,0-7.7717,4.1816-9.5666,8.1226-9.5666,4.1114,0,10.559,0.71199,15.343,0.71199,5.2948,0,6.8891-1.785,6.8891-3.4998,0-2.2262-2.1159-3.1487-6.2173-3.941l-11.232-2.155c-9.326-1.795-14.299-8.243-14.299-15.093,0-8.3333,5.8964-15.303,17.489-16.576,8.7644-0.95266,19.434,0.12032,25.291,0.83232,0.20055,0.99276,0.32089,1.9554,0.32089,2.9883,0,7.7717-4.1014,9.4463-8.0424,9.4463-3.0385,0-7.7315-0.56157-13.106-0.56157-5.4652,0-7.7315,1.5142-7.7315,3.3493,0,1.9554,2.146,2.7477,5.5755,3.3393l10.72,1.9956c10.991,2.0357,15.734,8.2832,15.734,15.975m19.224,9.5566c0,4.7834-1.8753,7.531-11.191,7.531-1.2335,0-2.3065-0.07021-3.3393-0.23064v-63.345c0-4.8134,1.6245-9.8374,11.031-9.8374,1.1933,0,2.3866,0.12032,3.4998,0.361v65.523zm38.106,24.509c1.2335,0.63176,3.7505,1.3838,6.8892,1.4741,5.4252,0.12032,8.3733-1.9554,10.559-6.809l29.04-64.782c-1.1934-0.64179-3.8609-1.3538-6.0169-1.3939-3.7404-0.08026-8.7544,0.67188-11.953,8.3232l-9.4,22.193-18.45-30.044c-1.1833-0.35098-4.1014-0.87242-6.2073-0.87242-6.5382,0-10.158,2.3967-13.939,6.4982l-17.926,19.594,14.421,22.703c2.6674,4.1516,6.1773,6.2574,11.873,6.2574,3.7404,0,6.8491-0.87242,8.2832-1.5543l-17.366-26.173,12.316-13.056,20.19,31.698-12.31,25.942z"/>
 <path fill="url(#linearGradient6161)" d="m183.72,0c-5.8463,0-10.569,4.8836-10.569,11.091v94.473h417.5c5.8463,0,9.3461-4.9739,9.3461-11.091v-94.473h-416.28z"/>
 <path fill="url(#linearGradient6158)" d="m175.01,4.8299c-1.1532,1.7749-1.8251,3.931-1.8251,6.2674v15.374h422.27v-21.64h-420.44z"/>
 <path fill-rule="nonzero" fill="#FFF" d="m204.79,35.601c-5.8664,0-8.6039,2.0758-8.6039,6.9795,0,3.8607,2.3665,5.7862,7.0495,5.7862h14.842c11.873,0,16.998,3.931,16.998,15.072,0,11.201-6.0168,15.954-18.632,15.954h-29.834v-9.5065h28.058c5.9366,0,8.6743-1.4039,8.6743-6.0067,0-4.7532-2.5171-6.1572-7.9321-6.1572h-13.217c-12.174,0-17.74-4.6028-17.74-15.292,0-11.582,6.0068-16.326,18.702-16.326h29.322v9.4964h-27.688z"/>
 <path fill-rule="nonzero" fill="#FFF" d="M240.66,26.094v53.312h11.22v-18.656h13.56c6.68,0,11.88-0.217,16.4-3.406,4.16-2.968,6.19-7.497,6.19-13.875,0-6.609-2.6-11.639-7.34-14.688-3.27-2.076-8.41-2.687-15.69-2.687h-24.34zm11.22,9.5h13c7.43,0,10.68,1.938,10.68,7.875,0,5.335-3.27,7.875-10.03,7.875h-13.65v-15.75z"/>
 <path fill-rule="nonzero" fill="#FFF" d="M317.66,25.062c-17.88,0-26.6,8.825-26.6,27.157,0,19.363,8.26,28.281,26.6,28.281,18.11,0,26.56-8.929,26.56-27.781,0-18.842-8.45-27.657-26.56-27.657zm0,9.126c9.87,0,14.37,6.027,14.37,18.562,0,12.545-4.5,18.531-14.37,18.531-10.02,0-14.35-6.014-14.35-19,0-12.093,4.7-18.093,14.35-18.093z"/>
 <path fill-rule="nonzero" fill="#FFF" d="M349.12,26.094v53.312h11.22v-20.937h13.22l11.72,20.937h12.6l-13.26-22.281c6.9-1.484,10.76-6.757,10.76-15,0-11.201-6.01-16.031-18.63-16.031h-27.63zm11.22,9.5h13.72c6.68,0,9.94,1.192,9.94,6.687,0,5.415-3.26,6.75-9.94,6.75h-13.72v-13.437z"/>
 <path fill-rule="nonzero" fill="#FFF" d="m397.98,35.443,0-9.2759,46.088,0,0,9.2759-17.288,0,0,43.942-11.582,0,0-43.942-17.218,0z"/>
 <path fill-rule="nonzero" fill="#FFF" d="m483.68,58.903,9.3461,0c10.81,0,16.776-5.7861,16.776-16.286,0-6.8692-2.4067-11.763-7.1499-14.531-3.0485-1.7548-6.458-1.9053-9.9778-1.9053h-30.094v12.375h25.561c5.6558,0,6.1771,1.073,6.1771,3.9209,0,2.5672-0.60162,3.7806-6.1771,3.7806h-6.6686c-13.248,0-18.893,4.8937-18.893,16.356v16.776h47.011v-12.305h-32.03v-3.0284c0-3.6301,0.85243-5.1544,6.1171-5.1544"/>
 <path fill-rule="nonzero" fill="#FFF" d="M541.25,26.094l-30.13,32.031v12.25h31.79v9h14.21v-9h6.76v-12.313h-6.76v-31.968h-15.87zm1.66,17.406v14.562h-13.6l13.6-14.562z"/>
</svg>
