<?xml version="1.0" encoding="UTF-8" standalone="no"?>
<svg xmlns:rdf="http://www.w3.org/1999/02/22-rdf-syntax-ns#" xmlns="http://www.w3.org/2000/svg" xmlns:cc="http://creativecommons.org/ns#" xmlns:dc="http://purl.org/dc/elements/1.1/" height="84.518" width="600" version="1.1" viewBox="0 0 158.75 22.361968">
  <defs>
    <linearGradient id="c" gradientUnits="userSpaceOnUse" gradientTransform="matrix(0 21.376 -19.538 0 79.338 .51722)" x1="0" x2="1" y1="0" y2="0">
      <stop stop-color="#141c4b" offset="0"/>
      <stop stop-color="#1a2b68" offset=".036344"/>
      <stop stop-color="#1a2b68" offset=".89549"/>
      <stop stop-color="#141c4b" offset="1"/>
    </linearGradient>
    <linearGradient id="d" gradientUnits="userSpaceOnUse" gradientTransform="matrix(0 -21.023 -15.524 0 77.415 21.71)" x1="0" x2="1" y1="0" y2="0">
      <stop stop-color="#5a252a" offset="0"/>
      <stop stop-color="#cb082a" offset=".073882"/>
      <stop stop-color="#cb082a" offset=".91555"/>
      <stop stop-color="#e73440" offset="1"/>
    </linearGradient>
  </defs>
  <path stroke-width="2.2285" fill="url(#c)" d="m2.8551 0.69437c-1.4913 0.01632-2.024 0.99063-2.024 2.6059v15.811c0.00008 1.629 0.5327 2.608 2.0453 2.608h152.9c1.51 0 2.03-0.979 2.03-2.608v-15.811c0-1.6149-0.52-2.5892-2.01-2.6055z"/>
  <path stroke-width="2.5892" d="m39.721 21.719h75.369z"/>
  <path fill="#94979c" d="m155.53 22.362c2.46 0 3.22-1.538 3.22-3.065v-16.243c0-1.527-0.76-3.054-3.22-3.054h-152.31c-2.461 0-3.22 1.527-3.22 3.054v16.243c0.00002331 1.527 0.75902 3.065 3.217 3.065h152.31m-152.2-0.213c-1.659 0-2.781-0.981-2.781-2.609v-16.729c0.00002-1.628 1.122-2.609 2.781-2.609h152.09c1.66 0 2.78 0.981 2.78 2.609v16.729c0 1.628-1.12 2.609-2.78 2.609h-152.09"/>
  <path stroke-width="2.003" fill="url(#d)" d="m39.721 21.719h75.369v-21.025h-75.369z"/>
  <g fill="#fff">
    <path opacity=".4" d="m156.01 16.891c1.31 1.416 1.48 2.749 1.53 3.041 0.13 0 0.17-0.623 0.17-1.555v-14.952c0-1.7326-0.51-2.3165-1.85-2.3165-0.46 0.0001-0.91 0.2662-1.51 0.2662h-150c-0.6027 0-1.0564-0.2661-1.508-0.2661-1.3379 0-1.8512 0.5838-1.8512 2.3164l-0.00428 14.952c0 0.932 0.04688 1.555 0.17468 1.555 0.0469-0.291 0.0852-1.73 1.5253-3.041 11.498-9.7271 140.93-12.712 153.33 0" stroke-width="2.2304"/>
    <g>
      <path d="m139.21 9.83v-2.973c0-0.809 0.32-1.315 1.98-1.315l0.59 0.04v9.75c0 0.799-0.32 1.315-1.98 1.315l-0.59-0.05v-4.43h-5.18v3.165c0 0.799-0.32 1.315-1.98 1.315l-0.59-0.05v-9.74c0-0.809 0.33-1.315 2-1.315l0.57 0.04v4.248h5.18m14.74 1.244c0-3.307-2.38-5.552-6.33-5.552h-2.69c-1.28 0-1.59 0.677-1.59 1.567v7.991c0 0.859 0.31 1.557 1.59 1.557h2.69c3.95 0 6.33-2.245 6.33-5.563m-8.03 3.186v-6.361h1.85c2.59 0 3.54 1.668 3.54 3.175s-0.95 3.186-3.54 3.186h-1.85"/>
      <path d="m14.362 13.188c0 1.801-1.183 3.125-3.57 3.378-1.739 0.192-4.248-0.03-5.441-0.172l-0.071-0.627c0-1.567 0.85-1.932 1.649-1.932 0.829 0 2.134 0.142 3.105 0.142 1.072 0 1.395-0.364 1.395-0.708 0-0.445-0.435-0.637-1.264-0.789l-2.266-0.445c-1.891-0.364-2.902-1.669-2.902-3.054 0-1.679 1.193-3.095 3.54-3.358 1.78-0.192 3.934 0.03 5.117 0.182l0.071 0.597c0 1.577-0.829 1.911-1.628 1.911-0.617 0-1.568-0.111-2.65-0.111-1.113 0-1.568 0.303-1.568 0.678 0 0.394 0.435 0.556 1.133 0.677l2.164 0.405c2.226 0.404 3.186 1.669 3.186 3.226m3.884 1.942c0 0.961-0.374 1.517-2.265 1.517-0.243 0-0.466-0.02-0.668-0.05v-12.815c0-0.971 0.324-1.982 2.225-1.982 0.243 0 0.486 0.02 0.708 0.071v13.259m7.717 4.956c0.243 0.121 0.749 0.283 1.386 0.293 1.102 0.021 1.699-0.394 2.134-1.375l5.876-13.108c-0.243-0.131-0.779-0.273-1.214-0.283-0.758-0.01-1.769 0.141-2.417 1.689l-1.901 4.49-3.732-6.078c-0.243-0.081-0.83-0.182-1.265-0.182-1.314 0-2.053 0.485-2.811 1.315l-3.631 3.964 2.923 4.592c0.536 0.84 1.244 1.264 2.397 1.264 0.758 0 1.385-0.171 1.679-0.303l-3.52-5.3 2.498-2.64 4.086 6.413-2.488 5.249"/>
      <path d="m56.447 13.633c0-2.184-1.416-3.246-3.682-3.742l-3.964-0.9c-0.718-0.162-1.315-0.374-1.315-1.103 0-0.778 0.617-1.082 2.275-1.082 1.973 0 2.428 0.101 4.208 0.101 0.819 0 1.659-0.374 1.659-2.002l-0.061-0.617c-1.193-0.101-3.338-0.223-5.977-0.223-3.985 0-5.502 1.72-5.502 3.925 0 2.063 1.294 3.206 3.6 3.742l3.965 0.92c0.92 0.223 1.416 0.617 1.416 1.204 0 0.779-0.698 1.082-2.357 1.082-1.962 0-2.862-0.142-4.652-0.142-0.819 0-1.659 0.385-1.659 2.003l0.061 0.617c1.203 0.121 3.782 0.263 6.422 0.263 3.985 0 5.563-1.699 5.563-4.046"/>
      <path d="m89.14 12.753h1.65l3.22 3.823c0.6 0.739 1.17 1.123 2.54 1.123 0.92 0 1.54-0.121 2.04-0.364l-4.16-4.824c2.33-0.496 3.51-2.023 3.51-4.258 0-2.762-1.67-4.127-5.07-4.127l-4.88-0.02c-1.58 0.06-2.09 0.607-2.09 2.043v11.328c0.23 0.04 0.51 0.06 0.8 0.06 2 0 2.46-0.576 2.46-1.618l-0.02-3.166m0.02-2.639v-3.348h3.14c1.35 0 2.41 0.202 2.41 1.608 0 1.173-0.81 1.74-2.41 1.74h-3.14"/>
      <path d="m57.893 17.477c0.243 0.04 0.526 0.06 0.799 0.06 2.003 0 2.468-0.576 2.468-1.618v-2.741h3.398c3.702 0 5.543-1.608 5.543-4.612 0-2.892-1.841-4.44-5.32-4.44h-4.784c-1.608 0-2.104 0.627-2.104 2.043v11.308m3.267-6.999v-3.692h3.257c1.618 0 2.427 0.607 2.427 1.78 0 1.264-0.809 1.912-2.427 1.912h-3.257"/>
      <path d="m77.71 17.517c2.1 0 3.72-0.496 4.86-1.517 1.14-1.001 1.73-2.802 1.73-5.371-0.03-2.518-0.61-4.278-1.79-5.32-1.18-1.021-2.78-1.537-4.8-1.537-2.026 0-3.624 0.516-4.808 1.537-1.173 1.042-1.759 2.802-1.78 5.32 0 2.569 0.587 4.37 1.72 5.371 1.143 1.021 2.771 1.517 4.868 1.517m3.22-6.888c0 1.548-0.26 2.63-0.78 3.267-0.5 0.658-1.32 0.961-2.44 0.961-1.15-0.02-1.966-0.344-2.481-0.961-0.516-0.617-0.779-1.699-0.779-3.267 0-1.537 0.273-2.619 0.799-3.236 0.516-0.647 1.331-0.941 2.461-0.941 1.12 0 1.92 0.294 2.44 0.941 0.52 0.617 0.78 1.699 0.78 3.236"/>
      <path d="m106.55 6.867h2.62c0.87 0 1.74-0.395 1.74-2.104l-0.05-0.637h-10.19c-0.86 0-1.74 0.405-1.74 2.104l0.06 0.637h4.31v10.61c0.23 0.04 0.51 0.06 0.79 0.06 2.01 0 2.46-0.576 2.46-1.618v-9.052"/>
      <path d="m120.07 8.667c-0.16-0.141-0.3-0.263-0.51-0.617-0.55-0.88-0.57-2.043 0.57-2.468l4.15-1.405h2.04v11.863c0 0.911-0.25 1.548-1.71 1.548-0.58 0-1.27-0.061-1.55-0.122v-9.8l-2.99 1.001"/>
    </g>
  </g>
</svg>
