<?xml version="1.0" encoding="UTF-8" standalone="no"?>
<!-- Created with Inkscape (http://www.inkscape.org/) -->
<svg xmlns:rdf="http://www.w3.org/1999/02/22-rdf-syntax-ns#" xmlns="http://www.w3.org/2000/svg" height="92.555" width="600" version="1.1" xmlns:cc="http://creativecommons.org/ns#" xmlns:xlink="http://www.w3.org/1999/xlink" xmlns:dc="http://purl.org/dc/elements/1.1/">
 <defs>
  <linearGradient id="linearGradient4199" gradientUnits="userSpaceOnUse" gradientTransform="matrix(-9.2481258e-7,18.983413,-18.983413,-9.2481258e-7,1143.0513,194.58097)">
   <stop stop-color="#66bae8" offset="0"/>
   <stop stop-color="#2769a9" offset="0.84375"/>
   <stop stop-color="#2769a9" offset="1"/>
  </linearGradient>
  <linearGradient id="linearGradient4204" gradientUnits="userSpaceOnUse" gradientTransform="matrix(-3.6992504e-6,-92.566591,92.566591,-3.6992504e-6,1149.0158,282.92008)">
   <stop stop-color="#114d81" offset="0"/>
   <stop stop-color="#2669a9" offset="0.49479"/>
   <stop stop-color="#2669a9" offset="1"/>
  </linearGradient>
  <linearGradient id="linearGradient4209" gradientUnits="userSpaceOnUse" gradientTransform="matrix(-9.2481258e-7,18.983413,-18.983413,-9.2481258e-7,857.25792,194.58097)">
   <stop stop-color="#0070ad" offset="0"/>
   <stop stop-color="#152c53" offset="0.84375"/>
   <stop stop-color="#152c53" offset="1"/>
  </linearGradient>
  <linearGradient id="linearGradient4214" gradientUnits="userSpaceOnUse" gradientTransform="matrix(-3.6992504e-6,-92.566591,92.566591,-3.6992504e-6,870.27827,282.92008)">
   <stop stop-color="#03193c" offset="0"/>
   <stop stop-color="#152c53" offset="0.49479"/>
   <stop stop-color="#152c53" offset="1"/>
  </linearGradient>
 </defs>
 <metadata>
  <rdf:RDF>
   <cc:Work rdf:about="">
    <dc:format>image/svg+xml</dc:format>
    <dc:type rdf:resource="http://purl.org/dc/dcmitype/StillImage"/>
    <dc:title/>
   </cc:Work>
  </rdf:RDF>
 </metadata>
 <g transform="translate(-773.09737,-190.35946)">
  <path fill="url(#linearGradient4214)" d="m781.98,190.36c-4.9108,0-8.8782,4.3466-8.8782,9.7198v73.116c0,5.3732,3.9674,9.7198,8.8782,9.7198h176.62c4.8923,0,8.869-4.3466,8.869-9.7198v-73.116c0-5.3732-3.9767-9.7198-8.869-9.7198h-176.62z"/>
  <path fill="url(#linearGradient4209)" d="m784.52,194.59c-3.7825,0-6.8529,4.2541-6.8529,9.4886,0,5.2437,3.0704,9.4886,6.8529,9.4886h145.47c3.7825,0,6.8528-4.2449,6.8528-9.4886,0,0-3.0704-9.4886-6.8528-9.4886h-145.47z"/>
  <path fill-rule="nonzero" fill="#fbaf34" d="m823.78,245.37c0,7.8239-5.0957,13.521-15.481,14.64-7.5002,0.80459-18.367-0.13872-23.536-0.73985-0.17572-0.83233-0.31444-1.8774-0.31444-2.7189,0-6.8159,3.6623-8.3788,7.121-8.3788,3.5975,0,9.2574,0.61963,13.456,0.61963,4.6426,0,6.039-1.5629,6.039-3.0704,0-1.9514-1.8496-2.756-5.4471-3.4588l-9.8585-1.8866c-8.1753-1.5722-12.54-7.232-12.54-13.234,0-7.306,5.1697-13.419,15.333-14.538,7.6944-0.84157,17.054,0.10174,22.186,0.7306,0.17572,0.86933,0.28669,1.7109,0.28669,2.6172,0,6.8159-3.5975,8.2863-7.0563,8.2863-2.6635,0-6.7789-0.49015-11.495-0.49015-4.7905,0-6.7789,1.3225-6.7789,2.9317,0,1.7109,1.8866,2.4138,4.883,2.9316l9.4054,1.7479c9.6458,1.7849,13.798,7.269,13.798,14.011m16.859,8.388c0,4.1894-1.6462,6.6032-9.8123,6.6032-1.082,0-2.0254-0.074-2.9317-0.21271v-55.544c0-4.2264,1.4242-8.6378,9.6735-8.6378,1.045,0,2.0901,0.111,3.0704,0.32367v57.468zm33.413,21.483c1.082,0.55489,3.2831,1.2208,6.0483,1.2948,4.7535,0.10174,7.3338-1.7109,9.2574-5.9743l25.47-56.81c-1.045-0.55489-3.3848-1.1838-5.2807-1.2208-3.2831-0.0647-7.6852,0.59188-10.478,7.306l-8.2401,19.458-16.184-26.339c-1.045-0.31444-3.5975-0.7676-5.4472-0.7676-5.7246,0-8.9059,2.0901-12.226,5.6876l-15.722,17.192,12.651,19.911c2.3398,3.6345,5.4102,5.4841,10.404,5.4841,3.2923,0,6.0113-0.7676,7.269-1.3595l-15.232-22.954,10.802-11.458,17.71,27.809-10.802,22.741z"/>
  <path fill="url(#linearGradient4204)" d="m934.21,190.36c-5.1327,0-9.2759,4.2819-9.2759,9.7198v82.835h439.98c5.1142,0,8.1847-4.3466,8.1847-9.7198v-82.835h-438.89z"/>
  <path fill="url(#linearGradient4199)" d="m926.53,194.59c-1.008,1.5537-1.5999,3.4403-1.5999,5.4934v13.484h444.16v-18.977h-442.56z"/>
  <path fill-rule="nonzero" fill="#FFF" d="m952.64,221.56c-5.142,0-7.5465,1.8219-7.5465,6.1223,0,3.3848,2.0808,5.0772,6.1778,5.0772h13.021c10.413,0,14.908,3.4496,14.908,13.206,0,9.8308-5.2807,13.992-16.341,13.992h-26.163v-8.3233h24.6c5.2067,0,7.6112-1.2392,7.6112-5.2807,0-4.1616-2.2103-5.4009-6.9546-5.4009h-11.588c-10.672,0-15.555-4.0322-15.555-13.401,0-10.154,5.2714-14.325,16.397-14.325h25.71v8.3326h-24.276z"/>
  <path fill-rule="nonzero" fill="#FFF" d="m993.97,221.56,0,13.798,11.976,0c5.9281,0,8.7858-2.2103,8.7858-6.8991,0-5.2067-2.8577-6.8991-9.3776-6.8991h-11.384zm11.523-8.3326c6.3812,0,10.866,0.52715,13.733,2.3398,4.1617,2.6727,6.4368,7.1026,6.4368,12.892,0,5.5951-1.7571,9.5718-5.4009,12.171-3.9675,2.8022-8.5267,2.9964-14.381,2.9964h-11.912v16.332h-9.8308v-46.731h21.354z"/>
  <path fill-rule="nonzero" fill="#FFF" d="m1039.1,236.21c0,11.394,3.7732,16.665,12.559,16.665,8.6562,0,12.633-5.2714,12.633-16.277,0-10.996-3.9767-16.267-12.633-16.267-8.462,0-12.559,5.2714-12.559,15.879m12.559-23.888c15.879,0,23.305,7.7499,23.305,24.276,0,16.536-7.4263,24.341-23.305,24.341-16.073,0-23.296-7.8054-23.296-24.794,0-16.073,7.6112-23.823,23.296-23.823"/>
  <path fill-rule="nonzero" fill="#FFF" d="m1089.1,221.56,0,11.782,12.041,0c5.8633,0,8.721-1.1745,8.721-5.9281,0-4.809-2.8577-5.8541-8.721-5.8541h-12.041zm14.39-8.3326c11.061,0,16.332,4.2356,16.332,14.057,0,7.232-3.3848,11.847-9.4331,13.151l11.643,19.523h-11.061l-10.284-18.348h-11.588v18.348h-9.8308v-46.731h24.221z"/>
  <path fill-rule="nonzero" fill="#FFF" d="m1122.1,221.43,0-8.1383,40.424,0,0,8.1383-15.167,0,0,38.528-10.154,0,0-38.528-15.102,0z"/>
  <path fill-rule="nonzero" fill="#FFF" d="m1203.9,221.55-11.421,0,0,13.844,12.022,0c2.9872,0,5.1975-0.56413,6.6403-1.7016,1.4519-1.1375,2.1732-2.8762,2.1732-5.216,0-2.5155-0.712-4.2911-2.127-5.3454s-3.838-1.5814-7.2875-1.5814m-21.28-8.3603,21.409,0c3.6159,0,6.4921,0.18496,8.6469,0.56414,2.1456,0.36991,3.8565,0.96179,5.1327,1.7664,2.1271,1.3595,3.7363,3.1444,4.8368,5.3454,1.0913,2.2011,1.6369,4.735,1.6369,7.6112,0,2.8022-0.4439,5.216-1.3317,7.2228-0.8971,2.0068-2.2566,3.6715-4.0877,4.994-1.5351,1.082-3.2923,1.8589-5.2807,2.312-1.9883,0.45316-5.0402,0.68436-9.1371,0.68436h-11.967v16.397h-9.8585v-46.897z"/>
  <path fill-rule="nonzero" fill="#FFF" d="m1247.6,260.09c-4.3837,0-7.6389-0.36992-9.766-1.1005-2.1271-0.7306-4.0323-2.0068-5.7061-3.8102-1.5538-1.6184-2.6543-3.4496-3.2924-5.4934-0.6381-2.0346-0.9525-4.9108-0.9525-8.61v-27.883h9.8585v27.559c0,2.7467,0.1201,4.6796,0.3699,5.7986,0.2404,1.1098,0.6659,2.0161,1.2577,2.6912,0.9341,1.1098,2.0809,1.8959,3.4496,2.3583,1.3595,0.47165,3.2369,0.70286,5.6414,0.70286h11.616v7.7869h-12.476z"/>
  <path fill-rule="nonzero" fill="#FFF" d="m1271.8,213.2,0,28.077c0,4.3836,0.7953,7.4355,2.3767,9.1741,1.5815,1.7294,4.3097,2.5987,8.1847,2.5987,3.8657,0,6.5939-0.86008,8.166-2.5895,1.5722-1.7202,2.3584-4.7813,2.3584-9.1834v-28.077h9.8585v28.327c0,3.3201-0.2128,5.965-0.6474,7.9441s-1.1376,3.542-2.0902,4.698c-1.8773,2.2103-4.2356,3.838-7.0655,4.8738-2.8391,1.045-6.3719,1.5629-10.58,1.5629-4.208,0-7.7499-0.51789-10.608-1.5629-2.8578-1.0358-5.2252-2.6634-7.1027-4.8738-0.9339-1.1283-1.6183-2.6542-2.0437-4.5686-0.4255-1.9144-0.629-4.6056-0.629-8.0736v-28.327h9.8216z"/>
  <path fill-rule="nonzero" fill="#FFF" d="m1349.9,221.55-24.378,0c-2.6173,0-4.5316,0.49015-5.7524,1.4705-1.2299,0.9803-1.8403,2.5247-1.8403,4.6518,0,1.7016,0.5272,2.9779,1.5629,3.8287,1.0451,0.85083,2.5987,1.2762,4.6611,1.2762h13.049c5.4009,0,9.2481,1.0265,11.532,3.0704,2.2843,2.0346,3.431,5.4379,3.431,10.201,0,4.8368-1.3224,8.3788-3.9582,10.645-2.6356,2.2658-6.7788,3.3941-12.439,3.3941h-26.265v-8.3603h24.702c2.8022,0,4.7812-0.40692,5.9281-1.2208,1.1467-0.82307,1.7293-2.1733,1.7293-4.0692,0-1.9606-0.5271-3.3478-1.5814-4.1802-1.0542-0.83234-2.8577-1.2485-5.4101-1.2485h-11.643c-5.401,0-9.3592-1.0728-11.847-3.2368-2.5063-2.1548-3.7547-5.5674-3.7547-10.219,0-4.9847,1.3132-8.6192,3.9396-10.913,2.6266-2.3028,6.7975-3.4496,12.522-3.4496h25.812v8.3603z"/>
 </g>
</svg>
