<?xml version="1.0" encoding="UTF-8" standalone="no"?>
<svg xmlns:rdf="http://www.w3.org/1999/02/22-rdf-syntax-ns#" xmlns="http://www.w3.org/2000/svg" xmlns:cc="http://creativecommons.org/ns#" xmlns:xlink="http://www.w3.org/1999/xlink" xmlns:dc="http://purl.org/dc/elements/1.1/" height="94.943" width="600" version="1.1" viewBox="0 0 158.75 25.120267">
  <defs>
    <linearGradient id="e" x1="1.3959" gradientUnits="userSpaceOnUse" y1=".30347" gradientTransform="matrix(0,24.021,24.021,0,76.258,129.85)" x2="2.3892" y2=".30347">
      <stop stop-color="#888786" offset="0"/>
      <stop stop-color="#d9dada" offset=".020448"/>
      <stop stop-color="#f6f7f7" offset=".052404"/>
      <stop stop-color="#efeff0" offset=".85182"/>
      <stop stop-color="#f6f7f7" offset=".89549"/>
      <stop stop-color="#edecee" offset=".92944"/>
      <stop stop-color="#d9dada" offset=".96426"/>
      <stop stop-color="#888786" offset="1"/>
    </linearGradient>
    <linearGradient id="d" gradientUnits="userSpaceOnUse" gradientTransform="matrix(0,-104.17,104.17,0,329.66,368.82)" x1="0" x2="1" y1="0" y2="0">
      <stop stop-color="#124874" offset="0"/>
      <stop stop-color="#1072b9" offset=".078005"/>
      <stop stop-color="#0071b9" offset=".91173"/>
      <stop stop-color="#6995c8" offset="1"/>
    </linearGradient>
    <linearGradient id="c" gradientUnits="userSpaceOnUse" gradientTransform="matrix(0 24.033 28.035 0 79.14 .53849)" x1="0" x2="1" y1="0" y2="0">
      <stop stop-color="#b5b2b2" offset="0"/>
      <stop stop-color="#e8e9e9" offset=".020448"/>
      <stop stop-color="#fafafa" offset=".052404"/>
      <stop stop-color="#f5f5f6" offset=".48766"/>
      <stop stop-color="#fafafa" offset=".89549"/>
      <stop stop-color="#f4f4f4" offset=".92944"/>
      <stop stop-color="#e8e9e9" offset=".96426"/>
      <stop stop-color="#b5b2b2" offset="1"/>
    </linearGradient>
  </defs>
  <g transform="matrix(.85756 0 0 .85756 102.21 73.836)">
    <g transform="matrix(1.1661 0 0 1.1661 -120.31 -275.86)">
      <path fill="#a1a2a2" d="m4.5686 162.73c-2.7654 0-3.6077 1.72-3.6077 3.44v18.24c-0.00004 1.72 0.8423 3.44 3.6077 3.44h151.53c2.77 0 3.61-1.72 3.61-3.44v-18.24c0-1.72-0.84-3.44-3.61-3.44zm0.1271 0.24h151.28c1.86 0 3.12 1.1 3.12 2.92v18.8c0 1.83-1.26 2.92-3.12 2.92h-151.28c-1.8695 0-3.1291-1.09-3.1291-2.92v-18.8c0-1.82 1.2596-2.92 3.1205-2.92z"/>
      <path fill="url(#e)" d="m4.3963 163.48c-1.8609 0-2.5243 1.1-2.5243 2.92v17.77c0 1.83 0.6634 2.93 2.5243 2.93h151.74c1.86 0 2.53-1.1 2.53-2.93v-17.77c0-1.82-0.67-2.92-2.53-2.92z"/>
      <path fill="#0071b9" d="m137.67 173.77v-3.33c0-0.91 0.36-1.48 2.22-1.48 0.23 0 0.43 0.01 0.66 0.05v10.94c0 0.9-0.36 1.48-2.23 1.48-0.23 0-0.43-0.02-0.65-0.05v-4.97h-5.82v3.54c0 0.9-0.36 1.48-2.23 1.48-0.22 0-0.42-0.02-0.65-0.05v-10.94c0-0.91 0.36-1.48 2.23-1.48 0.23 0 0.42 0.01 0.65 0.05v4.76h5.82m16.55 1.41c0-3.72-2.68-6.24-7.11-6.24h-3.02c-1.44 0-1.79 0.76-1.79 1.76v8.98c0 0.96 0.35 1.74 1.79 1.74h3.02c4.43 0 7.11-2.52 7.11-6.24m-9.03 3.57v-7.14h2.09c2.9 0 3.96 1.88 3.96 3.57s-1.06 3.57-3.96 3.57h-2.09"/>
      <path fill="#0071b9" d="m17.078 177.55c0 2.02-1.322 3.5-4.007 3.79-1.946 0.21-4.7637-0.03-6.1011-0.19-0.0492-0.22-0.0881-0.49-0.0881-0.7 0-1.77 0.9564-2.17 1.8531-2.17 0.9305 0 2.3971 0.16 3.4881 0.16 1.198 0 1.563-0.41 1.563-0.8 0-0.51-0.484-0.72-1.415-0.89l-2.5475-0.49c-2.1201-0.41-3.2501-1.88-3.2501-3.43 0-1.89 1.3373-3.48 3.9706-3.77 1.993-0.22 4.416 0.03 5.746 0.19 0.049 0.23 0.073 0.44 0.073 0.68 0 1.77-0.931 2.15-1.825 2.15-0.689 0-1.76-0.13-2.978-0.13-1.244 0-1.7599 0.34-1.7599 0.76 0 0.44 0.4929 0.63 1.2699 0.76l2.434 0.45c2.501 0.46 3.574 1.88 3.574 3.63m4.37 2.17c0 1.09-0.425 1.71-2.543 1.71-0.28 0-0.526-0.02-0.762-0.05v-14.39c0-1.1 0.373-2.23 2.512-2.23 0.269 0 0.541 0.02 0.793 0.08v14.88m8.656 5.57c0.278 0.14 0.848 0.31 1.566 0.33 1.228 0.03 1.899-0.44 2.397-1.54l6.599-14.72c-0.272-0.15-0.876-0.31-1.369-0.32-0.847-0.01-1.988 0.16-2.716 1.9l-2.136 5.04-4.19-6.83c-0.27-0.08-0.928-0.2-1.416-0.2-1.474 0-2.304 0.55-3.162 1.48l-4.071 4.45 3.276 5.16c0.604 0.94 1.402 1.42 2.698 1.42 0.847 0 1.555-0.19 1.881-0.35l-3.944-5.95 2.794-2.96 4.587 7.19-2.794 5.9"/>
    </g>
    <path stroke-width="1.1661" fill="#f00" d="m-2.1338-85.226z"/>
    <g transform="matrix(.99953 0 0 .99953 -106.93 -246.63)">
      <path fill="url(#d)" d="m206.63 264.65v104.16h346.06v-104.16z" transform="matrix(.26458 0 0 .26458 -14.93 91.457)"/>
      <g fill="#fff">
        <path d="m53.999 184.25c-1.197 0-2.268-0.2-3.211-0.6-0.944-0.4-1.742-0.94-2.395-1.63s-1.152-1.49-1.497-2.4c-0.344-0.91-0.517-1.89-0.517-2.93v-8.27c0-0.51 0.163-0.95 0.49-1.31 0.327-0.37 0.943-0.55 1.851-0.55 0.381 0 0.755 0.02 1.127 0.05 0.372 0.04 0.687 0.09 0.941 0.14v9.97c0 1.15 0.29 2.04 0.871 2.69 0.58 0.64 1.369 0.97 2.367 0.97 0.98 0 1.769-0.33 2.368-0.97 0.599-0.65 0.898-1.54 0.898-2.69v-8.3c0-0.51 0.163-0.95 0.49-1.31 0.326-0.37 0.943-0.55 1.85-0.55 0.381 0 0.753 0.02 1.116 0.05 0.363 0.04 0.671 0.09 0.925 0.14v9.94c0 1.04-0.187 2.02-0.556 2.93-0.375 0.91-0.886 1.71-1.539 2.4s-1.452 1.23-2.395 1.63-2.005 0.6-3.184 0.6"/>
        <path d="m66.203 183.95c-0.363 0-0.717-0.01-1.062-0.05-0.344-0.03-0.635-0.08-0.871-0.13v-16.89c0.273-0.09 0.626-0.16 1.062-0.22 0.435-0.07 0.807-0.1 1.115-0.1 0.998 0 1.724 0.13 2.178 0.37 0.453 0.25 0.834 0.61 1.143 1.09l6.177 9.47v-9.23c0-0.23 0.033-0.45 0.097-0.65 0.063-0.2 0.172-0.38 0.326-0.54 0.155-0.16 0.366-0.28 0.638-0.38 0.273-0.08 0.617-0.13 1.035-0.13 0.362 0 0.713 0.02 1.049 0.06 0.335 0.03 0.62 0.07 0.856 0.1v16.92c-0.254 0.12-0.563 0.21-0.926 0.25s-0.716 0.06-1.061 0.06c-0.853 0-1.488-0.11-1.905-0.34s-0.762-0.55-1.034-0.96l-6.613-10.28v9.83c0 0.5-0.154 0.92-0.463 1.25-0.308 0.34-0.889 0.5-1.741 0.5"/>
        <path d="m90.754 180.4c0.616 0 1.197-0.13 1.741-0.39 0.545-0.27 1.022-0.64 1.431-1.1 0.408-0.47 0.722-1.02 0.952-1.65 0.224-0.63 0.339-1.3 0.339-2.03 0-0.72-0.109-1.4-0.327-2.02-0.218-0.63-0.523-1.18-0.91-1.64-0.393-0.46-0.859-0.82-1.403-1.08-0.544-0.27-1.143-0.4-1.796-0.4-0.635 0-1.222 0.13-1.757 0.38-0.535 0.26-1.001 0.62-1.4 1.08s-0.714 1-0.937 1.63c-0.23 0.62-0.342 1.3-0.342 2.03 0 0.74 0.112 1.43 0.342 2.06 0.223 0.64 0.532 1.19 0.925 1.66 0.387 0.47 0.85 0.83 1.385 1.09 0.535 0.25 1.122 0.38 1.757 0.38m0.027 3.82c-1.361 0-2.595-0.24-3.701-0.72-1.107-0.47-2.056-1.12-2.843-1.93-0.792-0.81-1.4-1.77-1.826-2.86-0.426-1.1-0.638-2.28-0.638-3.53 0-1.24 0.212-2.4 0.638-3.49s1.034-2.03 1.826-2.83c0.787-0.81 1.736-1.44 2.843-1.9 1.106-0.46 2.34-0.69 3.701-0.69s2.594 0.23 3.701 0.69 2.056 1.09 2.842 1.9c0.792 0.8 1.4 1.74 1.827 2.83 0.423 1.09 0.638 2.25 0.638 3.49 0 1.25-0.215 2.43-0.638 3.53-0.427 1.09-1.035 2.05-1.827 2.86-0.786 0.81-1.735 1.46-2.842 1.93-1.107 0.48-2.34 0.72-3.701 0.72"/>
        <path stroke-width="4.4795" d="m109.2 183.59c-0.3 0-0.59-0.01-0.85-0.04-0.28-0.03-0.51-0.05-0.7-0.09v-5.07h-4.73c-0.04-0.17-0.07-0.38-0.11-0.61-0.04-0.24-0.05-0.51-0.05-0.82 0-0.66 0.14-1.12 0.41-1.38 0.29-0.25 0.62-0.38 1.03-0.38h3.45v-3.62c0-0.4 0.12-0.73 0.36-1 0.25-0.26 0.71-0.4 1.37-0.4 0.29 0 0.58 0.02 0.85 0.04 0.27 0.03 0.5 0.06 0.7 0.09v4.89h4.78c0.04 0.17 0.08 0.37 0.11 0.6 0.03 0.24 0.04 0.51 0.04 0.83 0 0.66-0.13 1.11-0.41 1.37s-0.62 0.39-1.02 0.39h-3.5v3.8c0 0.4-0.13 0.73-0.37 1s-0.7 0.4-1.36 0.4"/>
        <path stroke-width="4.4795" d="m123.89 183.59c-0.37 0-0.72-0.02-1.08-0.05-0.36-0.04-0.66-0.08-0.91-0.13v-12.25l-2.88 1.31c-0.13-0.18-0.28-0.37-0.44-0.57-0.16-0.22-0.3-0.47-0.42-0.78-0.12-0.32-0.18-0.63-0.18-0.94 0-0.41 0.11-0.77 0.34-1.06 0.22-0.3 0.54-0.54 0.94-0.74l3.82-1.79h3.06v15.18c0 0.5-0.15 0.93-0.47 1.28-0.31 0.36-0.91 0.54-1.78 0.54"/>
      </g>
    </g>
  </g>
  <path opacity=".4" d="m3.7737 1.2228c-1.9206 0-2.6589 0.6561-2.6589 2.6001l-0.006 16.778c0 1.046 0.07 1.749 0.2511 1.749 0.067-0.334 0.1241-1.946 2.1898-3.413 0.8233-0.54 1.8935-1.072 3.1942-1.578 1.8736-0.677 3.7501-1.252 5.3541-1.672 0.933-0.223 1.872-0.454 2.665-0.626 1.332-0.291 2.683-0.566 3.818-0.78 0.449-0.086 0.904-0.172 1.288-0.24 1.346-0.232 2.711-0.463 3.858-0.635 0.343-0.06 0.699-0.111 0.994-0.154 1.381-0.206 2.777-0.403 3.953-0.558 1.748-0.223 3.521-0.437 5.009-0.609 1.42-0.154 2.859-0.308 4.07-0.428 0.697-0.069 1.422-0.138 2.025-0.198 1.409-0.128 2.835-0.257 4.037-0.36 2.804-0.223 5.641-0.437 8.028-0.591 2.184-0.138 4.399-0.266 6.64-0.378 1.535-0.077 3.097-0.1541 4.41-0.2056 2.151-0.0943 4.329-0.1715 6.507-0.2315 1.526-0.0515 3.077-0.0858 4.382-0.1201 0.905-0.0171 1.825-0.0343 2.599-0.0428 2.731-0.0429 5.512-0.0772 7.854-0.0772h1.072c0.916 0 1.835 0 2.753 0.0086 1.391 0.0085 2.809 0.0171 4.001 0.0343 0.854 0.0085 1.723 0.0257 2.454 0.0343 1.728 0.0428 3.488 0.0771 4.974 0.12 2.451 0.0772 4.941 0.1715 7.041 0.2659 1.74 0.0771 3.51 0.1711 5.01 0.2661 1.88 0.111 3.81 0.24 5.43 0.36 1.97 0.154 3.9 0.317 5.77 0.497 4.65 0.515 9.45 1.072 13.51 1.758 0.72 0.129 1.44 0.258 2.05 0.369 1.17 0.232 2.36 0.472 3.37 0.695 1.9 0.454 3.84 0.934 5.46 1.44 1.18 0.386 2.39 0.806 3.39 1.218 1.54 0.729 3.15 1.501 4.31 2.418 1.87 1.587 2.12 3.079 2.19 3.413 0.18 0 0.25-0.703 0.25-1.749l-0.01-16.778c0-1.9441-0.73-2.6002-2.65-2.6002-0.65 0-1.3 0.3002-2.17 0.3002h-146.5c-0.8686 0-1.516-0.3002-2.1663-0.3002z" stroke-width=".92620" fill="url(#c)"/>
</svg>
