<?xml version="1.0" encoding="UTF-8" standalone="no"?>
<svg xmlns:rdf="http://www.w3.org/1999/02/22-rdf-syntax-ns#" xmlns="http://www.w3.org/2000/svg" xmlns:cc="http://creativecommons.org/ns#" xmlns:xlink="http://www.w3.org/1999/xlink" xmlns:dc="http://purl.org/dc/elements/1.1/" height="121.2" width="600" version="1.1" viewBox="0 0 158.75 32.068512">
  <defs>
    <linearGradient id="b" gradientUnits="userSpaceOnUse" gradientTransform="matrix(0 30.68 27.938 0 79.178 .68745)" x1="0" x2="1" y1="0" y2="0">
      <stop stop-color="#b5b2b2" offset="0"/>
      <stop stop-color="#e8e9e9" offset=".020448"/>
      <stop stop-color="#fafafa" offset=".052404"/>
      <stop stop-color="#f5f5f6" offset=".48766"/>
      <stop stop-color="#fafafa" offset=".89549"/>
      <stop stop-color="#f4f4f4" offset=".92944"/>
      <stop stop-color="#e8e9e9" offset=".96426"/>
      <stop stop-color="#b5b2b2" offset="1"/>
    </linearGradient>
    <linearGradient id="c" x1="1.3959" gradientUnits="userSpaceOnUse" y1=".30347" gradientTransform="matrix(0 30.666 30.666 0 135.22 -41.975)" x2="2.3892" y2=".30347">
      <stop stop-color="#888786" offset="0"/>
      <stop stop-color="#d9dada" offset=".020448"/>
      <stop stop-color="#f6f7f7" offset=".052404"/>
      <stop stop-color="#efeff0" offset=".85182"/>
      <stop stop-color="#f6f7f7" offset=".89549"/>
      <stop stop-color="#edecee" offset=".92944"/>
      <stop stop-color="#d9dada" offset=".96426"/>
      <stop stop-color="#888786" offset="1"/>
    </linearGradient>
    <linearGradient id="a" gradientUnits="userSpaceOnUse" gradientTransform="matrix(0 -30.159 26.474 0 88.177 31.113)" x1="0" x2="1" y1="0" y2="0">
      <stop stop-color="#124874" offset="0"/>
      <stop stop-color="#1072b9" offset=".078005"/>
      <stop stop-color="#0071b9" offset=".91173"/>
      <stop stop-color="#6995c8" offset="1"/>
    </linearGradient>
  </defs>
  <path d="m4.6054-0.000048444c-3.5304 0-4.6054 2.1958-4.6054 4.3916v23.285c-0.000051998 2.196 1.075 4.392 4.6054 4.392h116.03 33.5c3.54 0 4.61-2.196 4.61-4.392v-23.285c0-2.1962-1.07-4.392-4.61-4.392-11.17-0.000048444-22.34-0.000048444-33.5-0.000048444zm0.157 0.3061h115.88 33.34c2.38 0 3.99 1.4046 3.99 3.728v24.001c0 2.336-1.61 3.727-3.99 3.727h-33.34-115.87c-2.3835 0-3.9916-1.391-3.9916-3.727v-24.001c0.00004-2.3234 1.6083-3.728 3.984-3.728z" stroke-width="4.825" fill="#a1a2a2"/>
  <path d="m4.3178 0.95718c-2.3256 0-3.1548 1.4045-3.1548 3.7279v22.686c0 2.336 0.8292 3.74 3.1548 3.74h149.5v-30.154z" stroke-width="1.2766" fill="url(#c)"/>
  <path d="m56.91 0.95388v30.156h63.73v0.001h33.55c2.37 0 3.23-1.404 3.23-3.74v-22.686c0-2.3233-0.86-3.7278-3.23-3.7278-33.45-0.00416-68.442-0.00343-97.28-0.00332z" stroke-width=".27125" fill="url(#a)"/>
  <path stroke-width="1.2766" fill="#0071b9" d="m20.575 18.919c0 2.579-1.687 4.469-5.115 4.839-2.484 0.268-6.0815-0.039-7.7888-0.243-0.0628-0.281-0.1125-0.625-0.1125-0.893 0-2.26 1.221-2.771 2.3657-2.771 1.1876 0 3.0606 0.205 4.4526 0.205 1.53 0 1.996-0.524 1.996-1.022 0-0.651-0.618-0.919-1.807-1.136l-3.252-0.625c-2.7064-0.524-4.149-2.4-4.149-4.379 0-2.413 1.7072-4.4429 5.069-4.8131 2.544-0.2808 5.637 0.0383 7.335 0.2426 0.063 0.2936 0.094 0.5617 0.094 0.8681 0 2.2594-1.189 2.7444-2.33 2.7444-0.88 0-2.247-0.166-3.802-0.166-1.588 0-2.247 0.434-2.247 0.971 0 0.561 0.629 0.804 1.621 0.97l3.108 0.574c3.193 0.588 4.562 2.4 4.562 4.634m5.579 2.771c0 1.391-0.542 2.183-3.246 2.183-0.358 0-0.672-0.026-0.973-0.064v-18.371c0-1.4039 0.476-2.8465 3.207-2.8465 0.343 0 0.69 0.0255 1.012 0.1021v18.996m11.05 7.11c0.355 0.179 1.083 0.396 2 0.422 1.567 0.038 2.424-0.562 3.06-1.966l8.424-18.792c-0.347-0.1916-1.118-0.3958-1.748-0.4086-1.081-0.0128-2.537 0.2042-3.467 2.4256l-2.727 6.434-5.349-8.7192c-0.344-0.1021-1.184-0.2553-1.807-0.2553-1.882 0-2.942 0.7021-4.037 1.8894l-5.197 5.6811 4.182 6.587c0.771 1.2 1.79 1.813 3.444 1.813 1.082 0 1.985-0.243 2.402-0.447l-5.035-7.596 3.567-3.779 5.855 9.179-3.567 7.532"/>
  <path d="m128.15 0.95741z" stroke-width="1.2766" fill="#f00"/>
  <g fill="#fff">
    <g stroke-width="1.0942">
      <path d="m72.513 25.872c-1.31 0-2.482-0.219-3.514-0.657-1.033-0.437-1.906-1.028-2.621-1.783-0.714-0.755-1.26-1.631-1.638-2.626-0.376-0.996-0.565-2.069-0.565-3.207v-9.0489c0-0.5581 0.178-1.0395 0.536-1.4334 0.358-0.4049 1.032-0.6019 2.025-0.6019 0.417 0 0.826 0.0219 1.233 0.0547 0.407 0.0438 0.752 0.0985 1.03 0.1532v10.909c0 1.259 0.317 2.233 0.953 2.944 0.635 0.7 1.498 1.061 2.59 1.061 1.073 0 1.936-0.361 2.591-1.061 0.656-0.711 0.983-1.685 0.983-2.944v-9.0819c0-0.5581 0.178-1.0395 0.536-1.4334 0.357-0.4049 1.032-0.6019 2.025-0.6019 0.416 0 0.824 0.0219 1.221 0.0547 0.397 0.0438 0.734 0.0985 1.012 0.1532v10.876c0 1.138-0.205 2.211-0.609 3.207-0.41 0.995-0.969 1.871-1.684 2.626-0.714 0.755-1.588 1.346-2.62 1.783-1.032 0.438-2.194 0.657-3.484 0.657"/>
      <path d="m85.867 25.544c-0.397 0-0.785-0.011-1.162-0.055-0.377-0.033-0.695-0.088-0.953-0.142v-18.482c0.298-0.0985 0.685-0.1751 1.162-0.2408 0.476-0.0766 0.883-0.1094 1.22-0.1094 1.092 0 1.886 0.1423 2.383 0.4049 0.496 0.2735 0.913 0.6675 1.251 1.1927l6.759 10.363v-10.1c0-0.2516 0.036-0.4924 0.106-0.7112 0.069-0.2189 0.188-0.4158 0.357-0.5909s0.4-0.3064 0.698-0.4158c0.299-0.0876 0.675-0.1423 1.132-0.1423 0.396 0 0.781 0.0219 1.148 0.0657 0.362 0.0328 0.682 0.0766 0.932 0.1094v18.514c-0.27 0.132-0.61 0.23-1.008 0.274s-0.784 0.066-1.161 0.066c-0.934 0-1.629-0.121-2.085-0.372-0.456-0.252-0.834-0.602-1.131-1.051l-7.237-11.249v10.757c0 0.547-0.168 1.006-0.506 1.367-0.337 0.373-0.973 0.548-1.905 0.548"/>
      <path d="m112.73 21.659c0.68 0 1.31-0.142 1.91-0.427 0.59-0.295 1.11-0.7 1.56-1.203 0.45-0.515 0.79-1.116 1.04-1.806 0.25-0.689 0.37-1.422 0.37-2.221 0-0.788-0.11-1.532-0.35-2.21-0.24-0.69-0.58-1.292-1-1.795-0.43-0.503-0.94-0.897-1.53-1.182-0.6-0.295-1.25-0.438-1.97-0.438-0.69 0-1.34 0.143-1.92 0.416-0.59 0.285-1.1 0.679-1.53 1.182-0.44 0.503-0.78 1.094-1.03 1.784-0.25 0.678-0.37 1.422-0.37 2.221 0 0.81 0.12 1.565 0.37 2.254 0.25 0.7 0.58 1.302 1.01 1.817 0.43 0.514 0.93 0.908 1.52 1.192 0.58 0.274 1.23 0.416 1.92 0.416m0.03 4.18c-1.49 0-2.84-0.263-4.05-0.788-1.21-0.514-2.25-1.225-3.11-2.112-0.87-0.886-1.53-1.936-2-3.129-0.46-1.204-0.7-2.495-0.7-3.863 0-1.357 0.24-2.626 0.7-3.819 0.47-1.192 1.13-2.221 2-3.0964 0.86-0.8864 1.9-1.5757 3.11-2.0791 1.21-0.5033 2.56-0.755 4.05-0.755s2.84 0.2517 4.05 0.755c1.21 0.5034 2.25 1.1927 3.11 2.0791 0.87 0.8754 1.53 1.9044 2 3.0964 0.46 1.193 0.7 2.462 0.7 3.819 0 1.368-0.24 2.659-0.7 3.863-0.47 1.193-1.13 2.243-2 3.129-0.86 0.887-1.9 1.598-3.11 2.112-1.21 0.525-2.56 0.788-4.05 0.788"/>
    </g>
    <path d="m132.92 25.15c-0.33 0-0.65-0.011-0.93-0.044-0.31-0.033-0.56-0.055-0.77-0.099v-5.547h-5.18c-0.04-0.186-0.07-0.416-0.12-0.668-0.04-0.262-0.05-0.558-0.05-0.897 0-0.722 0.15-1.226 0.45-1.51 0.31-0.274 0.68-0.416 1.12-0.416h3.78v-3.961c0-0.438 0.13-0.799 0.39-1.094 0.28-0.285 0.78-0.438 1.5-0.438 0.32 0 0.64 0.022 0.93 0.044 0.3 0.033 0.55 0.065 0.77 0.098v5.351h5.23c0.04 0.186 0.09 0.405 0.12 0.657 0.03 0.262 0.04 0.558 0.04 0.908 0 0.722-0.14 1.214-0.45 1.499-0.3 0.284-0.67 0.427-1.11 0.427h-3.83v4.158c0 0.437-0.14 0.799-0.41 1.094-0.26 0.295-0.76 0.438-1.48 0.438" stroke-width="4.9016"/>
    <path d="m148.99 25.15c-0.4 0-0.79-0.022-1.18-0.055-0.4-0.044-0.72-0.088-1-0.142v-13.405l-3.15 1.434c-0.14-0.197-0.31-0.405-0.48-0.624-0.18-0.241-0.33-0.514-0.46-0.853-0.13-0.351-0.2-0.69-0.2-1.029 0-0.449 0.12-0.8426 0.38-1.1599 0.24-0.3283 0.59-0.5909 1.02-0.8098l4.18-1.9587h3.35v16.61c0 0.547-0.16 1.018-0.51 1.401-0.34 0.394-1 0.591-1.95 0.591" stroke-width="4.9016"/>
  </g>
  <path opacity=".4" d="m4.0713 1.5611c-1.9141 0-2.6498 0.8374-2.6498 3.3193l-0.006 21.419c0 1.336 0.0698 2.233 0.2502 2.233 0.0668-0.426 0.1237-2.485 2.1823-4.357 0.8204-0.689 1.887-1.368 3.1832-2.014 1.8672-0.865 3.7368-1.598 5.3358-2.135 0.93-0.284 1.865-0.58 2.656-0.799 1.328-0.372 2.673-0.722 3.805-0.996 0.447-0.11 0.901-0.219 1.283-0.307 1.342-0.295 2.702-0.591 3.844-0.81 0.343-0.076 0.697-0.142 0.991-0.197 1.377-0.263 2.768-0.514 3.94-0.711 1.742-0.285 3.508-0.559 4.992-0.778 1.414-0.197 2.849-0.394 4.055-0.547 0.695-0.088 1.418-0.175 2.019-0.252 1.404-0.164 2.825-0.328 4.022-0.46 2.795-0.284 5.622-0.558 8.002-0.755 2.176-0.175 4.383-0.339 6.616-0.482 1.53-0.098 3.087-0.197 4.396-0.262 2.143-0.121 4.313-0.219 6.483-0.296 1.522-0.066 3.067-0.11 4.368-0.153 0.902-0.022 1.818-0.044 2.59-0.055 2.721-0.055 5.493-0.099 7.827-0.099h1.068c0.913 0 1.829 0 2.744 0.011 1.386 0.011 2.799 0.022 3.987 0.044 0.851 0.011 1.717 0.033 2.446 0.044 1.721 0.055 3.476 0.098 4.956 0.153 2.443 0.099 4.923 0.219 7.013 0.34 1.74 0.098 3.51 0.219 5 0.339 1.87 0.142 3.79 0.306 5.4 0.46 1.97 0.197 3.89 0.405 5.76 0.635 4.63 0.657 9.42 1.368 13.46 2.244 0.72 0.164 1.44 0.328 2.05 0.471 1.16 0.295 2.35 0.602 3.36 0.886 1.88 0.581 3.82 1.194 5.43 1.84 1.18 0.492 2.38 1.029 3.38 1.554 1.54 0.931 3.14 1.916 4.3 3.087 1.86 2.026 2.11 3.931 2.18 4.357 0.18 0 0.25-0.897 0.25-2.233l-0.01-21.419c0-2.4815-0.73-3.3189-2.64-3.3189-0.65 0-1.3 0.3831-2.17 0.3831h-145.99c-0.8655 0-1.5107-0.3831-2.1587-0.3831z" stroke-width="1.0447" fill="url(#b)"/>
</svg>
