<?xml version="1.0" encoding="UTF-8" standalone="no"?>
<!-- Created with Inkscape (http://www.inkscape.org/) -->

<svg
   xmlns:dc="http://purl.org/dc/elements/1.1/"
   xmlns:cc="http://creativecommons.org/ns#"
   xmlns:rdf="http://www.w3.org/1999/02/22-rdf-syntax-ns#"
   xmlns:svg="http://www.w3.org/2000/svg"
   xmlns="http://www.w3.org/2000/svg"
   xmlns:sodipodi="http://sodipodi.sourceforge.net/DTD/sodipodi-0.dtd"
   xmlns:inkscape="http://www.inkscape.org/namespaces/inkscape"
   id="svg3182"
   version="1.1"
   inkscape:version="0.48.5 r10040"
   width="398.4375"
   height="239.40625"
   sodipodi:docname="slovak_sport_tv2-z.svg">
  <metadata
     id="metadata3188">
    <rdf:RDF>
      <cc:Work
         rdf:about="">
        <dc:format>image/svg+xml</dc:format>
        <dc:type
           rdf:resource="http://purl.org/dc/dcmitype/StillImage" />
        <dc:title></dc:title>
      </cc:Work>
    </rdf:RDF>
  </metadata>
  <defs
     id="defs3186" />
  <sodipodi:namedview
     pagecolor="#ffffff"
     bordercolor="#666666"
     borderopacity="1"
     objecttolerance="10"
     gridtolerance="10"
     guidetolerance="10"
     inkscape:pageopacity="0"
     inkscape:pageshadow="2"
     inkscape:window-width="1920"
     inkscape:window-height="1014"
     id="namedview3184"
     showgrid="false"
     inkscape:zoom="1.6008112"
     inkscape:cx="79.018464"
     inkscape:cy="107.74283"
     inkscape:window-x="0"
     inkscape:window-y="27"
     inkscape:window-maximized="1"
     inkscape:current-layer="svg3182"
     fit-margin-top="0"
     fit-margin-left="0"
     fit-margin-right="0"
     fit-margin-bottom="0">
    <inkscape:grid
       type="xygrid"
       id="grid3806"
       empspacing="5"
       visible="true"
       enabled="true"
       snapvisiblegridlinesonly="true"
       originx="-50.1875px"
       originy="-85.8125px" />
  </sodipodi:namedview>
  <path
     style="fill:#8fc740;fill-opacity:1;stroke:none"
     d="m 0,0 0,239.40625 398.4375,0 L 398.4375,0 0,0 z m 46.53125,40.03125 119.90625,0 0,40.3125 -79.8125,0 0,40.125 -40.09375,0 0,-40.125 0,-40.28125 0,-0.03125 z m 271,1.03125 40.03125,0 0,39.96875 -40.03125,0 0,-39.96875 z m -190.84375,78.8125 40.09375,0.21875 -0.21875,40.125 -0.21875,40.28125 0,0.0312 -119.90625,-0.65625 0.21875,-40.3125 79.8125,0.4375 0.21875,-40.125 z m 190.9375,38.15625 40.0625,0 0,40 -40.0625,0 0,-40 z"
     id="rect3192"
     inkscape:connector-curvature="0" />
</svg>
