<?xml version="1.0" encoding="UTF-8" standalone="no"?>
<svg xmlns:rdf="http://www.w3.org/1999/02/22-rdf-syntax-ns#" xmlns="http://www.w3.org/2000/svg" height="23.563mm" width="169.33mm" version="1.1" xmlns:cc="http://creativecommons.org/ns#" xmlns:dc="http://purl.org/dc/elements/1.1/" viewBox="0 0 599.99998 83.490329">
 <g transform="translate(-148.35 -554.36)" fill="#e42444">
  <path d="m373.45 626.11c0-0.01-0.01-0.01-0.01-0.02l-0.01 0.05 0.02-0.03z"/>
  <path d="m299.64 630.61 8.38-23.51 5.31-51.6h-32.37l-17.75 46.37-3-46.37h-32.4l-17.41 81.18h23.88l9.1-47.91 3.47 47.91h21.63l19.23-47.44-6.62 47.44h17.28l2.86-6.07h-1.59z"/>
  <path d="m373.44 626.09 0.02-0.1-0.03 0.08s0.01 0 0.01 0.02"/>
  <path d="m192.73 584.01c-5.23-1.81-9.01-3.11-9.01-5.67 0-2.79 3.58-3.78 6.65-3.78 6.22 0 13.61 3.85 18.11 7.58l12.25-18.38c-6.41-5.9-18.08-9.4-25.83-9.4-18.23 0-36.62 9.77-36.62 31.61 0 13.72 12.19 17.69 21.09 20.59 5.33 1.74 9.54 3.11 9.54 6.11 0 2.79-3.58 3.78-6.65 3.78-6.66 0-15.36-4.37-19.72-8.63l-14.19 19.42c8.17 6.94 17.86 10.61 28.07 10.61 18.39 0 38.17-10.2 38.17-32.57 0-13.73-12.63-18.09-21.86-21.27"/>
  <path d="m686.99 574.4 3.01-19.05h-52.54l-3.68 20.81h15.01l-9.52 60.31h25.74l9.52-60.31h11.59c0.38-0.96 0.87-1.76 0.87-1.76"/>
  <path d="m720.34 584.01c-5.23-1.81-9.01-3.11-9.01-5.67 0-2.79 3.58-3.78 6.65-3.78 6.22 0 13.61 3.85 18.11 7.58l12.26-18.38c-6.42-5.9-18.09-9.4-25.85-9.4-18.22 0-36.61 9.77-36.61 31.61 0 13.72 12.19 17.69 21.09 20.59 5.33 1.74 9.54 3.11 9.54 6.11 0 2.79-3.58 3.78-6.65 3.78-6.66 0-15.36-4.37-19.72-8.63l-14.2 19.42c8.18 6.94 17.88 10.61 28.08 10.61 18.38 0 38.18-10.2 38.18-32.57 0-13.73-12.65-18.09-21.87-21.27"/>
  <path d="m603.76 576.16h17.94 0.18 0.12-0.01l-20.27 12.45-7.54 47.86h25.74l9.59-60.31 3.32-20.89h-25.75l-3.32 20.89z"/>
  <path d="m496.47 555.27-4.71 29.31h-20.95l4.59-29.31h-25.78l-12.82 81.21h25.77l4.71-29.89h21.07l-4.83 29.89h25.77l12.95-81.21h-25.77z"/>
  <path d="m416.94 584.01c-5.23-1.81-9.02-3.11-9.02-5.67 0-2.79 3.59-3.78 6.66-3.78 6.22 0 13.61 3.85 18.11 7.58l12.26-18.38c-6.42-5.9-18.09-9.4-25.84-9.4-18.23 0-36.62 9.77-36.62 31.61 0 13.72 12.19 17.69 21.09 20.59 5.33 1.74 9.54 3.11 9.54 6.11 0 2.79-3.58 3.78-6.65 3.78-6.66 0-15.36-4.37-19.72-8.63l-12.43 17-0.87 1.29c0.12 0.24 0.88 1.56 4.94 5.3 0.06 0.06 0.13 0.12 0.19 0.18 6.75 4.11 14.25 6.26 22.05 6.26 18.38 0 38.17-10.2 38.17-32.57 0-13.73-12.64-18.09-21.86-21.27"/>
  <path d="m575.08 555.27-4.71 29.31h-20.95l4.59-29.31h-25.77l-12.83 81.21h25.77l4.71-29.89h21.07l-4.83 29.89h25.78l12.94-81.21h-25.77z"/>
  <path d="m337.8 604.82 8.93-21.16 2.35 21.16h-11.28zm35.65 21.29-0.02 0.02 0.01-0.04c0-0.01-0.01-0.02-0.01-0.02l0.04-0.08 0.33-1.39 1.89-9.96-10.45-59.08h-26.9l-31.59 63.87v-0.01l-5.52 11.19-2.86 6.07h21.14 4.95l4.76-11.4h21.98l1.18 11.4h27.2l-1.16-5.16h0.03c0.05 0.02 0.09 0.05 0.13 0.07-0.06-0.06-0.13-0.12-0.19-0.18-4.06-3.74-4.82-5.06-4.94-5.3"/>
 </g>
</svg>
