<?xml version="1.0" encoding="UTF-8" standalone="no"?>
<!-- Created with Inkscape (http://www.inkscape.org/) -->
<svg xmlns:rdf="http://www.w3.org/1999/02/22-rdf-syntax-ns#" xmlns="http://www.w3.org/2000/svg" height="667.18" width="600" version="1.1" xmlns:cc="http://creativecommons.org/ns#" xmlns:dc="http://purl.org/dc/elements/1.1/">
 <defs></defs>
 <metadata>
  <rdf:RDF>
   <cc:Work rdf:about="">
    <dc:format>image/svg+xml</dc:format>
    <dc:type rdf:resource="http://purl.org/dc/dcmitype/StillImage"/>
    <dc:title/>
   </cc:Work>
  </rdf:RDF>
 </metadata>
 <g fill-rule="nonzero" transform="translate(183.63305,978.93944)">
  <path d="m370.27-311.76-553.9,0,0-534.51,553.9,0,0,534.51z" fill="#000101"/>
  <path d="m370.27-849.94-553.9,0,0-129,553.9,0,0,129z" fill="#000101"/>
  <path d="m-170.97-833.77,529.98,0,0,389.3-529.98,0,0-389.3z" fill="#FFF"/>
  <path d="m-107.48-500.61,202.25,0,0,56.221-202.25,0,0-56.221z" fill="#21368b"/>
  <path fill="#ef4135" d="m94.282-751.17c0.20492-23.211,20.939-36.419,67.585-36.009,20.622,0.18629,42.473,5.7935,57.637,13.953,15.182,8.1593,23.938,25.782,23.677,47.168l115.85,0.2608v-107.97h-444.01c-14.977,26.21-23.304,57.097-23.621,92.659-2.1423,245.41,369.74,181.7,368.9,278.98-0.0745,6.52-1.7511,12.407-4.8621,17.66h103.59v-191.32c-109.3-54.67-265.32-52.9-264.76-115.38"/>
  <path fill="#ffc425" d="m-139.4-364.63,3.2786,1.3226c11.457,4.5454,25.26,8.2338,40.014,8.2338,6.3151,0,16.375-1.304,16.375-5.365,0-4.0797-8.4201-4.4336-14.27-5.0297l-12.872-1.1922c-25.056-2.2727-46.106-9.7987-46.106-23.901,0-21.404,38.133-33.345,76.545-33.345,20.119,0,38.599,2.4962,55.923,7.8799l-17.325,23.081c-10.991-3.8375-23.398-6.8181-37.22-6.8181-5.6072,0-13.804,1.0805-13.804,4.7876,0,3.3345,7.9544,3.8189,12.872,4.415l14.512,1.6766c27.142,3.0924,46.814,10.507,46.814,25.801,0,21.516-38.375,32.153-76.526,32.153-22.224,0-47.987-3.111-67.883-8.2525l19.672-25.447z"/>
  <path fill="#ffc425" d="m57.177-332.36-67.864,0,61.307-90.107,70.919,0,62.965,90.107-67.883,0-5.8494-11.233-48.434,0-5.1601,11.233zm42.361-32.637-7.4887-15.89c-1.8629-3.8189-3.0365-7.7681-4.2101-11.587h-2.3472l-11.699,27.477h25.745z"/>
  <path fill="#ffc425" d="m197.36-422.47,74.664,0c34.165,0,69.056,4.1914,69.056,24.981,0,7.8799-7.7495,15.648-23.174,18.163v0.72652c19.187,3.4463,31.352,10.637,31.352,21.386,0,18.517-33.699,24.851-64.604,24.851h-87.294v-90.107zm65.293,34.649c9.3702,0,19.895-0.46572,19.895-6.6877,0-6.6877-11.941-6.2033-21.293-6.2033h-4.4522v12.891h5.8494zm-5.8494,33.96,7.2652,0c10.507,0,25.726-0.1304,25.726-7.5446,0-7.526-16.375-7.3956-26.658-7.3956h-6.3337v14.94z"/>
  <path fill="#ffc216" d="m32.569-336.95,0.18629-0.27943-0.18629-0.61474,0,0.89417z"/>
  <path fill="#FFF" d="m15.388-865.87c-19.318,0-37.239-5.7935-49.217-16.542-9.0349-8.1034-13.394-19.15-13.394-30.495,0-11.196,4.5454-22.317,13.394-30.383,11.121-10.134,30.756-16.486,49.217-16.486,20.473,0,36.829,5.1601,49.347,16.505,8.9045,8.0848,13.189,19.132,13.189,30.365,0,10.898-4.5454,22.485-13.189,30.495-11.662,10.823-29.973,16.542-49.347,16.542v-12.388c10.264,0,19.765-3.5394,26.415-10.153,6.6132-6.5573,9.6683-14.623,9.6683-24.497,0-9.4447-3.3159-18.275-9.6683-24.553-6.5573-6.4455-16.3-10.078-26.415-10.078-10.134,0-19.877,3.5953-26.434,10.078-6.3337,6.2778-9.6496,15.126-9.6496,24.553,0,9.4074,3.3532,18.237,9.6496,24.497,6.5573,6.52,16.263,10.153,26.434,10.153v12.388z"/>
  <path fill="#FFF" d="m-118.44-959.72c-10.339,0-22.075,1.9188-32.041,6.371-9.2212,4.1169-16.747,10.767-16.747,21.777-0.0186,9.9104,6.2965,15.723,6.1288,15.574,2.6825,2.459,7.0044,6.669,18.293,9.1466,5.0297,1.0991,15.816,2.7943,26.546,3.9306,10.674,1.1177,21.162,2.1796,25.428,3.26,3.409,0.85692,9.0908,2.0492,9.0908,8.4388,0,6.371-5.9798,8.327-7.0416,8.7368-1.0432,0.42846-8.2525,3.7257-21.181,3.7257-9.5937,0-21.088-2.8874-25.279-4.3777-4.8434-1.7138-9.8918-3.9865-14.623-9.78-1.1736-1.4344-3.0365-5.365-3.0365-9.2584h-11.736v32.861h13.04v-4.4522c0-0.50298,0.63337-2.5708,2.8316-1.5834,2.7012,1.2295,10.711,4.415,19.057,6.1661,6.8553,1.4158,11.27,2.4404,19.784,2.4404,13.897,0,21.367-2.2541,26.527-3.7257,4.8621-1.3785,10.879-3.8934,15.76-7.7868,2.6453-2.105,8.4388-7.4887,8.4388-17.287,0-9.4075-5.0484-15.238-6.8367-17.008-2.4031-2.4217-5.365-4.2846-8.4388-5.7376-2.6639-1.2668-6.9112-2.7757-10.358-3.6326-6.7436-1.6393-21.926-3.6698-29.191-4.4336-7.6005-0.80103-20.827-1.8815-26.099-3.5208-1.6207-0.5216-4.8621-2.0491-4.8621-5.8308,0-2.7012,1.4903-4.9925,4.4336-6.8367,4.6944-2.9247,14.139-4.7689,23.994-4.7689,11.643-0.0186,21.516,2.6453,27.775,5.4396,2.1423,0.95006,4.6385,2.3286,6.6318,3.9493,2.2354,1.8256,5.3837,5.6258,6.5014,10.916h10.544v-28.632h-11.755v3.3345c0,1.0805-1.1177,2.4776-3.2041,1.3226-5.2719-2.757-20.138-8.7182-38.375-8.7368"/>
  <path fill="#FFF" d="m124.4-954.53,57.358,51.75-0.59612-34.836c-0.0559-4.5826-0.89417-6.4828-5.8494-6.4828h-10.786v-10.413h49.049v10.413h-10.525c-5.0297,0-5.365,1.6207-5.4396,6.4828l0.89417,66.579h-16.784l-66.038-58.941v41.84c0.0745,4.5268,0.27943,6.669,4.9738,6.669h11.773v10.432h-48.155v-10.432h11.27c4.1914,0,4.0238-4.0052,4.0238-6.9112v-48.844c0-3.1482-0.44709-6.8553-7.0416-6.8553h-9.128v-10.451h41.002z"/>
  <path fill="#FFF" d="m269.59-881.48c0.42846,0,2.5149-0.0745,2.9061-0.18629,1.1177-0.35394,1.9001-1.155,2.2541-2.0119,0.14903-0.33531,0.22354-1.9188,0.22354-2.2354v-16.486c0-0.37258-0.0186-0.55886-0.70789-1.453-0.72651-0.95006-30.029-34.165-31.352-35.618-1.6766-1.807-4.6013-4.6385-9.0349-4.6385h-10.208v-10.413h57.507v10.413h-6.9298c-1.5834,0-2.6639,1.5276-1.304,3.2228,0,0,19.355,23.137,19.523,23.379,0.20491,0.24218,0.35394,0.29806,0.57749,0.0745,0.2608-0.22355,19.839-23.249,20.007-23.435,0.93143-1.0991,0.29806-3.2414-1.7138-3.2414h-7.1348v-10.413h47.13v10.413h-10.525c-3.8189,0-5.3837,0.72652-8.2339,3.9679-1.3413,1.4903-30.905,35.283-31.743,36.195-0.40983,0.46572-0.37257,1.1736-0.37257,1.5462v16.468c0,0.33531,0.0745,1.9001,0.22354,2.2541,0.35395,0.83829,1.1177,1.658,2.2541,2.0119,0.3912,0.11178,2.4217,0.16766,2.8688,0.16766h10.786v10.432h-57.209v-10.432l10.208,0.0186z"/>
  <path fill="#221f20" d="m395.99-484.79c10.767,0,20.38,7.7495,20.38,19.784,0,12.09-9.6124,19.895-20.38,19.895-10.767,0-20.38-7.8054-20.38-19.895,0-12.034,9.6124-19.784,20.38-19.784m0,35.45c8.2338,0,14.959-6.5945,14.959-15.667,0-9.0163-6.7249-15.555-14.959-15.555-8.327,0-14.959,6.5386-14.959,15.555,0,9.0721,6.6318,15.667,14.959,15.667m-7.8985-26.807,8.3829,0c5.57,0,8.6996,1.7511,8.6996,6.5759,0,4.0797-2.5521,5.6817-5.8308,5.9425l5.9425,9.7241h-4.6199l-5.4209-9.5006h-2.757v9.5006h-4.3964v-22.243zm4.3964,9.2771,3.9306,0c2.4962,0,4.3405-0.35395,4.3405-3.0737,0-2.3845-2.5335-2.757-4.564-2.757h-3.7071v5.8308z"/>
 </g>
</svg>
