<?xml version="1.0" encoding="UTF-8" standalone="no"?>
<!-- Created with Inkscape (http://www.inkscape.org/) -->
<svg xmlns:rdf="http://www.w3.org/1999/02/22-rdf-syntax-ns#" xmlns="http://www.w3.org/2000/svg" height="666.88" width="600" version="1.1" xmlns:cc="http://creativecommons.org/ns#" xmlns:dc="http://purl.org/dc/elements/1.1/">
 <defs></defs>
 <metadata>
  <rdf:RDF>
   <cc:Work rdf:about="">
    <dc:format>image/svg+xml</dc:format>
    <dc:type rdf:resource="http://purl.org/dc/dcmitype/StillImage"/>
    <dc:title/>
   </cc:Work>
  </rdf:RDF>
 </metadata>
 <g fill-rule="nonzero" transform="translate(129.82772,580.82461)">
  <path d="m424.08,86.053-553.91,0,0-534.37,553.91,0,0,534.37z" fill="#13110c"/>
  <path d="m424.08-452.12-553.91,0,0-128.71,553.91,0,0,128.71z" fill="#13110c"/>
  <path d="m-117.17-435.92,529.97,0,0,388.15-529.97,0,0-388.15z" fill="#FFF"/>
  <path d="m-52.525-47.768,201.29,0,0-55.404-201.29,0,0,55.404z" fill="#e63329"/>
  <path fill="#fdc600" d="m149.33-353.58c0.1967-23.145,20.85-36.324,67.271-35.93,20.522,0.1967,42.29,5.8354,57.371,13.966,15.08,8.1303,23.801,25.702,23.538,47.011l115.27,0.26227v-107.66h-441.85c-14.884,26.161-23.211,56.912-23.473,92.383-2.1637,244.69,367.96,181.16,367.11,278.13-0.0656,6.5567-1.7703,12.392-4.8519,17.637h103.07v-190.73c-108.72-54.55-263.99-52.78-263.46-115.07"/>
  <path fill="#fdc600" d="m241.73,60.863,0-0.65567,0.91793,1.3769-0.91793,0,58.42,0,16.392-18.949c1.6392-1.967,2.5571-3.2783,3.2128-4.2618,0.26227-0.32783,0.72123-0.9835,1.6392-2.8194,0.26226,0.91793,0.78679,1.8359,1.508,2.8849,0.72123,1.0491,1.7703,2.426,3.0816,4.1963l16.588,18.949h59.338l-51.208-42.225,44.979-41.635h-58.944l-10.95,13.703c-1.0491,1.508-2.0326,2.7538-2.6882,3.8684-0.65567,1.0491-1.2458,2.0981-1.7047,3.0816-0.72124-1.5736-2.0981-3.6062-3.9996-6.1633-0.32783-0.45897-0.52453-0.65567-0.65566-0.7868l-10.622-13.703h-59.207l45.175,41.635-50.355,41.504z"/>
  <path fill="#fdc600" d="m165.52,30.007-1.0491,0-13.703,0,6.0321-12.982c3.0161-6.6222,5.1142-11.802,6.1633-15.277,0.9835-3.6717,1.7047-4.3274,2.0326-7.868h0.13113c0.45897,3.475,1.0491,4.1963,2.0981,7.868,0.9835,3.475,3.0816,8.6548,6.0321,15.277l6.0977,12.982h-13.835zm28.718-52.322-28.849,0-0.7868,0-27.21,0-50.814,82.876,0.32783,1.0491,54.748,0,4.393-10.491,18.555,0,0.7868,0,18.949,0,4.5897,10.491,54.027,0,0.91793-0.72123,0-0.65567-49.634-82.548z"/>
  <path fill="#fdc600" d="M36.613,61.584,30.384,28.341c-0.3934-2.5571-0.85237-5.1142-1.1802-7.6057-0.3934-2.5571-0.72123-5.1142-1.0491-7.6713-0.5901,2.426-1.3769,4.9831-2.4915,7.6713-1.0491,2.6882-2.426,5.5732-3.9996,8.5892l-16.588,32.259h-30.816l-16.588-32.259c-1.5736-3.0161-2.9505-5.901-3.9996-8.5892s-1.9014-5.2453-2.426-7.6713c-0.32783,2.5571-0.65567,5.1142-1.0491,7.6713-0.32783,2.4915-0.72123,5.0486-1.1802,7.6057l-6.2944,33.242h-50.814l24.653-83.86h53.437l10.294,20.785c0.32783,0.65567,5.3765,11.802,6.0977,13.113,0.7868,1.5736,2.426,6.5567,3.8684,11.409,0.7868-3.5406,2.8849-7.868,3.934-11.409,1.5736-3.9996,3.6717-8.4581,6.2288-13.507l10.816-20.39h53.371l22.424,82.286v0.85237l-0.45896,0.72123h0.45896-50.421z"/>
  <path fill="#fdc300" d="m86.378,60.863,0.1967-0.26227-0.1967-0.5901,0,0.85237z"/>
  <path fill="#FFF" d="m69.2-468.06c-19.342,0-37.242-5.7699-49.241-16.523-8.9826-8.1303-13.376-19.145-13.376-30.488,0-11.212,4.5241-22.358,13.376-30.423,11.146-10.097,30.751-16.457,49.241-16.457,20.457,0,36.848,5.1142,49.372,16.523,8.8515,8.0647,13.179,19.08,13.179,30.357,0,10.884-4.5897,22.424-13.179,30.488-11.671,10.818-29.964,16.523-49.372,16.523v-12.392c10.228,0,19.801-3.5406,26.423-10.163,6.6222-6.5567,9.6383-14.621,9.6383-24.456,0-9.4416-3.2783-18.293-9.6383-24.587-6.5567-6.4255-16.326-10.097-26.423-10.097-10.163,0-19.867,3.6062-26.423,10.097-6.36,6.2944-9.6383,15.146-9.6383,24.587,0,9.376,3.3439,18.228,9.6383,24.456,6.5567,6.5567,16.261,10.163,26.423,10.163v12.392z"/>
  <path fill="#FFF" d="m-64.635-561.91c-10.36,0-22.096,1.9014-32.062,6.36-9.1793,4.1307-16.719,10.753-16.719,21.768,0,9.9661,6.2944,15.736,6.0977,15.605,2.6882,2.426,7.0156,6.6878,18.293,9.1138,5.0486,1.1146,15.867,2.8194,26.554,3.934s21.178,2.2293,25.44,3.2783c3.4095,0.85237,9.1138,2.0326,9.1138,8.4581,0,6.36-6.0321,8.327-7.0812,8.7204s-8.2614,3.7373-21.178,3.7373c-9.5727,0-21.047-2.8849-25.243-4.393-4.8519-1.7047-9.9006-3.9996-14.621-9.7694-1.1802-1.4425-3.0816-5.3765-3.0816-9.2449h-11.736v32.849h13.048v-4.4585c0-0.52453,0.65567-2.5571,2.8849-1.5736,2.6882,1.2458,10.687,4.393,19.014,6.1633,6.8845,1.3769,11.277,2.426,19.801,2.426,13.9,0,21.375-2.2293,26.489-3.7373,4.9175-1.3769,10.884-3.8684,15.802-7.8024,2.6227-2.0981,8.3925-7.4746,8.3925-17.244,0-9.4416-5.0486-15.211-6.8189-17.047-2.3604-2.3604-5.3109-4.2618-8.3925-5.7043-2.6882-1.2458-6.9501-2.8194-10.36-3.6062-6.7534-1.7047-21.965-3.7373-29.243-4.4585-7.6057-0.7868-20.785-1.9014-26.096-3.5406-1.5736-0.52454-4.8519-2.0326-4.8519-5.8354,0-2.6882,1.508-4.9831,4.4585-6.8189,4.6552-2.9505,14.097-4.7864,23.997-4.7864,11.605,0,21.506,2.6882,27.735,5.442,2.1637,0.9835,4.6552,2.3604,6.6222,3.934,2.2948,1.8359,5.3765,5.6387,6.5567,10.95h10.491v-28.653h-11.736v3.3439c0,1.1146-1.1146,2.4915-3.2128,1.3113-5.2453-2.7538-20.129-8.7204-38.356-8.7204"/>
  <path fill="#FFF" d="m178.22-556.72,57.371,51.732-0.5901-34.816c-0.0656-4.5897-0.91793-6.4911-5.901-6.4911h-10.753v-10.425h49.044v10.425h-10.556c-4.9831,0-5.3109,1.6392-5.3765,6.4911l0.85236,66.55h-16.785l-66.026-58.944v41.831c0.0656,4.5897,0.26227,6.6878,4.9831,6.6878h11.736v10.425h-48.126v-10.425h11.277c4.1963,0,3.9996-3.9996,3.9996-6.8845v-48.847c0-3.1472-0.45897-6.8845-7.0156-6.8845h-9.1138v-10.425h40.979z"/>
  <path fill="#FFF" d="m323.41-483.67c0.45897,0,2.4915-0.0656,2.8849-0.1967,1.1146-0.32783,1.9014-1.1802,2.2948-1.967,0.13114-0.3934,0.1967-1.967,0.1967-2.2948v-16.457c0-0.3934,0-0.5901-0.72123-1.4425-0.72123-0.9835-30.03-34.16-31.341-35.603-1.6392-1.8359-4.5897-4.6552-9.0482-4.6552h-10.163v-10.425h57.502v10.425h-6.9501c-1.5736,0-2.6882,1.508-1.3113,3.2128,0,0,19.342,23.145,19.539,23.342,0.19669,0.26226,0.32783,0.32783,0.59009,0.13113,0.26227-0.26227,19.801-23.276,19.998-23.473,0.91793-1.1146,0.32783-3.2128-1.7047-3.2128h-7.1468v-10.425h47.142v10.425h-10.556c-3.8029,0-5.3765,0.72123-8.1958,3.934-1.3769,1.508-30.947,35.275-31.734,36.193-0.45897,0.52454-0.3934,1.1802-0.3934,1.5736v16.457c0,0.32783,0.0656,1.9014,0.1967,2.2948,0.3934,0.7868,1.1146,1.6392,2.2948,1.967,0.3934,0.13113,2.426,0.1967,2.8194,0.1967h10.818v10.425h-57.24v-10.425h10.228z"/>
  <path fill="#2b2523" d="m446.31-69.045,3.934,0c2.4915,0,4.3274-0.3934,4.3274-3.0816,0-2.3604-2.5571-2.7538-4.5241-2.7538h-3.7373v5.8354zm-4.393-9.3105,8.3925,0c5.5732,0,8.6548,1.7703,8.6548,6.6222,0,4.0651-2.4915,5.6387-5.8354,5.901l5.9666,9.7039h-4.5897l-5.442-9.4416h-2.7538v9.4416h-4.393v-22.227zm7.868,26.817c8.2614,0,15.015-6.5567,15.015-15.67,0-8.9826-6.7534-15.539-15.015-15.539-8.327,0-14.949,6.5567-14.949,15.539,0,9.1138,6.6222,15.67,14.949,15.67m0-35.406c10.818,0,20.391,7.7369,20.391,19.736,0,12.13-9.5727,19.932-20.391,19.932-10.753,0-20.326-7.8024-20.326-19.932,0-11.999,9.5727-19.736,20.326-19.736"/>
 </g>
</svg>
