<?xml version="1.0" encoding="UTF-8" standalone="no"?>
<!-- Created with Inkscape (http://www.inkscape.org/) -->

<svg
   xmlns:dc="http://purl.org/dc/elements/1.1/"
   xmlns:cc="http://creativecommons.org/ns#"
   xmlns:rdf="http://www.w3.org/1999/02/22-rdf-syntax-ns#"
   xmlns:svg="http://www.w3.org/2000/svg"
   xmlns="http://www.w3.org/2000/svg"
   version="1.1"
   width="600.6629"
   height="175.21001"
   id="svg208925">
  <defs
     id="defs208927" />
  <metadata
     id="metadata208930">
    <rdf:RDF>
      <cc:Work
         rdf:about="">
        <dc:format>image/svg+xml</dc:format>
        <dc:type
           rdf:resource="http://purl.org/dc/dcmitype/StillImage" />
        <dc:title></dc:title>
      </cc:Work>
    </rdf:RDF>
  </metadata>
  <g
     transform="translate(-49.618625,-444.90625)"
     id="layer1">
    <g
       id="g209238">
      <g
         transform="matrix(11.410715,0,0,-11.410715,50.331795,585.52753)"
         id="g3279">
        <path
           d="m 0,0 0,0.016 c 0,1.649 1.284,2.999 3.04,2.999 1.044,0 1.674,-0.282 2.278,-0.795 L 4.515,1.251 C 4.067,1.623 3.67,1.839 2.999,1.839 2.071,1.839 1.334,1.019 1.334,0.033 l 0,-0.017 c 0,-1.06 0.729,-1.839 1.756,-1.839 0.464,0 0.878,0.117 1.201,0.348 l 0,0.829 -1.284,0 0,1.101 2.519,0 0,-2.518 C 4.929,-2.568 4.109,-2.982 3.048,-2.982 1.243,-2.982 0,-1.715 0,0"
           id="path3281"
           style="fill:#191918;fill-opacity:1;fill-rule:nonzero;stroke:none" />
      </g>
      <g
         transform="matrix(11.410715,0,0,-11.410715,50.331795,585.52753)"
         id="g3283">
        <path
           d="m 0,0 0,0.016 c 0,1.649 1.284,2.999 3.04,2.999 1.044,0 1.674,-0.282 2.278,-0.795 L 4.515,1.251 C 4.067,1.623 3.67,1.839 2.999,1.839 2.071,1.839 1.334,1.019 1.334,0.033 l 0,-0.017 c 0,-1.06 0.729,-1.839 1.756,-1.839 0.464,0 0.878,0.117 1.201,0.348 l 0,0.829 -1.284,0 0,1.101 2.519,0 0,-2.518 C 4.929,-2.568 4.109,-2.982 3.048,-2.982 1.243,-2.982 0,-1.715 0,0 z"
           id="path3285"
           style="fill:none;stroke:#191918;stroke-width:0.046;stroke-linecap:butt;stroke-linejoin:miter;stroke-miterlimit:4;stroke-opacity:1;stroke-dasharray:none" />
      </g>
      <g
         transform="matrix(11.410715,0,0,-11.410715,122.76706,552.25395)"
         id="g3287">
        <path
           d="m 0,0 4.374,0 0,-1.135 -3.107,0 0,-1.176 2.734,0 0,-1.135 -2.734,0 0,-1.218 3.148,0 0,-1.135 L 0,-5.799 0,0"
           id="path3289"
           style="fill:#191918;fill-opacity:1;fill-rule:nonzero;stroke:none" />
      </g>
      <g
         transform="matrix(11.410715,0,0,-11.410715,122.76706,552.25395)"
         id="g3291">
        <path
           d="m 0,0 4.374,0 0,-1.135 -3.107,0 0,-1.176 2.734,0 0,-1.135 -2.734,0 0,-1.218 3.148,0 0,-1.135 L 0,-5.799 0,0 z"
           id="path3293"
           style="fill:none;stroke:#191918;stroke-width:0.046;stroke-linecap:butt;stroke-linejoin:miter;stroke-miterlimit:4;stroke-opacity:1;stroke-dasharray:none" />
      </g>
      <g
         transform="matrix(11.410715,0,0,-11.410715,179.45552,608.78256)"
         id="g3295">
        <path
           d="m 0,0 0.754,0.903 c 0.522,-0.43 1.068,-0.704 1.731,-0.704 0.522,0 0.837,0.207 0.837,0.547 l 0,0.016 C 3.322,1.086 3.123,1.251 2.154,1.5 0.986,1.798 0.232,2.121 0.232,3.272 l 0,0.017 c 0,1.052 0.845,1.748 2.03,1.748 0.845,0 1.565,-0.266 2.153,-0.738 L 3.753,3.339 C 3.239,3.695 2.734,3.91 2.245,3.91 1.756,3.91 1.499,3.686 1.499,3.405 l 0,-0.017 C 1.499,3.007 1.748,2.883 2.75,2.626 3.927,2.32 4.589,1.897 4.589,0.887 l 0,-0.017 C 4.589,-0.281 3.711,-0.928 2.46,-0.928 1.582,-0.928 0.696,-0.621 0,0"
           id="path3297"
           style="fill:#191918;fill-opacity:1;fill-rule:nonzero;stroke:none" />
      </g>
      <g
         transform="matrix(11.410715,0,0,-11.410715,179.45552,608.78256)"
         id="g3299">
        <path
           d="m 0,0 0.754,0.903 c 0.522,-0.43 1.068,-0.704 1.731,-0.704 0.522,0 0.837,0.207 0.837,0.547 l 0,0.016 C 3.322,1.086 3.123,1.251 2.154,1.5 0.986,1.798 0.232,2.121 0.232,3.272 l 0,0.017 c 0,1.052 0.845,1.748 2.03,1.748 0.845,0 1.565,-0.266 2.153,-0.738 L 3.753,3.339 C 3.239,3.695 2.734,3.91 2.245,3.91 1.756,3.91 1.499,3.686 1.499,3.405 l 0,-0.017 C 1.499,3.007 1.748,2.883 2.75,2.626 3.927,2.32 4.589,1.897 4.589,0.887 l 0,-0.017 C 4.589,-0.281 3.711,-0.928 2.46,-0.928 1.582,-0.928 0.696,-0.621 0,0 z"
           id="path3301"
           style="fill:none;stroke:#191918;stroke-width:0.046;stroke-linecap:butt;stroke-linejoin:miter;stroke-miterlimit:4;stroke-opacity:1;stroke-dasharray:none" />
      </g>
      <path
         d="m 377.65962,618.42462 14.5601,0 0,-66.1661 -14.5601,0 0,66.1661 z"
         id="path3303"
         style="fill:#191918;fill-opacity:1;fill-rule:nonzero;stroke:none" />
      <path
         d="m 377.65962,552.2539 14.5601,0 0,66.16615 -14.5601,0 0,-66.16615 z"
         id="path3305"
         style="fill:none;stroke:#191918;stroke-width:0.52489293;stroke-linecap:butt;stroke-linejoin:miter;stroke-miterlimit:4;stroke-opacity:1;stroke-dasharray:none" />
      <g
         transform="matrix(11.410715,0,0,-11.410715,401.51947,585.52753)"
         id="g3307">
        <path
           d="M 0,0 0,0.016 C 0,1.665 1.243,3.015 3.024,3.015 4.117,3.015 4.772,2.65 5.31,2.12 L 4.498,1.185 C 4.051,1.59 3.595,1.839 3.015,1.839 2.038,1.839 1.334,1.027 1.334,0.033 l 0,-0.017 c 0,-0.994 0.687,-1.822 1.681,-1.822 0.663,0 1.069,0.265 1.525,0.679 l 0.811,-0.82 C 4.755,-2.585 4.092,-2.982 2.974,-2.982 1.268,-2.982 0,-1.665 0,0"
           id="path3309"
           style="fill:#191918;fill-opacity:1;fill-rule:nonzero;stroke:none" />
      </g>
      <g
         transform="matrix(11.410715,0,0,-11.410715,401.51947,585.52753)"
         id="g3311">
        <path
           d="M 0,0 0,0.016 C 0,1.665 1.243,3.015 3.024,3.015 4.117,3.015 4.772,2.65 5.31,2.12 L 4.498,1.185 C 4.051,1.59 3.595,1.839 3.015,1.839 2.038,1.839 1.334,1.027 1.334,0.033 l 0,-0.017 c 0,-0.994 0.687,-1.822 1.681,-1.822 0.663,0 1.069,0.265 1.525,0.679 l 0.811,-0.82 C 4.755,-2.585 4.092,-2.982 2.974,-2.982 1.268,-2.982 0,-1.665 0,0 z"
           id="path3313"
           style="fill:none;stroke:#191918;stroke-width:0.046;stroke-linecap:butt;stroke-linejoin:miter;stroke-miterlimit:4;stroke-opacity:1;stroke-dasharray:none" />
      </g>
      <g
         transform="matrix(11.410715,0,0,-11.410715,471.86645,552.25395)"
         id="g3315">
        <path
           d="m 0,0 1.276,0 0,-2.294 2.352,0 0,2.294 1.276,0 0,-5.799 -1.276,0 0,2.328 -2.352,0 0,-2.328 L 0,-5.799 0,0"
           id="path3317"
           style="fill:#191918;fill-opacity:1;fill-rule:nonzero;stroke:none" />
      </g>
      <g
         transform="matrix(11.410715,0,0,-11.410715,471.86645,552.25395)"
         id="g3319">
        <path
           d="m 0,0 1.276,0 0,-2.294 2.352,0 0,2.294 1.276,0 0,-5.799 -1.276,0 0,2.328 -2.352,0 0,-2.328 L 0,-5.799 0,0 z"
           id="path3321"
           style="fill:none;stroke:#191918;stroke-width:0.046;stroke-linecap:butt;stroke-linejoin:miter;stroke-miterlimit:4;stroke-opacity:1;stroke-dasharray:none" />
      </g>
      <g
         transform="matrix(11.410715,0,0,-11.410715,237.92404,585.52753)"
         id="g3323">
        <path
           d="M 0,0 0,0.016 C 0,1.665 1.243,3.015 3.024,3.015 4.117,3.015 4.772,2.65 5.31,2.12 L 4.498,1.185 C 4.051,1.59 3.595,1.839 3.016,1.839 2.038,1.839 1.334,1.027 1.334,0.033 l 0,-0.017 c 0,-0.994 0.687,-1.822 1.682,-1.822 0.662,0 1.068,0.265 1.524,0.679 l 0.812,-0.82 C 4.755,-2.585 4.092,-2.982 2.974,-2.982 1.268,-2.982 0,-1.665 0,0"
           id="path3325"
           style="fill:#191918;fill-opacity:1;fill-rule:nonzero;stroke:none" />
      </g>
      <g
         transform="matrix(11.410715,0,0,-11.410715,237.92404,585.52753)"
         id="g3327">
        <path
           d="M 0,0 0,0.016 C 0,1.665 1.243,3.015 3.024,3.015 4.117,3.015 4.772,2.65 5.31,2.12 L 4.498,1.185 C 4.051,1.59 3.595,1.839 3.016,1.839 2.038,1.839 1.334,1.027 1.334,0.033 l 0,-0.017 c 0,-0.994 0.687,-1.822 1.682,-1.822 0.662,0 1.068,0.265 1.524,0.679 l 0.812,-0.82 C 4.755,-2.585 4.092,-2.982 2.974,-2.982 1.268,-2.982 0,-1.665 0,0 z"
           id="path3329"
           style="fill:none;stroke:#191918;stroke-width:0.046;stroke-linecap:butt;stroke-linejoin:miter;stroke-miterlimit:4;stroke-opacity:1;stroke-dasharray:none" />
      </g>
      <g
         transform="matrix(11.410715,0,0,-11.410715,306.70782,552.25395)"
         id="g3331">
        <path
           d="m 0,0 1.275,0 0,-2.294 2.353,0 0,2.294 1.276,0 0,-5.799 -1.276,0 0,2.328 -2.353,0 0,-2.328 L 0,-5.799 0,0"
           id="path3333"
           style="fill:#191918;fill-opacity:1;fill-rule:nonzero;stroke:none" />
      </g>
      <g
         transform="matrix(11.410715,0,0,-11.410715,306.70782,552.25395)"
         id="g3335">
        <path
           d="m 0,0 1.275,0 0,-2.294 2.353,0 0,2.294 1.276,0 0,-5.799 -1.276,0 0,2.328 -2.353,0 0,-2.328 L 0,-5.799 0,0 z"
           id="path3337"
           style="fill:none;stroke:#191918;stroke-width:0.046;stroke-linecap:butt;stroke-linejoin:miter;stroke-miterlimit:4;stroke-opacity:1;stroke-dasharray:none" />
      </g>
      <g
         transform="matrix(11.410715,0,0,-11.410715,556.56824,565.67289)"
         id="g3339">
        <path
           d="m 0,0 -1.765,0 0,1.176 4.805,0 0,-1.176 -1.764,0 0,-4.622 L 0,-4.622 0,0"
           id="path3341"
           style="fill:#191918;fill-opacity:1;fill-rule:nonzero;stroke:none" />
      </g>
      <g
         transform="matrix(11.410715,0,0,-11.410715,556.56824,565.67289)"
         id="g3343">
        <path
           d="m 0,0 -1.765,0 0,1.176 4.805,0 0,-1.176 -1.764,0 0,-4.622 L 0,-4.622 0,0 z"
           id="path3345"
           style="fill:none;stroke:#191918;stroke-width:0.046;stroke-linecap:butt;stroke-linejoin:miter;stroke-miterlimit:4;stroke-opacity:1;stroke-dasharray:none" />
      </g>
      <g
         transform="matrix(11.410715,0,0,-11.410715,599.2899,552.25395)"
         id="g3347">
        <path
           d="m 0,0 4.374,0 0,-1.135 -3.106,0 0,-1.176 2.733,0 0,-1.135 -2.733,0 0,-1.218 3.147,0 0,-1.135 L 0,-5.799 0,0"
           id="path3349"
           style="fill:#191918;fill-opacity:1;fill-rule:nonzero;stroke:none" />
      </g>
      <g
         transform="matrix(11.410715,0,0,-11.410715,599.2899,552.25395)"
         id="g3351">
        <path
           d="m 0,0 4.374,0 0,-1.135 -3.106,0 0,-1.176 2.733,0 0,-1.135 -2.733,0 0,-1.218 3.147,0 0,-1.135 L 0,-5.799 0,0 z"
           id="path3353"
           style="fill:none;stroke:#191918;stroke-width:0.046;stroke-linecap:butt;stroke-linejoin:miter;stroke-miterlimit:4;stroke-opacity:1;stroke-dasharray:none" />
      </g>
      <path
         d="m 53.70941,533.80277 302.74906,0 0,-88.63268 -302.74906,0 0,88.63268 z"
         id="path3355"
         style="fill:#e8390c;fill-opacity:1;fill-rule:nonzero;stroke:none" />
      <path
         d="m 356.45847,533.80277 -302.74906,0 0,-88.63268 302.74906,0 0,88.63268 z"
         id="path3357"
         style="fill:none;stroke:#e93a0c;stroke-width:0.52489293;stroke-linecap:butt;stroke-linejoin:miter;stroke-miterlimit:4;stroke-opacity:1;stroke-dasharray:none" />
      <g
         transform="matrix(11.410715,0,0,-11.410715,126.9662,509.58926)"
         id="g3359">
        <path
           d="m 0,0 0.351,0 0,-0.78 0.56,0 0,0.78 -0.351,0 0,1.304 L 0,1.304 0,0"
           id="path3361"
           style="fill:#191918;fill-opacity:1;fill-rule:nonzero;stroke:none" />
      </g>
      <g
         transform="matrix(11.410715,0,0,-11.410715,126.9662,509.58926)"
         id="g3363">
        <path
           d="m 0,0 0.351,0 0,-0.78 0.56,0 0,0.78 -0.351,0 0,1.304 L 0,1.304 0,0 z"
           id="path3365"
           style="fill:none;stroke:#19130e;stroke-width:0.046;stroke-linecap:butt;stroke-linejoin:miter;stroke-miterlimit:4;stroke-opacity:1;stroke-dasharray:none" />
      </g>
      <path
         d="m 206.70429,494.70968 6.391,0 0,-9.04552 -6.391,0 0,9.04552 z"
         id="path3367"
         style="fill:#191918;fill-opacity:1;fill-rule:nonzero;stroke:none" />
      <path
         d="m 213.09429,485.67239 -6.391,0 0,9.04551 6.391,0 0,-9.04551 z"
         id="path3369"
         style="fill:none;stroke:#19130e;stroke-width:0.52489293;stroke-linecap:butt;stroke-linejoin:miter;stroke-miterlimit:4;stroke-opacity:1;stroke-dasharray:none" />
      <g
         transform="matrix(11.410715,0,0,-11.410715,107.76193,469.91422)"
         id="g3371">
        <path
           d="m 0,0 0,-0.952 0.56,0 0,0.658 -0.187,0 0,0.678 C 0.285,0.455 0.172,0.499 0.048,0.499 l -0.559,0 C -0.23,0.499 0,0.281 0,0"
           id="path3373"
           style="fill:#191918;fill-opacity:1;fill-rule:nonzero;stroke:none" />
      </g>
      <g
         transform="matrix(11.410715,0,0,-11.410715,107.76193,469.91422)"
         id="g3375">
        <path
           d="m 0,0 0,-0.952 0.56,0 0,0.658 -0.187,0 0,0.678 C 0.285,0.455 0.172,0.499 0.048,0.499 l -0.559,0 C -0.23,0.499 0,0.281 0,0 z"
           id="path3377"
           style="fill:none;stroke:#19130e;stroke-width:0.046;stroke-linecap:butt;stroke-linejoin:miter;stroke-miterlimit:4;stroke-opacity:1;stroke-dasharray:none" />
      </g>
      <path
         d="m 85.294289,509.58926 6.387816,0 0,-10.21015 -6.387816,0 0,10.21015 z"
         id="path3379"
         style="fill:#191918;fill-opacity:1;fill-rule:nonzero;stroke:none" />
      <g
         transform="matrix(11.410715,0,0,-11.410715,91.684334,509.58926)"
         id="g3381">
        <path
           d="m -0.56,0 0.55981,0 0,0.89478 -0.55981,0 L -0.56,0 z"
           id="path3383"
           style="fill:none;stroke:#19130e;stroke-width:0.046;stroke-linecap:butt;stroke-linejoin:miter;stroke-miterlimit:4;stroke-opacity:1;stroke-dasharray:none" />
        <g
           id="g3385">
          <path
             d="M 0,0 z"
             id="path3387"
             style="fill:none;stroke:#19130e;stroke-width:0.046;stroke-linecap:butt;stroke-linejoin:miter;stroke-miterlimit:4;stroke-opacity:1;stroke-dasharray:none" />
        </g>
      </g>
      <path
         d="m 85.294289,485.67239 6.387816,0 0,-12.40116 -6.387816,0 0,12.40116 z"
         id="path3389"
         style="fill:#191918;fill-opacity:1;fill-rule:nonzero;stroke:none" />
      <g
         transform="matrix(11.410715,0,0,-11.410715,85.294289,473.26895)"
         id="g3391">
        <path
           d="m 0.56,0 -0.55981,0 0,-1.0868 0.55981,0 0,1.0868 z"
           id="path3393"
           style="fill:none;stroke:#19130e;stroke-width:0.046;stroke-linecap:butt;stroke-linejoin:miter;stroke-miterlimit:4;stroke-opacity:1;stroke-dasharray:none" />
        <g
           id="g3395">
          <path
             d="M 0,0 z"
             id="path3397"
             style="fill:none;stroke:#19130e;stroke-width:0.046;stroke-linecap:butt;stroke-linejoin:miter;stroke-miterlimit:4;stroke-opacity:1;stroke-dasharray:none" />
        </g>
      </g>
      <g
         transform="matrix(11.410715,0,0,-11.410715,114.14056,509.58926)"
         id="g3399">
        <path
           d="m 0,0 0,2.096 -0.56,0 0,-2.377 c 0,-0.275 -0.224,-0.499 -0.505,-0.499 l 0.56,0 c 0.125,0 0.237,0.046 0.325,0.119 L -0.18,0 0,0"
           id="path3401"
           style="fill:#191918;fill-opacity:1;fill-rule:nonzero;stroke:none" />
      </g>
      <g
         transform="matrix(11.410715,0,0,-11.410715,114.14056,509.58926)"
         id="g3403">
        <path
           d="m 0,0 0,2.096 -0.56,0 0,-2.377 c 0,-0.275 -0.224,-0.499 -0.505,-0.499 l 0.56,0 c 0.125,0 0.237,0.046 0.325,0.119 L -0.18,0 0,0 z"
           id="path3405"
           style="fill:none;stroke:#19130e;stroke-width:0.046;stroke-linecap:butt;stroke-linejoin:miter;stroke-miterlimit:4;stroke-opacity:1;stroke-dasharray:none" />
      </g>
      <g
         transform="matrix(11.410715,0,0,-11.410715,153.50754,465.20156)"
         id="g3407">
        <path
           d="m 0,0 c -0.081,0.054 -0.178,0.086 -0.284,0.086 l -0.559,0 c 0.281,0 0.504,-0.224 0.504,-0.505 l 0,-1.649 c 0,-0.281 -0.223,-0.518 -0.504,-0.518 l 0.559,0 c 0.282,0 0.505,0.237 0.505,0.518 l 0,1.362 L 0,-0.706 0,0"
           id="path3409"
           style="fill:#191918;fill-opacity:1;fill-rule:nonzero;stroke:none" />
      </g>
      <g
         transform="matrix(11.410715,0,0,-11.410715,153.50754,465.20156)"
         id="g3411">
        <path
           d="m 0,0 c -0.081,0.054 -0.178,0.086 -0.284,0.086 l -0.559,0 c 0.281,0 0.504,-0.224 0.504,-0.505 l 0,-1.649 c 0,-0.281 -0.223,-0.518 -0.504,-0.518 l 0.559,0 c 0.282,0 0.505,0.237 0.505,0.518 l 0,1.362 L 0,-0.706 0,0 z"
           id="path3413"
           style="fill:none;stroke:#19130e;stroke-width:0.046;stroke-linecap:butt;stroke-linejoin:miter;stroke-miterlimit:4;stroke-opacity:1;stroke-dasharray:none" />
      </g>
      <path
         d="m 126.9662,485.67239 6.38681,0 0,-12.40116 -6.38681,0 0,12.40116 z"
         id="path3415"
         style="fill:#191918;fill-opacity:1;fill-rule:nonzero;stroke:none" />
      <g
         transform="matrix(11.410715,0,0,-11.410715,126.9662,473.26895)"
         id="g3417">
        <path
           d="m 0.56,0 -0.55972,0 0,-1.0868 0.55972,0 0,1.0868 z"
           id="path3419"
           style="fill:none;stroke:#19130e;stroke-width:0.046;stroke-linecap:butt;stroke-linejoin:miter;stroke-miterlimit:4;stroke-opacity:1;stroke-dasharray:none" />
        <g
           id="g3421">
          <path
             d="M 0,0 z"
             id="path3423"
             style="fill:none;stroke:#19130e;stroke-width:0.046;stroke-linecap:butt;stroke-linejoin:miter;stroke-miterlimit:4;stroke-opacity:1;stroke-dasharray:none" />
        </g>
      </g>
      <g
         transform="matrix(11.410715,0,0,-11.410715,174.48046,509.58926)"
         id="g3425">
        <path
           d="m 0,0 0,3.183 0.127,0 0,0.792 -0.335,0 0,-0.792 -0.352,0 0,-3.183 0.352,0 0,-0.78 0.335,0 0,0.78 L 0,0"
           id="path3427"
           style="fill:#191918;fill-opacity:1;fill-rule:nonzero;stroke:none" />
      </g>
      <g
         transform="matrix(11.410715,0,0,-11.410715,174.48046,509.58926)"
         id="g3429">
        <path
           d="m 0,0 0,3.183 0.127,0 0,0.792 -0.335,0 0,-0.792 -0.352,0 0,-3.183 0.352,0 0,-0.78 0.335,0 0,0.78 L 0,0 z"
           id="path3431"
           style="fill:none;stroke:#19130e;stroke-width:0.046;stroke-linecap:butt;stroke-linejoin:miter;stroke-miterlimit:4;stroke-opacity:1;stroke-dasharray:none" />
      </g>
      <g
         transform="matrix(11.410715,0,0,-11.410715,217.44175,480.77722)"
         id="g3433">
        <path
           d="m 0,0 0,0.94 c 0,0.153 0.069,0.291 0.176,0.384 l 0,0.127 -0.56,0 L -0.384,0 0,0"
           id="path3435"
           style="fill:#191918;fill-opacity:1;fill-rule:nonzero;stroke:none" />
      </g>
      <g
         transform="matrix(11.410715,0,0,-11.410715,217.44175,480.77722)"
         id="g3437">
        <path
           d="m 0,0 0,0.94 c 0,0.153 0.069,0.291 0.176,0.384 l 0,0.127 -0.56,0 L -0.384,0 0,0 z"
           id="path3439"
           style="fill:none;stroke:#19130e;stroke-width:0.046;stroke-linecap:butt;stroke-linejoin:miter;stroke-miterlimit:4;stroke-opacity:1;stroke-dasharray:none" />
      </g>
      <path
         d="m 190.30706,485.67239 6.38686,0 0,-12.40116 -6.38686,0 0,12.40116 z"
         id="path3441"
         style="fill:#191918;fill-opacity:1;fill-rule:nonzero;stroke:none" />
      <g
         transform="matrix(11.410715,0,0,-11.410715,190.30706,473.26895)"
         id="g3443">
        <path
           d="m 0.56,0 -0.55972,0 0,-1.0868 0.55972,0 0,1.0868 z"
           id="path3445"
           style="fill:none;stroke:#19130e;stroke-width:0.046;stroke-linecap:butt;stroke-linejoin:miter;stroke-miterlimit:4;stroke-opacity:1;stroke-dasharray:none" />
        <g
           id="g3447">
          <path
             d="M 0,0 z"
             id="path3449"
             style="fill:none;stroke:#19130e;stroke-width:0.046;stroke-linecap:butt;stroke-linejoin:miter;stroke-miterlimit:4;stroke-opacity:1;stroke-dasharray:none" />
        </g>
      </g>
      <path
         d="m 190.30706,509.58926 6.38686,0 0,-14.87613 -6.38686,0 0,14.87613 z"
         id="path3451"
         style="fill:#191918;fill-opacity:1;fill-rule:nonzero;stroke:none" />
      <g
         transform="matrix(11.410715,0,0,-11.410715,190.30706,494.70968)"
         id="g3453">
        <path
           d="m 0.56,0 -0.55972,0 0,-1.3037 0.55972,0 0,1.3037 z"
           id="path3455"
           style="fill:none;stroke:#19130e;stroke-width:0.046;stroke-linecap:butt;stroke-linejoin:miter;stroke-miterlimit:4;stroke-opacity:1;stroke-dasharray:none" />
        <g
           id="g3457">
          <path
             d="M 0,0 z"
             id="path3459"
             style="fill:none;stroke:#19130e;stroke-width:0.046;stroke-linecap:butt;stroke-linejoin:miter;stroke-miterlimit:4;stroke-opacity:1;stroke-dasharray:none" />
        </g>
      </g>
      <g
         transform="matrix(11.410715,0,0,-11.410715,217.44175,512.79566)"
         id="g3461">
        <path
           d="m 0,0 0,1.176 -0.384,0 0,-1.675 0.56,0 0,0.131 C 0.07,-0.276 0,-0.146 0,0"
           id="path3463"
           style="fill:#191918;fill-opacity:1;fill-rule:nonzero;stroke:none" />
      </g>
      <g
         transform="matrix(11.410715,0,0,-11.410715,217.44175,512.79566)"
         id="g3465">
        <path
           d="m 0,0 0,1.176 -0.384,0 0,-1.675 0.56,0 0,0.131 C 0.07,-0.276 0,-0.146 0,0 z"
           id="path3467"
           style="fill:none;stroke:#19130e;stroke-width:0.046;stroke-linecap:butt;stroke-linejoin:miter;stroke-miterlimit:4;stroke-opacity:1;stroke-dasharray:none" />
      </g>
      <g
         transform="matrix(11.410715,0,0,-11.410715,227.72282,473.26895)"
         id="g3469">
        <path
           d="m 0,0 0,-3.183 0.559,0 0,1.303 -0.259,0 0,0.793 0.259,0 L 0.559,0 0,0"
           id="path3471"
           style="fill:#191918;fill-opacity:1;fill-rule:nonzero;stroke:none" />
      </g>
      <g
         transform="matrix(11.410715,0,0,-11.410715,227.72282,473.26895)"
         id="g3473">
        <path
           d="m 0,0 0,-3.183 0.559,0 0,1.303 -0.259,0 0,0.793 0.259,0 L 0.559,0 0,0 z"
           id="path3475"
           style="fill:none;stroke:#19130e;stroke-width:0.046;stroke-linecap:butt;stroke-linejoin:miter;stroke-miterlimit:4;stroke-opacity:1;stroke-dasharray:none" />
      </g>
      <g
         transform="matrix(11.410715,0,0,-11.410715,250.40732,470.06254)"
         id="g3477">
        <path
           d="m 0,0 0,-0.94 0.56,0 0,0.659 -0.156,0 0,0.649 C 0.314,0.456 0.191,0.511 0.055,0.511 l -0.56,0 C -0.224,0.511 0,0.281 0,0"
           id="path3479"
           style="fill:#191918;fill-opacity:1;fill-rule:nonzero;stroke:none" />
      </g>
      <g
         transform="matrix(11.410715,0,0,-11.410715,250.40732,470.06254)"
         id="g3481">
        <path
           d="m 0,0 0,-0.94 0.56,0 0,0.659 -0.156,0 0,0.649 C 0.314,0.456 0.191,0.511 0.055,0.511 l -0.56,0 C -0.224,0.511 0,0.281 0,0 z"
           id="path3483"
           style="fill:none;stroke:#19130e;stroke-width:0.046;stroke-linecap:butt;stroke-linejoin:miter;stroke-miterlimit:4;stroke-opacity:1;stroke-dasharray:none" />
      </g>
      <g
         transform="matrix(11.410715,0,0,-11.410715,256.86579,509.58926)"
         id="g3485">
        <path
           d="m 0,0 0,2.096 -0.56,0 0,-2.876 0.398,0 0,0.78 L 0,0"
           id="path3487"
           style="fill:#191918;fill-opacity:1;fill-rule:nonzero;stroke:none" />
      </g>
      <g
         transform="matrix(11.410715,0,0,-11.410715,256.86579,509.58926)"
         id="g3489">
        <path
           d="m 0,0 0,2.096 -0.56,0 0,-2.876 0.398,0 0,0.78 L 0,0 z"
           id="path3491"
           style="fill:none;stroke:#19130e;stroke-width:0.046;stroke-linecap:butt;stroke-linejoin:miter;stroke-miterlimit:4;stroke-opacity:1;stroke-dasharray:none" />
      </g>
      <g
         transform="matrix(11.410715,0,0,-11.410715,298.52629,480.77722)"
         id="g3493">
        <path
           d="m 0,0 0,0.659 -0.182,0 0,0.792 -0.378,0 L -0.56,0 0,0"
           id="path3495"
           style="fill:#191918;fill-opacity:1;fill-rule:nonzero;stroke:none" />
      </g>
      <g
         transform="matrix(11.410715,0,0,-11.410715,298.52629,480.77722)"
         id="g3497">
        <path
           d="m 0,0 0,0.659 -0.182,0 0,0.792 -0.378,0 L -0.56,0 0,0 z"
           id="path3499"
           style="fill:none;stroke:#19130e;stroke-width:0.046;stroke-linecap:butt;stroke-linejoin:miter;stroke-miterlimit:4;stroke-opacity:1;stroke-dasharray:none" />
      </g>
      <path
         d="m 269.39473,509.58926 6.38973,0 0,-14.87613 -6.38973,0 0,14.87613 z"
         id="path3501"
         style="fill:#191918;fill-opacity:1;fill-rule:nonzero;stroke:none" />
      <g
         transform="matrix(11.410715,0,0,-11.410715,269.39473,494.70968)"
         id="g3503">
        <path
           d="M 0.56,0 3e-5,0 l 0,-1.3037 0.55997,0 0,1.3037 z"
           id="path3505"
           style="fill:none;stroke:#19130e;stroke-width:0.046;stroke-linecap:butt;stroke-linejoin:miter;stroke-miterlimit:4;stroke-opacity:1;stroke-dasharray:none" />
        <g
           id="g3507">
          <path
             d="M 0,0 z"
             id="path3509"
             style="fill:none;stroke:#19130e;stroke-width:0.046;stroke-linecap:butt;stroke-linejoin:miter;stroke-miterlimit:4;stroke-opacity:1;stroke-dasharray:none" />
        </g>
      </g>
      <path
         d="m 285.79196,494.70968 6.3875,0 0,-9.04552 -6.3875,0 0,9.04552 z"
         id="path3511"
         style="fill:#191918;fill-opacity:1;fill-rule:nonzero;stroke:none" />
      <path
         d="m 292.1819,485.67239 -6.38744,0 0,9.04551 6.38744,0 0,-9.04551 z"
         id="path3513"
         style="fill:none;stroke:#19130e;stroke-width:0.52489293;stroke-linecap:butt;stroke-linejoin:miter;stroke-miterlimit:4;stroke-opacity:1;stroke-dasharray:none" />
      <path
         d="m 269.39473,485.67239 6.38973,0 0,-12.40116 -6.38973,0 0,12.40116 z"
         id="path3515"
         style="fill:#191918;fill-opacity:1;fill-rule:nonzero;stroke:none" />
      <g
         transform="matrix(11.410715,0,0,-11.410715,269.39473,473.26895)"
         id="g3517">
        <path
           d="M 0.56,0 3e-5,0 l 0,-1.0868 0.55997,0 0,1.0868 z"
           id="path3519"
           style="fill:none;stroke:#19130e;stroke-width:0.046;stroke-linecap:butt;stroke-linejoin:miter;stroke-miterlimit:4;stroke-opacity:1;stroke-dasharray:none" />
        <g
           id="g3521">
          <path
             d="M 0,0 z"
             id="path3523"
             style="fill:none;stroke:#19130e;stroke-width:0.046;stroke-linecap:butt;stroke-linejoin:miter;stroke-miterlimit:4;stroke-opacity:1;stroke-dasharray:none" />
        </g>
      </g>
      <g
         transform="matrix(11.410715,0,0,-11.410715,298.52629,509.58926)"
         id="g3525">
        <path
           d="m 0,0 0,0.895 -0.56,0 0,-1.675 0.372,0 0,0.78 L 0,0"
           id="path3527"
           style="fill:#191918;fill-opacity:1;fill-rule:nonzero;stroke:none" />
      </g>
      <g
         transform="matrix(11.410715,0,0,-11.410715,298.52629,509.58926)"
         id="g3529">
        <path
           d="m 0,0 0,0.895 -0.56,0 0,-1.675 0.372,0 0,0.78 L 0,0 z"
           id="path3531"
           style="fill:none;stroke:#19130e;stroke-width:0.046;stroke-linecap:butt;stroke-linejoin:miter;stroke-miterlimit:4;stroke-opacity:1;stroke-dasharray:none" />
      </g>
      <path
         d="m 333.64847,518.48958 6.39376,0 0,-19.1084 -6.39376,0 0,19.1084 z"
         id="path3533"
         style="fill:#191918;fill-opacity:1;fill-rule:nonzero;stroke:none" />
      <g
         transform="matrix(11.410715,0,0,-11.410715,333.64847,499.37662)"
         id="g3535">
        <path
           d="m 0.56,0 -0.56033,0 0,-1.6746 0.56033,0 0,1.6746 z"
           id="path3537"
           style="fill:none;stroke:#19130e;stroke-width:0.046;stroke-linecap:butt;stroke-linejoin:miter;stroke-miterlimit:4;stroke-opacity:1;stroke-dasharray:none" />
        <g
           id="g3539">
          <path
             d="M 0,0 z"
             id="path3541"
             style="fill:none;stroke:#19130e;stroke-width:0.046;stroke-linecap:butt;stroke-linejoin:miter;stroke-miterlimit:4;stroke-opacity:1;stroke-dasharray:none" />
        </g>
      </g>
      <g
         transform="matrix(11.410715,0,0,-11.410715,311.19224,473.26895)"
         id="g3543">
        <path
           d="m 0,0 0,-3.183 0.56,0 0,3.183 0.396,0 0,0.792 -0.56,0 L 0.396,0 0,0"
           id="path3545"
           style="fill:#191918;fill-opacity:1;fill-rule:nonzero;stroke:none" />
      </g>
      <g
         transform="matrix(11.410715,0,0,-11.410715,311.19224,473.26895)"
         id="g3547">
        <path
           d="m 0,0 0,-3.183 0.56,0 0,3.183 0.396,0 0,0.792 -0.56,0 L 0.396,0 0,0 z"
           id="path3549"
           style="fill:none;stroke:#19130e;stroke-width:0.046;stroke-linecap:butt;stroke-linejoin:miter;stroke-miterlimit:4;stroke-opacity:1;stroke-dasharray:none" />
      </g>
      <g
         transform="matrix(11.410715,0,0,-11.410715,107.76193,512.79566)"
         id="g3551">
        <path
           d="m 0,0 0,2.378 -1.969,0 0,1.086 1.029,0 0,-0.658 0.94,0 0,0.952 c 0,0.281 -0.23,0.499 -0.511,0.499 l -1.873,0 c -0.275,0 -0.505,-0.23 -0.505,-0.505 l 0,-2.167 1.949,0 0,-1.304 -1.029,0 0,0.895 -0.92,0 0,-1.157 c 0,-0.281 0.23,-0.518 0.511,-0.518 l 1.873,0 C -0.224,-0.499 0,-0.275 0,0"
           id="path3553"
           style="fill:#ffffff;fill-opacity:1;fill-rule:nonzero;stroke:none" />
      </g>
      <g
         transform="matrix(11.410715,0,0,-11.410715,133.35619,485.67239)"
         id="g3555">
        <path
           d="m 0,0 -0.56,0 0,1.087 1.061,0 L 0.501,0 0,0 z m 1.428,-0.275 0,1.649 c 0,0.282 -0.224,0.505 -0.505,0.505 l -2.793,0 0,-0.792 0.371,0 0,-3.183 -0.365,0 0,-0.78 1.656,0 0,0.78 -0.352,0 0,1.303 1.483,0 c 0.281,0 0.505,0.237 0.505,0.518"
           id="path3557"
           style="fill:#ffffff;fill-opacity:1;fill-rule:nonzero;stroke:none" />
      </g>
      <g
         transform="matrix(11.410715,0,0,-11.410715,168.10183,509.58926)"
         id="g3559">
        <path
           d="m 0,0 0,3.183 0.352,0 0,0.792 -1.63,0 0,-0.792 0.358,0 0,-3.183 -0.358,0 0,-0.78 1.63,0 0,0.78 L 0,0"
           id="path3561"
           style="fill:#ffffff;fill-opacity:1;fill-rule:nonzero;stroke:none" />
      </g>
      <g
         transform="matrix(11.410715,0,0,-11.410715,209.00923,499.37662)"
         id="g3563">
        <path
           d="m 0,0 -0.56,0 0,-0.895 -1.08,0 0,1.304 1.438,0 0,0.793 -1.438,0 0,1.086 1.08,0 0,-0.658 0.914,0 0,1.451 -3.253,0 0,-0.793 0.345,0 0,-3.183 -0.345,0 0,-0.78 3.253,0 L 0.354,0 0,0"
           id="path3565"
           style="fill:#ffffff;fill-opacity:1;fill-rule:nonzero;stroke:none" />
      </g>
      <g
         transform="matrix(11.410715,0,0,-11.410715,237.53603,485.67239)"
         id="g3567">
        <path
           d="m 0,0 -0.559,0 0,-0.793 0.76,0 0,-1.303 -1.061,0 0,3.183 1.029,0 0,-0.659 0.959,0 0,0.94 c 0,0.281 -0.224,0.511 -0.505,0.511 l -1.879,0 C -1.383,1.879 -1.498,1.83 -1.586,1.753 -1.693,1.659 -1.761,1.522 -1.761,1.368 l 0,-3.746 c 0,-0.146 0.069,-0.276 0.175,-0.367 0.093,-0.081 0.214,-0.131 0.343,-0.131 l 2.377,0 L 1.134,0 0,0"
           id="path3569"
           style="fill:#ffffff;fill-opacity:1;fill-rule:nonzero;stroke:none" />
      </g>
      <g
         transform="matrix(11.410715,0,0,-11.410715,288.09695,499.37662)"
         id="g3571">
        <path
           d="m 0,0 -0.56,0 0,-0.895 -1.08,0 0,1.304 1.438,0 0,0.793 -1.438,0 0,1.086 1.08,0 0,-0.658 0.914,0 0,1.451 -3.253,0 0,-0.793 0.345,0 0,-3.183 -0.345,0 0,-0.78 3.253,0 L 0.354,0 0,0"
           id="path3573"
           style="fill:#ffffff;fill-opacity:1;fill-rule:nonzero;stroke:none" />
      </g>
      <g
         transform="matrix(11.410715,0,0,-11.410715,329.67756,499.37662)"
         id="g3575">
        <path
           d="m 0,0 -0.56,0 0,-0.895 -1.061,0 0,3.183 0.397,0 0,0.793 -1.688,0 0,-0.793 0.358,0 0,-3.183 -0.364,0 0,-0.78 3.266,0 L 0.348,0 0,0"
           id="path3577"
           style="fill:#ffffff;fill-opacity:1;fill-rule:nonzero;stroke:none" />
      </g>
    </g>
  </g>
</svg>
