<?xml version="1.0" encoding="UTF-8" standalone="no"?>
<!-- Created with Inkscape (http://www.inkscape.org/) -->
<svg xmlns:rdf="http://www.w3.org/1999/02/22-rdf-syntax-ns#" xmlns="http://www.w3.org/2000/svg" height="241.87" width="600" version="1.1" xmlns:cc="http://creativecommons.org/ns#" xmlns:dc="http://purl.org/dc/elements/1.1/">
 <defs></defs>
 <metadata>
  <rdf:RDF>
   <cc:Work rdf:about="">
    <dc:format>image/svg+xml</dc:format>
    <dc:type rdf:resource="http://purl.org/dc/dcmitype/StillImage"/>
    <dc:title/>
   </cc:Work>
  </rdf:RDF>
 </metadata>
 <g transform="translate(309.19001,167.35525)">
  <g fill-rule="evenodd" transform="matrix(1.8698363,0,0,1.8698363,7.9938019,40.376033)">
   <path fill="#a90000" d="m-74.389-46.275c0-20.956,0.01-41.912-0.027-62.869-0.002-1.145,0.255-1.44,1.425-1.439,41.232,0.035,82.465,0.033,123.7,0.004,1.09-0.001,1.379,0.26,1.378,1.368-0.03,41.992-0.03,83.985,0,125.98,0.001,1.063-0.256,1.309-1.313,1.308-41.312-0.03-82.625-0.029-123.94-0.002-0.996,0-1.248-0.243-1.246-1.24,0.032-21.035,0.024-42.071,0.024-63.107z"/>
   <path fill="#a90000" d="m-83.657-46.402c0,21.076-0.011,42.152,0.028,63.229,0.002,1.154-0.268,1.435-1.43,1.433-27.715-0.037-55.43-0.037-83.145,0-1.155,0.001-1.429-0.266-1.428-1.425,0.035-42.193,0.034-84.386,0.003-126.58,0-1.097,0.276-1.354,1.359-1.353,27.755,0.032,55.509,0.032,83.264,0.001,1.064-0.001,1.377,0.224,1.375,1.344-0.036,21.117-0.026,42.233-0.026,63.349z"/>
   <path fill="#6c6c6c" d="m145.76-25.46c-0.266,0.345-0.532,0.689-0.798,1.034-0.475,0.375-0.889,0.814-1.313,1.242-0.341,0.356-0.716,0.681-1.007,1.084-0.664,0.476-1.113,1.225-1.929,1.507-1.452,0.69-2.91,1.368-4.32,2.143-0.731,0.344-1.458,0.709-2.311,0.524-1.341,0.461-2.708,0.819-4.116,0.998-0.202,0.081-0.431-0.002-0.712,0.125,0.31-0.07,0.547-0.161,0.724,0.089-1.274,0.382-2.582,0.463-3.901,0.444-1.493-0.189-2.987,0.088-4.481-0.005-0.59-0.037-1.193,0.048-1.745-0.249l-0.014-0.015c-0.201-0.359-0.24-0.753-0.24-1.152-0.003-4.33-0.015-8.66,0.006-12.99,0.001-0.159,0.034-0.315,0.082-0.467,0.111-0.508,0.585-0.601,0.944-0.824,1.974-0.058,3.948,0.001,5.923,0.004,0.158,0.057-0.055-0.229-0.013-0.075-0.273,0.058-0.546,0.107-0.773-0.123,1.404-0.208,2.817-0.374,4.151-0.903,1.371-0.308,1.987-1.432,2.668-2.479,0.234-0.361,0.394-0.767,0.575-1.158,0.237-0.7,0.949-1.267,0.598-2.132,0.071-0.519,0.105-1.047,0.425-1.495,0.38-0.261,0.119-0.585,0.088-0.888-0.049-0.211,0.002-0.392,0.167-0.537,0.31-0.45,0.169-0.919,0.061-1.387-0.086-0.367-0.019-0.708,0.178-1.027,0.389-1.397,0.022-2.828,0.183-4.235,0.002-0.016-0.062-0.056-0.095-0.054-0.028,0.001-0.055,0.044-0.083,0.069-0.184-0.403-0.262-0.822-0.183-1.263,0.176-0.53,0.123-1.063,0.023-1.597-0.201-0.858-0.211-1.758-0.566-2.582-0.149-0.362-0.183-0.771-0.447-1.086-0.195-0.099-0.228-0.283-0.251-0.474-0.287-1.184-0.919-2.143-1.882-2.885-0.089-0.098-0.178-0.195-0.267-0.293-0.432-0.568-0.91-1.068-1.674-1.154-1.949-0.735-4.011-0.89-6.049-1.16,0.083-0.087,0.179-0.146,0.305-0.138-0.001-0.057-0.048-0.026-0.064-0.026-3.571,0.115-7.148-0.198-10.715,0.162-0.478,0.505-0.292,1.136-0.292,1.714-0.01,13.735-0.006,27.471-0.016,41.207,0,0.417,0.18,0.88-0.177,1.255-0.112-0.123-0.161-0.267-0.148-0.433-0.003-14.362,0-28.723-0.005-43.085-0.004,14.334-0.002,28.669-0.004,43.003,0,0.444-0.174,0.744-0.652,0.795-4.829,0.019-9.659,0.002-14.488,0.01-0.465-0.014-0.653-0.329-0.779-0.713-0.082-6.172-0.011-12.344-0.038-18.516-0.002-0.516,0.054-1.037-0.082-1.544-0.245-0.907-0.856-1.354-1.78-1.405-4.707-0.005-9.412-0.001-14.114-0.002-0.89-0.034-1.58,0.227-1.765,1.22l0.004-0.017c-0.347,0.543-0.257,1.155-0.259,1.747-0.024,6.158,0.034,12.315-0.031,18.472-0.103,0.392-0.284,0.705-0.74,0.747-4.74,0.02-9.48-0.001-14.221,0.011-0.149-0.004-0.299-0.013-0.449-0.023-0.415-0.14-0.587-0.456-0.627-0.867-0.031-19.188-0.006-38.374-0.012-57.561,0-0.597-0.079-1.236,0.664-1.509,4.473-0.036,8.947-0.001,13.42-0.022,0.427-0.002,0.879,0.135,1.283-0.132,0.33-0.04,0.522,0.072,0.488,0.438,0.315,0.467,0.218,0.999,0.218,1.509,0.006,5.492,0.001,10.983,0.009,16.475,0.001,0.507-0.113,1.041,0.205,1.509,0.008,0.083,0.016,0.166,0.023,0.248,0.008,0.497,0.08,0.946,0.714,0.991,0.33,0.143,0.667,0.213,1.034,0.212,4.936-0.017,9.871-0.022,14.807-0.031,0.77-0.004,0.874-0.66,1.137-1.164,0.168-1.631,0.053-3.263,0.073-4.893,0.057-4.814-0.091-9.629,0.078-14.444,0.093-0.447,0.424-0.615,0.823-0.704,8.897-0.015,17.793-0.006,26.688-0.004,1.392,0.274,2.837-0.085,4.215,0.352,0.391,0.021,0.788-0.04,1.172,0.081,0.755,0.208,1.548,0.215,2.301,0.431,1.406-0.236,2.604,0.41,3.835,0.909,0.632,0.208,1.226,0.529,1.888,0.648,1.296,0.673,2.54,1.445,3.876,2.041,0.44,0.11,0.766,0.361,0.955,0.778,0.395,0.343,0.656,0.822,1.114,1.102,0.601,0.191,0.93,0.684,1.275,1.156,0.195,0.309,0.354,0.656,0.768,0.736,0.401,0.481,0.999,0.843,0.959,1.59,0.532,0.732,0.81,1.631,1.485,2.27,0.202,0.413,0.404,0.825,0.605,1.237-0.003,0.725,0.245,1.354,0.725,1.894,0.345,0.845,0.694,1.689,0.771,2.613,0.106,1.319,0.397,2.608,0.648,3.903,0.135,0.574-0.03,1.176,0.167,1.743,0.021,0.528,0.006,1.057,0.011,1.584,0,0.514,0.001,1.028,0,1.261-0.062-0.25,0.04-0.791,0.008-1.325,0.064-0.396-0.151-0.831,0.161-1.192,0.564,4.131,0.53,8.263,0.003,12.394-0.36-1.432-0.076-2.863-0.17-4.337-0.017,2.809,0.122,5.606-0.629,8.317,0.129,0.587,0.126,1.158-0.209,1.688-0.272,0.455-0.365,0.96-0.415,1.477-0.063,0.435-0.009,0.921-0.504,1.17-0.382,0.487-0.284,1.126-0.525,1.659-0.055,0.088-0.11,0.177-0.166,0.266-0.742,1.543-1.659,2.985-2.465,4.488z"/>
   <path fill="#515151" d="m62.954-76.281c-0.712,0.368-0.476,1.041-0.476,1.604-0.01,18.629-0.008,37.259-0.008,55.889,0,0.6-0.005,1.199-0.008,1.799-0.075,0.1-0.098,0.245-0.25,0.276-0.332-0.335-0.182-0.758-0.182-1.14-0.006-19.016-0.005-38.033-0.005-57.049,0-0.72-0.115-1.501,0.924-1.63,0.079,0.054,0.106,0.11,0.082,0.166-0.025,0.057-0.051,0.085-0.077,0.085z"/>
   <path fill="#535353" d="m96.31-37.635c0.191,0.612,0.25,1.235,0.249,1.878-0.015,6.256-0.014,12.513-0.017,18.769-0.047,0.106-0.124,0.183-0.23,0.229-0.303-0.348-0.165-0.766-0.165-1.152-0.007-5.958-0.002-11.917-0.009-17.875-0.001-0.518-0.063-1.035-0.097-1.553-0.12-0.288,0.038-0.325,0.269-0.296z"/>
   <path fill="#5c5c5c" d="m78.081-16.981c-0.003-6.3-0.006-12.601-0.01-18.9,0-0.562-0.027-1.128,0.502-1.512-0.023,6.461-0.044,12.922-0.078,19.383-0.002,0.423,0.153,0.883-0.177,1.266-0.154-0.004-0.16-0.156-0.237-0.237z"/>
   <path fill="#535353" d="m96.547-75.795c0.001,6.089,0.003,12.179,0.004,18.268,0,0.592,0.075,1.208-0.478,1.64-0.063-0.059-0.089-0.122-0.077-0.188,0.013-0.068,0.029-0.103,0.047-0.103,0.206-1.554,0.085-3.115,0.092-4.673,0.019-4.6,0.002-9.199,0.012-13.799,0.001-0.389-0.125-0.8,0.118-1.168,0.104-0.121,0.198-0.115,0.282,0.023z"/>
   <path fill="#5c5c5c" d="m78.521-56.601c-0.592-0.106-0.445-0.579-0.445-0.949-0.001-6.182,0.007-12.363,0.013-18.544,0.585,0.187,0.444,0.665,0.444,1.092-0.006,6.133-0.008,12.267-0.012,18.401z"/>
   <path fill="#404040" d="m96.312-16.759c0.077-0.076,0.154-0.152,0.23-0.229,0.104,0.222,0.252,0.394,0.505,0.447,2.493-0.207,4.99-0.081,7.484-0.08,2.375,0.001,4.753-0.134,7.126,0.083,0.252-0.052,0.406-0.219,0.513-0.441,0.07-0.126,0.131-0.123,0.185,0.012,0.023,0.086,0.047,0.172,0.07,0.258-0.281,0.562-0.792,0.583-1.326,0.582-4.504-0.002-9.008,0-13.512-0.001-0.526,0.001-1.05-0.015-1.275-0.631z"/>
   <path fill="#404040" d="m78.081-16.981c0.079,0.079,0.158,0.158,0.237,0.236-0.156,0.442-0.535,0.611-0.936,0.607-4.817-0.05-9.635,0.135-14.451-0.089-0.126-0.104-0.117-0.196,0.027-0.273l-0.004-0.038c1.341-0.217,2.691-0.094,4.035-0.084,3.529,0.026,7.06-0.131,10.588,0.083,0.25-0.054,0.4-0.222,0.504-0.442z"/>
   <path fill="#454545" d="m119.82-31.396c0.008,4.954,0.015,9.906,0.022,14.86-0.374-0.265-0.392-0.658-0.392-1.063,0.002-4.334,0.002-8.669,0.002-13.003,0-0.28-0.005-0.559,0.193-0.789,0.057-0.102,0.115-0.104,0.175-0.005z"/>
   <path fill="#424242" d="m124.14-76.285c-9.038,0.005-18.076,0.01-27.113,0.016-0.062-0.058-0.083-0.116-0.062-0.173,0.021-0.058,0.041-0.087,0.062-0.087,0.115-0.026,0.23-0.076,0.346-0.076,8.608,0.002,17.217,0.007,25.825,0.017,0.316,0,0.633,0.051,0.949,0.078,0.029,0.038,0.06,0.077,0.09,0.115-0.033,0.037-0.065,0.074-0.097,0.11z"/>
   <path fill="#5d5d5d" d="m96.31-37.635c-0.089,0.099-0.179,0.198-0.269,0.296-0.505-0.805-1.209-1.095-2.178-1.086-4.397,0.043-8.796,0.048-13.193,0.001-0.944-0.01-1.626,0.244-2.102,1.046-0.285-1.047,0.661-1.081,1.196-1.453,0.291,0.189,0.618,0.113,0.929,0.113,4.412,0.005,8.824,0.005,13.236,0,0.312,0,0.639,0.077,0.93-0.112,0.617,0.238,1.128,0.603,1.451,1.195z"/>
   <path fill="#424242" d="m62.954-76.281c-0.002-0.084-0.003-0.168-0.005-0.251,4.884-0.125,9.768-0.125,14.651,0-0.339,0.426-0.814,0.245-1.229,0.246-4.471,0.012-8.944,0.006-13.417,0.005z"/>
   <path fill="#3f3f3f" d="m112.91-60.884c-0.126-0.364,0.164-0.269,0.32-0.269,3.784-0.005,7.568-0.004,11.362,0.124-0.402,0.049-0.806,0.098-1.208,0.147-3.491-0.001-6.982-0.002-10.474-0.002z"/>
   <path fill="#424242" d="m119.85-16.522c1.706,0.002,3.412-0.003,5.118,0.012,0.379,0.003,0.805-0.137,1.108,0.241-1.764,0.244-3.537,0.107-5.306,0.14-0.354,0.008-0.706-0.045-0.92-0.393z"/>
   <path fill="#656565" d="m150.04-36.204c-0.245-0.989,0.171-1.922,0.299-2.87,0.245-1.813,0.18-3.629,0.499-5.449,0,1.446,0,2.892,0.001,4.338-0.033,0.213-0.066,0.426-0.099,0.64-0.19,0.479,0.056,1.007-0.169,1.481,0.021,0.075,0.004,0.139-0.051,0.194-0.221,0.392,0.03,0.855-0.188,1.248-0.097,0.139-0.194,0.279-0.292,0.418z"/>
   <path fill="#5a5a5a" d="m133.3-36.682c-0.394,1.402-1.293,2.461-2.362,3.384-0.257,0.222-0.571,0.643-1.018,0.231,1.48-0.927,2.478-2.247,3.129-3.847,0.215-0.063,0.31,0.001,0.251,0.232z"/>
   <path fill="#5a5a5a" d="m136.39-18.449c1.296-1.005,2.701-1.79,4.32-2.143-1.296,1.004-2.757,1.677-4.32,2.143z"/>
   <path fill="#575757" d="m145.76-25.46c0.479-1.683,1.551-3.039,2.461-4.485-0.431,1.709-1.34,3.155-2.461,4.485z"/>
   <path fill="#5d5d5d" d="m141.18-71.928c-0.099,0.051-0.244,0.171-0.291,0.142-1.154-0.747-2.49-1.192-3.542-2.109-0.08-0.037-0.107-0.075-0.081-0.112s0.053-0.057,0.08-0.057c1.375,0.538,2.7,1.166,3.834,2.136z"/>
   <path fill="#6a6a6a" d="m129.91-17.019c1.406-0.233,2.721-0.888,4.173-0.906-1.121,1.025-2.588,0.892-3.933,1.167-0.078-0.088-0.231-0.109-0.24-0.261z"/>
   <path fill="#4c4c4c" d="m125.77-32.163c0.497,0.044,0.995,0.087,1.492,0.131-0.002,0.052-0.004,0.104-0.007,0.156h-6.698c-0.071-0.049-0.095-0.098-0.071-0.147s0.048-0.073,0.072-0.073c1.737-0.022,3.475-0.045,5.212-0.067z"/>
   <path fill="#616161" d="m131.37-58.275c1.148,0.526,2.031,1.879,1.882,2.885-0.627-0.961-1.255-1.923-1.882-2.885z"/>
   <path fill="#646464" d="m150.3-54.669c-0.266-1.281-0.734-2.539-0.458-3.884,0.295,0.69,0.391,1.426,0.483,2.162,0.232,0.383-0.018,0.839,0.185,1.227,0.017,0.08,0.033,0.161,0.05,0.241-0.028,0.144-0.116,0.227-0.26,0.254z"/>
   <path fill="#4b4b4b" d="m134.68-48.389c0.033-0.153,0.066-0.307,0.1-0.46,0.055-0.001,0.11-0.003,0.165-0.005,0,1.63,0,3.261-0.004,4.891,0,0.016-0.075,0.05-0.079,0.045-0.064-0.081-0.125-0.167-0.187-0.251,0.002-1.407,0.004-2.813,0.005-4.22z"/>
   <path fill="#5c5c5c" d="m133.99-53.956c0.667,0.771,0.399,1.793,0.715,2.658-0.089,0.077-0.107,0.224-0.247,0.252-0.223-0.971-0.444-1.941-0.667-2.912,0.068-0.118,0.134-0.117,0.199,0.002z"/>
   <path fill="#5c5c5c" d="m147.74-64.296c-1.008-0.42-1.138-1.416-1.485-2.269,0.846,0.526,1.102,1.439,1.485,2.269z"/>
   <path fill="#5b5b5b" d="m128.24-75.809c-1.329-0.474-2.777,0.073-4.098-0.476v0.005c1.139-0.204,2.28-0.153,3.422-0.021,0.071-0.026,0.134-0.014,0.188,0.039,0.148,0.15,0.379,0.074,0.538,0.195,0.043,0.098,0.027,0.184-0.05,0.258z"/>
   <path fill="#676767" d="m133.3-36.682c-0.084-0.077-0.167-0.155-0.251-0.231,0.237-0.641,0.475-1.282,0.712-1.922,0.736,0.908-0.18,1.463-0.461,2.153z"/>
   <path fill="#606060" d="m129.43-59.722c1.009-0.27,1.357,0.419,1.674,1.154-0.559-0.385-1.116-0.769-1.674-1.154z"/>
   <path fill="#6c6c6c" d="m127.57-76.301c-1.141,0.007-2.281,0.014-3.422,0.021,0.004-0.077,0.007-0.153,0.007-0.23,1.14,0.031,2.293-0.128,3.415,0.209z"/>
   <path fill="#535353" d="m149.07-61.165c-0.76-0.433-0.978-1.073-0.725-1.894,0.242,0.631,0.483,1.262,0.725,1.894z"/>
   <path fill="#575757" d="m137.35-74.064c-0.001,0.057-0.001,0.113,0.001,0.169-0.714-0.053-1.401-0.176-1.931-0.722,0.739-0.149,1.291,0.352,1.93,0.553z"/>
   <path fill="#545454" d="m143.59-23.239c0.382-0.485,0.693-1.052,1.377-1.187-0.203,0.536-0.637,0.871-1.059,1.217-0.115,0.089-0.221,0.079-0.318-0.03z"/>
   <path fill="#676767" d="m131.59-75.527c-0.735,0.056-1.468,0.083-2.156-0.256,0.104-0.096,0.226-0.139,0.366-0.128,0.4,0.012,0.806-0.051,1.196,0.089,0.285-0.076,0.38,0.228,0.594,0.295z"/>
   <path fill="#585858" d="m149.42-33.039c-0.195-0.586-0.178-1.112,0.415-1.477-0.033,0.521-0.092,1.036-0.415,1.477z"/>
   <path fill="#525252" d="m143.59-23.239c0.106,0.01,0.212,0.02,0.318,0.03-0.358,0.441-0.704,0.896-1.262,1.109,0.074-0.579,0.525-0.845,0.944-1.139z"/>
   <path fill="#5b5b5b" d="m148.39-30.211c0.013-0.604-0.099-1.248,0.525-1.659,0.037,0.62-0.108,1.183-0.525,1.659z"/>
   <path fill="#606060" d="m96.044-56.177c0.009,0.097,0.019,0.193,0.029,0.29-0.282,0.838-0.363,0.897-0.974,0.705,0.315-0.331,0.63-0.663,0.945-0.995z"/>
   <path fill="#606060" d="m150.3-54.669c0.087-0.085,0.174-0.17,0.26-0.255l0.002-0.007c0.265,0.54-0.038,1.144,0.189,1.688,0.008,0.083,0.016,0.167,0.023,0.25-0.074,0.11-0.147,0.115-0.219-0.003-0.472-0.499-0.145-1.119-0.255-1.673z"/>
   <path fill="#525252" d="m143.25-70.048c-0.559-0.178-0.941-0.534-1.114-1.102,0.55,0.186,0.991,0.483,1.114,1.102z"/>
   <path fill="#505050" d="m79.259-55.362c-0.803,0.077-0.941-0.325-0.714-0.991,0.165,0.382,0.369,0.737,0.714,0.991z"/>
   <path fill="#6c6c6c" d="m150.75-53.243c-0.386-0.526-0.135-1.124-0.189-1.688,0.333,0.533,0.168,1.121,0.189,1.688z"/>
   <path fill="#6c6c6c" d="m128.25-76.003c-0.165-0.086-0.331-0.172-0.497-0.258,0.575,0.048,1.176-0.119,1.719,0.201-0.396,0.243-0.809,0.157-1.222,0.057z"/>
   <path fill="#444" d="m150.56-52.996c0.073,0.002,0.146,0.003,0.219,0.003,0.021,0.138,0.042,0.277,0.062,0.415-0.026,0.413-0.054,0.827-0.08,1.24-0.058,0.124-0.12,0.133-0.191,0.01-0.003-0.556-0.006-1.112-0.01-1.668z"/>
   <path fill="#3c3c3c" d="m134.5-43.142c0.247,0.475,0.419,0.945-0.061,1.387,0.021-0.463,0.041-0.925,0.061-1.387z"/>
   <path fill="#404040" d="m134.45-51.046c0.082-0.084,0.165-0.168,0.248-0.252-0.066,0.549,0.214,1.141-0.203,1.647-0.014-0.466-0.03-0.93-0.045-1.395z"/>
   <path fill="#4c4c4c" d="m128.25-76.003c0.407-0.019,0.814-0.038,1.222-0.058,0.072-0.019,0.137-0.005,0.195,0.041,0.081,0.047,0.109,0.096,0.085,0.146-0.025,0.051-0.051,0.077-0.077,0.077-0.082,0.004-0.164,0.009-0.246,0.013-0.396-0.008-0.792-0.017-1.188-0.025-0.004-0.065-0.001-0.13,0.009-0.194z"/>
   <path fill="#5b5b5b" d="m97.029-76.529v0.26c-0.161,0.158-0.321,0.316-0.482,0.474-0.094-0.007-0.188-0.014-0.282-0.021,0.021-0.488,0.302-0.698,0.764-0.713z"/>
   <path fill="#505050" d="m120.55-32.096c0,0.073-0.001,0.146,0,0.22-0.246,0.16-0.491,0.32-0.737,0.479l-0.087,0.006-0.087-0.002c0.085-0.516,0.557-0.534,0.911-0.703z"/>
   <path fill="#4c4c4c" d="m145.3-68.156c-0.706,0.224-0.632-0.364-0.768-0.735,0.424,0.071,0.542,0.459,0.768,0.735z"/>
   <path fill="#6c6c6c" d="m150.57-38.063c0.03-0.497-0.182-1.021,0.169-1.481,0.009,0.501,0.117,1.013-0.169,1.481z"/>
   <path fill="#575757" d="m133.99-53.956c-0.066-0.002-0.133-0.002-0.199-0.002-0.093-0.319-0.186-0.639-0.278-0.958,0.42,0.19,0.533,0.532,0.477,0.96z"/>
   <path fill="#6c6c6c" d="m150.33-36.622c0.023-0.422-0.17-0.876,0.188-1.248-0.006,0.425,0.086,0.864-0.188,1.248z"/>
   <path fill="#6c6c6c" d="m129.68-75.796c-0.004-0.074-0.007-0.149-0.008-0.224,0.453-0.011,0.9,0.007,1.323,0.198-0.437,0.009-0.875,0.017-1.315,0.026z"/>
   <path fill="#494949" d="m62.959-16.5c-0.009,0.091-0.019,0.182-0.027,0.273-0.342-0.011-0.611-0.129-0.719-0.487,0.083-0.092,0.167-0.184,0.25-0.276,0.164,0.163,0.33,0.327,0.496,0.49z"/>
   <path fill="#4e4e4e" d="m129.91-17.019c0.08,0.087,0.16,0.174,0.24,0.261l-0.079,0.047-0.093-0.001c-0.265-0.036-0.529-0.072-0.814-0.11,0.212-0.291,0.508-0.126,0.746-0.197z"/>
   <path fill="#404040" d="m134.27-41.218c0.243,0.323,0.421,0.639-0.088,0.888,0.029-0.296,0.059-0.592,0.088-0.888z"/>
   <path fill="#6c6c6c" d="m150.51-55.164c-0.339-0.367-0.155-0.813-0.185-1.227,0.272,0.377,0.197,0.807,0.185,1.227z"/>
   <path fill="#fefefe" d="m4.1851-97.787v1.306c0,32.591-0.006,65.183,0.027,97.773,0.001,1.134-0.231,1.451-1.413,1.442-8.357-0.059-16.715-0.047-25.073-0.01-0.929,0.004-1.188-0.215-1.187-1.173,0.028-26.313,0.028-52.626-0.002-78.939-0.001-0.896,0.366-1.38,1.005-1.859,4.796-3.602,9.797-6.912,14.691-10.372,3.492-2.468,6.979-4.943,10.478-7.402,0.415-0.29,0.805-0.649,1.474-0.766z"/>
   <path fill="#fefefe" d="m-126.6-31.942c-6.039,0-12.078,0.002-18.117-0.001-1.969,0-2.273-0.275-2.255-2.183,0.051-5.318-0.148-10.638,0.115-15.954,0.067-1.362,0.323-2.696,0.72-4.002,1.421-4.676,4.689-7.294,9.561-7.792,5.302-0.542,9.513,1.18,12.371,5.789,0.393,0.634,0.67,0.649,1.283,0.272,4.562-2.803,9.149-5.565,13.729-8.337,0.41-0.249,0.813-0.518,1.249-0.712,0.938-0.419,1.657-0.062,1.68,0.96,0.058,2.598,0.031,5.198-0.008,7.796-0.013,0.874-0.568,1.48-1.301,1.891-4.742,2.652-9.488,5.296-14.237,7.936-0.651,0.362-1.343,0.46-2.084,0.268-1.276-0.331-2.558-0.635-3.842-0.93-0.831-0.191-1.283-0.684-1.494-1.516-0.838-3.31-2.276-4.391-5.617-4.287-2.708,0.083-4.272,1.441-4.468,4.171-0.162,2.269-0.055,4.557-0.103,6.835-0.014,0.669,0.362,0.668,0.84,0.666,1.88-0.011,3.759-0.005,5.639-0.005,8.119,0,16.238-0.002,24.356,0.001,2.21,0.001,2.357,0.158,2.359,2.407,0.001,1.52,0.004,3.04,0,4.56-0.006,1.882-0.279,2.164-2.137,2.165-6.081,0.005-12.16,0.002-18.239,0.002z"/>
   <path fill="#fefefe" d="m-105.86-7.109c-0.14,2.954-0.163,5.915-0.556,8.855-0.142,1.064-0.646,1.457-1.706,1.27-1.495-0.264-3.005-0.439-4.5-0.704-1.431-0.253-1.668-0.552-1.592-2.022,0.165-3.154,0.517-6.298,0.517-9.461,0-1.722-0.024-3.443-0.451-5.124-0.467-1.841-1.372-2.666-3.083-2.882-1.732-0.218-3.02,0.411-3.894,1.977-1.187,2.126-1.529,4.529-2.148,6.836-0.467,1.738-0.895,3.485-1.753,5.083-2.53,4.713-6.679,6.315-11.748,5.952-4.688-0.335-7.72-2.926-9.343-7.262-0.807-2.156-1.164-4.4-1.222-6.692-0.103-4.042,0.005-8.078,0.472-12.097,0.178-1.533,0.479-1.756,2.036-1.529,1.384,0.202,2.756,0.483,4.142,0.667,1.186,0.158,1.653,0.783,1.565,1.956-0.244,3.27-0.49,6.54-0.478,9.823,0.004,1.164,0.074,2.316,0.437,3.434,0.489,1.507,1.44,2.466,3.081,2.602,1.75,0.146,2.918-0.473,3.681-2.09,1.1-2.331,1.444-4.894,2.135-7.351,0.62-2.204,1.363-4.345,2.667-6.251,1.674-2.45,3.981-3.89,6.927-4.253,7.661-0.946,12.694,2.758,14.18,10.431,0.197,1.019,0.363,2.048,0.464,3.08,0.185,1.911,0.252,3.83,0.17,5.752z"/>
   <path fill="#fefefe" d="m-126.63-70.452c-6.037,0-12.075,0.002-18.112-0.001-1.972-0.001-2.238-0.259-2.239-2.185-0.004-7.677-0.004-15.354,0-23.03,0.001-1.934,0.271-2.193,2.227-2.203,1.16-0.006,2.319-0.006,3.479,0,1.914,0.011,2.16,0.25,2.162,2.125,0.004,4.998,0.028,9.996-0.022,14.993-0.01,0.952,0.249,1.21,1.188,1.179,2.117-0.072,4.239-0.068,6.355-0.001,0.882,0.028,1.139-0.186,1.128-1.105-0.054-4.517-0.027-9.036-0.023-13.554,0.002-1.804,0.286-2.099,2.069-2.123,1.319-0.018,2.64-0.03,3.958,0.008,1.486,0.042,1.824,0.386,1.83,1.887,0.016,4.558,0.043,9.117-0.022,13.674-0.015,1.04,0.303,1.227,1.265,1.215,4.317-0.053,8.636-0.028,12.954-0.021,1.935,0.003,2.198,0.277,2.203,2.224,0.004,1.599,0.005,3.199,0,4.798-0.006,1.889-0.233,2.116-2.167,2.118-6.078,0.005-12.155,0.002-18.233,0.002z"/>
   <path fill="#595959" d="m112.36-16.967-0.092-0.015s-0.093,0.003-0.093,0.003c-0.004-14.397-0.009-28.794-0.009-43.192,0-0.072,0.047-0.145,0.077-0.232,0.262,0.159,0.138,0.41,0.138,0.604,0.007,14.078,0.006,28.155,0.005,42.233,0,0.2-0.017,0.4-0.026,0.599z"/>
   <path fill="#525252" d="m94.565-54.742h-14.792v-0.12h14.822c-0.009,0.04-0.019,0.08-0.03,0.12z"/>
   <path fill="#4b4b4b" d="m94.859-38.829c-0.244,0.292-0.583,0.214-0.893,0.214-4.436,0.004-8.873,0.004-13.309,0.001-0.311,0-0.649,0.077-0.893-0.216,5.032,0.001,10.063,0.001,15.095,0.001z"/>
   <path fill="#717171" d="m111.66-16.538c-4.871-0.001-9.741-0.001-14.611-0.002,0.246-0.288,0.583-0.214,0.894-0.214,4.275-0.003,8.549-0.003,12.824,0,0.312,0,0.648-0.073,0.893,0.216z"/>
   <path fill="#717171" d="m77.577-16.538c-4.874,0-9.749,0.001-14.623,0.001,0.248-0.282,0.583-0.217,0.896-0.217,4.277-0.002,8.555-0.003,12.833,0,0.312,0,0.649-0.074,0.894,0.216z"/>
   <path fill="#565656" d="m150.57-51.328c0.064,0.006,0.128,0.003,0.191-0.01v1.651c-0.063,0.002-0.127,0.005-0.191,0.007v-1.648z"/>
  </g>
 </g>
</svg>
