<?xml version="1.0" encoding="UTF-8" standalone="no"?>
<!-- Created with Inkscape (http://www.inkscape.org/) -->

<svg
   xmlns:dc="http://purl.org/dc/elements/1.1/"
   xmlns:cc="http://creativecommons.org/ns#"
   xmlns:rdf="http://www.w3.org/1999/02/22-rdf-syntax-ns#"
   xmlns:svg="http://www.w3.org/2000/svg"
   xmlns="http://www.w3.org/2000/svg"
   version="1.1"
   width="324.7334"
   height="94.992012"
   viewBox="0 0 324.73339 94.992013"
   id="Ebene_1"
   xml:space="preserve"><metadata
   id="metadata3535"><rdf:RDF><cc:Work
       rdf:about=""><dc:format>image/svg+xml</dc:format><dc:type
         rdf:resource="http://purl.org/dc/dcmitype/StillImage" /><dc:title></dc:title></cc:Work></rdf:RDF></metadata><defs
   id="defs3533" />
<path
   d="m 159.964,0.43001025 c 29.875,0 59.751,0.008 89.626,-0.03 1.227,-0.002 1.487,0.313 1.486,1.50600005 -0.036,30.5559997 -0.037,61.1109997 0.002,91.6669997 0.001,1.209 -0.362,1.414 -1.471,1.413 -59.751,-0.026 -119.502,-0.027 -179.253005,0.006 -1.233,0.001 -1.496,-0.328 -1.494,-1.523 0.036,-30.475 0.026,-60.95 0.032,-91.4259997 0,-1.82300005 -0.257,-1.60800005 1.565,-1.60900005 29.836005,-0.006 59.671005,-0.004 89.507005,-0.004 z"
   id="path3429"
   style="fill:#fecb00;fill-rule:evenodd" />
<path
   d="m 62.836995,47.18801 c 0,15.276 -0.012,30.552 0.026,45.829 0.002,1.1 -0.279,1.384 -1.381,1.382 -20.035,-0.035 -40.07,-0.034 -60.1039998,-0.001 -1.08299996,0.001 -1.37899996,-0.257 -1.3779999614172,-1.366 C 0.03199524,62.47901 0.03199524,31.92701 9.9523858e-4,1.3750103 -4.7614172e-6,0.28801025 0.25999524,-0.00198975 1.3639952,1.0253779e-5 21.398995,0.03601025 41.433995,0.03401025 61.468995,0.00301025 c 1.062,-0.001 1.4,0.219 1.397,1.35600005 -0.042,15.2769997 -0.029,30.5529997 -0.029,45.8289997 z"
   id="path3431"
   style="fill:#fecb00;fill-rule:evenodd" />
<path
   d="m 306.252,37.95001 c -1.223,-0.069 -2.445,-0.138 -3.666,-0.208 0.793,-0.309 1.59,-0.144 2.32,-0.108 -0.146,-0.197 -0.461,-0.052 -0.723,-0.053 -2.355,-0.013 -4.711,-0.014 -7.064,10e-4 -0.295,0.002 -0.641,-0.164 -0.887,0.158 -0.166,0.162 -0.334,0.323 -0.5,0.484 -0.336,0.336 -0.148,0.755 -0.15,1.127 -0.012,10.103 -0.008,20.206 -0.016,30.309 0,0.498 0.172,1.057 -0.336,1.445 -3.537,0.153 -7.076,0.028 -10.615,0.067 -0.303,0.003 -0.538,-0.11 -0.726,-0.339 -0.159,-4.924 -0.022,-9.85 -0.075,-14.775 -0.016,4.863 0.022,9.726 -0.02,14.588 -0.046,0.062 -0.091,0.124 -0.136,0.186 -0.348,-0.332 -0.174,-0.756 -0.175,-1.133 -0.014,-4.395 -0.022,-8.79 0.004,-13.185 0.004,-0.769 -0.123,-1.419 -0.76,-1.9 -0.097,-0.326 -0.373,-0.237 -0.591,-0.237 -3.455,-0.005 -6.91,-0.004 -10.365,-0.003 -0.198,0 -0.398,-0.011 -0.553,0.15 -0.469,0.281 -0.738,0.719 -0.946,1.206 -0.41,0.04 -0.183,0.37 -0.257,0.568 -0.003,4.363 0.003,8.721 -0.005,13.079 -10e-4,0.475 0.081,0.961 -0.124,1.42 -0.279,0.349 -0.661,0.384 -1.073,0.38 -3.454,-0.031 -6.908,0.049 -10.362,-0.045 -0.068,-0.047 -0.137,-0.095 -0.205,-0.143 -0.203,-0.419 -0.102,-0.867 -0.103,-1.299 -0.006,-13.916 -0.007,-27.832 0.003,-41.747 0,-0.536 -0.197,-1.137 0.322,-1.577 0.323,-0.201 0.686,-0.186 1.045,-0.187 3.07,-0.003 6.141,-0.005 9.211,0.002 0.43,10e-4 0.896,-0.067 1.187,0.383 0.225,1.423 0.084,2.856 0.096,4.285 0.025,3.023 0.003,6.047 0.012,9.071 0.002,0.546 -0.09,1.118 0.276,1.606 0.441,0.455 0.986,0.53 1.599,0.527 3.615,-0.021 7.23,-0.013 10.845,-0.014 0.026,0.169 -0.044,0.275 -0.208,0.319 -3.542,0.032 -7.084,0.01 -10.625,0.013 3.456,0.019 6.913,0.001 10.367,0.011 0.482,-0.093 0.917,-0.248 1.001,-0.828 0.233,-0.487 0.202,-1.009 0.202,-1.528 -0.002,-4.193 -0.009,-8.386 0.011,-12.58 0.002,-0.368 -0.289,-0.934 0.43,-1.036 0.306,-0.243 0.669,-0.231 1.028,-0.231 6.423,-0.001 12.847,-0.008 19.271,0.003 0.201,0 0.398,0.02 0.592,0.071 0.719,0.049 1.438,0.124 2.154,-0.042 0.422,0.057 0.844,0.114 1.268,0.17 -0.203,0.206 -0.422,0.203 -0.492,0.159 0.094,0.001 0.363,-0.005 0.633,0 0.49,0.071 0.977,0.205 1.479,0.133 0.352,-0.027 0.711,-0.097 0.99,0.21 -0.07,0.108 -0.189,0.104 -0.297,0.13 0.08,0.044 0.162,0.003 0.244,0.004 0.188,0.003 0.379,-0.008 0.545,0.106 0.232,0.013 0.465,0.027 0.695,0.041 0.299,0.133 0.541,0.479 0.938,0.245 1.205,0.621 2.707,0.661 3.617,1.855 0.508,0.343 0.98,0.741 1.561,0.966 2.738,2.086 4.297,4.912 5.143,8.187 -0.018,0.916 0.363,1.75 0.537,2.626 l -0.029,-0.02 c 0.156,0.373 0.092,0.799 0.283,1.162 0.17,0.392 -0.113,0.86 0.203,1.229 0.408,2.499 0.652,5.003 0.242,7.529 -0.127,-0.119 -0.146,-0.271 -0.137,-0.432 -0.033,0.063 -0.01,0.131 -0.01,0.196 -0.049,2.609 -0.424,5.174 -1.053,7.704 -0.025,0.139 -0.049,0.278 -0.074,0.417 -0.352,0.673 -0.699,1.35 -0.703,2.138 -1.23,2.877 -3.02,5.292 -5.736,6.938 -0.766,0.239 -1.387,0.775 -2.143,1.036 -0.062,0.259 -0.215,0.414 -0.494,0.419 -0.342,-0.043 -0.684,-0.082 -0.867,0.313 -0.221,0.214 -0.496,0.242 -0.783,0.224 -0.324,0.1 -0.738,-0.087 -0.969,0.308 -1.25,0.459 -2.545,0.706 -3.869,0.822 -0.48,-0.121 -0.961,-0.224 -1.42,0.069 -0.377,0.285 -0.803,0.207 -1.223,0.161 -1.127,-0.253 -2.289,0.096 -3.416,-0.191 -0.545,-0.367 -0.531,-0.92 -0.529,-1.492 0.012,-2.79 0.008,-5.581 0,-8.371 0,-0.393 0.086,-0.798 -0.096,-1.178 0.055,-0.42 0.32,-0.62 0.715,-0.688 1.66,0.086 3.32,0.231 4.975,-0.078 0.793,-0.368 1.707,-0.404 2.459,-0.892 0.787,-0.151 1.096,-0.787 1.422,-1.404 0.246,-0.108 0.178,-0.365 0.262,-0.55 0.816,-0.876 1.002,-2 1.225,-3.11 -0.01,-0.165 -0.018,-0.33 -0.027,-0.495 0.338,-0.589 0.133,-1.285 0.371,-1.895 0.09,-0.239 0.096,-0.489 0.096,-0.741 0.092,-2.021 -0.074,-4.027 -0.377,-6.02 -0.088,-0.572 -0.15,-1.186 -0.572,-1.658 -0.49,-0.853 -0.98,-1.705 -1.471,-2.558 -0.127,-0.402 -0.383,-0.672 -0.797,-0.781 -0.447,-0.248 -0.895,-0.496 -1.34,-0.743 -0.463,-0.517 -1.119,-0.333 -1.689,-0.461 z"
   id="path3433"
   style="fill:#6c6c6c;fill-rule:evenodd" />
<path
   d="m 258.496,26.41701 c -0.317,0.51 -0.237,1.08 -0.237,1.635 -0.005,14.312 -0.009,28.625 -0.012,42.938 -0.431,-0.287 -0.245,-0.727 -0.246,-1.099 -0.009,-14.146 -0.009,-28.291 0.001,-42.437 0,-0.479 -0.231,-1.084 0.483,-1.318 0.063,0.06 0.087,0.122 0.068,0.185 -0.016,0.064 -0.036,0.096 -0.057,0.096 z"
   id="path3435"
   style="fill:#5a5a5a;fill-rule:evenodd" />
<path
   d="m 305.064,26.41101 c -7.049,0 -14.098,0 -21.147,0 0.045,-0.532 0.442,-0.471 0.799,-0.471 6.43,0.004 12.86,0.006 19.29,0.022 0.35,0.001 0.699,0.126 1.047,0.193 0.078,0.054 0.107,0.109 0.084,0.167 -0.024,0.059 -0.049,0.089 -0.073,0.089 z"
   id="path3437"
   style="fill:#616161;fill-rule:evenodd" />
<path
   d="m 295.219,71.07001 c 0.301,-0.513 0.238,-1.079 0.238,-1.635 0,-10.066 0,-20.131 0.002,-30.197 0,-0.349 0.041,-0.697 0.07,-1.045 0,-0.012 0.066,-0.032 0.098,-0.026 0.037,0.007 0.07,0.037 0.105,0.057 0.012,10.654 0.021,21.308 0.035,31.962 0.002,0.455 0.018,0.899 -0.551,1.044 10e-4,-0.053 10e-4,-0.106 0.003,-0.16 z"
   id="path3439"
   style="fill:#595959;fill-rule:evenodd" />
<path
   d="m 269.777,70.81701 c 0,-4.626 -0.004,-9.252 0.007,-13.878 0.001,-0.419 -0.157,-0.887 0.229,-1.243 0.231,0.189 0.011,0.529 0.238,0.719 0.015,4.626 0.029,9.252 0.041,13.878 0.001,0.271 0.046,0.574 -0.29,0.713 -0.107,-0.023 -0.182,-0.086 -0.225,-0.189 z"
   id="path3441"
   style="fill:#686868;fill-rule:evenodd" />
<path
   d="m 270.296,41.52701 c -0.601,-0.4 -0.519,-1.022 -0.519,-1.613 -0.002,-4.419 0,-8.838 0,-13.258 0.462,-0.14 0.268,0.372 0.479,0.481 0.013,4.797 0.027,9.593 0.04,14.39 z"
   id="path3443"
   style="fill:#686868;fill-rule:evenodd" />
<path
   d="m 270.256,27.13701 c -0.16,-0.16 -0.319,-0.32 -0.479,-0.481 -0.354,-0.391 -0.821,-0.23 -1.24,-0.231 -3.346,-0.014 -6.693,-0.008 -10.041,-0.008 -0.003,-0.094 -0.007,-0.187 -0.011,-0.28 0.203,-0.279 0.502,-0.192 0.771,-0.193 3.233,-0.004 6.468,-0.003 9.702,-0.004 0.803,-0.001 1.479,0.133 1.298,1.197 z"
   id="path3445"
   style="fill:#606060;fill-rule:evenodd" />
<path
   d="m 323.322,58.41501 c -0.117,-0.61 0.057,-1.188 0.209,-1.763 0.578,-2.197 0.443,-4.481 0.898,-6.709 0.029,0.335 0.061,0.669 0.092,1.004 0.022,2.557 -0.263,5.064 -1.199,7.468 z"
   id="path3447"
   style="fill:#636363;fill-rule:evenodd" />
<path
   d="m 269.777,70.81701 c 0.075,0.063 0.15,0.126 0.226,0.189 -0.216,0.301 -0.532,0.297 -0.856,0.297 -3.384,-0.003 -6.767,0 -10.149,-0.01 -0.182,0 -0.362,-0.105 -0.544,-0.162 3.074,-0.026 6.148,-0.044 9.223,-0.084 0.702,-0.008 1.434,0.157 2.1,-0.23 z"
   id="path3449"
   style="fill:#575757;fill-rule:evenodd" />
<path
   d="m 301,60.02701 c 0.373,0.363 0.207,0.828 0.211,1.246 0.016,2.748 0.021,5.496 -0.004,8.243 -0.006,0.59 0.111,1.094 0.49,1.538 0.084,0.046 0.111,0.091 0.084,0.136 -0.029,0.044 -0.059,0.066 -0.086,0.066 -0.566,-0.126 -0.748,-0.508 -0.744,-1.051 0.022,-3.392 0.035,-6.785 0.049,-10.178 z"
   id="path3451"
   style="fill:#4f4f4f;fill-rule:evenodd" />
<path
   d="m 295.219,71.07001 c -0.002,0.053 -0.004,0.107 -0.002,0.16 -3.564,0.024 -7.127,0.046 -10.69,0.075 -0.387,0.003 -0.704,-0.084 -0.867,-0.473 l 0.088,-0.022 c 0.066,-0.106 0.13,-0.109 0.19,0.005 0.469,0.291 0.991,0.237 1.506,0.238 3.257,0.006 6.515,0.011 9.775,0.017 z"
   id="path3453"
   style="fill:#575757;fill-rule:evenodd" />
<path
   d="m 271.22,54.52401 c 0.251,-0.376 0.642,-0.263 0.985,-0.263 3.159,-0.007 6.318,-0.008 9.477,10e-4 0.376,0.001 0.826,-0.143 1.047,0.352 -3.836,-0.03 -7.672,-0.06 -11.509,-0.09 z"
   id="path3455"
   style="fill:#4c4c4c;fill-rule:evenodd" />
<path
   d="m 311.547,42.49801 c 0.961,0.691 0.707,1.82 0.914,2.749 0.381,1.691 0.299,3.439 0.275,5.17 -0.543,-0.008 -0.328,-0.43 -0.348,-0.687 -0.074,-0.966 0.105,-1.943 -0.102,-2.906 -0.245,-1.442 -0.491,-2.884 -0.739,-4.326 z"
   id="path3457"
   style="fill:#656565;fill-rule:evenodd" />
<path
   d="m 296.232,37.74001 c -0.129,-0.191 -0.049,-0.283 0.154,-0.283 2.887,-0.003 5.773,-0.002 8.664,0.171 -0.822,0.038 -1.645,0.076 -2.465,0.114 -2.118,0 -4.235,-10e-4 -6.353,-0.002 z"
   id="path3459"
   style="fill:#555555;fill-rule:evenodd" />
<path
   d="m 306.689,59.26201 c 0.01,0.068 0.02,0.137 0.029,0.206 -1.67,0.038 -3.346,0.277 -5.004,-0.128 1.659,-0.027 3.317,-0.052 4.975,-0.078 z"
   id="path3461"
   style="fill:#535353;fill-rule:evenodd" />
<path
   d="m 312.057,53.30601 c 0.059,1.22 -0.1,2.356 -1.225,3.11 0.516,-0.994 0.611,-2.154 1.225,-3.11 z"
   id="path3463"
   style="fill:#666666;fill-rule:evenodd" />
<path
   d="m 312.287,46.82401 c 0.42,0.725 0.113,1.517 0.211,2.271 0.057,0.444 -0.168,0.941 0.238,1.322 -0.004,0.197 -0.047,0.376 -0.238,0.481 -0.098,-0.057 -0.172,-0.136 -0.223,-0.236 0.004,-1.279 0.008,-2.558 0.012,-3.838 z"
   id="path3465"
   style="fill:#656565;fill-rule:evenodd" />
<path
   d="m 323.822,41.04701 c -0.318,-0.847 -1.012,-1.617 -0.537,-2.626 0.518,0.806 0.602,1.701 0.537,2.626 z"
   id="path3467"
   style="fill:#696969;fill-rule:evenodd" />
<path
   d="m 301.695,71.25601 c 0,-0.067 0.002,-0.134 0.002,-0.202 1.113,0.097 2.252,-0.219 3.344,0.204 -1.115,-0.001 -2.231,-0.001 -3.346,-0.002 z"
   id="path3469"
   style="fill:#575757;fill-rule:evenodd" />
<path
   d="m 314.666,68.94301 c 0.637,-0.508 1.254,-1.049 2.143,-1.036 -0.647,0.485 -1.233,1.094 -2.143,1.036 z"
   id="path3471"
   style="fill:#606060;fill-rule:evenodd" />
<path
   d="m 322.545,60.96901 c -0.309,-0.892 0.133,-1.536 0.703,-2.138 -0.016,0.784 -0.408,1.445 -0.703,2.138 z"
   id="path3473"
   style="fill:#636363;fill-rule:evenodd" />
<path
   d="m 312.275,50.66201 c 0.074,0.079 0.148,0.158 0.223,0.236 -0.023,0.67 0.141,1.387 -0.469,1.914 0.006,-0.726 0.022,-1.45 0.246,-2.15 z"
   id="path3475"
   style="fill:#575757;fill-rule:evenodd" />
<path
   d="m 306.252,37.95001 c 0.703,-0.228 1.344,-0.054 1.953,0.307 0.004,0.003 -0.016,0.083 -0.039,0.093 -0.072,0.031 -0.15,0.046 -0.227,0.067 -0.562,-0.156 -1.125,-0.312 -1.687,-0.467 z"
   id="path3477"
   style="fill:#5e5e5e;fill-rule:evenodd" />
<path
   d="m 310.57,56.96601 c -0.137,0.811 -0.467,1.425 -1.422,1.404 0.473,-0.468 0.948,-0.936 1.422,-1.404 z"
   id="path3479"
   style="fill:#5e5e5e;fill-rule:evenodd" />
<path
   d="m 309.85,26.67601 c -0.486,0.435 -0.959,0.188 -1.434,-0.024 -0.078,-0.05 -0.104,-0.101 -0.078,-0.15 0.026,-0.049 0.053,-0.074 0.078,-0.074 0.492,0 0.982,0.008 1.434,0.248 z"
   id="path3481"
   style="fill:#565656;fill-rule:evenodd" />
<path
   d="m 318.142,30.23401 c -0.686,-0.055 -1.186,-0.409 -1.561,-0.966 0.702,0.03 1.122,0.514 1.561,0.966 z"
   id="path3483"
   style="fill:#5c5c5c;fill-rule:evenodd" />
<path
   d="m 305.064,26.41101 c -0.004,-0.085 -0.008,-0.17 -0.012,-0.254 0.637,0.019 1.273,0.038 1.91,0.057 -0.595,0.419 -1.269,0.108 -1.898,0.197 z"
   id="path3485"
   style="fill:#505050;fill-rule:evenodd" />
<path
   d="m 324.279,43.41801 c -0.078,0.051 -0.1,0.508 -0.23,0.095 -0.121,-0.38 -0.014,-0.831 -0.008,-1.251 0.055,0 0.109,0 0.164,-10e-4 0.025,0.385 0.051,0.771 0.074,1.157 z"
   id="path3487"
   style="fill:#505050;fill-rule:evenodd" />
<path
   d="m 324.205,42.26101 -0.082,0.002 -0.082,-0.001 c -0.439,-0.34 -0.215,-0.813 -0.248,-1.234 0.504,0.289 0.303,0.812 0.412,1.233 z"
   id="path3489"
   style="fill:#595959;fill-rule:evenodd" />
<path
   d="m 313.305,69.67501 c 0.09,-0.654 0.418,-0.654 0.867,-0.313 -0.289,0.104 -0.578,0.209 -0.867,0.313 z"
   id="path3491"
   style="fill:#5e5e5e;fill-rule:evenodd" />
<path
   d="m 306.264,71.09801 c 0.453,-0.433 0.93,-0.385 1.42,-0.069 -0.473,0.023 -0.948,0.046 -1.42,0.069 z"
   id="path3493"
   style="fill:#4f4f4f;fill-rule:evenodd" />
<path
   d="m 308.416,26.42701 c 0,0.075 0,0.15 0,0.225 -0.301,0 -0.6,0 -0.951,0 0.223,-0.347 0.543,-0.147 0.766,-0.267 0.07,-0.03 0.132,-0.015 0.185,0.042 z"
   id="path3495"
   style="fill:#515151;fill-rule:evenodd" />
<path
   d="m 311.553,70.20701 c 0.225,-0.415 0.543,-0.532 0.969,-0.308 -0.323,0.103 -0.647,0.206 -0.969,0.308 z"
   id="path3497"
   style="fill:#535353;fill-rule:evenodd" />
<path
   d="m 282.737,42.26001 c 0.002,-0.073 0.003,-0.147 0.003,-0.22 0.179,-0.162 0.356,-0.323 0.535,-0.485 0.289,0.596 -0.147,0.632 -0.541,0.702 l 0.003,0.003 z"
   id="path3499"
   style="fill:#5b5b5b;fill-rule:evenodd" />
<path
   d="m 311.332,27.12601 c -0.33,0 -0.662,0 -1.035,0 0.15,-0.313 0.379,-0.18 0.543,-0.241 0.213,-0.018 0.424,-0.031 0.492,0.241 z"
   id="path3501"
   style="fill:#5c5c5c;fill-rule:evenodd" />
<path
   d="m 312.965,27.41201 c -0.441,0.409 -0.697,0.117 -0.938,-0.245 0.313,0.082 0.625,0.164 0.938,0.245 z"
   id="path3503"
   style="fill:#545454;fill-rule:evenodd" />
<path
   d="m 309.279,39.16001 c 0.543,-0.022 0.816,0.23 0.797,0.781 -0.266,-0.261 -0.531,-0.521 -0.797,-0.781 z"
   id="path3505"
   style="fill:#565656;fill-rule:evenodd" />
<path
   d="m 270.251,56.41501 c -0.279,-0.173 -0.224,-0.458 -0.238,-0.719 0.033,-0.093 0.065,-0.186 0.099,-0.279 0.054,0.104 0.108,0.208 0.162,0.313 -0.008,0.228 -0.016,0.457 -0.023,0.685 z"
   id="path3507"
   style="fill:#5a5a5a;fill-rule:evenodd" />
<path
   d="m 148.932,48.42301 c -1.876,6.386 -3.746,12.773 -5.636,19.155 -0.315,1.065 -0.278,2.521 -1.111,3.065 -0.764,0.5 -2.088,0.16 -3.165,0.163 -2.999,0.008 -5.999,-0.024 -8.997,0.021 -0.764,0.012 -1.123,-0.176 -1.311,-0.96 -3.383,-14.098 -6.786,-28.191 -10.218,-42.277 -0.202,-0.829 -0.058,-1.022 0.779,-1.018 4.918,0.031 9.836,0.037 14.754,-0.005 0.87,-0.007 1.032,0.347 1.134,1.103 0.868,6.454 1.78,12.901 2.683,19.351 0.015,0.108 0.088,0.208 0.246,0.567 0.56,-2.355 1.07,-4.483 1.57,-6.613 1.049,-4.472 2.118,-8.939 3.115,-13.423 0.183,-0.822 0.553,-0.984 1.302,-0.978 3.519,0.031 7.038,0.05 10.556,-0.011 0.92,-0.016 1.209,0.312 1.401,1.155 1.437,6.308 2.924,12.605 4.398,18.905 0.063,0.27 0.15,0.534 0.409,0.824 0.296,-1.664 0.603,-3.325 0.888,-4.99 0.835,-4.882 1.679,-9.764 2.477,-14.652 0.144,-0.883 0.403,-1.262 1.413,-1.246 4.397,0.067 8.796,0.043 13.195,0.016 0.787,-0.005 1.015,0.125 0.815,0.998 -3.221,14.054 -6.411,28.116 -9.574,42.183 -0.185,0.823 -0.481,1.085 -1.335,1.075 -3.958,-0.05 -7.917,-0.055 -11.875,0.002 -0.911,0.013 -1.211,-0.318 -1.448,-1.138 -1.994,-6.907 -4.036,-13.8 -6.064,-20.697 -0.055,-0.186 -0.115,-0.37 -0.173,-0.554 -0.077,-0.007 -0.153,-0.014 -0.228,-0.021 z"
   id="path3509"
   style="fill:#fefefe;fill-rule:evenodd" />
<path
   d="m 98.245995,56.70801 c 1.64,0 3.025005,0 4.411005,0 3.958,0 7.917,0.022 11.875,-0.018 0.837,-0.009 1.094,0.234 1.085,1.076 -0.039,3.998 -0.04,7.997 0,11.995 0.009,0.852 -0.27,1.065 -1.093,1.063 -12.235,-0.024 -24.470005,-0.025 -36.706005,0.001 -0.838,0.002 -1.091,-0.226 -1.072,-1.068 0.054,-2.398 0.048,-4.798 0.003,-7.197 -0.015,-0.81 0.213,-1.43 0.724,-2.06 5.111,-6.304 10.195,-12.629 15.284,-18.951 0.192,-0.239 0.36,-0.498 0.667,-0.926 -1.363,0 -2.542,0 -3.72,0 -3.719,0 -7.438,-0.03 -11.155,0.022 -0.914,0.013 -1.138,-0.264 -1.127,-1.148 0.047,-3.918 0.042,-7.837 0.003,-11.755 -0.008,-0.839 0.138,-1.182 1.097,-1.179 11.555,0.035 23.111005,0.03 34.666005,0.005 0.812,-0.001 1.089,0.206 1.131,1.046 0.126,2.554 0.319,5.106 0.563,7.652 0.069,0.721 -0.319,1.117 -0.687,1.573 -5.115,6.352 -10.234,12.701 -15.352005,19.05 -0.144,0.186 -0.276,0.381 -0.597,0.819 z"
   id="path3511"
   style="fill:#fefefe;fill-rule:evenodd" />
<path
   d="m 208.183,52.73101 c -3.958,0 -7.916,0.022 -11.873,-0.017 -0.859,-0.009 -1.115,0.27 -1.057,1.105 0.172,2.487 1.369,4.294 3.515,5.498 1.673,0.938 3.504,1.353 5.397,1.428 5.008,0.199 9.991,-0.074 14.916,-1.035 0.839,-0.164 1.031,-0.057 0.946,0.806 -0.258,2.624 -0.483,5.252 -0.625,7.885 -0.045,0.835 -0.371,1.194 -1.115,1.424 -2.498,0.771 -5.064,1.153 -7.656,1.349 -5.189,0.392 -10.378,0.634 -15.515,-0.548 -7.744,-1.782 -12.398,-6.574 -13.936,-14.362 -1.044,-5.286 -0.978,-10.574 0.28,-15.816 1.965,-8.193 7.694,-13.247 16.081,-14.244 3.953,-0.47 7.894,-0.455 11.806,0.403 4.535,0.996 7.595,3.705 9.342,7.97 1.505,3.675 2.005,7.552 2.31,11.462 0.146,1.872 0.127,3.755 0.25,5.629 0.056,0.854 -0.24,1.088 -1.073,1.08 -3.997,-0.037 -7.995,-0.017 -11.993,-0.017 z"
   id="path3513"
   style="fill:#fefefe;fill-rule:evenodd" />
<path
   d="m 226.726,48.60801 c 0,-6.914 0.027,-13.828 -0.029,-20.742 -0.009,-1.096 0.319,-1.316 1.344,-1.303 4.316,0.057 8.633,0.047 12.949,0.004 0.878,-0.008 1.154,0.202 1.152,1.124 -0.03,14.028 -0.028,28.057 -0.002,42.084 0.002,0.87 -0.284,1.056 -1.092,1.049 -4.396,-0.035 -8.793,-0.051 -13.189,0.009 -1.019,0.014 -1.154,-0.372 -1.15,-1.244 0.03,-6.992 0.017,-13.986 0.017,-20.981 z"
   id="path3515"
   style="fill:#fefefe;fill-rule:evenodd" />
<path
   d="m 31.393995,57.78401 c -4.36,0 -8.72,0.004 -13.08,-0.001 -1.554,-0.002 -1.773,-0.192 -1.743,-1.701 0.085,-4.195 -0.301,-8.405 0.21,-12.585 0.502,-4.109 2.521,-6.462 6.027,-7.33 4.074,-1.007 7.641,0.121 9.884,3.347 0.754,1.084 1.239,0.999 2.217,0.377 3.104,-1.972 6.272,-3.843 9.426,-5.734 0.46,-0.275 0.932,-0.759 1.529,-0.425 0.592,0.33 0.457,0.968 0.459,1.518 0.007,1.439 -0.017,2.88 0.007,4.319 0.016,0.933 -0.336,1.597 -1.167,2.056 -3.36,1.854 -6.715,3.717 -10.055,5.607 -1.217,0.688 -2.327,0.032 -3.485,-0.142 -1.201,-0.181 -1.981,-0.63 -2.304,-1.991 -0.459,-1.942 -2.035,-2.76 -4.188,-2.498 -1.977,0.241 -2.923,1.255 -3.024,3.36 -0.063,1.317 0.049,2.645 -0.054,3.957 -0.085,1.073 0.362,1.216 1.297,1.211 6.959,-0.037 13.919,-0.021 20.879,-0.02 2.068,0 2.094,0.027 2.096,2.064 0,1 0.007,2 -0.002,3 -0.014,1.365 -0.241,1.605 -1.611,1.608 -4.438,0.009 -8.878,0.003 -13.318,0.003 z"
   id="path3517"
   style="fill:#fefefe;fill-rule:evenodd" />
<path
   d="m 16.285995,70.08301 c 0.002,-1.919 0.105,-3.834 0.299,-5.744 0.146,-1.442 0.38,-1.627 1.839,-1.394 0.828,0.132 1.649,0.333 2.482,0.408 1.148,0.103 1.471,0.726 1.382,1.785 -0.143,1.711 -0.228,3.428 -0.33,5.143 -0.071,1.199 -0.071,2.398 0.136,3.586 0.264,1.509 1.074,2.374 2.334,2.507 1.463,0.154 2.392,-0.364 2.927,-1.905 0.562,-1.618 0.932,-3.301 1.419,-4.946 0.271,-0.917 0.564,-1.833 0.929,-2.715 1.425,-3.447 4.012,-5.145 7.755,-5.086 3.729,0.058 6.414,1.689 7.888,5.172 0.709,1.675 1.042,3.445 1.159,5.243 0.213,3.277 0.012,6.549 -0.254,9.818 -0.094,1.16 -0.617,1.538 -1.727,1.299 -0.857,-0.185 -1.728,-0.338 -2.6,-0.42 -1.096,-0.103 -1.519,-0.617 -1.438,-1.73 0.188,-2.589 0.465,-5.178 0.34,-7.781 -0.041,-0.835 -0.106,-1.677 -0.262,-2.497 -0.225,-1.184 -0.815,-2.069 -2.153,-2.225 -1.489,-0.173 -2.393,0.247 -3.064,1.551 -0.776,1.507 -1.041,3.181 -1.478,4.797 -0.323,1.195 -0.617,2.396 -1.178,3.512 -1.669,3.318 -4.621,4.872 -8.74,4.587 -3.279,-0.227 -5.735,-2.235 -6.89,-5.616 -0.816,-2.392 -0.839,-4.866 -0.775,-7.349 z"
   id="path3519"
   style="fill:#fefefe;fill-rule:evenodd" />
<path
   d="m 31.333995,29.70101 c -4.277,0 -8.554,0.003 -12.831,-0.001 -1.779,-10e-4 -1.937,-0.158 -1.937,-1.883 -0.002,-5.476 -0.003,-10.952 0,-16.429 10e-4,-1.5579997 0.173,-1.7289997 1.702,-1.7409997 0.799,-0.006 1.599,-0.008 2.398,0 1.419,0.017 1.641,0.238 1.643,1.6999997 0.007,3.517 0.032,7.036 -0.019,10.552 -0.013,0.886 0.2,1.197 1.122,1.144 1.395,-0.081 2.799,-0.062 4.195,-0.004 0.792,0.033 1.014,-0.224 1.003,-1.014 -0.044,-3.197 -0.022,-6.396 -0.016,-9.593 0.003,-1.489 0.157,-1.636 1.663,-1.649 0.799,-0.007 1.599,-0.006 2.398,0 1.517,0.012 1.671,0.156 1.675,1.637 0.007,3.158 0.034,6.316 -0.018,9.473 -0.015,0.876 0.186,1.17 1.114,1.152 3.117,-0.06 6.236,0.006 9.353,-0.038 1.129,-0.016 1.616,0.395 1.559,1.543 -0.057,1.156 -0.006,2.318 -0.014,3.477 -0.01,1.426 -0.233,1.665 -1.68,1.669 -4.436,0.012 -8.873,0.005 -13.31,0.005 z"
   id="path3521"
   style="fill:#fefefe;fill-rule:evenodd" />
<path
   d="m 283.938,70.81601 c -0.063,0 -0.128,-0.002 -0.19,-0.005 0,-5.02 0,-10.04 0,-15.059 0.063,-10e-4 0.127,-10e-4 0.19,-10e-4 0,5.021 0,10.043 0,15.065 z"
   id="path3523"
   style="fill:#5c5c5c;fill-rule:evenodd" />
<path
   d="m 283.735,40.73901 c 0,-4.587 0,-9.174 0,-13.762 0.039,0 0.077,0 0.116,-0.001 0,4.603 0,9.206 0,13.809 -0.039,-0.015 -0.077,-0.031 -0.116,-0.046 z"
   id="path3525"
   style="fill:#5c5c5c;fill-rule:evenodd" />
<path
   d="m 282.734,42.25701 c -0.134,0.075 -0.268,0.215 -0.402,0.216 -3.613,0.012 -7.227,0.01 -10.841,-0.213 3.748,0 7.497,0 11.246,0 l -0.003,-0.003 z"
   id="path3527"
   style="fill:#575757;fill-rule:evenodd" />
<path
   d="m 201.658,43.71601 c -1.839,0 -3.68,-0.022 -5.519,0.012 -0.63,0.012 -0.843,-0.197 -0.821,-0.822 0.041,-1.157 -0.029,-2.317 0.323,-3.448 0.845,-2.714 2.765,-3.961 5.593,-4.179 5.045,-0.39 6.958,3.71 6.647,7.878 -0.047,0.635 -0.432,0.557 -0.825,0.557 -1.799,0.004 -3.599,0.002 -5.398,0.002 z"
   id="path3529"
   style="fill:#fecb00;fill-rule:evenodd" />
</svg>