<?xml version="1.0" encoding="UTF-8" standalone="no"?>
<!-- Created with Inkscape (http://www.inkscape.org/) -->
<svg xmlns:rdf="http://www.w3.org/1999/02/22-rdf-syntax-ns#" xmlns="http://www.w3.org/2000/svg" height="323.43" width="600" version="1.1" xmlns:cc="http://creativecommons.org/ns#" xmlns:dc="http://purl.org/dc/elements/1.1/">
 <metadata>
  <rdf:RDF>
   <cc:Work rdf:about="">
    <dc:format>image/svg+xml</dc:format>
    <dc:type rdf:resource="http://purl.org/dc/dcmitype/StillImage"/>
    <dc:title/>
   </cc:Work>
  </rdf:RDF>
 </metadata>
 <g transform="translate(257.88603,-597.58418)">
  <g fill-rule="evenodd" fill="#3f1663" transform="matrix(1.3137477,0,0,1.3137477,-13.213162,-238.22772)">
   <path d="m-186.19,762.5s0.0221-3.5273,0.15432-5.6217l40.586,0.13227-0.13228,2.4691c-0.0441,7.2531,4.3651,14.175,8.2451,17.019,3.8801,2.8439,9.4136,3.7919,12.809,3.7919,8.664-0.022,16.601-5.313,16.689-13.47-0.2866-7.0988-4.321-10.582-10.075-13.294-5.1587-2.425-14.021-6.1728-23.611-10.935-9.612-4.7619-19.996-10.538-28.175-16.997-11.817-9.3474-17.13-21.406-16.49-38.183,0.55115-14.286,6.7681-26.565,18.364-36.75,11.618-10.207,25.926-14.264,41.071-14.264,19.268,0,35.362,7.7822,46.01,20.436,10.802,13.272,12.875,25.838,13.338,35.075l0.06614,1.7857h-42.085c-0.41887-4.343-2.4691-9.5238-4.9383-12.346-2.888-3.3289-7.3413-5.5115-12.919-5.4894-3.2187,0-6.9885,0.97002-10.185,2.9982-3.1305,1.94-5.7099,5.2028-5.7099,9.5018-0.0441,4.6517,2.1384,8.2672,8.0908,11.31,5.8642,3.0423,23.545,10.847,26.036,11.817,25.22,9.8324,41.16,25.727,42.967,49.735l0.04409,1.6755c0.04409,8.1129-2.403,22.178-11.706,34.436-9.3254,12.257-25.463,22.972-46.605,22.972-41.821-0.15432-61.75-30.511-61.839-57.804"/>
   <path d="M-1.8638,882.39c37.787-0.04,57.738-27.65,57.804-53.62v-125.53h-40.366v52.072,10.428c0,2.866-0.17637,6.6578-3.4391,10.141-3.0644,3.2848-6.9444,5.8422-13.404,5.8201-6.724,0.022-11.508-2.4691-13.933-5.8642-2.425-3.373-2.888-7.2751-2.91-10.097v-62.5h-40.961v63.404c0.06614,26.411,19.599,53.571,52.447,53.615,6.4153,0,12.765-1.3007,18.959-3.7698l2.9762-1.1684v3.1966l-0.02205,9.1931c0,1.8959-0.02205,4.6076-2.0723,8.179-2.0062,3.5714-6.4374,7.0988-13.889,7.0326-6.724,0.022-11.023-2.9321-13.316-5.9744-2.3369-3.0423-2.866-5.9965-2.9321-6.4153l-41.424-0.17637,0.8157,6.6138c4.828,22.641,25.463,45.458,55.666,45.414"/>
   <path d="m212.66,882.39c37.787-0.0441,57.738-27.645,57.804-53.615v-125.53h-40.366v52.072,10.428c0,2.866-0.35273,6.746-3.4391,10.141-3.0203,3.3069-6.9444,5.8422-13.382,5.8201-6.746,0.022-11.508-2.4691-13.933-5.8642-2.4471-3.373-2.91-7.2751-2.9321-10.097v-62.5h-40.939v63.404c0.0441,26.411,19.577,53.571,52.425,53.615,6.4153,0,12.765-1.3007,18.959-3.7698l2.9762-1.1684v3.1966l-0.0221,9.1931c0,1.94-0.0441,4.6076-2.0723,8.179-1.9841,3.5714-6.4153,7.0988-13.867,7.0326-6.724,0.022-11.045-2.9321-13.338-5.9744-2.3369-3.0423-2.8439-5.9965-2.9321-6.4153l-41.402-0.17637,0.8157,6.6138c4.806,22.641,25.441,45.458,55.644,45.414"/>
   <path d="m146.84,703.25-39.242,0,0-4.2989c0-2.6014,0.11023-5.4012,0.5732-7.9365,0.33068-1.8739,0.83774-3.5273,1.433-4.7619,0.97-1.896,1.6755-2.8439,3.8139-4.1446,2.1384-1.2566,6.5476-2.9321,15.278-2.9321h26.786v-42.967h-26.786c-12.72,0-23.898,2.2707-33.377,6.9003-7.0767,3.4392-13.029,8.2672-17.46,13.624-6.7019,8.0908-9.8986,16.909-11.508,24.317-1.5873,7.4515-1.6975,13.823-1.6975,17.901v116.07h42.967l-0.0221-71.142h39.242v-40.63z"/>
  </g>
 </g>
</svg>
