<?xml version="1.0" encoding="UTF-8" standalone="no"?>
<!-- Created with Inkscape (http://www.inkscape.org/) -->
<svg xmlns:rdf="http://www.w3.org/1999/02/22-rdf-syntax-ns#" xmlns="http://www.w3.org/2000/svg" height="218.62" width="600" version="1.1" xmlns:cc="http://creativecommons.org/ns#" xmlns:dc="http://purl.org/dc/elements/1.1/">
 <defs></defs>
 <metadata>
  <rdf:RDF>
   <cc:Work rdf:about="">
    <dc:format>image/svg+xml</dc:format>
    <dc:type rdf:resource="http://purl.org/dc/dcmitype/StillImage"/>
    <dc:title/>
   </cc:Work>
  </rdf:RDF>
 </metadata>
 <g fill-rule="nonzero" transform="translate(11.107015,-10.361565)">
  <path d="m461.7,213.19c2.5448,0,4.1406,1.9625,4.1406,4.3347,0,2.5232-1.7037,4.27-4.1406,4.27s-4.1406-1.7468-4.1406-4.27c0-2.3722,1.5743-4.3347,4.1406-4.3347m0-7.3108c-6.7285,0-12.249,4.5288-12.249,11.516,0,7.1598,5.4992,11.451,12.249,11.451,6.7716,0,12.249-4.2916,12.249-11.451,0-6.9873-5.5208-11.516-12.249-11.516" fill="#000"/>
  <path d="m535.53,228.28,14.816,0,0-5.2189-7.4402,0,0-3.4505,6.6422,0,0-5.0248-6.6422,0,0-3.4936,7.2029,0,0-5.2189-14.578,0,0,22.407z" fill="#000"/>
  <path d="m561.8,226.01c3.2564,2.2644,5.7149,2.9545,8.4753,2.9545,4.766,0,9.4889-2.631,9.4889-8.044,0-3.8602-1.8546-5.9952-6.1031-6.7069-1.7037-0.28035-4.0975-0.28035-3.9681-1.984,0.10783-1.7252,1.8762-1.9194,2.5663-1.9194,1.7468,0,3.278,0.73324,4.6582,1.7037l1.8546-4.6366c-2.135-1.3586-4.4425-1.984-6.9657-1.984-4.766,0-9.4242,2.9976-9.5105,8.4106-0.0863,2.2644,1.9409,4.7444,5.7365,5.4561,2.0056,0.38818,4.7229,0.58227,4.7229,2.2428,0,1.8978-2.1134,2.0487-2.8898,2.0919-2.2428,0.10782-4.2269-1.1861-5.6502-2.3291l-0.38818-0.34505-2.0272,5.0895z" fill="#000"/>
  <path d="m426.29,217.51-0.17253,0-4.0112-11.624-7.397,0-2.6742,22.385,7.0304,0,0.73323-9.8986c0.0863-0.90576,0.34505-1.5959,0.38819-2.5016h0.25878c0.0647,0.97045,3.8603,12.4,3.8603,12.4h3.774s3.8171-11.43,3.8602-12.4h0.25879c0.0647,0.90576,0.30192,1.5959,0.38818,2.5016l0.7548,9.8986h7.0304l-2.6957-22.385h-7.397l-3.9896,11.624h-0.17253,0.17253z" fill="#000"/>
  <path d="m492.31,219.67c-0.34505-1.1214-0.47444-2.1566-0.79793-3.2348l-3.1055-10.567h-7.6342l8.6478,22.407h6.405l8.6263-22.407h-7.6342l-3.1054,10.567c-0.32349,1.0783-0.45288,2.1134-0.79793,3.2348h-0.60384z" fill="#000"/>
  <path fill="#000" d="m513.52,228.28,7.2245,0,0-22.407-7.2245,0,0,22.407z"/>
  <path d="m-6.768,211.83,4.5504-0.0863-0.064697,16.433,7.5695,0.0431,0.043131-16.455,4.5504,0.1294,0.043131-6.2756-16.67-0.0647-0.021566,6.2756z" fill="#000"/>
  <path d="m36.417,205.69-0.04313,13.543c0,1.7684-0.7548,3.3427-2.8898,3.3211-2.135,0-2.8682-1.5743-2.8682-3.3427l0.04313-13.543-7.3323-0.0216-0.04313,13.435c-0.02157,6.6638,3.9896,9.6614,10.179,9.7046,6.1678,0.0216,10.222-2.9761,10.244-9.6183l0.04313-13.457-7.3323-0.0216z" fill="#000"/>
  <path d="m64.893,210.7,0.97046,0c2.1134,0,3.9896,0.30192,3.9681,2.782,0,2.4154-2.0487,2.7173-4.0759,2.6957h-0.88419l0.02157-5.4777zm-7.3323,17.684,7.3108,0.0431,0.02157-9.1654,0.17252,0,5.2836,9.1654,8.5831,0.0431-4.8954-7.2892c-0.45288-0.66853-1.4449-2.1997-1.8546-2.5232v-0.19409c3.0623-1.0136,5.1758-2.4369,5.1973-5.8874,0-5.7149-4.6366-6.75-9.7692-6.7716l-9.9633-0.0431-0.08626,22.622z" fill="#000"/>
  <path d="m91.004,228.51,7.2892,0.0216,0.02157-7.2676c0.02157-1.5096,0-3.0192-0.25879-4.5935h0.23722l7.0088,11.883,7.6989,0.0216,0.0647-22.622-7.0951-0.0216-0.0431,6.8148c0,1.9409-0.21565,3.9034,0.1294,5.8012h-0.25879l-7.1814-12.637-7.548-0.0216-0.0647,22.622z" fill="#000"/>
  <path d="m128.57,228.64,15.031,0.0431,0.0216-5.262-7.5264-0.0216,0-3.4721,6.7069,0.0216,0.0431-5.1111-6.7285-0.0216,0.0216-3.4936,7.2892,0.0216,0.0216-5.262-14.816-0.0647-0.0647,22.622z" fill="#000"/>
  <path d="m165.09,211.03,0.97046,0c2.135,0,3.9896,0.32349,3.9896,2.8035-0.0216,2.4154-2.0487,2.6957-4.0975,2.6957h-0.8842l0.0216-5.4992zm-7.3323,17.705,7.3108,0.0216,0.0216-9.1438,0.15096,0,5.3052,9.1654,8.5831,0.0431-4.8954-7.2892c-0.47444-0.66854-1.4233-2.1997-1.8546-2.5232v-0.19409c3.0839-1.0136,5.1973-2.4369,5.1973-5.909,0.0216-5.7149-4.615-6.75-9.7477-6.75l-9.9849-0.0431-0.0863,22.622z" fill="#000"/>
  <path d="m220.42,206.26c-1.7468-0.60384-3.6446-0.92732-5.5208-0.92732-6.6422,0-11.84,5.2836-11.84,11.883,0,6.4697,5.0464,11.473,11.494,11.473,1.488,0,4.5288-0.25878,5.7796-1.2292v-7.0951c-1.4449,0.97045-2.631,1.1214-4.3778,1.0567-2.8035-0.0863-4.8092-1.8546-4.8738-4.3347-0.0647-2.9761,1.1214-4.8523,3.8171-5.3052,2.1566-0.38818,4.119,0.15096,5.4992,1.1214l0.0216-6.6422z" fill="#000"/>
  <path d="m234.48,228.38,14.298,0,0-6.2756-7.052,0,0-16.304-7.2461,0,0,22.579z" fill="#000"/>
  <path d="m319.37,225.98c3.278,2.286,5.7365,2.9976,8.54,2.9976,4.7876,0,9.532-2.6526,9.532-8.1087,0-3.9034-1.8331-6.0384-6.1246-6.7716-1.7252-0.28036-4.119-0.30192-4.0112-2.0272,0.12939-1.7252,1.8762-1.9193,2.6094-1.9193,1.7252,0,3.2996,0.77636,4.6798,1.7468l1.8762-4.6798c-2.1781-1.3802-4.4856-2.0056-7.0304-2.0056-4.8307,0-9.4889,3.0408-9.6183,8.4753-0.0431,2.2644,1.984,4.766,5.8012,5.4992,2.0487,0.36662,4.766,0.60384,4.766,2.2644,0,1.9193-2.0919,2.0487-2.9114,2.0919-2.2644,0.10783-4.2484-1.1861-5.6933-2.3291l-0.38818-0.34505-2.0272,5.1111z" fill="#000"/>
  <path fill="#000" d="m349.49,228.43,7.2892,0,0-22.601-7.2892,0,0,22.601z"/>
  <path d="m289.49,225.98c3.2996,2.286,5.7365,2.9976,8.54,2.9976,4.7876,0,9.5536-2.6526,9.5536-8.1087,0-3.9034-1.8331-6.0384-6.1246-6.7716-1.7253-0.28036-4.1406-0.30192-4.0112-2.0272,0.10783-1.7252,1.8978-1.9193,2.6094-1.9193,1.7252,0,3.278,0.77636,4.6582,1.7468l1.8978-4.6798c-2.1781-1.3802-4.4857-2.0056-7.0304-2.0056-4.8307,0-9.532,3.0408-9.6183,8.4753-0.0647,2.2644,1.9625,4.766,5.8012,5.4992,2.0272,0.36662,4.766,0.60384,4.766,2.2644,0,1.9193-2.1134,2.0487-2.9114,2.0919-2.286,0.10783-4.27-1.1861-5.6933-2.3291l-0.40975-0.34505-2.0272,5.1111z" fill="#000"/>
  <path d="m385.78,206.26c-1.7468-0.60384-3.6662-0.92732-5.5208-0.92732-6.6207,0-11.818,5.2836-11.818,11.883,0,6.4697,5.0464,11.473,11.473,11.473,1.488,0,4.5288-0.25878,5.8012-1.2292v-7.0951c-1.4665,0.97045-2.631,1.1214-4.3994,1.0567-2.782-0.0863-4.8307-1.8546-4.8954-4.3347-0.0431-2.9761,1.143-4.8523,3.8387-5.3052,2.1566-0.38818,4.119,0.15096,5.4992,1.1214l0.0216-6.6422z" fill="#000"/>
  <path d="m272.25,225.45,0.66854,2.9114,7.6127,0-7.7636-22.558-8.3244,0-7.7636,22.558,7.6342,0,0.64697-2.9114,7.2892,0zm-6.2756-4.0544,2.4585-9.7477,0.17252-0.0647,0.17253,0.0647,2.4585,9.7477-5.262,0z" fill="#000"/>
  <path fill="#FFF" d="m6.1455,179.09,565.65,0,0-157.02-565.65,0,0,157.02z"/>
  <path fill="#000" d="m6.1455,22.072,565.65,0,0,157.02-565.65,0,0-157.02zm580.89-11.732-596.29,0c-1.0136,0-1.8546,0.84106-1.8546,1.8546v176.82c0,1.0136,0.84106,1.8546,1.8546,1.8546h596.29c1.0352,0,1.8546-0.84106,1.8546-1.8546v-176.82c0-1.0136-0.81949-1.8546-1.8546-1.8546"/>
  <path d="m239.96,122.27c1.6606,0.36662,2.5448-1.7037,1.488-2.8035-6.0815-5.909-6.3619-13.133-6.3834-18.482-0.0216-6.3187,0.30192-12.551,6.3834-18.482,1.0567-1.0998,0.17253-3.1702-1.488-2.8035-2.8035,0.25879-15.419,7.7852-15.419,20.681,0,13.306,12.551,21.63,15.419,21.889m-23.744-47.919c26.741-17.102,61.139-14.902,92.625-9.3595,4.421,0.77636,5.8659-5.0032,5.8659-5.0032l7.6127,0.56071,5.4777,33.211s-0.43131,0.23722-7.5911,2.5016c-1.4449,0.51758-2.0703-0.04313-2.2213-0.6901-5.0464-12.465-21.091-20.574-38.559-20.983-7.7421,0.90576-17.36-0.02156-20.94,8.1518-1.79,3.9034-1.79,31.141-0.64697,36.317,0.64697,3.3427,2.1566,7.052,5.7796,8.2596,19.603,4.6798,41.039-0.21566,58.076-10.093,1.2939-0.49601,2.1781,0.0647,2.5663,1.2724l3.774,14.061c-33.944,11.602-81.906,16.649-112.96-4.4857-9.4026-6.6422-15.7-14.32-15.7-26.483,0-11.796,7.5264-20.746,16.843-27.237" fill="#000"/>
  <path d="m487.28,81.3,5.4561-2.1781c0.86263-0.34505,1.5959,0.15096,1.5959,1.1214v37.848c0,0.97045-0.73323,2.0272-1.5959,2.3938l-5.4561,2.1781c-0.88419,0.34505-1.5959-0.15096-1.5959-1.1214v-37.848c0-0.97046,0.71167-2.0487,1.5959-2.3938m-85.098-1.2077c-0.30192-0.30192-0.47445-0.71167-0.47445-1.1861,0-0.86263,0.6901-1.5743,1.488-1.5743h6.4913l0.0431-0.04313c0.51758-0.02157,1.0352,0.17252,1.4449,0.58227l19.452,20.617c0.7548,0.8195,0.77637,2.1566,0.0431,2.9761l-2.7173,3.1054c-0.73323,0.8195-1.9625,0.84107-2.7173,0.0431l-23.205-24.757,0.15096,0.23722zm41.169,6.5344-20.595-22.256,0.10783,0-64.136,0,0,7.8715c-0.17253,1.0136,0.23722,1.984,2.8682,2.6957,2.286,0.6254,5.2405,1.8115,7.5048,2.7173,2.0056,0.8195,2.5448,1.984,2.4801,3.5583v42.829c0.0647,1.5959-0.47445,2.7604-2.4801,3.5583-2.2644,0.90576-5.2189,2.1134-7.5048,2.7173-2.631,0.71167-3.0408,1.6821-2.8682,2.7173v7.8499h39.983v-7.8499c0.17252-1.0352-0.21566-2.0056-2.8467-2.7173-2.286-0.60384-5.2405-1.8115-7.5048-2.7173-2.0272-0.79793-2.5448-1.9625-2.4801-3.5583l-0.0431-33.944c0-0.77636,0.58228-1.4018,1.2724-1.4018,0.32348,0,0.5607,0.12939,0.77636,0.32348l36.964,42.98,37.287-43.972c0.23722-0.34505,0.6901-0.53914,1.1214-0.53914,0.6901,0,1.143,0.6254,1.143,1.4018l0.10783,35.152c0.0431,1.5959-0.45288,2.7604-2.4801,3.5583-2.286,0.90576-5.2189,2.1134-7.5264,2.7173-2.6094,0.71167-3.0192,1.6821-2.8467,2.7173v7.8499h76.45l0.0216-7.8499c0.17253-1.0352-0.23722-2.0056-2.8682-2.7173-2.286-0.60384-5.2405-1.8115-7.5048-2.7173-2.0272-0.79793-2.5232-1.9625-2.48-3.5583v-42.829c-0.0431-1.5743,0.45287-2.7388,2.48-3.5583,2.2644-0.90576,5.2189-2.0919,7.5048-2.7173,2.631-0.71167,3.0408-1.6821,2.8682-2.6957l-0.0216-7.8715h-64.244l-18.999,22.213c-0.17252,0.21566-0.43131,0.34505-0.73323,0.34505s-0.58227-0.0647-0.77636-0.30192" fill="#000"/>
  <path d="m107.12,85.613,0,37.848c0,0.97045,0.71167,1.4665,1.5959,1.1214l5.4561-2.1781c0.8842-0.34505,1.5959-1.4233,1.5959-2.3938v-37.848c0-0.97046-0.71166-1.4665-1.5959-1.1214l-5.4561,2.1781c-0.88419,0.34505-1.5959,1.4233-1.5959,2.3938m72.87,7.8283-7.1167,2.9329c-2.0487,0.86263-2.2644-0.49601-3.4074-1.7468-6.0384-12.357-19.215-21.436-32.154-17.102l0.0216,46.539c-0.0647,1.5743,0.45288,2.7388,2.48,3.5368,2.2644,0.90575,5.2189,2.1134,7.5048,2.7173,2.631,0.71167,3.0408,1.6821,2.8682,2.7173v7.8499h-78.111v-7.8499c-0.17252-1.0352,0.23722-2.0056,2.8682-2.7173,2.286-0.60384,5.2405-1.8115,7.5049-2.7173,2.0272-0.79793,2.5447-1.9625,2.4801-3.5368l0.02156-46.539c-12.939-4.3347-26.116,4.7444-32.154,17.102-1.1214,1.2508-1.3586,2.6094-3.4074,1.7468l-7.1167-2.9329c2.631-9.2301,7.2676-29.071,7.2676-29.071h123.16s4.6582,19.84,7.2892,29.071" fill="#000"/>
  <path d="m538.83,73.471-1.79-6.9226,0,6.9226-0.86263,0,0-8.5184,1.2077,0,1.8762,7.2461,1.8978-7.2461,1.1861,0,0,8.5184-0.86262,0,0-6.9226-1.79,6.9226-0.86263,0z" fill="#000"/>
  <path d="m532.62,65.863-2.135,0,0-0.92732,5.1973,0,0,0.92732-2.1566,0,0,7.5695-0.90576,0,0-7.5695z" fill="#000"/>
 </g>
</svg>
