<?xml version="1.0" encoding="UTF-8" standalone="no"?>
<svg xmlns:rdf="http://www.w3.org/1999/02/22-rdf-syntax-ns#" xmlns="http://www.w3.org/2000/svg" height="82.061mm" width="169.33mm" version="1.1" xmlns:cc="http://creativecommons.org/ns#" xmlns:dc="http://purl.org/dc/elements/1.1/" viewBox="0 0 599.99998 290.76687">
 <g transform="translate(176.13 -372.02)">
  <path d="m-176.13 582.24h511.6v-112.35h-511.6v112.35z" fill="#812990"/>
  <path d="m290.56 512.12c-0.45 0-0.8-0.35-0.8-0.8v-19.98c0-0.44-0.36-0.8-0.8-0.8h-17.6c-0.44 0-0.8 0.36-0.8 0.8v19.98c0 0.45-0.38 0.8-0.8 0.8h-23.01c-0.46 0-0.8 0.36-0.8 0.8v17.77c0 0.44 0.34 0.8 0.8 0.8h23.01c0.42 0 0.8 0.36 0.8 0.8v23.44c0 0.44 0.36 0.79 0.8 0.79h17.6c0.44 0 0.8-0.35 0.8-0.79v-23.44c0-0.44 0.35-0.8 0.8-0.8h21.42c0.44 0 0.79-0.36 0.79-0.8v-17.77c0-0.44-0.35-0.8-0.79-0.8" fill="#fff"/>
  <path d="m140.7 532.22c11.22-67.1-152.56-24.15-68.207-96.74 37.197-32.01-58.91-101.38 34.857-37.02 56.67 38.9 53.43 91.56 33.35 133.76" fill="#812990"/>
  <path d="m-52.357 507.11c-34.912-101.62 45.033-77.7 16.422 0.81-15.244 41.84 36.279 73.1 68.62 67.13 88.625-16.37 34.638 94.26-47.133 43.85-41.792-25.76-13.794-41.59-37.909-111.79" fill="#ffd400"/>
  <path d="m217.26 473.59c-3.69-11.4-8.59-22.33-14.7-32.28-18.32-29.86-47.42-50.96-86.78-49.84-89.479 0.55-69.185 78.1-35.553 81.76 37.953 4.13 88.983-45.05 95.923 47.94 4.66 62.41 19.33 51.2-30.71 96.96-47.241 43.2-0.49 61.55-0.49 25.45 0-49.22 75.96-46.16 78.65-122.41 0.44-12.44-1.2-32.37-6.34-47.58" fill="#ed145a"/>
  <path d="m223.42 515.22c-3.28-60.41-83.53-87.82-81.21-15.63 3 93.1-37.13 111.65-154.1 64.75 45.734 19.29 67.695 28.82 96.354 43.74 57.526 29.94 143.54-8.72 138.96-92.86" fill="#ef403d"/>
  <g fill="#fff">
   <path d="m21.907 504.99 4.186 48.85c0.029 0.29-0.172 0.58-0.503 0.58l-15.526 1.32c-0.3131 0.03-0.5902-0.18-0.6012-0.51l-4.2039-48.79c-0.011-0.32-0.2844-0.52-0.5798-0.51l-12.422 1.07c-0.2811 0.03-0.5545-0.19-0.5655-0.51l-1.1303-12.97c-0.0145-0.32 0.2225-0.57 0.4959-0.58l42.86-3.71c0.285-0.02 0.576 0.21 0.576 0.52l1.156 12.99c0.011 0.27-0.215 0.54-0.528 0.57l-12.714 1.09c-0.299 0.01-0.515 0.29-0.5 0.59"/>
   <path d="m-86.004 528.68c-0.539-4.28-3.03-6.78-7.394-7.41-4.466-0.66-7.472 1.03-8.972 5.04-0.07 0.15 0.01 0.28 0.17 0.28l15.967 2.33c0.149 0 0.262-0.09 0.229-0.24m-18.136 6.66c-0.59 5.76 1.94 9.03 7.519 9.84 2.866 0.39 5.236-0.41 7.19-2.4 0.215-0.24 0.634-0.39 0.923-0.36l12.808 1.86c0.314 0.03 0.438 0.31 0.314 0.57-1.284 2.67-2.804 4.71-4.467 6.18-4.59 3.9-10.716 5.28-18.299 4.17-7.018-0.99-12.418-3.73-16.078-8.25-3.66-4.53-4.96-10.11-4.05-16.56 0.96-6.62 3.72-11.61 8.37-14.91 4.62-3.32 10.467-4.47 17.427-3.44 6.932 1 12.011 3.76 15.329 8.32 3.332 4.55 4.524 10.36 3.54 17.29l-0.157 0.99c-0.025 0.28-0.31 0.51-0.609 0.45l-29.16-4.19c-0.3-0.07-0.58 0.14-0.6 0.44"/>
   <path d="m-67.463 553.41 3.876-56.4c0.018-0.32 0.291-0.54 0.587-0.5l12.707 0.86c0.295 0.03 0.528 0.29 0.506 0.58l-3.879 56.42c-0.033 0.3-0.27 0.53-0.602 0.51l-12.685-0.88c-0.299-0.02-0.543-0.29-0.51-0.59"/>
   <path d="m-17.489 529.65c-1.349-3.75-4.018-5.48-8.044-5.22-4.153 0.26-6.533 2.34-7.139 6.2-0.025 0.15 0.062 0.28 0.241 0.28l14.759-1c0.146 0 0.248-0.1 0.183-0.26m-15.051 9.54c0.587 5.24 3.5 7.7 8.674 7.34 2.599-0.15 4.576-1.32 5.983-3.5 0.149-0.25 0.51-0.48 0.831-0.48l11.766-0.79c0.3357-0.01 0.4816 0.18 0.4232 0.49-0.6307 2.62-1.6188 4.73-2.8476 6.35-3.3366 4.38-8.6046 6.81-15.65 7.28-6.508 0.42-11.886-1-16.042-4.38-4.153-3.36-6.403-8.12-6.764-14.11-0.423-6.19 1.094-11.16 4.645-15.03 3.511-3.89 8.598-6.01 15.029-6.42 6.45-0.42 11.519 1.11 15.394 4.57 3.8653 3.43 6.0602 8.45 6.4759 14.9l0.0437 0.82c0.0292 0.31-0.226 0.58-0.4958 0.59l-26.967 1.8c-0.299 0-0.51 0.26-0.499 0.57"/>
   <path d="m-130.22 525.98 4.49 26.69c0.04 0.3-0.14 0.58-0.44 0.64l-12.9 2.16c-0.29 0.04-0.59-0.15-0.63-0.45l-4.48-26.65c-0.08-0.32-0.35-0.53-0.65-0.47l-3.5 0.6c-0.3 0.05-0.58-0.16-0.63-0.46l-1.78-10.48c-0.05-0.3 0.15-0.6 0.46-0.64l3.5-0.59c0.31-0.07 0.49-0.37 0.46-0.64l-1.84-10.73c-0.03-0.3 0.15-0.59 0.47-0.63l12.91-2.17c0.3-0.05 0.58 0.16 0.63 0.45l1.83 10.74c0.03 0.29 0.33 0.49 0.63 0.43l6.9-1.15c0.3-0.02 0.58 0.16 0.64 0.44l1.76 10.48c0.06 0.33-0.15 0.62-0.45 0.65l-6.92 1.18c-0.3 0.05-0.5 0.3-0.46 0.6"/>
   <path d="m65.788 537.54c0-3.27-1.21-6.03-3.486-8.32-2.278-2.31-5.071-3.4-8.309-3.4-3.183 0-5.954 1.15-8.306 3.46-2.301 2.28-3.482 4.99-3.482 8.15 0 3.26 1.141 6.14 3.416 8.4 2.287 2.3 5.09 3.46 8.372 3.46 3.3 0 6.031-1.16 8.309-3.46 2.276-2.26 3.486-5.06 3.486-8.29m11.365 0c0 6.51-2.25 11.87-6.767 16.04-4.456 4.23-9.91 6.27-16.393 6.27-6.541 0-12.061-2.1-16.499-6.3-4.404-4.26-6.643-9.45-6.643-15.63 0-4.74 1.214-8.99 3.683-12.71 2.446-3.72 5.855-6.52 10.132-8.25 2.786-1.12 5.819-1.69 9.094-1.69 6.741 0 12.32 2.14 16.728 6.33 4.415 4.14 6.665 9.51 6.665 15.94"/>
   <path d="m126.03 517.36c0-4.37-1.55-8.01-4.61-11.06-3.02-3.02-6.72-4.51-11.04-4.51-4.22 0-7.96 1.56-11.048 4.61-3.044 3.02-4.605 6.59-4.605 10.82 0 4.38 1.503 8.16 4.554 11.19 3.039 3.05 6.729 4.61 11.099 4.61 4.39 0 8.02-1.56 11.04-4.61 3.06-3.03 4.61-6.75 4.61-11.05m15.12 0c0 8.68-2.97 15.82-8.96 21.37-5.92 5.58-13.19 8.31-21.81 8.31-8.66 0-16.014-2.82-21.949-8.38-5.863-5.64-8.824-12.54-8.824-20.78 0-6.3 1.622-11.95 4.893-16.9 3.252-4.96 7.766-8.68 13.483-10.99 3.737-1.47 7.757-2.22 12.087-2.22 8.99 0 16.4 2.82 22.27 8.4 5.84 5.54 8.81 12.65 8.81 21.19"/>
   <path d="m182.88 558.83-21.76-33.51c-0.17-0.24-0.32-0.21-0.34 0.11l-2.73 31.13c-0.01 0.32-0.27 0.53-0.59 0.51l-12.58-1.09c-0.32-0.02-0.54-0.3-0.51-0.6l4.48-51.59c0.02-0.3 0.29-0.55 0.59-0.49l12.61 1.07c0.31 0.02 0.67 0.29 0.85 0.52l21.77 33.52c0.14 0.25 0.3 0.21 0.32-0.1l2.71-31.14c0.03-0.3 0.29-0.52 0.59-0.51l12.62 1.1c0.31 0.02 0.51 0.29 0.49 0.6l-4.49 51.57c-0.03 0.31-0.29 0.54-0.58 0.53l-12.62-1.12c-0.31-0.02-0.67-0.24-0.83-0.51"/>
  </g>
  <path d="m382.6 510.78h-8.3c-0.34 0-0.59-0.27-0.55-0.61l1.82-14.43c0.01-0.34-0.2-0.6-0.55-0.6h-12.73c-0.34 0-0.64 0.26-0.68 0.6l-1.78 14.43c-0.06 0.34-0.37 0.61-0.7 0.61h-8.26c-0.35 0-0.57-0.27-0.53-0.61l4.46-36.4c0.04-0.31 0.35-0.6 0.68-0.6h8.32c0.32 0 0.56 0.29 0.54 0.6l-1.57 12.53c-0.03 0.31 0.2 0.59 0.54 0.59h12.72c0.35 0 0.63-0.28 0.7-0.59l1.5-12.53c0.02-0.31 0.33-0.6 0.67-0.6h8.31c0.34 0 0.57 0.29 0.54 0.6l-4.48 36.4c-0.03 0.34-0.31 0.61-0.67 0.61" fill="#812990"/>
  <path d="m400.02 502.57h2.61c2.1 0 3.77-0.23 5.01-0.66 1.22-0.42 2.31-1.11 3.25-2.12 2.15-2.25 3.23-5.35 3.23-9.33 0-3.16-0.71-5.47-2.13-6.9-1.36-1.46-3.57-2.17-6.58-2.17h-2.85c-0.32 0-0.63 0.26-0.67 0.61l-2.4 19.93c-0.04 0.36 0.19 0.64 0.53 0.64m9.2-29.23c1.2 0.13 2.35 0.31 3.35 0.55 1 0.25 1.93 0.57 2.74 0.96 0.85 0.36 1.59 0.86 2.35 1.41 1.97 1.52 3.51 3.52 4.59 6.04 1.08 2.51 1.62 5.27 1.62 8.32 0 1.97-0.24 3.87-0.71 5.71-0.46 1.83-1.13 3.55-1.99 5.08-0.84 1.56-1.86 2.95-3.06 4.18-1.22 1.22-2.54 2.2-3.99 2.98-1.55 0.77-3.35 1.34-5.34 1.68-2 0.37-4.54 0.53-7.58 0.53h-11.75c-0.37 0-0.59-0.27-0.55-0.61l4.46-36.4c0.06-0.31 0.34-0.6 0.68-0.6h11.02c1.55 0 2.92 0.06 4.16 0.17" fill="#812990"/>
 </g>
</svg>
