<?xml version="1.0" encoding="UTF-8" standalone="no"?>
<svg xmlns:rdf="http://www.w3.org/1999/02/22-rdf-syntax-ns#" xmlns="http://www.w3.org/2000/svg" height="96.241mm" width="169.33mm" version="1.1" xmlns:cc="http://creativecommons.org/ns#" xmlns:dc="http://purl.org/dc/elements/1.1/" viewBox="0 0 599.99998 341.00988">
 <g transform="translate(220.33 -346.9)">
  <path d="m-220.33 593.44h600v-131.76h-600v131.76z" fill="#812990"/>
  <path d="m327.01 511.2c-0.54 0-0.95-0.41-0.95-0.93v-23.44c0-0.51-0.41-0.93-0.93-0.93h-20.65c-0.52 0-0.94 0.42-0.94 0.93v23.44c0 0.52-0.44 0.93-0.94 0.93h-26.98c-0.53 0-0.94 0.42-0.94 0.95v20.84c0 0.51 0.41 0.93 0.94 0.93h26.98c0.5 0 0.94 0.42 0.94 0.94v27.5c0 0.51 0.42 0.92 0.94 0.92h20.65c0.52 0 0.93-0.41 0.93-0.92v-27.5c0-0.52 0.41-0.94 0.95-0.94h25.11c0.52 0 0.93-0.42 0.93-0.93v-20.84c0-0.53-0.41-0.95-0.93-0.95" fill="#fff"/>
  <path d="m151.24 534.78c13.16-78.7-178.92-28.32-79.986-113.46 43.626-37.54-69.09-118.9 40.876-43.41 66.46 45.62 62.67 107.38 39.11 156.87" fill="#812990"/>
  <path d="m-75.17 505.33c-40.94-119.18 52.815-91.13 19.26 0.95-17.879 49.07 42.547 85.73 80.477 78.73 103.94-19.2 40.623 110.55-55.278 51.43-49.013-30.22-16.177-48.78-44.459-131.11" fill="#ffd400"/>
  <path d="m241.03 466.02c-4.32-13.37-10.07-26.18-17.24-37.86-21.48-35.02-55.6-59.77-101.77-58.45-104.94 0.65-81.14 91.6-41.696 95.89 44.506 4.84 104.36-52.83 112.5 56.22 5.47 73.2 22.67 60.05-36.02 113.72-55.4 50.66-0.57 72.18-0.57 29.84 0-57.73 89.08-54.13 92.24-143.56 0.51-14.59-1.41-37.96-7.44-55.8" fill="#ed145a"/>
  <path d="m248.27 514.84c-3.85-70.84-97.97-102.99-95.25-18.33 3.52 109.19-43.55 130.95-180.73 75.94 53.637 22.62 79.392 33.8 113 51.3 67.47 35.12 168.34-10.23 162.98-108.91" fill="#ef403d"/>
  <g fill="#fff">
   <path d="m11.926 502.84 4.909 57.3c0.035 0.33-0.201 0.68-0.59 0.68l-18.208 1.55c-0.3673 0.03-0.6923-0.21-0.7051-0.6l-4.9304-57.23c-0.0128-0.36-0.3335-0.61-0.6799-0.59l-14.569 1.25c-0.33 0.03-0.65-0.22-0.663-0.6l-1.326-15.21c-0.017-0.37 0.261-0.67 0.582-0.68l50.266-4.35c0.334-0.02 0.676 0.25 0.676 0.61l1.355 15.23c0.013 0.32-0.252 0.64-0.62 0.67l-14.911 1.28c-0.35 0.02-0.603 0.34-0.586 0.69"/>
   <path d="m-114.63 530.63c-0.63-5.03-3.55-7.96-8.67-8.69-5.24-0.77-8.77 1.21-10.53 5.9-0.08 0.19 0.01 0.33 0.2 0.33l18.73 2.74c0.18 0 0.31-0.11 0.27-0.28m-21.27 7.81c-0.7 6.75 2.27 10.59 8.82 11.54 3.36 0.45 6.14-0.48 8.43-2.82 0.25-0.27 0.74-0.45 1.08-0.42l15.02 2.19c0.37 0.03 0.52 0.36 0.37 0.67-1.5 3.13-3.29 5.52-5.24 7.24-5.38 4.58-12.56 6.19-21.46 4.89-8.23-1.16-14.56-4.37-18.86-9.67-4.29-5.32-5.81-11.86-4.74-19.42 1.13-7.77 4.36-13.62 9.81-17.49 5.42-3.9 12.28-5.24 20.44-4.04 8.13 1.17 14.09 4.41 17.98 9.76 3.91 5.33 5.304 12.15 4.15 20.28l-0.18 1.16c-0.03 0.33-0.37 0.6-0.72 0.52l-34.19-4.91c-0.36-0.07-0.69 0.17-0.71 0.52"/>
   <path d="m-92.886 559.63 4.545-66.14c0.022-0.38 0.342-0.64 0.689-0.6l14.902 1.02c0.346 0.03 0.62 0.34 0.594 0.68l-4.549 66.16c-0.039 0.36-0.317 0.63-0.706 0.61l-14.877-1.03c-0.35-0.03-0.637-0.35-0.598-0.7"/>
   <path d="m-34.277 531.77c-1.583-4.4-4.713-6.43-9.434-6.12-4.87 0.3-7.662 2.73-8.372 7.27-0.03 0.18 0.072 0.32 0.282 0.32l17.31-1.17c0.171 0 0.291-0.11 0.214-0.3m-17.652 11.19c0.688 6.14 4.105 9.02 10.173 8.6 3.048-0.17 5.366-1.54 7.017-4.11 0.175-0.28 0.598-0.56 0.975-0.56l13.799-0.92c0.393-0.01 0.564 0.21 0.496 0.57-0.74 3.08-1.899 5.55-3.34 7.45-3.912 5.14-10.091 7.99-18.353 8.54-7.633 0.49-13.94-1.17-18.815-5.14-4.871-3.94-7.509-9.52-7.932-16.55-0.496-7.25 1.282-13.09 5.447-17.62 4.118-4.57 10.084-7.05 17.627-7.53 7.564-0.49 13.508 1.3 18.054 5.35 4.532 4.03 7.107 9.91 7.594 17.48l0.051 0.96c0.035 0.37-0.265 0.69-0.581 0.7l-31.627 2.1c-0.35 0-0.598 0.32-0.585 0.68"/>
   <path d="m-166.48 527.46 5.26 31.3c0.04 0.35-0.16 0.68-0.52 0.75l-15.13 2.54c-0.34 0.05-0.68-0.18-0.74-0.53l-5.25-31.26c-0.09-0.37-0.41-0.62-0.76-0.55l-4.11 0.71c-0.35 0.05-0.67-0.19-0.74-0.54l-2.08-12.3c-0.06-0.35 0.18-0.7 0.53-0.74l4.11-0.7c0.36-0.08 0.57-0.43 0.54-0.74l-2.16-12.59c-0.03-0.36 0.18-0.7 0.56-0.74l15.14-2.54c0.35-0.07 0.67 0.18 0.74 0.53l2.14 12.6c0.03 0.33 0.39 0.56 0.73 0.49l8.1-1.34c0.35-0.03 0.68 0.18 0.76 0.51l2.06 12.3c0.07 0.38-0.18 0.72-0.53 0.76l-8.12 1.38c-0.35 0.05-0.58 0.35-0.53 0.7"/>
   <path d="m63.39 541.01c0-3.83-1.42-7.06-4.088-9.75-2.673-2.7-5.948-3.98-9.745-3.98-3.734 0-6.983 1.35-9.741 4.06-2.699 2.67-4.084 5.84-4.084 9.55 0 3.83 1.338 7.2 4.007 9.85 2.681 2.7 5.969 4.06 9.818 4.06 3.869 0 7.072-1.36 9.745-4.06 2.668-2.65 4.088-5.93 4.088-9.73m13.329 0c0 7.65-2.639 13.94-7.937 18.82-5.225 4.96-11.622 7.36-19.225 7.36-7.672 0-14.146-2.47-19.35-7.39-5.166-5-7.791-11.08-7.791-18.34 0-5.55 1.424-10.54 4.319-14.9 2.869-4.36 6.867-7.64 11.883-9.68 3.267-1.31 6.825-1.98 10.665-1.98 7.907 0 14.449 2.51 19.619 7.43 5.178 4.85 7.817 11.15 7.817 18.68"/>
   <path d="m134.04 517.35c0-5.12-1.82-9.39-5.4-12.97-3.55-3.54-7.88-5.29-12.95-5.29-4.95 0-9.34 1.84-12.96 5.41-3.57 3.55-5.4 7.73-5.4 12.69 0 5.13 1.762 9.57 5.34 13.12 3.56 3.58 7.89 5.41 13.02 5.41 5.14 0 9.4-1.83 12.95-5.41 3.58-3.55 5.4-7.91 5.4-12.96m17.73 0c0 10.19-3.48 18.55-10.5 25.07-6.95 6.54-15.48 9.74-25.58 9.74-10.16 0-18.784-3.3-25.745-9.83-6.876-6.61-10.348-14.71-10.348-24.37 0-7.39 1.902-14.01 5.738-19.82 3.814-5.82 9.108-10.18 15.815-12.89 4.38-1.72 9.09-2.61 14.17-2.61 10.55 0 19.23 3.31 26.13 9.86 6.84 6.5 10.32 14.84 10.32 24.85"/>
   <path d="m200.71 565.98-25.52-39.29c-0.19-0.28-0.37-0.25-0.4 0.12l-3.2 36.51c-0.01 0.38-0.31 0.62-0.69 0.61l-14.75-1.29c-0.38-0.02-0.63-0.35-0.6-0.7l5.25-60.51c0.03-0.35 0.35-0.63 0.7-0.56l14.78 1.24c0.36 0.03 0.79 0.34 1 0.62l25.53 39.31c0.17 0.29 0.36 0.24 0.38-0.12l3.18-36.52c0.04-0.35 0.34-0.61 0.69-0.6l14.8 1.29c0.37 0.03 0.6 0.34 0.57 0.71l-5.27 60.48c-0.03 0.37-0.33 0.64-0.68 0.62l-14.79-1.32c-0.36-0.01-0.79-0.28-0.98-0.6"/>
  </g>
 </g>
</svg>
