<?xml version="1.0" encoding="UTF-8" standalone="no"?>
<!-- Created with Inkscape (http://www.inkscape.org/) -->
<svg xmlns:rdf="http://www.w3.org/1999/02/22-rdf-syntax-ns#" xmlns="http://www.w3.org/2000/svg" height="173.88" width="600" version="1.1" xmlns:cc="http://creativecommons.org/ns#" xmlns:xlink="http://www.w3.org/1999/xlink" xmlns:dc="http://purl.org/dc/elements/1.1/">
 <defs></defs>
 <metadata>
  <rdf:RDF>
   <cc:Work rdf:about="">
    <dc:format>image/svg+xml</dc:format>
    <dc:type rdf:resource="http://purl.org/dc/dcmitype/StillImage"/>
    <dc:title/>
   </cc:Work>
  </rdf:RDF>
 </metadata>
 <g fill-rule="nonzero" transform="translate(9.7299108,337.1178)" fill="#ed145b">
  <path d="m194.9-259.97c-10.699,0-18.48,12.025-21.398,20.425,0,0,1.3705,0.17684,14.987-1.1495,13.617-1.3705,16.004-6.2337,16.977-9.9474,0.97264-4.5537-1.8126-9.3284-10.566-9.3284m-10.699,34.75-13.086,0c-0.4421,8.8421,5.7916,12.954,18.303,12.954,14.059,0,23.387-2.2547,29.223-5.5263h1.1053l-1.7242,6.9853c-2.7853,11.185-14.368,21.265-39.392,21.265-30.373,0-41.337-20.514-35.28-44.741,6.6316-26.659,30.063-48.366,57.209-48.366,23.034,0,37.712,12.954,32.141,35.236-4.3769,17.596-18.834,22.194-48.499,22.194"/>
  <path d="m258.57-190.84c-16.004,0-27.587-9.6379-22.459-30.373,0,0,23.078-83.16,19.232-88.996h13.484c13.396,0,18.259,6.0126,14.545,20.867l-15.783,63.663c-1.9895,7.8695,1.8126,10.213,10.168,10.213h6.7642l-2.6084,10.566c-2.6968,10.699-13.661,14.059-23.343,14.059"/>
  <path d="m343.42-258.37c-8.2232,0-17.905,8.7979-20.867,20.735-4.2884,16.888,0.66316,24.272,11.406,24.272,9.5937,0,17.905-8.7537,20.867-20.912,3.9348-15.827-0.88421-24.095-11.406-24.095m7.9137-23.962c23.962,0,40.939,18.171,34.175,45.316-6.9411,28.781-28.958,47.305-59.331,47.305-25.067,0-40.983-18.524-34.617-44.432,7.2505-29.046,32.141-48.19,59.773-48.19"/>
  <path d="m558.42-215.23c-36.341,47.217-43.592,51.992-61.983,51.992-9.7705,0-16.491-5.2611-14.147-15.12,0,0,1.3263-5.659,2.299-9.019,2.6084,2.4316,12.335,1.9011,12.335,1.9011,8.0905-0.66317,13.086-5.0842,18.082-12.246-7.9137-18.834-7.3832-77.678-15.606-82.188h19.541c7.56,0,14.192,4.5979,13.971,12.379-0.4421,13.926,1.5032,30.859,3.4926,41.558,9.8148-13.263,29.754-48.853,27.499-53.937h15.739c8.7537,0,11.848,4.1116,10.213,11.097-2.299,9.3284-16.933,34.838-31.434,53.583"/>
  <path d="m113.37-194.77c-10.566,0-16.8-5.7916-13.926-17.242,2.4758-9.8148,8.4884-38.11,10.832-54.423l-26.747,46.377c-3.8905,6.6316-13.219,21.133-14.59,25.288h-11.185c-10.389,0-16.579-7.7811-17.861-30.107l-1.0611-18.392c-0.44211-9.1074-1.3705-18.878-1.9895-23.432-6.5874,18.834-16.756,53.804-21.221,71.931h-11.318c-9.2842,0-16.137-6.3663-13.44-17.242,7.8253-31.566,31.566-86.653,27.278-92.886h15.872c17.552,0,24.404,8.3116,25.952,18.038l3.4484,21.442c1.2821,9.1958,2.8295,21.84,2.8737,31.08,4.4653-8.179,10.168-17.905,15.518-25.863l16.844-25.244c6.3221-9.4169,14.324-17.154,12.556-19.453h11.008c16.048,0,21.531,8.8421,19.63,24.625-2.4316,21.486-16.579,81.834-14.192,85.503h-14.28z"/>
  <path d="m436.05-212.9c-11.008,0-17.242-7.0295-12.998-24.227,3.2716-13.484,12.335-21.928,20.514-21.928,10.787,0,16.888,5.4821,12.202,25.067-3.5368,13.794-10.345,21.088-19.718,21.088m50.886-116.41c-13.175,13.573-19.32,60.171-19.32,60.171-1.6358-6.8084-10.787-13.307-21.973-13.307-23.255,0-46.067,18.303-53.362,47.88-6.0126,23.741,12.467,44.962,38.242,44.962,40.011,0,56.413-27.366,59.021-111.15,11.451,4.2442,39.613,6.5874,51.726,2.52,13.219-4.3768,13.352-9.859,22.945-33.246-13.705,8.0021-57.739-17.905-77.28,2.1663"/>
 </g>
</svg>
