<?xml version="1.0" encoding="UTF-8" standalone="no"?>
<!-- Created with Inkscape (http://www.inkscape.org/) -->

<svg
   xmlns:dc="http://purl.org/dc/elements/1.1/"
   xmlns:cc="http://creativecommons.org/ns#"
   xmlns:rdf="http://www.w3.org/1999/02/22-rdf-syntax-ns#"
   xmlns:svg="http://www.w3.org/2000/svg"
   xmlns="http://www.w3.org/2000/svg"
   xmlns:xlink="http://www.w3.org/1999/xlink"
   version="1.1"
   width="600"
   height="257.17657"
   id="svg128094">
  <defs
     id="defs128096">
    <clipPath
       id="clipPath70027">
      <path
         d="m 231.581,607.191 25.75,0 0,9.807 -25.75,0 0,-9.807 z"
         id="path70029" />
    </clipPath>
    <radialGradient
       cx="0"
       cy="0"
       r="1"
       fx="0"
       fy="0"
       id="radialGradient70015"
       gradientUnits="userSpaceOnUse"
       gradientTransform="matrix(17.304764,13.49707,13.280045,-17.026535,250.03645,612.4079)"
       spreadMethod="pad">
      <stop
         id="stop70017"
         style="stop-color:#df1d25;stop-opacity:1"
         offset="0" />
      <stop
         id="stop70019"
         style="stop-color:#92191e;stop-opacity:1"
         offset="1" />
    </radialGradient>
    <radialGradient
       cx="0"
       cy="0"
       r="1"
       fx="0"
       fy="0"
       id="radialGradient128200"
       xlink:href="#radialGradient70015"
       gradientUnits="userSpaceOnUse"
       gradientTransform="matrix(17.304764,13.49707,13.280045,-17.026535,250.03645,612.4079)"
       spreadMethod="pad" />
  </defs>
  <metadata
     id="metadata128099">
    <rdf:RDF>
      <cc:Work
         rdf:about="">
        <dc:format>image/svg+xml</dc:format>
        <dc:type
           rdf:resource="http://purl.org/dc/dcmitype/StillImage" />
        <dc:title></dc:title>
      </cc:Work>
    </rdf:RDF>
  </metadata>
  <g
     transform="translate(-49.999988,-403.77366)"
     id="layer1">
    <g
       id="g128171">
      <g
         transform="matrix(26.223776,0,0,-26.223776,-6060.5594,16583.791)"
         id="g70003">
        <g
           id="g70005">
          <g
             id="g70011">
            <g
               id="g70013">
              <path
                 d="m 233.016,607.191 22.88,0 0,9.807 -22.88,0 0,-9.807 z"
                 id="path70021"
                 style="fill:url(#radialGradient128200);stroke:none" />
            </g>
          </g>
        </g>
      </g>
      <g
         transform="matrix(26.223776,0,0,-26.223776,-6060.5594,16583.791)"
         id="g70023">
        <g
           clip-path="url(#clipPath70027)"
           id="g70025">
          <g
             transform="translate(241.3548,613.47279)"
             id="g70031">
            <path
               d="m 0,0 c 0,-0.661 0.174,-0.974 0.551,-0.974 0.378,0 0.551,0.313 0.551,0.974 0,0.66 -0.173,0.977 -0.551,0.977 C 0.174,0.977 0,0.66 0,0 m 1.921,0 c 0,-0.819 -0.54,-1.325 -1.37,-1.325 -0.83,0 -1.37,0.506 -1.37,1.325 0,0.819 0.54,1.329 1.37,1.329 0.83,0 1.37,-0.51 1.37,-1.329"
               id="path70033"
               style="fill:#431417;fill-opacity:1;fill-rule:nonzero;stroke:none" />
          </g>
          <g
             transform="translate(242.9991,614.726)"
             id="g70035">
            <path
               d="m 0,0 1.472,0 0,-0.332 -0.234,0 c -0.094,0 -0.147,-0.057 -0.147,-0.151 l 0,-1.333 c 0,-0.241 0.132,-0.411 0.438,-0.411 0.437,0 0.513,0.192 0.513,0.66 l 0,1.084 c 0,0.094 -0.053,0.151 -0.147,0.151 l -0.223,0 0,0.332 1.151,0 0,-0.332 -0.223,0 c -0.094,0 -0.147,-0.057 -0.147,-0.151 l 0,-1.212 c 0,-0.558 -0.298,-0.883 -1,-0.883 -0.664,0 -1.072,0.211 -1.072,0.846 l 0,1.249 c 0,0.094 -0.053,0.151 -0.147,0.151 L 0,-0.332 0,0 z"
               id="path70037"
               style="fill:#431417;fill-opacity:1;fill-rule:nonzero;stroke:none" />
          </g>
          <g
             transform="translate(238.40601,614.726)"
             id="g70039">
            <path
               d="m 0,0 0,-0.915 0.352,0 c 0.009,0.359 0.129,0.583 0.546,0.583 l 0,-1.687 c 0,-0.095 -0.052,-0.151 -0.147,-0.151 l -0.234,0 0,-0.333 1.465,0 0,0.333 -0.227,0 c -0.094,0 -0.147,0.056 -0.147,0.151 l 0,1.687 c 0.417,0 0.538,-0.224 0.546,-0.583 l 0.352,0 L 2.506,0 0,0 z"
               id="path70041"
               style="fill:#431417;fill-opacity:1;fill-rule:nonzero;stroke:none" />
          </g>
          <g
             transform="translate(249.5461,612.5555)"
             id="g70043">
            <path
               d="m 0,0 -0.461,0 0,0.785 0.227,0 c 0.136,0 0.188,-0.174 0.188,-0.313 l 0,-0.091 0.314,0 0,1.14 -0.314,0 0,-0.083 c 0,-0.234 -0.078,-0.321 -0.297,-0.321 l -0.118,0 0,0.721 0.374,0 c 0.47,0 0.682,-0.08 0.694,-0.583 l 0.352,0 0,0.915 -2.511,0 0,-0.332 0.235,0 c 0.094,0 0.147,-0.056 0.147,-0.151 l 0,-1.536 C -1.17,0.057 -1.223,0 -1.317,0 l -0.231,0 0,-0.332 2.507,0 0,1.023 -0.351,0 C 0.608,0.083 0.396,0 0,0"
               id="path70045"
               style="fill:#431417;fill-opacity:1;fill-rule:nonzero;stroke:none" />
          </g>
          <g
             transform="translate(245.6517,614.726)"
             id="g70047">
            <path
               d="m 0,0 0,-0.915 0.352,0 c 0.009,0.359 0.129,0.583 0.546,0.583 l 0,-1.687 c 0,-0.095 -0.052,-0.151 -0.147,-0.151 l -0.234,0 0,-0.333 1.465,0 0,0.333 -0.227,0 c -0.094,0 -0.147,0.056 -0.147,0.151 l 0,1.687 c 0.417,0 0.538,-0.224 0.546,-0.583 l 0.352,0 L 2.506,0 0,0 z"
               id="path70049"
               style="fill:#431417;fill-opacity:1;fill-rule:nonzero;stroke:none" />
          </g>
          <g
             transform="translate(246.3806,610.68539)"
             id="g70051">
            <path
               d="m 0,0 c 0,-0.644 0.169,-0.95 0.537,-0.95 0.368,0 0.538,0.306 0.538,0.95 0,0.644 -0.17,0.953 -0.538,0.953 C 0.169,0.953 0,0.644 0,0 m 1.873,0 c 0,-0.799 -0.526,-1.292 -1.336,-1.292 -0.809,0 -1.336,0.493 -1.336,1.292 0,0.799 0.527,1.295 1.336,1.295 0.81,0 1.336,-0.496 1.336,-1.295"
               id="path70053"
               style="fill:#ffffff;fill-opacity:1;fill-rule:nonzero;stroke:none" />
          </g>
          <g
             transform="translate(234.68629,609.4438)"
             id="g70055">
            <path
               d="m 0,0 0,0.33 0.229,0 c 0.093,0 0.146,0.056 0.146,0.15 l 0,1.526 c 0,0.094 -0.053,0.15 -0.146,0.15 l -0.233,0 0,0.33 1.463,0 0,-0.33 -0.233,0 C 1.132,2.156 1.08,2.1 1.08,2.006 l 0,-1.676 0.409,0 c 0.45,0 0.521,0.289 0.521,0.694 l 0.349,0 L 2.359,0 0,0 z"
               id="path70057"
               style="fill:#ffffff;fill-opacity:1;fill-rule:nonzero;stroke:none" />
          </g>
          <g
             transform="translate(236.53909,610.9216)"
             id="g70059">
            <path
               d="M 0,0 C 0.208,0.058 0.377,0.14 0.407,0.377 0.358,0.344 0.3,0.344 0.247,0.344 c -0.184,0 -0.3,0.135 -0.3,0.314 0,0.266 0.145,0.426 0.416,0.426 0.276,0 0.436,-0.237 0.436,-0.493 C 0.799,0.102 0.45,-0.165 0,-0.237 L 0,0 z"
               id="path70061"
               style="fill:#ffffff;fill-opacity:1;fill-rule:nonzero;stroke:none" />
          </g>
          <g
             transform="translate(240.7794,609.9238)"
             id="g70063">
            <path
               d="m 0,0 c 0,-0.094 -0.052,-0.15 -0.146,-0.15 l -0.065,0 -0.164,0 -0.065,0 c -0.094,0 -0.146,0.041 -0.146,0.139 l 0,1.537 c 0,0.094 0.052,0.15 0.146,0.15 l 0.061,0 0.171,0 0.062,0 C -0.052,1.676 0,1.642 0,1.579 L 0,0 z m 2.76,2.006 -0.003,0 0,-0.16 C 2.548,1.977 2.311,2.056 2.062,2.056 1.553,2.056 1.004,1.891 1.004,1.282 1.004,0.224 2.6,0.652 2.6,0.125 c 0,-0.21 -0.232,-0.317 -0.424,-0.317 -0.435,0 -0.756,0.269 -0.803,0.656 l -0.343,0 0,-0.614 -0.179,0 C 0.758,-0.15 0.705,-0.094 0.705,0 l 0,1.526 c 0,0.135 0.053,0.15 0.146,0.15 l 0.233,0 0,0.33 -2.679,0 0,-0.33 0.158,0 c 0.093,0 0.146,-0.037 0.146,-0.112 l 0,-0.589 -0.825,0 0,0.54 c 0,0.127 0.052,0.161 0.146,0.161 l 0.158,0 0,0.33 -1.388,0 0,-0.33 0.233,0 c 0.093,0 0.146,-0.037 0.146,-0.101 l 0,-1.575 c 0,-0.094 -0.053,-0.15 -0.146,-0.15 l -0.229,0 0,-0.33 1.38,0 0,0.33 -0.154,0 c -0.094,0 -0.146,0.041 -0.146,0.131 l 0,0.664 0.825,0 0,-0.671 c 0,-0.102 -0.053,-0.124 -0.146,-0.124 l -0.154,0 0,-0.33 2.93,0 0.096,0.173 c 0.232,-0.169 0.52,-0.228 0.804,-0.228 0.509,0 1.017,0.199 1.017,0.789 0,1.05 -1.596,0.678 -1.596,1.143 0,0.247 0.199,0.317 0.413,0.317 0.28,0 0.574,-0.163 0.684,-0.457 l 0.364,0 C 3.162,1.519 3.301,1.676 3.65,1.676 L 3.65,0 c 0,-0.094 -0.053,-0.15 -0.146,-0.15 l -0.233,0 0,-0.33 1.455,0 0,0.33 -0.225,0 C 4.407,-0.15 4.355,-0.094 4.355,0 l 0,1.676 c 0.348,0 0.488,-0.157 0.529,-0.419 l 0.363,0 0,0.749 -2.487,0 z"
               id="path70065"
               style="fill:#ffffff;fill-opacity:1;fill-rule:nonzero;stroke:none" />
          </g>
          <g
             transform="translate(252.1134,609.93311)"
             id="g70067">
            <path
               d="m 0,0 c -0.003,-0.032 -0.008,-0.062 -0.017,-0.089 -0.023,-0.044 -0.066,-0.07 -0.129,-0.07 l -0.124,0 c -0.037,0.022 -0.048,0.062 -0.048,0.108 l 0,0.394 c 0,0.308 -0.158,0.398 -0.439,0.476 l 0,0.008 c 0.326,0.045 0.566,0.206 0.566,0.562 0,0.107 -0.022,0.199 -0.064,0.278 l 0.109,0 C -0.053,1.667 0,1.611 0,1.517 L 0,0 z m -1.312,0.966 -0.36,0 0,0.701 0.27,0 c 0.345,0 0.506,-0.064 0.506,-0.341 0,-0.3 -0.139,-0.36 -0.416,-0.36 m -1.065,-0.975 c 0,-0.094 -0.053,-0.15 -0.146,-0.15 l -0.061,0 -0.168,0 -0.061,0 c -0.094,0 -0.146,0.056 -0.146,0.15 l 0,1.526 c 0,0.135 0.052,0.15 0.146,0.15 l 0.057,0 0.175,0 0.058,0 c 0.093,0 0.146,-0.056 0.146,-0.15 l 0,-1.526 z M 1.757,0.328 C 1.712,-0.096 1.508,-0.159 1.162,-0.159 l -0.457,0 0,0.78 0.225,0 c 0.135,0 0.187,-0.173 0.187,-0.312 l 0,-0.09 0.312,0 0,1.133 -0.312,0 0,-0.083 C 1.117,1.037 1.039,0.951 0.821,0.951 l -0.116,0 0,0.716 0.371,0 c 0.412,0 0.625,-0.061 0.677,-0.419 l 0.362,0 0,0.749 -2.563,0 0,-0.131 C -0.59,1.953 -0.785,1.997 -1.027,1.997 l -3.016,0 0,-0.33 0.232,0 c 0.094,0 0.147,-0.034 0.147,-0.098 l 0,-1.578 c 0,-0.094 -0.053,-0.15 -0.147,-0.15 l -0.228,0 0,-0.33 2.746,0 0,0.33 -0.233,0 c -0.094,0 -0.146,0.056 -0.146,0.15 l 0,0.645 0.307,0 c 0.304,0 0.342,-0.053 0.342,-0.278 l 0,-0.307 c 0,-0.279 0.097,-0.451 0.258,-0.54 l 2.88,0 0,0.817 -0.358,0 z"
               id="path70069"
               style="fill:#ffffff;fill-opacity:1;fill-rule:nonzero;stroke:none" />
          </g>
        </g>
      </g>
    </g>
  </g>
</svg>
