<?xml version="1.0" encoding="UTF-8" standalone="no"?>
<svg xmlns:rdf="http://www.w3.org/1999/02/22-rdf-syntax-ns#" xmlns="http://www.w3.org/2000/svg" height="284.44" width="600" version="1.1" xmlns:cc="http://creativecommons.org/ns#" xmlns:dc="http://purl.org/dc/elements/1.1/">
 <g>
  <path d="m588.37 252.78c0-0.63-0.15-1.05-0.42-1.26-0.3-0.21-0.78-0.3-1.47-0.3h-2.82v4.62h2.82c0.72 0 1.23-0.12 1.5-0.39 0.24-0.27 0.39-0.63 0.39-1.11v-1.56zm-2.04 5.1h-2.67v4.32h-2.22v-13.05h5.13c1.47 0 2.52 0.33 3.12 0.93 0.63 0.6 0.96 1.44 0.96 2.55v1.8c0 0.63-0.12 1.2-0.39 1.68-0.27 0.51-0.78 0.96-1.5 1.38l3.45 4.71h-2.67l-3.21-4.32zm-11.4-1.89c0 1.53 0.24 2.97 0.72 4.29 0.45 1.35 1.14 2.52 2.04 3.55 0.87 1.02 2.01 1.83 3.36 2.4 1.38 0.57 2.97 0.87 4.8 0.87 1.77 0 3.36-0.3 4.71-0.87 1.38-0.57 2.49-1.38 3.39-2.4 0.87-1.03 1.56-2.2 2.04-3.55 0.48-1.32 0.72-2.76 0.72-4.29 0-1.5-0.24-2.94-0.72-4.26-0.48-1.35-1.17-2.52-2.04-3.54-0.9-1.02-2.01-1.83-3.39-2.4-1.35-0.57-2.94-0.87-4.71-0.87-1.83 0-3.42 0.3-4.8 0.87-1.35 0.57-2.49 1.38-3.36 2.4-0.9 1.02-1.59 2.19-2.04 3.54-0.48 1.32-0.72 2.76-0.72 4.26m-3.3 0c0-1.92 0.33-3.75 0.99-5.49s1.59-3.24 2.82-4.56c1.23-1.29 2.73-2.31 4.47-3.06 1.77-0.72 3.75-1.11 5.94-1.11s4.17 0.39 5.91 1.11c1.71 0.75 3.18 1.77 4.44 3.06 1.2 1.32 2.16 2.82 2.82 4.56s0.96 3.57 0.96 5.49c0 2.01-0.3 3.84-0.96 5.55-0.66 1.72-1.62 3.22-2.82 4.54-1.26 1.29-2.73 2.31-4.44 3.06-1.74 0.72-3.72 1.08-5.91 1.08s-4.17-0.36-5.94-1.08c-1.74-0.75-3.24-1.77-4.47-3.06-1.23-1.32-2.16-2.82-2.82-4.54-0.66-1.71-0.99-3.54-0.99-5.55" fill="#f4bb24"/>
  <path d="m0 227.57h600v-227.57h-600v227.57z" fill="#f4bb24"/>
  <path d="m426.72 127.08v0.81c0 12.13-6.42 14.71-14.31 14.71h-0.03c-7.9 0-14.32-2.58-14.32-14.71v-27.01c0-12.091 6.42-14.672 14.32-14.672h0.03c7.89 0 14.31 2.581 14.31 14.672l-0.03 0.66h23.32l0.51 25.51-23.8 0.03zm-103.08-14.37-16.72-0.03 3-7.72c4.86-11.639 8.28-14.58 13.72-14.58v22.33zm-87.96-16.658c0 5.128-2.65 9.298-14.77 9.298l-12.48-0.03v-18.752h12.45c12.12 0 14.8 4.322 14.8 9.454v0.03zm298.54 1.02v-31.721l-84.72 0.06v8.283c-7.23-6.482-19.06-10.834-37.03-10.834-34.15 0-46.4 13.325-46.4 33.642v29.828c0 10.06-1.95 12.01-5.19 12.07-3.33-0.06-5.22-2.43-5.22-12.07v-60.979h-41.21c-14.76 0-25.78 6.902-33.52 27.489l-13.44 39.04c-1.26 3.52-2.76 4.06-4.38 4.06-1.87 0-3.64-1.14-4.87-5.02l-4.5-9.6c11.2-5.25 15.1-14.04 15.1-23.768v-3.031c0-15.935-9.25-29.17-46.85-29.17h-156.2l-0.004 31.721h25.599v-6.662c0-2.101 1.711-3.812 3.841-3.812h10.294l-0.03 58.462c0 10.86 8.82 19.63 19.69 19.63h19.47v-21.97l-0.27 0.03c-3.87 0-7.02-3.15-7.02-7.02v-49.132h10.32c2.11 0 3.82 1.711 3.82 3.812v6.662h24.81v-0.36 0.36 38.718c0 3.87-3.15 7.02-7.05 7.02v21.85h39.2v-37.82h3.27c5.22 0 9.78 2.49 12.12 6.75l16.24 31.07h32.68c14.4 0 17.49-3.16 22.18-14.92l5.73-16h23.05l-0.06 30.92h210.55v-32.42h-25.84l0.03 6.67c0 2.1-1.71 3.78-3.81 3.78l-23.02-0.06v-18.01h19.33v-20.98h-19.33v-17.072h23.02c2.1 0 3.81 1.741 3.81 3.842l-0.03 6.662h25.84" fill="#fff"/>
  <path d="m475.05 266.34-345.54 18.1-4.5-86.04 345.54-18.13 4.5 86.07z" fill="#1c181d"/>
 </g>
 <g fill="#fff">
  <path d="m169.48 224.01 2.13 40.48-11.41 0.57-2.1-40.45-13.59 0.72-0.54-10.11 38.56-2.01 0.54 10.08-13.59 0.72z"/>
  <path d="m213.79 227.02c-0.09-1.92-0.6-3.27-1.5-4.02-0.9-0.78-2.52-1.11-4.86-0.99l-9.03 0.48 0.78 14.88 9.03-0.48c2.43-0.12 4.05-0.63 4.8-1.56s1.11-2.37 0.99-4.29l-0.21-4.02zm-7.41 19.86-6.66 0.36 0.81 15.73-11.41 0.6-2.64-50.57 21.04-1.11c3.09-0.18 5.7 0 7.86 0.51 2.16 0.48 3.93 1.29 5.34 2.4 1.41 1.14 2.47 2.58 3.16 4.35 0.72 1.75 1.14 3.82 1.26 6.22l0.3 6.21c0.18 3.18-0.27 5.85-1.32 8.04-1.05 2.16-2.83 3.84-5.38 5.04l13.15 16.66-13.51 0.72-12-15.16"/>
  <path d="m259.76 224.91c-0.12-1.98-0.84-3.48-2.19-4.56-1.36-1.08-3.49-1.53-6.37-1.38s-4.92 0.81-6.15 2.04c-1.23 1.2-1.8 2.79-1.71 4.77l1.02 19.12c0.09 1.98 0.81 3.51 2.16 4.56 1.35 1.08 3.48 1.56 6.36 1.38 2.88-0.15 4.96-0.81 6.19-2.01 1.23-1.23 1.8-2.82 1.68-4.77l-0.99-19.15zm12.42 19.54c0.12 1.92-0.15 3.81-0.75 5.7-0.63 1.89-1.65 3.6-3.12 5.16-1.47 1.53-3.42 2.83-5.88 3.85s-5.47 1.62-9.01 1.8c-3.6 0.18-6.66-0.09-9.18-0.84-2.52-0.78-4.62-1.83-6.24-3.25-1.62-1.38-2.82-2.97-3.63-4.77-0.81-1.83-1.26-3.69-1.35-5.61l-1.11-21.13c-0.09-1.89 0.15-3.81 0.78-5.7 0.6-1.89 1.65-3.6 3.12-5.13 1.44-1.56 3.39-2.85 5.82-3.84 2.46-1.02 5.46-1.62 9.06-1.83 3.54-0.18 6.58 0.12 9.13 0.87 2.58 0.75 4.65 1.8 6.27 3.21 1.62 1.38 2.82 2.97 3.63 4.77 0.81 1.83 1.26 3.69 1.35 5.61l1.11 21.13"/>
  <path d="m304.06 222.28c-0.09-1.83-0.57-3.15-1.44-3.96-0.9-0.81-2.52-1.17-4.89-1.02l-8.67 0.45 0.81 15.25 8.64-0.45c2.49-0.12 4.11-0.69 4.83-1.66 0.75-0.99 1.05-2.37 0.96-4.2l-0.24-4.41zm11.68 4.95c0.27 4.75-0.93 8.41-3.51 10.93-2.61 2.52-7.03 3.93-13.18 4.26l-8.67 0.45 0.81 15.33-11.41 0.6-2.64-50.56 20.65-1.08c3.09-0.15 5.73 0 7.86 0.51 2.16 0.48 3.97 1.29 5.35 2.4 1.41 1.14 2.46 2.58 3.18 4.35 0.69 1.74 1.11 3.84 1.23 6.21l0.33 6.6"/>
  <path d="m322.62 256.57-2.64-50.57 11.37-0.6 2.65 50.57-11.38 0.6z"/>
  <path d="m351.74 238.44c0.06 1.11 0.21 2.1 0.45 2.94 0.27 0.84 0.66 1.56 1.23 2.16 0.57 0.57 1.32 0.99 2.22 1.23 0.93 0.27 2.13 0.36 3.54 0.27 1.8-0.09 3.88-0.3 6.19-0.63 2.34-0.3 4.59-0.72 6.81-1.26l2.1 9.88c-2.49 0.69-4.89 1.23-7.23 1.59-2.31 0.39-4.75 0.63-7.33 0.78-3.21 0.15-5.97-0.09-8.34-0.72s-4.35-1.59-5.91-2.88-2.76-2.88-3.6-4.74c-0.81-1.84-1.29-3.94-1.41-6.19l-1.11-21.12c-0.12-2.28 0.12-4.39 0.78-6.31 0.63-1.95 1.65-3.63 3.06-5.07 1.44-1.47 3.3-2.61 5.58-3.51 2.28-0.87 5.04-1.41 8.22-1.56 2.58-0.15 5.04-0.15 7.39 0 2.34 0.12 4.77 0.39 7.35 0.81l-1.08 10.05c-2.25-0.3-4.53-0.48-6.87-0.57-2.35-0.06-4.45-0.06-6.25 0.03-1.44 0.09-2.58 0.27-3.48 0.63s-1.59 0.84-2.1 1.5c-0.48 0.63-0.81 1.39-0.96 2.26-0.18 0.87-0.21 1.86-0.15 2.97l0.9 17.46"/>
  <path d="m392.75 233.48 11.62-0.6-6.87-20.89-4.75 21.49zm29.95 17.85-11.85 0.6-3.24-9.72-16.96 0.9-2.19 9.99-11.85 0.63 12.75-51.38 15.19-0.78 18.15 49.76z"/>
  <path d="m426.5 251.12-2.64-50.57 11.37-0.6 2.13 40.49 20.05-1.05 0.51 10.08-31.42 1.65z"/>
 </g>
</svg>
