<?xml version="1.0" encoding="UTF-8" standalone="no"?>
<!-- Created with Inkscape (http://www.inkscape.org/) -->

<svg
   xmlns:dc="http://purl.org/dc/elements/1.1/"
   xmlns:cc="http://creativecommons.org/ns#"
   xmlns:rdf="http://www.w3.org/1999/02/22-rdf-syntax-ns#"
   xmlns:svg="http://www.w3.org/2000/svg"
   xmlns="http://www.w3.org/2000/svg"
   version="1.1"
   width="600"
   height="284.48801"
   id="svg125833">
  <defs
     id="defs125835">
    <clipPath
       id="clipPath105453">
      <path
         d="m 329.217,297.556 19.689,0 0,9.877 -19.689,0 0,-9.877 z"
         id="path105455" />
    </clipPath>
    <clipPath
       id="clipPath105431">
      <path
         d="m 329.217,298.098 19.688,0 0,9.335 -19.688,0 0,-9.335 z"
         id="path105433" />
    </clipPath>
  </defs>
  <metadata
     id="metadata125838">
    <rdf:RDF>
      <cc:Work
         rdf:about="">
        <dc:format>image/svg+xml</dc:format>
        <dc:type
           rdf:resource="http://purl.org/dc/dcmitype/StillImage" />
        <dc:title></dc:title>
      </cc:Work>
    </rdf:RDF>
  </metadata>
  <g
     transform="translate(114.28597,-372.97543)"
     id="layer1">
    <g
       id="g125896">
      <g
         transform="matrix(30.475416,0,0,-30.475416,-10147.311,9742.124)"
         id="g105427">
        <g
           clip-path="url(#clipPath105431)"
           id="g105429">
          <g
             transform="translate(348.5244,299.1371)"
             id="g105435">
            <path
               d="m 0,0 c 0,0.021 -0.005,0.034 -0.014,0.041 -0.01,0.007 -0.026,0.011 -0.048,0.011 l -0.093,0 0,-0.153 0.093,0 c 0.024,0 0.04,0.005 0.049,0.013 C -0.004,-0.079 0,-0.067 0,-0.052 L 0,0 z m -0.067,-0.168 -0.088,0 0,-0.141 -0.072,0 0,0.428 0.168,0 c 0.048,0 0.082,-0.01 0.103,-0.03 0.02,-0.02 0.031,-0.048 0.031,-0.084 l 0,-0.059 C 0.075,-0.075 0.07,-0.093 0.062,-0.11 0.053,-0.126 0.037,-0.141 0.013,-0.155 l 0.113,-0.154 -0.087,0 -0.106,0.141 z m -0.374,0.062 c 0,-0.05 0.008,-0.096 0.023,-0.14 0.016,-0.044 0.038,-0.083 0.067,-0.116 0.029,-0.034 0.066,-0.06 0.111,-0.079 0.045,-0.019 0.097,-0.028 0.157,-0.028 0.059,0 0.11,0.009 0.155,0.028 0.045,0.019 0.082,0.045 0.111,0.079 0.029,0.033 0.052,0.072 0.067,0.116 0.016,0.044 0.023,0.09 0.023,0.14 0,0.05 -0.007,0.097 -0.023,0.141 C 0.235,0.079 0.212,0.117 0.183,0.151 0.154,0.185 0.117,0.211 0.072,0.23 0.027,0.248 -0.024,0.258 -0.083,0.258 -0.143,0.258 -0.195,0.248 -0.24,0.23 -0.285,0.211 -0.322,0.185 -0.351,0.151 -0.38,0.117 -0.402,0.079 -0.418,0.035 -0.433,-0.009 -0.441,-0.056 -0.441,-0.106 m -0.108,0 c 0,0.064 0.01,0.124 0.032,0.181 0.021,0.057 0.052,0.106 0.093,0.149 0.04,0.043 0.089,0.077 0.147,0.101 0.057,0.024 0.122,0.036 0.194,0.036 0.073,0 0.137,-0.012 0.194,-0.036 C 0.168,0.301 0.216,0.267 0.257,0.224 0.297,0.181 0.328,0.132 0.349,0.075 0.371,0.018 0.382,-0.042 0.382,-0.106 0.382,-0.171 0.371,-0.232 0.349,-0.287 0.328,-0.343 0.297,-0.393 0.257,-0.436 0.216,-0.479 0.168,-0.512 0.111,-0.536 0.054,-0.56 -0.01,-0.573 -0.083,-0.573 c -0.072,0 -0.137,0.013 -0.194,0.037 -0.058,0.024 -0.107,0.057 -0.147,0.1 -0.041,0.043 -0.072,0.093 -0.093,0.149 -0.022,0.055 -0.032,0.116 -0.032,0.181"
               id="path105437"
               style="fill:#eb601c;fill-opacity:1;fill-rule:nonzero;stroke:none" />
          </g>
          <path
             d="m 329.217,299.965 19.689,0 0,7.468 -19.689,0 0,-7.468 z"
             id="path105439"
             style="fill:#eb601c;fill-opacity:1;fill-rule:nonzero;stroke:none" />
          <g
             transform="translate(343.2198,303.26199)"
             id="g105441">
            <path
               d="M 0,0 0,-0.027 C 0,-0.424 -0.211,-0.51 -0.47,-0.51 l -0.001,0 c -0.259,0 -0.47,0.086 -0.47,0.483 l 0,0.886 c 0,0.397 0.211,0.482 0.47,0.482 l 0.001,0 C -0.211,1.341 0,1.256 0,0.859 l -0.001,-0.021 0.765,0 L 0.781,0.001 0,0 z m -3.383,0.472 -0.548,0 0.098,0.254 c 0.159,0.382 0.272,0.478 0.45,0.478 l 0,-0.732 z M -6.27,1.019 c 0,-0.169 -0.086,-0.306 -0.484,-0.306 l -0.409,0.001 0,0.615 0.408,0 c 0.398,0 0.485,-0.141 0.485,-0.31 z m 9.797,-0.034 0,1.041 -2.78,-0.002 0,-0.272 C 0.511,1.964 0.122,2.108 -0.468,2.108 l 0,0 c -1.12,0 -1.522,-0.438 -1.522,-1.105 l 0,-0.978 c 0,-0.331 -0.065,-0.394 -0.171,-0.396 -0.109,0.002 -0.171,0.08 -0.171,0.396 l 0,2.001 -1.352,0 c -0.485,0 -0.846,-0.227 -1.101,-0.902 l -0.44,-1.282 c -0.042,-0.114 -0.091,-0.132 -0.144,-0.133 -0.061,0.001 -0.119,0.038 -0.159,0.165 l -0.149,0.315 c 0.368,0.172 0.496,0.461 0.496,0.781 l 0,0.098 c 0,0.523 -0.303,0.958 -1.538,0.958 l -5.125,0 0,-1.041 0.84,0 0,0.218 c 0,0.07 0.056,0.125 0.126,0.125 l 0.337,0 0,-1.918 c 0,-0.356 0.289,-0.644 0.646,-0.644 l 0.639,0 0,0.721 -0.009,-0.002 c -0.127,0 -0.231,0.104 -0.231,0.231 l 0,1.612 0.339,0 c 0.069,0 0.125,-0.055 0.125,-0.125 l 0,-0.218 0.814,0 0,0.012 10e-4,-0.012 0,-1.27 c 0,-0.128 -0.103,-0.231 -0.232,-0.231 l 0,-0.717 1.286,0 0.001,1.241 0.107,-0.001 c 0.171,0 0.321,-0.081 0.398,-0.22 l 0.533,-1.02 1.072,0 c 0.472,0 0.574,0.103 0.728,0.489 l 0.188,0.526 0.756,0 -0.002,-1.015 6.909,0 0,1.064 -0.847,0 10e-4,-0.219 c 0,-0.069 -0.056,-0.124 -0.126,-0.124 L 1.8,-0.51 l 0,0.591 0.634,0 0,0.689 -0.634,0 0,0.559 0.755,0 c 0.07,0 0.126,-0.056 0.126,-0.125 L 2.68,0.985 l 0.847,0"
               id="path105443"
               style="fill:#ffffff;fill-opacity:1;fill-rule:nonzero;stroke:none" />
          </g>
          <g
             transform="translate(343.32961,298.53751)"
             id="g105445">
            <path
               d="M 0,0 -8.388,-0.44 -8.537,2.384 -0.148,2.824 0,0 z"
               id="path105447"
               style="fill:#1c181d;fill-opacity:1;fill-rule:nonzero;stroke:none" />
          </g>
        </g>
      </g>
      <g
         transform="matrix(30.475416,0,0,-30.475416,-10147.311,9742.124)"
         id="g105449">
        <g
           clip-path="url(#clipPath105453)"
           id="g105451">
          <g
             transform="translate(336.63541,300.44679)"
             id="g105457">
            <path
               d="M 0,0 0.061,-1.176 C 0.065,-1.239 0.057,-1.302 0.039,-1.363 0.02,-1.425 -0.012,-1.481 -0.057,-1.532 c -0.046,-0.051 -0.108,-0.093 -0.187,-0.126 -0.079,-0.033 -0.177,-0.053 -0.293,-0.059 -0.118,-0.006 -0.218,0.003 -0.299,0.028 -0.081,0.025 -0.147,0.06 -0.198,0.106 -0.051,0.045 -0.088,0.098 -0.113,0.157 -0.025,0.06 -0.039,0.121 -0.042,0.184 l -0.062,1.177 0.374,0.019 0.059,-1.141 c 0.004,-0.068 0.025,-0.12 0.064,-0.154 0.038,-0.035 0.105,-0.05 0.199,-0.045 0.095,0.005 0.16,0.027 0.194,0.065 0.035,0.039 0.051,0.092 0.047,0.16 L -0.374,-0.019 0,0"
               id="path105459"
               style="fill:#ffffff;fill-opacity:1;fill-rule:nonzero;stroke:none" />
          </g>
          <g
             transform="translate(337.7807,299.9998)"
             id="g105461">
            <path
               d="m 0,0 c -0.003,0.063 -0.02,0.107 -0.05,0.132 -0.029,0.025 -0.082,0.036 -0.159,0.032 l -0.296,-0.016 0.025,-0.488 0.297,0.015 c 0.08,0.005 0.132,0.022 0.157,0.053 0.025,0.03 0.036,0.077 0.033,0.14 L 0,0 z m -0.243,-0.652 -0.22,-0.012 0.028,-0.516 -0.374,-0.019 -0.087,1.659 0.69,0.036 c 0.101,0.006 0.187,0 0.258,-0.016 C 0.123,0.463 0.181,0.437 0.228,0.4 0.273,0.364 0.308,0.316 0.331,0.258 0.354,0.2 0.368,0.132 0.372,0.054 L 0.382,-0.15 C 0.388,-0.254 0.373,-0.342 0.339,-0.413 0.304,-0.484 0.246,-0.539 0.162,-0.579 L 0.593,-1.126 0.15,-1.149 -0.243,-0.652"
               id="path105463"
               style="fill:#ffffff;fill-opacity:1;fill-rule:nonzero;stroke:none" />
          </g>
          <g
             transform="translate(339.2972,299.472)"
             id="g105465">
            <path
               d="m 0,0 c -0.002,0.046 -0.018,0.081 -0.047,0.103 -0.028,0.021 -0.067,0.031 -0.117,0.028 l -0.284,-0.015 0.02,-0.386 0.232,0.012 c 0.058,0.003 0.107,0.015 0.147,0.035 0.039,0.021 0.057,0.061 0.055,0.121 L 0,0 z M -0.096,0.69 C -0.098,0.726 -0.111,0.754 -0.135,0.774 -0.16,0.793 -0.199,0.802 -0.252,0.799 l -0.232,-0.012 0.02,-0.379 0.232,0.012 c 0.05,0.003 0.087,0.016 0.11,0.04 0.024,0.023 0.035,0.052 0.033,0.085 L -0.096,0.69 z M 0.382,-0.132 C 0.388,-0.25 0.354,-0.348 0.281,-0.425 0.207,-0.502 0.088,-0.545 -0.078,-0.554 l -0.708,-0.037 -0.087,1.66 0.655,0.034 c 0.087,0.005 0.161,0 0.222,-0.013 C 0.066,1.076 0.116,1.055 0.155,1.025 0.194,0.995 0.223,0.959 0.242,0.915 0.261,0.871 0.272,0.82 0.275,0.764 L 0.284,0.595 C 0.287,0.535 0.275,0.482 0.249,0.438 0.223,0.393 0.178,0.355 0.113,0.323 0.183,0.31 0.243,0.278 0.293,0.225 0.342,0.173 0.369,0.108 0.373,0.03 l 0.009,-0.162"
               id="path105467"
               style="fill:#ffffff;fill-opacity:1;fill-rule:nonzero;stroke:none" />
          </g>
          <g
             transform="translate(340.2668,299.61031)"
             id="g105469">
            <path
               d="M 0,0 0.381,0.02 0.155,0.705 0,0 z M 0.983,-0.585 0.594,-0.606 0.487,-0.287 -0.068,-0.316 -0.141,-0.644 -0.53,-0.665 -0.111,1.021 0.388,1.047 0.983,-0.585 z"
               id="path105471"
               style="fill:#ffffff;fill-opacity:1;fill-rule:nonzero;stroke:none" />
          </g>
          <g
             transform="translate(341.6758,300.1413)"
             id="g105473">
            <path
               d="M 0,0 0.057,-1.091 -0.302,-1.11 -0.389,0.549 0.07,0.573 0.675,-0.542 0.615,0.602 0.974,0.621 1.061,-1.039 0.6,-1.063 0,0 z"
               id="path105475"
               style="fill:#ffffff;fill-opacity:1;fill-rule:nonzero;stroke:none" />
          </g>
        </g>
      </g>
    </g>
  </g>
</svg>
