<?xml version="1.0" encoding="UTF-8" standalone="no"?>
<!-- Created with Inkscape (http://www.inkscape.org/) -->
<svg xmlns:rdf="http://www.w3.org/1999/02/22-rdf-syntax-ns#" xmlns="http://www.w3.org/2000/svg" height="219.55" width="600" version="1.1" xmlns:cc="http://creativecommons.org/ns#" xmlns:dc="http://purl.org/dc/elements/1.1/">
 <metadata>
  <rdf:RDF>
   <cc:Work rdf:about="">
    <dc:format>image/svg+xml</dc:format>
    <dc:type rdf:resource="http://purl.org/dc/dcmitype/StillImage"/>
    <dc:title/>
   </cc:Work>
  </rdf:RDF>
 </metadata>
 <g transform="translate(64.06828,-191.0844)">
  <path fill-rule="nonzero" fill="#2fb2e2" d="m446.97,191.2-28.992,0,50.64,109.64-51.73,109.79,28.992,0l49.46-109.79-48.37-109.64z"/>
  <path fill-rule="nonzero" fill="#2fb2e2" d="m455.35,300.81-0.0107,0-50.052-109.61-469.36,0,0,133.81c0,47.251,38.303,85.555,85.555,85.555v0.0215h383.49l50.362-109.76h0.0107l-0.0107-0.0107,0.0107-0.0107z"/>
  <path fill-rule="nonzero" fill="#FFF" d="m-0.065392,311.29c0,26.875,20.632,30.874,27.752,30.874h17.094c1.657,0,2.5764-0.73762,2.5764-2.0312v-15.993c0-1.657-0.41692-3.0254-1.6998-3.0254-1.2828,0-9.0761-0.0321-12.208-0.0321-5.1955,0-8.0177-4.693-8.0177-8.007v-29.933h18.933c1.8387,0,2.2022-1.657,2.2022-1.657v-17.276c0-2.2022-2.2022-2.5764-2.2022-2.5764h-18.323v-28.308c0-2.2129-2.7581-1.8388-2.7581-1.8388s-20.226,6.6173-21.52,6.799c-1.2828,0.18174-1.828,0.73763-1.828,1.8387v71.165z"/>
  <path fill-rule="nonzero" fill="#FFF" d="m53.29,264.02c0-2.5764,1.8387-2.7581,3.1216-2.7581h14.592c1.9349,0,2.3305,1.2828,2.694,2.2022,0.37416,0.91937,4.0409,9.5571,4.0409,9.5571s7.3549-12.679,24.641-12.679c2.0205,0,2.2022,2.0205,2.2022,4.2334v16.933c0,1.0263-0.91937,2.5443-2.2022,2.5443-1.2935,0-18.206,0.73763-22.802,6.0721v50.736c0,1.8387-1.1011,1.1011-2.7581,1.1011s-20.771,0.37415-21.872,0.37415c-1.1011,0-1.5608-1.4753-1.5608-2.7581,0-1.2935-0.0962-75.559-0.0962-75.559"/>
  <path fill-rule="nonzero" fill="#FFF" d="m136.86,261.65c-2.0402,0.0187-3.5781,0.16572-4.2756,0.16572h-20.284c-1.1118,0-2.4858,0.29096-2.4858,1.3921s-0.0994,15.591-0.0994,16.97,0.66522,2.751,2.055,2.751h17.765c6.8418,0,8.6507,4.7463,8.6507,6.2643v4.8059h-9.6119c-15.031,0-32.283,3.0521-32.283,23.599,0,15.715,9.5294,26.317,24.56,26.317,12.198,0,20.947-9.3467,20.947-9.3467l3.447,7.6895s16.293,0.0663,17.533,0.0663c1.2401,0,1.4584-1.2746,1.4584-2.3864,0-1.1011,0.32071-11.202,0-46.833-0.26926-29.02-18.537-31.535-27.377-31.454zm-2.3864,48.623c1.8025-0.021,3.9442,0.0663,3.9442,0.0663v10.772c-1.208,2.1915-13.235,7.2321-15.18,0.49716-2.4908-8.595,6.47-11.013,9.645-11.269,0.43563-0.0374,0.99009-0.0593,1.5909-0.0663z"/>
  <path fill-rule="nonzero" fill="#FFF" d="m165.38,264.48c-0.54521-1.796,0.27795-3.314,2.0739-3.314h23.572c1.2508,0,1.935,1.1118,2.2129,2.8971,0.27794,1.796,11.31,57.77,11.31,57.77s10.893-57.354,11.3-58.733c0.41692-1.3791,1.796-1.657,3.175-1.657h21.787c1.518,0,1.3791,1.657,1.1011,2.6191-0.27795,0.96212-23.166,78.178-23.166,78.178h-30.339l-23.027-77.761z"/>
  <path fill-rule="nonzero" fill="#FFF" d="m316.99,240.58c0-0.96213,0.63073-2.2557,2.0632-2.8222,1.3684-0.54521,20.825-7.0663,21.958-7.3442,1.6891-0.42761,2.4481,0.97283,2.4481,2.2129,0,1.2508-0.13896,77.355-0.13896,80.252,0,2.8971,2.6191,7.8574,7.9963,7.8574h8.1353c1.1011,0,1.657,1.379,1.657,2.7581v16.549c0,1.3791-0.82316,2.0632-2.6191,2.0632h-13.523c-4.8213,0-27.56-3.7202-27.56-29.505,0-25.774-0.41693-72.021-0.41693-72.021"/>
  <path fill-rule="nonzero" fill="#FFF" d="m278.06,260.36c-13.374,0-36.823,7.6901-36.823,43.684,0,33.503,27.72,39.442,40.27,39.442,12.54,0,22.16-5.2647,23.4-6.0986,1.2401-0.82316,2.0346-1.3282,1.4252-3.0493-2.6084-7.2587-2.8241-7.4799-5.9991-15.412-0.5452-1.379-1.1004-1.3781-2.6184-0.96119-1.518,0.40622-7.4662,3.246-16.639,3.1819-14.892-0.1069-14.252-11.17-14.252-11.17h45.143c1.1011-45.637-20.533-49.617-33.907-49.617zm-1.3921,18.859c9.493,0,9.0484,15.081,9.0484,15.081h-19.224s-0.066-15.081,10.175-15.081z"/>
  <path fill-rule="nonzero" fill="#FFF" d="m210.87,360.33,2.0311-3.8164s-5.9973-4.1372-12.754-0.88729c-7.8039,3.7416-6.5745,16.891-4.8748,20.055,1.7104,3.175,5.6872,9.9099,17.628,4.8748l-1.9563-4.1372s-5.0351,3.3247-9.0119,0.16036c-3.9875-3.1643-3.4102-12.262-1.2935-15.191,2.106-2.9292,7.216-3.004,10.231-1.0584"/>
  <path fill-rule="nonzero" fill="#FFF" d="m217.69,354.73,4.7893,0,0,11.535,10.07-0.032,0-11.503,4.8748,0,0,27.645-4.9175,0,0.0427-11.631-10.07-0.0107,0,11.642-4.7893,0,0-27.645z"/>
  <path fill-rule="nonzero" fill="#FFF" d="m250.05,354.72-8.6507,27.642,4.8722,0,1.7898-6.0654,9.2142,0,1.9555,6.0654,5.2368,0-8.7833-27.642-5.6346,0zm2.6847,5.7008,3.4802,11.634-6.9272,0c-0.0641,0,3.447-11.634,3.447-11.634z"/>
  <path fill-rule="nonzero" fill="#FFF" d="m268.81,354.73,4.8106,0,10.263,18.12,0-18.12,4.8641,0,0,27.645-4.7679,0-10.273-18.612,0.0642,18.612-4.9603,0,0-27.645z"/>
  <path fill-rule="nonzero" fill="#FFF" d="m300.85,382.38-5.0031,0,0-27.645,4.8427,0,10.177,18.174,0-18.174,4.9924,0,0,27.645-4.8106,0-10.295-18.516,0.0962,18.516z"/>
  <path fill-rule="nonzero" fill="#FFF" d="m322.72,382.38,0-27.645,16.709,0,0,4.2334-11.781,0,0,7.2694,9.1723,0,0,4.3616-9.2044,0,0,7.3336,11.813,0,0,4.4472-16.709,0z"/>
  <path fill-rule="nonzero" fill="#FFF" d="m344.88,354.73,5.0351,0,0,23.23,10.979,0,0,4.4151-16.014,0,0-27.645z"/>
  <text style="letter-spacing:0px;word-spacing:0px;" font-weight="normal" xml:space="preserve" transform="scale(0.88849085,1.125504)" font-size="60.67215729px" font-style="normal" y="275.92303" x="550.44769" font-family="Sans" line-height="125%" fill="#2fb2e2"><tspan font-weight="bold" font-style="normal" font-stretch="normal" font-variant="normal" y="275.92303" x="550.44769" font-family="Arial" fill="#2fb2e2"/></text>
  <g fill="#2fb2e2" transform="matrix(0.92996028,0,0,0.92996028,32.631368,76.428104)">
   <g transform="matrix(5.2843479,0,0,-5.2843479,480.63094,149.43662)">
    <path fill-rule="nonzero" fill="#2fb2e2" d="m0,0,2.253,0,0,1.931,2.252,0,0-1.931,2.253,0,0-2.092-2.253,0,0-2.091-2.252,0,0,2.091h-2.253v2.092z"/>
   </g>
   <path fill-rule="nonzero" d="m519.78,136.47,7.3951,0,0,44.214,14.03,0,0-57.393-21.425,0z"/>
  </g>
 </g>
</svg>
