<?xml version="1.0" encoding="UTF-8" standalone="no"?>
<svg xmlns:rdf="http://www.w3.org/1999/02/22-rdf-syntax-ns#" xmlns="http://www.w3.org/2000/svg" height="65.388mm" width="169.33mm" version="1.1" xmlns:cc="http://creativecommons.org/ns#" xmlns:dc="http://purl.org/dc/elements/1.1/" viewBox="0 0 599.99998 231.68963">
 <g transform="translate(-151.31 -403.55)">
  <g fill="#d62e86">
   <path d="m483.46 567.31c15.02 0 26.78-7.26 26.78-23.4 0-15.8-12.09-22.74-27.11-22.74h-30.33v46.14h30.66zm-2.25-54.71c13.55 0 25.97-6.78 25.97-21.93 0-14.83-10.82-21.15-24.53-21.15h-29.85v43.08h28.41zm-38.58-51.78h42.43c19.38 0 32.12 9.68 32.12 28.25 0 12.58-7.91 23.69-21.3 26.92v0.16c16.13 2.44 24.69 14.37 24.69 28.09 0 21.77-17.1 31.77-34.7 31.77h-43.24v-115.19z"/>
   <path d="m540.91 556.99v-96.17h9.51v96.82c0 6.29 3.55 11.11 11.61 11.11 3.25 0 6.31-0.46 8.89-0.79v7.25c-3.88 1.13-8.4 1.62-11.93 1.62-14.04 0-18.08-9.84-18.08-19.84"/>
   <path d="m587.37 495.67h9.35v80.36h-9.35v-80.36zm0-34.68h9.35v16.46h-9.35v-16.46z"/>
   <path d="m614.97 566.18 6.45-5.48c6.78 6.46 14.37 9.68 25.02 9.68 10.31 0 20.8-5.66 20.8-15.99 0-9.84-6.13-12.88-17.27-14.99l-8.87-1.93c-14.2-2.74-22.74-9.21-22.74-20.49 0-13.07 10.16-23.24 27.9-23.24 11.3 0 20.65 2.58 26.78 8.87l-6.29 5.34c-5.15-4.2-11.77-6.78-21.28-6.78-10.66 0-17.76 5.96-17.76 14.18 0 8.4 6.45 11.63 18.24 14.21l11.93 2.57c11.31 2.6 19.2 8.57 19.2 20.33 0 16.95-15.32 25.49-30.5 25.49-12.74 0-24.18-3.23-31.61-11.77"/>
   <path d="m689.2 566.18 6.45-5.48c6.78 6.46 14.37 9.68 25.02 9.68 10.31 0 20.8-5.66 20.8-15.99 0-9.84-6.13-12.88-17.27-14.99l-8.87-1.93c-14.2-2.74-22.75-9.21-22.75-20.49 0-13.07 10.17-23.24 27.93-23.24 11.28 0 20.63 2.58 26.76 8.87l-6.29 5.34c-5.15-4.2-11.77-6.78-21.29-6.78-10.65 0-17.75 5.96-17.75 14.18 0 8.4 6.45 11.63 18.24 14.21l11.93 2.57c11.31 2.6 19.2 8.57 19.2 20.33 0 16.95-15.32 25.49-30.5 25.49-12.74 0-24.19-3.23-31.61-11.77"/>
   <path d="m383 635.24h-231.69v-231.69h231.69v231.69z"/>
  </g>
  <g fill="#fff">
   <path d="m254.87 440.08c-8.38 2.57-16.04 7.15-22.82 13.55-16.25 15.48-16.29 36.68-16.2 39.67h35.86l-15.95-11.79c0.26-1 2.84-10.14 12.63-17.9 9.59-7.61 21.15-8.61 22.84-8.7v-17.25c-5.52-0.04-11.02 0.77-16.36 2.42"/>
   <path d="m265.51 570.09-32.66 17.66h75.99l14.51 16.99v-34.65h-57.84z"/>
   <path d="m284.4 508.97-25.9 20.05c-18.8 14.3-30.04 29.69-31.78 32.26-3.06 4.6-7.22 11.59-10.16 19.34-3.28 8.59-5.18 16.9-5.39 23.51l21.7-16.39c0.26-1.09 2.97-11.21 12.88-22.93 10.43-12.35 18.62-18.45 25.21-23.35 1.49-1.09 2.88-2.11 4.23-3.15 0.99-0.79 2.53-1.88 4.29-3.18 4.55-3.25 11.02-7.92 16.32-12.72 8.49-6.99 13.9-17.53 13.9-29.34 0-21.08-17.22-38.16-38.46-38.16v17.57c11.47 0 20.75 9.21 20.75 20.59 0 4.11-1.23 7.91-3.32 11.14-1.04 1.42-2.41 2.97-4.27 4.76"/>
  </g>
 </g>
</svg>
