<?xml version="1.0" encoding="UTF-8" standalone="no"?>
<svg xmlns:rdf="http://www.w3.org/1999/02/22-rdf-syntax-ns#" xmlns="http://www.w3.org/2000/svg" height="93.201mm" width="169.33mm" version="1.1" xmlns:cc="http://creativecommons.org/ns#" xmlns:xlink="http://www.w3.org/1999/xlink" viewBox="0 0 599.99998 330.23986" xmlns:dc="http://purl.org/dc/elements/1.1/">
 <g transform="translate(-104.8 -336.04)">
  <path d="m104.8 666.28h330.24v-330.24h-330.24v330.24z" fill="#fff"/>
  <path d="m104.8 666.28h330.24v-330.24h-330.24v330.24zm0.6-329.63h329.04v329.03h-329.04v-329.03z" fill="#231f20"/>
  <path d="m197.88 463.98 51.12 0.02-22.71-16.8-28.41 16.78z" fill="#fbc707"/>
  <path d="m276.84 384.69c-7.86-0.09-15.7 1.08-23.32 3.43-11.94 3.68-22.88 10.18-32.51 19.34-23.18 22.04-23.24 52.26-23.13 56.52l10.74-6.33 17.67-10.47c0.36-1.44 4.03-14.45 17.98-25.53 13.66-10.83 30.16-12.25 32.57-12.4v-24.56z" fill="#ee2734"/>
  <path d="m351.12 573.43h-82.43l-46.55 25.18h108.33l20.65 24.22v-49.4z" fill="#0f85d1"/>
  <path d="m331.68 463.64c0-30.03-24.56-54.37-54.84-54.37v25.03c16.34 0 29.57 13.14 29.57 29.34 0 5.85-1.74 11.3-4.72 15.89-1.46 2.03-3.44 4.25-6.09 6.79l-36.92 28.58c-26.78 20.36-42.8 42.31-45.26 45.97-4.39 6.55-10.3 16.5-14.52 27.57-4.65 12.24-7.37 24.11-7.67 33.54l30.91-23.37c0.39-1.57 4.25-15.96 18.38-32.7 14.84-17.6 26.54-26.28 35.95-33.26 2.09-1.57 4.09-3.04 5.99-4.52 1.44-1.12 3.62-2.69 6.14-4.5 6.48-4.66 15.7-11.33 23.24-18.14 12.13-9.97 19.84-25.01 19.84-41.85" fill="#59c134"/>
  <path d="m559.4 484.28h-29.27v-68.22h-33.28v168.29h33.28v-69.85h29.27v69.85h33.28v-168.29h-33.28v68.22z" fill="#656263"/>
  <path d="m671.03 539.74c0 8.04-4.01 16.07-15.34 16.07h-12.52v-111.43h12.04c10.86 0 15.82 6.62 15.82 15.36v80zm-12.26-123.68h-48.64v168.29h48.4c25.96 0 46.27-13.44 46.27-42.71v-84.98c0-27.38-20.31-40.6-46.03-40.6" fill="#656263"/>
 </g>
</svg>
