<?xml version="1.0" encoding="UTF-8" standalone="no"?>
<svg xmlns:rdf="http://www.w3.org/1999/02/22-rdf-syntax-ns#" xmlns="http://www.w3.org/2000/svg" height="252.2mm" width="169.33mm" version="1.1" xmlns:cc="http://creativecommons.org/ns#" xmlns:xlink="http://www.w3.org/1999/xlink" viewBox="0 0 599.99998 893.6229" xmlns:dc="http://purl.org/dc/elements/1.1/">
 <g transform="translate(28.821 -56.944)">
  <path d="m-3.8683 354.51 191.82 0.08-85.2-63.05-106.62 62.97z" fill="#fbc707"/>
  <path d="m292.44 56.961c-29.51-0.323-58.93 4.042-87.54 12.852-44.78 13.823-85.85 38.237-121.98 72.587-86.974 82.69-87.217 196.1-86.813 212.1l40.336-23.76 66.277-39.29c1.38-5.41 15.12-54.23 67.5-95.78 51.25-40.66 113.16-45.99 122.22-46.56v-92.149z" fill="#ee2734"/>
  <path d="m571.18 765.22h-309.35l-174.67 94.49h406.5l77.52 90.86v-185.35z" fill="#0f85d1"/>
  <path d="m498.2 353.2c0-112.68-92.14-204.02-205.79-204.02v93.93c61.35 0 110.98 49.31 110.98 110.09 0 21.99-6.55 42.44-17.7 59.66-5.5 7.59-12.94 15.92-22.88 25.46l-138.55 107.26c-100.47 76.39-160.61 158.76-169.82 172.5-16.494 24.57-38.642 61.92-54.485 103.46-17.46 45.92-27.645 90.45-28.776 125.86l115.99-87.7c1.459-5.9 15.931-59.9 68.951-122.71 55.7-66.04 99.59-98.61 134.91-124.8 7.84-5.9 15.36-11.4 22.47-16.98 5.42-4.2 13.58-10.1 23.04-16.89 24.33-17.46 58.93-42.52 87.22-68.06 45.51-37.43 74.44-93.85 74.44-157.06" fill="#59c134"/>
 </g>
</svg>
