<?xml version="1.0" encoding="UTF-8" standalone="no"?>
<svg xmlns:rdf="http://www.w3.org/1999/02/22-rdf-syntax-ns#" xmlns="http://www.w3.org/2000/svg" height="31.955mm" width="169.33mm" version="1.1" xmlns:cc="http://creativecommons.org/ns#" xmlns:dc="http://purl.org/dc/elements/1.1/" viewBox="0 0 599.99998 113.22727">
 <g transform="translate(-151.32 -462.78)">
  <path d="m151.32 576.01h113.23v-113.23h-113.23v113.23z" fill="#e4323a"/>
  <g fill="#fff">
   <path d="m201.92 480.65c-4.09 1.27-7.84 3.5-11.15 6.62-7.94 7.57-7.96 17.93-7.92 19.4h17.53l-7.79-5.76v-0.02c0.12-0.49 1.39-4.96 6.17-8.73 4.69-3.72 10.34-4.21 11.17-4.25v-8.42c-2.71-0.04-5.4 0.35-8.01 1.16"/>
   <path d="m207.12 544.19-15.95 8.63h37.12l7.1 8.31v-16.94h-28.27z"/>
   <path d="m216.36 514.32-12.67 9.8c-9.18 6.98-14.67 14.51-15.52 15.76-1.48 2.25-3.52 5.67-4.96 9.45-1.6 4.19-2.53 8.26-2.63 11.5l10.59-8.01c0.14-0.55 1.45-5.47 6.31-11.22 5.08-6.03 9.09-9 12.31-11.41 0.72-0.53 1.41-1.03 2.06-1.54 0.49-0.38 1.25-0.91 2.1-1.54 2.23-1.6 5.39-3.88 7.98-6.23 4.15-3.42 6.8-8.56 6.8-14.33 0-10.3-8.42-18.64-18.8-18.64v8.58c5.6 0 10.12 4.5 10.12 10.06 0 2-0.59 3.87-1.62 5.43-0.49 0.7-1.16 1.47-2.07 2.34"/>
  </g>
  <g fill="#e4323a">
   <path d="m293.68 487.9h11.13l19.44 34.04h0.15v-34.04h10.1v56.3h-9.46l-21.17-36.87h-0.16v36.87h-10.03v-56.3z"/>
   <path d="m342.67 558.33 0.56-8.52c1.5 0.4 3.63 0.64 5.06 0.64 2.03 0 3.61-0.79 4.56-3.48l1.11-3.72-13.9-40.5h10.97l8.23 26.92h0.08l7.65-26.92h9.48l-13.97 44.61c-2.69 8.52-7.28 11.68-13.5 11.68-2.37 0-4.51-0.23-6.33-0.71"/>
   <path d="m381.77 487.9h10.42v20.85h0.16c2.6-4.66 7.11-6.96 11.99-6.96 6.09 0 10.92 4.59 10.92 11.45v30.96h-10.44v-28.11c0-3.64-1.19-6.17-5.44-6.17-3.48 0-7.19 3.4-7.19 8.38v25.9h-10.42v-56.3z"/>
   <path d="m444.93 519.64v-3.48c0-3.55-1.74-6.78-6.25-6.78-4.17 0-6.22 3.15-6.22 6.63v3.63h12.47zm-22.97 9.87v-10.97c0-11.05 7.81-16.75 16.88-16.75 9.57 0 16.11 5.7 16.11 15.32v9.17h-22.49v3.46c0 5.3 3.55 7.12 8.36 7.12 4.35 0 8.38-1.58 10.75-2.53l2.35 6.96c-4.25 2.75-9.62 3.85-14.84 3.85-9.39 0-17.12-4.64-17.12-15.63"/>
   <path d="m465.8 535.28v-23.68h-5.78v-8.39h5.78v-10.97h10.57v10.97h9.41v8.39h-9.41v20.43c0 2.38 1.03 3.8 4.03 3.8 1.58 0 2.93-0.24 4.35-0.55v8.36c-2.84 0.95-5.53 1.34-8.14 1.34-5.2 0-10.81-2.05-10.81-9.7"/>
   <path d="m489.58 539.07 5.29-6.8c2.99 2.37 7.1 4.98 10.9 4.98 3.71 0 6.01-1.51 6.01-4.19 0-2.99-2.77-3.94-6.25-5.04l-3.8-1.27c-6.54-1.98-9.78-6.32-9.78-12 0-6.4 4.88-12.95 14.69-12.95 5.51 0 10.18 1.49 13.97 4.73l-5.14 6.8c-3.14-2.45-6.07-3.64-8.99-3.64-3.09 0-5.06 1.27-5.06 3.56 0 2.53 1.58 3.4 4.5 4.49l5.22 1.74c7.26 2.45 10.66 6.8 10.66 12.49 0 8.12-7.2 13.18-15.95 13.18-6.49 0-12.08-1.81-16.27-6.08"/>
   <path d="m528.41 487.9h5.53v35.99l15.16-19.88h6.31l-10.81 13.74 11.28 26.45h-5.83l-9.48-22.26-6.63 8.36v13.9h-5.53v-56.3z"/>
   <path d="m582.51 530.85v-6.24h-6.8c-4.65 0-9.95 1.5-9.95 8.22 0 5.46 3.4 7.97 7.28 7.97 5.12 0 9.47-4.17 9.47-9.95m-22.42 2.77c0-9.41 8.2-12.79 14.75-12.79h7.67v-6.88c0-4.74-3.17-6.86-7.89-6.86-4.27 0-8.3 2.04-8.3 6.39v2.29h-4.99v-2.45c0-6.78 6.25-10.26 13.9-10.26 7.12 0 12.89 3.24 12.89 10.66v20.3c0 3.08 0.32 8.2 0.39 10.18h-5.13l-0.32-6.39h-0.16c-2.61 5.75-8.14 7.26-11.76 7.26-5.85 0-11.05-3.8-11.05-11.45"/>
   <path d="m596.95 504.01h5.22v6.8h0.08c2.59-5.38 7.41-7.75 12.55-7.75 6.07 0 10.1 4.58 10.1 10.26v30.87h-5.53v-29.37c0-5.36-2.59-7.33-6.94-7.33-4.82 0-9.94 4.8-9.94 10.81v25.89h-5.54v-40.18z"/>
   <path d="m654.62 530.85v-6.24h-6.8c-4.64 0-9.94 1.5-9.94 8.22 0 5.46 3.4 7.97 7.27 7.97 5.12 0 9.47-4.17 9.47-9.95m-22.41 2.77c0-9.41 8.2-12.79 14.76-12.79h7.65v-6.88c0-4.74-3.16-6.86-7.88-6.86-4.27 0-8.31 2.04-8.31 6.39v2.29h-4.96v-2.45c0-6.78 6.23-10.26 13.9-10.26 7.09 0 12.87 3.24 12.87 10.66v20.3c0 3.08 0.31 8.2 0.39 10.18h-5.14l-0.31-6.39h-0.16c-2.61 5.75-8.13 7.26-11.76 7.26-5.85 0-11.05-3.8-11.05-11.45"/>
   <path d="m668.91 536.3v-48.41h5.53v47.46c0 2.61 1.17 4.51 4.65 4.51 1.02 0 2.45-0.16 3.4-0.32v4.33c-1.82 0.64-3.56 0.79-5.22 0.79-5.28 0-8.36-2.9-8.36-8.36"/>
   <path d="m710.5 521.14v-4.35c0-4.72-2.14-9.47-8.68-9.47-6.09 0-8.62 4.83-8.62 9.47v4.35h17.3zm-22.89 9.47v-12.24c0-9.86 6.3-15.32 14.61-15.32 8.52 0 13.58 5.38 13.58 14.22v7.9h-22.6v5.52c0 6.8 3.56 9.8 10.12 9.8 4.49 0 7.57-1.66 9.79-2.92l2.05 3.71c-3.63 2.83-8.06 3.86-12.63 3.86-8.77 0-14.92-4.33-14.92-14.53"/>
   <path d="m723.37 504.01h5.22v6.8h0.08c2.59-5.38 7.41-7.75 12.55-7.75 6.07 0 10.1 4.58 10.1 10.26v30.87h-5.53v-29.37c0-5.36-2.59-7.33-6.94-7.33-4.83 0-9.95 4.8-9.95 10.81v25.89h-5.53v-40.18z"/>
  </g>
 </g>
</svg>
