<?xml version="1.0" encoding="UTF-8" standalone="no"?>
<svg xmlns:rdf="http://www.w3.org/1999/02/22-rdf-syntax-ns#" xmlns="http://www.w3.org/2000/svg" height="53.926mm" width="169.33mm" version="1.1" xmlns:cc="http://creativecommons.org/ns#" xmlns:dc="http://purl.org/dc/elements/1.1/" viewBox="0 0 599.99998 191.07689">
 <g transform="translate(-151.32 -423.85)">
  <path d="m151.32 614.93h191.08v-191.08h-191.08v191.08z" fill="#fbc707"/>
  <g fill="#231f20">
   <path d="m236.72 453.99c-6.89 2.13-13.23 5.9-18.8 11.2-13.42 12.73-13.44 30.23-13.38 32.7h29.58l-13.15-9.73c0.21-0.82 2.33-8.36 10.41-14.76 7.91-6.28 17.44-7.1 18.86-7.18v-14.22c-4.56-0.04-9.09 0.63-13.52 1.99"/>
   <path d="m245.5 561.21-26.92 14.57h62.66l11.97 14.01v-28.58h-47.71z"/>
   <path d="m261.08 510.8-21.36 16.54c-15.49 11.8-24.78 24.49-26.19 26.61-2.55 3.79-5.97 9.54-8.41 15.95-2.68 7.06-4.25 13.94-4.42 19.39l17.88-13.51c0.23-0.92 2.45-9.25 10.63-18.92 8.59-10.18 15.35-15.22 20.81-19.26 1.2-0.9 2.35-1.74 3.46-2.62 0.83-0.63 2.09-1.55 3.54-2.58 3.76-2.7 9.1-6.55 13.46-10.51 7.01-5.77 11.47-14.48 11.47-24.2 0-17.38-14.21-31.47-31.72-31.47v14.49c9.45 0 17.11 7.6 17.11 16.98 0 3.39-1.01 6.53-2.74 9.19-0.84 1.17-1.99 2.45-3.52 3.92"/>
  </g>
  <g fill="#fbc707">
   <path d="m391.59 550.24 44.02-60.09h-42.16v-19.01h71.52v16.61l-42.67 58.78h42.94v19.39h-73.65v-15.68z"/>
   <path d="m518.02 523.65v-2.26c0-7.31-4.92-10.64-10.78-10.64-5.84 0-11.16 3.47-11.16 11.05v1.85h21.94zm-44.28 15.17v-12.91c0-21.27 16.77-31.37 34.04-31.37 15.96 0 30.97 9.43 30.97 28.44v13.44h-42.67v2.91c0 7.85 7.58 11.45 14.76 11.45 6.13 0 14.76-3.33 18.21-6.39l8.38 12.36c-7.18 7.32-17.95 10.9-29.38 10.9-17.54 0-34.31-8.5-34.31-28.83"/>
   <path d="m596.32 539.87v-17.15c0-7.32-5.18-11.16-11.43-11.16-5.59 0-11.83 3.06-11.83 12.63v16.08c0 7.72 6.24 11.16 12.1 11.16 5.71 0 11.16-3.44 11.16-11.56m-23.39 19.55h-0.4v6.51h-21.41v-94.79h21.94v32.97h0.27c5.06-6.64 12.48-9.57 19.15-9.57 15.67 0 25.92 9.7 25.92 25.92v21.13c0 16.22-12.91 26.06-28.18 26.06-6.8 0-13.31-3.18-17.29-8.23"/>
   <path d="m630.22 496h21.54v11.56h0.13c3.72-6.77 12.62-12.75 21.27-12.75 1.99 0 4.79 0.14 6.91 0.66v18.87c-3.33-0.52-7.31-0.78-9.3-0.78-9.17 0-18.61 3.84-18.61 15.94v36.44h-21.94v-69.94z"/>
   <path d="m728.19 540.53v-3.98h-10.51c-6.37 0-11.02 1.86-11.02 7.56 0 4.54 2.93 7.59 9.7 7.59 8.12 0 11.83-4.52 11.83-11.17m-43.47 6.38c0-16.48 17.28-22.59 31.37-22.59h12.1v-5.46c0-5.72-3.84-8.76-10.89-8.76-7.04 0-10.38 3.31-10.38 7.04v1.99h-19.54v-2.53c0-15.16 15.16-22.07 31.11-22.07 16.08 0 31.64 6.4 31.64 24.07v31.91c0 5.3 0.67 14.09 1.19 15.41h-20.87c-0.13-0.52-0.67-7.31-0.78-7.83h-0.54c-5.86 7.83-14.22 9.3-21.27 9.3-13.44 0-23.14-7.31-23.14-20.48"/>
  </g>
 </g>
</svg>
