<?xml version="1.0" encoding="UTF-8" standalone="no"?>
<!-- Created with Inkscape (http://www.inkscape.org/) -->

<svg
   xmlns:dc="http://purl.org/dc/elements/1.1/"
   xmlns:cc="http://creativecommons.org/ns#"
   xmlns:rdf="http://www.w3.org/1999/02/22-rdf-syntax-ns#"
   xmlns:svg="http://www.w3.org/2000/svg"
   xmlns="http://www.w3.org/2000/svg"
   version="1.0"
   width="599.9928"
   height="254.94701"
   id="svg2">
  <defs
     id="defs3029" />
  <metadata
     id="metadata7">
    <rdf:RDF>
      <cc:Work
         rdf:about="">
        <dc:format>image/svg+xml</dc:format>
        <dc:type
           rdf:resource="http://purl.org/dc/dcmitype/StillImage" />
        <dc:title></dc:title>
      </cc:Work>
    </rdf:RDF>
  </metadata>
  <g
     transform="translate(195.80354,-316.93165)"
     id="layer1">
    <g
       transform="matrix(5.09894,0,0,5.09894,-427.0973,-1821.5902)"
       id="g3862">
      <path
         d="m 70.35946,469.40518 c 13.809171,0 24.998314,-11.19252 24.998314,-24.99831 0,-13.8058 -11.189143,-25.00169 -24.998314,-25.00169 -13.805795,0 -24.998314,11.19589 -24.998314,25.00169 0,13.80579 11.192519,24.99831 24.998314,24.99831"
         id="path24932"
         style="fill:#ee1e23;fill-rule:nonzero;stroke:none" />
      <path
         d="m 71.193409,452.65187 -6.499427,0 6.499427,-9.6124 z m 10.247148,-0.0135 -3.396584,0 0,-28.87095 c 0,-0.22622 -0.148558,-0.4288 -0.364643,-0.49632 -0.219461,-0.0642 -0.452427,0.0169 -0.580728,0.20595 L 53.626387,458.1958 c -0.104666,0.16206 -0.114795,0.36464 -0.02701,0.53683 0.09116,0.16544 0.26673,0.27348 0.455804,0.27348 l 17.323926,0 0,3.90641 c 0,0.29037 0.22959,0.51996 0.516578,0.51996 l 5.631711,0 c 0.286987,0 0.516577,-0.22959 0.516577,-0.51996 l 0,-3.90641 3.396584,0 c 0.286988,0 0.519954,-0.23296 0.519954,-0.51995 l 0,-5.33122 c 0,-0.28699 -0.232966,-0.51658 -0.519954,-0.51658"
         id="path24936"
         style="fill:#ffffff;fill-rule:nonzero;stroke:none" />
      <path
         d="m 107.38429,429.01758 3.03869,0 0,13.3635 15.70329,0 0,-13.3635 3.0387,0 0,30.34979 -3.0387,0 0,-14.24134 -15.70329,0 0,14.24134 -3.03869,0 0,-30.34979"
         id="path24940"
         style="fill:#6f6d6d;fill-rule:nonzero;stroke:none" />
      <path
         d="m 107.38429,429.01758 3.03869,0 0,13.3635 15.70329,0 0,-13.3635 3.0387,0 0,30.34979 -3.0387,0 0,-14.24134 -15.70329,0 0,14.24134 -3.03869,0 z"
         id="path24944"
         style="fill:none;stroke:#6f6d6d;stroke-width:1.95151615;stroke-linecap:butt;stroke-linejoin:miter;stroke-miterlimit:4" />
      <path
         d="m 139.46946,456.61907 4.38585,0 c 0.68201,0 1.44844,-0.0135 2.2959,-0.0405 0.84746,-0.027 1.7253,-0.11479 2.64028,-0.26673 0.91837,-0.14855 1.8401,-0.38827 2.76859,-0.71578 0.92849,-0.33088 1.82997,-0.81031 2.70444,-1.43831 0.46593,-0.38153 0.969,-0.87447 1.51597,-1.47546 0.54696,-0.60436 1.06016,-1.31339 1.53623,-2.13383 0.47943,-0.82045 0.88122,-1.76245 1.20872,-2.83274 0.3275,-1.06354 0.49294,-2.25539 0.49294,-3.5654 0,-2.02242 -0.46255,-3.91654 -1.39442,-5.67898 -0.92849,-1.76582 -2.18448,-3.22439 -3.76798,-4.37234 -0.68201,-0.43555 -1.38091,-0.80694 -2.08994,-1.10744 -0.71241,-0.30049 -1.46195,-0.54021 -2.25539,-0.71578 -0.79343,-0.17894 -1.65102,-0.30724 -2.58289,-0.39165 -0.92849,-0.081 -1.95151,-0.12155 -3.07245,-0.12155 l -4.38585,0 0,24.85651 z m -3.03869,-27.60146 8.85948,0 c 1.88398,0 3.69707,0.21946 5.42913,0.65501 1.73543,0.43892 3.22101,1.05341 4.44999,1.84685 1.33703,0.82044 2.44446,1.77594 3.32231,2.86987 0.87447,1.09393 1.57674,2.22163 2.1102,3.38308 0.53346,1.16146 0.90823,2.30941 1.12769,3.44385 0.21609,1.13445 0.32751,2.1541 0.32751,3.05558 0,0.7124 -0.0878,1.59362 -0.26673,2.64704 -0.17557,1.05341 -0.5132,2.16085 -1.00277,3.3223 -0.49294,1.15808 -1.19184,2.32291 -2.08995,3.48437 -0.90485,1.16146 -2.07981,2.20812 -3.52826,3.13661 -1.22898,0.79343 -2.71456,1.4113 -4.44999,1.84685 -1.73206,0.43554 -3.54515,0.655 -5.42913,0.655 l -8.85948,0 0,-30.34641"
         id="path24948"
         style="fill:#6f6d6d;fill-rule:nonzero;stroke:none" />
      <path
         d="m 139.4695,456.61888 4.38585,0 c 0.68201,0 1.44844,-0.0135 2.2959,-0.0405 0.84746,-0.027 1.7253,-0.11479 2.64028,-0.26673 0.91837,-0.14855 1.8401,-0.38827 2.76859,-0.71578 0.92849,-0.33088 1.82997,-0.81031 2.70444,-1.43831 0.46593,-0.38153 0.969,-0.87447 1.51597,-1.47546 0.54696,-0.60436 1.06016,-1.31339 1.53623,-2.13383 0.47943,-0.82045 0.88122,-1.76245 1.20872,-2.83274 0.3275,-1.06354 0.49294,-2.25539 0.49294,-3.5654 0,-2.02242 -0.46255,-3.91654 -1.39442,-5.67898 -0.92849,-1.76582 -2.18448,-3.22439 -3.76798,-4.37234 -0.68201,-0.43555 -1.38091,-0.80694 -2.08994,-1.10744 -0.71241,-0.30049 -1.46195,-0.54021 -2.25539,-0.71578 -0.79343,-0.17894 -1.65102,-0.30724 -2.58289,-0.39165 -0.92849,-0.081 -1.95151,-0.12155 -3.07245,-0.12155 l -4.38585,0 0,24.85651 z"
         id="path24954"
         style="fill:none;stroke:#6f6d6d;stroke-width:1.95151615;stroke-linecap:butt;stroke-linejoin:miter;stroke-miterlimit:4" />
      <path
         d="m 136.43081,429.01742 8.8561,0 c 1.88737,0 3.69708,0.21946 5.43251,0.65501 1.73543,0.43892 3.21764,1.05679 4.44662,1.84685 1.3404,0.82044 2.44784,1.77594 3.3223,2.86987 0.87447,1.09393 1.58012,2.22163 2.11358,3.38646 0.53009,1.16145 0.90824,2.3094 1.1277,3.44385 0.21608,1.13445 0.3275,2.15072 0.3275,3.0522 0,0.7124 -0.0912,1.59362 -0.26673,2.64704 -0.17894,1.05341 -0.5132,2.16085 -1.00614,3.3223 -0.49295,1.16146 -1.18847,2.32291 -2.08995,3.48775 -0.90148,1.16145 -2.07644,2.20811 -3.52826,3.1366 -1.22898,0.79344 -2.71119,1.40793 -4.44662,1.84348 -1.73543,0.43892 -3.54514,0.65838 -5.43251,0.65838 l -8.8561,0 z"
         id="path24958"
         style="fill:none;stroke:#6f6d6d;stroke-width:1.95151615;stroke-linecap:butt;stroke-linejoin:miter;stroke-miterlimit:4" />
    </g>
  </g>
</svg>
