<?xml version="1.0" encoding="UTF-8" standalone="no"?>
<!-- Created with Inkscape (http://www.inkscape.org/) -->

<svg
   xmlns:dc="http://purl.org/dc/elements/1.1/"
   xmlns:cc="http://creativecommons.org/ns#"
   xmlns:rdf="http://www.w3.org/1999/02/22-rdf-syntax-ns#"
   xmlns:svg="http://www.w3.org/2000/svg"
   xmlns="http://www.w3.org/2000/svg"
   xmlns:xlink="http://www.w3.org/1999/xlink"
   version="1.0"
   width="2127.5085"
   height="1662.4586"
   id="svg2">
  <metadata
     id="metadata7">
    <rdf:RDF>
      <cc:Work
         rdf:about="">
        <dc:format>image/svg+xml</dc:format>
        <dc:type
           rdf:resource="http://purl.org/dc/dcmitype/StillImage" />
        <dc:title></dc:title>
      </cc:Work>
    </rdf:RDF>
  </metadata>
  <defs
     id="defs5">
    <linearGradient
       id="linearGradient3671">
      <stop
         id="stop3673"
         style="stop-color:#b60f3f;stop-opacity:1"
         offset="0" />
      <stop
         id="stop3675"
         style="stop-color:#ff4200;stop-opacity:0.99607843"
         offset="1" />
    </linearGradient>
    <linearGradient
       id="linearGradient3661">
      <stop
         id="stop3663"
         style="stop-color:#ff4200;stop-opacity:1"
         offset="0" />
      <stop
         id="stop3665"
         style="stop-color:#ff4200;stop-opacity:0"
         offset="1" />
    </linearGradient>
    <radialGradient
       cx="-822.27057"
       cy="348.03381"
       r="100.18169"
       fx="-822.27057"
       fy="348.03381"
       id="radialGradient3288"
       xlink:href="#linearGradient3182"
       gradientUnits="userSpaceOnUse"
       gradientTransform="matrix(1,0,0,0.8246754,0,61.018895)" />
    <radialGradient
       cx="-822.27057"
       cy="348.03381"
       r="100.18169"
       fx="-822.27057"
       fy="348.03381"
       id="radialGradient3286"
       xlink:href="#linearGradient3229"
       gradientUnits="userSpaceOnUse"
       gradientTransform="matrix(1,0,0,0.8246754,0,61.018895)" />
    <radialGradient
       cx="-822.27057"
       cy="348.03381"
       r="100.18169"
       fx="-822.27057"
       fy="348.03381"
       id="radialGradient3284"
       xlink:href="#linearGradient3208"
       gradientUnits="userSpaceOnUse"
       gradientTransform="matrix(1,0,0,0.8246754,0,61.018895)" />
    <radialGradient
       cx="-822.27057"
       cy="348.03381"
       r="100.18169"
       fx="-822.27057"
       fy="348.03381"
       id="radialGradient3282"
       xlink:href="#linearGradient4324"
       gradientUnits="userSpaceOnUse"
       gradientTransform="matrix(1,0,0,0.8246754,0,61.018895)" />
    <radialGradient
       cx="-822.27057"
       cy="348.03381"
       r="100.18169"
       fx="-822.27057"
       fy="348.03381"
       id="radialGradient3280"
       xlink:href="#linearGradient4318"
       gradientUnits="userSpaceOnUse"
       gradientTransform="matrix(1,0,0,0.8246754,0,61.018895)" />
    <radialGradient
       cx="-822.27057"
       cy="348.03381"
       r="100.18169"
       fx="-822.27057"
       fy="348.03381"
       id="radialGradient3278"
       xlink:href="#linearGradient4311"
       gradientUnits="userSpaceOnUse"
       gradientTransform="matrix(1,0,0,0.8246754,0,61.018895)" />
    <radialGradient
       cx="-822.27057"
       cy="348.03381"
       r="100.18169"
       fx="-822.27057"
       fy="348.03381"
       id="radialGradient3276"
       xlink:href="#linearGradient4304"
       gradientUnits="userSpaceOnUse"
       gradientTransform="matrix(1,0,0,0.8246754,0,61.018895)" />
    <linearGradient
       id="linearGradient3182">
      <stop
         id="stop3184"
         style="stop-color:#00ccff;stop-opacity:1"
         offset="0" />
      <stop
         id="stop3186"
         style="stop-color:#00ccff;stop-opacity:0"
         offset="1" />
    </linearGradient>
    <linearGradient
       id="linearGradient3208">
      <stop
         id="stop3210"
         style="stop-color:#0055d4;stop-opacity:1"
         offset="0" />
      <stop
         id="stop3212"
         style="stop-color:#0066ff;stop-opacity:0"
         offset="1" />
    </linearGradient>
    <linearGradient
       id="linearGradient3229">
      <stop
         id="stop3231"
         style="stop-color:#00ffcc;stop-opacity:1"
         offset="0" />
      <stop
         id="stop3233"
         style="stop-color:#00ffcc;stop-opacity:0"
         offset="1" />
    </linearGradient>
    <linearGradient
       id="linearGradient4304">
      <stop
         id="stop4306"
         style="stop-color:#00aad4;stop-opacity:1"
         offset="0" />
      <stop
         id="stop4308"
         style="stop-color:#00aad4;stop-opacity:0"
         offset="1" />
    </linearGradient>
    <linearGradient
       id="linearGradient4311">
      <stop
         id="stop4313"
         style="stop-color:#00aad4;stop-opacity:1"
         offset="0" />
      <stop
         id="stop4315"
         style="stop-color:#00aad4;stop-opacity:0"
         offset="1" />
    </linearGradient>
    <linearGradient
       id="linearGradient4318">
      <stop
         id="stop4320"
         style="stop-color:#00aad4;stop-opacity:1"
         offset="0" />
      <stop
         id="stop4322"
         style="stop-color:#00aad4;stop-opacity:0"
         offset="1" />
    </linearGradient>
    <linearGradient
       id="linearGradient4324">
      <stop
         id="stop4326"
         style="stop-color:#00aad4;stop-opacity:1"
         offset="0" />
      <stop
         id="stop4328"
         style="stop-color:#00aad4;stop-opacity:0.02173913"
         offset="1" />
    </linearGradient>
    <linearGradient
       x1="1441.7104"
       y1="726.71667"
       x2="-62.000462"
       y2="1548.3318"
       id="linearGradient3667"
       xlink:href="#linearGradient3661"
       gradientUnits="userSpaceOnUse" />
    <linearGradient
       x1="496.93716"
       y1="1372.2194"
       x2="924.71021"
       y2="781.04242"
       id="linearGradient3677"
       xlink:href="#linearGradient3671"
       gradientUnits="userSpaceOnUse"
       gradientTransform="translate(-15.502217,-62.00869)" />
    <filter
       x="-0.13436812"
       y="-0.18593335"
       width="1.2687362"
       height="1.3718667"
       color-interpolation-filters="sRGB"
       id="filter3863">
      <feGaussianBlur
         id="feGaussianBlur3865"
         stdDeviation="114.09461" />
    </filter>
  </defs>
  <path
     d="M 118.84999,1133.0762 C 13.689983,1003.1844 -364.37361,78.798684 1219.5043,166.77399 2294.4904,271.2685 2212.0624,1150.772 1560.5521,1443.1197 1099.4329,1641.5443 608.76409,1853.3082 118.84999,1133.0762 z"
     transform="matrix(0.82284844,0,0,0.82284844,222.65159,92.936223)"
     id="path3669"
     style="fill:url(#linearGradient3677);fill-opacity:1;stroke:none;filter:url(#filter3863)" />
  <g
     transform="matrix(1.1560818,0,0,1.1560818,3004.9943,-22.615997)"
     id="g3894">
    <path
       d="m -2196.2413,876.17801 c -2.1611,-20.06292 -0.9803,-50.23425 2.6798,-68.46817 7.4616,-37.17307 23.7782,-68.9474 50.6335,-98.60195 14.5009,-16.01244 28.9099,-29.03012 58.0889,-52.48021 34.7839,-27.95441 46.6162,-38.44424 57.8546,-51.29025 17.2167,-19.67964 25.1633,-38.25299 24.9691,-58.35971 -0.2089,-21.62445 -8.0266,-37.15498 -22.2066,-44.11514 -7.1588,-3.51387 -8.4776,-3.70759 -25.2413,-3.70759 -15.1869,0 -18.9551,0.43749 -26.6496,3.09399 -19.2116,6.63273 -33.0853,21.5708 -47.6259,51.2798 -4.7614,9.72832 -8.8325,17.90171 -9.0469,18.16308 -0.3211,0.39143 -60.2353,-26.89383 -62.0088,-28.23916 -1.255,-0.95202 2.9711,-18.77444 6.6062,-27.85923 13.1188,-32.78702 41.0148,-61.77732 73.8394,-76.73596 35.8886,-16.35495 87.2057,-17.6536 126.7863,-3.20848 45.0183,16.42965 69.7047,55.0111 69.557,108.70827 -0.093,33.70893 -10.0313,67.78961 -27.3669,93.84334 -14.8357,22.29666 -31.9429,37.92446 -75.0042,68.51776 -40.7369,28.94191 -56.1908,43.57004 -69.0167,65.32854 -5.4105,9.17855 -12.6119,28.36829 -14.4897,38.61088 l -0.9008,4.91329 92.5158,0 92.5157,0 0,37.99614 0,37.99614 -137.4158,0 -137.4158,0 -1.6573,-15.38538 0,0 z"
       id="path3888"
       style="fill:#ffffff;fill-opacity:0.99898574;fill-rule:nonzero;stroke:none" />
    <path
       d="m -1707.4712,890.13634 c -8.1901,-3.35647 -7.8868,-1.53046 -7.9026,-47.5814 -0.01,-23.12819 -0.3799,-44.26224 -0.8265,-46.96455 l -0.8121,-4.9133 -91.6296,0 c -60.6569,0 -92.4861,-0.45845 -94.1638,-1.3563 -2.4114,-1.29057 -2.5343,-3.10629 -2.5343,-37.45996 l 0,-36.10366 92.6975,-141.97709 92.6975,-141.9771 40.9441,-0.0619 40.9441,-0.062 0,146.74371 0,146.74371 22.9287,0 c 30.5919,0 28.1696,-2.79163 28.1696,32.46375 0,22.51834 -0.3525,27.72615 -2.0396,30.13487 -1.982,2.82971 -2.7206,2.91196 -26.1433,2.91196 l -24.1036,0 -0.3885,47.77751 c -0.3562,43.79211 -0.5835,47.97255 -2.7257,50.1156 -2.088,2.0889 -5.5091,2.36789 -32.1002,2.61778 -17.8364,0.1676 -31.0648,-0.25382 -33.0117,-1.05164 l 0,0 z m -5.2677,-254.71933 c 0,-49.36223 -0.4422,-89.72872 -0.9827,-89.70333 -0.7466,0.0351 -91.9339,146.17479 -108.8218,174.40144 l -3.0223,5.05139 56.4134,0 56.4134,0 0,-89.7495 z"
       id="path3890"
       style="fill:#ffffff;fill-opacity:0.99898574;fill-rule:nonzero;stroke:none" />
    <path
       d="m -1532.0906,870.11154 -0.098,-17.91403 17.6611,-8.39199 17.6611,-8.39197 0.7848,-56.76129 c 0.4317,-31.2187 1.1258,-108.07459 1.5426,-170.79085 l 0.7577,-114.02958 -18.2213,-7.57224 -18.2213,-7.57225 -0.8809,-18.4538 c -0.4845,-10.1496 -0.5641,-18.77065 -0.1768,-19.15791 1.2603,-1.26029 105.9576,-25.82072 112.1557,-25.46546 12.4935,0.71612 10.3558,-4.7594 10.3558,85.01546 0,44.22968 0.4868,80.41759 1.0818,80.41759 0.595,0 2.5112,-1.53782 4.2582,-3.41738 5.0784,-5.46374 18.3352,-14.46744 29.6117,-20.11149 13.5678,-6.79091 30.9073,-11.34837 50.2882,-13.21761 53.6941,-5.17865 86.7971,19.54944 95.672,71.46754 1.6702,9.77059 1.9607,144.89877 0.4183,194.56599 l -0.7934,25.54913 18.1516,6.66237 18.1516,6.66236 0.3735,18.88677 c 0.3551,17.96127 0.2357,18.9991 -2.438,21.17962 -2.579,2.10321 -7.3939,2.29287 -58.2052,2.29287 -50.8441,0 -55.6176,-0.18831 -58.1194,-2.29287 -2.7181,-2.28646 -2.7269,-2.62619 -3.1568,-121.52213 -0.4241,-117.3073 -0.4764,-119.39201 -3.2468,-129.32483 -4.0603,-14.55764 -8.8477,-21.55412 -17.9375,-26.21423 -7.6184,-3.90576 -23.0697,-2.84658 -35.4586,2.43068 -8.6459,3.68286 -27.2394,15.27141 -34.9244,21.76688 l -3.4793,2.94075 -0.4584,97.89966 -0.4585,97.89965 17.3674,8.13683 17.3675,8.13684 0,17.20055 c 0,12.78456 -0.4773,17.85349 -1.8592,19.74382 -1.7968,2.45795 -4.3371,2.55534 -75.6991,2.90212 -62.6623,0.30451 -74.2314,0.0727 -76.426,-1.53114 -4.8617,-4.19058 -3.2446,-14.11692 -3.402,-19.62443 z"
       id="path3892"
       style="fill:#ffffff;fill-opacity:0.99898574;fill-rule:nonzero;stroke:none" />
  </g>
</svg>
