<?xml version="1.0" encoding="UTF-8" standalone="no"?>
<!-- Created with Inkscape (http://www.inkscape.org/) -->

<svg
   xmlns:dc="http://purl.org/dc/elements/1.1/"
   xmlns:cc="http://creativecommons.org/ns#"
   xmlns:rdf="http://www.w3.org/1999/02/22-rdf-syntax-ns#"
   xmlns:svg="http://www.w3.org/2000/svg"
   xmlns="http://www.w3.org/2000/svg"
   xmlns:inkscape="http://www.inkscape.org/namespaces/inkscape"
   version="1.0"
   width="1340"
   height="1340"
   id="svg2">
  <defs
     id="defs4" />
  <metadata
     id="metadata7">
    <rdf:RDF>
      <cc:Work
         rdf:about="">
        <dc:format>image/svg+xml</dc:format>
        <dc:type
           rdf:resource="http://purl.org/dc/dcmitype/StillImage" />
      </cc:Work>
    </rdf:RDF>
  </metadata>
  <g
     transform="translate(342.857,-15.2194)"
     id="layer1">
    <path
       d="m 965.71426,669.50507 a 654.28571,654.28571 0 1 1 -1308.57141,0 654.28571,654.28571 0 1 1 1308.57141,0 z"
       inkscape:connector-curvature="0"
       transform="translate(15.7143,15.7143)"
       id="path1872"
       style="fill:#1f60a9;fill-opacity:1;fill-rule:nonzero;stroke:none" />
    <path
       d="m 115.17921,559.54645 0,77.99673 -61.132477,0 0,112.92917 c -1.53e-4,15.45873 2.910885,24.64412 8.73322,27.55465 5.821924,2.91155 11.844853,4.36708 18.068689,4.36708 9.636443,0 21.079948,-1.70685 34.330568,-5.11951 l 0,85.52512 c -23.690269,4.61738 -46.978836,6.92605 -69.865695,6.92605 -36.940587,0 -64.093835,-7.9298 -81.459794,-23.79044 -17.366114,-15.86011 -26.04912,-41.15645 -26.049069,-75.88847 l 0.301126,-35.836 0,-96.66765 -45.774088,0 0,-77.99673 45.774088,0 1.80691,-99.67942 114.134045,-1.80656 0,101.48598 61.132477,0 z m 332.52653,0 -112.32713,306.26451 -89.7413,0 -114.43522,-306.26451 123.46957,0 43.66603,130.09475 c 3.61362,10.6404 6.82584,21.18058 9.63666,31.62003 1.00364,-3.61362 2.50938,-8.23098 4.5172,-13.85262 0.40134,-0.80279 1.70632,-4.61736 3.9149,-11.44371 l 45.17176,-136.41845 86.12753,0 z m 314.24836,306.26451 -120.15694,0 0,-192.73298 c -2.1e-4,-15.86011 -2.45958,-25.99837 -7.37807,-30.41532 -4.91891,-4.41692 -11.09238,-6.62538 -18.52045,-6.62538 -21.88336,0 -32.82494,15.25829 -32.82485,45.77383 l 0,183.99985 -120.15692,0 0,-306.26451 111.42376,0 0,43.36492 c 16.46243,-33.12592 45.87425,-49.68861 88.23552,-49.68913 22.28453,5.2e-4 41.10607,4.26633 56.46474,12.7985 15.35812,8.53318 26.3499,19.57499 32.97541,33.12644 6.62487,13.55143 9.93747,37.09106 9.9378,70.61837 l 0,196.04541 z"
       inkscape:connector-curvature="0"
       id="flowRoot1874"
       style="fill:#fcb130;fill-opacity:1;font-family:Franklin Gothic Heavy" />
  </g>
</svg>
