<?xml version="1.0" encoding="UTF-8" standalone="no"?>
<!-- Created with Inkscape (http://www.inkscape.org/) -->

<svg
   xmlns:dc="http://purl.org/dc/elements/1.1/"
   xmlns:cc="http://creativecommons.org/ns#"
   xmlns:rdf="http://www.w3.org/1999/02/22-rdf-syntax-ns#"
   xmlns:svg="http://www.w3.org/2000/svg"
   xmlns="http://www.w3.org/2000/svg"
   xmlns:inkscape="http://www.inkscape.org/namespaces/inkscape"
   version="1.0"
   width="956.69287"
   height="723.89764"
   id="svg2">
  <metadata
     id="metadata17">
    <rdf:RDF>
      <cc:Work
         rdf:about="">
        <dc:format>image/svg+xml</dc:format>
        <dc:type
           rdf:resource="http://purl.org/dc/dcmitype/StillImage" />
      </cc:Work>
    </rdf:RDF>
  </metadata>
  <defs
     id="defs4" />
  <g
     transform="translate(-584.90955,-173.10226)"
     id="layer1">
    <g
       transform="matrix(4.2097729,0,0,4.2097729,-1841.9936,-2616.583)"
       id="g2864">
      <path
         d="m 681.90221,772.42837 -1.15137,-0.49085 c -0.64234,0.0909 -1.23621,0.50297 -1.90279,1.13925 l -0.59387,0.40601 c -0.79384,0.54539 -1.43012,1.39377 -2.08458,2.13913 -1.02412,0.46661 -1.79978,1.12107 -2.66634,1.89067 l -0.23027,0.68476 -0.41207,0.16362 c -0.62417,0.95745 -1.35135,1.92703 -2.41788,2.83601 -0.49085,0.39389 -0.67264,0.64234 -0.69082,1.29074 -1.23015,1.26045 -2.55726,2.6421 -4.04798,4.36915 l -0.13938,0.56357 0.3333,0.81808 -0.32118,0.0485 -1.04835,0.25451 c -0.95746,0.8908 -1.418,1.49678 -1.94521,1.57556 l -1.10895,-0.93322 c -0.0727,-0.5272 -0.23634,-2.46029 -0.0303,-5.63565 l -0.16968,-0.41207 0.0909,-0.87868 -0.0424,-0.32117 c -0.0303,-6.39314 0.70294,-14.3073 1.75736,-23.7849 0.35147,-0.59386 0.63628,-0.85444 0.58174,-1.27863 l -0.45449,-0.90897 c 0.1515,-0.46055 0.53933,-3.61167 0.96958,-5.95077 1.49072,-0.20604 3.99344,-1.02412 4.30855,-1.06654 0.47873,-0.0666 1.16955,-0.99987 2.67239,-1.42406 0.93928,-0.27269 2.48454,0.0364 3.62985,-0.30299 1.28469,-0.38177 2.64209,-0.79384 3.97526,-1.19379 0.56963,-0.16968 3.44805,-0.71506 3.9995,-0.87868 2.97538,-0.8908 3.22384,-1.26651 4.0298,-1.41194 1.35134,-0.2424 2.3997,-1.14532 3.08446,-1.24227 1.86037,-0.2727 1.51496,0.39389 1.23015,-1.6301 l -2.69663,-0.72112 -1.97551,0.89685 -2.69664,-0.17573 -3.22383,1.07865 -2.69058,-0.72112 -4.31461,1.43618 -5.92653,0.43025 c -0.68476,-0.23027 -1.23015,-0.26057 -1.97551,-0.15755 0.24846,-2.85419 0.55751,-5.28419 0.84838,-7.05973 l -0.7393,-1.418 c -0.45449,-0.90898 -0.92716,-1.16955 -1.77554,-1.04835 -1.27862,0.17573 -2.76934,1.14531 -2.63603,2.10276 l 0.0303,0.2121 c -0.80596,0.44237 -1.35134,1.16955 -1.64222,2.1876 -0.10907,0.7696 -0.5878,2.79359 -1.55132,5.96289 -0.60598,0.30299 -1.43012,0.63629 -2.58149,0.90898 l -0.59387,-0.35147 c -1.19985,-0.0485 -1.95733,-0.0485 -2.38758,0.0121 -0.5272,0.0727 -1.27256,0.17573 -2.10882,0.40601 l -0.80596,0.43631 -0.44237,-0.0485 c -1.29075,0.0727 -2.05429,0.0727 -2.26638,0.10301 -1.38165,0.19392 -2.75118,0.49691 -4.11464,0.79384 -1.20591,-0.0485 -2.38758,0.0121 -3.55713,0.17574 -0.64234,0.0909 -0.38783,0.78172 -1.84825,1.20591 l -1.86644,0.1818 -0.5272,0.0788 -1.92097,2.42394 c 0.27269,1.91491 2.36334,2.28456 2.48453,3.139 0.16362,1.16955 0.20604,1.48466 1.50284,1.41195 0.81808,0.43025 2.00581,-0.0424 2.11489,-0.0606 l 1.47254,-0.66053 4.45399,-0.59386 3.58743,-0.72112 c 0.30299,-0.1515 2.12701,-0.43631 2.87237,-0.53933 0.63628,-0.0909 1.69069,-0.68476 2.69663,-1.26045 l 2.15124,0.1818 c -0.29087,1.01805 -1.18167,3.27232 -1.63615,3.8783 -1.98763,4.39945 -1.6907,7.29 -3.07235,7.48391 l -0.10301,0.0121 c -0.43025,1.58162 -1.09078,3.08446 -1.86644,4.49641 l 0.303,0.60598 c 0.0606,0.42419 -0.23028,0.68476 -0.85444,0.87868 -1.39983,2.3694 -2.46636,4.03586 -2.68451,5.58718 -1.06654,1.66646 -2.21185,3.56925 -3.44806,5.58112 l 0.1212,0.85443 -1.23015,0.49691 -1.03623,1.12107 -0.50297,1.04836 c -0.88474,0.66658 -1.4483,1.29074 -1.73918,2.3088 l -1.58162,1.09077 0.2121,0.72718 c -0.35147,0.59387 -0.99382,1.44225 -2.03005,2.56332 l 0.19392,1.38164 c -0.71507,0.32117 -0.98776,0.68477 -1.19985,1.47255 l 0.0424,0.32117 c 0.1212,0.84838 0.46661,1.01805 1.42407,0.88473 l 1.03623,-0.36359 0.85444,-0.87867 c 0.44237,-0.71507 1.13925,-1.13925 1.91491,-1.78766 0.58175,-0.51509 1.05442,-1.01805 1.6604,-1.32104 0.55145,-0.72719 1.23621,-1.26045 2.22396,-1.93916 l 0.57569,-0.51508 c 0.097,-0.87868 0.35147,-1.35135 1.04229,-1.88461 l 1.13925,-1.1332 0.19998,-0.89685 c -0.0121,-0.86656 0.16967,-1.10896 1.01805,-1.23015 0.64235,-0.0909 0.90292,-0.55751 1.19379,-1.57556 l 1.10895,-1.35135 c 0.0182,-1.41194 1.08472,-1.56344 1.70888,-2.51483 0.53327,-1.59374 0.84232,-2.50878 1.721,-3.17536 l 0.49085,-1.15137 -0.097,1.64221 0.42419,0.69689 c 0.0485,0.32117 -0.32117,0.80596 -0.86656,1.53314 -0.47873,2.01793 -0.81808,4.99937 -1.02411,8.93221 l 0.0606,0.42419 0.43631,0.80596 -0.23027,0.68476 c -0.26058,1.23015 -0.29087,2.53908 -0.12726,3.70863 l 0.23634,1.70282 0.35147,0.92715 0.0606,0.42419 c -0.006,0.75748 0.0545,1.18773 0.0848,1.39983 0.56963,4.04194 1.09684,5.48414 4.27219,5.69024 l 1.04836,0.5029 0.60598,-0.303 0.35147,0.1697 0.75748,0 c 0.74537,-0.103 1.33923,-0.5151 1.70282,-0.9999 l 0.21816,-0.0303 c 2.44817,-1.8603 4.42974,-3.9813 5.81745,-6.45977 0,-0.75748 0.16967,-1.10895 0.89686,-1.31498 1.27862,-0.93928 2.36334,-2.50272 3.64196,-4.96302 0.0364,-0.54539 0.10908,-0.77566 0.64235,-0.84838 0.50296,-0.29087 1.21803,-1.36346 2.58755,-3.18748 l 1.46648,-1.93915 0.56357,-1.38164 c 1.06653,-0.1515 1.23015,-0.49691 1.20591,-1.47255 1.10895,-1.35134 2.01187,-2.66633 2.70875,-3.85406 l 0.10908,-0.7696 c 0.24845,-0.58174 0.39995,-1.03623 0.33935,-1.46042 z"
         inkscape:connector-curvature="0"
         id="path3053"
         style="fill:#9e0c47;fill-opacity:1;fill-rule:nonzero;stroke:none" />
      <path
         d="m 726.71235,766.28974 c -0.0606,-0.41207 -0.60598,-0.54538 -1.63616,-0.39995 -0.51509,0.0727 -0.97563,0.55751 -1.59374,1.38165 l -1.418,1.14531 c -0.20604,0.76354 -0.59387,1.03017 -1.35741,1.55738 l -1.4483,0.93928 c -1.09077,1.20591 -2.30274,2.32698 -2.91479,3.98738 -2.28456,1.69069 -3.62985,3.35109 -4.60548,5.3872 l 0.0424,0.30905 c 0.0848,0.61811 -0.19392,0.86656 -1.12107,0.99988 l -0.78172,0.42419 0.41207,-2.26639 0.0364,-0.53326 c 1.09683,-3.41776 1.96339,-8.48379 2.69663,-15.21628 l 0.0909,-0.85444 0.35754,-1.94521 c -0.12726,-1.66646 0.13937,-2.75723 0.0848,-3.1693 -0.13331,-0.92715 -1.38164,-1.59374 -3.44805,-1.30286 -1.85431,0.26057 -2.62391,1.52708 -4.36915,3.35109 l -0.0909,0.85444 c -1.4786,1.46648 -2.80571,3.23596 -4.4055,5.35084 l -0.32118,0.67871 c -0.72718,0.83626 -1.55738,2.42999 -3.24201,4.66608 l -0.88474,1.17561 -1.01806,0.98169 c -0.84232,1.49073 -1.5089,2.73905 -2.53301,3.72681 -1.60586,1.27863 -2.90873,2.51484 -3.69045,3.67227 l -0.57568,0.39995 -0.33936,-0.16362 -0.45448,-0.98775 c -0.0545,-0.41207 -0.1212,-3.87831 0.74536,-8.94434 l 0.10301,-2.22396 c 0.2424,-0.56357 0.29694,-0.88474 0.2424,-1.29681 l -0.0606,-0.41207 0.1212,-0.6484 0.0182,-0.63629 c -0.23634,-1.64827 -1.98763,-2.87842 -3.63591,-2.64815 -2.5815,0.36359 -3.97526,3.92678 -7.77478,9.09583 l -0.16362,1.07259 -1.13925,0.89686 c -0.89686,1.07259 -1.63616,1.81189 -2.40576,2.3391 l -0.6484,0.61811 -0.0485,1.16349 -0.30906,0.0424 c -1.13319,0.15755 -1.73917,1.08471 -1.67251,2.3391 l -1.10289,0.36965 -0.36966,1.10289 c -0.44842,0.5878 -1.05441,1.51496 -1.83613,2.67845 l 0.15756,1.13319 -1.19379,1.21803 -0.0303,0.53327 c 0.0848,0.6181 0.5575,0.97563 1.07259,0.90291 0.30905,-0.0424 0.90292,-0.33935 1.58162,-0.75142 0.30905,-0.78172 0.7696,-1.2665 1.56344,-1.58768 l 0.98776,-1.18773 c 1.10895,-0.36965 1.96339,-1.01199 2.55725,-2.04822 0.91504,-0.23028 1.38771,-1.35135 2.78753,-1.86038 l 0.22422,-0.66658 0.36965,-0.36359 0.50296,-0.17574 0.45449,0.24846 c 0.27875,1.22409 0.53933,2.34516 0.72718,3.68438 l 0.18786,1.34529 0.709,0.53327 -0.10302,0.75142 0.097,0.72112 c 0.59387,4.22977 1.5392,4.20553 4.63578,3.76922 l 0.41207,-0.0606 c 1.65434,-0.23028 3.33292,-1.73312 5.36297,-4.53883 0.0727,-0.95746 0.88473,-1.18167 2.03611,-1.96945 1.33316,-1.76948 2.51483,-3.09052 3.30867,-4.15099 l 0.7999,-1.79372 0.38783,-0.26663 0.11514,-0.64841 c 1.02411,-0.98775 2.23002,-2.10276 3.49047,-3.64802 l 0.38177,-0.99988 0.43025,0.0424 0.14544,1.03623 c 0.15755,1.1332 0.24239,2.4906 0.0364,3.99344 l 0.0424,0.30906 -0.13331,0.54538 c 0.0969,0.72112 0.0667,1.25439 -0.13938,2.01793 l 0.23633,0.91504 c 0.11514,0.82414 -0.0969,1.58768 -0.62416,2.29668 -0.13938,1.27863 -0.27269,2.56331 -0.73324,3.7874 l 0.16361,0.39389 -0.61204,2.40576 0.24845,0.27876 c -0.30905,0.78172 -0.57568,1.87249 -0.83019,3.06022 -1.81796,2.78145 -3.5329,5.55085 -5.25389,8.32015 -0.42419,0.6908 -0.64841,1.3514 -0.64841,2.0907 l -0.84231,0.7453 c -1.24227,2.3876 -2.51484,4.5631 -3.59955,6.6113 l -0.29694,0.8848 0.0727,0.515 c -0.98775,1.1938 -1.65434,1.7089 -1.59374,2.121 l 0.30906,0.6908 c -0.57569,0.4 -1.15138,0.7939 -1.40589,1.2483 -0.94534,2.2422 -1.52708,4.1086 -2.13307,5.7751 l -0.0909,0.8544 0.0121,0.8423 0.29087,0.5878 c 0.6787,0.3273 1.32711,0.4424 2.04823,0.3454 0.8302,-0.1151 2.02399,-0.5999 3.59955,-1.3513 1.68463,-1.4968 3.02992,-3.1572 4.00556,-5.1933 0.29693,-0.8787 0.83019,-1.5877 1.59979,-2.1149 l 0.38177,-1.0059 1.19985,-1.9573 1.36347,-2.2907 1.10895,-2.5815 c 0.60599,-0.9271 1.09683,-1.9391 1.27257,-2.9147 0.66658,-0.5151 0.7999,-1.0605 0.78778,-1.8968 l 0.27875,-0.2545 0.1212,-0.6423 0.56357,-0.503 0.10301,-0.7514 c 0.64841,-0.6181 1.04836,-1.515 1.16955,-2.9027 0.66659,-1.2483 1.19985,-2.6906 1.6301,-4.1207 0.46055,-0.4848 0.78172,-1.16347 1.19985,-1.95731 1.67252,-2.3391 2.96933,-4.31461 4.10858,-5.94471 0.22421,-0.66052 0.65446,-1.35741 1.80583,-2.14519 0.30905,-0.78172 0.84232,-1.49072 1.68464,-2.23608 l 0.14544,-0.44237 0.26663,-0.35753 c 0.21209,-0.76354 0.57568,-1.13319 1.49072,-1.36347 l 0.0303,-0.53326 c 1.06653,-0.67265 1.89067,-1.52708 2.67845,-2.69057 l 0.13332,-0.54539 0.59992,-0.18786 c 1.00594,-1.09077 1.79372,-2.25426 2.26639,-3.36927 1.12107,-0.26663 1.28468,-0.60598 1.13925,-1.63616 1.01805,-0.98169 1.87855,-2.3694 2.80571,-3.9692 l 0.10907,-1.49072 0.13332,-0.54539 z"
         inkscape:connector-curvature="0"
         id="path3057"
         style="fill:#9e0c47;fill-opacity:1;fill-rule:nonzero;stroke:none" />
      <path
         d="m 737.59281,773.32159 -0.9514,0.98169 -0.35753,-0.0182 c -1.18773,0.7393 -2.30274,0.77566 -3.00568,0.87867 -2.73905,0.38177 -5.57506,-1.75129 -6.36284,-6.87186 0.68476,-0.7393 1.08471,-1.44225 1.31499,-2.33304 l 0.30299,-0.39995 c 1.45436,-2.92691 2.53302,-4.93878 2.79359,-6.12651 -0.10908,-0.7696 0.11514,-1.23015 0.7696,-1.68464 l 0.29087,-0.96957 0.2424,-0.32117 c 0.25451,-0.75142 0.4363,-1.49679 0.6787,-2.31486 l -0.0424,-0.28482 0.37571,-0.90897 c 0.27269,-0.61205 0.59387,-1.37559 0.90898,-2.20579 l -0.0606,-0.42419 c 0.18179,-0.7393 0.40601,-1.70281 0.60598,-2.80571 l -0.0182,-1.14531 0.36359,-0.47873 c 1.14532,-4.10251 1.12108,-6.82338 1.04836,-7.31423 l -0.27876,-0.96352 0.23634,-0.89079 c -0.097,-0.70295 -0.11514,-1.34529 -0.19998,-1.90886 -0.31511,-2.2482 -0.86049,-3.10264 -2.81782,-3.25413 l -0.93322,-0.0121 c -1.40589,0.19391 -4.89636,4.91453 -7.67783,14.1861 l 0.0364,0.28481 c 0.0788,0.56357 -0.0182,0.8605 -0.53326,1.29075 -0.32118,0.76354 -0.49691,1.57556 -0.66659,2.38758 l 0.0364,0.27875 -0.24239,0.82414 c -1.26045,5.26601 -1.91491,10.30174 -1.70888,15.35565 l 0.41207,0.87262 -0.39389,0.77566 0.29693,0.59992 -0.66052,0.88474 -0.36359,0.47873 c -0.58175,0.44237 -0.63628,1.09077 -1.16955,1.38164 l -0.23633,0.32118 -0.89686,0.7696 -0.26058,0.68476 c -0.65446,0.44843 -1.01805,0.92716 -1.13925,1.58768 l -0.73324,0.39389 -0.0545,0.6484 c -0.49084,0.57569 -0.90291,1.20591 -1.23621,1.89673 l 0.1515,0.55145 -0.80596,0.90292 -0.0727,0.50903 c 0.0485,0.35147 0.44237,0.58174 0.99988,0.50296 l 0.14543,-0.0182 1.0726,-1.01199 0.58174,-0.43631 c 0.41207,-0.63628 0.92716,-1.06653 1.67858,-1.31499 0.39389,-0.7696 0.8908,-1.33922 1.6907,-1.73917 l 0.28481,-0.53933 0.26663,-0.11514 c 0.2424,-0.32117 0.67871,-0.80596 1.15743,-1.4483 l 0.0848,-0.44237 0.19998,-0.59992 c 0.20603,1.47254 0.59386,2.70875 1.10895,3.78134 l 0.6787,0.76354 0.006,0.57569 c 1.5089,2.58149 4.35703,3.9692 5.97501,3.74498 l 0.59992,-0.30299 0.53327,0.21209 0.87262,0.097 c 1.75735,-0.24845 3.27232,-1.18167 4.93271,-2.62997 l 0.97564,-0.709 1.13319,-1.09078 c 0.0606,-0.58174 0.25451,-0.75142 0.80596,-0.90291 l 0.16968,-0.30906 0.50296,-0.50296 1.05442,-1.61798 c 0.36965,-0.40601 -3.67227,-1.29681 -4.49641,-0.0364 z m -5.01149,-30.46891 c 0.15755,1.12107 -0.20604,3.1087 -0.78778,6.12651 l 0.12725,0.41207 c -0.47266,0.71506 -0.67264,1.31498 -0.58174,1.94521 l -0.30299,0.39995 -0.47267,1.21197 0.0485,0.35147 -0.38783,1.34528 c -0.83626,2.19367 -1.59374,3.95102 -2.26033,5.33267 l 0.0303,0.21209 -0.53326,0.78778 -0.56357,1.08471 -0.52115,0.8605 c -0.23027,-2.11488 0.0182,-3.94496 0.75143,-5.83563 l -0.12726,-0.41207 0.35147,-1.05441 c 0.24845,-1.82402 1.22409,-4.04192 2.1573,-7.1082 l -0.0303,-0.2121 0.42418,-1.06047 c 0.35148,-0.55145 0.56963,-1.01199 0.76355,-1.68464 l 0,-0.50296 0.30299,-0.39995 c 0.50297,-0.99988 0.81808,-1.83008 1.16955,-2.38152 l 0.26057,-0.1818 0.1818,0.76354 z"
         inkscape:connector-curvature="0"
         id="path3061"
         style="fill:#9e0c47;fill-opacity:1;fill-rule:nonzero;stroke:none" />
      <path
         d="m 632.04301,705.30769 c -0.1212,-0.88474 -2.35122,-1.37559 -4.7085,-1.04835 l -1.00594,0.29087 c -4.03585,1.16955 -9.8836,4.39339 -17.73111,9.39276 l -0.59386,1.13319 -1.40589,0.64841 c -2.2785,1.96945 -5.09633,4.32067 -8.25351,7.45967 l -0.19391,0.78172 c -1.38771,0.79384 -2.33304,1.52708 -2.90267,2.80571 -2.9875,2.2179 -5.18117,5.82957 -7.44149,11.09558 l -0.21209,1.68463 -1.36953,1.98763 c -0.34541,1.84826 -0.84838,3.56925 -1.31499,5.58718 l 0.39389,1.74524 c -0.33935,0.7999 -0.40601,1.40588 -0.32117,1.99369 0.35147,2.50271 1.73312,5.90835 4.24189,9.90785 0.61205,0.0606 0.7999,0.33329 0.8605,0.77566 l 0.0848,0.5878 1.55132,1.43619 1.09077,0.29693 2.24215,3.13294 c 2.01187,1.51496 4.21159,3.30867 6.62341,5.52052 l 0.9211,0.16967 2.22396,1.93916 1.26045,0.41812 0.5878,0.96958 c 9.14431,7.41725 14.78603,11.27131 15.48897,16.27675 0.0788,0.5878 0.1818,1.32104 0.16362,2.22396 -1.05442,1.04837 -2.27851,1.96947 -3.51471,2.74507 -0.23634,0.4848 -1.89674,2.8966 -2.92691,3.0421 -0.44237,0.0606 -2.69057,3.7268 -4.32067,4.763 l -8.46561,4.8843 -4.88423,2.0724 c -3.1087,0.8848 -2.66634,0.7393 -5.65384,1.9271 l -1.78159,3.751 c -0.2121,0.6302 -0.25452,1.3877 -0.13332,2.2724 l 0.33329,1.3029 0.94534,1.3635 c 3.37533,1.6301 6.02348,2.3088 8.22927,1.9937 l 0.44237,-0.0606 0.61204,0.0666 c 1.53314,-0.8181 3.1087,-1.3392 4.85394,-1.7331 l 0.65446,-0.6908 0.84232,-0.4181 0.63022,-0.8424 c 1.80584,-1.0059 3.59955,-2.1573 5.30237,-3.8964 l 0.31511,0.109 c 2.69663,-2.1815 5.21753,-4.4842 7.59905,-6.7688 l 1.01199,-1.3453 1.11502,-0.606 c 2.82388,-3.3935 5.33266,-6.8961 7.85962,-10.2532 l 0.50296,-0.6727 3.82983,-2.63602 c 1.5392,-0.81808 2.16942,-1.65434 2.10882,-3.14506 -0.29087,-1.01199 -0.52114,-1.58162 -0.53932,-1.72705 l -0.16968,-1.17561 c -0.23027,-0.56963 -0.73324,-0.94534 -1.16955,-0.88474 l -0.55145,0.37571 -1.40588,0.6484 c -0.10302,-1.78765 -0.29087,-3.1087 -0.41207,-3.99344 -0.43631,-3.09052 -1.39376,-5.65383 -3.42987,-8.36864 -1.13319,-0.58781 -1.96945,-1.22409 -2.57544,-2.33911 -11.42887,-9.79271 -18.36739,-16.47066 -21.27612,-20.10657 -1.53314,-0.23633 -2.43606,-1.30892 -2.56331,-2.19366 l -0.13938,-1.03017 -0.81808,-1.53315 c -1.63616,-2.02398 -2.47242,-3.70256 -2.69663,-5.32054 -0.58175,-4.1207 1.17561,-8.72012 5.36902,-14.10732 l 0.44237,-1.11502 0.98776,-0.4363 c 2.65421,-3.52684 4.88423,-5.78716 6.88398,-6.5204 4.88424,-4.61154 13.67708,-8.6171 13.40438,-9.4776 l 1.5695,-2.09065 1.38771,-0.34541 1.08471,-1.63616 0.8302,-3.06022 z"
         inkscape:connector-curvature="0"
         id="path3065"
         style="fill:#9e0c47;fill-opacity:1;fill-rule:nonzero;stroke:none" />
      <path
         d="m 702.60325,734.8555 c -1.78159,-5.00543 -2.81177,-10.39264 -2.81177,-16.01011 0,-26.38458 21.3852,-47.76977 47.76977,-47.76977 26.38457,0 47.76978,21.38519 47.76978,47.76977 0,21.19128 -14.59818,42.20683 -34.20784,47.53949 l 1.72705,-5.07209 c 16.62822,-6.77491 28.40249,-23.05771 28.40249,-42.12199 0,-25.13019 -20.36713,-45.49733 -45.49125,-45.49733 -25.13019,0 -45.49733,20.36714 -45.49733,45.49733 0,5.50234 0.77566,10.8653 2.56937,15.74954 l -0.23027,-0.0848 z"
         inkscape:connector-curvature="0"
         id="path3069"
         style="fill:#9e0c47;fill-opacity:1;fill-rule:nonzero;stroke:none" />
      <path
         d="m 731.90564,707.97887 0,5.07815 -4.01162,0 0,7.39907 c 0,1.53315 0.46661,2.08459 1.80584,2.08459 0.63022,0 1.30286,-0.1212 2.20578,-0.35147 l 0,5.58718 c -1.89067,0.31511 -2.5209,0.39389 -4.56306,0.43025 -2.32699,0 -3.54501,-0.27269 -4.64791,-1.02412 -1.69069,-1.17561 -2.3997,-2.79359 -2.35728,-5.46598 l 0,-2.36334 0,-6.29618 -2.99356,0 0,-5.07815 2.9875,0 0,-6.64765 7.55663,0 0.006,6.64765 4.01162,0 z"
         inkscape:connector-curvature="0"
         id="path3073"
         style="fill:#9e0c47;fill-opacity:1;fill-rule:nonzero;stroke:none" />
      <path
         d="m 754.28162,707.97887 -7.35665,19.99143 -5.82958,0 -7.47785,-19.99143 8.07172,0 2.82995,8.45955 0.29087,0.95745 0.30299,1.13319 c 0.25452,-0.62416 0.58781,-1.65433 0.58781,-1.65433 l 2.95114,-8.89586 5.6296,0 z"
         inkscape:connector-curvature="0"
         id="path3077"
         style="fill:#9e0c47;fill-opacity:1;fill-rule:nonzero;stroke:none" />
      <path
         d="m 775.44988,727.97212 -7.87174,0 0,-12.59236 c 0,-1.73311 -0.43025,-2.44212 -1.65434,-2.44212 -1.45436,0 -2.16336,0.9817 -2.16336,3.02993 l 0,12.00455 -7.82933,0 0,-19.99143 7.27788,0 0,2.82995 c 0.59387,-1.10289 1.02411,-1.61192 1.73312,-2.12095 0.94533,-0.67264 2.55725,-1.10289 4.13281,-1.10289 1.84825,0 3.66015,0.63022 4.76304,1.6907 1.29681,1.21803 1.61192,2.36334 1.61192,5.90229 l 0,12.79233 z"
         inkscape:connector-curvature="0"
         id="path3081"
         style="fill:#9e0c47;fill-opacity:1;fill-rule:nonzero;stroke:none" />
      <path
         d="m 769.74575,758.85492 -5.12663,1.60586 c -2.16943,1.16955 -4.21159,1.74523 -5.74473,2.07247 -2.4906,0.53326 -5.24177,0.0485 -6.50222,-0.89686 l -0.66052,-0.47873 -0.65447,-0.43631 c -0.6181,-0.65446 -0.56962,-1.11501 -0.71506,-1.5392 l 0.13332,-0.52115 0.27875,-0.80596 0.92716,-1.18773 0.0667,-0.4969 0.56356,-0.43025 c 1.44225,-2.23003 2.57544,-4.19948 3.30868,-6.18711 l 0.0667,-0.4969 c 0.4666,-0.94534 0.81202,-1.77554 0.96351,-2.69663 l -0.1212,-0.82414 0.24846,-0.87868 -0.0364,-1.012 -0.19392,-0.7999 -0.38177,-0.41813 -0.12119,-0.59386 c -0.0727,-0.21209 -0.41207,-0.72718 -0.95746,-1.40588 l -0.23633,0.006 -0.71506,-0.46661 -1.55739,0.0606 -0.32723,-0.0424 -1.01199,0.27269 c -1.33923,0.46055 -2.25426,1.24833 -3.11476,2.64815 l -0.0364,0.56357 -0.33329,0.19391 -0.1818,0.38177 -0.35147,0.1212 c -1.36952,2.44212 -2.61785,4.76304 -3.06022,7.59905 l 0.28481,0.37571 -0.39995,0.44843 c -0.31511,1.13925 -0.27875,2.38758 -0.0545,3.96314 l -0.0121,0.64234 0.28482,0.36965 -0.13332,0.75748 0.097,0.28481 -0.0667,0.72719 -0.0485,0.81808 -0.38177,1.24832 -0.59387,2.51484 c -0.41207,1.66646 -0.78778,2.06035 -1.15743,2.76329 0,0 -2.13912,2.47848 -2.01793,3.06628 l -2.46635,3.54501 c 0.84838,-0.29693 3.9389,0.63629 3.9389,0.63629 -0.15756,-0.0545 1.09683,-1.04836 2.76935,-4.17524 l 1.04229,-3.54501 0.52115,-2.51483 0.18785,0.39389 1.06048,1.17561 c 0.45448,0.63022 1.54526,0.78778 1.83613,1.39376 l 0.7393,0.40601 1.18773,0.21816 1.30893,0.15755 1.27862,-0.0606 c 1.01806,0.10908 0.54539,0.36965 2.38758,0.1515 l 1.48467,-0.21816 3.48441,-0.78778 3.79346,-1.21196 4.39339,-2.05429 c 1.19985,-0.41207 0.83626,-4.39945 0.83626,-4.39945 z m -15.95558,-11.76822 -0.43024,0.7393 -0.99382,1.67252 -0.36359,0.74536 -0.12726,0.75142 -0.10907,0.21209 -0.0909,0.16968 -0.26058,0.23027 -0.54538,0.23634 -0.49085,0.43025 -0.36965,-0.17574 c -0.13332,-0.38783 -0.1515,-0.96352 -0.0182,-1.73312 l 0.57569,-2.03005 0.83625,-1.72099 0.93928,-1.67252 0.47267,-0.5878 0.18179,-0.0606 0.44843,0.0909 0.1212,0.21815 0.10908,0.31511 c 0.19391,0.55751 0.16361,0.96352 0.12119,1.30893 l -0.0545,0.45449 0.0485,0.40601 z"
         inkscape:connector-curvature="0"
         id="path3085"
         style="fill:#9e0c47;fill-opacity:1;fill-rule:nonzero;stroke:none" />
    </g>
  </g>
</svg>
