<?xml version="1.0" encoding="UTF-8" standalone="no"?>
<svg xmlns:rdf="http://www.w3.org/1999/02/22-rdf-syntax-ns#" xmlns="http://www.w3.org/2000/svg" height="209.65" width="600" version="1.1" xmlns:cc="http://creativecommons.org/ns#" xmlns:dc="http://purl.org/dc/elements/1.1/" viewBox="0 0 158.75 55.470819">
 <path d="m157.02 35.214c-6.33-1.174-11.75-2.688-17.59-4.403-8.78-2.567-16.33-4.783-28.63-5.324-11.878-0.522-19.389 1.845-28.895 4.853-4.703 1.484-9.968 3.139-16.034 4.473v-33.082c42.359-0.0002 90.219-0.0102 91.149-0.0102v33.493z" fill="#fff"/>
 <path d="m157.02 35.214c-6.33-1.174-11.75-2.688-17.59-4.403-8.78-2.567-16.33-4.783-28.63-5.324-11.878-0.522-19.389 1.845-28.895 4.853-4.703 1.484-9.968 3.139-16.034 4.473v-33.082c42.359-0.0002 90.219-0.0102 91.149-0.0102v33.493z" stroke="#fff" stroke-width=".63175" fill="none"/>
 <path d="m0 0.020056v31.487l1.434 0.452c9.958 3.168 22.342 7.109 40.703 7.109 17.659 0 30.224-3.971 40.312-7.15 9.356-2.958 16.736-5.284 28.311-4.773 12.09 0.532 19.56 2.718 28.22 5.255 6.21 1.825 11.91 3.429 18.78 4.643l0.99 0.17v-37.213l-158.75 0.020056zm157.07 35.158c-6.34-1.174-11.76-2.688-17.6-4.393-8.78-2.577-16.34-4.783-28.63-5.334-11.886-0.522-19.386 1.845-28.893 4.853-4.713 1.484-9.977 3.139-16.034 4.472v-33.071c42.357-0.0103 90.217-0.0203 91.157-0.0203v33.493z" fill="#004996"/>
 <path d="m110.42 29.8c-12.836-0.642-21.129 2.306-30.746 5.725-0.632 0.221-1.274 0.452-1.925 0.682l1.985 6.278c-9.917 3.479-21.871 7.18-38.246 7.18-11.572 0-20.798-1.715-28.539-3.881l-1.424 5.505c9.988 2.848 19.514 4.182 29.963 4.182 18.481 0 31.477-4.613 41.926-8.323 9.186-3.259 15.824-5.616 26.456-5.094 2.73 0.14 5.26 0.371 7.75 0.722l1.53-12.164c-2.8-0.391-5.66-0.662-8.73-0.812" fill="#004996"/>
 <g fill="#fff">
  <path d="m9.9205 8.5196h1.9855 1.996v2.0054h0.03c0.15-0.281 0.31-0.5413 0.481-0.772 0.742-0.9325 2.006-1.444 3.79-1.5543v3.4993c-0.27-0.06-0.581-0.08-0.912-0.07-1.213 0-2.066 0.291-2.537 0.873-0.481 0.581-0.702 1.574-0.652 2.978v8.534h-2.086-2.0955v-15.493z"/>
  <path d="m35.321 24.127c-0.822 0.13-1.745 0.2-2.798 0.2-1.324 0-2.316-0.381-2.978-1.153-0.672-0.762-1.003-1.905-1.003-3.419v-8.484h-2.246v-2.7574h2.246v-2.4769l4.182-1.7047v4.1816h2.597v2.7574h-2.597v8.484c0 0.742 0.08 1.233 0.24 1.464 0.161 0.23 0.512 0.341 1.043 0.341 0.482-0.01 0.913-0.05 1.314-0.111v2.678z"/>
  <path d="m43.628 8.5116h2.126 2.136l2.216 11.512h-0.01l2.216-11.512 2.096-0.0004h2.106l-3.731 15.493h-2.717-2.718l-3.72-15.493z"/>
 </g>
 <g fill="#004996">
  <path d="m82.754 21.876c-0.671 0-1.113-0.251-1.323-0.742-0.221-0.502-0.321-1.515-0.321-3.059v-4.352c0-1.143 0.12-1.945 0.361-2.417 0.251-0.471 0.672-0.702 1.283-0.702 0.612 0 1.033 0.231 1.284 0.702 0.251 0.472 0.381 1.274 0.381 2.417v4.352c0 1.544-0.11 2.557-0.331 3.059-0.22 0.491-0.662 0.742-1.334 0.742m0 2.446c2.056 0 3.55-0.461 4.463-1.383 0.922-0.923 1.384-2.427 1.384-4.513v-4.362c0-2.086-0.462-3.59-1.384-4.5125-0.913-0.9326-2.407-1.3939-4.463-1.3939-2.065 0-3.549 0.4613-4.462 1.3939-0.912 0.9225-1.364 2.4265-1.364 4.5125v4.362c0 2.086 0.452 3.59 1.364 4.513 0.913 0.922 2.397 1.383 4.462 1.383"/>
  <path d="m104.05 21.519c-0.68 0-1.12-0.241-1.33-0.722-0.22-0.482-0.32-1.474-0.32-2.979v-4.241c0-1.113 0.12-1.896 0.36-2.357 0.25-0.451 0.67-0.682 1.29-0.682 0.61 0 1.03 0.231 1.28 0.682 0.25 0.461 0.38 1.244 0.38 2.357v4.241c0 1.505-0.11 2.497-0.33 2.979-0.22 0.481-0.66 0.722-1.33 0.722m0 2.376c2.06 0 3.55-0.441 4.46-1.343 0.92-0.903 1.38-2.357 1.38-4.393v-4.251c0-2.026-0.46-3.49-1.38-4.3926-0.91-0.9025-2.4-1.3538-4.46-1.3538-2.07 0-3.55 0.4513-4.466 1.3538-0.912 0.9026-1.364 2.3666-1.364 4.3926v4.251c0 2.036 0.452 3.49 1.364 4.393 0.916 0.902 2.396 1.343 4.466 1.343"/>
  <path d="m126 13.163v-0.461c0.03-0.702-0.06-1.233-0.28-1.574-0.22-0.351-0.56-0.522-1.02-0.522-0.47 0-0.82 0.121-1.05 0.381-0.23 0.251-0.34 0.632-0.34 1.144 0 0.471 0.16 0.882 0.48 1.233 0.32 0.321 0.88 0.652 1.67 0.993 2.01 0.852 3.34 1.624 4 2.306 0.65 0.682 0.99 1.635 0.99 2.868 0 1.605-0.49 2.808-1.43 3.6-0.95 0.792-2.38 1.193-4.29 1.193-2.05 0-3.52-0.391-4.42-1.153-0.87-0.762-1.31-1.985-1.31-3.66v-0.16-0.472h4.18v0.472c-0.04 0.922 0.05 1.574 0.29 1.955 0.23 0.381 0.65 0.572 1.26 0.572 0.55 0 0.96-0.151 1.24-0.462 0.27-0.3 0.41-0.772 0.41-1.393 0-0.562-0.18-1.023-0.54-1.404-0.34-0.371-0.94-0.742-1.8-1.113-1.98-0.823-3.29-1.565-3.94-2.217-0.64-0.641-0.98-1.524-0.98-2.647 0-1.504 0.47-2.627 1.39-3.3693 0.92-0.7421 2.31-1.1131 4.16-1.1131 1.95 0 3.35 0.361 4.23 1.073 0.88 0.722 1.31 1.8454 1.31 3.3594l0.02 0.12v0.451h-4.23z"/>
  <path d="m147.75 24.127c-0.82 0.13-1.74 0.2-2.8 0.2-1.32 0-2.31-0.381-2.98-1.153-0.67-0.762-1-1.905-1-3.419v-8.484h-2.24v-2.7574h2.24v-2.4769l4.18-1.7047v4.1816h2.6v2.7574h-2.6v8.484c0 0.742 0.08 1.233 0.24 1.464 0.16 0.23 0.52 0.341 1.05 0.341 0.48-0.01 0.91-0.05 1.31-0.111v2.678z"/>
 </g>
</svg>
