<?xml version="1.0" encoding="UTF-8" standalone="no"?>
<svg xmlns:rdf="http://www.w3.org/1999/02/22-rdf-syntax-ns#" xmlns="http://www.w3.org/2000/svg" height="156.35" width="600" version="1.1" xmlns:cc="http://creativecommons.org/ns#" xmlns:xlink="http://www.w3.org/1999/xlink" viewBox="0 0 158.75 41.368737" xmlns:dc="http://purl.org/dc/elements/1.1/">
 <defs>
  <linearGradient id="a" y2="1669.3" gradientUnits="userSpaceOnUse" x2="721.24" gradientTransform="matrix(.15997 0 0 -.15997 -320.43 162.45)" y1="1669.3" x1="-70.907">
   <stop stop-color="#0051ce" offset="0"/>
   <stop stop-color="#14abff" offset="1"/>
  </linearGradient>
 </defs>
 <g transform="translate(363.8 125.28)">
  <path d="m-352.48-108.33h2.98v2.16h-2.98v3.88c0 0.86 0.39 1.27 1.13 1.27 0.77 0 1.53-0.2 1.53-0.2l0.32 2.228s-1.03 0.447-2.54 0.447c-1.91 0-3.14-1.06-3.14-3.055v-4.57h-1.77v-2.16h1.77v-2.31h2.7zm3.4 0.04h2.94l2.17 5.97 2.17-5.97h2.8l-3.75 9.417h-2.57zm-12.08 9.417h-2.64v-9.417h2.35l0.15 1.82c0.65-1.29 1.88-1.82 3.52-1.82l-0.05 2.52h-0.55c-1.75 0-2.78 0.91-2.78 3.1zm49.97-26.407c-11.36 0-20.57 9.21-20.57 20.57 0 11.357 9.21 20.563 20.57 20.563s20.56-9.206 20.56-20.563c0-11.36-9.2-20.57-20.56-20.57zm0 8.06c6.91 0 12.51 5.6 12.51 12.51 0 6.906-5.6 12.506-12.51 12.506s-12.51-5.6-12.51-12.506c0-6.91 5.6-12.51 12.51-12.51zm89.03-5.04v7.75h-4.73v6.72h4.73v12.056c-0.01 6.765 3.68 11.591 12.15 11.591 1.74 0 3.38-0.129 4.96-0.561v-0.002l-1.12-6.672c-1.73 0.279-3.88 0.223-3.88 0.223-2.35 0-4.34-2.129-4.34-4.579v-12.056h9.34v-6.72h-9.34v-7.75zm-29.99 15.51c0 9.66 14.61 9.07 14.61 13.549 0 1.768-1.83 2.71-3.95 2.71-4.89 0-8.19-3.299-8.19-3.299l-3.42 5.243s4.19 4.42 11.67 4.42c7.13 0 11.49-4.007 11.49-9.016 0-9.667-14.61-9.127-14.61-13.377 0-1.88 1.88-2.71 3.83-2.71 4.59 0 7.36 2.59 7.36 2.59l2.77-5.53s-3.3-3.42-10.07-3.42c-6.49 0-11.49 3.24-11.49 8.84m-19.51-8.69c-0.97 0-1.94 0.09-2.92 0.27-8.56 1.6-14.2 9.83-12.6 18.393 1.6 8.559 9.84 14.199 18.4 12.597 8.56-1.601 14.2-9.837 12.6-18.4-1.42-7.57-8.04-12.86-15.48-12.86zm-0.02 7.51c4.56 0 8.25 3.7 8.25 8.255 0 4.556-3.69 8.25-8.25 8.25s-8.25-3.694-8.25-8.25c0-4.555 3.69-8.255 8.25-8.255z" fill="url(#a)"/>
 </g>
</svg>
