<?xml version="1.0" encoding="UTF-8" standalone="no"?>
<!-- Created with Inkscape (http://www.inkscape.org/) -->

<svg
   xmlns:dc="http://purl.org/dc/elements/1.1/"
   xmlns:cc="http://creativecommons.org/ns#"
   xmlns:rdf="http://www.w3.org/1999/02/22-rdf-syntax-ns#"
   xmlns:svg="http://www.w3.org/2000/svg"
   xmlns="http://www.w3.org/2000/svg"
   version="1.1"
   width="110mm"
   height="59.799999mm"
   viewBox="0 0 110 59.8"
   id="svg3014"
   xml:space="preserve"
   style="fill-rule:evenodd"><metadata
   id="metadata3041"><rdf:RDF><cc:Work
       rdf:about=""><dc:format>image/svg+xml</dc:format><dc:type
         rdf:resource="http://purl.org/dc/dcmitype/StillImage" /><dc:title></dc:title></cc:Work></rdf:RDF></metadata>
 <defs
   id="defs3016">
  <style
   type="text/css"
   id="style3018" />
 </defs>
 <rect
   width="110.002"
   height="59.799999"
   x="-0.00110149"
   y="0"
   id="rect3022"
   style="fill:#000000" />
  <path
   d="m 85.9907,52.8465 6.6819,-13.5181 0.2006,0 6.5368,13.5181 -3.2745,0 -0.8303,-1.9073 -5.3177,0 -0.8487,1.9073 -3.1481,0 z m 4.9011,-4.1665 3.4443,0 -1.7005,-4.1079 -1.7438,4.1079 z"
   id="path3024"
   style="fill:#ffffff;fill-rule:nonzero" />
  <path
   d="m 75.2469,52.8465 0,-13.1107 3.3734,0 c 1.0709,0 1.9043,0.0679 2.4999,0.2068 0.5926,0.1389 1.1265,0.3765 1.5956,0.716 0.4692,0.3364 0.8426,0.7654 1.1173,1.2839 0.2747,0.5185 0.4105,1.0679 0.4105,1.645 0,0.8272 -0.2068,1.5463 -0.6235,2.1605 -0.4166,0.6141 -1.0215,1.1049 -1.8178,1.466 l 3.9968,5.6325 -3.5709,0 -3.4999,-5.1449 -0.4444,0 0,5.1449 -3.037,0 z m 3.5524,-10.725 -0.5154,0 0,3.6357 0.6605,0 c 0.7901,0 1.3919,-0.1605 1.8085,-0.4783 0.4167,-0.321 0.6235,-0.7778 0.6235,-1.3765 0,-0.6266 -0.2006,-1.0803 -0.6049,-1.3611 -0.4044,-0.2809 -1.0617,-0.4198 -1.9722,-0.4198 z"
   id="path3026"
   style="fill:#ffffff;fill-rule:nonzero" />
  <path
   d="m 63.4569,39.7358 0,7.2066 c 0,1.1635 0.213,2.0308 0.6389,2.6048 0.4228,0.571 1.0678,0.858 1.9289,0.858 0.8364,0 1.4722,-0.2685 1.9074,-0.8086 0.4351,-0.5401 0.6512,-1.3178 0.6512,-2.3394 l 0,-7.5214 2.7931,0 0,7.5245 c 0,1.8919 -0.4846,3.3671 -1.4568,4.4257 -0.9691,1.0587 -2.3178,1.5864 -4.0399,1.5864 -1.7376,0 -3.0894,-0.5247 -4.0585,-1.5771 -0.9722,-1.0524 -1.4568,-2.5246 -1.4568,-4.4196 l 0,-7.5399 3.0925,0 z"
   id="path3028"
   style="fill:#ffffff;fill-rule:nonzero" />
  <polygon
   points="50.7194,42.4765 46.5498,42.4765 46.5498,39.7358 58,39.7358 58,42.4765 53.8489,42.4765 53.8489,52.8465 50.7194,52.8465 "
   id="polygon3030"
   style="fill:#ffffff;fill-rule:nonzero" />
  <polygon
   points="38.6299,39.7358 41.7595,39.7358 41.7595,50.0349 46.8673,50.0349 46.8673,52.8465 38.6299,52.8465 "
   id="polygon3032"
   style="fill:#ffffff;fill-rule:nonzero" />
  <path
   d="m 26.8399,39.7358 0,7.2066 c 0,1.1635 0.213,2.0308 0.6389,2.6048 0.4228,0.571 1.0678,0.858 1.9289,0.858 0.8364,0 1.4722,-0.2685 1.9074,-0.8086 0.4351,-0.5401 0.6512,-1.3178 0.6512,-2.3394 l 0,-7.5214 2.7931,0 0,7.5245 c 0,1.8919 -0.4846,3.3671 -1.4568,4.4257 -0.9691,1.0587 -2.3178,1.5864 -4.0399,1.5864 -1.7376,0 -3.0894,-0.5247 -4.0585,-1.5771 -0.9722,-1.0524 -1.4568,-2.5246 -1.4568,-4.4196 l 0,-7.5399 3.0925,0 z"
   id="path3034"
   style="fill:#ffffff;fill-rule:nonzero" />
  <polygon
   points="10.5901,39.7358 13.6826,39.7358 13.6826,45.4424 18.0127,39.7358 21.741,39.7358 16.7936,45.9764 22.1299,52.8465 18.3492,52.8465 13.6826,46.8066 13.6826,52.8465 10.5901,52.8465 "
   id="polygon3036"
   style="fill:#ffffff;fill-rule:nonzero" />
  <path
   d="m 45.3477,8.1455 19.304,0 0,25.3357 -19.304,0 0,-25.3357 0,0 z m 20.7131,0 19.3039,0 0,25.3357 -19.3039,0 0,-25.3357 0,0 z m 4.1746,4.1713 0,17.264 3.4958,0 0,-5.2707 0.7541,0.0245 c 4.7079,0 7.0203,-3.0537 7.0203,-6.0822 -6e-4,-2.9795 -2.2393,-5.9354 -6.6989,-5.9354 l -4.5713,-2e-4 0,0 z m 3.4904,3.3411 1.2589,0 c 1.9973,0.0304 2.9938,0.7065 3.1365,2.6935 -0.1236,2.062 -1.2917,2.7181 -3.3029,2.7524 l -1.0925,0 0,-5.4459 0,0 z m -18.726,14.4454 -7.9932,-17.992 3.8813,0 3.973,9.0991 0.1389,0.5411 0.1404,-0.5485 3.9715,-9.0917 3.8817,0 -7.9936,17.992 0,0 z m -14.0216,-14.4428 0,-3.3402 -13.3805,0 0,3.3402 4.834,0 0,13.9203 3.7125,0 0,-13.9203 4.834,0 0,0 z m -16.342,-7.515 19.3039,0 0,25.3357 -19.3039,0 0,-25.3357 0,0 z m -1.4095,-1.2526 63.5466,0 0,27.8412 -63.5466,2e-4 0,-27.8414 0,0 z"
   id="path5"
   style="fill:#ffffff" />
</svg>