<?xml version="1.0" encoding="UTF-8" standalone="no"?>
<!-- Created with Inkscape (http://www.inkscape.org/) -->

<svg
   xmlns:dc="http://purl.org/dc/elements/1.1/"
   xmlns:cc="http://creativecommons.org/ns#"
   xmlns:rdf="http://www.w3.org/1999/02/22-rdf-syntax-ns#"
   xmlns:svg="http://www.w3.org/2000/svg"
   xmlns="http://www.w3.org/2000/svg"
   version="1.1"
   width="613.4201"
   height="208.34245"
   id="svg2">
  <defs
     id="defs4" />
  <metadata
     id="metadata7">
    <rdf:RDF>
      <cc:Work
         rdf:about="">
        <dc:format>image/svg+xml</dc:format>
        <dc:type
           rdf:resource="http://purl.org/dc/dcmitype/StillImage" />
        <dc:title></dc:title>
      </cc:Work>
    </rdf:RDF>
  </metadata>
  <g
     transform="translate(-56.16846,-266.57758)"
     id="layer1">
    <g
       id="g4204">
      <g
         id="g4195"
         style="fill:#ff3200;fill-opacity:1">
        <path
           d="m 76.481511,474.21446 c -8.054227,-0.93804 -12.96745,-2.8689 -16.908248,-6.64485 -3.69199,-3.53755 -4.36644,-5.53485 -2.0964,-6.20821 0.76187,-0.22599 3.90515,-1.55509 6.985093,-2.95356 l 5.599892,-2.54267 2.214047,2.05191 c 1.217727,1.12856 3.5064,2.32707 5.085941,2.66336 1.57954,0.33629 12.845334,0.61144 25.035094,0.61144 25.24212,0 27.1741,-0.3616 29.31558,-5.48689 1.85834,-4.44763 1.54232,-5.85954 -1.41368,-6.31593 -1.41489,-0.21844 -13.25835,-0.57085 -26.31881,-0.78313 -25.174394,-0.40916 -30.090652,-1.01525 -35.536554,-4.381 -4.005543,-2.47557 -5.3715,-5.50566 -5.327942,-11.81892 0.02987,-4.33001 0.492811,-6.14654 2.640641,-10.36168 4.244079,-8.32905 10.223095,-11.34178 25.183949,-12.68976 17.422636,-1.5698 44.648746,-0.5451 52.205446,1.96483 3.64228,1.20977 9.78866,6.30625 9.31589,7.72457 -0.12731,0.38191 -3.34182,2.33991 -7.14336,4.35113 l -6.91191,3.65677 -1.57697,-1.6927 c -0.86734,-0.93097 -2.91412,-1.9738 -4.5484,-2.31737 -4.95263,-1.04121 -42.868682,-0.69828 -46.706283,0.42244 -3.820974,1.11586 -5.837498,3.59978 -6.013668,7.40755 -0.103821,2.24398 0.178553,2.63082 2.255955,3.09056 1.306046,0.28904 12.348072,0.57037 24.537836,0.62516 24.72938,0.11117 30.67808,0.75765 36.34898,3.95023 5.35359,3.01395 7.02762,6.20528 6.48563,12.36408 -1.27389,14.47543 -8.56915,21.24026 -25.14748,23.31901 -7.46008,0.93541 -39.510644,0.93111 -47.560269,-0.006 z m 198.301779,0.0295 c -6.70762,-0.92872 -11.95965,-3.69598 -14.86928,-7.83452 -2.16207,-3.07525 -2.36795,-3.92049 -2.29999,-9.44259 0.087,-7.0678 4.26323,-26.02091 7.10032,-32.22342 3.30994,-7.23626 9.96676,-12.44575 18.7153,-14.6462 4.94587,-1.244 46.67767,-1.87991 58.12282,-0.88569 6.89025,0.59854 10.65214,1.32542 13.2992,2.56968 6.42715,3.02112 9.74268,9.41792 8.84411,17.06334 -0.91527,7.78749 -5.33233,25.92371 -7.35501,30.19932 -3.3912,7.16842 -9.84988,12.19405 -18.62487,14.49238 -4.19823,1.09959 -55.9028,1.68103 -62.9326,0.7077 z m 61.11885,-14.71237 c 4.98694,-2.61507 5.43419,-3.86016 11.13821,-31.00757 0.25131,-1.19608 -0.25274,-2.42813 -1.5062,-3.68159 -2.5894,-2.5894 -8.47846,-3.03899 -35.35716,-2.6993 -20.78454,0.26266 -21.9186,0.35559 -25.11518,2.05785 -3.76236,2.00355 -5.10351,4.15908 -6.51696,10.47421 -0.53592,2.39441 -1.83039,7.9995 -2.87662,12.45575 -2.20132,9.37624 -2.23078,9.74881 -0.91279,11.54437 1.71818,2.34076 7.44191,2.80093 33.04692,2.65686 23.6384,-0.133 25.09808,-0.22654 28.09978,-1.80058 z m -179.28451,13.6713 c 0,-0.5772 2.32554,-11.35208 5.16788,-23.94418 2.84233,-12.5921 5.70395,-25.38809 6.35915,-28.43553 0.65521,-3.04744 1.54915,-6.87653 1.98653,-8.50909 l 0.79524,-2.96828 33.01641,0.006 c 19.26182,0.003 35.152,0.35247 38.14266,0.83767 6.01116,0.97526 9.86135,3.11886 11.58348,6.44909 2.67679,5.17635 0.43138,19.0458 -4.22183,26.07726 -1.41268,2.13471 -3.57902,3.81699 -7.23289,5.61674 l -5.21618,2.56927 -29.24139,0.39578 -29.24139,0.39577 -0.59544,1.97886 c -0.3275,1.08837 -1.54169,6.16414 -2.6982,11.27948 l -2.10275,9.30064 -8.25063,0 c -6.3245,-3.6e-4 -8.25065,-0.24536 -8.25065,-1.04981 z m 76.75307,-36.53508 c 2.2909,-1.18467 3.40944,-3.53528 4.42612,-9.30142 0.47548,-2.69673 0.33335,-3.02668 -1.62434,-3.77099 -1.35123,-0.51374 -11.26465,-0.7383 -26.78049,-0.60664 l -24.63508,0.20905 -1.69882,7.32177 -1.69882,7.32178 24.87101,0 c 20.42976,0 25.27627,-0.20956 27.14042,-1.17355 z m 134.58894,37.11373 c 0,-0.2884 2.35912,-11.07534 5.2425,-23.97096 2.88337,-12.89563 5.90493,-26.47425 6.71459,-30.17471 0.80964,-3.70047 1.6701,-7.55763 1.91212,-8.57148 l 0.44004,-1.84336 36.18235,0.31483 c 31.36796,0.27293 36.70898,0.49331 40.14008,1.65625 4.66698,1.58183 6.85323,3.27592 8.60883,6.67088 1.62376,3.14001 1.62387,6.68817 4.2e-4,13.88554 -2.24318,9.94484 -5.30187,14.04617 -12.53571,16.80879 -1.97626,0.75474 -3.5932,1.82657 -3.5932,2.38183 0,0.55527 1.81476,5.22645 4.0328,10.38041 2.21804,5.15396 4.34639,10.17227 4.72967,11.15181 l 0.69687,1.78097 -8.97433,0 -8.97433,0 -4.7211,-11.27949 -4.72111,-11.27949 -21.6391,0 -21.6391,0 -2.49416,11.0816 -2.49414,11.08161 -8.457,0.22466 c -4.65135,0.12357 -8.45699,-0.0113 -8.45699,-0.29969 z m 76.98505,-36.77541 c 3.82755,-1.06296 5.48558,-3.66678 5.62203,-8.82901 l 0.10917,-4.13054 -3.16617,-0.57665 c -1.7414,-0.31717 -13.92733,-0.59718 -27.07985,-0.62227 l -23.91366,-0.0456 -0.78631,2.96829 c -1.23264,4.6532 -2.40032,9.9968 -2.42153,11.0816 -0.025,1.2778 47.08382,1.41847 51.63632,0.1542 z m 56.78573,35.65661 c 0,-0.87428 0.89481,-5.37661 1.98847,-10.00518 1.09367,-4.62858 2.69067,-11.66048 3.54889,-15.62647 2.15007,-9.93577 4.72414,-21.17879 5.23005,-22.84385 0.39236,-1.29137 -0.81596,-1.3852 -17.83796,-1.3852 l -18.25883,0 0.005,-1.78097 c 0.002,-0.97954 0.32405,-3.02765 0.71472,-4.55138 0.39067,-1.52372 0.92976,-3.74993 1.19798,-4.94714 l 0.48767,-2.17674 45.21047,0 45.21046,0 -0.50415,3.67817 c -0.27728,2.023 -0.87372,5.05066 -1.32541,6.72812 l -0.8216,3.04994 -18.39423,0 -18.39424,0 -4.19525,18.79915 c -2.30739,10.33953 -4.92409,21.91585 -5.81492,25.72515 l -1.61967,6.926 -8.21361,0 c -7.69712,0 -8.21359,-0.1 -8.21359,-1.5896 z m 86.27819,-41.5495 0,-20.97589 4.35349,0 4.35349,0 0,7.94135 0,7.94136 8.90486,-0.22381 8.90486,-0.22381 0.22654,-7.71754 0.22655,-7.71755 4.32483,0 4.32482,0 0,20.97589 0,20.97589 -4.32756,0 -4.32757,0 -0.22381,-8.90486 -0.2238,-8.90486 -8.90486,-0.2238 -8.90486,-0.22381 0,9.12866 0,9.12867 -4.35349,0 -4.35349,0 z m 45.3027,0.19789 0.21103,-20.77801 8.6167,-0.22575 c 9.16015,-0.24 14.26983,0.83894 19.08731,4.03038 10.65113,7.05609 11.23548,23.82186 1.13171,32.47032 -4.72658,4.04577 -9.47158,5.28106 -20.28555,5.28106 l -8.97223,0 z m 20.38493,10.62984 c 4.071,-1.96062 6.34279,-5.83877 6.34279,-10.82773 0,-7.30629 -4.73981,-11.97385 -13.02786,-12.82926 l -4.38609,-0.45268 0,12.64351 c 0,6.95392 0.26489,12.90839 0.58865,13.23215 0.85843,0.85843 7.27925,-0.22329 10.48251,-1.76599 z"
           id="path3018"
           style="fill:#ff3200;fill-opacity:1" />
      </g>
      <g
         id="g4200">
        <rect
           width="210.5332"
           height="101.92245"
           x="207.27315"
           y="266.57758"
           id="_77250152"
           style="fill:#ff3200;fill-opacity:1;fill-rule:evenodd" />
        <path
           d="m 288.97159,286.60651 47.13546,0 0,61.86378 -47.13546,0 0,-61.86378 0,0 z m 50.57594,0 47.13585,0 0,61.86378 -47.13585,0 0,-61.86378 0,0 z m 10.19352,10.18553 0,42.1546 8.53564,0 0,-12.8698 1.84174,0.0596 c 11.49569,0 17.14162,-7.45609 17.14162,-14.85102 -10e-4,-7.27545 -5.46767,-14.49293 -16.35705,-14.49293 l -11.16195,-3.9e-4 0,0 z m 8.52285,8.15794 3.07396,0 c 4.87654,0.0743 7.30981,1.72503 7.65874,6.57718 -0.30217,5.03482 -3.15431,6.63674 -8.06521,6.72068 l -2.66749,0 0,-13.29786 0,0 z m -45.72457,35.27245 -19.51735,-43.9324 9.4773,0 9.70111,22.218 0.33894,1.32136 0.34292,-1.33934 9.69752,-22.20002 9.47809,0 -19.51853,43.9324 0,0 z m -34.23728,-35.26605 0,-8.15595 -32.67211,0 0,8.15595 11.80344,0 0,33.99026 9.06522,0 0,-33.99026 11.80345,0 0,0 z m -39.90319,-18.34987 47.13546,0 0,61.86378 -47.13546,0 0,-61.86378 0,0 z m -3.44167,-3.05838 155.16547,0 0,67.98174 -155.16547,4e-4 0,-67.98214 0,0 z"
           id="path5"
           style="fill:#ffffff;fill-rule:evenodd" />
      </g>
    </g>
  </g>
</svg>
