<?xml version="1.0" encoding="UTF-8" standalone="no"?>
<!-- Created with Inkscape (http://www.inkscape.org/) -->

<svg
   xmlns:dc="http://purl.org/dc/elements/1.1/"
   xmlns:cc="http://creativecommons.org/ns#"
   xmlns:rdf="http://www.w3.org/1999/02/22-rdf-syntax-ns#"
   xmlns:svg="http://www.w3.org/2000/svg"
   xmlns="http://www.w3.org/2000/svg"
   xmlns:sodipodi="http://sodipodi.sourceforge.net/DTD/sodipodi-0.dtd"
   xmlns:inkscape="http://www.inkscape.org/namespaces/inkscape"
   id="svg2984"
   version="1.1"
   inkscape:version="0.48.5 r10040"
   width="381"
   height="93"
   sodipodi:docname="tvregina-black.svg">
  <metadata
     id="metadata2990">
    <rdf:RDF>
      <cc:Work
         rdf:about="">
        <dc:format>image/svg+xml</dc:format>
        <dc:type
           rdf:resource="http://purl.org/dc/dcmitype/StillImage" />
        <dc:title />
      </cc:Work>
    </rdf:RDF>
  </metadata>
  <defs
     id="defs2988" />
  <sodipodi:namedview
     pagecolor="#ffffff"
     bordercolor="#666666"
     borderopacity="1"
     objecttolerance="10"
     gridtolerance="10"
     guidetolerance="10"
     inkscape:pageopacity="0"
     inkscape:pageshadow="2"
     inkscape:window-width="1920"
     inkscape:window-height="1018"
     id="namedview2986"
     showgrid="false"
     showguides="true"
     inkscape:guide-bbox="true"
     inkscape:snap-grids="false"
     inkscape:snap-to-guides="true"
     inkscape:zoom="2.3097113"
     inkscape:cx="219.52951"
     inkscape:cy="-41.949045"
     inkscape:window-x="-8"
     inkscape:window-y="-8"
     inkscape:window-maximized="1"
     inkscape:current-layer="svg2984">
    <sodipodi:guide
       orientation="0,1"
       position="17.534659,67.324432"
       id="guide3002" />
    <sodipodi:guide
       orientation="1,0"
       position="149.15284,98.930114"
       id="guide3004" />
    <sodipodi:guide
       orientation="0,1"
       position="60.180682,29.657386"
       id="guide3006" />
    <sodipodi:guide
       orientation="1,0"
       position="113.00114,67.107955"
       id="guide3008" />
    <sodipodi:guide
       orientation="0,1"
       position="141.57614,35.069318"
       id="guide3010" />
    <sodipodi:guide
       orientation="-0.93969262,0.34202014"
       position="136.1642,47.408523"
       id="guide3012" />
    <sodipodi:guide
       orientation="-0.34202014,0.93969262"
       position="128.15455,53.253409"
       id="guide3014" />
    <sodipodi:guide
       orientation="0.8660254,0.5"
       position="113.00114,67.324432"
       id="guide3016" />
  </sodipodi:namedview>
  <path
     inkscape:connector-curvature="0"
     id="path3036"
     style="font-size:55.43677902px;font-style:normal;font-variant:normal;font-weight:bold;font-stretch:normal;line-height:125%;letter-spacing:0px;word-spacing:0px;fill:#000000;fill-opacity:1;stroke:none;font-family:Aharoni;-inkscape-font-specification:Aharoni Bold"
     d="m 42.908818,34.061557 -7.799539,0 0,29.497532 -9.417811,0 0,-29.497532 -7.666894,0 0,-8.202966 24.884244,0 z" />
  <path
     inkscape:connector-curvature="0"
     id="path3038"
     style="font-size:55.43677902px;font-style:normal;font-variant:normal;font-weight:bold;font-stretch:normal;line-height:125%;letter-spacing:0px;word-spacing:0px;fill:#000000;fill-opacity:1;stroke:none;font-family:Aharoni;-inkscape-font-specification:Aharoni Bold"
     d="m 81.21676,25.858591 -15.439904,37.700498 -7.322018,0 -15.227671,-37.700498 10.240211,0 8.728056,22.924112 8.807643,-22.924112 z" />
  <path
     inkscape:connector-curvature="0"
     id="path3023"
     style="font-size:55.99367523px;font-style:normal;font-variant:normal;font-weight:bold;font-stretch:normal;line-height:125%;letter-spacing:0px;word-spacing:0px;fill:#000000;fill-opacity:1;stroke:none;font-family:Aharoni;-inkscape-font-specification:Aharoni Bold"
     d="m 179.45251,63.496427 -11.97639,0 -9.15842,-14.455905 0,14.455905 -9.61906,0 0,-37.657081 14.95695,0 c 4.37146,3.8e-5 7.60489,1.333437 9.70035,4.000202 1.69797,2.151865 2.54698,4.680727 2.54701,7.586592 -3e-5,3.328928 -0.97549,5.986531 -2.92636,7.972818 -1.24644,1.269047 -2.96252,2.151849 -5.14823,2.64841 z M 165.90455,37.977893 c -2e-5,-1.342571 -0.47872,-2.473662 -1.43608,-3.393276 -0.90322,-0.864382 -2.35737,-1.296587 -4.36245,-1.296618 l -1.78832,0 0,9.407374 1.78832,0 c 2.02315,2e-5 3.4773,-0.432185 4.36245,-1.296617 0.95736,-0.937956 1.43606,-2.078242 1.43608,-3.420863 z" />
  <path
     inkscape:connector-curvature="0"
     id="path3025"
     style="font-size:55.99367523px;font-style:normal;font-variant:normal;font-weight:bold;font-stretch:normal;line-height:125%;letter-spacing:0px;word-spacing:0px;fill:#000000;fill-opacity:1;stroke:none;font-family:Aharoni;-inkscape-font-specification:Aharoni Bold"
     d="m 204.54335,63.496427 -21.05354,0 0,-37.657081 21.05354,0 0,8.193519 -11.43448,0 0,6.372737 10.81127,0 0,8.193518 -10.81127,0 0,6.703788 11.43448,0 z" />
  <path
     inkscape:connector-curvature="0"
     id="path3027"
     style="font-size:55.99367523px;font-style:normal;font-variant:normal;font-weight:bold;font-stretch:normal;line-height:125%;letter-spacing:0px;word-spacing:0px;fill:#000000;fill-opacity:1;stroke:none;font-family:Aharoni;-inkscape-font-specification:Aharoni Bold"
     d="m 247.76135,42.585022 c -4e-5,4.082983 -0.45163,7.411884 -1.35479,9.986714 -1.3729,3.917447 -3.63993,6.933688 -6.80109,9.048734 -3.05283,2.023092 -6.66561,3.034635 -10.83836,3.034637 -6.79207,-2e-6 -12.0035,-2.354141 -15.63435,-7.062427 -2.74573,-3.567987 -4.11858,-7.825671 -4.11858,-12.773061 0,-5.480714 1.60769,-10.087839 4.82308,-13.821391 3.6489,-4.248454 8.74293,-6.372698 15.2821,-6.372737 4.37144,3.9e-5 8.07455,1.140326 11.10933,3.420863 2.16764,1.618507 4.01918,4.00943 5.55467,7.172778 l -9.13134,3.834677 c -0.77677,-1.765581 -1.67998,-3.089784 -2.70959,-3.972615 -1.48127,-1.250609 -3.2425,-1.875927 -5.2837,-1.875958 -4.17279,3.1e-5 -7.08109,2.197841 -8.7249,6.593438 -0.61418,1.618495 -0.92127,3.292142 -0.92126,5.020945 -1e-5,3.586403 1.11093,6.575058 3.3328,8.965971 1.6438,1.784006 3.83857,2.676005 6.58431,2.675998 2.43861,7e-6 4.37146,-0.726466 5.79854,-2.179421 0.93929,-0.95636 1.55347,-2.372523 1.84251,-4.248491 l -7.88491,0 0,-7.448654 z" />
  <path
     inkscape:connector-curvature="0"
     id="path3029"
     style="font-size:55.99367523px;font-style:normal;font-variant:normal;font-weight:bold;font-stretch:normal;line-height:125%;letter-spacing:0px;word-spacing:0px;fill:#000000;fill-opacity:1;stroke:none;font-family:Aharoni;-inkscape-font-specification:Aharoni Bold"
     d="m 263.4499,63.496427 -9.61905,0 0,-37.657081 9.61905,0 z" />
  <path
     inkscape:connector-curvature="0"
     id="path3031"
     style="font-size:55.99367523px;font-style:normal;font-variant:normal;font-weight:bold;font-stretch:normal;line-height:125%;letter-spacing:0px;word-spacing:0px;fill:#000000;fill-opacity:1;stroke:none;font-family:Aharoni;-inkscape-font-specification:Aharoni Bold"
     d="m 308.21237,63.496427 -9.61905,0 -17.69365,-23.063237 0,23.063237 -9.61905,0 0,-37.657081 9.61905,0 17.69365,23.03565 0,-23.03565 9.61905,0 z" />
  <path
     inkscape:connector-curvature="0"
     id="path3033"
     style="font-size:55.99367523px;font-style:normal;font-variant:normal;font-weight:bold;font-stretch:normal;line-height:125%;letter-spacing:0px;word-spacing:0px;fill:#000000;fill-opacity:1;stroke:none;font-family:Aharoni;-inkscape-font-specification:Aharoni Bold"
     d="m 351.07813,63.496427 -10.26936,0 -2.38444,-6.56585 -13.27701,0 -2.54701,6.56585 -10.16098,0 14.22537,-37.657081 10.48612,0 z m -15.255,-14.014503 -3.98311,-12.000608 -4.03729,12.000608 z" />
  <g
     id="g3810"
     style="fill:#fffb00;fill-opacity:1;stroke:none">
    <path
       inkscape:connector-curvature="0"
       id="path3018"
       d="m 113.00114,57.930682 18.65283,0.05254 8.18555,-22.489615 c 0,0 -17.49381,6.367228 -17.49381,6.367228 l -9.34457,-16.185268"
       style="fill:#fffb00;stroke:none;stroke-width:1px;stroke-linecap:butt;stroke-linejoin:miter;stroke-opacity:1;fill-opacity:1" />
    <path
       inkscape:connector-curvature="0"
       id="path3018-1"
       d="m 113.00114,57.930683 -18.65283,0.05254 -8.18555,-22.489615 c 0,0 17.49381,6.367228 17.49381,6.367228 l 9.34457,-16.185268"
       style="fill:#fffb00;stroke:none;stroke-width:1px;stroke-linecap:butt;stroke-linejoin:miter;stroke-opacity:1;fill-opacity:1" />
  </g>
</svg>
