<?xml version="1.0" encoding="UTF-8" standalone="no"?>
<!-- Created with Inkscape (http://www.inkscape.org/) -->
<svg xmlns:rdf="http://www.w3.org/1999/02/22-rdf-syntax-ns#" xmlns="http://www.w3.org/2000/svg" height="112.62" width="600" version="1.1" xmlns:cc="http://creativecommons.org/ns#" xmlns:xlink="http://www.w3.org/1999/xlink" xmlns:dc="http://purl.org/dc/elements/1.1/">
 <defs>
  <clipPath id="clipPath760" clipPathUnits="userSpaceOnUse">
   <path d="m730.21,394.82c-0.48,0-0.873-0.393-0.873-0.874v-6.132c0-0.48,0.393-0.873,0.873-0.873h40.231c0.48,0,0.873,0.393,0.873,0.873v6.132c0,0.481-0.393,0.874-0.873,0.874h-40.231z"/>
  </clipPath>
  <clipPath id="clipPath764" clipPathUnits="userSpaceOnUse">
   <path d="M0,0,839,0,839,595,0,595,0,0z"/>
  </clipPath>
  <linearGradient id="linearGradient11741" gradientUnits="userSpaceOnUse" gradientTransform="matrix(0,7.879181,7.879181,0,750.3246,386.9406)">
   <stop stop-color="#ed1f24" offset="0"/>
   <stop stop-color="#f35d19" offset="1"/>
  </linearGradient>
 </defs>
 <metadata>
  <rdf:RDF>
   <cc:Work rdf:about="">
    <dc:format>image/svg+xml</dc:format>
    <dc:type rdf:resource="http://purl.org/dc/dcmitype/StillImage"/>
    <dc:title/>
   </cc:Work>
  </rdf:RDF>
 </metadata>
 <g transform="translate(146.93425,16.187752)">
  <g transform="matrix(14.293542,0,0,-14.293542,-10571.729,5627.1885)" clip-path="url(#clipPath760)">
   <g clip-path="url(#clipPath764)">
    <path d="M0,0,839,0,839,595,0,595,0,0z" fill="url(#linearGradient11741)"/>
   </g>
  </g>
  <path fill-rule="nonzero" fill="#FFF" d="M444.91,84.696c-96.74-14.05-194.01-19.511-291.83-19.282-97.683-0.028-195.28,4.817-291.86,19.282,94.107-22.026,191.42-28.201,287.97-28.515,99.026-0.32875,199.17,6.1033,295.72,28.516"/>
  <path fill-rule="nonzero" fill="#FFF" d="m-48.046,64.308c2.3156-2.8301,3.7735-6.0176,4.3738-9.5481,0.60033-3.5448,0.84332-8.9192,0.84332-8.9192,0.05717-0.92908,0.08576-2.4442,0.10006-3.3733l0.11435-43.581c0-0.92908-0.75756-1.6866-1.6866-1.6866h-12.521c-0.92908,0-1.6866,0.75756-1.7009,1.6866l-0.11435,43.181c0,2.8587-0.24299,5.3601-0.71468,7.4898s-1.3579,3.9307-2.6586,5.403c-1.3007,1.4579-3.116,2.5728-5.403,3.3018-2.3156,0.72897-4.9884,1.1006-8.7191,1.1006-3.7449,0-6.4321-0.38592-8.7619-1.1578-2.3298-0.75756-4.1165-1.8867-5.3887-3.3447-1.2578-1.4579-2.1154-3.2875-2.53-5.4601-0.42881-2.1583-0.57174-5.6602-0.57174-5.6602-0.02859-0.92908-0.05717-2.4442-0.05717-3.359v-41.494c0-0.92908-0.64321-1.6866-1.5723-1.6866h-13.021c-0.92908,0-1.8153,0.75756-1.8153,1.6866v45.268c0,3.5305,0.27158,7.061,0.87191,10.606,0.58603,3.5305,2.0154,6.718,4.2738,9.5481s5.6459,5.1314,10.177,6.9038c1.2435,0.47169,2.6014,0.87191,4.0451,1.2292,13.207-2.0011,26.457-3.8164,39.707-5.4887,1.0291-0.82902,1.9582-1.6866,2.7301-2.6443"/>
  <path fill-rule="nonzero" fill="#FFF" d="m12.676,60.267c0.32875-1.5866,0.54316-3.2875,0.54316-5.2028,0.01429-3.5305-0.61462-6.3606-1.8725-8.4618-1.2578-2.1012-3.0016-3.7592-5.2457-4.9884-2.2155-1.2292-4.8598-2.1583-7.9329-2.7587-3.0588-0.60033-6.3892-1.1292-9.9912-1.6009-1.801-0.25728-3.3018-0.51457-4.5025-0.74326-1.1864-0.2287-2.144-0.52886-2.8444-0.90049-0.70038-0.37163-1.1864-0.80044-1.4865-1.3007-0.30016-0.50027-0.45739-1.1578-0.4431-1.9582,0-0.64321,0.12864-1.2435,0.40022-1.7438,0.27158-0.50027,0.74326-0.92908,1.4579-1.3007,0.70038-0.35734,1.6581-0.62892,2.9016-0.78614,1.2292-0.17152,2.8444-0.25728,4.8312-0.25728,2.873,0,5.7317,0.34304,8.6047,1.0434,2.873,0.70038,5.7603,1.9725,5.7603,1.9725,0.82903,0.37163,1.9439,0.02859,2.4156-0.75756l6.6604-10.763c-3.0162-1.729-6.5896-3.03-10.749-3.902-4.1594-0.858-8.5475-1.301-13.15-1.301-4.4596,0-8.2617,0.40022-11.392,1.1578-3.1446,0.75756-5.6888,1.901-7.6613,3.4019-1.9725,1.5008-3.4019,3.3447-4.3166,5.5459-0.91479,2.2012-1.3579,4.7312-1.3722,7.6042-0.01429,3.6591,0.61462,6.6179,1.8725,8.8477,1.2578,2.2298,3.0016,4.0022,5.1886,5.2886,2.2012,1.315,4.8169,2.2727,7.8472,2.9016,3.0302,0.62892,6.2749,1.1864,9.7339,1.6438,1.9439,0.27158,3.5305,0.51457,4.8026,0.75756,1.2721,0.2287,2.287,0.54315,3.0445,0.91479,0.75756,0.35734,1.3293,0.81473,1.6581,1.3293,0.31446,0.54315,0.48598,1.215,0.48598,2.0011,0,1.9439-0.72897,3.2018-2.1583,3.8021-1.4436,0.60033-4.1165,0.90049-8.0616,0.90049-3.1875,0-6.575-0.50027-10.134-1.5008-3.5734-1.0005-8.3617-3.5877-8.3617-3.5877-0.80044-0.4431-1.9153-0.18582-2.4442,0.58604l-6.6036,9.4623c5.7603-0.68609,11.521-1.3579,17.281-1.9725,11.721-1.3007,23.47-2.387,35.234-3.3733"/>
  <path fill-rule="nonzero" fill="#FFF" d="m34.369,41.963c0-1.8725,0.14294-3.5877,0.45739-5.16,0.30016-1.558,0.90049-2.8873,1.8153-4.0022,0.90049-1.0863,2.1726-1.9439,3.845-2.5442,1.6723-0.58604,3.8736-0.90049,6.6036-0.90049,2.4013,0,4.2881,0.31446,5.6602,0.90049,1.3436,0.60033,2.387,1.4151,3.0874,2.4585,0.68609,1.0291,1.1292,2.287,1.2864,3.7449,0.15723,1.4722,0.20011,3.116,0.20011,3.116,0.02859,0.91479,0.02859,2.4442,0.02859,3.3733l-0.02859,14.122c2.6014-0.15723,5.1886-0.32875,7.79-0.47169,2.6014-0.12864,5.2028-0.2287,7.8043-0.35734l0.04288-18.081c0.01429-3.5448-0.2287-6.7466-0.71468-9.6481-0.50027-2.9016-1.4722-5.3887-2.9302-7.4612-1.4579-2.0583-3.5305-3.6591-6.1891-4.7883-2.6729-1.1435-6.1319-1.7009-10.391-1.7009-5.3458,0-9.448,0.52886-12.364,1.6009-2.9016,1.072-4.7169,2.4585-4.7169,2.4585-0.74326,0.58604-1.3293,0.28587-1.3293-0.64321l0.05717-19.096c0-0.92908-0.77185-1.6866-1.7009-1.6866h-12.207c-0.92908,0-1.8867,0.75756-1.8867,1.6866v60.876c5.2457-0.41451,10.491-0.80044,15.737-1.1721l0.04288-16.623z"/>
  <path fill-rule="nonzero" fill="#FFF" d="m134.5,47.637c0.0429-0.92908,0.0715-2.4299,0.0715-3.359l0.0715-26.729c0.0143-0.91479-0.74327-1.6866-1.6724-1.6866h-12.035c-0.91479,0-1.6866,0.77185-1.6866,1.6866l-0.0715,28.716c0,1.9868-0.0858,3.8164-0.21441,5.4458-0.0858,1.1149-0.38592,2.1012-0.75756,3.0159,5.26-0.10005,10.52-0.2144,15.78-0.28587,0.34305-3.3018,0.51457-6.8037,0.51457-6.8037"/>
  <path fill-rule="nonzero" fill="#FFF" d="m96.666,51.811c-0.12864-1.6438-0.15723-3.7735-0.15723-3.7735-0.01429-0.91479-0.02859-2.4442-0.02859-3.359l0.07147-27.129c0-0.91479-0.74326-1.6866-1.6723-1.6866h-12.335c-0.91479,0-1.6866,0.77185-1.6866,1.6866l-0.05717,28.516c-0.01429,3.6877,0.20011,6.9467,0.64321,9.8054,5.3887-0.2144,10.792-0.41451,16.18-0.58604-0.50027-1.0148-0.84332-2.144-0.95767-3.4733"/>
  <path fill-rule="nonzero" fill="#FFF" d="m206.31,10.959c3.8736,0,6.9038-3.1446,6.7751-7.0181-0.14294-3.8735-3.4019-7.0181-7.2611-7.0181-3.8736,0-6.9181,3.1446-6.7751,7.0181,0.12864,3.8735,3.3733,7.0181,7.2611,7.0181"/>
  <path fill-rule="nonzero" fill="#FFF" d="m222.29,17.554c0.0143-0.92908-0.60033-1.6866-1.5294-1.6866h-12.235c-0.91479,0-1.8296,0.75756-1.8296,1.6866v37.721c5.2028,0.15723,10.406,0.34304,15.594,0.55745v-38.278z"/>
  <path fill-rule="nonzero" fill="#FFF" d="m223.06,10.959c3.8736,0,6.9038-3.1446,6.7751-7.0181-0.14294-3.8735-3.3876-7.0181-7.2611-7.0181-3.8878,0-6.9181,3.1446-6.7751,7.0181,0.12864,3.8735,3.3876,7.0181,7.2611,7.0181"/>
  <path fill-rule="nonzero" fill="#FFF" d="m337.88,64.891,0.11435-43.867,10.291,0,18.424,47.412c7.4469,0.97196,14.894,1.9868,22.312,3.0588l26.958-67.951h-19.997l-17.12,45.71-16.99-45.711h-0.81474-19.554-45.939v17.481h22.998l-0.11434,41.737c3.4162,0.35734,6.818,0.68609,10.234,1.0577,3.0731,0.34304,6.1319,0.71468,9.205,1.072"/>
  <path fill-rule="nonzero" fill="#FFF" d="m154.89,54.33c0.0286-1.4294,0.24299-2.63,0.70038-3.5734,0.4431-1.0005,1.4579-1.7724,2.9874-2.3584,1.5437-0.54316,3.7878-0.95767,6.7608-1.1864,2.9588-0.2287,10.263-0.32875,10.263-0.32875,0.92908-0.01429,1.9868-0.02859,2.3298-0.02859,0.35734,0,0.6575,0.75756,0.6575,1.6866l-0.0143,0.42881c0,2.1869-0.32875,4.0308-0.94337,5.5888,5.3458,0.07147,10.706,0.18582,16.052,0.31446-0.0143-0.80044-0.0143-1.6723-0.0143-2.3013l0.0429-15.508c0-4.0022-0.30016-7.4183-0.92908-10.248-0.62892-2.8444-1.8296-5.1743-3.6163-6.9895-1.801-1.8439-4.2881-3.1732-7.4898-4.0165-3.2018-0.82902-7.3612-1.2435-12.493-1.2435-3.0159,0-5.8461,0.2287-8.5047,0.70038-2.6729,0.47169-5.1457,1.0434-7.404,1.7438-2.2727,0.70038-4.2595,1.4436-5.9604,2.2441-1.7009,0.81473-2.6157,1.3579-2.6157,1.3579-0.78614,0.45739-1.0148,1.4722-0.50027,2.2441l6.8323,10.106c1.7295-1.072,4.0308-2.1012,6.9038-3.1017s6.0319-1.5008,9.5052-1.5008c2.4585,0,4.431,0.17152,5.8889,0.50027,1.4722,0.34304,2.5871,0.82903,3.3447,1.4579,0.77185,0.62892,1.2864,1.4294,1.5437,2.4013,0.27158,0.95767,0.31446,1.658,0.31446,1.658,0.0429,0.92908-0.6718,1.6866-1.5866,1.6866h-0.62891c-6.2606,0-11.678,0.27158-16.252,0.84332-4.5596,0.57174-8.3474,1.5866-11.306,3.0588-2.9731,1.4579-5.1743,3.4876-6.6179,6.0462-1.2435,2.2441-1.9439,5.0599-2.1012,8.3903,4.3309-0.02859,8.6762-0.08576,13.007-0.08576,0.61463,0,1.2292,0.01429,1.8439,0.01429"/>
  <path fill-rule="nonzero" fill="#FFF" d="m245.52,54.563c0-1.5437,0.24299-2.8015,0.71468-3.8021,0.47168-1.0005,1.4579-1.7867,3.0016-2.3584,1.5294-0.55745,3.7878-0.95767,6.7608-1.1864,2.9588-0.24299,10.263-0.32875,10.263-0.32875,0.91479-0.01429,1.9725-0.02859,2.3298-0.02859,0.35734,0,0.64321,0.75756,0.64321,1.6866v0.41451c-0.0143,4.2023-1.1292,7.2182-3.3733,9.0478-0.0858,0.07147-0.2144,0.11435-0.31446,0.18582,7.89,0.54316,15.78,1.1435,23.656,1.801-1.1292,0-3.1732-0.60033-3.845-1.2007-0.35734-0.32875-0.8862-1.1721-0.94337-1.8439-0.0715-0.6575-0.0715-1.0148-0.0715-1.0148-0.0143-0.91479-0.0286-2.4442-0.0143-3.359l0.0429-15.523c0-4.0022-0.30017-7.4041-0.92908-10.248-0.62892-2.8301-1.8296-5.16-3.6306-6.9895-1.801-1.8296-4.3024-3.1732-7.4898-4.0022-3.2018-0.82902-7.3612-1.2578-12.507-1.2578-3.0016,0-5.8175,0.24299-8.4904,0.70038-2.6729,0.47169-5.1314,1.0577-7.4041,1.7438-2.2727,0.71468-4.2452,1.4579-5.9604,2.2584-1.7009,0.80044-2.6014,1.3436-2.6014,1.3436-0.78614,0.47169-1.0148,1.4865-0.50027,2.2584l6.818,10.106c1.7438-1.072,4.0451-2.1012,6.9181-3.1017,2.8587-1.0005,6.0319-1.5008,9.5052-1.5008,2.4442,0,4.431,0.15723,5.8889,0.50027,1.4722,0.32875,2.5728,0.81473,3.3447,1.4436,0.77185,0.64321,1.2864,1.4436,1.5437,2.4013,0.25728,0.97196,0.30016,1.6723,0.30016,1.6723,0.0429,0.91479-0.68609,1.6866-1.6009,1.6866h-0.61463c-6.2606,0-11.678,0.27158-16.237,0.84332-4.5882,0.57174-8.3474,1.5866-11.306,3.0445-2.9731,1.4722-5.1743,3.5019-6.6179,6.0605-1.4436,2.5585-2.1726,5.8461-2.1869,9.8482,0,0.11435,0.0286,0.2287,0.0286,0.35734,5.0885,0.2287,10.191,0.48598,15.28,0.75756-0.25728-0.70038-0.40022-1.5008-0.40022-2.4156"/>
 </g>
</svg>
