<?xml version="1.0" encoding="UTF-8" standalone="no"?>
<!-- Created with Inkscape (http://www.inkscape.org/) -->
<svg xmlns:rdf="http://www.w3.org/1999/02/22-rdf-syntax-ns#" xmlns="http://www.w3.org/2000/svg" xmlns:cc="http://creativecommons.org/ns#" xmlns:xlink="http://www.w3.org/1999/xlink" xmlns:dc="http://purl.org/dc/elements/1.1/" height="860.62" width="600" version="1.1">
  <defs>
    <linearGradient id="linearGradient4869" gradientUnits="userSpaceOnUse" gradientTransform="matrix(543.37893,-647.57159,647.57159,543.37893,-85.337605,476.05642)" x1="0" x2="1" y1="0" y2="0">
      <stop stop-color="#526123" offset="0"/>
      <stop stop-color="#becd0b" offset="1"/>
    </linearGradient>
  </defs>
  <metadata>
    <rdf:RDF>
      <cc:Work rdf:about="">
        <dc:format>image/svg+xml</dc:format>
        <dc:type rdf:resource="http://purl.org/dc/dcmitype/StillImage"/>
        <dc:title/>
      </cc:Work>
    </rdf:RDF>
  </metadata>
  <g transform="translate(113.66202,147.7456)">
    <path fill="url(#linearGradient4869)" d="m287.47-147.75,0,199.04,48.695,125.3-48.695-60.413,0,0.93963-213.46-264.87-187.65,0,0,599.98,198.87,0,0-276.86,222.86,276.86,178.25,0,0-599.98-198.87,0z"/>
    <path d="m-113.65,475.62,599.98,0,0,116.9-599.98,0,0-116.9z" fill-rule="nonzero" fill="#9d9d9c"/>
    <path fill-rule="nonzero" fill="#FFF" d="m238.79,529.46c-3.5374-1.824-7.6276-2.3767-18.24-2.3767h-13.818c-4.4218,0-6.2458-1.7687-6.2458-5.9694v-0.88436c0-0.22109,0-0.38691,0.0553-0.608,0.16582-3.7585,2.0451-5.4167,6.1905-5.4167h15.089c1.9898,0,3.5374,0.38691,4.5324,1.216,0.11054,0.0553,0.16582,0.16582,0.22109,0.22109,0.77381,0.77382,1.216,1.8793,1.2713,3.3164,1.7687-0.11055,16.084-1.2713,18.019-1.4371-0.38691-1.7687-0.82909-3.4269-1.2713-4.864-3.4822-10.281-10.612-14.15-24.983-14.15h-10.999c-17.742,0-26.42,5.9142-26.42,18.074v8.2909c0,6.4116,2.5978,11.22,7.296,13.486,3.5374,1.8793,7.6276,2.3767,18.185,2.3767h13.873c4.4218,0,6.2458,1.7134,6.2458,5.9142v0.99491c0,4.2007-1.8793,6.08-6.2458,6.08h-15.089c-2.2662,0-3.8138-0.49746-4.8087-1.5476-0.71854-0.82908-1.1607-1.9345-1.216-3.4269-1.7134,0.11054-16.195,0.71854-18.074,0.77381,2.1556,14.537,9.3963,20.009,26.254,20.009h10.999c17.798,0,26.42-5.9694,26.42-18.24v-8.3462c0-6.4116-2.5425-11.22-7.2407-13.486m153.1-30.345-70.307,0,0,16.803,25.26,0,0,53.338,19.732,0,0-53.338,25.315,0,0-16.803zm-263.21,49.469,9.0647-24.154,9.0647,24.154-18.129,0zm15.974-49.469-13.984,0-30.345,70.472,20.451,0,2.9847-7.9592,27.968,0,2.9294,7.9592,20.285,0-30.289-70.472zm136.14,49.469,9.0094-24.209,9.0647,24.209-18.074,0zm15.974-49.469-13.984,0-30.345,70.472,20.451,0,2.9294-7.9592,27.968,0,2.9847,7.9592,20.285,0-30.289-70.472zm-278.56,45.15-16.968-45.16h-20.451l30.289,70.472h14.039l30.345-70.472h-20.34l-16.913,45.158zm50.022,24.983,19.732,0,0-70.141-19.732,0,0,70.141z"/>
    <path fill-rule="nonzero" fill="#526023" d="m-113.66,615.79,19.401,0,44.771,58.865,0-58.865,20.727,0,0,95.566-17.853,0-46.318-60.745,0,60.745-20.727,0,0-95.566z"/>
    <path fill-rule="nonzero" fill="#526023" d="m55.931,671.53-12.713-31.008-12.713,31.008,25.425,0zm-22.164-56.433,19.456,0,40.957,96.285-21.998,0-8.7331-21.446-40.404,0-8.7883,21.446-21.39,0,40.902-96.285z"/>
    <path fill-rule="nonzero" fill="#526023" d="m125.7,635.2-29.073,0,0-19.401,79.15,0,0,19.401-29.073,0,0,76.166-21.004,0,0-76.166z"/>
    <path fill-rule="nonzero" fill="#526023" d="m238.63,712.88c-12.823,0-22.938-3.5374-30.345-10.723-7.3512-7.1302-11.055-17.687-11.055-31.726v-54.609h21.059v54.057c0,7.8487,1.824,13.763,5.472,17.632,3.5927,3.9796,8.6778,5.9694,15.145,5.9694,6.4669,0,11.497-1.8793,15.145-5.6931,3.648-3.8691,5.472-9.5622,5.472-17.245v-54.72h21.059v53.891c0,7.2407-0.99491,13.542-2.9294,18.958-1.9898,5.4167-4.8087,9.8938-8.4014,13.486-3.7033,3.5927-8.0698,6.3011-13.21,8.0698-5.1404,1.7687-10.944,2.6531-17.411,2.6531"/>
    <path fill-rule="nonzero" fill="#526023" d="m351.14,662.37c5.1956,0,9.1752-1.2713,11.939-3.7033,2.8189-2.4873,4.2007-5.8036,4.2007-9.8938v-0.27637c0-4.5324-1.4924-8.0145-4.4218-10.281-2.8742-2.2662-6.9091-3.4269-12.105-3.4269h-20.893v27.581h21.28zm-42.339-46.595,43.721,0c12.105,0,21.39,3.2611,27.857,9.728,5.4167,5.472,8.1803,12.768,8.1803,21.833v0.27636c0,7.7382-1.8793,14.039-5.6378,18.958-3.8138,4.8087-8.7331,8.4014-14.813,10.668l23.325,34.158h-24.596l-20.451-30.621h-0.27636-16.25v30.621h-21.059v-95.621z"/>
    <path fill-rule="nonzero" fill="#526023" d="m413.7,615.79,71.965,0,0,18.682-51.238,0,0,19.456,45.102,0,0,18.682-45.102,0,0,20.064,51.901,0,0,18.682-72.628,0,0-95.566z"/>
  </g>
</svg>
