<?xml version="1.0" encoding="UTF-8" standalone="no"?>
<!-- Created with Inkscape (http://www.inkscape.org/) -->
<svg xmlns:rdf="http://www.w3.org/1999/02/22-rdf-syntax-ns#" xmlns="http://www.w3.org/2000/svg" xmlns:cc="http://creativecommons.org/ns#" xmlns:xlink="http://www.w3.org/1999/xlink" xmlns:dc="http://purl.org/dc/elements/1.1/" height="859.12" width="600" version="1.1">
  <defs>
    <linearGradient id="linearGradient3519" gradientUnits="userSpaceOnUse" gradientTransform="matrix(-409.78178,709.76098,-709.76098,-409.78178,504.99936,-54.77549)" x1="0" x2="1" y1="0" y2="0">
      <stop stop-color="#96d2ee" offset="0"/>
      <stop stop-color="#549fd8" offset="0.18614"/>
      <stop stop-color="#18549d" offset="0.64607"/>
      <stop stop-color="#272c62" offset="0.9382"/>
      <stop stop-color="#272c62" offset="1"/>
    </linearGradient>
  </defs>
  <metadata>
    <rdf:RDF>
      <cc:Work rdf:about="">
        <dc:format>image/svg+xml</dc:format>
        <dc:type rdf:resource="http://purl.org/dc/dcmitype/StillImage"/>
        <dc:title/>
      </cc:Work>
    </rdf:RDF>
  </metadata>
  <path d="m0,621.06,600,0,0,116.9-600,0,0-116.9z" fill-rule="nonzero" fill="#9d9d9c"/>
  <path fill-rule="nonzero" fill="#FFF" d="m352.45,674.93c-3.5928-1.824-7.6831-2.3768-18.24-2.3768h-13.874c-4.3666,0-6.1907-1.7688-6.1907-5.9696v-0.88439-0.60801c0.2211-3.7586,2.1004-5.4169,6.1907-5.4169h15.09c2.0451,0,3.5375,0.38692,4.5325,1.216,0.11055,0.0553,0.2211,0.16582,0.27637,0.22109,0.77384,0.77384,1.1608,1.8793,1.2713,3.3164,1.7688-0.11055,16.085-1.2713,17.964-1.4371-0.33165-1.7688-0.77384-3.427-1.2713-4.8641-3.427-10.281-10.613-14.15-24.984-14.15h-10.944c-17.743,0-26.421,5.9143-26.421,18.075v8.2911c0,6.4118,2.5426,11.221,7.2409,13.487,3.5928,1.8793,7.6278,2.3768,18.24,2.3768h13.874c4.3666,0,6.1907,1.7135,6.1907,5.9143v0.99493c0,4.2008-1.8793,6.0802-6.1907,6.0802h-15.09c-2.2662,0-3.8139-0.49747-4.8088-1.5477-0.77384-0.82911-1.1608-1.9346-1.2713-3.427-1.7135,0.11055-16.14,0.71856-18.019,0.77384,2.1557,14.537,9.3966,20.009,26.255,20.009h10.944c17.854,0,26.476-5.9696,26.476-18.24v-8.3464c0-6.4118-2.5979-11.221-7.2409-13.487m153.11-30.345-70.309,0,0,16.803,25.26,0,0,53.339,19.678,0,0-53.339,25.371,0,0-16.803zm-263.22,49.47,9.0097-24.155,9.1202,24.155-18.13,0zm15.974-49.47-14.04,0-30.345,70.474,20.507,0,2.9295-7.9595,27.969,0,2.9848,7.9595,20.286,0-30.29-70.474zm136.08,49.47,9.0649-24.21,9.065,24.21-18.13,0zm16.029-49.47-14.04,0-30.345,70.474,20.451,0,2.9848-7.9595,27.969,0,2.9848,7.9595,20.286,0-30.29-70.474zm-278.64,45.159-16.914-45.159-20.451,0,30.29,70.474,14.04,0,30.345-70.474-20.341,0-16.969,45.159zm50.078,24.984,19.733,0,0-70.143-19.733,0,0,70.143z"/>
  <path fill-rule="nonzero" fill="#19529d" d="m3.0124,761.75,21.059,0,0,37.918,38.858,0,0-37.918,21.059,0,0,95.735-21.059,0,0-38.415-38.858,0,0,38.415-21.059,0,0-95.735z"/>
  <path d="m102.04,761.73,21.059,0,0,95.735-21.059,0,0-95.735z" fill-rule="nonzero" fill="#19529d"/>
  <path fill-rule="nonzero" fill="#19529d" d="m176.83,858.88c-7.2962,0-14.482-1.2713-21.446-3.7586-7.0751-2.4873-13.432-6.3012-19.18-11.442l12.437-14.924c4.3666,3.5928,8.8991,6.4118,13.487,8.5122,4.5878,2.0451,9.673,3.1506,15.09,3.1506,4.4219,0,7.7936-0.82911,10.226-2.4321,2.4321-1.603,3.5928-3.8139,3.5928-6.6329v-0.27637c0-1.3266-0.2211-2.5979-0.71857-3.5928-0.49746-1.1055-1.4924-2.0451-2.8742-2.9295-1.4371-0.93966-3.3717-1.8793-5.9143-2.7637-2.5426-0.93966-5.8038-1.8793-9.8388-2.8742-4.8088-1.3266-9.2308-2.6532-13.155-4.0903-3.9245-1.3819-7.2409-3.1506-10.005-5.3616-2.7637-2.1557-4.8641-4.8088-6.3565-7.9595-1.4924-3.2059-2.2662-7.1856-2.2662-11.939v-0.27637c0-4.3667,0.82911-8.3464,2.432-11.829,1.6582-3.5376,3.9245-6.5776,6.854-9.1202,2.9848-2.5979,6.4671-4.5325,10.557-5.9143,4.0903-1.3818,8.6228-2.0451,13.542-2.0451,7.0198,0,13.432,0.99493,19.346,3.0954,5.859,2.1004,11.276,5.0852,16.195,9.0097l-10.944,15.808c-4.2561-2.9295-8.4569-5.251-12.547-6.9093-4.1456-1.7135-8.2358-2.5426-12.326-2.5426-4.1456,0-7.1856,0.82911-9.286,2.3768-2.0451,1.603-3.0401,3.5928-3.0401,5.9696v0.33165c0,1.4924,0.27637,2.8742,0.88438,3.9797,0.60801,1.1608,1.6582,2.1557,3.2612,3.0954,1.5477,0.93965,3.6481,1.7688,6.3565,2.5979,2.7084,0.82911,6.0802,1.7688,10.226,2.8742,4.8088,1.2713,9.1755,2.7637,12.934,4.3114,3.8139,1.6029,7.0198,3.5375,9.6177,5.8038,2.5979,2.211,4.5878,4.8641,5.9143,7.8489,1.2713,3.0401,1.9346,6.6329,1.9346,10.834v0.27637c0,4.7536-0.82911,8.9544-2.5426,12.658-1.7135,3.7034-4.1456,6.7987-7.2409,9.3413-3.0401,2.4873-6.7434,4.4219-11,5.7485-4.2561,1.3266-9.0097,1.9899-14.205,1.9899"/>
  <path fill-rule="nonzero" fill="#19529d" d="m248.11,781.14-29.129,0,0-19.401,79.318,0,0,19.401-29.129,0,0,76.333-21.059,0,0-76.333z"/>
  <path fill-rule="nonzero" fill="#19529d" d="m354.8,839.72c4.2561,0,8.1806-0.77384,11.718-2.3215,3.4823-1.5477,6.5223-3.7034,9.0097-6.4671,2.4873-2.7084,4.4772-5.859,5.9143-9.4519,1.3818-3.6481,2.1004-7.462,2.1004-11.608v-0.2211c0-4.1456-0.71856-8.0147-2.1004-11.663-1.4371-3.6481-3.4823-6.7987-6.0802-9.5624-2.5426-2.7637-5.638-4.9194-9.1202-6.5223-3.5375-1.6029-7.4067-2.3768-11.718-2.3768-4.2008,0-8.07,0.77384-11.608,2.3215-3.5928,1.5477-6.6329,3.7034-9.1202,6.4118-2.5426,2.7637-4.4772,5.9143-5.9143,9.5071-1.3818,3.6481-2.1004,7.462-2.1004,11.552v0.33164c0,4.0903,0.71857,7.9595,2.1004,11.608,1.4371,3.6481,3.427,6.854,6.0802,9.5624,2.5979,2.7084,5.6932,4.9194,9.2308,6.5223,3.5375,1.5477,7.4067,2.3768,11.608,2.3768m-0.27637,19.401c-7.3514,0-14.205-1.2713-20.396-3.8692-6.1907-2.6532-11.552-6.1354-16.085-10.557-4.4772-4.4219-8.0147-9.6177-10.502-15.587-2.4873-5.9696-3.7586-12.381-3.7586-19.235v-0.2211c0-6.854,1.2713-13.266,3.8139-19.235,2.5426-5.9696,6.0801-11.221,10.613-15.753,4.4772-4.5325,9.8941-8.07,16.14-10.668,6.246-2.5979,13.1-3.8692,20.451-3.8692,7.4067,0,14.205,1.2713,20.396,3.8692,6.1907,2.5979,11.552,6.0802,16.085,10.557,4.4772,4.4219,8.0147,9.6177,10.502,15.532,2.5426,6.0249,3.8139,12.381,3.8139,19.235v0.33164c0,6.7987-1.3266,13.211-3.8692,19.18-2.5426,5.9696-6.0801,11.221-10.613,15.753-4.4772,4.5325-9.8941,8.0147-16.14,10.668-6.246,2.5979-13.045,3.8692-20.451,3.8692"/>
  <path fill-rule="nonzero" fill="#19529d" d="m464.41,808.39c5.1958,0,9.1755-1.216,11.994-3.7034,2.7637-2.4873,4.1456-5.8038,4.1456-9.9493v-0.22109c0-4.5878-1.4371-8.07-4.3666-10.336-2.9295-2.3215-7.0198-3.427-12.16-3.427h-20.949v27.637h21.336zm-42.395-46.651,43.722,0c12.16,0,21.446,3.2612,27.969,9.7282,5.4721,5.4721,8.1806,12.768,8.1806,21.889v0.27637c0,7.7384-1.8793,14.04-5.6932,18.904-3.7586,4.9194-8.7333,8.5122-14.813,10.723l23.381,34.215h-24.597l-20.562-30.622h-0.27637-16.251v30.622h-21.059v-95.735z"/>
  <path fill-rule="nonzero" fill="#19529d" d="m542.09,819.75-36.757-57.982,24.597,0,22.828,38.415,23.27-38.415,23.934,0-36.813,57.596,0,38.139-21.059,0,0-37.752z"/>
  <path fill="url(#linearGradient3519)" d="m394.16,89.323,0,240.33-188.1,0,0-240.33l-205.73-89.32v600.22h205.73v-93.026h188.1v93.026h205.67v-600.22l-205.67,89.323z"/>
</svg>
