<?xml version="1.0" encoding="UTF-8" standalone="no"?>
<!-- Created with Inkscape (http://www.inkscape.org/) -->
<svg xmlns:rdf="http://www.w3.org/1999/02/22-rdf-syntax-ns#" xmlns="http://www.w3.org/2000/svg" xmlns:cc="http://creativecommons.org/ns#" xmlns:xlink="http://www.w3.org/1999/xlink" xmlns:dc="http://purl.org/dc/elements/1.1/" height="860.21" width="600" version="1.1">
  <defs>
    <linearGradient id="linearGradient3677" gradientUnits="userSpaceOnUse" gradientTransform="matrix(543.02726,-647.15154,647.15154,543.02726,28.492675,623.24029)" x1="0" x2="1" y1="0" y2="0">
      <stop stop-color="#240d0e" offset="0"/>
      <stop stop-color="#d8121a" offset="0.98979"/>
      <stop stop-color="#d8121a" offset="1"/>
    </linearGradient>
  </defs>
  <metadata>
    <rdf:RDF>
      <cc:Work rdf:about="">
        <dc:format>image/svg+xml</dc:format>
        <dc:type rdf:resource="http://purl.org/dc/dcmitype/StillImage"/>
        <dc:title/>
      </cc:Work>
    </rdf:RDF>
  </metadata>
  <path d="m-0.00000892,622.69,599.34,0,0,116.78-599.34,0,0-116.78z" fill-rule="nonzero" fill="#9d9d9c"/>
  <path fill-rule="nonzero" fill="#FFF" d="m352.08,676.46c-3.5888-1.822-7.6194-2.3742-18.22-2.3742h-13.858c-4.3618,0-6.1839-1.7668-6.1839-5.963v-0.88341c0-0.22085,0-0.38649,0.0552-0.60734,0.16564-3.7545,2.0429-5.4109,6.1286-5.4109h15.073c2.0429,0,3.5888,0.38649,4.5275,1.2147,0.11042,0.0552,0.22085,0.16564,0.27606,0.22085,0.71777,0.77298,1.1595,1.8772,1.2699,3.3128,1.7668-0.11042,16.067-1.2699,17.944-1.4355-0.33127-1.7668-0.77298-3.368-1.2699-4.8588-3.4232-10.27-10.601-14.135-24.956-14.135h-10.932c-17.723,0-26.392,5.9078-26.392,18.055v8.282c0,6.4047,2.5398,11.208,7.2329,13.472,3.5888,1.8772,7.6194,2.3742,18.22,2.3742h13.803c4.417,0,6.2391,1.7116,6.2391,5.9078v0.99384c0,4.1962-1.8772,6.0734-6.2391,6.0734h-15.018c-2.2637,0-3.8097-0.49692-4.8035-1.546-0.77298-0.8282-1.1595-1.9325-1.2699-3.4232-1.7116,0.11042-16.122,0.71777-17.999,0.77298,2.1533,14.521,9.3862,19.987,26.226,19.987h10.932c17.834,0,26.447-5.963,26.447-18.22v-8.3372c0-6.4047-2.595-11.208-7.2329-13.472m152.93-30.3h-70.231v16.785h25.232v53.281h19.711v-53.281h25.288v-16.785zm-262.92,49.416,8.9997-24.128,9.0549,24.128-18.055,0zm15.957-49.416-14.024,0-30.257,70.397,20.429,0,2.9263-7.9507,27.938,0,2.9815,7.9507,20.263,0-30.257-70.397zm135.93,49.416,9.0549-24.183,9.0549,24.183-18.11,0zm16.012-49.416-14.024,0-30.312,70.397,20.429,0,2.9815-7.9507,27.938,0,2.9815,7.9507,20.263,0-30.257-70.397zm-278.33,45.109-16.895-45.109-20.429,0,30.257,70.397,14.024,0,30.312-70.397-20.318,0-16.95,45.109zm50.023,24.956,19.711,0,0-70.065-19.711,0,0,70.065z"/>
  <path fill="url(#linearGradient3677)" d="m-0.00000892,0.000023252,0,599.34,600,0-84.642-164.37-291.25,0,0-65.096,227.31,0,0-144.66-227.31,0,0-60.845,287,0,88.893-164.37-600,0z"/>
  <path fill-rule="nonzero" fill="#a61b17" d="m-0.00000892,762.77,72.108,0,0,18.717-51.348,0,0,19.435,45.164,0,0,18.772-45.164,0,0,20.098,52.011,0,0,18.717-72.771,0,0-95.739z"/>
  <path fill-rule="nonzero" fill="#a61b17" d="m109.3,809.84-32.024-47.042,24.625,0,20.098,31.03,20.263-31.03,23.962,0-32.024,46.765,33.404,48.974-24.68,0-21.478-32.797-21.588,32.797-23.962,0,33.404-48.698z"/>
  <path fill-rule="nonzero" fill="#a61b17" d="m212.59,811.05c5.2452,0,9.3862-1.3803,12.313-4.141,2.9263-2.8159,4.3618-6.2391,4.3618-10.38v-0.22085c0-4.7483-1.4908-8.3924-4.5827-10.822-3.0367-2.4846-7.2329-3.6993-12.478-3.6993h-16.288v29.263h16.674zm-37.766-48.311,39.146,0c5.7422,0,10.877,0.82819,15.404,2.4294,4.4723,1.6012,8.282,3.8649,11.429,6.736,3.1471,2.9263,5.6317,6.4599,7.2881,10.49,1.7116,4.0858,2.5398,8.558,2.5398,13.527v0.22085c0,5.5765-1.049,10.435-3.0367,14.631-1.9877,4.2514-4.7483,7.7298-8.2267,10.546-3.5888,2.8159-7.6746,4.9692-12.368,6.3495-4.6931,1.4355-9.7175,2.1533-15.073,2.1533h-16.012v28.711h-21.091v-95.795z"/>
  <path fill-rule="nonzero" fill="#a61b17" d="m257.74,762.77,21.091,0,0,76.58,47.759,0,0,19.159-68.851,0,0-95.739z"/>
  <path fill-rule="nonzero" fill="#a61b17" d="m375.28,840.78c4.3066,0,8.1715-0.77298,11.705-2.319,3.4784-1.546,6.5151-3.6993,8.9997-6.4599,2.5398-2.7606,4.4722-5.9078,5.9078-9.4966,1.4355-3.5888,2.0981-7.4538,2.0981-11.54v-0.27606c0-4.141-0.66256-8.0059-2.0981-11.65s-3.4232-6.8464-6.0182-9.6071c-2.595-2.7054-5.6869-4.914-9.1654-6.4599-3.5336-1.6012-7.4538-2.4294-11.705-2.4294-4.1962,0-8.0611,0.8282-11.65,2.3742-3.5336,1.546-6.5704,3.6441-9.0549,6.4047-2.5398,2.7606-4.4723,5.9078-5.9078,9.4966s-2.1533,7.4538-2.1533,11.595v0.27607c0,4.0858,0.71777,7.9507,2.1533,11.595,1.4355,3.6441,3.4232,6.8464,6.0182,9.6071,2.595,2.7054,5.687,4.8588,9.2206,6.4599,3.5336,1.6564,7.4538,2.4294,11.65,2.4294m-0.27607,19.435c-7.3985,0-14.19-1.3251-20.374-3.9201-6.2391-2.595-11.595-6.1286-16.122-10.546-4.4722-4.417-8.0059-9.6071-10.49-15.625-2.5398-5.963-3.8097-12.368-3.8097-19.159v-0.27606c0-6.8464,1.2699-13.251,3.8649-19.269,2.5398-5.963,6.0734-11.208,10.601-15.736,4.5275-4.4723,9.8831-8.0611,16.122-10.656,6.2943-2.595,13.085-3.9201,20.484-3.9201,7.3986,0,14.19,1.3251,20.374,3.9201,6.1839,2.595,11.595,6.1286,16.067,10.546,4.5275,4.417,8.0611,9.6071,10.546,15.57,2.4846,6.0182,3.7545,12.423,3.7545,19.269v0.27607c0,6.7912-1.2699,13.251-3.8097,19.214s-6.1286,11.208-10.601,15.736c-4.5275,4.5275-9.9383,8.0611-16.177,10.656-6.2391,2.595-13.03,3.9201-20.429,3.9201"/>
  <path fill-rule="nonzero" fill="#a61b17" d="m478.7,809.45c5.2452,0,9.1654-1.2699,11.981-3.7545,2.7606-2.4846,4.1962-5.7422,4.1962-9.8831v-0.27606c0-4.5827-1.4908-8.0059-4.417-10.325-2.9263-2.2637-6.9568-3.4232-12.147-3.4232h-20.926v27.662h21.312zm-42.404-46.655,43.784,0c12.092,0,21.423,3.2024,27.938,9.7175,5.4109,5.4661,8.1715,12.754,8.1715,21.864v0.27607c0,7.785-1.8772,14.079-5.6317,18.938-3.8097,4.8587-8.7789,8.4476-14.852,10.767l23.355,34.177h-24.625l-20.539-30.588h-0.22086-16.288v30.588h-21.091v-95.739z"/>
  <path fill-rule="nonzero" fill="#a61b17" d="m526.72,762.77,72.108,0,0,18.717-51.293,0,0,19.435,45.109,0,0,18.772-45.109,0,0,20.098,51.955,0,0,18.717-72.771,0,0-95.739z"/>
</svg>
