<?xml version="1.0" encoding="UTF-8" standalone="no"?>
<svg xmlns:rdf="http://www.w3.org/1999/02/22-rdf-syntax-ns#" xmlns="http://www.w3.org/2000/svg" xmlns:cc="http://creativecommons.org/ns#" xmlns:dc="http://purl.org/dc/elements/1.1/" height="861.56" width="600" version="1.1" viewBox="0 0 158.75 227.95518">
  <defs>
    <linearGradient id="a" gradientUnits="userSpaceOnUse" gradientTransform="matrix(-108.42 187.8 -187.8 -108.42 156.3 19.632)" x1="0" x2="1" y1="0" y2="0">
      <stop stop-color="#9ed7f0" offset="0"/>
      <stop stop-color="#61a1dd" offset=".18614"/>
      <stop stop-color="#2b4ea3" offset=".64607"/>
      <stop stop-color="#262c60" offset=".79902"/>
      <stop stop-color="#262c60" offset=".93820"/>
      <stop stop-color="#262c60" offset="1"/>
    </linearGradient>
  </defs>
  <g transform="translate(-22.679 -34.122)">
    <path d="m22.679 230.01h158.75v-30.92h-158.75l-0.001 30.92z" fill="#79797a"/>
    <path d="m115.93 213.34c-0.94-0.49-2.02-0.63-4.83-0.63h-3.66c-1.16 0-1.64-0.47-1.64-1.58v-0.24l0.01-0.15c0.04-1.01 0.54-1.43 1.63-1.43h4c0.53 0 0.93 0.09 1.19 0.31l0.07 0.06c0.2 0.21 0.31 0.5 0.33 0.87 0.47-0.03 4.26-0.33 4.77-0.37-0.09-0.47-0.22-0.9-0.34-1.29-0.91-2.72-2.81-3.74-6.62-3.74h-2.9c-4.69 0-6.99 1.56-6.99 4.78v2.19c0 1.7 0.69 2.97 1.93 3.57 0.94 0.49 2.01 0.63 4.82 0.63h3.67c1.16 0 1.64 0.46 1.64 1.56v0.27c0 1.12-0.5 1.6-1.64 1.6h-3.99c-0.61 0-1.01-0.13-1.28-0.4-0.19-0.22-0.3-0.51-0.33-0.9-0.45 0.02-4.27 0.18-4.77 0.2 0.57 3.85 2.49 5.28 6.94 5.28h2.9c4.73 0 7.01-1.57 7.01-4.81v-2.21c0-1.7-0.68-2.97-1.92-3.57m40.51-8.03h-18.6v4.44h6.69v14.12h5.21v-14.12h6.7v-4.44zm-69.644 13.08 2.391-6.38 2.406 6.38h-4.797zm4.229-13.08h-3.708l-8.025 18.64h5.416l0.779-2.1h7.4l0.785 2.1h5.371l-8.018-18.64zm36.015 13.08 2.39-6.4 2.4 6.4h-4.79zm4.23-13.08h-3.71l-8.02 18.64h5.41l0.78-2.1h7.4l0.79 2.1h5.37l-8.02-18.64zm-73.715 11.95-4.477-11.95h-5.409l8.007 18.64h3.715l8.025-18.64h-5.374l-4.487 11.95zm13.241 6.61h5.214v-18.56h-5.214v18.56z" fill="#fff"/>
    <g fill="#2b4ea3">
      <path d="m23.479 236.31h5.574v10.03h10.28v-10.03h5.577v25.33h-5.577v-10.16h-10.28v10.16h-5.574"/>
      <path d="m49.68 261.64h5.576v-25.33h-5.576v25.33z"/>
      <path d="m69.469 262.01c-1.93 0-3.824-0.34-5.678-0.99-1.861-0.66-3.554-1.67-5.069-3.04l3.294-3.94c1.154 0.94 2.345 1.7 3.561 2.25 1.22 0.55 2.56 0.84 4.002 0.84 1.159 0 2.051-0.22 2.696-0.65 0.64-0.42 0.958-1.01 0.958-1.76v-0.07c0-0.36-0.064-0.68-0.201-0.95-0.13-0.29-0.387-0.55-0.758-0.78-0.375-0.25-0.896-0.49-1.558-0.73-0.671-0.25-1.536-0.49-2.603-0.76-1.276-0.35-2.444-0.7-3.477-1.07-1.042-0.38-1.931-0.85-2.655-1.42-0.729-0.57-1.289-1.27-1.685-2.12-0.399-0.84-0.602-1.9-0.602-3.16v-0.07c0-1.16 0.218-2.2 0.647-3.13 0.437-0.93 1.035-1.74 1.818-2.41 0.78-0.69 1.705-1.2 2.793-1.56 1.082-0.36 2.272-0.55 3.578-0.55 1.857 0 3.564 0.27 5.12 0.83 1.558 0.55 2.985 1.34 4.291 2.37l-2.894 4.18c-1.135-0.76-2.249-1.37-3.333-1.82-1.086-0.45-2.175-0.67-3.258-0.67-1.085 0-1.901 0.22-2.446 0.63-0.543 0.43-0.817 0.95-0.817 1.58v0.08c0 0.41 0.086 0.76 0.24 1.07 0.157 0.3 0.437 0.57 0.857 0.81 0.408 0.24 0.969 0.47 1.684 0.68 0.715 0.22 1.612 0.48 2.707 0.77 1.274 0.34 2.423 0.72 3.426 1.14 1.002 0.43 1.85 0.93 2.539 1.53 0.69 0.59 1.214 1.28 1.565 2.08 0.346 0.8 0.523 1.75 0.523 2.86v0.08c0 1.25-0.232 2.37-0.682 3.35-0.453 0.98-1.091 1.8-1.908 2.47-0.81 0.66-1.79 1.17-2.916 1.52-1.126 0.36-2.384 0.53-3.759 0.53"/>
      <path d="m88.33 241.44h-7.715v-5.13h20.995v5.13h-7.71v20.2h-5.57"/>
      <path d="m116.56 256.94c1.13 0 2.17-0.21 3.09-0.61 0.94-0.42 1.73-0.99 2.4-1.71 0.66-0.73 1.18-1.56 1.55-2.51 0.38-0.96 0.56-1.98 0.56-3.07v-0.06c0-1.09-0.18-2.12-0.56-3.09-0.37-0.96-0.91-1.8-1.59-2.53-0.69-0.72-1.5-1.29-2.43-1.72-0.92-0.42-1.96-0.63-3.09-0.63-1.11 0-2.14 0.2-3.08 0.62-0.94 0.41-1.74 0.97-2.41 1.69-0.67 0.74-1.18 1.57-1.56 2.52-0.37 0.96-0.55 1.98-0.55 3.06v0.08c0 1.08 0.18 2.1 0.55 3.07 0.38 0.97 0.91 1.81 1.6 2.53 0.69 0.73 1.51 1.3 2.45 1.72 0.93 0.42 1.96 0.64 3.07 0.64m-0.07 5.14c-1.96 0-3.76-0.34-5.4-1.03s-3.05-1.63-4.25-2.79c-1.19-1.17-2.12-2.55-2.78-4.13-0.67-1.58-1-3.27-1-5.09v-0.06c0-1.82 0.34-3.51 1.01-5.09 0.68-1.58 1.62-2.97 2.81-4.16 1.19-1.2 2.62-2.14 4.27-2.83s3.46-1.03 5.41-1.03 3.75 0.34 5.39 1.03c1.65 0.69 3.06 1.62 4.26 2.79 1.19 1.17 2.12 2.55 2.79 4.12 0.66 1.58 0.99 3.28 0.99 5.09v0.08c0 1.8-0.34 3.5-1.01 5.08-0.68 1.58-1.61 2.97-2.81 4.16-1.19 1.2-2.62 2.14-4.27 2.83s-3.46 1.03-5.41 1.03"/>
      <path d="m145.56 248.65c1.37 0 2.43-0.32 3.17-0.99 0.73-0.65 1.09-1.52 1.09-2.62v-0.06c0-1.21-0.38-2.13-1.15-2.74-0.77-0.6-1.85-0.9-3.22-0.9h-5.54v7.31h5.65zm-11.23-12.34h11.59c3.21 0 5.67 0.86 7.38 2.56 1.45 1.45 2.17 3.39 2.17 5.8v0.07c0 2.05-0.5 3.72-1.5 5.01s-2.31 2.24-3.92 2.84l6.19 9.05h-6.52l-5.43-8.1h-4.38v8.1h-5.58"/>
      <path d="m166.11 251.65-9.73-15.34h6.51l6.05 10.16 6.15-10.16h6.34l-9.74 15.24v10.09h-5.58"/>
    </g>
    <path fill="url(#a)" d="m126.97 57.761v63.589h-49.772v-63.589l-54.419-23.639v158.82h54.419v-24.61h49.772v24.61h54.43v-158.82l-54.43 23.641"/>
  </g>
</svg>
